<?xml version="1.0" encoding="utf-8" standalone="no"?>
<!DOCTYPE svg PUBLIC "-//W3C//DTD SVG 1.1//EN"
  "http://www.w3.org/Graphics/SVG/1.1/DTD/svg11.dtd">
<svg xmlns:xlink="http://www.w3.org/1999/xlink" width="578.419062pt" height="389.977813pt" viewBox="0 0 578.419062 389.977813" xmlns="http://www.w3.org/2000/svg" version="1.1">
 <metadata>
  <rdf:RDF xmlns:dc="http://purl.org/dc/elements/1.1/" xmlns:cc="http://creativecommons.org/ns#" xmlns:rdf="http://www.w3.org/1999/02/22-rdf-syntax-ns#">
   <cc:Work>
    <dc:type rdf:resource="http://purl.org/dc/dcmitype/StillImage"/>
    <dc:date>2025-05-16T02:37:27.595355</dc:date>
    <dc:format>image/svg+xml</dc:format>
    <dc:creator>
     <cc:Agent>
      <dc:title>Matplotlib v3.9.4, https://matplotlib.org/</dc:title>
     </cc:Agent>
    </dc:creator>
   </cc:Work>
  </rdf:RDF>
 </metadata>
 <defs>
  <style type="text/css">*{stroke-linejoin: round; stroke-linecap: butt}</style>
 </defs>
 <g id="figure_1">
  <g id="patch_1">
   <path d="M 0 389.977813 
L 578.419062 389.977813 
L 578.419062 0 
L 0 0 
z
" style="fill: #ffffff"/>
  </g>
  <g id="axes_1">
   <g id="patch_2">
    <path d="M 69.019063 339.84 
L 571.219063 339.84 
L 571.219063 7.2 
L 69.019063 7.2 
z
" style="fill: #ffffff"/>
   </g>
   <g id="PolyCollection_1">
    <defs>
     <path id="m3a29532062" d="M 91.846335 -236.861718 
L 91.846335 -233.261826 
L 172.738803 -233.261826 
L 220.057863 -233.261826 
L 253.631271 -233.261826 
L 279.672829 -233.261826 
L 300.950331 -233.261826 
L 318.940203 -233.261826 
L 334.523738 -233.261826 
L 348.269391 -233.261826 
L 360.565296 -233.261826 
L 371.688296 -233.261826 
L 381.842799 -233.261826 
L 391.184036 -233.261826 
L 399.83267 -233.261826 
L 407.884357 -233.261826 
L 415.416206 -233.261826 
L 422.491291 -233.261826 
L 429.161859 -233.261826 
L 435.471674 -233.261826 
L 441.457764 -233.261826 
L 447.15173 -233.261826 
L 452.580763 -233.261826 
L 457.768425 -233.261826 
L 462.735266 -233.261826 
L 467.499322 -233.261826 
L 472.076503 -233.261826 
L 476.480919 -233.261826 
L 480.725138 -233.261826 
L 484.820406 -233.261826 
L 488.776824 -233.261826 
L 492.6035 -233.261826 
L 496.308674 -233.261826 
L 499.899824 -233.261826 
L 503.383759 -233.261826 
L 506.766696 -233.261826 
L 510.054326 -233.261826 
L 513.251873 -233.261826 
L 516.364142 -233.261826 
L 519.395564 -233.261826 
L 522.350232 -233.261826 
L 525.231938 -233.261826 
L 528.044198 -233.261826 
L 530.790282 -233.261826 
L 533.473231 -233.261826 
L 536.095884 -233.261826 
L 538.660892 -233.261826 
L 541.170735 -233.261826 
L 543.627734 -233.261826 
L 546.03407 -233.261826 
L 548.39179 -233.261826 
L 548.39179 -236.861718 
L 548.39179 -236.861718 
L 546.03407 -236.861718 
L 543.627734 -236.861718 
L 541.170735 -236.861718 
L 538.660892 -236.861718 
L 536.095884 -236.861718 
L 533.473231 -236.861718 
L 530.790282 -236.861718 
L 528.044198 -236.861718 
L 525.231938 -236.861718 
L 522.350232 -236.861718 
L 519.395564 -236.861718 
L 516.364142 -236.861718 
L 513.251873 -236.861718 
L 510.054326 -236.861718 
L 506.766696 -236.861718 
L 503.383759 -236.861718 
L 499.899824 -236.861718 
L 496.308674 -236.861718 
L 492.6035 -236.861718 
L 488.776824 -236.861718 
L 484.820406 -236.861718 
L 480.725138 -236.861718 
L 476.480919 -236.861718 
L 472.076503 -236.861718 
L 467.499322 -236.861718 
L 462.735266 -236.861718 
L 457.768425 -236.861718 
L 452.580763 -236.861718 
L 447.15173 -236.861718 
L 441.457764 -236.861718 
L 435.471674 -236.861718 
L 429.161859 -236.861718 
L 422.491291 -236.861718 
L 415.416206 -236.861718 
L 407.884357 -236.861718 
L 399.83267 -236.861718 
L 391.184036 -236.861718 
L 381.842799 -236.861718 
L 371.688296 -236.861718 
L 360.565296 -236.861718 
L 348.269391 -236.861718 
L 334.523738 -236.861718 
L 318.940203 -236.861718 
L 300.950331 -236.861718 
L 279.672829 -236.861718 
L 253.631271 -236.861718 
L 220.057863 -236.861718 
L 172.738803 -236.861718 
L 91.846335 -236.861718 
z
" style="stroke: #fdc086; stroke-opacity: 0.05"/>
    </defs>
    <g clip-path="url(#p4ed2d36b77)">
     <use xlink:href="#m3a29532062" x="0" y="389.977813" style="fill: #fdc086; fill-opacity: 0.05; stroke: #fdc086; stroke-opacity: 0.05"/>
    </g>
   </g>
   <g id="PolyCollection_2">
    <defs>
     <path id="mffdfedec10" d="M 91.846335 -218.22751 
L 91.846335 -65.257812 
L 172.738803 -133.720315 
L 220.057863 -161.234839 
L 253.631271 -189.542432 
L 279.672829 -208.172271 
L 300.950331 -219.42668 
L 318.940203 -227.763885 
L 334.523738 -239.819007 
L 348.269391 -245.342058 
L 360.565296 -251.47231 
L 371.688296 -257.855514 
L 381.842799 -261.756506 
L 391.184036 -265.788382 
L 399.83267 -268.569818 
L 407.884357 -273.220807 
L 415.416206 -275.083113 
L 422.491291 -278.126544 
L 429.161859 -280.817849 
L 435.471674 -282.531822 
L 441.457764 -284.864248 
L 447.15173 -287.341285 
L 452.580763 -288.80104 
L 457.768425 -291.029244 
L 462.735266 -292.466802 
L 467.499322 -293.172922 
L 472.076503 -295.116158 
L 476.480919 -296.161616 
L 480.725138 -297.569815 
L 484.820406 -298.231801 
L 488.776824 -300.035438 
L 492.6035 -300.767684 
L 496.308674 -301.675466 
L 499.899824 -302.351509 
L 503.383759 -303.643134 
L 506.766696 -304.189065 
L 510.054326 -304.950638 
L 513.251873 -305.301158 
L 516.364142 -305.932627 
L 519.395564 -306.750368 
L 522.350232 -307.698166 
L 525.231938 -308.658365 
L 528.044198 -309.60466 
L 530.790282 -310.516745 
L 533.473231 -311.099722 
L 536.095884 -311.789171 
L 538.660892 -312.349843 
L 541.170735 -313.320111 
L 543.627734 -314.040281 
L 546.03407 -314.623251 
L 548.39179 -315.008201 
L 548.39179 -335.41874 
L 548.39179 -335.41874 
L 546.03407 -335.266211 
L 543.627734 -334.728731 
L 541.170735 -334.495387 
L 538.660892 -334.190534 
L 536.095884 -333.77749 
L 533.473231 -333.176397 
L 530.790282 -332.933915 
L 528.044198 -332.565138 
L 525.231938 -332.154213 
L 522.350232 -331.278424 
L 519.395564 -330.863529 
L 516.364142 -329.765716 
L 513.251873 -329.500851 
L 510.054326 -329.441839 
L 506.766696 -329.006752 
L 503.383759 -328.70382 
L 499.899824 -328.362523 
L 496.308674 -328.013238 
L 492.6035 -327.042533 
L 488.776824 -326.482997 
L 484.820406 -326.157019 
L 480.725138 -324.794692 
L 476.480919 -324.188452 
L 472.076503 -323.473144 
L 467.499322 -323.031482 
L 462.735266 -322.626955 
L 457.768425 -321.87692 
L 452.580763 -321.374725 
L 447.15173 -320.542513 
L 441.457764 -319.5774 
L 435.471674 -318.41061 
L 429.161859 -316.303732 
L 422.491291 -315.199718 
L 415.416206 -313.685044 
L 407.884357 -312.337298 
L 399.83267 -311.122076 
L 391.184036 -310.03003 
L 381.842799 -307.81616 
L 371.688296 -306.320858 
L 360.565296 -304.427762 
L 348.269391 -302.544581 
L 334.523738 -300.318878 
L 318.940203 -296.943818 
L 300.950331 -294.60866 
L 279.672829 -288.26872 
L 253.631271 -278.901274 
L 220.057863 -266.170791 
L 172.738803 -249.524624 
L 91.846335 -218.22751 
z
" style="stroke: #7fc97f; stroke-opacity: 0.05"/>
    </defs>
    <g clip-path="url(#p4ed2d36b77)">
     <use xlink:href="#mffdfedec10" x="0" y="389.977813" style="fill: #7fc97f; fill-opacity: 0.05; stroke: #7fc97f; stroke-opacity: 0.05"/>
    </g>
   </g>
   <g id="PolyCollection_3">
    <defs>
     <path id="m622401d69a" d="M 91.846335 -192.125726 
L 91.846335 -189.009324 
L 172.738803 -189.025442 
L 220.057863 -189.051958 
L 253.631271 -270.565457 
L 279.672829 -299.920669 
L 300.950331 -317.229132 
L 318.940203 -328.535293 
L 334.523738 -336.292347 
L 348.269391 -342.032018 
L 360.565296 -346.011556 
L 371.688296 -348.883221 
L 381.842799 -351.084116 
L 391.184036 -352.690288 
L 399.83267 -354.049919 
L 407.884357 -355.124223 
L 415.416206 -356.282789 
L 422.491291 -357.102526 
L 429.161859 -357.887571 
L 435.471674 -358.535573 
L 441.457764 -359.116642 
L 447.15173 -359.647674 
L 452.580763 -360.136713 
L 457.768425 -360.532093 
L 462.735266 -360.949006 
L 467.499322 -361.282072 
L 472.076503 -361.642732 
L 476.480919 -361.920574 
L 480.725138 -362.190187 
L 484.820406 -362.425979 
L 488.776824 -362.613828 
L 492.6035 -362.873208 
L 496.308674 -363.111395 
L 499.899824 -363.314357 
L 503.383759 -363.492734 
L 506.766696 -363.69236 
L 510.054326 -363.842119 
L 513.251873 -364.00808 
L 516.364142 -364.186752 
L 519.395564 -364.314949 
L 522.350232 -364.462346 
L 525.231938 -364.607101 
L 528.044198 -364.730986 
L 530.790282 -364.836881 
L 533.473231 -364.929348 
L 536.095884 -365.051624 
L 538.660892 -365.135726 
L 541.170735 -365.236351 
L 543.627734 -365.340814 
L 546.03407 -365.425199 
L 548.39179 -365.533833 
L 548.39179 -367.306075 
L 548.39179 -367.306075 
L 546.03407 -367.225339 
L 543.627734 -367.150037 
L 541.170735 -367.053935 
L 538.660892 -366.969051 
L 536.095884 -366.858781 
L 533.473231 -366.757224 
L 530.790282 -366.669563 
L 528.044198 -366.5563 
L 525.231938 -366.472233 
L 522.350232 -366.358408 
L 519.395564 -366.22521 
L 516.364142 -366.091248 
L 513.251873 -365.942125 
L 510.054326 -365.776085 
L 506.766696 -365.623246 
L 503.383759 -365.475312 
L 499.899824 -365.283699 
L 496.308674 -365.086301 
L 492.6035 -364.904827 
L 488.776824 -364.688541 
L 484.820406 -364.489558 
L 480.725138 -364.229221 
L 476.480919 -363.980382 
L 472.076503 -363.726392 
L 467.499322 -363.460802 
L 462.735266 -363.154754 
L 457.768425 -362.800825 
L 452.580763 -362.422583 
L 447.15173 -361.984358 
L 441.457764 -361.519198 
L 435.471674 -361.019083 
L 429.161859 -360.429534 
L 422.491291 -359.804736 
L 415.416206 -359.047963 
L 407.884357 -358.234939 
L 399.83267 -357.218784 
L 391.184036 -355.972191 
L 381.842799 -354.51001 
L 371.688296 -353.038429 
L 360.565296 -351.514053 
L 348.269391 -349.78899 
L 334.523738 -346.991978 
L 318.940203 -343.061121 
L 300.950331 -337.708565 
L 279.672829 -331.667018 
L 253.631271 -301.746717 
L 220.057863 -192.154832 
L 172.738803 -192.137483 
L 91.846335 -192.125726 
z
" style="stroke: #bf5b17; stroke-opacity: 0.05"/>
    </defs>
    <g clip-path="url(#p4ed2d36b77)">
     <use xlink:href="#m622401d69a" x="0" y="389.977813" style="fill: #bf5b17; fill-opacity: 0.05; stroke: #bf5b17; stroke-opacity: 0.05"/>
    </g>
   </g>
   <g id="PolyCollection_4">
    <defs>
     <path id="m38ba462f87" d="M 91.846335 -192.125726 
L 91.846335 -189.009324 
L 172.738803 -189.893752 
L 220.057863 -214.815797 
L 253.631271 -220.4099 
L 279.672829 -222.604129 
L 300.950331 -255.115974 
L 318.940203 -273.90715 
L 334.523738 -274.049391 
L 348.269391 -276.872348 
L 360.565296 -277.611979 
L 371.688296 -277.629824 
L 381.842799 -277.649196 
L 391.184036 -277.651586 
L 399.83267 -278.842754 
L 407.884357 -283.144742 
L 415.416206 -283.310733 
L 422.491291 -283.786944 
L 429.161859 -283.786944 
L 435.471674 -303.310495 
L 441.457764 -303.340865 
L 447.15173 -303.343027 
L 452.580763 -303.452844 
L 457.768425 -303.971034 
L 462.735266 -304.12532 
L 467.499322 -316.464118 
L 472.076503 -317.729311 
L 476.480919 -317.729311 
L 480.725138 -317.757854 
L 484.820406 -317.760363 
L 488.776824 -317.763965 
L 492.6035 -317.763965 
L 496.308674 -318.303288 
L 499.899824 -318.31969 
L 503.383759 -318.32377 
L 506.766696 -318.554228 
L 510.054326 -318.554266 
L 513.251873 -319.278984 
L 516.364142 -319.678328 
L 519.395564 -319.685008 
L 522.350232 -319.686044 
L 525.231938 -319.974912 
L 528.044198 -320.002652 
L 530.790282 -320.002652 
L 533.473231 -320.012197 
L 536.095884 -320.598534 
L 538.660892 -322.044689 
L 541.170735 -322.044689 
L 543.627734 -322.048503 
L 546.03407 -322.049815 
L 548.39179 -325.309183 
L 548.39179 -327.347149 
L 548.39179 -327.347149 
L 546.03407 -324.165485 
L 543.627734 -324.163635 
L 541.170735 -324.154427 
L 538.660892 -324.154427 
L 536.095884 -322.778218 
L 533.473231 -322.247176 
L 530.790282 -322.231846 
L 528.044198 -322.231846 
L 525.231938 -322.208001 
L 522.350232 -321.928556 
L 519.395564 -321.926593 
L 516.364142 -321.919926 
L 513.251873 -321.541678 
L 510.054326 -320.880315 
L 506.766696 -320.880091 
L 503.383759 -320.63576 
L 499.899824 -320.633581 
L 496.308674 -320.617745 
L 492.6035 -320.10896 
L 488.776824 -320.10896 
L 484.820406 -320.106734 
L 480.725138 -320.102344 
L 476.480919 -320.077104 
L 472.076503 -320.077104 
L 467.499322 -318.927178 
L 462.735266 -306.546136 
L 457.768425 -306.448477 
L 452.580763 -305.965393 
L 447.15173 -305.877656 
L 441.457764 -305.873768 
L 435.471674 -305.843802 
L 429.161859 -286.092535 
L 422.491291 -286.092535 
L 415.416206 -285.604681 
L 407.884357 -285.469824 
L 399.83267 -281.36713 
L 391.184036 -280.158466 
L 381.842799 -280.15454 
L 371.688296 -280.141317 
L 360.565296 -280.125407 
L 348.269391 -279.352618 
L 334.523738 -276.565922 
L 318.940203 -276.453421 
L 300.950331 -257.843122 
L 279.672829 -224.889483 
L 253.631271 -222.775045 
L 220.057863 -217.144878 
L 172.738803 -192.900969 
L 91.846335 -192.125726 
z
" style="stroke: #f0027f; stroke-opacity: 0.05"/>
    </defs>
    <g clip-path="url(#p4ed2d36b77)">
     <use xlink:href="#m38ba462f87" x="0" y="389.977813" style="fill: #f0027f; fill-opacity: 0.05; stroke: #f0027f; stroke-opacity: 0.05"/>
    </g>
   </g>
   <g id="PolyCollection_5">
    <defs>
     <path id="m282804fcd9" d="M 91.846335 -192.125726 
L 91.846335 -189.009324 
L 172.738803 -189.893752 
L 220.057863 -214.815797 
L 253.631271 -220.4099 
L 279.672829 -222.604129 
L 300.950331 -255.115974 
L 318.940203 -252.332776 
L 334.523738 -271.050979 
L 348.269391 -287.264314 
L 360.565296 -301.272851 
L 371.688296 -310.420275 
L 381.842799 -317.277306 
L 391.184036 -322.981582 
L 399.83267 -330.399632 
L 407.884357 -333.961864 
L 415.416206 -336.698314 
L 422.491291 -339.598126 
L 429.161859 -342.073951 
L 435.471674 -344.528054 
L 441.457764 -345.916478 
L 447.15173 -347.579245 
L 452.580763 -349.511329 
L 457.768425 -350.991039 
L 462.735266 -351.928705 
L 467.499322 -353.026396 
L 472.076503 -354.529789 
L 476.480919 -355.88024 
L 480.725138 -357.423861 
L 484.820406 -358.397195 
L 488.776824 -359.254942 
L 492.6035 -360.161001 
L 496.308674 -360.885761 
L 499.899824 -361.481278 
L 503.383759 -361.921376 
L 506.766696 -362.323038 
L 510.054326 -362.691986 
L 513.251873 -363.01847 
L 516.364142 -363.32248 
L 519.395564 -363.603258 
L 522.350232 -363.786515 
L 525.231938 -363.987732 
L 528.044198 -364.182395 
L 530.790282 -364.345888 
L 533.473231 -364.494047 
L 536.095884 -364.62547 
L 538.660892 -364.752591 
L 541.170735 -364.875177 
L 543.627734 -364.988175 
L 546.03407 -365.073863 
L 548.39179 -365.178593 
L 548.39179 -367.07282 
L 548.39179 -367.07282 
L 546.03407 -366.980272 
L 543.627734 -366.890345 
L 541.170735 -366.808818 
L 538.660892 -366.711451 
L 536.095884 -366.584489 
L 533.473231 -366.475378 
L 530.790282 -366.368459 
L 528.044198 -366.261512 
L 525.231938 -366.145904 
L 522.350232 -366.008838 
L 519.395564 -365.858205 
L 516.364142 -365.700926 
L 513.251873 -365.539286 
L 510.054326 -365.410161 
L 506.766696 -365.294751 
L 503.383759 -365.205363 
L 499.899824 -365.138231 
L 496.308674 -365.130434 
L 492.6035 -365.192826 
L 488.776824 -365.384143 
L 484.820406 -365.495768 
L 480.725138 -365.518317 
L 476.480919 -366.044268 
L 472.076503 -366.236793 
L 467.499322 -366.557165 
L 462.735266 -366.392452 
L 457.768425 -365.878197 
L 452.580763 -365.716976 
L 447.15173 -365.765193 
L 441.457764 -365.370082 
L 435.471674 -364.624663 
L 429.161859 -364.221392 
L 422.491291 -363.648454 
L 415.416206 -362.669645 
L 407.884357 -361.034255 
L 399.83267 -359.077707 
L 391.184036 -358.161006 
L 381.842799 -355.510157 
L 371.688296 -351.436274 
L 360.565296 -345.768261 
L 348.269391 -337.08229 
L 334.523738 -323.617293 
L 318.940203 -300.215297 
L 300.950331 -257.843122 
L 279.672829 -224.889483 
L 253.631271 -222.775045 
L 220.057863 -217.144878 
L 172.738803 -192.900969 
L 91.846335 -192.125726 
z
" style="stroke: #386cb0; stroke-opacity: 0.05"/>
    </defs>
    <g clip-path="url(#p4ed2d36b77)">
     <use xlink:href="#m282804fcd9" x="0" y="389.977813" style="fill: #386cb0; fill-opacity: 0.05; stroke: #386cb0; stroke-opacity: 0.05"/>
    </g>
   </g>
   <g id="PolyCollection_6">
    <defs>
     <path id="mcc8c3adcae" d="M 91.846335 -314.344652 
L 91.846335 -310.985598 
L 172.738803 -327.835783 
L 220.057863 -336.848412 
L 253.631271 -342.735796 
L 279.672829 -345.890591 
L 300.950331 -348.445741 
L 318.940203 -350.545313 
L 334.523738 -352.307709 
L 348.269391 -353.911205 
L 360.565296 -355.214458 
L 371.688296 -356.096889 
L 381.842799 -356.854471 
L 391.184036 -357.555793 
L 399.83267 -358.228134 
L 407.884357 -358.893985 
L 415.416206 -359.470957 
L 422.491291 -359.983882 
L 429.161859 -360.516631 
L 435.471674 -360.97358 
L 441.457764 -361.424102 
L 447.15173 -361.699602 
L 452.580763 -361.976211 
L 457.768425 -362.223591 
L 462.735266 -362.452368 
L 467.499322 -362.692507 
L 472.076503 -362.933578 
L 476.480919 -363.148893 
L 480.725138 -363.370138 
L 484.820406 -363.576556 
L 488.776824 -363.766182 
L 492.6035 -363.952179 
L 496.308674 -364.150864 
L 499.899824 -364.321153 
L 503.383759 -364.484953 
L 506.766696 -364.62845 
L 510.054326 -364.737445 
L 513.251873 -364.844572 
L 516.364142 -364.94508 
L 519.395564 -365.029113 
L 522.350232 -365.107817 
L 525.231938 -365.196915 
L 528.044198 -365.284402 
L 530.790282 -365.376402 
L 533.473231 -365.460976 
L 536.095884 -365.541157 
L 538.660892 -365.613528 
L 541.170735 -365.690168 
L 543.627734 -365.751841 
L 546.03407 -365.820716 
L 548.39179 -365.893412 
L 548.39179 -367.657813 
L 548.39179 -367.657813 
L 546.03407 -367.594249 
L 543.627734 -367.523187 
L 541.170735 -367.442104 
L 538.660892 -367.373689 
L 536.095884 -367.293943 
L 533.473231 -367.218297 
L 530.790282 -367.144338 
L 528.044198 -367.069271 
L 525.231938 -366.984606 
L 522.350232 -366.89807 
L 519.395564 -366.800468 
L 516.364142 -366.706547 
L 513.251873 -366.621708 
L 510.054326 -366.532454 
L 506.766696 -366.428328 
L 503.383759 -366.281976 
L 499.899824 -366.114316 
L 496.308674 -365.941048 
L 492.6035 -365.776008 
L 488.776824 -365.593375 
L 484.820406 -365.407261 
L 480.725138 -365.211471 
L 476.480919 -365.019088 
L 472.076503 -364.808875 
L 467.499322 -364.614192 
L 462.735266 -364.40244 
L 457.768425 -364.157705 
L 452.580763 -363.911457 
L 447.15173 -363.681067 
L 441.457764 -363.421311 
L 435.471674 -363.007848 
L 429.161859 -362.549266 
L 422.491291 -362.079475 
L 415.416206 -361.525484 
L 407.884357 -360.953684 
L 399.83267 -360.39348 
L 391.184036 -359.753696 
L 381.842799 -359.087257 
L 371.688296 -358.313546 
L 360.565296 -357.501539 
L 348.269391 -356.194959 
L 334.523738 -354.669059 
L 318.940203 -352.838061 
L 300.950331 -350.760247 
L 279.672829 -348.337722 
L 253.631271 -345.23529 
L 220.057863 -339.555886 
L 172.738803 -330.83433 
L 91.846335 -314.344652 
z
" style="stroke: #666666; stroke-opacity: 0.05"/>
    </defs>
    <g clip-path="url(#p4ed2d36b77)">
     <use xlink:href="#mcc8c3adcae" x="0" y="389.977813" style="fill: #666666; fill-opacity: 0.05; stroke: #666666; stroke-opacity: 0.05"/>
    </g>
   </g>
   <g id="matplotlib.axis_1">
    <g id="xtick_1">
     <g id="line2d_1">
      <path d="M 91.846335 339.84 
L 91.846335 7.2 
" clip-path="url(#p4ed2d36b77)" style="fill: none; stroke-dasharray: 1.85,0.8; stroke-dashoffset: 0; stroke: #b0b0b0; stroke-width: 0.5"/>
     </g>
     <g id="line2d_2">
      <defs>
       <path id="m039d0051f0" d="M 0 0 
L 0 3.5 
" style="stroke: #000000; stroke-width: 0.8"/>
      </defs>
      <g>
       <use xlink:href="#m039d0051f0" x="91.846335" y="339.84" style="stroke: #000000; stroke-width: 0.8"/>
      </g>
     </g>
     <g id="text_1">
      <!-- $\mathdefault{10^{0}}$ -->
      <g transform="translate(78.646335 358.237656) scale(0.15 -0.15)">
       <defs>
        <path id="DejaVuSans-31" d="M 794 531 
L 1825 531 
L 1825 4091 
L 703 3866 
L 703 4441 
L 1819 4666 
L 2450 4666 
L 2450 531 
L 3481 531 
L 3481 0 
L 794 0 
L 794 531 
z
" transform="scale(0.015625)"/>
        <path id="DejaVuSans-30" d="M 2034 4250 
Q 1547 4250 1301 3770 
Q 1056 3291 1056 2328 
Q 1056 1369 1301 889 
Q 1547 409 2034 409 
Q 2525 409 2770 889 
Q 3016 1369 3016 2328 
Q 3016 3291 2770 3770 
Q 2525 4250 2034 4250 
z
M 2034 4750 
Q 2819 4750 3233 4129 
Q 3647 3509 3647 2328 
Q 3647 1150 3233 529 
Q 2819 -91 2034 -91 
Q 1250 -91 836 529 
Q 422 1150 422 2328 
Q 422 3509 836 4129 
Q 1250 4750 2034 4750 
z
" transform="scale(0.015625)"/>
       </defs>
       <use xlink:href="#DejaVuSans-31" transform="translate(0 0.765625)"/>
       <use xlink:href="#DejaVuSans-30" transform="translate(63.623047 0.765625)"/>
       <use xlink:href="#DejaVuSans-30" transform="translate(128.203125 39.046875) scale(0.7)"/>
      </g>
     </g>
    </g>
    <g id="xtick_2">
     <g id="line2d_3">
      <path d="M 360.565296 339.84 
L 360.565296 7.2 
" clip-path="url(#p4ed2d36b77)" style="fill: none; stroke-dasharray: 1.85,0.8; stroke-dashoffset: 0; stroke: #b0b0b0; stroke-width: 0.5"/>
     </g>
     <g id="line2d_4">
      <g>
       <use xlink:href="#m039d0051f0" x="360.565296" y="339.84" style="stroke: #000000; stroke-width: 0.8"/>
      </g>
     </g>
     <g id="text_2">
      <!-- $\mathdefault{10^{1}}$ -->
      <g transform="translate(347.365296 358.237656) scale(0.15 -0.15)">
       <use xlink:href="#DejaVuSans-31" transform="translate(0 0.684375)"/>
       <use xlink:href="#DejaVuSans-30" transform="translate(63.623047 0.684375)"/>
       <use xlink:href="#DejaVuSans-31" transform="translate(128.203125 38.965625) scale(0.7)"/>
      </g>
     </g>
    </g>
    <g id="xtick_3">
     <g id="line2d_5">
      <defs>
       <path id="m6d3988df0e" d="M 0 0 
L 0 2 
" style="stroke: #000000; stroke-width: 0.6"/>
      </defs>
      <g>
       <use xlink:href="#m6d3988df0e" x="79.55043" y="339.84" style="stroke: #000000; stroke-width: 0.6"/>
      </g>
     </g>
    </g>
    <g id="xtick_4">
     <g id="line2d_6">
      <g>
       <use xlink:href="#m6d3988df0e" x="172.738803" y="339.84" style="stroke: #000000; stroke-width: 0.6"/>
      </g>
     </g>
    </g>
    <g id="xtick_5">
     <g id="line2d_7">
      <g>
       <use xlink:href="#m6d3988df0e" x="220.057863" y="339.84" style="stroke: #000000; stroke-width: 0.6"/>
      </g>
     </g>
    </g>
    <g id="xtick_6">
     <g id="line2d_8">
      <g>
       <use xlink:href="#m6d3988df0e" x="253.631271" y="339.84" style="stroke: #000000; stroke-width: 0.6"/>
      </g>
     </g>
    </g>
    <g id="xtick_7">
     <g id="line2d_9">
      <g>
       <use xlink:href="#m6d3988df0e" x="279.672829" y="339.84" style="stroke: #000000; stroke-width: 0.6"/>
      </g>
     </g>
    </g>
    <g id="xtick_8">
     <g id="line2d_10">
      <g>
       <use xlink:href="#m6d3988df0e" x="300.950331" y="339.84" style="stroke: #000000; stroke-width: 0.6"/>
      </g>
     </g>
    </g>
    <g id="xtick_9">
     <g id="line2d_11">
      <g>
       <use xlink:href="#m6d3988df0e" x="318.940203" y="339.84" style="stroke: #000000; stroke-width: 0.6"/>
      </g>
     </g>
    </g>
    <g id="xtick_10">
     <g id="line2d_12">
      <g>
       <use xlink:href="#m6d3988df0e" x="334.523738" y="339.84" style="stroke: #000000; stroke-width: 0.6"/>
      </g>
     </g>
    </g>
    <g id="xtick_11">
     <g id="line2d_13">
      <g>
       <use xlink:href="#m6d3988df0e" x="348.269391" y="339.84" style="stroke: #000000; stroke-width: 0.6"/>
      </g>
     </g>
    </g>
    <g id="xtick_12">
     <g id="line2d_14">
      <g>
       <use xlink:href="#m6d3988df0e" x="441.457764" y="339.84" style="stroke: #000000; stroke-width: 0.6"/>
      </g>
     </g>
    </g>
    <g id="xtick_13">
     <g id="line2d_15">
      <g>
       <use xlink:href="#m6d3988df0e" x="488.776824" y="339.84" style="stroke: #000000; stroke-width: 0.6"/>
      </g>
     </g>
    </g>
    <g id="xtick_14">
     <g id="line2d_16">
      <g>
       <use xlink:href="#m6d3988df0e" x="522.350232" y="339.84" style="stroke: #000000; stroke-width: 0.6"/>
      </g>
     </g>
    </g>
    <g id="xtick_15">
     <g id="line2d_17">
      <g>
       <use xlink:href="#m6d3988df0e" x="548.39179" y="339.84" style="stroke: #000000; stroke-width: 0.6"/>
      </g>
     </g>
    </g>
    <g id="xtick_16">
     <g id="line2d_18">
      <g>
       <use xlink:href="#m6d3988df0e" x="569.669292" y="339.84" style="stroke: #000000; stroke-width: 0.6"/>
      </g>
     </g>
    </g>
    <g id="text_3">
     <!-- Decision Round -->
     <g transform="translate(250.466094 379.034375) scale(0.18 -0.18)">
      <defs>
       <path id="DejaVuSans-44" d="M 1259 4147 
L 1259 519 
L 2022 519 
Q 2988 519 3436 956 
Q 3884 1394 3884 2338 
Q 3884 3275 3436 3711 
Q 2988 4147 2022 4147 
L 1259 4147 
z
M 628 4666 
L 1925 4666 
Q 3281 4666 3915 4102 
Q 4550 3538 4550 2338 
Q 4550 1131 3912 565 
Q 3275 0 1925 0 
L 628 0 
L 628 4666 
z
" transform="scale(0.015625)"/>
       <path id="DejaVuSans-65" d="M 3597 1894 
L 3597 1613 
L 953 1613 
Q 991 1019 1311 708 
Q 1631 397 2203 397 
Q 2534 397 2845 478 
Q 3156 559 3463 722 
L 3463 178 
Q 3153 47 2828 -22 
Q 2503 -91 2169 -91 
Q 1331 -91 842 396 
Q 353 884 353 1716 
Q 353 2575 817 3079 
Q 1281 3584 2069 3584 
Q 2775 3584 3186 3129 
Q 3597 2675 3597 1894 
z
M 3022 2063 
Q 3016 2534 2758 2815 
Q 2500 3097 2075 3097 
Q 1594 3097 1305 2825 
Q 1016 2553 972 2059 
L 3022 2063 
z
" transform="scale(0.015625)"/>
       <path id="DejaVuSans-63" d="M 3122 3366 
L 3122 2828 
Q 2878 2963 2633 3030 
Q 2388 3097 2138 3097 
Q 1578 3097 1268 2742 
Q 959 2388 959 1747 
Q 959 1106 1268 751 
Q 1578 397 2138 397 
Q 2388 397 2633 464 
Q 2878 531 3122 666 
L 3122 134 
Q 2881 22 2623 -34 
Q 2366 -91 2075 -91 
Q 1284 -91 818 406 
Q 353 903 353 1747 
Q 353 2603 823 3093 
Q 1294 3584 2113 3584 
Q 2378 3584 2631 3529 
Q 2884 3475 3122 3366 
z
" transform="scale(0.015625)"/>
       <path id="DejaVuSans-69" d="M 603 3500 
L 1178 3500 
L 1178 0 
L 603 0 
L 603 3500 
z
M 603 4863 
L 1178 4863 
L 1178 4134 
L 603 4134 
L 603 4863 
z
" transform="scale(0.015625)"/>
       <path id="DejaVuSans-73" d="M 2834 3397 
L 2834 2853 
Q 2591 2978 2328 3040 
Q 2066 3103 1784 3103 
Q 1356 3103 1142 2972 
Q 928 2841 928 2578 
Q 928 2378 1081 2264 
Q 1234 2150 1697 2047 
L 1894 2003 
Q 2506 1872 2764 1633 
Q 3022 1394 3022 966 
Q 3022 478 2636 193 
Q 2250 -91 1575 -91 
Q 1294 -91 989 -36 
Q 684 19 347 128 
L 347 722 
Q 666 556 975 473 
Q 1284 391 1588 391 
Q 1994 391 2212 530 
Q 2431 669 2431 922 
Q 2431 1156 2273 1281 
Q 2116 1406 1581 1522 
L 1381 1569 
Q 847 1681 609 1914 
Q 372 2147 372 2553 
Q 372 3047 722 3315 
Q 1072 3584 1716 3584 
Q 2034 3584 2315 3537 
Q 2597 3491 2834 3397 
z
" transform="scale(0.015625)"/>
       <path id="DejaVuSans-6f" d="M 1959 3097 
Q 1497 3097 1228 2736 
Q 959 2375 959 1747 
Q 959 1119 1226 758 
Q 1494 397 1959 397 
Q 2419 397 2687 759 
Q 2956 1122 2956 1747 
Q 2956 2369 2687 2733 
Q 2419 3097 1959 3097 
z
M 1959 3584 
Q 2709 3584 3137 3096 
Q 3566 2609 3566 1747 
Q 3566 888 3137 398 
Q 2709 -91 1959 -91 
Q 1206 -91 779 398 
Q 353 888 353 1747 
Q 353 2609 779 3096 
Q 1206 3584 1959 3584 
z
" transform="scale(0.015625)"/>
       <path id="DejaVuSans-6e" d="M 3513 2113 
L 3513 0 
L 2938 0 
L 2938 2094 
Q 2938 2591 2744 2837 
Q 2550 3084 2163 3084 
Q 1697 3084 1428 2787 
Q 1159 2491 1159 1978 
L 1159 0 
L 581 0 
L 581 3500 
L 1159 3500 
L 1159 2956 
Q 1366 3272 1645 3428 
Q 1925 3584 2291 3584 
Q 2894 3584 3203 3211 
Q 3513 2838 3513 2113 
z
" transform="scale(0.015625)"/>
       <path id="DejaVuSans-20" transform="scale(0.015625)"/>
       <path id="DejaVuSans-52" d="M 2841 2188 
Q 3044 2119 3236 1894 
Q 3428 1669 3622 1275 
L 4263 0 
L 3584 0 
L 2988 1197 
Q 2756 1666 2539 1819 
Q 2322 1972 1947 1972 
L 1259 1972 
L 1259 0 
L 628 0 
L 628 4666 
L 2053 4666 
Q 2853 4666 3247 4331 
Q 3641 3997 3641 3322 
Q 3641 2881 3436 2590 
Q 3231 2300 2841 2188 
z
M 1259 4147 
L 1259 2491 
L 2053 2491 
Q 2509 2491 2742 2702 
Q 2975 2913 2975 3322 
Q 2975 3731 2742 3939 
Q 2509 4147 2053 4147 
L 1259 4147 
z
" transform="scale(0.015625)"/>
       <path id="DejaVuSans-75" d="M 544 1381 
L 544 3500 
L 1119 3500 
L 1119 1403 
Q 1119 906 1312 657 
Q 1506 409 1894 409 
Q 2359 409 2629 706 
Q 2900 1003 2900 1516 
L 2900 3500 
L 3475 3500 
L 3475 0 
L 2900 0 
L 2900 538 
Q 2691 219 2414 64 
Q 2138 -91 1772 -91 
Q 1169 -91 856 284 
Q 544 659 544 1381 
z
M 1991 3584 
L 1991 3584 
z
" transform="scale(0.015625)"/>
       <path id="DejaVuSans-64" d="M 2906 2969 
L 2906 4863 
L 3481 4863 
L 3481 0 
L 2906 0 
L 2906 525 
Q 2725 213 2448 61 
Q 2172 -91 1784 -91 
Q 1150 -91 751 415 
Q 353 922 353 1747 
Q 353 2572 751 3078 
Q 1150 3584 1784 3584 
Q 2172 3584 2448 3432 
Q 2725 3281 2906 2969 
z
M 947 1747 
Q 947 1113 1208 752 
Q 1469 391 1925 391 
Q 2381 391 2643 752 
Q 2906 1113 2906 1747 
Q 2906 2381 2643 2742 
Q 2381 3103 1925 3103 
Q 1469 3103 1208 2742 
Q 947 2381 947 1747 
z
" transform="scale(0.015625)"/>
      </defs>
      <use xlink:href="#DejaVuSans-44"/>
      <use xlink:href="#DejaVuSans-65" x="77.001953"/>
      <use xlink:href="#DejaVuSans-63" x="138.525391"/>
      <use xlink:href="#DejaVuSans-69" x="193.505859"/>
      <use xlink:href="#DejaVuSans-73" x="221.289062"/>
      <use xlink:href="#DejaVuSans-69" x="273.388672"/>
      <use xlink:href="#DejaVuSans-6f" x="301.171875"/>
      <use xlink:href="#DejaVuSans-6e" x="362.353516"/>
      <use xlink:href="#DejaVuSans-20" x="425.732422"/>
      <use xlink:href="#DejaVuSans-52" x="457.519531"/>
      <use xlink:href="#DejaVuSans-6f" x="522.501953"/>
      <use xlink:href="#DejaVuSans-75" x="583.683594"/>
      <use xlink:href="#DejaVuSans-6e" x="647.0625"/>
      <use xlink:href="#DejaVuSans-64" x="710.441406"/>
     </g>
    </g>
   </g>
   <g id="matplotlib.axis_2">
    <g id="ytick_1">
     <g id="line2d_19">
      <path d="M 69.019063 296.881606 
L 571.219063 296.881606 
" clip-path="url(#p4ed2d36b77)" style="fill: none; stroke-dasharray: 1.85,0.8; stroke-dashoffset: 0; stroke: #b0b0b0; stroke-width: 0.5"/>
     </g>
     <g id="line2d_20">
      <defs>
       <path id="me1122052f2" d="M 0 0 
L -3.5 0 
" style="stroke: #000000; stroke-width: 0.8"/>
      </defs>
      <g>
       <use xlink:href="#me1122052f2" x="69.019063" y="296.881606" style="stroke: #000000; stroke-width: 0.8"/>
      </g>
     </g>
     <g id="text_4">
      <!-- 0.40 -->
      <g transform="translate(28.620625 302.580434) scale(0.15 -0.15)">
       <defs>
        <path id="DejaVuSans-2e" d="M 684 794 
L 1344 794 
L 1344 0 
L 684 0 
L 684 794 
z
" transform="scale(0.015625)"/>
        <path id="DejaVuSans-34" d="M 2419 4116 
L 825 1625 
L 2419 1625 
L 2419 4116 
z
M 2253 4666 
L 3047 4666 
L 3047 1625 
L 3713 1625 
L 3713 1100 
L 3047 1100 
L 3047 0 
L 2419 0 
L 2419 1100 
L 313 1100 
L 313 1709 
L 2253 4666 
z
" transform="scale(0.015625)"/>
       </defs>
       <use xlink:href="#DejaVuSans-30"/>
       <use xlink:href="#DejaVuSans-2e" x="63.623047"/>
       <use xlink:href="#DejaVuSans-34" x="95.410156"/>
       <use xlink:href="#DejaVuSans-30" x="159.033203"/>
      </g>
     </g>
    </g>
    <g id="ytick_2">
     <g id="line2d_21">
      <path d="M 69.019063 231.423164 
L 571.219063 231.423164 
" clip-path="url(#p4ed2d36b77)" style="fill: none; stroke-dasharray: 1.85,0.8; stroke-dashoffset: 0; stroke: #b0b0b0; stroke-width: 0.5"/>
     </g>
     <g id="line2d_22">
      <g>
       <use xlink:href="#me1122052f2" x="69.019063" y="231.423164" style="stroke: #000000; stroke-width: 0.8"/>
      </g>
     </g>
     <g id="text_5">
      <!-- 0.45 -->
      <g transform="translate(28.620625 237.121992) scale(0.15 -0.15)">
       <defs>
        <path id="DejaVuSans-35" d="M 691 4666 
L 3169 4666 
L 3169 4134 
L 1269 4134 
L 1269 2991 
Q 1406 3038 1543 3061 
Q 1681 3084 1819 3084 
Q 2600 3084 3056 2656 
Q 3513 2228 3513 1497 
Q 3513 744 3044 326 
Q 2575 -91 1722 -91 
Q 1428 -91 1123 -41 
Q 819 9 494 109 
L 494 744 
Q 775 591 1075 516 
Q 1375 441 1709 441 
Q 2250 441 2565 725 
Q 2881 1009 2881 1497 
Q 2881 1984 2565 2268 
Q 2250 2553 1709 2553 
Q 1456 2553 1204 2497 
Q 953 2441 691 2322 
L 691 4666 
z
" transform="scale(0.015625)"/>
       </defs>
       <use xlink:href="#DejaVuSans-30"/>
       <use xlink:href="#DejaVuSans-2e" x="63.623047"/>
       <use xlink:href="#DejaVuSans-34" x="95.410156"/>
       <use xlink:href="#DejaVuSans-35" x="159.033203"/>
      </g>
     </g>
    </g>
    <g id="ytick_3">
     <g id="line2d_23">
      <path d="M 69.019063 165.964721 
L 571.219063 165.964721 
" clip-path="url(#p4ed2d36b77)" style="fill: none; stroke-dasharray: 1.85,0.8; stroke-dashoffset: 0; stroke: #b0b0b0; stroke-width: 0.5"/>
     </g>
     <g id="line2d_24">
      <g>
       <use xlink:href="#me1122052f2" x="69.019063" y="165.964721" style="stroke: #000000; stroke-width: 0.8"/>
      </g>
     </g>
     <g id="text_6">
      <!-- 0.50 -->
      <g transform="translate(28.620625 171.66355) scale(0.15 -0.15)">
       <use xlink:href="#DejaVuSans-30"/>
       <use xlink:href="#DejaVuSans-2e" x="63.623047"/>
       <use xlink:href="#DejaVuSans-35" x="95.410156"/>
       <use xlink:href="#DejaVuSans-30" x="159.033203"/>
      </g>
     </g>
    </g>
    <g id="ytick_4">
     <g id="line2d_25">
      <path d="M 69.019063 100.506279 
L 571.219063 100.506279 
" clip-path="url(#p4ed2d36b77)" style="fill: none; stroke-dasharray: 1.85,0.8; stroke-dashoffset: 0; stroke: #b0b0b0; stroke-width: 0.5"/>
     </g>
     <g id="line2d_26">
      <g>
       <use xlink:href="#me1122052f2" x="69.019063" y="100.506279" style="stroke: #000000; stroke-width: 0.8"/>
      </g>
     </g>
     <g id="text_7">
      <!-- 0.55 -->
      <g transform="translate(28.620625 106.205107) scale(0.15 -0.15)">
       <use xlink:href="#DejaVuSans-30"/>
       <use xlink:href="#DejaVuSans-2e" x="63.623047"/>
       <use xlink:href="#DejaVuSans-35" x="95.410156"/>
       <use xlink:href="#DejaVuSans-35" x="159.033203"/>
      </g>
     </g>
    </g>
    <g id="ytick_5">
     <g id="line2d_27">
      <path d="M 69.019063 35.047837 
L 571.219063 35.047837 
" clip-path="url(#p4ed2d36b77)" style="fill: none; stroke-dasharray: 1.85,0.8; stroke-dashoffset: 0; stroke: #b0b0b0; stroke-width: 0.5"/>
     </g>
     <g id="line2d_28">
      <g>
       <use xlink:href="#me1122052f2" x="69.019063" y="35.047837" style="stroke: #000000; stroke-width: 0.8"/>
      </g>
     </g>
     <g id="text_8">
      <!-- 0.60 -->
      <g transform="translate(28.620625 40.746665) scale(0.15 -0.15)">
       <defs>
        <path id="DejaVuSans-36" d="M 2113 2584 
Q 1688 2584 1439 2293 
Q 1191 2003 1191 1497 
Q 1191 994 1439 701 
Q 1688 409 2113 409 
Q 2538 409 2786 701 
Q 3034 994 3034 1497 
Q 3034 2003 2786 2293 
Q 2538 2584 2113 2584 
z
M 3366 4563 
L 3366 3988 
Q 3128 4100 2886 4159 
Q 2644 4219 2406 4219 
Q 1781 4219 1451 3797 
Q 1122 3375 1075 2522 
Q 1259 2794 1537 2939 
Q 1816 3084 2150 3084 
Q 2853 3084 3261 2657 
Q 3669 2231 3669 1497 
Q 3669 778 3244 343 
Q 2819 -91 2113 -91 
Q 1303 -91 875 529 
Q 447 1150 447 2328 
Q 447 3434 972 4092 
Q 1497 4750 2381 4750 
Q 2619 4750 2861 4703 
Q 3103 4656 3366 4563 
z
" transform="scale(0.015625)"/>
       </defs>
       <use xlink:href="#DejaVuSans-30"/>
       <use xlink:href="#DejaVuSans-2e" x="63.623047"/>
       <use xlink:href="#DejaVuSans-36" x="95.410156"/>
       <use xlink:href="#DejaVuSans-30" x="159.033203"/>
      </g>
     </g>
    </g>
    <g id="text_9">
     <!-- Normalized Performance -->
     <g transform="translate(20.877187 284.447812) rotate(-90) scale(0.18 -0.18)">
      <defs>
       <path id="DejaVuSans-4e" d="M 628 4666 
L 1478 4666 
L 3547 763 
L 3547 4666 
L 4159 4666 
L 4159 0 
L 3309 0 
L 1241 3903 
L 1241 0 
L 628 0 
L 628 4666 
z
" transform="scale(0.015625)"/>
       <path id="DejaVuSans-72" d="M 2631 2963 
Q 2534 3019 2420 3045 
Q 2306 3072 2169 3072 
Q 1681 3072 1420 2755 
Q 1159 2438 1159 1844 
L 1159 0 
L 581 0 
L 581 3500 
L 1159 3500 
L 1159 2956 
Q 1341 3275 1631 3429 
Q 1922 3584 2338 3584 
Q 2397 3584 2469 3576 
Q 2541 3569 2628 3553 
L 2631 2963 
z
" transform="scale(0.015625)"/>
       <path id="DejaVuSans-6d" d="M 3328 2828 
Q 3544 3216 3844 3400 
Q 4144 3584 4550 3584 
Q 5097 3584 5394 3201 
Q 5691 2819 5691 2113 
L 5691 0 
L 5113 0 
L 5113 2094 
Q 5113 2597 4934 2840 
Q 4756 3084 4391 3084 
Q 3944 3084 3684 2787 
Q 3425 2491 3425 1978 
L 3425 0 
L 2847 0 
L 2847 2094 
Q 2847 2600 2669 2842 
Q 2491 3084 2119 3084 
Q 1678 3084 1418 2786 
Q 1159 2488 1159 1978 
L 1159 0 
L 581 0 
L 581 3500 
L 1159 3500 
L 1159 2956 
Q 1356 3278 1631 3431 
Q 1906 3584 2284 3584 
Q 2666 3584 2933 3390 
Q 3200 3197 3328 2828 
z
" transform="scale(0.015625)"/>
       <path id="DejaVuSans-61" d="M 2194 1759 
Q 1497 1759 1228 1600 
Q 959 1441 959 1056 
Q 959 750 1161 570 
Q 1363 391 1709 391 
Q 2188 391 2477 730 
Q 2766 1069 2766 1631 
L 2766 1759 
L 2194 1759 
z
M 3341 1997 
L 3341 0 
L 2766 0 
L 2766 531 
Q 2569 213 2275 61 
Q 1981 -91 1556 -91 
Q 1019 -91 701 211 
Q 384 513 384 1019 
Q 384 1609 779 1909 
Q 1175 2209 1959 2209 
L 2766 2209 
L 2766 2266 
Q 2766 2663 2505 2880 
Q 2244 3097 1772 3097 
Q 1472 3097 1187 3025 
Q 903 2953 641 2809 
L 641 3341 
Q 956 3463 1253 3523 
Q 1550 3584 1831 3584 
Q 2591 3584 2966 3190 
Q 3341 2797 3341 1997 
z
" transform="scale(0.015625)"/>
       <path id="DejaVuSans-6c" d="M 603 4863 
L 1178 4863 
L 1178 0 
L 603 0 
L 603 4863 
z
" transform="scale(0.015625)"/>
       <path id="DejaVuSans-7a" d="M 353 3500 
L 3084 3500 
L 3084 2975 
L 922 459 
L 3084 459 
L 3084 0 
L 275 0 
L 275 525 
L 2438 3041 
L 353 3041 
L 353 3500 
z
" transform="scale(0.015625)"/>
       <path id="DejaVuSans-50" d="M 1259 4147 
L 1259 2394 
L 2053 2394 
Q 2494 2394 2734 2622 
Q 2975 2850 2975 3272 
Q 2975 3691 2734 3919 
Q 2494 4147 2053 4147 
L 1259 4147 
z
M 628 4666 
L 2053 4666 
Q 2838 4666 3239 4311 
Q 3641 3956 3641 3272 
Q 3641 2581 3239 2228 
Q 2838 1875 2053 1875 
L 1259 1875 
L 1259 0 
L 628 0 
L 628 4666 
z
" transform="scale(0.015625)"/>
       <path id="DejaVuSans-66" d="M 2375 4863 
L 2375 4384 
L 1825 4384 
Q 1516 4384 1395 4259 
Q 1275 4134 1275 3809 
L 1275 3500 
L 2222 3500 
L 2222 3053 
L 1275 3053 
L 1275 0 
L 697 0 
L 697 3053 
L 147 3053 
L 147 3500 
L 697 3500 
L 697 3744 
Q 697 4328 969 4595 
Q 1241 4863 1831 4863 
L 2375 4863 
z
" transform="scale(0.015625)"/>
      </defs>
      <use xlink:href="#DejaVuSans-4e"/>
      <use xlink:href="#DejaVuSans-6f" x="74.804688"/>
      <use xlink:href="#DejaVuSans-72" x="135.986328"/>
      <use xlink:href="#DejaVuSans-6d" x="175.349609"/>
      <use xlink:href="#DejaVuSans-61" x="272.761719"/>
      <use xlink:href="#DejaVuSans-6c" x="334.041016"/>
      <use xlink:href="#DejaVuSans-69" x="361.824219"/>
      <use xlink:href="#DejaVuSans-7a" x="389.607422"/>
      <use xlink:href="#DejaVuSans-65" x="442.097656"/>
      <use xlink:href="#DejaVuSans-64" x="503.621094"/>
      <use xlink:href="#DejaVuSans-20" x="567.097656"/>
      <use xlink:href="#DejaVuSans-50" x="598.884766"/>
      <use xlink:href="#DejaVuSans-65" x="655.5625"/>
      <use xlink:href="#DejaVuSans-72" x="717.085938"/>
      <use xlink:href="#DejaVuSans-66" x="758.199219"/>
      <use xlink:href="#DejaVuSans-6f" x="793.404297"/>
      <use xlink:href="#DejaVuSans-72" x="854.585938"/>
      <use xlink:href="#DejaVuSans-6d" x="893.949219"/>
      <use xlink:href="#DejaVuSans-61" x="991.361328"/>
      <use xlink:href="#DejaVuSans-6e" x="1052.640625"/>
      <use xlink:href="#DejaVuSans-63" x="1116.019531"/>
      <use xlink:href="#DejaVuSans-65" x="1171"/>
     </g>
    </g>
   </g>
   <g id="line2d_29">
    <path d="M 91.846335 154.916041 
L 172.738803 154.916041 
L 220.057863 154.916041 
L 253.631271 154.916041 
L 279.672829 154.916041 
L 300.950331 154.916041 
L 318.940203 154.916041 
L 334.523738 154.916041 
L 348.269391 154.916041 
L 360.565296 154.916041 
L 371.688296 154.916041 
L 381.842799 154.916041 
L 391.184036 154.916041 
L 399.83267 154.916041 
L 407.884357 154.916041 
L 415.416206 154.916041 
L 422.491291 154.916041 
L 429.161859 154.916041 
L 435.471674 154.916041 
L 441.457764 154.916041 
L 447.15173 154.916041 
L 452.580763 154.916041 
L 457.768425 154.916041 
L 462.735266 154.916041 
L 467.499322 154.916041 
L 472.076503 154.916041 
L 476.480919 154.916041 
L 480.725138 154.916041 
L 484.820406 154.916041 
L 488.776824 154.916041 
L 492.6035 154.916041 
L 496.308674 154.916041 
L 499.899824 154.916041 
L 503.383759 154.916041 
L 506.766696 154.916041 
L 510.054326 154.916041 
L 513.251873 154.916041 
L 516.364142 154.916041 
L 519.395564 154.916041 
L 522.350232 154.916041 
L 525.231938 154.916041 
L 528.044198 154.916041 
L 530.790282 154.916041 
L 533.473231 154.916041 
L 536.095884 154.916041 
L 538.660892 154.916041 
L 541.170735 154.916041 
L 543.627734 154.916041 
L 546.03407 154.916041 
L 548.39179 154.916041 
" clip-path="url(#p4ed2d36b77)" style="fill: none; stroke-dasharray: 11.1,4.8; stroke-dashoffset: 0; stroke: #fdc086; stroke-width: 3"/>
   </g>
   <g id="line2d_30">
    <path d="M 91.846335 248.235151 
L 172.738803 198.355343 
L 220.057863 176.274998 
L 253.631271 155.755959 
L 279.672829 141.757317 
L 300.950331 132.960143 
L 318.940203 127.623961 
L 334.523738 119.90887 
L 348.269391 116.034493 
L 360.565296 112.027776 
L 371.688296 107.889626 
L 381.842799 105.19148 
L 391.184036 102.068606 
L 399.83267 100.131865 
L 407.884357 97.19876 
L 415.416206 95.593734 
L 422.491291 93.314681 
L 429.161859 91.417022 
L 435.471674 89.506596 
L 441.457764 87.756989 
L 447.15173 86.035914 
L 452.580763 84.88993 
L 457.768425 83.524731 
L 462.735266 82.430934 
L 467.499322 81.875611 
L 472.076503 80.683161 
L 476.480919 79.802778 
L 480.725138 78.795559 
L 484.820406 77.783402 
L 488.776824 76.718595 
L 492.6035 76.072704 
L 496.308674 75.133461 
L 499.899824 74.620797 
L 503.383759 73.804336 
L 506.766696 73.379904 
L 510.054326 72.781574 
L 513.251873 72.576808 
L 516.364142 72.128641 
L 519.395564 71.170864 
L 522.350232 70.489517 
L 525.231938 69.571524 
L 528.044198 68.892914 
L 530.790282 68.252482 
L 533.473231 67.839753 
L 536.095884 67.194482 
L 538.660892 66.707624 
L 541.170735 66.070064 
L 543.627734 65.593306 
L 546.03407 65.033081 
L 548.39179 64.764342 
" clip-path="url(#p4ed2d36b77)" style="fill: none; stroke: #7fc97f; stroke-width: 3; stroke-linecap: square"/>
   </g>
   <g id="line2d_31">
    <path d="M 91.846335 199.410287 
L 172.738803 199.39635 
L 220.057863 199.374418 
L 253.631271 103.821725 
L 279.672829 74.183969 
L 300.950331 62.508964 
L 318.940203 54.179605 
L 334.523738 48.33565 
L 348.269391 44.067309 
L 360.565296 41.215008 
L 371.688296 39.016987 
L 381.842799 37.180749 
L 391.184036 35.646573 
L 399.83267 34.343461 
L 407.884357 33.298232 
L 415.416206 32.312436 
L 422.491291 31.524182 
L 429.161859 30.81926 
L 435.471674 30.200485 
L 441.457764 29.659893 
L 447.15173 29.161796 
L 452.580763 28.698165 
L 457.768425 28.311353 
L 462.735266 27.925933 
L 467.499322 27.606375 
L 472.076503 27.293251 
L 476.480919 27.027335 
L 480.725138 26.768108 
L 484.820406 26.520044 
L 488.776824 26.326628 
L 492.6035 26.088795 
L 496.308674 25.878964 
L 499.899824 25.678785 
L 503.383759 25.493789 
L 506.766696 25.32001 
L 510.054326 25.168711 
L 513.251873 25.00271 
L 516.364142 24.838812 
L 519.395564 24.707733 
L 522.350232 24.567435 
L 525.231938 24.438145 
L 528.044198 24.334169 
L 530.790282 24.22459 
L 533.473231 24.134527 
L 536.095884 24.02261 
L 538.660892 23.925424 
L 541.170735 23.83267 
L 543.627734 23.732387 
L 546.03407 23.652544 
L 548.39179 23.557859 
" clip-path="url(#p4ed2d36b77)" style="fill: none; stroke: #bf5b17; stroke-width: 3; stroke-linecap: square"/>
   </g>
   <g id="line2d_32">
    <path d="M 91.846335 199.410287 
L 172.738803 198.580452 
L 220.057863 173.997475 
L 253.631271 168.38534 
L 279.672829 166.231007 
L 300.950331 133.498265 
L 318.940203 114.797527 
L 334.523738 114.670156 
L 348.269391 111.86533 
L 360.565296 111.109119 
L 371.688296 111.092242 
L 381.842799 111.075944 
L 391.184036 111.072787 
L 399.83267 109.872871 
L 407.884357 105.670529 
L 415.416206 105.520105 
L 422.491291 105.038073 
L 429.161859 105.038073 
L 435.471674 85.400664 
L 441.457764 85.370496 
L 447.15173 85.367471 
L 452.580763 85.268694 
L 457.768425 84.768057 
L 462.735266 84.642085 
L 467.499322 72.282164 
L 472.076503 71.074605 
L 476.480919 71.074605 
L 480.725138 71.047714 
L 484.820406 71.044264 
L 488.776824 71.04135 
L 492.6035 71.04135 
L 496.308674 70.517296 
L 499.899824 70.501177 
L 503.383759 70.498048 
L 506.766696 70.260653 
L 510.054326 70.260522 
L 513.251873 69.567482 
L 516.364142 69.178686 
L 519.395564 69.172012 
L 522.350232 69.170512 
L 525.231938 68.886356 
L 528.044198 68.860563 
L 530.790282 68.860563 
L 533.473231 68.848126 
L 536.095884 68.289436 
L 538.660892 66.878255 
L 541.170735 66.878255 
L 543.627734 66.871744 
L 546.03407 66.870163 
L 548.39179 63.649646 
" clip-path="url(#p4ed2d36b77)" style="fill: none; stroke: #f0027f; stroke-width: 3; stroke-linecap: square"/>
   </g>
   <g id="line2d_33">
    <path d="M 91.846335 199.410287 
L 172.738803 198.580452 
L 220.057863 173.997475 
L 253.631271 168.38534 
L 279.672829 166.231007 
L 300.950331 133.498265 
L 318.940203 113.703776 
L 334.523738 92.643676 
L 348.269391 77.804511 
L 360.565296 66.457257 
L 371.688296 59.049538 
L 381.842799 53.584081 
L 391.184036 49.406519 
L 399.83267 45.239143 
L 407.884357 42.479753 
L 415.416206 40.293833 
L 422.491291 38.354522 
L 429.161859 36.830141 
L 435.471674 35.401454 
L 441.457764 34.334532 
L 447.15173 33.305593 
L 452.580763 32.36366 
L 457.768425 31.543195 
L 462.735266 30.817234 
L 467.499322 30.186032 
L 472.076503 29.594522 
L 476.480919 29.015558 
L 480.725138 28.506724 
L 484.820406 28.031331 
L 488.776824 27.65827 
L 492.6035 27.300899 
L 496.308674 26.969715 
L 499.899824 26.668058 
L 503.383759 26.414443 
L 506.766696 26.168918 
L 510.054326 25.926739 
L 513.251873 25.698934 
L 516.364142 25.46611 
L 519.395564 25.247081 
L 522.350232 25.080136 
L 525.231938 24.910994 
L 528.044198 24.755859 
L 530.790282 24.620639 
L 533.473231 24.4931 
L 536.095884 24.372833 
L 538.660892 24.245791 
L 541.170735 24.135815 
L 543.627734 24.038552 
L 546.03407 23.950745 
L 548.39179 23.852106 
" clip-path="url(#p4ed2d36b77)" style="fill: none; stroke: #386cb0; stroke-width: 3; stroke-linecap: square"/>
   </g>
   <g id="line2d_34">
    <path d="M 91.846335 77.312687 
L 172.738803 60.642756 
L 220.057863 51.775663 
L 253.631271 45.99227 
L 279.672829 42.863656 
L 300.950331 40.374818 
L 318.940203 38.286126 
L 334.523738 36.489428 
L 348.269391 34.92473 
L 360.565296 33.619814 
L 371.688296 32.772595 
L 381.842799 32.006948 
L 391.184036 31.323068 
L 399.83267 30.667006 
L 407.884357 30.053978 
L 415.416206 29.479592 
L 422.491291 28.946134 
L 429.161859 28.444864 
L 435.471674 27.987099 
L 441.457764 27.555106 
L 447.15173 27.287478 
L 452.580763 27.033979 
L 457.768425 26.787164 
L 462.735266 26.550409 
L 467.499322 26.324463 
L 472.076503 26.106586 
L 476.480919 25.893822 
L 480.725138 25.687008 
L 484.820406 25.485904 
L 488.776824 25.298034 
L 492.6035 25.113719 
L 496.308674 24.931857 
L 499.899824 24.760078 
L 503.383759 24.594348 
L 506.766696 24.449424 
L 510.054326 24.342863 
L 513.251873 24.244672 
L 516.364142 24.151999 
L 519.395564 24.063022 
L 522.350232 23.974869 
L 525.231938 23.887052 
L 528.044198 23.800976 
L 530.790282 23.717442 
L 533.473231 23.638176 
L 536.095884 23.560262 
L 538.660892 23.484204 
L 541.170735 23.411676 
L 543.627734 23.340299 
L 546.03407 23.27033 
L 548.39179 23.2022 
" clip-path="url(#p4ed2d36b77)" style="fill: none; stroke-dasharray: 11.1,4.8; stroke-dashoffset: 0; stroke: #666666; stroke-width: 3"/>
   </g>
   <g id="patch_3">
    <path d="M 69.019063 339.84 
L 69.019063 7.2 
" style="fill: none; stroke: #000000; stroke-width: 0.8; stroke-linejoin: miter; stroke-linecap: square"/>
   </g>
   <g id="patch_4">
    <path d="M 571.219063 339.84 
L 571.219063 7.2 
" style="fill: none; stroke: #000000; stroke-width: 0.8; stroke-linejoin: miter; stroke-linecap: square"/>
   </g>
   <g id="patch_5">
    <path d="M 69.019063 339.84 
L 571.219063 339.84 
" style="fill: none; stroke: #000000; stroke-width: 0.8; stroke-linejoin: miter; stroke-linecap: square"/>
   </g>
   <g id="patch_6">
    <path d="M 69.019063 7.2 
L 571.219063 7.2 
" style="fill: none; stroke: #000000; stroke-width: 0.8; stroke-linejoin: miter; stroke-linecap: square"/>
   </g>
  </g>
 </g>
 <defs>
  <clipPath id="p4ed2d36b77">
   <rect x="69.019063" y="7.2" width="502.2" height="332.64"/>
  </clipPath>
 </defs>
</svg>
