<?xml version="1.0" encoding="utf-8" standalone="no"?>
<!DOCTYPE svg PUBLIC "-//W3C//DTD SVG 1.1//EN"
  "http://www.w3.org/Graphics/SVG/1.1/DTD/svg11.dtd">
<svg xmlns:xlink="http://www.w3.org/1999/xlink" width="578.419062pt" height="389.977813pt" viewBox="0 0 578.419062 389.977813" xmlns="http://www.w3.org/2000/svg" version="1.1">
 <metadata>
  <rdf:RDF xmlns:dc="http://purl.org/dc/elements/1.1/" xmlns:cc="http://creativecommons.org/ns#" xmlns:rdf="http://www.w3.org/1999/02/22-rdf-syntax-ns#">
   <cc:Work>
    <dc:type rdf:resource="http://purl.org/dc/dcmitype/StillImage"/>
    <dc:date>2025-11-18T14:57:09.199951</dc:date>
    <dc:format>image/svg+xml</dc:format>
    <dc:creator>
     <cc:Agent>
      <dc:title>Matplotlib v3.9.4, https://matplotlib.org/</dc:title>
     </cc:Agent>
    </dc:creator>
   </cc:Work>
  </rdf:RDF>
 </metadata>
 <defs>
  <style type="text/css">*{stroke-linejoin: round; stroke-linecap: butt}</style>
 </defs>
 <g id="figure_1">
  <g id="patch_1">
   <path d="M 0 389.977813 
L 578.419062 389.977813 
L 578.419062 0 
L 0 0 
z
" style="fill: #ffffff"/>
  </g>
  <g id="axes_1">
   <g id="patch_2">
    <path d="M 69.019063 339.84 
L 571.219063 339.84 
L 571.219063 7.2 
L 69.019063 7.2 
z
" style="fill: #ffffff"/>
   </g>
   <g id="PolyCollection_1">
    <defs>
     <path id="mf7079002a2" d="M 91.846335 -215.213236 
L 91.846335 -65.257812 
L 172.738803 -132.371259 
L 220.057863 -159.343608 
L 253.631271 -187.093399 
L 279.672829 -205.356136 
L 300.950331 -216.388776 
L 318.940203 -224.561696 
L 334.523738 -236.379271 
L 348.269391 -241.793491 
L 360.565296 -247.802946 
L 371.688296 -254.060369 
L 381.842799 -257.884491 
L 391.184036 -261.83692 
L 399.83267 -264.563547 
L 407.884357 -269.122888 
L 415.416206 -270.948497 
L 422.491291 -273.931957 
L 429.161859 -276.57023 
L 435.471674 -278.250429 
L 441.457764 -280.536894 
L 447.15173 -282.965121 
L 452.580763 -284.396111 
L 457.768425 -286.580409 
L 462.735266 -287.98964 
L 467.499322 -288.681845 
L 472.076503 -290.58679 
L 476.480919 -291.611648 
L 480.725138 -292.992097 
L 484.820406 -293.64104 
L 488.776824 -295.409135 
L 492.6035 -296.126952 
L 496.308674 -297.016846 
L 499.899824 -297.679568 
L 503.383759 -298.945741 
L 506.766696 -299.480915 
L 510.054326 -300.227481 
L 513.251873 -300.571094 
L 516.364142 -301.19012 
L 519.395564 -301.991747 
L 522.350232 -302.920869 
L 525.231938 -303.862147 
L 528.044198 -304.789795 
L 530.790282 -305.683908 
L 533.473231 -306.255397 
L 536.095884 -306.931261 
L 538.660892 -307.480885 
L 541.170735 -308.432034 
L 543.627734 -309.138012 
L 546.03407 -309.709496 
L 548.39179 -310.08686 
L 548.39179 -330.095208 
L 548.39179 -330.095208 
L 546.03407 -329.945685 
L 543.627734 -329.418796 
L 541.170735 -329.19005 
L 538.660892 -328.891204 
L 536.095884 -328.486299 
L 533.473231 -327.89705 
L 530.790282 -327.659347 
L 528.044198 -327.297836 
L 525.231938 -326.895009 
L 522.350232 -326.036478 
L 519.395564 -325.629758 
L 516.364142 -324.553577 
L 513.251873 -324.293931 
L 510.054326 -324.236082 
L 506.766696 -323.809569 
L 503.383759 -323.512606 
L 499.899824 -323.178034 
L 496.308674 -322.835632 
L 492.6035 -321.884055 
L 488.776824 -321.335545 
L 484.820406 -321.01599 
L 480.725138 -319.680507 
L 476.480919 -319.086214 
L 472.076503 -318.385001 
L 467.499322 -317.952042 
L 462.735266 -317.555486 
L 457.768425 -316.82023 
L 452.580763 -316.327931 
L 447.15173 -315.512117 
L 441.457764 -314.566022 
L 435.471674 -313.422224 
L 429.161859 -311.356862 
L 422.491291 -310.274602 
L 415.416206 -308.789776 
L 407.884357 -307.468586 
L 399.83267 -306.277311 
L 391.184036 -305.206784 
L 381.842799 -303.036538 
L 371.688296 -301.570701 
L 360.565296 -299.714909 
L 348.269391 -297.868835 
L 334.523738 -295.68699 
L 318.940203 -292.378436 
L 300.950331 -290.089292 
L 279.672829 -283.874281 
L 253.631271 -274.691421 
L 220.057863 -262.211792 
L 172.738803 -245.893639 
L 91.846335 -215.213236 
z
" style="stroke: #7fc97f; stroke-opacity: 0.05"/>
    </defs>
    <g clip-path="url(#p2af833273e)">
     <use xlink:href="#mf7079002a2" x="0" y="389.977813" style="fill: #7fc97f; fill-opacity: 0.05; stroke: #7fc97f; stroke-opacity: 0.05"/>
    </g>
   </g>
   <g id="PolyCollection_2">
    <defs>
     <path id="ma069ee6b5c" d="M 91.846335 -189.625789 
L 91.846335 -186.570796 
L 172.738803 -187.437796 
L 220.057863 -211.868751 
L 253.631271 -217.352622 
L 279.672829 -219.503614 
L 300.950331 -251.374811 
L 318.940203 -269.795706 
L 334.523738 -269.935145 
L 348.269391 -272.702475 
L 360.565296 -273.427532 
L 371.688296 -273.445025 
L 381.842799 -273.464016 
L 391.184036 -273.466358 
L 399.83267 -274.634054 
L 407.884357 -278.851272 
L 415.416206 -279.013992 
L 422.491291 -279.480819 
L 429.161859 -279.480819 
L 435.471674 -298.619657 
L 441.457764 -298.649429 
L 447.15173 -298.651548 
L 452.580763 -298.759201 
L 457.768425 -299.26718 
L 462.735266 -299.418426 
L 467.499322 -311.514088 
L 472.076503 -312.75435 
L 476.480919 -312.75435 
L 480.725138 -312.78233 
L 484.820406 -312.78479 
L 488.776824 -312.788321 
L 492.6035 -312.788321 
L 496.308674 -313.317016 
L 499.899824 -313.333095 
L 503.383759 -313.337095 
L 506.766696 -313.563012 
L 510.054326 -313.563049 
L 513.251873 -314.273487 
L 516.364142 -314.664962 
L 519.395564 -314.67151 
L 522.350232 -314.672525 
L 525.231938 -314.955701 
L 528.044198 -314.982895 
L 530.790282 -314.982895 
L 533.473231 -314.992251 
L 536.095884 -315.567035 
L 538.660892 -316.984693 
L 541.170735 -316.984693 
L 543.627734 -316.988432 
L 546.03407 -316.989718 
L 548.39179 -320.18486 
L 548.39179 -322.182668 
L 548.39179 -322.182668 
L 546.03407 -319.063699 
L 543.627734 -319.061886 
L 541.170735 -319.052859 
L 538.660892 -319.052859 
L 536.095884 -317.703768 
L 533.473231 -317.18319 
L 530.790282 -317.168163 
L 528.044198 -317.168163 
L 525.231938 -317.144787 
L 522.350232 -316.870849 
L 519.395564 -316.868924 
L 516.364142 -316.862389 
L 513.251873 -316.491594 
L 510.054326 -315.843263 
L 506.766696 -315.843044 
L 503.383759 -315.603527 
L 499.899824 -315.601392 
L 496.308674 -315.585867 
L 492.6035 -315.087107 
L 488.776824 -315.087107 
L 484.820406 -315.084926 
L 480.725138 -315.080622 
L 476.480919 -315.055879 
L 472.076503 -315.055879 
L 467.499322 -313.928613 
L 462.735266 -301.79154 
L 457.768425 -301.695805 
L 452.580763 -301.222241 
L 447.15173 -301.136232 
L 441.457764 -301.132421 
L 435.471674 -301.103045 
L 429.161859 -281.740978 
L 422.491291 -281.740978 
L 415.416206 -281.262738 
L 407.884357 -281.130538 
L 399.83267 -277.108687 
L 391.184036 -275.92384 
L 381.842799 -275.919992 
L 371.688296 -275.907029 
L 360.565296 -275.891433 
L 348.269391 -275.133871 
L 334.523738 -272.402087 
L 318.940203 -272.291803 
L 300.950331 -254.048221 
L 279.672829 -221.743934 
L 253.631271 -219.671162 
L 220.057863 -214.151937 
L 172.738803 -190.385755 
L 91.846335 -189.625789 
z
" style="stroke: #f0027f; stroke-opacity: 0.05"/>
    </defs>
    <g clip-path="url(#p2af833273e)">
     <use xlink:href="#ma069ee6b5c" x="0" y="389.977813" style="fill: #f0027f; fill-opacity: 0.05; stroke: #f0027f; stroke-opacity: 0.05"/>
    </g>
   </g>
   <g id="PolyCollection_3">
    <defs>
     <path id="mb3a8da55ab" d="M 91.846335 -189.625789 
L 91.846335 -186.570796 
L 172.738803 -187.437796 
L 220.057863 -211.868751 
L 253.631271 -217.352622 
L 279.672829 -219.503614 
L 300.950331 -251.374811 
L 318.940203 -249.749403 
L 334.523738 -261.090398 
L 348.269391 -269.669584 
L 360.565296 -275.926479 
L 371.688296 -282.023841 
L 381.842799 -288.613128 
L 391.184036 -294.095225 
L 399.83267 -299.245085 
L 407.884357 -304.794954 
L 415.416206 -308.936802 
L 422.491291 -312.190779 
L 429.161859 -315.232604 
L 435.471674 -317.799816 
L 441.457764 -320.44312 
L 447.15173 -322.684954 
L 452.580763 -324.430426 
L 457.768425 -326.129323 
L 462.735266 -328.186754 
L 467.499322 -331.371721 
L 472.076503 -333.190844 
L 476.480919 -334.439334 
L 480.725138 -335.501916 
L 484.820406 -337.929789 
L 488.776824 -339.566669 
L 492.6035 -340.755275 
L 496.308674 -342.081276 
L 499.899824 -342.994325 
L 503.383759 -343.712642 
L 506.766696 -344.364775 
L 510.054326 -344.845701 
L 513.251873 -345.2855 
L 516.364142 -345.619245 
L 519.395564 -345.972922 
L 522.350232 -346.290106 
L 525.231938 -346.575051 
L 528.044198 -346.777525 
L 530.790282 -347.072226 
L 533.473231 -347.245818 
L 536.095884 -352.465953 
L 538.660892 -353.895707 
L 541.170735 -354.719499 
L 543.627734 -355.377181 
L 546.03407 -355.781685 
L 548.39179 -356.240831 
L 548.39179 -362.435877 
L 548.39179 -362.435877 
L 546.03407 -362.517655 
L 543.627734 -362.549851 
L 541.170735 -362.774138 
L 538.660892 -363.085735 
L 536.095884 -363.830261 
L 533.473231 -367.657813 
L 530.790282 -367.506187 
L 528.044198 -367.358503 
L 525.231938 -367.168435 
L 522.350232 -366.973215 
L 519.395564 -366.769341 
L 516.364142 -366.564094 
L 513.251873 -366.344177 
L 510.054326 -366.071862 
L 506.766696 -365.798934 
L 503.383759 -365.571278 
L 499.899824 -365.417899 
L 496.308674 -365.236184 
L 492.6035 -365.18909 
L 488.776824 -365.004916 
L 484.820406 -365.027639 
L 480.725138 -365.550531 
L 476.480919 -365.152813 
L 472.076503 -364.727713 
L 467.499322 -364.446919 
L 462.735266 -364.689552 
L 457.768425 -364.354322 
L 452.580763 -363.692239 
L 447.15173 -362.843238 
L 441.457764 -361.947062 
L 435.471674 -361.126583 
L 429.161859 -359.726185 
L 422.491291 -358.059139 
L 415.416206 -355.861138 
L 407.884357 -353.535072 
L 399.83267 -350.689555 
L 391.184036 -346.948467 
L 381.842799 -342.349363 
L 371.688296 -336.61404 
L 360.565296 -330.232058 
L 348.269391 -321.25992 
L 334.523738 -306.737392 
L 318.940203 -286.391887 
L 300.950331 -254.048221 
L 279.672829 -221.743934 
L 253.631271 -219.671162 
L 220.057863 -214.151937 
L 172.738803 -190.385755 
L 91.846335 -189.625789 
z
" style="stroke: #386cb0; stroke-opacity: 0.05"/>
    </defs>
    <g clip-path="url(#p2af833273e)">
     <use xlink:href="#mb3a8da55ab" x="0" y="389.977813" style="fill: #386cb0; fill-opacity: 0.05; stroke: #386cb0; stroke-opacity: 0.05"/>
    </g>
   </g>
   <g id="PolyCollection_4">
    <defs>
     <path id="ma465f34347" d="M 91.846335 -233.480256 
L 91.846335 -229.951301 
L 172.738803 -229.951301 
L 220.057863 -229.951301 
L 253.631271 -229.951301 
L 279.672829 -229.951301 
L 300.950331 -229.951301 
L 318.940203 -229.951301 
L 334.523738 -229.951301 
L 348.269391 -229.951301 
L 360.565296 -229.951301 
L 371.688296 -229.951301 
L 381.842799 -229.951301 
L 391.184036 -229.951301 
L 399.83267 -229.951301 
L 407.884357 -229.951301 
L 415.416206 -229.951301 
L 422.491291 -229.951301 
L 429.161859 -229.951301 
L 435.471674 -229.951301 
L 441.457764 -229.951301 
L 447.15173 -229.951301 
L 452.580763 -229.951301 
L 457.768425 -229.951301 
L 462.735266 -229.951301 
L 467.499322 -229.951301 
L 472.076503 -229.951301 
L 476.480919 -229.951301 
L 480.725138 -229.951301 
L 484.820406 -229.951301 
L 488.776824 -229.951301 
L 492.6035 -229.951301 
L 496.308674 -229.951301 
L 499.899824 -229.951301 
L 503.383759 -229.951301 
L 506.766696 -229.951301 
L 510.054326 -229.951301 
L 513.251873 -229.951301 
L 516.364142 -229.951301 
L 519.395564 -229.951301 
L 522.350232 -229.951301 
L 525.231938 -229.951301 
L 528.044198 -229.951301 
L 530.790282 -229.951301 
L 533.473231 -229.951301 
L 536.095884 -229.951301 
L 538.660892 -229.951301 
L 541.170735 -229.951301 
L 543.627734 -229.951301 
L 546.03407 -229.951301 
L 548.39179 -229.951301 
L 548.39179 -233.480256 
L 548.39179 -233.480256 
L 546.03407 -233.480256 
L 543.627734 -233.480256 
L 541.170735 -233.480256 
L 538.660892 -233.480256 
L 536.095884 -233.480256 
L 533.473231 -233.480256 
L 530.790282 -233.480256 
L 528.044198 -233.480256 
L 525.231938 -233.480256 
L 522.350232 -233.480256 
L 519.395564 -233.480256 
L 516.364142 -233.480256 
L 513.251873 -233.480256 
L 510.054326 -233.480256 
L 506.766696 -233.480256 
L 503.383759 -233.480256 
L 499.899824 -233.480256 
L 496.308674 -233.480256 
L 492.6035 -233.480256 
L 488.776824 -233.480256 
L 484.820406 -233.480256 
L 480.725138 -233.480256 
L 476.480919 -233.480256 
L 472.076503 -233.480256 
L 467.499322 -233.480256 
L 462.735266 -233.480256 
L 457.768425 -233.480256 
L 452.580763 -233.480256 
L 447.15173 -233.480256 
L 441.457764 -233.480256 
L 435.471674 -233.480256 
L 429.161859 -233.480256 
L 422.491291 -233.480256 
L 415.416206 -233.480256 
L 407.884357 -233.480256 
L 399.83267 -233.480256 
L 391.184036 -233.480256 
L 381.842799 -233.480256 
L 371.688296 -233.480256 
L 360.565296 -233.480256 
L 348.269391 -233.480256 
L 334.523738 -233.480256 
L 318.940203 -233.480256 
L 300.950331 -233.480256 
L 279.672829 -233.480256 
L 253.631271 -233.480256 
L 220.057863 -233.480256 
L 172.738803 -233.480256 
L 91.846335 -233.480256 
z
" style="stroke: #fdc086; stroke-opacity: 0.05"/>
    </defs>
    <g clip-path="url(#p2af833273e)">
     <use xlink:href="#ma465f34347" x="0" y="389.977813" style="fill: #fdc086; fill-opacity: 0.05; stroke: #fdc086; stroke-opacity: 0.05"/>
    </g>
   </g>
   <g id="PolyCollection_5">
    <defs>
     <path id="m67e816a551" d="M 91.846335 -309.436386 
L 91.846335 -306.143523 
L 172.738803 -322.661673 
L 220.057863 -331.496709 
L 253.631271 -337.268081 
L 279.672829 -340.360711 
L 300.950331 -342.865512 
L 318.940203 -344.923711 
L 334.523738 -346.651379 
L 348.269391 -348.223279 
L 360.565296 -349.500851 
L 371.688296 -350.365893 
L 381.842799 -351.108548 
L 391.184036 -351.79605 
L 399.83267 -352.455142 
L 407.884357 -353.107873 
L 415.416206 -353.673475 
L 422.491291 -354.176293 
L 429.161859 -354.698545 
L 435.471674 -355.146489 
L 441.457764 -355.588134 
L 447.15173 -355.858204 
L 452.580763 -356.129363 
L 457.768425 -356.371869 
L 462.735266 -356.596138 
L 467.499322 -356.831545 
L 472.076503 -357.067865 
L 476.480919 -357.278937 
L 480.725138 -357.495823 
L 484.820406 -357.698173 
L 488.776824 -357.884062 
L 492.6035 -358.066395 
L 496.308674 -358.261165 
L 499.899824 -358.428098 
L 503.383759 -358.58867 
L 506.766696 -358.729339 
L 510.054326 -358.836186 
L 513.251873 -358.941203 
L 516.364142 -359.039731 
L 519.395564 -359.122107 
L 522.350232 -359.199261 
L 525.231938 -359.286603 
L 528.044198 -359.372366 
L 530.790282 -359.462553 
L 533.473231 -359.545461 
L 536.095884 -359.624062 
L 538.660892 -359.695006 
L 541.170735 -359.770136 
L 543.627734 -359.830594 
L 546.03407 -359.898112 
L 548.39179 -359.969376 
L 548.39179 -361.699008 
L 548.39179 -361.699008 
L 546.03407 -361.636697 
L 543.627734 -361.567036 
L 541.170735 -361.487551 
L 538.660892 -361.420483 
L 536.095884 -361.342309 
L 533.473231 -361.268154 
L 530.790282 -361.195652 
L 528.044198 -361.122064 
L 525.231938 -361.039067 
L 522.350232 -360.954236 
L 519.395564 -360.858558 
L 516.364142 -360.766488 
L 513.251873 -360.68332 
L 510.054326 -360.595825 
L 506.766696 -360.493751 
L 503.383759 -360.350283 
L 499.899824 -360.185927 
L 496.308674 -360.016072 
L 492.6035 -359.854285 
L 488.776824 -359.67525 
L 484.820406 -359.492804 
L 480.725138 -359.300872 
L 476.480919 -359.11228 
L 472.076503 -358.906209 
L 467.499322 -358.715362 
L 462.735266 -358.507783 
L 457.768425 -358.267871 
L 452.580763 -358.026475 
L 447.15173 -357.800624 
L 441.457764 -357.545987 
L 435.471674 -357.140671 
L 429.161859 -356.691126 
L 422.491291 -356.230592 
L 415.416206 -355.687518 
L 407.884357 -355.126985 
L 399.83267 -354.57782 
L 391.184036 -353.950643 
L 381.842799 -353.297337 
L 371.688296 -352.538871 
L 360.565296 -351.742865 
L 348.269391 -350.462031 
L 334.523738 -348.966199 
L 318.940203 -347.171281 
L 300.950331 -345.13441 
L 279.672829 -342.759622 
L 253.631271 -339.718322 
L 220.057863 -334.150831 
L 172.738803 -325.601134 
L 91.846335 -309.436386 
z
" style="stroke: #666666; stroke-opacity: 0.05"/>
    </defs>
    <g clip-path="url(#p2af833273e)">
     <use xlink:href="#m67e816a551" x="0" y="389.977813" style="fill: #666666; fill-opacity: 0.05; stroke: #666666; stroke-opacity: 0.05"/>
    </g>
   </g>
   <g id="PolyCollection_6">
    <defs>
     <path id="m894f1c1583" d="M 91.846335 -189.625789 
L 91.846335 -186.570796 
L 172.738803 -185.425338 
L 220.057863 -186.392634 
L 253.631271 -242.942019 
L 279.672829 -265.226948 
L 300.950331 -279.497577 
L 318.940203 -290.423996 
L 334.523738 -299.270582 
L 348.269391 -307.383509 
L 360.565296 -312.153894 
L 371.688296 -317.352116 
L 381.842799 -322.031622 
L 391.184036 -325.513588 
L 399.83267 -327.355797 
L 407.884357 -331.76961 
L 415.416206 -335.045223 
L 422.491291 -337.919681 
L 429.161859 -339.443372 
L 435.471674 -341.017948 
L 441.457764 -343.286695 
L 447.15173 -346.267571 
L 452.580763 -347.528521 
L 457.768425 -348.512411 
L 462.735266 -349.194693 
L 467.499322 -349.741003 
L 472.076503 -350.145278 
L 476.480919 -350.655736 
L 480.725138 -351.088572 
L 484.820406 -351.783257 
L 488.776824 -352.312163 
L 492.6035 -352.966742 
L 496.308674 -353.434693 
L 499.899824 -353.958051 
L 503.383759 -354.3532 
L 506.766696 -354.799745 
L 510.054326 -355.186535 
L 513.251873 -355.523988 
L 516.364142 -355.992554 
L 519.395564 -356.538566 
L 522.350232 -357.273761 
L 525.231938 -357.683049 
L 528.044198 -358.008253 
L 530.790282 -358.259293 
L 533.473231 -358.446957 
L 536.095884 -358.619512 
L 538.660892 -358.75984 
L 541.170735 -358.913878 
L 543.627734 -359.064336 
L 546.03407 -359.171795 
L 548.39179 -359.289729 
L 548.39179 -361.248152 
L 548.39179 -361.248152 
L 546.03407 -361.175523 
L 543.627734 -361.09521 
L 541.170735 -361.028576 
L 538.660892 -360.961513 
L 536.095884 -360.900025 
L 533.473231 -360.803677 
L 530.790282 -360.719718 
L 528.044198 -360.677822 
L 525.231938 -360.676816 
L 522.350232 -360.740733 
L 519.395564 -361.073599 
L 516.364142 -361.209112 
L 513.251873 -361.258645 
L 510.054326 -361.186202 
L 506.766696 -361.151892 
L 503.383759 -361.088088 
L 499.899824 -360.963812 
L 496.308674 -360.897534 
L 492.6035 -360.818022 
L 488.776824 -360.804421 
L 484.820406 -360.719568 
L 480.725138 -360.664918 
L 476.480919 -360.339527 
L 472.076503 -360.046466 
L 467.499322 -359.664174 
L 462.735266 -359.397016 
L 457.768425 -359.113874 
L 452.580763 -358.899092 
L 447.15173 -358.862064 
L 441.457764 -359.920994 
L 435.471674 -360.359255 
L 429.161859 -359.990973 
L 422.491291 -359.614027 
L 415.416206 -359.911987 
L 407.884357 -360.266874 
L 399.83267 -360.834525 
L 391.184036 -359.707442 
L 381.842799 -358.911148 
L 371.688296 -358.135046 
L 360.565296 -356.575472 
L 348.269391 -354.351087 
L 334.523738 -351.491829 
L 318.940203 -347.869959 
L 300.950331 -341.140108 
L 279.672829 -330.517262 
L 253.631271 -306.341363 
L 220.057863 -199.340762 
L 172.738803 -195.421324 
L 91.846335 -189.625789 
z
" style="stroke: #bf5b17; stroke-opacity: 0.05"/>
    </defs>
    <g clip-path="url(#p2af833273e)">
     <use xlink:href="#m894f1c1583" x="0" y="389.977813" style="fill: #bf5b17; fill-opacity: 0.05; stroke: #bf5b17; stroke-opacity: 0.05"/>
    </g>
   </g>
   <g id="matplotlib.axis_1">
    <g id="xtick_1">
     <g id="line2d_1">
      <path d="M 91.846335 339.84 
L 91.846335 7.2 
" clip-path="url(#p2af833273e)" style="fill: none; stroke-dasharray: 1.85,0.8; stroke-dashoffset: 0; stroke: #b0b0b0; stroke-width: 0.5"/>
     </g>
     <g id="line2d_2">
      <defs>
       <path id="m5dc4e11caf" d="M 0 0 
L 0 3.5 
" style="stroke: #000000; stroke-width: 0.8"/>
      </defs>
      <g>
       <use xlink:href="#m5dc4e11caf" x="91.846335" y="339.84" style="stroke: #000000; stroke-width: 0.8"/>
      </g>
     </g>
     <g id="text_1">
      <!-- $\mathdefault{10^{0}}$ -->
      <g transform="translate(78.646335 358.237656) scale(0.15 -0.15)">
       <defs>
        <path id="DejaVuSans-31" d="M 794 531 
L 1825 531 
L 1825 4091 
L 703 3866 
L 703 4441 
L 1819 4666 
L 2450 4666 
L 2450 531 
L 3481 531 
L 3481 0 
L 794 0 
L 794 531 
z
" transform="scale(0.015625)"/>
        <path id="DejaVuSans-30" d="M 2034 4250 
Q 1547 4250 1301 3770 
Q 1056 3291 1056 2328 
Q 1056 1369 1301 889 
Q 1547 409 2034 409 
Q 2525 409 2770 889 
Q 3016 1369 3016 2328 
Q 3016 3291 2770 3770 
Q 2525 4250 2034 4250 
z
M 2034 4750 
Q 2819 4750 3233 4129 
Q 3647 3509 3647 2328 
Q 3647 1150 3233 529 
Q 2819 -91 2034 -91 
Q 1250 -91 836 529 
Q 422 1150 422 2328 
Q 422 3509 836 4129 
Q 1250 4750 2034 4750 
z
" transform="scale(0.015625)"/>
       </defs>
       <use xlink:href="#DejaVuSans-31" transform="translate(0 0.765625)"/>
       <use xlink:href="#DejaVuSans-30" transform="translate(63.623047 0.765625)"/>
       <use xlink:href="#DejaVuSans-30" transform="translate(128.203125 39.046875) scale(0.7)"/>
      </g>
     </g>
    </g>
    <g id="xtick_2">
     <g id="line2d_3">
      <path d="M 360.565296 339.84 
L 360.565296 7.2 
" clip-path="url(#p2af833273e)" style="fill: none; stroke-dasharray: 1.85,0.8; stroke-dashoffset: 0; stroke: #b0b0b0; stroke-width: 0.5"/>
     </g>
     <g id="line2d_4">
      <g>
       <use xlink:href="#m5dc4e11caf" x="360.565296" y="339.84" style="stroke: #000000; stroke-width: 0.8"/>
      </g>
     </g>
     <g id="text_2">
      <!-- $\mathdefault{10^{1}}$ -->
      <g transform="translate(347.365296 358.237656) scale(0.15 -0.15)">
       <use xlink:href="#DejaVuSans-31" transform="translate(0 0.684375)"/>
       <use xlink:href="#DejaVuSans-30" transform="translate(63.623047 0.684375)"/>
       <use xlink:href="#DejaVuSans-31" transform="translate(128.203125 38.965625) scale(0.7)"/>
      </g>
     </g>
    </g>
    <g id="xtick_3">
     <g id="line2d_5">
      <defs>
       <path id="m8324739a74" d="M 0 0 
L 0 2 
" style="stroke: #000000; stroke-width: 0.6"/>
      </defs>
      <g>
       <use xlink:href="#m8324739a74" x="79.55043" y="339.84" style="stroke: #000000; stroke-width: 0.6"/>
      </g>
     </g>
    </g>
    <g id="xtick_4">
     <g id="line2d_6">
      <g>
       <use xlink:href="#m8324739a74" x="172.738803" y="339.84" style="stroke: #000000; stroke-width: 0.6"/>
      </g>
     </g>
    </g>
    <g id="xtick_5">
     <g id="line2d_7">
      <g>
       <use xlink:href="#m8324739a74" x="220.057863" y="339.84" style="stroke: #000000; stroke-width: 0.6"/>
      </g>
     </g>
    </g>
    <g id="xtick_6">
     <g id="line2d_8">
      <g>
       <use xlink:href="#m8324739a74" x="253.631271" y="339.84" style="stroke: #000000; stroke-width: 0.6"/>
      </g>
     </g>
    </g>
    <g id="xtick_7">
     <g id="line2d_9">
      <g>
       <use xlink:href="#m8324739a74" x="279.672829" y="339.84" style="stroke: #000000; stroke-width: 0.6"/>
      </g>
     </g>
    </g>
    <g id="xtick_8">
     <g id="line2d_10">
      <g>
       <use xlink:href="#m8324739a74" x="300.950331" y="339.84" style="stroke: #000000; stroke-width: 0.6"/>
      </g>
     </g>
    </g>
    <g id="xtick_9">
     <g id="line2d_11">
      <g>
       <use xlink:href="#m8324739a74" x="318.940203" y="339.84" style="stroke: #000000; stroke-width: 0.6"/>
      </g>
     </g>
    </g>
    <g id="xtick_10">
     <g id="line2d_12">
      <g>
       <use xlink:href="#m8324739a74" x="334.523738" y="339.84" style="stroke: #000000; stroke-width: 0.6"/>
      </g>
     </g>
    </g>
    <g id="xtick_11">
     <g id="line2d_13">
      <g>
       <use xlink:href="#m8324739a74" x="348.269391" y="339.84" style="stroke: #000000; stroke-width: 0.6"/>
      </g>
     </g>
    </g>
    <g id="xtick_12">
     <g id="line2d_14">
      <g>
       <use xlink:href="#m8324739a74" x="441.457764" y="339.84" style="stroke: #000000; stroke-width: 0.6"/>
      </g>
     </g>
    </g>
    <g id="xtick_13">
     <g id="line2d_15">
      <g>
       <use xlink:href="#m8324739a74" x="488.776824" y="339.84" style="stroke: #000000; stroke-width: 0.6"/>
      </g>
     </g>
    </g>
    <g id="xtick_14">
     <g id="line2d_16">
      <g>
       <use xlink:href="#m8324739a74" x="522.350232" y="339.84" style="stroke: #000000; stroke-width: 0.6"/>
      </g>
     </g>
    </g>
    <g id="xtick_15">
     <g id="line2d_17">
      <g>
       <use xlink:href="#m8324739a74" x="548.39179" y="339.84" style="stroke: #000000; stroke-width: 0.6"/>
      </g>
     </g>
    </g>
    <g id="xtick_16">
     <g id="line2d_18">
      <g>
       <use xlink:href="#m8324739a74" x="569.669292" y="339.84" style="stroke: #000000; stroke-width: 0.6"/>
      </g>
     </g>
    </g>
    <g id="text_3">
     <!-- Decision Round -->
     <g transform="translate(250.466094 379.034375) scale(0.18 -0.18)">
      <defs>
       <path id="DejaVuSans-44" d="M 1259 4147 
L 1259 519 
L 2022 519 
Q 2988 519 3436 956 
Q 3884 1394 3884 2338 
Q 3884 3275 3436 3711 
Q 2988 4147 2022 4147 
L 1259 4147 
z
M 628 4666 
L 1925 4666 
Q 3281 4666 3915 4102 
Q 4550 3538 4550 2338 
Q 4550 1131 3912 565 
Q 3275 0 1925 0 
L 628 0 
L 628 4666 
z
" transform="scale(0.015625)"/>
       <path id="DejaVuSans-65" d="M 3597 1894 
L 3597 1613 
L 953 1613 
Q 991 1019 1311 708 
Q 1631 397 2203 397 
Q 2534 397 2845 478 
Q 3156 559 3463 722 
L 3463 178 
Q 3153 47 2828 -22 
Q 2503 -91 2169 -91 
Q 1331 -91 842 396 
Q 353 884 353 1716 
Q 353 2575 817 3079 
Q 1281 3584 2069 3584 
Q 2775 3584 3186 3129 
Q 3597 2675 3597 1894 
z
M 3022 2063 
Q 3016 2534 2758 2815 
Q 2500 3097 2075 3097 
Q 1594 3097 1305 2825 
Q 1016 2553 972 2059 
L 3022 2063 
z
" transform="scale(0.015625)"/>
       <path id="DejaVuSans-63" d="M 3122 3366 
L 3122 2828 
Q 2878 2963 2633 3030 
Q 2388 3097 2138 3097 
Q 1578 3097 1268 2742 
Q 959 2388 959 1747 
Q 959 1106 1268 751 
Q 1578 397 2138 397 
Q 2388 397 2633 464 
Q 2878 531 3122 666 
L 3122 134 
Q 2881 22 2623 -34 
Q 2366 -91 2075 -91 
Q 1284 -91 818 406 
Q 353 903 353 1747 
Q 353 2603 823 3093 
Q 1294 3584 2113 3584 
Q 2378 3584 2631 3529 
Q 2884 3475 3122 3366 
z
" transform="scale(0.015625)"/>
       <path id="DejaVuSans-69" d="M 603 3500 
L 1178 3500 
L 1178 0 
L 603 0 
L 603 3500 
z
M 603 4863 
L 1178 4863 
L 1178 4134 
L 603 4134 
L 603 4863 
z
" transform="scale(0.015625)"/>
       <path id="DejaVuSans-73" d="M 2834 3397 
L 2834 2853 
Q 2591 2978 2328 3040 
Q 2066 3103 1784 3103 
Q 1356 3103 1142 2972 
Q 928 2841 928 2578 
Q 928 2378 1081 2264 
Q 1234 2150 1697 2047 
L 1894 2003 
Q 2506 1872 2764 1633 
Q 3022 1394 3022 966 
Q 3022 478 2636 193 
Q 2250 -91 1575 -91 
Q 1294 -91 989 -36 
Q 684 19 347 128 
L 347 722 
Q 666 556 975 473 
Q 1284 391 1588 391 
Q 1994 391 2212 530 
Q 2431 669 2431 922 
Q 2431 1156 2273 1281 
Q 2116 1406 1581 1522 
L 1381 1569 
Q 847 1681 609 1914 
Q 372 2147 372 2553 
Q 372 3047 722 3315 
Q 1072 3584 1716 3584 
Q 2034 3584 2315 3537 
Q 2597 3491 2834 3397 
z
" transform="scale(0.015625)"/>
       <path id="DejaVuSans-6f" d="M 1959 3097 
Q 1497 3097 1228 2736 
Q 959 2375 959 1747 
Q 959 1119 1226 758 
Q 1494 397 1959 397 
Q 2419 397 2687 759 
Q 2956 1122 2956 1747 
Q 2956 2369 2687 2733 
Q 2419 3097 1959 3097 
z
M 1959 3584 
Q 2709 3584 3137 3096 
Q 3566 2609 3566 1747 
Q 3566 888 3137 398 
Q 2709 -91 1959 -91 
Q 1206 -91 779 398 
Q 353 888 353 1747 
Q 353 2609 779 3096 
Q 1206 3584 1959 3584 
z
" transform="scale(0.015625)"/>
       <path id="DejaVuSans-6e" d="M 3513 2113 
L 3513 0 
L 2938 0 
L 2938 2094 
Q 2938 2591 2744 2837 
Q 2550 3084 2163 3084 
Q 1697 3084 1428 2787 
Q 1159 2491 1159 1978 
L 1159 0 
L 581 0 
L 581 3500 
L 1159 3500 
L 1159 2956 
Q 1366 3272 1645 3428 
Q 1925 3584 2291 3584 
Q 2894 3584 3203 3211 
Q 3513 2838 3513 2113 
z
" transform="scale(0.015625)"/>
       <path id="DejaVuSans-20" transform="scale(0.015625)"/>
       <path id="DejaVuSans-52" d="M 2841 2188 
Q 3044 2119 3236 1894 
Q 3428 1669 3622 1275 
L 4263 0 
L 3584 0 
L 2988 1197 
Q 2756 1666 2539 1819 
Q 2322 1972 1947 1972 
L 1259 1972 
L 1259 0 
L 628 0 
L 628 4666 
L 2053 4666 
Q 2853 4666 3247 4331 
Q 3641 3997 3641 3322 
Q 3641 2881 3436 2590 
Q 3231 2300 2841 2188 
z
M 1259 4147 
L 1259 2491 
L 2053 2491 
Q 2509 2491 2742 2702 
Q 2975 2913 2975 3322 
Q 2975 3731 2742 3939 
Q 2509 4147 2053 4147 
L 1259 4147 
z
" transform="scale(0.015625)"/>
       <path id="DejaVuSans-75" d="M 544 1381 
L 544 3500 
L 1119 3500 
L 1119 1403 
Q 1119 906 1312 657 
Q 1506 409 1894 409 
Q 2359 409 2629 706 
Q 2900 1003 2900 1516 
L 2900 3500 
L 3475 3500 
L 3475 0 
L 2900 0 
L 2900 538 
Q 2691 219 2414 64 
Q 2138 -91 1772 -91 
Q 1169 -91 856 284 
Q 544 659 544 1381 
z
M 1991 3584 
L 1991 3584 
z
" transform="scale(0.015625)"/>
       <path id="DejaVuSans-64" d="M 2906 2969 
L 2906 4863 
L 3481 4863 
L 3481 0 
L 2906 0 
L 2906 525 
Q 2725 213 2448 61 
Q 2172 -91 1784 -91 
Q 1150 -91 751 415 
Q 353 922 353 1747 
Q 353 2572 751 3078 
Q 1150 3584 1784 3584 
Q 2172 3584 2448 3432 
Q 2725 3281 2906 2969 
z
M 947 1747 
Q 947 1113 1208 752 
Q 1469 391 1925 391 
Q 2381 391 2643 752 
Q 2906 1113 2906 1747 
Q 2906 2381 2643 2742 
Q 2381 3103 1925 3103 
Q 1469 3103 1208 2742 
Q 947 2381 947 1747 
z
" transform="scale(0.015625)"/>
      </defs>
      <use xlink:href="#DejaVuSans-44"/>
      <use xlink:href="#DejaVuSans-65" x="77.001953"/>
      <use xlink:href="#DejaVuSans-63" x="138.525391"/>
      <use xlink:href="#DejaVuSans-69" x="193.505859"/>
      <use xlink:href="#DejaVuSans-73" x="221.289062"/>
      <use xlink:href="#DejaVuSans-69" x="273.388672"/>
      <use xlink:href="#DejaVuSans-6f" x="301.171875"/>
      <use xlink:href="#DejaVuSans-6e" x="362.353516"/>
      <use xlink:href="#DejaVuSans-20" x="425.732422"/>
      <use xlink:href="#DejaVuSans-52" x="457.519531"/>
      <use xlink:href="#DejaVuSans-6f" x="522.501953"/>
      <use xlink:href="#DejaVuSans-75" x="583.683594"/>
      <use xlink:href="#DejaVuSans-6e" x="647.0625"/>
      <use xlink:href="#DejaVuSans-64" x="710.441406"/>
     </g>
    </g>
   </g>
   <g id="matplotlib.axis_2">
    <g id="ytick_1">
     <g id="line2d_19">
      <path d="M 69.019063 331.500265 
L 571.219063 331.500265 
" clip-path="url(#p2af833273e)" style="fill: none; stroke-dasharray: 1.85,0.8; stroke-dashoffset: 0; stroke: #b0b0b0; stroke-width: 0.5"/>
     </g>
     <g id="line2d_20">
      <defs>
       <path id="mac19dbae5d" d="M 0 0 
L -3.5 0 
" style="stroke: #000000; stroke-width: 0.8"/>
      </defs>
      <g>
       <use xlink:href="#mac19dbae5d" x="69.019063" y="331.500265" style="stroke: #000000; stroke-width: 0.8"/>
      </g>
     </g>
     <g id="text_4">
      <!-- 0.40 -->
      <g transform="translate(28.620625 337.199093) scale(0.15 -0.15)">
       <defs>
        <path id="DejaVuSans-2e" d="M 684 794 
L 1344 794 
L 1344 0 
L 684 0 
L 684 794 
z
" transform="scale(0.015625)"/>
        <path id="DejaVuSans-34" d="M 2419 4116 
L 825 1625 
L 2419 1625 
L 2419 4116 
z
M 2253 4666 
L 3047 4666 
L 3047 1625 
L 3713 1625 
L 3713 1100 
L 3047 1100 
L 3047 0 
L 2419 0 
L 2419 1100 
L 313 1100 
L 313 1709 
L 2253 4666 
z
" transform="scale(0.015625)"/>
       </defs>
       <use xlink:href="#DejaVuSans-30"/>
       <use xlink:href="#DejaVuSans-2e" x="63.623047"/>
       <use xlink:href="#DejaVuSans-34" x="95.410156"/>
       <use xlink:href="#DejaVuSans-30" x="159.033203"/>
      </g>
     </g>
    </g>
    <g id="ytick_2">
     <g id="line2d_21">
      <path d="M 69.019063 282.551193 
L 571.219063 282.551193 
" clip-path="url(#p2af833273e)" style="fill: none; stroke-dasharray: 1.85,0.8; stroke-dashoffset: 0; stroke: #b0b0b0; stroke-width: 0.5"/>
     </g>
     <g id="line2d_22">
      <g>
       <use xlink:href="#mac19dbae5d" x="69.019063" y="282.551193" style="stroke: #000000; stroke-width: 0.8"/>
      </g>
     </g>
     <g id="text_5">
      <!-- 0.45 -->
      <g transform="translate(28.620625 288.250021) scale(0.15 -0.15)">
       <defs>
        <path id="DejaVuSans-35" d="M 691 4666 
L 3169 4666 
L 3169 4134 
L 1269 4134 
L 1269 2991 
Q 1406 3038 1543 3061 
Q 1681 3084 1819 3084 
Q 2600 3084 3056 2656 
Q 3513 2228 3513 1497 
Q 3513 744 3044 326 
Q 2575 -91 1722 -91 
Q 1428 -91 1123 -41 
Q 819 9 494 109 
L 494 744 
Q 775 591 1075 516 
Q 1375 441 1709 441 
Q 2250 441 2565 725 
Q 2881 1009 2881 1497 
Q 2881 1984 2565 2268 
Q 2250 2553 1709 2553 
Q 1456 2553 1204 2497 
Q 953 2441 691 2322 
L 691 4666 
z
" transform="scale(0.015625)"/>
       </defs>
       <use xlink:href="#DejaVuSans-30"/>
       <use xlink:href="#DejaVuSans-2e" x="63.623047"/>
       <use xlink:href="#DejaVuSans-34" x="95.410156"/>
       <use xlink:href="#DejaVuSans-35" x="159.033203"/>
      </g>
     </g>
    </g>
    <g id="ytick_3">
     <g id="line2d_23">
      <path d="M 69.019063 233.602121 
L 571.219063 233.602121 
" clip-path="url(#p2af833273e)" style="fill: none; stroke-dasharray: 1.85,0.8; stroke-dashoffset: 0; stroke: #b0b0b0; stroke-width: 0.5"/>
     </g>
     <g id="line2d_24">
      <g>
       <use xlink:href="#mac19dbae5d" x="69.019063" y="233.602121" style="stroke: #000000; stroke-width: 0.8"/>
      </g>
     </g>
     <g id="text_6">
      <!-- 0.50 -->
      <g transform="translate(28.620625 239.300949) scale(0.15 -0.15)">
       <use xlink:href="#DejaVuSans-30"/>
       <use xlink:href="#DejaVuSans-2e" x="63.623047"/>
       <use xlink:href="#DejaVuSans-35" x="95.410156"/>
       <use xlink:href="#DejaVuSans-30" x="159.033203"/>
      </g>
     </g>
    </g>
    <g id="ytick_4">
     <g id="line2d_25">
      <path d="M 69.019063 184.653049 
L 571.219063 184.653049 
" clip-path="url(#p2af833273e)" style="fill: none; stroke-dasharray: 1.85,0.8; stroke-dashoffset: 0; stroke: #b0b0b0; stroke-width: 0.5"/>
     </g>
     <g id="line2d_26">
      <g>
       <use xlink:href="#mac19dbae5d" x="69.019063" y="184.653049" style="stroke: #000000; stroke-width: 0.8"/>
      </g>
     </g>
     <g id="text_7">
      <!-- 0.55 -->
      <g transform="translate(28.620625 190.351877) scale(0.15 -0.15)">
       <use xlink:href="#DejaVuSans-30"/>
       <use xlink:href="#DejaVuSans-2e" x="63.623047"/>
       <use xlink:href="#DejaVuSans-35" x="95.410156"/>
       <use xlink:href="#DejaVuSans-35" x="159.033203"/>
      </g>
     </g>
    </g>
    <g id="ytick_5">
     <g id="line2d_27">
      <path d="M 69.019063 135.703976 
L 571.219063 135.703976 
" clip-path="url(#p2af833273e)" style="fill: none; stroke-dasharray: 1.85,0.8; stroke-dashoffset: 0; stroke: #b0b0b0; stroke-width: 0.5"/>
     </g>
     <g id="line2d_28">
      <g>
       <use xlink:href="#mac19dbae5d" x="69.019063" y="135.703976" style="stroke: #000000; stroke-width: 0.8"/>
      </g>
     </g>
     <g id="text_8">
      <!-- 0.60 -->
      <g transform="translate(28.620625 141.402805) scale(0.15 -0.15)">
       <defs>
        <path id="DejaVuSans-36" d="M 2113 2584 
Q 1688 2584 1439 2293 
Q 1191 2003 1191 1497 
Q 1191 994 1439 701 
Q 1688 409 2113 409 
Q 2538 409 2786 701 
Q 3034 994 3034 1497 
Q 3034 2003 2786 2293 
Q 2538 2584 2113 2584 
z
M 3366 4563 
L 3366 3988 
Q 3128 4100 2886 4159 
Q 2644 4219 2406 4219 
Q 1781 4219 1451 3797 
Q 1122 3375 1075 2522 
Q 1259 2794 1537 2939 
Q 1816 3084 2150 3084 
Q 2853 3084 3261 2657 
Q 3669 2231 3669 1497 
Q 3669 778 3244 343 
Q 2819 -91 2113 -91 
Q 1303 -91 875 529 
Q 447 1150 447 2328 
Q 447 3434 972 4092 
Q 1497 4750 2381 4750 
Q 2619 4750 2861 4703 
Q 3103 4656 3366 4563 
z
" transform="scale(0.015625)"/>
       </defs>
       <use xlink:href="#DejaVuSans-30"/>
       <use xlink:href="#DejaVuSans-2e" x="63.623047"/>
       <use xlink:href="#DejaVuSans-36" x="95.410156"/>
       <use xlink:href="#DejaVuSans-30" x="159.033203"/>
      </g>
     </g>
    </g>
    <g id="ytick_6">
     <g id="line2d_29">
      <path d="M 69.019063 86.754904 
L 571.219063 86.754904 
" clip-path="url(#p2af833273e)" style="fill: none; stroke-dasharray: 1.85,0.8; stroke-dashoffset: 0; stroke: #b0b0b0; stroke-width: 0.5"/>
     </g>
     <g id="line2d_30">
      <g>
       <use xlink:href="#mac19dbae5d" x="69.019063" y="86.754904" style="stroke: #000000; stroke-width: 0.8"/>
      </g>
     </g>
     <g id="text_9">
      <!-- 0.65 -->
      <g transform="translate(28.620625 92.453732) scale(0.15 -0.15)">
       <use xlink:href="#DejaVuSans-30"/>
       <use xlink:href="#DejaVuSans-2e" x="63.623047"/>
       <use xlink:href="#DejaVuSans-36" x="95.410156"/>
       <use xlink:href="#DejaVuSans-35" x="159.033203"/>
      </g>
     </g>
    </g>
    <g id="ytick_7">
     <g id="line2d_31">
      <path d="M 69.019063 37.805832 
L 571.219063 37.805832 
" clip-path="url(#p2af833273e)" style="fill: none; stroke-dasharray: 1.85,0.8; stroke-dashoffset: 0; stroke: #b0b0b0; stroke-width: 0.5"/>
     </g>
     <g id="line2d_32">
      <g>
       <use xlink:href="#mac19dbae5d" x="69.019063" y="37.805832" style="stroke: #000000; stroke-width: 0.8"/>
      </g>
     </g>
     <g id="text_10">
      <!-- 0.70 -->
      <g transform="translate(28.620625 43.50466) scale(0.15 -0.15)">
       <defs>
        <path id="DejaVuSans-37" d="M 525 4666 
L 3525 4666 
L 3525 4397 
L 1831 0 
L 1172 0 
L 2766 4134 
L 525 4134 
L 525 4666 
z
" transform="scale(0.015625)"/>
       </defs>
       <use xlink:href="#DejaVuSans-30"/>
       <use xlink:href="#DejaVuSans-2e" x="63.623047"/>
       <use xlink:href="#DejaVuSans-37" x="95.410156"/>
       <use xlink:href="#DejaVuSans-30" x="159.033203"/>
      </g>
     </g>
    </g>
    <g id="text_11">
     <!-- Normalized Performance -->
     <g transform="translate(20.877187 284.447812) rotate(-90) scale(0.18 -0.18)">
      <defs>
       <path id="DejaVuSans-4e" d="M 628 4666 
L 1478 4666 
L 3547 763 
L 3547 4666 
L 4159 4666 
L 4159 0 
L 3309 0 
L 1241 3903 
L 1241 0 
L 628 0 
L 628 4666 
z
" transform="scale(0.015625)"/>
       <path id="DejaVuSans-72" d="M 2631 2963 
Q 2534 3019 2420 3045 
Q 2306 3072 2169 3072 
Q 1681 3072 1420 2755 
Q 1159 2438 1159 1844 
L 1159 0 
L 581 0 
L 581 3500 
L 1159 3500 
L 1159 2956 
Q 1341 3275 1631 3429 
Q 1922 3584 2338 3584 
Q 2397 3584 2469 3576 
Q 2541 3569 2628 3553 
L 2631 2963 
z
" transform="scale(0.015625)"/>
       <path id="DejaVuSans-6d" d="M 3328 2828 
Q 3544 3216 3844 3400 
Q 4144 3584 4550 3584 
Q 5097 3584 5394 3201 
Q 5691 2819 5691 2113 
L 5691 0 
L 5113 0 
L 5113 2094 
Q 5113 2597 4934 2840 
Q 4756 3084 4391 3084 
Q 3944 3084 3684 2787 
Q 3425 2491 3425 1978 
L 3425 0 
L 2847 0 
L 2847 2094 
Q 2847 2600 2669 2842 
Q 2491 3084 2119 3084 
Q 1678 3084 1418 2786 
Q 1159 2488 1159 1978 
L 1159 0 
L 581 0 
L 581 3500 
L 1159 3500 
L 1159 2956 
Q 1356 3278 1631 3431 
Q 1906 3584 2284 3584 
Q 2666 3584 2933 3390 
Q 3200 3197 3328 2828 
z
" transform="scale(0.015625)"/>
       <path id="DejaVuSans-61" d="M 2194 1759 
Q 1497 1759 1228 1600 
Q 959 1441 959 1056 
Q 959 750 1161 570 
Q 1363 391 1709 391 
Q 2188 391 2477 730 
Q 2766 1069 2766 1631 
L 2766 1759 
L 2194 1759 
z
M 3341 1997 
L 3341 0 
L 2766 0 
L 2766 531 
Q 2569 213 2275 61 
Q 1981 -91 1556 -91 
Q 1019 -91 701 211 
Q 384 513 384 1019 
Q 384 1609 779 1909 
Q 1175 2209 1959 2209 
L 2766 2209 
L 2766 2266 
Q 2766 2663 2505 2880 
Q 2244 3097 1772 3097 
Q 1472 3097 1187 3025 
Q 903 2953 641 2809 
L 641 3341 
Q 956 3463 1253 3523 
Q 1550 3584 1831 3584 
Q 2591 3584 2966 3190 
Q 3341 2797 3341 1997 
z
" transform="scale(0.015625)"/>
       <path id="DejaVuSans-6c" d="M 603 4863 
L 1178 4863 
L 1178 0 
L 603 0 
L 603 4863 
z
" transform="scale(0.015625)"/>
       <path id="DejaVuSans-7a" d="M 353 3500 
L 3084 3500 
L 3084 2975 
L 922 459 
L 3084 459 
L 3084 0 
L 275 0 
L 275 525 
L 2438 3041 
L 353 3041 
L 353 3500 
z
" transform="scale(0.015625)"/>
       <path id="DejaVuSans-50" d="M 1259 4147 
L 1259 2394 
L 2053 2394 
Q 2494 2394 2734 2622 
Q 2975 2850 2975 3272 
Q 2975 3691 2734 3919 
Q 2494 4147 2053 4147 
L 1259 4147 
z
M 628 4666 
L 2053 4666 
Q 2838 4666 3239 4311 
Q 3641 3956 3641 3272 
Q 3641 2581 3239 2228 
Q 2838 1875 2053 1875 
L 1259 1875 
L 1259 0 
L 628 0 
L 628 4666 
z
" transform="scale(0.015625)"/>
       <path id="DejaVuSans-66" d="M 2375 4863 
L 2375 4384 
L 1825 4384 
Q 1516 4384 1395 4259 
Q 1275 4134 1275 3809 
L 1275 3500 
L 2222 3500 
L 2222 3053 
L 1275 3053 
L 1275 0 
L 697 0 
L 697 3053 
L 147 3053 
L 147 3500 
L 697 3500 
L 697 3744 
Q 697 4328 969 4595 
Q 1241 4863 1831 4863 
L 2375 4863 
z
" transform="scale(0.015625)"/>
      </defs>
      <use xlink:href="#DejaVuSans-4e"/>
      <use xlink:href="#DejaVuSans-6f" x="74.804688"/>
      <use xlink:href="#DejaVuSans-72" x="135.986328"/>
      <use xlink:href="#DejaVuSans-6d" x="175.349609"/>
      <use xlink:href="#DejaVuSans-61" x="272.761719"/>
      <use xlink:href="#DejaVuSans-6c" x="334.041016"/>
      <use xlink:href="#DejaVuSans-69" x="361.824219"/>
      <use xlink:href="#DejaVuSans-7a" x="389.607422"/>
      <use xlink:href="#DejaVuSans-65" x="442.097656"/>
      <use xlink:href="#DejaVuSans-64" x="503.621094"/>
      <use xlink:href="#DejaVuSans-20" x="567.097656"/>
      <use xlink:href="#DejaVuSans-50" x="598.884766"/>
      <use xlink:href="#DejaVuSans-65" x="655.5625"/>
      <use xlink:href="#DejaVuSans-72" x="717.085938"/>
      <use xlink:href="#DejaVuSans-66" x="758.199219"/>
      <use xlink:href="#DejaVuSans-6f" x="793.404297"/>
      <use xlink:href="#DejaVuSans-72" x="854.585938"/>
      <use xlink:href="#DejaVuSans-6d" x="893.949219"/>
      <use xlink:href="#DejaVuSans-61" x="991.361328"/>
      <use xlink:href="#DejaVuSans-6e" x="1052.640625"/>
      <use xlink:href="#DejaVuSans-63" x="1116.019531"/>
      <use xlink:href="#DejaVuSans-65" x="1171"/>
     </g>
    </g>
   </g>
   <g id="line2d_33">
    <path d="M 91.846335 249.742288 
L 172.738803 200.845364 
L 220.057863 179.200112 
L 253.631271 159.085403 
L 279.672829 145.362604 
L 300.950331 136.738778 
L 318.940203 131.507746 
L 334.523738 123.944682 
L 348.269391 120.146649 
L 360.565296 116.218885 
L 371.688296 112.162277 
L 381.842799 109.517298 
L 391.184036 106.455961 
L 399.83267 104.557383 
L 407.884357 101.682075 
L 415.416206 100.108676 
L 422.491291 97.874533 
L 429.161859 96.014267 
L 435.471674 94.141486 
L 441.457764 92.426354 
L 447.15173 90.739193 
L 452.580763 89.615791 
L 457.768425 88.277493 
L 462.735266 87.20525 
L 467.499322 86.660869 
L 472.076503 85.491917 
L 476.480919 84.628882 
L 480.725138 83.64151 
L 484.820406 82.649298 
L 488.776824 81.605473 
L 492.6035 80.972309 
L 496.308674 80.051573 
L 499.899824 79.549012 
L 503.383759 78.748639 
L 506.766696 78.33257 
L 510.054326 77.746031 
L 513.251873 77.5453 
L 516.364142 77.105964 
L 519.395564 76.16706 
L 522.350232 75.499139 
L 525.231938 74.599235 
L 528.044198 73.933997 
L 530.790282 73.306185 
L 533.473231 72.901589 
L 536.095884 72.269032 
L 538.660892 71.791768 
L 541.170735 71.166771 
L 543.627734 70.699408 
L 546.03407 70.150222 
L 548.39179 69.886779 
" clip-path="url(#p2af833273e)" style="fill: none; stroke: #7fc97f; stroke-width: 3; stroke-linecap: square"/>
   </g>
   <g id="line2d_34">
    <path d="M 91.846335 201.87952 
L 172.738803 201.066037 
L 220.057863 176.967468 
L 253.631271 171.465921 
L 279.672829 169.354039 
L 300.950331 137.266296 
L 318.940203 118.934058 
L 334.523738 118.809196 
L 348.269391 116.05964 
L 360.565296 115.31833 
L 371.688296 115.301786 
L 381.842799 115.285809 
L 391.184036 115.282714 
L 399.83267 114.106442 
L 407.884357 109.986908 
L 415.416206 109.839448 
L 422.491291 109.366914 
L 429.161859 109.366914 
L 435.471674 90.116461 
L 441.457764 90.086888 
L 447.15173 90.083922 
L 452.580763 89.987091 
L 457.768425 89.49632 
L 462.735266 89.37283 
L 467.499322 77.256462 
L 472.076503 76.072698 
L 476.480919 76.072698 
L 480.725138 76.046336 
L 484.820406 76.042955 
L 488.776824 76.040098 
L 492.6035 76.040098 
L 496.308674 75.526371 
L 499.899824 75.510569 
L 503.383759 75.507501 
L 506.766696 75.274785 
L 510.054326 75.274656 
L 513.251873 74.595272 
L 516.364142 74.214137 
L 519.395564 74.207595 
L 522.350232 74.206125 
L 525.231938 73.927568 
L 528.044198 73.902284 
L 530.790282 73.902284 
L 533.473231 73.890092 
L 536.095884 73.342411 
L 538.660892 71.959037 
L 541.170735 71.959037 
L 543.627734 71.952654 
L 546.03407 71.951104 
L 548.39179 68.794048 
" clip-path="url(#p2af833273e)" style="fill: none; stroke: #f0027f; stroke-width: 3; stroke-linecap: square"/>
   </g>
   <g id="line2d_35">
    <path d="M 91.846335 201.87952 
L 172.738803 201.066037 
L 220.057863 176.967468 
L 253.631271 171.465921 
L 279.672829 169.354039 
L 300.950331 137.266296 
L 318.940203 121.907167 
L 334.523738 106.063918 
L 348.269391 94.51306 
L 360.565296 86.898544 
L 371.688296 80.658872 
L 381.842799 74.496567 
L 391.184036 69.455966 
L 399.83267 65.010492 
L 407.884357 60.812799 
L 415.416206 57.578842 
L 422.491291 54.852853 
L 429.161859 52.498418 
L 435.471674 50.514613 
L 441.457764 48.782721 
L 447.15173 47.213716 
L 452.580763 45.91648 
L 457.768425 44.73599 
L 462.735266 43.53966 
L 467.499322 42.068492 
L 472.076503 41.018534 
L 476.480919 40.181739 
L 480.725138 39.451589 
L 484.820406 38.499098 
L 488.776824 37.69202 
L 492.6035 37.00563 
L 496.308674 36.319082 
L 499.899824 35.771701 
L 503.383759 35.335853 
L 506.766696 34.895958 
L 510.054326 34.519031 
L 513.251873 34.162974 
L 516.364142 33.886143 
L 519.395564 33.606681 
L 522.350232 33.346152 
L 525.231938 33.10607 
L 528.044198 32.909798 
L 530.790282 32.688606 
L 533.473231 32.525997 
L 536.095884 31.829706 
L 538.660892 31.487091 
L 541.170735 31.230994 
L 543.627734 31.014297 
L 546.03407 30.828142 
L 548.39179 30.639458 
" clip-path="url(#p2af833273e)" style="fill: none; stroke: #386cb0; stroke-width: 3; stroke-linecap: square"/>
   </g>
   <g id="line2d_36">
    <path d="M 91.846335 158.262034 
L 172.738803 158.262034 
L 220.057863 158.262034 
L 253.631271 158.262034 
L 279.672829 158.262034 
L 300.950331 158.262034 
L 318.940203 158.262034 
L 334.523738 158.262034 
L 348.269391 158.262034 
L 360.565296 158.262034 
L 371.688296 158.262034 
L 381.842799 158.262034 
L 391.184036 158.262034 
L 399.83267 158.262034 
L 407.884357 158.262034 
L 415.416206 158.262034 
L 422.491291 158.262034 
L 429.161859 158.262034 
L 435.471674 158.262034 
L 441.457764 158.262034 
L 447.15173 158.262034 
L 452.580763 158.262034 
L 457.768425 158.262034 
L 462.735266 158.262034 
L 467.499322 158.262034 
L 472.076503 158.262034 
L 476.480919 158.262034 
L 480.725138 158.262034 
L 484.820406 158.262034 
L 488.776824 158.262034 
L 492.6035 158.262034 
L 496.308674 158.262034 
L 499.899824 158.262034 
L 503.383759 158.262034 
L 506.766696 158.262034 
L 510.054326 158.262034 
L 513.251873 158.262034 
L 516.364142 158.262034 
L 519.395564 158.262034 
L 522.350232 158.262034 
L 525.231938 158.262034 
L 528.044198 158.262034 
L 530.790282 158.262034 
L 533.473231 158.262034 
L 536.095884 158.262034 
L 538.660892 158.262034 
L 541.170735 158.262034 
L 543.627734 158.262034 
L 546.03407 158.262034 
L 548.39179 158.262034 
" clip-path="url(#p2af833273e)" style="fill: none; stroke-dasharray: 11.1,4.8; stroke-dashoffset: 0; stroke: #fdc086; stroke-width: 3"/>
   </g>
   <g id="line2d_37">
    <path d="M 91.846335 82.187858 
L 172.738803 65.846409 
L 220.057863 57.154043 
L 253.631271 51.484611 
L 279.672829 48.417646 
L 300.950331 45.977851 
L 318.940203 43.930316 
L 334.523738 42.169023 
L 348.269391 40.635158 
L 360.565296 39.355955 
L 371.688296 38.52543 
L 381.842799 37.77487 
L 391.184036 37.104466 
L 399.83267 36.461332 
L 407.884357 35.860383 
L 415.416206 35.297316 
L 422.491291 34.77437 
L 429.161859 34.282977 
L 435.471674 33.834233 
L 441.457764 33.410752 
L 447.15173 33.148398 
L 452.580763 32.899894 
L 457.768425 32.657943 
L 462.735266 32.425852 
L 467.499322 32.204359 
L 472.076503 31.990776 
L 476.480919 31.782204 
L 480.725138 31.579465 
L 484.820406 31.382324 
L 488.776824 31.198156 
L 492.6035 31.017472 
L 496.308674 30.839194 
L 499.899824 30.6708 
L 503.383759 30.508336 
L 506.766696 30.366267 
L 510.054326 30.261807 
L 513.251873 30.165551 
L 516.364142 30.074703 
L 519.395564 29.98748 
L 522.350232 29.901064 
L 525.231938 29.814977 
L 528.044198 29.730597 
L 530.790282 29.64871 
L 533.473231 29.571005 
L 536.095884 29.494627 
L 538.660892 29.420068 
L 541.170735 29.348969 
L 543.627734 29.278998 
L 546.03407 29.210408 
L 548.39179 29.14362 
" clip-path="url(#p2af833273e)" style="fill: none; stroke-dasharray: 11.1,4.8; stroke-dashoffset: 0; stroke: #666666; stroke-width: 3"/>
   </g>
   <g id="line2d_38">
    <path d="M 91.846335 201.87952 
L 172.738803 199.554482 
L 220.057863 197.111115 
L 253.631271 115.336121 
L 279.672829 92.105707 
L 300.950331 79.65897 
L 318.940203 70.830835 
L 334.523738 64.596607 
L 348.269391 59.110514 
L 360.565296 55.61313 
L 371.688296 52.234231 
L 381.842799 49.506428 
L 391.184036 47.367297 
L 399.83267 45.882651 
L 407.884357 43.95957 
L 415.416206 42.499208 
L 422.491291 41.210959 
L 429.161859 40.26064 
L 435.471674 39.289211 
L 441.457764 38.373968 
L 447.15173 37.412995 
L 452.580763 36.764006 
L 457.768425 36.16467 
L 462.735266 35.681958 
L 467.499322 35.275224 
L 472.076503 34.881941 
L 476.480919 34.480181 
L 480.725138 34.101068 
L 484.820406 33.7264 
L 488.776824 33.419521 
L 492.6035 33.085431 
L 496.308674 32.811699 
L 499.899824 32.516881 
L 503.383759 32.257168 
L 506.766696 32.001994 
L 510.054326 31.791444 
L 513.251873 31.586496 
L 516.364142 31.37698 
L 519.395564 31.17173 
L 522.350232 30.970565 
L 525.231938 30.79788 
L 528.044198 30.634775 
L 530.790282 30.488307 
L 533.473231 30.352495 
L 536.095884 30.218044 
L 538.660892 30.117136 
L 541.170735 30.006585 
L 543.627734 29.89804 
L 546.03407 29.804154 
L 548.39179 29.708872 
" clip-path="url(#p2af833273e)" style="fill: none; stroke: #bf5b17; stroke-width: 3; stroke-linecap: square"/>
   </g>
   <g id="patch_3">
    <path d="M 69.019063 339.84 
L 69.019063 7.2 
" style="fill: none; stroke: #000000; stroke-width: 0.8; stroke-linejoin: miter; stroke-linecap: square"/>
   </g>
   <g id="patch_4">
    <path d="M 571.219063 339.84 
L 571.219063 7.2 
" style="fill: none; stroke: #000000; stroke-width: 0.8; stroke-linejoin: miter; stroke-linecap: square"/>
   </g>
   <g id="patch_5">
    <path d="M 69.019063 339.84 
L 571.219063 339.84 
" style="fill: none; stroke: #000000; stroke-width: 0.8; stroke-linejoin: miter; stroke-linecap: square"/>
   </g>
   <g id="patch_6">
    <path d="M 69.019063 7.2 
L 571.219063 7.2 
" style="fill: none; stroke: #000000; stroke-width: 0.8; stroke-linejoin: miter; stroke-linecap: square"/>
   </g>
  </g>
 </g>
 <defs>
  <clipPath id="p2af833273e">
   <rect x="69.019063" y="7.2" width="502.2" height="332.64"/>
  </clipPath>
 </defs>
</svg>
