<?xml version="1.0" encoding="utf-8" standalone="no"?>
<!DOCTYPE svg PUBLIC "-//W3C//DTD SVG 1.1//EN"
  "http://www.w3.org/Graphics/SVG/1.1/DTD/svg11.dtd">
<svg xmlns:xlink="http://www.w3.org/1999/xlink" width="578.419062pt" height="389.977813pt" viewBox="0 0 578.419062 389.977813" xmlns="http://www.w3.org/2000/svg" version="1.1">
 <metadata>
  <rdf:RDF xmlns:dc="http://purl.org/dc/elements/1.1/" xmlns:cc="http://creativecommons.org/ns#" xmlns:rdf="http://www.w3.org/1999/02/22-rdf-syntax-ns#">
   <cc:Work>
    <dc:type rdf:resource="http://purl.org/dc/dcmitype/StillImage"/>
    <dc:date>2025-05-16T02:37:26.626240</dc:date>
    <dc:format>image/svg+xml</dc:format>
    <dc:creator>
     <cc:Agent>
      <dc:title>Matplotlib v3.9.4, https://matplotlib.org/</dc:title>
     </cc:Agent>
    </dc:creator>
   </cc:Work>
  </rdf:RDF>
 </metadata>
 <defs>
  <style type="text/css">*{stroke-linejoin: round; stroke-linecap: butt}</style>
 </defs>
 <g id="figure_1">
  <g id="patch_1">
   <path d="M 0 389.977813 
L 578.419062 389.977813 
L 578.419062 0 
L 0 0 
z
" style="fill: #ffffff"/>
  </g>
  <g id="axes_1">
   <g id="patch_2">
    <path d="M 69.019063 339.84 
L 571.219063 339.84 
L 571.219063 7.2 
L 69.019063 7.2 
z
" style="fill: #ffffff"/>
   </g>
   <g id="PolyCollection_1">
    <defs>
     <path id="m5fcfe25671" d="M 91.846335 -367.657812 
L 91.846335 -362.235414 
L 172.738803 -362.235414 
L 220.057863 -362.235414 
L 253.631271 -362.235414 
L 279.672829 -362.235414 
L 300.950331 -362.235414 
L 318.940203 -362.235414 
L 334.523738 -362.235414 
L 348.269391 -362.235414 
L 360.565296 -362.235414 
L 371.688296 -362.235414 
L 381.842799 -362.235414 
L 391.184036 -362.235414 
L 399.83267 -362.235414 
L 407.884357 -362.235414 
L 415.416206 -362.235414 
L 422.491291 -362.235414 
L 429.161859 -362.235414 
L 435.471674 -362.235414 
L 441.457764 -362.235414 
L 447.15173 -362.235414 
L 452.580763 -362.235414 
L 457.768425 -362.235414 
L 462.735266 -362.235414 
L 467.499322 -362.235414 
L 472.076503 -362.235414 
L 476.480919 -362.235414 
L 480.725138 -362.235414 
L 484.820406 -362.235414 
L 488.776824 -362.235414 
L 492.6035 -362.235414 
L 496.308674 -362.235414 
L 499.899824 -362.235414 
L 503.383759 -362.235414 
L 506.766696 -362.235414 
L 510.054326 -362.235414 
L 513.251873 -362.235414 
L 516.364142 -362.235414 
L 519.395564 -362.235414 
L 522.350232 -362.235414 
L 525.231938 -362.235414 
L 528.044198 -362.235414 
L 530.790282 -362.235414 
L 533.473231 -362.235414 
L 536.095884 -362.235414 
L 538.660892 -362.235414 
L 541.170735 -362.235414 
L 543.627734 -362.235414 
L 546.03407 -362.235414 
L 548.39179 -362.235414 
L 548.39179 -367.657812 
L 548.39179 -367.657812 
L 546.03407 -367.657812 
L 543.627734 -367.657812 
L 541.170735 -367.657812 
L 538.660892 -367.657812 
L 536.095884 -367.657812 
L 533.473231 -367.657812 
L 530.790282 -367.657812 
L 528.044198 -367.657812 
L 525.231938 -367.657812 
L 522.350232 -367.657812 
L 519.395564 -367.657812 
L 516.364142 -367.657812 
L 513.251873 -367.657812 
L 510.054326 -367.657812 
L 506.766696 -367.657812 
L 503.383759 -367.657812 
L 499.899824 -367.657812 
L 496.308674 -367.657812 
L 492.6035 -367.657812 
L 488.776824 -367.657812 
L 484.820406 -367.657812 
L 480.725138 -367.657812 
L 476.480919 -367.657812 
L 472.076503 -367.657812 
L 467.499322 -367.657812 
L 462.735266 -367.657812 
L 457.768425 -367.657812 
L 452.580763 -367.657812 
L 447.15173 -367.657812 
L 441.457764 -367.657812 
L 435.471674 -367.657812 
L 429.161859 -367.657812 
L 422.491291 -367.657812 
L 415.416206 -367.657812 
L 407.884357 -367.657812 
L 399.83267 -367.657812 
L 391.184036 -367.657812 
L 381.842799 -367.657812 
L 371.688296 -367.657812 
L 360.565296 -367.657812 
L 348.269391 -367.657812 
L 334.523738 -367.657812 
L 318.940203 -367.657812 
L 300.950331 -367.657812 
L 279.672829 -367.657812 
L 253.631271 -367.657812 
L 220.057863 -367.657812 
L 172.738803 -367.657812 
L 91.846335 -367.657812 
z
" style="stroke: #fdc086; stroke-opacity: 0.05"/>
    </defs>
    <g clip-path="url(#pbbca1d11e2)">
     <use xlink:href="#m5fcfe25671" x="0" y="389.977813" style="fill: #fdc086; fill-opacity: 0.05; stroke: #fdc086; stroke-opacity: 0.05"/>
    </g>
   </g>
   <g id="PolyCollection_2">
    <defs>
     <path id="m91afe31744" d="M 91.846335 -139.844341 
L 91.846335 -65.257812 
L 172.738803 -145.169613 
L 220.057863 -182.608335 
L 253.631271 -212.227456 
L 279.672829 -228.294645 
L 300.950331 -239.727514 
L 318.940203 -250.205373 
L 334.523738 -259.559709 
L 348.269391 -266.946548 
L 360.565296 -273.56788 
L 371.688296 -279.093227 
L 381.842799 -284.590821 
L 391.184036 -289.273022 
L 399.83267 -293.386211 
L 407.884357 -297.511596 
L 415.416206 -301.078507 
L 422.491291 -304.134362 
L 429.161859 -306.737221 
L 435.471674 -309.229986 
L 441.457764 -311.428996 
L 447.15173 -313.639158 
L 452.580763 -315.655417 
L 457.768425 -317.630685 
L 462.735266 -319.418474 
L 467.499322 -321.342707 
L 472.076503 -323.212043 
L 476.480919 -324.913911 
L 480.725138 -326.563968 
L 484.820406 -328.204602 
L 488.776824 -329.885414 
L 492.6035 -331.227467 
L 496.308674 -332.589372 
L 499.899824 -333.714152 
L 503.383759 -334.866834 
L 506.766696 -336.133644 
L 510.054326 -337.386461 
L 513.251873 -338.56556 
L 516.364142 -339.704307 
L 519.395564 -340.787289 
L 522.350232 -341.913785 
L 525.231938 -342.9618 
L 528.044198 -343.957673 
L 530.790282 -345.04586 
L 533.473231 -345.952196 
L 536.095884 -346.844555 
L 538.660892 -347.766039 
L 541.170735 -348.499809 
L 543.627734 -349.410462 
L 546.03407 -350.244578 
L 548.39179 -350.921626 
L 548.39179 -355.096201 
L 548.39179 -355.096201 
L 546.03407 -354.372528 
L 543.627734 -353.660567 
L 541.170735 -352.875904 
L 538.660892 -352.059004 
L 536.095884 -351.376986 
L 533.473231 -350.472583 
L 530.790282 -349.581711 
L 528.044198 -348.674736 
L 525.231938 -347.754428 
L 522.350232 -346.763246 
L 519.395564 -345.75269 
L 516.364142 -344.716985 
L 513.251873 -343.641574 
L 510.054326 -342.670936 
L 506.766696 -341.638145 
L 503.383759 -340.328345 
L 499.899824 -339.210169 
L 496.308674 -337.951331 
L 492.6035 -336.706101 
L 488.776824 -335.361328 
L 484.820406 -333.935848 
L 480.725138 -332.525023 
L 476.480919 -331.039475 
L 472.076503 -329.43689 
L 467.499322 -327.848974 
L 462.735266 -326.156574 
L 457.768425 -324.32953 
L 452.580763 -322.452078 
L 447.15173 -320.328404 
L 441.457764 -318.017715 
L 435.471674 -315.803126 
L 429.161859 -313.396485 
L 422.491291 -310.773008 
L 415.416206 -308.160018 
L 407.884357 -305.332748 
L 399.83267 -302.024992 
L 391.184036 -298.574286 
L 381.842799 -294.618799 
L 371.688296 -290.083438 
L 360.565296 -285.227386 
L 348.269391 -280.42521 
L 334.523738 -274.071088 
L 318.940203 -266.547619 
L 300.950331 -258.031137 
L 279.672829 -246.85271 
L 253.631271 -233.466823 
L 220.057863 -218.849247 
L 172.738803 -189.676173 
L 91.846335 -139.844341 
z
" style="stroke: #7fc97f; stroke-opacity: 0.05"/>
    </defs>
    <g clip-path="url(#pbbca1d11e2)">
     <use xlink:href="#m91afe31744" x="0" y="389.977813" style="fill: #7fc97f; fill-opacity: 0.05; stroke: #7fc97f; stroke-opacity: 0.05"/>
    </g>
   </g>
   <g id="PolyCollection_3">
    <defs>
     <path id="m092b5a35a0" d="M 91.846335 -166.697925 
L 91.846335 -162.003791 
L 172.738803 -185.970794 
L 220.057863 -205.838539 
L 253.631271 -229.975796 
L 279.672829 -243.402931 
L 300.950331 -253.759543 
L 318.940203 -262.128016 
L 334.523738 -269.786463 
L 348.269391 -276.646767 
L 360.565296 -282.222088 
L 371.688296 -287.118058 
L 381.842799 -291.413141 
L 391.184036 -295.439075 
L 399.83267 -298.889273 
L 407.884357 -302.130418 
L 415.416206 -305.303889 
L 422.491291 -308.181318 
L 429.161859 -311.016809 
L 435.471674 -313.374208 
L 441.457764 -315.767672 
L 447.15173 -318.084645 
L 452.580763 -319.998352 
L 457.768425 -322.107436 
L 462.735266 -323.930905 
L 467.499322 -325.790843 
L 472.076503 -327.559324 
L 476.480919 -329.01977 
L 480.725138 -330.645531 
L 484.820406 -332.282849 
L 488.776824 -333.687667 
L 492.6035 -335.029485 
L 496.308674 -336.292463 
L 499.899824 -337.470725 
L 503.383759 -338.797401 
L 506.766696 -339.960302 
L 510.054326 -340.961285 
L 513.251873 -342.097448 
L 516.364142 -343.111628 
L 519.395564 -343.996396 
L 522.350232 -344.97232 
L 525.231938 -345.931213 
L 528.044198 -346.883201 
L 530.790282 -347.848958 
L 533.473231 -348.681554 
L 536.095884 -349.478736 
L 538.660892 -350.305713 
L 541.170735 -351.069442 
L 543.627734 -351.772048 
L 546.03407 -352.560874 
L 548.39179 -353.21984 
L 548.39179 -358.480057 
L 548.39179 -358.480057 
L 546.03407 -357.793245 
L 543.627734 -357.121047 
L 541.170735 -356.357033 
L 538.660892 -355.630619 
L 536.095884 -354.824038 
L 533.473231 -354.018947 
L 530.790282 -353.176243 
L 528.044198 -352.364404 
L 525.231938 -351.454227 
L 522.350232 -350.54613 
L 519.395564 -349.615609 
L 516.364142 -348.65396 
L 513.251873 -347.626272 
L 510.054326 -346.685783 
L 506.766696 -345.661778 
L 503.383759 -344.537042 
L 499.899824 -343.400708 
L 496.308674 -342.262926 
L 492.6035 -341.127329 
L 488.776824 -339.915747 
L 484.820406 -338.624866 
L 480.725138 -337.326116 
L 476.480919 -335.963391 
L 472.076503 -334.497144 
L 467.499322 -332.94739 
L 462.735266 -331.346023 
L 457.768425 -329.637861 
L 452.580763 -327.931262 
L 447.15173 -326.081702 
L 441.457764 -324.196823 
L 435.471674 -322.128806 
L 429.161859 -319.732383 
L 422.491291 -317.296273 
L 415.416206 -314.654858 
L 407.884357 -311.902166 
L 399.83267 -308.802084 
L 391.184036 -305.358096 
L 381.842799 -301.537664 
L 371.688296 -297.353281 
L 360.565296 -292.533474 
L 348.269391 -287.101976 
L 334.523738 -280.925488 
L 318.940203 -273.196103 
L 300.950331 -263.794669 
L 279.672829 -251.720912 
L 253.631271 -237.114028 
L 220.057863 -213.520205 
L 172.738803 -194.326289 
L 91.846335 -166.697925 
z
" style="stroke: #bf5b17; stroke-opacity: 0.05"/>
    </defs>
    <g clip-path="url(#pbbca1d11e2)">
     <use xlink:href="#m092b5a35a0" x="0" y="389.977813" style="fill: #bf5b17; fill-opacity: 0.05; stroke: #bf5b17; stroke-opacity: 0.05"/>
    </g>
   </g>
   <g id="PolyCollection_4">
    <defs>
     <path id="me39ead0d97" d="M 91.846335 -166.697925 
L 91.846335 -162.003791 
L 172.738803 -204.59507 
L 220.057863 -225.105688 
L 253.631271 -243.741093 
L 279.672829 -257.319899 
L 300.950331 -267.338808 
L 318.940203 -274.533251 
L 334.523738 -281.214 
L 348.269391 -286.643962 
L 360.565296 -291.994091 
L 371.688296 -296.659071 
L 381.842799 -301.30425 
L 391.184036 -305.545563 
L 399.83267 -308.660687 
L 407.884357 -311.37194 
L 415.416206 -314.185227 
L 422.491291 -316.285579 
L 429.161859 -318.500795 
L 435.471674 -320.588517 
L 441.457764 -322.843383 
L 447.15173 -324.829937 
L 452.580763 -326.54121 
L 457.768425 -328.152539 
L 462.735266 -329.70754 
L 467.499322 -331.077904 
L 472.076503 -332.464168 
L 476.480919 -333.98204 
L 480.725138 -335.412083 
L 484.820406 -336.602801 
L 488.776824 -338.048319 
L 492.6035 -339.280846 
L 496.308674 -340.544294 
L 499.899824 -341.634977 
L 503.383759 -342.609102 
L 506.766696 -343.500872 
L 510.054326 -344.524393 
L 513.251873 -345.551086 
L 516.364142 -346.418191 
L 519.395564 -347.426337 
L 522.350232 -348.240727 
L 525.231938 -349.093353 
L 528.044198 -350.030174 
L 530.790282 -350.810606 
L 533.473231 -351.486488 
L 536.095884 -352.103585 
L 538.660892 -352.850819 
L 541.170735 -353.551982 
L 543.627734 -354.239976 
L 546.03407 -354.947711 
L 548.39179 -355.648782 
L 548.39179 -359.395616 
L 548.39179 -359.395616 
L 546.03407 -358.760823 
L 543.627734 -358.081747 
L 541.170735 -357.350122 
L 538.660892 -356.608639 
L 536.095884 -355.859084 
L 533.473231 -355.171575 
L 530.790282 -354.523369 
L 528.044198 -353.815022 
L 525.231938 -352.863127 
L 522.350232 -352.001086 
L 519.395564 -351.195771 
L 516.364142 -350.154322 
L 513.251873 -349.276339 
L 510.054326 -348.333463 
L 506.766696 -347.304065 
L 503.383759 -346.455909 
L 499.899824 -345.48996 
L 496.308674 -344.344894 
L 492.6035 -343.153284 
L 488.776824 -341.936676 
L 484.820406 -340.499096 
L 480.725138 -339.284788 
L 476.480919 -337.989961 
L 472.076503 -336.442433 
L 467.499322 -335.061474 
L 462.735266 -333.699592 
L 457.768425 -332.232686 
L 452.580763 -330.633162 
L 447.15173 -328.838297 
L 441.457764 -326.980806 
L 435.471674 -324.975069 
L 429.161859 -322.77278 
L 422.491291 -320.545254 
L 415.416206 -318.461324 
L 407.884357 -315.803857 
L 399.83267 -312.954214 
L 391.184036 -309.92994 
L 381.842799 -305.593236 
L 371.688296 -301.018599 
L 360.565296 -296.295356 
L 348.269391 -290.805771 
L 334.523738 -285.224514 
L 318.940203 -278.715338 
L 300.950331 -271.798705 
L 279.672829 -261.473446 
L 253.631271 -247.87502 
L 220.057863 -229.125402 
L 172.738803 -209.238685 
L 91.846335 -166.697925 
z
" style="stroke: #f0027f; stroke-opacity: 0.05"/>
    </defs>
    <g clip-path="url(#pbbca1d11e2)">
     <use xlink:href="#me39ead0d97" x="0" y="389.977813" style="fill: #f0027f; fill-opacity: 0.05; stroke: #f0027f; stroke-opacity: 0.05"/>
    </g>
   </g>
   <g id="PolyCollection_5">
    <defs>
     <path id="mea0722768f" d="M 91.846335 -166.697925 
L 91.846335 -162.003791 
L 172.738803 -204.59507 
L 220.057863 -225.105688 
L 253.631271 -243.741093 
L 279.672829 -257.319899 
L 300.950331 -267.338808 
L 318.940203 -274.537813 
L 334.523738 -281.230862 
L 348.269391 -286.640941 
L 360.565296 -291.99486 
L 371.688296 -296.658562 
L 381.842799 -301.304347 
L 391.184036 -305.545512 
L 399.83267 -308.658828 
L 407.884357 -311.371854 
L 415.416206 -314.190859 
L 422.491291 -316.292759 
L 429.161859 -318.50893 
L 435.471674 -320.605493 
L 441.457764 -322.856782 
L 447.15173 -324.84045 
L 452.580763 -326.548023 
L 457.768425 -328.156951 
L 462.735266 -329.711052 
L 467.499322 -331.082691 
L 472.076503 -332.469567 
L 476.480919 -333.98715 
L 480.725138 -335.415999 
L 484.820406 -336.605478 
L 488.776824 -338.051247 
L 492.6035 -339.277835 
L 496.308674 -340.541633 
L 499.899824 -341.624322 
L 503.383759 -342.606729 
L 506.766696 -343.49934 
L 510.054326 -344.52284 
L 513.251873 -345.549791 
L 516.364142 -346.416402 
L 519.395564 -347.420988 
L 522.350232 -348.233258 
L 525.231938 -349.083972 
L 528.044198 -350.014915 
L 530.790282 -350.79771 
L 533.473231 -351.475911 
L 536.095884 -352.097357 
L 538.660892 -352.843175 
L 541.170735 -353.544311 
L 543.627734 -354.230594 
L 546.03407 -354.941772 
L 548.39179 -355.639955 
L 548.39179 -359.388784 
L 548.39179 -359.388784 
L 546.03407 -358.75508 
L 543.627734 -358.073907 
L 541.170735 -357.342508 
L 538.660892 -356.601307 
L 536.095884 -355.851655 
L 533.473231 -355.157207 
L 530.790282 -354.508366 
L 528.044198 -353.79511 
L 525.231938 -352.847064 
L 522.350232 -351.982612 
L 519.395564 -351.177297 
L 516.364142 -350.146789 
L 513.251873 -349.27194 
L 510.054326 -348.324105 
L 506.766696 -347.288861 
L 503.383759 -346.449484 
L 499.899824 -345.466604 
L 496.308674 -344.338901 
L 492.6035 -343.147144 
L 488.776824 -341.942236 
L 484.820406 -340.50497 
L 480.725138 -339.297986 
L 476.480919 -338.001241 
L 472.076503 -336.461388 
L 467.499322 -335.072083 
L 462.735266 -333.705675 
L 457.768425 -332.238643 
L 452.580763 -330.642942 
L 447.15173 -328.855756 
L 441.457764 -326.996099 
L 435.471674 -324.993548 
L 429.161859 -322.780578 
L 422.491291 -320.551924 
L 415.416206 -318.467775 
L 407.884357 -315.803673 
L 399.83267 -312.949287 
L 391.184036 -309.929484 
L 381.842799 -305.585805 
L 371.688296 -301.039665 
L 360.565296 -296.286654 
L 348.269391 -290.818784 
L 334.523738 -285.144522 
L 318.940203 -278.663382 
L 300.950331 -271.798705 
L 279.672829 -261.473446 
L 253.631271 -247.87502 
L 220.057863 -229.125402 
L 172.738803 -209.238685 
L 91.846335 -166.697925 
z
" style="stroke: #386cb0; stroke-opacity: 0.05"/>
    </defs>
    <g clip-path="url(#pbbca1d11e2)">
     <use xlink:href="#mea0722768f" x="0" y="389.977813" style="fill: #386cb0; fill-opacity: 0.05; stroke: #386cb0; stroke-opacity: 0.05"/>
    </g>
   </g>
   <g id="PolyCollection_6">
    <defs>
     <path id="m8bf2f43b04" d="M 91.846335 -167.528562 
L 91.846335 -162.712071 
L 172.738803 -205.179322 
L 220.057863 -226.60006 
L 253.631271 -242.56949 
L 279.672829 -256.214766 
L 300.950331 -267.272459 
L 318.940203 -277.743029 
L 334.523738 -283.534106 
L 348.269391 -288.824821 
L 360.565296 -293.749602 
L 371.688296 -298.334867 
L 381.842799 -302.440785 
L 391.184036 -305.932786 
L 399.83267 -309.262451 
L 407.884357 -312.493128 
L 415.416206 -315.055066 
L 422.491291 -317.423089 
L 429.161859 -319.68235 
L 435.471674 -321.863251 
L 441.457764 -323.915922 
L 447.15173 -325.814825 
L 452.580763 -327.58068 
L 457.768425 -329.324662 
L 462.735266 -330.955919 
L 467.499322 -332.469872 
L 472.076503 -333.949305 
L 476.480919 -335.333338 
L 480.725138 -336.793012 
L 484.820406 -338.150835 
L 488.776824 -339.399555 
L 492.6035 -340.663984 
L 496.308674 -341.866043 
L 499.899824 -342.990385 
L 503.383759 -344.02856 
L 506.766696 -345.030096 
L 510.054326 -346.079238 
L 513.251873 -347.08783 
L 516.364142 -348.061683 
L 519.395564 -348.993091 
L 522.350232 -349.95362 
L 525.231938 -350.851247 
L 528.044198 -351.714483 
L 530.790282 -352.540554 
L 533.473231 -353.293814 
L 536.095884 -354.04234 
L 538.660892 -354.814319 
L 541.170735 -355.53998 
L 543.627734 -356.245494 
L 546.03407 -356.971123 
L 548.39179 -357.687966 
L 548.39179 -360.85239 
L 548.39179 -360.85239 
L 546.03407 -360.157137 
L 543.627734 -359.459782 
L 541.170735 -358.725754 
L 538.660892 -357.948306 
L 536.095884 -357.174403 
L 533.473231 -356.373038 
L 530.790282 -355.545045 
L 528.044198 -354.707182 
L 525.231938 -353.849992 
L 522.350232 -352.973791 
L 519.395564 -352.103288 
L 516.364142 -351.175815 
L 513.251873 -350.268395 
L 510.054326 -349.325635 
L 506.766696 -348.327802 
L 503.383759 -347.255895 
L 499.899824 -346.177896 
L 496.308674 -345.035214 
L 492.6035 -343.895972 
L 488.776824 -342.719888 
L 484.820406 -341.419024 
L 480.725138 -340.194096 
L 476.480919 -338.878439 
L 472.076503 -337.423884 
L 467.499322 -335.873799 
L 462.735266 -334.260557 
L 457.768425 -332.534906 
L 452.580763 -330.826095 
L 447.15173 -329.045037 
L 441.457764 -327.165055 
L 435.471674 -325.339946 
L 429.161859 -323.15142 
L 422.491291 -320.97838 
L 415.416206 -318.69478 
L 407.884357 -316.231195 
L 399.83267 -313.139685 
L 391.184036 -310.037872 
L 381.842799 -306.745214 
L 371.688296 -302.639097 
L 360.565296 -298.039868 
L 348.269391 -293.274115 
L 334.523738 -288.188853 
L 318.940203 -282.526582 
L 300.950331 -272.058697 
L 279.672829 -260.831693 
L 253.631271 -247.306527 
L 220.057863 -230.789728 
L 172.738803 -209.640665 
L 91.846335 -167.528562 
z
" style="stroke: #666666; stroke-opacity: 0.05"/>
    </defs>
    <g clip-path="url(#pbbca1d11e2)">
     <use xlink:href="#m8bf2f43b04" x="0" y="389.977813" style="fill: #666666; fill-opacity: 0.05; stroke: #666666; stroke-opacity: 0.05"/>
    </g>
   </g>
   <g id="matplotlib.axis_1">
    <g id="xtick_1">
     <g id="line2d_1">
      <path d="M 91.846335 339.84 
L 91.846335 7.2 
" clip-path="url(#pbbca1d11e2)" style="fill: none; stroke-dasharray: 1.85,0.8; stroke-dashoffset: 0; stroke: #b0b0b0; stroke-width: 0.5"/>
     </g>
     <g id="line2d_2">
      <defs>
       <path id="m353deefe8b" d="M 0 0 
L 0 3.5 
" style="stroke: #000000; stroke-width: 0.8"/>
      </defs>
      <g>
       <use xlink:href="#m353deefe8b" x="91.846335" y="339.84" style="stroke: #000000; stroke-width: 0.8"/>
      </g>
     </g>
     <g id="text_1">
      <!-- $\mathdefault{10^{0}}$ -->
      <g transform="translate(78.646335 358.237656) scale(0.15 -0.15)">
       <defs>
        <path id="DejaVuSans-31" d="M 794 531 
L 1825 531 
L 1825 4091 
L 703 3866 
L 703 4441 
L 1819 4666 
L 2450 4666 
L 2450 531 
L 3481 531 
L 3481 0 
L 794 0 
L 794 531 
z
" transform="scale(0.015625)"/>
        <path id="DejaVuSans-30" d="M 2034 4250 
Q 1547 4250 1301 3770 
Q 1056 3291 1056 2328 
Q 1056 1369 1301 889 
Q 1547 409 2034 409 
Q 2525 409 2770 889 
Q 3016 1369 3016 2328 
Q 3016 3291 2770 3770 
Q 2525 4250 2034 4250 
z
M 2034 4750 
Q 2819 4750 3233 4129 
Q 3647 3509 3647 2328 
Q 3647 1150 3233 529 
Q 2819 -91 2034 -91 
Q 1250 -91 836 529 
Q 422 1150 422 2328 
Q 422 3509 836 4129 
Q 1250 4750 2034 4750 
z
" transform="scale(0.015625)"/>
       </defs>
       <use xlink:href="#DejaVuSans-31" transform="translate(0 0.765625)"/>
       <use xlink:href="#DejaVuSans-30" transform="translate(63.623047 0.765625)"/>
       <use xlink:href="#DejaVuSans-30" transform="translate(128.203125 39.046875) scale(0.7)"/>
      </g>
     </g>
    </g>
    <g id="xtick_2">
     <g id="line2d_3">
      <path d="M 360.565296 339.84 
L 360.565296 7.2 
" clip-path="url(#pbbca1d11e2)" style="fill: none; stroke-dasharray: 1.85,0.8; stroke-dashoffset: 0; stroke: #b0b0b0; stroke-width: 0.5"/>
     </g>
     <g id="line2d_4">
      <g>
       <use xlink:href="#m353deefe8b" x="360.565296" y="339.84" style="stroke: #000000; stroke-width: 0.8"/>
      </g>
     </g>
     <g id="text_2">
      <!-- $\mathdefault{10^{1}}$ -->
      <g transform="translate(347.365296 358.237656) scale(0.15 -0.15)">
       <use xlink:href="#DejaVuSans-31" transform="translate(0 0.684375)"/>
       <use xlink:href="#DejaVuSans-30" transform="translate(63.623047 0.684375)"/>
       <use xlink:href="#DejaVuSans-31" transform="translate(128.203125 38.965625) scale(0.7)"/>
      </g>
     </g>
    </g>
    <g id="xtick_3">
     <g id="line2d_5">
      <defs>
       <path id="m3b5acec025" d="M 0 0 
L 0 2 
" style="stroke: #000000; stroke-width: 0.6"/>
      </defs>
      <g>
       <use xlink:href="#m3b5acec025" x="79.55043" y="339.84" style="stroke: #000000; stroke-width: 0.6"/>
      </g>
     </g>
    </g>
    <g id="xtick_4">
     <g id="line2d_6">
      <g>
       <use xlink:href="#m3b5acec025" x="172.738803" y="339.84" style="stroke: #000000; stroke-width: 0.6"/>
      </g>
     </g>
    </g>
    <g id="xtick_5">
     <g id="line2d_7">
      <g>
       <use xlink:href="#m3b5acec025" x="220.057863" y="339.84" style="stroke: #000000; stroke-width: 0.6"/>
      </g>
     </g>
    </g>
    <g id="xtick_6">
     <g id="line2d_8">
      <g>
       <use xlink:href="#m3b5acec025" x="253.631271" y="339.84" style="stroke: #000000; stroke-width: 0.6"/>
      </g>
     </g>
    </g>
    <g id="xtick_7">
     <g id="line2d_9">
      <g>
       <use xlink:href="#m3b5acec025" x="279.672829" y="339.84" style="stroke: #000000; stroke-width: 0.6"/>
      </g>
     </g>
    </g>
    <g id="xtick_8">
     <g id="line2d_10">
      <g>
       <use xlink:href="#m3b5acec025" x="300.950331" y="339.84" style="stroke: #000000; stroke-width: 0.6"/>
      </g>
     </g>
    </g>
    <g id="xtick_9">
     <g id="line2d_11">
      <g>
       <use xlink:href="#m3b5acec025" x="318.940203" y="339.84" style="stroke: #000000; stroke-width: 0.6"/>
      </g>
     </g>
    </g>
    <g id="xtick_10">
     <g id="line2d_12">
      <g>
       <use xlink:href="#m3b5acec025" x="334.523738" y="339.84" style="stroke: #000000; stroke-width: 0.6"/>
      </g>
     </g>
    </g>
    <g id="xtick_11">
     <g id="line2d_13">
      <g>
       <use xlink:href="#m3b5acec025" x="348.269391" y="339.84" style="stroke: #000000; stroke-width: 0.6"/>
      </g>
     </g>
    </g>
    <g id="xtick_12">
     <g id="line2d_14">
      <g>
       <use xlink:href="#m3b5acec025" x="441.457764" y="339.84" style="stroke: #000000; stroke-width: 0.6"/>
      </g>
     </g>
    </g>
    <g id="xtick_13">
     <g id="line2d_15">
      <g>
       <use xlink:href="#m3b5acec025" x="488.776824" y="339.84" style="stroke: #000000; stroke-width: 0.6"/>
      </g>
     </g>
    </g>
    <g id="xtick_14">
     <g id="line2d_16">
      <g>
       <use xlink:href="#m3b5acec025" x="522.350232" y="339.84" style="stroke: #000000; stroke-width: 0.6"/>
      </g>
     </g>
    </g>
    <g id="xtick_15">
     <g id="line2d_17">
      <g>
       <use xlink:href="#m3b5acec025" x="548.39179" y="339.84" style="stroke: #000000; stroke-width: 0.6"/>
      </g>
     </g>
    </g>
    <g id="xtick_16">
     <g id="line2d_18">
      <g>
       <use xlink:href="#m3b5acec025" x="569.669292" y="339.84" style="stroke: #000000; stroke-width: 0.6"/>
      </g>
     </g>
    </g>
    <g id="text_3">
     <!-- Decision Round -->
     <g transform="translate(250.466094 379.034375) scale(0.18 -0.18)">
      <defs>
       <path id="DejaVuSans-44" d="M 1259 4147 
L 1259 519 
L 2022 519 
Q 2988 519 3436 956 
Q 3884 1394 3884 2338 
Q 3884 3275 3436 3711 
Q 2988 4147 2022 4147 
L 1259 4147 
z
M 628 4666 
L 1925 4666 
Q 3281 4666 3915 4102 
Q 4550 3538 4550 2338 
Q 4550 1131 3912 565 
Q 3275 0 1925 0 
L 628 0 
L 628 4666 
z
" transform="scale(0.015625)"/>
       <path id="DejaVuSans-65" d="M 3597 1894 
L 3597 1613 
L 953 1613 
Q 991 1019 1311 708 
Q 1631 397 2203 397 
Q 2534 397 2845 478 
Q 3156 559 3463 722 
L 3463 178 
Q 3153 47 2828 -22 
Q 2503 -91 2169 -91 
Q 1331 -91 842 396 
Q 353 884 353 1716 
Q 353 2575 817 3079 
Q 1281 3584 2069 3584 
Q 2775 3584 3186 3129 
Q 3597 2675 3597 1894 
z
M 3022 2063 
Q 3016 2534 2758 2815 
Q 2500 3097 2075 3097 
Q 1594 3097 1305 2825 
Q 1016 2553 972 2059 
L 3022 2063 
z
" transform="scale(0.015625)"/>
       <path id="DejaVuSans-63" d="M 3122 3366 
L 3122 2828 
Q 2878 2963 2633 3030 
Q 2388 3097 2138 3097 
Q 1578 3097 1268 2742 
Q 959 2388 959 1747 
Q 959 1106 1268 751 
Q 1578 397 2138 397 
Q 2388 397 2633 464 
Q 2878 531 3122 666 
L 3122 134 
Q 2881 22 2623 -34 
Q 2366 -91 2075 -91 
Q 1284 -91 818 406 
Q 353 903 353 1747 
Q 353 2603 823 3093 
Q 1294 3584 2113 3584 
Q 2378 3584 2631 3529 
Q 2884 3475 3122 3366 
z
" transform="scale(0.015625)"/>
       <path id="DejaVuSans-69" d="M 603 3500 
L 1178 3500 
L 1178 0 
L 603 0 
L 603 3500 
z
M 603 4863 
L 1178 4863 
L 1178 4134 
L 603 4134 
L 603 4863 
z
" transform="scale(0.015625)"/>
       <path id="DejaVuSans-73" d="M 2834 3397 
L 2834 2853 
Q 2591 2978 2328 3040 
Q 2066 3103 1784 3103 
Q 1356 3103 1142 2972 
Q 928 2841 928 2578 
Q 928 2378 1081 2264 
Q 1234 2150 1697 2047 
L 1894 2003 
Q 2506 1872 2764 1633 
Q 3022 1394 3022 966 
Q 3022 478 2636 193 
Q 2250 -91 1575 -91 
Q 1294 -91 989 -36 
Q 684 19 347 128 
L 347 722 
Q 666 556 975 473 
Q 1284 391 1588 391 
Q 1994 391 2212 530 
Q 2431 669 2431 922 
Q 2431 1156 2273 1281 
Q 2116 1406 1581 1522 
L 1381 1569 
Q 847 1681 609 1914 
Q 372 2147 372 2553 
Q 372 3047 722 3315 
Q 1072 3584 1716 3584 
Q 2034 3584 2315 3537 
Q 2597 3491 2834 3397 
z
" transform="scale(0.015625)"/>
       <path id="DejaVuSans-6f" d="M 1959 3097 
Q 1497 3097 1228 2736 
Q 959 2375 959 1747 
Q 959 1119 1226 758 
Q 1494 397 1959 397 
Q 2419 397 2687 759 
Q 2956 1122 2956 1747 
Q 2956 2369 2687 2733 
Q 2419 3097 1959 3097 
z
M 1959 3584 
Q 2709 3584 3137 3096 
Q 3566 2609 3566 1747 
Q 3566 888 3137 398 
Q 2709 -91 1959 -91 
Q 1206 -91 779 398 
Q 353 888 353 1747 
Q 353 2609 779 3096 
Q 1206 3584 1959 3584 
z
" transform="scale(0.015625)"/>
       <path id="DejaVuSans-6e" d="M 3513 2113 
L 3513 0 
L 2938 0 
L 2938 2094 
Q 2938 2591 2744 2837 
Q 2550 3084 2163 3084 
Q 1697 3084 1428 2787 
Q 1159 2491 1159 1978 
L 1159 0 
L 581 0 
L 581 3500 
L 1159 3500 
L 1159 2956 
Q 1366 3272 1645 3428 
Q 1925 3584 2291 3584 
Q 2894 3584 3203 3211 
Q 3513 2838 3513 2113 
z
" transform="scale(0.015625)"/>
       <path id="DejaVuSans-20" transform="scale(0.015625)"/>
       <path id="DejaVuSans-52" d="M 2841 2188 
Q 3044 2119 3236 1894 
Q 3428 1669 3622 1275 
L 4263 0 
L 3584 0 
L 2988 1197 
Q 2756 1666 2539 1819 
Q 2322 1972 1947 1972 
L 1259 1972 
L 1259 0 
L 628 0 
L 628 4666 
L 2053 4666 
Q 2853 4666 3247 4331 
Q 3641 3997 3641 3322 
Q 3641 2881 3436 2590 
Q 3231 2300 2841 2188 
z
M 1259 4147 
L 1259 2491 
L 2053 2491 
Q 2509 2491 2742 2702 
Q 2975 2913 2975 3322 
Q 2975 3731 2742 3939 
Q 2509 4147 2053 4147 
L 1259 4147 
z
" transform="scale(0.015625)"/>
       <path id="DejaVuSans-75" d="M 544 1381 
L 544 3500 
L 1119 3500 
L 1119 1403 
Q 1119 906 1312 657 
Q 1506 409 1894 409 
Q 2359 409 2629 706 
Q 2900 1003 2900 1516 
L 2900 3500 
L 3475 3500 
L 3475 0 
L 2900 0 
L 2900 538 
Q 2691 219 2414 64 
Q 2138 -91 1772 -91 
Q 1169 -91 856 284 
Q 544 659 544 1381 
z
M 1991 3584 
L 1991 3584 
z
" transform="scale(0.015625)"/>
       <path id="DejaVuSans-64" d="M 2906 2969 
L 2906 4863 
L 3481 4863 
L 3481 0 
L 2906 0 
L 2906 525 
Q 2725 213 2448 61 
Q 2172 -91 1784 -91 
Q 1150 -91 751 415 
Q 353 922 353 1747 
Q 353 2572 751 3078 
Q 1150 3584 1784 3584 
Q 2172 3584 2448 3432 
Q 2725 3281 2906 2969 
z
M 947 1747 
Q 947 1113 1208 752 
Q 1469 391 1925 391 
Q 2381 391 2643 752 
Q 2906 1113 2906 1747 
Q 2906 2381 2643 2742 
Q 2381 3103 1925 3103 
Q 1469 3103 1208 2742 
Q 947 2381 947 1747 
z
" transform="scale(0.015625)"/>
      </defs>
      <use xlink:href="#DejaVuSans-44"/>
      <use xlink:href="#DejaVuSans-65" x="77.001953"/>
      <use xlink:href="#DejaVuSans-63" x="138.525391"/>
      <use xlink:href="#DejaVuSans-69" x="193.505859"/>
      <use xlink:href="#DejaVuSans-73" x="221.289062"/>
      <use xlink:href="#DejaVuSans-69" x="273.388672"/>
      <use xlink:href="#DejaVuSans-6f" x="301.171875"/>
      <use xlink:href="#DejaVuSans-6e" x="362.353516"/>
      <use xlink:href="#DejaVuSans-20" x="425.732422"/>
      <use xlink:href="#DejaVuSans-52" x="457.519531"/>
      <use xlink:href="#DejaVuSans-6f" x="522.501953"/>
      <use xlink:href="#DejaVuSans-75" x="583.683594"/>
      <use xlink:href="#DejaVuSans-6e" x="647.0625"/>
      <use xlink:href="#DejaVuSans-64" x="710.441406"/>
     </g>
    </g>
   </g>
   <g id="matplotlib.axis_2">
    <g id="ytick_1">
     <g id="line2d_19">
      <path d="M 69.019063 284.560276 
L 571.219063 284.560276 
" clip-path="url(#pbbca1d11e2)" style="fill: none; stroke-dasharray: 1.85,0.8; stroke-dashoffset: 0; stroke: #b0b0b0; stroke-width: 0.5"/>
     </g>
     <g id="line2d_20">
      <defs>
       <path id="md41e54d55d" d="M 0 0 
L -3.5 0 
" style="stroke: #000000; stroke-width: 0.8"/>
      </defs>
      <g>
       <use xlink:href="#md41e54d55d" x="69.019063" y="284.560276" style="stroke: #000000; stroke-width: 0.8"/>
      </g>
     </g>
     <g id="text_4">
      <!-- 0.55 -->
      <g transform="translate(28.620625 290.259104) scale(0.15 -0.15)">
       <defs>
        <path id="DejaVuSans-2e" d="M 684 794 
L 1344 794 
L 1344 0 
L 684 0 
L 684 794 
z
" transform="scale(0.015625)"/>
        <path id="DejaVuSans-35" d="M 691 4666 
L 3169 4666 
L 3169 4134 
L 1269 4134 
L 1269 2991 
Q 1406 3038 1543 3061 
Q 1681 3084 1819 3084 
Q 2600 3084 3056 2656 
Q 3513 2228 3513 1497 
Q 3513 744 3044 326 
Q 2575 -91 1722 -91 
Q 1428 -91 1123 -41 
Q 819 9 494 109 
L 494 744 
Q 775 591 1075 516 
Q 1375 441 1709 441 
Q 2250 441 2565 725 
Q 2881 1009 2881 1497 
Q 2881 1984 2565 2268 
Q 2250 2553 1709 2553 
Q 1456 2553 1204 2497 
Q 953 2441 691 2322 
L 691 4666 
z
" transform="scale(0.015625)"/>
       </defs>
       <use xlink:href="#DejaVuSans-30"/>
       <use xlink:href="#DejaVuSans-2e" x="63.623047"/>
       <use xlink:href="#DejaVuSans-35" x="95.410156"/>
       <use xlink:href="#DejaVuSans-35" x="159.033203"/>
      </g>
     </g>
    </g>
    <g id="ytick_2">
     <g id="line2d_21">
      <path d="M 69.019063 228.837715 
L 571.219063 228.837715 
" clip-path="url(#pbbca1d11e2)" style="fill: none; stroke-dasharray: 1.85,0.8; stroke-dashoffset: 0; stroke: #b0b0b0; stroke-width: 0.5"/>
     </g>
     <g id="line2d_22">
      <g>
       <use xlink:href="#md41e54d55d" x="69.019063" y="228.837715" style="stroke: #000000; stroke-width: 0.8"/>
      </g>
     </g>
     <g id="text_5">
      <!-- 0.60 -->
      <g transform="translate(28.620625 234.536543) scale(0.15 -0.15)">
       <defs>
        <path id="DejaVuSans-36" d="M 2113 2584 
Q 1688 2584 1439 2293 
Q 1191 2003 1191 1497 
Q 1191 994 1439 701 
Q 1688 409 2113 409 
Q 2538 409 2786 701 
Q 3034 994 3034 1497 
Q 3034 2003 2786 2293 
Q 2538 2584 2113 2584 
z
M 3366 4563 
L 3366 3988 
Q 3128 4100 2886 4159 
Q 2644 4219 2406 4219 
Q 1781 4219 1451 3797 
Q 1122 3375 1075 2522 
Q 1259 2794 1537 2939 
Q 1816 3084 2150 3084 
Q 2853 3084 3261 2657 
Q 3669 2231 3669 1497 
Q 3669 778 3244 343 
Q 2819 -91 2113 -91 
Q 1303 -91 875 529 
Q 447 1150 447 2328 
Q 447 3434 972 4092 
Q 1497 4750 2381 4750 
Q 2619 4750 2861 4703 
Q 3103 4656 3366 4563 
z
" transform="scale(0.015625)"/>
       </defs>
       <use xlink:href="#DejaVuSans-30"/>
       <use xlink:href="#DejaVuSans-2e" x="63.623047"/>
       <use xlink:href="#DejaVuSans-36" x="95.410156"/>
       <use xlink:href="#DejaVuSans-30" x="159.033203"/>
      </g>
     </g>
    </g>
    <g id="ytick_3">
     <g id="line2d_23">
      <path d="M 69.019063 173.115154 
L 571.219063 173.115154 
" clip-path="url(#pbbca1d11e2)" style="fill: none; stroke-dasharray: 1.85,0.8; stroke-dashoffset: 0; stroke: #b0b0b0; stroke-width: 0.5"/>
     </g>
     <g id="line2d_24">
      <g>
       <use xlink:href="#md41e54d55d" x="69.019063" y="173.115154" style="stroke: #000000; stroke-width: 0.8"/>
      </g>
     </g>
     <g id="text_6">
      <!-- 0.65 -->
      <g transform="translate(28.620625 178.813982) scale(0.15 -0.15)">
       <use xlink:href="#DejaVuSans-30"/>
       <use xlink:href="#DejaVuSans-2e" x="63.623047"/>
       <use xlink:href="#DejaVuSans-36" x="95.410156"/>
       <use xlink:href="#DejaVuSans-35" x="159.033203"/>
      </g>
     </g>
    </g>
    <g id="ytick_4">
     <g id="line2d_25">
      <path d="M 69.019063 117.392593 
L 571.219063 117.392593 
" clip-path="url(#pbbca1d11e2)" style="fill: none; stroke-dasharray: 1.85,0.8; stroke-dashoffset: 0; stroke: #b0b0b0; stroke-width: 0.5"/>
     </g>
     <g id="line2d_26">
      <g>
       <use xlink:href="#md41e54d55d" x="69.019063" y="117.392593" style="stroke: #000000; stroke-width: 0.8"/>
      </g>
     </g>
     <g id="text_7">
      <!-- 0.70 -->
      <g transform="translate(28.620625 123.091421) scale(0.15 -0.15)">
       <defs>
        <path id="DejaVuSans-37" d="M 525 4666 
L 3525 4666 
L 3525 4397 
L 1831 0 
L 1172 0 
L 2766 4134 
L 525 4134 
L 525 4666 
z
" transform="scale(0.015625)"/>
       </defs>
       <use xlink:href="#DejaVuSans-30"/>
       <use xlink:href="#DejaVuSans-2e" x="63.623047"/>
       <use xlink:href="#DejaVuSans-37" x="95.410156"/>
       <use xlink:href="#DejaVuSans-30" x="159.033203"/>
      </g>
     </g>
    </g>
    <g id="ytick_5">
     <g id="line2d_27">
      <path d="M 69.019063 61.670032 
L 571.219063 61.670032 
" clip-path="url(#pbbca1d11e2)" style="fill: none; stroke-dasharray: 1.85,0.8; stroke-dashoffset: 0; stroke: #b0b0b0; stroke-width: 0.5"/>
     </g>
     <g id="line2d_28">
      <g>
       <use xlink:href="#md41e54d55d" x="69.019063" y="61.670032" style="stroke: #000000; stroke-width: 0.8"/>
      </g>
     </g>
     <g id="text_8">
      <!-- 0.75 -->
      <g transform="translate(28.620625 67.36886) scale(0.15 -0.15)">
       <use xlink:href="#DejaVuSans-30"/>
       <use xlink:href="#DejaVuSans-2e" x="63.623047"/>
       <use xlink:href="#DejaVuSans-37" x="95.410156"/>
       <use xlink:href="#DejaVuSans-35" x="159.033203"/>
      </g>
     </g>
    </g>
    <g id="text_9">
     <!-- Normalized Performance -->
     <g transform="translate(20.877187 284.447813) rotate(-90) scale(0.18 -0.18)">
      <defs>
       <path id="DejaVuSans-4e" d="M 628 4666 
L 1478 4666 
L 3547 763 
L 3547 4666 
L 4159 4666 
L 4159 0 
L 3309 0 
L 1241 3903 
L 1241 0 
L 628 0 
L 628 4666 
z
" transform="scale(0.015625)"/>
       <path id="DejaVuSans-72" d="M 2631 2963 
Q 2534 3019 2420 3045 
Q 2306 3072 2169 3072 
Q 1681 3072 1420 2755 
Q 1159 2438 1159 1844 
L 1159 0 
L 581 0 
L 581 3500 
L 1159 3500 
L 1159 2956 
Q 1341 3275 1631 3429 
Q 1922 3584 2338 3584 
Q 2397 3584 2469 3576 
Q 2541 3569 2628 3553 
L 2631 2963 
z
" transform="scale(0.015625)"/>
       <path id="DejaVuSans-6d" d="M 3328 2828 
Q 3544 3216 3844 3400 
Q 4144 3584 4550 3584 
Q 5097 3584 5394 3201 
Q 5691 2819 5691 2113 
L 5691 0 
L 5113 0 
L 5113 2094 
Q 5113 2597 4934 2840 
Q 4756 3084 4391 3084 
Q 3944 3084 3684 2787 
Q 3425 2491 3425 1978 
L 3425 0 
L 2847 0 
L 2847 2094 
Q 2847 2600 2669 2842 
Q 2491 3084 2119 3084 
Q 1678 3084 1418 2786 
Q 1159 2488 1159 1978 
L 1159 0 
L 581 0 
L 581 3500 
L 1159 3500 
L 1159 2956 
Q 1356 3278 1631 3431 
Q 1906 3584 2284 3584 
Q 2666 3584 2933 3390 
Q 3200 3197 3328 2828 
z
" transform="scale(0.015625)"/>
       <path id="DejaVuSans-61" d="M 2194 1759 
Q 1497 1759 1228 1600 
Q 959 1441 959 1056 
Q 959 750 1161 570 
Q 1363 391 1709 391 
Q 2188 391 2477 730 
Q 2766 1069 2766 1631 
L 2766 1759 
L 2194 1759 
z
M 3341 1997 
L 3341 0 
L 2766 0 
L 2766 531 
Q 2569 213 2275 61 
Q 1981 -91 1556 -91 
Q 1019 -91 701 211 
Q 384 513 384 1019 
Q 384 1609 779 1909 
Q 1175 2209 1959 2209 
L 2766 2209 
L 2766 2266 
Q 2766 2663 2505 2880 
Q 2244 3097 1772 3097 
Q 1472 3097 1187 3025 
Q 903 2953 641 2809 
L 641 3341 
Q 956 3463 1253 3523 
Q 1550 3584 1831 3584 
Q 2591 3584 2966 3190 
Q 3341 2797 3341 1997 
z
" transform="scale(0.015625)"/>
       <path id="DejaVuSans-6c" d="M 603 4863 
L 1178 4863 
L 1178 0 
L 603 0 
L 603 4863 
z
" transform="scale(0.015625)"/>
       <path id="DejaVuSans-7a" d="M 353 3500 
L 3084 3500 
L 3084 2975 
L 922 459 
L 3084 459 
L 3084 0 
L 275 0 
L 275 525 
L 2438 3041 
L 353 3041 
L 353 3500 
z
" transform="scale(0.015625)"/>
       <path id="DejaVuSans-50" d="M 1259 4147 
L 1259 2394 
L 2053 2394 
Q 2494 2394 2734 2622 
Q 2975 2850 2975 3272 
Q 2975 3691 2734 3919 
Q 2494 4147 2053 4147 
L 1259 4147 
z
M 628 4666 
L 2053 4666 
Q 2838 4666 3239 4311 
Q 3641 3956 3641 3272 
Q 3641 2581 3239 2228 
Q 2838 1875 2053 1875 
L 1259 1875 
L 1259 0 
L 628 0 
L 628 4666 
z
" transform="scale(0.015625)"/>
       <path id="DejaVuSans-66" d="M 2375 4863 
L 2375 4384 
L 1825 4384 
Q 1516 4384 1395 4259 
Q 1275 4134 1275 3809 
L 1275 3500 
L 2222 3500 
L 2222 3053 
L 1275 3053 
L 1275 0 
L 697 0 
L 697 3053 
L 147 3053 
L 147 3500 
L 697 3500 
L 697 3744 
Q 697 4328 969 4595 
Q 1241 4863 1831 4863 
L 2375 4863 
z
" transform="scale(0.015625)"/>
      </defs>
      <use xlink:href="#DejaVuSans-4e"/>
      <use xlink:href="#DejaVuSans-6f" x="74.804688"/>
      <use xlink:href="#DejaVuSans-72" x="135.986328"/>
      <use xlink:href="#DejaVuSans-6d" x="175.349609"/>
      <use xlink:href="#DejaVuSans-61" x="272.761719"/>
      <use xlink:href="#DejaVuSans-6c" x="334.041016"/>
      <use xlink:href="#DejaVuSans-69" x="361.824219"/>
      <use xlink:href="#DejaVuSans-7a" x="389.607422"/>
      <use xlink:href="#DejaVuSans-65" x="442.097656"/>
      <use xlink:href="#DejaVuSans-64" x="503.621094"/>
      <use xlink:href="#DejaVuSans-20" x="567.097656"/>
      <use xlink:href="#DejaVuSans-50" x="598.884766"/>
      <use xlink:href="#DejaVuSans-65" x="655.5625"/>
      <use xlink:href="#DejaVuSans-72" x="717.085938"/>
      <use xlink:href="#DejaVuSans-66" x="758.199219"/>
      <use xlink:href="#DejaVuSans-6f" x="793.404297"/>
      <use xlink:href="#DejaVuSans-72" x="854.585938"/>
      <use xlink:href="#DejaVuSans-6d" x="893.949219"/>
      <use xlink:href="#DejaVuSans-61" x="991.361328"/>
      <use xlink:href="#DejaVuSans-6e" x="1052.640625"/>
      <use xlink:href="#DejaVuSans-63" x="1116.019531"/>
      <use xlink:href="#DejaVuSans-65" x="1171"/>
     </g>
    </g>
   </g>
   <g id="line2d_29">
    <path d="M 91.846335 25.031199 
L 172.738803 25.031199 
L 220.057863 25.031199 
L 253.631271 25.031199 
L 279.672829 25.031199 
L 300.950331 25.031199 
L 318.940203 25.031199 
L 334.523738 25.031199 
L 348.269391 25.031199 
L 360.565296 25.031199 
L 371.688296 25.031199 
L 381.842799 25.031199 
L 391.184036 25.031199 
L 399.83267 25.031199 
L 407.884357 25.031199 
L 415.416206 25.031199 
L 422.491291 25.031199 
L 429.161859 25.031199 
L 435.471674 25.031199 
L 441.457764 25.031199 
L 447.15173 25.031199 
L 452.580763 25.031199 
L 457.768425 25.031199 
L 462.735266 25.031199 
L 467.499322 25.031199 
L 472.076503 25.031199 
L 476.480919 25.031199 
L 480.725138 25.031199 
L 484.820406 25.031199 
L 488.776824 25.031199 
L 492.6035 25.031199 
L 496.308674 25.031199 
L 499.899824 25.031199 
L 503.383759 25.031199 
L 506.766696 25.031199 
L 510.054326 25.031199 
L 513.251873 25.031199 
L 516.364142 25.031199 
L 519.395564 25.031199 
L 522.350232 25.031199 
L 525.231938 25.031199 
L 528.044198 25.031199 
L 530.790282 25.031199 
L 533.473231 25.031199 
L 536.095884 25.031199 
L 538.660892 25.031199 
L 541.170735 25.031199 
L 543.627734 25.031199 
L 546.03407 25.031199 
L 548.39179 25.031199 
" clip-path="url(#pbbca1d11e2)" style="fill: none; stroke-dasharray: 11.1,4.8; stroke-dashoffset: 0; stroke: #fdc086; stroke-width: 3"/>
   </g>
   <g id="line2d_30">
    <path d="M 91.846335 287.426736 
L 172.738803 222.554919 
L 220.057863 189.249022 
L 253.631271 167.130673 
L 279.672829 152.404135 
L 300.950331 141.098487 
L 318.940203 131.601317 
L 334.523738 123.162414 
L 348.269391 116.291934 
L 360.565296 110.580179 
L 371.688296 105.38948 
L 381.842799 100.373002 
L 391.184036 96.054158 
L 399.83267 92.272211 
L 407.884357 88.555641 
L 415.416206 85.35855 
L 422.491291 82.524127 
L 429.161859 79.91096 
L 435.471674 77.461257 
L 441.457764 75.254457 
L 447.15173 72.994032 
L 452.580763 70.924065 
L 457.768425 68.997705 
L 462.735266 67.190288 
L 467.499322 65.381972 
L 472.076503 63.653346 
L 476.480919 62.001119 
L 480.725138 60.433317 
L 484.820406 58.907587 
L 488.776824 57.354441 
L 492.6035 56.011028 
L 496.308674 54.707461 
L 499.899824 53.515652 
L 503.383759 52.380223 
L 506.766696 51.091918 
L 510.054326 49.949114 
L 513.251873 48.874246 
L 516.364142 47.767167 
L 519.395564 46.707823 
L 522.350232 45.639297 
L 525.231938 44.619698 
L 528.044198 43.661608 
L 530.790282 42.664027 
L 533.473231 41.765423 
L 536.095884 40.867042 
L 538.660892 40.065291 
L 541.170735 39.289956 
L 543.627734 38.442298 
L 546.03407 37.66926 
L 548.39179 36.968899 
" clip-path="url(#pbbca1d11e2)" style="fill: none; stroke: #7fc97f; stroke-width: 3; stroke-linecap: square"/>
   </g>
   <g id="line2d_31">
    <path d="M 91.846335 225.626955 
L 172.738803 199.829271 
L 220.057863 180.298441 
L 253.631271 156.432901 
L 279.672829 142.415891 
L 300.950331 131.200707 
L 318.940203 122.315753 
L 334.523738 114.621837 
L 348.269391 108.103441 
L 360.565296 102.600032 
L 371.688296 97.742143 
L 381.842799 93.50241 
L 391.184036 89.579227 
L 399.83267 86.132134 
L 407.884357 82.96152 
L 415.416206 79.998439 
L 422.491291 77.239017 
L 429.161859 74.603216 
L 435.471674 72.226306 
L 441.457764 69.995565 
L 447.15173 67.894639 
L 452.580763 66.013006 
L 457.768425 64.105164 
L 462.735266 62.339348 
L 467.499322 60.608696 
L 472.076503 58.949578 
L 476.480919 57.486232 
L 480.725138 55.991989 
L 484.820406 54.523955 
L 488.776824 53.176106 
L 492.6035 51.899405 
L 496.308674 50.700118 
L 499.899824 49.542096 
L 503.383759 48.310591 
L 506.766696 47.166773 
L 510.054326 46.154279 
L 513.251873 45.115953 
L 516.364142 44.095019 
L 519.395564 43.17181 
L 522.350232 42.218588 
L 525.231938 41.285092 
L 528.044198 40.35401 
L 530.790282 39.465212 
L 533.473231 38.627562 
L 536.095884 37.826426 
L 538.660892 37.009646 
L 541.170735 36.264575 
L 543.627734 35.531265 
L 546.03407 34.800753 
L 548.39179 34.127864 
" clip-path="url(#pbbca1d11e2)" style="fill: none; stroke: #bf5b17; stroke-width: 3; stroke-linecap: square"/>
   </g>
   <g id="line2d_32">
    <path d="M 91.846335 225.626955 
L 172.738803 183.060935 
L 220.057863 162.862268 
L 253.631271 144.169756 
L 279.672829 130.58114 
L 300.950331 120.409056 
L 318.940203 113.353518 
L 334.523738 106.758556 
L 348.269391 101.252946 
L 360.565296 95.833089 
L 371.688296 91.138978 
L 381.842799 86.52907 
L 391.184036 82.240061 
L 399.83267 79.170362 
L 407.884357 76.389914 
L 415.416206 73.654537 
L 422.491291 71.562396 
L 429.161859 69.341025 
L 435.471674 67.19602 
L 441.457764 65.065718 
L 447.15173 63.143695 
L 452.580763 61.390627 
L 457.768425 59.7852 
L 462.735266 58.274246 
L 467.499322 56.908124 
L 472.076503 55.524512 
L 476.480919 53.991812 
L 480.725138 52.629377 
L 484.820406 51.426864 
L 488.776824 49.985315 
L 492.6035 48.760747 
L 496.308674 47.533218 
L 499.899824 46.415344 
L 503.383759 45.445307 
L 506.766696 44.575344 
L 510.054326 43.548884 
L 513.251873 42.5641 
L 516.364142 41.691556 
L 519.395564 40.666758 
L 522.350232 39.856906 
L 525.231938 38.999572 
L 528.044198 38.055215 
L 530.790282 37.310825 
L 533.473231 36.648781 
L 536.095884 35.996478 
L 538.660892 35.248083 
L 541.170735 34.526761 
L 543.627734 33.816951 
L 546.03407 33.123546 
L 548.39179 32.455613 
" clip-path="url(#pbbca1d11e2)" style="fill: none; stroke: #f0027f; stroke-width: 3; stroke-linecap: square"/>
   </g>
   <g id="line2d_33">
    <path d="M 91.846335 225.626955 
L 172.738803 183.060935 
L 220.057863 162.862268 
L 253.631271 144.169756 
L 279.672829 130.58114 
L 300.950331 120.409056 
L 318.940203 113.377215 
L 334.523738 106.790121 
L 348.269391 101.24795 
L 360.565296 95.837056 
L 371.688296 91.128699 
L 381.842799 86.532736 
L 391.184036 82.240314 
L 399.83267 79.173755 
L 407.884357 76.390049 
L 415.416206 73.648495 
L 422.491291 71.555471 
L 429.161859 69.333058 
L 435.471674 67.178292 
L 441.457764 65.051372 
L 447.15173 63.12971 
L 452.580763 61.38233 
L 457.768425 59.780016 
L 462.735266 58.269449 
L 467.499322 56.900425 
L 472.076503 55.512335 
L 476.480919 53.983617 
L 480.725138 52.62082 
L 484.820406 51.422588 
L 488.776824 49.981071 
L 492.6035 48.765323 
L 496.308674 47.537546 
L 499.899824 46.43235 
L 503.383759 45.449706 
L 506.766696 44.583712 
L 510.054326 43.55434 
L 513.251873 42.566947 
L 516.364142 41.696217 
L 519.395564 40.67867 
L 522.350232 39.869878 
L 525.231938 39.012295 
L 528.044198 38.0728 
L 530.790282 37.324774 
L 533.473231 36.661254 
L 536.095884 36.003307 
L 538.660892 35.255571 
L 541.170735 34.534403 
L 543.627734 33.825562 
L 546.03407 33.129386 
L 548.39179 32.463443 
" clip-path="url(#pbbca1d11e2)" style="fill: none; stroke: #386cb0; stroke-width: 3; stroke-linecap: square"/>
   </g>
   <g id="line2d_34">
    <path d="M 91.846335 224.857496 
L 172.738803 182.567819 
L 220.057863 161.282919 
L 253.631271 145.039804 
L 279.672829 131.454583 
L 300.950331 120.312235 
L 318.940203 109.843007 
L 334.523738 104.116333 
L 348.269391 98.928344 
L 360.565296 94.083078 
L 371.688296 89.49083 
L 381.842799 85.384813 
L 391.184036 81.992484 
L 399.83267 78.776745 
L 407.884357 75.615651 
L 415.416206 73.10289 
L 422.491291 70.777078 
L 429.161859 68.560927 
L 435.471674 66.376214 
L 441.457764 64.437324 
L 447.15173 62.547882 
L 452.580763 60.774425 
L 457.768425 59.048028 
L 462.735266 57.369574 
L 467.499322 55.805977 
L 472.076503 54.291218 
L 476.480919 52.871924 
L 480.725138 51.484258 
L 484.820406 50.192883 
L 488.776824 48.918091 
L 492.6035 47.697835 
L 496.308674 46.527184 
L 499.899824 45.393672 
L 503.383759 44.335585 
L 506.766696 43.298864 
L 510.054326 42.275376 
L 513.251873 41.2997 
L 516.364142 40.359063 
L 519.395564 39.429623 
L 522.350232 38.514107 
L 525.231938 37.627193 
L 528.044198 36.76698 
L 530.790282 35.935013 
L 533.473231 35.144387 
L 536.095884 34.369441 
L 538.660892 33.5965 
L 541.170735 32.844946 
L 543.627734 32.125174 
L 546.03407 31.413682 
L 548.39179 30.707634 
" clip-path="url(#pbbca1d11e2)" style="fill: none; stroke-dasharray: 11.1,4.8; stroke-dashoffset: 0; stroke: #666666; stroke-width: 3"/>
   </g>
   <g id="patch_3">
    <path d="M 69.019063 339.84 
L 69.019063 7.2 
" style="fill: none; stroke: #000000; stroke-width: 0.8; stroke-linejoin: miter; stroke-linecap: square"/>
   </g>
   <g id="patch_4">
    <path d="M 571.219063 339.84 
L 571.219063 7.2 
" style="fill: none; stroke: #000000; stroke-width: 0.8; stroke-linejoin: miter; stroke-linecap: square"/>
   </g>
   <g id="patch_5">
    <path d="M 69.019063 339.84 
L 571.219063 339.84 
" style="fill: none; stroke: #000000; stroke-width: 0.8; stroke-linejoin: miter; stroke-linecap: square"/>
   </g>
   <g id="patch_6">
    <path d="M 69.019063 7.2 
L 571.219063 7.2 
" style="fill: none; stroke: #000000; stroke-width: 0.8; stroke-linejoin: miter; stroke-linecap: square"/>
   </g>
  </g>
 </g>
 <defs>
  <clipPath id="pbbca1d11e2">
   <rect x="69.019063" y="7.2" width="502.2" height="332.64"/>
  </clipPath>
 </defs>
</svg>
