<?xml version="1.0" encoding="utf-8" standalone="no"?>
<!DOCTYPE svg PUBLIC "-//W3C//DTD SVG 1.1//EN"
  "http://www.w3.org/Graphics/SVG/1.1/DTD/svg11.dtd">
<svg xmlns:xlink="http://www.w3.org/1999/xlink" width="741.04625pt" height="559.20125pt" viewBox="0 0 741.04625 559.20125" xmlns="http://www.w3.org/2000/svg" version="1.1">
 <metadata>
  <rdf:RDF xmlns:dc="http://purl.org/dc/elements/1.1/" xmlns:cc="http://creativecommons.org/ns#" xmlns:rdf="http://www.w3.org/1999/02/22-rdf-syntax-ns#">
   <cc:Work>
    <dc:type rdf:resource="http://purl.org/dc/dcmitype/StillImage"/>
    <dc:date>2025-02-26T08:54:52.578315</dc:date>
    <dc:format>image/svg+xml</dc:format>
    <dc:creator>
     <cc:Agent>
      <dc:title>Matplotlib v3.9.4, https://matplotlib.org/</dc:title>
     </cc:Agent>
    </dc:creator>
   </cc:Work>
  </rdf:RDF>
 </metadata>
 <defs>
  <style type="text/css">*{stroke-linejoin: round; stroke-linecap: butt}</style>
 </defs>
 <g id="figure_1">
  <g id="patch_1">
   <path d="M 0 559.20125 
L 741.04625 559.20125 
L 741.04625 0 
L 0 0 
z
" style="fill: #ffffff"/>
  </g>
  <g id="axes_1">
   <g id="patch_2">
    <path d="M 64.24625 506.16 
L 733.84625 506.16 
L 733.84625 7.2 
L 64.24625 7.2 
z
" style="fill: #ffffff"/>
   </g>
   <g id="PolyCollection_1">
    <defs>
     <path id="m01b1b4ca4d" d="M 94.682614 -461.866077 
L 94.682614 -75.72125 
L 186.305198 -309.197487 
L 239.900974 -454.967495 
L 277.927782 -474.784614 
L 307.423666 -486.677459 
L 331.523558 -490.5678 
L 351.899726 -491.865946 
L 369.550366 -493.351487 
L 385.119334 -495.43052 
L 399.04625 -497.585324 
L 411.644678 -499.066211 
L 423.146142 -499.427307 
L 433.726463 -501.25751 
L 443.52231 -502.799046 
L 452.642026 -504.357364 
L 461.17295 -504.592199 
L 469.186522 -505.598707 
L 476.741918 -505.64876 
L 483.88871 -506.131499 
L 490.668834 -506.232219 
L 497.118086 -507.745704 
L 503.267262 -507.883731 
L 509.14305 -508.132579 
L 514.768726 -508.52896 
L 520.164718 -508.81306 
L 525.349047 -509.801794 
L 530.337694 -509.85758 
L 535.144894 -509.976842 
L 539.783386 -510.123052 
L 544.26461 -510.146884 
L 548.598882 -510.183081 
L 552.795534 -510.187766 
L 556.863038 -510.633728 
L 560.809106 -510.640906 
L 564.640778 -510.644303 
L 568.364502 -510.692739 
L 571.986193 -511.196535 
L 575.511294 -511.199032 
L 578.944823 -511.299259 
L 582.291418 -511.439775 
L 585.555373 -511.976543 
L 588.74067 -511.997667 
L 591.851013 -512.039733 
L 594.889846 -512.061412 
L 597.860386 -512.110126 
L 600.765634 -512.126485 
L 603.608398 -512.342027 
L 606.39131 -512.353208 
L 609.116839 -512.422316 
L 611.787302 -512.432154 
L 614.404882 -512.713074 
L 616.971631 -512.866462 
L 619.489487 -513.005962 
L 621.960278 -513.085555 
L 624.38573 -513.091474 
L 626.767479 -513.183758 
L 629.10707 -513.192452 
L 631.40597 -513.213722 
L 633.665571 -513.697402 
L 635.887194 -513.699301 
L 638.072094 -513.923036 
L 640.221466 -513.923978 
L 642.336446 -513.924029 
L 644.418118 -513.985406 
L 646.467515 -513.992115 
L 648.485622 -514.006638 
L 650.473381 -514.00749 
L 652.43169 -514.016414 
L 654.36141 -514.019491 
L 656.263363 -514.025187 
L 658.138337 -514.025935 
L 659.987086 -514.044653 
L 661.810335 -514.045712 
L 663.608777 -514.070762 
L 665.383078 -514.07185 
L 667.133878 -514.072276 
L 668.861791 -514.080748 
L 670.567407 -514.089407 
L 672.251296 -514.113243 
L 673.914002 -514.134036 
L 675.556054 -514.134584 
L 677.177957 -514.134823 
L 678.7802 -514.211218 
L 680.363255 -514.211782 
L 681.927574 -514.212246 
L 683.473597 -514.222686 
L 685.001746 -514.229067 
L 686.512431 -514.229151 
L 688.006045 -514.229157 
L 689.48297 -514.230242 
L 690.943576 -514.230861 
L 692.388218 -514.231163 
L 693.817242 -514.264843 
L 695.230982 -514.270915 
L 696.629762 -514.279401 
L 698.013894 -514.279877 
L 699.383683 -514.290682 
L 700.739423 -514.302807 
L 702.081398 -514.314417 
L 703.409886 -514.325522 
L 703.409886 -515.061761 
L 703.409886 -515.061761 
L 702.081398 -515.062794 
L 700.739423 -515.065077 
L 699.383683 -515.065194 
L 698.013894 -515.067206 
L 696.629762 -515.067167 
L 695.230982 -515.070046 
L 693.817242 -515.069965 
L 692.388218 -515.067976 
L 690.943576 -515.067814 
L 689.48297 -515.067531 
L 688.006045 -515.067424 
L 686.512431 -515.067353 
L 685.001746 -515.06732 
L 683.473597 -515.068176 
L 681.927574 -515.072023 
L 680.363255 -515.071974 
L 678.7802 -515.071884 
L 677.177957 -515.065026 
L 675.556054 -515.06504 
L 673.914002 -515.064917 
L 672.251296 -515.061631 
L 670.567407 -515.062911 
L 668.861791 -515.066181 
L 667.133878 -515.065442 
L 665.383078 -515.065041 
L 663.608777 -515.065291 
L 661.810335 -515.071882 
L 659.987086 -515.071942 
L 658.138337 -515.076417 
L 656.263363 -515.07675 
L 654.36141 -515.076097 
L 652.43169 -515.077209 
L 650.473381 -515.076637 
L 648.485622 -515.076937 
L 646.467515 -515.074005 
L 644.418118 -515.074069 
L 642.336446 -515.075324 
L 640.221466 -515.07526 
L 638.072094 -515.075591 
L 635.887194 -514.972656 
L 633.665571 -514.972248 
L 631.40597 -514.92295 
L 629.10707 -514.933654 
L 626.767479 -514.935969 
L 624.38573 -514.883059 
L 621.960278 -514.884864 
L 619.489487 -514.906966 
L 616.971631 -514.875417 
L 614.404882 -514.767429 
L 611.787302 -514.68938 
L 609.116839 -514.67937 
L 606.39131 -514.67556 
L 603.608398 -514.675782 
L 600.765634 -514.590058 
L 597.860386 -514.589339 
L 594.889846 -514.591651 
L 591.851013 -514.594357 
L 588.74067 -514.606394 
L 585.555373 -514.600887 
L 582.291418 -514.608669 
L 578.944823 -514.529808 
L 575.511294 -514.541159 
L 571.986193 -514.538742 
L 568.364502 -514.605017 
L 564.640778 -514.601368 
L 560.809106 -514.601661 
L 556.863038 -514.604154 
L 552.795534 -514.463649 
L 548.598882 -514.458875 
L 544.26461 -514.473168 
L 539.783386 -514.463626 
L 535.144894 -514.488674 
L 530.337694 -514.523383 
L 525.349047 -514.482899 
L 520.164718 -513.057085 
L 514.768726 -513.108811 
L 509.14305 -512.802016 
L 503.267262 -512.851719 
L 497.118086 -512.890794 
L 490.668834 -512.857451 
L 483.88871 -512.887267 
L 476.741918 -513.005757 
L 469.186522 -513.026774 
L 461.17295 -513.149086 
L 452.642026 -513.134323 
L 443.52231 -512.866994 
L 433.726463 -512.918784 
L 423.146142 -513.391206 
L 411.644678 -513.400647 
L 399.04625 -513.829949 
L 385.119334 -514.363415 
L 369.550366 -515.415266 
L 351.899726 -515.768765 
L 331.523558 -516.008038 
L 307.423666 -517.273922 
L 277.927782 -520.54075 
L 239.900974 -523.479954 
L 186.305198 -529.32125 
L 94.682614 -461.866077 
z
" style="stroke: #ff0000; stroke-opacity: 0.1"/>
    </defs>
    <g clip-path="url(#p98574bf554)">
     <use xlink:href="#m01b1b4ca4d" x="0" y="559.20125" style="fill: #ff0000; fill-opacity: 0.1; stroke: #ff0000; stroke-opacity: 0.1"/>
    </g>
   </g>
   <g id="PolyCollection_2">
    <defs>
     <path id="mf5750a6f09" d="M 94.682614 -461.866077 
L 94.682614 -75.72125 
L 186.305198 -309.197487 
L 239.900974 -454.967495 
L 277.927782 -474.784614 
L 307.423666 -486.677459 
L 331.523558 -490.5678 
L 351.899726 -491.865946 
L 369.550366 -493.351408 
L 385.119334 -495.430415 
L 399.04625 -497.585324 
L 411.644678 -499.047856 
L 423.146142 -499.395949 
L 433.726463 -501.272736 
L 443.52231 -502.91362 
L 452.642026 -504.360043 
L 461.17295 -504.530145 
L 469.186522 -505.538806 
L 476.741918 -505.585433 
L 483.88871 -506.060312 
L 490.668834 -506.157203 
L 497.118086 -507.718647 
L 503.267262 -507.8487 
L 509.14305 -508.092008 
L 514.768726 -508.55408 
L 520.164718 -508.822139 
L 525.349047 -509.848894 
L 530.337694 -509.877395 
L 535.144894 -509.998728 
L 539.783386 -510.145416 
L 544.26461 -510.145416 
L 548.598882 -510.181465 
L 552.795534 -510.181633 
L 556.863038 -510.626131 
L 560.809106 -510.631995 
L 564.640778 -510.635494 
L 568.364502 -510.681771 
L 571.986193 -511.189433 
L 575.511294 -511.189433 
L 578.944823 -511.284714 
L 582.291418 -511.424769 
L 585.555373 -511.969209 
L 588.74067 -511.983136 
L 591.851013 -512.025036 
L 594.889846 -512.047342 
L 597.860386 -512.097141 
L 600.765634 -512.110404 
L 603.608398 -512.332151 
L 606.39131 -512.34332 
L 609.116839 -512.417048 
L 611.787302 -512.419684 
L 614.404882 -512.709537 
L 616.971631 -512.870517 
L 619.489487 -513.010242 
L 621.960278 -513.091309 
L 624.38573 -513.096347 
L 626.767479 -513.196631 
L 629.10707 -513.205163 
L 631.40597 -513.226507 
L 633.665571 -513.757792 
L 635.887194 -513.759625 
L 638.072094 -513.995213 
L 640.221466 -513.995213 
L 642.336446 -513.995245 
L 644.418118 -514.061831 
L 646.467515 -514.062884 
L 648.485622 -514.078409 
L 650.473381 -514.078409 
L 652.43169 -514.08215 
L 654.36141 -514.08215 
L 656.263363 -514.088425 
L 658.138337 -514.088425 
L 659.987086 -514.093921 
L 661.810335 -514.093944 
L 663.608777 -514.102824 
L 665.383078 -514.103978 
L 667.133878 -514.103978 
L 668.861791 -514.112734 
L 670.567407 -514.113624 
L 672.251296 -514.141443 
L 673.914002 -514.165037 
L 675.556054 -514.165593 
L 677.177957 -514.165679 
L 678.7802 -514.266579 
L 680.363255 -514.267956 
L 681.927574 -514.267956 
L 683.473597 -514.268082 
L 685.001746 -514.27495 
L 686.512431 -514.275038 
L 688.006045 -514.275038 
L 689.48297 -514.276013 
L 690.943576 -514.276013 
L 692.388218 -514.276494 
L 693.817242 -514.313059 
L 695.230982 -514.319511 
L 696.629762 -514.320197 
L 698.013894 -514.320918 
L 699.383683 -514.320918 
L 700.739423 -514.336624 
L 702.081398 -514.339784 
L 703.409886 -514.343722 
L 703.409886 -515.057815 
L 703.409886 -515.057815 
L 702.081398 -515.056934 
L 700.739423 -515.055659 
L 699.383683 -515.056961 
L 698.013894 -515.056961 
L 696.629762 -515.057005 
L 695.230982 -515.057017 
L 693.817242 -515.057426 
L 692.388218 -515.057286 
L 690.943576 -515.057193 
L 689.48297 -515.057193 
L 688.006045 -515.057088 
L 686.512431 -515.057088 
L 685.001746 -515.057059 
L 683.473597 -515.058444 
L 681.927574 -515.05851 
L 680.363255 -515.05851 
L 678.7802 -515.058193 
L 677.177957 -515.057878 
L 675.556054 -515.057836 
L 673.914002 -515.057734 
L 672.251296 -515.057197 
L 670.567407 -515.059735 
L 668.861791 -515.060124 
L 667.133878 -515.059628 
L 665.383078 -515.059628 
L 663.608777 -515.059918 
L 661.810335 -515.061094 
L 659.987086 -515.061088 
L 658.138337 -515.060312 
L 656.263363 -515.060312 
L 654.36141 -515.060053 
L 652.43169 -515.060053 
L 650.473381 -515.060768 
L 648.485622 -515.060768 
L 646.467515 -515.058835 
L 644.418118 -515.058626 
L 642.336446 -515.064541 
L 640.221466 -515.064542 
L 638.072094 -515.064542 
L 635.887194 -514.976286 
L 633.665571 -514.975977 
L 631.40597 -514.944955 
L 629.10707 -514.955685 
L 626.767479 -514.958092 
L 624.38573 -514.906317 
L 621.960278 -514.908173 
L 619.489487 -514.930472 
L 616.971631 -514.89956 
L 614.404882 -514.785183 
L 611.787302 -514.701951 
L 609.116839 -514.702324 
L 606.39131 -514.697919 
L 603.608398 -514.698422 
L 600.765634 -514.603342 
L 597.860386 -514.605002 
L 594.889846 -514.606574 
L 591.851013 -514.609634 
L 588.74067 -514.621339 
L 585.555373 -514.623179 
L 582.291418 -514.625465 
L 578.944823 -514.543888 
L 575.511294 -514.558408 
L 571.986193 -514.558408 
L 568.364502 -514.617707 
L 564.640778 -514.616081 
L 560.809106 -514.616298 
L 556.863038 -514.619802 
L 552.795534 -514.48073 
L 548.598882 -514.480799 
L 544.26461 -514.495016 
L 539.783386 -514.495016 
L 535.144894 -514.520471 
L 530.337694 -514.555039 
L 525.349047 -514.565762 
L 520.164718 -513.039218 
L 514.768726 -513.095436 
L 509.14305 -512.776334 
L 503.267262 -512.828011 
L 497.118086 -512.871539 
L 490.668834 -512.782566 
L 483.88871 -512.814389 
L 476.741918 -512.93422 
L 469.186522 -512.958887 
L 461.17295 -513.064815 
L 452.642026 -513.121397 
L 443.52231 -512.844623 
L 433.726463 -512.909231 
L 423.146142 -513.35362 
L 411.644678 -513.381657 
L 399.04625 -513.829949 
L 385.119334 -514.363013 
L 369.550366 -515.414995 
L 351.899726 -515.768765 
L 331.523558 -516.008038 
L 307.423666 -517.273922 
L 277.927782 -520.54075 
L 239.900974 -523.479954 
L 186.305198 -529.32125 
L 94.682614 -461.866077 
z
" style="stroke: #ff7f50; stroke-opacity: 0.1"/>
    </defs>
    <g clip-path="url(#p98574bf554)">
     <use xlink:href="#mf5750a6f09" x="0" y="559.20125" style="fill: #ff7f50; fill-opacity: 0.1; stroke: #ff7f50; stroke-opacity: 0.1"/>
    </g>
   </g>
   <g id="PolyCollection_3">
    <defs>
     <path id="m358156cba6" d="M 94.682614 -461.866077 
L 94.682614 -75.72125 
L 186.305198 -290.50246 
L 239.900974 -385.914831 
L 277.927782 -430.527869 
L 307.423666 -460.169624 
L 331.523558 -472.605284 
L 351.899726 -485.62271 
L 369.550366 -491.655468 
L 385.119334 -495.625801 
L 399.04625 -499.190413 
L 411.644678 -501.050054 
L 423.146142 -502.513535 
L 433.726463 -503.809952 
L 443.52231 -504.887873 
L 452.642026 -505.802667 
L 461.17295 -506.461272 
L 469.186522 -507.254102 
L 476.741918 -507.92867 
L 483.88871 -508.510076 
L 490.668834 -508.777488 
L 497.118086 -509.293342 
L 503.267262 -509.608568 
L 509.14305 -509.997232 
L 514.768726 -510.205108 
L 520.164718 -510.379015 
L 525.349047 -510.75927 
L 530.337694 -510.851254 
L 535.144894 -511.004214 
L 539.783386 -511.087741 
L 544.26461 -511.414403 
L 548.598882 -511.625065 
L 552.795534 -511.750371 
L 556.863038 -511.864688 
L 560.809106 -511.957811 
L 564.640778 -512.089449 
L 568.364502 -512.184791 
L 571.986193 -512.37376 
L 575.511294 -512.539472 
L 578.944823 -512.606598 
L 582.291418 -512.652062 
L 585.555373 -512.703716 
L 588.74067 -512.77109 
L 591.851013 -512.817295 
L 594.889846 -512.864179 
L 597.860386 -512.926245 
L 600.765634 -512.965961 
L 603.608398 -513.01709 
L 606.39131 -513.08906 
L 609.116839 -513.132711 
L 611.787302 -513.207355 
L 614.404882 -513.338071 
L 616.971631 -513.391568 
L 619.489487 -513.404717 
L 621.960278 -513.494841 
L 624.38573 -513.595501 
L 626.767479 -513.641079 
L 629.10707 -513.698451 
L 631.40597 -513.721726 
L 633.665571 -513.742438 
L 635.887194 -513.766434 
L 638.072094 -513.785934 
L 640.221466 -513.802648 
L 642.336446 -513.84397 
L 644.418118 -513.888946 
L 646.467515 -513.921544 
L 648.485622 -513.938578 
L 650.473381 -513.950978 
L 652.43169 -513.961781 
L 654.36141 -513.980359 
L 656.263363 -514.013538 
L 658.138337 -514.025285 
L 659.987086 -514.029366 
L 661.810335 -514.033164 
L 663.608777 -514.053197 
L 665.383078 -514.076708 
L 667.133878 -514.106314 
L 668.861791 -514.124842 
L 670.567407 -514.143136 
L 672.251296 -514.152835 
L 673.914002 -514.157235 
L 675.556054 -514.217657 
L 677.177957 -514.228057 
L 678.7802 -514.255052 
L 680.363255 -514.262106 
L 681.927574 -514.319708 
L 683.473597 -514.348095 
L 685.001746 -514.365059 
L 686.512431 -514.388521 
L 688.006045 -514.403074 
L 689.48297 -514.424132 
L 690.943576 -514.471926 
L 692.388218 -514.496328 
L 693.817242 -514.511562 
L 695.230982 -514.514668 
L 696.629762 -514.528318 
L 698.013894 -514.544101 
L 699.383683 -514.548482 
L 700.739423 -514.553967 
L 702.081398 -514.55513 
L 703.409886 -514.568017 
L 703.409886 -515.158326 
L 703.409886 -515.158326 
L 702.081398 -515.155996 
L 700.739423 -515.154218 
L 699.383683 -515.152307 
L 698.013894 -515.151333 
L 696.629762 -515.148825 
L 695.230982 -515.151626 
L 693.817242 -515.149732 
L 692.388218 -515.147603 
L 690.943576 -515.151256 
L 689.48297 -515.16897 
L 688.006045 -515.165659 
L 686.512431 -515.172486 
L 685.001746 -515.172435 
L 683.473597 -515.173896 
L 681.927574 -515.184159 
L 680.363255 -515.179517 
L 678.7802 -515.178119 
L 677.177957 -515.170235 
L 675.556054 -515.171766 
L 673.914002 -515.156225 
L 672.251296 -515.153206 
L 670.567407 -515.148152 
L 668.861791 -515.144269 
L 667.133878 -515.147537 
L 665.383078 -515.154339 
L 663.608777 -515.151238 
L 661.810335 -515.144787 
L 659.987086 -515.143283 
L 658.138337 -515.139425 
L 656.263363 -515.130857 
L 654.36141 -515.128212 
L 652.43169 -515.123509 
L 650.473381 -515.121057 
L 648.485622 -515.120556 
L 646.467515 -515.118465 
L 644.418118 -515.116053 
L 642.336446 -515.129915 
L 640.221466 -515.135149 
L 638.072094 -515.122267 
L 635.887194 -515.125594 
L 633.665571 -515.112129 
L 631.40597 -515.110791 
L 629.10707 -515.091079 
L 626.767479 -515.096294 
L 624.38573 -515.091352 
L 621.960278 -515.090038 
L 619.489487 -515.108863 
L 616.971631 -515.091714 
L 614.404882 -515.085626 
L 611.787302 -515.082803 
L 609.116839 -515.081443 
L 606.39131 -515.071212 
L 603.608398 -515.06209 
L 600.765634 -515.062434 
L 597.860386 -515.031837 
L 594.889846 -515.021071 
L 591.851013 -515.003262 
L 588.74067 -514.992241 
L 585.555373 -514.97849 
L 582.291418 -514.952756 
L 578.944823 -514.947666 
L 575.511294 -514.906009 
L 571.986193 -514.825802 
L 568.364502 -514.800183 
L 564.640778 -514.750567 
L 560.809106 -514.69004 
L 556.863038 -514.662833 
L 552.795534 -514.642036 
L 548.598882 -514.599634 
L 544.26461 -514.5245 
L 539.783386 -514.618098 
L 535.144894 -514.539616 
L 530.337694 -514.507617 
L 525.349047 -514.432386 
L 520.164718 -514.553593 
L 514.768726 -514.488389 
L 509.14305 -514.398347 
L 503.267262 -514.395216 
L 497.118086 -514.303671 
L 490.668834 -514.420326 
L 483.88871 -514.329605 
L 476.741918 -514.129019 
L 469.186522 -514.197414 
L 461.17295 -514.045464 
L 452.642026 -513.910638 
L 443.52231 -513.894281 
L 433.726463 -514.171966 
L 423.146142 -514.174365 
L 411.644678 -513.941101 
L 399.04625 -514.218026 
L 385.119334 -514.614121 
L 369.550366 -515.297428 
L 351.899726 -515.437949 
L 331.523558 -518.292817 
L 307.423666 -518.403897 
L 277.927782 -521.491721 
L 239.900974 -523.097925 
L 186.305198 -515.839765 
L 94.682614 -461.866077 
z
" style="stroke: #8a2be2; stroke-opacity: 0.1"/>
    </defs>
    <g clip-path="url(#p98574bf554)">
     <use xlink:href="#m358156cba6" x="0" y="559.20125" style="fill: #8a2be2; fill-opacity: 0.1; stroke: #8a2be2; stroke-opacity: 0.1"/>
    </g>
   </g>
   <g id="PolyCollection_4">
    <defs>
     <path id="m54f2bd25f4" d="M 94.682614 -433.729843 
L 94.682614 -162.77406 
L 186.305198 -326.152543 
L 239.900974 -397.062743 
L 277.927782 -432.660676 
L 307.423666 -455.07623 
L 331.523558 -468.837892 
L 351.899726 -481.002001 
L 369.550366 -484.315483 
L 385.119334 -487.968922 
L 399.04625 -490.965346 
L 411.644678 -494.275331 
L 423.146142 -496.589608 
L 433.726463 -498.201617 
L 443.52231 -499.626125 
L 452.642026 -500.808395 
L 461.17295 -502.274046 
L 469.186522 -503.881653 
L 476.741918 -504.441998 
L 483.88871 -504.879111 
L 490.668834 -505.60716 
L 497.118086 -506.781821 
L 503.267262 -507.101833 
L 509.14305 -507.637639 
L 514.768726 -507.927026 
L 520.164718 -508.154317 
L 525.349047 -508.653739 
L 530.337694 -509.252088 
L 535.144894 -509.383741 
L 539.783386 -509.570614 
L 544.26461 -509.767796 
L 548.598882 -509.897622 
L 552.795534 -510.269616 
L 556.863038 -510.427238 
L 560.809106 -510.779193 
L 564.640778 -510.8711 
L 568.364502 -511.186797 
L 571.986193 -511.382507 
L 575.511294 -511.542905 
L 578.944823 -511.718649 
L 582.291418 -511.809139 
L 585.555373 -511.900402 
L 588.74067 -511.948089 
L 591.851013 -511.973365 
L 594.889846 -512.192346 
L 597.860386 -512.332167 
L 600.765634 -512.402451 
L 603.608398 -512.460212 
L 606.39131 -512.51682 
L 609.116839 -512.556905 
L 611.787302 -512.623517 
L 614.404882 -512.737898 
L 616.971631 -512.785298 
L 619.489487 -512.811607 
L 621.960278 -512.868291 
L 624.38573 -512.995956 
L 626.767479 -513.025798 
L 629.10707 -513.095784 
L 631.40597 -513.148975 
L 633.665571 -513.242604 
L 635.887194 -513.383914 
L 638.072094 -513.504925 
L 640.221466 -513.537971 
L 642.336446 -513.555895 
L 644.418118 -513.618879 
L 646.467515 -513.639326 
L 648.485622 -513.694633 
L 650.473381 -513.746303 
L 652.43169 -513.767065 
L 654.36141 -513.797062 
L 656.263363 -513.808468 
L 658.138337 -513.829531 
L 659.987086 -513.885363 
L 661.810335 -513.911329 
L 663.608777 -513.926169 
L 665.383078 -513.935803 
L 667.133878 -513.960227 
L 668.861791 -513.994925 
L 670.567407 -514.014106 
L 672.251296 -514.037984 
L 673.914002 -514.054372 
L 675.556054 -514.060283 
L 677.177957 -514.064174 
L 678.7802 -514.076944 
L 680.363255 -514.117523 
L 681.927574 -514.127663 
L 683.473597 -514.146557 
L 685.001746 -514.164038 
L 686.512431 -514.205921 
L 688.006045 -514.210429 
L 689.48297 -514.238041 
L 690.943576 -514.249957 
L 692.388218 -514.259004 
L 693.817242 -514.276882 
L 695.230982 -514.292966 
L 696.629762 -514.301894 
L 698.013894 -514.303635 
L 699.383683 -514.308931 
L 700.739423 -514.317567 
L 702.081398 -514.32684 
L 703.409886 -514.333684 
L 703.409886 -515.055511 
L 703.409886 -515.055511 
L 702.081398 -515.055277 
L 700.739423 -515.052759 
L 699.383683 -515.049671 
L 698.013894 -515.045273 
L 696.629762 -515.043275 
L 695.230982 -515.042105 
L 693.817242 -515.039161 
L 692.388218 -515.037017 
L 690.943576 -515.032412 
L 689.48297 -515.030536 
L 688.006045 -515.039061 
L 686.512431 -515.037249 
L 685.001746 -515.043405 
L 683.473597 -515.031674 
L 681.927574 -515.027893 
L 680.363255 -515.014961 
L 678.7802 -515.022972 
L 677.177957 -515.014418 
L 675.556054 -515.013215 
L 673.914002 -515.006327 
L 672.251296 -515.011702 
L 670.567407 -514.995392 
L 668.861791 -514.987904 
L 667.133878 -514.974642 
L 665.383078 -514.960674 
L 663.608777 -514.95106 
L 661.810335 -514.945844 
L 659.987086 -514.938095 
L 658.138337 -514.922873 
L 656.263363 -514.919573 
L 654.36141 -514.910999 
L 652.43169 -514.895122 
L 650.473381 -514.893912 
L 648.485622 -514.898006 
L 646.467515 -514.879009 
L 644.418118 -514.870224 
L 642.336446 -514.86176 
L 640.221466 -514.850812 
L 638.072094 -514.829317 
L 635.887194 -514.835015 
L 633.665571 -514.850453 
L 631.40597 -514.838341 
L 629.10707 -514.841206 
L 626.767479 -514.804856 
L 624.38573 -514.788727 
L 621.960278 -514.796958 
L 619.489487 -514.78008 
L 616.971631 -514.775636 
L 614.404882 -514.748531 
L 611.787302 -514.75278 
L 609.116839 -514.741506 
L 606.39131 -514.718085 
L 603.608398 -514.708314 
L 600.765634 -514.708445 
L 597.860386 -514.710631 
L 594.889846 -514.735888 
L 591.851013 -514.772099 
L 588.74067 -514.742248 
L 585.555373 -514.715302 
L 582.291418 -514.680663 
L 578.944823 -514.61784 
L 575.511294 -514.612725 
L 571.986193 -514.593887 
L 568.364502 -514.583078 
L 564.640778 -514.585426 
L 560.809106 -514.54837 
L 556.863038 -514.648836 
L 552.795534 -514.572173 
L 548.598882 -514.430676 
L 544.26461 -514.368839 
L 539.783386 -514.340553 
L 535.144894 -514.238839 
L 530.337694 -514.137339 
L 525.349047 -514.175782 
L 520.164718 -514.182238 
L 514.768726 -514.211291 
L 509.14305 -514.043178 
L 503.267262 -514.082635 
L 497.118086 -513.988993 
L 490.668834 -514.115565 
L 483.88871 -514.063548 
L 476.741918 -513.980197 
L 469.186522 -513.963815 
L 461.17295 -513.88782 
L 452.642026 -513.601426 
L 443.52231 -513.72455 
L 433.726463 -513.148069 
L 423.146142 -512.645798 
L 411.644678 -512.543115 
L 399.04625 -512.106849 
L 385.119334 -510.827555 
L 369.550366 -509.2577 
L 351.899726 -507.578286 
L 331.523558 -505.760695 
L 307.423666 -503.598642 
L 277.927782 -502.082734 
L 239.900974 -499.965892 
L 186.305198 -482.567873 
L 94.682614 -433.729843 
z
" style="stroke: #008000; stroke-opacity: 0.1"/>
    </defs>
    <g clip-path="url(#p98574bf554)">
     <use xlink:href="#m54f2bd25f4" x="0" y="559.20125" style="fill: #008000; fill-opacity: 0.1; stroke: #008000; stroke-opacity: 0.1"/>
    </g>
   </g>
   <g id="PolyCollection_5">
    <defs>
     <path id="m5e52bcf20f" d="M 94.682614 -461.233698 
L 94.682614 -458.492651 
L 186.305198 -458.492651 
L 239.900974 -458.492651 
L 277.927782 -458.492651 
L 307.423666 -458.492651 
L 331.523558 -458.492651 
L 351.899726 -458.492651 
L 369.550366 -458.492651 
L 385.119334 -458.492651 
L 399.04625 -458.492651 
L 411.644678 -458.492651 
L 423.146142 -458.492651 
L 433.726463 -458.492651 
L 443.52231 -458.492651 
L 452.642026 -458.492651 
L 461.17295 -458.492651 
L 469.186522 -458.492651 
L 476.741918 -458.492651 
L 483.88871 -458.492651 
L 490.668834 -458.492651 
L 497.118086 -458.492651 
L 503.267262 -458.492651 
L 509.14305 -458.492651 
L 514.768726 -458.492651 
L 520.164718 -458.492651 
L 525.349047 -458.492651 
L 530.337694 -458.492651 
L 535.144894 -458.492651 
L 539.783386 -458.492651 
L 544.26461 -458.492651 
L 548.598882 -458.492651 
L 552.795534 -458.492651 
L 556.863038 -458.492651 
L 560.809106 -458.492651 
L 564.640778 -458.492651 
L 568.364502 -458.492651 
L 571.986193 -458.492651 
L 575.511294 -458.492651 
L 578.944823 -458.492651 
L 582.291418 -458.492651 
L 585.555373 -458.492651 
L 588.74067 -458.492651 
L 591.851013 -458.492651 
L 594.889846 -458.492651 
L 597.860386 -458.492651 
L 600.765634 -458.492651 
L 603.608398 -458.492651 
L 606.39131 -458.492651 
L 609.116839 -458.492651 
L 611.787302 -458.492651 
L 614.404882 -458.492651 
L 616.971631 -458.492651 
L 619.489487 -458.492651 
L 621.960278 -458.492651 
L 624.38573 -458.492651 
L 626.767479 -458.492651 
L 629.10707 -458.492651 
L 631.40597 -458.492651 
L 633.665571 -458.492651 
L 635.887194 -458.492651 
L 638.072094 -458.492651 
L 640.221466 -458.492651 
L 642.336446 -458.492651 
L 644.418118 -458.492651 
L 646.467515 -458.492651 
L 648.485622 -458.492651 
L 650.473381 -458.492651 
L 652.43169 -458.492651 
L 654.36141 -458.492651 
L 656.263363 -458.492651 
L 658.138337 -458.492651 
L 659.987086 -458.492651 
L 661.810335 -458.492651 
L 663.608777 -458.492651 
L 665.383078 -458.492651 
L 667.133878 -458.492651 
L 668.861791 -458.492651 
L 670.567407 -458.492651 
L 672.251296 -458.492651 
L 673.914002 -458.492651 
L 675.556054 -458.492651 
L 677.177957 -458.492651 
L 678.7802 -458.492651 
L 680.363255 -458.492651 
L 681.927574 -458.492651 
L 683.473597 -458.492651 
L 685.001746 -458.492651 
L 686.512431 -458.492651 
L 688.006045 -458.492651 
L 689.48297 -458.492651 
L 690.943576 -458.492651 
L 692.388218 -458.492651 
L 693.817242 -458.492651 
L 695.230982 -458.492651 
L 696.629762 -458.492651 
L 698.013894 -458.492651 
L 699.383683 -458.492651 
L 700.739423 -458.492651 
L 702.081398 -458.492651 
L 703.409886 -458.492651 
L 703.409886 -461.233698 
L 703.409886 -461.233698 
L 702.081398 -461.233698 
L 700.739423 -461.233698 
L 699.383683 -461.233698 
L 698.013894 -461.233698 
L 696.629762 -461.233698 
L 695.230982 -461.233698 
L 693.817242 -461.233698 
L 692.388218 -461.233698 
L 690.943576 -461.233698 
L 689.48297 -461.233698 
L 688.006045 -461.233698 
L 686.512431 -461.233698 
L 685.001746 -461.233698 
L 683.473597 -461.233698 
L 681.927574 -461.233698 
L 680.363255 -461.233698 
L 678.7802 -461.233698 
L 677.177957 -461.233698 
L 675.556054 -461.233698 
L 673.914002 -461.233698 
L 672.251296 -461.233698 
L 670.567407 -461.233698 
L 668.861791 -461.233698 
L 667.133878 -461.233698 
L 665.383078 -461.233698 
L 663.608777 -461.233698 
L 661.810335 -461.233698 
L 659.987086 -461.233698 
L 658.138337 -461.233698 
L 656.263363 -461.233698 
L 654.36141 -461.233698 
L 652.43169 -461.233698 
L 650.473381 -461.233698 
L 648.485622 -461.233698 
L 646.467515 -461.233698 
L 644.418118 -461.233698 
L 642.336446 -461.233698 
L 640.221466 -461.233698 
L 638.072094 -461.233698 
L 635.887194 -461.233698 
L 633.665571 -461.233698 
L 631.40597 -461.233698 
L 629.10707 -461.233698 
L 626.767479 -461.233698 
L 624.38573 -461.233698 
L 621.960278 -461.233698 
L 619.489487 -461.233698 
L 616.971631 -461.233698 
L 614.404882 -461.233698 
L 611.787302 -461.233698 
L 609.116839 -461.233698 
L 606.39131 -461.233698 
L 603.608398 -461.233698 
L 600.765634 -461.233698 
L 597.860386 -461.233698 
L 594.889846 -461.233698 
L 591.851013 -461.233698 
L 588.74067 -461.233698 
L 585.555373 -461.233698 
L 582.291418 -461.233698 
L 578.944823 -461.233698 
L 575.511294 -461.233698 
L 571.986193 -461.233698 
L 568.364502 -461.233698 
L 564.640778 -461.233698 
L 560.809106 -461.233698 
L 556.863038 -461.233698 
L 552.795534 -461.233698 
L 548.598882 -461.233698 
L 544.26461 -461.233698 
L 539.783386 -461.233698 
L 535.144894 -461.233698 
L 530.337694 -461.233698 
L 525.349047 -461.233698 
L 520.164718 -461.233698 
L 514.768726 -461.233698 
L 509.14305 -461.233698 
L 503.267262 -461.233698 
L 497.118086 -461.233698 
L 490.668834 -461.233698 
L 483.88871 -461.233698 
L 476.741918 -461.233698 
L 469.186522 -461.233698 
L 461.17295 -461.233698 
L 452.642026 -461.233698 
L 443.52231 -461.233698 
L 433.726463 -461.233698 
L 423.146142 -461.233698 
L 411.644678 -461.233698 
L 399.04625 -461.233698 
L 385.119334 -461.233698 
L 369.550366 -461.233698 
L 351.899726 -461.233698 
L 331.523558 -461.233698 
L 307.423666 -461.233698 
L 277.927782 -461.233698 
L 239.900974 -461.233698 
L 186.305198 -461.233698 
L 94.682614 -461.233698 
z
" style="stroke: #0000ff; stroke-opacity: 0.1"/>
    </defs>
    <g clip-path="url(#p98574bf554)">
     <use xlink:href="#m5e52bcf20f" x="0" y="559.20125" style="fill: #0000ff; fill-opacity: 0.1; stroke: #0000ff; stroke-opacity: 0.1"/>
    </g>
   </g>
   <g id="PolyCollection_6">
    <defs>
     <path id="m53361d2897" d="M 94.682614 -340.729846 
L 94.682614 -158.831113 
L 186.305198 -226.673055 
L 239.900974 -400.13821 
L 277.927782 -475.835707 
L 307.423666 -475.835707 
L 331.523558 -475.835707 
L 351.899726 -477.18456 
L 369.550366 -513.608184 
L 385.119334 -513.608184 
L 399.04625 -513.608184 
L 411.644678 -513.608184 
L 423.146142 -513.608184 
L 433.726463 -513.608184 
L 443.52231 -513.608184 
L 452.642026 -513.608184 
L 461.17295 -513.608184 
L 469.186522 -513.608184 
L 476.741918 -513.608184 
L 483.88871 -513.608184 
L 490.668834 -513.608184 
L 497.118086 -513.608184 
L 503.267262 -513.608184 
L 509.14305 -513.608184 
L 514.768726 -513.608184 
L 520.164718 -513.608184 
L 525.349047 -513.608184 
L 530.337694 -513.608184 
L 535.144894 -513.608184 
L 539.783386 -513.608184 
L 544.26461 -513.608184 
L 548.598882 -513.608184 
L 552.795534 -513.608184 
L 556.863038 -513.608184 
L 560.809106 -513.608184 
L 564.640778 -513.608184 
L 568.364502 -513.608184 
L 571.986193 -513.608184 
L 575.511294 -513.608184 
L 578.944823 -513.608184 
L 582.291418 -513.608184 
L 585.555373 -513.608184 
L 588.74067 -513.608184 
L 591.851013 -513.608184 
L 594.889846 -513.608184 
L 597.860386 -513.608184 
L 600.765634 -513.608184 
L 603.608398 -513.608184 
L 606.39131 -513.608184 
L 609.116839 -513.608184 
L 611.787302 -513.608184 
L 614.404882 -513.608184 
L 616.971631 -513.608184 
L 619.489487 -513.608184 
L 621.960278 -513.608184 
L 624.38573 -513.608184 
L 626.767479 -513.608184 
L 629.10707 -513.608184 
L 631.40597 -513.608184 
L 633.665571 -513.608184 
L 635.887194 -513.608184 
L 638.072094 -513.608184 
L 640.221466 -513.608184 
L 642.336446 -513.608184 
L 644.418118 -513.608184 
L 646.467515 -513.608184 
L 648.485622 -513.608184 
L 650.473381 -513.608184 
L 652.43169 -513.608184 
L 654.36141 -513.608184 
L 656.263363 -513.608184 
L 658.138337 -513.608184 
L 659.987086 -513.608184 
L 661.810335 -513.608184 
L 663.608777 -513.608184 
L 665.383078 -513.608184 
L 667.133878 -513.608184 
L 668.861791 -513.608184 
L 670.567407 -513.608184 
L 672.251296 -513.608184 
L 673.914002 -513.608184 
L 675.556054 -513.608184 
L 677.177957 -513.608184 
L 678.7802 -513.608184 
L 680.363255 -513.608184 
L 681.927574 -513.608184 
L 683.473597 -513.608184 
L 685.001746 -513.608184 
L 686.512431 -513.608184 
L 688.006045 -513.608184 
L 689.48297 -513.608184 
L 690.943576 -513.608184 
L 692.388218 -513.608184 
L 693.817242 -513.608184 
L 695.230982 -513.608184 
L 696.629762 -513.608184 
L 698.013894 -513.608184 
L 699.383683 -513.608184 
L 700.739423 -513.608184 
L 702.081398 -513.608184 
L 703.409886 -513.608184 
L 703.409886 -515.429625 
L 703.409886 -515.429625 
L 702.081398 -515.429625 
L 700.739423 -515.429625 
L 699.383683 -515.429625 
L 698.013894 -515.429625 
L 696.629762 -515.429625 
L 695.230982 -515.429625 
L 693.817242 -515.429625 
L 692.388218 -515.429625 
L 690.943576 -515.429625 
L 689.48297 -515.429625 
L 688.006045 -515.429625 
L 686.512431 -515.429625 
L 685.001746 -515.429625 
L 683.473597 -515.429625 
L 681.927574 -515.429625 
L 680.363255 -515.429625 
L 678.7802 -515.429625 
L 677.177957 -515.429625 
L 675.556054 -515.429625 
L 673.914002 -515.429625 
L 672.251296 -515.429625 
L 670.567407 -515.429625 
L 668.861791 -515.429625 
L 667.133878 -515.429625 
L 665.383078 -515.429625 
L 663.608777 -515.429625 
L 661.810335 -515.429625 
L 659.987086 -515.429625 
L 658.138337 -515.429625 
L 656.263363 -515.429625 
L 654.36141 -515.429625 
L 652.43169 -515.429625 
L 650.473381 -515.429625 
L 648.485622 -515.429625 
L 646.467515 -515.429625 
L 644.418118 -515.429625 
L 642.336446 -515.429625 
L 640.221466 -515.429625 
L 638.072094 -515.429625 
L 635.887194 -515.429625 
L 633.665571 -515.429625 
L 631.40597 -515.429625 
L 629.10707 -515.429625 
L 626.767479 -515.429625 
L 624.38573 -515.429625 
L 621.960278 -515.429625 
L 619.489487 -515.429625 
L 616.971631 -515.429625 
L 614.404882 -515.429625 
L 611.787302 -515.429625 
L 609.116839 -515.429625 
L 606.39131 -515.429625 
L 603.608398 -515.429625 
L 600.765634 -515.429625 
L 597.860386 -515.429625 
L 594.889846 -515.429625 
L 591.851013 -515.429625 
L 588.74067 -515.429625 
L 585.555373 -515.429625 
L 582.291418 -515.429625 
L 578.944823 -515.429625 
L 575.511294 -515.429625 
L 571.986193 -515.429625 
L 568.364502 -515.429625 
L 564.640778 -515.429625 
L 560.809106 -515.429625 
L 556.863038 -515.429625 
L 552.795534 -515.429625 
L 548.598882 -515.429625 
L 544.26461 -515.429625 
L 539.783386 -515.429625 
L 535.144894 -515.429625 
L 530.337694 -515.429625 
L 525.349047 -515.429625 
L 520.164718 -515.429625 
L 514.768726 -515.429625 
L 509.14305 -515.429625 
L 503.267262 -515.429625 
L 497.118086 -515.429625 
L 490.668834 -515.429625 
L 483.88871 -515.429625 
L 476.741918 -515.429625 
L 469.186522 -515.429625 
L 461.17295 -515.429625 
L 452.642026 -515.429625 
L 443.52231 -515.429625 
L 433.726463 -515.429625 
L 423.146142 -515.429625 
L 411.644678 -515.429625 
L 399.04625 -515.429625 
L 385.119334 -515.429625 
L 369.550366 -515.429625 
L 351.899726 -521.678924 
L 331.523558 -516.517075 
L 307.423666 -516.517075 
L 277.927782 -516.517075 
L 239.900974 -529.279443 
L 186.305198 -524.944739 
L 94.682614 -340.729846 
z
" style="stroke: #000000; stroke-opacity: 0.1"/>
    </defs>
    <g clip-path="url(#p98574bf554)">
     <use xlink:href="#m53361d2897" x="0" y="559.20125" style="fill-opacity: 0.1; stroke: #000000; stroke-opacity: 0.1"/>
    </g>
   </g>
   <g id="PolyCollection_7">
    <defs>
     <path id="m4aec06df69" d="M 94.682614 -495.064528 
L 94.682614 -447.657691 
L 186.305198 -487.950254 
L 239.900974 -503.062618 
L 277.927782 -508.340084 
L 307.423666 -509.782889 
L 331.523558 -511.059324 
L 351.899726 -511.757696 
L 369.550366 -512.19167 
L 385.119334 -512.591736 
L 399.04625 -512.682872 
L 411.644678 -512.793541 
L 423.146142 -512.917904 
L 433.726463 -513.093806 
L 443.52231 -513.107802 
L 452.642026 -513.174845 
L 461.17295 -513.354948 
L 469.186522 -513.491863 
L 476.741918 -513.718515 
L 483.88871 -513.868969 
L 490.668834 -513.870109 
L 497.118086 -514.003297 
L 503.267262 -514.151216 
L 509.14305 -514.176023 
L 514.768726 -514.32174 
L 520.164718 -514.383137 
L 525.349047 -514.459346 
L 530.337694 -514.490306 
L 535.144894 -514.520512 
L 539.783386 -514.608791 
L 544.26461 -514.611807 
L 548.598882 -514.67019 
L 552.795534 -514.682373 
L 556.863038 -514.683918 
L 560.809106 -514.734716 
L 564.640778 -514.737033 
L 568.364502 -514.746195 
L 571.986193 -514.748503 
L 575.511294 -514.749267 
L 578.944823 -514.753598 
L 582.291418 -514.758285 
L 585.555373 -514.761225 
L 588.74067 -514.761439 
L 591.851013 -514.763686 
L 594.889846 -514.79884 
L 597.860386 -514.821634 
L 600.765634 -514.833182 
L 603.608398 -514.838915 
L 606.39131 -514.840352 
L 609.116839 -514.861215 
L 611.787302 -514.864378 
L 614.404882 -514.864911 
L 616.971631 -514.868924 
L 619.489487 -514.869405 
L 621.960278 -514.869452 
L 624.38573 -514.878725 
L 626.767479 -514.895861 
L 629.10707 -514.895861 
L 631.40597 -514.895861 
L 633.665571 -514.932012 
L 635.887194 -514.936184 
L 638.072094 -514.946506 
L 640.221466 -514.946617 
L 642.336446 -514.946647 
L 644.418118 -514.948887 
L 646.467515 -514.949147 
L 648.485622 -514.949294 
L 650.473381 -514.949294 
L 652.43169 -514.949294 
L 654.36141 -514.949321 
L 656.263363 -514.949321 
L 658.138337 -514.949321 
L 659.987086 -514.949321 
L 661.810335 -514.949321 
L 663.608777 -514.949321 
L 665.383078 -514.950446 
L 667.133878 -514.959448 
L 668.861791 -514.959454 
L 670.567407 -514.962864 
L 672.251296 -514.962864 
L 673.914002 -514.962889 
L 675.556054 -514.962889 
L 677.177957 -514.962889 
L 678.7802 -514.963467 
L 680.363255 -514.985293 
L 681.927574 -514.985293 
L 683.473597 -514.994243 
L 685.001746 -514.994243 
L 686.512431 -514.994348 
L 688.006045 -514.994374 
L 689.48297 -514.994374 
L 690.943576 -514.994374 
L 692.388218 -514.994381 
L 693.817242 -514.994381 
L 695.230982 -514.994381 
L 696.629762 -514.994381 
L 698.013894 -514.994705 
L 699.383683 -514.994705 
L 700.739423 -514.995408 
L 702.081398 -514.995501 
L 703.409886 -514.995504 
L 703.409886 -515.174585 
L 703.409886 -515.174585 
L 702.081398 -515.174586 
L 700.739423 -515.174617 
L 699.383683 -515.174909 
L 698.013894 -515.174909 
L 696.629762 -515.174929 
L 695.230982 -515.174929 
L 693.817242 -515.174929 
L 692.388218 -515.174929 
L 690.943576 -515.174931 
L 689.48297 -515.174931 
L 688.006045 -515.174931 
L 686.512431 -515.174915 
L 685.001746 -515.174904 
L 683.473597 -515.174904 
L 681.927574 -515.173652 
L 680.363255 -515.173652 
L 678.7802 -515.180893 
L 677.177957 -515.180535 
L 675.556054 -515.180535 
L 673.914002 -515.180535 
L 672.251296 -515.18054 
L 670.567407 -515.18054 
L 668.861791 -515.179939 
L 667.133878 -515.179912 
L 665.383078 -515.176039 
L 663.608777 -515.17645 
L 661.810335 -515.17645 
L 659.987086 -515.17645 
L 658.138337 -515.17645 
L 656.263363 -515.17645 
L 654.36141 -515.17645 
L 652.43169 -515.176431 
L 650.473381 -515.176431 
L 648.485622 -515.176431 
L 646.467515 -515.176405 
L 644.418118 -515.176498 
L 642.336446 -515.1762 
L 640.221466 -515.176186 
L 638.072094 -515.176063 
L 635.887194 -515.176837 
L 633.665571 -515.177016 
L 631.40597 -515.119579 
L 629.10707 -515.119579 
L 626.767479 -515.119579 
L 624.38573 -515.111844 
L 621.960278 -515.111915 
L 619.489487 -515.11192 
L 616.971631 -515.112007 
L 614.404882 -515.110677 
L 611.787302 -515.110499 
L 609.116839 -515.111267 
L 606.39131 -515.111642 
L 603.608398 -515.110741 
L 600.765634 -515.113735 
L 597.860386 -515.109771 
L 594.889846 -515.09436 
L 591.851013 -515.072293 
L 588.74067 -515.070549 
L 585.555373 -515.070586 
L 582.291418 -515.070216 
L 578.944823 -515.069584 
L 575.511294 -515.070655 
L 571.986193 -515.070978 
L 568.364502 -515.072091 
L 564.640778 -515.073032 
L 560.809106 -515.073786 
L 556.863038 -515.058344 
L 552.795534 -515.058274 
L 548.598882 -515.057259 
L 544.26461 -515.050026 
L 539.783386 -515.049708 
L 535.144894 -514.96429 
L 530.337694 -514.964105 
L 525.349047 -514.963313 
L 520.164718 -514.858518 
L 514.768726 -514.828214 
L 509.14305 -514.752003 
L 503.267262 -514.747801 
L 497.118086 -514.680744 
L 490.668834 -514.663262 
L 483.88871 -514.662791 
L 476.741918 -514.606415 
L 469.186522 -514.535949 
L 461.17295 -514.4474 
L 452.642026 -514.298061 
L 443.52231 -514.272641 
L 433.726463 -514.274583 
L 423.146142 -514.085019 
L 411.644678 -514.052285 
L 399.04625 -514.021492 
L 385.119334 -514.014444 
L 369.550366 -513.970757 
L 351.899726 -513.967062 
L 331.523558 -513.654017 
L 307.423666 -513.229943 
L 277.927782 -512.280164 
L 239.900974 -511.135871 
L 186.305198 -506.308691 
L 94.682614 -495.064528 
z
" style="stroke: #ff0000; stroke-opacity: 0.1"/>
    </defs>
    <g clip-path="url(#p98574bf554)">
     <use xlink:href="#m4aec06df69" x="0" y="559.20125" style="fill: #ff0000; fill-opacity: 0.1; stroke: #ff0000; stroke-opacity: 0.1"/>
    </g>
   </g>
   <g id="matplotlib.axis_1">
    <g id="xtick_1">
     <g id="line2d_1">
      <path d="M 94.682614 506.16 
L 94.682614 7.2 
" clip-path="url(#p98574bf554)" style="fill: none; stroke-dasharray: 1.85,0.8; stroke-dashoffset: 0; stroke: #b0b0b0; stroke-width: 0.5"/>
     </g>
     <g id="line2d_2">
      <defs>
       <path id="mceaf8dc1ee" d="M 0 0 
L 0 3.5 
" style="stroke: #000000; stroke-width: 0.8"/>
      </defs>
      <g>
       <use xlink:href="#mceaf8dc1ee" x="94.682614" y="506.16" style="stroke: #000000; stroke-width: 0.8"/>
      </g>
     </g>
     <g id="text_1">
      <!-- $\mathdefault{10^{0}}$ -->
      <g transform="translate(78.842614 526.837188) scale(0.18 -0.18)">
       <defs>
        <path id="DejaVuSans-31" d="M 794 531 
L 1825 531 
L 1825 4091 
L 703 3866 
L 703 4441 
L 1819 4666 
L 2450 4666 
L 2450 531 
L 3481 531 
L 3481 0 
L 794 0 
L 794 531 
z
" transform="scale(0.015625)"/>
        <path id="DejaVuSans-30" d="M 2034 4250 
Q 1547 4250 1301 3770 
Q 1056 3291 1056 2328 
Q 1056 1369 1301 889 
Q 1547 409 2034 409 
Q 2525 409 2770 889 
Q 3016 1369 3016 2328 
Q 3016 3291 2770 3770 
Q 2525 4250 2034 4250 
z
M 2034 4750 
Q 2819 4750 3233 4129 
Q 3647 3509 3647 2328 
Q 3647 1150 3233 529 
Q 2819 -91 2034 -91 
Q 1250 -91 836 529 
Q 422 1150 422 2328 
Q 422 3509 836 4129 
Q 1250 4750 2034 4750 
z
" transform="scale(0.015625)"/>
       </defs>
       <use xlink:href="#DejaVuSans-31" transform="translate(0 0.765625)"/>
       <use xlink:href="#DejaVuSans-30" transform="translate(63.623047 0.765625)"/>
       <use xlink:href="#DejaVuSans-30" transform="translate(128.203125 39.046875) scale(0.7)"/>
      </g>
     </g>
    </g>
    <g id="xtick_2">
     <g id="line2d_3">
      <path d="M 399.04625 506.16 
L 399.04625 7.2 
" clip-path="url(#p98574bf554)" style="fill: none; stroke-dasharray: 1.85,0.8; stroke-dashoffset: 0; stroke: #b0b0b0; stroke-width: 0.5"/>
     </g>
     <g id="line2d_4">
      <g>
       <use xlink:href="#mceaf8dc1ee" x="399.04625" y="506.16" style="stroke: #000000; stroke-width: 0.8"/>
      </g>
     </g>
     <g id="text_2">
      <!-- $\mathdefault{10^{1}}$ -->
      <g transform="translate(383.20625 526.837188) scale(0.18 -0.18)">
       <use xlink:href="#DejaVuSans-31" transform="translate(0 0.684375)"/>
       <use xlink:href="#DejaVuSans-30" transform="translate(63.623047 0.684375)"/>
       <use xlink:href="#DejaVuSans-31" transform="translate(128.203125 38.965625) scale(0.7)"/>
      </g>
     </g>
    </g>
    <g id="xtick_3">
     <g id="line2d_5">
      <path d="M 703.409886 506.16 
L 703.409886 7.2 
" clip-path="url(#p98574bf554)" style="fill: none; stroke-dasharray: 1.85,0.8; stroke-dashoffset: 0; stroke: #b0b0b0; stroke-width: 0.5"/>
     </g>
     <g id="line2d_6">
      <g>
       <use xlink:href="#mceaf8dc1ee" x="703.409886" y="506.16" style="stroke: #000000; stroke-width: 0.8"/>
      </g>
     </g>
     <g id="text_3">
      <!-- $\mathdefault{10^{2}}$ -->
      <g transform="translate(687.569886 526.837188) scale(0.18 -0.18)">
       <defs>
        <path id="DejaVuSans-32" d="M 1228 531 
L 3431 531 
L 3431 0 
L 469 0 
L 469 531 
Q 828 903 1448 1529 
Q 2069 2156 2228 2338 
Q 2531 2678 2651 2914 
Q 2772 3150 2772 3378 
Q 2772 3750 2511 3984 
Q 2250 4219 1831 4219 
Q 1534 4219 1204 4116 
Q 875 4013 500 3803 
L 500 4441 
Q 881 4594 1212 4672 
Q 1544 4750 1819 4750 
Q 2544 4750 2975 4387 
Q 3406 4025 3406 3419 
Q 3406 3131 3298 2873 
Q 3191 2616 2906 2266 
Q 2828 2175 2409 1742 
Q 1991 1309 1228 531 
z
" transform="scale(0.015625)"/>
       </defs>
       <use xlink:href="#DejaVuSans-31" transform="translate(0 0.765625)"/>
       <use xlink:href="#DejaVuSans-30" transform="translate(63.623047 0.765625)"/>
       <use xlink:href="#DejaVuSans-32" transform="translate(128.203125 39.046875) scale(0.7)"/>
      </g>
     </g>
    </g>
    <g id="xtick_4">
     <g id="line2d_7">
      <defs>
       <path id="mdf407ec56a" d="M 0 0 
L 0 2 
" style="stroke: #000000; stroke-width: 0.6"/>
      </defs>
      <g>
       <use xlink:href="#mdf407ec56a" x="65.18673" y="506.16" style="stroke: #000000; stroke-width: 0.6"/>
      </g>
     </g>
    </g>
    <g id="xtick_5">
     <g id="line2d_8">
      <g>
       <use xlink:href="#mdf407ec56a" x="80.755697" y="506.16" style="stroke: #000000; stroke-width: 0.6"/>
      </g>
     </g>
    </g>
    <g id="xtick_6">
     <g id="line2d_9">
      <g>
       <use xlink:href="#mdf407ec56a" x="186.305198" y="506.16" style="stroke: #000000; stroke-width: 0.6"/>
      </g>
     </g>
    </g>
    <g id="xtick_7">
     <g id="line2d_10">
      <g>
       <use xlink:href="#mdf407ec56a" x="239.900974" y="506.16" style="stroke: #000000; stroke-width: 0.6"/>
      </g>
     </g>
    </g>
    <g id="xtick_8">
     <g id="line2d_11">
      <g>
       <use xlink:href="#mdf407ec56a" x="277.927782" y="506.16" style="stroke: #000000; stroke-width: 0.6"/>
      </g>
     </g>
    </g>
    <g id="xtick_9">
     <g id="line2d_12">
      <g>
       <use xlink:href="#mdf407ec56a" x="307.423666" y="506.16" style="stroke: #000000; stroke-width: 0.6"/>
      </g>
     </g>
    </g>
    <g id="xtick_10">
     <g id="line2d_13">
      <g>
       <use xlink:href="#mdf407ec56a" x="331.523558" y="506.16" style="stroke: #000000; stroke-width: 0.6"/>
      </g>
     </g>
    </g>
    <g id="xtick_11">
     <g id="line2d_14">
      <g>
       <use xlink:href="#mdf407ec56a" x="351.899726" y="506.16" style="stroke: #000000; stroke-width: 0.6"/>
      </g>
     </g>
    </g>
    <g id="xtick_12">
     <g id="line2d_15">
      <g>
       <use xlink:href="#mdf407ec56a" x="369.550366" y="506.16" style="stroke: #000000; stroke-width: 0.6"/>
      </g>
     </g>
    </g>
    <g id="xtick_13">
     <g id="line2d_16">
      <g>
       <use xlink:href="#mdf407ec56a" x="385.119334" y="506.16" style="stroke: #000000; stroke-width: 0.6"/>
      </g>
     </g>
    </g>
    <g id="xtick_14">
     <g id="line2d_17">
      <g>
       <use xlink:href="#mdf407ec56a" x="490.668834" y="506.16" style="stroke: #000000; stroke-width: 0.6"/>
      </g>
     </g>
    </g>
    <g id="xtick_15">
     <g id="line2d_18">
      <g>
       <use xlink:href="#mdf407ec56a" x="544.26461" y="506.16" style="stroke: #000000; stroke-width: 0.6"/>
      </g>
     </g>
    </g>
    <g id="xtick_16">
     <g id="line2d_19">
      <g>
       <use xlink:href="#mdf407ec56a" x="582.291418" y="506.16" style="stroke: #000000; stroke-width: 0.6"/>
      </g>
     </g>
    </g>
    <g id="xtick_17">
     <g id="line2d_20">
      <g>
       <use xlink:href="#mdf407ec56a" x="611.787302" y="506.16" style="stroke: #000000; stroke-width: 0.6"/>
      </g>
     </g>
    </g>
    <g id="xtick_18">
     <g id="line2d_21">
      <g>
       <use xlink:href="#mdf407ec56a" x="635.887194" y="506.16" style="stroke: #000000; stroke-width: 0.6"/>
      </g>
     </g>
    </g>
    <g id="xtick_19">
     <g id="line2d_22">
      <g>
       <use xlink:href="#mdf407ec56a" x="656.263363" y="506.16" style="stroke: #000000; stroke-width: 0.6"/>
      </g>
     </g>
    </g>
    <g id="xtick_20">
     <g id="line2d_23">
      <g>
       <use xlink:href="#mdf407ec56a" x="673.914002" y="506.16" style="stroke: #000000; stroke-width: 0.6"/>
      </g>
     </g>
    </g>
    <g id="xtick_21">
     <g id="line2d_24">
      <g>
       <use xlink:href="#mdf407ec56a" x="689.48297" y="506.16" style="stroke: #000000; stroke-width: 0.6"/>
      </g>
     </g>
    </g>
    <g id="text_4">
     <!-- Decision Round -->
     <g transform="translate(329.393281 548.257813) scale(0.18 -0.18)">
      <defs>
       <path id="DejaVuSans-44" d="M 1259 4147 
L 1259 519 
L 2022 519 
Q 2988 519 3436 956 
Q 3884 1394 3884 2338 
Q 3884 3275 3436 3711 
Q 2988 4147 2022 4147 
L 1259 4147 
z
M 628 4666 
L 1925 4666 
Q 3281 4666 3915 4102 
Q 4550 3538 4550 2338 
Q 4550 1131 3912 565 
Q 3275 0 1925 0 
L 628 0 
L 628 4666 
z
" transform="scale(0.015625)"/>
       <path id="DejaVuSans-65" d="M 3597 1894 
L 3597 1613 
L 953 1613 
Q 991 1019 1311 708 
Q 1631 397 2203 397 
Q 2534 397 2845 478 
Q 3156 559 3463 722 
L 3463 178 
Q 3153 47 2828 -22 
Q 2503 -91 2169 -91 
Q 1331 -91 842 396 
Q 353 884 353 1716 
Q 353 2575 817 3079 
Q 1281 3584 2069 3584 
Q 2775 3584 3186 3129 
Q 3597 2675 3597 1894 
z
M 3022 2063 
Q 3016 2534 2758 2815 
Q 2500 3097 2075 3097 
Q 1594 3097 1305 2825 
Q 1016 2553 972 2059 
L 3022 2063 
z
" transform="scale(0.015625)"/>
       <path id="DejaVuSans-63" d="M 3122 3366 
L 3122 2828 
Q 2878 2963 2633 3030 
Q 2388 3097 2138 3097 
Q 1578 3097 1268 2742 
Q 959 2388 959 1747 
Q 959 1106 1268 751 
Q 1578 397 2138 397 
Q 2388 397 2633 464 
Q 2878 531 3122 666 
L 3122 134 
Q 2881 22 2623 -34 
Q 2366 -91 2075 -91 
Q 1284 -91 818 406 
Q 353 903 353 1747 
Q 353 2603 823 3093 
Q 1294 3584 2113 3584 
Q 2378 3584 2631 3529 
Q 2884 3475 3122 3366 
z
" transform="scale(0.015625)"/>
       <path id="DejaVuSans-69" d="M 603 3500 
L 1178 3500 
L 1178 0 
L 603 0 
L 603 3500 
z
M 603 4863 
L 1178 4863 
L 1178 4134 
L 603 4134 
L 603 4863 
z
" transform="scale(0.015625)"/>
       <path id="DejaVuSans-73" d="M 2834 3397 
L 2834 2853 
Q 2591 2978 2328 3040 
Q 2066 3103 1784 3103 
Q 1356 3103 1142 2972 
Q 928 2841 928 2578 
Q 928 2378 1081 2264 
Q 1234 2150 1697 2047 
L 1894 2003 
Q 2506 1872 2764 1633 
Q 3022 1394 3022 966 
Q 3022 478 2636 193 
Q 2250 -91 1575 -91 
Q 1294 -91 989 -36 
Q 684 19 347 128 
L 347 722 
Q 666 556 975 473 
Q 1284 391 1588 391 
Q 1994 391 2212 530 
Q 2431 669 2431 922 
Q 2431 1156 2273 1281 
Q 2116 1406 1581 1522 
L 1381 1569 
Q 847 1681 609 1914 
Q 372 2147 372 2553 
Q 372 3047 722 3315 
Q 1072 3584 1716 3584 
Q 2034 3584 2315 3537 
Q 2597 3491 2834 3397 
z
" transform="scale(0.015625)"/>
       <path id="DejaVuSans-6f" d="M 1959 3097 
Q 1497 3097 1228 2736 
Q 959 2375 959 1747 
Q 959 1119 1226 758 
Q 1494 397 1959 397 
Q 2419 397 2687 759 
Q 2956 1122 2956 1747 
Q 2956 2369 2687 2733 
Q 2419 3097 1959 3097 
z
M 1959 3584 
Q 2709 3584 3137 3096 
Q 3566 2609 3566 1747 
Q 3566 888 3137 398 
Q 2709 -91 1959 -91 
Q 1206 -91 779 398 
Q 353 888 353 1747 
Q 353 2609 779 3096 
Q 1206 3584 1959 3584 
z
" transform="scale(0.015625)"/>
       <path id="DejaVuSans-6e" d="M 3513 2113 
L 3513 0 
L 2938 0 
L 2938 2094 
Q 2938 2591 2744 2837 
Q 2550 3084 2163 3084 
Q 1697 3084 1428 2787 
Q 1159 2491 1159 1978 
L 1159 0 
L 581 0 
L 581 3500 
L 1159 3500 
L 1159 2956 
Q 1366 3272 1645 3428 
Q 1925 3584 2291 3584 
Q 2894 3584 3203 3211 
Q 3513 2838 3513 2113 
z
" transform="scale(0.015625)"/>
       <path id="DejaVuSans-20" transform="scale(0.015625)"/>
       <path id="DejaVuSans-52" d="M 2841 2188 
Q 3044 2119 3236 1894 
Q 3428 1669 3622 1275 
L 4263 0 
L 3584 0 
L 2988 1197 
Q 2756 1666 2539 1819 
Q 2322 1972 1947 1972 
L 1259 1972 
L 1259 0 
L 628 0 
L 628 4666 
L 2053 4666 
Q 2853 4666 3247 4331 
Q 3641 3997 3641 3322 
Q 3641 2881 3436 2590 
Q 3231 2300 2841 2188 
z
M 1259 4147 
L 1259 2491 
L 2053 2491 
Q 2509 2491 2742 2702 
Q 2975 2913 2975 3322 
Q 2975 3731 2742 3939 
Q 2509 4147 2053 4147 
L 1259 4147 
z
" transform="scale(0.015625)"/>
       <path id="DejaVuSans-75" d="M 544 1381 
L 544 3500 
L 1119 3500 
L 1119 1403 
Q 1119 906 1312 657 
Q 1506 409 1894 409 
Q 2359 409 2629 706 
Q 2900 1003 2900 1516 
L 2900 3500 
L 3475 3500 
L 3475 0 
L 2900 0 
L 2900 538 
Q 2691 219 2414 64 
Q 2138 -91 1772 -91 
Q 1169 -91 856 284 
Q 544 659 544 1381 
z
M 1991 3584 
L 1991 3584 
z
" transform="scale(0.015625)"/>
       <path id="DejaVuSans-64" d="M 2906 2969 
L 2906 4863 
L 3481 4863 
L 3481 0 
L 2906 0 
L 2906 525 
Q 2725 213 2448 61 
Q 2172 -91 1784 -91 
Q 1150 -91 751 415 
Q 353 922 353 1747 
Q 353 2572 751 3078 
Q 1150 3584 1784 3584 
Q 2172 3584 2448 3432 
Q 2725 3281 2906 2969 
z
M 947 1747 
Q 947 1113 1208 752 
Q 1469 391 1925 391 
Q 2381 391 2643 752 
Q 2906 1113 2906 1747 
Q 2906 2381 2643 2742 
Q 2381 3103 1925 3103 
Q 1469 3103 1208 2742 
Q 947 2381 947 1747 
z
" transform="scale(0.015625)"/>
      </defs>
      <use xlink:href="#DejaVuSans-44"/>
      <use xlink:href="#DejaVuSans-65" x="77.001953"/>
      <use xlink:href="#DejaVuSans-63" x="138.525391"/>
      <use xlink:href="#DejaVuSans-69" x="193.505859"/>
      <use xlink:href="#DejaVuSans-73" x="221.289062"/>
      <use xlink:href="#DejaVuSans-69" x="273.388672"/>
      <use xlink:href="#DejaVuSans-6f" x="301.171875"/>
      <use xlink:href="#DejaVuSans-6e" x="362.353516"/>
      <use xlink:href="#DejaVuSans-20" x="425.732422"/>
      <use xlink:href="#DejaVuSans-52" x="457.519531"/>
      <use xlink:href="#DejaVuSans-6f" x="522.501953"/>
      <use xlink:href="#DejaVuSans-75" x="583.683594"/>
      <use xlink:href="#DejaVuSans-6e" x="647.0625"/>
      <use xlink:href="#DejaVuSans-64" x="710.441406"/>
     </g>
    </g>
   </g>
   <g id="matplotlib.axis_2">
    <g id="ytick_1">
     <g id="line2d_25">
      <path d="M 64.24625 466.667248 
L 733.84625 466.667248 
" clip-path="url(#p98574bf554)" style="fill: none; stroke-dasharray: 1.85,0.8; stroke-dashoffset: 0; stroke: #b0b0b0; stroke-width: 0.5"/>
     </g>
     <g id="line2d_26">
      <defs>
       <path id="m34e24470cf" d="M 0 0 
L -3.5 0 
" style="stroke: #000000; stroke-width: 0.8"/>
      </defs>
      <g>
       <use xlink:href="#m34e24470cf" x="64.24625" y="466.667248" style="stroke: #000000; stroke-width: 0.8"/>
      </g>
     </g>
     <g id="text_5">
      <!-- 0.5 -->
      <g transform="translate(28.620625 473.505842) scale(0.18 -0.18)">
       <defs>
        <path id="DejaVuSans-2e" d="M 684 794 
L 1344 794 
L 1344 0 
L 684 0 
L 684 794 
z
" transform="scale(0.015625)"/>
        <path id="DejaVuSans-35" d="M 691 4666 
L 3169 4666 
L 3169 4134 
L 1269 4134 
L 1269 2991 
Q 1406 3038 1543 3061 
Q 1681 3084 1819 3084 
Q 2600 3084 3056 2656 
Q 3513 2228 3513 1497 
Q 3513 744 3044 326 
Q 2575 -91 1722 -91 
Q 1428 -91 1123 -41 
Q 819 9 494 109 
L 494 744 
Q 775 591 1075 516 
Q 1375 441 1709 441 
Q 2250 441 2565 725 
Q 2881 1009 2881 1497 
Q 2881 1984 2565 2268 
Q 2250 2553 1709 2553 
Q 1456 2553 1204 2497 
Q 953 2441 691 2322 
L 691 4666 
z
" transform="scale(0.015625)"/>
       </defs>
       <use xlink:href="#DejaVuSans-30"/>
       <use xlink:href="#DejaVuSans-2e" x="63.623047"/>
       <use xlink:href="#DejaVuSans-35" x="95.410156"/>
      </g>
     </g>
    </g>
    <g id="ytick_2">
     <g id="line2d_27">
      <path d="M 64.24625 382.140479 
L 733.84625 382.140479 
" clip-path="url(#p98574bf554)" style="fill: none; stroke-dasharray: 1.85,0.8; stroke-dashoffset: 0; stroke: #b0b0b0; stroke-width: 0.5"/>
     </g>
     <g id="line2d_28">
      <g>
       <use xlink:href="#m34e24470cf" x="64.24625" y="382.140479" style="stroke: #000000; stroke-width: 0.8"/>
      </g>
     </g>
     <g id="text_6">
      <!-- 0.6 -->
      <g transform="translate(28.620625 388.979072) scale(0.18 -0.18)">
       <defs>
        <path id="DejaVuSans-36" d="M 2113 2584 
Q 1688 2584 1439 2293 
Q 1191 2003 1191 1497 
Q 1191 994 1439 701 
Q 1688 409 2113 409 
Q 2538 409 2786 701 
Q 3034 994 3034 1497 
Q 3034 2003 2786 2293 
Q 2538 2584 2113 2584 
z
M 3366 4563 
L 3366 3988 
Q 3128 4100 2886 4159 
Q 2644 4219 2406 4219 
Q 1781 4219 1451 3797 
Q 1122 3375 1075 2522 
Q 1259 2794 1537 2939 
Q 1816 3084 2150 3084 
Q 2853 3084 3261 2657 
Q 3669 2231 3669 1497 
Q 3669 778 3244 343 
Q 2819 -91 2113 -91 
Q 1303 -91 875 529 
Q 447 1150 447 2328 
Q 447 3434 972 4092 
Q 1497 4750 2381 4750 
Q 2619 4750 2861 4703 
Q 3103 4656 3366 4563 
z
" transform="scale(0.015625)"/>
       </defs>
       <use xlink:href="#DejaVuSans-30"/>
       <use xlink:href="#DejaVuSans-2e" x="63.623047"/>
       <use xlink:href="#DejaVuSans-36" x="95.410156"/>
      </g>
     </g>
    </g>
    <g id="ytick_3">
     <g id="line2d_29">
      <path d="M 64.24625 297.613709 
L 733.84625 297.613709 
" clip-path="url(#p98574bf554)" style="fill: none; stroke-dasharray: 1.85,0.8; stroke-dashoffset: 0; stroke: #b0b0b0; stroke-width: 0.5"/>
     </g>
     <g id="line2d_30">
      <g>
       <use xlink:href="#m34e24470cf" x="64.24625" y="297.613709" style="stroke: #000000; stroke-width: 0.8"/>
      </g>
     </g>
     <g id="text_7">
      <!-- 0.7 -->
      <g transform="translate(28.620625 304.452303) scale(0.18 -0.18)">
       <defs>
        <path id="DejaVuSans-37" d="M 525 4666 
L 3525 4666 
L 3525 4397 
L 1831 0 
L 1172 0 
L 2766 4134 
L 525 4134 
L 525 4666 
z
" transform="scale(0.015625)"/>
       </defs>
       <use xlink:href="#DejaVuSans-30"/>
       <use xlink:href="#DejaVuSans-2e" x="63.623047"/>
       <use xlink:href="#DejaVuSans-37" x="95.410156"/>
      </g>
     </g>
    </g>
    <g id="ytick_4">
     <g id="line2d_31">
      <path d="M 64.24625 213.086939 
L 733.84625 213.086939 
" clip-path="url(#p98574bf554)" style="fill: none; stroke-dasharray: 1.85,0.8; stroke-dashoffset: 0; stroke: #b0b0b0; stroke-width: 0.5"/>
     </g>
     <g id="line2d_32">
      <g>
       <use xlink:href="#m34e24470cf" x="64.24625" y="213.086939" style="stroke: #000000; stroke-width: 0.8"/>
      </g>
     </g>
     <g id="text_8">
      <!-- 0.8 -->
      <g transform="translate(28.620625 219.925533) scale(0.18 -0.18)">
       <defs>
        <path id="DejaVuSans-38" d="M 2034 2216 
Q 1584 2216 1326 1975 
Q 1069 1734 1069 1313 
Q 1069 891 1326 650 
Q 1584 409 2034 409 
Q 2484 409 2743 651 
Q 3003 894 3003 1313 
Q 3003 1734 2745 1975 
Q 2488 2216 2034 2216 
z
M 1403 2484 
Q 997 2584 770 2862 
Q 544 3141 544 3541 
Q 544 4100 942 4425 
Q 1341 4750 2034 4750 
Q 2731 4750 3128 4425 
Q 3525 4100 3525 3541 
Q 3525 3141 3298 2862 
Q 3072 2584 2669 2484 
Q 3125 2378 3379 2068 
Q 3634 1759 3634 1313 
Q 3634 634 3220 271 
Q 2806 -91 2034 -91 
Q 1263 -91 848 271 
Q 434 634 434 1313 
Q 434 1759 690 2068 
Q 947 2378 1403 2484 
z
M 1172 3481 
Q 1172 3119 1398 2916 
Q 1625 2713 2034 2713 
Q 2441 2713 2670 2916 
Q 2900 3119 2900 3481 
Q 2900 3844 2670 4047 
Q 2441 4250 2034 4250 
Q 1625 4250 1398 4047 
Q 1172 3844 1172 3481 
z
" transform="scale(0.015625)"/>
       </defs>
       <use xlink:href="#DejaVuSans-30"/>
       <use xlink:href="#DejaVuSans-2e" x="63.623047"/>
       <use xlink:href="#DejaVuSans-38" x="95.410156"/>
      </g>
     </g>
    </g>
    <g id="ytick_5">
     <g id="line2d_33">
      <path d="M 64.24625 128.560169 
L 733.84625 128.560169 
" clip-path="url(#p98574bf554)" style="fill: none; stroke-dasharray: 1.85,0.8; stroke-dashoffset: 0; stroke: #b0b0b0; stroke-width: 0.5"/>
     </g>
     <g id="line2d_34">
      <g>
       <use xlink:href="#m34e24470cf" x="64.24625" y="128.560169" style="stroke: #000000; stroke-width: 0.8"/>
      </g>
     </g>
     <g id="text_9">
      <!-- 0.9 -->
      <g transform="translate(28.620625 135.398763) scale(0.18 -0.18)">
       <defs>
        <path id="DejaVuSans-39" d="M 703 97 
L 703 672 
Q 941 559 1184 500 
Q 1428 441 1663 441 
Q 2288 441 2617 861 
Q 2947 1281 2994 2138 
Q 2813 1869 2534 1725 
Q 2256 1581 1919 1581 
Q 1219 1581 811 2004 
Q 403 2428 403 3163 
Q 403 3881 828 4315 
Q 1253 4750 1959 4750 
Q 2769 4750 3195 4129 
Q 3622 3509 3622 2328 
Q 3622 1225 3098 567 
Q 2575 -91 1691 -91 
Q 1453 -91 1209 -44 
Q 966 3 703 97 
z
M 1959 2075 
Q 2384 2075 2632 2365 
Q 2881 2656 2881 3163 
Q 2881 3666 2632 3958 
Q 2384 4250 1959 4250 
Q 1534 4250 1286 3958 
Q 1038 3666 1038 3163 
Q 1038 2656 1286 2365 
Q 1534 2075 1959 2075 
z
" transform="scale(0.015625)"/>
       </defs>
       <use xlink:href="#DejaVuSans-30"/>
       <use xlink:href="#DejaVuSans-2e" x="63.623047"/>
       <use xlink:href="#DejaVuSans-39" x="95.410156"/>
      </g>
     </g>
    </g>
    <g id="ytick_6">
     <g id="line2d_35">
      <path d="M 64.24625 44.033399 
L 733.84625 44.033399 
" clip-path="url(#p98574bf554)" style="fill: none; stroke-dasharray: 1.85,0.8; stroke-dashoffset: 0; stroke: #b0b0b0; stroke-width: 0.5"/>
     </g>
     <g id="line2d_36">
      <g>
       <use xlink:href="#m34e24470cf" x="64.24625" y="44.033399" style="stroke: #000000; stroke-width: 0.8"/>
      </g>
     </g>
     <g id="text_10">
      <!-- 1.0 -->
      <g transform="translate(28.620625 50.871993) scale(0.18 -0.18)">
       <use xlink:href="#DejaVuSans-31"/>
       <use xlink:href="#DejaVuSans-2e" x="63.623047"/>
       <use xlink:href="#DejaVuSans-30" x="95.410156"/>
      </g>
     </g>
    </g>
    <g id="text_11">
     <!-- Normalized Performance -->
     <g transform="translate(20.877187 367.607813) rotate(-90) scale(0.18 -0.18)">
      <defs>
       <path id="DejaVuSans-4e" d="M 628 4666 
L 1478 4666 
L 3547 763 
L 3547 4666 
L 4159 4666 
L 4159 0 
L 3309 0 
L 1241 3903 
L 1241 0 
L 628 0 
L 628 4666 
z
" transform="scale(0.015625)"/>
       <path id="DejaVuSans-72" d="M 2631 2963 
Q 2534 3019 2420 3045 
Q 2306 3072 2169 3072 
Q 1681 3072 1420 2755 
Q 1159 2438 1159 1844 
L 1159 0 
L 581 0 
L 581 3500 
L 1159 3500 
L 1159 2956 
Q 1341 3275 1631 3429 
Q 1922 3584 2338 3584 
Q 2397 3584 2469 3576 
Q 2541 3569 2628 3553 
L 2631 2963 
z
" transform="scale(0.015625)"/>
       <path id="DejaVuSans-6d" d="M 3328 2828 
Q 3544 3216 3844 3400 
Q 4144 3584 4550 3584 
Q 5097 3584 5394 3201 
Q 5691 2819 5691 2113 
L 5691 0 
L 5113 0 
L 5113 2094 
Q 5113 2597 4934 2840 
Q 4756 3084 4391 3084 
Q 3944 3084 3684 2787 
Q 3425 2491 3425 1978 
L 3425 0 
L 2847 0 
L 2847 2094 
Q 2847 2600 2669 2842 
Q 2491 3084 2119 3084 
Q 1678 3084 1418 2786 
Q 1159 2488 1159 1978 
L 1159 0 
L 581 0 
L 581 3500 
L 1159 3500 
L 1159 2956 
Q 1356 3278 1631 3431 
Q 1906 3584 2284 3584 
Q 2666 3584 2933 3390 
Q 3200 3197 3328 2828 
z
" transform="scale(0.015625)"/>
       <path id="DejaVuSans-61" d="M 2194 1759 
Q 1497 1759 1228 1600 
Q 959 1441 959 1056 
Q 959 750 1161 570 
Q 1363 391 1709 391 
Q 2188 391 2477 730 
Q 2766 1069 2766 1631 
L 2766 1759 
L 2194 1759 
z
M 3341 1997 
L 3341 0 
L 2766 0 
L 2766 531 
Q 2569 213 2275 61 
Q 1981 -91 1556 -91 
Q 1019 -91 701 211 
Q 384 513 384 1019 
Q 384 1609 779 1909 
Q 1175 2209 1959 2209 
L 2766 2209 
L 2766 2266 
Q 2766 2663 2505 2880 
Q 2244 3097 1772 3097 
Q 1472 3097 1187 3025 
Q 903 2953 641 2809 
L 641 3341 
Q 956 3463 1253 3523 
Q 1550 3584 1831 3584 
Q 2591 3584 2966 3190 
Q 3341 2797 3341 1997 
z
" transform="scale(0.015625)"/>
       <path id="DejaVuSans-6c" d="M 603 4863 
L 1178 4863 
L 1178 0 
L 603 0 
L 603 4863 
z
" transform="scale(0.015625)"/>
       <path id="DejaVuSans-7a" d="M 353 3500 
L 3084 3500 
L 3084 2975 
L 922 459 
L 3084 459 
L 3084 0 
L 275 0 
L 275 525 
L 2438 3041 
L 353 3041 
L 353 3500 
z
" transform="scale(0.015625)"/>
       <path id="DejaVuSans-50" d="M 1259 4147 
L 1259 2394 
L 2053 2394 
Q 2494 2394 2734 2622 
Q 2975 2850 2975 3272 
Q 2975 3691 2734 3919 
Q 2494 4147 2053 4147 
L 1259 4147 
z
M 628 4666 
L 2053 4666 
Q 2838 4666 3239 4311 
Q 3641 3956 3641 3272 
Q 3641 2581 3239 2228 
Q 2838 1875 2053 1875 
L 1259 1875 
L 1259 0 
L 628 0 
L 628 4666 
z
" transform="scale(0.015625)"/>
       <path id="DejaVuSans-66" d="M 2375 4863 
L 2375 4384 
L 1825 4384 
Q 1516 4384 1395 4259 
Q 1275 4134 1275 3809 
L 1275 3500 
L 2222 3500 
L 2222 3053 
L 1275 3053 
L 1275 0 
L 697 0 
L 697 3053 
L 147 3053 
L 147 3500 
L 697 3500 
L 697 3744 
Q 697 4328 969 4595 
Q 1241 4863 1831 4863 
L 2375 4863 
z
" transform="scale(0.015625)"/>
      </defs>
      <use xlink:href="#DejaVuSans-4e"/>
      <use xlink:href="#DejaVuSans-6f" x="74.804688"/>
      <use xlink:href="#DejaVuSans-72" x="135.986328"/>
      <use xlink:href="#DejaVuSans-6d" x="175.349609"/>
      <use xlink:href="#DejaVuSans-61" x="272.761719"/>
      <use xlink:href="#DejaVuSans-6c" x="334.041016"/>
      <use xlink:href="#DejaVuSans-69" x="361.824219"/>
      <use xlink:href="#DejaVuSans-7a" x="389.607422"/>
      <use xlink:href="#DejaVuSans-65" x="442.097656"/>
      <use xlink:href="#DejaVuSans-64" x="503.621094"/>
      <use xlink:href="#DejaVuSans-20" x="567.097656"/>
      <use xlink:href="#DejaVuSans-50" x="598.884766"/>
      <use xlink:href="#DejaVuSans-65" x="655.5625"/>
      <use xlink:href="#DejaVuSans-72" x="717.085938"/>
      <use xlink:href="#DejaVuSans-66" x="758.199219"/>
      <use xlink:href="#DejaVuSans-6f" x="793.404297"/>
      <use xlink:href="#DejaVuSans-72" x="854.585938"/>
      <use xlink:href="#DejaVuSans-6d" x="893.949219"/>
      <use xlink:href="#DejaVuSans-61" x="991.361328"/>
      <use xlink:href="#DejaVuSans-6e" x="1052.640625"/>
      <use xlink:href="#DejaVuSans-63" x="1116.019531"/>
      <use xlink:href="#DejaVuSans-65" x="1171"/>
     </g>
    </g>
   </g>
   <g id="line2d_37">
    <path d="M 94.682614 290.407586 
L 186.305198 139.941882 
L 239.900974 69.977525 
L 277.927782 61.538568 
L 307.423666 57.225559 
L 331.523558 55.913331 
L 351.899726 55.383895 
L 369.550366 54.817873 
L 385.119334 54.304283 
L 399.04625 53.493614 
L 411.644678 52.967821 
L 423.146142 52.791993 
L 433.726463 52.113103 
L 443.52231 51.36823 
L 452.642026 50.455407 
L 461.17295 50.330608 
L 469.186522 49.88851 
L 476.741918 49.873992 
L 483.88871 49.691867 
L 490.668834 49.656415 
L 497.118086 48.883001 
L 503.267262 48.833525 
L 509.14305 48.733953 
L 514.768726 48.382365 
L 520.164718 48.266177 
L 525.349047 47.058904 
L 530.337694 47.010768 
L 535.144894 46.968492 
L 539.783386 46.907911 
L 544.26461 46.891224 
L 548.598882 46.880272 
L 552.795534 46.875543 
L 556.863038 46.582309 
L 560.809106 46.579967 
L 564.640778 46.578414 
L 568.364502 46.552372 
L 571.986193 46.333611 
L 575.511294 46.331155 
L 578.944823 46.286717 
L 582.291418 46.177028 
L 585.555373 45.912535 
L 588.74067 45.899219 
L 591.851013 45.884205 
L 594.889846 45.874719 
L 597.860386 45.851518 
L 600.765634 45.842979 
L 603.608398 45.692345 
L 606.39131 45.686866 
L 609.116839 45.650407 
L 611.787302 45.640483 
L 614.404882 45.460998 
L 616.971631 45.330311 
L 619.489487 45.244786 
L 621.960278 45.21604 
L 624.38573 45.213984 
L 626.767479 45.141386 
L 629.10707 45.138197 
L 631.40597 45.132914 
L 633.665571 44.866425 
L 635.887194 44.865272 
L 638.072094 44.701937 
L 640.221466 44.701631 
L 642.336446 44.701574 
L 644.418118 44.671512 
L 646.467515 44.66819 
L 648.485622 44.659463 
L 650.473381 44.659187 
L 652.43169 44.654438 
L 654.36141 44.653456 
L 656.263363 44.650282 
L 658.138337 44.650074 
L 659.987086 44.642952 
L 661.810335 44.642453 
L 663.608777 44.633224 
L 665.383078 44.632805 
L 667.133878 44.632391 
L 668.861791 44.627786 
L 670.567407 44.625091 
L 672.251296 44.613813 
L 673.914002 44.601774 
L 675.556054 44.601438 
L 677.177957 44.601326 
L 678.7802 44.559699 
L 680.363255 44.559372 
L 681.927574 44.559115 
L 683.473597 44.555819 
L 685.001746 44.553056 
L 686.512431 44.552998 
L 688.006045 44.55296 
L 689.48297 44.552363 
L 690.943576 44.551912 
L 692.388218 44.55168 
L 693.817242 44.533846 
L 695.230982 44.53077 
L 696.629762 44.527966 
L 698.013894 44.527708 
L 699.383683 44.523312 
L 700.739423 44.517308 
L 702.081398 44.512644 
L 703.409886 44.507609 
" clip-path="url(#p98574bf554)" style="fill: none; stroke: #ff0000; stroke-width: 1.5; stroke-linecap: square"/>
   </g>
   <g id="line2d_38">
    <path d="M 94.682614 290.407586 
L 186.305198 139.941882 
L 239.900974 69.977525 
L 277.927782 61.538568 
L 307.423666 57.225559 
L 331.523558 55.913331 
L 351.899726 55.383895 
L 369.550366 54.818048 
L 385.119334 54.304536 
L 399.04625 53.493614 
L 411.644678 52.986494 
L 423.146142 52.826465 
L 433.726463 52.110266 
L 443.52231 51.322128 
L 452.642026 50.46053 
L 461.17295 50.40377 
L 469.186522 49.952404 
L 476.741918 49.941424 
L 483.88871 49.763899 
L 490.668834 49.731365 
L 497.118086 48.906157 
L 503.267262 48.862894 
L 509.14305 48.767079 
L 514.768726 48.376492 
L 520.164718 48.270572 
L 525.349047 46.993922 
L 530.337694 46.985033 
L 535.144894 46.941651 
L 539.783386 46.881034 
L 544.26461 46.881034 
L 548.598882 46.870118 
L 552.795534 46.870068 
L 556.863038 46.578283 
L 560.809106 46.577104 
L 564.640778 46.575462 
L 568.364502 46.551511 
L 571.986193 46.32733 
L 575.511294 46.32733 
L 578.944823 46.286949 
L 582.291418 46.176133 
L 585.555373 45.905056 
L 588.74067 45.899013 
L 591.851013 45.883915 
L 594.889846 45.874292 
L 597.860386 45.850179 
L 600.765634 45.844377 
L 603.608398 45.685964 
L 606.39131 45.68063 
L 609.116839 45.641564 
L 611.787302 45.640432 
L 614.404882 45.45389 
L 616.971631 45.316212 
L 619.489487 45.230893 
L 621.960278 45.201509 
L 624.38573 45.199918 
L 626.767479 45.123889 
L 629.10707 45.120826 
L 631.40597 45.115519 
L 633.665571 44.834366 
L 635.887194 44.833295 
L 638.072094 44.671372 
L 640.221466 44.671372 
L 642.336446 44.671357 
L 644.418118 44.641022 
L 646.467515 44.64039 
L 648.485622 44.631662 
L 650.473381 44.631662 
L 652.43169 44.630148 
L 654.36141 44.630148 
L 656.263363 44.626881 
L 658.138337 44.626881 
L 659.987086 44.623745 
L 661.810335 44.623731 
L 663.608777 44.619879 
L 665.383078 44.619447 
L 667.133878 44.619447 
L 668.861791 44.614821 
L 670.567407 44.614571 
L 672.251296 44.60193 
L 673.914002 44.589864 
L 675.556054 44.589535 
L 677.177957 44.589472 
L 678.7802 44.538864 
L 680.363255 44.538017 
L 681.927574 44.538017 
L 683.473597 44.537987 
L 685.001746 44.535245 
L 686.512431 44.535187 
L 688.006045 44.535187 
L 689.48297 44.534647 
L 690.943576 44.534647 
L 692.388218 44.53436 
L 693.817242 44.516008 
L 695.230982 44.512986 
L 696.629762 44.512649 
L 698.013894 44.512311 
L 699.383683 44.512311 
L 700.739423 44.505108 
L 702.081398 44.502891 
L 703.409886 44.500482 
" clip-path="url(#p98574bf554)" style="fill: none; stroke: #ff7f50; stroke-width: 1.5; stroke-linecap: square"/>
   </g>
   <g id="line2d_39">
    <path d="M 94.682614 290.407586 
L 186.305198 156.030137 
L 239.900974 104.694872 
L 277.927782 83.191455 
L 307.423666 69.91449 
L 331.523558 63.7522 
L 351.899726 58.67092 
L 369.550366 55.724802 
L 385.119334 54.081289 
L 399.04625 52.49703 
L 411.644678 51.705672 
L 423.146142 50.8573 
L 433.726463 50.210291 
L 443.52231 49.810173 
L 452.642026 49.344598 
L 461.17295 48.947882 
L 469.186522 48.475492 
L 476.741918 48.172405 
L 483.88871 47.781409 
L 490.668834 47.602343 
L 497.118086 47.402744 
L 503.267262 47.199358 
L 509.14305 47.00346 
L 514.768726 46.854501 
L 520.164718 46.734946 
L 525.349047 46.605422 
L 530.337694 46.521815 
L 535.144894 46.429335 
L 539.783386 46.348331 
L 544.26461 46.231798 
L 548.598882 46.088901 
L 552.795534 46.005047 
L 556.863038 45.937489 
L 560.809106 45.877325 
L 564.640778 45.781242 
L 568.364502 45.708763 
L 571.986193 45.601469 
L 575.511294 45.47851 
L 578.944823 45.424118 
L 582.291418 45.398841 
L 585.555373 45.360147 
L 588.74067 45.319585 
L 591.851013 45.290972 
L 594.889846 45.258625 
L 597.860386 45.222209 
L 600.765634 45.187052 
L 603.608398 45.16166 
L 606.39131 45.121114 
L 609.116839 45.094173 
L 611.787302 45.056171 
L 614.404882 44.989401 
L 616.971631 44.959609 
L 619.489487 44.94446 
L 621.960278 44.908811 
L 624.38573 44.857824 
L 626.767479 44.832563 
L 629.10707 44.806485 
L 631.40597 44.784991 
L 633.665571 44.773966 
L 635.887194 44.755236 
L 638.072094 44.74715 
L 640.221466 44.732351 
L 642.336446 44.714308 
L 644.418118 44.698751 
L 646.467515 44.681246 
L 648.485622 44.671683 
L 650.473381 44.665233 
L 652.43169 44.658605 
L 654.36141 44.646965 
L 656.263363 44.629053 
L 658.138337 44.618895 
L 659.987086 44.614926 
L 661.810335 44.612274 
L 663.608777 44.599033 
L 665.383078 44.585726 
L 667.133878 44.574325 
L 668.861791 44.566695 
L 670.567407 44.555606 
L 672.251296 44.54823 
L 673.914002 44.54452 
L 675.556054 44.506539 
L 677.177957 44.502104 
L 678.7802 44.484664 
L 680.363255 44.480439 
L 681.927574 44.449317 
L 683.473597 44.440254 
L 685.001746 44.432503 
L 686.512431 44.420747 
L 688.006045 44.416884 
L 689.48297 44.404699 
L 690.943576 44.389659 
L 692.388218 44.379285 
L 693.817242 44.370603 
L 695.230982 44.368103 
L 696.629762 44.362679 
L 698.013894 44.353533 
L 699.383683 44.350855 
L 700.739423 44.347157 
L 702.081398 44.345687 
L 703.409886 44.338079 
" clip-path="url(#p98574bf554)" style="fill: none; stroke: #8a2be2; stroke-width: 1.5; stroke-linecap: square"/>
   </g>
   <g id="line2d_40">
    <path d="M 94.682614 260.949298 
L 186.305198 154.841042 
L 239.900974 110.686932 
L 277.927782 91.829545 
L 307.423666 79.863814 
L 331.523558 71.901957 
L 351.899726 64.911107 
L 369.550366 62.414659 
L 385.119334 59.803012 
L 399.04625 57.665153 
L 411.644678 55.792027 
L 423.146142 54.583547 
L 433.726463 53.526407 
L 443.52231 52.525913 
L 452.642026 51.996339 
L 461.17295 51.120317 
L 469.186522 50.278516 
L 476.741918 49.990153 
L 483.88871 49.72992 
L 490.668834 49.339888 
L 497.118086 48.815843 
L 503.267262 48.609016 
L 509.14305 48.360841 
L 514.768726 48.132091 
L 520.164718 48.032973 
L 525.349047 47.78649 
L 530.337694 47.506536 
L 535.144894 47.38996 
L 539.783386 47.245666 
L 544.26461 47.132933 
L 548.598882 47.037101 
L 552.795534 46.780356 
L 556.863038 46.663213 
L 560.809106 46.537468 
L 564.640778 46.472987 
L 568.364502 46.316313 
L 571.986193 46.213053 
L 575.511294 46.123435 
L 578.944823 46.033005 
L 582.291418 45.956349 
L 585.555373 45.893398 
L 588.74067 45.856082 
L 591.851013 45.828518 
L 594.889846 45.737133 
L 597.860386 45.679851 
L 600.765634 45.645802 
L 603.608398 45.616987 
L 606.39131 45.583798 
L 609.116839 45.552044 
L 611.787302 45.513102 
L 614.404882 45.458036 
L 616.971631 45.420783 
L 619.489487 45.405406 
L 621.960278 45.368626 
L 624.38573 45.308909 
L 626.767479 45.285923 
L 629.10707 45.232755 
L 631.40597 45.207592 
L 633.665571 45.154721 
L 635.887194 45.091786 
L 638.072094 45.034129 
L 640.221466 45.006858 
L 642.336446 44.992422 
L 644.418118 44.956699 
L 646.467515 44.942083 
L 648.485622 44.90493 
L 650.473381 44.881143 
L 652.43169 44.870157 
L 654.36141 44.84722 
L 656.263363 44.83723 
L 658.138337 44.825048 
L 659.987086 44.789521 
L 661.810335 44.772663 
L 663.608777 44.762635 
L 665.383078 44.753012 
L 667.133878 44.733815 
L 668.861791 44.709835 
L 670.567407 44.696501 
L 672.251296 44.676407 
L 673.914002 44.6709 
L 675.556054 44.664501 
L 677.177957 44.661954 
L 678.7802 44.651292 
L 680.363255 44.635008 
L 681.927574 44.623472 
L 683.473597 44.612134 
L 685.001746 44.597528 
L 686.512431 44.579665 
L 688.006045 44.576505 
L 689.48297 44.566962 
L 690.943576 44.560065 
L 692.388218 44.553239 
L 693.817242 44.543229 
L 695.230982 44.533715 
L 696.629762 44.528666 
L 698.013894 44.526796 
L 699.383683 44.521949 
L 700.739423 44.516087 
L 702.081398 44.510191 
L 703.409886 44.506653 
" clip-path="url(#p98574bf554)" style="fill: none; stroke: #008000; stroke-width: 1.5; stroke-linecap: square"/>
   </g>
   <g id="line2d_41">
    <path d="M 94.682614 99.338075 
L 186.305198 99.338075 
L 239.900974 99.338075 
L 277.927782 99.338075 
L 307.423666 99.338075 
L 331.523558 99.338075 
L 351.899726 99.338075 
L 369.550366 99.338075 
L 385.119334 99.338075 
L 399.04625 99.338075 
L 411.644678 99.338075 
L 423.146142 99.338075 
L 433.726463 99.338075 
L 443.52231 99.338075 
L 452.642026 99.338075 
L 461.17295 99.338075 
L 469.186522 99.338075 
L 476.741918 99.338075 
L 483.88871 99.338075 
L 490.668834 99.338075 
L 497.118086 99.338075 
L 503.267262 99.338075 
L 509.14305 99.338075 
L 514.768726 99.338075 
L 520.164718 99.338075 
L 525.349047 99.338075 
L 530.337694 99.338075 
L 535.144894 99.338075 
L 539.783386 99.338075 
L 544.26461 99.338075 
L 548.598882 99.338075 
L 552.795534 99.338075 
L 556.863038 99.338075 
L 560.809106 99.338075 
L 564.640778 99.338075 
L 568.364502 99.338075 
L 571.986193 99.338075 
L 575.511294 99.338075 
L 578.944823 99.338075 
L 582.291418 99.338075 
L 585.555373 99.338075 
L 588.74067 99.338075 
L 591.851013 99.338075 
L 594.889846 99.338075 
L 597.860386 99.338075 
L 600.765634 99.338075 
L 603.608398 99.338075 
L 606.39131 99.338075 
L 609.116839 99.338075 
L 611.787302 99.338075 
L 614.404882 99.338075 
L 616.971631 99.338075 
L 619.489487 99.338075 
L 621.960278 99.338075 
L 624.38573 99.338075 
L 626.767479 99.338075 
L 629.10707 99.338075 
L 631.40597 99.338075 
L 633.665571 99.338075 
L 635.887194 99.338075 
L 638.072094 99.338075 
L 640.221466 99.338075 
L 642.336446 99.338075 
L 644.418118 99.338075 
L 646.467515 99.338075 
L 648.485622 99.338075 
L 650.473381 99.338075 
L 652.43169 99.338075 
L 654.36141 99.338075 
L 656.263363 99.338075 
L 658.138337 99.338075 
L 659.987086 99.338075 
L 661.810335 99.338075 
L 663.608777 99.338075 
L 665.383078 99.338075 
L 667.133878 99.338075 
L 668.861791 99.338075 
L 670.567407 99.338075 
L 672.251296 99.338075 
L 673.914002 99.338075 
L 675.556054 99.338075 
L 677.177957 99.338075 
L 678.7802 99.338075 
L 680.363255 99.338075 
L 681.927574 99.338075 
L 683.473597 99.338075 
L 685.001746 99.338075 
L 686.512431 99.338075 
L 688.006045 99.338075 
L 689.48297 99.338075 
L 690.943576 99.338075 
L 692.388218 99.338075 
L 693.817242 99.338075 
L 695.230982 99.338075 
L 696.629762 99.338075 
L 698.013894 99.338075 
L 699.383683 99.338075 
L 700.739423 99.338075 
L 702.081398 99.338075 
L 703.409886 99.338075 
" clip-path="url(#p98574bf554)" style="fill: none; stroke-dasharray: 5.55,2.4; stroke-dashoffset: 0; stroke: #0000ff; stroke-width: 1.5"/>
   </g>
   <g id="line2d_42">
    <path d="M 94.682614 309.420771 
L 186.305198 183.392353 
L 239.900974 94.492423 
L 277.927782 63.024859 
L 307.423666 63.024859 
L 331.523558 63.024859 
L 351.899726 59.769508 
L 369.550366 44.682345 
L 385.119334 44.682345 
L 399.04625 44.682345 
L 411.644678 44.682345 
L 423.146142 44.682345 
L 433.726463 44.682345 
L 443.52231 44.682345 
L 452.642026 44.682345 
L 461.17295 44.682345 
L 469.186522 44.682345 
L 476.741918 44.682345 
L 483.88871 44.682345 
L 490.668834 44.682345 
L 497.118086 44.682345 
L 503.267262 44.682345 
L 509.14305 44.682345 
L 514.768726 44.682345 
L 520.164718 44.682345 
L 525.349047 44.682345 
L 530.337694 44.682345 
L 535.144894 44.682345 
L 539.783386 44.682345 
L 544.26461 44.682345 
L 548.598882 44.682345 
L 552.795534 44.682345 
L 556.863038 44.682345 
L 560.809106 44.682345 
L 564.640778 44.682345 
L 568.364502 44.682345 
L 571.986193 44.682345 
L 575.511294 44.682345 
L 578.944823 44.682345 
L 582.291418 44.682345 
L 585.555373 44.682345 
L 588.74067 44.682345 
L 591.851013 44.682345 
L 594.889846 44.682345 
L 597.860386 44.682345 
L 600.765634 44.682345 
L 603.608398 44.682345 
L 606.39131 44.682345 
L 609.116839 44.682345 
L 611.787302 44.682345 
L 614.404882 44.682345 
L 616.971631 44.682345 
L 619.489487 44.682345 
L 621.960278 44.682345 
L 624.38573 44.682345 
L 626.767479 44.682345 
L 629.10707 44.682345 
L 631.40597 44.682345 
L 633.665571 44.682345 
L 635.887194 44.682345 
L 638.072094 44.682345 
L 640.221466 44.682345 
L 642.336446 44.682345 
L 644.418118 44.682345 
L 646.467515 44.682345 
L 648.485622 44.682345 
L 650.473381 44.682345 
L 652.43169 44.682345 
L 654.36141 44.682345 
L 656.263363 44.682345 
L 658.138337 44.682345 
L 659.987086 44.682345 
L 661.810335 44.682345 
L 663.608777 44.682345 
L 665.383078 44.682345 
L 667.133878 44.682345 
L 668.861791 44.682345 
L 670.567407 44.682345 
L 672.251296 44.682345 
L 673.914002 44.682345 
L 675.556054 44.682345 
L 677.177957 44.682345 
L 678.7802 44.682345 
L 680.363255 44.682345 
L 681.927574 44.682345 
L 683.473597 44.682345 
L 685.001746 44.682345 
L 686.512431 44.682345 
L 688.006045 44.682345 
L 689.48297 44.682345 
L 690.943576 44.682345 
L 692.388218 44.682345 
L 693.817242 44.682345 
L 695.230982 44.682345 
L 696.629762 44.682345 
L 698.013894 44.682345 
L 699.383683 44.682345 
L 700.739423 44.682345 
L 702.081398 44.682345 
L 703.409886 44.682345 
" clip-path="url(#p98574bf554)" style="fill: none; stroke-dasharray: 5.55,2.4; stroke-dashoffset: 0; stroke: #000000; stroke-width: 1.5"/>
   </g>
   <g id="line2d_43">
    <path d="M 94.682614 87.840141 
L 186.305198 62.071777 
L 239.900974 52.102006 
L 277.927782 48.891126 
L 307.423666 47.694834 
L 331.523558 46.84458 
L 351.899726 46.338871 
L 369.550366 46.120037 
L 385.119334 45.89816 
L 399.04625 45.849068 
L 411.644678 45.778337 
L 423.146142 45.699789 
L 433.726463 45.517056 
L 443.52231 45.511029 
L 452.642026 45.464797 
L 461.17295 45.300076 
L 469.186522 45.187344 
L 476.741918 45.038785 
L 483.88871 44.93537 
L 490.668834 44.934565 
L 497.118086 44.85923 
L 503.267262 44.751741 
L 509.14305 44.737237 
L 514.768726 44.626273 
L 520.164718 44.580422 
L 525.349047 44.489921 
L 530.337694 44.474045 
L 535.144894 44.458849 
L 539.783386 44.372 
L 544.26461 44.370334 
L 548.598882 44.337526 
L 552.795534 44.330926 
L 556.863038 44.330119 
L 560.809106 44.296999 
L 564.640778 44.296218 
L 568.364502 44.292107 
L 571.986193 44.29151 
L 575.511294 44.291289 
L 578.944823 44.289659 
L 582.291418 44.287 
L 585.555373 44.285344 
L 588.74067 44.285256 
L 591.851013 44.28326 
L 594.889846 44.25465 
L 597.860386 44.235548 
L 600.765634 44.227792 
L 603.608398 44.226422 
L 606.39131 44.225253 
L 609.116839 44.215009 
L 611.787302 44.213812 
L 614.404882 44.213456 
L 616.971631 44.210785 
L 619.489487 44.210588 
L 621.960278 44.210566 
L 624.38573 44.205966 
L 626.767479 44.19353 
L 629.10707 44.19353 
L 631.40597 44.19353 
L 633.665571 44.146736 
L 635.887194 44.144739 
L 638.072094 44.139966 
L 640.221466 44.139849 
L 642.336446 44.139827 
L 644.418118 44.138557 
L 646.467515 44.138474 
L 648.485622 44.138388 
L 650.473381 44.138388 
L 652.43169 44.138388 
L 654.36141 44.138364 
L 656.263363 44.138364 
L 658.138337 44.138364 
L 659.987086 44.138364 
L 661.810335 44.138364 
L 663.608777 44.138364 
L 665.383078 44.138008 
L 667.133878 44.13157 
L 668.861791 44.131554 
L 670.567407 44.129548 
L 672.251296 44.129548 
L 673.914002 44.129538 
L 675.556054 44.129538 
L 677.177957 44.129538 
L 678.7802 44.12907 
L 680.363255 44.121777 
L 681.927574 44.121777 
L 683.473597 44.116676 
L 685.001746 44.116676 
L 686.512431 44.116619 
L 688.006045 44.116597 
L 689.48297 44.116597 
L 690.943576 44.116597 
L 692.388218 44.116595 
L 693.817242 44.116595 
L 695.230982 44.116595 
L 696.629762 44.116595 
L 698.013894 44.116443 
L 699.383683 44.116443 
L 700.739423 44.116237 
L 702.081398 44.116206 
L 703.409886 44.116206 
" clip-path="url(#p98574bf554)" style="fill: none; stroke-dasharray: 5.55,2.4; stroke-dashoffset: 0; stroke: #ff0000; stroke-width: 1.5"/>
   </g>
   <g id="patch_3">
    <path d="M 64.24625 506.16 
L 64.24625 7.2 
" style="fill: none; stroke: #000000; stroke-width: 0.8; stroke-linejoin: miter; stroke-linecap: square"/>
   </g>
   <g id="patch_4">
    <path d="M 733.84625 506.16 
L 733.84625 7.2 
" style="fill: none; stroke: #000000; stroke-width: 0.8; stroke-linejoin: miter; stroke-linecap: square"/>
   </g>
   <g id="patch_5">
    <path d="M 64.24625 506.16 
L 733.84625 506.16 
" style="fill: none; stroke: #000000; stroke-width: 0.8; stroke-linejoin: miter; stroke-linecap: square"/>
   </g>
   <g id="patch_6">
    <path d="M 64.24625 7.2 
L 733.84625 7.2 
" style="fill: none; stroke: #000000; stroke-width: 0.8; stroke-linejoin: miter; stroke-linecap: square"/>
   </g>
   <g id="legend_1">
    <g id="patch_7">
     <path d="M 472.815313 497.16 
L 721.24625 497.16 
Q 724.84625 497.16 724.84625 493.56 
L 724.84625 310.415625 
Q 724.84625 306.815625 721.24625 306.815625 
L 472.815313 306.815625 
Q 469.215313 306.815625 469.215313 310.415625 
L 469.215313 493.56 
Q 469.215313 497.16 472.815313 497.16 
z
" style="fill: #ffffff; opacity: 0.8; stroke: #cccccc; stroke-linejoin: miter"/>
    </g>
    <g id="line2d_44">
     <path d="M 476.415313 321.392813 
L 494.415313 321.392813 
L 512.415313 321.392813 
" style="fill: none; stroke: #ff0000; stroke-width: 1.5; stroke-linecap: square"/>
    </g>
    <g id="text_12">
     <!-- Hybrid-MBTL (Ours) -->
     <g transform="translate(526.815313 327.692813) scale(0.18 -0.18)">
      <defs>
       <path id="DejaVuSans-48" d="M 628 4666 
L 1259 4666 
L 1259 2753 
L 3553 2753 
L 3553 4666 
L 4184 4666 
L 4184 0 
L 3553 0 
L 3553 2222 
L 1259 2222 
L 1259 0 
L 628 0 
L 628 4666 
z
" transform="scale(0.015625)"/>
       <path id="DejaVuSans-79" d="M 2059 -325 
Q 1816 -950 1584 -1140 
Q 1353 -1331 966 -1331 
L 506 -1331 
L 506 -850 
L 844 -850 
Q 1081 -850 1212 -737 
Q 1344 -625 1503 -206 
L 1606 56 
L 191 3500 
L 800 3500 
L 1894 763 
L 2988 3500 
L 3597 3500 
L 2059 -325 
z
" transform="scale(0.015625)"/>
       <path id="DejaVuSans-62" d="M 3116 1747 
Q 3116 2381 2855 2742 
Q 2594 3103 2138 3103 
Q 1681 3103 1420 2742 
Q 1159 2381 1159 1747 
Q 1159 1113 1420 752 
Q 1681 391 2138 391 
Q 2594 391 2855 752 
Q 3116 1113 3116 1747 
z
M 1159 2969 
Q 1341 3281 1617 3432 
Q 1894 3584 2278 3584 
Q 2916 3584 3314 3078 
Q 3713 2572 3713 1747 
Q 3713 922 3314 415 
Q 2916 -91 2278 -91 
Q 1894 -91 1617 61 
Q 1341 213 1159 525 
L 1159 0 
L 581 0 
L 581 4863 
L 1159 4863 
L 1159 2969 
z
" transform="scale(0.015625)"/>
       <path id="DejaVuSans-2d" d="M 313 2009 
L 1997 2009 
L 1997 1497 
L 313 1497 
L 313 2009 
z
" transform="scale(0.015625)"/>
       <path id="DejaVuSans-4d" d="M 628 4666 
L 1569 4666 
L 2759 1491 
L 3956 4666 
L 4897 4666 
L 4897 0 
L 4281 0 
L 4281 4097 
L 3078 897 
L 2444 897 
L 1241 4097 
L 1241 0 
L 628 0 
L 628 4666 
z
" transform="scale(0.015625)"/>
       <path id="DejaVuSans-42" d="M 1259 2228 
L 1259 519 
L 2272 519 
Q 2781 519 3026 730 
Q 3272 941 3272 1375 
Q 3272 1813 3026 2020 
Q 2781 2228 2272 2228 
L 1259 2228 
z
M 1259 4147 
L 1259 2741 
L 2194 2741 
Q 2656 2741 2882 2914 
Q 3109 3088 3109 3444 
Q 3109 3797 2882 3972 
Q 2656 4147 2194 4147 
L 1259 4147 
z
M 628 4666 
L 2241 4666 
Q 2963 4666 3353 4366 
Q 3744 4066 3744 3513 
Q 3744 3084 3544 2831 
Q 3344 2578 2956 2516 
Q 3422 2416 3680 2098 
Q 3938 1781 3938 1306 
Q 3938 681 3513 340 
Q 3088 0 2303 0 
L 628 0 
L 628 4666 
z
" transform="scale(0.015625)"/>
       <path id="DejaVuSans-54" d="M -19 4666 
L 3928 4666 
L 3928 4134 
L 2272 4134 
L 2272 0 
L 1638 0 
L 1638 4134 
L -19 4134 
L -19 4666 
z
" transform="scale(0.015625)"/>
       <path id="DejaVuSans-4c" d="M 628 4666 
L 1259 4666 
L 1259 531 
L 3531 531 
L 3531 0 
L 628 0 
L 628 4666 
z
" transform="scale(0.015625)"/>
       <path id="DejaVuSans-28" d="M 1984 4856 
Q 1566 4138 1362 3434 
Q 1159 2731 1159 2009 
Q 1159 1288 1364 580 
Q 1569 -128 1984 -844 
L 1484 -844 
Q 1016 -109 783 600 
Q 550 1309 550 2009 
Q 550 2706 781 3412 
Q 1013 4119 1484 4856 
L 1984 4856 
z
" transform="scale(0.015625)"/>
       <path id="DejaVuSans-4f" d="M 2522 4238 
Q 1834 4238 1429 3725 
Q 1025 3213 1025 2328 
Q 1025 1447 1429 934 
Q 1834 422 2522 422 
Q 3209 422 3611 934 
Q 4013 1447 4013 2328 
Q 4013 3213 3611 3725 
Q 3209 4238 2522 4238 
z
M 2522 4750 
Q 3503 4750 4090 4092 
Q 4678 3434 4678 2328 
Q 4678 1225 4090 567 
Q 3503 -91 2522 -91 
Q 1538 -91 948 565 
Q 359 1222 359 2328 
Q 359 3434 948 4092 
Q 1538 4750 2522 4750 
z
" transform="scale(0.015625)"/>
       <path id="DejaVuSans-29" d="M 513 4856 
L 1013 4856 
Q 1481 4119 1714 3412 
Q 1947 2706 1947 2009 
Q 1947 1309 1714 600 
Q 1481 -109 1013 -844 
L 513 -844 
Q 928 -128 1133 580 
Q 1338 1288 1338 2009 
Q 1338 2731 1133 3434 
Q 928 4138 513 4856 
z
" transform="scale(0.015625)"/>
      </defs>
      <use xlink:href="#DejaVuSans-48"/>
      <use xlink:href="#DejaVuSans-79" x="75.195312"/>
      <use xlink:href="#DejaVuSans-62" x="134.375"/>
      <use xlink:href="#DejaVuSans-72" x="197.851562"/>
      <use xlink:href="#DejaVuSans-69" x="238.964844"/>
      <use xlink:href="#DejaVuSans-64" x="266.748047"/>
      <use xlink:href="#DejaVuSans-2d" x="330.224609"/>
      <use xlink:href="#DejaVuSans-4d" x="366.308594"/>
      <use xlink:href="#DejaVuSans-42" x="452.587891"/>
      <use xlink:href="#DejaVuSans-54" x="521.191406"/>
      <use xlink:href="#DejaVuSans-4c" x="582.275391"/>
      <use xlink:href="#DejaVuSans-20" x="637.988281"/>
      <use xlink:href="#DejaVuSans-28" x="669.775391"/>
      <use xlink:href="#DejaVuSans-4f" x="708.789062"/>
      <use xlink:href="#DejaVuSans-75" x="787.5"/>
      <use xlink:href="#DejaVuSans-72" x="850.878906"/>
      <use xlink:href="#DejaVuSans-73" x="891.992188"/>
      <use xlink:href="#DejaVuSans-29" x="944.091797"/>
     </g>
    </g>
    <g id="line2d_45">
     <path d="M 476.415313 347.813438 
L 494.415313 347.813438 
L 512.415313 347.813438 
" style="fill: none; stroke: #ff7f50; stroke-width: 1.5; stroke-linecap: square"/>
    </g>
    <g id="text_13">
     <!-- SC-MBTL -->
     <g transform="translate(526.815313 354.113438) scale(0.18 -0.18)">
      <defs>
       <path id="DejaVuSans-53" d="M 3425 4513 
L 3425 3897 
Q 3066 4069 2747 4153 
Q 2428 4238 2131 4238 
Q 1616 4238 1336 4038 
Q 1056 3838 1056 3469 
Q 1056 3159 1242 3001 
Q 1428 2844 1947 2747 
L 2328 2669 
Q 3034 2534 3370 2195 
Q 3706 1856 3706 1288 
Q 3706 609 3251 259 
Q 2797 -91 1919 -91 
Q 1588 -91 1214 -16 
Q 841 59 441 206 
L 441 856 
Q 825 641 1194 531 
Q 1563 422 1919 422 
Q 2459 422 2753 634 
Q 3047 847 3047 1241 
Q 3047 1584 2836 1778 
Q 2625 1972 2144 2069 
L 1759 2144 
Q 1053 2284 737 2584 
Q 422 2884 422 3419 
Q 422 4038 858 4394 
Q 1294 4750 2059 4750 
Q 2388 4750 2728 4690 
Q 3069 4631 3425 4513 
z
" transform="scale(0.015625)"/>
       <path id="DejaVuSans-43" d="M 4122 4306 
L 4122 3641 
Q 3803 3938 3442 4084 
Q 3081 4231 2675 4231 
Q 1875 4231 1450 3742 
Q 1025 3253 1025 2328 
Q 1025 1406 1450 917 
Q 1875 428 2675 428 
Q 3081 428 3442 575 
Q 3803 722 4122 1019 
L 4122 359 
Q 3791 134 3420 21 
Q 3050 -91 2638 -91 
Q 1578 -91 968 557 
Q 359 1206 359 2328 
Q 359 3453 968 4101 
Q 1578 4750 2638 4750 
Q 3056 4750 3426 4639 
Q 3797 4528 4122 4306 
z
" transform="scale(0.015625)"/>
      </defs>
      <use xlink:href="#DejaVuSans-53"/>
      <use xlink:href="#DejaVuSans-43" x="63.476562"/>
      <use xlink:href="#DejaVuSans-2d" x="133.300781"/>
      <use xlink:href="#DejaVuSans-4d" x="169.384766"/>
      <use xlink:href="#DejaVuSans-42" x="255.664062"/>
      <use xlink:href="#DejaVuSans-54" x="324.267578"/>
      <use xlink:href="#DejaVuSans-4c" x="385.351562"/>
     </g>
    </g>
    <g id="line2d_46">
     <path d="M 476.415313 374.234063 
L 494.415313 374.234063 
L 512.415313 374.234063 
" style="fill: none; stroke: #8a2be2; stroke-width: 1.5; stroke-linecap: square"/>
    </g>
    <g id="text_14">
     <!-- GP-MBTL -->
     <g transform="translate(526.815313 380.534063) scale(0.18 -0.18)">
      <defs>
       <path id="DejaVuSans-47" d="M 3809 666 
L 3809 1919 
L 2778 1919 
L 2778 2438 
L 4434 2438 
L 4434 434 
Q 4069 175 3628 42 
Q 3188 -91 2688 -91 
Q 1594 -91 976 548 
Q 359 1188 359 2328 
Q 359 3472 976 4111 
Q 1594 4750 2688 4750 
Q 3144 4750 3555 4637 
Q 3966 4525 4313 4306 
L 4313 3634 
Q 3963 3931 3569 4081 
Q 3175 4231 2741 4231 
Q 1884 4231 1454 3753 
Q 1025 3275 1025 2328 
Q 1025 1384 1454 906 
Q 1884 428 2741 428 
Q 3075 428 3337 486 
Q 3600 544 3809 666 
z
" transform="scale(0.015625)"/>
      </defs>
      <use xlink:href="#DejaVuSans-47"/>
      <use xlink:href="#DejaVuSans-50" x="77.490234"/>
      <use xlink:href="#DejaVuSans-2d" x="135.542969"/>
      <use xlink:href="#DejaVuSans-4d" x="171.626953"/>
      <use xlink:href="#DejaVuSans-42" x="257.90625"/>
      <use xlink:href="#DejaVuSans-54" x="326.509766"/>
      <use xlink:href="#DejaVuSans-4c" x="387.59375"/>
     </g>
    </g>
    <g id="line2d_47">
     <path d="M 476.415313 400.654688 
L 494.415313 400.654688 
L 512.415313 400.654688 
" style="fill: none; stroke: #008000; stroke-width: 1.5; stroke-linecap: square"/>
    </g>
    <g id="text_15">
     <!-- Random -->
     <g transform="translate(526.815313 406.954688) scale(0.18 -0.18)">
      <use xlink:href="#DejaVuSans-52"/>
      <use xlink:href="#DejaVuSans-61" x="67.232422"/>
      <use xlink:href="#DejaVuSans-6e" x="128.511719"/>
      <use xlink:href="#DejaVuSans-64" x="191.890625"/>
      <use xlink:href="#DejaVuSans-6f" x="255.367188"/>
      <use xlink:href="#DejaVuSans-6d" x="316.548828"/>
     </g>
    </g>
    <g id="line2d_48">
     <path d="M 476.415313 427.075313 
L 494.415313 427.075313 
L 512.415313 427.075313 
" style="fill: none; stroke-dasharray: 5.55,2.4; stroke-dashoffset: 0; stroke: #0000ff; stroke-width: 1.5"/>
    </g>
    <g id="text_16">
     <!-- Independent Training -->
     <g transform="translate(526.815313 433.375313) scale(0.18 -0.18)">
      <defs>
       <path id="DejaVuSans-49" d="M 628 4666 
L 1259 4666 
L 1259 0 
L 628 0 
L 628 4666 
z
" transform="scale(0.015625)"/>
       <path id="DejaVuSans-70" d="M 1159 525 
L 1159 -1331 
L 581 -1331 
L 581 3500 
L 1159 3500 
L 1159 2969 
Q 1341 3281 1617 3432 
Q 1894 3584 2278 3584 
Q 2916 3584 3314 3078 
Q 3713 2572 3713 1747 
Q 3713 922 3314 415 
Q 2916 -91 2278 -91 
Q 1894 -91 1617 61 
Q 1341 213 1159 525 
z
M 3116 1747 
Q 3116 2381 2855 2742 
Q 2594 3103 2138 3103 
Q 1681 3103 1420 2742 
Q 1159 2381 1159 1747 
Q 1159 1113 1420 752 
Q 1681 391 2138 391 
Q 2594 391 2855 752 
Q 3116 1113 3116 1747 
z
" transform="scale(0.015625)"/>
       <path id="DejaVuSans-74" d="M 1172 4494 
L 1172 3500 
L 2356 3500 
L 2356 3053 
L 1172 3053 
L 1172 1153 
Q 1172 725 1289 603 
Q 1406 481 1766 481 
L 2356 481 
L 2356 0 
L 1766 0 
Q 1100 0 847 248 
Q 594 497 594 1153 
L 594 3053 
L 172 3053 
L 172 3500 
L 594 3500 
L 594 4494 
L 1172 4494 
z
" transform="scale(0.015625)"/>
       <path id="DejaVuSans-67" d="M 2906 1791 
Q 2906 2416 2648 2759 
Q 2391 3103 1925 3103 
Q 1463 3103 1205 2759 
Q 947 2416 947 1791 
Q 947 1169 1205 825 
Q 1463 481 1925 481 
Q 2391 481 2648 825 
Q 2906 1169 2906 1791 
z
M 3481 434 
Q 3481 -459 3084 -895 
Q 2688 -1331 1869 -1331 
Q 1566 -1331 1297 -1286 
Q 1028 -1241 775 -1147 
L 775 -588 
Q 1028 -725 1275 -790 
Q 1522 -856 1778 -856 
Q 2344 -856 2625 -561 
Q 2906 -266 2906 331 
L 2906 616 
Q 2728 306 2450 153 
Q 2172 0 1784 0 
Q 1141 0 747 490 
Q 353 981 353 1791 
Q 353 2603 747 3093 
Q 1141 3584 1784 3584 
Q 2172 3584 2450 3431 
Q 2728 3278 2906 2969 
L 2906 3500 
L 3481 3500 
L 3481 434 
z
" transform="scale(0.015625)"/>
      </defs>
      <use xlink:href="#DejaVuSans-49"/>
      <use xlink:href="#DejaVuSans-6e" x="29.492188"/>
      <use xlink:href="#DejaVuSans-64" x="92.871094"/>
      <use xlink:href="#DejaVuSans-65" x="156.347656"/>
      <use xlink:href="#DejaVuSans-70" x="217.871094"/>
      <use xlink:href="#DejaVuSans-65" x="281.347656"/>
      <use xlink:href="#DejaVuSans-6e" x="342.871094"/>
      <use xlink:href="#DejaVuSans-64" x="406.25"/>
      <use xlink:href="#DejaVuSans-65" x="469.726562"/>
      <use xlink:href="#DejaVuSans-6e" x="531.25"/>
      <use xlink:href="#DejaVuSans-74" x="594.628906"/>
      <use xlink:href="#DejaVuSans-20" x="633.837891"/>
      <use xlink:href="#DejaVuSans-54" x="665.625"/>
      <use xlink:href="#DejaVuSans-72" x="711.958984"/>
      <use xlink:href="#DejaVuSans-61" x="753.072266"/>
      <use xlink:href="#DejaVuSans-69" x="814.351562"/>
      <use xlink:href="#DejaVuSans-6e" x="842.134766"/>
      <use xlink:href="#DejaVuSans-69" x="905.513672"/>
      <use xlink:href="#DejaVuSans-6e" x="933.296875"/>
      <use xlink:href="#DejaVuSans-67" x="996.675781"/>
     </g>
    </g>
    <g id="line2d_49">
     <path d="M 476.415313 453.495938 
L 494.415313 453.495938 
L 512.415313 453.495938 
" style="fill: none; stroke-dasharray: 5.55,2.4; stroke-dashoffset: 0; stroke: #000000; stroke-width: 1.5"/>
    </g>
    <g id="text_17">
     <!-- Multi-task Training -->
     <g transform="translate(526.815313 459.795938) scale(0.18 -0.18)">
      <defs>
       <path id="DejaVuSans-6b" d="M 581 4863 
L 1159 4863 
L 1159 1991 
L 2875 3500 
L 3609 3500 
L 1753 1863 
L 3688 0 
L 2938 0 
L 1159 1709 
L 1159 0 
L 581 0 
L 581 4863 
z
" transform="scale(0.015625)"/>
      </defs>
      <use xlink:href="#DejaVuSans-4d"/>
      <use xlink:href="#DejaVuSans-75" x="86.279297"/>
      <use xlink:href="#DejaVuSans-6c" x="149.658203"/>
      <use xlink:href="#DejaVuSans-74" x="177.441406"/>
      <use xlink:href="#DejaVuSans-69" x="216.650391"/>
      <use xlink:href="#DejaVuSans-2d" x="244.433594"/>
      <use xlink:href="#DejaVuSans-74" x="280.517578"/>
      <use xlink:href="#DejaVuSans-61" x="319.726562"/>
      <use xlink:href="#DejaVuSans-73" x="381.005859"/>
      <use xlink:href="#DejaVuSans-6b" x="433.105469"/>
      <use xlink:href="#DejaVuSans-20" x="491.015625"/>
      <use xlink:href="#DejaVuSans-54" x="522.802734"/>
      <use xlink:href="#DejaVuSans-72" x="569.136719"/>
      <use xlink:href="#DejaVuSans-61" x="610.25"/>
      <use xlink:href="#DejaVuSans-69" x="671.529297"/>
      <use xlink:href="#DejaVuSans-6e" x="699.3125"/>
      <use xlink:href="#DejaVuSans-69" x="762.691406"/>
      <use xlink:href="#DejaVuSans-6e" x="790.474609"/>
      <use xlink:href="#DejaVuSans-67" x="853.853516"/>
     </g>
    </g>
    <g id="line2d_50">
     <path d="M 476.415313 479.916563 
L 494.415313 479.916563 
L 512.415313 479.916563 
" style="fill: none; stroke-dasharray: 5.55,2.4; stroke-dashoffset: 0; stroke: #ff0000; stroke-width: 1.5"/>
    </g>
    <g id="text_18">
     <!-- Stochastic Oracle -->
     <g transform="translate(526.815313 486.216563) scale(0.18 -0.18)">
      <defs>
       <path id="DejaVuSans-68" d="M 3513 2113 
L 3513 0 
L 2938 0 
L 2938 2094 
Q 2938 2591 2744 2837 
Q 2550 3084 2163 3084 
Q 1697 3084 1428 2787 
Q 1159 2491 1159 1978 
L 1159 0 
L 581 0 
L 581 4863 
L 1159 4863 
L 1159 2956 
Q 1366 3272 1645 3428 
Q 1925 3584 2291 3584 
Q 2894 3584 3203 3211 
Q 3513 2838 3513 2113 
z
" transform="scale(0.015625)"/>
      </defs>
      <use xlink:href="#DejaVuSans-53"/>
      <use xlink:href="#DejaVuSans-74" x="63.476562"/>
      <use xlink:href="#DejaVuSans-6f" x="102.685547"/>
      <use xlink:href="#DejaVuSans-63" x="163.867188"/>
      <use xlink:href="#DejaVuSans-68" x="218.847656"/>
      <use xlink:href="#DejaVuSans-61" x="282.226562"/>
      <use xlink:href="#DejaVuSans-73" x="343.505859"/>
      <use xlink:href="#DejaVuSans-74" x="395.605469"/>
      <use xlink:href="#DejaVuSans-69" x="434.814453"/>
      <use xlink:href="#DejaVuSans-63" x="462.597656"/>
      <use xlink:href="#DejaVuSans-20" x="517.578125"/>
      <use xlink:href="#DejaVuSans-4f" x="549.365234"/>
      <use xlink:href="#DejaVuSans-72" x="628.076172"/>
      <use xlink:href="#DejaVuSans-61" x="669.189453"/>
      <use xlink:href="#DejaVuSans-63" x="730.46875"/>
      <use xlink:href="#DejaVuSans-6c" x="785.449219"/>
      <use xlink:href="#DejaVuSans-65" x="813.232422"/>
     </g>
    </g>
   </g>
  </g>
 </g>
 <defs>
  <clipPath id="p98574bf554">
   <rect x="64.24625" y="7.2" width="669.6" height="498.96"/>
  </clipPath>
 </defs>
</svg>
