<?xml version="1.0" encoding="utf-8" standalone="no"?>
<!DOCTYPE svg PUBLIC "-//W3C//DTD SVG 1.1//EN"
  "http://www.w3.org/Graphics/SVG/1.1/DTD/svg11.dtd">
<svg xmlns:xlink="http://www.w3.org/1999/xlink" width="568.875312pt" height="389.977813pt" viewBox="0 0 568.875312 389.977813" xmlns="http://www.w3.org/2000/svg" version="1.1">
 <metadata>
  <rdf:RDF xmlns:dc="http://purl.org/dc/elements/1.1/" xmlns:cc="http://creativecommons.org/ns#" xmlns:rdf="http://www.w3.org/1999/02/22-rdf-syntax-ns#">
   <cc:Work>
    <dc:type rdf:resource="http://purl.org/dc/dcmitype/StillImage"/>
    <dc:date>2025-05-13T01:12:32.199320</dc:date>
    <dc:format>image/svg+xml</dc:format>
    <dc:creator>
     <cc:Agent>
      <dc:title>Matplotlib v3.9.4, https://matplotlib.org/</dc:title>
     </cc:Agent>
    </dc:creator>
   </cc:Work>
  </rdf:RDF>
 </metadata>
 <defs>
  <style type="text/css">*{stroke-linejoin: round; stroke-linecap: butt}</style>
 </defs>
 <g id="figure_1">
  <g id="patch_1">
   <path d="M 0 389.977813 
L 568.875312 389.977813 
L 568.875312 0 
L 0 0 
z
" style="fill: #ffffff"/>
  </g>
  <g id="axes_1">
   <g id="patch_2">
    <path d="M 59.475313 339.84 
L 561.675313 339.84 
L 561.675313 7.2 
L 59.475313 7.2 
z
" style="fill: #ffffff"/>
   </g>
   <g id="PolyCollection_1">
    <defs>
     <path id="m25a301a666" d="M 82.302585 -322.266111 
L 82.302585 -320.438747 
L 168.088309 -320.438747 
L 218.269741 -320.438747 
L 253.874033 -320.438747 
L 281.490868 -320.438747 
L 304.055465 -320.438747 
L 323.13356 -320.438747 
L 339.659757 -320.438747 
L 354.236896 -320.438747 
L 367.276592 -320.438747 
L 379.072431 -320.438747 
L 389.841189 -320.438747 
L 399.747485 -320.438747 
L 408.919284 -320.438747 
L 417.458023 -320.438747 
L 425.445481 -320.438747 
L 432.948544 -320.438747 
L 440.02262 -320.438747 
L 446.714122 -320.438747 
L 453.062316 -320.438747 
L 459.100715 -320.438747 
L 464.858155 -320.438747 
L 470.359623 -320.438747 
L 475.626913 -320.438747 
L 480.67915 -320.438747 
L 485.533209 -320.438747 
L 490.204052 -320.438747 
L 494.705008 -320.438747 
L 499.048002 -320.438747 
L 503.243747 -320.438747 
L 507.301902 -320.438747 
L 511.231205 -320.438747 
L 515.039587 -320.438747 
L 518.734268 -320.438747 
L 522.321842 -320.438747 
L 525.808344 -320.438747 
L 529.199314 -320.438747 
L 532.499846 -320.438747 
L 535.714641 -320.438747 
L 538.84804 -320.438747 
L 538.84804 -322.266111 
L 538.84804 -322.266111 
L 535.714641 -322.266111 
L 532.499846 -322.266111 
L 529.199314 -322.266111 
L 525.808344 -322.266111 
L 522.321842 -322.266111 
L 518.734268 -322.266111 
L 515.039587 -322.266111 
L 511.231205 -322.266111 
L 507.301902 -322.266111 
L 503.243747 -322.266111 
L 499.048002 -322.266111 
L 494.705008 -322.266111 
L 490.204052 -322.266111 
L 485.533209 -322.266111 
L 480.67915 -322.266111 
L 475.626913 -322.266111 
L 470.359623 -322.266111 
L 464.858155 -322.266111 
L 459.100715 -322.266111 
L 453.062316 -322.266111 
L 446.714122 -322.266111 
L 440.02262 -322.266111 
L 432.948544 -322.266111 
L 425.445481 -322.266111 
L 417.458023 -322.266111 
L 408.919284 -322.266111 
L 399.747485 -322.266111 
L 389.841189 -322.266111 
L 379.072431 -322.266111 
L 367.276592 -322.266111 
L 354.236896 -322.266111 
L 339.659757 -322.266111 
L 323.13356 -322.266111 
L 304.055465 -322.266111 
L 281.490868 -322.266111 
L 253.874033 -322.266111 
L 218.269741 -322.266111 
L 168.088309 -322.266111 
L 82.302585 -322.266111 
z
" style="stroke: #fdc086; stroke-opacity: 0.05"/>
    </defs>
    <g clip-path="url(#p95d2b60d2b)">
     <use xlink:href="#m25a301a666" x="0" y="389.977813" style="fill: #fdc086; fill-opacity: 0.05; stroke: #fdc086; stroke-opacity: 0.05"/>
    </g>
   </g>
   <g id="PolyCollection_2">
    <defs>
     <path id="m55de6b0d2d" d="M 82.302585 -241.93021 
L 82.302585 -120.664388 
L 168.088309 -165.892349 
L 218.269741 -281.535786 
L 253.874033 -332.000784 
L 281.490868 -332.000784 
L 304.055465 -332.000784 
L 323.13356 -332.900019 
L 339.659757 -357.182435 
L 354.236896 -357.182435 
L 367.276592 -357.182435 
L 379.072431 -357.182435 
L 389.841189 -357.182435 
L 399.747485 -357.182435 
L 408.919284 -357.182435 
L 417.458023 -357.182435 
L 425.445481 -357.182435 
L 432.948544 -357.182435 
L 440.02262 -357.182435 
L 446.714122 -357.182435 
L 453.062316 -357.182435 
L 459.100715 -357.182435 
L 464.858155 -357.182435 
L 470.359623 -357.182435 
L 475.626913 -357.182435 
L 480.67915 -357.182435 
L 485.533209 -357.182435 
L 490.204052 -357.182435 
L 494.705008 -357.182435 
L 499.048002 -357.182435 
L 503.243747 -357.182435 
L 507.301902 -357.182435 
L 511.231205 -357.182435 
L 515.039587 -357.182435 
L 518.734268 -357.182435 
L 522.321842 -357.182435 
L 525.808344 -357.182435 
L 529.199314 -357.182435 
L 532.499846 -357.182435 
L 535.714641 -357.182435 
L 538.84804 -357.182435 
L 538.84804 -358.396729 
L 538.84804 -358.396729 
L 535.714641 -358.396729 
L 532.499846 -358.396729 
L 529.199314 -358.396729 
L 525.808344 -358.396729 
L 522.321842 -358.396729 
L 518.734268 -358.396729 
L 515.039587 -358.396729 
L 511.231205 -358.396729 
L 507.301902 -358.396729 
L 503.243747 -358.396729 
L 499.048002 -358.396729 
L 494.705008 -358.396729 
L 490.204052 -358.396729 
L 485.533209 -358.396729 
L 480.67915 -358.396729 
L 475.626913 -358.396729 
L 470.359623 -358.396729 
L 464.858155 -358.396729 
L 459.100715 -358.396729 
L 453.062316 -358.396729 
L 446.714122 -358.396729 
L 440.02262 -358.396729 
L 432.948544 -358.396729 
L 425.445481 -358.396729 
L 417.458023 -358.396729 
L 408.919284 -358.396729 
L 399.747485 -358.396729 
L 389.841189 -358.396729 
L 379.072431 -358.396729 
L 367.276592 -358.396729 
L 354.236896 -358.396729 
L 339.659757 -358.396729 
L 323.13356 -362.562929 
L 304.055465 -359.121696 
L 281.490868 -359.121696 
L 253.874033 -359.121696 
L 218.269741 -367.629941 
L 168.088309 -364.740139 
L 82.302585 -241.93021 
z
" style="stroke: #beaed4; stroke-opacity: 0.05"/>
    </defs>
    <g clip-path="url(#p95d2b60d2b)">
     <use xlink:href="#m55de6b0d2d" x="0" y="389.977813" style="fill: #beaed4; fill-opacity: 0.05; stroke: #beaed4; stroke-opacity: 0.05"/>
    </g>
   </g>
   <g id="PolyCollection_3">
    <defs>
     <path id="m426977135f" d="M 82.302585 -302.893896 
L 82.302585 -135.036048 
L 168.088309 -235.740755 
L 218.269741 -279.534255 
L 253.874033 -304.065151 
L 281.490868 -314.812819 
L 304.055465 -324.455792 
L 323.13356 -330.987855 
L 339.659757 -334.962638 
L 354.236896 -338.746904 
L 367.276592 -342.135659 
L 379.072431 -344.764753 
L 389.841189 -345.566711 
L 399.747485 -346.75694 
L 408.919284 -348.552881 
L 417.458023 -349.233678 
L 425.445481 -349.963441 
L 432.948544 -350.648894 
L 440.02262 -351.103724 
L 446.714122 -351.43292 
L 453.062316 -351.772427 
L 459.100715 -352.437451 
L 464.858155 -352.796415 
L 470.359623 -353.227241 
L 475.626913 -353.459397 
L 480.67915 -353.633769 
L 485.533209 -353.776814 
L 490.204052 -353.919863 
L 494.705008 -354.123912 
L 499.048002 -354.190654 
L 503.243747 -354.442625 
L 507.301902 -354.574954 
L 511.231205 -354.80492 
L 515.039587 -354.975765 
L 518.734268 -355.099137 
L 522.321842 -355.201138 
L 525.808344 -355.38928 
L 529.199314 -355.545132 
L 532.499846 -355.602873 
L 535.714641 -355.687468 
L 538.84804 -355.796541 
L 538.84804 -357.80626 
L 538.84804 -357.80626 
L 535.714641 -357.805709 
L 532.499846 -357.787448 
L 529.199314 -357.720661 
L 525.808344 -357.687982 
L 522.321842 -357.687841 
L 518.734268 -357.679402 
L 515.039587 -357.672903 
L 511.231205 -357.681199 
L 507.301902 -357.656656 
L 503.243747 -357.607846 
L 499.048002 -357.611531 
L 494.705008 -357.520581 
L 490.204052 -357.511933 
L 485.533209 -357.510318 
L 480.67915 -357.443469 
L 475.626913 -357.363142 
L 470.359623 -357.227929 
L 464.858155 -357.169472 
L 459.100715 -357.055902 
L 453.062316 -356.94767 
L 446.714122 -356.786765 
L 440.02262 -356.622966 
L 432.948544 -356.268437 
L 425.445481 -356.087241 
L 417.458023 -355.75249 
L 408.919284 -355.608459 
L 399.747485 -355.580516 
L 389.841189 -355.180245 
L 379.072431 -354.925717 
L 367.276592 -354.804452 
L 354.236896 -354.649317 
L 339.659757 -354.74719 
L 323.13356 -354.120873 
L 304.055465 -352.715055 
L 281.490868 -351.695761 
L 253.874033 -349.682576 
L 218.269741 -344.614599 
L 168.088309 -333.17735 
L 82.302585 -302.893896 
z
" style="stroke: #7fc97f; stroke-opacity: 0.05"/>
    </defs>
    <g clip-path="url(#p95d2b60d2b)">
     <use xlink:href="#m426977135f" x="0" y="389.977813" style="fill: #7fc97f; fill-opacity: 0.05; stroke: #7fc97f; stroke-opacity: 0.05"/>
    </g>
   </g>
   <g id="PolyCollection_4">
    <defs>
     <path id="m5c01de35c9" d="M 82.302585 -322.687697 
L 82.302585 -65.257812 
L 168.088309 -208.445286 
L 218.269741 -272.053533 
L 253.874033 -301.795558 
L 281.490868 -321.52496 
L 304.055465 -329.770943 
L 323.13356 -338.436332 
L 339.659757 -342.660105 
L 354.236896 -345.607271 
L 367.276592 -347.66867 
L 379.072431 -349.197688 
L 389.841189 -350.355456 
L 399.747485 -350.892475 
L 408.919284 -351.542416 
L 417.458023 -352.154552 
L 425.445481 -352.696638 
L 432.948544 -353.090467 
L 440.02262 -353.426095 
L 446.714122 -353.805454 
L 453.062316 -353.992002 
L 459.100715 -354.195062 
L 464.858155 -354.376135 
L 470.359623 -354.649835 
L 475.626913 -354.780066 
L 480.67915 -355.00852 
L 485.533209 -355.091151 
L 490.204052 -355.134193 
L 494.705008 -355.237906 
L 499.048002 -355.340316 
L 503.243747 -355.636265 
L 507.301902 -355.75117 
L 511.231205 -355.838597 
L 515.039587 -355.929368 
L 518.734268 -356.011922 
L 522.321842 -356.060125 
L 525.808344 -356.13547 
L 529.199314 -356.228388 
L 532.499846 -356.32338 
L 535.714641 -356.347563 
L 538.84804 -356.416587 
L 538.84804 -358.005672 
L 538.84804 -358.005672 
L 535.714641 -358.016636 
L 532.499846 -358.003691 
L 529.199314 -357.979959 
L 525.808344 -357.965989 
L 522.321842 -357.937498 
L 518.734268 -357.91341 
L 515.039587 -357.884524 
L 511.231205 -357.87324 
L 507.301902 -357.83585 
L 503.243747 -357.809361 
L 499.048002 -357.890309 
L 494.705008 -357.84967 
L 490.204052 -357.819296 
L 485.533209 -357.762905 
L 480.67915 -357.705391 
L 475.626913 -357.747138 
L 470.359623 -357.703445 
L 464.858155 -357.712139 
L 459.100715 -357.679936 
L 453.062316 -357.651727 
L 446.714122 -357.561025 
L 440.02262 -357.468911 
L 432.948544 -357.476133 
L 425.445481 -357.395925 
L 417.458023 -357.333954 
L 408.919284 -357.408007 
L 399.747485 -357.43979 
L 389.841189 -357.449759 
L 379.072431 -357.375716 
L 367.276592 -357.595806 
L 354.236896 -357.918043 
L 339.659757 -358.347103 
L 323.13356 -358.354209 
L 304.055465 -360.254457 
L 281.490868 -360.306864 
L 253.874033 -362.438127 
L 218.269741 -363.508929 
L 168.088309 -358.670156 
L 82.302585 -322.687697 
z
" style="stroke: #bf5b17; stroke-opacity: 0.05"/>
    </defs>
    <g clip-path="url(#p95d2b60d2b)">
     <use xlink:href="#m5c01de35c9" x="0" y="389.977813" style="fill: #bf5b17; fill-opacity: 0.05; stroke: #bf5b17; stroke-opacity: 0.05"/>
    </g>
   </g>
   <g id="PolyCollection_5">
    <defs>
     <path id="m369c50a078" d="M 82.302585 -322.687697 
L 82.302585 -65.257812 
L 168.088309 -220.908637 
L 218.269741 -318.088643 
L 253.874033 -331.300055 
L 281.490868 -339.228619 
L 304.055465 -341.822179 
L 323.13356 -342.68761 
L 339.659757 -343.677918 
L 354.236896 -345.063922 
L 367.276592 -346.500528 
L 379.072431 -347.47555 
L 389.841189 -347.707612 
L 399.747485 -348.958803 
L 408.919284 -350.052726 
L 417.458023 -351.017008 
L 425.445481 -351.130409 
L 432.948544 -351.80285 
L 440.02262 -351.833935 
L 446.714122 -352.150521 
L 453.062316 -352.215115 
L 459.100715 -353.256077 
L 464.858155 -353.342779 
L 470.359623 -353.504984 
L 475.626913 -353.813032 
L 480.67915 -353.991738 
L 485.533209 -354.676242 
L 490.204052 -354.695243 
L 494.705008 -354.776131 
L 499.048002 -354.873923 
L 503.243747 -354.873923 
L 507.301902 -354.897956 
L 511.231205 -354.898068 
L 515.039587 -355.1944 
L 518.734268 -355.198309 
L 522.321842 -355.200642 
L 525.808344 -355.231493 
L 529.199314 -355.569935 
L 532.499846 -355.569935 
L 535.714641 -355.633455 
L 538.84804 -355.726825 
L 538.84804 -357.860622 
L 538.84804 -357.860622 
L 535.714641 -357.806238 
L 532.499846 -357.815918 
L 529.199314 -357.815918 
L 525.808344 -357.855451 
L 522.321842 -357.854366 
L 518.734268 -357.854511 
L 515.039587 -357.856847 
L 511.231205 -357.764133 
L 507.301902 -357.764179 
L 503.243747 -357.773657 
L 499.048002 -357.773657 
L 494.705008 -357.790627 
L 490.204052 -357.813672 
L 485.533209 -357.820821 
L 480.67915 -356.803125 
L 475.626913 -356.840603 
L 470.359623 -356.627868 
L 464.858155 -356.66232 
L 459.100715 -356.691339 
L 453.062316 -356.632023 
L 446.714122 -356.653239 
L 440.02262 -356.733126 
L 432.948544 -356.749571 
L 425.445481 -356.820189 
L 417.458023 -356.85791 
L 408.919284 -356.673395 
L 399.747485 -356.716466 
L 389.841189 -357.012726 
L 379.072431 -357.031417 
L 367.276592 -357.330278 
L 354.236896 -357.685655 
L 339.659757 -358.386976 
L 323.13356 -358.622822 
L 304.055465 -358.782338 
L 281.490868 -359.626261 
L 253.874033 -361.804146 
L 218.269741 -363.763615 
L 168.088309 -367.657813 
L 82.302585 -322.687697 
z
" style="stroke: #f0027f; stroke-opacity: 0.05"/>
    </defs>
    <g clip-path="url(#p95d2b60d2b)">
     <use xlink:href="#m369c50a078" x="0" y="389.977813" style="fill: #f0027f; fill-opacity: 0.05; stroke: #f0027f; stroke-opacity: 0.05"/>
    </g>
   </g>
   <g id="PolyCollection_6">
    <defs>
     <path id="mef8965eba0" d="M 82.302585 -322.687697 
L 82.302585 -65.257812 
L 168.088309 -220.908637 
L 218.269741 -318.088643 
L 253.874033 -331.300055 
L 281.490868 -339.228619 
L 304.055465 -341.822179 
L 323.13356 -342.734216 
L 339.659757 -343.718631 
L 354.236896 -345.131484 
L 367.276592 -346.572143 
L 379.072431 -347.580341 
L 389.841189 -347.825201 
L 399.747485 -349.065248 
L 408.919284 -350.009187 
L 417.458023 -350.940076 
L 425.445481 -351.098712 
L 432.948544 -351.728071 
L 440.02262 -351.892451 
L 446.714122 -352.217667 
L 453.062316 -352.306525 
L 459.100715 -353.304209 
L 464.858155 -353.375678 
L 470.359623 -353.525526 
L 475.626913 -353.808518 
L 480.67915 -354.003422 
L 485.533209 -354.602109 
L 490.204052 -354.625263 
L 494.705008 -354.724975 
L 499.048002 -354.823839 
L 503.243747 -354.825894 
L 507.301902 -354.865793 
L 511.231205 -354.873748 
L 515.039587 -355.157425 
L 518.734268 -355.17649 
L 522.321842 -355.206149 
L 525.808344 -355.232912 
L 529.199314 -355.55691 
L 532.499846 -355.559124 
L 535.714641 -355.636268 
L 538.84804 -355.741128 
L 538.84804 -357.813643 
L 538.84804 -357.813643 
L 535.714641 -357.754415 
L 532.499846 -357.748515 
L 529.199314 -357.74333 
L 525.808344 -357.797297 
L 522.321842 -357.793902 
L 518.734268 -357.786569 
L 515.039587 -357.781696 
L 511.231205 -357.672784 
L 507.301902 -357.670492 
L 503.243747 -357.648145 
L 499.048002 -357.646308 
L 494.705008 -357.661683 
L 490.204052 -357.683889 
L 485.533209 -357.673037 
L 480.67915 -356.934078 
L 475.626913 -356.950091 
L 470.359623 -356.779177 
L 464.858155 -356.805046 
L 459.100715 -356.823678 
L 453.062316 -356.76581 
L 446.714122 -356.719865 
L 440.02262 -356.748904 
L 432.948544 -356.775438 
L 425.445481 -356.850386 
L 417.458023 -356.85929 
L 408.919284 -356.729757 
L 399.747485 -356.862993 
L 389.841189 -357.173801 
L 379.072431 -357.175307 
L 367.276592 -357.455283 
L 354.236896 -357.797447 
L 339.659757 -358.445113 
L 323.13356 -358.680979 
L 304.055465 -358.782338 
L 281.490868 -359.626261 
L 253.874033 -361.804146 
L 218.269741 -363.763615 
L 168.088309 -367.657813 
L 82.302585 -322.687697 
z
" style="stroke: #f0027f; stroke-opacity: 0.05"/>
    </defs>
    <g clip-path="url(#p95d2b60d2b)">
     <use xlink:href="#mef8965eba0" x="0" y="389.977813" style="fill: #f0027f; fill-opacity: 0.05; stroke: #f0027f; stroke-opacity: 0.05"/>
    </g>
   </g>
   <g id="PolyCollection_7">
    <defs>
     <path id="mfb0ca107fe" d="M 82.302585 -322.687697 
L 82.302585 -65.257812 
L 168.088309 -208.445286 
L 218.269741 -272.053533 
L 253.874033 -297.291417 
L 281.490868 -316.048057 
L 304.055465 -325.258049 
L 323.13356 -332.537062 
L 339.659757 -337.431637 
L 354.236896 -339.839587 
L 367.276592 -343.431732 
L 379.072431 -345.314913 
L 389.841189 -346.077296 
L 399.747485 -347.51812 
L 408.919284 -348.399063 
L 417.458023 -349.127304 
L 425.445481 -350.155013 
L 432.948544 -350.763243 
L 440.02262 -351.667432 
L 446.714122 -352.368611 
L 453.062316 -352.782911 
L 459.100715 -353.371156 
L 464.858155 -353.533424 
L 470.359623 -353.944036 
L 475.626913 -354.113124 
L 480.67915 -354.204024 
L 485.533209 -354.347049 
L 490.204052 -354.647164 
L 494.705008 -354.735297 
L 499.048002 -354.787104 
L 503.243747 -355.331913 
L 507.301902 -355.535185 
L 511.231205 -355.650121 
L 515.039587 -355.73427 
L 518.734268 -355.77329 
L 522.321842 -355.865033 
L 525.808344 -355.95536 
L 529.199314 -356.138169 
L 532.499846 -356.149489 
L 535.714641 -356.187346 
L 538.84804 -356.233546 
L 538.84804 -358.132261 
L 538.84804 -358.132261 
L 535.714641 -358.108751 
L 532.499846 -358.071701 
L 529.199314 -358.054724 
L 525.808344 -358.043325 
L 522.321842 -358.050293 
L 518.734268 -358.034246 
L 515.039587 -358.006965 
L 511.231205 -357.964042 
L 507.301902 -357.939675 
L 503.243747 -357.939692 
L 499.048002 -358.219502 
L 494.705008 -358.1715 
L 490.204052 -358.086307 
L 485.533209 -358.150588 
L 480.67915 -358.089753 
L 475.626913 -358.061751 
L 470.359623 -357.989296 
L 464.858155 -358.096061 
L 459.100715 -357.99869 
L 453.062316 -357.946206 
L 446.714122 -357.881854 
L 440.02262 -358.100411 
L 432.948544 -358.325357 
L 425.445481 -358.446389 
L 417.458023 -358.343246 
L 408.919284 -358.310372 
L 399.747485 -358.366673 
L 389.841189 -358.226912 
L 379.072431 -358.05305 
L 367.276592 -357.9455 
L 354.236896 -358.548858 
L 339.659757 -357.951862 
L 323.13356 -358.46532 
L 304.055465 -359.551458 
L 281.490868 -359.97967 
L 253.874033 -361.768919 
L 218.269741 -363.508929 
L 168.088309 -358.670156 
L 82.302585 -322.687697 
z
" style="stroke: #bf5b17; stroke-opacity: 0.05"/>
    </defs>
    <g clip-path="url(#p95d2b60d2b)">
     <use xlink:href="#mfb0ca107fe" x="0" y="389.977813" style="fill: #bf5b17; fill-opacity: 0.05; stroke: #bf5b17; stroke-opacity: 0.05"/>
    </g>
   </g>
   <g id="PolyCollection_8">
    <defs>
     <path id="m6516060107" d="M 82.302585 -322.687697 
L 82.302585 -65.257812 
L 168.088309 -220.908637 
L 218.269741 -318.088643 
L 253.874033 -331.300055 
L 281.490868 -339.228619 
L 304.055465 -341.822179 
L 323.13356 -342.689842 
L 339.659757 -343.675992 
L 354.236896 -345.075251 
L 367.276592 -346.506659 
L 379.072431 -347.525621 
L 389.841189 -347.765593 
L 399.747485 -348.975515 
L 408.919284 -350.124494 
L 417.458023 -351.072979 
L 425.445481 -351.234383 
L 432.948544 -351.897536 
L 440.02262 -351.967494 
L 446.714122 -352.28717 
L 453.062316 -352.351587 
L 459.100715 -353.359863 
L 464.858155 -353.431699 
L 470.359623 -353.579352 
L 475.626913 -353.865042 
L 480.67915 -354.040318 
L 485.533209 -354.575883 
L 490.204052 -354.657795 
L 494.705008 -354.751707 
L 499.048002 -354.853512 
L 503.243747 -354.86009 
L 507.301902 -354.893677 
L 511.231205 -354.896594 
L 515.039587 -355.148907 
L 518.734268 -355.198416 
L 522.321842 -355.218402 
L 525.808344 -355.245743 
L 529.199314 -355.57059 
L 532.499846 -355.571628 
L 535.714641 -355.632876 
L 538.84804 -355.71931 
L 538.84804 -357.811899 
L 538.84804 -357.811899 
L 535.714641 -357.755656 
L 532.499846 -357.763438 
L 529.199314 -357.761714 
L 525.808344 -357.816029 
L 522.321842 -357.811329 
L 518.734268 -357.800629 
L 515.039587 -357.782189 
L 511.231205 -357.706382 
L 507.301902 -357.7061 
L 503.243747 -357.70248 
L 499.048002 -357.690019 
L 494.705008 -357.70057 
L 490.204052 -357.719055 
L 485.533209 -357.615879 
L 480.67915 -356.86574 
L 475.626913 -356.892733 
L 470.359623 -356.714746 
L 464.858155 -356.737714 
L 459.100715 -356.738116 
L 453.062316 -356.73798 
L 446.714122 -356.7591 
L 440.02262 -356.848747 
L 432.948544 -356.827565 
L 425.445481 -356.919458 
L 417.458023 -356.921921 
L 408.919284 -356.77821 
L 399.747485 -356.858049 
L 389.841189 -357.170112 
L 379.072431 -357.161072 
L 367.276592 -357.402659 
L 354.236896 -357.709845 
L 339.659757 -358.407684 
L 323.13356 -358.63176 
L 304.055465 -358.782338 
L 281.490868 -359.626261 
L 253.874033 -361.804146 
L 218.269741 -363.763615 
L 168.088309 -367.657813 
L 82.302585 -322.687697 
z
" style="stroke: #386cb0; stroke-opacity: 0.05"/>
    </defs>
    <g clip-path="url(#p95d2b60d2b)">
     <use xlink:href="#m6516060107" x="0" y="389.977813" style="fill: #386cb0; fill-opacity: 0.05; stroke: #386cb0; stroke-opacity: 0.05"/>
    </g>
   </g>
   <g id="PolyCollection_9">
    <defs>
     <path id="m40c00ec97e" d="M 82.302585 -344.819998 
L 82.302585 -313.21544 
L 168.088309 -342.336244 
L 218.269741 -350.062551 
L 253.874033 -353.268971 
L 281.490868 -355.285824 
L 304.055465 -356.089096 
L 323.13356 -356.696242 
L 339.659757 -357.237872 
L 354.236896 -357.513164 
L 367.276592 -357.685186 
L 379.072431 -357.847012 
L 389.841189 -357.954414 
L 399.747485 -358.021203 
L 408.919284 -358.061868 
L 417.458023 -358.092214 
L 425.445481 -358.122838 
L 432.948544 -358.143021 
L 440.02262 -358.153426 
L 446.714122 -358.171116 
L 453.062316 -358.179374 
L 459.100715 -358.190576 
L 464.858155 -358.193761 
L 470.359623 -358.199385 
L 475.626913 -358.201732 
L 480.67915 -358.205537 
L 485.533209 -358.207755 
L 490.204052 -358.209383 
L 494.705008 -358.21215 
L 499.048002 -358.213515 
L 503.243747 -358.214598 
L 507.301902 -358.215538 
L 511.231205 -358.216279 
L 515.039587 -358.2172 
L 518.734268 -358.217984 
L 522.321842 -358.218426 
L 525.808344 -358.218809 
L 529.199314 -358.219158 
L 532.499846 -358.219579 
L 535.714641 -358.219848 
L 538.84804 -358.220018 
L 538.84804 -358.222972 
L 538.84804 -358.222972 
L 535.714641 -358.222986 
L 532.499846 -358.223059 
L 529.199314 -358.223248 
L 525.808344 -358.223348 
L 522.321842 -358.22345 
L 518.734268 -358.22353 
L 515.039587 -358.223839 
L 511.231205 -358.22427 
L 507.301902 -358.22445 
L 503.243747 -358.224714 
L 499.048002 -358.224963 
L 494.705008 -358.225402 
L 490.204052 -358.227159 
L 485.533209 -358.227506 
L 480.67915 -358.228045 
L 475.626913 -358.229687 
L 470.359623 -358.229705 
L 464.858155 -358.232596 
L 459.100715 -358.232215 
L 453.062316 -358.238274 
L 446.714122 -358.238572 
L 440.02262 -358.244653 
L 432.948544 -358.24004 
L 425.445481 -358.241113 
L 417.458023 -358.248464 
L 408.919284 -358.246691 
L 399.747485 -358.243415 
L 389.841189 -358.243492 
L 379.072431 -358.266934 
L 367.276592 -358.318227 
L 354.236896 -358.332353 
L 339.659757 -358.370416 
L 323.13356 -358.48011 
L 304.055465 -358.482512 
L 281.490868 -358.213911 
L 253.874033 -357.747954 
L 218.269741 -356.481972 
L 168.088309 -354.085149 
L 82.302585 -344.819998 
z
" style="stroke: #666666; stroke-opacity: 0.05"/>
    </defs>
    <g clip-path="url(#p95d2b60d2b)">
     <use xlink:href="#m40c00ec97e" x="0" y="389.977813" style="fill: #666666; fill-opacity: 0.05; stroke: #666666; stroke-opacity: 0.05"/>
    </g>
   </g>
   <g id="matplotlib.axis_1">
    <g id="xtick_1">
     <g id="line2d_1">
      <path d="M 82.302585 339.84 
L 82.302585 7.2 
" clip-path="url(#p95d2b60d2b)" style="fill: none; stroke-dasharray: 1.85,0.8; stroke-dashoffset: 0; stroke: #b0b0b0; stroke-width: 0.5"/>
     </g>
     <g id="line2d_2">
      <defs>
       <path id="m2a311f0002" d="M 0 0 
L 0 3.5 
" style="stroke: #000000; stroke-width: 0.8"/>
      </defs>
      <g>
       <use xlink:href="#m2a311f0002" x="82.302585" y="339.84" style="stroke: #000000; stroke-width: 0.8"/>
      </g>
     </g>
     <g id="text_1">
      <!-- $\mathdefault{10^{0}}$ -->
      <g transform="translate(69.102585 358.237656) scale(0.15 -0.15)">
       <defs>
        <path id="DejaVuSans-31" d="M 794 531 
L 1825 531 
L 1825 4091 
L 703 3866 
L 703 4441 
L 1819 4666 
L 2450 4666 
L 2450 531 
L 3481 531 
L 3481 0 
L 794 0 
L 794 531 
z
" transform="scale(0.015625)"/>
        <path id="DejaVuSans-30" d="M 2034 4250 
Q 1547 4250 1301 3770 
Q 1056 3291 1056 2328 
Q 1056 1369 1301 889 
Q 1547 409 2034 409 
Q 2525 409 2770 889 
Q 3016 1369 3016 2328 
Q 3016 3291 2770 3770 
Q 2525 4250 2034 4250 
z
M 2034 4750 
Q 2819 4750 3233 4129 
Q 3647 3509 3647 2328 
Q 3647 1150 3233 529 
Q 2819 -91 2034 -91 
Q 1250 -91 836 529 
Q 422 1150 422 2328 
Q 422 3509 836 4129 
Q 1250 4750 2034 4750 
z
" transform="scale(0.015625)"/>
       </defs>
       <use xlink:href="#DejaVuSans-31" transform="translate(0 0.765625)"/>
       <use xlink:href="#DejaVuSans-30" transform="translate(63.623047 0.765625)"/>
       <use xlink:href="#DejaVuSans-30" transform="translate(128.203125 39.046875) scale(0.7)"/>
      </g>
     </g>
    </g>
    <g id="xtick_2">
     <g id="line2d_3">
      <path d="M 367.276592 339.84 
L 367.276592 7.2 
" clip-path="url(#p95d2b60d2b)" style="fill: none; stroke-dasharray: 1.85,0.8; stroke-dashoffset: 0; stroke: #b0b0b0; stroke-width: 0.5"/>
     </g>
     <g id="line2d_4">
      <g>
       <use xlink:href="#m2a311f0002" x="367.276592" y="339.84" style="stroke: #000000; stroke-width: 0.8"/>
      </g>
     </g>
     <g id="text_2">
      <!-- $\mathdefault{10^{1}}$ -->
      <g transform="translate(354.076592 358.237656) scale(0.15 -0.15)">
       <use xlink:href="#DejaVuSans-31" transform="translate(0 0.684375)"/>
       <use xlink:href="#DejaVuSans-30" transform="translate(63.623047 0.684375)"/>
       <use xlink:href="#DejaVuSans-31" transform="translate(128.203125 38.965625) scale(0.7)"/>
      </g>
     </g>
    </g>
    <g id="xtick_3">
     <g id="line2d_5">
      <defs>
       <path id="m54c377b837" d="M 0 0 
L 0 2 
" style="stroke: #000000; stroke-width: 0.6"/>
      </defs>
      <g>
       <use xlink:href="#m54c377b837" x="69.26289" y="339.84" style="stroke: #000000; stroke-width: 0.6"/>
      </g>
     </g>
    </g>
    <g id="xtick_4">
     <g id="line2d_6">
      <g>
       <use xlink:href="#m54c377b837" x="168.088309" y="339.84" style="stroke: #000000; stroke-width: 0.6"/>
      </g>
     </g>
    </g>
    <g id="xtick_5">
     <g id="line2d_7">
      <g>
       <use xlink:href="#m54c377b837" x="218.269741" y="339.84" style="stroke: #000000; stroke-width: 0.6"/>
      </g>
     </g>
    </g>
    <g id="xtick_6">
     <g id="line2d_8">
      <g>
       <use xlink:href="#m54c377b837" x="253.874033" y="339.84" style="stroke: #000000; stroke-width: 0.6"/>
      </g>
     </g>
    </g>
    <g id="xtick_7">
     <g id="line2d_9">
      <g>
       <use xlink:href="#m54c377b837" x="281.490868" y="339.84" style="stroke: #000000; stroke-width: 0.6"/>
      </g>
     </g>
    </g>
    <g id="xtick_8">
     <g id="line2d_10">
      <g>
       <use xlink:href="#m54c377b837" x="304.055465" y="339.84" style="stroke: #000000; stroke-width: 0.6"/>
      </g>
     </g>
    </g>
    <g id="xtick_9">
     <g id="line2d_11">
      <g>
       <use xlink:href="#m54c377b837" x="323.13356" y="339.84" style="stroke: #000000; stroke-width: 0.6"/>
      </g>
     </g>
    </g>
    <g id="xtick_10">
     <g id="line2d_12">
      <g>
       <use xlink:href="#m54c377b837" x="339.659757" y="339.84" style="stroke: #000000; stroke-width: 0.6"/>
      </g>
     </g>
    </g>
    <g id="xtick_11">
     <g id="line2d_13">
      <g>
       <use xlink:href="#m54c377b837" x="354.236896" y="339.84" style="stroke: #000000; stroke-width: 0.6"/>
      </g>
     </g>
    </g>
    <g id="xtick_12">
     <g id="line2d_14">
      <g>
       <use xlink:href="#m54c377b837" x="453.062316" y="339.84" style="stroke: #000000; stroke-width: 0.6"/>
      </g>
     </g>
    </g>
    <g id="xtick_13">
     <g id="line2d_15">
      <g>
       <use xlink:href="#m54c377b837" x="503.243747" y="339.84" style="stroke: #000000; stroke-width: 0.6"/>
      </g>
     </g>
    </g>
    <g id="xtick_14">
     <g id="line2d_16">
      <g>
       <use xlink:href="#m54c377b837" x="538.84804" y="339.84" style="stroke: #000000; stroke-width: 0.6"/>
      </g>
     </g>
    </g>
    <g id="text_3">
     <!-- Decision Round -->
     <g transform="translate(240.922344 379.034375) scale(0.18 -0.18)">
      <defs>
       <path id="DejaVuSans-44" d="M 1259 4147 
L 1259 519 
L 2022 519 
Q 2988 519 3436 956 
Q 3884 1394 3884 2338 
Q 3884 3275 3436 3711 
Q 2988 4147 2022 4147 
L 1259 4147 
z
M 628 4666 
L 1925 4666 
Q 3281 4666 3915 4102 
Q 4550 3538 4550 2338 
Q 4550 1131 3912 565 
Q 3275 0 1925 0 
L 628 0 
L 628 4666 
z
" transform="scale(0.015625)"/>
       <path id="DejaVuSans-65" d="M 3597 1894 
L 3597 1613 
L 953 1613 
Q 991 1019 1311 708 
Q 1631 397 2203 397 
Q 2534 397 2845 478 
Q 3156 559 3463 722 
L 3463 178 
Q 3153 47 2828 -22 
Q 2503 -91 2169 -91 
Q 1331 -91 842 396 
Q 353 884 353 1716 
Q 353 2575 817 3079 
Q 1281 3584 2069 3584 
Q 2775 3584 3186 3129 
Q 3597 2675 3597 1894 
z
M 3022 2063 
Q 3016 2534 2758 2815 
Q 2500 3097 2075 3097 
Q 1594 3097 1305 2825 
Q 1016 2553 972 2059 
L 3022 2063 
z
" transform="scale(0.015625)"/>
       <path id="DejaVuSans-63" d="M 3122 3366 
L 3122 2828 
Q 2878 2963 2633 3030 
Q 2388 3097 2138 3097 
Q 1578 3097 1268 2742 
Q 959 2388 959 1747 
Q 959 1106 1268 751 
Q 1578 397 2138 397 
Q 2388 397 2633 464 
Q 2878 531 3122 666 
L 3122 134 
Q 2881 22 2623 -34 
Q 2366 -91 2075 -91 
Q 1284 -91 818 406 
Q 353 903 353 1747 
Q 353 2603 823 3093 
Q 1294 3584 2113 3584 
Q 2378 3584 2631 3529 
Q 2884 3475 3122 3366 
z
" transform="scale(0.015625)"/>
       <path id="DejaVuSans-69" d="M 603 3500 
L 1178 3500 
L 1178 0 
L 603 0 
L 603 3500 
z
M 603 4863 
L 1178 4863 
L 1178 4134 
L 603 4134 
L 603 4863 
z
" transform="scale(0.015625)"/>
       <path id="DejaVuSans-73" d="M 2834 3397 
L 2834 2853 
Q 2591 2978 2328 3040 
Q 2066 3103 1784 3103 
Q 1356 3103 1142 2972 
Q 928 2841 928 2578 
Q 928 2378 1081 2264 
Q 1234 2150 1697 2047 
L 1894 2003 
Q 2506 1872 2764 1633 
Q 3022 1394 3022 966 
Q 3022 478 2636 193 
Q 2250 -91 1575 -91 
Q 1294 -91 989 -36 
Q 684 19 347 128 
L 347 722 
Q 666 556 975 473 
Q 1284 391 1588 391 
Q 1994 391 2212 530 
Q 2431 669 2431 922 
Q 2431 1156 2273 1281 
Q 2116 1406 1581 1522 
L 1381 1569 
Q 847 1681 609 1914 
Q 372 2147 372 2553 
Q 372 3047 722 3315 
Q 1072 3584 1716 3584 
Q 2034 3584 2315 3537 
Q 2597 3491 2834 3397 
z
" transform="scale(0.015625)"/>
       <path id="DejaVuSans-6f" d="M 1959 3097 
Q 1497 3097 1228 2736 
Q 959 2375 959 1747 
Q 959 1119 1226 758 
Q 1494 397 1959 397 
Q 2419 397 2687 759 
Q 2956 1122 2956 1747 
Q 2956 2369 2687 2733 
Q 2419 3097 1959 3097 
z
M 1959 3584 
Q 2709 3584 3137 3096 
Q 3566 2609 3566 1747 
Q 3566 888 3137 398 
Q 2709 -91 1959 -91 
Q 1206 -91 779 398 
Q 353 888 353 1747 
Q 353 2609 779 3096 
Q 1206 3584 1959 3584 
z
" transform="scale(0.015625)"/>
       <path id="DejaVuSans-6e" d="M 3513 2113 
L 3513 0 
L 2938 0 
L 2938 2094 
Q 2938 2591 2744 2837 
Q 2550 3084 2163 3084 
Q 1697 3084 1428 2787 
Q 1159 2491 1159 1978 
L 1159 0 
L 581 0 
L 581 3500 
L 1159 3500 
L 1159 2956 
Q 1366 3272 1645 3428 
Q 1925 3584 2291 3584 
Q 2894 3584 3203 3211 
Q 3513 2838 3513 2113 
z
" transform="scale(0.015625)"/>
       <path id="DejaVuSans-20" transform="scale(0.015625)"/>
       <path id="DejaVuSans-52" d="M 2841 2188 
Q 3044 2119 3236 1894 
Q 3428 1669 3622 1275 
L 4263 0 
L 3584 0 
L 2988 1197 
Q 2756 1666 2539 1819 
Q 2322 1972 1947 1972 
L 1259 1972 
L 1259 0 
L 628 0 
L 628 4666 
L 2053 4666 
Q 2853 4666 3247 4331 
Q 3641 3997 3641 3322 
Q 3641 2881 3436 2590 
Q 3231 2300 2841 2188 
z
M 1259 4147 
L 1259 2491 
L 2053 2491 
Q 2509 2491 2742 2702 
Q 2975 2913 2975 3322 
Q 2975 3731 2742 3939 
Q 2509 4147 2053 4147 
L 1259 4147 
z
" transform="scale(0.015625)"/>
       <path id="DejaVuSans-75" d="M 544 1381 
L 544 3500 
L 1119 3500 
L 1119 1403 
Q 1119 906 1312 657 
Q 1506 409 1894 409 
Q 2359 409 2629 706 
Q 2900 1003 2900 1516 
L 2900 3500 
L 3475 3500 
L 3475 0 
L 2900 0 
L 2900 538 
Q 2691 219 2414 64 
Q 2138 -91 1772 -91 
Q 1169 -91 856 284 
Q 544 659 544 1381 
z
M 1991 3584 
L 1991 3584 
z
" transform="scale(0.015625)"/>
       <path id="DejaVuSans-64" d="M 2906 2969 
L 2906 4863 
L 3481 4863 
L 3481 0 
L 2906 0 
L 2906 525 
Q 2725 213 2448 61 
Q 2172 -91 1784 -91 
Q 1150 -91 751 415 
Q 353 922 353 1747 
Q 353 2572 751 3078 
Q 1150 3584 1784 3584 
Q 2172 3584 2448 3432 
Q 2725 3281 2906 2969 
z
M 947 1747 
Q 947 1113 1208 752 
Q 1469 391 1925 391 
Q 2381 391 2643 752 
Q 2906 1113 2906 1747 
Q 2906 2381 2643 2742 
Q 2381 3103 1925 3103 
Q 1469 3103 1208 2742 
Q 947 2381 947 1747 
z
" transform="scale(0.015625)"/>
      </defs>
      <use xlink:href="#DejaVuSans-44"/>
      <use xlink:href="#DejaVuSans-65" x="77.001953"/>
      <use xlink:href="#DejaVuSans-63" x="138.525391"/>
      <use xlink:href="#DejaVuSans-69" x="193.505859"/>
      <use xlink:href="#DejaVuSans-73" x="221.289062"/>
      <use xlink:href="#DejaVuSans-69" x="273.388672"/>
      <use xlink:href="#DejaVuSans-6f" x="301.171875"/>
      <use xlink:href="#DejaVuSans-6e" x="362.353516"/>
      <use xlink:href="#DejaVuSans-20" x="425.732422"/>
      <use xlink:href="#DejaVuSans-52" x="457.519531"/>
      <use xlink:href="#DejaVuSans-6f" x="522.501953"/>
      <use xlink:href="#DejaVuSans-75" x="583.683594"/>
      <use xlink:href="#DejaVuSans-6e" x="647.0625"/>
      <use xlink:href="#DejaVuSans-64" x="710.441406"/>
     </g>
    </g>
   </g>
   <g id="matplotlib.axis_2">
    <g id="ytick_1">
     <g id="line2d_17">
      <path d="M 59.475313 313.511499 
L 561.675313 313.511499 
" clip-path="url(#p95d2b60d2b)" style="fill: none; stroke-dasharray: 1.85,0.8; stroke-dashoffset: 0; stroke: #b0b0b0; stroke-width: 0.5"/>
     </g>
     <g id="line2d_18">
      <defs>
       <path id="m9398653a4b" d="M 0 0 
L -3.5 0 
" style="stroke: #000000; stroke-width: 0.8"/>
      </defs>
      <g>
       <use xlink:href="#m9398653a4b" x="59.475313" y="313.511499" style="stroke: #000000; stroke-width: 0.8"/>
      </g>
     </g>
     <g id="text_4">
      <!-- 0.5 -->
      <g transform="translate(28.620625 319.210327) scale(0.15 -0.15)">
       <defs>
        <path id="DejaVuSans-2e" d="M 684 794 
L 1344 794 
L 1344 0 
L 684 0 
L 684 794 
z
" transform="scale(0.015625)"/>
        <path id="DejaVuSans-35" d="M 691 4666 
L 3169 4666 
L 3169 4134 
L 1269 4134 
L 1269 2991 
Q 1406 3038 1543 3061 
Q 1681 3084 1819 3084 
Q 2600 3084 3056 2656 
Q 3513 2228 3513 1497 
Q 3513 744 3044 326 
Q 2575 -91 1722 -91 
Q 1428 -91 1123 -41 
Q 819 9 494 109 
L 494 744 
Q 775 591 1075 516 
Q 1375 441 1709 441 
Q 2250 441 2565 725 
Q 2881 1009 2881 1497 
Q 2881 1984 2565 2268 
Q 2250 2553 1709 2553 
Q 1456 2553 1204 2497 
Q 953 2441 691 2322 
L 691 4666 
z
" transform="scale(0.015625)"/>
       </defs>
       <use xlink:href="#DejaVuSans-30"/>
       <use xlink:href="#DejaVuSans-2e" x="63.623047"/>
       <use xlink:href="#DejaVuSans-35" x="95.410156"/>
      </g>
     </g>
    </g>
    <g id="ytick_2">
     <g id="line2d_19">
      <path d="M 59.475313 257.160319 
L 561.675313 257.160319 
" clip-path="url(#p95d2b60d2b)" style="fill: none; stroke-dasharray: 1.85,0.8; stroke-dashoffset: 0; stroke: #b0b0b0; stroke-width: 0.5"/>
     </g>
     <g id="line2d_20">
      <g>
       <use xlink:href="#m9398653a4b" x="59.475313" y="257.160319" style="stroke: #000000; stroke-width: 0.8"/>
      </g>
     </g>
     <g id="text_5">
      <!-- 0.6 -->
      <g transform="translate(28.620625 262.859147) scale(0.15 -0.15)">
       <defs>
        <path id="DejaVuSans-36" d="M 2113 2584 
Q 1688 2584 1439 2293 
Q 1191 2003 1191 1497 
Q 1191 994 1439 701 
Q 1688 409 2113 409 
Q 2538 409 2786 701 
Q 3034 994 3034 1497 
Q 3034 2003 2786 2293 
Q 2538 2584 2113 2584 
z
M 3366 4563 
L 3366 3988 
Q 3128 4100 2886 4159 
Q 2644 4219 2406 4219 
Q 1781 4219 1451 3797 
Q 1122 3375 1075 2522 
Q 1259 2794 1537 2939 
Q 1816 3084 2150 3084 
Q 2853 3084 3261 2657 
Q 3669 2231 3669 1497 
Q 3669 778 3244 343 
Q 2819 -91 2113 -91 
Q 1303 -91 875 529 
Q 447 1150 447 2328 
Q 447 3434 972 4092 
Q 1497 4750 2381 4750 
Q 2619 4750 2861 4703 
Q 3103 4656 3366 4563 
z
" transform="scale(0.015625)"/>
       </defs>
       <use xlink:href="#DejaVuSans-30"/>
       <use xlink:href="#DejaVuSans-2e" x="63.623047"/>
       <use xlink:href="#DejaVuSans-36" x="95.410156"/>
      </g>
     </g>
    </g>
    <g id="ytick_3">
     <g id="line2d_21">
      <path d="M 59.475313 200.809139 
L 561.675313 200.809139 
" clip-path="url(#p95d2b60d2b)" style="fill: none; stroke-dasharray: 1.85,0.8; stroke-dashoffset: 0; stroke: #b0b0b0; stroke-width: 0.5"/>
     </g>
     <g id="line2d_22">
      <g>
       <use xlink:href="#m9398653a4b" x="59.475313" y="200.809139" style="stroke: #000000; stroke-width: 0.8"/>
      </g>
     </g>
     <g id="text_6">
      <!-- 0.7 -->
      <g transform="translate(28.620625 206.507967) scale(0.15 -0.15)">
       <defs>
        <path id="DejaVuSans-37" d="M 525 4666 
L 3525 4666 
L 3525 4397 
L 1831 0 
L 1172 0 
L 2766 4134 
L 525 4134 
L 525 4666 
z
" transform="scale(0.015625)"/>
       </defs>
       <use xlink:href="#DejaVuSans-30"/>
       <use xlink:href="#DejaVuSans-2e" x="63.623047"/>
       <use xlink:href="#DejaVuSans-37" x="95.410156"/>
      </g>
     </g>
    </g>
    <g id="ytick_4">
     <g id="line2d_23">
      <path d="M 59.475313 144.457959 
L 561.675313 144.457959 
" clip-path="url(#p95d2b60d2b)" style="fill: none; stroke-dasharray: 1.85,0.8; stroke-dashoffset: 0; stroke: #b0b0b0; stroke-width: 0.5"/>
     </g>
     <g id="line2d_24">
      <g>
       <use xlink:href="#m9398653a4b" x="59.475313" y="144.457959" style="stroke: #000000; stroke-width: 0.8"/>
      </g>
     </g>
     <g id="text_7">
      <!-- 0.8 -->
      <g transform="translate(28.620625 150.156787) scale(0.15 -0.15)">
       <defs>
        <path id="DejaVuSans-38" d="M 2034 2216 
Q 1584 2216 1326 1975 
Q 1069 1734 1069 1313 
Q 1069 891 1326 650 
Q 1584 409 2034 409 
Q 2484 409 2743 651 
Q 3003 894 3003 1313 
Q 3003 1734 2745 1975 
Q 2488 2216 2034 2216 
z
M 1403 2484 
Q 997 2584 770 2862 
Q 544 3141 544 3541 
Q 544 4100 942 4425 
Q 1341 4750 2034 4750 
Q 2731 4750 3128 4425 
Q 3525 4100 3525 3541 
Q 3525 3141 3298 2862 
Q 3072 2584 2669 2484 
Q 3125 2378 3379 2068 
Q 3634 1759 3634 1313 
Q 3634 634 3220 271 
Q 2806 -91 2034 -91 
Q 1263 -91 848 271 
Q 434 634 434 1313 
Q 434 1759 690 2068 
Q 947 2378 1403 2484 
z
M 1172 3481 
Q 1172 3119 1398 2916 
Q 1625 2713 2034 2713 
Q 2441 2713 2670 2916 
Q 2900 3119 2900 3481 
Q 2900 3844 2670 4047 
Q 2441 4250 2034 4250 
Q 1625 4250 1398 4047 
Q 1172 3844 1172 3481 
z
" transform="scale(0.015625)"/>
       </defs>
       <use xlink:href="#DejaVuSans-30"/>
       <use xlink:href="#DejaVuSans-2e" x="63.623047"/>
       <use xlink:href="#DejaVuSans-38" x="95.410156"/>
      </g>
     </g>
    </g>
    <g id="ytick_5">
     <g id="line2d_25">
      <path d="M 59.475313 88.106779 
L 561.675313 88.106779 
" clip-path="url(#p95d2b60d2b)" style="fill: none; stroke-dasharray: 1.85,0.8; stroke-dashoffset: 0; stroke: #b0b0b0; stroke-width: 0.5"/>
     </g>
     <g id="line2d_26">
      <g>
       <use xlink:href="#m9398653a4b" x="59.475313" y="88.106779" style="stroke: #000000; stroke-width: 0.8"/>
      </g>
     </g>
     <g id="text_8">
      <!-- 0.9 -->
      <g transform="translate(28.620625 93.805608) scale(0.15 -0.15)">
       <defs>
        <path id="DejaVuSans-39" d="M 703 97 
L 703 672 
Q 941 559 1184 500 
Q 1428 441 1663 441 
Q 2288 441 2617 861 
Q 2947 1281 2994 2138 
Q 2813 1869 2534 1725 
Q 2256 1581 1919 1581 
Q 1219 1581 811 2004 
Q 403 2428 403 3163 
Q 403 3881 828 4315 
Q 1253 4750 1959 4750 
Q 2769 4750 3195 4129 
Q 3622 3509 3622 2328 
Q 3622 1225 3098 567 
Q 2575 -91 1691 -91 
Q 1453 -91 1209 -44 
Q 966 3 703 97 
z
M 1959 2075 
Q 2384 2075 2632 2365 
Q 2881 2656 2881 3163 
Q 2881 3666 2632 3958 
Q 2384 4250 1959 4250 
Q 1534 4250 1286 3958 
Q 1038 3666 1038 3163 
Q 1038 2656 1286 2365 
Q 1534 2075 1959 2075 
z
" transform="scale(0.015625)"/>
       </defs>
       <use xlink:href="#DejaVuSans-30"/>
       <use xlink:href="#DejaVuSans-2e" x="63.623047"/>
       <use xlink:href="#DejaVuSans-39" x="95.410156"/>
      </g>
     </g>
    </g>
    <g id="ytick_6">
     <g id="line2d_27">
      <path d="M 59.475313 31.7556 
L 561.675313 31.7556 
" clip-path="url(#p95d2b60d2b)" style="fill: none; stroke-dasharray: 1.85,0.8; stroke-dashoffset: 0; stroke: #b0b0b0; stroke-width: 0.5"/>
     </g>
     <g id="line2d_28">
      <g>
       <use xlink:href="#m9398653a4b" x="59.475313" y="31.7556" style="stroke: #000000; stroke-width: 0.8"/>
      </g>
     </g>
     <g id="text_9">
      <!-- 1.0 -->
      <g transform="translate(28.620625 37.454428) scale(0.15 -0.15)">
       <use xlink:href="#DejaVuSans-31"/>
       <use xlink:href="#DejaVuSans-2e" x="63.623047"/>
       <use xlink:href="#DejaVuSans-30" x="95.410156"/>
      </g>
     </g>
    </g>
    <g id="text_10">
     <!-- Normalized Performance -->
     <g transform="translate(20.877187 284.447813) rotate(-90) scale(0.18 -0.18)">
      <defs>
       <path id="DejaVuSans-4e" d="M 628 4666 
L 1478 4666 
L 3547 763 
L 3547 4666 
L 4159 4666 
L 4159 0 
L 3309 0 
L 1241 3903 
L 1241 0 
L 628 0 
L 628 4666 
z
" transform="scale(0.015625)"/>
       <path id="DejaVuSans-72" d="M 2631 2963 
Q 2534 3019 2420 3045 
Q 2306 3072 2169 3072 
Q 1681 3072 1420 2755 
Q 1159 2438 1159 1844 
L 1159 0 
L 581 0 
L 581 3500 
L 1159 3500 
L 1159 2956 
Q 1341 3275 1631 3429 
Q 1922 3584 2338 3584 
Q 2397 3584 2469 3576 
Q 2541 3569 2628 3553 
L 2631 2963 
z
" transform="scale(0.015625)"/>
       <path id="DejaVuSans-6d" d="M 3328 2828 
Q 3544 3216 3844 3400 
Q 4144 3584 4550 3584 
Q 5097 3584 5394 3201 
Q 5691 2819 5691 2113 
L 5691 0 
L 5113 0 
L 5113 2094 
Q 5113 2597 4934 2840 
Q 4756 3084 4391 3084 
Q 3944 3084 3684 2787 
Q 3425 2491 3425 1978 
L 3425 0 
L 2847 0 
L 2847 2094 
Q 2847 2600 2669 2842 
Q 2491 3084 2119 3084 
Q 1678 3084 1418 2786 
Q 1159 2488 1159 1978 
L 1159 0 
L 581 0 
L 581 3500 
L 1159 3500 
L 1159 2956 
Q 1356 3278 1631 3431 
Q 1906 3584 2284 3584 
Q 2666 3584 2933 3390 
Q 3200 3197 3328 2828 
z
" transform="scale(0.015625)"/>
       <path id="DejaVuSans-61" d="M 2194 1759 
Q 1497 1759 1228 1600 
Q 959 1441 959 1056 
Q 959 750 1161 570 
Q 1363 391 1709 391 
Q 2188 391 2477 730 
Q 2766 1069 2766 1631 
L 2766 1759 
L 2194 1759 
z
M 3341 1997 
L 3341 0 
L 2766 0 
L 2766 531 
Q 2569 213 2275 61 
Q 1981 -91 1556 -91 
Q 1019 -91 701 211 
Q 384 513 384 1019 
Q 384 1609 779 1909 
Q 1175 2209 1959 2209 
L 2766 2209 
L 2766 2266 
Q 2766 2663 2505 2880 
Q 2244 3097 1772 3097 
Q 1472 3097 1187 3025 
Q 903 2953 641 2809 
L 641 3341 
Q 956 3463 1253 3523 
Q 1550 3584 1831 3584 
Q 2591 3584 2966 3190 
Q 3341 2797 3341 1997 
z
" transform="scale(0.015625)"/>
       <path id="DejaVuSans-6c" d="M 603 4863 
L 1178 4863 
L 1178 0 
L 603 0 
L 603 4863 
z
" transform="scale(0.015625)"/>
       <path id="DejaVuSans-7a" d="M 353 3500 
L 3084 3500 
L 3084 2975 
L 922 459 
L 3084 459 
L 3084 0 
L 275 0 
L 275 525 
L 2438 3041 
L 353 3041 
L 353 3500 
z
" transform="scale(0.015625)"/>
       <path id="DejaVuSans-50" d="M 1259 4147 
L 1259 2394 
L 2053 2394 
Q 2494 2394 2734 2622 
Q 2975 2850 2975 3272 
Q 2975 3691 2734 3919 
Q 2494 4147 2053 4147 
L 1259 4147 
z
M 628 4666 
L 2053 4666 
Q 2838 4666 3239 4311 
Q 3641 3956 3641 3272 
Q 3641 2581 3239 2228 
Q 2838 1875 2053 1875 
L 1259 1875 
L 1259 0 
L 628 0 
L 628 4666 
z
" transform="scale(0.015625)"/>
       <path id="DejaVuSans-66" d="M 2375 4863 
L 2375 4384 
L 1825 4384 
Q 1516 4384 1395 4259 
Q 1275 4134 1275 3809 
L 1275 3500 
L 2222 3500 
L 2222 3053 
L 1275 3053 
L 1275 0 
L 697 0 
L 697 3053 
L 147 3053 
L 147 3500 
L 697 3500 
L 697 3744 
Q 697 4328 969 4595 
Q 1241 4863 1831 4863 
L 2375 4863 
z
" transform="scale(0.015625)"/>
      </defs>
      <use xlink:href="#DejaVuSans-4e"/>
      <use xlink:href="#DejaVuSans-6f" x="74.804688"/>
      <use xlink:href="#DejaVuSans-72" x="135.986328"/>
      <use xlink:href="#DejaVuSans-6d" x="175.349609"/>
      <use xlink:href="#DejaVuSans-61" x="272.761719"/>
      <use xlink:href="#DejaVuSans-6c" x="334.041016"/>
      <use xlink:href="#DejaVuSans-69" x="361.824219"/>
      <use xlink:href="#DejaVuSans-7a" x="389.607422"/>
      <use xlink:href="#DejaVuSans-65" x="442.097656"/>
      <use xlink:href="#DejaVuSans-64" x="503.621094"/>
      <use xlink:href="#DejaVuSans-20" x="567.097656"/>
      <use xlink:href="#DejaVuSans-50" x="598.884766"/>
      <use xlink:href="#DejaVuSans-65" x="655.5625"/>
      <use xlink:href="#DejaVuSans-72" x="717.085938"/>
      <use xlink:href="#DejaVuSans-66" x="758.199219"/>
      <use xlink:href="#DejaVuSans-6f" x="793.404297"/>
      <use xlink:href="#DejaVuSans-72" x="854.585938"/>
      <use xlink:href="#DejaVuSans-6d" x="893.949219"/>
      <use xlink:href="#DejaVuSans-61" x="991.361328"/>
      <use xlink:href="#DejaVuSans-6e" x="1052.640625"/>
      <use xlink:href="#DejaVuSans-63" x="1116.019531"/>
      <use xlink:href="#DejaVuSans-65" x="1171"/>
     </g>
    </g>
   </g>
   <g id="line2d_29">
    <path d="M 82.302585 68.625384 
L 168.088309 68.625384 
L 218.269741 68.625384 
L 253.874033 68.625384 
L 281.490868 68.625384 
L 304.055465 68.625384 
L 323.13356 68.625384 
L 339.659757 68.625384 
L 354.236896 68.625384 
L 367.276592 68.625384 
L 379.072431 68.625384 
L 389.841189 68.625384 
L 399.747485 68.625384 
L 408.919284 68.625384 
L 417.458023 68.625384 
L 425.445481 68.625384 
L 432.948544 68.625384 
L 440.02262 68.625384 
L 446.714122 68.625384 
L 453.062316 68.625384 
L 459.100715 68.625384 
L 464.858155 68.625384 
L 470.359623 68.625384 
L 475.626913 68.625384 
L 480.67915 68.625384 
L 485.533209 68.625384 
L 490.204052 68.625384 
L 494.705008 68.625384 
L 499.048002 68.625384 
L 503.243747 68.625384 
L 507.301902 68.625384 
L 511.231205 68.625384 
L 515.039587 68.625384 
L 518.734268 68.625384 
L 522.321842 68.625384 
L 525.808344 68.625384 
L 529.199314 68.625384 
L 532.499846 68.625384 
L 535.714641 68.625384 
L 538.84804 68.625384 
" clip-path="url(#p95d2b60d2b)" style="fill: none; stroke-dasharray: 11.1,4.8; stroke-dashoffset: 0; stroke: #fdc086; stroke-width: 3"/>
   </g>
   <g id="line2d_30">
    <path d="M 82.302585 208.680514 
L 168.088309 124.661568 
L 218.269741 65.394949 
L 253.874033 44.416573 
L 281.490868 44.416573 
L 304.055465 44.416573 
L 323.13356 42.246339 
L 339.659757 32.18823 
L 354.236896 32.18823 
L 367.276592 32.18823 
L 379.072431 32.18823 
L 389.841189 32.18823 
L 399.747485 32.18823 
L 408.919284 32.18823 
L 417.458023 32.18823 
L 425.445481 32.18823 
L 432.948544 32.18823 
L 440.02262 32.18823 
L 446.714122 32.18823 
L 453.062316 32.18823 
L 459.100715 32.18823 
L 464.858155 32.18823 
L 470.359623 32.18823 
L 475.626913 32.18823 
L 480.67915 32.18823 
L 485.533209 32.18823 
L 490.204052 32.18823 
L 494.705008 32.18823 
L 499.048002 32.18823 
L 503.243747 32.18823 
L 507.301902 32.18823 
L 511.231205 32.18823 
L 515.039587 32.18823 
L 518.734268 32.18823 
L 522.321842 32.18823 
L 525.808344 32.18823 
L 529.199314 32.18823 
L 532.499846 32.18823 
L 535.714641 32.18823 
L 538.84804 32.18823 
" clip-path="url(#p95d2b60d2b)" style="fill: none; stroke-dasharray: 11.1,4.8; stroke-dashoffset: 0; stroke: #beaed4; stroke-width: 3"/>
   </g>
   <g id="line2d_31">
    <path d="M 82.302585 171.012841 
L 168.088309 105.51876 
L 218.269741 77.903386 
L 253.874033 63.103949 
L 281.490868 56.723522 
L 304.055465 51.392389 
L 323.13356 47.423449 
L 339.659757 45.122899 
L 354.236896 43.279702 
L 367.276592 41.507757 
L 379.072431 40.132577 
L 389.841189 39.604335 
L 399.747485 38.809085 
L 408.919284 37.897143 
L 417.458023 37.484728 
L 425.445481 36.952472 
L 432.948544 36.519147 
L 440.02262 36.114467 
L 446.714122 35.86797 
L 453.062316 35.617764 
L 459.100715 35.231136 
L 464.858155 34.994869 
L 470.359623 34.750227 
L 475.626913 34.566543 
L 480.67915 34.439193 
L 485.533209 34.334246 
L 490.204052 34.261915 
L 494.705008 34.155566 
L 499.048002 34.07672 
L 503.243747 33.952577 
L 507.301902 33.862008 
L 511.231205 33.734753 
L 515.039587 33.653478 
L 518.734268 33.588543 
L 522.321842 33.533323 
L 525.808344 33.439182 
L 529.199314 33.344916 
L 532.499846 33.282652 
L 535.714641 33.231224 
L 538.84804 33.176412 
" clip-path="url(#p95d2b60d2b)" style="fill: none; stroke: #7fc97f; stroke-width: 3; stroke-linecap: square"/>
   </g>
   <g id="line2d_32">
    <path d="M 82.302585 196.005058 
L 168.088309 106.420091 
L 218.269741 72.196581 
L 253.874033 57.86097 
L 281.490868 49.0619 
L 304.055465 44.965112 
L 323.13356 41.582542 
L 339.659757 39.474209 
L 354.236896 38.215156 
L 367.276592 37.345574 
L 379.072431 36.691111 
L 389.841189 36.075205 
L 399.747485 35.81168 
L 408.919284 35.502601 
L 417.458023 35.23356 
L 425.445481 34.931531 
L 432.948544 34.694512 
L 440.02262 34.53031 
L 446.714122 34.294573 
L 453.062316 34.155948 
L 459.100715 34.040314 
L 464.858155 33.933675 
L 470.359623 33.801172 
L 475.626913 33.71421 
L 480.67915 33.620857 
L 485.533209 33.550784 
L 490.204052 33.501068 
L 494.705008 33.434025 
L 499.048002 33.3625 
L 503.243747 33.254999 
L 507.301902 33.184302 
L 511.231205 33.121894 
L 515.039587 33.070866 
L 518.734268 33.015146 
L 522.321842 32.979001 
L 525.808344 32.927083 
L 529.199314 32.873639 
L 532.499846 32.814277 
L 535.714641 32.795713 
L 538.84804 32.766683 
" clip-path="url(#p95d2b60d2b)" style="fill: none; stroke: #bf5b17; stroke-width: 3; stroke-linecap: square"/>
   </g>
   <g id="line2d_33">
    <path d="M 82.302585 196.005058 
L 168.088309 95.694588 
L 218.269741 49.051684 
L 253.874033 43.425712 
L 281.490868 40.550373 
L 304.055465 39.675554 
L 323.13356 39.322596 
L 339.659757 38.945366 
L 354.236896 38.603024 
L 367.276592 38.062409 
L 379.072431 37.724329 
L 389.841189 37.617643 
L 399.747485 37.140178 
L 408.919284 36.614752 
L 417.458023 36.040353 
L 425.445481 36.002513 
L 432.948544 35.701602 
L 440.02262 35.694282 
L 446.714122 35.575933 
L 453.062316 35.554244 
L 459.100715 35.004104 
L 464.858155 34.975263 
L 470.359623 34.911386 
L 475.626913 34.650995 
L 480.67915 34.580381 
L 485.533209 33.729281 
L 490.204052 33.723355 
L 494.705008 33.694434 
L 499.048002 33.654023 
L 503.243747 33.654023 
L 507.301902 33.646745 
L 511.231205 33.646712 
L 515.039587 33.452189 
L 518.734268 33.451403 
L 522.321842 33.450308 
L 525.808344 33.43434 
L 529.199314 33.284886 
L 532.499846 33.284886 
L 535.714641 33.257966 
L 538.84804 33.184089 
" clip-path="url(#p95d2b60d2b)" style="fill: none; stroke: #f0027f; stroke-width: 3; stroke-linecap: square"/>
   </g>
   <g id="line2d_34">
    <path d="M 82.302585 196.005058 
L 168.088309 95.694588 
L 218.269741 49.051684 
L 253.874033 43.425712 
L 281.490868 40.550373 
L 304.055465 39.675554 
L 323.13356 39.270215 
L 339.659757 38.895941 
L 354.236896 38.513347 
L 367.276592 37.9641 
L 379.072431 37.599989 
L 389.841189 37.478312 
L 399.747485 37.013692 
L 408.919284 36.608341 
L 417.458023 36.07813 
L 425.445481 36.003263 
L 432.948544 35.726058 
L 440.02262 35.657135 
L 446.714122 35.509047 
L 453.062316 35.441645 
L 459.100715 34.913869 
L 464.858155 34.887451 
L 470.359623 34.825461 
L 475.626913 34.598508 
L 480.67915 34.509062 
L 485.533209 33.840239 
L 490.204052 33.823237 
L 494.705008 33.784484 
L 499.048002 33.742739 
L 503.243747 33.740793 
L 507.301902 33.70967 
L 511.231205 33.704547 
L 515.039587 33.508252 
L 518.734268 33.496283 
L 522.321842 33.477787 
L 525.808344 33.462708 
L 529.199314 33.327692 
L 532.499846 33.323993 
L 535.714641 33.282471 
L 538.84804 33.200427 
" clip-path="url(#p95d2b60d2b)" style="fill: none; stroke-dasharray: 11.1,4.8; stroke-dashoffset: 0; stroke: #f0027f; stroke-width: 3"/>
   </g>
   <g id="line2d_35">
    <path d="M 82.302585 196.005058 
L 168.088309 106.420091 
L 218.269741 72.196581 
L 253.874033 60.447645 
L 281.490868 51.963949 
L 304.055465 47.573059 
L 323.13356 44.476622 
L 339.659757 42.286063 
L 354.236896 40.78359 
L 367.276592 39.289197 
L 379.072431 38.293831 
L 389.841189 37.825708 
L 399.747485 37.035416 
L 408.919284 36.623095 
L 417.458023 36.242538 
L 425.445481 35.677112 
L 432.948544 35.433513 
L 440.02262 35.093891 
L 446.714122 34.85258 
L 453.062316 34.613254 
L 459.100715 34.292889 
L 464.858155 34.16307 
L 470.359623 34.011147 
L 475.626913 33.890375 
L 480.67915 33.830924 
L 485.533209 33.728994 
L 490.204052 33.611077 
L 494.705008 33.524414 
L 499.048002 33.47451 
L 503.243747 33.34201 
L 507.301902 33.240383 
L 511.231205 33.170731 
L 515.039587 33.107195 
L 518.734268 33.074044 
L 522.321842 33.02015 
L 525.808344 32.97847 
L 529.199314 32.881366 
L 532.499846 32.867218 
L 535.714641 32.829764 
L 538.84804 32.794909 
" clip-path="url(#p95d2b60d2b)" style="fill: none; stroke-dasharray: 11.1,4.8; stroke-dashoffset: 0; stroke: #bf5b17; stroke-width: 3"/>
   </g>
   <g id="line2d_36">
    <path d="M 82.302585 196.005058 
L 168.088309 95.694588 
L 218.269741 49.051684 
L 253.874033 43.425712 
L 281.490868 40.550373 
L 304.055465 39.675554 
L 323.13356 39.317012 
L 339.659757 38.935975 
L 354.236896 38.585264 
L 367.276592 38.023153 
L 379.072431 37.634466 
L 389.841189 37.50996 
L 399.747485 37.061031 
L 408.919284 36.52646 
L 417.458023 35.980362 
L 425.445481 35.900892 
L 432.948544 35.615262 
L 440.02262 35.569692 
L 446.714122 35.454678 
L 453.062316 35.433029 
L 459.100715 34.928823 
L 464.858155 34.893106 
L 470.359623 34.830763 
L 475.626913 34.598925 
L 480.67915 34.524784 
L 485.533209 33.881931 
L 490.204052 33.789388 
L 494.705008 33.751674 
L 499.048002 33.706047 
L 503.243747 33.696528 
L 507.301902 33.677924 
L 511.231205 33.676324 
L 515.039587 33.512264 
L 518.734268 33.47829 
L 522.321842 33.462947 
L 525.808344 33.446926 
L 529.199314 33.31166 
L 532.499846 33.310279 
L 535.714641 33.283547 
L 538.84804 33.212208 
" clip-path="url(#p95d2b60d2b)" style="fill: none; stroke: #386cb0; stroke-width: 3; stroke-linecap: square"/>
   </g>
   <g id="line2d_37">
    <path d="M 82.302585 60.960094 
L 168.088309 41.767116 
L 218.269741 36.705551 
L 253.874033 34.46935 
L 281.490868 33.227945 
L 304.055465 32.692009 
L 323.13356 32.389636 
L 339.659757 32.173669 
L 354.236896 32.055054 
L 367.276592 31.976106 
L 379.072431 31.920839 
L 389.841189 31.878859 
L 399.747485 31.845504 
L 408.919284 31.823533 
L 417.458023 31.807474 
L 425.445481 31.795837 
L 432.948544 31.786282 
L 440.02262 31.778773 
L 446.714122 31.772969 
L 453.062316 31.768988 
L 459.100715 31.766417 
L 464.858155 31.764634 
L 470.359623 31.763267 
L 475.626913 31.762103 
L 480.67915 31.761021 
L 485.533209 31.760182 
L 490.204052 31.759542 
L 494.705008 31.759037 
L 499.048002 31.758574 
L 503.243747 31.758156 
L 507.301902 31.757818 
L 511.231205 31.757538 
L 515.039587 31.757293 
L 518.734268 31.757056 
L 522.321842 31.756875 
L 525.808344 31.756734 
L 529.199314 31.75661 
L 532.499846 31.756494 
L 535.714641 31.756395 
L 538.84804 31.756318 
" clip-path="url(#p95d2b60d2b)" style="fill: none; stroke-dasharray: 11.1,4.8; stroke-dashoffset: 0; stroke: #666666; stroke-width: 3"/>
   </g>
   <g id="patch_3">
    <path d="M 59.475313 339.84 
L 59.475313 7.2 
" style="fill: none; stroke: #000000; stroke-width: 0.8; stroke-linejoin: miter; stroke-linecap: square"/>
   </g>
   <g id="patch_4">
    <path d="M 561.675313 339.84 
L 561.675313 7.2 
" style="fill: none; stroke: #000000; stroke-width: 0.8; stroke-linejoin: miter; stroke-linecap: square"/>
   </g>
   <g id="patch_5">
    <path d="M 59.475313 339.84 
L 561.675313 339.84 
" style="fill: none; stroke: #000000; stroke-width: 0.8; stroke-linejoin: miter; stroke-linecap: square"/>
   </g>
   <g id="patch_6">
    <path d="M 59.475313 7.2 
L 561.675313 7.2 
" style="fill: none; stroke: #000000; stroke-width: 0.8; stroke-linejoin: miter; stroke-linecap: square"/>
   </g>
  </g>
 </g>
 <defs>
  <clipPath id="p95d2b60d2b">
   <rect x="59.475313" y="7.2" width="502.2" height="332.64"/>
  </clipPath>
 </defs>
</svg>
