<?xml version="1.0" encoding="utf-8" standalone="no"?>
<!DOCTYPE svg PUBLIC "-//W3C//DTD SVG 1.1//EN"
  "http://www.w3.org/Graphics/SVG/1.1/DTD/svg11.dtd">
<svg xmlns:xlink="http://www.w3.org/1999/xlink" width="754.720625pt" height="559.20125pt" viewBox="0 0 754.720625 559.20125" xmlns="http://www.w3.org/2000/svg" version="1.1">
 <metadata>
  <rdf:RDF xmlns:dc="http://purl.org/dc/elements/1.1/" xmlns:cc="http://creativecommons.org/ns#" xmlns:rdf="http://www.w3.org/1999/02/22-rdf-syntax-ns#">
   <cc:Work>
    <dc:type rdf:resource="http://purl.org/dc/dcmitype/StillImage"/>
    <dc:date>2025-02-26T08:54:58.000423</dc:date>
    <dc:format>image/svg+xml</dc:format>
    <dc:creator>
     <cc:Agent>
      <dc:title>Matplotlib v3.9.4, https://matplotlib.org/</dc:title>
     </cc:Agent>
    </dc:creator>
   </cc:Work>
  </rdf:RDF>
 </metadata>
 <defs>
  <style type="text/css">*{stroke-linejoin: round; stroke-linecap: butt}</style>
 </defs>
 <g id="figure_1">
  <g id="patch_1">
   <path d="M 0 559.20125 
L 754.720625 559.20125 
L 754.720625 0 
L 0 0 
z
" style="fill: #ffffff"/>
  </g>
  <g id="axes_1">
   <g id="patch_2">
    <path d="M 77.920625 506.16 
L 747.520625 506.16 
L 747.520625 7.2 
L 77.920625 7.2 
z
" style="fill: #ffffff"/>
   </g>
   <g id="PolyCollection_1">
    <defs>
     <path id="m7f7ba1b152" d="M 108.356989 -78.645638 
L 108.356989 -75.72125 
L 110.744154 -263.362054 
L 113.13132 -288.011319 
L 115.518486 -307.304306 
L 117.905652 -322.968579 
L 120.292818 -326.789224 
L 122.679983 -333.094288 
L 125.067149 -338.849397 
L 127.454315 -343.921291 
L 129.841481 -346.664872 
L 132.228646 -348.585844 
L 134.615812 -351.849293 
L 137.002978 -354.657889 
L 139.390144 -358.750019 
L 141.777309 -360.840737 
L 144.164475 -363.040987 
L 146.551641 -365.589426 
L 148.938807 -367.336536 
L 151.325973 -369.178379 
L 153.713138 -370.718046 
L 156.100304 -372.730051 
L 158.48747 -374.757699 
L 160.874636 -376.490263 
L 163.261801 -378.371435 
L 165.648967 -380.178785 
L 168.036133 -381.887536 
L 170.423299 -383.468078 
L 172.810465 -385.026216 
L 175.19763 -386.363747 
L 177.584796 -387.729428 
L 179.971962 -389.046205 
L 182.359128 -390.606969 
L 184.746293 -392.150757 
L 187.133459 -393.668412 
L 189.520625 -395.123254 
L 191.907791 -396.460376 
L 194.294957 -397.887388 
L 196.682122 -399.262567 
L 199.069288 -400.456517 
L 201.456454 -401.687828 
L 203.84362 -402.86972 
L 206.230785 -404.20925 
L 208.617951 -405.513069 
L 211.005117 -406.836603 
L 213.392283 -408.094623 
L 215.779449 -409.277871 
L 218.166614 -410.508526 
L 220.55378 -411.641809 
L 222.940946 -412.803258 
L 225.328112 -413.907234 
L 227.715277 -415.006361 
L 230.102443 -416.031887 
L 232.489609 -417.197069 
L 234.876775 -418.359659 
L 237.263941 -419.419143 
L 239.651106 -420.486674 
L 242.038272 -421.442656 
L 244.425438 -422.396165 
L 246.812604 -423.311514 
L 249.199769 -424.230143 
L 251.586935 -425.113776 
L 253.974101 -426.005216 
L 256.361267 -426.940599 
L 258.748432 -427.9301 
L 261.135598 -428.849981 
L 263.522764 -429.807645 
L 265.90993 -430.660615 
L 268.297096 -431.535198 
L 270.684261 -432.350935 
L 273.071427 -433.175495 
L 275.458593 -433.972589 
L 277.845759 -434.743847 
L 280.232924 -435.539611 
L 282.62009 -436.347264 
L 285.007256 -437.187813 
L 287.394422 -437.997664 
L 289.781588 -438.816494 
L 292.168753 -439.59749 
L 294.555919 -440.406656 
L 296.943085 -441.154619 
L 299.330251 -441.904786 
L 301.717416 -442.657084 
L 304.104582 -443.353482 
L 306.491748 -444.141734 
L 308.878914 -444.901404 
L 311.26608 -445.653539 
L 313.653245 -446.371415 
L 316.040411 -447.083692 
L 318.427577 -447.841685 
L 320.814743 -448.558422 
L 323.201908 -449.227106 
L 325.589074 -449.867433 
L 327.97624 -450.531391 
L 330.363406 -451.158883 
L 332.750572 -451.784459 
L 335.137737 -452.422556 
L 337.524903 -453.033248 
L 339.912069 -453.628764 
L 342.299235 -454.222967 
L 344.6864 -454.830507 
L 347.073566 -455.398438 
L 349.460732 -455.959566 
L 351.847898 -456.502166 
L 354.235064 -457.041539 
L 356.622229 -457.597361 
L 359.009395 -458.119886 
L 361.396561 -458.662261 
L 363.783727 -459.182777 
L 366.170892 -459.689211 
L 368.558058 -460.194318 
L 370.945224 -460.689336 
L 373.33239 -461.187147 
L 375.719555 -461.685727 
L 378.106721 -462.158434 
L 380.493887 -462.661497 
L 382.881053 -463.11746 
L 385.268219 -463.572502 
L 387.655384 -464.02417 
L 390.04255 -464.481105 
L 392.429716 -464.921618 
L 394.816882 -465.368883 
L 397.204047 -465.795423 
L 399.591213 -466.209515 
L 401.978379 -466.641883 
L 404.365545 -467.064712 
L 406.752711 -467.465282 
L 409.139876 -467.885785 
L 411.527042 -468.385205 
L 413.914208 -468.883168 
L 416.301374 -469.382958 
L 418.688539 -469.864233 
L 421.075705 -470.340437 
L 423.462871 -470.829689 
L 425.850037 -471.284531 
L 428.237203 -471.751782 
L 430.624368 -472.234351 
L 433.011534 -472.699303 
L 435.3987 -473.130986 
L 437.785866 -473.576918 
L 440.173031 -474.013867 
L 442.560197 -474.449593 
L 444.947363 -474.866887 
L 447.334529 -475.272543 
L 449.721695 -475.680691 
L 452.10886 -476.085309 
L 454.496026 -476.497995 
L 456.883192 -476.907999 
L 459.270358 -477.305241 
L 461.657523 -477.694986 
L 464.044689 -478.093001 
L 466.431855 -478.591774 
L 468.819021 -479.096827 
L 471.206186 -479.563941 
L 473.593352 -480.01483 
L 475.980518 -480.462708 
L 478.367684 -480.929783 
L 480.75485 -481.378124 
L 483.142015 -481.808937 
L 485.529181 -482.280833 
L 487.916347 -482.728138 
L 490.303513 -483.356135 
L 492.690678 -483.999915 
L 495.077844 -484.627797 
L 497.46501 -485.11003 
L 499.852176 -485.548519 
L 502.239342 -485.938594 
L 504.626507 -486.371221 
L 507.013673 -486.753884 
L 509.400839 -487.200563 
L 511.788005 -487.621972 
L 514.17517 -488.062386 
L 516.562336 -488.492831 
L 518.949502 -488.935899 
L 521.336668 -489.346293 
L 523.723834 -489.772805 
L 526.110999 -490.197803 
L 528.498165 -490.633321 
L 530.885331 -491.068746 
L 533.272497 -491.465775 
L 535.659662 -491.868633 
L 538.046828 -492.267669 
L 540.433994 -492.666433 
L 542.82116 -493.072568 
L 545.208326 -493.466686 
L 547.595491 -493.859683 
L 549.982657 -494.220952 
L 552.369823 -494.5694 
L 554.756989 -494.944834 
L 557.144154 -495.331059 
L 559.53132 -495.67086 
L 561.918486 -496.02381 
L 564.305652 -496.371922 
L 566.692818 -496.740695 
L 569.079983 -497.118634 
L 571.467149 -497.465968 
L 573.854315 -497.817973 
L 576.241481 -498.165316 
L 578.628646 -498.49762 
L 581.015812 -498.841628 
L 583.402978 -499.166598 
L 585.790144 -499.510272 
L 588.177309 -499.849748 
L 590.564475 -500.1796 
L 592.951641 -500.511242 
L 595.338807 -500.844751 
L 597.725973 -501.153907 
L 600.113138 -501.477426 
L 602.500304 -501.798684 
L 604.88747 -502.101849 
L 607.274636 -502.393291 
L 609.661801 -502.69874 
L 612.048967 -503.001628 
L 614.436133 -503.296644 
L 616.823299 -503.59411 
L 619.210465 -503.897009 
L 621.59763 -504.19322 
L 623.984796 -504.47862 
L 626.371962 -504.755978 
L 628.759128 -505.034576 
L 631.146293 -505.310545 
L 633.533459 -505.565864 
L 635.920625 -505.834498 
L 638.307791 -506.103912 
L 640.694957 -506.387142 
L 643.082122 -506.673731 
L 645.469288 -506.961066 
L 647.856454 -507.222736 
L 650.24362 -507.476278 
L 652.630785 -507.747431 
L 655.017951 -508.015674 
L 657.405117 -508.288291 
L 659.792283 -508.552219 
L 662.179449 -508.7958 
L 664.566614 -509.058186 
L 666.95378 -509.327848 
L 669.340946 -509.580125 
L 671.728112 -509.839918 
L 674.115277 -510.09808 
L 676.502443 -510.354969 
L 678.889609 -510.615374 
L 681.276775 -510.857658 
L 683.663941 -511.109102 
L 686.051106 -511.365945 
L 688.438272 -511.608171 
L 690.825438 -511.866688 
L 693.212604 -512.10682 
L 695.599769 -512.352406 
L 697.986935 -512.605148 
L 700.374101 -512.853132 
L 702.761267 -513.096996 
L 705.148432 -513.311071 
L 707.535598 -513.520187 
L 709.922764 -513.753608 
L 712.30993 -513.973552 
L 714.697096 -514.20681 
L 717.084261 -514.451752 
L 717.084261 -521.45102 
L 717.084261 -521.45102 
L 714.697096 -521.204179 
L 712.30993 -520.975364 
L 709.922764 -520.741195 
L 707.535598 -520.495386 
L 705.148432 -520.261166 
L 702.761267 -520.052327 
L 700.374101 -519.814677 
L 697.986935 -519.565194 
L 695.599769 -519.325435 
L 693.212604 -519.072612 
L 690.825438 -518.826574 
L 688.438272 -518.570613 
L 686.051106 -518.320517 
L 683.663941 -518.078332 
L 681.276775 -517.795917 
L 678.889609 -517.537777 
L 676.502443 -517.270883 
L 674.115277 -517.008631 
L 671.728112 -516.735988 
L 669.340946 -516.484935 
L 666.95378 -516.168885 
L 664.566614 -515.90089 
L 662.179449 -515.624395 
L 659.792283 -515.340283 
L 657.405117 -515.051579 
L 655.017951 -514.758206 
L 652.630785 -514.458011 
L 650.24362 -514.173699 
L 647.856454 -513.875616 
L 645.469288 -513.585948 
L 643.082122 -513.290037 
L 640.694957 -512.979438 
L 638.307791 -512.684647 
L 635.920625 -512.384467 
L 633.533459 -512.098865 
L 631.146293 -511.791117 
L 628.759128 -511.492729 
L 626.371962 -511.187243 
L 623.984796 -510.881697 
L 621.59763 -510.568044 
L 619.210465 -510.251756 
L 616.823299 -509.970614 
L 614.436133 -509.654148 
L 612.048967 -509.326715 
L 609.661801 -508.991088 
L 607.274636 -508.658892 
L 604.88747 -508.336292 
L 602.500304 -508.016108 
L 600.113138 -507.704187 
L 597.725973 -507.350505 
L 595.338807 -507.022148 
L 592.951641 -506.68762 
L 590.564475 -506.346748 
L 588.177309 -505.990768 
L 585.790144 -505.635852 
L 583.402978 -505.281901 
L 581.015812 -504.895416 
L 578.628646 -504.519124 
L 576.241481 -504.120017 
L 573.854315 -503.750999 
L 571.467149 -503.374189 
L 569.079983 -503.003455 
L 566.692818 -502.650183 
L 564.305652 -502.277657 
L 561.918486 -501.872617 
L 559.53132 -501.489243 
L 557.144154 -501.113929 
L 554.756989 -500.736077 
L 552.369823 -500.338111 
L 549.982657 -499.938006 
L 547.595491 -499.532484 
L 545.208326 -499.122335 
L 542.82116 -498.72136 
L 540.433994 -498.328762 
L 538.046828 -497.896601 
L 535.659662 -497.510356 
L 533.272497 -497.13044 
L 530.885331 -496.717433 
L 528.498165 -496.312104 
L 526.110999 -495.920719 
L 523.723834 -495.484461 
L 521.336668 -495.080126 
L 518.949502 -494.616812 
L 516.562336 -494.193403 
L 514.17517 -493.756426 
L 511.788005 -493.301288 
L 509.400839 -492.866582 
L 507.013673 -492.403509 
L 504.626507 -491.91746 
L 502.239342 -491.495697 
L 499.852176 -490.996466 
L 497.46501 -490.546495 
L 495.077844 -490.055268 
L 492.690678 -489.338954 
L 490.303513 -488.630994 
L 487.916347 -487.879544 
L 485.529181 -487.413862 
L 483.142015 -486.927339 
L 480.75485 -486.445493 
L 478.367684 -485.993127 
L 475.980518 -485.484715 
L 473.593352 -484.980242 
L 471.206186 -484.470935 
L 468.819021 -483.958573 
L 466.431855 -483.450915 
L 464.044689 -482.90898 
L 461.657523 -482.480114 
L 459.270358 -482.07232 
L 456.883192 -481.650437 
L 454.496026 -481.224147 
L 452.10886 -480.788292 
L 449.721695 -480.336031 
L 447.334529 -479.894019 
L 444.947363 -479.458366 
L 442.560197 -479.02027 
L 440.173031 -478.57505 
L 437.785866 -478.124333 
L 435.3987 -477.67124 
L 433.011534 -477.194011 
L 430.624368 -476.722356 
L 428.237203 -476.24346 
L 425.850037 -475.754426 
L 423.462871 -475.278673 
L 421.075705 -474.786544 
L 418.688539 -474.256685 
L 416.301374 -473.754795 
L 413.914208 -473.241848 
L 411.527042 -472.726013 
L 409.139876 -472.202054 
L 406.752711 -471.803417 
L 404.365545 -471.390149 
L 401.978379 -470.970576 
L 399.591213 -470.561606 
L 397.204047 -470.142666 
L 394.816882 -469.721205 
L 392.429716 -469.290899 
L 390.04255 -468.868962 
L 387.655384 -468.425294 
L 385.268219 -467.986977 
L 382.881053 -467.528291 
L 380.493887 -467.069546 
L 378.106721 -466.612656 
L 375.719555 -466.145254 
L 373.33239 -465.66723 
L 370.945224 -465.20044 
L 368.558058 -464.724204 
L 366.170892 -464.235469 
L 363.783727 -463.734994 
L 361.396561 -463.236554 
L 359.009395 -462.733264 
L 356.622229 -462.210924 
L 354.235064 -461.694902 
L 351.847898 -461.152 
L 349.460732 -460.619059 
L 347.073566 -460.069783 
L 344.6864 -459.508162 
L 342.299235 -458.932078 
L 339.912069 -458.353158 
L 337.524903 -457.775704 
L 335.137737 -457.201053 
L 332.750572 -456.605074 
L 330.363406 -455.995075 
L 327.97624 -455.394163 
L 325.589074 -454.755961 
L 323.201908 -454.096385 
L 320.814743 -453.453219 
L 318.427577 -452.799599 
L 316.040411 -452.119098 
L 313.653245 -451.42685 
L 311.26608 -450.738676 
L 308.878914 -450.028662 
L 306.491748 -449.303768 
L 304.104582 -448.557736 
L 301.717416 -447.885618 
L 299.330251 -447.19377 
L 296.943085 -446.493277 
L 294.555919 -445.766902 
L 292.168753 -445.045114 
L 289.781588 -444.290001 
L 287.394422 -443.513113 
L 285.007256 -442.755681 
L 282.62009 -441.982245 
L 280.232924 -441.160221 
L 277.845759 -440.395346 
L 275.458593 -439.667655 
L 273.071427 -438.90666 
L 270.684261 -438.092678 
L 268.297096 -437.236034 
L 265.90993 -436.403565 
L 263.522764 -435.557208 
L 261.135598 -434.672381 
L 258.748432 -433.844275 
L 256.361267 -432.949139 
L 253.974101 -432.029267 
L 251.586935 -431.195935 
L 249.199769 -430.328905 
L 246.812604 -429.44305 
L 244.425438 -428.527342 
L 242.038272 -427.625499 
L 239.651106 -426.661715 
L 237.263941 -425.655203 
L 234.876775 -424.639181 
L 232.489609 -423.505609 
L 230.102443 -422.322373 
L 227.715277 -421.233605 
L 225.328112 -420.163349 
L 222.940946 -419.099721 
L 220.55378 -417.995143 
L 218.166614 -416.919211 
L 215.779449 -415.747245 
L 213.392283 -414.538832 
L 211.005117 -413.371929 
L 208.617951 -412.203993 
L 206.230785 -410.953135 
L 203.84362 -409.704611 
L 201.456454 -408.577408 
L 199.069288 -407.554985 
L 196.682122 -406.354674 
L 194.294957 -405.218402 
L 191.907791 -403.915536 
L 189.520625 -402.649882 
L 187.133459 -401.371396 
L 184.746293 -399.955908 
L 182.359128 -398.678018 
L 179.971962 -397.197504 
L 177.584796 -396.038666 
L 175.19763 -394.835209 
L 172.810465 -393.625412 
L 170.423299 -392.29194 
L 168.036133 -390.971106 
L 165.648967 -389.605764 
L 163.261801 -388.079305 
L 160.874636 -386.623391 
L 158.48747 -385.107188 
L 156.100304 -383.517581 
L 153.713138 -381.749856 
L 151.325973 -380.402611 
L 148.938807 -379.047209 
L 146.551641 -377.601579 
L 144.164475 -375.947724 
L 141.777309 -374.361338 
L 139.390144 -371.358348 
L 137.002978 -369.061791 
L 134.615812 -366.725556 
L 132.228646 -362.084454 
L 129.841481 -357.297284 
L 127.454315 -354.726894 
L 125.067149 -350.238326 
L 122.679983 -346.059904 
L 120.292818 -341.969036 
L 117.905652 -325.916893 
L 115.518486 -310.228727 
L 113.13132 -290.925555 
L 110.744154 -266.28514 
L 108.356989 -78.645638 
z
" style="stroke: #ff0000; stroke-opacity: 0.1"/>
    </defs>
    <g clip-path="url(#p4931ab43ec)">
     <use xlink:href="#m7f7ba1b152" x="0" y="559.20125" style="fill: #ff0000; fill-opacity: 0.1; stroke: #ff0000; stroke-opacity: 0.1"/>
    </g>
   </g>
   <g id="PolyCollection_2">
    <path d="M 108.356989 399.327275 
L 108.356989 85080.391357 
L 110.744154 255.945404 
L 113.13132 245.411843 
L 115.518486 234.39777 
L 117.905652 223.786451 
L 120.292818 219.385224 
L 122.679983 214.318972 
L 125.067149 210.63596 
L 127.454315 207.070827 
L 129.841481 205.049715 
L 132.228646 203.171791 
L 134.615812 201.547793 
L 137.002978 199.612509 
L 139.390144 197.303113 
L 141.777309 195.585852 
L 144.164475 194.355424 
L 146.551641 192.862328 
L 148.938807 191.888396 
L 151.325973 191.045939 
L 153.713138 189.813687 
L 156.100304 188.306656 
L 158.48747 187.482793 
L 160.874636 186.48113 
L 163.261801 185.295747 
L 165.648967 184.396294 
L 168.036133 183.748472 
L 170.423299 182.819698 
L 172.810465 181.950471 
L 175.19763 181.037722 
L 177.584796 180.363033 
L 179.971962 179.578538 
L 182.359128 178.857725 
L 184.746293 178.302908 
L 187.133459 177.826826 
L 189.520625 177.305883 
L 191.907791 176.785331 
L 194.294957 176.114107 
L 196.682122 175.452061 
L 199.069288 174.907672 
L 201.456454 174.074437 
L 203.84362 173.72278 
L 206.230785 173.220491 
L 208.617951 172.604567 
L 211.005117 172.148986 
L 213.392283 171.783912 
L 215.779449 171.37289 
L 218.166614 170.937931 
L 220.55378 170.518762 
L 222.940946 170.19309 
L 225.328112 169.702438 
L 227.715277 169.407508 
L 230.102443 168.827336 
L 232.489609 168.407388 
L 234.876775 167.806284 
L 237.263941 167.301176 
L 239.651106 166.756081 
L 242.038272 166.336774 
L 244.425438 165.91813 
L 246.812604 165.424932 
L 249.199769 165.003403 
L 251.586935 164.545385 
L 253.974101 163.832779 
L 256.361267 163.376204 
L 258.748432 162.940988 
L 261.135598 162.601158 
L 263.522764 162.19063 
L 265.90993 161.905772 
L 268.297096 161.61275 
L 270.684261 161.204432 
L 273.071427 160.910872 
L 275.458593 160.378944 
L 277.845759 159.948319 
L 280.232924 159.585024 
L 282.62009 159.262251 
L 285.007256 158.952799 
L 287.394422 158.669937 
L 289.781588 158.115475 
L 292.168753 157.612345 
L 294.555919 157.210641 
L 296.943085 157.05174 
L 299.330251 156.896098 
L 301.717416 156.564687 
L 304.104582 156.231767 
L 306.491748 155.808236 
L 308.878914 155.354882 
L 311.26608 155.142244 
L 313.653245 154.90843 
L 316.040411 154.62197 
L 318.427577 154.36635 
L 320.814743 154.083149 
L 323.201908 153.778842 
L 325.589074 153.421214 
L 327.97624 153.172505 
L 330.363406 152.948614 
L 332.750572 152.594557 
L 335.137737 152.38363 
L 337.524903 152.085799 
L 339.912069 151.86557 
L 342.299235 151.69305 
L 344.6864 151.424492 
L 347.073566 151.195343 
L 349.460732 150.901816 
L 351.847898 150.474328 
L 354.235064 150.176224 
L 356.622229 149.858406 
L 359.009395 149.628402 
L 361.396561 149.289386 
L 363.783727 149.150828 
L 366.170892 148.86953 
L 368.558058 148.594937 
L 370.945224 148.380223 
L 373.33239 148.151951 
L 375.719555 147.897771 
L 378.106721 147.658757 
L 380.493887 147.534568 
L 382.881053 147.406498 
L 385.268219 147.177831 
L 387.655384 147.056149 
L 390.04255 146.863942 
L 392.429716 146.596425 
L 394.816882 146.285142 
L 397.204047 146.081115 
L 399.591213 145.947037 
L 401.978379 145.73379 
L 404.365545 145.658363 
L 406.752711 145.601269 
L 409.139876 145.544304 
L 411.527042 145.468427 
L 413.914208 145.382385 
L 416.301374 145.306835 
L 418.688539 145.210677 
L 421.075705 145.152523 
L 423.462871 145.039829 
L 425.850037 144.971646 
L 428.237203 144.922352 
L 430.624368 144.834603 
L 433.011534 144.765264 
L 435.3987 144.68716 
L 437.785866 144.617856 
L 440.173031 144.530268 
L 442.560197 144.480142 
L 444.947363 144.410236 
L 447.334529 144.339723 
L 449.721695 144.259507 
L 452.10886 144.179358 
L 454.496026 144.0974 
L 456.883192 144.016698 
L 459.270358 143.915493 
L 461.657523 143.80472 
L 464.044689 143.604431 
L 466.431855 143.492085 
L 468.819021 143.390086 
L 471.206186 143.278745 
L 473.593352 143.217381 
L 475.980518 143.085309 
L 478.367684 142.992842 
L 480.75485 142.929574 
L 483.142015 142.805015 
L 485.529181 142.709335 
L 487.916347 142.614418 
L 490.303513 142.529662 
L 492.690678 142.424472 
L 495.077844 142.330002 
L 497.46501 142.235548 
L 499.852176 142.118134 
L 502.239342 142.021705 
L 504.626507 141.925287 
L 507.013673 141.838462 
L 509.400839 141.698818 
L 511.788005 141.579913 
L 514.17517 141.49271 
L 516.562336 141.383889 
L 518.949502 141.297148 
L 521.336668 141.187985 
L 523.723834 141.101247 
L 526.110999 141.002801 
L 528.498165 140.89299 
L 530.885331 140.793926 
L 533.272497 140.684459 
L 535.659662 140.607756 
L 538.046828 140.518915 
L 540.433994 140.419955 
L 542.82116 140.342448 
L 545.208326 140.280713 
L 547.595491 140.206725 
L 549.982657 140.089503 
L 552.369823 140.015852 
L 554.756989 139.931009 
L 557.144154 139.834647 
L 559.53132 139.749703 
L 561.918486 139.664218 
L 564.305652 139.589001 
L 566.692818 139.492376 
L 569.079983 139.417917 
L 571.467149 139.332266 
L 573.854315 139.213182 
L 576.241481 139.114805 
L 578.628646 139.050489 
L 581.015812 138.986908 
L 583.402978 138.888128 
L 585.790144 138.800808 
L 588.177309 138.725688 
L 590.564475 138.591719 
L 592.951641 138.470287 
L 595.338807 138.348478 
L 597.725973 138.226922 
L 600.113138 138.140167 
L 602.500304 138.041172 
L 604.88747 137.97821 
L 607.274636 137.879663 
L 609.661801 137.791343 
L 612.048967 137.715638 
L 614.436133 137.639628 
L 616.823299 137.562804 
L 619.210465 137.475739 
L 621.59763 137.340069 
L 623.984796 137.216375 
L 626.371962 137.128247 
L 628.759128 137.063771 
L 631.146293 136.98686 
L 633.533459 136.922494 
L 635.920625 136.809501 
L 638.307791 136.722572 
L 640.694957 136.599096 
L 643.082122 136.498981 
L 645.469288 136.398523 
L 647.856454 136.297593 
L 650.24362 136.18464 
L 652.630785 136.084988 
L 655.017951 135.971056 
L 657.405117 135.846169 
L 659.792283 135.708904 
L 662.179449 135.620777 
L 664.566614 135.519726 
L 666.95378 135.442535 
L 669.340946 135.365286 
L 671.728112 135.28872 
L 674.115277 135.187564 
L 676.502443 135.074431 
L 678.889609 134.961773 
L 681.276775 134.811769 
L 683.663941 134.672791 
L 686.051106 134.57048 
L 688.438272 134.468776 
L 690.825438 134.391159 
L 693.212604 134.276696 
L 695.599769 134.198785 
L 697.986935 134.121438 
L 700.374101 134.032304 
L 702.761267 133.869073 
L 705.148432 133.790878 
L 707.535598 133.675954 
L 709.922764 133.597267 
L 712.30993 133.507184 
L 714.697096 133.403494 
L 717.084261 133.311975 
L 717.084261 130.969115 
L 717.084261 130.969115 
L 714.697096 131.059744 
L 712.30993 131.162126 
L 709.922764 131.250979 
L 707.535598 131.328637 
L 705.148432 131.442031 
L 702.761267 131.519399 
L 700.374101 131.680543 
L 697.986935 131.768819 
L 695.599769 131.845495 
L 693.212604 131.922782 
L 690.825438 132.036325 
L 688.438272 132.113446 
L 686.051106 132.214454 
L 683.663941 132.315738 
L 681.276775 132.45314 
L 678.889609 132.601522 
L 676.502443 132.713062 
L 674.115277 132.825159 
L 671.728112 132.925374 
L 669.340946 133.001559 
L 666.95378 133.07863 
L 664.566614 133.155538 
L 662.179449 133.256203 
L 659.792283 133.343931 
L 657.405117 133.480052 
L 655.017951 133.603836 
L 652.630785 133.716794 
L 650.24362 133.81595 
L 647.856454 133.927953 
L 645.469288 134.028147 
L 643.082122 134.127884 
L 640.694957 134.227174 
L 638.307791 134.349656 
L 635.920625 134.436031 
L 633.533459 134.548054 
L 631.146293 134.611964 
L 628.759128 134.688203 
L 626.371962 134.752488 
L 623.984796 134.840167 
L 621.59763 134.962889 
L 619.210465 135.097131 
L 616.823299 135.183409 
L 614.436133 135.259609 
L 612.048967 135.335066 
L 609.661801 135.410189 
L 607.274636 135.497617 
L 604.88747 135.594842 
L 602.500304 135.657276 
L 600.113138 135.754669 
L 597.725973 135.840304 
L 595.338807 135.960038 
L 592.951641 136.08027 
L 590.564475 136.200032 
L 588.177309 136.332393 
L 585.790144 136.406888 
L 583.402978 136.493813 
L 581.015812 136.591547 
L 578.628646 136.65463 
L 576.241481 136.718646 
L 573.854315 136.81591 
L 571.467149 136.933804 
L 569.079983 137.018939 
L 566.692818 137.093024 
L 564.305652 137.188797 
L 561.918486 137.263723 
L 559.53132 137.348452 
L 557.144154 137.432569 
L 554.756989 137.528137 
L 552.369823 137.61242 
L 549.982657 137.685407 
L 547.595491 137.801191 
L 545.208326 137.874624 
L 542.82116 137.935778 
L 540.433994 138.012701 
L 538.046828 138.11028 
L 535.659662 138.197798 
L 533.272497 138.273531 
L 530.885331 138.381722 
L 528.498165 138.479377 
L 526.110999 138.587818 
L 523.723834 138.685024 
L 521.336668 138.77067 
L 518.949502 138.878052 
L 516.562336 138.963997 
L 514.17517 139.07165 
L 511.788005 139.157948 
L 509.400839 139.27582 
L 507.013673 139.413943 
L 504.626507 139.500198 
L 502.239342 139.595713 
L 499.852176 139.691336 
L 497.46501 139.80755 
L 495.077844 139.901436 
L 492.690678 139.99527 
L 490.303513 140.099635 
L 487.916347 140.184209 
L 485.529181 140.278591 
L 483.142015 140.373666 
L 480.75485 140.497063 
L 478.367684 140.559991 
L 475.980518 140.651857 
L 473.593352 140.782576 
L 471.206186 140.843643 
L 468.819021 140.953718 
L 466.431855 141.054848 
L 464.044689 141.165978 
L 461.657523 141.363876 
L 459.270358 141.474271 
L 456.883192 141.575019 
L 454.496026 141.655493 
L 452.10886 141.737377 
L 449.721695 141.817381 
L 447.334529 141.897466 
L 444.947363 141.9681 
L 442.560197 142.03789 
L 440.173031 142.088035 
L 437.785866 142.175388 
L 435.3987 142.244314 
L 433.011534 142.321636 
L 430.624368 142.390908 
L 428.237203 142.478132 
L 425.850037 142.527308 
L 423.462871 142.59538 
L 421.075705 142.70712 
L 418.688539 142.765326 
L 416.301374 142.861159 
L 413.914208 142.936353 
L 411.527042 143.021757 
L 409.139876 143.097653 
L 406.752711 143.154545 
L 404.365545 143.21182 
L 401.978379 143.287365 
L 399.591213 143.499331 
L 397.204047 143.633123 
L 394.816882 143.835646 
L 392.429716 144.143569 
L 390.04255 144.409139 
L 387.655384 144.600286 
L 385.268219 144.721496 
L 382.881053 144.948249 
L 380.493887 145.075476 
L 378.106721 145.199005 
L 375.719555 145.436854 
L 373.33239 145.689324 
L 370.945224 145.916605 
L 368.558058 146.130088 
L 366.170892 146.402754 
L 363.783727 146.681661 
L 361.396561 146.819189 
L 359.009395 147.154841 
L 356.622229 147.38231 
L 354.235064 147.697136 
L 351.847898 147.992584 
L 349.460732 148.416493 
L 347.073566 148.708563 
L 344.6864 148.936133 
L 342.299235 149.202096 
L 339.912069 149.373997 
L 337.524903 149.592681 
L 335.137737 149.887345 
L 332.750572 150.095895 
L 330.363406 150.44674 
L 327.97624 150.668983 
L 325.589074 150.915014 
L 323.201908 151.268389 
L 320.814743 151.569571 
L 318.427577 151.849947 
L 316.040411 152.103271 
L 313.653245 152.386779 
L 311.26608 152.618362 
L 308.878914 152.829543 
L 306.491748 153.279143 
L 304.104582 153.699208 
L 301.717416 154.030037 
L 299.330251 154.35908 
L 296.943085 154.513635 
L 294.555919 154.67187 
L 292.168753 155.070365 
L 289.781588 155.568459 
L 287.394422 156.115592 
L 285.007256 156.394655 
L 282.62009 156.701352 
L 280.232924 157.020897 
L 277.845759 157.378429 
L 275.458593 157.803846 
L 273.071427 158.330703 
L 270.684261 158.621219 
L 268.297096 159.024814 
L 265.90993 159.314546 
L 263.522764 159.596859 
L 261.135598 160.001933 
L 258.748432 160.337799 
L 256.361267 160.76781 
L 253.974101 161.218325 
L 251.586935 161.920185 
L 249.199769 162.370992 
L 246.812604 162.7867 
L 244.425438 163.272355 
L 242.038272 163.685853 
L 239.651106 164.099685 
L 237.263941 164.638087 
L 234.876775 165.136297 
L 232.489609 165.729567 
L 230.102443 166.144763 
L 227.715277 166.716999 
L 225.328112 167.008396 
L 222.940946 167.491449 
L 220.55378 167.812307 
L 218.166614 168.225544 
L 215.779449 168.656296 
L 213.392283 169.061491 
L 211.005117 169.42237 
L 208.617951 169.872254 
L 206.230785 170.480314 
L 203.84362 170.979336 
L 201.456454 171.328511 
L 199.069288 172.162321 
L 196.682122 172.712824 
L 194.294957 173.385491 
L 191.907791 174.062664 
L 189.520625 174.586252 
L 187.133459 175.109007 
L 184.746293 175.583611 
L 182.359128 176.135852 
L 179.971962 176.853765 
L 177.584796 177.633946 
L 175.19763 178.307539 
L 172.810465 179.214926 
L 170.423299 180.082771 
L 168.036133 181.00706 
L 165.648967 181.653475 
L 163.261801 182.548604 
L 160.874636 183.729899 
L 158.48747 184.726297 
L 156.100304 185.545143 
L 153.713138 187.045261 
L 151.325973 188.272844 
L 148.938807 189.111545 
L 146.551641 190.078798 
L 144.164475 191.564432 
L 141.777309 192.792476 
L 139.390144 194.50412 
L 137.002978 196.811105 
L 134.615812 198.737607 
L 132.228646 200.357654 
L 129.841481 202.232157 
L 127.454315 204.244917 
L 125.067149 207.781208 
L 122.679983 211.428851 
L 120.292818 216.4236 
L 117.905652 220.742983 
L 115.518486 231.020333 
L 113.13132 241.402055 
L 110.744154 251.032071 
L 108.356989 399.327275 
z
" clip-path="url(#p4931ab43ec)" style="fill: #ff7f50; fill-opacity: 0.1; stroke: #ff7f50; stroke-opacity: 0.1"/>
   </g>
   <g id="PolyCollection_3">
    <defs>
     <path id="m779d553314" d="M 108.356989 -291.669034 
L 108.356989 -288.286567 
L 110.744154 -313.255785 
L 113.13132 -329.713854 
L 115.518486 -341.410319 
L 117.905652 -346.466023 
L 120.292818 -349.482294 
L 122.679983 -352.017504 
L 125.067149 -354.490519 
L 127.454315 -357.110123 
L 129.841481 -359.413912 
L 132.228646 -361.469008 
L 134.615812 -363.516388 
L 137.002978 -365.523674 
L 139.390144 -367.356102 
L 141.777309 -369.117899 
L 144.164475 -370.765512 
L 146.551641 -372.36658 
L 148.938807 -373.758791 
L 151.325973 -375.250027 
L 153.713138 -376.656833 
L 156.100304 -378.015062 
L 158.48747 -379.887336 
L 160.874636 -381.584494 
L 163.261801 -383.218756 
L 165.648967 -384.785221 
L 168.036133 -386.317342 
L 170.423299 -387.620627 
L 172.810465 -389.026577 
L 175.19763 -390.357249 
L 177.584796 -391.535179 
L 179.971962 -392.677636 
L 182.359128 -393.771387 
L 184.746293 -395.237908 
L 187.133459 -396.619184 
L 189.520625 -397.927773 
L 191.907791 -399.198411 
L 194.294957 -400.631792 
L 196.682122 -401.833763 
L 199.069288 -403.041929 
L 201.456454 -404.203733 
L 203.84362 -405.357379 
L 206.230785 -406.423323 
L 208.617951 -407.788742 
L 211.005117 -409.054178 
L 213.392283 -410.243036 
L 215.779449 -411.385876 
L 218.166614 -412.512701 
L 220.55378 -413.565323 
L 222.940946 -414.606062 
L 225.328112 -415.613246 
L 227.715277 -416.630004 
L 230.102443 -417.634078 
L 232.489609 -418.599388 
L 234.876775 -419.693081 
L 237.263941 -420.695176 
L 239.651106 -421.672973 
L 242.038272 -422.627899 
L 244.425438 -423.53864 
L 246.812604 -424.458225 
L 249.199769 -425.349414 
L 251.586935 -426.204321 
L 253.974101 -427.048698 
L 256.361267 -427.900471 
L 258.748432 -428.839607 
L 261.135598 -429.740734 
L 263.522764 -430.627262 
L 265.90993 -431.475203 
L 268.297096 -432.310752 
L 270.684261 -433.123377 
L 273.071427 -433.919637 
L 275.458593 -434.689424 
L 277.845759 -435.463835 
L 280.232924 -436.239429 
L 282.62009 -436.967182 
L 285.007256 -437.76775 
L 287.394422 -438.552556 
L 289.781588 -439.321994 
L 292.168753 -440.077412 
L 294.555919 -440.825999 
L 296.943085 -441.574939 
L 299.330251 -442.305268 
L 301.717416 -443.01723 
L 304.104582 -443.694178 
L 306.491748 -444.418688 
L 308.878914 -445.159462 
L 311.26608 -445.906045 
L 313.653245 -446.626588 
L 316.040411 -447.331977 
L 318.427577 -448.032276 
L 320.814743 -448.702424 
L 323.201908 -449.377919 
L 325.589074 -450.020378 
L 327.97624 -450.660117 
L 330.363406 -451.290301 
L 332.750572 -451.918939 
L 335.137737 -452.517567 
L 337.524903 -453.134525 
L 339.912069 -453.714701 
L 342.299235 -454.30216 
L 344.6864 -454.862288 
L 347.073566 -455.42518 
L 349.460732 -455.983112 
L 351.847898 -456.525528 
L 354.235064 -457.06253 
L 356.622229 -457.581369 
L 359.009395 -458.100126 
L 361.396561 -458.603698 
L 363.783727 -459.096461 
L 366.170892 -459.590824 
L 368.558058 -460.068426 
L 370.945224 -460.549718 
L 373.33239 -461.034481 
L 375.719555 -461.497782 
L 378.106721 -461.970531 
L 380.493887 -462.429709 
L 382.881053 -462.878303 
L 385.268219 -463.317829 
L 387.655384 -463.75281 
L 390.04255 -464.194693 
L 392.429716 -464.638599 
L 394.816882 -465.065121 
L 397.204047 -465.488528 
L 399.591213 -465.902008 
L 401.978379 -466.311696 
L 404.365545 -466.707045 
L 406.752711 -467.113462 
L 409.139876 -467.499524 
L 411.527042 -468.010997 
L 413.914208 -468.549763 
L 416.301374 -469.068661 
L 418.688539 -469.576004 
L 421.075705 -470.061698 
L 423.462871 -470.545508 
L 425.850037 -471.019827 
L 428.237203 -471.495359 
L 430.624368 -471.951512 
L 433.011534 -472.407981 
L 435.3987 -472.886728 
L 437.785866 -473.359545 
L 440.173031 -473.797907 
L 442.560197 -474.247195 
L 444.947363 -474.680777 
L 447.334529 -475.101872 
L 449.721695 -475.515582 
L 452.10886 -475.932082 
L 454.496026 -476.345518 
L 456.883192 -476.773585 
L 459.270358 -477.158477 
L 461.657523 -477.562369 
L 464.044689 -477.970833 
L 466.431855 -478.468483 
L 468.819021 -478.955031 
L 471.206186 -479.417233 
L 473.593352 -479.870118 
L 475.980518 -480.324284 
L 478.367684 -480.757591 
L 480.75485 -481.211038 
L 483.142015 -481.635802 
L 485.529181 -482.067694 
L 487.916347 -482.469235 
L 490.303513 -483.083723 
L 492.690678 -483.653238 
L 495.077844 -484.221446 
L 497.46501 -484.697539 
L 499.852176 -485.145791 
L 502.239342 -485.56601 
L 504.626507 -485.991835 
L 507.013673 -486.421716 
L 509.400839 -486.857612 
L 511.788005 -487.301662 
L 514.17517 -487.683332 
L 516.562336 -488.065146 
L 518.949502 -488.481737 
L 521.336668 -488.872762 
L 523.723834 -489.249812 
L 526.110999 -489.626382 
L 528.498165 -489.998216 
L 530.885331 -490.368943 
L 533.272497 -490.742323 
L 535.659662 -491.127896 
L 538.046828 -491.498559 
L 540.433994 -491.882751 
L 542.82116 -492.249265 
L 545.208326 -492.618562 
L 547.595491 -492.972544 
L 549.982657 -493.357712 
L 552.369823 -493.717645 
L 554.756989 -494.079384 
L 557.144154 -494.410236 
L 559.53132 -494.732965 
L 561.918486 -495.056629 
L 564.305652 -495.397465 
L 566.692818 -495.715924 
L 569.079983 -496.028707 
L 571.467149 -496.34909 
L 573.854315 -496.691983 
L 576.241481 -497.011067 
L 578.628646 -497.339148 
L 581.015812 -497.652825 
L 583.402978 -497.970516 
L 585.790144 -498.292216 
L 588.177309 -498.622972 
L 590.564475 -498.931412 
L 592.951641 -499.203752 
L 595.338807 -499.502432 
L 597.725973 -499.775745 
L 600.113138 -500.057962 
L 602.500304 -500.3638 
L 604.88747 -500.655894 
L 607.274636 -500.948742 
L 609.661801 -501.237814 
L 612.048967 -501.496274 
L 614.436133 -501.763795 
L 616.823299 -502.037254 
L 619.210465 -502.314646 
L 621.59763 -502.583313 
L 623.984796 -502.851973 
L 626.371962 -503.113557 
L 628.759128 -503.364774 
L 631.146293 -503.621008 
L 633.533459 -503.882831 
L 635.920625 -504.121015 
L 638.307791 -504.364093 
L 640.694957 -504.615252 
L 643.082122 -504.878838 
L 645.469288 -505.137659 
L 647.856454 -505.388686 
L 650.24362 -505.631802 
L 652.630785 -505.889921 
L 655.017951 -506.130333 
L 657.405117 -506.370333 
L 659.792283 -506.615928 
L 662.179449 -506.847125 
L 664.566614 -507.076572 
L 666.95378 -507.302911 
L 669.340946 -507.528013 
L 671.728112 -507.772951 
L 674.115277 -507.995851 
L 676.502443 -508.240379 
L 678.889609 -508.477548 
L 681.276775 -508.705238 
L 683.663941 -508.938745 
L 686.051106 -509.166085 
L 688.438272 -509.393467 
L 690.825438 -509.605905 
L 693.212604 -509.84602 
L 695.599769 -510.069056 
L 697.986935 -510.288775 
L 700.374101 -510.504445 
L 702.761267 -510.707556 
L 705.148432 -510.899034 
L 707.535598 -511.104385 
L 709.922764 -511.301812 
L 712.30993 -511.501337 
L 714.697096 -511.707465 
L 717.084261 -511.911131 
L 717.084261 -529.32125 
L 717.084261 -529.32125 
L 714.697096 -529.010399 
L 712.30993 -528.74218 
L 709.922764 -528.456214 
L 707.535598 -528.179636 
L 705.148432 -527.914999 
L 702.761267 -527.65317 
L 700.374101 -527.374359 
L 697.986935 -527.093176 
L 695.599769 -526.816948 
L 693.212604 -526.53344 
L 690.825438 -526.260794 
L 688.438272 -525.976838 
L 686.051106 -525.710135 
L 683.663941 -525.428284 
L 681.276775 -525.106222 
L 678.889609 -524.798895 
L 676.502443 -524.496968 
L 674.115277 -524.216841 
L 671.728112 -523.899087 
L 669.340946 -523.592257 
L 666.95378 -523.275956 
L 664.566614 -522.966009 
L 662.179449 -522.664432 
L 659.792283 -522.355846 
L 657.405117 -522.03933 
L 655.017951 -521.70932 
L 652.630785 -521.366307 
L 650.24362 -521.033034 
L 647.856454 -520.6955 
L 645.469288 -520.364555 
L 643.082122 -520.023961 
L 640.694957 -519.691222 
L 638.307791 -519.353835 
L 635.920625 -519.024307 
L 633.533459 -518.692041 
L 631.146293 -518.352639 
L 628.759128 -518.013073 
L 626.371962 -517.67357 
L 623.984796 -517.326476 
L 621.59763 -516.999041 
L 619.210465 -516.650327 
L 616.823299 -516.319122 
L 614.436133 -515.961651 
L 612.048967 -515.599069 
L 609.661801 -515.227584 
L 607.274636 -514.883813 
L 604.88747 -514.52389 
L 602.500304 -514.167453 
L 600.113138 -513.803794 
L 597.725973 -513.449252 
L 595.338807 -513.093258 
L 592.951641 -512.722095 
L 590.564475 -512.343056 
L 588.177309 -511.958632 
L 585.790144 -511.585212 
L 583.402978 -511.209405 
L 581.015812 -510.814034 
L 578.628646 -510.405315 
L 576.241481 -509.987273 
L 573.854315 -509.558595 
L 571.467149 -509.126958 
L 569.079983 -508.69993 
L 566.692818 -508.264149 
L 564.305652 -507.823247 
L 561.918486 -507.399371 
L 559.53132 -506.961493 
L 557.144154 -506.547416 
L 554.756989 -506.1361 
L 552.369823 -505.692267 
L 549.982657 -505.253833 
L 547.595491 -504.80768 
L 545.208326 -504.368879 
L 542.82116 -503.900555 
L 540.433994 -503.438806 
L 538.046828 -502.992502 
L 535.659662 -502.566265 
L 533.272497 -502.143709 
L 530.885331 -501.71451 
L 528.498165 -501.26949 
L 526.110999 -500.793154 
L 523.723834 -500.342645 
L 521.336668 -499.914354 
L 518.949502 -499.444928 
L 516.562336 -498.97131 
L 514.17517 -498.481097 
L 511.788005 -497.994946 
L 509.400839 -497.500608 
L 507.013673 -496.974151 
L 504.626507 -496.498374 
L 502.239342 -496.01592 
L 499.852176 -495.506421 
L 497.46501 -495.025781 
L 495.077844 -494.51926 
L 492.690678 -493.665049 
L 490.303513 -492.85377 
L 487.916347 -491.94614 
L 485.529181 -491.431429 
L 483.142015 -490.927089 
L 480.75485 -490.41473 
L 478.367684 -489.849723 
L 475.980518 -489.283673 
L 473.593352 -488.739532 
L 471.206186 -488.172143 
L 468.819021 -487.610317 
L 466.431855 -487.031485 
L 464.044689 -486.44527 
L 461.657523 -486.02362 
L 459.270358 -485.584997 
L 456.883192 -485.157541 
L 454.496026 -484.711906 
L 452.10886 -484.286967 
L 449.721695 -483.833673 
L 447.334529 -483.413572 
L 444.947363 -482.976476 
L 442.560197 -482.532328 
L 440.173031 -482.07536 
L 437.785866 -481.602857 
L 435.3987 -481.148417 
L 433.011534 -480.689 
L 430.624368 -480.190813 
L 428.237203 -479.706827 
L 425.850037 -479.206393 
L 423.462871 -478.70238 
L 421.075705 -478.190255 
L 418.688539 -477.687612 
L 416.301374 -477.167725 
L 413.914208 -476.623877 
L 411.527042 -476.062849 
L 409.139876 -475.529659 
L 406.752711 -475.083491 
L 404.365545 -474.639249 
L 401.978379 -474.18611 
L 399.591213 -473.725879 
L 397.204047 -473.266249 
L 394.816882 -472.802822 
L 392.429716 -472.337643 
L 390.04255 -471.873893 
L 387.655384 -471.410502 
L 385.268219 -470.923191 
L 382.881053 -470.442706 
L 380.493887 -469.95497 
L 378.106721 -469.460805 
L 375.719555 -468.961326 
L 373.33239 -468.446902 
L 370.945224 -467.942061 
L 368.558058 -467.434991 
L 366.170892 -466.922016 
L 363.783727 -466.396763 
L 361.396561 -465.857425 
L 359.009395 -465.323482 
L 356.622229 -464.788281 
L 354.235064 -464.243262 
L 351.847898 -463.691381 
L 349.460732 -463.130442 
L 347.073566 -462.553446 
L 344.6864 -461.978275 
L 342.299235 -461.385993 
L 339.912069 -460.808864 
L 337.524903 -460.194552 
L 335.137737 -459.580286 
L 332.750572 -458.95536 
L 330.363406 -458.321965 
L 327.97624 -457.698321 
L 325.589074 -457.064045 
L 323.201908 -456.398773 
L 320.814743 -455.723627 
L 318.427577 -455.058442 
L 316.040411 -454.358734 
L 313.653245 -453.653684 
L 311.26608 -452.943836 
L 308.878914 -452.216613 
L 306.491748 -451.481395 
L 304.104582 -450.770329 
L 301.717416 -450.061792 
L 299.330251 -449.353518 
L 296.943085 -448.623907 
L 294.555919 -447.884586 
L 292.168753 -447.128736 
L 289.781588 -446.367714 
L 287.394422 -445.592926 
L 285.007256 -444.783457 
L 282.62009 -443.97903 
L 280.232924 -443.207642 
L 277.845759 -442.441642 
L 275.458593 -441.680854 
L 273.071427 -440.895505 
L 270.684261 -440.100911 
L 268.297096 -439.266065 
L 265.90993 -438.422308 
L 263.522764 -437.547271 
L 261.135598 -436.712788 
L 258.748432 -435.808482 
L 256.361267 -434.902254 
L 253.974101 -434.036596 
L 251.586935 -433.165814 
L 249.199769 -432.290561 
L 246.812604 -431.355751 
L 244.425438 -430.43346 
L 242.038272 -429.50143 
L 239.651106 -428.512323 
L 237.263941 -427.490756 
L 234.876775 -426.472927 
L 232.489609 -425.346788 
L 230.102443 -424.339245 
L 227.715277 -423.299702 
L 225.328112 -422.263339 
L 222.940946 -421.214134 
L 220.55378 -420.161178 
L 218.166614 -419.10271 
L 215.779449 -418.001204 
L 213.392283 -416.862493 
L 211.005117 -415.726914 
L 208.617951 -414.564296 
L 206.230785 -413.323477 
L 203.84362 -412.289129 
L 201.456454 -411.187526 
L 199.069288 -410.118112 
L 196.682122 -409.000092 
L 194.294957 -407.844796 
L 191.907791 -406.662693 
L 189.520625 -405.472956 
L 187.133459 -404.261005 
L 184.746293 -403.053551 
L 182.359128 -401.75327 
L 179.971962 -400.656418 
L 177.584796 -399.587051 
L 175.19763 -398.503978 
L 172.810465 -397.344393 
L 170.423299 -396.154515 
L 168.036133 -394.942007 
L 165.648967 -393.746001 
L 163.261801 -392.434525 
L 160.874636 -391.071218 
L 158.48747 -389.596676 
L 156.100304 -388.023908 
L 153.713138 -386.87305 
L 151.325973 -385.646455 
L 148.938807 -384.468577 
L 146.551641 -383.111785 
L 144.164475 -381.74045 
L 141.777309 -380.367722 
L 139.390144 -378.955768 
L 137.002978 -377.614313 
L 134.615812 -376.05632 
L 132.228646 -374.279016 
L 129.841481 -372.405256 
L 127.454315 -370.697303 
L 125.067149 -368.907021 
L 122.679983 -366.988543 
L 120.292818 -364.305433 
L 117.905652 -361.325636 
L 115.518486 -359.064326 
L 113.13132 -353.624891 
L 110.744154 -343.318916 
L 108.356989 -291.669034 
z
" style="stroke: #8a2be2; stroke-opacity: 0.1"/>
    </defs>
    <g clip-path="url(#p4931ab43ec)">
     <use xlink:href="#m779d553314" x="0" y="559.20125" style="fill: #8a2be2; fill-opacity: 0.1; stroke: #8a2be2; stroke-opacity: 0.1"/>
    </g>
   </g>
   <g id="matplotlib.axis_1">
    <g id="xtick_1">
     <g id="line2d_1">
      <path d="M 105.969823 506.16 
L 105.969823 7.2 
" clip-path="url(#p4931ab43ec)" style="fill: none; stroke-dasharray: 1.85,0.8; stroke-dashoffset: 0; stroke: #b0b0b0; stroke-width: 0.5"/>
     </g>
     <g id="line2d_2">
      <defs>
       <path id="m7b84bae68b" d="M 0 0 
L 0 3.5 
" style="stroke: #000000; stroke-width: 0.8"/>
      </defs>
      <g>
       <use xlink:href="#m7b84bae68b" x="105.969823" y="506.16" style="stroke: #000000; stroke-width: 0.8"/>
      </g>
     </g>
     <g id="text_1">
      <!-- 0 -->
      <g transform="translate(100.243573 526.837188) scale(0.18 -0.18)">
       <defs>
        <path id="DejaVuSans-30" d="M 2034 4250 
Q 1547 4250 1301 3770 
Q 1056 3291 1056 2328 
Q 1056 1369 1301 889 
Q 1547 409 2034 409 
Q 2525 409 2770 889 
Q 3016 1369 3016 2328 
Q 3016 3291 2770 3770 
Q 2525 4250 2034 4250 
z
M 2034 4750 
Q 2819 4750 3233 4129 
Q 3647 3509 3647 2328 
Q 3647 1150 3233 529 
Q 2819 -91 2034 -91 
Q 1250 -91 836 529 
Q 422 1150 422 2328 
Q 422 3509 836 4129 
Q 1250 4750 2034 4750 
z
" transform="scale(0.015625)"/>
       </defs>
       <use xlink:href="#DejaVuSans-30"/>
      </g>
     </g>
    </g>
    <g id="xtick_2">
     <g id="line2d_3">
      <path d="M 225.328112 506.16 
L 225.328112 7.2 
" clip-path="url(#p4931ab43ec)" style="fill: none; stroke-dasharray: 1.85,0.8; stroke-dashoffset: 0; stroke: #b0b0b0; stroke-width: 0.5"/>
     </g>
     <g id="line2d_4">
      <g>
       <use xlink:href="#m7b84bae68b" x="225.328112" y="506.16" style="stroke: #000000; stroke-width: 0.8"/>
      </g>
     </g>
     <g id="text_2">
      <!-- 50 -->
      <g transform="translate(213.875612 526.837188) scale(0.18 -0.18)">
       <defs>
        <path id="DejaVuSans-35" d="M 691 4666 
L 3169 4666 
L 3169 4134 
L 1269 4134 
L 1269 2991 
Q 1406 3038 1543 3061 
Q 1681 3084 1819 3084 
Q 2600 3084 3056 2656 
Q 3513 2228 3513 1497 
Q 3513 744 3044 326 
Q 2575 -91 1722 -91 
Q 1428 -91 1123 -41 
Q 819 9 494 109 
L 494 744 
Q 775 591 1075 516 
Q 1375 441 1709 441 
Q 2250 441 2565 725 
Q 2881 1009 2881 1497 
Q 2881 1984 2565 2268 
Q 2250 2553 1709 2553 
Q 1456 2553 1204 2497 
Q 953 2441 691 2322 
L 691 4666 
z
" transform="scale(0.015625)"/>
       </defs>
       <use xlink:href="#DejaVuSans-35"/>
       <use xlink:href="#DejaVuSans-30" x="63.623047"/>
      </g>
     </g>
    </g>
    <g id="xtick_3">
     <g id="line2d_5">
      <path d="M 344.6864 506.16 
L 344.6864 7.2 
" clip-path="url(#p4931ab43ec)" style="fill: none; stroke-dasharray: 1.85,0.8; stroke-dashoffset: 0; stroke: #b0b0b0; stroke-width: 0.5"/>
     </g>
     <g id="line2d_6">
      <g>
       <use xlink:href="#m7b84bae68b" x="344.6864" y="506.16" style="stroke: #000000; stroke-width: 0.8"/>
      </g>
     </g>
     <g id="text_3">
      <!-- 100 -->
      <g transform="translate(327.50765 526.837188) scale(0.18 -0.18)">
       <defs>
        <path id="DejaVuSans-31" d="M 794 531 
L 1825 531 
L 1825 4091 
L 703 3866 
L 703 4441 
L 1819 4666 
L 2450 4666 
L 2450 531 
L 3481 531 
L 3481 0 
L 794 0 
L 794 531 
z
" transform="scale(0.015625)"/>
       </defs>
       <use xlink:href="#DejaVuSans-31"/>
       <use xlink:href="#DejaVuSans-30" x="63.623047"/>
       <use xlink:href="#DejaVuSans-30" x="127.246094"/>
      </g>
     </g>
    </g>
    <g id="xtick_4">
     <g id="line2d_7">
      <path d="M 464.044689 506.16 
L 464.044689 7.2 
" clip-path="url(#p4931ab43ec)" style="fill: none; stroke-dasharray: 1.85,0.8; stroke-dashoffset: 0; stroke: #b0b0b0; stroke-width: 0.5"/>
     </g>
     <g id="line2d_8">
      <g>
       <use xlink:href="#m7b84bae68b" x="464.044689" y="506.16" style="stroke: #000000; stroke-width: 0.8"/>
      </g>
     </g>
     <g id="text_4">
      <!-- 150 -->
      <g transform="translate(446.865939 526.837188) scale(0.18 -0.18)">
       <use xlink:href="#DejaVuSans-31"/>
       <use xlink:href="#DejaVuSans-35" x="63.623047"/>
       <use xlink:href="#DejaVuSans-30" x="127.246094"/>
      </g>
     </g>
    </g>
    <g id="xtick_5">
     <g id="line2d_9">
      <path d="M 583.402978 506.16 
L 583.402978 7.2 
" clip-path="url(#p4931ab43ec)" style="fill: none; stroke-dasharray: 1.85,0.8; stroke-dashoffset: 0; stroke: #b0b0b0; stroke-width: 0.5"/>
     </g>
     <g id="line2d_10">
      <g>
       <use xlink:href="#m7b84bae68b" x="583.402978" y="506.16" style="stroke: #000000; stroke-width: 0.8"/>
      </g>
     </g>
     <g id="text_5">
      <!-- 200 -->
      <g transform="translate(566.224228 526.837188) scale(0.18 -0.18)">
       <defs>
        <path id="DejaVuSans-32" d="M 1228 531 
L 3431 531 
L 3431 0 
L 469 0 
L 469 531 
Q 828 903 1448 1529 
Q 2069 2156 2228 2338 
Q 2531 2678 2651 2914 
Q 2772 3150 2772 3378 
Q 2772 3750 2511 3984 
Q 2250 4219 1831 4219 
Q 1534 4219 1204 4116 
Q 875 4013 500 3803 
L 500 4441 
Q 881 4594 1212 4672 
Q 1544 4750 1819 4750 
Q 2544 4750 2975 4387 
Q 3406 4025 3406 3419 
Q 3406 3131 3298 2873 
Q 3191 2616 2906 2266 
Q 2828 2175 2409 1742 
Q 1991 1309 1228 531 
z
" transform="scale(0.015625)"/>
       </defs>
       <use xlink:href="#DejaVuSans-32"/>
       <use xlink:href="#DejaVuSans-30" x="63.623047"/>
       <use xlink:href="#DejaVuSans-30" x="127.246094"/>
      </g>
     </g>
    </g>
    <g id="xtick_6">
     <g id="line2d_11">
      <path d="M 702.761267 506.16 
L 702.761267 7.2 
" clip-path="url(#p4931ab43ec)" style="fill: none; stroke-dasharray: 1.85,0.8; stroke-dashoffset: 0; stroke: #b0b0b0; stroke-width: 0.5"/>
     </g>
     <g id="line2d_12">
      <g>
       <use xlink:href="#m7b84bae68b" x="702.761267" y="506.16" style="stroke: #000000; stroke-width: 0.8"/>
      </g>
     </g>
     <g id="text_6">
      <!-- 250 -->
      <g transform="translate(685.582517 526.837188) scale(0.18 -0.18)">
       <use xlink:href="#DejaVuSans-32"/>
       <use xlink:href="#DejaVuSans-35" x="63.623047"/>
       <use xlink:href="#DejaVuSans-30" x="127.246094"/>
      </g>
     </g>
    </g>
    <g id="text_7">
     <!-- Decision Round -->
     <g transform="translate(343.067656 548.257813) scale(0.18 -0.18)">
      <defs>
       <path id="DejaVuSans-44" d="M 1259 4147 
L 1259 519 
L 2022 519 
Q 2988 519 3436 956 
Q 3884 1394 3884 2338 
Q 3884 3275 3436 3711 
Q 2988 4147 2022 4147 
L 1259 4147 
z
M 628 4666 
L 1925 4666 
Q 3281 4666 3915 4102 
Q 4550 3538 4550 2338 
Q 4550 1131 3912 565 
Q 3275 0 1925 0 
L 628 0 
L 628 4666 
z
" transform="scale(0.015625)"/>
       <path id="DejaVuSans-65" d="M 3597 1894 
L 3597 1613 
L 953 1613 
Q 991 1019 1311 708 
Q 1631 397 2203 397 
Q 2534 397 2845 478 
Q 3156 559 3463 722 
L 3463 178 
Q 3153 47 2828 -22 
Q 2503 -91 2169 -91 
Q 1331 -91 842 396 
Q 353 884 353 1716 
Q 353 2575 817 3079 
Q 1281 3584 2069 3584 
Q 2775 3584 3186 3129 
Q 3597 2675 3597 1894 
z
M 3022 2063 
Q 3016 2534 2758 2815 
Q 2500 3097 2075 3097 
Q 1594 3097 1305 2825 
Q 1016 2553 972 2059 
L 3022 2063 
z
" transform="scale(0.015625)"/>
       <path id="DejaVuSans-63" d="M 3122 3366 
L 3122 2828 
Q 2878 2963 2633 3030 
Q 2388 3097 2138 3097 
Q 1578 3097 1268 2742 
Q 959 2388 959 1747 
Q 959 1106 1268 751 
Q 1578 397 2138 397 
Q 2388 397 2633 464 
Q 2878 531 3122 666 
L 3122 134 
Q 2881 22 2623 -34 
Q 2366 -91 2075 -91 
Q 1284 -91 818 406 
Q 353 903 353 1747 
Q 353 2603 823 3093 
Q 1294 3584 2113 3584 
Q 2378 3584 2631 3529 
Q 2884 3475 3122 3366 
z
" transform="scale(0.015625)"/>
       <path id="DejaVuSans-69" d="M 603 3500 
L 1178 3500 
L 1178 0 
L 603 0 
L 603 3500 
z
M 603 4863 
L 1178 4863 
L 1178 4134 
L 603 4134 
L 603 4863 
z
" transform="scale(0.015625)"/>
       <path id="DejaVuSans-73" d="M 2834 3397 
L 2834 2853 
Q 2591 2978 2328 3040 
Q 2066 3103 1784 3103 
Q 1356 3103 1142 2972 
Q 928 2841 928 2578 
Q 928 2378 1081 2264 
Q 1234 2150 1697 2047 
L 1894 2003 
Q 2506 1872 2764 1633 
Q 3022 1394 3022 966 
Q 3022 478 2636 193 
Q 2250 -91 1575 -91 
Q 1294 -91 989 -36 
Q 684 19 347 128 
L 347 722 
Q 666 556 975 473 
Q 1284 391 1588 391 
Q 1994 391 2212 530 
Q 2431 669 2431 922 
Q 2431 1156 2273 1281 
Q 2116 1406 1581 1522 
L 1381 1569 
Q 847 1681 609 1914 
Q 372 2147 372 2553 
Q 372 3047 722 3315 
Q 1072 3584 1716 3584 
Q 2034 3584 2315 3537 
Q 2597 3491 2834 3397 
z
" transform="scale(0.015625)"/>
       <path id="DejaVuSans-6f" d="M 1959 3097 
Q 1497 3097 1228 2736 
Q 959 2375 959 1747 
Q 959 1119 1226 758 
Q 1494 397 1959 397 
Q 2419 397 2687 759 
Q 2956 1122 2956 1747 
Q 2956 2369 2687 2733 
Q 2419 3097 1959 3097 
z
M 1959 3584 
Q 2709 3584 3137 3096 
Q 3566 2609 3566 1747 
Q 3566 888 3137 398 
Q 2709 -91 1959 -91 
Q 1206 -91 779 398 
Q 353 888 353 1747 
Q 353 2609 779 3096 
Q 1206 3584 1959 3584 
z
" transform="scale(0.015625)"/>
       <path id="DejaVuSans-6e" d="M 3513 2113 
L 3513 0 
L 2938 0 
L 2938 2094 
Q 2938 2591 2744 2837 
Q 2550 3084 2163 3084 
Q 1697 3084 1428 2787 
Q 1159 2491 1159 1978 
L 1159 0 
L 581 0 
L 581 3500 
L 1159 3500 
L 1159 2956 
Q 1366 3272 1645 3428 
Q 1925 3584 2291 3584 
Q 2894 3584 3203 3211 
Q 3513 2838 3513 2113 
z
" transform="scale(0.015625)"/>
       <path id="DejaVuSans-20" transform="scale(0.015625)"/>
       <path id="DejaVuSans-52" d="M 2841 2188 
Q 3044 2119 3236 1894 
Q 3428 1669 3622 1275 
L 4263 0 
L 3584 0 
L 2988 1197 
Q 2756 1666 2539 1819 
Q 2322 1972 1947 1972 
L 1259 1972 
L 1259 0 
L 628 0 
L 628 4666 
L 2053 4666 
Q 2853 4666 3247 4331 
Q 3641 3997 3641 3322 
Q 3641 2881 3436 2590 
Q 3231 2300 2841 2188 
z
M 1259 4147 
L 1259 2491 
L 2053 2491 
Q 2509 2491 2742 2702 
Q 2975 2913 2975 3322 
Q 2975 3731 2742 3939 
Q 2509 4147 2053 4147 
L 1259 4147 
z
" transform="scale(0.015625)"/>
       <path id="DejaVuSans-75" d="M 544 1381 
L 544 3500 
L 1119 3500 
L 1119 1403 
Q 1119 906 1312 657 
Q 1506 409 1894 409 
Q 2359 409 2629 706 
Q 2900 1003 2900 1516 
L 2900 3500 
L 3475 3500 
L 3475 0 
L 2900 0 
L 2900 538 
Q 2691 219 2414 64 
Q 2138 -91 1772 -91 
Q 1169 -91 856 284 
Q 544 659 544 1381 
z
M 1991 3584 
L 1991 3584 
z
" transform="scale(0.015625)"/>
       <path id="DejaVuSans-64" d="M 2906 2969 
L 2906 4863 
L 3481 4863 
L 3481 0 
L 2906 0 
L 2906 525 
Q 2725 213 2448 61 
Q 2172 -91 1784 -91 
Q 1150 -91 751 415 
Q 353 922 353 1747 
Q 353 2572 751 3078 
Q 1150 3584 1784 3584 
Q 2172 3584 2448 3432 
Q 2725 3281 2906 2969 
z
M 947 1747 
Q 947 1113 1208 752 
Q 1469 391 1925 391 
Q 2381 391 2643 752 
Q 2906 1113 2906 1747 
Q 2906 2381 2643 2742 
Q 2381 3103 1925 3103 
Q 1469 3103 1208 2742 
Q 947 2381 947 1747 
z
" transform="scale(0.015625)"/>
      </defs>
      <use xlink:href="#DejaVuSans-44"/>
      <use xlink:href="#DejaVuSans-65" x="77.001953"/>
      <use xlink:href="#DejaVuSans-63" x="138.525391"/>
      <use xlink:href="#DejaVuSans-69" x="193.505859"/>
      <use xlink:href="#DejaVuSans-73" x="221.289062"/>
      <use xlink:href="#DejaVuSans-69" x="273.388672"/>
      <use xlink:href="#DejaVuSans-6f" x="301.171875"/>
      <use xlink:href="#DejaVuSans-6e" x="362.353516"/>
      <use xlink:href="#DejaVuSans-20" x="425.732422"/>
      <use xlink:href="#DejaVuSans-52" x="457.519531"/>
      <use xlink:href="#DejaVuSans-6f" x="522.501953"/>
      <use xlink:href="#DejaVuSans-75" x="583.683594"/>
      <use xlink:href="#DejaVuSans-6e" x="647.0625"/>
      <use xlink:href="#DejaVuSans-64" x="710.441406"/>
     </g>
    </g>
   </g>
   <g id="matplotlib.axis_2">
    <g id="ytick_1">
     <g id="line2d_13">
      <path d="M 77.920625 424.4689 
L 747.520625 424.4689 
" clip-path="url(#p4931ab43ec)" style="fill: none; stroke-dasharray: 1.85,0.8; stroke-dashoffset: 0; stroke: #b0b0b0; stroke-width: 0.5"/>
     </g>
     <g id="line2d_14">
      <defs>
       <path id="m07565ea817" d="M 0 0 
L -3.5 0 
" style="stroke: #000000; stroke-width: 0.8"/>
      </defs>
      <g>
       <use xlink:href="#m07565ea817" x="77.920625" y="424.4689" style="stroke: #000000; stroke-width: 0.8"/>
      </g>
     </g>
     <g id="text_8">
      <!-- $\mathdefault{10^{-2}}$ -->
      <g transform="translate(28.620625 431.307494) scale(0.18 -0.18)">
       <defs>
        <path id="DejaVuSans-2212" d="M 678 2272 
L 4684 2272 
L 4684 1741 
L 678 1741 
L 678 2272 
z
" transform="scale(0.015625)"/>
       </defs>
       <use xlink:href="#DejaVuSans-31" transform="translate(0 0.765625)"/>
       <use xlink:href="#DejaVuSans-30" transform="translate(63.623047 0.765625)"/>
       <use xlink:href="#DejaVuSans-2212" transform="translate(128.203125 39.046875) scale(0.7)"/>
       <use xlink:href="#DejaVuSans-32" transform="translate(186.855469 39.046875) scale(0.7)"/>
      </g>
     </g>
    </g>
    <g id="ytick_2">
     <g id="line2d_15">
      <path d="M 77.920625 339.643326 
L 747.520625 339.643326 
" clip-path="url(#p4931ab43ec)" style="fill: none; stroke-dasharray: 1.85,0.8; stroke-dashoffset: 0; stroke: #b0b0b0; stroke-width: 0.5"/>
     </g>
     <g id="line2d_16">
      <g>
       <use xlink:href="#m07565ea817" x="77.920625" y="339.643326" style="stroke: #000000; stroke-width: 0.8"/>
      </g>
     </g>
     <g id="text_9">
      <!-- $\mathdefault{10^{-1}}$ -->
      <g transform="translate(28.620625 346.48192) scale(0.18 -0.18)">
       <use xlink:href="#DejaVuSans-31" transform="translate(0 0.684375)"/>
       <use xlink:href="#DejaVuSans-30" transform="translate(63.623047 0.684375)"/>
       <use xlink:href="#DejaVuSans-2212" transform="translate(128.203125 38.965625) scale(0.7)"/>
       <use xlink:href="#DejaVuSans-31" transform="translate(186.855469 38.965625) scale(0.7)"/>
      </g>
     </g>
    </g>
    <g id="ytick_3">
     <g id="line2d_17">
      <path d="M 77.920625 254.817753 
L 747.520625 254.817753 
" clip-path="url(#p4931ab43ec)" style="fill: none; stroke-dasharray: 1.85,0.8; stroke-dashoffset: 0; stroke: #b0b0b0; stroke-width: 0.5"/>
     </g>
     <g id="line2d_18">
      <g>
       <use xlink:href="#m07565ea817" x="77.920625" y="254.817753" style="stroke: #000000; stroke-width: 0.8"/>
      </g>
     </g>
     <g id="text_10">
      <!-- $\mathdefault{10^{0}}$ -->
      <g transform="translate(39.240625 261.656347) scale(0.18 -0.18)">
       <use xlink:href="#DejaVuSans-31" transform="translate(0 0.765625)"/>
       <use xlink:href="#DejaVuSans-30" transform="translate(63.623047 0.765625)"/>
       <use xlink:href="#DejaVuSans-30" transform="translate(128.203125 39.046875) scale(0.7)"/>
      </g>
     </g>
    </g>
    <g id="ytick_4">
     <g id="line2d_19">
      <path d="M 77.920625 169.992179 
L 747.520625 169.992179 
" clip-path="url(#p4931ab43ec)" style="fill: none; stroke-dasharray: 1.85,0.8; stroke-dashoffset: 0; stroke: #b0b0b0; stroke-width: 0.5"/>
     </g>
     <g id="line2d_20">
      <g>
       <use xlink:href="#m07565ea817" x="77.920625" y="169.992179" style="stroke: #000000; stroke-width: 0.8"/>
      </g>
     </g>
     <g id="text_11">
      <!-- $\mathdefault{10^{1}}$ -->
      <g transform="translate(39.240625 176.830773) scale(0.18 -0.18)">
       <use xlink:href="#DejaVuSans-31" transform="translate(0 0.684375)"/>
       <use xlink:href="#DejaVuSans-30" transform="translate(63.623047 0.684375)"/>
       <use xlink:href="#DejaVuSans-31" transform="translate(128.203125 38.965625) scale(0.7)"/>
      </g>
     </g>
    </g>
    <g id="ytick_5">
     <g id="line2d_21">
      <path d="M 77.920625 85.166606 
L 747.520625 85.166606 
" clip-path="url(#p4931ab43ec)" style="fill: none; stroke-dasharray: 1.85,0.8; stroke-dashoffset: 0; stroke: #b0b0b0; stroke-width: 0.5"/>
     </g>
     <g id="line2d_22">
      <g>
       <use xlink:href="#m07565ea817" x="77.920625" y="85.166606" style="stroke: #000000; stroke-width: 0.8"/>
      </g>
     </g>
     <g id="text_12">
      <!-- $\mathdefault{10^{2}}$ -->
      <g transform="translate(39.240625 92.005199) scale(0.18 -0.18)">
       <use xlink:href="#DejaVuSans-31" transform="translate(0 0.765625)"/>
       <use xlink:href="#DejaVuSans-30" transform="translate(63.623047 0.765625)"/>
       <use xlink:href="#DejaVuSans-32" transform="translate(128.203125 39.046875) scale(0.7)"/>
      </g>
     </g>
    </g>
    <g id="ytick_6">
     <g id="line2d_23">
      <defs>
       <path id="m45b4b9de39" d="M 0 0 
L -2 0 
" style="stroke: #000000; stroke-width: 0.6"/>
      </defs>
      <g>
       <use xlink:href="#m45b4b9de39" x="77.920625" y="483.759432" style="stroke: #000000; stroke-width: 0.6"/>
      </g>
     </g>
    </g>
    <g id="ytick_7">
     <g id="line2d_24">
      <g>
       <use xlink:href="#m45b4b9de39" x="77.920625" y="468.82239" style="stroke: #000000; stroke-width: 0.6"/>
      </g>
     </g>
    </g>
    <g id="ytick_8">
     <g id="line2d_25">
      <g>
       <use xlink:href="#m45b4b9de39" x="77.920625" y="458.22439" style="stroke: #000000; stroke-width: 0.6"/>
      </g>
     </g>
    </g>
    <g id="ytick_9">
     <g id="line2d_26">
      <g>
       <use xlink:href="#m45b4b9de39" x="77.920625" y="450.003942" style="stroke: #000000; stroke-width: 0.6"/>
      </g>
     </g>
    </g>
    <g id="ytick_10">
     <g id="line2d_27">
      <g>
       <use xlink:href="#m45b4b9de39" x="77.920625" y="443.287347" style="stroke: #000000; stroke-width: 0.6"/>
      </g>
     </g>
    </g>
    <g id="ytick_11">
     <g id="line2d_28">
      <g>
       <use xlink:href="#m45b4b9de39" x="77.920625" y="437.608548" style="stroke: #000000; stroke-width: 0.6"/>
      </g>
     </g>
    </g>
    <g id="ytick_12">
     <g id="line2d_29">
      <g>
       <use xlink:href="#m45b4b9de39" x="77.920625" y="432.689347" style="stroke: #000000; stroke-width: 0.6"/>
      </g>
     </g>
    </g>
    <g id="ytick_13">
     <g id="line2d_30">
      <g>
       <use xlink:href="#m45b4b9de39" x="77.920625" y="428.350305" style="stroke: #000000; stroke-width: 0.6"/>
      </g>
     </g>
    </g>
    <g id="ytick_14">
     <g id="line2d_31">
      <g>
       <use xlink:href="#m45b4b9de39" x="77.920625" y="398.933858" style="stroke: #000000; stroke-width: 0.6"/>
      </g>
     </g>
    </g>
    <g id="ytick_15">
     <g id="line2d_32">
      <g>
       <use xlink:href="#m45b4b9de39" x="77.920625" y="383.996816" style="stroke: #000000; stroke-width: 0.6"/>
      </g>
     </g>
    </g>
    <g id="ytick_16">
     <g id="line2d_33">
      <g>
       <use xlink:href="#m45b4b9de39" x="77.920625" y="373.398816" style="stroke: #000000; stroke-width: 0.6"/>
      </g>
     </g>
    </g>
    <g id="ytick_17">
     <g id="line2d_34">
      <g>
       <use xlink:href="#m45b4b9de39" x="77.920625" y="365.178368" style="stroke: #000000; stroke-width: 0.6"/>
      </g>
     </g>
    </g>
    <g id="ytick_18">
     <g id="line2d_35">
      <g>
       <use xlink:href="#m45b4b9de39" x="77.920625" y="358.461774" style="stroke: #000000; stroke-width: 0.6"/>
      </g>
     </g>
    </g>
    <g id="ytick_19">
     <g id="line2d_36">
      <g>
       <use xlink:href="#m45b4b9de39" x="77.920625" y="352.782974" style="stroke: #000000; stroke-width: 0.6"/>
      </g>
     </g>
    </g>
    <g id="ytick_20">
     <g id="line2d_37">
      <g>
       <use xlink:href="#m45b4b9de39" x="77.920625" y="347.863774" style="stroke: #000000; stroke-width: 0.6"/>
      </g>
     </g>
    </g>
    <g id="ytick_21">
     <g id="line2d_38">
      <g>
       <use xlink:href="#m45b4b9de39" x="77.920625" y="343.524732" style="stroke: #000000; stroke-width: 0.6"/>
      </g>
     </g>
    </g>
    <g id="ytick_22">
     <g id="line2d_39">
      <g>
       <use xlink:href="#m45b4b9de39" x="77.920625" y="314.108284" style="stroke: #000000; stroke-width: 0.6"/>
      </g>
     </g>
    </g>
    <g id="ytick_23">
     <g id="line2d_40">
      <g>
       <use xlink:href="#m45b4b9de39" x="77.920625" y="299.171242" style="stroke: #000000; stroke-width: 0.6"/>
      </g>
     </g>
    </g>
    <g id="ytick_24">
     <g id="line2d_41">
      <g>
       <use xlink:href="#m45b4b9de39" x="77.920625" y="288.573242" style="stroke: #000000; stroke-width: 0.6"/>
      </g>
     </g>
    </g>
    <g id="ytick_25">
     <g id="line2d_42">
      <g>
       <use xlink:href="#m45b4b9de39" x="77.920625" y="280.352795" style="stroke: #000000; stroke-width: 0.6"/>
      </g>
     </g>
    </g>
    <g id="ytick_26">
     <g id="line2d_43">
      <g>
       <use xlink:href="#m45b4b9de39" x="77.920625" y="273.6362" style="stroke: #000000; stroke-width: 0.6"/>
      </g>
     </g>
    </g>
    <g id="ytick_27">
     <g id="line2d_44">
      <g>
       <use xlink:href="#m45b4b9de39" x="77.920625" y="267.9574" style="stroke: #000000; stroke-width: 0.6"/>
      </g>
     </g>
    </g>
    <g id="ytick_28">
     <g id="line2d_45">
      <g>
       <use xlink:href="#m45b4b9de39" x="77.920625" y="263.0382" style="stroke: #000000; stroke-width: 0.6"/>
      </g>
     </g>
    </g>
    <g id="ytick_29">
     <g id="line2d_46">
      <g>
       <use xlink:href="#m45b4b9de39" x="77.920625" y="258.699158" style="stroke: #000000; stroke-width: 0.6"/>
      </g>
     </g>
    </g>
    <g id="ytick_30">
     <g id="line2d_47">
      <g>
       <use xlink:href="#m45b4b9de39" x="77.920625" y="229.282711" style="stroke: #000000; stroke-width: 0.6"/>
      </g>
     </g>
    </g>
    <g id="ytick_31">
     <g id="line2d_48">
      <g>
       <use xlink:href="#m45b4b9de39" x="77.920625" y="214.345669" style="stroke: #000000; stroke-width: 0.6"/>
      </g>
     </g>
    </g>
    <g id="ytick_32">
     <g id="line2d_49">
      <g>
       <use xlink:href="#m45b4b9de39" x="77.920625" y="203.747669" style="stroke: #000000; stroke-width: 0.6"/>
      </g>
     </g>
    </g>
    <g id="ytick_33">
     <g id="line2d_50">
      <g>
       <use xlink:href="#m45b4b9de39" x="77.920625" y="195.527221" style="stroke: #000000; stroke-width: 0.6"/>
      </g>
     </g>
    </g>
    <g id="ytick_34">
     <g id="line2d_51">
      <g>
       <use xlink:href="#m45b4b9de39" x="77.920625" y="188.810627" style="stroke: #000000; stroke-width: 0.6"/>
      </g>
     </g>
    </g>
    <g id="ytick_35">
     <g id="line2d_52">
      <g>
       <use xlink:href="#m45b4b9de39" x="77.920625" y="183.131827" style="stroke: #000000; stroke-width: 0.6"/>
      </g>
     </g>
    </g>
    <g id="ytick_36">
     <g id="line2d_53">
      <g>
       <use xlink:href="#m45b4b9de39" x="77.920625" y="178.212627" style="stroke: #000000; stroke-width: 0.6"/>
      </g>
     </g>
    </g>
    <g id="ytick_37">
     <g id="line2d_54">
      <g>
       <use xlink:href="#m45b4b9de39" x="77.920625" y="173.873585" style="stroke: #000000; stroke-width: 0.6"/>
      </g>
     </g>
    </g>
    <g id="ytick_38">
     <g id="line2d_55">
      <g>
       <use xlink:href="#m45b4b9de39" x="77.920625" y="144.457137" style="stroke: #000000; stroke-width: 0.6"/>
      </g>
     </g>
    </g>
    <g id="ytick_39">
     <g id="line2d_56">
      <g>
       <use xlink:href="#m45b4b9de39" x="77.920625" y="129.520095" style="stroke: #000000; stroke-width: 0.6"/>
      </g>
     </g>
    </g>
    <g id="ytick_40">
     <g id="line2d_57">
      <g>
       <use xlink:href="#m45b4b9de39" x="77.920625" y="118.922095" style="stroke: #000000; stroke-width: 0.6"/>
      </g>
     </g>
    </g>
    <g id="ytick_41">
     <g id="line2d_58">
      <g>
       <use xlink:href="#m45b4b9de39" x="77.920625" y="110.701648" style="stroke: #000000; stroke-width: 0.6"/>
      </g>
     </g>
    </g>
    <g id="ytick_42">
     <g id="line2d_59">
      <g>
       <use xlink:href="#m45b4b9de39" x="77.920625" y="103.985053" style="stroke: #000000; stroke-width: 0.6"/>
      </g>
     </g>
    </g>
    <g id="ytick_43">
     <g id="line2d_60">
      <g>
       <use xlink:href="#m45b4b9de39" x="77.920625" y="98.306253" style="stroke: #000000; stroke-width: 0.6"/>
      </g>
     </g>
    </g>
    <g id="ytick_44">
     <g id="line2d_61">
      <g>
       <use xlink:href="#m45b4b9de39" x="77.920625" y="93.387053" style="stroke: #000000; stroke-width: 0.6"/>
      </g>
     </g>
    </g>
    <g id="ytick_45">
     <g id="line2d_62">
      <g>
       <use xlink:href="#m45b4b9de39" x="77.920625" y="89.048011" style="stroke: #000000; stroke-width: 0.6"/>
      </g>
     </g>
    </g>
    <g id="ytick_46">
     <g id="line2d_63">
      <g>
       <use xlink:href="#m45b4b9de39" x="77.920625" y="59.631564" style="stroke: #000000; stroke-width: 0.6"/>
      </g>
     </g>
    </g>
    <g id="ytick_47">
     <g id="line2d_64">
      <g>
       <use xlink:href="#m45b4b9de39" x="77.920625" y="44.694522" style="stroke: #000000; stroke-width: 0.6"/>
      </g>
     </g>
    </g>
    <g id="ytick_48">
     <g id="line2d_65">
      <g>
       <use xlink:href="#m45b4b9de39" x="77.920625" y="34.096522" style="stroke: #000000; stroke-width: 0.6"/>
      </g>
     </g>
    </g>
    <g id="ytick_49">
     <g id="line2d_66">
      <g>
       <use xlink:href="#m45b4b9de39" x="77.920625" y="25.876074" style="stroke: #000000; stroke-width: 0.6"/>
      </g>
     </g>
    </g>
    <g id="ytick_50">
     <g id="line2d_67">
      <g>
       <use xlink:href="#m45b4b9de39" x="77.920625" y="19.159479" style="stroke: #000000; stroke-width: 0.6"/>
      </g>
     </g>
    </g>
    <g id="ytick_51">
     <g id="line2d_68">
      <g>
       <use xlink:href="#m45b4b9de39" x="77.920625" y="13.48068" style="stroke: #000000; stroke-width: 0.6"/>
      </g>
     </g>
    </g>
    <g id="ytick_52">
     <g id="line2d_69">
      <g>
       <use xlink:href="#m45b4b9de39" x="77.920625" y="8.561479" style="stroke: #000000; stroke-width: 0.6"/>
      </g>
     </g>
    </g>
    <g id="text_13">
     <!-- Runtime -->
     <g transform="translate(20.877188 294.269063) rotate(-90) scale(0.18 -0.18)">
      <defs>
       <path id="DejaVuSans-74" d="M 1172 4494 
L 1172 3500 
L 2356 3500 
L 2356 3053 
L 1172 3053 
L 1172 1153 
Q 1172 725 1289 603 
Q 1406 481 1766 481 
L 2356 481 
L 2356 0 
L 1766 0 
Q 1100 0 847 248 
Q 594 497 594 1153 
L 594 3053 
L 172 3053 
L 172 3500 
L 594 3500 
L 594 4494 
L 1172 4494 
z
" transform="scale(0.015625)"/>
       <path id="DejaVuSans-6d" d="M 3328 2828 
Q 3544 3216 3844 3400 
Q 4144 3584 4550 3584 
Q 5097 3584 5394 3201 
Q 5691 2819 5691 2113 
L 5691 0 
L 5113 0 
L 5113 2094 
Q 5113 2597 4934 2840 
Q 4756 3084 4391 3084 
Q 3944 3084 3684 2787 
Q 3425 2491 3425 1978 
L 3425 0 
L 2847 0 
L 2847 2094 
Q 2847 2600 2669 2842 
Q 2491 3084 2119 3084 
Q 1678 3084 1418 2786 
Q 1159 2488 1159 1978 
L 1159 0 
L 581 0 
L 581 3500 
L 1159 3500 
L 1159 2956 
Q 1356 3278 1631 3431 
Q 1906 3584 2284 3584 
Q 2666 3584 2933 3390 
Q 3200 3197 3328 2828 
z
" transform="scale(0.015625)"/>
      </defs>
      <use xlink:href="#DejaVuSans-52"/>
      <use xlink:href="#DejaVuSans-75" x="64.982422"/>
      <use xlink:href="#DejaVuSans-6e" x="128.361328"/>
      <use xlink:href="#DejaVuSans-74" x="191.740234"/>
      <use xlink:href="#DejaVuSans-69" x="230.949219"/>
      <use xlink:href="#DejaVuSans-6d" x="258.732422"/>
      <use xlink:href="#DejaVuSans-65" x="356.144531"/>
     </g>
    </g>
   </g>
   <g id="line2d_70">
    <path d="M 108.356989 481.988796 
L 110.744154 294.348668 
L 113.13132 269.704003 
L 115.518486 250.405722 
L 117.905652 234.729027 
L 120.292818 224.045725 
L 125.067149 214.219017 
L 127.454315 209.482386 
L 129.841481 206.837911 
L 132.228646 203.25126 
L 134.615812 199.167965 
L 137.002978 196.641871 
L 139.390144 193.610275 
L 141.777309 190.983379 
L 144.164475 189.144523 
L 146.551641 187.118302 
L 151.325973 183.984922 
L 153.713138 182.555888 
L 158.48747 178.906552 
L 168.036133 172.492665 
L 172.810465 169.625096 
L 179.971962 165.854403 
L 184.746293 162.941593 
L 189.520625 160.122795 
L 199.069288 155.02479 
L 203.84362 152.755799 
L 211.005117 148.952252 
L 218.166614 145.34811 
L 239.651106 135.497823 
L 246.812604 132.696549 
L 268.297096 124.705469 
L 275.458593 122.271186 
L 282.62009 119.928859 
L 294.555919 116.017065 
L 313.653245 110.215466 
L 325.589074 106.808525 
L 335.137737 104.312021 
L 349.460732 100.838319 
L 366.170892 97.168824 
L 380.493887 94.269837 
L 397.204047 91.168117 
L 411.527042 88.581743 
L 428.237203 85.135214 
L 440.173031 82.836245 
L 456.883192 79.845771 
L 466.431855 78.099847 
L 478.367684 75.652872 
L 487.916347 73.807439 
L 495.077844 71.759856 
L 502.239342 70.379419 
L 545.208326 62.798312 
L 557.144154 60.865401 
L 600.113138 54.47904 
L 628.759128 50.796259 
L 669.340946 46.007184 
L 707.535598 42.028623 
L 717.084261 41.083886 
L 717.084261 41.083886 
" clip-path="url(#p4931ab43ec)" style="fill: none; stroke: #ff0000; stroke-width: 1.5; stroke-linecap: square"/>
   </g>
   <g id="line2d_71">
    <path d="M 108.356989 431.325169 
L 110.744154 253.406886 
L 113.13132 243.35242 
L 117.905652 222.233296 
L 120.292818 217.874658 
L 122.679983 212.845577 
L 127.454315 205.630782 
L 132.228646 201.737858 
L 134.615812 200.115911 
L 137.002978 198.185185 
L 139.390144 195.87704 
L 141.777309 194.162694 
L 144.164475 192.933503 
L 146.551641 191.444279 
L 148.938807 190.473813 
L 151.325973 189.633304 
L 153.713138 188.403475 
L 156.100304 186.900029 
L 158.48747 186.07877 
L 160.874636 185.079837 
L 163.261801 183.896574 
L 165.648967 182.999364 
L 168.036133 182.352271 
L 175.19763 179.647344 
L 179.971962 178.190965 
L 182.359128 177.471656 
L 189.520625 175.920976 
L 191.907791 175.39885 
L 196.682122 174.056988 
L 199.069288 173.509429 
L 201.456454 172.675895 
L 203.84362 172.325526 
L 213.392283 170.397559 
L 232.489609 167.044152 
L 237.263941 165.945572 
L 239.651106 165.403945 
L 251.586935 163.209406 
L 253.974101 162.502363 
L 258.748432 161.616405 
L 273.071427 159.598204 
L 277.845759 158.640969 
L 285.007256 157.651527 
L 287.394422 157.37063 
L 292.168753 156.319434 
L 294.555919 155.91939 
L 299.330251 155.605754 
L 306.491748 154.52199 
L 308.878914 154.070577 
L 316.040411 153.341099 
L 323.201908 152.502235 
L 327.97624 151.899481 
L 330.363406 151.676443 
L 332.750572 151.324046 
L 342.299235 150.426523 
L 349.460732 149.638199 
L 351.847898 149.212561 
L 361.396561 148.033587 
L 363.783727 147.895561 
L 370.945224 147.127824 
L 380.493887 146.284507 
L 387.655384 145.807757 
L 392.429716 145.349586 
L 397.204047 144.836789 
L 406.752711 144.357598 
L 421.075705 143.909534 
L 428.237203 143.679974 
L 444.947363 143.168935 
L 461.657523 142.564086 
L 466.431855 142.253314 
L 540.433994 139.196669 
L 571.467149 138.113519 
L 578.628646 137.833086 
L 588.177309 137.509609 
L 600.113138 136.928112 
L 614.436133 136.430402 
L 621.59763 136.132308 
L 628.759128 135.856842 
L 643.082122 135.29436 
L 681.276775 133.613581 
L 688.438272 133.272291 
L 700.374101 132.83766 
L 705.148432 132.597738 
L 717.084261 132.121923 
L 717.084261 132.121923 
" clip-path="url(#p4931ab43ec)" style="fill: none; stroke: #ff7f50; stroke-width: 1.5; stroke-linecap: square"/>
   </g>
   <g id="line2d_72">
    <path d="M 108.356989 269.184642 
L 110.744154 227.928725 
L 113.13132 215.625031 
L 115.518486 207.916382 
L 117.905652 204.561217 
L 120.292818 201.566809 
L 122.679983 198.942897 
L 127.454315 194.674648 
L 134.615812 188.883885 
L 137.002978 187.138449 
L 146.551641 181.071681 
L 153.713138 177.083294 
L 156.100304 175.842893 
L 160.874636 172.568861 
L 165.648967 169.663856 
L 170.423299 167.067118 
L 175.19763 164.545896 
L 182.359128 161.223166 
L 187.133459 158.56336 
L 196.682122 153.610339 
L 203.84362 150.2152 
L 206.230785 149.166532 
L 211.005117 146.65983 
L 218.166614 143.246384 
L 230.102443 138.062246 
L 232.489609 137.073898 
L 237.263941 134.951812 
L 244.425438 132.054131 
L 251.586935 129.351988 
L 275.458593 120.850503 
L 301.717416 112.493608 
L 311.26608 109.608502 
L 323.201908 106.145902 
L 335.137737 102.983327 
L 344.6864 100.609417 
L 356.622229 97.840468 
L 370.945224 94.770248 
L 385.268219 91.884825 
L 401.978379 88.742351 
L 411.527042 86.94478 
L 421.075705 84.851532 
L 435.3987 81.952563 
L 447.334529 79.709612 
L 464.044689 76.750053 
L 475.980518 74.125572 
L 487.916347 71.689657 
L 492.690678 70.203034 
L 495.077844 69.472239 
L 504.626507 67.582851 
L 526.110999 63.569981 
L 540.433994 61.089192 
L 557.144154 58.224825 
L 595.338807 52.280183 
L 638.307791 46.585081 
L 666.95378 43.0528 
L 693.212604 40.074608 
L 717.084261 37.565995 
L 717.084261 37.565995 
" clip-path="url(#p4931ab43ec)" style="fill: none; stroke: #8a2be2; stroke-width: 1.5; stroke-linecap: square"/>
   </g>
   <g id="patch_3">
    <path d="M 77.920625 506.16 
L 77.920625 7.2 
" style="fill: none; stroke: #000000; stroke-width: 0.8; stroke-linejoin: miter; stroke-linecap: square"/>
   </g>
   <g id="patch_4">
    <path d="M 747.520625 506.16 
L 747.520625 7.2 
" style="fill: none; stroke: #000000; stroke-width: 0.8; stroke-linejoin: miter; stroke-linecap: square"/>
   </g>
   <g id="patch_5">
    <path d="M 77.920625 506.16 
L 747.520625 506.16 
" style="fill: none; stroke: #000000; stroke-width: 0.8; stroke-linejoin: miter; stroke-linecap: square"/>
   </g>
   <g id="patch_6">
    <path d="M 77.920625 7.2 
L 747.520625 7.2 
" style="fill: none; stroke: #000000; stroke-width: 0.8; stroke-linejoin: miter; stroke-linecap: square"/>
   </g>
   <g id="legend_1">
    <g id="patch_7">
     <path d="M 500.358125 497.16 
L 734.920625 497.16 
Q 738.520625 497.16 738.520625 493.56 
L 738.520625 416.098125 
Q 738.520625 412.498125 734.920625 412.498125 
L 500.358125 412.498125 
Q 496.758125 412.498125 496.758125 416.098125 
L 496.758125 493.56 
Q 496.758125 497.16 500.358125 497.16 
z
" style="fill: #ffffff; opacity: 0.8; stroke: #cccccc; stroke-linejoin: miter"/>
    </g>
    <g id="line2d_73">
     <path d="M 503.958125 427.075313 
L 521.958125 427.075313 
L 539.958125 427.075313 
" style="fill: none; stroke: #ff0000; stroke-width: 1.5; stroke-linecap: square"/>
    </g>
    <g id="text_14">
     <!-- Hybrid-MBTL (Ours) -->
     <g transform="translate(554.358125 433.375313) scale(0.18 -0.18)">
      <defs>
       <path id="DejaVuSans-48" d="M 628 4666 
L 1259 4666 
L 1259 2753 
L 3553 2753 
L 3553 4666 
L 4184 4666 
L 4184 0 
L 3553 0 
L 3553 2222 
L 1259 2222 
L 1259 0 
L 628 0 
L 628 4666 
z
" transform="scale(0.015625)"/>
       <path id="DejaVuSans-79" d="M 2059 -325 
Q 1816 -950 1584 -1140 
Q 1353 -1331 966 -1331 
L 506 -1331 
L 506 -850 
L 844 -850 
Q 1081 -850 1212 -737 
Q 1344 -625 1503 -206 
L 1606 56 
L 191 3500 
L 800 3500 
L 1894 763 
L 2988 3500 
L 3597 3500 
L 2059 -325 
z
" transform="scale(0.015625)"/>
       <path id="DejaVuSans-62" d="M 3116 1747 
Q 3116 2381 2855 2742 
Q 2594 3103 2138 3103 
Q 1681 3103 1420 2742 
Q 1159 2381 1159 1747 
Q 1159 1113 1420 752 
Q 1681 391 2138 391 
Q 2594 391 2855 752 
Q 3116 1113 3116 1747 
z
M 1159 2969 
Q 1341 3281 1617 3432 
Q 1894 3584 2278 3584 
Q 2916 3584 3314 3078 
Q 3713 2572 3713 1747 
Q 3713 922 3314 415 
Q 2916 -91 2278 -91 
Q 1894 -91 1617 61 
Q 1341 213 1159 525 
L 1159 0 
L 581 0 
L 581 4863 
L 1159 4863 
L 1159 2969 
z
" transform="scale(0.015625)"/>
       <path id="DejaVuSans-72" d="M 2631 2963 
Q 2534 3019 2420 3045 
Q 2306 3072 2169 3072 
Q 1681 3072 1420 2755 
Q 1159 2438 1159 1844 
L 1159 0 
L 581 0 
L 581 3500 
L 1159 3500 
L 1159 2956 
Q 1341 3275 1631 3429 
Q 1922 3584 2338 3584 
Q 2397 3584 2469 3576 
Q 2541 3569 2628 3553 
L 2631 2963 
z
" transform="scale(0.015625)"/>
       <path id="DejaVuSans-2d" d="M 313 2009 
L 1997 2009 
L 1997 1497 
L 313 1497 
L 313 2009 
z
" transform="scale(0.015625)"/>
       <path id="DejaVuSans-4d" d="M 628 4666 
L 1569 4666 
L 2759 1491 
L 3956 4666 
L 4897 4666 
L 4897 0 
L 4281 0 
L 4281 4097 
L 3078 897 
L 2444 897 
L 1241 4097 
L 1241 0 
L 628 0 
L 628 4666 
z
" transform="scale(0.015625)"/>
       <path id="DejaVuSans-42" d="M 1259 2228 
L 1259 519 
L 2272 519 
Q 2781 519 3026 730 
Q 3272 941 3272 1375 
Q 3272 1813 3026 2020 
Q 2781 2228 2272 2228 
L 1259 2228 
z
M 1259 4147 
L 1259 2741 
L 2194 2741 
Q 2656 2741 2882 2914 
Q 3109 3088 3109 3444 
Q 3109 3797 2882 3972 
Q 2656 4147 2194 4147 
L 1259 4147 
z
M 628 4666 
L 2241 4666 
Q 2963 4666 3353 4366 
Q 3744 4066 3744 3513 
Q 3744 3084 3544 2831 
Q 3344 2578 2956 2516 
Q 3422 2416 3680 2098 
Q 3938 1781 3938 1306 
Q 3938 681 3513 340 
Q 3088 0 2303 0 
L 628 0 
L 628 4666 
z
" transform="scale(0.015625)"/>
       <path id="DejaVuSans-54" d="M -19 4666 
L 3928 4666 
L 3928 4134 
L 2272 4134 
L 2272 0 
L 1638 0 
L 1638 4134 
L -19 4134 
L -19 4666 
z
" transform="scale(0.015625)"/>
       <path id="DejaVuSans-4c" d="M 628 4666 
L 1259 4666 
L 1259 531 
L 3531 531 
L 3531 0 
L 628 0 
L 628 4666 
z
" transform="scale(0.015625)"/>
       <path id="DejaVuSans-28" d="M 1984 4856 
Q 1566 4138 1362 3434 
Q 1159 2731 1159 2009 
Q 1159 1288 1364 580 
Q 1569 -128 1984 -844 
L 1484 -844 
Q 1016 -109 783 600 
Q 550 1309 550 2009 
Q 550 2706 781 3412 
Q 1013 4119 1484 4856 
L 1984 4856 
z
" transform="scale(0.015625)"/>
       <path id="DejaVuSans-4f" d="M 2522 4238 
Q 1834 4238 1429 3725 
Q 1025 3213 1025 2328 
Q 1025 1447 1429 934 
Q 1834 422 2522 422 
Q 3209 422 3611 934 
Q 4013 1447 4013 2328 
Q 4013 3213 3611 3725 
Q 3209 4238 2522 4238 
z
M 2522 4750 
Q 3503 4750 4090 4092 
Q 4678 3434 4678 2328 
Q 4678 1225 4090 567 
Q 3503 -91 2522 -91 
Q 1538 -91 948 565 
Q 359 1222 359 2328 
Q 359 3434 948 4092 
Q 1538 4750 2522 4750 
z
" transform="scale(0.015625)"/>
       <path id="DejaVuSans-29" d="M 513 4856 
L 1013 4856 
Q 1481 4119 1714 3412 
Q 1947 2706 1947 2009 
Q 1947 1309 1714 600 
Q 1481 -109 1013 -844 
L 513 -844 
Q 928 -128 1133 580 
Q 1338 1288 1338 2009 
Q 1338 2731 1133 3434 
Q 928 4138 513 4856 
z
" transform="scale(0.015625)"/>
      </defs>
      <use xlink:href="#DejaVuSans-48"/>
      <use xlink:href="#DejaVuSans-79" x="75.195312"/>
      <use xlink:href="#DejaVuSans-62" x="134.375"/>
      <use xlink:href="#DejaVuSans-72" x="197.851562"/>
      <use xlink:href="#DejaVuSans-69" x="238.964844"/>
      <use xlink:href="#DejaVuSans-64" x="266.748047"/>
      <use xlink:href="#DejaVuSans-2d" x="330.224609"/>
      <use xlink:href="#DejaVuSans-4d" x="366.308594"/>
      <use xlink:href="#DejaVuSans-42" x="452.587891"/>
      <use xlink:href="#DejaVuSans-54" x="521.191406"/>
      <use xlink:href="#DejaVuSans-4c" x="582.275391"/>
      <use xlink:href="#DejaVuSans-20" x="637.988281"/>
      <use xlink:href="#DejaVuSans-28" x="669.775391"/>
      <use xlink:href="#DejaVuSans-4f" x="708.789062"/>
      <use xlink:href="#DejaVuSans-75" x="787.5"/>
      <use xlink:href="#DejaVuSans-72" x="850.878906"/>
      <use xlink:href="#DejaVuSans-73" x="891.992188"/>
      <use xlink:href="#DejaVuSans-29" x="944.091797"/>
     </g>
    </g>
    <g id="line2d_74">
     <path d="M 503.958125 453.495938 
L 521.958125 453.495938 
L 539.958125 453.495938 
" style="fill: none; stroke: #ff7f50; stroke-width: 1.5; stroke-linecap: square"/>
    </g>
    <g id="text_15">
     <!-- SC-MBTL (Ours) -->
     <g transform="translate(554.358125 459.795938) scale(0.18 -0.18)">
      <defs>
       <path id="DejaVuSans-53" d="M 3425 4513 
L 3425 3897 
Q 3066 4069 2747 4153 
Q 2428 4238 2131 4238 
Q 1616 4238 1336 4038 
Q 1056 3838 1056 3469 
Q 1056 3159 1242 3001 
Q 1428 2844 1947 2747 
L 2328 2669 
Q 3034 2534 3370 2195 
Q 3706 1856 3706 1288 
Q 3706 609 3251 259 
Q 2797 -91 1919 -91 
Q 1588 -91 1214 -16 
Q 841 59 441 206 
L 441 856 
Q 825 641 1194 531 
Q 1563 422 1919 422 
Q 2459 422 2753 634 
Q 3047 847 3047 1241 
Q 3047 1584 2836 1778 
Q 2625 1972 2144 2069 
L 1759 2144 
Q 1053 2284 737 2584 
Q 422 2884 422 3419 
Q 422 4038 858 4394 
Q 1294 4750 2059 4750 
Q 2388 4750 2728 4690 
Q 3069 4631 3425 4513 
z
" transform="scale(0.015625)"/>
       <path id="DejaVuSans-43" d="M 4122 4306 
L 4122 3641 
Q 3803 3938 3442 4084 
Q 3081 4231 2675 4231 
Q 1875 4231 1450 3742 
Q 1025 3253 1025 2328 
Q 1025 1406 1450 917 
Q 1875 428 2675 428 
Q 3081 428 3442 575 
Q 3803 722 4122 1019 
L 4122 359 
Q 3791 134 3420 21 
Q 3050 -91 2638 -91 
Q 1578 -91 968 557 
Q 359 1206 359 2328 
Q 359 3453 968 4101 
Q 1578 4750 2638 4750 
Q 3056 4750 3426 4639 
Q 3797 4528 4122 4306 
z
" transform="scale(0.015625)"/>
      </defs>
      <use xlink:href="#DejaVuSans-53"/>
      <use xlink:href="#DejaVuSans-43" x="63.476562"/>
      <use xlink:href="#DejaVuSans-2d" x="133.300781"/>
      <use xlink:href="#DejaVuSans-4d" x="169.384766"/>
      <use xlink:href="#DejaVuSans-42" x="255.664062"/>
      <use xlink:href="#DejaVuSans-54" x="324.267578"/>
      <use xlink:href="#DejaVuSans-4c" x="385.351562"/>
      <use xlink:href="#DejaVuSans-20" x="441.064453"/>
      <use xlink:href="#DejaVuSans-28" x="472.851562"/>
      <use xlink:href="#DejaVuSans-4f" x="511.865234"/>
      <use xlink:href="#DejaVuSans-75" x="590.576172"/>
      <use xlink:href="#DejaVuSans-72" x="653.955078"/>
      <use xlink:href="#DejaVuSans-73" x="695.068359"/>
      <use xlink:href="#DejaVuSans-29" x="747.167969"/>
     </g>
    </g>
    <g id="line2d_75">
     <path d="M 503.958125 479.916563 
L 521.958125 479.916563 
L 539.958125 479.916563 
" style="fill: none; stroke: #8a2be2; stroke-width: 1.5; stroke-linecap: square"/>
    </g>
    <g id="text_16">
     <!-- GP-MBTL -->
     <g transform="translate(554.358125 486.216563) scale(0.18 -0.18)">
      <defs>
       <path id="DejaVuSans-47" d="M 3809 666 
L 3809 1919 
L 2778 1919 
L 2778 2438 
L 4434 2438 
L 4434 434 
Q 4069 175 3628 42 
Q 3188 -91 2688 -91 
Q 1594 -91 976 548 
Q 359 1188 359 2328 
Q 359 3472 976 4111 
Q 1594 4750 2688 4750 
Q 3144 4750 3555 4637 
Q 3966 4525 4313 4306 
L 4313 3634 
Q 3963 3931 3569 4081 
Q 3175 4231 2741 4231 
Q 1884 4231 1454 3753 
Q 1025 3275 1025 2328 
Q 1025 1384 1454 906 
Q 1884 428 2741 428 
Q 3075 428 3337 486 
Q 3600 544 3809 666 
z
" transform="scale(0.015625)"/>
       <path id="DejaVuSans-50" d="M 1259 4147 
L 1259 2394 
L 2053 2394 
Q 2494 2394 2734 2622 
Q 2975 2850 2975 3272 
Q 2975 3691 2734 3919 
Q 2494 4147 2053 4147 
L 1259 4147 
z
M 628 4666 
L 2053 4666 
Q 2838 4666 3239 4311 
Q 3641 3956 3641 3272 
Q 3641 2581 3239 2228 
Q 2838 1875 2053 1875 
L 1259 1875 
L 1259 0 
L 628 0 
L 628 4666 
z
" transform="scale(0.015625)"/>
      </defs>
      <use xlink:href="#DejaVuSans-47"/>
      <use xlink:href="#DejaVuSans-50" x="77.490234"/>
      <use xlink:href="#DejaVuSans-2d" x="135.542969"/>
      <use xlink:href="#DejaVuSans-4d" x="171.626953"/>
      <use xlink:href="#DejaVuSans-42" x="257.90625"/>
      <use xlink:href="#DejaVuSans-54" x="326.509766"/>
      <use xlink:href="#DejaVuSans-4c" x="387.59375"/>
     </g>
    </g>
   </g>
  </g>
 </g>
 <defs>
  <clipPath id="p4931ab43ec">
   <rect x="77.920625" y="7.2" width="669.6" height="498.96"/>
  </clipPath>
 </defs>
</svg>
