<?xml version="1.0" encoding="utf-8" standalone="no"?>
<!DOCTYPE svg PUBLIC "-//W3C//DTD SVG 1.1//EN"
  "http://www.w3.org/Graphics/SVG/1.1/DTD/svg11.dtd">
<svg xmlns:xlink="http://www.w3.org/1999/xlink" width="568.875312pt" height="390.50916pt" viewBox="0 0 568.875312 390.50916" xmlns="http://www.w3.org/2000/svg" version="1.1">
 <metadata>
  <rdf:RDF xmlns:dc="http://purl.org/dc/elements/1.1/" xmlns:cc="http://creativecommons.org/ns#" xmlns:rdf="http://www.w3.org/1999/02/22-rdf-syntax-ns#">
   <cc:Work>
    <dc:type rdf:resource="http://purl.org/dc/dcmitype/StillImage"/>
    <dc:date>2025-05-15T23:47:06.845797</dc:date>
    <dc:format>image/svg+xml</dc:format>
    <dc:creator>
     <cc:Agent>
      <dc:title>Matplotlib v3.9.4, https://matplotlib.org/</dc:title>
     </cc:Agent>
    </dc:creator>
   </cc:Work>
  </rdf:RDF>
 </metadata>
 <defs>
  <style type="text/css">*{stroke-linejoin: round; stroke-linecap: butt}</style>
 </defs>
 <g id="figure_1">
  <g id="patch_1">
   <path d="M 0 390.50916 
L 568.875312 390.50916 
L 568.875312 0 
L 0 0 
z
" style="fill: #ffffff"/>
  </g>
  <g id="axes_1">
   <g id="patch_2">
    <path d="M 59.475313 340.371347 
L 561.675313 340.371347 
L 561.675313 7.731347 
L 59.475313 7.731347 
z
" style="fill: #ffffff"/>
   </g>
   <g id="PolyCollection_1">
    <defs>
     <path id="ma289da3035" d="M 82.302585 -306.144291 
L 82.302585 -299.379534 
L 151.019523 -299.379534 
L 191.216355 -299.379534 
L 219.736461 -299.379534 
L 241.858374 -299.379534 
L 259.933293 -299.379534 
L 275.21542 -299.379534 
L 288.4534 -299.379534 
L 300.130125 -299.379534 
L 310.575312 -299.379534 
L 320.024134 -299.379534 
L 328.650231 -299.379534 
L 336.585472 -299.379534 
L 343.932358 -299.379534 
L 350.772144 -299.379534 
L 357.170338 -299.379534 
L 363.180516 -299.379534 
L 368.847063 -299.379534 
L 374.207157 -299.379534 
L 379.292251 -299.379534 
L 384.12919 -299.379534 
L 388.741072 -299.379534 
L 393.147912 -299.379534 
L 397.36717 -299.379534 
L 401.414164 -299.379534 
L 405.30241 -299.379534 
L 409.043895 -299.379534 
L 412.649296 -299.379534 
L 416.128165 -299.379534 
L 419.489083 -299.379534 
L 422.739786 -299.379534 
L 425.887276 -299.379534 
L 428.937904 -299.379534 
L 431.897454 -299.379534 
L 434.771209 -299.379534 
L 437.564002 -299.379534 
L 440.28027 -299.379534 
L 442.924095 -299.379534 
L 445.499242 -299.379534 
L 448.009189 -299.379534 
L 450.457155 -299.379534 
L 452.846128 -299.379534 
L 455.178884 -299.379534 
L 457.45801 -299.379534 
L 459.685915 -299.379534 
L 461.86485 -299.379534 
L 463.996924 -299.379534 
L 466.084108 -299.379534 
L 468.128254 -299.379534 
L 470.131102 -299.379534 
L 472.094286 -299.379534 
L 474.019348 -299.379534 
L 475.907741 -299.379534 
L 477.760833 -299.379534 
L 479.579923 -299.379534 
L 481.366234 -299.379534 
L 483.120927 -299.379534 
L 484.845103 -299.379534 
L 486.539804 -299.379534 
L 488.206021 -299.379534 
L 489.844696 -299.379534 
L 491.456725 -299.379534 
L 493.04296 -299.379534 
L 494.604214 -299.379534 
L 496.141261 -299.379534 
L 497.654842 -299.379534 
L 499.145661 -299.379534 
L 500.614392 -299.379534 
L 502.061682 -299.379534 
L 503.488147 -299.379534 
L 504.894377 -299.379534 
L 506.28094 -299.379534 
L 507.648376 -299.379534 
L 508.997208 -299.379534 
L 510.327934 -299.379534 
L 511.641033 -299.379534 
L 512.936968 -299.379534 
L 514.21618 -299.379534 
L 515.479097 -299.379534 
L 516.726127 -299.379534 
L 517.957665 -299.379534 
L 519.174093 -299.379534 
L 520.375775 -299.379534 
L 521.563066 -299.379534 
L 522.736305 -299.379534 
L 523.895823 -299.379534 
L 525.041935 -299.379534 
L 526.174948 -299.379534 
L 527.295159 -299.379534 
L 528.402853 -299.379534 
L 529.498307 -299.379534 
L 530.581788 -299.379534 
L 531.653556 -299.379534 
L 532.713862 -299.379534 
L 533.762946 -299.379534 
L 534.801046 -299.379534 
L 535.828387 -299.379534 
L 536.845192 -299.379534 
L 537.851674 -299.379534 
L 538.84804 -299.379534 
L 538.84804 -306.144291 
L 538.84804 -306.144291 
L 537.851674 -306.144291 
L 536.845192 -306.144291 
L 535.828387 -306.144291 
L 534.801046 -306.144291 
L 533.762946 -306.144291 
L 532.713862 -306.144291 
L 531.653556 -306.144291 
L 530.581788 -306.144291 
L 529.498307 -306.144291 
L 528.402853 -306.144291 
L 527.295159 -306.144291 
L 526.174948 -306.144291 
L 525.041935 -306.144291 
L 523.895823 -306.144291 
L 522.736305 -306.144291 
L 521.563066 -306.144291 
L 520.375775 -306.144291 
L 519.174093 -306.144291 
L 517.957665 -306.144291 
L 516.726127 -306.144291 
L 515.479097 -306.144291 
L 514.21618 -306.144291 
L 512.936968 -306.144291 
L 511.641033 -306.144291 
L 510.327934 -306.144291 
L 508.997208 -306.144291 
L 507.648376 -306.144291 
L 506.28094 -306.144291 
L 504.894377 -306.144291 
L 503.488147 -306.144291 
L 502.061682 -306.144291 
L 500.614392 -306.144291 
L 499.145661 -306.144291 
L 497.654842 -306.144291 
L 496.141261 -306.144291 
L 494.604214 -306.144291 
L 493.04296 -306.144291 
L 491.456725 -306.144291 
L 489.844696 -306.144291 
L 488.206021 -306.144291 
L 486.539804 -306.144291 
L 484.845103 -306.144291 
L 483.120927 -306.144291 
L 481.366234 -306.144291 
L 479.579923 -306.144291 
L 477.760833 -306.144291 
L 475.907741 -306.144291 
L 474.019348 -306.144291 
L 472.094286 -306.144291 
L 470.131102 -306.144291 
L 468.128254 -306.144291 
L 466.084108 -306.144291 
L 463.996924 -306.144291 
L 461.86485 -306.144291 
L 459.685915 -306.144291 
L 457.45801 -306.144291 
L 455.178884 -306.144291 
L 452.846128 -306.144291 
L 450.457155 -306.144291 
L 448.009189 -306.144291 
L 445.499242 -306.144291 
L 442.924095 -306.144291 
L 440.28027 -306.144291 
L 437.564002 -306.144291 
L 434.771209 -306.144291 
L 431.897454 -306.144291 
L 428.937904 -306.144291 
L 425.887276 -306.144291 
L 422.739786 -306.144291 
L 419.489083 -306.144291 
L 416.128165 -306.144291 
L 412.649296 -306.144291 
L 409.043895 -306.144291 
L 405.30241 -306.144291 
L 401.414164 -306.144291 
L 397.36717 -306.144291 
L 393.147912 -306.144291 
L 388.741072 -306.144291 
L 384.12919 -306.144291 
L 379.292251 -306.144291 
L 374.207157 -306.144291 
L 368.847063 -306.144291 
L 363.180516 -306.144291 
L 357.170338 -306.144291 
L 350.772144 -306.144291 
L 343.932358 -306.144291 
L 336.585472 -306.144291 
L 328.650231 -306.144291 
L 320.024134 -306.144291 
L 310.575312 -306.144291 
L 300.130125 -306.144291 
L 288.4534 -306.144291 
L 275.21542 -306.144291 
L 259.933293 -306.144291 
L 241.858374 -306.144291 
L 219.736461 -306.144291 
L 191.216355 -306.144291 
L 151.019523 -306.144291 
L 82.302585 -306.144291 
z
" style="stroke: #fdc086; stroke-opacity: 0.05"/>
    </defs>
    <g clip-path="url(#p5bf1c3e299)">
     <use xlink:href="#ma289da3035" x="0" y="390.50916" style="fill: #fdc086; fill-opacity: 0.05; stroke: #fdc086; stroke-opacity: 0.05"/>
    </g>
   </g>
   <g id="PolyCollection_2">
    <defs>
     <path id="m41f619e040" d="M 82.302585 -223.459468 
L 82.302585 -119.6028 
L 151.019523 -119.6028 
L 191.216355 -119.6028 
L 219.736461 -119.6028 
L 241.858374 -119.6028 
L 259.933293 -119.6028 
L 275.21542 -119.6028 
L 288.4534 -119.6028 
L 300.130125 -119.6028 
L 310.575312 -119.6028 
L 320.024134 -119.6028 
L 328.650231 -119.6028 
L 336.585472 -119.6028 
L 343.932358 -119.6028 
L 350.772144 -119.6028 
L 357.170338 -119.6028 
L 363.180516 -119.6028 
L 368.847063 -119.6028 
L 374.207157 -119.6028 
L 379.292251 -119.6028 
L 384.12919 -119.6028 
L 388.741072 -119.6028 
L 393.147912 -119.6028 
L 397.36717 -119.6028 
L 401.414164 -119.6028 
L 405.30241 -119.6028 
L 409.043895 -119.6028 
L 412.649296 -119.6028 
L 416.128165 -119.6028 
L 419.489083 -119.6028 
L 422.739786 -119.6028 
L 425.887276 -119.6028 
L 428.937904 -119.6028 
L 431.897454 -119.6028 
L 434.771209 -119.6028 
L 437.564002 -119.6028 
L 440.28027 -119.6028 
L 442.924095 -119.6028 
L 445.499242 -119.6028 
L 448.009189 -119.6028 
L 450.457155 -119.6028 
L 452.846128 -119.6028 
L 455.178884 -119.6028 
L 457.45801 -119.6028 
L 459.685915 -119.6028 
L 461.86485 -119.6028 
L 463.996924 -119.6028 
L 466.084108 -119.6028 
L 468.128254 -119.6028 
L 470.131102 -119.6028 
L 472.094286 -119.6028 
L 474.019348 -119.6028 
L 475.907741 -119.6028 
L 477.760833 -119.6028 
L 479.579923 -119.6028 
L 481.366234 -119.6028 
L 483.120927 -119.6028 
L 484.845103 -119.6028 
L 486.539804 -119.6028 
L 488.206021 -119.6028 
L 489.844696 -119.6028 
L 491.456725 -119.6028 
L 493.04296 -119.6028 
L 494.604214 -119.6028 
L 496.141261 -119.6028 
L 497.654842 -119.6028 
L 499.145661 -119.6028 
L 500.614392 -119.6028 
L 502.061682 -119.6028 
L 503.488147 -119.6028 
L 504.894377 -119.6028 
L 506.28094 -119.6028 
L 507.648376 -119.6028 
L 508.997208 -119.6028 
L 510.327934 -119.6028 
L 511.641033 -119.6028 
L 512.936968 -119.6028 
L 514.21618 -119.6028 
L 515.479097 -119.6028 
L 516.726127 -119.6028 
L 517.957665 -119.6028 
L 519.174093 -119.6028 
L 520.375775 -119.6028 
L 521.563066 -119.6028 
L 522.736305 -119.6028 
L 523.895823 -119.6028 
L 525.041935 -119.6028 
L 526.174948 -119.6028 
L 527.295159 -119.6028 
L 528.402853 -119.6028 
L 529.498307 -119.6028 
L 530.581788 -119.6028 
L 531.653556 -119.6028 
L 532.713862 -119.6028 
L 533.762946 -119.6028 
L 534.801046 -119.6028 
L 535.828387 -119.6028 
L 536.845192 -119.6028 
L 537.851674 -119.6028 
L 538.84804 -119.6028 
L 538.84804 -223.459468 
L 538.84804 -223.459468 
L 537.851674 -223.459468 
L 536.845192 -223.459468 
L 535.828387 -223.459468 
L 534.801046 -223.459468 
L 533.762946 -223.459468 
L 532.713862 -223.459468 
L 531.653556 -223.459468 
L 530.581788 -223.459468 
L 529.498307 -223.459468 
L 528.402853 -223.459468 
L 527.295159 -223.459468 
L 526.174948 -223.459468 
L 525.041935 -223.459468 
L 523.895823 -223.459468 
L 522.736305 -223.459468 
L 521.563066 -223.459468 
L 520.375775 -223.459468 
L 519.174093 -223.459468 
L 517.957665 -223.459468 
L 516.726127 -223.459468 
L 515.479097 -223.459468 
L 514.21618 -223.459468 
L 512.936968 -223.459468 
L 511.641033 -223.459468 
L 510.327934 -223.459468 
L 508.997208 -223.459468 
L 507.648376 -223.459468 
L 506.28094 -223.459468 
L 504.894377 -223.459468 
L 503.488147 -223.459468 
L 502.061682 -223.459468 
L 500.614392 -223.459468 
L 499.145661 -223.459468 
L 497.654842 -223.459468 
L 496.141261 -223.459468 
L 494.604214 -223.459468 
L 493.04296 -223.459468 
L 491.456725 -223.459468 
L 489.844696 -223.459468 
L 488.206021 -223.459468 
L 486.539804 -223.459468 
L 484.845103 -223.459468 
L 483.120927 -223.459468 
L 481.366234 -223.459468 
L 479.579923 -223.459468 
L 477.760833 -223.459468 
L 475.907741 -223.459468 
L 474.019348 -223.459468 
L 472.094286 -223.459468 
L 470.131102 -223.459468 
L 468.128254 -223.459468 
L 466.084108 -223.459468 
L 463.996924 -223.459468 
L 461.86485 -223.459468 
L 459.685915 -223.459468 
L 457.45801 -223.459468 
L 455.178884 -223.459468 
L 452.846128 -223.459468 
L 450.457155 -223.459468 
L 448.009189 -223.459468 
L 445.499242 -223.459468 
L 442.924095 -223.459468 
L 440.28027 -223.459468 
L 437.564002 -223.459468 
L 434.771209 -223.459468 
L 431.897454 -223.459468 
L 428.937904 -223.459468 
L 425.887276 -223.459468 
L 422.739786 -223.459468 
L 419.489083 -223.459468 
L 416.128165 -223.459468 
L 412.649296 -223.459468 
L 409.043895 -223.459468 
L 405.30241 -223.459468 
L 401.414164 -223.459468 
L 397.36717 -223.459468 
L 393.147912 -223.459468 
L 388.741072 -223.459468 
L 384.12919 -223.459468 
L 379.292251 -223.459468 
L 374.207157 -223.459468 
L 368.847063 -223.459468 
L 363.180516 -223.459468 
L 357.170338 -223.459468 
L 350.772144 -223.459468 
L 343.932358 -223.459468 
L 336.585472 -223.459468 
L 328.650231 -223.459468 
L 320.024134 -223.459468 
L 310.575312 -223.459468 
L 300.130125 -223.459468 
L 288.4534 -223.459468 
L 275.21542 -223.459468 
L 259.933293 -223.459468 
L 241.858374 -223.459468 
L 219.736461 -223.459468 
L 191.216355 -223.459468 
L 151.019523 -223.459468 
L 82.302585 -223.459468 
z
" style="stroke: #beaed4; stroke-opacity: 0.05"/>
    </defs>
    <g clip-path="url(#p5bf1c3e299)">
     <use xlink:href="#m41f619e040" x="0" y="390.50916" style="fill: #beaed4; fill-opacity: 0.05; stroke: #beaed4; stroke-opacity: 0.05"/>
    </g>
   </g>
   <g id="PolyCollection_3">
    <defs>
     <path id="mebe18ee9ef" d="M 82.302585 -217.008459 
L 82.302585 -65.257812 
L 151.019523 -149.054258 
L 191.216355 -202.077377 
L 219.736461 -229.924172 
L 241.858374 -250.678572 
L 259.933293 -264.964599 
L 275.21542 -276.05506 
L 288.4534 -282.600008 
L 300.130125 -289.717546 
L 310.575312 -295.088887 
L 320.024134 -301.732243 
L 328.650231 -304.24204 
L 336.585472 -307.378604 
L 343.932358 -309.123454 
L 350.772144 -312.22718 
L 357.170338 -314.872394 
L 363.180516 -317.591251 
L 368.847063 -319.62942 
L 374.207157 -320.921533 
L 379.292251 -322.762765 
L 384.12919 -324.230846 
L 388.741072 -325.607167 
L 393.147912 -327.232798 
L 397.36717 -327.89338 
L 401.414164 -329.930081 
L 405.30241 -331.11219 
L 409.043895 -333.281488 
L 412.649296 -334.0937 
L 416.128165 -334.736922 
L 419.489083 -335.38892 
L 422.739786 -336.088354 
L 425.887276 -336.358519 
L 428.937904 -337.044221 
L 431.897454 -337.649859 
L 434.771209 -338.230988 
L 437.564002 -338.567921 
L 440.28027 -338.964687 
L 442.924095 -339.333619 
L 445.499242 -339.640254 
L 448.009189 -340.044845 
L 450.457155 -340.486558 
L 452.846128 -340.925625 
L 455.178884 -341.426312 
L 457.45801 -342.143629 
L 459.685915 -342.622279 
L 461.86485 -343.008515 
L 463.996924 -343.321652 
L 466.084108 -343.578966 
L 468.128254 -343.976826 
L 470.131102 -344.269338 
L 472.094286 -344.75634 
L 474.019348 -344.927834 
L 475.907741 -345.189573 
L 477.760833 -345.450483 
L 479.579923 -345.596893 
L 481.366234 -345.836868 
L 483.120927 -346.069584 
L 484.845103 -346.41643 
L 486.539804 -346.816155 
L 488.206021 -347.016763 
L 489.844696 -347.415355 
L 491.456725 -347.497221 
L 493.04296 -348.04019 
L 494.604214 -348.248991 
L 496.141261 -348.346339 
L 497.654842 -348.629474 
L 499.145661 -348.716679 
L 500.614392 -348.898593 
L 502.061682 -349.144043 
L 503.488147 -349.243369 
L 504.894377 -349.452028 
L 506.28094 -349.506951 
L 507.648376 -349.710328 
L 508.997208 -349.838867 
L 510.327934 -350.025529 
L 511.641033 -350.164149 
L 512.936968 -350.471453 
L 514.21618 -350.52668 
L 515.479097 -350.748468 
L 516.726127 -350.995345 
L 517.957665 -351.288056 
L 519.174093 -351.567901 
L 520.375775 -351.642713 
L 521.563066 -351.76453 
L 522.736305 -351.864607 
L 523.895823 -351.932712 
L 525.041935 -351.971352 
L 526.174948 -352.221116 
L 527.295159 -352.351701 
L 528.402853 -352.418511 
L 529.498307 -352.52148 
L 530.581788 -352.711554 
L 531.653556 -353.108512 
L 532.713862 -353.142332 
L 533.762946 -353.224076 
L 534.801046 -353.320003 
L 535.828387 -353.436742 
L 536.845192 -353.462219 
L 537.851674 -353.583329 
L 538.84804 -353.646342 
L 538.84804 -360.901012 
L 538.84804 -360.901012 
L 537.851674 -360.824099 
L 536.845192 -360.735343 
L 535.828387 -360.70927 
L 534.801046 -360.572388 
L 533.762946 -360.476812 
L 532.713862 -360.3795 
L 531.653556 -360.360151 
L 530.581788 -360.319445 
L 529.498307 -360.217024 
L 528.402853 -360.159167 
L 527.295159 -360.090226 
L 526.174948 -359.948266 
L 525.041935 -359.90196 
L 523.895823 -359.854391 
L 522.736305 -359.719636 
L 521.563066 -359.633882 
L 520.375775 -359.50588 
L 519.174093 -359.390012 
L 517.957665 -359.240965 
L 516.726127 -359.168694 
L 515.479097 -359.057925 
L 514.21618 -358.916775 
L 512.936968 -358.831877 
L 511.641033 -358.626587 
L 510.327934 -358.533065 
L 508.997208 -358.409972 
L 507.648376 -358.38345 
L 506.28094 -358.174731 
L 504.894377 -357.998791 
L 503.488147 -357.863794 
L 502.061682 -357.764908 
L 500.614392 -357.539312 
L 499.145661 -357.406419 
L 497.654842 -357.339327 
L 496.141261 -357.26851 
L 494.604214 -357.209878 
L 493.04296 -357.101154 
L 491.456725 -356.962777 
L 489.844696 -356.813499 
L 488.206021 -356.860049 
L 486.539804 -356.67822 
L 484.845103 -356.581637 
L 483.120927 -356.399746 
L 481.366234 -356.186248 
L 479.579923 -355.964271 
L 477.760833 -355.850154 
L 475.907741 -355.683109 
L 474.019348 -355.443577 
L 472.094286 -355.360107 
L 470.131102 -355.091485 
L 468.128254 -354.986029 
L 466.084108 -354.674705 
L 463.996924 -354.543636 
L 461.86485 -354.412626 
L 459.685915 -354.079248 
L 457.45801 -353.831183 
L 455.178884 -353.685012 
L 452.846128 -353.472192 
L 450.457155 -353.052562 
L 448.009189 -352.905289 
L 445.499242 -352.561756 
L 442.924095 -352.143217 
L 440.28027 -351.684471 
L 437.564002 -351.091268 
L 434.771209 -350.639004 
L 431.897454 -350.221079 
L 428.937904 -349.829979 
L 425.887276 -349.566618 
L 422.739786 -349.281813 
L 419.489083 -348.729112 
L 416.128165 -348.312176 
L 412.649296 -347.916537 
L 409.043895 -347.565962 
L 405.30241 -347.285792 
L 401.414164 -346.685097 
L 397.36717 -346.509616 
L 393.147912 -345.728869 
L 388.741072 -345.154147 
L 384.12919 -344.115788 
L 379.292251 -342.790087 
L 374.207157 -342.001085 
L 368.847063 -341.267548 
L 363.180516 -340.350922 
L 357.170338 -339.385343 
L 350.772144 -338.589426 
L 343.932358 -337.290056 
L 336.585472 -335.603657 
L 328.650231 -333.180961 
L 320.024134 -330.72783 
L 310.575312 -329.131059 
L 300.130125 -324.619099 
L 288.4534 -322.413011 
L 275.21542 -317.09144 
L 259.933293 -312.647377 
L 241.858374 -307.924897 
L 219.736461 -299.155937 
L 191.216355 -288.396654 
L 151.019523 -267.472637 
L 82.302585 -217.008459 
z
" style="stroke: #7fc97f; stroke-opacity: 0.05"/>
    </defs>
    <g clip-path="url(#p5bf1c3e299)">
     <use xlink:href="#mebe18ee9ef" x="0" y="390.50916" style="fill: #7fc97f; fill-opacity: 0.05; stroke: #7fc97f; stroke-opacity: 0.05"/>
    </g>
   </g>
   <g id="PolyCollection_4">
    <defs>
     <path id="me9714beb2d" d="M 82.302585 -248.000337 
L 82.302585 -215.646295 
L 151.019523 -233.203231 
L 191.216355 -244.635393 
L 219.736461 -256.539306 
L 241.858374 -271.87934 
L 259.933293 -280.71489 
L 275.21542 -287.672663 
L 288.4534 -292.097061 
L 300.130125 -296.160755 
L 310.575312 -299.485809 
L 320.024134 -302.315121 
L 328.650231 -305.931595 
L 336.585472 -308.91089 
L 343.932358 -311.576004 
L 350.772144 -313.261148 
L 357.170338 -314.55429 
L 363.180516 -316.960794 
L 368.847063 -318.552854 
L 374.207157 -320.29342 
L 379.292251 -321.516603 
L 384.12919 -323.268006 
L 388.741072 -324.80776 
L 393.147912 -325.781493 
L 397.36717 -327.038169 
L 401.414164 -328.345726 
L 405.30241 -329.638234 
L 409.043895 -330.13131 
L 412.649296 -331.467612 
L 416.128165 -332.463101 
L 419.489083 -332.896223 
L 422.739786 -333.270935 
L 425.887276 -334.055943 
L 428.937904 -334.41226 
L 431.897454 -335.6278 
L 434.771209 -335.887436 
L 437.564002 -336.800318 
L 440.28027 -337.496697 
L 442.924095 -337.921669 
L 445.499242 -338.306775 
L 448.009189 -339.017051 
L 450.457155 -339.347754 
L 452.846128 -339.752698 
L 455.178884 -340.17685 
L 457.45801 -340.626889 
L 459.685915 -341.082188 
L 461.86485 -341.531607 
L 463.996924 -342.175911 
L 466.084108 -342.327779 
L 468.128254 -342.742263 
L 470.131102 -343.107104 
L 472.094286 -343.615453 
L 474.019348 -343.750682 
L 475.907741 -344.240876 
L 477.760833 -344.519882 
L 479.579923 -344.768164 
L 481.366234 -344.981791 
L 483.120927 -345.233694 
L 484.845103 -345.460757 
L 486.539804 -345.588933 
L 488.206021 -345.757619 
L 489.844696 -346.139814 
L 491.456725 -346.26537 
L 493.04296 -346.393902 
L 494.604214 -346.706579 
L 496.141261 -346.95287 
L 497.654842 -347.356548 
L 499.145661 -347.491182 
L 500.614392 -347.588917 
L 502.061682 -347.654767 
L 503.488147 -347.777762 
L 504.894377 -347.876061 
L 506.28094 -348.244876 
L 507.648376 -348.432997 
L 508.997208 -348.603922 
L 510.327934 -348.795758 
L 511.641033 -349.049271 
L 512.936968 -349.194979 
L 514.21618 -349.36493 
L 515.479097 -349.577053 
L 516.726127 -349.704251 
L 517.957665 -349.911746 
L 519.174093 -350.080961 
L 520.375775 -350.302165 
L 521.563066 -350.472432 
L 522.736305 -350.607343 
L 523.895823 -350.755283 
L 525.041935 -350.872918 
L 526.174948 -351.129916 
L 527.295159 -351.205968 
L 528.402853 -351.39615 
L 529.498307 -351.446958 
L 530.581788 -351.47859 
L 531.653556 -351.57662 
L 532.713862 -351.725331 
L 533.762946 -351.869506 
L 534.801046 -352.118973 
L 535.828387 -352.347226 
L 536.845192 -352.501745 
L 537.851674 -352.57651 
L 538.84804 -352.735341 
L 538.84804 -361.706181 
L 538.84804 -361.706181 
L 537.851674 -361.508258 
L 536.845192 -361.427368 
L 535.828387 -361.41011 
L 534.801046 -361.278944 
L 533.762946 -361.218605 
L 532.713862 -361.158336 
L 531.653556 -361.090581 
L 530.581788 -360.995862 
L 529.498307 -360.932275 
L 528.402853 -360.869173 
L 527.295159 -360.824118 
L 526.174948 -360.721706 
L 525.041935 -360.638613 
L 523.895823 -360.575862 
L 522.736305 -360.461699 
L 521.563066 -360.399181 
L 520.375775 -360.32144 
L 519.174093 -360.29759 
L 517.957665 -360.160301 
L 516.726127 -360.07902 
L 515.479097 -359.962468 
L 514.21618 -359.925352 
L 512.936968 -359.716289 
L 511.641033 -359.644685 
L 510.327934 -359.449219 
L 508.997208 -359.359713 
L 507.648376 -359.235441 
L 506.28094 -359.173884 
L 504.894377 -359.156247 
L 503.488147 -359.073985 
L 502.061682 -359.028251 
L 500.614392 -358.958562 
L 499.145661 -358.881642 
L 497.654842 -358.656053 
L 496.141261 -358.565345 
L 494.604214 -358.355226 
L 493.04296 -358.257567 
L 491.456725 -358.045497 
L 489.844696 -357.903277 
L 488.206021 -357.845764 
L 486.539804 -357.723291 
L 484.845103 -357.577522 
L 483.120927 -357.304227 
L 481.366234 -357.171995 
L 479.579923 -357.057659 
L 477.760833 -356.726891 
L 475.907741 -356.666967 
L 474.019348 -356.259172 
L 472.094286 -356.127357 
L 470.131102 -356.044089 
L 468.128254 -355.765186 
L 466.084108 -355.544232 
L 463.996924 -355.436665 
L 461.86485 -355.215309 
L 459.685915 -355.130046 
L 457.45801 -354.67077 
L 455.178884 -354.473406 
L 452.846128 -354.173711 
L 450.457155 -353.788998 
L 448.009189 -353.545344 
L 445.499242 -353.400699 
L 442.924095 -353.229885 
L 440.28027 -352.932408 
L 437.564002 -352.564263 
L 434.771209 -352.206289 
L 431.897454 -351.889924 
L 428.937904 -351.709425 
L 425.887276 -351.302934 
L 422.739786 -350.943947 
L 419.489083 -350.609665 
L 416.128165 -350.11322 
L 412.649296 -349.807633 
L 409.043895 -349.064054 
L 405.30241 -348.085569 
L 401.414164 -347.807495 
L 397.36717 -346.879544 
L 393.147912 -346.148602 
L 388.741072 -345.444537 
L 384.12919 -344.646793 
L 379.292251 -343.93014 
L 374.207157 -342.999421 
L 368.847063 -341.907237 
L 363.180516 -340.247904 
L 357.170338 -339.6507 
L 350.772144 -338.12368 
L 343.932358 -337.236251 
L 336.585472 -335.738448 
L 328.650231 -334.266701 
L 320.024134 -332.732854 
L 310.575312 -330.201816 
L 300.130125 -328.376537 
L 288.4534 -325.672519 
L 275.21542 -321.894137 
L 259.933293 -318.868714 
L 241.858374 -314.72287 
L 219.736461 -308.027379 
L 191.216355 -301.244061 
L 151.019523 -277.031932 
L 82.302585 -248.000337 
z
" style="stroke: #bf5b17; stroke-opacity: 0.05"/>
    </defs>
    <g clip-path="url(#p5bf1c3e299)">
     <use xlink:href="#me9714beb2d" x="0" y="390.50916" style="fill: #bf5b17; fill-opacity: 0.05; stroke: #bf5b17; stroke-opacity: 0.05"/>
    </g>
   </g>
   <g id="PolyCollection_5">
    <defs>
     <path id="m896d57d675" d="M 82.302585 -248.000337 
L 82.302585 -215.646295 
L 151.019523 -233.98658 
L 191.216355 -239.226825 
L 219.736461 -254.500106 
L 241.858374 -272.194938 
L 259.933293 -302.177298 
L 275.21542 -304.785726 
L 288.4534 -310.473173 
L 300.130125 -314.864671 
L 310.575312 -315.745114 
L 320.024134 -320.309044 
L 328.650231 -325.543658 
L 336.585472 -325.639709 
L 343.932358 -326.726526 
L 350.772144 -326.91364 
L 357.170338 -327.838236 
L 363.180516 -330.385772 
L 368.847063 -330.43767 
L 374.207157 -333.51527 
L 379.292251 -333.535929 
L 384.12919 -333.538818 
L 388.741072 -335.495373 
L 393.147912 -335.553366 
L 397.36717 -336.109943 
L 401.414164 -337.237311 
L 405.30241 -337.479285 
L 409.043895 -338.076278 
L 412.649296 -340.236135 
L 416.128165 -340.292165 
L 419.489083 -340.423435 
L 422.739786 -340.520883 
L 425.887276 -341.011512 
L 428.937904 -341.314837 
L 431.897454 -341.432225 
L 434.771209 -341.722118 
L 437.564002 -341.756126 
L 440.28027 -341.930611 
L 442.924095 -342.023417 
L 445.499242 -342.215977 
L 448.009189 -342.305907 
L 450.457155 -342.321426 
L 452.846128 -343.120754 
L 455.178884 -343.135936 
L 457.45801 -343.160991 
L 459.685915 -343.277461 
L 461.86485 -343.879554 
L 463.996924 -343.902435 
L 466.084108 -344.084214 
L 468.128254 -344.520555 
L 470.131102 -344.587195 
L 472.094286 -344.595898 
L 474.019348 -347.807305 
L 475.907741 -347.808766 
L 477.760833 -348.121228 
L 479.579923 -348.202006 
L 481.366234 -348.225496 
L 483.120927 -348.425488 
L 484.845103 -348.569193 
L 486.539804 -348.572244 
L 488.206021 -348.777246 
L 489.844696 -349.011314 
L 491.456725 -349.011314 
L 493.04296 -349.013668 
L 494.604214 -349.029793 
L 496.141261 -350.651131 
L 497.654842 -350.718487 
L 499.145661 -350.899176 
L 500.614392 -350.924565 
L 502.061682 -351.149166 
L 503.488147 -351.197045 
L 504.894377 -351.342189 
L 506.28094 -351.342206 
L 507.648376 -351.344735 
L 508.997208 -351.620032 
L 510.327934 -351.650584 
L 511.641033 -351.712084 
L 512.936968 -351.937886 
L 514.21618 -352.416576 
L 515.479097 -352.476679 
L 516.726127 -352.478503 
L 517.957665 -352.484103 
L 519.174093 -352.758132 
L 520.375775 -353.481862 
L 521.563066 -355.00353 
L 522.736305 -355.349861 
L 523.895823 -355.365857 
L 525.041935 -355.366368 
L 526.174948 -355.398339 
L 527.295159 -355.43681 
L 528.402853 -355.469563 
L 529.498307 -355.643743 
L 530.581788 -355.66614 
L 531.653556 -355.688529 
L 532.713862 -355.738382 
L 533.762946 -355.758388 
L 534.801046 -355.84504 
L 535.828387 -355.84504 
L 536.845192 -355.845055 
L 537.851674 -355.875304 
L 538.84804 -355.875306 
L 538.84804 -361.6691 
L 538.84804 -361.6691 
L 537.851674 -361.669095 
L 536.845192 -361.645777 
L 535.828387 -361.645697 
L 534.801046 -361.645697 
L 533.762946 -361.563506 
L 532.713862 -361.547331 
L 531.653556 -361.515802 
L 530.581788 -361.484305 
L 529.498307 -361.457673 
L 528.402853 -361.402386 
L 527.295159 -361.390108 
L 526.174948 -361.351328 
L 525.041935 -361.327294 
L 523.895823 -361.32658 
L 522.736305 -361.323012 
L 521.563066 -361.172212 
L 520.375775 -360.746466 
L 519.174093 -360.932133 
L 517.957665 -360.663364 
L 516.726127 -360.658331 
L 515.479097 -360.656347 
L 514.21618 -360.579233 
L 512.936968 -360.379834 
L 511.641033 -360.125678 
L 510.327934 -360.029536 
L 508.997208 -360.004599 
L 507.648376 -359.862838 
L 506.28094 -359.862305 
L 504.894377 -359.862277 
L 503.488147 -359.771666 
L 502.061682 -359.715448 
L 500.614392 -359.562754 
L 499.145661 -359.566253 
L 497.654842 -359.525737 
L 496.141261 -359.461073 
L 494.604214 -359.139077 
L 493.04296 -359.134706 
L 491.456725 -359.13336 
L 489.844696 -359.13336 
L 488.206021 -358.917672 
L 486.539804 -358.761993 
L 484.845103 -358.757295 
L 483.120927 -358.672865 
L 481.366234 -358.503832 
L 479.579923 -358.491395 
L 477.760833 -358.392284 
L 475.907741 -358.160931 
L 474.019348 -358.159805 
L 472.094286 -355.237695 
L 470.131102 -355.233594 
L 468.128254 -355.177782 
L 466.084108 -354.838673 
L 463.996924 -354.770469 
L 461.86485 -354.737745 
L 459.685915 -354.44126 
L 457.45801 -354.317554 
L 455.178884 -354.29117 
L 452.846128 -354.276479 
L 450.457155 -353.974302 
L 448.009189 -353.968952 
L 445.499242 -353.913789 
L 442.924095 -353.760548 
L 440.28027 -353.705438 
L 437.564002 -353.546338 
L 434.771209 -353.517621 
L 431.897454 -353.358181 
L 428.937904 -353.221103 
L 425.887276 -353.069477 
L 422.739786 -352.619801 
L 419.489083 -352.588885 
L 416.128165 -352.470349 
L 412.649296 -352.442428 
L 409.043895 -351.100486 
L 405.30241 -350.767822 
L 401.414164 -350.565853 
L 397.36717 -349.649428 
L 393.147912 -349.170762 
L 388.741072 -349.128809 
L 384.12919 -348.481569 
L 379.292251 -348.480103 
L 374.207157 -348.47325 
L 368.847063 -347.1596 
L 363.180516 -347.160902 
L 357.170338 -346.026098 
L 350.772144 -345.466471 
L 343.932358 -345.213114 
L 336.585472 -344.738911 
L 328.650231 -344.678717 
L 320.024134 -334.650579 
L 310.575312 -329.810835 
L 300.130125 -328.851416 
L 288.4534 -326.819592 
L 275.21542 -321.600726 
L 259.933293 -320.836465 
L 241.858374 -297.496737 
L 219.736461 -280.354581 
L 191.216355 -269.661731 
L 151.019523 -266.537163 
L 82.302585 -248.000337 
z
" style="stroke: #f0027f; stroke-opacity: 0.05"/>
    </defs>
    <g clip-path="url(#p5bf1c3e299)">
     <use xlink:href="#m896d57d675" x="0" y="390.50916" style="fill: #f0027f; fill-opacity: 0.05; stroke: #f0027f; stroke-opacity: 0.05"/>
    </g>
   </g>
   <g id="PolyCollection_6">
    <defs>
     <path id="md69a0e231f" d="M 82.302585 -248.000337 
L 82.302585 -215.646295 
L 151.019523 -233.98658 
L 191.216355 -239.226825 
L 219.736461 -254.500106 
L 241.858374 -272.194938 
L 259.933293 -302.177298 
L 275.21542 -304.765756 
L 288.4534 -309.463949 
L 300.130125 -313.369945 
L 310.575312 -314.838146 
L 320.024134 -318.141083 
L 328.650231 -322.276261 
L 336.585472 -323.466203 
L 343.932358 -325.845436 
L 350.772144 -326.803676 
L 357.170338 -327.679161 
L 363.180516 -329.787529 
L 368.847063 -330.431785 
L 374.207157 -331.496946 
L 379.292251 -332.479755 
L 384.12919 -333.486652 
L 388.741072 -335.216283 
L 393.147912 -335.690903 
L 397.36717 -336.249396 
L 401.414164 -336.741575 
L 405.30241 -337.046188 
L 409.043895 -337.828947 
L 412.649296 -339.21499 
L 416.128165 -339.49175 
L 419.489083 -339.949964 
L 422.739786 -340.289887 
L 425.887276 -340.751329 
L 428.937904 -341.245747 
L 431.897454 -341.388338 
L 434.771209 -341.827492 
L 437.564002 -341.989658 
L 440.28027 -342.217199 
L 442.924095 -342.499572 
L 445.499242 -342.732863 
L 448.009189 -342.984143 
L 450.457155 -343.313177 
L 452.846128 -343.710471 
L 455.178884 -343.953779 
L 457.45801 -344.138336 
L 459.685915 -344.469714 
L 461.86485 -345.057536 
L 463.996924 -345.233082 
L 466.084108 -345.512611 
L 468.128254 -346.228053 
L 470.131102 -346.367115 
L 472.094286 -347.054884 
L 474.019348 -347.563675 
L 475.907741 -347.693394 
L 477.760833 -348.069479 
L 479.579923 -348.194816 
L 481.366234 -348.475412 
L 483.120927 -348.629503 
L 484.845103 -349.02506 
L 486.539804 -349.291905 
L 488.206021 -349.438307 
L 489.844696 -349.597193 
L 491.456725 -349.669632 
L 493.04296 -349.702487 
L 494.604214 -349.879795 
L 496.141261 -350.420687 
L 497.654842 -350.513822 
L 499.145661 -350.690389 
L 500.614392 -350.762928 
L 502.061682 -350.925974 
L 503.488147 -351.130569 
L 504.894377 -351.275107 
L 506.28094 -351.360452 
L 507.648376 -351.42894 
L 508.997208 -351.57529 
L 510.327934 -351.658314 
L 511.641033 -351.897064 
L 512.936968 -351.990406 
L 514.21618 -352.07299 
L 515.479097 -352.540252 
L 516.726127 -352.600561 
L 517.957665 -352.764639 
L 519.174093 -353.014597 
L 520.375775 -353.367638 
L 521.563066 -353.612659 
L 522.736305 -353.865577 
L 523.895823 -353.910888 
L 525.041935 -353.967795 
L 526.174948 -354.02353 
L 527.295159 -354.073528 
L 528.402853 -354.187393 
L 529.498307 -354.259603 
L 530.581788 -354.343351 
L 531.653556 -354.394881 
L 532.713862 -354.497022 
L 533.762946 -354.538219 
L 534.801046 -354.569028 
L 535.828387 -354.598584 
L 536.845192 -354.780654 
L 537.851674 -354.847672 
L 538.84804 -354.977587 
L 538.84804 -362.141557 
L 538.84804 -362.141557 
L 537.851674 -362.156586 
L 536.845192 -362.068028 
L 535.828387 -362.086894 
L 534.801046 -362.052587 
L 533.762946 -361.997262 
L 532.713862 -361.970285 
L 531.653556 -361.946251 
L 530.581788 -361.880769 
L 529.498307 -361.830072 
L 528.402853 -361.774315 
L 527.295159 -361.676525 
L 526.174948 -361.605695 
L 525.041935 -361.538647 
L 523.895823 -361.482337 
L 522.736305 -361.412248 
L 521.563066 -361.284772 
L 520.375775 -361.086227 
L 519.174093 -361.061091 
L 517.957665 -360.965544 
L 516.726127 -360.864366 
L 515.479097 -360.813149 
L 514.21618 -360.793672 
L 512.936968 -360.721641 
L 511.641033 -360.587744 
L 510.327934 -360.53463 
L 508.997208 -360.387661 
L 507.648376 -360.292268 
L 506.28094 -360.260566 
L 504.894377 -360.083701 
L 503.488147 -359.952015 
L 502.061682 -359.893071 
L 500.614392 -359.736933 
L 499.145661 -359.605851 
L 497.654842 -359.436207 
L 496.141261 -359.337707 
L 494.604214 -359.214819 
L 493.04296 -359.183692 
L 491.456725 -359.104984 
L 489.844696 -359.016363 
L 488.206021 -358.83773 
L 486.539804 -358.693798 
L 484.845103 -358.66569 
L 483.120927 -358.487768 
L 481.366234 -358.219662 
L 479.579923 -358.064224 
L 477.760833 -357.976606 
L 475.907741 -357.642638 
L 474.019348 -357.561331 
L 472.094286 -357.146664 
L 470.131102 -356.797731 
L 468.128254 -356.548054 
L 466.084108 -356.36675 
L 463.996924 -356.284004 
L 461.86485 -356.15826 
L 459.685915 -355.97789 
L 457.45801 -355.831965 
L 455.178884 -355.704634 
L 452.846128 -355.629792 
L 450.457155 -355.414618 
L 448.009189 -355.136363 
L 445.499242 -355.0007 
L 442.924095 -354.849941 
L 440.28027 -354.57977 
L 437.564002 -354.397058 
L 434.771209 -354.228729 
L 431.897454 -353.70461 
L 428.937904 -353.464582 
L 425.887276 -353.299631 
L 422.739786 -352.784459 
L 419.489083 -352.531328 
L 416.128165 -352.14439 
L 412.649296 -352.036449 
L 409.043895 -351.465335 
L 405.30241 -350.894092 
L 401.414164 -350.617778 
L 397.36717 -349.935047 
L 393.147912 -349.43618 
L 388.741072 -349.080264 
L 384.12919 -348.242316 
L 379.292251 -347.502299 
L 374.207157 -347.177449 
L 368.847063 -346.21214 
L 363.180516 -346.074906 
L 357.170338 -345.323195 
L 350.772144 -344.348199 
L 343.932358 -342.807872 
L 336.585472 -341.966026 
L 328.650231 -341.181113 
L 320.024134 -334.039466 
L 310.575312 -329.713607 
L 300.130125 -328.634806 
L 288.4534 -326.404915 
L 275.21542 -322.562596 
L 259.933293 -320.836465 
L 241.858374 -297.496737 
L 219.736461 -280.354581 
L 191.216355 -269.661731 
L 151.019523 -266.537163 
L 82.302585 -248.000337 
z
" style="stroke: #386cb0; stroke-opacity: 0.05"/>
    </defs>
    <g clip-path="url(#p5bf1c3e299)">
     <use xlink:href="#md69a0e231f" x="0" y="390.50916" style="fill: #386cb0; fill-opacity: 0.05; stroke: #386cb0; stroke-opacity: 0.05"/>
    </g>
   </g>
   <g id="PolyCollection_7">
    <defs>
     <path id="m8100a75948" d="M 82.302585 -297.554044 
L 82.302585 -250.381993 
L 151.019523 -298.043885 
L 191.216355 -310.925668 
L 219.736461 -324.247761 
L 241.858374 -331.107072 
L 259.933293 -336.269809 
L 275.21542 -340.23432 
L 288.4534 -343.321829 
L 300.130125 -345.804064 
L 310.575312 -348.220896 
L 320.024134 -349.901555 
L 328.650231 -351.167673 
L 336.585472 -352.939265 
L 343.932358 -353.80691 
L 350.772144 -354.578262 
L 357.170338 -355.182777 
L 363.180516 -355.584977 
L 368.847063 -356.217314 
L 374.207157 -356.773678 
L 379.292251 -357.335761 
L 384.12919 -357.778496 
L 388.741072 -358.130737 
L 393.147912 -358.404414 
L 397.36717 -359.006323 
L 401.414164 -359.336008 
L 405.30241 -359.859935 
L 409.043895 -360.108133 
L 412.649296 -360.336312 
L 416.128165 -360.588329 
L 419.489083 -360.810017 
L 422.739786 -360.98596 
L 425.887276 -361.14303 
L 428.937904 -361.415437 
L 431.897454 -361.565159 
L 434.771209 -361.725203 
L 437.564002 -361.887795 
L 440.28027 -362.225587 
L 442.924095 -362.411189 
L 445.499242 -362.527104 
L 448.009189 -362.720123 
L 450.457155 -362.854477 
L 452.846128 -362.981589 
L 455.178884 -363.103956 
L 457.45801 -363.218971 
L 459.685915 -363.33049 
L 461.86485 -363.43172 
L 463.996924 -363.510963 
L 466.084108 -363.606151 
L 468.128254 -363.707116 
L 470.131102 -363.831614 
L 472.094286 -363.920247 
L 474.019348 -364.013771 
L 475.907741 -364.088401 
L 477.760833 -364.15567 
L 479.579923 -364.239272 
L 481.366234 -364.31141 
L 483.120927 -364.36868 
L 484.845103 -364.440199 
L 486.539804 -364.552883 
L 488.206021 -364.616835 
L 489.844696 -364.673047 
L 491.456725 -364.743465 
L 493.04296 -364.804417 
L 494.604214 -364.854822 
L 496.141261 -364.902078 
L 497.654842 -364.963286 
L 499.145661 -365.019507 
L 500.614392 -365.063974 
L 502.061682 -365.114248 
L 503.488147 -365.151154 
L 504.894377 -365.194026 
L 506.28094 -365.233229 
L 507.648376 -365.277366 
L 508.997208 -365.321855 
L 510.327934 -365.361243 
L 511.641033 -365.391327 
L 512.936968 -365.432643 
L 514.21618 -365.506401 
L 515.479097 -365.555564 
L 516.726127 -365.598495 
L 517.957665 -365.635314 
L 519.174093 -365.656722 
L 520.375775 -365.68517 
L 521.563066 -365.765163 
L 522.736305 -365.793592 
L 523.895823 -365.818305 
L 525.041935 -365.844747 
L 526.174948 -365.876448 
L 527.295159 -365.901647 
L 528.402853 -365.91627 
L 529.498307 -365.937953 
L 530.581788 -365.962259 
L 531.653556 -365.993073 
L 532.713862 -366.011618 
L 533.762946 -366.028808 
L 534.801046 -366.048347 
L 535.828387 -366.070577 
L 536.845192 -366.090325 
L 537.851674 -366.112664 
L 538.84804 -366.132119 
L 538.84804 -367.657813 
L 538.84804 -367.657813 
L 537.851674 -367.64292 
L 536.845192 -367.62689 
L 535.828387 -367.606606 
L 534.801046 -367.586722 
L 533.762946 -367.562427 
L 532.713862 -367.534619 
L 531.653556 -367.507816 
L 530.581788 -367.493239 
L 529.498307 -367.472093 
L 528.402853 -367.446636 
L 527.295159 -367.413688 
L 526.174948 -367.391295 
L 525.041935 -367.372423 
L 523.895823 -367.347992 
L 522.736305 -367.319171 
L 521.563066 -367.289651 
L 520.375775 -367.310743 
L 519.174093 -367.279379 
L 517.957665 -367.239061 
L 516.726127 -367.213842 
L 515.479097 -367.193708 
L 514.21618 -367.179041 
L 512.936968 -367.187528 
L 511.641033 -367.161597 
L 510.327934 -367.122544 
L 508.997208 -367.089655 
L 507.648376 -367.060789 
L 506.28094 -367.028539 
L 504.894377 -366.986634 
L 503.488147 -366.947371 
L 502.061682 -366.901227 
L 500.614392 -366.8629 
L 499.145661 -366.816796 
L 497.654842 -366.78066 
L 496.141261 -366.745709 
L 494.604214 -366.696304 
L 493.04296 -366.641832 
L 491.456725 -366.59677 
L 489.844696 -366.552686 
L 488.206021 -366.494294 
L 486.539804 -366.443089 
L 484.845103 -366.432766 
L 483.120927 -366.37567 
L 481.366234 -366.301674 
L 479.579923 -366.242108 
L 477.760833 -366.187321 
L 475.907741 -366.113006 
L 474.019348 -366.042401 
L 472.094286 -365.985937 
L 470.131102 -365.922455 
L 468.128254 -365.891747 
L 466.084108 -365.8323 
L 463.996924 -365.762337 
L 461.86485 -365.661503 
L 459.685915 -365.575154 
L 457.45801 -365.487327 
L 455.178884 -365.39996 
L 452.846128 -365.312051 
L 450.457155 -365.220102 
L 448.009189 -365.127738 
L 445.499242 -365.079342 
L 442.924095 -364.951806 
L 440.28027 -364.867749 
L 437.564002 -364.927898 
L 434.771209 -364.804667 
L 431.897454 -364.669633 
L 428.937904 -364.518989 
L 425.887276 -364.444253 
L 422.739786 -364.253644 
L 419.489083 -364.062814 
L 416.128165 -363.878897 
L 412.649296 -363.718595 
L 409.043895 -363.495166 
L 405.30241 -363.248941 
L 401.414164 -363.238989 
L 397.36717 -363.019787 
L 393.147912 -363.011496 
L 388.741072 -362.635153 
L 384.12919 -362.331758 
L 379.292251 -361.994282 
L 374.207157 -361.64183 
L 368.847063 -361.225339 
L 363.180516 -360.855786 
L 357.170338 -360.114428 
L 350.772144 -359.522051 
L 343.932358 -358.843866 
L 336.585472 -358.228456 
L 328.650231 -357.988686 
L 320.024134 -357.024958 
L 310.575312 -355.773787 
L 300.130125 -354.912552 
L 288.4534 -353.195197 
L 275.21542 -351.493652 
L 259.933293 -347.75882 
L 241.858374 -344.320221 
L 219.736461 -340.328981 
L 191.216355 -332.591349 
L 151.019523 -319.118719 
L 82.302585 -297.554044 
z
" style="stroke: #666666; stroke-opacity: 0.05"/>
    </defs>
    <g clip-path="url(#p5bf1c3e299)">
     <use xlink:href="#m8100a75948" x="0" y="390.50916" style="fill: #666666; fill-opacity: 0.05; stroke: #666666; stroke-opacity: 0.05"/>
    </g>
   </g>
   <g id="matplotlib.axis_1">
    <g id="xtick_1">
     <g id="line2d_1">
      <path d="M 82.302585 340.371347 
L 82.302585 7.731347 
" clip-path="url(#p5bf1c3e299)" style="fill: none; stroke-dasharray: 1.85,0.8; stroke-dashoffset: 0; stroke: #b0b0b0; stroke-width: 0.5"/>
     </g>
     <g id="line2d_2">
      <defs>
       <path id="m53f3452ebf" d="M 0 0 
L 0 3.5 
" style="stroke: #000000; stroke-width: 0.8"/>
      </defs>
      <g>
       <use xlink:href="#m53f3452ebf" x="82.302585" y="340.371347" style="stroke: #000000; stroke-width: 0.8"/>
      </g>
     </g>
     <g id="text_1">
      <!-- $\mathdefault{10^{0}}$ -->
      <g transform="translate(69.102585 358.769003) scale(0.15 -0.15)">
       <defs>
        <path id="DejaVuSans-31" d="M 794 531 
L 1825 531 
L 1825 4091 
L 703 3866 
L 703 4441 
L 1819 4666 
L 2450 4666 
L 2450 531 
L 3481 531 
L 3481 0 
L 794 0 
L 794 531 
z
" transform="scale(0.015625)"/>
        <path id="DejaVuSans-30" d="M 2034 4250 
Q 1547 4250 1301 3770 
Q 1056 3291 1056 2328 
Q 1056 1369 1301 889 
Q 1547 409 2034 409 
Q 2525 409 2770 889 
Q 3016 1369 3016 2328 
Q 3016 3291 2770 3770 
Q 2525 4250 2034 4250 
z
M 2034 4750 
Q 2819 4750 3233 4129 
Q 3647 3509 3647 2328 
Q 3647 1150 3233 529 
Q 2819 -91 2034 -91 
Q 1250 -91 836 529 
Q 422 1150 422 2328 
Q 422 3509 836 4129 
Q 1250 4750 2034 4750 
z
" transform="scale(0.015625)"/>
       </defs>
       <use xlink:href="#DejaVuSans-31" transform="translate(0 0.765625)"/>
       <use xlink:href="#DejaVuSans-30" transform="translate(63.623047 0.765625)"/>
       <use xlink:href="#DejaVuSans-30" transform="translate(128.203125 39.046875) scale(0.7)"/>
      </g>
     </g>
    </g>
    <g id="xtick_2">
     <g id="line2d_3">
      <path d="M 310.575312 340.371347 
L 310.575312 7.731347 
" clip-path="url(#p5bf1c3e299)" style="fill: none; stroke-dasharray: 1.85,0.8; stroke-dashoffset: 0; stroke: #b0b0b0; stroke-width: 0.5"/>
     </g>
     <g id="line2d_4">
      <g>
       <use xlink:href="#m53f3452ebf" x="310.575312" y="340.371347" style="stroke: #000000; stroke-width: 0.8"/>
      </g>
     </g>
     <g id="text_2">
      <!-- $\mathdefault{10^{1}}$ -->
      <g transform="translate(297.375313 358.769003) scale(0.15 -0.15)">
       <use xlink:href="#DejaVuSans-31" transform="translate(0 0.684375)"/>
       <use xlink:href="#DejaVuSans-30" transform="translate(63.623047 0.684375)"/>
       <use xlink:href="#DejaVuSans-31" transform="translate(128.203125 38.965625) scale(0.7)"/>
      </g>
     </g>
    </g>
    <g id="xtick_3">
     <g id="line2d_5">
      <path d="M 538.84804 340.371347 
L 538.84804 7.731347 
" clip-path="url(#p5bf1c3e299)" style="fill: none; stroke-dasharray: 1.85,0.8; stroke-dashoffset: 0; stroke: #b0b0b0; stroke-width: 0.5"/>
     </g>
     <g id="line2d_6">
      <g>
       <use xlink:href="#m53f3452ebf" x="538.84804" y="340.371347" style="stroke: #000000; stroke-width: 0.8"/>
      </g>
     </g>
     <g id="text_3">
      <!-- $\mathdefault{10^{2}}$ -->
      <g transform="translate(525.64804 358.769003) scale(0.15 -0.15)">
       <defs>
        <path id="DejaVuSans-32" d="M 1228 531 
L 3431 531 
L 3431 0 
L 469 0 
L 469 531 
Q 828 903 1448 1529 
Q 2069 2156 2228 2338 
Q 2531 2678 2651 2914 
Q 2772 3150 2772 3378 
Q 2772 3750 2511 3984 
Q 2250 4219 1831 4219 
Q 1534 4219 1204 4116 
Q 875 4013 500 3803 
L 500 4441 
Q 881 4594 1212 4672 
Q 1544 4750 1819 4750 
Q 2544 4750 2975 4387 
Q 3406 4025 3406 3419 
Q 3406 3131 3298 2873 
Q 3191 2616 2906 2266 
Q 2828 2175 2409 1742 
Q 1991 1309 1228 531 
z
" transform="scale(0.015625)"/>
       </defs>
       <use xlink:href="#DejaVuSans-31" transform="translate(0 0.765625)"/>
       <use xlink:href="#DejaVuSans-30" transform="translate(63.623047 0.765625)"/>
       <use xlink:href="#DejaVuSans-32" transform="translate(128.203125 39.046875) scale(0.7)"/>
      </g>
     </g>
    </g>
    <g id="xtick_4">
     <g id="line2d_7">
      <defs>
       <path id="mbf42495e9f" d="M 0 0 
L 0 2 
" style="stroke: #000000; stroke-width: 0.6"/>
      </defs>
      <g>
       <use xlink:href="#mbf42495e9f" x="60.180672" y="340.371347" style="stroke: #000000; stroke-width: 0.6"/>
      </g>
     </g>
    </g>
    <g id="xtick_5">
     <g id="line2d_8">
      <g>
       <use xlink:href="#mbf42495e9f" x="71.857398" y="340.371347" style="stroke: #000000; stroke-width: 0.6"/>
      </g>
     </g>
    </g>
    <g id="xtick_6">
     <g id="line2d_9">
      <g>
       <use xlink:href="#mbf42495e9f" x="151.019523" y="340.371347" style="stroke: #000000; stroke-width: 0.6"/>
      </g>
     </g>
    </g>
    <g id="xtick_7">
     <g id="line2d_10">
      <g>
       <use xlink:href="#mbf42495e9f" x="191.216355" y="340.371347" style="stroke: #000000; stroke-width: 0.6"/>
      </g>
     </g>
    </g>
    <g id="xtick_8">
     <g id="line2d_11">
      <g>
       <use xlink:href="#mbf42495e9f" x="219.736461" y="340.371347" style="stroke: #000000; stroke-width: 0.6"/>
      </g>
     </g>
    </g>
    <g id="xtick_9">
     <g id="line2d_12">
      <g>
       <use xlink:href="#mbf42495e9f" x="241.858374" y="340.371347" style="stroke: #000000; stroke-width: 0.6"/>
      </g>
     </g>
    </g>
    <g id="xtick_10">
     <g id="line2d_13">
      <g>
       <use xlink:href="#mbf42495e9f" x="259.933293" y="340.371347" style="stroke: #000000; stroke-width: 0.6"/>
      </g>
     </g>
    </g>
    <g id="xtick_11">
     <g id="line2d_14">
      <g>
       <use xlink:href="#mbf42495e9f" x="275.21542" y="340.371347" style="stroke: #000000; stroke-width: 0.6"/>
      </g>
     </g>
    </g>
    <g id="xtick_12">
     <g id="line2d_15">
      <g>
       <use xlink:href="#mbf42495e9f" x="288.4534" y="340.371347" style="stroke: #000000; stroke-width: 0.6"/>
      </g>
     </g>
    </g>
    <g id="xtick_13">
     <g id="line2d_16">
      <g>
       <use xlink:href="#mbf42495e9f" x="300.130125" y="340.371347" style="stroke: #000000; stroke-width: 0.6"/>
      </g>
     </g>
    </g>
    <g id="xtick_14">
     <g id="line2d_17">
      <g>
       <use xlink:href="#mbf42495e9f" x="379.292251" y="340.371347" style="stroke: #000000; stroke-width: 0.6"/>
      </g>
     </g>
    </g>
    <g id="xtick_15">
     <g id="line2d_18">
      <g>
       <use xlink:href="#mbf42495e9f" x="419.489083" y="340.371347" style="stroke: #000000; stroke-width: 0.6"/>
      </g>
     </g>
    </g>
    <g id="xtick_16">
     <g id="line2d_19">
      <g>
       <use xlink:href="#mbf42495e9f" x="448.009189" y="340.371347" style="stroke: #000000; stroke-width: 0.6"/>
      </g>
     </g>
    </g>
    <g id="xtick_17">
     <g id="line2d_20">
      <g>
       <use xlink:href="#mbf42495e9f" x="470.131102" y="340.371347" style="stroke: #000000; stroke-width: 0.6"/>
      </g>
     </g>
    </g>
    <g id="xtick_18">
     <g id="line2d_21">
      <g>
       <use xlink:href="#mbf42495e9f" x="488.206021" y="340.371347" style="stroke: #000000; stroke-width: 0.6"/>
      </g>
     </g>
    </g>
    <g id="xtick_19">
     <g id="line2d_22">
      <g>
       <use xlink:href="#mbf42495e9f" x="503.488147" y="340.371347" style="stroke: #000000; stroke-width: 0.6"/>
      </g>
     </g>
    </g>
    <g id="xtick_20">
     <g id="line2d_23">
      <g>
       <use xlink:href="#mbf42495e9f" x="516.726127" y="340.371347" style="stroke: #000000; stroke-width: 0.6"/>
      </g>
     </g>
    </g>
    <g id="xtick_21">
     <g id="line2d_24">
      <g>
       <use xlink:href="#mbf42495e9f" x="528.402853" y="340.371347" style="stroke: #000000; stroke-width: 0.6"/>
      </g>
     </g>
    </g>
    <g id="text_4">
     <!-- Decision Round -->
     <g transform="translate(240.922344 379.565722) scale(0.18 -0.18)">
      <defs>
       <path id="DejaVuSans-44" d="M 1259 4147 
L 1259 519 
L 2022 519 
Q 2988 519 3436 956 
Q 3884 1394 3884 2338 
Q 3884 3275 3436 3711 
Q 2988 4147 2022 4147 
L 1259 4147 
z
M 628 4666 
L 1925 4666 
Q 3281 4666 3915 4102 
Q 4550 3538 4550 2338 
Q 4550 1131 3912 565 
Q 3275 0 1925 0 
L 628 0 
L 628 4666 
z
" transform="scale(0.015625)"/>
       <path id="DejaVuSans-65" d="M 3597 1894 
L 3597 1613 
L 953 1613 
Q 991 1019 1311 708 
Q 1631 397 2203 397 
Q 2534 397 2845 478 
Q 3156 559 3463 722 
L 3463 178 
Q 3153 47 2828 -22 
Q 2503 -91 2169 -91 
Q 1331 -91 842 396 
Q 353 884 353 1716 
Q 353 2575 817 3079 
Q 1281 3584 2069 3584 
Q 2775 3584 3186 3129 
Q 3597 2675 3597 1894 
z
M 3022 2063 
Q 3016 2534 2758 2815 
Q 2500 3097 2075 3097 
Q 1594 3097 1305 2825 
Q 1016 2553 972 2059 
L 3022 2063 
z
" transform="scale(0.015625)"/>
       <path id="DejaVuSans-63" d="M 3122 3366 
L 3122 2828 
Q 2878 2963 2633 3030 
Q 2388 3097 2138 3097 
Q 1578 3097 1268 2742 
Q 959 2388 959 1747 
Q 959 1106 1268 751 
Q 1578 397 2138 397 
Q 2388 397 2633 464 
Q 2878 531 3122 666 
L 3122 134 
Q 2881 22 2623 -34 
Q 2366 -91 2075 -91 
Q 1284 -91 818 406 
Q 353 903 353 1747 
Q 353 2603 823 3093 
Q 1294 3584 2113 3584 
Q 2378 3584 2631 3529 
Q 2884 3475 3122 3366 
z
" transform="scale(0.015625)"/>
       <path id="DejaVuSans-69" d="M 603 3500 
L 1178 3500 
L 1178 0 
L 603 0 
L 603 3500 
z
M 603 4863 
L 1178 4863 
L 1178 4134 
L 603 4134 
L 603 4863 
z
" transform="scale(0.015625)"/>
       <path id="DejaVuSans-73" d="M 2834 3397 
L 2834 2853 
Q 2591 2978 2328 3040 
Q 2066 3103 1784 3103 
Q 1356 3103 1142 2972 
Q 928 2841 928 2578 
Q 928 2378 1081 2264 
Q 1234 2150 1697 2047 
L 1894 2003 
Q 2506 1872 2764 1633 
Q 3022 1394 3022 966 
Q 3022 478 2636 193 
Q 2250 -91 1575 -91 
Q 1294 -91 989 -36 
Q 684 19 347 128 
L 347 722 
Q 666 556 975 473 
Q 1284 391 1588 391 
Q 1994 391 2212 530 
Q 2431 669 2431 922 
Q 2431 1156 2273 1281 
Q 2116 1406 1581 1522 
L 1381 1569 
Q 847 1681 609 1914 
Q 372 2147 372 2553 
Q 372 3047 722 3315 
Q 1072 3584 1716 3584 
Q 2034 3584 2315 3537 
Q 2597 3491 2834 3397 
z
" transform="scale(0.015625)"/>
       <path id="DejaVuSans-6f" d="M 1959 3097 
Q 1497 3097 1228 2736 
Q 959 2375 959 1747 
Q 959 1119 1226 758 
Q 1494 397 1959 397 
Q 2419 397 2687 759 
Q 2956 1122 2956 1747 
Q 2956 2369 2687 2733 
Q 2419 3097 1959 3097 
z
M 1959 3584 
Q 2709 3584 3137 3096 
Q 3566 2609 3566 1747 
Q 3566 888 3137 398 
Q 2709 -91 1959 -91 
Q 1206 -91 779 398 
Q 353 888 353 1747 
Q 353 2609 779 3096 
Q 1206 3584 1959 3584 
z
" transform="scale(0.015625)"/>
       <path id="DejaVuSans-6e" d="M 3513 2113 
L 3513 0 
L 2938 0 
L 2938 2094 
Q 2938 2591 2744 2837 
Q 2550 3084 2163 3084 
Q 1697 3084 1428 2787 
Q 1159 2491 1159 1978 
L 1159 0 
L 581 0 
L 581 3500 
L 1159 3500 
L 1159 2956 
Q 1366 3272 1645 3428 
Q 1925 3584 2291 3584 
Q 2894 3584 3203 3211 
Q 3513 2838 3513 2113 
z
" transform="scale(0.015625)"/>
       <path id="DejaVuSans-20" transform="scale(0.015625)"/>
       <path id="DejaVuSans-52" d="M 2841 2188 
Q 3044 2119 3236 1894 
Q 3428 1669 3622 1275 
L 4263 0 
L 3584 0 
L 2988 1197 
Q 2756 1666 2539 1819 
Q 2322 1972 1947 1972 
L 1259 1972 
L 1259 0 
L 628 0 
L 628 4666 
L 2053 4666 
Q 2853 4666 3247 4331 
Q 3641 3997 3641 3322 
Q 3641 2881 3436 2590 
Q 3231 2300 2841 2188 
z
M 1259 4147 
L 1259 2491 
L 2053 2491 
Q 2509 2491 2742 2702 
Q 2975 2913 2975 3322 
Q 2975 3731 2742 3939 
Q 2509 4147 2053 4147 
L 1259 4147 
z
" transform="scale(0.015625)"/>
       <path id="DejaVuSans-75" d="M 544 1381 
L 544 3500 
L 1119 3500 
L 1119 1403 
Q 1119 906 1312 657 
Q 1506 409 1894 409 
Q 2359 409 2629 706 
Q 2900 1003 2900 1516 
L 2900 3500 
L 3475 3500 
L 3475 0 
L 2900 0 
L 2900 538 
Q 2691 219 2414 64 
Q 2138 -91 1772 -91 
Q 1169 -91 856 284 
Q 544 659 544 1381 
z
M 1991 3584 
L 1991 3584 
z
" transform="scale(0.015625)"/>
       <path id="DejaVuSans-64" d="M 2906 2969 
L 2906 4863 
L 3481 4863 
L 3481 0 
L 2906 0 
L 2906 525 
Q 2725 213 2448 61 
Q 2172 -91 1784 -91 
Q 1150 -91 751 415 
Q 353 922 353 1747 
Q 353 2572 751 3078 
Q 1150 3584 1784 3584 
Q 2172 3584 2448 3432 
Q 2725 3281 2906 2969 
z
M 947 1747 
Q 947 1113 1208 752 
Q 1469 391 1925 391 
Q 2381 391 2643 752 
Q 2906 1113 2906 1747 
Q 2906 2381 2643 2742 
Q 2381 3103 1925 3103 
Q 1469 3103 1208 2742 
Q 947 2381 947 1747 
z
" transform="scale(0.015625)"/>
      </defs>
      <use xlink:href="#DejaVuSans-44"/>
      <use xlink:href="#DejaVuSans-65" x="77.001953"/>
      <use xlink:href="#DejaVuSans-63" x="138.525391"/>
      <use xlink:href="#DejaVuSans-69" x="193.505859"/>
      <use xlink:href="#DejaVuSans-73" x="221.289062"/>
      <use xlink:href="#DejaVuSans-69" x="273.388672"/>
      <use xlink:href="#DejaVuSans-6f" x="301.171875"/>
      <use xlink:href="#DejaVuSans-6e" x="362.353516"/>
      <use xlink:href="#DejaVuSans-20" x="425.732422"/>
      <use xlink:href="#DejaVuSans-52" x="457.519531"/>
      <use xlink:href="#DejaVuSans-6f" x="522.501953"/>
      <use xlink:href="#DejaVuSans-75" x="583.683594"/>
      <use xlink:href="#DejaVuSans-6e" x="647.0625"/>
      <use xlink:href="#DejaVuSans-64" x="710.441406"/>
     </g>
    </g>
   </g>
   <g id="matplotlib.axis_2">
    <g id="ytick_1">
     <g id="line2d_25">
      <path d="M 59.475313 323.254471 
L 561.675313 323.254471 
" clip-path="url(#p5bf1c3e299)" style="fill: none; stroke-dasharray: 1.85,0.8; stroke-dashoffset: 0; stroke: #b0b0b0; stroke-width: 0.5"/>
     </g>
     <g id="line2d_26">
      <defs>
       <path id="m0aac351a9a" d="M 0 0 
L -3.5 0 
" style="stroke: #000000; stroke-width: 0.8"/>
      </defs>
      <g>
       <use xlink:href="#m0aac351a9a" x="59.475313" y="323.254471" style="stroke: #000000; stroke-width: 0.8"/>
      </g>
     </g>
     <g id="text_5">
      <!-- 0.4 -->
      <g transform="translate(28.620625 328.953299) scale(0.15 -0.15)">
       <defs>
        <path id="DejaVuSans-2e" d="M 684 794 
L 1344 794 
L 1344 0 
L 684 0 
L 684 794 
z
" transform="scale(0.015625)"/>
        <path id="DejaVuSans-34" d="M 2419 4116 
L 825 1625 
L 2419 1625 
L 2419 4116 
z
M 2253 4666 
L 3047 4666 
L 3047 1625 
L 3713 1625 
L 3713 1100 
L 3047 1100 
L 3047 0 
L 2419 0 
L 2419 1100 
L 313 1100 
L 313 1709 
L 2253 4666 
z
" transform="scale(0.015625)"/>
       </defs>
       <use xlink:href="#DejaVuSans-30"/>
       <use xlink:href="#DejaVuSans-2e" x="63.623047"/>
       <use xlink:href="#DejaVuSans-34" x="95.410156"/>
      </g>
     </g>
    </g>
    <g id="ytick_2">
     <g id="line2d_27">
      <path d="M 59.475313 261.183342 
L 561.675313 261.183342 
" clip-path="url(#p5bf1c3e299)" style="fill: none; stroke-dasharray: 1.85,0.8; stroke-dashoffset: 0; stroke: #b0b0b0; stroke-width: 0.5"/>
     </g>
     <g id="line2d_28">
      <g>
       <use xlink:href="#m0aac351a9a" x="59.475313" y="261.183342" style="stroke: #000000; stroke-width: 0.8"/>
      </g>
     </g>
     <g id="text_6">
      <!-- 0.5 -->
      <g transform="translate(28.620625 266.88217) scale(0.15 -0.15)">
       <defs>
        <path id="DejaVuSans-35" d="M 691 4666 
L 3169 4666 
L 3169 4134 
L 1269 4134 
L 1269 2991 
Q 1406 3038 1543 3061 
Q 1681 3084 1819 3084 
Q 2600 3084 3056 2656 
Q 3513 2228 3513 1497 
Q 3513 744 3044 326 
Q 2575 -91 1722 -91 
Q 1428 -91 1123 -41 
Q 819 9 494 109 
L 494 744 
Q 775 591 1075 516 
Q 1375 441 1709 441 
Q 2250 441 2565 725 
Q 2881 1009 2881 1497 
Q 2881 1984 2565 2268 
Q 2250 2553 1709 2553 
Q 1456 2553 1204 2497 
Q 953 2441 691 2322 
L 691 4666 
z
" transform="scale(0.015625)"/>
       </defs>
       <use xlink:href="#DejaVuSans-30"/>
       <use xlink:href="#DejaVuSans-2e" x="63.623047"/>
       <use xlink:href="#DejaVuSans-35" x="95.410156"/>
      </g>
     </g>
    </g>
    <g id="ytick_3">
     <g id="line2d_29">
      <path d="M 59.475313 199.112214 
L 561.675313 199.112214 
" clip-path="url(#p5bf1c3e299)" style="fill: none; stroke-dasharray: 1.85,0.8; stroke-dashoffset: 0; stroke: #b0b0b0; stroke-width: 0.5"/>
     </g>
     <g id="line2d_30">
      <g>
       <use xlink:href="#m0aac351a9a" x="59.475313" y="199.112214" style="stroke: #000000; stroke-width: 0.8"/>
      </g>
     </g>
     <g id="text_7">
      <!-- 0.6 -->
      <g transform="translate(28.620625 204.811042) scale(0.15 -0.15)">
       <defs>
        <path id="DejaVuSans-36" d="M 2113 2584 
Q 1688 2584 1439 2293 
Q 1191 2003 1191 1497 
Q 1191 994 1439 701 
Q 1688 409 2113 409 
Q 2538 409 2786 701 
Q 3034 994 3034 1497 
Q 3034 2003 2786 2293 
Q 2538 2584 2113 2584 
z
M 3366 4563 
L 3366 3988 
Q 3128 4100 2886 4159 
Q 2644 4219 2406 4219 
Q 1781 4219 1451 3797 
Q 1122 3375 1075 2522 
Q 1259 2794 1537 2939 
Q 1816 3084 2150 3084 
Q 2853 3084 3261 2657 
Q 3669 2231 3669 1497 
Q 3669 778 3244 343 
Q 2819 -91 2113 -91 
Q 1303 -91 875 529 
Q 447 1150 447 2328 
Q 447 3434 972 4092 
Q 1497 4750 2381 4750 
Q 2619 4750 2861 4703 
Q 3103 4656 3366 4563 
z
" transform="scale(0.015625)"/>
       </defs>
       <use xlink:href="#DejaVuSans-30"/>
       <use xlink:href="#DejaVuSans-2e" x="63.623047"/>
       <use xlink:href="#DejaVuSans-36" x="95.410156"/>
      </g>
     </g>
    </g>
    <g id="ytick_4">
     <g id="line2d_31">
      <path d="M 59.475313 137.041085 
L 561.675313 137.041085 
" clip-path="url(#p5bf1c3e299)" style="fill: none; stroke-dasharray: 1.85,0.8; stroke-dashoffset: 0; stroke: #b0b0b0; stroke-width: 0.5"/>
     </g>
     <g id="line2d_32">
      <g>
       <use xlink:href="#m0aac351a9a" x="59.475313" y="137.041085" style="stroke: #000000; stroke-width: 0.8"/>
      </g>
     </g>
     <g id="text_8">
      <!-- 0.7 -->
      <g transform="translate(28.620625 142.739913) scale(0.15 -0.15)">
       <defs>
        <path id="DejaVuSans-37" d="M 525 4666 
L 3525 4666 
L 3525 4397 
L 1831 0 
L 1172 0 
L 2766 4134 
L 525 4134 
L 525 4666 
z
" transform="scale(0.015625)"/>
       </defs>
       <use xlink:href="#DejaVuSans-30"/>
       <use xlink:href="#DejaVuSans-2e" x="63.623047"/>
       <use xlink:href="#DejaVuSans-37" x="95.410156"/>
      </g>
     </g>
    </g>
    <g id="ytick_5">
     <g id="line2d_33">
      <path d="M 59.475313 74.969957 
L 561.675313 74.969957 
" clip-path="url(#p5bf1c3e299)" style="fill: none; stroke-dasharray: 1.85,0.8; stroke-dashoffset: 0; stroke: #b0b0b0; stroke-width: 0.5"/>
     </g>
     <g id="line2d_34">
      <g>
       <use xlink:href="#m0aac351a9a" x="59.475313" y="74.969957" style="stroke: #000000; stroke-width: 0.8"/>
      </g>
     </g>
     <g id="text_9">
      <!-- 0.8 -->
      <g transform="translate(28.620625 80.668785) scale(0.15 -0.15)">
       <defs>
        <path id="DejaVuSans-38" d="M 2034 2216 
Q 1584 2216 1326 1975 
Q 1069 1734 1069 1313 
Q 1069 891 1326 650 
Q 1584 409 2034 409 
Q 2484 409 2743 651 
Q 3003 894 3003 1313 
Q 3003 1734 2745 1975 
Q 2488 2216 2034 2216 
z
M 1403 2484 
Q 997 2584 770 2862 
Q 544 3141 544 3541 
Q 544 4100 942 4425 
Q 1341 4750 2034 4750 
Q 2731 4750 3128 4425 
Q 3525 4100 3525 3541 
Q 3525 3141 3298 2862 
Q 3072 2584 2669 2484 
Q 3125 2378 3379 2068 
Q 3634 1759 3634 1313 
Q 3634 634 3220 271 
Q 2806 -91 2034 -91 
Q 1263 -91 848 271 
Q 434 634 434 1313 
Q 434 1759 690 2068 
Q 947 2378 1403 2484 
z
M 1172 3481 
Q 1172 3119 1398 2916 
Q 1625 2713 2034 2713 
Q 2441 2713 2670 2916 
Q 2900 3119 2900 3481 
Q 2900 3844 2670 4047 
Q 2441 4250 2034 4250 
Q 1625 4250 1398 4047 
Q 1172 3844 1172 3481 
z
" transform="scale(0.015625)"/>
       </defs>
       <use xlink:href="#DejaVuSans-30"/>
       <use xlink:href="#DejaVuSans-2e" x="63.623047"/>
       <use xlink:href="#DejaVuSans-38" x="95.410156"/>
      </g>
     </g>
    </g>
    <g id="ytick_6">
     <g id="line2d_35">
      <path d="M 59.475313 12.898828 
L 561.675313 12.898828 
" clip-path="url(#p5bf1c3e299)" style="fill: none; stroke-dasharray: 1.85,0.8; stroke-dashoffset: 0; stroke: #b0b0b0; stroke-width: 0.5"/>
     </g>
     <g id="line2d_36">
      <g>
       <use xlink:href="#m0aac351a9a" x="59.475313" y="12.898828" style="stroke: #000000; stroke-width: 0.8"/>
      </g>
     </g>
     <g id="text_10">
      <!-- 0.9 -->
      <g transform="translate(28.620625 18.597656) scale(0.15 -0.15)">
       <defs>
        <path id="DejaVuSans-39" d="M 703 97 
L 703 672 
Q 941 559 1184 500 
Q 1428 441 1663 441 
Q 2288 441 2617 861 
Q 2947 1281 2994 2138 
Q 2813 1869 2534 1725 
Q 2256 1581 1919 1581 
Q 1219 1581 811 2004 
Q 403 2428 403 3163 
Q 403 3881 828 4315 
Q 1253 4750 1959 4750 
Q 2769 4750 3195 4129 
Q 3622 3509 3622 2328 
Q 3622 1225 3098 567 
Q 2575 -91 1691 -91 
Q 1453 -91 1209 -44 
Q 966 3 703 97 
z
M 1959 2075 
Q 2384 2075 2632 2365 
Q 2881 2656 2881 3163 
Q 2881 3666 2632 3958 
Q 2384 4250 1959 4250 
Q 1534 4250 1286 3958 
Q 1038 3666 1038 3163 
Q 1038 2656 1286 2365 
Q 1534 2075 1959 2075 
z
" transform="scale(0.015625)"/>
       </defs>
       <use xlink:href="#DejaVuSans-30"/>
       <use xlink:href="#DejaVuSans-2e" x="63.623047"/>
       <use xlink:href="#DejaVuSans-39" x="95.410156"/>
      </g>
     </g>
    </g>
    <g id="text_11">
     <!-- Normalized Performance -->
     <g transform="translate(20.877187 284.97916) rotate(-90) scale(0.18 -0.18)">
      <defs>
       <path id="DejaVuSans-4e" d="M 628 4666 
L 1478 4666 
L 3547 763 
L 3547 4666 
L 4159 4666 
L 4159 0 
L 3309 0 
L 1241 3903 
L 1241 0 
L 628 0 
L 628 4666 
z
" transform="scale(0.015625)"/>
       <path id="DejaVuSans-72" d="M 2631 2963 
Q 2534 3019 2420 3045 
Q 2306 3072 2169 3072 
Q 1681 3072 1420 2755 
Q 1159 2438 1159 1844 
L 1159 0 
L 581 0 
L 581 3500 
L 1159 3500 
L 1159 2956 
Q 1341 3275 1631 3429 
Q 1922 3584 2338 3584 
Q 2397 3584 2469 3576 
Q 2541 3569 2628 3553 
L 2631 2963 
z
" transform="scale(0.015625)"/>
       <path id="DejaVuSans-6d" d="M 3328 2828 
Q 3544 3216 3844 3400 
Q 4144 3584 4550 3584 
Q 5097 3584 5394 3201 
Q 5691 2819 5691 2113 
L 5691 0 
L 5113 0 
L 5113 2094 
Q 5113 2597 4934 2840 
Q 4756 3084 4391 3084 
Q 3944 3084 3684 2787 
Q 3425 2491 3425 1978 
L 3425 0 
L 2847 0 
L 2847 2094 
Q 2847 2600 2669 2842 
Q 2491 3084 2119 3084 
Q 1678 3084 1418 2786 
Q 1159 2488 1159 1978 
L 1159 0 
L 581 0 
L 581 3500 
L 1159 3500 
L 1159 2956 
Q 1356 3278 1631 3431 
Q 1906 3584 2284 3584 
Q 2666 3584 2933 3390 
Q 3200 3197 3328 2828 
z
" transform="scale(0.015625)"/>
       <path id="DejaVuSans-61" d="M 2194 1759 
Q 1497 1759 1228 1600 
Q 959 1441 959 1056 
Q 959 750 1161 570 
Q 1363 391 1709 391 
Q 2188 391 2477 730 
Q 2766 1069 2766 1631 
L 2766 1759 
L 2194 1759 
z
M 3341 1997 
L 3341 0 
L 2766 0 
L 2766 531 
Q 2569 213 2275 61 
Q 1981 -91 1556 -91 
Q 1019 -91 701 211 
Q 384 513 384 1019 
Q 384 1609 779 1909 
Q 1175 2209 1959 2209 
L 2766 2209 
L 2766 2266 
Q 2766 2663 2505 2880 
Q 2244 3097 1772 3097 
Q 1472 3097 1187 3025 
Q 903 2953 641 2809 
L 641 3341 
Q 956 3463 1253 3523 
Q 1550 3584 1831 3584 
Q 2591 3584 2966 3190 
Q 3341 2797 3341 1997 
z
" transform="scale(0.015625)"/>
       <path id="DejaVuSans-6c" d="M 603 4863 
L 1178 4863 
L 1178 0 
L 603 0 
L 603 4863 
z
" transform="scale(0.015625)"/>
       <path id="DejaVuSans-7a" d="M 353 3500 
L 3084 3500 
L 3084 2975 
L 922 459 
L 3084 459 
L 3084 0 
L 275 0 
L 275 525 
L 2438 3041 
L 353 3041 
L 353 3500 
z
" transform="scale(0.015625)"/>
       <path id="DejaVuSans-50" d="M 1259 4147 
L 1259 2394 
L 2053 2394 
Q 2494 2394 2734 2622 
Q 2975 2850 2975 3272 
Q 2975 3691 2734 3919 
Q 2494 4147 2053 4147 
L 1259 4147 
z
M 628 4666 
L 2053 4666 
Q 2838 4666 3239 4311 
Q 3641 3956 3641 3272 
Q 3641 2581 3239 2228 
Q 2838 1875 2053 1875 
L 1259 1875 
L 1259 0 
L 628 0 
L 628 4666 
z
" transform="scale(0.015625)"/>
       <path id="DejaVuSans-66" d="M 2375 4863 
L 2375 4384 
L 1825 4384 
Q 1516 4384 1395 4259 
Q 1275 4134 1275 3809 
L 1275 3500 
L 2222 3500 
L 2222 3053 
L 1275 3053 
L 1275 0 
L 697 0 
L 697 3053 
L 147 3053 
L 147 3500 
L 697 3500 
L 697 3744 
Q 697 4328 969 4595 
Q 1241 4863 1831 4863 
L 2375 4863 
z
" transform="scale(0.015625)"/>
      </defs>
      <use xlink:href="#DejaVuSans-4e"/>
      <use xlink:href="#DejaVuSans-6f" x="74.804688"/>
      <use xlink:href="#DejaVuSans-72" x="135.986328"/>
      <use xlink:href="#DejaVuSans-6d" x="175.349609"/>
      <use xlink:href="#DejaVuSans-61" x="272.761719"/>
      <use xlink:href="#DejaVuSans-6c" x="334.041016"/>
      <use xlink:href="#DejaVuSans-69" x="361.824219"/>
      <use xlink:href="#DejaVuSans-7a" x="389.607422"/>
      <use xlink:href="#DejaVuSans-65" x="442.097656"/>
      <use xlink:href="#DejaVuSans-64" x="503.621094"/>
      <use xlink:href="#DejaVuSans-20" x="567.097656"/>
      <use xlink:href="#DejaVuSans-50" x="598.884766"/>
      <use xlink:href="#DejaVuSans-65" x="655.5625"/>
      <use xlink:href="#DejaVuSans-72" x="717.085938"/>
      <use xlink:href="#DejaVuSans-66" x="758.199219"/>
      <use xlink:href="#DejaVuSans-6f" x="793.404297"/>
      <use xlink:href="#DejaVuSans-72" x="854.585938"/>
      <use xlink:href="#DejaVuSans-6d" x="893.949219"/>
      <use xlink:href="#DejaVuSans-61" x="991.361328"/>
      <use xlink:href="#DejaVuSans-6e" x="1052.640625"/>
      <use xlink:href="#DejaVuSans-63" x="1116.019531"/>
      <use xlink:href="#DejaVuSans-65" x="1171"/>
     </g>
    </g>
   </g>
   <g id="line2d_37">
    <path d="M 82.302585 87.747247 
L 151.019523 87.747247 
L 191.216355 87.747247 
L 219.736461 87.747247 
L 241.858374 87.747247 
L 259.933293 87.747247 
L 275.21542 87.747247 
L 288.4534 87.747247 
L 300.130125 87.747247 
L 310.575312 87.747247 
L 320.024134 87.747247 
L 328.650231 87.747247 
L 336.585472 87.747247 
L 343.932358 87.747247 
L 350.772144 87.747247 
L 357.170338 87.747247 
L 363.180516 87.747247 
L 368.847063 87.747247 
L 374.207157 87.747247 
L 379.292251 87.747247 
L 384.12919 87.747247 
L 388.741072 87.747247 
L 393.147912 87.747247 
L 397.36717 87.747247 
L 401.414164 87.747247 
L 405.30241 87.747247 
L 409.043895 87.747247 
L 412.649296 87.747247 
L 416.128165 87.747247 
L 419.489083 87.747247 
L 422.739786 87.747247 
L 425.887276 87.747247 
L 428.937904 87.747247 
L 431.897454 87.747247 
L 434.771209 87.747247 
L 437.564002 87.747247 
L 440.28027 87.747247 
L 442.924095 87.747247 
L 445.499242 87.747247 
L 448.009189 87.747247 
L 450.457155 87.747247 
L 452.846128 87.747247 
L 455.178884 87.747247 
L 457.45801 87.747247 
L 459.685915 87.747247 
L 461.86485 87.747247 
L 463.996924 87.747247 
L 466.084108 87.747247 
L 468.128254 87.747247 
L 470.131102 87.747247 
L 472.094286 87.747247 
L 474.019348 87.747247 
L 475.907741 87.747247 
L 477.760833 87.747247 
L 479.579923 87.747247 
L 481.366234 87.747247 
L 483.120927 87.747247 
L 484.845103 87.747247 
L 486.539804 87.747247 
L 488.206021 87.747247 
L 489.844696 87.747247 
L 491.456725 87.747247 
L 493.04296 87.747247 
L 494.604214 87.747247 
L 496.141261 87.747247 
L 497.654842 87.747247 
L 499.145661 87.747247 
L 500.614392 87.747247 
L 502.061682 87.747247 
L 503.488147 87.747247 
L 504.894377 87.747247 
L 506.28094 87.747247 
L 507.648376 87.747247 
L 508.997208 87.747247 
L 510.327934 87.747247 
L 511.641033 87.747247 
L 512.936968 87.747247 
L 514.21618 87.747247 
L 515.479097 87.747247 
L 516.726127 87.747247 
L 517.957665 87.747247 
L 519.174093 87.747247 
L 520.375775 87.747247 
L 521.563066 87.747247 
L 522.736305 87.747247 
L 523.895823 87.747247 
L 525.041935 87.747247 
L 526.174948 87.747247 
L 527.295159 87.747247 
L 528.402853 87.747247 
L 529.498307 87.747247 
L 530.581788 87.747247 
L 531.653556 87.747247 
L 532.713862 87.747247 
L 533.762946 87.747247 
L 534.801046 87.747247 
L 535.828387 87.747247 
L 536.845192 87.747247 
L 537.851674 87.747247 
L 538.84804 87.747247 
" clip-path="url(#p5bf1c3e299)" style="fill: none; stroke-dasharray: 11.1,4.8; stroke-dashoffset: 0; stroke: #fdc086; stroke-width: 3"/>
   </g>
   <g id="line2d_38">
    <path d="M 82.302585 218.978026 
L 151.019523 218.978026 
L 191.216355 218.978026 
L 219.736461 218.978026 
L 241.858374 218.978026 
L 259.933293 218.978026 
L 275.21542 218.978026 
L 288.4534 218.978026 
L 300.130125 218.978026 
L 310.575312 218.978026 
L 320.024134 218.978026 
L 328.650231 218.978026 
L 336.585472 218.978026 
L 343.932358 218.978026 
L 350.772144 218.978026 
L 357.170338 218.978026 
L 363.180516 218.978026 
L 368.847063 218.978026 
L 374.207157 218.978026 
L 379.292251 218.978026 
L 384.12919 218.978026 
L 388.741072 218.978026 
L 393.147912 218.978026 
L 397.36717 218.978026 
L 401.414164 218.978026 
L 405.30241 218.978026 
L 409.043895 218.978026 
L 412.649296 218.978026 
L 416.128165 218.978026 
L 419.489083 218.978026 
L 422.739786 218.978026 
L 425.887276 218.978026 
L 428.937904 218.978026 
L 431.897454 218.978026 
L 434.771209 218.978026 
L 437.564002 218.978026 
L 440.28027 218.978026 
L 442.924095 218.978026 
L 445.499242 218.978026 
L 448.009189 218.978026 
L 450.457155 218.978026 
L 452.846128 218.978026 
L 455.178884 218.978026 
L 457.45801 218.978026 
L 459.685915 218.978026 
L 461.86485 218.978026 
L 463.996924 218.978026 
L 466.084108 218.978026 
L 468.128254 218.978026 
L 470.131102 218.978026 
L 472.094286 218.978026 
L 474.019348 218.978026 
L 475.907741 218.978026 
L 477.760833 218.978026 
L 479.579923 218.978026 
L 481.366234 218.978026 
L 483.120927 218.978026 
L 484.845103 218.978026 
L 486.539804 218.978026 
L 488.206021 218.978026 
L 489.844696 218.978026 
L 491.456725 218.978026 
L 493.04296 218.978026 
L 494.604214 218.978026 
L 496.141261 218.978026 
L 497.654842 218.978026 
L 499.145661 218.978026 
L 500.614392 218.978026 
L 502.061682 218.978026 
L 503.488147 218.978026 
L 504.894377 218.978026 
L 506.28094 218.978026 
L 507.648376 218.978026 
L 508.997208 218.978026 
L 510.327934 218.978026 
L 511.641033 218.978026 
L 512.936968 218.978026 
L 514.21618 218.978026 
L 515.479097 218.978026 
L 516.726127 218.978026 
L 517.957665 218.978026 
L 519.174093 218.978026 
L 520.375775 218.978026 
L 521.563066 218.978026 
L 522.736305 218.978026 
L 523.895823 218.978026 
L 525.041935 218.978026 
L 526.174948 218.978026 
L 527.295159 218.978026 
L 528.402853 218.978026 
L 529.498307 218.978026 
L 530.581788 218.978026 
L 531.653556 218.978026 
L 532.713862 218.978026 
L 533.762946 218.978026 
L 534.801046 218.978026 
L 535.828387 218.978026 
L 536.845192 218.978026 
L 537.851674 218.978026 
L 538.84804 218.978026 
" clip-path="url(#p5bf1c3e299)" style="fill: none; stroke-dasharray: 11.1,4.8; stroke-dashoffset: 0; stroke: #beaed4; stroke-width: 3"/>
   </g>
   <g id="line2d_39">
    <path d="M 82.302585 249.376024 
L 151.019523 182.245712 
L 191.216355 145.272144 
L 219.736461 125.969105 
L 241.858374 111.207425 
L 259.933293 101.703172 
L 275.21542 93.93591 
L 288.4534 88.00265 
L 300.130125 83.340837 
L 310.575312 78.399187 
L 320.024134 74.279123 
L 328.650231 71.797659 
L 336.585472 69.018029 
L 343.932358 67.302404 
L 350.772144 65.100856 
L 357.170338 63.380291 
L 363.180516 61.538073 
L 368.847063 60.060676 
L 374.207157 59.047851 
L 379.292251 57.732734 
L 384.12919 56.335843 
L 388.741072 55.128503 
L 393.147912 54.028326 
L 397.36717 53.307662 
L 401.414164 52.201571 
L 405.30241 51.310168 
L 409.043895 50.085435 
L 412.649296 49.504041 
L 416.128165 48.984611 
L 419.489083 48.450143 
L 422.739786 47.824076 
L 425.887276 47.546591 
L 428.937904 47.07206 
L 431.897454 46.573691 
L 434.771209 46.074163 
L 437.564002 45.679565 
L 440.28027 45.184581 
L 442.924095 44.770742 
L 445.499242 44.408155 
L 448.009189 44.034093 
L 450.457155 43.7396 
L 452.846128 43.310251 
L 455.178884 42.953498 
L 457.45801 42.521754 
L 459.685915 42.158396 
L 461.86485 41.798589 
L 463.996924 41.576516 
L 466.084108 41.382324 
L 468.128254 41.027733 
L 470.131102 40.828749 
L 472.094286 40.450936 
L 474.019348 40.323454 
L 475.907741 40.072818 
L 477.760833 39.858841 
L 479.579923 39.728578 
L 481.366234 39.497602 
L 483.120927 39.274495 
L 484.845103 39.010126 
L 486.539804 38.761972 
L 488.206021 38.570754 
L 489.844696 38.394733 
L 491.456725 38.279161 
L 493.04296 37.938488 
L 494.604214 37.779726 
L 496.141261 37.701735 
L 497.654842 37.524759 
L 499.145661 37.447611 
L 500.614392 37.290207 
L 502.061682 37.054684 
L 503.488147 36.955578 
L 504.894377 36.78375 
L 506.28094 36.668319 
L 507.648376 36.462271 
L 508.997208 36.38474 
L 510.327934 36.229863 
L 511.641033 36.113792 
L 512.936968 35.857494 
L 514.21618 35.787432 
L 515.479097 35.605963 
L 516.726127 35.42714 
L 517.957665 35.24465 
L 519.174093 35.030203 
L 520.375775 34.934863 
L 521.563066 34.809953 
L 522.736305 34.717038 
L 523.895823 34.615608 
L 525.041935 34.572504 
L 526.174948 34.424468 
L 527.295159 34.288196 
L 528.402853 34.220321 
L 529.498307 34.139908 
L 530.581788 33.993661 
L 531.653556 33.774828 
L 532.713862 33.748243 
L 533.762946 33.658716 
L 534.801046 33.562964 
L 535.828387 33.436153 
L 536.845192 33.410379 
L 537.851674 33.305445 
L 538.84804 33.235482 
" clip-path="url(#p5bf1c3e299)" style="fill: none; stroke: #7fc97f; stroke-width: 3; stroke-linecap: square"/>
   </g>
   <g id="line2d_40">
    <path d="M 82.302585 158.685844 
L 151.019523 135.391578 
L 191.216355 117.569433 
L 219.736461 108.225817 
L 241.858374 97.208055 
L 259.933293 90.717358 
L 275.21542 85.72576 
L 288.4534 81.62437 
L 300.130125 78.240514 
L 310.575312 75.665348 
L 320.024134 72.985172 
L 328.650231 70.410012 
L 336.585472 68.184491 
L 343.932358 66.103032 
L 350.772144 64.816746 
L 357.170338 63.406665 
L 363.180516 61.904811 
L 368.847063 60.279115 
L 374.207157 58.862739 
L 379.292251 57.785789 
L 384.12919 56.55176 
L 388.741072 55.383011 
L 393.147912 54.544112 
L 397.36717 53.550303 
L 401.414164 52.432549 
L 405.30241 51.647258 
L 409.043895 50.911478 
L 412.649296 49.871537 
L 416.128165 49.220999 
L 419.489083 48.756215 
L 422.739786 48.401718 
L 425.887276 47.829722 
L 428.937904 47.448317 
L 431.897454 46.750298 
L 434.771209 46.462297 
L 437.564002 45.826869 
L 440.28027 45.294607 
L 442.924095 44.933383 
L 445.499242 44.655423 
L 448.009189 44.227962 
L 450.457155 43.940784 
L 452.846128 43.545955 
L 455.178884 43.184032 
L 457.45801 42.86033 
L 459.685915 42.403043 
L 461.86485 42.135702 
L 463.996924 41.702872 
L 466.084108 41.573154 
L 468.128254 41.255435 
L 470.131102 40.933563 
L 472.094286 40.637754 
L 474.019348 40.504233 
L 475.907741 40.055238 
L 477.760833 39.885773 
L 479.579923 39.596248 
L 481.366234 39.432266 
L 483.120927 39.240199 
L 484.845103 38.99002 
L 486.539804 38.853048 
L 488.206021 38.707468 
L 489.844696 38.487614 
L 491.456725 38.353726 
L 493.04296 38.183425 
L 494.604214 37.978257 
L 496.141261 37.750052 
L 497.654842 37.502859 
L 499.145661 37.322748 
L 500.614392 37.23542 
L 502.061682 37.167651 
L 503.488147 37.083286 
L 504.894377 36.993006 
L 506.28094 36.79978 
L 507.648376 36.674941 
L 508.997208 36.527342 
L 510.327934 36.386671 
L 511.641033 36.162182 
L 512.936968 36.053525 
L 514.21618 35.864019 
L 515.479097 35.739399 
L 516.726127 35.617524 
L 517.957665 35.473136 
L 519.174093 35.319884 
L 520.375775 35.197357 
L 521.563066 35.073353 
L 522.736305 34.974638 
L 523.895823 34.843587 
L 525.041935 34.753394 
L 526.174948 34.583349 
L 527.295159 34.494116 
L 528.402853 34.376498 
L 529.498307 34.319543 
L 530.581788 34.271934 
L 531.653556 34.175559 
L 532.713862 34.067326 
L 533.762946 33.965104 
L 534.801046 33.810201 
L 535.828387 33.630492 
L 536.845192 33.544603 
L 537.851674 33.466776 
L 538.84804 33.288399 
" clip-path="url(#p5bf1c3e299)" style="fill: none; stroke: #bf5b17; stroke-width: 3; stroke-linecap: square"/>
   </g>
   <g id="line2d_41">
    <path d="M 82.302585 158.685844 
L 151.019523 140.247288 
L 191.216355 136.064882 
L 219.736461 123.081816 
L 241.858374 105.663322 
L 259.933293 79.002278 
L 275.21542 77.315934 
L 288.4534 71.862777 
L 300.130125 68.651116 
L 310.575312 67.731185 
L 320.024134 63.029348 
L 328.650231 55.397972 
L 336.585472 55.31985 
L 343.932358 54.53934 
L 350.772144 54.319104 
L 357.170338 53.576993 
L 363.180516 51.735823 
L 368.847063 51.710525 
L 374.207157 49.5149 
L 379.292251 49.501143 
L 384.12919 49.498966 
L 388.741072 48.197069 
L 393.147912 48.147095 
L 397.36717 47.629474 
L 401.414164 46.607578 
L 405.30241 46.385606 
L 409.043895 45.920778 
L 412.649296 44.169878 
L 416.128165 44.127903 
L 419.489083 44.002999 
L 422.739786 43.938818 
L 425.887276 43.468665 
L 428.937904 43.24119 
L 431.897454 43.113956 
L 434.771209 42.88929 
L 437.564002 42.857928 
L 440.28027 42.691135 
L 442.924095 42.617177 
L 445.499242 42.444277 
L 448.009189 42.37173 
L 450.457155 42.361296 
L 452.846128 41.810543 
L 455.178884 41.795607 
L 457.45801 41.769887 
L 459.685915 41.649799 
L 461.86485 41.20051 
L 463.996924 41.172707 
L 466.084108 41.047716 
L 468.128254 40.659991 
L 470.131102 40.598765 
L 472.094286 40.592363 
L 474.019348 37.525605 
L 475.907741 37.524311 
L 477.760833 37.252404 
L 479.579923 37.162459 
L 481.366234 37.144495 
L 483.120927 36.959983 
L 484.845103 36.845916 
L 486.539804 36.842041 
L 488.206021 36.6617 
L 489.844696 36.436823 
L 491.456725 36.436823 
L 493.04296 36.434973 
L 494.604214 36.424725 
L 496.141261 35.453058 
L 497.654842 35.387048 
L 499.145661 35.276445 
L 500.614392 35.2655 
L 502.061682 35.076852 
L 503.488147 35.024804 
L 504.894377 34.906927 
L 506.28094 34.906905 
L 507.648376 34.905373 
L 508.997208 34.696844 
L 510.327934 34.6691 
L 511.641033 34.590279 
L 512.936968 34.3503 
L 514.21618 34.011255 
L 515.479097 33.942647 
L 516.726127 33.940743 
L 517.957665 33.935426 
L 519.174093 33.664027 
L 520.375775 33.394996 
L 521.563066 32.421288 
L 522.736305 32.172723 
L 523.895823 32.162941 
L 525.041935 32.162328 
L 526.174948 32.134326 
L 527.295159 32.095701 
L 528.402853 32.073185 
L 529.498307 31.958451 
L 530.581788 31.933937 
L 531.653556 31.906994 
L 532.713862 31.866303 
L 533.762946 31.848212 
L 534.801046 31.763791 
L 535.828387 31.763791 
L 536.845192 31.763744 
L 537.851674 31.73696 
L 538.84804 31.736957 
" clip-path="url(#p5bf1c3e299)" style="fill: none; stroke: #f0027f; stroke-width: 3; stroke-linecap: square"/>
   </g>
   <g id="line2d_42">
    <path d="M 82.302585 158.685844 
L 151.019523 140.247288 
L 191.216355 136.064882 
L 219.736461 123.081816 
L 241.858374 105.663322 
L 259.933293 79.002278 
L 275.21542 76.844984 
L 288.4534 72.574727 
L 300.130125 69.506784 
L 310.575312 68.233283 
L 320.024134 64.418885 
L 328.650231 58.780472 
L 336.585472 57.793045 
L 343.932358 56.182506 
L 350.772144 54.933222 
L 357.170338 54.007981 
L 363.180516 52.577942 
L 368.847063 52.187197 
L 374.207157 51.171962 
L 379.292251 50.518133 
L 384.12919 49.644676 
L 388.741072 48.360886 
L 393.147912 47.945618 
L 397.36717 47.416938 
L 401.414164 46.829483 
L 405.30241 46.539019 
L 409.043895 45.862019 
L 412.649296 44.88344 
L 416.128165 44.69109 
L 419.489083 44.268514 
L 422.739786 43.971987 
L 425.887276 43.48368 
L 428.937904 43.153996 
L 431.897454 42.962686 
L 434.771209 42.481049 
L 437.564002 42.315802 
L 440.28027 42.110675 
L 442.924095 41.834403 
L 445.499242 41.642378 
L 448.009189 41.448907 
L 450.457155 41.145263 
L 452.846128 40.839028 
L 455.178884 40.679953 
L 457.45801 40.524009 
L 459.685915 40.285358 
L 461.86485 39.901262 
L 463.996924 39.750617 
L 466.084108 39.569479 
L 468.128254 39.121106 
L 470.131102 38.926737 
L 472.094286 38.408386 
L 474.019348 37.946657 
L 475.907741 37.841144 
L 477.760833 37.486117 
L 479.579923 37.379639 
L 481.366234 37.161623 
L 483.120927 36.950524 
L 484.845103 36.663785 
L 486.539804 36.516308 
L 488.206021 36.371141 
L 489.844696 36.202382 
L 491.456725 36.121852 
L 493.04296 36.066071 
L 494.604214 35.961853 
L 496.141261 35.629963 
L 497.654842 35.534145 
L 499.145661 35.361039 
L 500.614392 35.259229 
L 502.061682 35.099637 
L 503.488147 34.967868 
L 504.894377 34.829755 
L 506.28094 34.698651 
L 507.648376 34.648556 
L 508.997208 34.527685 
L 510.327934 34.412688 
L 511.641033 34.266756 
L 512.936968 34.153136 
L 514.21618 34.075829 
L 515.479097 33.832459 
L 516.726127 33.776696 
L 517.957665 33.644068 
L 519.174093 33.471316 
L 520.375775 33.282227 
L 521.563066 33.060444 
L 522.736305 32.870247 
L 523.895823 32.812547 
L 525.041935 32.755938 
L 526.174948 32.694547 
L 527.295159 32.634133 
L 528.402853 32.528306 
L 529.498307 32.464322 
L 530.581788 32.3971 
L 531.653556 32.338593 
L 532.713862 32.275506 
L 533.762946 32.241419 
L 534.801046 32.198352 
L 535.828387 32.16642 
L 536.845192 32.084819 
L 537.851674 32.007031 
L 538.84804 31.949588 
" clip-path="url(#p5bf1c3e299)" style="fill: none; stroke: #386cb0; stroke-width: 3; stroke-linecap: square"/>
   </g>
   <g id="line2d_43">
    <path d="M 82.302585 116.541141 
L 151.019523 81.927858 
L 191.216355 68.750651 
L 219.736461 58.220788 
L 241.858374 52.795513 
L 259.933293 48.494845 
L 275.21542 44.645174 
L 288.4534 42.250646 
L 300.130125 40.150851 
L 310.575312 38.511818 
L 320.024134 37.045903 
L 328.650231 35.930981 
L 336.585472 34.925299 
L 343.932358 34.183772 
L 350.772144 33.459003 
L 357.170338 32.860557 
L 363.180516 32.288778 
L 368.847063 31.787833 
L 374.207157 31.301406 
L 379.292251 30.844138 
L 384.12919 30.454032 
L 388.741072 30.126215 
L 393.147912 29.801205 
L 397.36717 29.496105 
L 401.414164 29.221661 
L 405.30241 28.954722 
L 409.043895 28.70751 
L 412.649296 28.481706 
L 416.128165 28.275546 
L 419.489083 28.072744 
L 422.739786 27.889358 
L 425.887276 27.715518 
L 428.937904 27.541947 
L 431.897454 27.391764 
L 434.771209 27.244225 
L 437.564002 27.101313 
L 440.28027 26.962492 
L 442.924095 26.827662 
L 445.499242 26.705936 
L 448.009189 26.585229 
L 450.457155 26.47187 
L 452.846128 26.36234 
L 455.178884 26.257202 
L 457.45801 26.156011 
L 459.685915 26.056338 
L 461.86485 25.962548 
L 463.996924 25.872509 
L 466.084108 25.789934 
L 468.128254 25.709728 
L 470.131102 25.632126 
L 472.094286 25.556068 
L 474.019348 25.481074 
L 475.907741 25.408456 
L 477.760833 25.337664 
L 479.579923 25.268469 
L 481.366234 25.202618 
L 483.120927 25.136984 
L 484.845103 25.072677 
L 486.539804 25.011173 
L 488.206021 24.953595 
L 489.844696 24.896293 
L 491.456725 24.839043 
L 493.04296 24.786036 
L 494.604214 24.733597 
L 496.141261 24.685266 
L 497.654842 24.637187 
L 499.145661 24.591008 
L 500.614392 24.545723 
L 502.061682 24.501422 
L 503.488147 24.459897 
L 504.894377 24.41883 
L 506.28094 24.378276 
L 507.648376 24.340082 
L 508.997208 24.303405 
L 510.327934 24.267266 
L 511.641033 24.232698 
L 512.936968 24.199074 
L 514.21618 24.166439 
L 515.479097 24.134523 
L 516.726127 24.102991 
L 517.957665 24.071972 
L 519.174093 24.041109 
L 520.375775 24.011203 
L 521.563066 23.981753 
L 522.736305 23.952778 
L 523.895823 23.926011 
L 525.041935 23.900575 
L 526.174948 23.875288 
L 527.295159 23.851492 
L 528.402853 23.827707 
L 529.498307 23.804137 
L 530.581788 23.78141 
L 531.653556 23.758715 
L 532.713862 23.736041 
L 533.762946 23.713542 
L 534.801046 23.691625 
L 535.828387 23.670568 
L 536.845192 23.650552 
L 537.851674 23.631368 
L 538.84804 23.614194 
" clip-path="url(#p5bf1c3e299)" style="fill: none; stroke-dasharray: 11.1,4.8; stroke-dashoffset: 0; stroke: #666666; stroke-width: 3"/>
   </g>
   <g id="patch_3">
    <path d="M 59.475313 340.371347 
L 59.475313 7.731347 
" style="fill: none; stroke: #000000; stroke-width: 0.8; stroke-linejoin: miter; stroke-linecap: square"/>
   </g>
   <g id="patch_4">
    <path d="M 561.675313 340.371347 
L 561.675313 7.731347 
" style="fill: none; stroke: #000000; stroke-width: 0.8; stroke-linejoin: miter; stroke-linecap: square"/>
   </g>
   <g id="patch_5">
    <path d="M 59.475313 340.371347 
L 561.675313 340.371347 
" style="fill: none; stroke: #000000; stroke-width: 0.8; stroke-linejoin: miter; stroke-linecap: square"/>
   </g>
   <g id="patch_6">
    <path d="M 59.475313 7.731347 
L 561.675313 7.731347 
" style="fill: none; stroke: #000000; stroke-width: 0.8; stroke-linejoin: miter; stroke-linecap: square"/>
   </g>
   <g id="legend_1">
    <g id="patch_7">
     <path d="M 329.647813 332.371347 
L 550.475312 332.371347 
Q 553.675313 332.371347 553.675313 329.171347 
L 553.675313 166.376347 
Q 553.675313 163.176347 550.475312 163.176347 
L 329.647813 163.176347 
Q 326.447813 163.176347 326.447813 166.376347 
L 326.447813 329.171347 
Q 326.447813 332.371347 329.647813 332.371347 
z
" style="fill: #ffffff; opacity: 0.8; stroke: #cccccc; stroke-linejoin: miter"/>
    </g>
    <g id="line2d_44">
     <path d="M 332.847813 176.133847 
L 348.847813 176.133847 
L 364.847813 176.133847 
" style="fill: none; stroke-dasharray: 11.1,4.8; stroke-dashoffset: 0; stroke: #fdc086; stroke-width: 3"/>
    </g>
    <g id="text_12">
     <!-- Independent Training -->
     <g transform="translate(377.647813 181.733847) scale(0.16 -0.16)">
      <defs>
       <path id="DejaVuSans-49" d="M 628 4666 
L 1259 4666 
L 1259 0 
L 628 0 
L 628 4666 
z
" transform="scale(0.015625)"/>
       <path id="DejaVuSans-70" d="M 1159 525 
L 1159 -1331 
L 581 -1331 
L 581 3500 
L 1159 3500 
L 1159 2969 
Q 1341 3281 1617 3432 
Q 1894 3584 2278 3584 
Q 2916 3584 3314 3078 
Q 3713 2572 3713 1747 
Q 3713 922 3314 415 
Q 2916 -91 2278 -91 
Q 1894 -91 1617 61 
Q 1341 213 1159 525 
z
M 3116 1747 
Q 3116 2381 2855 2742 
Q 2594 3103 2138 3103 
Q 1681 3103 1420 2742 
Q 1159 2381 1159 1747 
Q 1159 1113 1420 752 
Q 1681 391 2138 391 
Q 2594 391 2855 752 
Q 3116 1113 3116 1747 
z
" transform="scale(0.015625)"/>
       <path id="DejaVuSans-74" d="M 1172 4494 
L 1172 3500 
L 2356 3500 
L 2356 3053 
L 1172 3053 
L 1172 1153 
Q 1172 725 1289 603 
Q 1406 481 1766 481 
L 2356 481 
L 2356 0 
L 1766 0 
Q 1100 0 847 248 
Q 594 497 594 1153 
L 594 3053 
L 172 3053 
L 172 3500 
L 594 3500 
L 594 4494 
L 1172 4494 
z
" transform="scale(0.015625)"/>
       <path id="DejaVuSans-54" d="M -19 4666 
L 3928 4666 
L 3928 4134 
L 2272 4134 
L 2272 0 
L 1638 0 
L 1638 4134 
L -19 4134 
L -19 4666 
z
" transform="scale(0.015625)"/>
       <path id="DejaVuSans-67" d="M 2906 1791 
Q 2906 2416 2648 2759 
Q 2391 3103 1925 3103 
Q 1463 3103 1205 2759 
Q 947 2416 947 1791 
Q 947 1169 1205 825 
Q 1463 481 1925 481 
Q 2391 481 2648 825 
Q 2906 1169 2906 1791 
z
M 3481 434 
Q 3481 -459 3084 -895 
Q 2688 -1331 1869 -1331 
Q 1566 -1331 1297 -1286 
Q 1028 -1241 775 -1147 
L 775 -588 
Q 1028 -725 1275 -790 
Q 1522 -856 1778 -856 
Q 2344 -856 2625 -561 
Q 2906 -266 2906 331 
L 2906 616 
Q 2728 306 2450 153 
Q 2172 0 1784 0 
Q 1141 0 747 490 
Q 353 981 353 1791 
Q 353 2603 747 3093 
Q 1141 3584 1784 3584 
Q 2172 3584 2450 3431 
Q 2728 3278 2906 2969 
L 2906 3500 
L 3481 3500 
L 3481 434 
z
" transform="scale(0.015625)"/>
      </defs>
      <use xlink:href="#DejaVuSans-49"/>
      <use xlink:href="#DejaVuSans-6e" x="29.492188"/>
      <use xlink:href="#DejaVuSans-64" x="92.871094"/>
      <use xlink:href="#DejaVuSans-65" x="156.347656"/>
      <use xlink:href="#DejaVuSans-70" x="217.871094"/>
      <use xlink:href="#DejaVuSans-65" x="281.347656"/>
      <use xlink:href="#DejaVuSans-6e" x="342.871094"/>
      <use xlink:href="#DejaVuSans-64" x="406.25"/>
      <use xlink:href="#DejaVuSans-65" x="469.726562"/>
      <use xlink:href="#DejaVuSans-6e" x="531.25"/>
      <use xlink:href="#DejaVuSans-74" x="594.628906"/>
      <use xlink:href="#DejaVuSans-20" x="633.837891"/>
      <use xlink:href="#DejaVuSans-54" x="665.625"/>
      <use xlink:href="#DejaVuSans-72" x="711.958984"/>
      <use xlink:href="#DejaVuSans-61" x="753.072266"/>
      <use xlink:href="#DejaVuSans-69" x="814.351562"/>
      <use xlink:href="#DejaVuSans-6e" x="842.134766"/>
      <use xlink:href="#DejaVuSans-69" x="905.513672"/>
      <use xlink:href="#DejaVuSans-6e" x="933.296875"/>
      <use xlink:href="#DejaVuSans-67" x="996.675781"/>
     </g>
    </g>
    <g id="line2d_45">
     <path d="M 332.847813 199.618847 
L 348.847813 199.618847 
L 364.847813 199.618847 
" style="fill: none; stroke-dasharray: 11.1,4.8; stroke-dashoffset: 0; stroke: #beaed4; stroke-width: 3"/>
    </g>
    <g id="text_13">
     <!-- Multi-task Training -->
     <g transform="translate(377.647813 205.218847) scale(0.16 -0.16)">
      <defs>
       <path id="DejaVuSans-4d" d="M 628 4666 
L 1569 4666 
L 2759 1491 
L 3956 4666 
L 4897 4666 
L 4897 0 
L 4281 0 
L 4281 4097 
L 3078 897 
L 2444 897 
L 1241 4097 
L 1241 0 
L 628 0 
L 628 4666 
z
" transform="scale(0.015625)"/>
       <path id="DejaVuSans-2d" d="M 313 2009 
L 1997 2009 
L 1997 1497 
L 313 1497 
L 313 2009 
z
" transform="scale(0.015625)"/>
       <path id="DejaVuSans-6b" d="M 581 4863 
L 1159 4863 
L 1159 1991 
L 2875 3500 
L 3609 3500 
L 1753 1863 
L 3688 0 
L 2938 0 
L 1159 1709 
L 1159 0 
L 581 0 
L 581 4863 
z
" transform="scale(0.015625)"/>
      </defs>
      <use xlink:href="#DejaVuSans-4d"/>
      <use xlink:href="#DejaVuSans-75" x="86.279297"/>
      <use xlink:href="#DejaVuSans-6c" x="149.658203"/>
      <use xlink:href="#DejaVuSans-74" x="177.441406"/>
      <use xlink:href="#DejaVuSans-69" x="216.650391"/>
      <use xlink:href="#DejaVuSans-2d" x="244.433594"/>
      <use xlink:href="#DejaVuSans-74" x="280.517578"/>
      <use xlink:href="#DejaVuSans-61" x="319.726562"/>
      <use xlink:href="#DejaVuSans-73" x="381.005859"/>
      <use xlink:href="#DejaVuSans-6b" x="433.105469"/>
      <use xlink:href="#DejaVuSans-20" x="491.015625"/>
      <use xlink:href="#DejaVuSans-54" x="522.802734"/>
      <use xlink:href="#DejaVuSans-72" x="569.136719"/>
      <use xlink:href="#DejaVuSans-61" x="610.25"/>
      <use xlink:href="#DejaVuSans-69" x="671.529297"/>
      <use xlink:href="#DejaVuSans-6e" x="699.3125"/>
      <use xlink:href="#DejaVuSans-69" x="762.691406"/>
      <use xlink:href="#DejaVuSans-6e" x="790.474609"/>
      <use xlink:href="#DejaVuSans-67" x="853.853516"/>
     </g>
    </g>
    <g id="line2d_46">
     <path d="M 332.847813 223.103847 
L 348.847813 223.103847 
L 364.847813 223.103847 
" style="fill: none; stroke: #7fc97f; stroke-width: 3; stroke-linecap: square"/>
    </g>
    <g id="text_14">
     <!-- Random -->
     <g transform="translate(377.647813 228.703847) scale(0.16 -0.16)">
      <use xlink:href="#DejaVuSans-52"/>
      <use xlink:href="#DejaVuSans-61" x="67.232422"/>
      <use xlink:href="#DejaVuSans-6e" x="128.511719"/>
      <use xlink:href="#DejaVuSans-64" x="191.890625"/>
      <use xlink:href="#DejaVuSans-6f" x="255.367188"/>
      <use xlink:href="#DejaVuSans-6d" x="316.548828"/>
     </g>
    </g>
    <g id="line2d_47">
     <path d="M 332.847813 246.588847 
L 348.847813 246.588847 
L 364.847813 246.588847 
" style="fill: none; stroke: #bf5b17; stroke-width: 3; stroke-linecap: square"/>
    </g>
    <g id="text_15">
     <!-- GP-MBTL -->
     <g transform="translate(377.647813 252.188847) scale(0.16 -0.16)">
      <defs>
       <path id="DejaVuSans-47" d="M 3809 666 
L 3809 1919 
L 2778 1919 
L 2778 2438 
L 4434 2438 
L 4434 434 
Q 4069 175 3628 42 
Q 3188 -91 2688 -91 
Q 1594 -91 976 548 
Q 359 1188 359 2328 
Q 359 3472 976 4111 
Q 1594 4750 2688 4750 
Q 3144 4750 3555 4637 
Q 3966 4525 4313 4306 
L 4313 3634 
Q 3963 3931 3569 4081 
Q 3175 4231 2741 4231 
Q 1884 4231 1454 3753 
Q 1025 3275 1025 2328 
Q 1025 1384 1454 906 
Q 1884 428 2741 428 
Q 3075 428 3337 486 
Q 3600 544 3809 666 
z
" transform="scale(0.015625)"/>
       <path id="DejaVuSans-42" d="M 1259 2228 
L 1259 519 
L 2272 519 
Q 2781 519 3026 730 
Q 3272 941 3272 1375 
Q 3272 1813 3026 2020 
Q 2781 2228 2272 2228 
L 1259 2228 
z
M 1259 4147 
L 1259 2741 
L 2194 2741 
Q 2656 2741 2882 2914 
Q 3109 3088 3109 3444 
Q 3109 3797 2882 3972 
Q 2656 4147 2194 4147 
L 1259 4147 
z
M 628 4666 
L 2241 4666 
Q 2963 4666 3353 4366 
Q 3744 4066 3744 3513 
Q 3744 3084 3544 2831 
Q 3344 2578 2956 2516 
Q 3422 2416 3680 2098 
Q 3938 1781 3938 1306 
Q 3938 681 3513 340 
Q 3088 0 2303 0 
L 628 0 
L 628 4666 
z
" transform="scale(0.015625)"/>
       <path id="DejaVuSans-4c" d="M 628 4666 
L 1259 4666 
L 1259 531 
L 3531 531 
L 3531 0 
L 628 0 
L 628 4666 
z
" transform="scale(0.015625)"/>
      </defs>
      <use xlink:href="#DejaVuSans-47"/>
      <use xlink:href="#DejaVuSans-50" x="77.490234"/>
      <use xlink:href="#DejaVuSans-2d" x="135.542969"/>
      <use xlink:href="#DejaVuSans-4d" x="171.626953"/>
      <use xlink:href="#DejaVuSans-42" x="257.90625"/>
      <use xlink:href="#DejaVuSans-54" x="326.509766"/>
      <use xlink:href="#DejaVuSans-4c" x="387.59375"/>
     </g>
    </g>
    <g id="line2d_48">
     <path d="M 332.847813 270.073847 
L 348.847813 270.073847 
L 364.847813 270.073847 
" style="fill: none; stroke: #f0027f; stroke-width: 3; stroke-linecap: square"/>
    </g>
    <g id="text_16">
     <!-- M-MBTL (Ours) -->
     <g transform="translate(377.647813 275.673847) scale(0.16 -0.16)">
      <defs>
       <path id="DejaVuSans-28" d="M 1984 4856 
Q 1566 4138 1362 3434 
Q 1159 2731 1159 2009 
Q 1159 1288 1364 580 
Q 1569 -128 1984 -844 
L 1484 -844 
Q 1016 -109 783 600 
Q 550 1309 550 2009 
Q 550 2706 781 3412 
Q 1013 4119 1484 4856 
L 1984 4856 
z
" transform="scale(0.015625)"/>
       <path id="DejaVuSans-4f" d="M 2522 4238 
Q 1834 4238 1429 3725 
Q 1025 3213 1025 2328 
Q 1025 1447 1429 934 
Q 1834 422 2522 422 
Q 3209 422 3611 934 
Q 4013 1447 4013 2328 
Q 4013 3213 3611 3725 
Q 3209 4238 2522 4238 
z
M 2522 4750 
Q 3503 4750 4090 4092 
Q 4678 3434 4678 2328 
Q 4678 1225 4090 567 
Q 3503 -91 2522 -91 
Q 1538 -91 948 565 
Q 359 1222 359 2328 
Q 359 3434 948 4092 
Q 1538 4750 2522 4750 
z
" transform="scale(0.015625)"/>
       <path id="DejaVuSans-29" d="M 513 4856 
L 1013 4856 
Q 1481 4119 1714 3412 
Q 1947 2706 1947 2009 
Q 1947 1309 1714 600 
Q 1481 -109 1013 -844 
L 513 -844 
Q 928 -128 1133 580 
Q 1338 1288 1338 2009 
Q 1338 2731 1133 3434 
Q 928 4138 513 4856 
z
" transform="scale(0.015625)"/>
      </defs>
      <use xlink:href="#DejaVuSans-4d"/>
      <use xlink:href="#DejaVuSans-2d" x="86.279297"/>
      <use xlink:href="#DejaVuSans-4d" x="122.363281"/>
      <use xlink:href="#DejaVuSans-42" x="208.642578"/>
      <use xlink:href="#DejaVuSans-54" x="277.246094"/>
      <use xlink:href="#DejaVuSans-4c" x="338.330078"/>
      <use xlink:href="#DejaVuSans-20" x="394.042969"/>
      <use xlink:href="#DejaVuSans-28" x="425.830078"/>
      <use xlink:href="#DejaVuSans-4f" x="464.84375"/>
      <use xlink:href="#DejaVuSans-75" x="543.554688"/>
      <use xlink:href="#DejaVuSans-72" x="606.933594"/>
      <use xlink:href="#DejaVuSans-73" x="648.046875"/>
      <use xlink:href="#DejaVuSans-29" x="700.146484"/>
     </g>
    </g>
    <g id="line2d_49">
     <path d="M 332.847813 293.558847 
L 348.847813 293.558847 
L 364.847813 293.558847 
" style="fill: none; stroke: #386cb0; stroke-width: 3; stroke-linecap: square"/>
    </g>
    <g id="text_17">
     <!-- M/GP-MBTL (Ours) -->
     <g transform="translate(377.647813 299.158847) scale(0.16 -0.16)">
      <defs>
       <path id="DejaVuSans-2f" d="M 1625 4666 
L 2156 4666 
L 531 -594 
L 0 -594 
L 1625 4666 
z
" transform="scale(0.015625)"/>
      </defs>
      <use xlink:href="#DejaVuSans-4d"/>
      <use xlink:href="#DejaVuSans-2f" x="86.279297"/>
      <use xlink:href="#DejaVuSans-47" x="119.970703"/>
      <use xlink:href="#DejaVuSans-50" x="197.460938"/>
      <use xlink:href="#DejaVuSans-2d" x="255.513672"/>
      <use xlink:href="#DejaVuSans-4d" x="291.597656"/>
      <use xlink:href="#DejaVuSans-42" x="377.876953"/>
      <use xlink:href="#DejaVuSans-54" x="446.480469"/>
      <use xlink:href="#DejaVuSans-4c" x="507.564453"/>
      <use xlink:href="#DejaVuSans-20" x="563.277344"/>
      <use xlink:href="#DejaVuSans-28" x="595.064453"/>
      <use xlink:href="#DejaVuSans-4f" x="634.078125"/>
      <use xlink:href="#DejaVuSans-75" x="712.789062"/>
      <use xlink:href="#DejaVuSans-72" x="776.167969"/>
      <use xlink:href="#DejaVuSans-73" x="817.28125"/>
      <use xlink:href="#DejaVuSans-29" x="869.380859"/>
     </g>
    </g>
    <g id="line2d_50">
     <path d="M 332.847813 317.043847 
L 348.847813 317.043847 
L 364.847813 317.043847 
" style="fill: none; stroke-dasharray: 11.1,4.8; stroke-dashoffset: 0; stroke: #666666; stroke-width: 3"/>
    </g>
    <g id="text_18">
     <!-- Myopic Oracle -->
     <g transform="translate(377.647813 322.643847) scale(0.16 -0.16)">
      <defs>
       <path id="DejaVuSans-79" d="M 2059 -325 
Q 1816 -950 1584 -1140 
Q 1353 -1331 966 -1331 
L 506 -1331 
L 506 -850 
L 844 -850 
Q 1081 -850 1212 -737 
Q 1344 -625 1503 -206 
L 1606 56 
L 191 3500 
L 800 3500 
L 1894 763 
L 2988 3500 
L 3597 3500 
L 2059 -325 
z
" transform="scale(0.015625)"/>
      </defs>
      <use xlink:href="#DejaVuSans-4d"/>
      <use xlink:href="#DejaVuSans-79" x="86.279297"/>
      <use xlink:href="#DejaVuSans-6f" x="145.458984"/>
      <use xlink:href="#DejaVuSans-70" x="206.640625"/>
      <use xlink:href="#DejaVuSans-69" x="270.117188"/>
      <use xlink:href="#DejaVuSans-63" x="297.900391"/>
      <use xlink:href="#DejaVuSans-20" x="352.880859"/>
      <use xlink:href="#DejaVuSans-4f" x="384.667969"/>
      <use xlink:href="#DejaVuSans-72" x="463.378906"/>
      <use xlink:href="#DejaVuSans-61" x="504.492188"/>
      <use xlink:href="#DejaVuSans-63" x="565.771484"/>
      <use xlink:href="#DejaVuSans-6c" x="620.751953"/>
      <use xlink:href="#DejaVuSans-65" x="648.535156"/>
     </g>
    </g>
   </g>
  </g>
 </g>
 <defs>
  <clipPath id="p5bf1c3e299">
   <rect x="59.475313" y="7.731347" width="502.2" height="332.64"/>
  </clipPath>
 </defs>
</svg>
