<?xml version="1.0" encoding="utf-8" standalone="no"?>
<!DOCTYPE svg PUBLIC "-//W3C//DTD SVG 1.1//EN"
  "http://www.w3.org/Graphics/SVG/1.1/DTD/svg11.dtd">
<svg xmlns:xlink="http://www.w3.org/1999/xlink" width="568.875312pt" height="389.977813pt" viewBox="0 0 568.875312 389.977813" xmlns="http://www.w3.org/2000/svg" version="1.1">
 <metadata>
  <rdf:RDF xmlns:dc="http://purl.org/dc/elements/1.1/" xmlns:cc="http://creativecommons.org/ns#" xmlns:rdf="http://www.w3.org/1999/02/22-rdf-syntax-ns#">
   <cc:Work>
    <dc:type rdf:resource="http://purl.org/dc/dcmitype/StillImage"/>
    <dc:date>2025-04-30T08:49:44.961234</dc:date>
    <dc:format>image/svg+xml</dc:format>
    <dc:creator>
     <cc:Agent>
      <dc:title>Matplotlib v3.9.4, https://matplotlib.org/</dc:title>
     </cc:Agent>
    </dc:creator>
   </cc:Work>
  </rdf:RDF>
 </metadata>
 <defs>
  <style type="text/css">*{stroke-linejoin: round; stroke-linecap: butt}</style>
 </defs>
 <g id="figure_1">
  <g id="patch_1">
   <path d="M 0 389.977813 
L 568.875312 389.977813 
L 568.875312 0 
L 0 0 
z
" style="fill: #ffffff"/>
  </g>
  <g id="axes_1">
   <g id="patch_2">
    <path d="M 59.475313 339.84 
L 561.675313 339.84 
L 561.675313 7.2 
L 59.475313 7.2 
z
" style="fill: #ffffff"/>
   </g>
   <g id="PolyCollection_1">
    <defs>
     <path id="m469e758492" d="M 82.302585 -322.266111 
L 82.302585 -320.438747 
L 175.344288 -320.438747 
L 229.770195 -320.438747 
L 268.38599 -320.438747 
L 298.338728 -320.438747 
L 322.811897 -320.438747 
L 343.503666 -320.438747 
L 361.427692 -320.438747 
L 377.237804 -320.438747 
L 391.38043 -320.438747 
L 404.173992 -320.438747 
L 415.853599 -320.438747 
L 426.597796 -320.438747 
L 436.545369 -320.438747 
L 445.806337 -320.438747 
L 454.469395 -320.438747 
L 462.607087 -320.438747 
L 470.279506 -320.438747 
L 477.536993 -320.438747 
L 484.422133 -320.438747 
L 490.971276 -320.438747 
L 497.215695 -320.438747 
L 503.182491 -320.438747 
L 508.895302 -320.438747 
L 514.374871 -320.438747 
L 519.639499 -320.438747 
L 524.705413 -320.438747 
L 529.587071 -320.438747 
L 534.297407 -320.438747 
L 538.84804 -320.438747 
L 538.84804 -322.266111 
L 538.84804 -322.266111 
L 534.297407 -322.266111 
L 529.587071 -322.266111 
L 524.705413 -322.266111 
L 519.639499 -322.266111 
L 514.374871 -322.266111 
L 508.895302 -322.266111 
L 503.182491 -322.266111 
L 497.215695 -322.266111 
L 490.971276 -322.266111 
L 484.422133 -322.266111 
L 477.536993 -322.266111 
L 470.279506 -322.266111 
L 462.607087 -322.266111 
L 454.469395 -322.266111 
L 445.806337 -322.266111 
L 436.545369 -322.266111 
L 426.597796 -322.266111 
L 415.853599 -322.266111 
L 404.173992 -322.266111 
L 391.38043 -322.266111 
L 377.237804 -322.266111 
L 361.427692 -322.266111 
L 343.503666 -322.266111 
L 322.811897 -322.266111 
L 298.338728 -322.266111 
L 268.38599 -322.266111 
L 229.770195 -322.266111 
L 175.344288 -322.266111 
L 82.302585 -322.266111 
z
" style="stroke: #fdc086; stroke-opacity: 0.05"/>
    </defs>
    <g clip-path="url(#p6e909905c2)">
     <use xlink:href="#m469e758492" x="0" y="389.977813" style="fill: #fdc086; fill-opacity: 0.05; stroke: #fdc086; stroke-opacity: 0.05"/>
    </g>
   </g>
   <g id="PolyCollection_2">
    <defs>
     <path id="m08a9200db4" d="M 82.302585 -241.93021 
L 82.302585 -120.664388 
L 175.344288 -165.892349 
L 229.770195 -281.535786 
L 268.38599 -332.000784 
L 298.338728 -332.000784 
L 322.811897 -332.000784 
L 343.503666 -332.900019 
L 361.427692 -357.182435 
L 377.237804 -357.182435 
L 391.38043 -357.182435 
L 404.173992 -357.182435 
L 415.853599 -357.182435 
L 426.597796 -357.182435 
L 436.545369 -357.182435 
L 445.806337 -357.182435 
L 454.469395 -357.182435 
L 462.607087 -357.182435 
L 470.279506 -357.182435 
L 477.536993 -357.182435 
L 484.422133 -357.182435 
L 490.971276 -357.182435 
L 497.215695 -357.182435 
L 503.182491 -357.182435 
L 508.895302 -357.182435 
L 514.374871 -357.182435 
L 519.639499 -357.182435 
L 524.705413 -357.182435 
L 529.587071 -357.182435 
L 534.297407 -357.182435 
L 538.84804 -357.182435 
L 538.84804 -358.396729 
L 538.84804 -358.396729 
L 534.297407 -358.396729 
L 529.587071 -358.396729 
L 524.705413 -358.396729 
L 519.639499 -358.396729 
L 514.374871 -358.396729 
L 508.895302 -358.396729 
L 503.182491 -358.396729 
L 497.215695 -358.396729 
L 490.971276 -358.396729 
L 484.422133 -358.396729 
L 477.536993 -358.396729 
L 470.279506 -358.396729 
L 462.607087 -358.396729 
L 454.469395 -358.396729 
L 445.806337 -358.396729 
L 436.545369 -358.396729 
L 426.597796 -358.396729 
L 415.853599 -358.396729 
L 404.173992 -358.396729 
L 391.38043 -358.396729 
L 377.237804 -358.396729 
L 361.427692 -358.396729 
L 343.503666 -362.562929 
L 322.811897 -359.121696 
L 298.338728 -359.121696 
L 268.38599 -359.121696 
L 229.770195 -367.629941 
L 175.344288 -364.740139 
L 82.302585 -241.93021 
z
" style="stroke: #beaed4; stroke-opacity: 0.05"/>
    </defs>
    <g clip-path="url(#p6e909905c2)">
     <use xlink:href="#m08a9200db4" x="0" y="389.977813" style="fill: #beaed4; fill-opacity: 0.05; stroke: #beaed4; stroke-opacity: 0.05"/>
    </g>
   </g>
   <g id="PolyCollection_3">
    <defs>
     <path id="mf219985403" d="M 82.302585 -302.893896 
L 82.302585 -135.036048 
L 175.344288 -235.740755 
L 229.770195 -279.534255 
L 268.38599 -304.065151 
L 298.338728 -314.812819 
L 322.811897 -324.455792 
L 343.503666 -330.987855 
L 361.427692 -334.962638 
L 377.237804 -338.746904 
L 391.38043 -342.135659 
L 404.173992 -344.764753 
L 415.853599 -345.566711 
L 426.597796 -346.75694 
L 436.545369 -348.552881 
L 445.806337 -349.233678 
L 454.469395 -349.963441 
L 462.607087 -350.648894 
L 470.279506 -351.103724 
L 477.536993 -351.43292 
L 484.422133 -351.772427 
L 490.971276 -352.437451 
L 497.215695 -352.796415 
L 503.182491 -353.227241 
L 508.895302 -353.459397 
L 514.374871 -353.633769 
L 519.639499 -353.776814 
L 524.705413 -353.919863 
L 529.587071 -354.123912 
L 534.297407 -354.190654 
L 538.84804 -354.442625 
L 538.84804 -357.607846 
L 538.84804 -357.607846 
L 534.297407 -357.611531 
L 529.587071 -357.520581 
L 524.705413 -357.511933 
L 519.639499 -357.510318 
L 514.374871 -357.443469 
L 508.895302 -357.363142 
L 503.182491 -357.227929 
L 497.215695 -357.169472 
L 490.971276 -357.055902 
L 484.422133 -356.94767 
L 477.536993 -356.786765 
L 470.279506 -356.622966 
L 462.607087 -356.268437 
L 454.469395 -356.087241 
L 445.806337 -355.75249 
L 436.545369 -355.608459 
L 426.597796 -355.580516 
L 415.853599 -355.180245 
L 404.173992 -354.925717 
L 391.38043 -354.804452 
L 377.237804 -354.649317 
L 361.427692 -354.74719 
L 343.503666 -354.120873 
L 322.811897 -352.715055 
L 298.338728 -351.695761 
L 268.38599 -349.682576 
L 229.770195 -344.614599 
L 175.344288 -333.17735 
L 82.302585 -302.893896 
z
" style="stroke: #7fc97f; stroke-opacity: 0.05"/>
    </defs>
    <g clip-path="url(#p6e909905c2)">
     <use xlink:href="#mf219985403" x="0" y="389.977813" style="fill: #7fc97f; fill-opacity: 0.05; stroke: #7fc97f; stroke-opacity: 0.05"/>
    </g>
   </g>
   <g id="PolyCollection_4">
    <defs>
     <path id="m487d5b174b" d="M 82.302585 -322.687697 
L 82.302585 -65.257812 
L 175.344288 -208.445286 
L 229.770195 -272.053533 
L 268.38599 -301.795558 
L 298.338728 -321.556728 
L 322.811897 -329.847168 
L 343.503666 -338.525453 
L 361.427692 -342.547291 
L 377.237804 -345.19418 
L 391.38043 -347.570588 
L 404.173992 -348.810348 
L 415.853599 -349.786003 
L 426.597796 -350.65028 
L 436.545369 -351.368894 
L 445.806337 -351.978757 
L 454.469395 -352.417827 
L 462.607087 -352.946381 
L 470.279506 -353.396093 
L 477.536993 -353.783696 
L 484.422133 -353.961971 
L 490.971276 -354.305874 
L 497.215695 -354.516025 
L 503.182491 -354.775134 
L 508.895302 -354.913718 
L 514.374871 -355.029656 
L 519.639499 -355.283159 
L 524.705413 -355.344482 
L 529.587071 -355.446455 
L 534.297407 -355.50214 
L 538.84804 -355.719915 
L 538.84804 -357.793313 
L 538.84804 -357.793313 
L 534.297407 -357.855711 
L 529.587071 -357.80339 
L 524.705413 -357.782057 
L 519.639499 -357.731903 
L 514.374871 -357.812708 
L 508.895302 -357.769239 
L 503.182491 -357.709211 
L 497.215695 -357.707123 
L 490.971276 -357.646093 
L 484.422133 -357.723863 
L 477.536993 -357.663383 
L 470.279506 -357.529659 
L 462.607087 -357.575255 
L 454.469395 -357.473955 
L 445.806337 -357.384071 
L 436.545369 -357.373167 
L 426.597796 -357.55829 
L 415.853599 -357.559889 
L 404.173992 -357.40438 
L 391.38043 -357.588997 
L 377.237804 -357.85306 
L 361.427692 -358.308598 
L 343.503666 -358.402278 
L 322.811897 -360.305524 
L 298.338728 -360.379577 
L 268.38599 -362.438127 
L 229.770195 -363.508929 
L 175.344288 -358.670156 
L 82.302585 -322.687697 
z
" style="stroke: #bf5b17; stroke-opacity: 0.05"/>
    </defs>
    <g clip-path="url(#p6e909905c2)">
     <use xlink:href="#m487d5b174b" x="0" y="389.977813" style="fill: #bf5b17; fill-opacity: 0.05; stroke: #bf5b17; stroke-opacity: 0.05"/>
    </g>
   </g>
   <g id="PolyCollection_5">
    <defs>
     <path id="mee116d246a" d="M 82.302585 -322.687697 
L 82.302585 -65.257812 
L 175.344288 -220.908637 
L 229.770195 -318.088643 
L 268.38599 -331.300055 
L 298.338728 -339.228619 
L 322.811897 -341.822179 
L 343.503666 -342.68761 
L 361.427692 -343.677918 
L 377.237804 -345.063922 
L 391.38043 -346.500528 
L 404.173992 -347.47555 
L 415.853599 -347.707612 
L 426.597796 -348.958803 
L 436.545369 -350.052726 
L 445.806337 -351.017008 
L 454.469395 -351.130409 
L 462.607087 -351.80285 
L 470.279506 -351.833935 
L 477.536993 -352.150521 
L 484.422133 -352.215115 
L 490.971276 -353.256077 
L 497.215695 -353.342779 
L 503.182491 -353.504984 
L 508.895302 -353.813032 
L 514.374871 -353.991738 
L 519.639499 -354.676242 
L 524.705413 -354.695243 
L 529.587071 -354.776131 
L 534.297407 -354.873923 
L 538.84804 -354.873923 
L 538.84804 -357.773657 
L 538.84804 -357.773657 
L 534.297407 -357.773657 
L 529.587071 -357.790627 
L 524.705413 -357.813672 
L 519.639499 -357.820821 
L 514.374871 -356.803125 
L 508.895302 -356.840603 
L 503.182491 -356.627868 
L 497.215695 -356.66232 
L 490.971276 -356.691339 
L 484.422133 -356.632023 
L 477.536993 -356.653239 
L 470.279506 -356.733126 
L 462.607087 -356.749571 
L 454.469395 -356.820189 
L 445.806337 -356.85791 
L 436.545369 -356.673395 
L 426.597796 -356.716466 
L 415.853599 -357.012726 
L 404.173992 -357.031417 
L 391.38043 -357.330278 
L 377.237804 -357.685655 
L 361.427692 -358.386976 
L 343.503666 -358.622822 
L 322.811897 -358.782338 
L 298.338728 -359.626261 
L 268.38599 -361.804146 
L 229.770195 -363.763615 
L 175.344288 -367.657813 
L 82.302585 -322.687697 
z
" style="stroke: #f0027f; stroke-opacity: 0.05"/>
    </defs>
    <g clip-path="url(#p6e909905c2)">
     <use xlink:href="#mee116d246a" x="0" y="389.977813" style="fill: #f0027f; fill-opacity: 0.05; stroke: #f0027f; stroke-opacity: 0.05"/>
    </g>
   </g>
   <g id="PolyCollection_6">
    <defs>
     <path id="mb15f4c0a5a" d="M 82.302585 -322.687697 
L 82.302585 -65.257812 
L 175.344288 -220.908637 
L 229.770195 -318.088643 
L 268.38599 -331.300055 
L 298.338728 -339.228619 
L 322.811897 -341.822179 
L 343.503666 -342.689842 
L 361.427692 -343.675992 
L 377.237804 -345.075251 
L 391.38043 -346.506659 
L 404.173992 -347.525621 
L 415.853599 -347.765593 
L 426.597796 -348.975515 
L 436.545369 -350.124494 
L 445.806337 -351.072979 
L 454.469395 -351.234383 
L 462.607087 -351.897536 
L 470.279506 -351.967494 
L 477.536993 -352.28717 
L 484.422133 -352.351587 
L 490.971276 -353.359863 
L 497.215695 -353.431699 
L 503.182491 -353.579352 
L 508.895302 -353.865042 
L 514.374871 -354.040318 
L 519.639499 -354.575883 
L 524.705413 -354.657795 
L 529.587071 -354.751707 
L 534.297407 -354.853512 
L 538.84804 -354.86009 
L 538.84804 -357.70248 
L 538.84804 -357.70248 
L 534.297407 -357.690019 
L 529.587071 -357.70057 
L 524.705413 -357.719055 
L 519.639499 -357.615879 
L 514.374871 -356.86574 
L 508.895302 -356.892733 
L 503.182491 -356.714746 
L 497.215695 -356.737714 
L 490.971276 -356.738116 
L 484.422133 -356.73798 
L 477.536993 -356.7591 
L 470.279506 -356.848747 
L 462.607087 -356.827565 
L 454.469395 -356.919458 
L 445.806337 -356.921921 
L 436.545369 -356.77821 
L 426.597796 -356.858049 
L 415.853599 -357.170112 
L 404.173992 -357.161072 
L 391.38043 -357.402659 
L 377.237804 -357.709845 
L 361.427692 -358.407684 
L 343.503666 -358.63176 
L 322.811897 -358.782338 
L 298.338728 -359.626261 
L 268.38599 -361.804146 
L 229.770195 -363.763615 
L 175.344288 -367.657813 
L 82.302585 -322.687697 
z
" style="stroke: #386cb0; stroke-opacity: 0.05"/>
    </defs>
    <g clip-path="url(#p6e909905c2)">
     <use xlink:href="#mb15f4c0a5a" x="0" y="389.977813" style="fill: #386cb0; fill-opacity: 0.05; stroke: #386cb0; stroke-opacity: 0.05"/>
    </g>
   </g>
   <g id="PolyCollection_7">
    <defs>
     <path id="mcc3d7600a2" d="M 82.302585 -344.819998 
L 82.302585 -313.21544 
L 175.344288 -340.077148 
L 229.770195 -350.152058 
L 268.38599 -353.670368 
L 298.338728 -354.632239 
L 322.811897 -355.483195 
L 343.503666 -355.948776 
L 361.427692 -356.238093 
L 377.237804 -356.504803 
L 391.38043 -356.565561 
L 404.173992 -356.63934 
L 415.853599 -356.722248 
L 426.597796 -356.839516 
L 436.545369 -356.848847 
L 445.806337 -356.893543 
L 454.469395 -357.013611 
L 462.607087 -357.104888 
L 470.279506 -357.255989 
L 477.536993 -357.356292 
L 484.422133 -357.357052 
L 490.971276 -357.445844 
L 497.215695 -357.544457 
L 503.182491 -357.560995 
L 508.895302 -357.658139 
L 514.374871 -357.69907 
L 519.639499 -357.749876 
L 524.705413 -357.770516 
L 529.587071 -357.790654 
L 534.297407 -357.849507 
L 538.84804 -357.851517 
L 538.84804 -358.143663 
L 538.84804 -358.143663 
L 534.297407 -358.143451 
L 529.587071 -358.086506 
L 524.705413 -358.086383 
L 519.639499 -358.085855 
L 514.374871 -358.015991 
L 508.895302 -357.995789 
L 503.182491 -357.944981 
L 497.215695 -357.94218 
L 490.971276 -357.897475 
L 484.422133 -357.88582 
L 477.536993 -357.885506 
L 470.279506 -357.847922 
L 462.607087 -357.800945 
L 454.469395 -357.741913 
L 445.806337 -357.642353 
L 436.545369 -357.625406 
L 426.597796 -357.626701 
L 415.853599 -357.500325 
L 404.173992 -357.478503 
L 391.38043 -357.457974 
L 377.237804 -357.453275 
L 361.427692 -357.42415 
L 343.503666 -357.421687 
L 322.811897 -357.21299 
L 298.338728 -356.930275 
L 268.38599 -356.297088 
L 229.770195 -355.534227 
L 175.344288 -352.316107 
L 82.302585 -344.819998 
z
" style="stroke: #666666; stroke-opacity: 0.05"/>
    </defs>
    <g clip-path="url(#p6e909905c2)">
     <use xlink:href="#mcc3d7600a2" x="0" y="389.977813" style="fill: #666666; fill-opacity: 0.05; stroke: #666666; stroke-opacity: 0.05"/>
    </g>
   </g>
   <g id="PolyCollection_8">
    <defs>
     <path id="m7c40b0a203" d="M 82.302585 -344.819998 
L 82.302585 -313.21544 
L 175.344288 -342.336244 
L 229.770195 -350.062551 
L 268.38599 -353.268971 
L 298.338728 -355.285824 
L 322.811897 -356.089096 
L 343.503666 -356.696242 
L 361.427692 -357.237872 
L 377.237804 -357.513164 
L 391.38043 -357.685186 
L 404.173992 -357.847012 
L 415.853599 -357.954414 
L 426.597796 -358.021203 
L 436.545369 -358.061868 
L 445.806337 -358.092214 
L 454.469395 -358.122838 
L 462.607087 -358.143021 
L 470.279506 -358.153426 
L 477.536993 -358.171116 
L 484.422133 -358.179374 
L 490.971276 -358.190576 
L 497.215695 -358.193761 
L 503.182491 -358.199385 
L 508.895302 -358.201732 
L 514.374871 -358.205537 
L 519.639499 -358.207755 
L 524.705413 -358.209383 
L 529.587071 -358.21215 
L 534.297407 -358.213515 
L 538.84804 -358.214598 
L 538.84804 -358.224714 
L 538.84804 -358.224714 
L 534.297407 -358.224963 
L 529.587071 -358.225402 
L 524.705413 -358.227159 
L 519.639499 -358.227506 
L 514.374871 -358.228045 
L 508.895302 -358.229687 
L 503.182491 -358.229705 
L 497.215695 -358.232596 
L 490.971276 -358.232215 
L 484.422133 -358.238274 
L 477.536993 -358.238572 
L 470.279506 -358.244653 
L 462.607087 -358.24004 
L 454.469395 -358.241113 
L 445.806337 -358.248464 
L 436.545369 -358.246691 
L 426.597796 -358.243415 
L 415.853599 -358.243492 
L 404.173992 -358.266934 
L 391.38043 -358.318227 
L 377.237804 -358.332353 
L 361.427692 -358.370416 
L 343.503666 -358.48011 
L 322.811897 -358.482512 
L 298.338728 -358.213911 
L 268.38599 -357.747954 
L 229.770195 -356.481972 
L 175.344288 -354.085149 
L 82.302585 -344.819998 
z
" style="stroke: #ffff99; stroke-opacity: 0.05"/>
    </defs>
    <g clip-path="url(#p6e909905c2)">
     <use xlink:href="#m7c40b0a203" x="0" y="389.977813" style="fill: #ffff99; fill-opacity: 0.05; stroke: #ffff99; stroke-opacity: 0.05"/>
    </g>
   </g>
   <g id="matplotlib.axis_1">
    <g id="xtick_1">
     <g id="line2d_1">
      <path d="M 82.302585 339.84 
L 82.302585 7.2 
" clip-path="url(#p6e909905c2)" style="fill: none; stroke-dasharray: 1.85,0.8; stroke-dashoffset: 0; stroke: #b0b0b0; stroke-width: 0.5"/>
     </g>
     <g id="line2d_2">
      <defs>
       <path id="mfa1901a8c0" d="M 0 0 
L 0 3.5 
" style="stroke: #000000; stroke-width: 0.8"/>
      </defs>
      <g>
       <use xlink:href="#mfa1901a8c0" x="82.302585" y="339.84" style="stroke: #000000; stroke-width: 0.8"/>
      </g>
     </g>
     <g id="text_1">
      <!-- $\mathdefault{10^{0}}$ -->
      <g transform="translate(69.102585 358.237656) scale(0.15 -0.15)">
       <defs>
        <path id="DejaVuSans-31" d="M 794 531 
L 1825 531 
L 1825 4091 
L 703 3866 
L 703 4441 
L 1819 4666 
L 2450 4666 
L 2450 531 
L 3481 531 
L 3481 0 
L 794 0 
L 794 531 
z
" transform="scale(0.015625)"/>
        <path id="DejaVuSans-30" d="M 2034 4250 
Q 1547 4250 1301 3770 
Q 1056 3291 1056 2328 
Q 1056 1369 1301 889 
Q 1547 409 2034 409 
Q 2525 409 2770 889 
Q 3016 1369 3016 2328 
Q 3016 3291 2770 3770 
Q 2525 4250 2034 4250 
z
M 2034 4750 
Q 2819 4750 3233 4129 
Q 3647 3509 3647 2328 
Q 3647 1150 3233 529 
Q 2819 -91 2034 -91 
Q 1250 -91 836 529 
Q 422 1150 422 2328 
Q 422 3509 836 4129 
Q 1250 4750 2034 4750 
z
" transform="scale(0.015625)"/>
       </defs>
       <use xlink:href="#DejaVuSans-31" transform="translate(0 0.765625)"/>
       <use xlink:href="#DejaVuSans-30" transform="translate(63.623047 0.765625)"/>
       <use xlink:href="#DejaVuSans-30" transform="translate(128.203125 39.046875) scale(0.7)"/>
      </g>
     </g>
    </g>
    <g id="xtick_2">
     <g id="line2d_3">
      <path d="M 391.38043 339.84 
L 391.38043 7.2 
" clip-path="url(#p6e909905c2)" style="fill: none; stroke-dasharray: 1.85,0.8; stroke-dashoffset: 0; stroke: #b0b0b0; stroke-width: 0.5"/>
     </g>
     <g id="line2d_4">
      <g>
       <use xlink:href="#mfa1901a8c0" x="391.38043" y="339.84" style="stroke: #000000; stroke-width: 0.8"/>
      </g>
     </g>
     <g id="text_2">
      <!-- $\mathdefault{10^{1}}$ -->
      <g transform="translate(378.18043 358.237656) scale(0.15 -0.15)">
       <use xlink:href="#DejaVuSans-31" transform="translate(0 0.684375)"/>
       <use xlink:href="#DejaVuSans-30" transform="translate(63.623047 0.684375)"/>
       <use xlink:href="#DejaVuSans-31" transform="translate(128.203125 38.965625) scale(0.7)"/>
      </g>
     </g>
    </g>
    <g id="xtick_3">
     <g id="line2d_5">
      <defs>
       <path id="m152c1c2933" d="M 0 0 
L 0 2 
" style="stroke: #000000; stroke-width: 0.6"/>
      </defs>
      <g>
       <use xlink:href="#m152c1c2933" x="68.159959" y="339.84" style="stroke: #000000; stroke-width: 0.6"/>
      </g>
     </g>
    </g>
    <g id="xtick_4">
     <g id="line2d_6">
      <g>
       <use xlink:href="#m152c1c2933" x="175.344288" y="339.84" style="stroke: #000000; stroke-width: 0.6"/>
      </g>
     </g>
    </g>
    <g id="xtick_5">
     <g id="line2d_7">
      <g>
       <use xlink:href="#m152c1c2933" x="229.770195" y="339.84" style="stroke: #000000; stroke-width: 0.6"/>
      </g>
     </g>
    </g>
    <g id="xtick_6">
     <g id="line2d_8">
      <g>
       <use xlink:href="#m152c1c2933" x="268.38599" y="339.84" style="stroke: #000000; stroke-width: 0.6"/>
      </g>
     </g>
    </g>
    <g id="xtick_7">
     <g id="line2d_9">
      <g>
       <use xlink:href="#m152c1c2933" x="298.338728" y="339.84" style="stroke: #000000; stroke-width: 0.6"/>
      </g>
     </g>
    </g>
    <g id="xtick_8">
     <g id="line2d_10">
      <g>
       <use xlink:href="#m152c1c2933" x="322.811897" y="339.84" style="stroke: #000000; stroke-width: 0.6"/>
      </g>
     </g>
    </g>
    <g id="xtick_9">
     <g id="line2d_11">
      <g>
       <use xlink:href="#m152c1c2933" x="343.503666" y="339.84" style="stroke: #000000; stroke-width: 0.6"/>
      </g>
     </g>
    </g>
    <g id="xtick_10">
     <g id="line2d_12">
      <g>
       <use xlink:href="#m152c1c2933" x="361.427692" y="339.84" style="stroke: #000000; stroke-width: 0.6"/>
      </g>
     </g>
    </g>
    <g id="xtick_11">
     <g id="line2d_13">
      <g>
       <use xlink:href="#m152c1c2933" x="377.237804" y="339.84" style="stroke: #000000; stroke-width: 0.6"/>
      </g>
     </g>
    </g>
    <g id="xtick_12">
     <g id="line2d_14">
      <g>
       <use xlink:href="#m152c1c2933" x="484.422133" y="339.84" style="stroke: #000000; stroke-width: 0.6"/>
      </g>
     </g>
    </g>
    <g id="xtick_13">
     <g id="line2d_15">
      <g>
       <use xlink:href="#m152c1c2933" x="538.84804" y="339.84" style="stroke: #000000; stroke-width: 0.6"/>
      </g>
     </g>
    </g>
    <g id="text_3">
     <!-- Decision Round -->
     <g transform="translate(240.922344 379.034375) scale(0.18 -0.18)">
      <defs>
       <path id="DejaVuSans-44" d="M 1259 4147 
L 1259 519 
L 2022 519 
Q 2988 519 3436 956 
Q 3884 1394 3884 2338 
Q 3884 3275 3436 3711 
Q 2988 4147 2022 4147 
L 1259 4147 
z
M 628 4666 
L 1925 4666 
Q 3281 4666 3915 4102 
Q 4550 3538 4550 2338 
Q 4550 1131 3912 565 
Q 3275 0 1925 0 
L 628 0 
L 628 4666 
z
" transform="scale(0.015625)"/>
       <path id="DejaVuSans-65" d="M 3597 1894 
L 3597 1613 
L 953 1613 
Q 991 1019 1311 708 
Q 1631 397 2203 397 
Q 2534 397 2845 478 
Q 3156 559 3463 722 
L 3463 178 
Q 3153 47 2828 -22 
Q 2503 -91 2169 -91 
Q 1331 -91 842 396 
Q 353 884 353 1716 
Q 353 2575 817 3079 
Q 1281 3584 2069 3584 
Q 2775 3584 3186 3129 
Q 3597 2675 3597 1894 
z
M 3022 2063 
Q 3016 2534 2758 2815 
Q 2500 3097 2075 3097 
Q 1594 3097 1305 2825 
Q 1016 2553 972 2059 
L 3022 2063 
z
" transform="scale(0.015625)"/>
       <path id="DejaVuSans-63" d="M 3122 3366 
L 3122 2828 
Q 2878 2963 2633 3030 
Q 2388 3097 2138 3097 
Q 1578 3097 1268 2742 
Q 959 2388 959 1747 
Q 959 1106 1268 751 
Q 1578 397 2138 397 
Q 2388 397 2633 464 
Q 2878 531 3122 666 
L 3122 134 
Q 2881 22 2623 -34 
Q 2366 -91 2075 -91 
Q 1284 -91 818 406 
Q 353 903 353 1747 
Q 353 2603 823 3093 
Q 1294 3584 2113 3584 
Q 2378 3584 2631 3529 
Q 2884 3475 3122 3366 
z
" transform="scale(0.015625)"/>
       <path id="DejaVuSans-69" d="M 603 3500 
L 1178 3500 
L 1178 0 
L 603 0 
L 603 3500 
z
M 603 4863 
L 1178 4863 
L 1178 4134 
L 603 4134 
L 603 4863 
z
" transform="scale(0.015625)"/>
       <path id="DejaVuSans-73" d="M 2834 3397 
L 2834 2853 
Q 2591 2978 2328 3040 
Q 2066 3103 1784 3103 
Q 1356 3103 1142 2972 
Q 928 2841 928 2578 
Q 928 2378 1081 2264 
Q 1234 2150 1697 2047 
L 1894 2003 
Q 2506 1872 2764 1633 
Q 3022 1394 3022 966 
Q 3022 478 2636 193 
Q 2250 -91 1575 -91 
Q 1294 -91 989 -36 
Q 684 19 347 128 
L 347 722 
Q 666 556 975 473 
Q 1284 391 1588 391 
Q 1994 391 2212 530 
Q 2431 669 2431 922 
Q 2431 1156 2273 1281 
Q 2116 1406 1581 1522 
L 1381 1569 
Q 847 1681 609 1914 
Q 372 2147 372 2553 
Q 372 3047 722 3315 
Q 1072 3584 1716 3584 
Q 2034 3584 2315 3537 
Q 2597 3491 2834 3397 
z
" transform="scale(0.015625)"/>
       <path id="DejaVuSans-6f" d="M 1959 3097 
Q 1497 3097 1228 2736 
Q 959 2375 959 1747 
Q 959 1119 1226 758 
Q 1494 397 1959 397 
Q 2419 397 2687 759 
Q 2956 1122 2956 1747 
Q 2956 2369 2687 2733 
Q 2419 3097 1959 3097 
z
M 1959 3584 
Q 2709 3584 3137 3096 
Q 3566 2609 3566 1747 
Q 3566 888 3137 398 
Q 2709 -91 1959 -91 
Q 1206 -91 779 398 
Q 353 888 353 1747 
Q 353 2609 779 3096 
Q 1206 3584 1959 3584 
z
" transform="scale(0.015625)"/>
       <path id="DejaVuSans-6e" d="M 3513 2113 
L 3513 0 
L 2938 0 
L 2938 2094 
Q 2938 2591 2744 2837 
Q 2550 3084 2163 3084 
Q 1697 3084 1428 2787 
Q 1159 2491 1159 1978 
L 1159 0 
L 581 0 
L 581 3500 
L 1159 3500 
L 1159 2956 
Q 1366 3272 1645 3428 
Q 1925 3584 2291 3584 
Q 2894 3584 3203 3211 
Q 3513 2838 3513 2113 
z
" transform="scale(0.015625)"/>
       <path id="DejaVuSans-20" transform="scale(0.015625)"/>
       <path id="DejaVuSans-52" d="M 2841 2188 
Q 3044 2119 3236 1894 
Q 3428 1669 3622 1275 
L 4263 0 
L 3584 0 
L 2988 1197 
Q 2756 1666 2539 1819 
Q 2322 1972 1947 1972 
L 1259 1972 
L 1259 0 
L 628 0 
L 628 4666 
L 2053 4666 
Q 2853 4666 3247 4331 
Q 3641 3997 3641 3322 
Q 3641 2881 3436 2590 
Q 3231 2300 2841 2188 
z
M 1259 4147 
L 1259 2491 
L 2053 2491 
Q 2509 2491 2742 2702 
Q 2975 2913 2975 3322 
Q 2975 3731 2742 3939 
Q 2509 4147 2053 4147 
L 1259 4147 
z
" transform="scale(0.015625)"/>
       <path id="DejaVuSans-75" d="M 544 1381 
L 544 3500 
L 1119 3500 
L 1119 1403 
Q 1119 906 1312 657 
Q 1506 409 1894 409 
Q 2359 409 2629 706 
Q 2900 1003 2900 1516 
L 2900 3500 
L 3475 3500 
L 3475 0 
L 2900 0 
L 2900 538 
Q 2691 219 2414 64 
Q 2138 -91 1772 -91 
Q 1169 -91 856 284 
Q 544 659 544 1381 
z
M 1991 3584 
L 1991 3584 
z
" transform="scale(0.015625)"/>
       <path id="DejaVuSans-64" d="M 2906 2969 
L 2906 4863 
L 3481 4863 
L 3481 0 
L 2906 0 
L 2906 525 
Q 2725 213 2448 61 
Q 2172 -91 1784 -91 
Q 1150 -91 751 415 
Q 353 922 353 1747 
Q 353 2572 751 3078 
Q 1150 3584 1784 3584 
Q 2172 3584 2448 3432 
Q 2725 3281 2906 2969 
z
M 947 1747 
Q 947 1113 1208 752 
Q 1469 391 1925 391 
Q 2381 391 2643 752 
Q 2906 1113 2906 1747 
Q 2906 2381 2643 2742 
Q 2381 3103 1925 3103 
Q 1469 3103 1208 2742 
Q 947 2381 947 1747 
z
" transform="scale(0.015625)"/>
      </defs>
      <use xlink:href="#DejaVuSans-44"/>
      <use xlink:href="#DejaVuSans-65" x="77.001953"/>
      <use xlink:href="#DejaVuSans-63" x="138.525391"/>
      <use xlink:href="#DejaVuSans-69" x="193.505859"/>
      <use xlink:href="#DejaVuSans-73" x="221.289062"/>
      <use xlink:href="#DejaVuSans-69" x="273.388672"/>
      <use xlink:href="#DejaVuSans-6f" x="301.171875"/>
      <use xlink:href="#DejaVuSans-6e" x="362.353516"/>
      <use xlink:href="#DejaVuSans-20" x="425.732422"/>
      <use xlink:href="#DejaVuSans-52" x="457.519531"/>
      <use xlink:href="#DejaVuSans-6f" x="522.501953"/>
      <use xlink:href="#DejaVuSans-75" x="583.683594"/>
      <use xlink:href="#DejaVuSans-6e" x="647.0625"/>
      <use xlink:href="#DejaVuSans-64" x="710.441406"/>
     </g>
    </g>
   </g>
   <g id="matplotlib.axis_2">
    <g id="ytick_1">
     <g id="line2d_16">
      <path d="M 59.475313 313.511499 
L 561.675313 313.511499 
" clip-path="url(#p6e909905c2)" style="fill: none; stroke-dasharray: 1.85,0.8; stroke-dashoffset: 0; stroke: #b0b0b0; stroke-width: 0.5"/>
     </g>
     <g id="line2d_17">
      <defs>
       <path id="m0339de8996" d="M 0 0 
L -3.5 0 
" style="stroke: #000000; stroke-width: 0.8"/>
      </defs>
      <g>
       <use xlink:href="#m0339de8996" x="59.475313" y="313.511499" style="stroke: #000000; stroke-width: 0.8"/>
      </g>
     </g>
     <g id="text_4">
      <!-- 0.5 -->
      <g transform="translate(28.620625 319.210327) scale(0.15 -0.15)">
       <defs>
        <path id="DejaVuSans-2e" d="M 684 794 
L 1344 794 
L 1344 0 
L 684 0 
L 684 794 
z
" transform="scale(0.015625)"/>
        <path id="DejaVuSans-35" d="M 691 4666 
L 3169 4666 
L 3169 4134 
L 1269 4134 
L 1269 2991 
Q 1406 3038 1543 3061 
Q 1681 3084 1819 3084 
Q 2600 3084 3056 2656 
Q 3513 2228 3513 1497 
Q 3513 744 3044 326 
Q 2575 -91 1722 -91 
Q 1428 -91 1123 -41 
Q 819 9 494 109 
L 494 744 
Q 775 591 1075 516 
Q 1375 441 1709 441 
Q 2250 441 2565 725 
Q 2881 1009 2881 1497 
Q 2881 1984 2565 2268 
Q 2250 2553 1709 2553 
Q 1456 2553 1204 2497 
Q 953 2441 691 2322 
L 691 4666 
z
" transform="scale(0.015625)"/>
       </defs>
       <use xlink:href="#DejaVuSans-30"/>
       <use xlink:href="#DejaVuSans-2e" x="63.623047"/>
       <use xlink:href="#DejaVuSans-35" x="95.410156"/>
      </g>
     </g>
    </g>
    <g id="ytick_2">
     <g id="line2d_18">
      <path d="M 59.475313 257.160319 
L 561.675313 257.160319 
" clip-path="url(#p6e909905c2)" style="fill: none; stroke-dasharray: 1.85,0.8; stroke-dashoffset: 0; stroke: #b0b0b0; stroke-width: 0.5"/>
     </g>
     <g id="line2d_19">
      <g>
       <use xlink:href="#m0339de8996" x="59.475313" y="257.160319" style="stroke: #000000; stroke-width: 0.8"/>
      </g>
     </g>
     <g id="text_5">
      <!-- 0.6 -->
      <g transform="translate(28.620625 262.859147) scale(0.15 -0.15)">
       <defs>
        <path id="DejaVuSans-36" d="M 2113 2584 
Q 1688 2584 1439 2293 
Q 1191 2003 1191 1497 
Q 1191 994 1439 701 
Q 1688 409 2113 409 
Q 2538 409 2786 701 
Q 3034 994 3034 1497 
Q 3034 2003 2786 2293 
Q 2538 2584 2113 2584 
z
M 3366 4563 
L 3366 3988 
Q 3128 4100 2886 4159 
Q 2644 4219 2406 4219 
Q 1781 4219 1451 3797 
Q 1122 3375 1075 2522 
Q 1259 2794 1537 2939 
Q 1816 3084 2150 3084 
Q 2853 3084 3261 2657 
Q 3669 2231 3669 1497 
Q 3669 778 3244 343 
Q 2819 -91 2113 -91 
Q 1303 -91 875 529 
Q 447 1150 447 2328 
Q 447 3434 972 4092 
Q 1497 4750 2381 4750 
Q 2619 4750 2861 4703 
Q 3103 4656 3366 4563 
z
" transform="scale(0.015625)"/>
       </defs>
       <use xlink:href="#DejaVuSans-30"/>
       <use xlink:href="#DejaVuSans-2e" x="63.623047"/>
       <use xlink:href="#DejaVuSans-36" x="95.410156"/>
      </g>
     </g>
    </g>
    <g id="ytick_3">
     <g id="line2d_20">
      <path d="M 59.475313 200.809139 
L 561.675313 200.809139 
" clip-path="url(#p6e909905c2)" style="fill: none; stroke-dasharray: 1.85,0.8; stroke-dashoffset: 0; stroke: #b0b0b0; stroke-width: 0.5"/>
     </g>
     <g id="line2d_21">
      <g>
       <use xlink:href="#m0339de8996" x="59.475313" y="200.809139" style="stroke: #000000; stroke-width: 0.8"/>
      </g>
     </g>
     <g id="text_6">
      <!-- 0.7 -->
      <g transform="translate(28.620625 206.507967) scale(0.15 -0.15)">
       <defs>
        <path id="DejaVuSans-37" d="M 525 4666 
L 3525 4666 
L 3525 4397 
L 1831 0 
L 1172 0 
L 2766 4134 
L 525 4134 
L 525 4666 
z
" transform="scale(0.015625)"/>
       </defs>
       <use xlink:href="#DejaVuSans-30"/>
       <use xlink:href="#DejaVuSans-2e" x="63.623047"/>
       <use xlink:href="#DejaVuSans-37" x="95.410156"/>
      </g>
     </g>
    </g>
    <g id="ytick_4">
     <g id="line2d_22">
      <path d="M 59.475313 144.457959 
L 561.675313 144.457959 
" clip-path="url(#p6e909905c2)" style="fill: none; stroke-dasharray: 1.85,0.8; stroke-dashoffset: 0; stroke: #b0b0b0; stroke-width: 0.5"/>
     </g>
     <g id="line2d_23">
      <g>
       <use xlink:href="#m0339de8996" x="59.475313" y="144.457959" style="stroke: #000000; stroke-width: 0.8"/>
      </g>
     </g>
     <g id="text_7">
      <!-- 0.8 -->
      <g transform="translate(28.620625 150.156787) scale(0.15 -0.15)">
       <defs>
        <path id="DejaVuSans-38" d="M 2034 2216 
Q 1584 2216 1326 1975 
Q 1069 1734 1069 1313 
Q 1069 891 1326 650 
Q 1584 409 2034 409 
Q 2484 409 2743 651 
Q 3003 894 3003 1313 
Q 3003 1734 2745 1975 
Q 2488 2216 2034 2216 
z
M 1403 2484 
Q 997 2584 770 2862 
Q 544 3141 544 3541 
Q 544 4100 942 4425 
Q 1341 4750 2034 4750 
Q 2731 4750 3128 4425 
Q 3525 4100 3525 3541 
Q 3525 3141 3298 2862 
Q 3072 2584 2669 2484 
Q 3125 2378 3379 2068 
Q 3634 1759 3634 1313 
Q 3634 634 3220 271 
Q 2806 -91 2034 -91 
Q 1263 -91 848 271 
Q 434 634 434 1313 
Q 434 1759 690 2068 
Q 947 2378 1403 2484 
z
M 1172 3481 
Q 1172 3119 1398 2916 
Q 1625 2713 2034 2713 
Q 2441 2713 2670 2916 
Q 2900 3119 2900 3481 
Q 2900 3844 2670 4047 
Q 2441 4250 2034 4250 
Q 1625 4250 1398 4047 
Q 1172 3844 1172 3481 
z
" transform="scale(0.015625)"/>
       </defs>
       <use xlink:href="#DejaVuSans-30"/>
       <use xlink:href="#DejaVuSans-2e" x="63.623047"/>
       <use xlink:href="#DejaVuSans-38" x="95.410156"/>
      </g>
     </g>
    </g>
    <g id="ytick_5">
     <g id="line2d_24">
      <path d="M 59.475313 88.106779 
L 561.675313 88.106779 
" clip-path="url(#p6e909905c2)" style="fill: none; stroke-dasharray: 1.85,0.8; stroke-dashoffset: 0; stroke: #b0b0b0; stroke-width: 0.5"/>
     </g>
     <g id="line2d_25">
      <g>
       <use xlink:href="#m0339de8996" x="59.475313" y="88.106779" style="stroke: #000000; stroke-width: 0.8"/>
      </g>
     </g>
     <g id="text_8">
      <!-- 0.9 -->
      <g transform="translate(28.620625 93.805608) scale(0.15 -0.15)">
       <defs>
        <path id="DejaVuSans-39" d="M 703 97 
L 703 672 
Q 941 559 1184 500 
Q 1428 441 1663 441 
Q 2288 441 2617 861 
Q 2947 1281 2994 2138 
Q 2813 1869 2534 1725 
Q 2256 1581 1919 1581 
Q 1219 1581 811 2004 
Q 403 2428 403 3163 
Q 403 3881 828 4315 
Q 1253 4750 1959 4750 
Q 2769 4750 3195 4129 
Q 3622 3509 3622 2328 
Q 3622 1225 3098 567 
Q 2575 -91 1691 -91 
Q 1453 -91 1209 -44 
Q 966 3 703 97 
z
M 1959 2075 
Q 2384 2075 2632 2365 
Q 2881 2656 2881 3163 
Q 2881 3666 2632 3958 
Q 2384 4250 1959 4250 
Q 1534 4250 1286 3958 
Q 1038 3666 1038 3163 
Q 1038 2656 1286 2365 
Q 1534 2075 1959 2075 
z
" transform="scale(0.015625)"/>
       </defs>
       <use xlink:href="#DejaVuSans-30"/>
       <use xlink:href="#DejaVuSans-2e" x="63.623047"/>
       <use xlink:href="#DejaVuSans-39" x="95.410156"/>
      </g>
     </g>
    </g>
    <g id="ytick_6">
     <g id="line2d_26">
      <path d="M 59.475313 31.7556 
L 561.675313 31.7556 
" clip-path="url(#p6e909905c2)" style="fill: none; stroke-dasharray: 1.85,0.8; stroke-dashoffset: 0; stroke: #b0b0b0; stroke-width: 0.5"/>
     </g>
     <g id="line2d_27">
      <g>
       <use xlink:href="#m0339de8996" x="59.475313" y="31.7556" style="stroke: #000000; stroke-width: 0.8"/>
      </g>
     </g>
     <g id="text_9">
      <!-- 1.0 -->
      <g transform="translate(28.620625 37.454428) scale(0.15 -0.15)">
       <use xlink:href="#DejaVuSans-31"/>
       <use xlink:href="#DejaVuSans-2e" x="63.623047"/>
       <use xlink:href="#DejaVuSans-30" x="95.410156"/>
      </g>
     </g>
    </g>
    <g id="text_10">
     <!-- Normalized Performance -->
     <g transform="translate(20.877187 284.447813) rotate(-90) scale(0.18 -0.18)">
      <defs>
       <path id="DejaVuSans-4e" d="M 628 4666 
L 1478 4666 
L 3547 763 
L 3547 4666 
L 4159 4666 
L 4159 0 
L 3309 0 
L 1241 3903 
L 1241 0 
L 628 0 
L 628 4666 
z
" transform="scale(0.015625)"/>
       <path id="DejaVuSans-72" d="M 2631 2963 
Q 2534 3019 2420 3045 
Q 2306 3072 2169 3072 
Q 1681 3072 1420 2755 
Q 1159 2438 1159 1844 
L 1159 0 
L 581 0 
L 581 3500 
L 1159 3500 
L 1159 2956 
Q 1341 3275 1631 3429 
Q 1922 3584 2338 3584 
Q 2397 3584 2469 3576 
Q 2541 3569 2628 3553 
L 2631 2963 
z
" transform="scale(0.015625)"/>
       <path id="DejaVuSans-6d" d="M 3328 2828 
Q 3544 3216 3844 3400 
Q 4144 3584 4550 3584 
Q 5097 3584 5394 3201 
Q 5691 2819 5691 2113 
L 5691 0 
L 5113 0 
L 5113 2094 
Q 5113 2597 4934 2840 
Q 4756 3084 4391 3084 
Q 3944 3084 3684 2787 
Q 3425 2491 3425 1978 
L 3425 0 
L 2847 0 
L 2847 2094 
Q 2847 2600 2669 2842 
Q 2491 3084 2119 3084 
Q 1678 3084 1418 2786 
Q 1159 2488 1159 1978 
L 1159 0 
L 581 0 
L 581 3500 
L 1159 3500 
L 1159 2956 
Q 1356 3278 1631 3431 
Q 1906 3584 2284 3584 
Q 2666 3584 2933 3390 
Q 3200 3197 3328 2828 
z
" transform="scale(0.015625)"/>
       <path id="DejaVuSans-61" d="M 2194 1759 
Q 1497 1759 1228 1600 
Q 959 1441 959 1056 
Q 959 750 1161 570 
Q 1363 391 1709 391 
Q 2188 391 2477 730 
Q 2766 1069 2766 1631 
L 2766 1759 
L 2194 1759 
z
M 3341 1997 
L 3341 0 
L 2766 0 
L 2766 531 
Q 2569 213 2275 61 
Q 1981 -91 1556 -91 
Q 1019 -91 701 211 
Q 384 513 384 1019 
Q 384 1609 779 1909 
Q 1175 2209 1959 2209 
L 2766 2209 
L 2766 2266 
Q 2766 2663 2505 2880 
Q 2244 3097 1772 3097 
Q 1472 3097 1187 3025 
Q 903 2953 641 2809 
L 641 3341 
Q 956 3463 1253 3523 
Q 1550 3584 1831 3584 
Q 2591 3584 2966 3190 
Q 3341 2797 3341 1997 
z
" transform="scale(0.015625)"/>
       <path id="DejaVuSans-6c" d="M 603 4863 
L 1178 4863 
L 1178 0 
L 603 0 
L 603 4863 
z
" transform="scale(0.015625)"/>
       <path id="DejaVuSans-7a" d="M 353 3500 
L 3084 3500 
L 3084 2975 
L 922 459 
L 3084 459 
L 3084 0 
L 275 0 
L 275 525 
L 2438 3041 
L 353 3041 
L 353 3500 
z
" transform="scale(0.015625)"/>
       <path id="DejaVuSans-50" d="M 1259 4147 
L 1259 2394 
L 2053 2394 
Q 2494 2394 2734 2622 
Q 2975 2850 2975 3272 
Q 2975 3691 2734 3919 
Q 2494 4147 2053 4147 
L 1259 4147 
z
M 628 4666 
L 2053 4666 
Q 2838 4666 3239 4311 
Q 3641 3956 3641 3272 
Q 3641 2581 3239 2228 
Q 2838 1875 2053 1875 
L 1259 1875 
L 1259 0 
L 628 0 
L 628 4666 
z
" transform="scale(0.015625)"/>
       <path id="DejaVuSans-66" d="M 2375 4863 
L 2375 4384 
L 1825 4384 
Q 1516 4384 1395 4259 
Q 1275 4134 1275 3809 
L 1275 3500 
L 2222 3500 
L 2222 3053 
L 1275 3053 
L 1275 0 
L 697 0 
L 697 3053 
L 147 3053 
L 147 3500 
L 697 3500 
L 697 3744 
Q 697 4328 969 4595 
Q 1241 4863 1831 4863 
L 2375 4863 
z
" transform="scale(0.015625)"/>
      </defs>
      <use xlink:href="#DejaVuSans-4e"/>
      <use xlink:href="#DejaVuSans-6f" x="74.804688"/>
      <use xlink:href="#DejaVuSans-72" x="135.986328"/>
      <use xlink:href="#DejaVuSans-6d" x="175.349609"/>
      <use xlink:href="#DejaVuSans-61" x="272.761719"/>
      <use xlink:href="#DejaVuSans-6c" x="334.041016"/>
      <use xlink:href="#DejaVuSans-69" x="361.824219"/>
      <use xlink:href="#DejaVuSans-7a" x="389.607422"/>
      <use xlink:href="#DejaVuSans-65" x="442.097656"/>
      <use xlink:href="#DejaVuSans-64" x="503.621094"/>
      <use xlink:href="#DejaVuSans-20" x="567.097656"/>
      <use xlink:href="#DejaVuSans-50" x="598.884766"/>
      <use xlink:href="#DejaVuSans-65" x="655.5625"/>
      <use xlink:href="#DejaVuSans-72" x="717.085938"/>
      <use xlink:href="#DejaVuSans-66" x="758.199219"/>
      <use xlink:href="#DejaVuSans-6f" x="793.404297"/>
      <use xlink:href="#DejaVuSans-72" x="854.585938"/>
      <use xlink:href="#DejaVuSans-6d" x="893.949219"/>
      <use xlink:href="#DejaVuSans-61" x="991.361328"/>
      <use xlink:href="#DejaVuSans-6e" x="1052.640625"/>
      <use xlink:href="#DejaVuSans-63" x="1116.019531"/>
      <use xlink:href="#DejaVuSans-65" x="1171"/>
     </g>
    </g>
   </g>
   <g id="line2d_28">
    <path d="M 82.302585 68.625384 
L 175.344288 68.625384 
L 229.770195 68.625384 
L 268.38599 68.625384 
L 298.338728 68.625384 
L 322.811897 68.625384 
L 343.503666 68.625384 
L 361.427692 68.625384 
L 377.237804 68.625384 
L 391.38043 68.625384 
L 404.173992 68.625384 
L 415.853599 68.625384 
L 426.597796 68.625384 
L 436.545369 68.625384 
L 445.806337 68.625384 
L 454.469395 68.625384 
L 462.607087 68.625384 
L 470.279506 68.625384 
L 477.536993 68.625384 
L 484.422133 68.625384 
L 490.971276 68.625384 
L 497.215695 68.625384 
L 503.182491 68.625384 
L 508.895302 68.625384 
L 514.374871 68.625384 
L 519.639499 68.625384 
L 524.705413 68.625384 
L 529.587071 68.625384 
L 534.297407 68.625384 
L 538.84804 68.625384 
" clip-path="url(#p6e909905c2)" style="fill: none; stroke-dasharray: 11.1,4.8; stroke-dashoffset: 0; stroke: #fdc086; stroke-width: 3"/>
   </g>
   <g id="line2d_29">
    <path d="M 82.302585 208.680514 
L 175.344288 124.661568 
L 229.770195 65.394949 
L 268.38599 44.416573 
L 298.338728 44.416573 
L 322.811897 44.416573 
L 343.503666 42.246339 
L 361.427692 32.18823 
L 377.237804 32.18823 
L 391.38043 32.18823 
L 404.173992 32.18823 
L 415.853599 32.18823 
L 426.597796 32.18823 
L 436.545369 32.18823 
L 445.806337 32.18823 
L 454.469395 32.18823 
L 462.607087 32.18823 
L 470.279506 32.18823 
L 477.536993 32.18823 
L 484.422133 32.18823 
L 490.971276 32.18823 
L 497.215695 32.18823 
L 503.182491 32.18823 
L 508.895302 32.18823 
L 514.374871 32.18823 
L 519.639499 32.18823 
L 524.705413 32.18823 
L 529.587071 32.18823 
L 534.297407 32.18823 
L 538.84804 32.18823 
" clip-path="url(#p6e909905c2)" style="fill: none; stroke-dasharray: 11.1,4.8; stroke-dashoffset: 0; stroke: #beaed4; stroke-width: 3"/>
   </g>
   <g id="line2d_30">
    <path d="M 82.302585 171.012841 
L 175.344288 105.51876 
L 229.770195 77.903386 
L 268.38599 63.103949 
L 298.338728 56.723522 
L 322.811897 51.392389 
L 343.503666 47.423449 
L 361.427692 45.122899 
L 377.237804 43.279702 
L 391.38043 41.507757 
L 404.173992 40.132577 
L 415.853599 39.604335 
L 426.597796 38.809085 
L 436.545369 37.897143 
L 445.806337 37.484728 
L 454.469395 36.952472 
L 462.607087 36.519147 
L 470.279506 36.114467 
L 477.536993 35.86797 
L 484.422133 35.617764 
L 490.971276 35.231136 
L 497.215695 34.994869 
L 503.182491 34.750227 
L 508.895302 34.566543 
L 514.374871 34.439193 
L 519.639499 34.334246 
L 524.705413 34.261915 
L 529.587071 34.155566 
L 534.297407 34.07672 
L 538.84804 33.952577 
" clip-path="url(#p6e909905c2)" style="fill: none; stroke: #7fc97f; stroke-width: 3; stroke-linecap: square"/>
   </g>
   <g id="line2d_31">
    <path d="M 82.302585 196.005058 
L 175.344288 106.420091 
L 229.770195 72.196581 
L 268.38599 57.86097 
L 298.338728 49.00966 
L 322.811897 44.901466 
L 343.503666 41.513947 
L 361.427692 39.549868 
L 377.237804 38.454192 
L 391.38043 37.39802 
L 404.173992 36.870448 
L 415.853599 36.304866 
L 426.597796 35.873527 
L 436.545369 35.606782 
L 445.806337 35.296398 
L 454.469395 35.031921 
L 462.607087 34.716995 
L 470.279506 34.514937 
L 477.536993 34.254273 
L 484.422133 34.134895 
L 490.971276 34.001829 
L 497.215695 33.866238 
L 503.182491 33.73564 
L 508.895302 33.636334 
L 514.374871 33.556631 
L 519.639499 33.470282 
L 524.705413 33.414543 
L 529.587071 33.35289 
L 534.297407 33.298887 
L 538.84804 33.221199 
" clip-path="url(#p6e909905c2)" style="fill: none; stroke: #bf5b17; stroke-width: 3; stroke-linecap: square"/>
   </g>
   <g id="line2d_32">
    <path d="M 82.302585 196.005058 
L 175.344288 95.694588 
L 229.770195 49.051684 
L 268.38599 43.425712 
L 298.338728 40.550373 
L 322.811897 39.675554 
L 343.503666 39.322596 
L 361.427692 38.945366 
L 377.237804 38.603024 
L 391.38043 38.062409 
L 404.173992 37.724329 
L 415.853599 37.617643 
L 426.597796 37.140178 
L 436.545369 36.614752 
L 445.806337 36.040353 
L 454.469395 36.002513 
L 462.607087 35.701602 
L 470.279506 35.694282 
L 477.536993 35.575933 
L 484.422133 35.554244 
L 490.971276 35.004104 
L 497.215695 34.975263 
L 503.182491 34.911386 
L 508.895302 34.650995 
L 514.374871 34.580381 
L 519.639499 33.729281 
L 524.705413 33.723355 
L 529.587071 33.694434 
L 534.297407 33.654023 
L 538.84804 33.654023 
" clip-path="url(#p6e909905c2)" style="fill: none; stroke: #f0027f; stroke-width: 3; stroke-linecap: square"/>
   </g>
   <g id="line2d_33">
    <path d="M 82.302585 196.005058 
L 175.344288 95.694588 
L 229.770195 49.051684 
L 268.38599 43.425712 
L 298.338728 40.550373 
L 322.811897 39.675554 
L 343.503666 39.317012 
L 361.427692 38.935975 
L 377.237804 38.585264 
L 391.38043 38.023153 
L 404.173992 37.634466 
L 415.853599 37.50996 
L 426.597796 37.061031 
L 436.545369 36.52646 
L 445.806337 35.980362 
L 454.469395 35.900892 
L 462.607087 35.615262 
L 470.279506 35.569692 
L 477.536993 35.454678 
L 484.422133 35.433029 
L 490.971276 34.928823 
L 497.215695 34.893106 
L 503.182491 34.830763 
L 508.895302 34.598925 
L 514.374871 34.524784 
L 519.639499 33.881931 
L 524.705413 33.789388 
L 529.587071 33.751674 
L 534.297407 33.706047 
L 538.84804 33.696528 
" clip-path="url(#p6e909905c2)" style="fill: none; stroke: #386cb0; stroke-width: 3; stroke-linecap: square"/>
   </g>
   <g id="line2d_34">
    <path d="M 82.302585 60.960094 
L 175.344288 43.781185 
L 229.770195 37.13467 
L 268.38599 34.994084 
L 298.338728 34.196556 
L 322.811897 33.62972 
L 343.503666 33.292581 
L 361.427692 33.146691 
L 377.237804 32.998773 
L 391.38043 32.966045 
L 404.173992 32.918891 
L 415.853599 32.866526 
L 426.597796 32.744704 
L 436.545369 32.740686 
L 445.806337 32.709865 
L 454.469395 32.60005 
L 462.607087 32.524896 
L 470.279506 32.425857 
L 477.536993 32.356913 
L 484.422133 32.356376 
L 490.971276 32.306153 
L 497.215695 32.234494 
L 503.182491 32.224825 
L 508.895302 32.150849 
L 514.374871 32.120282 
L 519.639499 32.059947 
L 524.705413 32.049363 
L 529.587071 32.039232 
L 534.297407 31.981333 
L 538.84804 31.980222 
" clip-path="url(#p6e909905c2)" style="fill: none; stroke-dasharray: 11.1,4.8; stroke-dashoffset: 0; stroke: #666666; stroke-width: 3"/>
   </g>
   <g id="line2d_35">
    <path d="M 82.302585 60.960094 
L 175.344288 41.767116 
L 229.770195 36.705551 
L 268.38599 34.46935 
L 298.338728 33.227945 
L 322.811897 32.692009 
L 343.503666 32.389636 
L 361.427692 32.173669 
L 377.237804 32.055054 
L 391.38043 31.976106 
L 404.173992 31.920839 
L 415.853599 31.878859 
L 426.597796 31.845504 
L 436.545369 31.823533 
L 445.806337 31.807474 
L 454.469395 31.795837 
L 462.607087 31.786282 
L 470.279506 31.778773 
L 477.536993 31.772969 
L 484.422133 31.768988 
L 490.971276 31.766417 
L 497.215695 31.764634 
L 503.182491 31.763267 
L 508.895302 31.762103 
L 514.374871 31.761021 
L 519.639499 31.760182 
L 524.705413 31.759542 
L 529.587071 31.759037 
L 534.297407 31.758574 
L 538.84804 31.758156 
" clip-path="url(#p6e909905c2)" style="fill: none; stroke-dasharray: 11.1,4.8; stroke-dashoffset: 0; stroke: #ffff99; stroke-width: 3"/>
   </g>
   <g id="patch_3">
    <path d="M 59.475313 339.84 
L 59.475313 7.2 
" style="fill: none; stroke: #000000; stroke-width: 0.8; stroke-linejoin: miter; stroke-linecap: square"/>
   </g>
   <g id="patch_4">
    <path d="M 561.675313 339.84 
L 561.675313 7.2 
" style="fill: none; stroke: #000000; stroke-width: 0.8; stroke-linejoin: miter; stroke-linecap: square"/>
   </g>
   <g id="patch_5">
    <path d="M 59.475313 339.84 
L 561.675313 339.84 
" style="fill: none; stroke: #000000; stroke-width: 0.8; stroke-linejoin: miter; stroke-linecap: square"/>
   </g>
   <g id="patch_6">
    <path d="M 59.475313 7.2 
L 561.675313 7.2 
" style="fill: none; stroke: #000000; stroke-width: 0.8; stroke-linejoin: miter; stroke-linecap: square"/>
   </g>
  </g>
 </g>
 <defs>
  <clipPath id="p6e909905c2">
   <rect x="59.475313" y="7.2" width="502.2" height="332.64"/>
  </clipPath>
 </defs>
</svg>
