<?xml version="1.0" encoding="utf-8" standalone="no"?>
<!DOCTYPE svg PUBLIC "-//W3C//DTD SVG 1.1//EN"
  "http://www.w3.org/Graphics/SVG/1.1/DTD/svg11.dtd">
<svg xmlns:xlink="http://www.w3.org/1999/xlink" width="741.04625pt" height="559.20125pt" viewBox="0 0 741.04625 559.20125" xmlns="http://www.w3.org/2000/svg" version="1.1">
 <metadata>
  <rdf:RDF xmlns:dc="http://purl.org/dc/elements/1.1/" xmlns:cc="http://creativecommons.org/ns#" xmlns:rdf="http://www.w3.org/1999/02/22-rdf-syntax-ns#">
   <cc:Work>
    <dc:type rdf:resource="http://purl.org/dc/dcmitype/StillImage"/>
    <dc:date>2025-02-27T10:31:00.474230</dc:date>
    <dc:format>image/svg+xml</dc:format>
    <dc:creator>
     <cc:Agent>
      <dc:title>Matplotlib v3.9.4, https://matplotlib.org/</dc:title>
     </cc:Agent>
    </dc:creator>
   </cc:Work>
  </rdf:RDF>
 </metadata>
 <defs>
  <style type="text/css">*{stroke-linejoin: round; stroke-linecap: butt}</style>
 </defs>
 <g id="figure_1">
  <g id="patch_1">
   <path d="M 0 559.20125 
L 741.04625 559.20125 
L 741.04625 0 
L 0 0 
z
" style="fill: #ffffff"/>
  </g>
  <g id="axes_1">
   <g id="patch_2">
    <path d="M 64.24625 506.16 
L 733.84625 506.16 
L 733.84625 7.2 
L 64.24625 7.2 
z
" style="fill: #ffffff"/>
   </g>
   <g id="PolyCollection_1">
    <defs>
     <path id="mc9c1c6de03" d="M 94.682614 -154.603872 
L 94.682614 -147.905467 
L 190.970845 -147.905467 
L 247.295849 -147.905467 
L 287.259076 -147.905467 
L 318.256962 -147.905467 
L 343.58408 -147.905467 
L 364.997853 -147.905467 
L 383.547307 -147.905467 
L 399.909084 -147.905467 
L 414.545193 -147.905467 
L 427.785164 -147.905467 
L 439.872311 -147.905467 
L 450.991408 -147.905467 
L 461.286084 -147.905467 
L 470.870198 -147.905467 
L 479.835538 -147.905467 
L 488.25718 -147.905467 
L 496.197315 -147.905467 
L 503.708039 -147.905467 
L 510.833424 -147.905467 
L 517.611088 -147.905467 
L 524.073395 -147.905467 
L 530.248392 -147.905467 
L 536.160542 -147.905467 
L 541.831311 -147.905467 
L 547.279639 -147.905467 
L 552.52232 -147.905467 
L 557.574315 -147.905467 
L 562.44901 -147.905467 
L 567.158429 -147.905467 
L 571.713412 -147.905467 
L 576.123769 -147.905467 
L 580.3984 -147.905467 
L 584.545411 -147.905467 
L 588.572202 -147.905467 
L 592.485546 -147.905467 
L 596.291663 -147.905467 
L 599.99627 -147.905467 
L 603.604643 -147.905467 
L 607.121655 -147.905467 
L 610.551819 -147.905467 
L 613.899319 -147.905467 
L 617.168048 -147.905467 
L 620.361626 -147.905467 
L 623.483433 -147.905467 
L 626.536623 -147.905467 
L 629.524148 -147.905467 
L 632.448773 -147.905467 
L 635.313092 -147.905467 
L 638.119542 -147.905467 
L 640.870415 -147.905467 
L 643.56787 -147.905467 
L 646.213941 -147.905467 
L 648.810551 -147.905467 
L 651.359513 -147.905467 
L 653.862546 -147.905467 
L 656.321275 -147.905467 
L 658.737241 -147.905467 
L 661.111906 -147.905467 
L 663.44666 -147.905467 
L 665.74282 -147.905467 
L 668.001643 -147.905467 
L 670.224324 -147.905467 
L 672.412 -147.905467 
L 674.565757 -147.905467 
L 676.686631 -147.905467 
L 678.775611 -147.905467 
L 680.833642 -147.905467 
L 682.861628 -147.905467 
L 684.860433 -147.905467 
L 686.830885 -147.905467 
L 688.773777 -147.905467 
L 690.689871 -147.905467 
L 692.579894 -147.905467 
L 694.444547 -147.905467 
L 696.284501 -147.905467 
L 698.100404 -147.905467 
L 699.892874 -147.905467 
L 701.66251 -147.905467 
L 703.409886 -147.905467 
L 703.409886 -154.603872 
L 703.409886 -154.603872 
L 701.66251 -154.603872 
L 699.892874 -154.603872 
L 698.100404 -154.603872 
L 696.284501 -154.603872 
L 694.444547 -154.603872 
L 692.579894 -154.603872 
L 690.689871 -154.603872 
L 688.773777 -154.603872 
L 686.830885 -154.603872 
L 684.860433 -154.603872 
L 682.861628 -154.603872 
L 680.833642 -154.603872 
L 678.775611 -154.603872 
L 676.686631 -154.603872 
L 674.565757 -154.603872 
L 672.412 -154.603872 
L 670.224324 -154.603872 
L 668.001643 -154.603872 
L 665.74282 -154.603872 
L 663.44666 -154.603872 
L 661.111906 -154.603872 
L 658.737241 -154.603872 
L 656.321275 -154.603872 
L 653.862546 -154.603872 
L 651.359513 -154.603872 
L 648.810551 -154.603872 
L 646.213941 -154.603872 
L 643.56787 -154.603872 
L 640.870415 -154.603872 
L 638.119542 -154.603872 
L 635.313092 -154.603872 
L 632.448773 -154.603872 
L 629.524148 -154.603872 
L 626.536623 -154.603872 
L 623.483433 -154.603872 
L 620.361626 -154.603872 
L 617.168048 -154.603872 
L 613.899319 -154.603872 
L 610.551819 -154.603872 
L 607.121655 -154.603872 
L 603.604643 -154.603872 
L 599.99627 -154.603872 
L 596.291663 -154.603872 
L 592.485546 -154.603872 
L 588.572202 -154.603872 
L 584.545411 -154.603872 
L 580.3984 -154.603872 
L 576.123769 -154.603872 
L 571.713412 -154.603872 
L 567.158429 -154.603872 
L 562.44901 -154.603872 
L 557.574315 -154.603872 
L 552.52232 -154.603872 
L 547.279639 -154.603872 
L 541.831311 -154.603872 
L 536.160542 -154.603872 
L 530.248392 -154.603872 
L 524.073395 -154.603872 
L 517.611088 -154.603872 
L 510.833424 -154.603872 
L 503.708039 -154.603872 
L 496.197315 -154.603872 
L 488.25718 -154.603872 
L 479.835538 -154.603872 
L 470.870198 -154.603872 
L 461.286084 -154.603872 
L 450.991408 -154.603872 
L 439.872311 -154.603872 
L 427.785164 -154.603872 
L 414.545193 -154.603872 
L 399.909084 -154.603872 
L 383.547307 -154.603872 
L 364.997853 -154.603872 
L 343.58408 -154.603872 
L 318.256962 -154.603872 
L 287.259076 -154.603872 
L 247.295849 -154.603872 
L 190.970845 -154.603872 
L 94.682614 -154.603872 
z
" style="stroke: #fdc086; stroke-opacity: 0.05"/>
    </defs>
    <g clip-path="url(#p2207dc66f6)">
     <use xlink:href="#mc9c1c6de03" x="0" y="559.20125" style="fill: #fdc086; fill-opacity: 0.05; stroke: #fdc086; stroke-opacity: 0.05"/>
    </g>
   </g>
   <g id="PolyCollection_2">
    <defs>
     <path id="m66fd41dcb4" d="M 94.682614 -372.11901 
L 94.682614 -224.681779 
L 190.970845 -224.681779 
L 247.295849 -224.681779 
L 287.259076 -224.681779 
L 318.256962 -224.681779 
L 343.58408 -224.681779 
L 364.997853 -224.681779 
L 383.547307 -224.681779 
L 399.909084 -224.681779 
L 414.545193 -224.681779 
L 427.785164 -224.681779 
L 439.872311 -224.681779 
L 450.991408 -224.681779 
L 461.286084 -224.681779 
L 470.870198 -224.681779 
L 479.835538 -224.681779 
L 488.25718 -224.681779 
L 496.197315 -224.681779 
L 503.708039 -224.681779 
L 510.833424 -224.681779 
L 517.611088 -224.681779 
L 524.073395 -224.681779 
L 530.248392 -224.681779 
L 536.160542 -224.681779 
L 541.831311 -224.681779 
L 547.279639 -224.681779 
L 552.52232 -224.681779 
L 557.574315 -224.681779 
L 562.44901 -224.681779 
L 567.158429 -224.681779 
L 571.713412 -224.681779 
L 576.123769 -224.681779 
L 580.3984 -224.681779 
L 584.545411 -224.681779 
L 588.572202 -224.681779 
L 592.485546 -224.681779 
L 596.291663 -224.681779 
L 599.99627 -224.681779 
L 603.604643 -224.681779 
L 607.121655 -224.681779 
L 610.551819 -224.681779 
L 613.899319 -224.681779 
L 617.168048 -224.681779 
L 620.361626 -224.681779 
L 623.483433 -224.681779 
L 626.536623 -224.681779 
L 629.524148 -224.681779 
L 632.448773 -224.681779 
L 635.313092 -224.681779 
L 638.119542 -224.681779 
L 640.870415 -224.681779 
L 643.56787 -224.681779 
L 646.213941 -224.681779 
L 648.810551 -224.681779 
L 651.359513 -224.681779 
L 653.862546 -224.681779 
L 656.321275 -224.681779 
L 658.737241 -224.681779 
L 661.111906 -224.681779 
L 663.44666 -224.681779 
L 665.74282 -224.681779 
L 668.001643 -224.681779 
L 670.224324 -224.681779 
L 672.412 -224.681779 
L 674.565757 -224.681779 
L 676.686631 -224.681779 
L 678.775611 -224.681779 
L 680.833642 -224.681779 
L 682.861628 -224.681779 
L 684.860433 -224.681779 
L 686.830885 -224.681779 
L 688.773777 -224.681779 
L 690.689871 -224.681779 
L 692.579894 -224.681779 
L 694.444547 -224.681779 
L 696.284501 -224.681779 
L 698.100404 -224.681779 
L 699.892874 -224.681779 
L 701.66251 -224.681779 
L 703.409886 -224.681779 
L 703.409886 -372.11901 
L 703.409886 -372.11901 
L 701.66251 -372.11901 
L 699.892874 -372.11901 
L 698.100404 -372.11901 
L 696.284501 -372.11901 
L 694.444547 -372.11901 
L 692.579894 -372.11901 
L 690.689871 -372.11901 
L 688.773777 -372.11901 
L 686.830885 -372.11901 
L 684.860433 -372.11901 
L 682.861628 -372.11901 
L 680.833642 -372.11901 
L 678.775611 -372.11901 
L 676.686631 -372.11901 
L 674.565757 -372.11901 
L 672.412 -372.11901 
L 670.224324 -372.11901 
L 668.001643 -372.11901 
L 665.74282 -372.11901 
L 663.44666 -372.11901 
L 661.111906 -372.11901 
L 658.737241 -372.11901 
L 656.321275 -372.11901 
L 653.862546 -372.11901 
L 651.359513 -372.11901 
L 648.810551 -372.11901 
L 646.213941 -372.11901 
L 643.56787 -372.11901 
L 640.870415 -372.11901 
L 638.119542 -372.11901 
L 635.313092 -372.11901 
L 632.448773 -372.11901 
L 629.524148 -372.11901 
L 626.536623 -372.11901 
L 623.483433 -372.11901 
L 620.361626 -372.11901 
L 617.168048 -372.11901 
L 613.899319 -372.11901 
L 610.551819 -372.11901 
L 607.121655 -372.11901 
L 603.604643 -372.11901 
L 599.99627 -372.11901 
L 596.291663 -372.11901 
L 592.485546 -372.11901 
L 588.572202 -372.11901 
L 584.545411 -372.11901 
L 580.3984 -372.11901 
L 576.123769 -372.11901 
L 571.713412 -372.11901 
L 567.158429 -372.11901 
L 562.44901 -372.11901 
L 557.574315 -372.11901 
L 552.52232 -372.11901 
L 547.279639 -372.11901 
L 541.831311 -372.11901 
L 536.160542 -372.11901 
L 530.248392 -372.11901 
L 524.073395 -372.11901 
L 517.611088 -372.11901 
L 510.833424 -372.11901 
L 503.708039 -372.11901 
L 496.197315 -372.11901 
L 488.25718 -372.11901 
L 479.835538 -372.11901 
L 470.870198 -372.11901 
L 461.286084 -372.11901 
L 450.991408 -372.11901 
L 439.872311 -372.11901 
L 427.785164 -372.11901 
L 414.545193 -372.11901 
L 399.909084 -372.11901 
L 383.547307 -372.11901 
L 364.997853 -372.11901 
L 343.58408 -372.11901 
L 318.256962 -372.11901 
L 287.259076 -372.11901 
L 247.295849 -372.11901 
L 190.970845 -372.11901 
L 94.682614 -372.11901 
z
" style="stroke: #beaed4; stroke-opacity: 0.05"/>
    </defs>
    <g clip-path="url(#p2207dc66f6)">
     <use xlink:href="#m66fd41dcb4" x="0" y="559.20125" style="fill: #beaed4; fill-opacity: 0.05; stroke: #beaed4; stroke-opacity: 0.05"/>
    </g>
   </g>
   <g id="PolyCollection_3">
    <defs>
     <path id="md311685ef6" d="M 94.682614 -243.438577 
L 94.682614 -75.72125 
L 190.970845 -124.212433 
L 247.295849 -157.120463 
L 287.259076 -179.104468 
L 318.256962 -197.151234 
L 343.58408 -215.917136 
L 364.997853 -223.529554 
L 383.547307 -235.143833 
L 399.909084 -245.390425 
L 414.545193 -256.018911 
L 427.785164 -260.05158 
L 439.872311 -268.197796 
L 450.991408 -278.515667 
L 461.286084 -284.21172 
L 470.870198 -289.012807 
L 479.835538 -296.907785 
L 488.25718 -298.778296 
L 496.197315 -303.62217 
L 503.708039 -305.508648 
L 510.833424 -309.956941 
L 517.611088 -313.087612 
L 524.073395 -315.395494 
L 530.248392 -319.267314 
L 536.160542 -319.774244 
L 541.831311 -324.502769 
L 547.279639 -328.726127 
L 552.52232 -331.50127 
L 557.574315 -333.250786 
L 562.44901 -334.729418 
L 567.158429 -336.412123 
L 571.713412 -338.2223 
L 576.123769 -341.094273 
L 580.3984 -343.651572 
L 584.545411 -348.488784 
L 588.572202 -351.68321 
L 592.485546 -353.544453 
L 596.291663 -355.606218 
L 599.99627 -356.495258 
L 603.604643 -358.925398 
L 607.121655 -359.868236 
L 610.551819 -360.843162 
L 613.899319 -366.038361 
L 617.168048 -369.692297 
L 620.361626 -373.771037 
L 623.483433 -374.695484 
L 626.536623 -374.7561 
L 629.524148 -376.179762 
L 632.448773 -376.049872 
L 635.313092 -378.281797 
L 638.119542 -379.021865 
L 640.870415 -380.04039 
L 643.56787 -382.571679 
L 646.213941 -383.564272 
L 648.810551 -384.797187 
L 651.359513 -387.399725 
L 653.862546 -388.024379 
L 656.321275 -390.096244 
L 658.737241 -391.802136 
L 661.111906 -391.912254 
L 663.44666 -392.089799 
L 665.74282 -393.030934 
L 668.001643 -394.509599 
L 670.224324 -394.857366 
L 672.412 -396.002565 
L 674.565757 -397.877616 
L 676.686631 -398.648139 
L 678.775611 -399.302785 
L 680.833642 -399.938863 
L 682.861628 -400.270806 
L 684.860433 -400.967923 
L 686.830885 -402.364264 
L 688.773777 -402.601341 
L 690.689871 -403.206653 
L 692.579894 -403.878636 
L 694.444547 -403.957506 
L 696.284501 -404.008527 
L 698.100404 -404.948609 
L 699.892874 -407.055303 
L 701.66251 -407.376841 
L 703.409886 -407.249762 
L 703.409886 -494.036906 
L 703.409886 -494.036906 
L 701.66251 -491.980609 
L 699.892874 -491.806236 
L 698.100404 -490.904601 
L 696.284501 -490.785731 
L 694.444547 -490.738551 
L 692.579894 -490.698545 
L 690.689871 -490.179018 
L 688.773777 -489.877892 
L 686.830885 -489.821739 
L 684.860433 -488.483545 
L 682.861628 -488.229349 
L 680.833642 -485.608192 
L 678.775611 -485.405286 
L 676.686631 -484.477756 
L 674.565757 -482.936829 
L 672.412 -482.10022 
L 670.224324 -482.008763 
L 668.001643 -479.133837 
L 665.74282 -477.459455 
L 663.44666 -476.311066 
L 661.111906 -476.100811 
L 658.737241 -475.909287 
L 656.321275 -475.363431 
L 653.862546 -475.564215 
L 651.359513 -475.3901 
L 648.810551 -475.116035 
L 646.213941 -474.21166 
L 643.56787 -473.976562 
L 640.870415 -473.697163 
L 638.119542 -470.88053 
L 635.313092 -470.386602 
L 632.448773 -468.757124 
L 629.524148 -465.518801 
L 626.536623 -465.250953 
L 623.483433 -465.133484 
L 620.361626 -465.097826 
L 617.168048 -463.80008 
L 613.899319 -460.838522 
L 610.551819 -459.798222 
L 607.121655 -459.328059 
L 603.604643 -458.976095 
L 599.99627 -458.276883 
L 596.291663 -457.091819 
L 592.485546 -455.748276 
L 588.572202 -455.682726 
L 584.545411 -455.109088 
L 580.3984 -452.96883 
L 576.123769 -451.837816 
L 571.713412 -449.402019 
L 567.158429 -448.360692 
L 562.44901 -447.501082 
L 557.574315 -446.68726 
L 552.52232 -446.553533 
L 547.279639 -441.303927 
L 541.831311 -439.135928 
L 536.160542 -436.586779 
L 530.248392 -431.898032 
L 524.073395 -429.569593 
L 517.611088 -428.621426 
L 510.833424 -427.935171 
L 503.708039 -427.12387 
L 496.197315 -425.541886 
L 488.25718 -424.894718 
L 479.835538 -419.48733 
L 470.870198 -417.885865 
L 461.286084 -415.16037 
L 450.991408 -411.654369 
L 439.872311 -405.644553 
L 427.785164 -402.566735 
L 414.545193 -392.693256 
L 399.909084 -385.511959 
L 383.547307 -380.252169 
L 364.997853 -373.539652 
L 343.58408 -368.929723 
L 318.256962 -354.12453 
L 287.259076 -343.424428 
L 247.295849 -314.253001 
L 190.970845 -284.673371 
L 94.682614 -243.438577 
z
" style="stroke: #7fc97f; stroke-opacity: 0.05"/>
    </defs>
    <g clip-path="url(#p2207dc66f6)">
     <use xlink:href="#md311685ef6" x="0" y="559.20125" style="fill: #7fc97f; fill-opacity: 0.05; stroke: #7fc97f; stroke-opacity: 0.05"/>
    </g>
   </g>
   <g id="PolyCollection_4">
    <defs>
     <path id="m7792b1119d" d="M 94.682614 -250.469436 
L 94.682614 -147.526926 
L 190.970845 -147.095865 
L 247.295849 -147.169199 
L 287.259076 -183.35846 
L 318.256962 -212.086609 
L 343.58408 -227.574984 
L 364.997853 -237.143652 
L 383.547307 -240.854436 
L 399.909084 -243.684269 
L 414.545193 -250.366327 
L 427.785164 -257.879551 
L 439.872311 -265.233 
L 450.991408 -270.314952 
L 461.286084 -276.118041 
L 470.870198 -279.025894 
L 479.835538 -283.986153 
L 488.25718 -288.407444 
L 496.197315 -292.982862 
L 503.708039 -298.824926 
L 510.833424 -307.152978 
L 517.611088 -312.91643 
L 524.073395 -319.06096 
L 530.248392 -326.166996 
L 536.160542 -335.907474 
L 541.831311 -340.123745 
L 547.279639 -342.085924 
L 552.52232 -344.990661 
L 557.574315 -354.851769 
L 562.44901 -360.435604 
L 567.158429 -366.515268 
L 571.713412 -374.641409 
L 576.123769 -381.47749 
L 580.3984 -384.272204 
L 584.545411 -390.039263 
L 588.572202 -397.067114 
L 592.485546 -398.312461 
L 596.291663 -401.003213 
L 599.99627 -404.124858 
L 603.604643 -406.57358 
L 607.121655 -411.973181 
L 610.551819 -415.773541 
L 613.899319 -417.813795 
L 617.168048 -419.662577 
L 620.361626 -420.861685 
L 623.483433 -422.354438 
L 626.536623 -427.370047 
L 629.524148 -427.838616 
L 632.448773 -429.473249 
L 635.313092 -430.75392 
L 638.119542 -431.368702 
L 640.870415 -432.211606 
L 643.56787 -435.111387 
L 646.213941 -435.836 
L 648.810551 -436.596501 
L 651.359513 -437.251711 
L 653.862546 -438.199119 
L 656.321275 -439.574631 
L 658.737241 -440.486967 
L 661.111906 -440.656863 
L 663.44666 -440.529854 
L 665.74282 -440.968506 
L 668.001643 -441.857681 
L 670.224324 -442.868661 
L 672.412 -443.188928 
L 674.565757 -443.876517 
L 676.686631 -444.042893 
L 678.775611 -445.243133 
L 680.833642 -446.421645 
L 682.861628 -446.455546 
L 684.860433 -446.528874 
L 686.830885 -446.938057 
L 688.773777 -447.321251 
L 690.689871 -447.344249 
L 692.579894 -447.863675 
L 694.444547 -448.44085 
L 696.284501 -448.549106 
L 698.100404 -448.865741 
L 699.892874 -448.915126 
L 701.66251 -451.986661 
L 703.409886 -451.977362 
L 703.409886 -529.32125 
L 703.409886 -529.32125 
L 701.66251 -529.141638 
L 699.892874 -527.858476 
L 698.100404 -527.824201 
L 696.284501 -527.63803 
L 694.444547 -526.349998 
L 692.579894 -524.971131 
L 690.689871 -524.53535 
L 688.773777 -524.533982 
L 686.830885 -524.435875 
L 684.860433 -524.48299 
L 682.861628 -524.407803 
L 680.833642 -524.379936 
L 678.775611 -523.341131 
L 676.686631 -521.217459 
L 674.565757 -521.126201 
L 672.412 -518.507697 
L 670.224324 -518.12032 
L 668.001643 -516.482985 
L 665.74282 -516.670113 
L 663.44666 -516.031073 
L 661.111906 -514.06999 
L 658.737241 -513.858826 
L 656.321275 -513.548239 
L 653.862546 -513.490462 
L 651.359513 -513.237326 
L 648.810551 -512.825846 
L 646.213941 -512.407205 
L 643.56787 -512.325557 
L 640.870415 -512.14713 
L 638.119542 -511.840951 
L 635.313092 -511.825703 
L 632.448773 -511.314008 
L 629.524148 -510.74839 
L 626.536623 -510.526177 
L 623.483433 -510.976484 
L 620.361626 -510.243875 
L 617.168048 -509.510818 
L 613.899319 -508.400465 
L 610.551819 -506.062739 
L 607.121655 -505.095214 
L 603.604643 -505.628118 
L 599.99627 -505.668033 
L 596.291663 -505.137604 
L 592.485546 -503.813044 
L 588.572202 -503.419405 
L 584.545411 -499.183018 
L 580.3984 -494.629283 
L 576.123769 -494.52159 
L 571.713412 -493.530989 
L 567.158429 -490.003123 
L 562.44901 -486.502024 
L 557.574315 -485.187133 
L 552.52232 -481.388178 
L 547.279639 -478.32444 
L 541.831311 -477.421884 
L 536.160542 -473.068461 
L 530.248392 -468.28699 
L 524.073395 -463.959925 
L 517.611088 -457.906329 
L 510.833424 -451.461086 
L 503.708039 -441.008565 
L 496.197315 -430.913215 
L 488.25718 -425.733733 
L 479.835538 -420.295686 
L 470.870198 -409.346562 
L 461.286084 -406.064923 
L 450.991408 -401.783174 
L 439.872311 -389.206514 
L 427.785164 -379.191518 
L 414.545193 -367.716582 
L 399.909084 -364.541177 
L 383.547307 -351.894525 
L 364.997853 -346.228126 
L 343.58408 -333.808835 
L 318.256962 -327.298603 
L 287.259076 -320.157024 
L 247.295849 -258.521834 
L 190.970845 -258.522701 
L 94.682614 -250.469436 
z
" style="stroke: #bf5b17; stroke-opacity: 0.05"/>
    </defs>
    <g clip-path="url(#p2207dc66f6)">
     <use xlink:href="#m7792b1119d" x="0" y="559.20125" style="fill: #bf5b17; fill-opacity: 0.05; stroke: #bf5b17; stroke-opacity: 0.05"/>
    </g>
   </g>
   <g id="PolyCollection_5">
    <defs>
     <path id="m4657bdd03d" d="M 94.682614 -250.469436 
L 94.682614 -147.526926 
L 190.970845 -174.707992 
L 247.295849 -218.927409 
L 287.259076 -219.774048 
L 318.256962 -219.79083 
L 343.58408 -219.808419 
L 364.997853 -219.811993 
L 383.547307 -235.821651 
L 399.909084 -244.277083 
L 414.545193 -244.277257 
L 427.785164 -255.244702 
L 439.872311 -259.360841 
L 450.991408 -259.360841 
L 461.286084 -259.362537 
L 470.870198 -266.525546 
L 479.835538 -294.978212 
L 488.25718 -295.829055 
L 496.197315 -295.829055 
L 503.708039 -295.829055 
L 510.833424 -295.829055 
L 517.611088 -296.739861 
L 524.073395 -296.739861 
L 530.248392 -296.739861 
L 536.160542 -338.605651 
L 541.831311 -338.605651 
L 547.279639 -338.929889 
L 552.52232 -339.075684 
L 557.574315 -340.862445 
L 562.44901 -340.862445 
L 567.158429 -343.566555 
L 571.713412 -343.566555 
L 576.123769 -344.140821 
L 580.3984 -344.140821 
L 584.545411 -345.805479 
L 588.572202 -346.951472 
L 592.485546 -349.641467 
L 596.291663 -349.641467 
L 599.99627 -349.641467 
L 603.604643 -349.641467 
L 607.121655 -349.692758 
L 610.551819 -349.871474 
L 613.899319 -349.978232 
L 617.168048 -349.978232 
L 620.361626 -349.978232 
L 623.483433 -349.978232 
L 626.536623 -349.978232 
L 629.524148 -349.978232 
L 632.448773 -361.987011 
L 635.313092 -361.987011 
L 638.119542 -361.987011 
L 640.870415 -362.005965 
L 643.56787 -362.005965 
L 646.213941 -362.005965 
L 648.810551 -362.005965 
L 651.359513 -362.022482 
L 653.862546 -363.936471 
L 656.321275 -363.940226 
L 658.737241 -363.940226 
L 661.111906 -364.503336 
L 663.44666 -365.657081 
L 665.74282 -365.657081 
L 668.001643 -365.657081 
L 670.224324 -365.753878 
L 672.412 -366.507338 
L 674.565757 -366.507338 
L 676.686631 -366.654415 
L 678.775611 -366.654415 
L 680.833642 -367.366014 
L 682.861628 -367.369628 
L 684.860433 -367.369628 
L 686.830885 -367.369628 
L 688.773777 -367.369628 
L 690.689871 -367.603433 
L 692.579894 -367.649435 
L 694.444547 -367.649435 
L 696.284501 -367.649435 
L 698.100404 -367.649435 
L 699.892874 -367.649435 
L 701.66251 -367.750343 
L 703.409886 -367.750343 
L 703.409886 -420.260142 
L 703.409886 -420.260142 
L 701.66251 -420.260142 
L 699.892874 -420.238053 
L 698.100404 -420.238053 
L 696.284501 -420.238053 
L 694.444547 -420.238053 
L 692.579894 -420.238053 
L 690.689871 -420.207799 
L 688.773777 -420.150783 
L 686.830885 -420.150783 
L 684.860433 -420.150783 
L 682.861628 -420.150783 
L 680.833642 -420.14611 
L 678.775611 -420.075244 
L 676.686631 -420.075244 
L 674.565757 -419.929386 
L 672.412 -419.929386 
L 670.224324 -419.705735 
L 668.001643 -419.578751 
L 665.74282 -419.578751 
L 663.44666 -419.578751 
L 661.111906 -419.591723 
L 658.737241 -419.548217 
L 656.321275 -419.548217 
L 653.862546 -419.544529 
L 651.359513 -418.746281 
L 648.810551 -418.739653 
L 646.213941 -418.739653 
L 643.56787 -418.739653 
L 640.870415 -418.739653 
L 638.119542 -418.729079 
L 635.313092 -418.729079 
L 632.448773 -418.729079 
L 629.524148 -406.566716 
L 626.536623 -406.566716 
L 623.483433 -406.566716 
L 620.361626 -406.566716 
L 617.168048 -406.566716 
L 613.899319 -406.566716 
L 610.551819 -406.527587 
L 607.121655 -406.496154 
L 603.604643 -406.446128 
L 599.99627 -406.446128 
L 596.291663 -406.446128 
L 592.485546 -406.446128 
L 588.572202 -405.587051 
L 584.545411 -404.67267 
L 580.3984 -404.332359 
L 576.123769 -404.332359 
L 571.713412 -404.203639 
L 567.158429 -404.203639 
L 562.44901 -403.658285 
L 557.574315 -403.658285 
L 552.52232 -402.966266 
L 547.279639 -402.91029 
L 541.831311 -402.571942 
L 536.160542 -402.571942 
L 530.248392 -328.914815 
L 524.073395 -328.914815 
L 517.611088 -328.914815 
L 510.833424 -328.231133 
L 503.708039 -328.231133 
L 496.197315 -328.231133 
L 488.25718 -328.231133 
L 479.835538 -327.945683 
L 470.870198 -306.009644 
L 461.286084 -305.562681 
L 450.991408 -305.563304 
L 439.872311 -305.563304 
L 427.785164 -304.393589 
L 414.545193 -301.582035 
L 399.909084 -301.581858 
L 383.547307 -298.58419 
L 364.997853 -285.286077 
L 343.58408 -285.286003 
L 318.256962 -285.2836 
L 287.259076 -285.288331 
L 247.295849 -285.536528 
L 190.970845 -259.557821 
L 94.682614 -250.469436 
z
" style="stroke: #f0027f; stroke-opacity: 0.05"/>
    </defs>
    <g clip-path="url(#p2207dc66f6)">
     <use xlink:href="#m4657bdd03d" x="0" y="559.20125" style="fill: #f0027f; fill-opacity: 0.05; stroke: #f0027f; stroke-opacity: 0.05"/>
    </g>
   </g>
   <g id="PolyCollection_6">
    <defs>
     <path id="m813197b304" d="M 94.682614 -250.469436 
L 94.682614 -147.526926 
L 190.970845 -174.707992 
L 247.295849 -218.927409 
L 287.259076 -219.774048 
L 318.256962 -219.79083 
L 343.58408 -219.808419 
L 364.997853 -219.861918 
L 383.547307 -230.277378 
L 399.909084 -236.416321 
L 414.545193 -240.815338 
L 427.785164 -248.536357 
L 439.872311 -248.492443 
L 450.991408 -253.113464 
L 461.286084 -257.118368 
L 470.870198 -261.674802 
L 479.835538 -262.51528 
L 488.25718 -268.486992 
L 496.197315 -274.958388 
L 503.708039 -279.797644 
L 510.833424 -284.434541 
L 517.611088 -291.646992 
L 524.073395 -298.275962 
L 530.248392 -304.544583 
L 536.160542 -314.510643 
L 541.831311 -321.912391 
L 547.279639 -331.009862 
L 552.52232 -338.119476 
L 557.574315 -351.019885 
L 562.44901 -358.232882 
L 567.158429 -365.016537 
L 571.713412 -371.615584 
L 576.123769 -377.327355 
L 580.3984 -381.278483 
L 584.545411 -386.120851 
L 588.572202 -387.918215 
L 592.485546 -395.062975 
L 596.291663 -399.259759 
L 599.99627 -403.54909 
L 603.604643 -406.511438 
L 607.121655 -408.218404 
L 610.551819 -412.281796 
L 613.899319 -415.579704 
L 617.168048 -416.02483 
L 620.361626 -418.914083 
L 623.483433 -421.435791 
L 626.536623 -422.276047 
L 629.524148 -424.129405 
L 632.448773 -425.694773 
L 635.313092 -428.12128 
L 638.119542 -428.601236 
L 640.870415 -430.677897 
L 643.56787 -432.531694 
L 646.213941 -431.851214 
L 648.810551 -432.520582 
L 651.359513 -433.054157 
L 653.862546 -433.130348 
L 656.321275 -433.408218 
L 658.737241 -434.241062 
L 661.111906 -434.504159 
L 663.44666 -436.703792 
L 665.74282 -438.200916 
L 668.001643 -438.787142 
L 670.224324 -439.100943 
L 672.412 -441.511438 
L 674.565757 -441.572435 
L 676.686631 -442.084491 
L 678.775611 -442.303449 
L 680.833642 -442.343955 
L 682.861628 -442.564786 
L 684.860433 -442.869316 
L 686.830885 -443.777925 
L 688.773777 -444.350939 
L 690.689871 -444.414879 
L 692.579894 -446.086434 
L 694.444547 -447.283048 
L 696.284501 -448.567583 
L 698.100404 -452.303474 
L 699.892874 -452.853073 
L 701.66251 -452.925746 
L 703.409886 -452.417993 
L 703.409886 -507.279408 
L 703.409886 -507.279408 
L 701.66251 -504.932894 
L 699.892874 -504.806352 
L 698.100404 -504.462315 
L 696.284501 -505.624322 
L 694.444547 -505.388701 
L 692.579894 -504.971556 
L 690.689871 -503.138878 
L 688.773777 -502.299139 
L 686.830885 -498.543333 
L 684.860433 -496.540189 
L 682.861628 -496.066233 
L 680.833642 -495.300169 
L 678.775611 -495.27499 
L 676.686631 -495.141458 
L 674.565757 -494.771173 
L 672.412 -494.66927 
L 670.224324 -494.617884 
L 668.001643 -494.489953 
L 665.74282 -493.363934 
L 663.44666 -492.463136 
L 661.111906 -492.482433 
L 658.737241 -492.128853 
L 656.321275 -492.031335 
L 653.862546 -491.861047 
L 651.359513 -491.136778 
L 648.810551 -490.537974 
L 646.213941 -490.902676 
L 643.56787 -488.328258 
L 640.870415 -487.919825 
L 638.119542 -487.909198 
L 635.313092 -487.478159 
L 632.448773 -487.57457 
L 629.524148 -487.055601 
L 626.536623 -487.319048 
L 623.483433 -486.649928 
L 620.361626 -484.440962 
L 617.168048 -483.478902 
L 613.899319 -483.244109 
L 610.551819 -483.351158 
L 607.121655 -484.182467 
L 603.604643 -483.409561 
L 599.99627 -482.998762 
L 596.291663 -482.826695 
L 592.485546 -480.875747 
L 588.572202 -479.170799 
L 584.545411 -477.96495 
L 580.3984 -475.755328 
L 576.123769 -474.494628 
L 571.713412 -473.327434 
L 567.158429 -471.049802 
L 562.44901 -467.050672 
L 557.574315 -462.990572 
L 552.52232 -458.331383 
L 547.279639 -454.29797 
L 541.831311 -449.336859 
L 536.160542 -445.142978 
L 530.248392 -436.665745 
L 524.073395 -430.349569 
L 517.611088 -422.045067 
L 510.833424 -415.451426 
L 503.708039 -411.260179 
L 496.197315 -399.946315 
L 488.25718 -392.575551 
L 479.835538 -382.668428 
L 470.870198 -365.987103 
L 461.286084 -357.81681 
L 450.991408 -346.459974 
L 439.872311 -341.89817 
L 427.785164 -324.086776 
L 414.545193 -312.755864 
L 399.909084 -306.255186 
L 383.547307 -293.590043 
L 364.997853 -285.270218 
L 343.58408 -285.286003 
L 318.256962 -285.2836 
L 287.259076 -285.288331 
L 247.295849 -285.536528 
L 190.970845 -259.557821 
L 94.682614 -250.469436 
z
" style="stroke: #386cb0; stroke-opacity: 0.05"/>
    </defs>
    <g clip-path="url(#p2207dc66f6)">
     <use xlink:href="#m813197b304" x="0" y="559.20125" style="fill: #386cb0; fill-opacity: 0.05; stroke: #386cb0; stroke-opacity: 0.05"/>
    </g>
   </g>
   <g id="PolyCollection_7">
    <defs>
     <path id="m36cff76e39" d="M 94.682614 -464.391905 
L 94.682614 -334.064963 
L 190.970845 -371.457233 
L 247.295849 -410.221853 
L 287.259076 -431.377784 
L 318.256962 -448.735893 
L 343.58408 -453.030161 
L 364.997853 -457.716562 
L 383.547307 -459.695375 
L 399.909084 -461.068573 
L 414.545193 -461.439837 
L 427.785164 -461.547827 
L 439.872311 -461.547827 
L 450.991408 -461.547827 
L 461.286084 -462.381096 
L 470.870198 -462.381096 
L 479.835538 -462.381344 
L 488.25718 -462.385345 
L 496.197315 -462.385345 
L 503.708039 -462.385345 
L 510.833424 -462.385345 
L 517.611088 -462.393073 
L 524.073395 -462.393073 
L 530.248392 -462.563352 
L 536.160542 -462.563352 
L 541.831311 -462.563352 
L 547.279639 -462.573737 
L 552.52232 -462.660035 
L 557.574315 -462.663716 
L 562.44901 -462.663716 
L 567.158429 -462.663716 
L 571.713412 -462.663716 
L 576.123769 -462.663716 
L 580.3984 -462.663716 
L 584.545411 -462.665143 
L 588.572202 -462.77728 
L 592.485546 -462.77728 
L 596.291663 -462.77728 
L 599.99627 -462.77728 
L 603.604643 -462.80691 
L 607.121655 -462.806747 
L 610.551819 -462.806747 
L 613.899319 -462.806747 
L 617.168048 -462.806747 
L 620.361626 -462.806747 
L 623.483433 -462.957438 
L 626.536623 -462.957438 
L 629.524148 -462.957438 
L 632.448773 -462.957438 
L 635.313092 -462.957438 
L 638.119542 -462.971079 
L 640.870415 -462.971079 
L 643.56787 -462.971079 
L 646.213941 -462.971079 
L 648.810551 -463.013874 
L 651.359513 -463.013874 
L 653.862546 -463.046242 
L 656.321275 -463.051545 
L 658.737241 -463.077607 
L 661.111906 -463.077607 
L 663.44666 -463.077607 
L 665.74282 -463.077607 
L 668.001643 -463.077745 
L 670.224324 -463.078248 
L 672.412 -463.078248 
L 674.565757 -463.078248 
L 676.686631 -463.094823 
L 678.775611 -463.094823 
L 680.833642 -463.094823 
L 682.861628 -463.095781 
L 684.860433 -463.095781 
L 686.830885 -463.095781 
L 688.773777 -463.101378 
L 690.689871 -463.101378 
L 692.579894 -463.101378 
L 694.444547 -463.101378 
L 696.284501 -463.116112 
L 698.100404 -463.116112 
L 699.892874 -463.116112 
L 701.66251 -463.133558 
L 703.409886 -463.133558 
L 703.409886 -504.606116 
L 703.409886 -504.606116 
L 701.66251 -504.606116 
L 699.892874 -504.614224 
L 698.100404 -504.614224 
L 696.284501 -504.614224 
L 694.444547 -504.585269 
L 692.579894 -504.585269 
L 690.689871 -504.585269 
L 688.773777 -504.585269 
L 686.830885 -504.586303 
L 684.860433 -504.586303 
L 682.861628 -504.586303 
L 680.833642 -504.583532 
L 678.775611 -504.583532 
L 676.686631 -504.583532 
L 674.565757 -504.585038 
L 672.412 -504.585038 
L 670.224324 -504.585038 
L 668.001643 -504.584632 
L 665.74282 -504.584489 
L 663.44666 -504.584489 
L 661.111906 -504.584489 
L 658.737241 -504.584489 
L 656.321275 -504.56905 
L 653.862546 -504.563701 
L 651.359513 -504.544453 
L 648.810551 -504.544453 
L 646.213941 -504.566214 
L 643.56787 -504.566214 
L 640.870415 -504.566214 
L 638.119542 -504.566214 
L 635.313092 -504.574927 
L 632.448773 -504.574927 
L 629.524148 -504.574927 
L 626.536623 -504.574927 
L 623.483433 -504.574927 
L 620.361626 -504.587498 
L 617.168048 -504.587498 
L 613.899319 -504.587498 
L 610.551819 -504.587498 
L 607.121655 -504.587498 
L 603.604643 -504.5858 
L 599.99627 -504.573957 
L 596.291663 -504.573957 
L 592.485546 -504.573957 
L 588.572202 -504.573957 
L 584.545411 -504.501957 
L 580.3984 -504.498996 
L 576.123769 -504.498996 
L 571.713412 -504.498996 
L 567.158429 -504.498996 
L 562.44901 -504.498996 
L 557.574315 -504.498996 
L 552.52232 -504.497835 
L 547.279639 -504.442382 
L 541.831311 -504.428347 
L 536.160542 -504.428347 
L 530.248392 -504.428347 
L 524.073395 -504.318667 
L 517.611088 -504.318667 
L 510.833424 -504.308172 
L 503.708039 -504.308172 
L 496.197315 -504.308172 
L 488.25718 -504.308172 
L 479.835538 -504.304337 
L 470.870198 -504.304424 
L 461.286084 -504.304424 
L 450.991408 -504.491529 
L 439.872311 -504.491529 
L 427.785164 -504.491529 
L 414.545193 -504.538619 
L 399.909084 -504.705991 
L 383.547307 -504.261884 
L 364.997853 -504.280476 
L 343.58408 -500.302984 
L 318.256962 -496.62356 
L 287.259076 -497.356414 
L 247.295849 -496.761717 
L 190.970845 -480.45587 
L 94.682614 -464.391905 
z
" style="stroke: #666666; stroke-opacity: 0.05"/>
    </defs>
    <g clip-path="url(#p2207dc66f6)">
     <use xlink:href="#m36cff76e39" x="0" y="559.20125" style="fill: #666666; fill-opacity: 0.05; stroke: #666666; stroke-opacity: 0.05"/>
    </g>
   </g>
   <g id="matplotlib.axis_1">
    <g id="xtick_1">
     <g id="line2d_1">
      <path d="M 94.682614 506.16 
L 94.682614 7.2 
" clip-path="url(#p2207dc66f6)" style="fill: none; stroke-dasharray: 1.85,0.8; stroke-dashoffset: 0; stroke: #b0b0b0; stroke-width: 0.5"/>
     </g>
     <g id="line2d_2">
      <defs>
       <path id="m55c71ad960" d="M 0 0 
L 0 3.5 
" style="stroke: #000000; stroke-width: 0.8"/>
      </defs>
      <g>
       <use xlink:href="#m55c71ad960" x="94.682614" y="506.16" style="stroke: #000000; stroke-width: 0.8"/>
      </g>
     </g>
     <g id="text_1">
      <!-- $\mathdefault{10^{0}}$ -->
      <g transform="translate(78.842614 526.837188) scale(0.18 -0.18)">
       <defs>
        <path id="DejaVuSans-31" d="M 794 531 
L 1825 531 
L 1825 4091 
L 703 3866 
L 703 4441 
L 1819 4666 
L 2450 4666 
L 2450 531 
L 3481 531 
L 3481 0 
L 794 0 
L 794 531 
z
" transform="scale(0.015625)"/>
        <path id="DejaVuSans-30" d="M 2034 4250 
Q 1547 4250 1301 3770 
Q 1056 3291 1056 2328 
Q 1056 1369 1301 889 
Q 1547 409 2034 409 
Q 2525 409 2770 889 
Q 3016 1369 3016 2328 
Q 3016 3291 2770 3770 
Q 2525 4250 2034 4250 
z
M 2034 4750 
Q 2819 4750 3233 4129 
Q 3647 3509 3647 2328 
Q 3647 1150 3233 529 
Q 2819 -91 2034 -91 
Q 1250 -91 836 529 
Q 422 1150 422 2328 
Q 422 3509 836 4129 
Q 1250 4750 2034 4750 
z
" transform="scale(0.015625)"/>
       </defs>
       <use xlink:href="#DejaVuSans-31" transform="translate(0 0.765625)"/>
       <use xlink:href="#DejaVuSans-30" transform="translate(63.623047 0.765625)"/>
       <use xlink:href="#DejaVuSans-30" transform="translate(128.203125 39.046875) scale(0.7)"/>
      </g>
     </g>
    </g>
    <g id="xtick_2">
     <g id="line2d_3">
      <path d="M 414.545193 506.16 
L 414.545193 7.2 
" clip-path="url(#p2207dc66f6)" style="fill: none; stroke-dasharray: 1.85,0.8; stroke-dashoffset: 0; stroke: #b0b0b0; stroke-width: 0.5"/>
     </g>
     <g id="line2d_4">
      <g>
       <use xlink:href="#m55c71ad960" x="414.545193" y="506.16" style="stroke: #000000; stroke-width: 0.8"/>
      </g>
     </g>
     <g id="text_2">
      <!-- $\mathdefault{10^{1}}$ -->
      <g transform="translate(398.705193 526.837188) scale(0.18 -0.18)">
       <use xlink:href="#DejaVuSans-31" transform="translate(0 0.684375)"/>
       <use xlink:href="#DejaVuSans-30" transform="translate(63.623047 0.684375)"/>
       <use xlink:href="#DejaVuSans-31" transform="translate(128.203125 38.965625) scale(0.7)"/>
      </g>
     </g>
    </g>
    <g id="xtick_3">
     <g id="line2d_5">
      <defs>
       <path id="m32137e11c2" d="M 0 0 
L 0 2 
" style="stroke: #000000; stroke-width: 0.6"/>
      </defs>
      <g>
       <use xlink:href="#m32137e11c2" x="80.046505" y="506.16" style="stroke: #000000; stroke-width: 0.6"/>
      </g>
     </g>
    </g>
    <g id="xtick_4">
     <g id="line2d_6">
      <g>
       <use xlink:href="#m32137e11c2" x="190.970845" y="506.16" style="stroke: #000000; stroke-width: 0.6"/>
      </g>
     </g>
    </g>
    <g id="xtick_5">
     <g id="line2d_7">
      <g>
       <use xlink:href="#m32137e11c2" x="247.295849" y="506.16" style="stroke: #000000; stroke-width: 0.6"/>
      </g>
     </g>
    </g>
    <g id="xtick_6">
     <g id="line2d_8">
      <g>
       <use xlink:href="#m32137e11c2" x="287.259076" y="506.16" style="stroke: #000000; stroke-width: 0.6"/>
      </g>
     </g>
    </g>
    <g id="xtick_7">
     <g id="line2d_9">
      <g>
       <use xlink:href="#m32137e11c2" x="318.256962" y="506.16" style="stroke: #000000; stroke-width: 0.6"/>
      </g>
     </g>
    </g>
    <g id="xtick_8">
     <g id="line2d_10">
      <g>
       <use xlink:href="#m32137e11c2" x="343.58408" y="506.16" style="stroke: #000000; stroke-width: 0.6"/>
      </g>
     </g>
    </g>
    <g id="xtick_9">
     <g id="line2d_11">
      <g>
       <use xlink:href="#m32137e11c2" x="364.997853" y="506.16" style="stroke: #000000; stroke-width: 0.6"/>
      </g>
     </g>
    </g>
    <g id="xtick_10">
     <g id="line2d_12">
      <g>
       <use xlink:href="#m32137e11c2" x="383.547307" y="506.16" style="stroke: #000000; stroke-width: 0.6"/>
      </g>
     </g>
    </g>
    <g id="xtick_11">
     <g id="line2d_13">
      <g>
       <use xlink:href="#m32137e11c2" x="399.909084" y="506.16" style="stroke: #000000; stroke-width: 0.6"/>
      </g>
     </g>
    </g>
    <g id="xtick_12">
     <g id="line2d_14">
      <g>
       <use xlink:href="#m32137e11c2" x="510.833424" y="506.16" style="stroke: #000000; stroke-width: 0.6"/>
      </g>
     </g>
    </g>
    <g id="xtick_13">
     <g id="line2d_15">
      <g>
       <use xlink:href="#m32137e11c2" x="567.158429" y="506.16" style="stroke: #000000; stroke-width: 0.6"/>
      </g>
     </g>
    </g>
    <g id="xtick_14">
     <g id="line2d_16">
      <g>
       <use xlink:href="#m32137e11c2" x="607.121655" y="506.16" style="stroke: #000000; stroke-width: 0.6"/>
      </g>
     </g>
    </g>
    <g id="xtick_15">
     <g id="line2d_17">
      <g>
       <use xlink:href="#m32137e11c2" x="638.119542" y="506.16" style="stroke: #000000; stroke-width: 0.6"/>
      </g>
     </g>
    </g>
    <g id="xtick_16">
     <g id="line2d_18">
      <g>
       <use xlink:href="#m32137e11c2" x="663.44666" y="506.16" style="stroke: #000000; stroke-width: 0.6"/>
      </g>
     </g>
    </g>
    <g id="xtick_17">
     <g id="line2d_19">
      <g>
       <use xlink:href="#m32137e11c2" x="684.860433" y="506.16" style="stroke: #000000; stroke-width: 0.6"/>
      </g>
     </g>
    </g>
    <g id="xtick_18">
     <g id="line2d_20">
      <g>
       <use xlink:href="#m32137e11c2" x="703.409886" y="506.16" style="stroke: #000000; stroke-width: 0.6"/>
      </g>
     </g>
    </g>
    <g id="xtick_19">
     <g id="line2d_21">
      <g>
       <use xlink:href="#m32137e11c2" x="719.771664" y="506.16" style="stroke: #000000; stroke-width: 0.6"/>
      </g>
     </g>
    </g>
    <g id="text_3">
     <!-- Decision Round -->
     <g transform="translate(329.393281 548.257813) scale(0.18 -0.18)">
      <defs>
       <path id="DejaVuSans-44" d="M 1259 4147 
L 1259 519 
L 2022 519 
Q 2988 519 3436 956 
Q 3884 1394 3884 2338 
Q 3884 3275 3436 3711 
Q 2988 4147 2022 4147 
L 1259 4147 
z
M 628 4666 
L 1925 4666 
Q 3281 4666 3915 4102 
Q 4550 3538 4550 2338 
Q 4550 1131 3912 565 
Q 3275 0 1925 0 
L 628 0 
L 628 4666 
z
" transform="scale(0.015625)"/>
       <path id="DejaVuSans-65" d="M 3597 1894 
L 3597 1613 
L 953 1613 
Q 991 1019 1311 708 
Q 1631 397 2203 397 
Q 2534 397 2845 478 
Q 3156 559 3463 722 
L 3463 178 
Q 3153 47 2828 -22 
Q 2503 -91 2169 -91 
Q 1331 -91 842 396 
Q 353 884 353 1716 
Q 353 2575 817 3079 
Q 1281 3584 2069 3584 
Q 2775 3584 3186 3129 
Q 3597 2675 3597 1894 
z
M 3022 2063 
Q 3016 2534 2758 2815 
Q 2500 3097 2075 3097 
Q 1594 3097 1305 2825 
Q 1016 2553 972 2059 
L 3022 2063 
z
" transform="scale(0.015625)"/>
       <path id="DejaVuSans-63" d="M 3122 3366 
L 3122 2828 
Q 2878 2963 2633 3030 
Q 2388 3097 2138 3097 
Q 1578 3097 1268 2742 
Q 959 2388 959 1747 
Q 959 1106 1268 751 
Q 1578 397 2138 397 
Q 2388 397 2633 464 
Q 2878 531 3122 666 
L 3122 134 
Q 2881 22 2623 -34 
Q 2366 -91 2075 -91 
Q 1284 -91 818 406 
Q 353 903 353 1747 
Q 353 2603 823 3093 
Q 1294 3584 2113 3584 
Q 2378 3584 2631 3529 
Q 2884 3475 3122 3366 
z
" transform="scale(0.015625)"/>
       <path id="DejaVuSans-69" d="M 603 3500 
L 1178 3500 
L 1178 0 
L 603 0 
L 603 3500 
z
M 603 4863 
L 1178 4863 
L 1178 4134 
L 603 4134 
L 603 4863 
z
" transform="scale(0.015625)"/>
       <path id="DejaVuSans-73" d="M 2834 3397 
L 2834 2853 
Q 2591 2978 2328 3040 
Q 2066 3103 1784 3103 
Q 1356 3103 1142 2972 
Q 928 2841 928 2578 
Q 928 2378 1081 2264 
Q 1234 2150 1697 2047 
L 1894 2003 
Q 2506 1872 2764 1633 
Q 3022 1394 3022 966 
Q 3022 478 2636 193 
Q 2250 -91 1575 -91 
Q 1294 -91 989 -36 
Q 684 19 347 128 
L 347 722 
Q 666 556 975 473 
Q 1284 391 1588 391 
Q 1994 391 2212 530 
Q 2431 669 2431 922 
Q 2431 1156 2273 1281 
Q 2116 1406 1581 1522 
L 1381 1569 
Q 847 1681 609 1914 
Q 372 2147 372 2553 
Q 372 3047 722 3315 
Q 1072 3584 1716 3584 
Q 2034 3584 2315 3537 
Q 2597 3491 2834 3397 
z
" transform="scale(0.015625)"/>
       <path id="DejaVuSans-6f" d="M 1959 3097 
Q 1497 3097 1228 2736 
Q 959 2375 959 1747 
Q 959 1119 1226 758 
Q 1494 397 1959 397 
Q 2419 397 2687 759 
Q 2956 1122 2956 1747 
Q 2956 2369 2687 2733 
Q 2419 3097 1959 3097 
z
M 1959 3584 
Q 2709 3584 3137 3096 
Q 3566 2609 3566 1747 
Q 3566 888 3137 398 
Q 2709 -91 1959 -91 
Q 1206 -91 779 398 
Q 353 888 353 1747 
Q 353 2609 779 3096 
Q 1206 3584 1959 3584 
z
" transform="scale(0.015625)"/>
       <path id="DejaVuSans-6e" d="M 3513 2113 
L 3513 0 
L 2938 0 
L 2938 2094 
Q 2938 2591 2744 2837 
Q 2550 3084 2163 3084 
Q 1697 3084 1428 2787 
Q 1159 2491 1159 1978 
L 1159 0 
L 581 0 
L 581 3500 
L 1159 3500 
L 1159 2956 
Q 1366 3272 1645 3428 
Q 1925 3584 2291 3584 
Q 2894 3584 3203 3211 
Q 3513 2838 3513 2113 
z
" transform="scale(0.015625)"/>
       <path id="DejaVuSans-20" transform="scale(0.015625)"/>
       <path id="DejaVuSans-52" d="M 2841 2188 
Q 3044 2119 3236 1894 
Q 3428 1669 3622 1275 
L 4263 0 
L 3584 0 
L 2988 1197 
Q 2756 1666 2539 1819 
Q 2322 1972 1947 1972 
L 1259 1972 
L 1259 0 
L 628 0 
L 628 4666 
L 2053 4666 
Q 2853 4666 3247 4331 
Q 3641 3997 3641 3322 
Q 3641 2881 3436 2590 
Q 3231 2300 2841 2188 
z
M 1259 4147 
L 1259 2491 
L 2053 2491 
Q 2509 2491 2742 2702 
Q 2975 2913 2975 3322 
Q 2975 3731 2742 3939 
Q 2509 4147 2053 4147 
L 1259 4147 
z
" transform="scale(0.015625)"/>
       <path id="DejaVuSans-75" d="M 544 1381 
L 544 3500 
L 1119 3500 
L 1119 1403 
Q 1119 906 1312 657 
Q 1506 409 1894 409 
Q 2359 409 2629 706 
Q 2900 1003 2900 1516 
L 2900 3500 
L 3475 3500 
L 3475 0 
L 2900 0 
L 2900 538 
Q 2691 219 2414 64 
Q 2138 -91 1772 -91 
Q 1169 -91 856 284 
Q 544 659 544 1381 
z
M 1991 3584 
L 1991 3584 
z
" transform="scale(0.015625)"/>
       <path id="DejaVuSans-64" d="M 2906 2969 
L 2906 4863 
L 3481 4863 
L 3481 0 
L 2906 0 
L 2906 525 
Q 2725 213 2448 61 
Q 2172 -91 1784 -91 
Q 1150 -91 751 415 
Q 353 922 353 1747 
Q 353 2572 751 3078 
Q 1150 3584 1784 3584 
Q 2172 3584 2448 3432 
Q 2725 3281 2906 2969 
z
M 947 1747 
Q 947 1113 1208 752 
Q 1469 391 1925 391 
Q 2381 391 2643 752 
Q 2906 1113 2906 1747 
Q 2906 2381 2643 2742 
Q 2381 3103 1925 3103 
Q 1469 3103 1208 2742 
Q 947 2381 947 1747 
z
" transform="scale(0.015625)"/>
      </defs>
      <use xlink:href="#DejaVuSans-44"/>
      <use xlink:href="#DejaVuSans-65" x="77.001953"/>
      <use xlink:href="#DejaVuSans-63" x="138.525391"/>
      <use xlink:href="#DejaVuSans-69" x="193.505859"/>
      <use xlink:href="#DejaVuSans-73" x="221.289062"/>
      <use xlink:href="#DejaVuSans-69" x="273.388672"/>
      <use xlink:href="#DejaVuSans-6f" x="301.171875"/>
      <use xlink:href="#DejaVuSans-6e" x="362.353516"/>
      <use xlink:href="#DejaVuSans-20" x="425.732422"/>
      <use xlink:href="#DejaVuSans-52" x="457.519531"/>
      <use xlink:href="#DejaVuSans-6f" x="522.501953"/>
      <use xlink:href="#DejaVuSans-75" x="583.683594"/>
      <use xlink:href="#DejaVuSans-6e" x="647.0625"/>
      <use xlink:href="#DejaVuSans-64" x="710.441406"/>
     </g>
    </g>
   </g>
   <g id="matplotlib.axis_2">
    <g id="ytick_1">
     <g id="line2d_22">
      <path d="M 64.24625 496.144945 
L 733.84625 496.144945 
" clip-path="url(#p2207dc66f6)" style="fill: none; stroke-dasharray: 1.85,0.8; stroke-dashoffset: 0; stroke: #b0b0b0; stroke-width: 0.5"/>
     </g>
     <g id="line2d_23">
      <defs>
       <path id="m8ed7c54ac0" d="M 0 0 
L -3.5 0 
" style="stroke: #000000; stroke-width: 0.8"/>
      </defs>
      <g>
       <use xlink:href="#m8ed7c54ac0" x="64.24625" y="496.144945" style="stroke: #000000; stroke-width: 0.8"/>
      </g>
     </g>
     <g id="text_4">
      <!-- 0.1 -->
      <g transform="translate(28.620625 502.983538) scale(0.18 -0.18)">
       <defs>
        <path id="DejaVuSans-2e" d="M 684 794 
L 1344 794 
L 1344 0 
L 684 0 
L 684 794 
z
" transform="scale(0.015625)"/>
       </defs>
       <use xlink:href="#DejaVuSans-30"/>
       <use xlink:href="#DejaVuSans-2e" x="63.623047"/>
       <use xlink:href="#DejaVuSans-31" x="95.410156"/>
      </g>
     </g>
    </g>
    <g id="ytick_2">
     <g id="line2d_24">
      <path d="M 64.24625 411.738263 
L 733.84625 411.738263 
" clip-path="url(#p2207dc66f6)" style="fill: none; stroke-dasharray: 1.85,0.8; stroke-dashoffset: 0; stroke: #b0b0b0; stroke-width: 0.5"/>
     </g>
     <g id="line2d_25">
      <g>
       <use xlink:href="#m8ed7c54ac0" x="64.24625" y="411.738263" style="stroke: #000000; stroke-width: 0.8"/>
      </g>
     </g>
     <g id="text_5">
      <!-- 0.2 -->
      <g transform="translate(28.620625 418.576857) scale(0.18 -0.18)">
       <defs>
        <path id="DejaVuSans-32" d="M 1228 531 
L 3431 531 
L 3431 0 
L 469 0 
L 469 531 
Q 828 903 1448 1529 
Q 2069 2156 2228 2338 
Q 2531 2678 2651 2914 
Q 2772 3150 2772 3378 
Q 2772 3750 2511 3984 
Q 2250 4219 1831 4219 
Q 1534 4219 1204 4116 
Q 875 4013 500 3803 
L 500 4441 
Q 881 4594 1212 4672 
Q 1544 4750 1819 4750 
Q 2544 4750 2975 4387 
Q 3406 4025 3406 3419 
Q 3406 3131 3298 2873 
Q 3191 2616 2906 2266 
Q 2828 2175 2409 1742 
Q 1991 1309 1228 531 
z
" transform="scale(0.015625)"/>
       </defs>
       <use xlink:href="#DejaVuSans-30"/>
       <use xlink:href="#DejaVuSans-2e" x="63.623047"/>
       <use xlink:href="#DejaVuSans-32" x="95.410156"/>
      </g>
     </g>
    </g>
    <g id="ytick_3">
     <g id="line2d_26">
      <path d="M 64.24625 327.331581 
L 733.84625 327.331581 
" clip-path="url(#p2207dc66f6)" style="fill: none; stroke-dasharray: 1.85,0.8; stroke-dashoffset: 0; stroke: #b0b0b0; stroke-width: 0.5"/>
     </g>
     <g id="line2d_27">
      <g>
       <use xlink:href="#m8ed7c54ac0" x="64.24625" y="327.331581" style="stroke: #000000; stroke-width: 0.8"/>
      </g>
     </g>
     <g id="text_6">
      <!-- 0.3 -->
      <g transform="translate(28.620625 334.170175) scale(0.18 -0.18)">
       <defs>
        <path id="DejaVuSans-33" d="M 2597 2516 
Q 3050 2419 3304 2112 
Q 3559 1806 3559 1356 
Q 3559 666 3084 287 
Q 2609 -91 1734 -91 
Q 1441 -91 1130 -33 
Q 819 25 488 141 
L 488 750 
Q 750 597 1062 519 
Q 1375 441 1716 441 
Q 2309 441 2620 675 
Q 2931 909 2931 1356 
Q 2931 1769 2642 2001 
Q 2353 2234 1838 2234 
L 1294 2234 
L 1294 2753 
L 1863 2753 
Q 2328 2753 2575 2939 
Q 2822 3125 2822 3475 
Q 2822 3834 2567 4026 
Q 2313 4219 1838 4219 
Q 1578 4219 1281 4162 
Q 984 4106 628 3988 
L 628 4550 
Q 988 4650 1302 4700 
Q 1616 4750 1894 4750 
Q 2613 4750 3031 4423 
Q 3450 4097 3450 3541 
Q 3450 3153 3228 2886 
Q 3006 2619 2597 2516 
z
" transform="scale(0.015625)"/>
       </defs>
       <use xlink:href="#DejaVuSans-30"/>
       <use xlink:href="#DejaVuSans-2e" x="63.623047"/>
       <use xlink:href="#DejaVuSans-33" x="95.410156"/>
      </g>
     </g>
    </g>
    <g id="ytick_4">
     <g id="line2d_28">
      <path d="M 64.24625 242.924899 
L 733.84625 242.924899 
" clip-path="url(#p2207dc66f6)" style="fill: none; stroke-dasharray: 1.85,0.8; stroke-dashoffset: 0; stroke: #b0b0b0; stroke-width: 0.5"/>
     </g>
     <g id="line2d_29">
      <g>
       <use xlink:href="#m8ed7c54ac0" x="64.24625" y="242.924899" style="stroke: #000000; stroke-width: 0.8"/>
      </g>
     </g>
     <g id="text_7">
      <!-- 0.4 -->
      <g transform="translate(28.620625 249.763493) scale(0.18 -0.18)">
       <defs>
        <path id="DejaVuSans-34" d="M 2419 4116 
L 825 1625 
L 2419 1625 
L 2419 4116 
z
M 2253 4666 
L 3047 4666 
L 3047 1625 
L 3713 1625 
L 3713 1100 
L 3047 1100 
L 3047 0 
L 2419 0 
L 2419 1100 
L 313 1100 
L 313 1709 
L 2253 4666 
z
" transform="scale(0.015625)"/>
       </defs>
       <use xlink:href="#DejaVuSans-30"/>
       <use xlink:href="#DejaVuSans-2e" x="63.623047"/>
       <use xlink:href="#DejaVuSans-34" x="95.410156"/>
      </g>
     </g>
    </g>
    <g id="ytick_5">
     <g id="line2d_30">
      <path d="M 64.24625 158.518217 
L 733.84625 158.518217 
" clip-path="url(#p2207dc66f6)" style="fill: none; stroke-dasharray: 1.85,0.8; stroke-dashoffset: 0; stroke: #b0b0b0; stroke-width: 0.5"/>
     </g>
     <g id="line2d_31">
      <g>
       <use xlink:href="#m8ed7c54ac0" x="64.24625" y="158.518217" style="stroke: #000000; stroke-width: 0.8"/>
      </g>
     </g>
     <g id="text_8">
      <!-- 0.5 -->
      <g transform="translate(28.620625 165.356811) scale(0.18 -0.18)">
       <defs>
        <path id="DejaVuSans-35" d="M 691 4666 
L 3169 4666 
L 3169 4134 
L 1269 4134 
L 1269 2991 
Q 1406 3038 1543 3061 
Q 1681 3084 1819 3084 
Q 2600 3084 3056 2656 
Q 3513 2228 3513 1497 
Q 3513 744 3044 326 
Q 2575 -91 1722 -91 
Q 1428 -91 1123 -41 
Q 819 9 494 109 
L 494 744 
Q 775 591 1075 516 
Q 1375 441 1709 441 
Q 2250 441 2565 725 
Q 2881 1009 2881 1497 
Q 2881 1984 2565 2268 
Q 2250 2553 1709 2553 
Q 1456 2553 1204 2497 
Q 953 2441 691 2322 
L 691 4666 
z
" transform="scale(0.015625)"/>
       </defs>
       <use xlink:href="#DejaVuSans-30"/>
       <use xlink:href="#DejaVuSans-2e" x="63.623047"/>
       <use xlink:href="#DejaVuSans-35" x="95.410156"/>
      </g>
     </g>
    </g>
    <g id="ytick_6">
     <g id="line2d_32">
      <path d="M 64.24625 74.111535 
L 733.84625 74.111535 
" clip-path="url(#p2207dc66f6)" style="fill: none; stroke-dasharray: 1.85,0.8; stroke-dashoffset: 0; stroke: #b0b0b0; stroke-width: 0.5"/>
     </g>
     <g id="line2d_33">
      <g>
       <use xlink:href="#m8ed7c54ac0" x="64.24625" y="74.111535" style="stroke: #000000; stroke-width: 0.8"/>
      </g>
     </g>
     <g id="text_9">
      <!-- 0.6 -->
      <g transform="translate(28.620625 80.950129) scale(0.18 -0.18)">
       <defs>
        <path id="DejaVuSans-36" d="M 2113 2584 
Q 1688 2584 1439 2293 
Q 1191 2003 1191 1497 
Q 1191 994 1439 701 
Q 1688 409 2113 409 
Q 2538 409 2786 701 
Q 3034 994 3034 1497 
Q 3034 2003 2786 2293 
Q 2538 2584 2113 2584 
z
M 3366 4563 
L 3366 3988 
Q 3128 4100 2886 4159 
Q 2644 4219 2406 4219 
Q 1781 4219 1451 3797 
Q 1122 3375 1075 2522 
Q 1259 2794 1537 2939 
Q 1816 3084 2150 3084 
Q 2853 3084 3261 2657 
Q 3669 2231 3669 1497 
Q 3669 778 3244 343 
Q 2819 -91 2113 -91 
Q 1303 -91 875 529 
Q 447 1150 447 2328 
Q 447 3434 972 4092 
Q 1497 4750 2381 4750 
Q 2619 4750 2861 4703 
Q 3103 4656 3366 4563 
z
" transform="scale(0.015625)"/>
       </defs>
       <use xlink:href="#DejaVuSans-30"/>
       <use xlink:href="#DejaVuSans-2e" x="63.623047"/>
       <use xlink:href="#DejaVuSans-36" x="95.410156"/>
      </g>
     </g>
    </g>
    <g id="text_10">
     <!-- Normalized Performance -->
     <g transform="translate(20.877187 367.607813) rotate(-90) scale(0.18 -0.18)">
      <defs>
       <path id="DejaVuSans-4e" d="M 628 4666 
L 1478 4666 
L 3547 763 
L 3547 4666 
L 4159 4666 
L 4159 0 
L 3309 0 
L 1241 3903 
L 1241 0 
L 628 0 
L 628 4666 
z
" transform="scale(0.015625)"/>
       <path id="DejaVuSans-72" d="M 2631 2963 
Q 2534 3019 2420 3045 
Q 2306 3072 2169 3072 
Q 1681 3072 1420 2755 
Q 1159 2438 1159 1844 
L 1159 0 
L 581 0 
L 581 3500 
L 1159 3500 
L 1159 2956 
Q 1341 3275 1631 3429 
Q 1922 3584 2338 3584 
Q 2397 3584 2469 3576 
Q 2541 3569 2628 3553 
L 2631 2963 
z
" transform="scale(0.015625)"/>
       <path id="DejaVuSans-6d" d="M 3328 2828 
Q 3544 3216 3844 3400 
Q 4144 3584 4550 3584 
Q 5097 3584 5394 3201 
Q 5691 2819 5691 2113 
L 5691 0 
L 5113 0 
L 5113 2094 
Q 5113 2597 4934 2840 
Q 4756 3084 4391 3084 
Q 3944 3084 3684 2787 
Q 3425 2491 3425 1978 
L 3425 0 
L 2847 0 
L 2847 2094 
Q 2847 2600 2669 2842 
Q 2491 3084 2119 3084 
Q 1678 3084 1418 2786 
Q 1159 2488 1159 1978 
L 1159 0 
L 581 0 
L 581 3500 
L 1159 3500 
L 1159 2956 
Q 1356 3278 1631 3431 
Q 1906 3584 2284 3584 
Q 2666 3584 2933 3390 
Q 3200 3197 3328 2828 
z
" transform="scale(0.015625)"/>
       <path id="DejaVuSans-61" d="M 2194 1759 
Q 1497 1759 1228 1600 
Q 959 1441 959 1056 
Q 959 750 1161 570 
Q 1363 391 1709 391 
Q 2188 391 2477 730 
Q 2766 1069 2766 1631 
L 2766 1759 
L 2194 1759 
z
M 3341 1997 
L 3341 0 
L 2766 0 
L 2766 531 
Q 2569 213 2275 61 
Q 1981 -91 1556 -91 
Q 1019 -91 701 211 
Q 384 513 384 1019 
Q 384 1609 779 1909 
Q 1175 2209 1959 2209 
L 2766 2209 
L 2766 2266 
Q 2766 2663 2505 2880 
Q 2244 3097 1772 3097 
Q 1472 3097 1187 3025 
Q 903 2953 641 2809 
L 641 3341 
Q 956 3463 1253 3523 
Q 1550 3584 1831 3584 
Q 2591 3584 2966 3190 
Q 3341 2797 3341 1997 
z
" transform="scale(0.015625)"/>
       <path id="DejaVuSans-6c" d="M 603 4863 
L 1178 4863 
L 1178 0 
L 603 0 
L 603 4863 
z
" transform="scale(0.015625)"/>
       <path id="DejaVuSans-7a" d="M 353 3500 
L 3084 3500 
L 3084 2975 
L 922 459 
L 3084 459 
L 3084 0 
L 275 0 
L 275 525 
L 2438 3041 
L 353 3041 
L 353 3500 
z
" transform="scale(0.015625)"/>
       <path id="DejaVuSans-50" d="M 1259 4147 
L 1259 2394 
L 2053 2394 
Q 2494 2394 2734 2622 
Q 2975 2850 2975 3272 
Q 2975 3691 2734 3919 
Q 2494 4147 2053 4147 
L 1259 4147 
z
M 628 4666 
L 2053 4666 
Q 2838 4666 3239 4311 
Q 3641 3956 3641 3272 
Q 3641 2581 3239 2228 
Q 2838 1875 2053 1875 
L 1259 1875 
L 1259 0 
L 628 0 
L 628 4666 
z
" transform="scale(0.015625)"/>
       <path id="DejaVuSans-66" d="M 2375 4863 
L 2375 4384 
L 1825 4384 
Q 1516 4384 1395 4259 
Q 1275 4134 1275 3809 
L 1275 3500 
L 2222 3500 
L 2222 3053 
L 1275 3053 
L 1275 0 
L 697 0 
L 697 3053 
L 147 3053 
L 147 3500 
L 697 3500 
L 697 3744 
Q 697 4328 969 4595 
Q 1241 4863 1831 4863 
L 2375 4863 
z
" transform="scale(0.015625)"/>
      </defs>
      <use xlink:href="#DejaVuSans-4e"/>
      <use xlink:href="#DejaVuSans-6f" x="74.804688"/>
      <use xlink:href="#DejaVuSans-72" x="135.986328"/>
      <use xlink:href="#DejaVuSans-6d" x="175.349609"/>
      <use xlink:href="#DejaVuSans-61" x="272.761719"/>
      <use xlink:href="#DejaVuSans-6c" x="334.041016"/>
      <use xlink:href="#DejaVuSans-69" x="361.824219"/>
      <use xlink:href="#DejaVuSans-7a" x="389.607422"/>
      <use xlink:href="#DejaVuSans-65" x="442.097656"/>
      <use xlink:href="#DejaVuSans-64" x="503.621094"/>
      <use xlink:href="#DejaVuSans-20" x="567.097656"/>
      <use xlink:href="#DejaVuSans-50" x="598.884766"/>
      <use xlink:href="#DejaVuSans-65" x="655.5625"/>
      <use xlink:href="#DejaVuSans-72" x="717.085938"/>
      <use xlink:href="#DejaVuSans-66" x="758.199219"/>
      <use xlink:href="#DejaVuSans-6f" x="793.404297"/>
      <use xlink:href="#DejaVuSans-72" x="854.585938"/>
      <use xlink:href="#DejaVuSans-6d" x="893.949219"/>
      <use xlink:href="#DejaVuSans-61" x="991.361328"/>
      <use xlink:href="#DejaVuSans-6e" x="1052.640625"/>
      <use xlink:href="#DejaVuSans-63" x="1116.019531"/>
      <use xlink:href="#DejaVuSans-65" x="1171"/>
     </g>
    </g>
   </g>
   <g id="line2d_34">
    <path d="M 94.682614 407.946581 
L 190.970845 407.946581 
L 247.295849 407.946581 
L 287.259076 407.946581 
L 318.256962 407.946581 
L 343.58408 407.946581 
L 364.997853 407.946581 
L 383.547307 407.946581 
L 399.909084 407.946581 
L 414.545193 407.946581 
L 427.785164 407.946581 
L 439.872311 407.946581 
L 450.991408 407.946581 
L 461.286084 407.946581 
L 470.870198 407.946581 
L 479.835538 407.946581 
L 488.25718 407.946581 
L 496.197315 407.946581 
L 503.708039 407.946581 
L 510.833424 407.946581 
L 517.611088 407.946581 
L 524.073395 407.946581 
L 530.248392 407.946581 
L 536.160542 407.946581 
L 541.831311 407.946581 
L 547.279639 407.946581 
L 552.52232 407.946581 
L 557.574315 407.946581 
L 562.44901 407.946581 
L 567.158429 407.946581 
L 571.713412 407.946581 
L 576.123769 407.946581 
L 580.3984 407.946581 
L 584.545411 407.946581 
L 588.572202 407.946581 
L 592.485546 407.946581 
L 596.291663 407.946581 
L 599.99627 407.946581 
L 603.604643 407.946581 
L 607.121655 407.946581 
L 610.551819 407.946581 
L 613.899319 407.946581 
L 617.168048 407.946581 
L 620.361626 407.946581 
L 623.483433 407.946581 
L 626.536623 407.946581 
L 629.524148 407.946581 
L 632.448773 407.946581 
L 635.313092 407.946581 
L 638.119542 407.946581 
L 640.870415 407.946581 
L 643.56787 407.946581 
L 646.213941 407.946581 
L 648.810551 407.946581 
L 651.359513 407.946581 
L 653.862546 407.946581 
L 656.321275 407.946581 
L 658.737241 407.946581 
L 661.111906 407.946581 
L 663.44666 407.946581 
L 665.74282 407.946581 
L 668.001643 407.946581 
L 670.224324 407.946581 
L 672.412 407.946581 
L 674.565757 407.946581 
L 676.686631 407.946581 
L 678.775611 407.946581 
L 680.833642 407.946581 
L 682.861628 407.946581 
L 684.860433 407.946581 
L 686.830885 407.946581 
L 688.773777 407.946581 
L 690.689871 407.946581 
L 692.579894 407.946581 
L 694.444547 407.946581 
L 696.284501 407.946581 
L 698.100404 407.946581 
L 699.892874 407.946581 
L 701.66251 407.946581 
L 703.409886 407.946581 
" clip-path="url(#p2207dc66f6)" style="fill: none; stroke-dasharray: 5.55,2.4; stroke-dashoffset: 0; stroke: #fdc086; stroke-width: 1.5"/>
   </g>
   <g id="line2d_35">
    <path d="M 94.682614 260.800856 
L 190.970845 260.800856 
L 247.295849 260.800856 
L 287.259076 260.800856 
L 318.256962 260.800856 
L 343.58408 260.800856 
L 364.997853 260.800856 
L 383.547307 260.800856 
L 399.909084 260.800856 
L 414.545193 260.800856 
L 427.785164 260.800856 
L 439.872311 260.800856 
L 450.991408 260.800856 
L 461.286084 260.800856 
L 470.870198 260.800856 
L 479.835538 260.800856 
L 488.25718 260.800856 
L 496.197315 260.800856 
L 503.708039 260.800856 
L 510.833424 260.800856 
L 517.611088 260.800856 
L 524.073395 260.800856 
L 530.248392 260.800856 
L 536.160542 260.800856 
L 541.831311 260.800856 
L 547.279639 260.800856 
L 552.52232 260.800856 
L 557.574315 260.800856 
L 562.44901 260.800856 
L 567.158429 260.800856 
L 571.713412 260.800856 
L 576.123769 260.800856 
L 580.3984 260.800856 
L 584.545411 260.800856 
L 588.572202 260.800856 
L 592.485546 260.800856 
L 596.291663 260.800856 
L 599.99627 260.800856 
L 603.604643 260.800856 
L 607.121655 260.800856 
L 610.551819 260.800856 
L 613.899319 260.800856 
L 617.168048 260.800856 
L 620.361626 260.800856 
L 623.483433 260.800856 
L 626.536623 260.800856 
L 629.524148 260.800856 
L 632.448773 260.800856 
L 635.313092 260.800856 
L 638.119542 260.800856 
L 640.870415 260.800856 
L 643.56787 260.800856 
L 646.213941 260.800856 
L 648.810551 260.800856 
L 651.359513 260.800856 
L 653.862546 260.800856 
L 656.321275 260.800856 
L 658.737241 260.800856 
L 661.111906 260.800856 
L 663.44666 260.800856 
L 665.74282 260.800856 
L 668.001643 260.800856 
L 670.224324 260.800856 
L 672.412 260.800856 
L 674.565757 260.800856 
L 676.686631 260.800856 
L 678.775611 260.800856 
L 680.833642 260.800856 
L 682.861628 260.800856 
L 684.860433 260.800856 
L 686.830885 260.800856 
L 688.773777 260.800856 
L 690.689871 260.800856 
L 692.579894 260.800856 
L 694.444547 260.800856 
L 696.284501 260.800856 
L 698.100404 260.800856 
L 699.892874 260.800856 
L 701.66251 260.800856 
L 703.409886 260.800856 
" clip-path="url(#p2207dc66f6)" style="fill: none; stroke-dasharray: 5.55,2.4; stroke-dashoffset: 0; stroke: #beaed4; stroke-width: 1.5"/>
   </g>
   <g id="line2d_36">
    <path d="M 94.682614 399.621336 
L 190.970845 354.758348 
L 247.295849 323.514518 
L 287.259076 297.936802 
L 318.256962 283.563368 
L 343.58408 266.77782 
L 364.997853 260.666647 
L 383.547307 251.503249 
L 399.909084 243.750058 
L 414.545193 234.845166 
L 427.785164 227.892092 
L 439.872311 222.280076 
L 450.991408 214.116232 
L 461.286084 209.515205 
L 470.870198 205.751914 
L 479.835538 201.003693 
L 488.25718 197.364743 
L 496.197315 194.619222 
L 503.708039 192.884991 
L 510.833424 190.255194 
L 517.611088 188.346731 
L 524.073395 186.718707 
L 530.248392 183.618577 
L 536.160542 181.020738 
L 541.831311 177.381902 
L 547.279639 174.186223 
L 552.52232 170.173848 
L 557.574315 169.232227 
L 562.44901 168.086 
L 567.158429 166.814842 
L 571.713412 165.389091 
L 576.123769 162.735206 
L 580.3984 160.891049 
L 584.545411 157.402314 
L 588.572202 155.518282 
L 592.485546 154.554886 
L 596.291663 152.852231 
L 599.99627 151.815179 
L 603.604643 150.250503 
L 607.121655 149.603102 
L 610.551819 148.880558 
L 613.899319 145.762809 
L 617.168048 142.455061 
L 620.361626 139.766818 
L 623.483433 139.286766 
L 626.536623 139.197724 
L 629.524148 138.351968 
L 632.448773 136.797752 
L 635.313092 134.867051 
L 638.119542 134.250052 
L 640.870415 132.332474 
L 643.56787 130.92713 
L 646.213941 130.313284 
L 648.810551 129.244639 
L 651.359513 127.806337 
L 653.862546 127.406953 
L 656.321275 126.471413 
L 658.737241 125.345539 
L 661.111906 125.194717 
L 663.44666 125.000818 
L 665.74282 123.956055 
L 668.001643 122.379532 
L 670.224324 120.768186 
L 672.412 120.149857 
L 674.565757 118.794027 
L 676.686631 117.638302 
L 678.775611 116.847215 
L 680.833642 116.427722 
L 682.861628 114.951172 
L 684.860433 114.475516 
L 686.830885 113.108248 
L 688.773777 112.961633 
L 690.689871 112.508415 
L 692.579894 111.912659 
L 694.444547 111.853221 
L 696.284501 111.804121 
L 698.100404 111.274645 
L 699.892874 109.77048 
L 701.66251 109.522525 
L 703.409886 108.557916 
" clip-path="url(#p2207dc66f6)" style="fill: none; stroke: #7fc97f; stroke-width: 1.5; stroke-linecap: square"/>
   </g>
   <g id="line2d_37">
    <path d="M 94.682614 360.203069 
L 190.970845 356.391967 
L 247.295849 356.355734 
L 287.259076 307.443508 
L 318.256962 289.508644 
L 343.58408 278.50934 
L 364.997853 267.515361 
L 383.547307 262.826769 
L 399.909084 255.088527 
L 414.545193 250.159796 
L 427.785164 240.665716 
L 439.872311 231.981493 
L 450.991408 223.152187 
L 461.286084 218.109768 
L 470.870198 215.015022 
L 479.835538 207.06033 
L 488.25718 202.130661 
L 496.197315 197.253212 
L 503.708039 189.284504 
L 510.833424 179.894218 
L 517.611088 173.789871 
L 524.073395 167.690807 
L 530.248392 161.974257 
L 536.160542 154.713282 
L 541.831311 150.428435 
L 547.279639 148.996068 
L 552.52232 146.011831 
L 557.574315 139.181799 
L 562.44901 135.732436 
L 567.158429 130.942054 
L 571.713412 125.115051 
L 576.123769 121.20171 
L 580.3984 119.750506 
L 584.545411 114.59011 
L 588.572202 108.957991 
L 592.485546 108.138498 
L 596.291663 106.130841 
L 599.99627 104.304804 
L 603.604643 103.100401 
L 607.121655 100.667053 
L 610.551819 98.28311 
L 613.899319 96.09412 
L 617.168048 94.614552 
L 620.361626 93.64847 
L 623.483433 92.535789 
L 626.536623 90.253138 
L 629.524148 89.907747 
L 632.448773 88.807621 
L 635.313092 87.911438 
L 638.119542 87.596424 
L 640.870415 87.021882 
L 643.56787 85.482778 
L 646.213941 85.079647 
L 648.810551 84.490077 
L 651.359513 83.956732 
L 653.862546 83.35646 
L 656.321275 82.639815 
L 658.737241 82.028353 
L 661.111906 81.837824 
L 663.44666 80.920786 
L 665.74282 80.38194 
L 668.001643 80.030917 
L 670.224324 78.706759 
L 672.412 78.352937 
L 674.565757 76.699891 
L 676.686631 76.571074 
L 678.775611 74.909118 
L 680.833642 73.80046 
L 682.861628 73.769575 
L 684.860433 73.695318 
L 686.830885 73.514284 
L 688.773777 73.273633 
L 690.689871 73.261451 
L 692.579894 72.783847 
L 694.444547 71.805826 
L 696.284501 71.107682 
L 698.100404 70.856279 
L 699.892874 70.814449 
L 701.66251 68.637101 
L 703.409886 68.551944 
" clip-path="url(#p2207dc66f6)" style="fill: none; stroke: #bf5b17; stroke-width: 1.5; stroke-linecap: square"/>
   </g>
   <g id="line2d_38">
    <path d="M 94.682614 360.203069 
L 190.970845 342.068343 
L 247.295849 306.969281 
L 287.259076 306.67006 
L 318.256962 306.664035 
L 343.58408 306.654039 
L 364.997853 306.652215 
L 383.547307 291.99833 
L 399.909084 286.271779 
L 414.545193 286.271604 
L 427.785164 279.382105 
L 439.872311 276.739177 
L 450.991408 276.739177 
L 461.286084 276.738641 
L 470.870198 272.933655 
L 479.835538 247.739303 
L 488.25718 247.171156 
L 496.197315 247.171156 
L 503.708039 247.171156 
L 510.833424 247.171156 
L 517.611088 246.373912 
L 524.073395 246.373912 
L 530.248392 246.373912 
L 536.160542 188.612454 
L 541.831311 188.612454 
L 547.279639 188.28116 
L 552.52232 188.180275 
L 557.574315 186.940885 
L 562.44901 186.940885 
L 567.158429 185.316153 
L 571.713412 185.316153 
L 576.123769 184.96466 
L 580.3984 184.96466 
L 584.545411 183.962175 
L 588.572202 182.931988 
L 592.485546 181.157453 
L 596.291663 181.157453 
L 599.99627 181.157453 
L 603.604643 181.157453 
L 607.121655 181.106794 
L 610.551819 181.001719 
L 613.899319 180.928776 
L 617.168048 180.928776 
L 620.361626 180.928776 
L 623.483433 180.928776 
L 626.536623 180.928776 
L 629.524148 180.928776 
L 632.448773 168.843205 
L 635.313092 168.843205 
L 638.119542 168.843205 
L 640.870415 168.828441 
L 643.56787 168.828441 
L 646.213941 168.828441 
L 648.810551 168.828441 
L 651.359513 168.816868 
L 653.862546 167.46075 
L 656.321275 167.457028 
L 658.737241 167.457028 
L 661.111906 167.153721 
L 663.44666 166.583334 
L 665.74282 166.583334 
L 668.001643 166.583334 
L 670.224324 166.471443 
L 672.412 165.982888 
L 674.565757 165.982888 
L 676.686631 165.836421 
L 678.775611 165.836421 
L 680.833642 165.445188 
L 682.861628 165.441045 
L 684.860433 165.441045 
L 686.830885 165.441045 
L 688.773777 165.441045 
L 690.689871 165.295634 
L 692.579894 165.257506 
L 694.444547 165.257506 
L 696.284501 165.257506 
L 698.100404 165.257506 
L 699.892874 165.257506 
L 701.66251 165.196007 
L 703.409886 165.196007 
" clip-path="url(#p2207dc66f6)" style="fill: none; stroke: #f0027f; stroke-width: 1.5; stroke-linecap: square"/>
   </g>
   <g id="line2d_39">
    <path d="M 94.682614 360.203069 
L 190.970845 342.068343 
L 247.295849 306.969281 
L 287.259076 306.67006 
L 318.256962 306.664035 
L 343.58408 306.654039 
L 364.997853 306.635182 
L 383.547307 297.26754 
L 399.909084 287.865496 
L 414.545193 282.415649 
L 427.785164 272.889683 
L 439.872311 264.005943 
L 450.991408 259.414531 
L 461.286084 251.733661 
L 470.870198 245.370297 
L 479.835538 236.609396 
L 488.25718 228.669978 
L 496.197315 221.748899 
L 503.708039 213.672339 
L 510.833424 209.258267 
L 517.611088 202.35522 
L 524.073395 194.888484 
L 530.248392 188.596086 
L 536.160542 179.37444 
L 541.831311 173.576625 
L 547.279639 166.547334 
L 552.52232 160.975821 
L 557.574315 152.196022 
L 562.44901 146.559473 
L 567.158429 141.168081 
L 571.713412 136.729741 
L 576.123769 133.290258 
L 580.3984 130.684345 
L 584.545411 127.158349 
L 588.572202 125.656743 
L 592.485546 121.231889 
L 596.291663 118.158023 
L 599.99627 115.927324 
L 603.604643 114.240751 
L 607.121655 113.000815 
L 610.551819 111.384773 
L 613.899319 109.789343 
L 617.168048 109.449384 
L 620.361626 107.523728 
L 623.483433 105.158391 
L 626.536623 104.403703 
L 629.524148 103.608747 
L 632.448773 102.566579 
L 635.313092 101.401531 
L 638.119542 100.946033 
L 640.870415 99.902389 
L 643.56787 98.771274 
L 646.213941 97.824305 
L 648.810551 97.671972 
L 651.359513 97.105783 
L 653.862546 96.705552 
L 656.321275 96.481473 
L 658.737241 96.016293 
L 661.111906 95.707954 
L 663.44666 94.617786 
L 665.74282 93.418825 
L 668.001643 92.562702 
L 670.224324 92.341837 
L 672.412 91.110896 
L 674.565757 91.029446 
L 676.686631 90.588276 
L 678.775611 90.412031 
L 680.833642 90.379188 
L 682.861628 89.88574 
L 684.860433 89.496497 
L 686.830885 88.040621 
L 688.773777 85.876211 
L 690.689871 85.424371 
L 692.579894 83.672255 
L 694.444547 82.865375 
L 696.284501 82.105297 
L 698.100404 80.818355 
L 699.892874 80.371538 
L 701.66251 80.27193 
L 703.409886 79.352549 
" clip-path="url(#p2207dc66f6)" style="fill: none; stroke: #386cb0; stroke-width: 1.5; stroke-linecap: square"/>
   </g>
   <g id="line2d_40">
    <path d="M 94.682614 159.972816 
L 190.970845 133.244698 
L 247.295849 105.709465 
L 287.259076 94.834151 
L 318.256962 86.521523 
L 343.58408 82.534677 
L 364.997853 78.202731 
L 383.547307 77.22262 
L 399.909084 76.313968 
L 414.545193 76.212022 
L 427.785164 76.181572 
L 439.872311 76.181572 
L 450.991408 76.181572 
L 461.286084 75.85849 
L 470.870198 75.85849 
L 479.835538 75.858409 
L 488.25718 75.854492 
L 496.197315 75.854492 
L 503.708039 75.854492 
L 510.833424 75.854492 
L 517.611088 75.84538 
L 524.073395 75.84538 
L 530.248392 75.7054 
L 536.160542 75.7054 
L 541.831311 75.7054 
L 547.279639 75.693191 
L 552.52232 75.622315 
L 557.574315 75.619894 
L 562.44901 75.619894 
L 567.158429 75.619894 
L 571.713412 75.619894 
L 576.123769 75.619894 
L 580.3984 75.619894 
L 584.545411 75.6177 
L 588.572202 75.525632 
L 592.485546 75.525632 
L 596.291663 75.525632 
L 599.99627 75.525632 
L 603.604643 75.504895 
L 607.121655 75.504127 
L 610.551819 75.504127 
L 613.899319 75.504127 
L 617.168048 75.504127 
L 620.361626 75.504127 
L 623.483433 75.435068 
L 626.536623 75.435068 
L 629.524148 75.435068 
L 632.448773 75.435068 
L 635.313092 75.435068 
L 638.119542 75.432604 
L 640.870415 75.432604 
L 643.56787 75.432604 
L 646.213941 75.432604 
L 648.810551 75.422087 
L 651.359513 75.422087 
L 653.862546 75.396278 
L 656.321275 75.390953 
L 658.737241 75.370202 
L 661.111906 75.370202 
L 663.44666 75.370202 
L 665.74282 75.370202 
L 668.001643 75.370062 
L 670.224324 75.369607 
L 672.412 75.369607 
L 674.565757 75.369607 
L 676.686631 75.362073 
L 678.775611 75.362073 
L 680.833642 75.362073 
L 682.861628 75.360208 
L 684.860433 75.360208 
L 686.830885 75.360208 
L 688.773777 75.357926 
L 690.689871 75.357926 
L 692.579894 75.357926 
L 694.444547 75.357926 
L 696.284501 75.336082 
L 698.100404 75.336082 
L 699.892874 75.336082 
L 701.66251 75.331413 
L 703.409886 75.331413 
" clip-path="url(#p2207dc66f6)" style="fill: none; stroke-dasharray: 5.55,2.4; stroke-dashoffset: 0; stroke: #666666; stroke-width: 1.5"/>
   </g>
   <g id="patch_3">
    <path d="M 64.24625 506.16 
L 64.24625 7.2 
" style="fill: none; stroke: #000000; stroke-width: 0.8; stroke-linejoin: miter; stroke-linecap: square"/>
   </g>
   <g id="patch_4">
    <path d="M 733.84625 506.16 
L 733.84625 7.2 
" style="fill: none; stroke: #000000; stroke-width: 0.8; stroke-linejoin: miter; stroke-linecap: square"/>
   </g>
   <g id="patch_5">
    <path d="M 64.24625 506.16 
L 733.84625 506.16 
" style="fill: none; stroke: #000000; stroke-width: 0.8; stroke-linejoin: miter; stroke-linecap: square"/>
   </g>
   <g id="patch_6">
    <path d="M 64.24625 7.2 
L 733.84625 7.2 
" style="fill: none; stroke: #000000; stroke-width: 0.8; stroke-linejoin: miter; stroke-linecap: square"/>
   </g>
   <g id="legend_1">
    <g id="patch_7">
     <path d="M 472.815313 497.16 
L 721.24625 497.16 
Q 724.84625 497.16 724.84625 493.56 
L 724.84625 310.415625 
Q 724.84625 306.815625 721.24625 306.815625 
L 472.815313 306.815625 
Q 469.215313 306.815625 469.215313 310.415625 
L 469.215313 493.56 
Q 469.215313 497.16 472.815313 497.16 
z
" style="fill: #ffffff; opacity: 0.8; stroke: #cccccc; stroke-linejoin: miter"/>
    </g>
    <g id="line2d_41">
     <path d="M 476.415313 321.392813 
L 494.415313 321.392813 
L 512.415313 321.392813 
" style="fill: none; stroke-dasharray: 5.55,2.4; stroke-dashoffset: 0; stroke: #fdc086; stroke-width: 1.5"/>
    </g>
    <g id="text_11">
     <!-- Independent Training -->
     <g transform="translate(526.815313 327.692813) scale(0.18 -0.18)">
      <defs>
       <path id="DejaVuSans-49" d="M 628 4666 
L 1259 4666 
L 1259 0 
L 628 0 
L 628 4666 
z
" transform="scale(0.015625)"/>
       <path id="DejaVuSans-70" d="M 1159 525 
L 1159 -1331 
L 581 -1331 
L 581 3500 
L 1159 3500 
L 1159 2969 
Q 1341 3281 1617 3432 
Q 1894 3584 2278 3584 
Q 2916 3584 3314 3078 
Q 3713 2572 3713 1747 
Q 3713 922 3314 415 
Q 2916 -91 2278 -91 
Q 1894 -91 1617 61 
Q 1341 213 1159 525 
z
M 3116 1747 
Q 3116 2381 2855 2742 
Q 2594 3103 2138 3103 
Q 1681 3103 1420 2742 
Q 1159 2381 1159 1747 
Q 1159 1113 1420 752 
Q 1681 391 2138 391 
Q 2594 391 2855 752 
Q 3116 1113 3116 1747 
z
" transform="scale(0.015625)"/>
       <path id="DejaVuSans-74" d="M 1172 4494 
L 1172 3500 
L 2356 3500 
L 2356 3053 
L 1172 3053 
L 1172 1153 
Q 1172 725 1289 603 
Q 1406 481 1766 481 
L 2356 481 
L 2356 0 
L 1766 0 
Q 1100 0 847 248 
Q 594 497 594 1153 
L 594 3053 
L 172 3053 
L 172 3500 
L 594 3500 
L 594 4494 
L 1172 4494 
z
" transform="scale(0.015625)"/>
       <path id="DejaVuSans-54" d="M -19 4666 
L 3928 4666 
L 3928 4134 
L 2272 4134 
L 2272 0 
L 1638 0 
L 1638 4134 
L -19 4134 
L -19 4666 
z
" transform="scale(0.015625)"/>
       <path id="DejaVuSans-67" d="M 2906 1791 
Q 2906 2416 2648 2759 
Q 2391 3103 1925 3103 
Q 1463 3103 1205 2759 
Q 947 2416 947 1791 
Q 947 1169 1205 825 
Q 1463 481 1925 481 
Q 2391 481 2648 825 
Q 2906 1169 2906 1791 
z
M 3481 434 
Q 3481 -459 3084 -895 
Q 2688 -1331 1869 -1331 
Q 1566 -1331 1297 -1286 
Q 1028 -1241 775 -1147 
L 775 -588 
Q 1028 -725 1275 -790 
Q 1522 -856 1778 -856 
Q 2344 -856 2625 -561 
Q 2906 -266 2906 331 
L 2906 616 
Q 2728 306 2450 153 
Q 2172 0 1784 0 
Q 1141 0 747 490 
Q 353 981 353 1791 
Q 353 2603 747 3093 
Q 1141 3584 1784 3584 
Q 2172 3584 2450 3431 
Q 2728 3278 2906 2969 
L 2906 3500 
L 3481 3500 
L 3481 434 
z
" transform="scale(0.015625)"/>
      </defs>
      <use xlink:href="#DejaVuSans-49"/>
      <use xlink:href="#DejaVuSans-6e" x="29.492188"/>
      <use xlink:href="#DejaVuSans-64" x="92.871094"/>
      <use xlink:href="#DejaVuSans-65" x="156.347656"/>
      <use xlink:href="#DejaVuSans-70" x="217.871094"/>
      <use xlink:href="#DejaVuSans-65" x="281.347656"/>
      <use xlink:href="#DejaVuSans-6e" x="342.871094"/>
      <use xlink:href="#DejaVuSans-64" x="406.25"/>
      <use xlink:href="#DejaVuSans-65" x="469.726562"/>
      <use xlink:href="#DejaVuSans-6e" x="531.25"/>
      <use xlink:href="#DejaVuSans-74" x="594.628906"/>
      <use xlink:href="#DejaVuSans-20" x="633.837891"/>
      <use xlink:href="#DejaVuSans-54" x="665.625"/>
      <use xlink:href="#DejaVuSans-72" x="711.958984"/>
      <use xlink:href="#DejaVuSans-61" x="753.072266"/>
      <use xlink:href="#DejaVuSans-69" x="814.351562"/>
      <use xlink:href="#DejaVuSans-6e" x="842.134766"/>
      <use xlink:href="#DejaVuSans-69" x="905.513672"/>
      <use xlink:href="#DejaVuSans-6e" x="933.296875"/>
      <use xlink:href="#DejaVuSans-67" x="996.675781"/>
     </g>
    </g>
    <g id="line2d_42">
     <path d="M 476.415313 347.813438 
L 494.415313 347.813438 
L 512.415313 347.813438 
" style="fill: none; stroke-dasharray: 5.55,2.4; stroke-dashoffset: 0; stroke: #beaed4; stroke-width: 1.5"/>
    </g>
    <g id="text_12">
     <!-- Multi-task Training -->
     <g transform="translate(526.815313 354.113438) scale(0.18 -0.18)">
      <defs>
       <path id="DejaVuSans-4d" d="M 628 4666 
L 1569 4666 
L 2759 1491 
L 3956 4666 
L 4897 4666 
L 4897 0 
L 4281 0 
L 4281 4097 
L 3078 897 
L 2444 897 
L 1241 4097 
L 1241 0 
L 628 0 
L 628 4666 
z
" transform="scale(0.015625)"/>
       <path id="DejaVuSans-2d" d="M 313 2009 
L 1997 2009 
L 1997 1497 
L 313 1497 
L 313 2009 
z
" transform="scale(0.015625)"/>
       <path id="DejaVuSans-6b" d="M 581 4863 
L 1159 4863 
L 1159 1991 
L 2875 3500 
L 3609 3500 
L 1753 1863 
L 3688 0 
L 2938 0 
L 1159 1709 
L 1159 0 
L 581 0 
L 581 4863 
z
" transform="scale(0.015625)"/>
      </defs>
      <use xlink:href="#DejaVuSans-4d"/>
      <use xlink:href="#DejaVuSans-75" x="86.279297"/>
      <use xlink:href="#DejaVuSans-6c" x="149.658203"/>
      <use xlink:href="#DejaVuSans-74" x="177.441406"/>
      <use xlink:href="#DejaVuSans-69" x="216.650391"/>
      <use xlink:href="#DejaVuSans-2d" x="244.433594"/>
      <use xlink:href="#DejaVuSans-74" x="280.517578"/>
      <use xlink:href="#DejaVuSans-61" x="319.726562"/>
      <use xlink:href="#DejaVuSans-73" x="381.005859"/>
      <use xlink:href="#DejaVuSans-6b" x="433.105469"/>
      <use xlink:href="#DejaVuSans-20" x="491.015625"/>
      <use xlink:href="#DejaVuSans-54" x="522.802734"/>
      <use xlink:href="#DejaVuSans-72" x="569.136719"/>
      <use xlink:href="#DejaVuSans-61" x="610.25"/>
      <use xlink:href="#DejaVuSans-69" x="671.529297"/>
      <use xlink:href="#DejaVuSans-6e" x="699.3125"/>
      <use xlink:href="#DejaVuSans-69" x="762.691406"/>
      <use xlink:href="#DejaVuSans-6e" x="790.474609"/>
      <use xlink:href="#DejaVuSans-67" x="853.853516"/>
     </g>
    </g>
    <g id="line2d_43">
     <path d="M 476.415313 374.234063 
L 494.415313 374.234063 
L 512.415313 374.234063 
" style="fill: none; stroke: #7fc97f; stroke-width: 1.5; stroke-linecap: square"/>
    </g>
    <g id="text_13">
     <!-- Random -->
     <g transform="translate(526.815313 380.534063) scale(0.18 -0.18)">
      <use xlink:href="#DejaVuSans-52"/>
      <use xlink:href="#DejaVuSans-61" x="67.232422"/>
      <use xlink:href="#DejaVuSans-6e" x="128.511719"/>
      <use xlink:href="#DejaVuSans-64" x="191.890625"/>
      <use xlink:href="#DejaVuSans-6f" x="255.367188"/>
      <use xlink:href="#DejaVuSans-6d" x="316.548828"/>
     </g>
    </g>
    <g id="line2d_44">
     <path d="M 476.415313 400.654688 
L 494.415313 400.654688 
L 512.415313 400.654688 
" style="fill: none; stroke: #bf5b17; stroke-width: 1.5; stroke-linecap: square"/>
    </g>
    <g id="text_14">
     <!-- GP-MBTL -->
     <g transform="translate(526.815313 406.954688) scale(0.18 -0.18)">
      <defs>
       <path id="DejaVuSans-47" d="M 3809 666 
L 3809 1919 
L 2778 1919 
L 2778 2438 
L 4434 2438 
L 4434 434 
Q 4069 175 3628 42 
Q 3188 -91 2688 -91 
Q 1594 -91 976 548 
Q 359 1188 359 2328 
Q 359 3472 976 4111 
Q 1594 4750 2688 4750 
Q 3144 4750 3555 4637 
Q 3966 4525 4313 4306 
L 4313 3634 
Q 3963 3931 3569 4081 
Q 3175 4231 2741 4231 
Q 1884 4231 1454 3753 
Q 1025 3275 1025 2328 
Q 1025 1384 1454 906 
Q 1884 428 2741 428 
Q 3075 428 3337 486 
Q 3600 544 3809 666 
z
" transform="scale(0.015625)"/>
       <path id="DejaVuSans-42" d="M 1259 2228 
L 1259 519 
L 2272 519 
Q 2781 519 3026 730 
Q 3272 941 3272 1375 
Q 3272 1813 3026 2020 
Q 2781 2228 2272 2228 
L 1259 2228 
z
M 1259 4147 
L 1259 2741 
L 2194 2741 
Q 2656 2741 2882 2914 
Q 3109 3088 3109 3444 
Q 3109 3797 2882 3972 
Q 2656 4147 2194 4147 
L 1259 4147 
z
M 628 4666 
L 2241 4666 
Q 2963 4666 3353 4366 
Q 3744 4066 3744 3513 
Q 3744 3084 3544 2831 
Q 3344 2578 2956 2516 
Q 3422 2416 3680 2098 
Q 3938 1781 3938 1306 
Q 3938 681 3513 340 
Q 3088 0 2303 0 
L 628 0 
L 628 4666 
z
" transform="scale(0.015625)"/>
       <path id="DejaVuSans-4c" d="M 628 4666 
L 1259 4666 
L 1259 531 
L 3531 531 
L 3531 0 
L 628 0 
L 628 4666 
z
" transform="scale(0.015625)"/>
      </defs>
      <use xlink:href="#DejaVuSans-47"/>
      <use xlink:href="#DejaVuSans-50" x="77.490234"/>
      <use xlink:href="#DejaVuSans-2d" x="135.542969"/>
      <use xlink:href="#DejaVuSans-4d" x="171.626953"/>
      <use xlink:href="#DejaVuSans-42" x="257.90625"/>
      <use xlink:href="#DejaVuSans-54" x="326.509766"/>
      <use xlink:href="#DejaVuSans-4c" x="387.59375"/>
     </g>
    </g>
    <g id="line2d_45">
     <path d="M 476.415313 427.075313 
L 494.415313 427.075313 
L 512.415313 427.075313 
" style="fill: none; stroke: #f0027f; stroke-width: 1.5; stroke-linecap: square"/>
    </g>
    <g id="text_15">
     <!-- SC-MBTL -->
     <g transform="translate(526.815313 433.375313) scale(0.18 -0.18)">
      <defs>
       <path id="DejaVuSans-53" d="M 3425 4513 
L 3425 3897 
Q 3066 4069 2747 4153 
Q 2428 4238 2131 4238 
Q 1616 4238 1336 4038 
Q 1056 3838 1056 3469 
Q 1056 3159 1242 3001 
Q 1428 2844 1947 2747 
L 2328 2669 
Q 3034 2534 3370 2195 
Q 3706 1856 3706 1288 
Q 3706 609 3251 259 
Q 2797 -91 1919 -91 
Q 1588 -91 1214 -16 
Q 841 59 441 206 
L 441 856 
Q 825 641 1194 531 
Q 1563 422 1919 422 
Q 2459 422 2753 634 
Q 3047 847 3047 1241 
Q 3047 1584 2836 1778 
Q 2625 1972 2144 2069 
L 1759 2144 
Q 1053 2284 737 2584 
Q 422 2884 422 3419 
Q 422 4038 858 4394 
Q 1294 4750 2059 4750 
Q 2388 4750 2728 4690 
Q 3069 4631 3425 4513 
z
" transform="scale(0.015625)"/>
       <path id="DejaVuSans-43" d="M 4122 4306 
L 4122 3641 
Q 3803 3938 3442 4084 
Q 3081 4231 2675 4231 
Q 1875 4231 1450 3742 
Q 1025 3253 1025 2328 
Q 1025 1406 1450 917 
Q 1875 428 2675 428 
Q 3081 428 3442 575 
Q 3803 722 4122 1019 
L 4122 359 
Q 3791 134 3420 21 
Q 3050 -91 2638 -91 
Q 1578 -91 968 557 
Q 359 1206 359 2328 
Q 359 3453 968 4101 
Q 1578 4750 2638 4750 
Q 3056 4750 3426 4639 
Q 3797 4528 4122 4306 
z
" transform="scale(0.015625)"/>
      </defs>
      <use xlink:href="#DejaVuSans-53"/>
      <use xlink:href="#DejaVuSans-43" x="63.476562"/>
      <use xlink:href="#DejaVuSans-2d" x="133.300781"/>
      <use xlink:href="#DejaVuSans-4d" x="169.384766"/>
      <use xlink:href="#DejaVuSans-42" x="255.664062"/>
      <use xlink:href="#DejaVuSans-54" x="324.267578"/>
      <use xlink:href="#DejaVuSans-4c" x="385.351562"/>
     </g>
    </g>
    <g id="line2d_46">
     <path d="M 476.415313 453.495938 
L 494.415313 453.495938 
L 512.415313 453.495938 
" style="fill: none; stroke: #386cb0; stroke-width: 1.5; stroke-linecap: square"/>
    </g>
    <g id="text_16">
     <!-- Hybrid-MBTL (Ours) -->
     <g transform="translate(526.815313 459.795938) scale(0.18 -0.18)">
      <defs>
       <path id="DejaVuSans-48" d="M 628 4666 
L 1259 4666 
L 1259 2753 
L 3553 2753 
L 3553 4666 
L 4184 4666 
L 4184 0 
L 3553 0 
L 3553 2222 
L 1259 2222 
L 1259 0 
L 628 0 
L 628 4666 
z
" transform="scale(0.015625)"/>
       <path id="DejaVuSans-79" d="M 2059 -325 
Q 1816 -950 1584 -1140 
Q 1353 -1331 966 -1331 
L 506 -1331 
L 506 -850 
L 844 -850 
Q 1081 -850 1212 -737 
Q 1344 -625 1503 -206 
L 1606 56 
L 191 3500 
L 800 3500 
L 1894 763 
L 2988 3500 
L 3597 3500 
L 2059 -325 
z
" transform="scale(0.015625)"/>
       <path id="DejaVuSans-62" d="M 3116 1747 
Q 3116 2381 2855 2742 
Q 2594 3103 2138 3103 
Q 1681 3103 1420 2742 
Q 1159 2381 1159 1747 
Q 1159 1113 1420 752 
Q 1681 391 2138 391 
Q 2594 391 2855 752 
Q 3116 1113 3116 1747 
z
M 1159 2969 
Q 1341 3281 1617 3432 
Q 1894 3584 2278 3584 
Q 2916 3584 3314 3078 
Q 3713 2572 3713 1747 
Q 3713 922 3314 415 
Q 2916 -91 2278 -91 
Q 1894 -91 1617 61 
Q 1341 213 1159 525 
L 1159 0 
L 581 0 
L 581 4863 
L 1159 4863 
L 1159 2969 
z
" transform="scale(0.015625)"/>
       <path id="DejaVuSans-28" d="M 1984 4856 
Q 1566 4138 1362 3434 
Q 1159 2731 1159 2009 
Q 1159 1288 1364 580 
Q 1569 -128 1984 -844 
L 1484 -844 
Q 1016 -109 783 600 
Q 550 1309 550 2009 
Q 550 2706 781 3412 
Q 1013 4119 1484 4856 
L 1984 4856 
z
" transform="scale(0.015625)"/>
       <path id="DejaVuSans-4f" d="M 2522 4238 
Q 1834 4238 1429 3725 
Q 1025 3213 1025 2328 
Q 1025 1447 1429 934 
Q 1834 422 2522 422 
Q 3209 422 3611 934 
Q 4013 1447 4013 2328 
Q 4013 3213 3611 3725 
Q 3209 4238 2522 4238 
z
M 2522 4750 
Q 3503 4750 4090 4092 
Q 4678 3434 4678 2328 
Q 4678 1225 4090 567 
Q 3503 -91 2522 -91 
Q 1538 -91 948 565 
Q 359 1222 359 2328 
Q 359 3434 948 4092 
Q 1538 4750 2522 4750 
z
" transform="scale(0.015625)"/>
       <path id="DejaVuSans-29" d="M 513 4856 
L 1013 4856 
Q 1481 4119 1714 3412 
Q 1947 2706 1947 2009 
Q 1947 1309 1714 600 
Q 1481 -109 1013 -844 
L 513 -844 
Q 928 -128 1133 580 
Q 1338 1288 1338 2009 
Q 1338 2731 1133 3434 
Q 928 4138 513 4856 
z
" transform="scale(0.015625)"/>
      </defs>
      <use xlink:href="#DejaVuSans-48"/>
      <use xlink:href="#DejaVuSans-79" x="75.195312"/>
      <use xlink:href="#DejaVuSans-62" x="134.375"/>
      <use xlink:href="#DejaVuSans-72" x="197.851562"/>
      <use xlink:href="#DejaVuSans-69" x="238.964844"/>
      <use xlink:href="#DejaVuSans-64" x="266.748047"/>
      <use xlink:href="#DejaVuSans-2d" x="330.224609"/>
      <use xlink:href="#DejaVuSans-4d" x="366.308594"/>
      <use xlink:href="#DejaVuSans-42" x="452.587891"/>
      <use xlink:href="#DejaVuSans-54" x="521.191406"/>
      <use xlink:href="#DejaVuSans-4c" x="582.275391"/>
      <use xlink:href="#DejaVuSans-20" x="637.988281"/>
      <use xlink:href="#DejaVuSans-28" x="669.775391"/>
      <use xlink:href="#DejaVuSans-4f" x="708.789062"/>
      <use xlink:href="#DejaVuSans-75" x="787.5"/>
      <use xlink:href="#DejaVuSans-72" x="850.878906"/>
      <use xlink:href="#DejaVuSans-73" x="891.992188"/>
      <use xlink:href="#DejaVuSans-29" x="944.091797"/>
     </g>
    </g>
    <g id="line2d_47">
     <path d="M 476.415313 479.916563 
L 494.415313 479.916563 
L 512.415313 479.916563 
" style="fill: none; stroke-dasharray: 5.55,2.4; stroke-dashoffset: 0; stroke: #666666; stroke-width: 1.5"/>
    </g>
    <g id="text_17">
     <!-- Stochastic Oracle -->
     <g transform="translate(526.815313 486.216563) scale(0.18 -0.18)">
      <defs>
       <path id="DejaVuSans-68" d="M 3513 2113 
L 3513 0 
L 2938 0 
L 2938 2094 
Q 2938 2591 2744 2837 
Q 2550 3084 2163 3084 
Q 1697 3084 1428 2787 
Q 1159 2491 1159 1978 
L 1159 0 
L 581 0 
L 581 4863 
L 1159 4863 
L 1159 2956 
Q 1366 3272 1645 3428 
Q 1925 3584 2291 3584 
Q 2894 3584 3203 3211 
Q 3513 2838 3513 2113 
z
" transform="scale(0.015625)"/>
      </defs>
      <use xlink:href="#DejaVuSans-53"/>
      <use xlink:href="#DejaVuSans-74" x="63.476562"/>
      <use xlink:href="#DejaVuSans-6f" x="102.685547"/>
      <use xlink:href="#DejaVuSans-63" x="163.867188"/>
      <use xlink:href="#DejaVuSans-68" x="218.847656"/>
      <use xlink:href="#DejaVuSans-61" x="282.226562"/>
      <use xlink:href="#DejaVuSans-73" x="343.505859"/>
      <use xlink:href="#DejaVuSans-74" x="395.605469"/>
      <use xlink:href="#DejaVuSans-69" x="434.814453"/>
      <use xlink:href="#DejaVuSans-63" x="462.597656"/>
      <use xlink:href="#DejaVuSans-20" x="517.578125"/>
      <use xlink:href="#DejaVuSans-4f" x="549.365234"/>
      <use xlink:href="#DejaVuSans-72" x="628.076172"/>
      <use xlink:href="#DejaVuSans-61" x="669.189453"/>
      <use xlink:href="#DejaVuSans-63" x="730.46875"/>
      <use xlink:href="#DejaVuSans-6c" x="785.449219"/>
      <use xlink:href="#DejaVuSans-65" x="813.232422"/>
     </g>
    </g>
   </g>
  </g>
 </g>
 <defs>
  <clipPath id="p2207dc66f6">
   <rect x="64.24625" y="7.2" width="669.6" height="498.96"/>
  </clipPath>
 </defs>
</svg>
