<?xml version="1.0" encoding="utf-8" standalone="no"?>
<!DOCTYPE svg PUBLIC "-//W3C//DTD SVG 1.1//EN"
  "http://www.w3.org/Graphics/SVG/1.1/DTD/svg11.dtd">
<svg xmlns:xlink="http://www.w3.org/1999/xlink" width="754.720625pt" height="559.20125pt" viewBox="0 0 754.720625 559.20125" xmlns="http://www.w3.org/2000/svg" version="1.1">
 <metadata>
  <rdf:RDF xmlns:dc="http://purl.org/dc/elements/1.1/" xmlns:cc="http://creativecommons.org/ns#" xmlns:rdf="http://www.w3.org/1999/02/22-rdf-syntax-ns#">
   <cc:Work>
    <dc:type rdf:resource="http://purl.org/dc/dcmitype/StillImage"/>
    <dc:date>2025-02-26T08:54:53.128287</dc:date>
    <dc:format>image/svg+xml</dc:format>
    <dc:creator>
     <cc:Agent>
      <dc:title>Matplotlib v3.9.4, https://matplotlib.org/</dc:title>
     </cc:Agent>
    </dc:creator>
   </cc:Work>
  </rdf:RDF>
 </metadata>
 <defs>
  <style type="text/css">*{stroke-linejoin: round; stroke-linecap: butt}</style>
 </defs>
 <g id="figure_1">
  <g id="patch_1">
   <path d="M 0 559.20125 
L 754.720625 559.20125 
L 754.720625 0 
L 0 0 
z
" style="fill: #ffffff"/>
  </g>
  <g id="axes_1">
   <g id="patch_2">
    <path d="M 77.920625 506.16 
L 747.520625 506.16 
L 747.520625 7.2 
L 77.920625 7.2 
z
" style="fill: #ffffff"/>
   </g>
   <g id="PolyCollection_1">
    <defs>
     <path id="m22b00219bc" d="M 108.356989 -167.394688 
L 108.356989 -146.149938 
L 114.505749 -329.999897 
L 120.654509 -354.137251 
L 126.80327 -372.959974 
L 132.95203 -385.505275 
L 139.10079 -394.115029 
L 145.249551 -401.338291 
L 151.398311 -408.236294 
L 157.547071 -413.46482 
L 163.695832 -417.174665 
L 169.844592 -420.607101 
L 175.993352 -423.339795 
L 182.142113 -425.588483 
L 188.290873 -428.191907 
L 194.439633 -431.0676 
L 200.588394 -432.623891 
L 206.737154 -434.545602 
L 212.885914 -435.970661 
L 219.034675 -438.673711 
L 225.183435 -440.495008 
L 231.332195 -442.251945 
L 237.480956 -444.440933 
L 243.629716 -445.846118 
L 249.778476 -447.754134 
L 255.927237 -450.047039 
L 262.075997 -451.758451 
L 268.224757 -453.503078 
L 274.373518 -454.825008 
L 280.522278 -456.547246 
L 286.671038 -457.671562 
L 292.819799 -459.445219 
L 298.968559 -460.709021 
L 305.117319 -462.074955 
L 311.26608 -463.154363 
L 317.41484 -464.272613 
L 323.5636 -465.569607 
L 329.712361 -467.387301 
L 335.861121 -468.675216 
L 342.009881 -470.247338 
L 348.158642 -471.654407 
L 354.307402 -473.029535 
L 360.456162 -474.337408 
L 366.604923 -475.621888 
L 372.753683 -476.703442 
L 378.902443 -477.975445 
L 385.051204 -479.048007 
L 391.199964 -479.985829 
L 397.348724 -481.091502 
L 403.497485 -482.3872 
L 409.646245 -483.708699 
L 415.795005 -485.089038 
L 421.943765 -486.22667 
L 428.092526 -487.250408 
L 434.241286 -488.305586 
L 440.390046 -489.269815 
L 446.538807 -490.278906 
L 452.687567 -491.216569 
L 458.836327 -492.288504 
L 464.985088 -493.420155 
L 471.133848 -494.215589 
L 477.282608 -495.154369 
L 483.431369 -496.015931 
L 489.580129 -496.763916 
L 495.728889 -497.567457 
L 501.87765 -498.412942 
L 508.02641 -499.18493 
L 514.17517 -500.029497 
L 520.323931 -500.759118 
L 526.472691 -501.58017 
L 532.621451 -502.218924 
L 538.770212 -503.042385 
L 544.918972 -503.741346 
L 551.067732 -504.342674 
L 557.216493 -505.027634 
L 563.365253 -505.67253 
L 569.514013 -506.379888 
L 575.662774 -506.973897 
L 581.811534 -507.642655 
L 587.960294 -508.25158 
L 594.109055 -508.957697 
L 600.257815 -509.562753 
L 606.406575 -510.14357 
L 612.555336 -510.72123 
L 618.704096 -511.40476 
L 624.852856 -511.912883 
L 631.001617 -512.435428 
L 637.150377 -512.931706 
L 643.299137 -513.542493 
L 649.447898 -514.163152 
L 655.596658 -514.765893 
L 661.745418 -515.335883 
L 667.894179 -515.946578 
L 674.042939 -516.459055 
L 680.191699 -516.96131 
L 686.34046 -517.415182 
L 692.48922 -517.934946 
L 698.63798 -518.400812 
L 704.786741 -518.913734 
L 710.935501 -519.386393 
L 717.084261 -519.874746 
L 717.084261 -521.052892 
L 717.084261 -521.052892 
L 710.935501 -520.580002 
L 704.786741 -520.109871 
L 698.63798 -519.613114 
L 692.48922 -519.149291 
L 686.34046 -518.643774 
L 680.191699 -518.180926 
L 674.042939 -517.683658 
L 667.894179 -517.174229 
L 661.745418 -516.60602 
L 655.596658 -516.061906 
L 649.447898 -515.480565 
L 643.299137 -514.889281 
L 637.150377 -514.30273 
L 631.001617 -513.795711 
L 624.852856 -513.264986 
L 618.704096 -512.748154 
L 612.555336 -512.110874 
L 606.406575 -511.541332 
L 600.257815 -510.971528 
L 594.109055 -510.375642 
L 587.960294 -509.709727 
L 581.811534 -509.111451 
L 575.662774 -508.476869 
L 569.514013 -507.845126 
L 563.365253 -507.172264 
L 557.216493 -506.52301 
L 551.067732 -505.856538 
L 544.918972 -505.241287 
L 538.770212 -504.554166 
L 532.621451 -503.780446 
L 526.472691 -503.138103 
L 520.323931 -502.353566 
L 514.17517 -501.641045 
L 508.02641 -500.83493 
L 501.87765 -500.066402 
L 495.728889 -499.237605 
L 489.580129 -498.479669 
L 483.431369 -497.716613 
L 477.282608 -496.873007 
L 471.133848 -496.030459 
L 464.985088 -495.196586 
L 458.836327 -494.131628 
L 452.687567 -493.080028 
L 446.538807 -492.068875 
L 440.390046 -491.086111 
L 434.241286 -490.147334 
L 428.092526 -489.094972 
L 421.943765 -488.096715 
L 415.795005 -487.019393 
L 409.646245 -485.686381 
L 403.497485 -484.41689 
L 397.348724 -483.195929 
L 391.199964 -482.067761 
L 385.051204 -481.107089 
L 378.902443 -480.027637 
L 372.753683 -478.769422 
L 366.604923 -477.690942 
L 360.456162 -476.425116 
L 354.307402 -475.149668 
L 348.158642 -473.848584 
L 342.009881 -472.528414 
L 335.861121 -471.040885 
L 329.712361 -469.794161 
L 323.5636 -468.110693 
L 317.41484 -466.830675 
L 311.26608 -465.659208 
L 305.117319 -464.570517 
L 298.968559 -463.24134 
L 292.819799 -461.992517 
L 286.671038 -460.28775 
L 280.522278 -459.138727 
L 274.373518 -457.452877 
L 268.224757 -456.038565 
L 262.075997 -454.366483 
L 255.927237 -452.651973 
L 249.778476 -450.49036 
L 243.629716 -448.632212 
L 237.480956 -447.070388 
L 231.332195 -444.988951 
L 225.183435 -443.180844 
L 219.034675 -441.204736 
L 212.885914 -438.781995 
L 206.737154 -437.282447 
L 200.588394 -435.443069 
L 194.439633 -433.765629 
L 188.290873 -431.045691 
L 182.142113 -428.608363 
L 175.993352 -426.397648 
L 169.844592 -423.974 
L 163.695832 -420.134902 
L 157.547071 -415.96028 
L 151.398311 -410.787982 
L 145.249551 -403.884772 
L 139.10079 -396.549377 
L 132.95203 -387.879416 
L 126.80327 -375.217316 
L 120.654509 -356.12331 
L 114.505749 -331.460656 
L 108.356989 -167.394688 
z
" style="stroke: #ff0000; stroke-opacity: 0.1"/>
    </defs>
    <g clip-path="url(#pea2304f63d)">
     <use xlink:href="#m22b00219bc" x="0" y="559.20125" style="fill: #ff0000; fill-opacity: 0.1; stroke: #ff0000; stroke-opacity: 0.1"/>
    </g>
   </g>
   <g id="PolyCollection_2">
    <defs>
     <path id="m18f5a83edc" d="M 108.356989 -155.092394 
L 108.356989 -75.72125 
L 114.505749 -328.334954 
L 120.654509 -353.658597 
L 126.80327 -370.134082 
L 132.95203 -383.646669 
L 139.10079 -392.752058 
L 145.249551 -400.272735 
L 151.398311 -407.451605 
L 157.547071 -412.766963 
L 163.695832 -416.65091 
L 169.844592 -420.375537 
L 175.993352 -422.94049 
L 182.142113 -424.830345 
L 188.290873 -427.080224 
L 194.439633 -429.647052 
L 200.588394 -430.932394 
L 206.737154 -432.578066 
L 212.885914 -433.775011 
L 219.034675 -435.947665 
L 225.183435 -437.344482 
L 231.332195 -438.694926 
L 237.480956 -440.506211 
L 243.629716 -441.578098 
L 249.778476 -443.167358 
L 255.927237 -444.95771 
L 262.075997 -446.166455 
L 268.224757 -447.439338 
L 274.373518 -448.316628 
L 280.522278 -449.650249 
L 286.671038 -450.325061 
L 292.819799 -451.56055 
L 298.968559 -452.241377 
L 305.117319 -453.076459 
L 311.26608 -453.607935 
L 317.41484 -454.230184 
L 323.5636 -455.079337 
L 329.712361 -456.40075 
L 335.861121 -457.099887 
L 342.009881 -458.198255 
L 348.158642 -459.118741 
L 354.307402 -460.036924 
L 360.456162 -460.920042 
L 366.604923 -461.632814 
L 372.753683 -462.112039 
L 378.902443 -462.898361 
L 385.051204 -463.433979 
L 391.199964 -463.802721 
L 397.348724 -464.450489 
L 403.497485 -465.201831 
L 409.646245 -466.034577 
L 415.795005 -466.995114 
L 421.943765 -467.625239 
L 428.092526 -468.129691 
L 434.241286 -468.737294 
L 440.390046 -469.195767 
L 446.538807 -469.767366 
L 452.687567 -470.292812 
L 458.836327 -471.028558 
L 464.985088 -471.865204 
L 471.133848 -472.209818 
L 477.282608 -472.753637 
L 483.431369 -473.244655 
L 489.580129 -473.581561 
L 495.728889 -473.999885 
L 501.87765 -474.5225 
L 508.02641 -474.937617 
L 514.17517 -475.476519 
L 520.323931 -475.856453 
L 526.472691 -476.405984 
L 532.621451 -476.669728 
L 538.770212 -477.24674 
L 544.918972 -477.636709 
L 551.067732 -477.879852 
L 557.216493 -478.280791 
L 563.365253 -478.622506 
L 569.514013 -479.07231 
L 575.662774 -479.381105 
L 581.811534 -479.799634 
L 587.960294 -480.123104 
L 594.109055 -480.636038 
L 600.257815 -480.982201 
L 606.406575 -481.287874 
L 612.555336 -481.608375 
L 618.704096 -482.119539 
L 624.852856 -482.334863 
L 631.001617 -482.595732 
L 637.150377 -482.816357 
L 643.299137 -483.250681 
L 649.447898 -483.712636 
L 655.596658 -484.157796 
L 661.745418 -484.541345 
L 667.894179 -485.000978 
L 674.042939 -485.310044 
L 680.191699 -485.605438 
L 686.34046 -485.821912 
L 692.48922 -486.153877 
L 698.63798 -486.399462 
L 704.786741 -486.740749 
L 710.935501 -487.014038 
L 717.084261 -487.354673 
L 717.084261 -489.338821 
L 717.084261 -489.338821 
L 710.935501 -489.040061 
L 704.786741 -488.775091 
L 698.63798 -488.441423 
L 692.48922 -488.201123 
L 686.34046 -487.875728 
L 680.191699 -487.663974 
L 674.042939 -487.37518 
L 667.894179 -487.072117 
L 661.745418 -486.618278 
L 655.596658 -486.24336 
L 649.447898 -485.808457 
L 643.299137 -485.357046 
L 637.150377 -484.932058 
L 631.001617 -484.715834 
L 624.852856 -484.460368 
L 618.704096 -484.249225 
L 612.555336 -483.747592 
L 606.406575 -483.433177 
L 600.257815 -483.133734 
L 594.109055 -482.794633 
L 587.960294 -482.292304 
L 581.811534 -481.974991 
L 575.662774 -481.565396 
L 569.514013 -481.262719 
L 563.365253 -480.822509 
L 557.216493 -480.487834 
L 551.067732 -480.095448 
L 544.918972 -479.856887 
L 538.770212 -479.474928 
L 532.621451 -478.911378 
L 526.472691 -478.653902 
L 520.323931 -478.118261 
L 514.17517 -477.746806 
L 508.02641 -477.220781 
L 501.87765 -476.815377 
L 495.728889 -476.305762 
L 489.580129 -475.897846 
L 483.431369 -475.56906 
L 477.282608 -475.090771 
L 471.133848 -474.561517 
L 464.985088 -474.225687 
L 458.836327 -473.412223 
L 452.687567 -472.698473 
L 446.538807 -472.187381 
L 440.390046 -471.630972 
L 434.241286 -471.184552 
L 428.092526 -470.593722 
L 421.943765 -470.103431 
L 415.795005 -469.491599 
L 409.646245 -468.559203 
L 403.497485 -467.751142 
L 397.348724 -467.023328 
L 391.199964 -466.393894 
L 385.051204 -466.033526 
L 378.902443 -465.512805 
L 372.753683 -464.748082 
L 366.604923 -464.28341 
L 360.456162 -463.591687 
L 354.307402 -462.736059 
L 348.158642 -461.847722 
L 342.009881 -460.953711 
L 335.861121 -459.884016 
L 329.712361 -459.203586 
L 323.5636 -457.916222 
L 317.41484 -457.089259 
L 311.26608 -456.48298 
L 305.117319 -455.965895 
L 298.968559 -455.153526 
L 292.819799 -454.490787 
L 286.671038 -453.2889 
L 280.522278 -452.633214 
L 274.373518 -451.335589 
L 268.224757 -450.481617 
L 262.075997 -449.245263 
L 255.927237 -448.071795 
L 249.778476 -446.337017 
L 243.629716 -444.797764 
L 237.480956 -443.760129 
L 231.332195 -442.003201 
L 225.183435 -440.692994 
L 219.034675 -439.331452 
L 212.885914 -437.21854 
L 206.737154 -436.056409 
L 200.588394 -434.456866 
L 194.439633 -433.212199 
L 188.290873 -430.736753 
L 182.142113 -428.571147 
L 175.993352 -426.762487 
L 169.844592 -424.307806 
L 163.695832 -420.761734 
L 157.547071 -417.091997 
L 151.398311 -412.103209 
L 145.249551 -405.42483 
L 139.10079 -398.549882 
L 132.95203 -390.398589 
L 126.80327 -378.728029 
L 120.654509 -356.706671 
L 114.505749 -332.871815 
L 108.356989 -155.092394 
z
" style="stroke: #ff7f50; stroke-opacity: 0.1"/>
    </defs>
    <g clip-path="url(#pea2304f63d)">
     <use xlink:href="#m18f5a83edc" x="0" y="559.20125" style="fill: #ff7f50; fill-opacity: 0.1; stroke: #ff7f50; stroke-opacity: 0.1"/>
    </g>
   </g>
   <g id="PolyCollection_3">
    <defs>
     <path id="meb14a0d759" d="M 108.356989 -331.679323 
L 108.356989 -325.556095 
L 114.505749 -339.683652 
L 120.654509 -346.24286 
L 126.80327 -352.83404 
L 132.95203 -360.764497 
L 139.10079 -367.287324 
L 145.249551 -372.078449 
L 151.398311 -377.987856 
L 157.547071 -382.307068 
L 163.695832 -385.732509 
L 169.844592 -389.280951 
L 175.993352 -392.868813 
L 182.142113 -397.018965 
L 188.290873 -400.623194 
L 194.439633 -404.241156 
L 200.588394 -407.380599 
L 206.737154 -410.269136 
L 212.885914 -413.122168 
L 219.034675 -416.343347 
L 225.183435 -419.039933 
L 231.332195 -421.794025 
L 237.480956 -424.477129 
L 243.629716 -426.921178 
L 249.778476 -429.174338 
L 255.927237 -431.748839 
L 262.075997 -434.154464 
L 268.224757 -436.3736 
L 274.373518 -438.665807 
L 280.522278 -440.785956 
L 286.671038 -442.877638 
L 292.819799 -444.963958 
L 298.968559 -446.933432 
L 305.117319 -448.896855 
L 311.26608 -450.637701 
L 317.41484 -452.438715 
L 323.5636 -454.186145 
L 329.712361 -456.072658 
L 335.861121 -457.934216 
L 342.009881 -459.615147 
L 348.158642 -461.287116 
L 354.307402 -462.98776 
L 360.456162 -464.61544 
L 366.604923 -466.235026 
L 372.753683 -467.892537 
L 378.902443 -469.403867 
L 385.051204 -470.960507 
L 391.199964 -472.489517 
L 397.348724 -474.011919 
L 403.497485 -475.57785 
L 409.646245 -477.045805 
L 415.795005 -478.448848 
L 421.943765 -479.861747 
L 428.092526 -481.246019 
L 434.241286 -482.57545 
L 440.390046 -483.828369 
L 446.538807 -485.162793 
L 452.687567 -486.37123 
L 458.836327 -487.588495 
L 464.985088 -488.823467 
L 471.133848 -489.957745 
L 477.282608 -491.049388 
L 483.431369 -492.161863 
L 489.580129 -493.283005 
L 495.728889 -494.403022 
L 501.87765 -495.466734 
L 508.02641 -496.434114 
L 514.17517 -497.407828 
L 520.323931 -498.366362 
L 526.472691 -499.287352 
L 532.621451 -500.215728 
L 538.770212 -501.137069 
L 544.918972 -502.026253 
L 551.067732 -502.885045 
L 557.216493 -503.771366 
L 563.365253 -504.609765 
L 569.514013 -505.439822 
L 575.662774 -506.236982 
L 581.811534 -507.006024 
L 587.960294 -507.806532 
L 594.109055 -508.557945 
L 600.257815 -509.315557 
L 606.406575 -510.07148 
L 612.555336 -510.814697 
L 618.704096 -511.535358 
L 624.852856 -512.251767 
L 631.001617 -512.948401 
L 637.150377 -513.64069 
L 643.299137 -514.333151 
L 649.447898 -514.983761 
L 655.596658 -515.634549 
L 661.745418 -516.321387 
L 667.894179 -516.929171 
L 674.042939 -517.560933 
L 680.191699 -518.204452 
L 686.34046 -518.831122 
L 692.48922 -519.456935 
L 698.63798 -520.061121 
L 704.786741 -520.664465 
L 710.935501 -521.254121 
L 717.084261 -521.823759 
L 717.084261 -529.32125 
L 717.084261 -529.32125 
L 710.935501 -528.742162 
L 704.786741 -528.170561 
L 698.63798 -527.597316 
L 692.48922 -526.979136 
L 686.34046 -526.391473 
L 680.191699 -525.814728 
L 674.042939 -525.227209 
L 667.894179 -524.647369 
L 661.745418 -524.005367 
L 655.596658 -523.363033 
L 649.447898 -522.748767 
L 643.299137 -522.111854 
L 637.150377 -521.490529 
L 631.001617 -520.824427 
L 624.852856 -520.108707 
L 618.704096 -519.448965 
L 612.555336 -518.789321 
L 606.406575 -518.058441 
L 600.257815 -517.355555 
L 594.109055 -516.60224 
L 587.960294 -515.855954 
L 581.811534 -515.064257 
L 575.662774 -514.290414 
L 569.514013 -513.528279 
L 563.365253 -512.730796 
L 557.216493 -511.968948 
L 551.067732 -511.101107 
L 544.918972 -510.298589 
L 538.770212 -509.505958 
L 532.621451 -508.66541 
L 526.472691 -507.811453 
L 520.323931 -506.93396 
L 514.17517 -505.988521 
L 508.02641 -505.075413 
L 501.87765 -504.098108 
L 495.728889 -503.187991 
L 489.580129 -502.255259 
L 483.431369 -501.270412 
L 477.282608 -500.230112 
L 471.133848 -499.168304 
L 464.985088 -498.059534 
L 458.836327 -496.969751 
L 452.687567 -495.849764 
L 446.538807 -494.593614 
L 440.390046 -493.443342 
L 434.241286 -492.046616 
L 428.092526 -490.744508 
L 421.943765 -489.457313 
L 415.795005 -488.143985 
L 409.646245 -486.628047 
L 403.497485 -485.199749 
L 397.348724 -483.865878 
L 391.199964 -482.589977 
L 385.051204 -481.201786 
L 378.902443 -479.75905 
L 372.753683 -478.324677 
L 366.604923 -476.855893 
L 360.456162 -475.319013 
L 354.307402 -473.82309 
L 348.158642 -472.423414 
L 342.009881 -470.851367 
L 335.861121 -469.195791 
L 329.712361 -467.653092 
L 323.5636 -466.020524 
L 317.41484 -464.412631 
L 311.26608 -462.607249 
L 305.117319 -460.886057 
L 298.968559 -459.20451 
L 292.819799 -457.384834 
L 286.671038 -455.295403 
L 280.522278 -453.532874 
L 274.373518 -451.564021 
L 268.224757 -449.711795 
L 262.075997 -447.4154 
L 255.927237 -445.309796 
L 249.778476 -443.006873 
L 243.629716 -440.808446 
L 237.480956 -438.386205 
L 231.332195 -435.855651 
L 225.183435 -433.573418 
L 219.034675 -430.919528 
L 212.885914 -428.091256 
L 206.737154 -425.858336 
L 200.588394 -423.29032 
L 194.439633 -420.747886 
L 188.290873 -417.962928 
L 182.142113 -414.902976 
L 175.993352 -411.634891 
L 169.844592 -409.012221 
L 163.695832 -405.525665 
L 157.547071 -401.479664 
L 151.398311 -397.280852 
L 145.249551 -392.751389 
L 139.10079 -387.44724 
L 132.95203 -380.328821 
L 126.80327 -371.134785 
L 120.654509 -359.782124 
L 114.505749 -349.108766 
L 108.356989 -331.679323 
z
" style="stroke: #8a2be2; stroke-opacity: 0.1"/>
    </defs>
    <g clip-path="url(#pea2304f63d)">
     <use xlink:href="#meb14a0d759" x="0" y="559.20125" style="fill: #8a2be2; fill-opacity: 0.1; stroke: #8a2be2; stroke-opacity: 0.1"/>
    </g>
   </g>
   <g id="matplotlib.axis_1">
    <g id="xtick_1">
     <g id="line2d_1">
      <path d="M 102.208228 506.16 
L 102.208228 7.2 
" clip-path="url(#pea2304f63d)" style="fill: none; stroke-dasharray: 1.85,0.8; stroke-dashoffset: 0; stroke: #b0b0b0; stroke-width: 0.5"/>
     </g>
     <g id="line2d_2">
      <defs>
       <path id="m26c36bcd51" d="M 0 0 
L 0 3.5 
" style="stroke: #000000; stroke-width: 0.8"/>
      </defs>
      <g>
       <use xlink:href="#m26c36bcd51" x="102.208228" y="506.16" style="stroke: #000000; stroke-width: 0.8"/>
      </g>
     </g>
     <g id="text_1">
      <!-- 0 -->
      <g transform="translate(96.481978 526.837188) scale(0.18 -0.18)">
       <defs>
        <path id="DejaVuSans-30" d="M 2034 4250 
Q 1547 4250 1301 3770 
Q 1056 3291 1056 2328 
Q 1056 1369 1301 889 
Q 1547 409 2034 409 
Q 2525 409 2770 889 
Q 3016 1369 3016 2328 
Q 3016 3291 2770 3770 
Q 2525 4250 2034 4250 
z
M 2034 4750 
Q 2819 4750 3233 4129 
Q 3647 3509 3647 2328 
Q 3647 1150 3233 529 
Q 2819 -91 2034 -91 
Q 1250 -91 836 529 
Q 422 1150 422 2328 
Q 422 3509 836 4129 
Q 1250 4750 2034 4750 
z
" transform="scale(0.015625)"/>
       </defs>
       <use xlink:href="#DejaVuSans-30"/>
      </g>
     </g>
    </g>
    <g id="xtick_2">
     <g id="line2d_3">
      <path d="M 225.183435 506.16 
L 225.183435 7.2 
" clip-path="url(#pea2304f63d)" style="fill: none; stroke-dasharray: 1.85,0.8; stroke-dashoffset: 0; stroke: #b0b0b0; stroke-width: 0.5"/>
     </g>
     <g id="line2d_4">
      <g>
       <use xlink:href="#m26c36bcd51" x="225.183435" y="506.16" style="stroke: #000000; stroke-width: 0.8"/>
      </g>
     </g>
     <g id="text_2">
      <!-- 20 -->
      <g transform="translate(213.730935 526.837188) scale(0.18 -0.18)">
       <defs>
        <path id="DejaVuSans-32" d="M 1228 531 
L 3431 531 
L 3431 0 
L 469 0 
L 469 531 
Q 828 903 1448 1529 
Q 2069 2156 2228 2338 
Q 2531 2678 2651 2914 
Q 2772 3150 2772 3378 
Q 2772 3750 2511 3984 
Q 2250 4219 1831 4219 
Q 1534 4219 1204 4116 
Q 875 4013 500 3803 
L 500 4441 
Q 881 4594 1212 4672 
Q 1544 4750 1819 4750 
Q 2544 4750 2975 4387 
Q 3406 4025 3406 3419 
Q 3406 3131 3298 2873 
Q 3191 2616 2906 2266 
Q 2828 2175 2409 1742 
Q 1991 1309 1228 531 
z
" transform="scale(0.015625)"/>
       </defs>
       <use xlink:href="#DejaVuSans-32"/>
       <use xlink:href="#DejaVuSans-30" x="63.623047"/>
      </g>
     </g>
    </g>
    <g id="xtick_3">
     <g id="line2d_5">
      <path d="M 348.158642 506.16 
L 348.158642 7.2 
" clip-path="url(#pea2304f63d)" style="fill: none; stroke-dasharray: 1.85,0.8; stroke-dashoffset: 0; stroke: #b0b0b0; stroke-width: 0.5"/>
     </g>
     <g id="line2d_6">
      <g>
       <use xlink:href="#m26c36bcd51" x="348.158642" y="506.16" style="stroke: #000000; stroke-width: 0.8"/>
      </g>
     </g>
     <g id="text_3">
      <!-- 40 -->
      <g transform="translate(336.706142 526.837188) scale(0.18 -0.18)">
       <defs>
        <path id="DejaVuSans-34" d="M 2419 4116 
L 825 1625 
L 2419 1625 
L 2419 4116 
z
M 2253 4666 
L 3047 4666 
L 3047 1625 
L 3713 1625 
L 3713 1100 
L 3047 1100 
L 3047 0 
L 2419 0 
L 2419 1100 
L 313 1100 
L 313 1709 
L 2253 4666 
z
" transform="scale(0.015625)"/>
       </defs>
       <use xlink:href="#DejaVuSans-34"/>
       <use xlink:href="#DejaVuSans-30" x="63.623047"/>
      </g>
     </g>
    </g>
    <g id="xtick_4">
     <g id="line2d_7">
      <path d="M 471.133848 506.16 
L 471.133848 7.2 
" clip-path="url(#pea2304f63d)" style="fill: none; stroke-dasharray: 1.85,0.8; stroke-dashoffset: 0; stroke: #b0b0b0; stroke-width: 0.5"/>
     </g>
     <g id="line2d_8">
      <g>
       <use xlink:href="#m26c36bcd51" x="471.133848" y="506.16" style="stroke: #000000; stroke-width: 0.8"/>
      </g>
     </g>
     <g id="text_4">
      <!-- 60 -->
      <g transform="translate(459.681348 526.837188) scale(0.18 -0.18)">
       <defs>
        <path id="DejaVuSans-36" d="M 2113 2584 
Q 1688 2584 1439 2293 
Q 1191 2003 1191 1497 
Q 1191 994 1439 701 
Q 1688 409 2113 409 
Q 2538 409 2786 701 
Q 3034 994 3034 1497 
Q 3034 2003 2786 2293 
Q 2538 2584 2113 2584 
z
M 3366 4563 
L 3366 3988 
Q 3128 4100 2886 4159 
Q 2644 4219 2406 4219 
Q 1781 4219 1451 3797 
Q 1122 3375 1075 2522 
Q 1259 2794 1537 2939 
Q 1816 3084 2150 3084 
Q 2853 3084 3261 2657 
Q 3669 2231 3669 1497 
Q 3669 778 3244 343 
Q 2819 -91 2113 -91 
Q 1303 -91 875 529 
Q 447 1150 447 2328 
Q 447 3434 972 4092 
Q 1497 4750 2381 4750 
Q 2619 4750 2861 4703 
Q 3103 4656 3366 4563 
z
" transform="scale(0.015625)"/>
       </defs>
       <use xlink:href="#DejaVuSans-36"/>
       <use xlink:href="#DejaVuSans-30" x="63.623047"/>
      </g>
     </g>
    </g>
    <g id="xtick_5">
     <g id="line2d_9">
      <path d="M 594.109055 506.16 
L 594.109055 7.2 
" clip-path="url(#pea2304f63d)" style="fill: none; stroke-dasharray: 1.85,0.8; stroke-dashoffset: 0; stroke: #b0b0b0; stroke-width: 0.5"/>
     </g>
     <g id="line2d_10">
      <g>
       <use xlink:href="#m26c36bcd51" x="594.109055" y="506.16" style="stroke: #000000; stroke-width: 0.8"/>
      </g>
     </g>
     <g id="text_5">
      <!-- 80 -->
      <g transform="translate(582.656555 526.837188) scale(0.18 -0.18)">
       <defs>
        <path id="DejaVuSans-38" d="M 2034 2216 
Q 1584 2216 1326 1975 
Q 1069 1734 1069 1313 
Q 1069 891 1326 650 
Q 1584 409 2034 409 
Q 2484 409 2743 651 
Q 3003 894 3003 1313 
Q 3003 1734 2745 1975 
Q 2488 2216 2034 2216 
z
M 1403 2484 
Q 997 2584 770 2862 
Q 544 3141 544 3541 
Q 544 4100 942 4425 
Q 1341 4750 2034 4750 
Q 2731 4750 3128 4425 
Q 3525 4100 3525 3541 
Q 3525 3141 3298 2862 
Q 3072 2584 2669 2484 
Q 3125 2378 3379 2068 
Q 3634 1759 3634 1313 
Q 3634 634 3220 271 
Q 2806 -91 2034 -91 
Q 1263 -91 848 271 
Q 434 634 434 1313 
Q 434 1759 690 2068 
Q 947 2378 1403 2484 
z
M 1172 3481 
Q 1172 3119 1398 2916 
Q 1625 2713 2034 2713 
Q 2441 2713 2670 2916 
Q 2900 3119 2900 3481 
Q 2900 3844 2670 4047 
Q 2441 4250 2034 4250 
Q 1625 4250 1398 4047 
Q 1172 3844 1172 3481 
z
" transform="scale(0.015625)"/>
       </defs>
       <use xlink:href="#DejaVuSans-38"/>
       <use xlink:href="#DejaVuSans-30" x="63.623047"/>
      </g>
     </g>
    </g>
    <g id="xtick_6">
     <g id="line2d_11">
      <path d="M 717.084261 506.16 
L 717.084261 7.2 
" clip-path="url(#pea2304f63d)" style="fill: none; stroke-dasharray: 1.85,0.8; stroke-dashoffset: 0; stroke: #b0b0b0; stroke-width: 0.5"/>
     </g>
     <g id="line2d_12">
      <g>
       <use xlink:href="#m26c36bcd51" x="717.084261" y="506.16" style="stroke: #000000; stroke-width: 0.8"/>
      </g>
     </g>
     <g id="text_6">
      <!-- 100 -->
      <g transform="translate(699.905511 526.837188) scale(0.18 -0.18)">
       <defs>
        <path id="DejaVuSans-31" d="M 794 531 
L 1825 531 
L 1825 4091 
L 703 3866 
L 703 4441 
L 1819 4666 
L 2450 4666 
L 2450 531 
L 3481 531 
L 3481 0 
L 794 0 
L 794 531 
z
" transform="scale(0.015625)"/>
       </defs>
       <use xlink:href="#DejaVuSans-31"/>
       <use xlink:href="#DejaVuSans-30" x="63.623047"/>
       <use xlink:href="#DejaVuSans-30" x="127.246094"/>
      </g>
     </g>
    </g>
    <g id="text_7">
     <!-- Decision Round -->
     <g transform="translate(343.067656 548.257813) scale(0.18 -0.18)">
      <defs>
       <path id="DejaVuSans-44" d="M 1259 4147 
L 1259 519 
L 2022 519 
Q 2988 519 3436 956 
Q 3884 1394 3884 2338 
Q 3884 3275 3436 3711 
Q 2988 4147 2022 4147 
L 1259 4147 
z
M 628 4666 
L 1925 4666 
Q 3281 4666 3915 4102 
Q 4550 3538 4550 2338 
Q 4550 1131 3912 565 
Q 3275 0 1925 0 
L 628 0 
L 628 4666 
z
" transform="scale(0.015625)"/>
       <path id="DejaVuSans-65" d="M 3597 1894 
L 3597 1613 
L 953 1613 
Q 991 1019 1311 708 
Q 1631 397 2203 397 
Q 2534 397 2845 478 
Q 3156 559 3463 722 
L 3463 178 
Q 3153 47 2828 -22 
Q 2503 -91 2169 -91 
Q 1331 -91 842 396 
Q 353 884 353 1716 
Q 353 2575 817 3079 
Q 1281 3584 2069 3584 
Q 2775 3584 3186 3129 
Q 3597 2675 3597 1894 
z
M 3022 2063 
Q 3016 2534 2758 2815 
Q 2500 3097 2075 3097 
Q 1594 3097 1305 2825 
Q 1016 2553 972 2059 
L 3022 2063 
z
" transform="scale(0.015625)"/>
       <path id="DejaVuSans-63" d="M 3122 3366 
L 3122 2828 
Q 2878 2963 2633 3030 
Q 2388 3097 2138 3097 
Q 1578 3097 1268 2742 
Q 959 2388 959 1747 
Q 959 1106 1268 751 
Q 1578 397 2138 397 
Q 2388 397 2633 464 
Q 2878 531 3122 666 
L 3122 134 
Q 2881 22 2623 -34 
Q 2366 -91 2075 -91 
Q 1284 -91 818 406 
Q 353 903 353 1747 
Q 353 2603 823 3093 
Q 1294 3584 2113 3584 
Q 2378 3584 2631 3529 
Q 2884 3475 3122 3366 
z
" transform="scale(0.015625)"/>
       <path id="DejaVuSans-69" d="M 603 3500 
L 1178 3500 
L 1178 0 
L 603 0 
L 603 3500 
z
M 603 4863 
L 1178 4863 
L 1178 4134 
L 603 4134 
L 603 4863 
z
" transform="scale(0.015625)"/>
       <path id="DejaVuSans-73" d="M 2834 3397 
L 2834 2853 
Q 2591 2978 2328 3040 
Q 2066 3103 1784 3103 
Q 1356 3103 1142 2972 
Q 928 2841 928 2578 
Q 928 2378 1081 2264 
Q 1234 2150 1697 2047 
L 1894 2003 
Q 2506 1872 2764 1633 
Q 3022 1394 3022 966 
Q 3022 478 2636 193 
Q 2250 -91 1575 -91 
Q 1294 -91 989 -36 
Q 684 19 347 128 
L 347 722 
Q 666 556 975 473 
Q 1284 391 1588 391 
Q 1994 391 2212 530 
Q 2431 669 2431 922 
Q 2431 1156 2273 1281 
Q 2116 1406 1581 1522 
L 1381 1569 
Q 847 1681 609 1914 
Q 372 2147 372 2553 
Q 372 3047 722 3315 
Q 1072 3584 1716 3584 
Q 2034 3584 2315 3537 
Q 2597 3491 2834 3397 
z
" transform="scale(0.015625)"/>
       <path id="DejaVuSans-6f" d="M 1959 3097 
Q 1497 3097 1228 2736 
Q 959 2375 959 1747 
Q 959 1119 1226 758 
Q 1494 397 1959 397 
Q 2419 397 2687 759 
Q 2956 1122 2956 1747 
Q 2956 2369 2687 2733 
Q 2419 3097 1959 3097 
z
M 1959 3584 
Q 2709 3584 3137 3096 
Q 3566 2609 3566 1747 
Q 3566 888 3137 398 
Q 2709 -91 1959 -91 
Q 1206 -91 779 398 
Q 353 888 353 1747 
Q 353 2609 779 3096 
Q 1206 3584 1959 3584 
z
" transform="scale(0.015625)"/>
       <path id="DejaVuSans-6e" d="M 3513 2113 
L 3513 0 
L 2938 0 
L 2938 2094 
Q 2938 2591 2744 2837 
Q 2550 3084 2163 3084 
Q 1697 3084 1428 2787 
Q 1159 2491 1159 1978 
L 1159 0 
L 581 0 
L 581 3500 
L 1159 3500 
L 1159 2956 
Q 1366 3272 1645 3428 
Q 1925 3584 2291 3584 
Q 2894 3584 3203 3211 
Q 3513 2838 3513 2113 
z
" transform="scale(0.015625)"/>
       <path id="DejaVuSans-20" transform="scale(0.015625)"/>
       <path id="DejaVuSans-52" d="M 2841 2188 
Q 3044 2119 3236 1894 
Q 3428 1669 3622 1275 
L 4263 0 
L 3584 0 
L 2988 1197 
Q 2756 1666 2539 1819 
Q 2322 1972 1947 1972 
L 1259 1972 
L 1259 0 
L 628 0 
L 628 4666 
L 2053 4666 
Q 2853 4666 3247 4331 
Q 3641 3997 3641 3322 
Q 3641 2881 3436 2590 
Q 3231 2300 2841 2188 
z
M 1259 4147 
L 1259 2491 
L 2053 2491 
Q 2509 2491 2742 2702 
Q 2975 2913 2975 3322 
Q 2975 3731 2742 3939 
Q 2509 4147 2053 4147 
L 1259 4147 
z
" transform="scale(0.015625)"/>
       <path id="DejaVuSans-75" d="M 544 1381 
L 544 3500 
L 1119 3500 
L 1119 1403 
Q 1119 906 1312 657 
Q 1506 409 1894 409 
Q 2359 409 2629 706 
Q 2900 1003 2900 1516 
L 2900 3500 
L 3475 3500 
L 3475 0 
L 2900 0 
L 2900 538 
Q 2691 219 2414 64 
Q 2138 -91 1772 -91 
Q 1169 -91 856 284 
Q 544 659 544 1381 
z
M 1991 3584 
L 1991 3584 
z
" transform="scale(0.015625)"/>
       <path id="DejaVuSans-64" d="M 2906 2969 
L 2906 4863 
L 3481 4863 
L 3481 0 
L 2906 0 
L 2906 525 
Q 2725 213 2448 61 
Q 2172 -91 1784 -91 
Q 1150 -91 751 415 
Q 353 922 353 1747 
Q 353 2572 751 3078 
Q 1150 3584 1784 3584 
Q 2172 3584 2448 3432 
Q 2725 3281 2906 2969 
z
M 947 1747 
Q 947 1113 1208 752 
Q 1469 391 1925 391 
Q 2381 391 2643 752 
Q 2906 1113 2906 1747 
Q 2906 2381 2643 2742 
Q 2381 3103 1925 3103 
Q 1469 3103 1208 2742 
Q 947 2381 947 1747 
z
" transform="scale(0.015625)"/>
      </defs>
      <use xlink:href="#DejaVuSans-44"/>
      <use xlink:href="#DejaVuSans-65" x="77.001953"/>
      <use xlink:href="#DejaVuSans-63" x="138.525391"/>
      <use xlink:href="#DejaVuSans-69" x="193.505859"/>
      <use xlink:href="#DejaVuSans-73" x="221.289062"/>
      <use xlink:href="#DejaVuSans-69" x="273.388672"/>
      <use xlink:href="#DejaVuSans-6f" x="301.171875"/>
      <use xlink:href="#DejaVuSans-6e" x="362.353516"/>
      <use xlink:href="#DejaVuSans-20" x="425.732422"/>
      <use xlink:href="#DejaVuSans-52" x="457.519531"/>
      <use xlink:href="#DejaVuSans-6f" x="522.501953"/>
      <use xlink:href="#DejaVuSans-75" x="583.683594"/>
      <use xlink:href="#DejaVuSans-6e" x="647.0625"/>
      <use xlink:href="#DejaVuSans-64" x="710.441406"/>
     </g>
    </g>
   </g>
   <g id="matplotlib.axis_2">
    <g id="ytick_1">
     <g id="line2d_13">
      <path d="M 77.920625 456.1643 
L 747.520625 456.1643 
" clip-path="url(#pea2304f63d)" style="fill: none; stroke-dasharray: 1.85,0.8; stroke-dashoffset: 0; stroke: #b0b0b0; stroke-width: 0.5"/>
     </g>
     <g id="line2d_14">
      <defs>
       <path id="m16f2fd45df" d="M 0 0 
L -3.5 0 
" style="stroke: #000000; stroke-width: 0.8"/>
      </defs>
      <g>
       <use xlink:href="#m16f2fd45df" x="77.920625" y="456.1643" style="stroke: #000000; stroke-width: 0.8"/>
      </g>
     </g>
     <g id="text_8">
      <!-- $\mathdefault{10^{-2}}$ -->
      <g transform="translate(28.620625 463.002894) scale(0.18 -0.18)">
       <defs>
        <path id="DejaVuSans-2212" d="M 678 2272 
L 4684 2272 
L 4684 1741 
L 678 1741 
L 678 2272 
z
" transform="scale(0.015625)"/>
       </defs>
       <use xlink:href="#DejaVuSans-31" transform="translate(0 0.765625)"/>
       <use xlink:href="#DejaVuSans-30" transform="translate(63.623047 0.765625)"/>
       <use xlink:href="#DejaVuSans-2212" transform="translate(128.203125 39.046875) scale(0.7)"/>
       <use xlink:href="#DejaVuSans-32" transform="translate(186.855469 39.046875) scale(0.7)"/>
      </g>
     </g>
    </g>
    <g id="ytick_2">
     <g id="line2d_15">
      <path d="M 77.920625 352.34865 
L 747.520625 352.34865 
" clip-path="url(#pea2304f63d)" style="fill: none; stroke-dasharray: 1.85,0.8; stroke-dashoffset: 0; stroke: #b0b0b0; stroke-width: 0.5"/>
     </g>
     <g id="line2d_16">
      <g>
       <use xlink:href="#m16f2fd45df" x="77.920625" y="352.34865" style="stroke: #000000; stroke-width: 0.8"/>
      </g>
     </g>
     <g id="text_9">
      <!-- $\mathdefault{10^{-1}}$ -->
      <g transform="translate(28.620625 359.187244) scale(0.18 -0.18)">
       <use xlink:href="#DejaVuSans-31" transform="translate(0 0.684375)"/>
       <use xlink:href="#DejaVuSans-30" transform="translate(63.623047 0.684375)"/>
       <use xlink:href="#DejaVuSans-2212" transform="translate(128.203125 38.965625) scale(0.7)"/>
       <use xlink:href="#DejaVuSans-31" transform="translate(186.855469 38.965625) scale(0.7)"/>
      </g>
     </g>
    </g>
    <g id="ytick_3">
     <g id="line2d_17">
      <path d="M 77.920625 248.533001 
L 747.520625 248.533001 
" clip-path="url(#pea2304f63d)" style="fill: none; stroke-dasharray: 1.85,0.8; stroke-dashoffset: 0; stroke: #b0b0b0; stroke-width: 0.5"/>
     </g>
     <g id="line2d_18">
      <g>
       <use xlink:href="#m16f2fd45df" x="77.920625" y="248.533001" style="stroke: #000000; stroke-width: 0.8"/>
      </g>
     </g>
     <g id="text_10">
      <!-- $\mathdefault{10^{0}}$ -->
      <g transform="translate(39.240625 255.371594) scale(0.18 -0.18)">
       <use xlink:href="#DejaVuSans-31" transform="translate(0 0.765625)"/>
       <use xlink:href="#DejaVuSans-30" transform="translate(63.623047 0.765625)"/>
       <use xlink:href="#DejaVuSans-30" transform="translate(128.203125 39.046875) scale(0.7)"/>
      </g>
     </g>
    </g>
    <g id="ytick_4">
     <g id="line2d_19">
      <path d="M 77.920625 144.717351 
L 747.520625 144.717351 
" clip-path="url(#pea2304f63d)" style="fill: none; stroke-dasharray: 1.85,0.8; stroke-dashoffset: 0; stroke: #b0b0b0; stroke-width: 0.5"/>
     </g>
     <g id="line2d_20">
      <g>
       <use xlink:href="#m16f2fd45df" x="77.920625" y="144.717351" style="stroke: #000000; stroke-width: 0.8"/>
      </g>
     </g>
     <g id="text_11">
      <!-- $\mathdefault{10^{1}}$ -->
      <g transform="translate(39.240625 151.555945) scale(0.18 -0.18)">
       <use xlink:href="#DejaVuSans-31" transform="translate(0 0.684375)"/>
       <use xlink:href="#DejaVuSans-30" transform="translate(63.623047 0.684375)"/>
       <use xlink:href="#DejaVuSans-31" transform="translate(128.203125 38.965625) scale(0.7)"/>
      </g>
     </g>
    </g>
    <g id="ytick_5">
     <g id="line2d_21">
      <path d="M 77.920625 40.901701 
L 747.520625 40.901701 
" clip-path="url(#pea2304f63d)" style="fill: none; stroke-dasharray: 1.85,0.8; stroke-dashoffset: 0; stroke: #b0b0b0; stroke-width: 0.5"/>
     </g>
     <g id="line2d_22">
      <g>
       <use xlink:href="#m16f2fd45df" x="77.920625" y="40.901701" style="stroke: #000000; stroke-width: 0.8"/>
      </g>
     </g>
     <g id="text_12">
      <!-- $\mathdefault{10^{2}}$ -->
      <g transform="translate(39.240625 47.740295) scale(0.18 -0.18)">
       <use xlink:href="#DejaVuSans-31" transform="translate(0 0.765625)"/>
       <use xlink:href="#DejaVuSans-30" transform="translate(63.623047 0.765625)"/>
       <use xlink:href="#DejaVuSans-32" transform="translate(128.203125 39.046875) scale(0.7)"/>
      </g>
     </g>
    </g>
    <g id="ytick_6">
     <g id="line2d_23">
      <defs>
       <path id="m615e4a7cf8" d="M 0 0 
L -2 0 
" style="stroke: #000000; stroke-width: 0.6"/>
      </defs>
      <g>
       <use xlink:href="#m615e4a7cf8" x="77.920625" y="497.476701" style="stroke: #000000; stroke-width: 0.6"/>
      </g>
     </g>
    </g>
    <g id="ytick_7">
     <g id="line2d_24">
      <g>
       <use xlink:href="#m615e4a7cf8" x="77.920625" y="487.415925" style="stroke: #000000; stroke-width: 0.6"/>
      </g>
     </g>
    </g>
    <g id="ytick_8">
     <g id="line2d_25">
      <g>
       <use xlink:href="#m615e4a7cf8" x="77.920625" y="479.195672" style="stroke: #000000; stroke-width: 0.6"/>
      </g>
     </g>
    </g>
    <g id="ytick_9">
     <g id="line2d_26">
      <g>
       <use xlink:href="#m615e4a7cf8" x="77.920625" y="472.245548" style="stroke: #000000; stroke-width: 0.6"/>
      </g>
     </g>
    </g>
    <g id="ytick_10">
     <g id="line2d_27">
      <g>
       <use xlink:href="#m615e4a7cf8" x="77.920625" y="466.225076" style="stroke: #000000; stroke-width: 0.6"/>
      </g>
     </g>
    </g>
    <g id="ytick_11">
     <g id="line2d_28">
      <g>
       <use xlink:href="#m615e4a7cf8" x="77.920625" y="460.914644" style="stroke: #000000; stroke-width: 0.6"/>
      </g>
     </g>
    </g>
    <g id="ytick_12">
     <g id="line2d_29">
      <g>
       <use xlink:href="#m615e4a7cf8" x="77.920625" y="424.912675" style="stroke: #000000; stroke-width: 0.6"/>
      </g>
     </g>
    </g>
    <g id="ytick_13">
     <g id="line2d_30">
      <g>
       <use xlink:href="#m615e4a7cf8" x="77.920625" y="406.631647" style="stroke: #000000; stroke-width: 0.6"/>
      </g>
     </g>
    </g>
    <g id="ytick_14">
     <g id="line2d_31">
      <g>
       <use xlink:href="#m615e4a7cf8" x="77.920625" y="393.661051" style="stroke: #000000; stroke-width: 0.6"/>
      </g>
     </g>
    </g>
    <g id="ytick_15">
     <g id="line2d_32">
      <g>
       <use xlink:href="#m615e4a7cf8" x="77.920625" y="383.600275" style="stroke: #000000; stroke-width: 0.6"/>
      </g>
     </g>
    </g>
    <g id="ytick_16">
     <g id="line2d_33">
      <g>
       <use xlink:href="#m615e4a7cf8" x="77.920625" y="375.380022" style="stroke: #000000; stroke-width: 0.6"/>
      </g>
     </g>
    </g>
    <g id="ytick_17">
     <g id="line2d_34">
      <g>
       <use xlink:href="#m615e4a7cf8" x="77.920625" y="368.429898" style="stroke: #000000; stroke-width: 0.6"/>
      </g>
     </g>
    </g>
    <g id="ytick_18">
     <g id="line2d_35">
      <g>
       <use xlink:href="#m615e4a7cf8" x="77.920625" y="362.409426" style="stroke: #000000; stroke-width: 0.6"/>
      </g>
     </g>
    </g>
    <g id="ytick_19">
     <g id="line2d_36">
      <g>
       <use xlink:href="#m615e4a7cf8" x="77.920625" y="357.098994" style="stroke: #000000; stroke-width: 0.6"/>
      </g>
     </g>
    </g>
    <g id="ytick_20">
     <g id="line2d_37">
      <g>
       <use xlink:href="#m615e4a7cf8" x="77.920625" y="321.097026" style="stroke: #000000; stroke-width: 0.6"/>
      </g>
     </g>
    </g>
    <g id="ytick_21">
     <g id="line2d_38">
      <g>
       <use xlink:href="#m615e4a7cf8" x="77.920625" y="302.815997" style="stroke: #000000; stroke-width: 0.6"/>
      </g>
     </g>
    </g>
    <g id="ytick_22">
     <g id="line2d_39">
      <g>
       <use xlink:href="#m615e4a7cf8" x="77.920625" y="289.845401" style="stroke: #000000; stroke-width: 0.6"/>
      </g>
     </g>
    </g>
    <g id="ytick_23">
     <g id="line2d_40">
      <g>
       <use xlink:href="#m615e4a7cf8" x="77.920625" y="279.784625" style="stroke: #000000; stroke-width: 0.6"/>
      </g>
     </g>
    </g>
    <g id="ytick_24">
     <g id="line2d_41">
      <g>
       <use xlink:href="#m615e4a7cf8" x="77.920625" y="271.564373" style="stroke: #000000; stroke-width: 0.6"/>
      </g>
     </g>
    </g>
    <g id="ytick_25">
     <g id="line2d_42">
      <g>
       <use xlink:href="#m615e4a7cf8" x="77.920625" y="264.614248" style="stroke: #000000; stroke-width: 0.6"/>
      </g>
     </g>
    </g>
    <g id="ytick_26">
     <g id="line2d_43">
      <g>
       <use xlink:href="#m615e4a7cf8" x="77.920625" y="258.593777" style="stroke: #000000; stroke-width: 0.6"/>
      </g>
     </g>
    </g>
    <g id="ytick_27">
     <g id="line2d_44">
      <g>
       <use xlink:href="#m615e4a7cf8" x="77.920625" y="253.283344" style="stroke: #000000; stroke-width: 0.6"/>
      </g>
     </g>
    </g>
    <g id="ytick_28">
     <g id="line2d_45">
      <g>
       <use xlink:href="#m615e4a7cf8" x="77.920625" y="217.281376" style="stroke: #000000; stroke-width: 0.6"/>
      </g>
     </g>
    </g>
    <g id="ytick_29">
     <g id="line2d_46">
      <g>
       <use xlink:href="#m615e4a7cf8" x="77.920625" y="199.000348" style="stroke: #000000; stroke-width: 0.6"/>
      </g>
     </g>
    </g>
    <g id="ytick_30">
     <g id="line2d_47">
      <g>
       <use xlink:href="#m615e4a7cf8" x="77.920625" y="186.029752" style="stroke: #000000; stroke-width: 0.6"/>
      </g>
     </g>
    </g>
    <g id="ytick_31">
     <g id="line2d_48">
      <g>
       <use xlink:href="#m615e4a7cf8" x="77.920625" y="175.968976" style="stroke: #000000; stroke-width: 0.6"/>
      </g>
     </g>
    </g>
    <g id="ytick_32">
     <g id="line2d_49">
      <g>
       <use xlink:href="#m615e4a7cf8" x="77.920625" y="167.748723" style="stroke: #000000; stroke-width: 0.6"/>
      </g>
     </g>
    </g>
    <g id="ytick_33">
     <g id="line2d_50">
      <g>
       <use xlink:href="#m615e4a7cf8" x="77.920625" y="160.798599" style="stroke: #000000; stroke-width: 0.6"/>
      </g>
     </g>
    </g>
    <g id="ytick_34">
     <g id="line2d_51">
      <g>
       <use xlink:href="#m615e4a7cf8" x="77.920625" y="154.778127" style="stroke: #000000; stroke-width: 0.6"/>
      </g>
     </g>
    </g>
    <g id="ytick_35">
     <g id="line2d_52">
      <g>
       <use xlink:href="#m615e4a7cf8" x="77.920625" y="149.467695" style="stroke: #000000; stroke-width: 0.6"/>
      </g>
     </g>
    </g>
    <g id="ytick_36">
     <g id="line2d_53">
      <g>
       <use xlink:href="#m615e4a7cf8" x="77.920625" y="113.465726" style="stroke: #000000; stroke-width: 0.6"/>
      </g>
     </g>
    </g>
    <g id="ytick_37">
     <g id="line2d_54">
      <g>
       <use xlink:href="#m615e4a7cf8" x="77.920625" y="95.184698" style="stroke: #000000; stroke-width: 0.6"/>
      </g>
     </g>
    </g>
    <g id="ytick_38">
     <g id="line2d_55">
      <g>
       <use xlink:href="#m615e4a7cf8" x="77.920625" y="82.214102" style="stroke: #000000; stroke-width: 0.6"/>
      </g>
     </g>
    </g>
    <g id="ytick_39">
     <g id="line2d_56">
      <g>
       <use xlink:href="#m615e4a7cf8" x="77.920625" y="72.153326" style="stroke: #000000; stroke-width: 0.6"/>
      </g>
     </g>
    </g>
    <g id="ytick_40">
     <g id="line2d_57">
      <g>
       <use xlink:href="#m615e4a7cf8" x="77.920625" y="63.933073" style="stroke: #000000; stroke-width: 0.6"/>
      </g>
     </g>
    </g>
    <g id="ytick_41">
     <g id="line2d_58">
      <g>
       <use xlink:href="#m615e4a7cf8" x="77.920625" y="56.982949" style="stroke: #000000; stroke-width: 0.6"/>
      </g>
     </g>
    </g>
    <g id="ytick_42">
     <g id="line2d_59">
      <g>
       <use xlink:href="#m615e4a7cf8" x="77.920625" y="50.962477" style="stroke: #000000; stroke-width: 0.6"/>
      </g>
     </g>
    </g>
    <g id="ytick_43">
     <g id="line2d_60">
      <g>
       <use xlink:href="#m615e4a7cf8" x="77.920625" y="45.652045" style="stroke: #000000; stroke-width: 0.6"/>
      </g>
     </g>
    </g>
    <g id="ytick_44">
     <g id="line2d_61">
      <g>
       <use xlink:href="#m615e4a7cf8" x="77.920625" y="9.650077" style="stroke: #000000; stroke-width: 0.6"/>
      </g>
     </g>
    </g>
    <g id="text_13">
     <!-- Runtime -->
     <g transform="translate(20.877188 294.269063) rotate(-90) scale(0.18 -0.18)">
      <defs>
       <path id="DejaVuSans-74" d="M 1172 4494 
L 1172 3500 
L 2356 3500 
L 2356 3053 
L 1172 3053 
L 1172 1153 
Q 1172 725 1289 603 
Q 1406 481 1766 481 
L 2356 481 
L 2356 0 
L 1766 0 
Q 1100 0 847 248 
Q 594 497 594 1153 
L 594 3053 
L 172 3053 
L 172 3500 
L 594 3500 
L 594 4494 
L 1172 4494 
z
" transform="scale(0.015625)"/>
       <path id="DejaVuSans-6d" d="M 3328 2828 
Q 3544 3216 3844 3400 
Q 4144 3584 4550 3584 
Q 5097 3584 5394 3201 
Q 5691 2819 5691 2113 
L 5691 0 
L 5113 0 
L 5113 2094 
Q 5113 2597 4934 2840 
Q 4756 3084 4391 3084 
Q 3944 3084 3684 2787 
Q 3425 2491 3425 1978 
L 3425 0 
L 2847 0 
L 2847 2094 
Q 2847 2600 2669 2842 
Q 2491 3084 2119 3084 
Q 1678 3084 1418 2786 
Q 1159 2488 1159 1978 
L 1159 0 
L 581 0 
L 581 3500 
L 1159 3500 
L 1159 2956 
Q 1356 3278 1631 3431 
Q 1906 3584 2284 3584 
Q 2666 3584 2933 3390 
Q 3200 3197 3328 2828 
z
" transform="scale(0.015625)"/>
      </defs>
      <use xlink:href="#DejaVuSans-52"/>
      <use xlink:href="#DejaVuSans-75" x="64.982422"/>
      <use xlink:href="#DejaVuSans-6e" x="128.361328"/>
      <use xlink:href="#DejaVuSans-74" x="191.740234"/>
      <use xlink:href="#DejaVuSans-69" x="230.949219"/>
      <use xlink:href="#DejaVuSans-6d" x="258.732422"/>
      <use xlink:href="#DejaVuSans-65" x="356.144531"/>
     </g>
    </g>
   </g>
   <g id="line2d_62">
    <path d="M 108.356989 401.189031 
L 114.505749 228.465058 
L 120.654509 204.060035 
L 126.80327 185.098479 
L 132.95203 172.49328 
L 139.10079 163.852619 
L 145.249551 156.571743 
L 151.398311 149.671063 
L 157.547071 144.471438 
L 163.695832 140.522176 
L 169.844592 136.879278 
L 175.993352 134.30661 
L 182.142113 132.077548 
L 188.290873 129.559875 
L 194.439633 126.764457 
L 200.588394 125.145739 
L 206.737154 123.266462 
L 212.885914 121.803013 
L 219.034675 119.244268 
L 225.183435 117.343327 
L 231.332195 115.560036 
L 237.480956 113.426424 
L 243.629716 111.940568 
L 249.778476 110.058249 
L 255.927237 107.832934 
L 262.075997 106.119928 
L 268.224757 104.412608 
L 274.373518 103.043164 
L 280.522278 101.339647 
L 286.671038 100.202621 
L 292.819799 98.464395 
L 298.968559 97.208294 
L 305.117319 95.86125 
L 311.26608 94.777072 
L 317.41484 93.631467 
L 323.5636 92.343201 
L 329.712361 90.59446 
L 335.861121 89.327686 
L 342.009881 87.79895 
L 348.158642 86.436409 
L 354.307402 85.099187 
L 360.456162 83.807905 
L 366.604923 82.532967 
L 372.753683 81.452985 
L 378.902443 80.188034 
L 385.051204 79.111948 
L 391.199964 78.162439 
L 397.348724 77.045258 
L 403.497485 75.787784 
L 409.646245 74.492867 
L 415.795005 73.136704 
L 421.943765 72.029863 
L 428.092526 71.019127 
L 434.241286 69.965387 
L 440.390046 69.014142 
L 446.538807 68.018477 
L 452.687567 67.043325 
L 458.836327 65.981766 
L 464.985088 64.884131 
L 471.133848 64.069095 
L 477.282608 63.179374 
L 483.431369 62.32696 
L 489.580129 61.571297 
L 495.728889 60.790986 
L 501.87765 59.953999 
L 508.02641 59.183773 
L 514.17517 58.358779 
L 520.323931 57.63786 
L 526.472691 56.835384 
L 532.621451 56.194805 
L 538.770212 55.396638 
L 544.918972 54.703696 
L 551.067732 54.095291 
L 557.216493 53.419729 
L 563.365253 52.772617 
L 569.514013 52.082791 
L 575.662774 51.469605 
L 581.811534 50.818216 
L 587.960294 50.214702 
L 594.109055 49.529006 
L 600.257815 48.928607 
L 606.406575 48.353382 
L 612.555336 47.779845 
L 618.704096 47.11979 
L 624.852856 46.607247 
L 631.001617 46.080551 
L 637.150377 45.57882 
L 643.299137 44.980334 
L 649.447898 44.37458 
L 655.596658 43.782694 
L 661.745418 43.225826 
L 667.894179 42.636668 
L 674.042939 42.125736 
L 680.191699 41.626008 
L 686.34046 41.167588 
L 692.48922 40.655043 
L 698.63798 40.190213 
L 704.786741 39.685481 
L 710.935501 39.214103 
L 717.084261 38.733583 
" clip-path="url(#pea2304f63d)" style="fill: none; stroke: #ff0000; stroke-width: 1.5; stroke-linecap: square"/>
   </g>
   <g id="line2d_63">
    <path d="M 108.356989 428.205748 
L 114.505749 228.540824 
L 120.654509 203.992863 
L 126.80327 184.565743 
L 132.95203 172.052348 
L 139.10079 163.457149 
L 145.249551 156.278915 
L 151.398311 149.363881 
L 157.547071 144.219929 
L 163.695832 140.448093 
L 169.844592 136.816722 
L 175.993352 134.309275 
L 182.142113 132.461719 
L 188.290873 130.255703 
L 194.439633 127.736395 
L 200.588394 126.47219 
L 206.737154 124.850478 
L 212.885914 123.671607 
L 219.034675 121.529954 
L 225.183435 120.151433 
L 231.332195 118.82185 
L 237.480956 117.038732 
L 243.629716 115.984585 
L 249.778476 114.421214 
L 255.927237 112.659617 
L 262.075997 111.469116 
L 268.224757 110.215117 
L 274.373518 109.349878 
L 280.522278 108.034854 
L 286.671038 107.36992 
L 292.819799 106.151781 
L 298.968559 105.48029 
L 305.117319 104.65693 
L 311.26608 104.13288 
L 317.41484 103.51887 
L 323.5636 102.681162 
L 329.712361 101.377306 
L 335.861121 100.687812 
L 342.009881 99.60422 
L 348.158642 98.697374 
L 354.307402 97.794563 
L 360.456162 96.925599 
L 366.604923 96.223663 
L 372.753683 95.751927 
L 378.902443 94.976719 
L 385.051204 94.448765 
L 391.199964 94.08433 
L 397.348724 93.445992 
L 403.497485 92.706748 
L 409.646245 91.886691 
L 415.795005 90.940617 
L 421.943765 90.31989 
L 428.092526 89.822713 
L 434.241286 89.223725 
L 440.390046 88.771441 
L 446.538807 88.207642 
L 452.687567 87.689565 
L 458.836327 86.965109 
L 464.985088 86.140359 
L 471.133848 85.800251 
L 477.282608 85.263904 
L 483.431369 84.779415 
L 489.580129 84.446673 
L 495.728889 84.033687 
L 501.87765 83.517738 
L 508.02641 83.1076 
L 514.17517 82.575299 
L 520.323931 82.199711 
L 526.472691 81.657299 
L 532.621451 81.396767 
L 538.770212 80.826653 
L 544.918972 80.440787 
L 551.067732 80.199992 
L 557.216493 79.803435 
L 563.365253 79.465325 
L 569.514013 79.020435 
L 575.662774 78.714773 
L 581.811534 78.300819 
L 587.960294 77.980502 
L 594.109055 77.472998 
L 600.257815 77.13045 
L 606.406575 76.827966 
L 612.555336 76.51058 
L 618.704096 76.004294 
L 624.852856 75.79111 
L 631.001617 75.533006 
L 637.150377 75.314634 
L 643.299137 74.885087 
L 649.447898 74.428527 
L 655.596658 73.988614 
L 661.745418 73.60948 
L 667.894179 73.152811 
L 674.042939 72.846816 
L 680.191699 72.554797 
L 686.34046 72.340736 
L 692.48922 72.012131 
L 698.63798 71.769248 
L 704.786741 71.431857 
L 710.935501 71.162821 
L 717.084261 70.843589 
" clip-path="url(#pea2304f63d)" style="fill: none; stroke: #ff7f50; stroke-width: 1.5; stroke-linecap: square"/>
   </g>
   <g id="line2d_64">
    <path d="M 108.356989 230.479671 
L 114.505749 214.559204 
L 120.654509 205.682435 
L 126.80327 196.294603 
L 132.95203 187.601625 
L 139.10079 180.716448 
L 145.249551 175.611707 
L 151.398311 170.542716 
L 157.547071 166.296353 
L 163.695832 162.494617 
L 169.844592 158.983793 
L 175.993352 155.980005 
L 182.142113 152.3593 
L 188.290873 149.079695 
L 194.439633 145.955496 
L 200.588394 143.167643 
L 206.737154 140.467075 
L 212.885914 137.976139 
L 219.034675 134.983312 
L 225.183435 132.311491 
L 231.332195 129.830426 
L 237.480956 127.235333 
L 243.629716 124.803855 
L 249.778476 122.582235 
L 255.927237 120.163991 
L 262.075997 117.930524 
L 268.224757 115.667102 
L 274.373518 113.626665 
L 280.522278 111.59285 
L 286.671038 109.688561 
L 292.819799 107.600472 
L 298.968559 105.716088 
L 305.117319 103.912449 
L 311.26608 102.182728 
L 317.41484 100.379241 
L 323.5636 98.710737 
L 329.712361 96.96759 
L 335.861121 95.285547 
L 342.009881 93.618867 
L 348.158642 92.003025 
L 354.307402 90.471108 
L 360.456162 88.917138 
L 366.604923 87.343771 
L 372.753683 85.79159 
L 378.902443 84.323154 
L 385.051204 82.829942 
L 391.199964 81.37925 
L 397.348724 79.99368 
L 403.497485 78.55626 
L 409.646245 77.110238 
L 415.795005 75.644736 
L 421.943765 74.286928 
L 428.092526 72.956314 
L 434.241286 71.641976 
L 440.390046 70.309572 
L 446.538807 69.076913 
L 452.687567 67.842127 
L 458.836327 66.678569 
L 464.985088 65.523659 
L 471.133848 64.403434 
L 477.282608 63.328225 
L 483.431369 62.255485 
L 489.580129 61.2093 
L 495.728889 60.192116 
L 501.87765 59.212595 
L 508.02641 58.239778 
L 514.17517 57.299252 
L 520.323931 56.347886 
L 526.472691 55.4507 
L 532.621451 54.563025 
L 538.770212 53.685837 
L 544.918972 52.849372 
L 551.067732 52.021282 
L 557.216493 51.14504 
L 563.365253 50.34837 
L 569.514013 49.53606 
L 575.662774 48.757976 
L 581.811534 47.98632 
L 587.960294 47.19061 
L 594.109055 46.441988 
L 600.257815 45.686716 
L 606.406575 44.959662 
L 612.555336 44.223158 
L 618.704096 43.535686 
L 624.852856 42.850082 
L 631.001617 42.143074 
L 637.150377 41.465018 
L 643.299137 40.811199 
L 649.447898 40.168027 
L 655.596658 39.537065 
L 661.745418 38.874376 
L 667.894179 38.248025 
L 674.042939 37.644433 
L 680.191699 37.03128 
L 686.34046 36.431668 
L 692.48922 35.826521 
L 698.63798 35.214755 
L 704.786741 34.627714 
L 710.935501 34.047834 
L 717.084261 33.473079 
" clip-path="url(#pea2304f63d)" style="fill: none; stroke: #8a2be2; stroke-width: 1.5; stroke-linecap: square"/>
   </g>
   <g id="patch_3">
    <path d="M 77.920625 506.16 
L 77.920625 7.2 
" style="fill: none; stroke: #000000; stroke-width: 0.8; stroke-linejoin: miter; stroke-linecap: square"/>
   </g>
   <g id="patch_4">
    <path d="M 747.520625 506.16 
L 747.520625 7.2 
" style="fill: none; stroke: #000000; stroke-width: 0.8; stroke-linejoin: miter; stroke-linecap: square"/>
   </g>
   <g id="patch_5">
    <path d="M 77.920625 506.16 
L 747.520625 506.16 
" style="fill: none; stroke: #000000; stroke-width: 0.8; stroke-linejoin: miter; stroke-linecap: square"/>
   </g>
   <g id="patch_6">
    <path d="M 77.920625 7.2 
L 747.520625 7.2 
" style="fill: none; stroke: #000000; stroke-width: 0.8; stroke-linejoin: miter; stroke-linecap: square"/>
   </g>
   <g id="legend_1">
    <g id="patch_7">
     <path d="M 500.358125 497.16 
L 734.920625 497.16 
Q 738.520625 497.16 738.520625 493.56 
L 738.520625 416.098125 
Q 738.520625 412.498125 734.920625 412.498125 
L 500.358125 412.498125 
Q 496.758125 412.498125 496.758125 416.098125 
L 496.758125 493.56 
Q 496.758125 497.16 500.358125 497.16 
z
" style="fill: #ffffff; opacity: 0.8; stroke: #cccccc; stroke-linejoin: miter"/>
    </g>
    <g id="line2d_65">
     <path d="M 503.958125 427.075313 
L 521.958125 427.075313 
L 539.958125 427.075313 
" style="fill: none; stroke: #ff0000; stroke-width: 1.5; stroke-linecap: square"/>
    </g>
    <g id="text_14">
     <!-- Hybrid-MBTL (Ours) -->
     <g transform="translate(554.358125 433.375313) scale(0.18 -0.18)">
      <defs>
       <path id="DejaVuSans-48" d="M 628 4666 
L 1259 4666 
L 1259 2753 
L 3553 2753 
L 3553 4666 
L 4184 4666 
L 4184 0 
L 3553 0 
L 3553 2222 
L 1259 2222 
L 1259 0 
L 628 0 
L 628 4666 
z
" transform="scale(0.015625)"/>
       <path id="DejaVuSans-79" d="M 2059 -325 
Q 1816 -950 1584 -1140 
Q 1353 -1331 966 -1331 
L 506 -1331 
L 506 -850 
L 844 -850 
Q 1081 -850 1212 -737 
Q 1344 -625 1503 -206 
L 1606 56 
L 191 3500 
L 800 3500 
L 1894 763 
L 2988 3500 
L 3597 3500 
L 2059 -325 
z
" transform="scale(0.015625)"/>
       <path id="DejaVuSans-62" d="M 3116 1747 
Q 3116 2381 2855 2742 
Q 2594 3103 2138 3103 
Q 1681 3103 1420 2742 
Q 1159 2381 1159 1747 
Q 1159 1113 1420 752 
Q 1681 391 2138 391 
Q 2594 391 2855 752 
Q 3116 1113 3116 1747 
z
M 1159 2969 
Q 1341 3281 1617 3432 
Q 1894 3584 2278 3584 
Q 2916 3584 3314 3078 
Q 3713 2572 3713 1747 
Q 3713 922 3314 415 
Q 2916 -91 2278 -91 
Q 1894 -91 1617 61 
Q 1341 213 1159 525 
L 1159 0 
L 581 0 
L 581 4863 
L 1159 4863 
L 1159 2969 
z
" transform="scale(0.015625)"/>
       <path id="DejaVuSans-72" d="M 2631 2963 
Q 2534 3019 2420 3045 
Q 2306 3072 2169 3072 
Q 1681 3072 1420 2755 
Q 1159 2438 1159 1844 
L 1159 0 
L 581 0 
L 581 3500 
L 1159 3500 
L 1159 2956 
Q 1341 3275 1631 3429 
Q 1922 3584 2338 3584 
Q 2397 3584 2469 3576 
Q 2541 3569 2628 3553 
L 2631 2963 
z
" transform="scale(0.015625)"/>
       <path id="DejaVuSans-2d" d="M 313 2009 
L 1997 2009 
L 1997 1497 
L 313 1497 
L 313 2009 
z
" transform="scale(0.015625)"/>
       <path id="DejaVuSans-4d" d="M 628 4666 
L 1569 4666 
L 2759 1491 
L 3956 4666 
L 4897 4666 
L 4897 0 
L 4281 0 
L 4281 4097 
L 3078 897 
L 2444 897 
L 1241 4097 
L 1241 0 
L 628 0 
L 628 4666 
z
" transform="scale(0.015625)"/>
       <path id="DejaVuSans-42" d="M 1259 2228 
L 1259 519 
L 2272 519 
Q 2781 519 3026 730 
Q 3272 941 3272 1375 
Q 3272 1813 3026 2020 
Q 2781 2228 2272 2228 
L 1259 2228 
z
M 1259 4147 
L 1259 2741 
L 2194 2741 
Q 2656 2741 2882 2914 
Q 3109 3088 3109 3444 
Q 3109 3797 2882 3972 
Q 2656 4147 2194 4147 
L 1259 4147 
z
M 628 4666 
L 2241 4666 
Q 2963 4666 3353 4366 
Q 3744 4066 3744 3513 
Q 3744 3084 3544 2831 
Q 3344 2578 2956 2516 
Q 3422 2416 3680 2098 
Q 3938 1781 3938 1306 
Q 3938 681 3513 340 
Q 3088 0 2303 0 
L 628 0 
L 628 4666 
z
" transform="scale(0.015625)"/>
       <path id="DejaVuSans-54" d="M -19 4666 
L 3928 4666 
L 3928 4134 
L 2272 4134 
L 2272 0 
L 1638 0 
L 1638 4134 
L -19 4134 
L -19 4666 
z
" transform="scale(0.015625)"/>
       <path id="DejaVuSans-4c" d="M 628 4666 
L 1259 4666 
L 1259 531 
L 3531 531 
L 3531 0 
L 628 0 
L 628 4666 
z
" transform="scale(0.015625)"/>
       <path id="DejaVuSans-28" d="M 1984 4856 
Q 1566 4138 1362 3434 
Q 1159 2731 1159 2009 
Q 1159 1288 1364 580 
Q 1569 -128 1984 -844 
L 1484 -844 
Q 1016 -109 783 600 
Q 550 1309 550 2009 
Q 550 2706 781 3412 
Q 1013 4119 1484 4856 
L 1984 4856 
z
" transform="scale(0.015625)"/>
       <path id="DejaVuSans-4f" d="M 2522 4238 
Q 1834 4238 1429 3725 
Q 1025 3213 1025 2328 
Q 1025 1447 1429 934 
Q 1834 422 2522 422 
Q 3209 422 3611 934 
Q 4013 1447 4013 2328 
Q 4013 3213 3611 3725 
Q 3209 4238 2522 4238 
z
M 2522 4750 
Q 3503 4750 4090 4092 
Q 4678 3434 4678 2328 
Q 4678 1225 4090 567 
Q 3503 -91 2522 -91 
Q 1538 -91 948 565 
Q 359 1222 359 2328 
Q 359 3434 948 4092 
Q 1538 4750 2522 4750 
z
" transform="scale(0.015625)"/>
       <path id="DejaVuSans-29" d="M 513 4856 
L 1013 4856 
Q 1481 4119 1714 3412 
Q 1947 2706 1947 2009 
Q 1947 1309 1714 600 
Q 1481 -109 1013 -844 
L 513 -844 
Q 928 -128 1133 580 
Q 1338 1288 1338 2009 
Q 1338 2731 1133 3434 
Q 928 4138 513 4856 
z
" transform="scale(0.015625)"/>
      </defs>
      <use xlink:href="#DejaVuSans-48"/>
      <use xlink:href="#DejaVuSans-79" x="75.195312"/>
      <use xlink:href="#DejaVuSans-62" x="134.375"/>
      <use xlink:href="#DejaVuSans-72" x="197.851562"/>
      <use xlink:href="#DejaVuSans-69" x="238.964844"/>
      <use xlink:href="#DejaVuSans-64" x="266.748047"/>
      <use xlink:href="#DejaVuSans-2d" x="330.224609"/>
      <use xlink:href="#DejaVuSans-4d" x="366.308594"/>
      <use xlink:href="#DejaVuSans-42" x="452.587891"/>
      <use xlink:href="#DejaVuSans-54" x="521.191406"/>
      <use xlink:href="#DejaVuSans-4c" x="582.275391"/>
      <use xlink:href="#DejaVuSans-20" x="637.988281"/>
      <use xlink:href="#DejaVuSans-28" x="669.775391"/>
      <use xlink:href="#DejaVuSans-4f" x="708.789062"/>
      <use xlink:href="#DejaVuSans-75" x="787.5"/>
      <use xlink:href="#DejaVuSans-72" x="850.878906"/>
      <use xlink:href="#DejaVuSans-73" x="891.992188"/>
      <use xlink:href="#DejaVuSans-29" x="944.091797"/>
     </g>
    </g>
    <g id="line2d_66">
     <path d="M 503.958125 453.495938 
L 521.958125 453.495938 
L 539.958125 453.495938 
" style="fill: none; stroke: #ff7f50; stroke-width: 1.5; stroke-linecap: square"/>
    </g>
    <g id="text_15">
     <!-- SC-MBTL (Ours) -->
     <g transform="translate(554.358125 459.795938) scale(0.18 -0.18)">
      <defs>
       <path id="DejaVuSans-53" d="M 3425 4513 
L 3425 3897 
Q 3066 4069 2747 4153 
Q 2428 4238 2131 4238 
Q 1616 4238 1336 4038 
Q 1056 3838 1056 3469 
Q 1056 3159 1242 3001 
Q 1428 2844 1947 2747 
L 2328 2669 
Q 3034 2534 3370 2195 
Q 3706 1856 3706 1288 
Q 3706 609 3251 259 
Q 2797 -91 1919 -91 
Q 1588 -91 1214 -16 
Q 841 59 441 206 
L 441 856 
Q 825 641 1194 531 
Q 1563 422 1919 422 
Q 2459 422 2753 634 
Q 3047 847 3047 1241 
Q 3047 1584 2836 1778 
Q 2625 1972 2144 2069 
L 1759 2144 
Q 1053 2284 737 2584 
Q 422 2884 422 3419 
Q 422 4038 858 4394 
Q 1294 4750 2059 4750 
Q 2388 4750 2728 4690 
Q 3069 4631 3425 4513 
z
" transform="scale(0.015625)"/>
       <path id="DejaVuSans-43" d="M 4122 4306 
L 4122 3641 
Q 3803 3938 3442 4084 
Q 3081 4231 2675 4231 
Q 1875 4231 1450 3742 
Q 1025 3253 1025 2328 
Q 1025 1406 1450 917 
Q 1875 428 2675 428 
Q 3081 428 3442 575 
Q 3803 722 4122 1019 
L 4122 359 
Q 3791 134 3420 21 
Q 3050 -91 2638 -91 
Q 1578 -91 968 557 
Q 359 1206 359 2328 
Q 359 3453 968 4101 
Q 1578 4750 2638 4750 
Q 3056 4750 3426 4639 
Q 3797 4528 4122 4306 
z
" transform="scale(0.015625)"/>
      </defs>
      <use xlink:href="#DejaVuSans-53"/>
      <use xlink:href="#DejaVuSans-43" x="63.476562"/>
      <use xlink:href="#DejaVuSans-2d" x="133.300781"/>
      <use xlink:href="#DejaVuSans-4d" x="169.384766"/>
      <use xlink:href="#DejaVuSans-42" x="255.664062"/>
      <use xlink:href="#DejaVuSans-54" x="324.267578"/>
      <use xlink:href="#DejaVuSans-4c" x="385.351562"/>
      <use xlink:href="#DejaVuSans-20" x="441.064453"/>
      <use xlink:href="#DejaVuSans-28" x="472.851562"/>
      <use xlink:href="#DejaVuSans-4f" x="511.865234"/>
      <use xlink:href="#DejaVuSans-75" x="590.576172"/>
      <use xlink:href="#DejaVuSans-72" x="653.955078"/>
      <use xlink:href="#DejaVuSans-73" x="695.068359"/>
      <use xlink:href="#DejaVuSans-29" x="747.167969"/>
     </g>
    </g>
    <g id="line2d_67">
     <path d="M 503.958125 479.916563 
L 521.958125 479.916563 
L 539.958125 479.916563 
" style="fill: none; stroke: #8a2be2; stroke-width: 1.5; stroke-linecap: square"/>
    </g>
    <g id="text_16">
     <!-- GP-MBTL -->
     <g transform="translate(554.358125 486.216563) scale(0.18 -0.18)">
      <defs>
       <path id="DejaVuSans-47" d="M 3809 666 
L 3809 1919 
L 2778 1919 
L 2778 2438 
L 4434 2438 
L 4434 434 
Q 4069 175 3628 42 
Q 3188 -91 2688 -91 
Q 1594 -91 976 548 
Q 359 1188 359 2328 
Q 359 3472 976 4111 
Q 1594 4750 2688 4750 
Q 3144 4750 3555 4637 
Q 3966 4525 4313 4306 
L 4313 3634 
Q 3963 3931 3569 4081 
Q 3175 4231 2741 4231 
Q 1884 4231 1454 3753 
Q 1025 3275 1025 2328 
Q 1025 1384 1454 906 
Q 1884 428 2741 428 
Q 3075 428 3337 486 
Q 3600 544 3809 666 
z
" transform="scale(0.015625)"/>
       <path id="DejaVuSans-50" d="M 1259 4147 
L 1259 2394 
L 2053 2394 
Q 2494 2394 2734 2622 
Q 2975 2850 2975 3272 
Q 2975 3691 2734 3919 
Q 2494 4147 2053 4147 
L 1259 4147 
z
M 628 4666 
L 2053 4666 
Q 2838 4666 3239 4311 
Q 3641 3956 3641 3272 
Q 3641 2581 3239 2228 
Q 2838 1875 2053 1875 
L 1259 1875 
L 1259 0 
L 628 0 
L 628 4666 
z
" transform="scale(0.015625)"/>
      </defs>
      <use xlink:href="#DejaVuSans-47"/>
      <use xlink:href="#DejaVuSans-50" x="77.490234"/>
      <use xlink:href="#DejaVuSans-2d" x="135.542969"/>
      <use xlink:href="#DejaVuSans-4d" x="171.626953"/>
      <use xlink:href="#DejaVuSans-42" x="257.90625"/>
      <use xlink:href="#DejaVuSans-54" x="326.509766"/>
      <use xlink:href="#DejaVuSans-4c" x="387.59375"/>
     </g>
    </g>
   </g>
  </g>
 </g>
 <defs>
  <clipPath id="pea2304f63d">
   <rect x="77.920625" y="7.2" width="669.6" height="498.96"/>
  </clipPath>
 </defs>
</svg>
