<?xml version="1.0" encoding="utf-8" standalone="no"?>
<!DOCTYPE svg PUBLIC "-//W3C//DTD SVG 1.1//EN"
  "http://www.w3.org/Graphics/SVG/1.1/DTD/svg11.dtd">
<svg xmlns:xlink="http://www.w3.org/1999/xlink" width="580.270625pt" height="389.977813pt" viewBox="0 0 580.270625 389.977813" xmlns="http://www.w3.org/2000/svg" version="1.1">
 <metadata>
  <rdf:RDF xmlns:dc="http://purl.org/dc/elements/1.1/" xmlns:cc="http://creativecommons.org/ns#" xmlns:rdf="http://www.w3.org/1999/02/22-rdf-syntax-ns#">
   <cc:Work>
    <dc:type rdf:resource="http://purl.org/dc/dcmitype/StillImage"/>
    <dc:date>2025-05-09T17:52:38.541490</dc:date>
    <dc:format>image/svg+xml</dc:format>
    <dc:creator>
     <cc:Agent>
      <dc:title>Matplotlib v3.9.4, https://matplotlib.org/</dc:title>
     </cc:Agent>
    </dc:creator>
   </cc:Work>
  </rdf:RDF>
 </metadata>
 <defs>
  <style type="text/css">*{stroke-linejoin: round; stroke-linecap: butt}</style>
 </defs>
 <g id="figure_1">
  <g id="patch_1">
   <path d="M -0 389.977813 
L 580.270625 389.977813 
L 580.270625 0 
L -0 0 
z
" style="fill: #ffffff"/>
  </g>
  <g id="axes_1">
   <g id="patch_2">
    <path d="M 70.870625 339.84 
L 573.070625 339.84 
L 573.070625 7.2 
L 70.870625 7.2 
z
" style="fill: #ffffff"/>
   </g>
   <g id="PolyCollection_1">
    <path d="M 93.697898 243.782697 
L 93.697898 73648.274338 
L 99.476954 167.843157 
L 105.256011 152.172129 
L 111.035067 138.254432 
L 116.814123 126.279948 
L 122.59318 121.200294 
L 128.372236 116.300437 
L 134.151292 112.465873 
L 139.930349 108.979443 
L 145.709405 107.029722 
L 151.488462 104.954395 
L 157.267518 102.936731 
L 163.046574 100.839255 
L 168.825631 98.525073 
L 174.604687 97.004207 
L 180.383744 95.66032 
L 186.1628 94.22611 
L 191.941856 93.255078 
L 197.720913 92.384456 
L 203.499969 91.238099 
L 209.279025 90.167522 
L 215.058082 88.758379 
L 220.837138 87.330671 
L 226.616195 85.718285 
L 232.395251 84.357316 
L 238.174307 83.313784 
L 243.953364 82.031299 
L 249.73242 80.89585 
L 255.511477 79.735819 
L 261.290533 78.723726 
L 267.069589 77.606351 
L 272.848646 76.615998 
L 278.627702 75.224957 
L 284.406758 74.077937 
L 290.185815 72.953144 
L 295.964871 71.879744 
L 301.743928 70.770907 
L 307.522984 69.670698 
L 313.30204 68.741343 
L 319.081097 67.699205 
L 324.860153 66.811823 
L 330.63921 65.838513 
L 336.418266 64.77758 
L 342.197322 63.779944 
L 347.976379 62.740764 
L 353.755435 61.782519 
L 359.534492 60.849533 
L 365.313548 59.906781 
L 371.092604 59.022507 
L 376.871661 58.157457 
L 382.650717 57.336977 
L 388.429773 56.440073 
L 394.20883 55.617091 
L 399.987886 54.672746 
L 405.766943 53.763491 
L 411.545999 52.877469 
L 417.325055 52.004014 
L 423.104112 51.125206 
L 428.883168 50.296717 
L 434.662225 49.502871 
L 440.441281 48.717663 
L 446.220337 47.948544 
L 451.999394 47.074678 
L 457.77845 46.236794 
L 463.557506 45.399836 
L 469.336563 44.568739 
L 475.115619 43.770217 
L 480.894676 42.989542 
L 486.673732 42.260134 
L 492.452788 41.531516 
L 498.231845 40.792378 
L 504.010901 40.086222 
L 509.789958 39.409364 
L 515.569014 38.629886 
L 521.34807 37.902377 
L 527.127127 37.161918 
L 532.906183 36.400229 
L 538.685239 35.6819 
L 544.464296 34.973671 
L 550.243352 34.317017 
L 550.243352 27.36567 
L 550.243352 27.36567 
L 544.464296 28.012176 
L 538.685239 28.683386 
L 532.906183 29.340417 
L 527.127127 30.07054 
L 521.34807 30.794991 
L 515.569014 31.501396 
L 509.789958 32.240147 
L 504.010901 32.927063 
L 498.231845 33.619415 
L 492.452788 34.322627 
L 486.673732 35.01654 
L 480.894676 35.711154 
L 475.115619 36.473973 
L 469.336563 37.280704 
L 463.557506 38.070197 
L 457.77845 38.845773 
L 451.999394 39.681766 
L 446.220337 40.472944 
L 440.441281 41.249947 
L 434.662225 42.0515 
L 428.883168 42.825728 
L 423.104112 43.637544 
L 417.325055 44.507269 
L 411.545999 45.353976 
L 405.766943 46.228015 
L 399.987886 47.168888 
L 394.20883 48.150139 
L 388.429773 49.159229 
L 382.650717 50.074473 
L 376.871661 51.012584 
L 371.092604 51.917756 
L 365.313548 52.921393 
L 359.534492 53.89348 
L 353.755435 54.863077 
L 347.976379 55.832734 
L 342.197322 56.856173 
L 336.418266 57.928603 
L 330.63921 59.011186 
L 324.860153 59.933992 
L 319.081097 60.981428 
L 313.30204 61.971909 
L 307.522984 62.944565 
L 301.743928 63.92534 
L 295.964871 64.971267 
L 290.185815 66.114212 
L 284.406758 67.21522 
L 278.627702 68.373761 
L 272.848646 69.90859 
L 267.069589 71.042067 
L 261.290533 72.119934 
L 255.511477 73.070234 
L 249.73242 74.196987 
L 243.953364 75.326192 
L 238.174307 76.553069 
L 232.395251 77.76211 
L 226.616195 79.136523 
L 220.837138 80.482358 
L 215.058082 81.754245 
L 209.279025 83.040271 
L 203.499969 84.574577 
L 197.720913 85.634585 
L 191.941856 86.665979 
L 186.1628 87.732937 
L 180.383744 89.191322 
L 174.604687 90.574545 
L 168.825631 92.038929 
L 163.046574 94.202291 
L 157.267518 96.001028 
L 151.488462 98.080607 
L 145.709405 99.888946 
L 139.930349 102.252967 
L 134.151292 105.299623 
L 128.372236 108.655627 
L 122.59318 111.477333 
L 116.814123 119.127345 
L 111.035067 128.42964 
L 105.256011 138.073641 
L 99.476954 147.273466 
L 93.697898 243.782697 
z
" clip-path="url(#pb1e4218f0a)" style="fill: #386cb0; fill-opacity: 0.1; stroke: #386cb0; stroke-opacity: 0.1"/>
   </g>
   <g id="PolyCollection_2">
    <defs>
     <path id="m827092e22d" d="M 93.697898 -122.259289 
L 93.697898 -65.257812 
L 99.476954 -237.353756 
L 105.256011 -247.799604 
L 111.035067 -258.235078 
L 116.814123 -268.005163 
L 122.59318 -272.019892 
L 128.372236 -276.595154 
L 134.151292 -279.912321 
L 139.930349 -283.098789 
L 145.709405 -284.915002 
L 151.488462 -286.604589 
L 157.267518 -288.057417 
L 163.046574 -289.788707 
L 168.825631 -291.844503 
L 174.604687 -293.369422 
L 180.383744 -294.464344 
L 186.1628 -295.789232 
L 191.941856 -296.659005 
L 197.720913 -297.412323 
L 203.499969 -298.507276 
L 209.279025 -299.838132 
L 215.058082 -300.560636 
L 220.837138 -301.44137 
L 226.616195 -302.484431 
L 232.395251 -303.274473 
L 238.174307 -303.843831 
L 243.953364 -304.656482 
L 249.73242 -305.416739 
L 255.511477 -306.212414 
L 261.290533 -306.803481 
L 267.069589 -307.496198 
L 272.848646 -308.129288 
L 278.627702 -308.617956 
L 284.406758 -309.042616 
L 290.185815 -309.507695 
L 295.964871 -309.974083 
L 301.743928 -310.577916 
L 307.522984 -311.170924 
L 313.30204 -311.655473 
L 319.081097 -312.389409 
L 324.860153 -312.697192 
L 330.63921 -313.135864 
L 336.418266 -313.667762 
L 342.197322 -314.062783 
L 347.976379 -314.379936 
L 353.755435 -314.737036 
L 359.534492 -315.114428 
L 365.313548 -315.478307 
L 371.092604 -315.76053 
L 376.871661 -316.182785 
L 382.650717 -316.437809 
L 388.429773 -316.937806 
L 394.20883 -317.300309 
L 399.987886 -317.817481 
L 405.766943 -318.251582 
L 411.545999 -318.720934 
L 417.325055 -319.080891 
L 423.104112 -319.43966 
L 428.883168 -319.860628 
L 434.662225 -320.221273 
L 440.441281 -320.612864 
L 446.220337 -321.221203 
L 451.999394 -321.611197 
L 457.77845 -321.98501 
L 463.557506 -322.276059 
L 469.336563 -322.627515 
L 475.115619 -322.871545 
L 480.894676 -323.123089 
L 486.673732 -323.471276 
L 492.452788 -323.724016 
L 498.231845 -324.178683 
L 504.010901 -324.545794 
L 509.789958 -324.85492 
L 515.569014 -325.129685 
L 521.34807 -325.39545 
L 527.127127 -325.637803 
L 532.906183 -326.11015 
L 538.685239 -326.539354 
L 544.464296 -326.883751 
L 550.243352 -327.021206 
L 550.243352 -329.763771 
L 550.243352 -329.763771 
L 544.464296 -329.627113 
L 538.685239 -329.287061 
L 532.906183 -328.861526 
L 527.127127 -328.393928 
L 521.34807 -328.153615 
L 515.569014 -327.891901 
L 509.789958 -327.619896 
L 504.010901 -327.312921 
L 498.231845 -326.948786 
L 492.452788 -326.499441 
L 486.673732 -326.248745 
L 480.894676 -325.903342 
L 475.115619 -325.653866 
L 469.336563 -325.411701 
L 463.557506 -325.064654 
L 457.77845 -324.775939 
L 451.999394 -324.405945 
L 446.220337 -324.020115 
L 440.441281 -323.419915 
L 434.662225 -323.0323 
L 428.883168 -322.676508 
L 423.104112 -322.260646 
L 417.325055 -321.906275 
L 411.545999 -321.550181 
L 405.766943 -321.085317 
L 399.987886 -320.656199 
L 394.20883 -320.146788 
L 388.429773 -319.789424 
L 382.650717 -319.295156 
L 376.871661 -319.040708 
L 371.092604 -318.623341 
L 365.313548 -318.344163 
L 359.534492 -317.984745 
L 353.755435 -317.61063 
L 347.976379 -317.256233 
L 342.197322 -316.941478 
L 336.418266 -316.550419 
L 330.63921 -316.02378 
L 324.860153 -315.588217 
L 319.081097 -315.281746 
L 313.30204 -314.555504 
L 307.522984 -314.075117 
L 301.743928 -313.486532 
L 295.964871 -312.884517 
L 290.185815 -312.415025 
L 284.406758 -311.948278 
L 278.627702 -311.521789 
L 272.848646 -311.027294 
L 267.069589 -310.385548 
L 261.290533 -309.687872 
L 255.511477 -309.097166 
L 249.73242 -308.300117 
L 243.953364 -307.536521 
L 238.174307 -306.717863 
L 232.395251 -306.147037 
L 226.616195 -305.353982 
L 220.837138 -304.310844 
L 215.058082 -303.42915 
L 209.279025 -302.703645 
L 203.499969 -301.371611 
L 197.720913 -300.273718 
L 191.941856 -299.519789 
L 186.1628 -298.653478 
L 180.383744 -297.324367 
L 174.604687 -296.222545 
L 168.825631 -294.693862 
L 163.046574 -292.633857 
L 157.267518 -290.899361 
L 151.488462 -289.442971 
L 145.709405 -287.741583 
L 139.930349 -285.917249 
L 134.151292 -282.70642 
L 128.372236 -279.395057 
L 122.59318 -274.826452 
L 116.814123 -270.850853 
L 111.035067 -261.184245 
L 105.256011 -251.066645 
L 99.476954 -241.374491 
L 93.697898 -122.259289 
z
" style="stroke: #f0027f; stroke-opacity: 0.1"/>
    </defs>
    <g clip-path="url(#pb1e4218f0a)">
     <use xlink:href="#m827092e22d" x="0" y="389.977813" style="fill: #f0027f; fill-opacity: 0.1; stroke: #f0027f; stroke-opacity: 0.1"/>
    </g>
   </g>
   <g id="PolyCollection_3">
    <defs>
     <path id="m74ea3d7c11" d="M 93.697898 -256.234749 
L 93.697898 -240.004387 
L 99.476954 -263.01509 
L 105.256011 -273.193239 
L 111.035067 -281.056273 
L 116.814123 -284.50616 
L 122.59318 -286.641787 
L 128.372236 -288.4665 
L 134.151292 -290.340527 
L 139.930349 -292.247245 
L 145.709405 -294.020536 
L 151.488462 -295.649838 
L 157.267518 -297.021019 
L 163.046574 -298.727461 
L 168.825631 -300.074653 
L 174.604687 -301.384777 
L 180.383744 -302.565767 
L 186.1628 -303.75835 
L 191.941856 -304.796911 
L 197.720913 -306.000673 
L 203.499969 -307.079242 
L 209.279025 -308.149466 
L 215.058082 -309.644084 
L 220.837138 -310.939909 
L 226.616195 -312.212366 
L 232.395251 -313.497806 
L 238.174307 -314.702804 
L 243.953364 -315.819422 
L 249.73242 -316.950412 
L 255.511477 -318.014195 
L 261.290533 -319.188324 
L 267.069589 -320.194489 
L 272.848646 -321.14641 
L 278.627702 -322.357994 
L 284.406758 -323.512042 
L 290.185815 -324.621902 
L 295.964871 -325.695665 
L 301.743928 -326.835849 
L 307.522984 -327.899548 
L 313.30204 -328.887478 
L 319.081097 -329.905601 
L 324.860153 -330.81393 
L 330.63921 -331.767069 
L 336.418266 -332.860431 
L 342.197322 -333.908104 
L 347.976379 -334.902946 
L 353.755435 -335.899971 
L 359.534492 -336.866077 
L 365.313548 -337.812159 
L 371.092604 -338.721795 
L 376.871661 -339.604774 
L 382.650717 -340.44788 
L 388.429773 -341.307998 
L 394.20883 -342.124429 
L 399.987886 -342.999919 
L 405.766943 -343.838992 
L 411.545999 -344.664606 
L 417.325055 -345.441514 
L 423.104112 -346.209221 
L 428.883168 -346.951681 
L 434.662225 -347.649343 
L 440.441281 -348.357057 
L 446.220337 -349.060825 
L 451.999394 -349.767393 
L 457.77845 -350.523508 
L 463.557506 -351.254737 
L 469.336563 -351.993542 
L 475.115619 -352.701662 
L 480.894676 -353.405623 
L 486.673732 -354.081353 
L 492.452788 -354.765735 
L 498.231845 -355.417311 
L 504.010901 -356.044037 
L 509.789958 -356.673873 
L 515.569014 -357.295506 
L 521.34807 -357.941948 
L 527.127127 -358.597253 
L 532.906183 -359.220885 
L 538.685239 -359.848864 
L 544.464296 -360.468828 
L 550.243352 -361.066181 
L 550.243352 -367.657813 
L 550.243352 -367.657813 
L 544.464296 -367.036582 
L 538.685239 -366.412851 
L 532.906183 -365.768251 
L 527.127127 -365.099423 
L 521.34807 -364.432203 
L 515.569014 -363.764323 
L 509.789958 -363.124599 
L 504.010901 -362.479837 
L 498.231845 -361.834032 
L 492.452788 -361.17148 
L 486.673732 -360.495052 
L 480.894676 -359.792004 
L 475.115619 -359.06259 
L 469.336563 -358.355494 
L 463.557506 -357.664591 
L 457.77845 -356.923539 
L 451.999394 -356.201869 
L 446.220337 -355.512598 
L 440.441281 -354.834669 
L 434.662225 -354.134651 
L 428.883168 -353.441429 
L 423.104112 -352.692432 
L 417.325055 -351.973729 
L 411.545999 -351.222741 
L 405.766943 -350.445093 
L 399.987886 -349.637776 
L 394.20883 -348.76772 
L 388.429773 -347.932247 
L 382.650717 -347.098263 
L 376.871661 -346.260981 
L 371.092604 -345.37858 
L 365.313548 -344.504042 
L 359.534492 -343.604028 
L 353.755435 -342.671323 
L 347.976379 -341.723823 
L 342.197322 -340.75509 
L 336.418266 -339.767894 
L 330.63921 -338.760645 
L 324.860153 -337.888993 
L 319.081097 -336.95714 
L 313.30204 -336.04904 
L 307.522984 -335.101435 
L 301.743928 -334.110168 
L 295.964871 -333.066276 
L 290.185815 -332.094246 
L 284.406758 -331.109635 
L 278.627702 -330.081154 
L 272.848646 -328.96846 
L 267.069589 -328.042783 
L 261.290533 -327.099081 
L 255.511477 -326.140742 
L 249.73242 -325.148976 
L 243.953364 -324.185452 
L 238.174307 -323.198196 
L 232.395251 -322.151956 
L 226.616195 -321.093414 
L 220.837138 -320.040483 
L 215.058082 -318.861063 
L 209.279025 -317.614479 
L 203.499969 -316.669849 
L 197.720913 -315.685071 
L 191.941856 -314.806227 
L 186.1628 -313.773927 
L 180.383744 -312.796585 
L 174.604687 -311.781257 
L 168.825631 -310.733214 
L 163.046574 -309.592017 
L 157.267518 -308.225928 
L 151.488462 -306.717394 
L 145.709405 -305.216337 
L 139.930349 -303.775868 
L 134.151292 -302.278698 
L 128.372236 -300.723863 
L 122.59318 -298.658728 
L 116.814123 -296.292257 
L 111.035067 -294.19865 
L 105.256011 -289.752007 
L 99.476954 -281.9625 
L 93.697898 -256.234749 
z
" style="stroke: #bf5b17; stroke-opacity: 0.1"/>
    </defs>
    <g clip-path="url(#pb1e4218f0a)">
     <use xlink:href="#m74ea3d7c11" x="0" y="389.977813" style="fill: #bf5b17; fill-opacity: 0.1; stroke: #bf5b17; stroke-opacity: 0.1"/>
    </g>
   </g>
   <g id="matplotlib.axis_1">
    <g id="xtick_1">
     <g id="line2d_1">
      <path d="M 87.918841 339.84 
L 87.918841 7.2 
" clip-path="url(#pb1e4218f0a)" style="fill: none; stroke-dasharray: 1.85,0.8; stroke-dashoffset: 0; stroke: #b0b0b0; stroke-width: 0.5"/>
     </g>
     <g id="line2d_2">
      <defs>
       <path id="me1fbbe3f78" d="M 0 0 
L 0 3.5 
" style="stroke: #000000; stroke-width: 0.8"/>
      </defs>
      <g>
       <use xlink:href="#me1fbbe3f78" x="87.918841" y="339.84" style="stroke: #000000; stroke-width: 0.8"/>
      </g>
     </g>
     <g id="text_1">
      <!-- 0 -->
      <g transform="translate(83.146966 358.237656) scale(0.15 -0.15)">
       <defs>
        <path id="DejaVuSans-30" d="M 2034 4250 
Q 1547 4250 1301 3770 
Q 1056 3291 1056 2328 
Q 1056 1369 1301 889 
Q 1547 409 2034 409 
Q 2525 409 2770 889 
Q 3016 1369 3016 2328 
Q 3016 3291 2770 3770 
Q 2525 4250 2034 4250 
z
M 2034 4750 
Q 2819 4750 3233 4129 
Q 3647 3509 3647 2328 
Q 3647 1150 3233 529 
Q 2819 -91 2034 -91 
Q 1250 -91 836 529 
Q 422 1150 422 2328 
Q 422 3509 836 4129 
Q 1250 4750 2034 4750 
z
" transform="scale(0.015625)"/>
       </defs>
       <use xlink:href="#DejaVuSans-30"/>
      </g>
     </g>
    </g>
    <g id="xtick_2">
     <g id="line2d_3">
      <path d="M 145.709405 339.84 
L 145.709405 7.2 
" clip-path="url(#pb1e4218f0a)" style="fill: none; stroke-dasharray: 1.85,0.8; stroke-dashoffset: 0; stroke: #b0b0b0; stroke-width: 0.5"/>
     </g>
     <g id="line2d_4">
      <g>
       <use xlink:href="#me1fbbe3f78" x="145.709405" y="339.84" style="stroke: #000000; stroke-width: 0.8"/>
      </g>
     </g>
     <g id="text_2">
      <!-- 10 -->
      <g transform="translate(136.165655 358.237656) scale(0.15 -0.15)">
       <defs>
        <path id="DejaVuSans-31" d="M 794 531 
L 1825 531 
L 1825 4091 
L 703 3866 
L 703 4441 
L 1819 4666 
L 2450 4666 
L 2450 531 
L 3481 531 
L 3481 0 
L 794 0 
L 794 531 
z
" transform="scale(0.015625)"/>
       </defs>
       <use xlink:href="#DejaVuSans-31"/>
       <use xlink:href="#DejaVuSans-30" x="63.623047"/>
      </g>
     </g>
    </g>
    <g id="xtick_3">
     <g id="line2d_5">
      <path d="M 203.499969 339.84 
L 203.499969 7.2 
" clip-path="url(#pb1e4218f0a)" style="fill: none; stroke-dasharray: 1.85,0.8; stroke-dashoffset: 0; stroke: #b0b0b0; stroke-width: 0.5"/>
     </g>
     <g id="line2d_6">
      <g>
       <use xlink:href="#me1fbbe3f78" x="203.499969" y="339.84" style="stroke: #000000; stroke-width: 0.8"/>
      </g>
     </g>
     <g id="text_3">
      <!-- 20 -->
      <g transform="translate(193.956219 358.237656) scale(0.15 -0.15)">
       <defs>
        <path id="DejaVuSans-32" d="M 1228 531 
L 3431 531 
L 3431 0 
L 469 0 
L 469 531 
Q 828 903 1448 1529 
Q 2069 2156 2228 2338 
Q 2531 2678 2651 2914 
Q 2772 3150 2772 3378 
Q 2772 3750 2511 3984 
Q 2250 4219 1831 4219 
Q 1534 4219 1204 4116 
Q 875 4013 500 3803 
L 500 4441 
Q 881 4594 1212 4672 
Q 1544 4750 1819 4750 
Q 2544 4750 2975 4387 
Q 3406 4025 3406 3419 
Q 3406 3131 3298 2873 
Q 3191 2616 2906 2266 
Q 2828 2175 2409 1742 
Q 1991 1309 1228 531 
z
" transform="scale(0.015625)"/>
       </defs>
       <use xlink:href="#DejaVuSans-32"/>
       <use xlink:href="#DejaVuSans-30" x="63.623047"/>
      </g>
     </g>
    </g>
    <g id="xtick_4">
     <g id="line2d_7">
      <path d="M 261.290533 339.84 
L 261.290533 7.2 
" clip-path="url(#pb1e4218f0a)" style="fill: none; stroke-dasharray: 1.85,0.8; stroke-dashoffset: 0; stroke: #b0b0b0; stroke-width: 0.5"/>
     </g>
     <g id="line2d_8">
      <g>
       <use xlink:href="#me1fbbe3f78" x="261.290533" y="339.84" style="stroke: #000000; stroke-width: 0.8"/>
      </g>
     </g>
     <g id="text_4">
      <!-- 30 -->
      <g transform="translate(251.746783 358.237656) scale(0.15 -0.15)">
       <defs>
        <path id="DejaVuSans-33" d="M 2597 2516 
Q 3050 2419 3304 2112 
Q 3559 1806 3559 1356 
Q 3559 666 3084 287 
Q 2609 -91 1734 -91 
Q 1441 -91 1130 -33 
Q 819 25 488 141 
L 488 750 
Q 750 597 1062 519 
Q 1375 441 1716 441 
Q 2309 441 2620 675 
Q 2931 909 2931 1356 
Q 2931 1769 2642 2001 
Q 2353 2234 1838 2234 
L 1294 2234 
L 1294 2753 
L 1863 2753 
Q 2328 2753 2575 2939 
Q 2822 3125 2822 3475 
Q 2822 3834 2567 4026 
Q 2313 4219 1838 4219 
Q 1578 4219 1281 4162 
Q 984 4106 628 3988 
L 628 4550 
Q 988 4650 1302 4700 
Q 1616 4750 1894 4750 
Q 2613 4750 3031 4423 
Q 3450 4097 3450 3541 
Q 3450 3153 3228 2886 
Q 3006 2619 2597 2516 
z
" transform="scale(0.015625)"/>
       </defs>
       <use xlink:href="#DejaVuSans-33"/>
       <use xlink:href="#DejaVuSans-30" x="63.623047"/>
      </g>
     </g>
    </g>
    <g id="xtick_5">
     <g id="line2d_9">
      <path d="M 319.081097 339.84 
L 319.081097 7.2 
" clip-path="url(#pb1e4218f0a)" style="fill: none; stroke-dasharray: 1.85,0.8; stroke-dashoffset: 0; stroke: #b0b0b0; stroke-width: 0.5"/>
     </g>
     <g id="line2d_10">
      <g>
       <use xlink:href="#me1fbbe3f78" x="319.081097" y="339.84" style="stroke: #000000; stroke-width: 0.8"/>
      </g>
     </g>
     <g id="text_5">
      <!-- 40 -->
      <g transform="translate(309.537347 358.237656) scale(0.15 -0.15)">
       <defs>
        <path id="DejaVuSans-34" d="M 2419 4116 
L 825 1625 
L 2419 1625 
L 2419 4116 
z
M 2253 4666 
L 3047 4666 
L 3047 1625 
L 3713 1625 
L 3713 1100 
L 3047 1100 
L 3047 0 
L 2419 0 
L 2419 1100 
L 313 1100 
L 313 1709 
L 2253 4666 
z
" transform="scale(0.015625)"/>
       </defs>
       <use xlink:href="#DejaVuSans-34"/>
       <use xlink:href="#DejaVuSans-30" x="63.623047"/>
      </g>
     </g>
    </g>
    <g id="xtick_6">
     <g id="line2d_11">
      <path d="M 376.871661 339.84 
L 376.871661 7.2 
" clip-path="url(#pb1e4218f0a)" style="fill: none; stroke-dasharray: 1.85,0.8; stroke-dashoffset: 0; stroke: #b0b0b0; stroke-width: 0.5"/>
     </g>
     <g id="line2d_12">
      <g>
       <use xlink:href="#me1fbbe3f78" x="376.871661" y="339.84" style="stroke: #000000; stroke-width: 0.8"/>
      </g>
     </g>
     <g id="text_6">
      <!-- 50 -->
      <g transform="translate(367.327911 358.237656) scale(0.15 -0.15)">
       <defs>
        <path id="DejaVuSans-35" d="M 691 4666 
L 3169 4666 
L 3169 4134 
L 1269 4134 
L 1269 2991 
Q 1406 3038 1543 3061 
Q 1681 3084 1819 3084 
Q 2600 3084 3056 2656 
Q 3513 2228 3513 1497 
Q 3513 744 3044 326 
Q 2575 -91 1722 -91 
Q 1428 -91 1123 -41 
Q 819 9 494 109 
L 494 744 
Q 775 591 1075 516 
Q 1375 441 1709 441 
Q 2250 441 2565 725 
Q 2881 1009 2881 1497 
Q 2881 1984 2565 2268 
Q 2250 2553 1709 2553 
Q 1456 2553 1204 2497 
Q 953 2441 691 2322 
L 691 4666 
z
" transform="scale(0.015625)"/>
       </defs>
       <use xlink:href="#DejaVuSans-35"/>
       <use xlink:href="#DejaVuSans-30" x="63.623047"/>
      </g>
     </g>
    </g>
    <g id="xtick_7">
     <g id="line2d_13">
      <path d="M 434.662225 339.84 
L 434.662225 7.2 
" clip-path="url(#pb1e4218f0a)" style="fill: none; stroke-dasharray: 1.85,0.8; stroke-dashoffset: 0; stroke: #b0b0b0; stroke-width: 0.5"/>
     </g>
     <g id="line2d_14">
      <g>
       <use xlink:href="#me1fbbe3f78" x="434.662225" y="339.84" style="stroke: #000000; stroke-width: 0.8"/>
      </g>
     </g>
     <g id="text_7">
      <!-- 60 -->
      <g transform="translate(425.118475 358.237656) scale(0.15 -0.15)">
       <defs>
        <path id="DejaVuSans-36" d="M 2113 2584 
Q 1688 2584 1439 2293 
Q 1191 2003 1191 1497 
Q 1191 994 1439 701 
Q 1688 409 2113 409 
Q 2538 409 2786 701 
Q 3034 994 3034 1497 
Q 3034 2003 2786 2293 
Q 2538 2584 2113 2584 
z
M 3366 4563 
L 3366 3988 
Q 3128 4100 2886 4159 
Q 2644 4219 2406 4219 
Q 1781 4219 1451 3797 
Q 1122 3375 1075 2522 
Q 1259 2794 1537 2939 
Q 1816 3084 2150 3084 
Q 2853 3084 3261 2657 
Q 3669 2231 3669 1497 
Q 3669 778 3244 343 
Q 2819 -91 2113 -91 
Q 1303 -91 875 529 
Q 447 1150 447 2328 
Q 447 3434 972 4092 
Q 1497 4750 2381 4750 
Q 2619 4750 2861 4703 
Q 3103 4656 3366 4563 
z
" transform="scale(0.015625)"/>
       </defs>
       <use xlink:href="#DejaVuSans-36"/>
       <use xlink:href="#DejaVuSans-30" x="63.623047"/>
      </g>
     </g>
    </g>
    <g id="xtick_8">
     <g id="line2d_15">
      <path d="M 492.452788 339.84 
L 492.452788 7.2 
" clip-path="url(#pb1e4218f0a)" style="fill: none; stroke-dasharray: 1.85,0.8; stroke-dashoffset: 0; stroke: #b0b0b0; stroke-width: 0.5"/>
     </g>
     <g id="line2d_16">
      <g>
       <use xlink:href="#me1fbbe3f78" x="492.452788" y="339.84" style="stroke: #000000; stroke-width: 0.8"/>
      </g>
     </g>
     <g id="text_8">
      <!-- 70 -->
      <g transform="translate(482.909038 358.237656) scale(0.15 -0.15)">
       <defs>
        <path id="DejaVuSans-37" d="M 525 4666 
L 3525 4666 
L 3525 4397 
L 1831 0 
L 1172 0 
L 2766 4134 
L 525 4134 
L 525 4666 
z
" transform="scale(0.015625)"/>
       </defs>
       <use xlink:href="#DejaVuSans-37"/>
       <use xlink:href="#DejaVuSans-30" x="63.623047"/>
      </g>
     </g>
    </g>
    <g id="xtick_9">
     <g id="line2d_17">
      <path d="M 550.243352 339.84 
L 550.243352 7.2 
" clip-path="url(#pb1e4218f0a)" style="fill: none; stroke-dasharray: 1.85,0.8; stroke-dashoffset: 0; stroke: #b0b0b0; stroke-width: 0.5"/>
     </g>
     <g id="line2d_18">
      <g>
       <use xlink:href="#me1fbbe3f78" x="550.243352" y="339.84" style="stroke: #000000; stroke-width: 0.8"/>
      </g>
     </g>
     <g id="text_9">
      <!-- 80 -->
      <g transform="translate(540.699602 358.237656) scale(0.15 -0.15)">
       <defs>
        <path id="DejaVuSans-38" d="M 2034 2216 
Q 1584 2216 1326 1975 
Q 1069 1734 1069 1313 
Q 1069 891 1326 650 
Q 1584 409 2034 409 
Q 2484 409 2743 651 
Q 3003 894 3003 1313 
Q 3003 1734 2745 1975 
Q 2488 2216 2034 2216 
z
M 1403 2484 
Q 997 2584 770 2862 
Q 544 3141 544 3541 
Q 544 4100 942 4425 
Q 1341 4750 2034 4750 
Q 2731 4750 3128 4425 
Q 3525 4100 3525 3541 
Q 3525 3141 3298 2862 
Q 3072 2584 2669 2484 
Q 3125 2378 3379 2068 
Q 3634 1759 3634 1313 
Q 3634 634 3220 271 
Q 2806 -91 2034 -91 
Q 1263 -91 848 271 
Q 434 634 434 1313 
Q 434 1759 690 2068 
Q 947 2378 1403 2484 
z
M 1172 3481 
Q 1172 3119 1398 2916 
Q 1625 2713 2034 2713 
Q 2441 2713 2670 2916 
Q 2900 3119 2900 3481 
Q 2900 3844 2670 4047 
Q 2441 4250 2034 4250 
Q 1625 4250 1398 4047 
Q 1172 3844 1172 3481 
z
" transform="scale(0.015625)"/>
       </defs>
       <use xlink:href="#DejaVuSans-38"/>
       <use xlink:href="#DejaVuSans-30" x="63.623047"/>
      </g>
     </g>
    </g>
    <g id="text_10">
     <!-- Decision Round -->
     <g transform="translate(252.317656 379.034375) scale(0.18 -0.18)">
      <defs>
       <path id="DejaVuSans-44" d="M 1259 4147 
L 1259 519 
L 2022 519 
Q 2988 519 3436 956 
Q 3884 1394 3884 2338 
Q 3884 3275 3436 3711 
Q 2988 4147 2022 4147 
L 1259 4147 
z
M 628 4666 
L 1925 4666 
Q 3281 4666 3915 4102 
Q 4550 3538 4550 2338 
Q 4550 1131 3912 565 
Q 3275 0 1925 0 
L 628 0 
L 628 4666 
z
" transform="scale(0.015625)"/>
       <path id="DejaVuSans-65" d="M 3597 1894 
L 3597 1613 
L 953 1613 
Q 991 1019 1311 708 
Q 1631 397 2203 397 
Q 2534 397 2845 478 
Q 3156 559 3463 722 
L 3463 178 
Q 3153 47 2828 -22 
Q 2503 -91 2169 -91 
Q 1331 -91 842 396 
Q 353 884 353 1716 
Q 353 2575 817 3079 
Q 1281 3584 2069 3584 
Q 2775 3584 3186 3129 
Q 3597 2675 3597 1894 
z
M 3022 2063 
Q 3016 2534 2758 2815 
Q 2500 3097 2075 3097 
Q 1594 3097 1305 2825 
Q 1016 2553 972 2059 
L 3022 2063 
z
" transform="scale(0.015625)"/>
       <path id="DejaVuSans-63" d="M 3122 3366 
L 3122 2828 
Q 2878 2963 2633 3030 
Q 2388 3097 2138 3097 
Q 1578 3097 1268 2742 
Q 959 2388 959 1747 
Q 959 1106 1268 751 
Q 1578 397 2138 397 
Q 2388 397 2633 464 
Q 2878 531 3122 666 
L 3122 134 
Q 2881 22 2623 -34 
Q 2366 -91 2075 -91 
Q 1284 -91 818 406 
Q 353 903 353 1747 
Q 353 2603 823 3093 
Q 1294 3584 2113 3584 
Q 2378 3584 2631 3529 
Q 2884 3475 3122 3366 
z
" transform="scale(0.015625)"/>
       <path id="DejaVuSans-69" d="M 603 3500 
L 1178 3500 
L 1178 0 
L 603 0 
L 603 3500 
z
M 603 4863 
L 1178 4863 
L 1178 4134 
L 603 4134 
L 603 4863 
z
" transform="scale(0.015625)"/>
       <path id="DejaVuSans-73" d="M 2834 3397 
L 2834 2853 
Q 2591 2978 2328 3040 
Q 2066 3103 1784 3103 
Q 1356 3103 1142 2972 
Q 928 2841 928 2578 
Q 928 2378 1081 2264 
Q 1234 2150 1697 2047 
L 1894 2003 
Q 2506 1872 2764 1633 
Q 3022 1394 3022 966 
Q 3022 478 2636 193 
Q 2250 -91 1575 -91 
Q 1294 -91 989 -36 
Q 684 19 347 128 
L 347 722 
Q 666 556 975 473 
Q 1284 391 1588 391 
Q 1994 391 2212 530 
Q 2431 669 2431 922 
Q 2431 1156 2273 1281 
Q 2116 1406 1581 1522 
L 1381 1569 
Q 847 1681 609 1914 
Q 372 2147 372 2553 
Q 372 3047 722 3315 
Q 1072 3584 1716 3584 
Q 2034 3584 2315 3537 
Q 2597 3491 2834 3397 
z
" transform="scale(0.015625)"/>
       <path id="DejaVuSans-6f" d="M 1959 3097 
Q 1497 3097 1228 2736 
Q 959 2375 959 1747 
Q 959 1119 1226 758 
Q 1494 397 1959 397 
Q 2419 397 2687 759 
Q 2956 1122 2956 1747 
Q 2956 2369 2687 2733 
Q 2419 3097 1959 3097 
z
M 1959 3584 
Q 2709 3584 3137 3096 
Q 3566 2609 3566 1747 
Q 3566 888 3137 398 
Q 2709 -91 1959 -91 
Q 1206 -91 779 398 
Q 353 888 353 1747 
Q 353 2609 779 3096 
Q 1206 3584 1959 3584 
z
" transform="scale(0.015625)"/>
       <path id="DejaVuSans-6e" d="M 3513 2113 
L 3513 0 
L 2938 0 
L 2938 2094 
Q 2938 2591 2744 2837 
Q 2550 3084 2163 3084 
Q 1697 3084 1428 2787 
Q 1159 2491 1159 1978 
L 1159 0 
L 581 0 
L 581 3500 
L 1159 3500 
L 1159 2956 
Q 1366 3272 1645 3428 
Q 1925 3584 2291 3584 
Q 2894 3584 3203 3211 
Q 3513 2838 3513 2113 
z
" transform="scale(0.015625)"/>
       <path id="DejaVuSans-20" transform="scale(0.015625)"/>
       <path id="DejaVuSans-52" d="M 2841 2188 
Q 3044 2119 3236 1894 
Q 3428 1669 3622 1275 
L 4263 0 
L 3584 0 
L 2988 1197 
Q 2756 1666 2539 1819 
Q 2322 1972 1947 1972 
L 1259 1972 
L 1259 0 
L 628 0 
L 628 4666 
L 2053 4666 
Q 2853 4666 3247 4331 
Q 3641 3997 3641 3322 
Q 3641 2881 3436 2590 
Q 3231 2300 2841 2188 
z
M 1259 4147 
L 1259 2491 
L 2053 2491 
Q 2509 2491 2742 2702 
Q 2975 2913 2975 3322 
Q 2975 3731 2742 3939 
Q 2509 4147 2053 4147 
L 1259 4147 
z
" transform="scale(0.015625)"/>
       <path id="DejaVuSans-75" d="M 544 1381 
L 544 3500 
L 1119 3500 
L 1119 1403 
Q 1119 906 1312 657 
Q 1506 409 1894 409 
Q 2359 409 2629 706 
Q 2900 1003 2900 1516 
L 2900 3500 
L 3475 3500 
L 3475 0 
L 2900 0 
L 2900 538 
Q 2691 219 2414 64 
Q 2138 -91 1772 -91 
Q 1169 -91 856 284 
Q 544 659 544 1381 
z
M 1991 3584 
L 1991 3584 
z
" transform="scale(0.015625)"/>
       <path id="DejaVuSans-64" d="M 2906 2969 
L 2906 4863 
L 3481 4863 
L 3481 0 
L 2906 0 
L 2906 525 
Q 2725 213 2448 61 
Q 2172 -91 1784 -91 
Q 1150 -91 751 415 
Q 353 922 353 1747 
Q 353 2572 751 3078 
Q 1150 3584 1784 3584 
Q 2172 3584 2448 3432 
Q 2725 3281 2906 2969 
z
M 947 1747 
Q 947 1113 1208 752 
Q 1469 391 1925 391 
Q 2381 391 2643 752 
Q 2906 1113 2906 1747 
Q 2906 2381 2643 2742 
Q 2381 3103 1925 3103 
Q 1469 3103 1208 2742 
Q 947 2381 947 1747 
z
" transform="scale(0.015625)"/>
      </defs>
      <use xlink:href="#DejaVuSans-44"/>
      <use xlink:href="#DejaVuSans-65" x="77.001953"/>
      <use xlink:href="#DejaVuSans-63" x="138.525391"/>
      <use xlink:href="#DejaVuSans-69" x="193.505859"/>
      <use xlink:href="#DejaVuSans-73" x="221.289062"/>
      <use xlink:href="#DejaVuSans-69" x="273.388672"/>
      <use xlink:href="#DejaVuSans-6f" x="301.171875"/>
      <use xlink:href="#DejaVuSans-6e" x="362.353516"/>
      <use xlink:href="#DejaVuSans-20" x="425.732422"/>
      <use xlink:href="#DejaVuSans-52" x="457.519531"/>
      <use xlink:href="#DejaVuSans-6f" x="522.501953"/>
      <use xlink:href="#DejaVuSans-75" x="583.683594"/>
      <use xlink:href="#DejaVuSans-6e" x="647.0625"/>
      <use xlink:href="#DejaVuSans-64" x="710.441406"/>
     </g>
    </g>
   </g>
   <g id="matplotlib.axis_2">
    <g id="ytick_1">
     <g id="line2d_19">
      <path d="M 70.870625 297.30288 
L 573.070625 297.30288 
" clip-path="url(#pb1e4218f0a)" style="fill: none; stroke-dasharray: 1.85,0.8; stroke-dashoffset: 0; stroke: #b0b0b0; stroke-width: 0.5"/>
     </g>
     <g id="line2d_20">
      <defs>
       <path id="m98e8530606" d="M 0 0 
L -3.5 0 
" style="stroke: #000000; stroke-width: 0.8"/>
      </defs>
      <g>
       <use xlink:href="#m98e8530606" x="70.870625" y="297.30288" style="stroke: #000000; stroke-width: 0.8"/>
      </g>
     </g>
     <g id="text_11">
      <!-- $\mathdefault{10^{-2}}$ -->
      <g transform="translate(28.620625 303.001708) scale(0.15 -0.15)">
       <defs>
        <path id="DejaVuSans-2212" d="M 678 2272 
L 4684 2272 
L 4684 1741 
L 678 1741 
L 678 2272 
z
" transform="scale(0.015625)"/>
       </defs>
       <use xlink:href="#DejaVuSans-31" transform="translate(0 0.765625)"/>
       <use xlink:href="#DejaVuSans-30" transform="translate(63.623047 0.765625)"/>
       <use xlink:href="#DejaVuSans-2212" transform="translate(128.203125 39.046875) scale(0.7)"/>
       <use xlink:href="#DejaVuSans-32" transform="translate(186.855469 39.046875) scale(0.7)"/>
      </g>
     </g>
    </g>
    <g id="ytick_2">
     <g id="line2d_21">
      <path d="M 70.870625 223.804913 
L 573.070625 223.804913 
" clip-path="url(#pb1e4218f0a)" style="fill: none; stroke-dasharray: 1.85,0.8; stroke-dashoffset: 0; stroke: #b0b0b0; stroke-width: 0.5"/>
     </g>
     <g id="line2d_22">
      <g>
       <use xlink:href="#m98e8530606" x="70.870625" y="223.804913" style="stroke: #000000; stroke-width: 0.8"/>
      </g>
     </g>
     <g id="text_12">
      <!-- $\mathdefault{10^{-1}}$ -->
      <g transform="translate(28.620625 229.503741) scale(0.15 -0.15)">
       <use xlink:href="#DejaVuSans-31" transform="translate(0 0.684375)"/>
       <use xlink:href="#DejaVuSans-30" transform="translate(63.623047 0.684375)"/>
       <use xlink:href="#DejaVuSans-2212" transform="translate(128.203125 38.965625) scale(0.7)"/>
       <use xlink:href="#DejaVuSans-31" transform="translate(186.855469 38.965625) scale(0.7)"/>
      </g>
     </g>
    </g>
    <g id="ytick_3">
     <g id="line2d_23">
      <path d="M 70.870625 150.306946 
L 573.070625 150.306946 
" clip-path="url(#pb1e4218f0a)" style="fill: none; stroke-dasharray: 1.85,0.8; stroke-dashoffset: 0; stroke: #b0b0b0; stroke-width: 0.5"/>
     </g>
     <g id="line2d_24">
      <g>
       <use xlink:href="#m98e8530606" x="70.870625" y="150.306946" style="stroke: #000000; stroke-width: 0.8"/>
      </g>
     </g>
     <g id="text_13">
      <!-- $\mathdefault{10^{0}}$ -->
      <g transform="translate(37.470625 156.005774) scale(0.15 -0.15)">
       <use xlink:href="#DejaVuSans-31" transform="translate(0 0.765625)"/>
       <use xlink:href="#DejaVuSans-30" transform="translate(63.623047 0.765625)"/>
       <use xlink:href="#DejaVuSans-30" transform="translate(128.203125 39.046875) scale(0.7)"/>
      </g>
     </g>
    </g>
    <g id="ytick_4">
     <g id="line2d_25">
      <path d="M 70.870625 76.808978 
L 573.070625 76.808978 
" clip-path="url(#pb1e4218f0a)" style="fill: none; stroke-dasharray: 1.85,0.8; stroke-dashoffset: 0; stroke: #b0b0b0; stroke-width: 0.5"/>
     </g>
     <g id="line2d_26">
      <g>
       <use xlink:href="#m98e8530606" x="70.870625" y="76.808978" style="stroke: #000000; stroke-width: 0.8"/>
      </g>
     </g>
     <g id="text_14">
      <!-- $\mathdefault{10^{1}}$ -->
      <g transform="translate(37.470625 82.507806) scale(0.15 -0.15)">
       <use xlink:href="#DejaVuSans-31" transform="translate(0 0.684375)"/>
       <use xlink:href="#DejaVuSans-30" transform="translate(63.623047 0.684375)"/>
       <use xlink:href="#DejaVuSans-31" transform="translate(128.203125 38.965625) scale(0.7)"/>
      </g>
     </g>
    </g>
    <g id="ytick_5">
     <g id="line2d_27">
      <defs>
       <path id="mf10eaea35b" d="M 0 0 
L -2 0 
" style="stroke: #000000; stroke-width: 0.6"/>
      </defs>
      <g>
       <use xlink:href="#mf10eaea35b" x="70.870625" y="335.733405" style="stroke: #000000; stroke-width: 0.6"/>
      </g>
     </g>
    </g>
    <g id="ytick_6">
     <g id="line2d_28">
      <g>
       <use xlink:href="#mf10eaea35b" x="70.870625" y="326.550662" style="stroke: #000000; stroke-width: 0.6"/>
      </g>
     </g>
    </g>
    <g id="ytick_7">
     <g id="line2d_29">
      <g>
       <use xlink:href="#mf10eaea35b" x="70.870625" y="319.427973" style="stroke: #000000; stroke-width: 0.6"/>
      </g>
     </g>
    </g>
    <g id="ytick_8">
     <g id="line2d_30">
      <g>
       <use xlink:href="#mf10eaea35b" x="70.870625" y="313.608312" style="stroke: #000000; stroke-width: 0.6"/>
      </g>
     </g>
    </g>
    <g id="ytick_9">
     <g id="line2d_31">
      <g>
       <use xlink:href="#mf10eaea35b" x="70.870625" y="308.68786" style="stroke: #000000; stroke-width: 0.6"/>
      </g>
     </g>
    </g>
    <g id="ytick_10">
     <g id="line2d_32">
      <g>
       <use xlink:href="#mf10eaea35b" x="70.870625" y="304.425569" style="stroke: #000000; stroke-width: 0.6"/>
      </g>
     </g>
    </g>
    <g id="ytick_11">
     <g id="line2d_33">
      <g>
       <use xlink:href="#mf10eaea35b" x="70.870625" y="300.665963" style="stroke: #000000; stroke-width: 0.6"/>
      </g>
     </g>
    </g>
    <g id="ytick_12">
     <g id="line2d_34">
      <g>
       <use xlink:href="#mf10eaea35b" x="70.870625" y="275.177788" style="stroke: #000000; stroke-width: 0.6"/>
      </g>
     </g>
    </g>
    <g id="ytick_13">
     <g id="line2d_35">
      <g>
       <use xlink:href="#mf10eaea35b" x="70.870625" y="262.235438" style="stroke: #000000; stroke-width: 0.6"/>
      </g>
     </g>
    </g>
    <g id="ytick_14">
     <g id="line2d_36">
      <g>
       <use xlink:href="#mf10eaea35b" x="70.870625" y="253.052695" style="stroke: #000000; stroke-width: 0.6"/>
      </g>
     </g>
    </g>
    <g id="ytick_15">
     <g id="line2d_37">
      <g>
       <use xlink:href="#mf10eaea35b" x="70.870625" y="245.930006" style="stroke: #000000; stroke-width: 0.6"/>
      </g>
     </g>
    </g>
    <g id="ytick_16">
     <g id="line2d_38">
      <g>
       <use xlink:href="#mf10eaea35b" x="70.870625" y="240.110345" style="stroke: #000000; stroke-width: 0.6"/>
      </g>
     </g>
    </g>
    <g id="ytick_17">
     <g id="line2d_39">
      <g>
       <use xlink:href="#mf10eaea35b" x="70.870625" y="235.189892" style="stroke: #000000; stroke-width: 0.6"/>
      </g>
     </g>
    </g>
    <g id="ytick_18">
     <g id="line2d_40">
      <g>
       <use xlink:href="#mf10eaea35b" x="70.870625" y="230.927602" style="stroke: #000000; stroke-width: 0.6"/>
      </g>
     </g>
    </g>
    <g id="ytick_19">
     <g id="line2d_41">
      <g>
       <use xlink:href="#mf10eaea35b" x="70.870625" y="227.167995" style="stroke: #000000; stroke-width: 0.6"/>
      </g>
     </g>
    </g>
    <g id="ytick_20">
     <g id="line2d_42">
      <g>
       <use xlink:href="#mf10eaea35b" x="70.870625" y="201.67982" style="stroke: #000000; stroke-width: 0.6"/>
      </g>
     </g>
    </g>
    <g id="ytick_21">
     <g id="line2d_43">
      <g>
       <use xlink:href="#mf10eaea35b" x="70.870625" y="188.737471" style="stroke: #000000; stroke-width: 0.6"/>
      </g>
     </g>
    </g>
    <g id="ytick_22">
     <g id="line2d_44">
      <g>
       <use xlink:href="#mf10eaea35b" x="70.870625" y="179.554727" style="stroke: #000000; stroke-width: 0.6"/>
      </g>
     </g>
    </g>
    <g id="ytick_23">
     <g id="line2d_45">
      <g>
       <use xlink:href="#mf10eaea35b" x="70.870625" y="172.432038" style="stroke: #000000; stroke-width: 0.6"/>
      </g>
     </g>
    </g>
    <g id="ytick_24">
     <g id="line2d_46">
      <g>
       <use xlink:href="#mf10eaea35b" x="70.870625" y="166.612378" style="stroke: #000000; stroke-width: 0.6"/>
      </g>
     </g>
    </g>
    <g id="ytick_25">
     <g id="line2d_47">
      <g>
       <use xlink:href="#mf10eaea35b" x="70.870625" y="161.691925" style="stroke: #000000; stroke-width: 0.6"/>
      </g>
     </g>
    </g>
    <g id="ytick_26">
     <g id="line2d_48">
      <g>
       <use xlink:href="#mf10eaea35b" x="70.870625" y="157.429635" style="stroke: #000000; stroke-width: 0.6"/>
      </g>
     </g>
    </g>
    <g id="ytick_27">
     <g id="line2d_49">
      <g>
       <use xlink:href="#mf10eaea35b" x="70.870625" y="153.670028" style="stroke: #000000; stroke-width: 0.6"/>
      </g>
     </g>
    </g>
    <g id="ytick_28">
     <g id="line2d_50">
      <g>
       <use xlink:href="#mf10eaea35b" x="70.870625" y="128.181853" style="stroke: #000000; stroke-width: 0.6"/>
      </g>
     </g>
    </g>
    <g id="ytick_29">
     <g id="line2d_51">
      <g>
       <use xlink:href="#mf10eaea35b" x="70.870625" y="115.239503" style="stroke: #000000; stroke-width: 0.6"/>
      </g>
     </g>
    </g>
    <g id="ytick_30">
     <g id="line2d_52">
      <g>
       <use xlink:href="#mf10eaea35b" x="70.870625" y="106.05676" style="stroke: #000000; stroke-width: 0.6"/>
      </g>
     </g>
    </g>
    <g id="ytick_31">
     <g id="line2d_53">
      <g>
       <use xlink:href="#mf10eaea35b" x="70.870625" y="98.934071" style="stroke: #000000; stroke-width: 0.6"/>
      </g>
     </g>
    </g>
    <g id="ytick_32">
     <g id="line2d_54">
      <g>
       <use xlink:href="#mf10eaea35b" x="70.870625" y="93.11441" style="stroke: #000000; stroke-width: 0.6"/>
      </g>
     </g>
    </g>
    <g id="ytick_33">
     <g id="line2d_55">
      <g>
       <use xlink:href="#mf10eaea35b" x="70.870625" y="88.193957" style="stroke: #000000; stroke-width: 0.6"/>
      </g>
     </g>
    </g>
    <g id="ytick_34">
     <g id="line2d_56">
      <g>
       <use xlink:href="#mf10eaea35b" x="70.870625" y="83.931667" style="stroke: #000000; stroke-width: 0.6"/>
      </g>
     </g>
    </g>
    <g id="ytick_35">
     <g id="line2d_57">
      <g>
       <use xlink:href="#mf10eaea35b" x="70.870625" y="80.172061" style="stroke: #000000; stroke-width: 0.6"/>
      </g>
     </g>
    </g>
    <g id="ytick_36">
     <g id="line2d_58">
      <g>
       <use xlink:href="#mf10eaea35b" x="70.870625" y="54.683885" style="stroke: #000000; stroke-width: 0.6"/>
      </g>
     </g>
    </g>
    <g id="ytick_37">
     <g id="line2d_59">
      <g>
       <use xlink:href="#mf10eaea35b" x="70.870625" y="41.741536" style="stroke: #000000; stroke-width: 0.6"/>
      </g>
     </g>
    </g>
    <g id="ytick_38">
     <g id="line2d_60">
      <g>
       <use xlink:href="#mf10eaea35b" x="70.870625" y="32.558793" style="stroke: #000000; stroke-width: 0.6"/>
      </g>
     </g>
    </g>
    <g id="ytick_39">
     <g id="line2d_61">
      <g>
       <use xlink:href="#mf10eaea35b" x="70.870625" y="25.436104" style="stroke: #000000; stroke-width: 0.6"/>
      </g>
     </g>
    </g>
    <g id="ytick_40">
     <g id="line2d_62">
      <g>
       <use xlink:href="#mf10eaea35b" x="70.870625" y="19.616443" style="stroke: #000000; stroke-width: 0.6"/>
      </g>
     </g>
    </g>
    <g id="ytick_41">
     <g id="line2d_63">
      <g>
       <use xlink:href="#mf10eaea35b" x="70.870625" y="14.69599" style="stroke: #000000; stroke-width: 0.6"/>
      </g>
     </g>
    </g>
    <g id="ytick_42">
     <g id="line2d_64">
      <g>
       <use xlink:href="#mf10eaea35b" x="70.870625" y="10.4337" style="stroke: #000000; stroke-width: 0.6"/>
      </g>
     </g>
    </g>
    <g id="text_15">
     <!-- Runtime -->
     <g transform="translate(20.877188 211.109063) rotate(-90) scale(0.18 -0.18)">
      <defs>
       <path id="DejaVuSans-74" d="M 1172 4494 
L 1172 3500 
L 2356 3500 
L 2356 3053 
L 1172 3053 
L 1172 1153 
Q 1172 725 1289 603 
Q 1406 481 1766 481 
L 2356 481 
L 2356 0 
L 1766 0 
Q 1100 0 847 248 
Q 594 497 594 1153 
L 594 3053 
L 172 3053 
L 172 3500 
L 594 3500 
L 594 4494 
L 1172 4494 
z
" transform="scale(0.015625)"/>
       <path id="DejaVuSans-6d" d="M 3328 2828 
Q 3544 3216 3844 3400 
Q 4144 3584 4550 3584 
Q 5097 3584 5394 3201 
Q 5691 2819 5691 2113 
L 5691 0 
L 5113 0 
L 5113 2094 
Q 5113 2597 4934 2840 
Q 4756 3084 4391 3084 
Q 3944 3084 3684 2787 
Q 3425 2491 3425 1978 
L 3425 0 
L 2847 0 
L 2847 2094 
Q 2847 2600 2669 2842 
Q 2491 3084 2119 3084 
Q 1678 3084 1418 2786 
Q 1159 2488 1159 1978 
L 1159 0 
L 581 0 
L 581 3500 
L 1159 3500 
L 1159 2956 
Q 1356 3278 1631 3431 
Q 1906 3584 2284 3584 
Q 2666 3584 2933 3390 
Q 3200 3197 3328 2828 
z
" transform="scale(0.015625)"/>
      </defs>
      <use xlink:href="#DejaVuSans-52"/>
      <use xlink:href="#DejaVuSans-75" x="64.982422"/>
      <use xlink:href="#DejaVuSans-6e" x="128.361328"/>
      <use xlink:href="#DejaVuSans-74" x="191.740234"/>
      <use xlink:href="#DejaVuSans-69" x="230.949219"/>
      <use xlink:href="#DejaVuSans-6d" x="258.732422"/>
      <use xlink:href="#DejaVuSans-65" x="356.144531"/>
     </g>
    </g>
   </g>
   <g id="line2d_65">
    <path d="M 93.697898 272.386312 
L 99.476954 155.929275 
L 105.256011 144.350744 
L 111.035067 132.965514 
L 116.814123 122.503719 
L 122.59318 115.970027 
L 128.372236 112.249709 
L 134.151292 108.682059 
L 139.930349 105.439347 
L 145.709405 103.260066 
L 151.488462 101.332828 
L 157.267518 99.28087 
L 163.046574 97.348583 
L 168.825631 95.117534 
L 174.604687 93.627757 
L 180.383744 92.262221 
L 186.1628 90.814701 
L 191.941856 89.790809 
L 197.720913 88.831433 
L 203.499969 87.732769 
L 209.279025 86.405381 
L 215.058082 85.064582 
L 220.837138 83.723205 
L 226.616195 82.258061 
L 232.395251 80.889679 
L 238.174307 79.754768 
L 243.953364 78.503008 
L 249.73242 77.371007 
L 255.511477 76.22935 
L 261.290533 75.251354 
L 267.069589 74.155763 
L 272.848646 73.086436 
L 278.627702 71.615895 
L 284.406758 70.462498 
L 290.185815 69.350869 
L 295.964871 68.238967 
L 301.743928 67.164961 
L 307.522984 66.130792 
L 313.30204 65.177507 
L 319.081097 64.163915 
L 324.860153 63.188017 
L 330.63921 62.242659 
L 336.418266 61.169746 
L 342.197322 60.130695 
L 347.976379 59.100234 
L 353.755435 58.135668 
L 359.534492 57.182395 
L 365.313548 56.22338 
L 371.092604 55.272865 
L 376.871661 54.385525 
L 382.650717 53.49962 
L 388.429773 52.592506 
L 394.20883 51.665769 
L 399.987886 50.700817 
L 405.766943 49.7739 
L 411.545999 48.894572 
L 417.325055 48.036058 
L 423.104112 47.162322 
L 428.883168 46.343141 
L 434.662225 45.560246 
L 440.441281 44.765915 
L 446.220337 43.992395 
L 451.999394 43.164665 
L 457.77845 42.327836 
L 463.557506 41.525091 
L 469.336563 40.717168 
L 475.115619 39.914075 
L 480.894676 39.143342 
L 486.673732 38.433302 
L 492.452788 37.723992 
L 498.231845 37.004832 
L 504.010901 36.30635 
L 509.789958 35.6239 
L 515.569014 34.867057 
L 521.34807 34.151271 
L 527.127127 33.419703 
L 532.906183 32.675539 
L 538.685239 31.99122 
L 544.464296 31.303516 
L 550.243352 30.652487 
" clip-path="url(#pb1e4218f0a)" style="fill: none; stroke: #386cb0; stroke-width: 3; stroke-linecap: square"/>
   </g>
   <g id="line2d_66">
    <path d="M 93.697898 284.895799 
L 99.476954 150.550422 
L 105.256011 140.502908 
L 111.035067 130.234103 
L 116.814123 120.518103 
L 122.59318 116.523804 
L 128.372236 111.952017 
L 134.151292 108.637879 
L 139.930349 105.438695 
L 145.709405 103.618243 
L 151.488462 101.922493 
L 157.267518 100.467805 
L 163.046574 98.734841 
L 168.825631 96.676847 
L 174.604687 95.149961 
L 180.383744 94.051435 
L 186.1628 92.724341 
L 191.941856 91.856377 
L 197.720913 91.10274 
L 203.499969 90.006251 
L 209.279025 88.674779 
L 215.058082 87.950708 
L 220.837138 87.069472 
L 226.616195 86.026371 
L 232.395251 85.234755 
L 238.174307 84.66463 
L 243.953364 83.84884 
L 249.73242 83.086838 
L 255.511477 82.290445 
L 261.290533 81.699567 
L 267.069589 81.004258 
L 272.848646 80.366644 
L 278.627702 79.87493 
L 284.406758 79.449314 
L 290.185815 78.983363 
L 295.964871 78.515353 
L 301.743928 77.91247 
L 307.522984 77.321774 
L 313.30204 76.8394 
L 319.081097 76.109486 
L 324.860153 75.802389 
L 330.63921 75.365341 
L 336.418266 74.836192 
L 342.197322 74.443241 
L 347.976379 74.127341 
L 353.755435 73.771653 
L 359.534492 73.395973 
L 365.313548 73.034425 
L 371.092604 72.753793 
L 376.871661 72.334092 
L 382.650717 72.079368 
L 388.429773 71.582364 
L 394.20883 71.222545 
L 399.987886 70.709426 
L 405.766943 70.277927 
L 411.545999 69.810919 
L 417.325055 69.452978 
L 423.104112 69.096506 
L 428.883168 68.678203 
L 434.662225 68.320092 
L 440.441281 67.930576 
L 446.220337 67.326485 
L 451.999394 66.938665 
L 457.77845 66.566844 
L 463.557506 66.277014 
L 469.336563 65.927858 
L 475.115619 65.684801 
L 480.894676 65.434336 
L 486.673732 65.087601 
L 492.452788 64.835928 
L 498.231845 64.384038 
L 504.010901 64.018479 
L 509.789958 63.710475 
L 515.569014 63.43715 
L 521.34807 63.173498 
L 527.127127 62.932209 
L 532.906183 62.462339 
L 538.685239 62.035048 
L 544.464296 61.692917 
L 550.243352 61.555878 
" clip-path="url(#pb1e4218f0a)" style="fill: none; stroke: #f0027f; stroke-width: 3; stroke-linecap: square"/>
   </g>
   <g id="line2d_67">
    <path d="M 93.697898 140.83758 
L 99.476954 116.103299 
L 105.256011 107.44326 
L 111.035067 101.678684 
L 116.814123 99.037677 
L 122.59318 96.765356 
L 128.372236 94.797849 
L 134.151292 93.113305 
L 139.930349 91.448579 
L 145.709405 89.871008 
L 151.488462 88.316898 
L 157.267518 86.86518 
L 163.046574 85.358041 
L 168.825631 84.131046 
L 174.604687 82.973378 
L 180.383744 81.888485 
L 186.1628 80.820447 
L 191.941856 79.785504 
L 197.720913 78.769062 
L 203.499969 77.744415 
L 209.279025 76.746291 
L 215.058082 75.393708 
L 220.837138 74.164379 
L 226.616195 73.017041 
L 232.395251 71.860534 
L 238.174307 70.745514 
L 243.953364 69.702069 
L 249.73242 68.665615 
L 255.511477 67.642419 
L 261.290533 66.589667 
L 267.069589 65.618569 
L 272.848646 64.681372 
L 278.627702 63.525224 
L 284.406758 62.441457 
L 290.185815 61.401579 
L 295.964871 60.384569 
L 301.743928 59.298029 
L 307.522984 58.274635 
L 313.30204 57.309126 
L 319.081097 56.352113 
L 324.860153 55.430726 
L 330.63921 54.522802 
L 336.418266 53.477166 
L 342.197322 52.462976 
L 347.976379 51.482581 
L 353.755435 50.512945 
L 359.534492 49.5653 
L 365.313548 48.644665 
L 371.092604 47.754406 
L 376.871661 46.871746 
L 382.650717 46.031855 
L 388.429773 45.186158 
L 394.20883 44.35922 
L 399.987886 43.486729 
L 405.766943 42.665175 
L 411.545999 41.866008 
L 417.325055 41.103384 
L 423.104112 40.362668 
L 428.883168 39.616608 
L 434.662225 38.921391 
L 440.441281 38.217914 
L 446.220337 37.52837 
L 451.999394 36.83132 
L 457.77845 36.094153 
L 463.557506 35.357522 
L 469.336563 34.645056 
L 475.115619 33.937498 
L 480.894676 33.219545 
L 486.673732 32.528791 
L 492.452788 31.848784 
L 498.231845 31.19117 
L 504.010901 30.553948 
L 509.789958 29.915898 
L 515.569014 29.284307 
L 521.34807 28.626062 
L 527.127127 27.964195 
L 532.906183 27.315664 
L 538.685239 26.678524 
L 544.464296 26.056483 
L 550.243352 25.445966 
" clip-path="url(#pb1e4218f0a)" style="fill: none; stroke: #bf5b17; stroke-width: 3; stroke-linecap: square"/>
   </g>
   <g id="patch_3">
    <path d="M 70.870625 339.84 
L 70.870625 7.2 
" style="fill: none; stroke: #000000; stroke-width: 0.8; stroke-linejoin: miter; stroke-linecap: square"/>
   </g>
   <g id="patch_4">
    <path d="M 573.070625 339.84 
L 573.070625 7.2 
" style="fill: none; stroke: #000000; stroke-width: 0.8; stroke-linejoin: miter; stroke-linecap: square"/>
   </g>
   <g id="patch_5">
    <path d="M 70.870625 339.84 
L 573.070625 339.84 
" style="fill: none; stroke: #000000; stroke-width: 0.8; stroke-linejoin: miter; stroke-linecap: square"/>
   </g>
   <g id="patch_6">
    <path d="M 70.870625 7.2 
L 573.070625 7.2 
" style="fill: none; stroke: #000000; stroke-width: 0.8; stroke-linejoin: miter; stroke-linecap: square"/>
   </g>
   <g id="legend_1">
    <g id="patch_7">
     <path d="M 365.330625 331.84 
L 561.870625 331.84 
Q 565.070625 331.84 565.070625 328.64 
L 565.070625 259.785 
Q 565.070625 256.585 561.870625 256.585 
L 365.330625 256.585 
Q 362.130625 256.585 362.130625 259.785 
L 362.130625 328.64 
Q 362.130625 331.84 365.330625 331.84 
z
" style="fill: #ffffff; opacity: 0.8; stroke: #cccccc; stroke-linejoin: miter"/>
    </g>
    <g id="line2d_68">
     <path d="M 368.530625 269.5425 
L 384.530625 269.5425 
L 400.530625 269.5425 
" style="fill: none; stroke: #386cb0; stroke-width: 3; stroke-linecap: square"/>
    </g>
    <g id="text_16">
     <!-- M/GP-MBTL (Ours) -->
     <g transform="translate(413.330625 275.1425) scale(0.16 -0.16)">
      <defs>
       <path id="DejaVuSans-4d" d="M 628 4666 
L 1569 4666 
L 2759 1491 
L 3956 4666 
L 4897 4666 
L 4897 0 
L 4281 0 
L 4281 4097 
L 3078 897 
L 2444 897 
L 1241 4097 
L 1241 0 
L 628 0 
L 628 4666 
z
" transform="scale(0.015625)"/>
       <path id="DejaVuSans-2f" d="M 1625 4666 
L 2156 4666 
L 531 -594 
L 0 -594 
L 1625 4666 
z
" transform="scale(0.015625)"/>
       <path id="DejaVuSans-47" d="M 3809 666 
L 3809 1919 
L 2778 1919 
L 2778 2438 
L 4434 2438 
L 4434 434 
Q 4069 175 3628 42 
Q 3188 -91 2688 -91 
Q 1594 -91 976 548 
Q 359 1188 359 2328 
Q 359 3472 976 4111 
Q 1594 4750 2688 4750 
Q 3144 4750 3555 4637 
Q 3966 4525 4313 4306 
L 4313 3634 
Q 3963 3931 3569 4081 
Q 3175 4231 2741 4231 
Q 1884 4231 1454 3753 
Q 1025 3275 1025 2328 
Q 1025 1384 1454 906 
Q 1884 428 2741 428 
Q 3075 428 3337 486 
Q 3600 544 3809 666 
z
" transform="scale(0.015625)"/>
       <path id="DejaVuSans-50" d="M 1259 4147 
L 1259 2394 
L 2053 2394 
Q 2494 2394 2734 2622 
Q 2975 2850 2975 3272 
Q 2975 3691 2734 3919 
Q 2494 4147 2053 4147 
L 1259 4147 
z
M 628 4666 
L 2053 4666 
Q 2838 4666 3239 4311 
Q 3641 3956 3641 3272 
Q 3641 2581 3239 2228 
Q 2838 1875 2053 1875 
L 1259 1875 
L 1259 0 
L 628 0 
L 628 4666 
z
" transform="scale(0.015625)"/>
       <path id="DejaVuSans-2d" d="M 313 2009 
L 1997 2009 
L 1997 1497 
L 313 1497 
L 313 2009 
z
" transform="scale(0.015625)"/>
       <path id="DejaVuSans-42" d="M 1259 2228 
L 1259 519 
L 2272 519 
Q 2781 519 3026 730 
Q 3272 941 3272 1375 
Q 3272 1813 3026 2020 
Q 2781 2228 2272 2228 
L 1259 2228 
z
M 1259 4147 
L 1259 2741 
L 2194 2741 
Q 2656 2741 2882 2914 
Q 3109 3088 3109 3444 
Q 3109 3797 2882 3972 
Q 2656 4147 2194 4147 
L 1259 4147 
z
M 628 4666 
L 2241 4666 
Q 2963 4666 3353 4366 
Q 3744 4066 3744 3513 
Q 3744 3084 3544 2831 
Q 3344 2578 2956 2516 
Q 3422 2416 3680 2098 
Q 3938 1781 3938 1306 
Q 3938 681 3513 340 
Q 3088 0 2303 0 
L 628 0 
L 628 4666 
z
" transform="scale(0.015625)"/>
       <path id="DejaVuSans-54" d="M -19 4666 
L 3928 4666 
L 3928 4134 
L 2272 4134 
L 2272 0 
L 1638 0 
L 1638 4134 
L -19 4134 
L -19 4666 
z
" transform="scale(0.015625)"/>
       <path id="DejaVuSans-4c" d="M 628 4666 
L 1259 4666 
L 1259 531 
L 3531 531 
L 3531 0 
L 628 0 
L 628 4666 
z
" transform="scale(0.015625)"/>
       <path id="DejaVuSans-28" d="M 1984 4856 
Q 1566 4138 1362 3434 
Q 1159 2731 1159 2009 
Q 1159 1288 1364 580 
Q 1569 -128 1984 -844 
L 1484 -844 
Q 1016 -109 783 600 
Q 550 1309 550 2009 
Q 550 2706 781 3412 
Q 1013 4119 1484 4856 
L 1984 4856 
z
" transform="scale(0.015625)"/>
       <path id="DejaVuSans-4f" d="M 2522 4238 
Q 1834 4238 1429 3725 
Q 1025 3213 1025 2328 
Q 1025 1447 1429 934 
Q 1834 422 2522 422 
Q 3209 422 3611 934 
Q 4013 1447 4013 2328 
Q 4013 3213 3611 3725 
Q 3209 4238 2522 4238 
z
M 2522 4750 
Q 3503 4750 4090 4092 
Q 4678 3434 4678 2328 
Q 4678 1225 4090 567 
Q 3503 -91 2522 -91 
Q 1538 -91 948 565 
Q 359 1222 359 2328 
Q 359 3434 948 4092 
Q 1538 4750 2522 4750 
z
" transform="scale(0.015625)"/>
       <path id="DejaVuSans-72" d="M 2631 2963 
Q 2534 3019 2420 3045 
Q 2306 3072 2169 3072 
Q 1681 3072 1420 2755 
Q 1159 2438 1159 1844 
L 1159 0 
L 581 0 
L 581 3500 
L 1159 3500 
L 1159 2956 
Q 1341 3275 1631 3429 
Q 1922 3584 2338 3584 
Q 2397 3584 2469 3576 
Q 2541 3569 2628 3553 
L 2631 2963 
z
" transform="scale(0.015625)"/>
       <path id="DejaVuSans-29" d="M 513 4856 
L 1013 4856 
Q 1481 4119 1714 3412 
Q 1947 2706 1947 2009 
Q 1947 1309 1714 600 
Q 1481 -109 1013 -844 
L 513 -844 
Q 928 -128 1133 580 
Q 1338 1288 1338 2009 
Q 1338 2731 1133 3434 
Q 928 4138 513 4856 
z
" transform="scale(0.015625)"/>
      </defs>
      <use xlink:href="#DejaVuSans-4d"/>
      <use xlink:href="#DejaVuSans-2f" x="86.279297"/>
      <use xlink:href="#DejaVuSans-47" x="119.970703"/>
      <use xlink:href="#DejaVuSans-50" x="197.460938"/>
      <use xlink:href="#DejaVuSans-2d" x="255.513672"/>
      <use xlink:href="#DejaVuSans-4d" x="291.597656"/>
      <use xlink:href="#DejaVuSans-42" x="377.876953"/>
      <use xlink:href="#DejaVuSans-54" x="446.480469"/>
      <use xlink:href="#DejaVuSans-4c" x="507.564453"/>
      <use xlink:href="#DejaVuSans-20" x="563.277344"/>
      <use xlink:href="#DejaVuSans-28" x="595.064453"/>
      <use xlink:href="#DejaVuSans-4f" x="634.078125"/>
      <use xlink:href="#DejaVuSans-75" x="712.789062"/>
      <use xlink:href="#DejaVuSans-72" x="776.167969"/>
      <use xlink:href="#DejaVuSans-73" x="817.28125"/>
      <use xlink:href="#DejaVuSans-29" x="869.380859"/>
     </g>
    </g>
    <g id="line2d_69">
     <path d="M 368.530625 293.0275 
L 384.530625 293.0275 
L 400.530625 293.0275 
" style="fill: none; stroke: #f0027f; stroke-width: 3; stroke-linecap: square"/>
    </g>
    <g id="text_17">
     <!-- M-MBTL -->
     <g transform="translate(413.330625 298.6275) scale(0.16 -0.16)">
      <use xlink:href="#DejaVuSans-4d"/>
      <use xlink:href="#DejaVuSans-2d" x="86.279297"/>
      <use xlink:href="#DejaVuSans-4d" x="122.363281"/>
      <use xlink:href="#DejaVuSans-42" x="208.642578"/>
      <use xlink:href="#DejaVuSans-54" x="277.246094"/>
      <use xlink:href="#DejaVuSans-4c" x="338.330078"/>
     </g>
    </g>
    <g id="line2d_70">
     <path d="M 368.530625 316.5125 
L 384.530625 316.5125 
L 400.530625 316.5125 
" style="fill: none; stroke: #bf5b17; stroke-width: 3; stroke-linecap: square"/>
    </g>
    <g id="text_18">
     <!-- GP-MBTL -->
     <g transform="translate(413.330625 322.1125) scale(0.16 -0.16)">
      <use xlink:href="#DejaVuSans-47"/>
      <use xlink:href="#DejaVuSans-50" x="77.490234"/>
      <use xlink:href="#DejaVuSans-2d" x="135.542969"/>
      <use xlink:href="#DejaVuSans-4d" x="171.626953"/>
      <use xlink:href="#DejaVuSans-42" x="257.90625"/>
      <use xlink:href="#DejaVuSans-54" x="326.509766"/>
      <use xlink:href="#DejaVuSans-4c" x="387.59375"/>
     </g>
    </g>
   </g>
  </g>
 </g>
 <defs>
  <clipPath id="pb1e4218f0a">
   <rect x="70.870625" y="7.2" width="502.2" height="332.64"/>
  </clipPath>
 </defs>
</svg>
