<?xml version="1.0" encoding="utf-8" standalone="no"?>
<!DOCTYPE svg PUBLIC "-//W3C//DTD SVG 1.1//EN"
  "http://www.w3.org/Graphics/SVG/1.1/DTD/svg11.dtd">
<svg xmlns:xlink="http://www.w3.org/1999/xlink" width="754.720625pt" height="559.20125pt" viewBox="0 0 754.720625 559.20125" xmlns="http://www.w3.org/2000/svg" version="1.1">
 <metadata>
  <rdf:RDF xmlns:dc="http://purl.org/dc/elements/1.1/" xmlns:cc="http://creativecommons.org/ns#" xmlns:rdf="http://www.w3.org/1999/02/22-rdf-syntax-ns#">
   <cc:Work>
    <dc:type rdf:resource="http://purl.org/dc/dcmitype/StillImage"/>
    <dc:date>2025-02-26T08:55:00.268044</dc:date>
    <dc:format>image/svg+xml</dc:format>
    <dc:creator>
     <cc:Agent>
      <dc:title>Matplotlib v3.9.4, https://matplotlib.org/</dc:title>
     </cc:Agent>
    </dc:creator>
   </cc:Work>
  </rdf:RDF>
 </metadata>
 <defs>
  <style type="text/css">*{stroke-linejoin: round; stroke-linecap: butt}</style>
 </defs>
 <g id="figure_1">
  <g id="patch_1">
   <path d="M 0 559.20125 
L 754.720625 559.20125 
L 754.720625 0 
L 0 0 
z
" style="fill: #ffffff"/>
  </g>
  <g id="axes_1">
   <g id="patch_2">
    <path d="M 77.920625 506.16 
L 747.520625 506.16 
L 747.520625 7.2 
L 77.920625 7.2 
z
" style="fill: #ffffff"/>
   </g>
   <g id="PolyCollection_1">
    <path d="M 108.356989 402.752084 
L 108.356989 94467.688724 
L 111.188278 284.244605 
L 114.019568 275.328531 
L 116.850858 268.238606 
L 119.682147 262.604499 
L 122.513437 250.301604 
L 125.344726 232.525749 
L 128.176016 223.667041 
L 131.007306 220.893604 
L 133.838595 219.120217 
L 136.669885 216.591107 
L 139.501175 214.098911 
L 142.332464 210.965087 
L 145.163754 208.422028 
L 147.995044 205.956024 
L 150.826333 203.381623 
L 153.657623 200.839311 
L 156.488913 198.746572 
L 159.320202 196.818519 
L 162.151492 194.887414 
L 164.982781 193.159758 
L 167.814071 191.079003 
L 170.645361 189.331242 
L 173.47665 187.623294 
L 176.30794 185.859562 
L 179.13923 184.174227 
L 181.970519 182.50597 
L 184.801809 180.898136 
L 187.633099 179.223896 
L 190.464388 177.814806 
L 193.295678 176.305289 
L 196.126967 174.743007 
L 198.958257 173.384368 
L 201.789547 172.076339 
L 204.620836 170.658192 
L 207.452126 169.384537 
L 210.283416 168.100672 
L 213.114705 166.752053 
L 215.945995 165.529069 
L 218.777285 164.307997 
L 221.608574 163.171408 
L 224.439864 161.987707 
L 227.271154 160.934257 
L 230.102443 159.803263 
L 232.933733 158.707224 
L 235.765022 157.64815 
L 238.596312 156.61071 
L 241.427602 155.661233 
L 244.258891 154.612923 
L 247.090181 153.280121 
L 249.921471 151.847298 
L 252.75276 150.500336 
L 255.58405 149.322573 
L 258.41534 148.145451 
L 261.246629 147.039567 
L 264.077919 145.901602 
L 266.909209 144.786282 
L 269.740498 143.822132 
L 272.571788 142.829333 
L 275.403077 141.858002 
L 278.234367 140.903199 
L 281.065657 140.006404 
L 283.896946 139.101627 
L 286.728236 138.212312 
L 289.559526 137.348326 
L 292.390815 136.502349 
L 295.222105 135.678132 
L 298.053395 134.864154 
L 300.884684 134.122979 
L 303.715974 133.308328 
L 306.547263 132.556263 
L 309.378553 131.771509 
L 312.209843 131.02291 
L 315.041132 130.31944 
L 317.872422 129.437635 
L 320.703712 128.556109 
L 323.535001 127.705575 
L 326.366291 126.837106 
L 329.197581 125.950532 
L 332.02887 125.115629 
L 334.86016 124.307057 
L 337.69145 123.475782 
L 340.522739 122.705891 
L 343.354029 121.907841 
L 346.185318 121.123763 
L 349.016608 120.369872 
L 351.847898 119.621794 
L 354.679187 118.839496 
L 357.510477 118.101066 
L 360.341767 117.371361 
L 363.173056 116.663933 
L 366.004346 115.980727 
L 368.835636 115.282633 
L 371.666925 114.62779 
L 374.498215 113.958192 
L 377.329504 113.282237 
L 380.160794 112.63047 
L 382.992084 112.003536 
L 385.823373 111.382245 
L 388.654663 110.613985 
L 391.485953 109.865039 
L 394.317242 109.140118 
L 397.148532 108.403231 
L 399.979822 107.701328 
L 402.811111 107.030666 
L 405.642401 106.336286 
L 408.473691 105.67053 
L 411.30498 105.032263 
L 414.13627 104.382518 
L 416.967559 103.752757 
L 419.798849 103.106499 
L 422.630139 102.518922 
L 425.461428 101.89089 
L 428.292718 101.292702 
L 431.124008 100.678789 
L 433.955297 100.064336 
L 436.786587 99.482386 
L 439.617877 98.89948 
L 442.449166 98.342466 
L 445.280456 97.773983 
L 448.111746 97.221166 
L 450.943035 96.683939 
L 453.774325 96.126967 
L 456.605614 95.486888 
L 459.436904 94.861735 
L 462.268194 94.250019 
L 465.099483 93.62298 
L 467.930773 92.698236 
L 470.762063 91.859302 
L 473.593352 90.998591 
L 476.424642 90.214226 
L 479.255932 89.430012 
L 482.087221 88.644169 
L 484.918511 87.91349 
L 487.7498 87.174938 
L 490.58109 86.471773 
L 493.41238 85.7245 
L 496.243669 85.052366 
L 499.074959 84.349364 
L 501.906249 83.669745 
L 504.737538 82.994359 
L 507.568828 82.326068 
L 510.400118 81.685999 
L 513.231407 81.065812 
L 516.062697 80.4124 
L 518.893987 79.781755 
L 521.725276 79.18191 
L 524.556566 78.545698 
L 527.387855 77.895382 
L 530.219145 77.240158 
L 533.050435 76.279965 
L 535.881724 75.330134 
L 538.713014 74.490846 
L 541.544304 73.608928 
L 544.375593 72.766278 
L 547.206883 71.937923 
L 550.038173 71.175207 
L 552.869462 70.365514 
L 555.700752 69.62009 
L 558.532041 68.866429 
L 561.363331 67.692979 
L 564.194621 66.459865 
L 567.02591 65.270228 
L 569.8572 64.507306 
L 572.68849 63.730667 
L 575.519779 62.96577 
L 578.351069 62.281369 
L 581.182359 61.529834 
L 584.013648 60.789405 
L 586.844938 60.054372 
L 589.676228 59.340246 
L 592.507517 58.596107 
L 595.338807 57.890985 
L 598.170096 57.172144 
L 601.001386 56.441895 
L 603.832676 55.746679 
L 606.663965 55.023749 
L 609.495255 54.343158 
L 612.326545 53.608314 
L 615.157834 52.974246 
L 617.989124 52.312768 
L 620.820414 51.653003 
L 623.651703 50.95302 
L 626.482993 50.257071 
L 629.314283 49.572448 
L 632.145572 48.979854 
L 634.976862 48.355193 
L 637.808151 47.729238 
L 640.639441 47.123041 
L 643.470731 46.520404 
L 646.30202 45.937884 
L 649.13331 45.376953 
L 651.9646 44.771478 
L 654.795889 44.162998 
L 657.627179 43.582752 
L 660.458469 43.023948 
L 663.289758 42.455625 
L 666.121048 41.880722 
L 668.952337 41.287199 
L 671.783627 40.677038 
L 674.614917 40.12571 
L 677.446206 39.574475 
L 680.277496 39.030799 
L 683.108786 38.505574 
L 685.940075 37.985897 
L 688.771365 37.444583 
L 691.602655 36.918836 
L 694.433944 36.438137 
L 697.265234 35.965947 
L 700.096524 35.440837 
L 702.927813 34.977262 
L 705.759103 34.490618 
L 708.590392 34.051486 
L 711.421682 33.603809 
L 714.252972 33.158355 
L 717.084261 32.689362 
L 717.084261 30.654571 
L 717.084261 30.654571 
L 714.252972 31.096883 
L 711.421682 31.575043 
L 708.590392 32.0058 
L 705.759103 32.454784 
L 702.927813 32.937071 
L 700.096524 33.433042 
L 697.265234 33.955803 
L 694.433944 34.454917 
L 691.602655 34.967688 
L 688.771365 35.462598 
L 685.940075 35.959196 
L 683.108786 36.484272 
L 680.277496 37.017343 
L 677.446206 37.583998 
L 674.614917 38.13776 
L 671.783627 38.688252 
L 668.952337 39.279126 
L 666.121048 39.856854 
L 663.289758 40.417876 
L 660.458469 40.976444 
L 657.627179 41.552904 
L 654.795889 42.149833 
L 651.9646 42.746044 
L 649.13331 43.328375 
L 646.30202 43.933752 
L 643.470731 44.493839 
L 640.639441 45.071235 
L 637.808151 45.644154 
L 634.976862 46.259486 
L 632.145572 46.898313 
L 629.314283 47.516884 
L 626.482993 48.13691 
L 623.651703 48.795016 
L 620.820414 49.463581 
L 617.989124 50.141474 
L 615.157834 50.764043 
L 612.326545 51.421853 
L 609.495255 52.07241 
L 606.663965 52.743218 
L 603.832676 53.404745 
L 601.001386 54.11247 
L 598.170096 54.831628 
L 595.338807 55.554871 
L 592.507517 56.228762 
L 589.676228 56.940725 
L 586.844938 57.670335 
L 584.013648 58.393442 
L 581.182359 59.117776 
L 578.351069 59.793815 
L 575.519779 60.47292 
L 572.68849 61.192803 
L 569.8572 61.928088 
L 567.02591 62.719473 
L 564.194621 63.912799 
L 561.363331 65.09821 
L 558.532041 66.450804 
L 555.700752 67.222908 
L 552.869462 67.993126 
L 550.038173 68.771292 
L 547.206883 69.585145 
L 544.375593 70.406177 
L 541.544304 71.244171 
L 538.713014 72.061705 
L 535.881724 72.85447 
L 533.050435 73.749674 
L 530.219145 74.628096 
L 527.387855 75.245086 
L 524.556566 75.861881 
L 521.725276 76.453258 
L 518.893987 77.078424 
L 516.062697 77.69588 
L 513.231407 78.308899 
L 510.400118 78.937035 
L 507.568828 79.580569 
L 504.737538 80.199454 
L 501.906249 80.841879 
L 499.074959 81.514781 
L 496.243669 82.152135 
L 493.41238 82.804205 
L 490.58109 83.47967 
L 487.7498 84.230316 
L 484.918511 84.965602 
L 482.087221 85.649853 
L 479.255932 86.382566 
L 476.424642 87.154989 
L 473.593352 87.92095 
L 470.762063 88.708521 
L 467.930773 89.496317 
L 465.099483 90.297638 
L 462.268194 90.877407 
L 459.436904 91.439098 
L 456.605614 92.045209 
L 453.774325 92.622442 
L 450.943035 93.176186 
L 448.111746 93.70398 
L 445.280456 94.235012 
L 442.449166 94.781646 
L 439.617877 95.334931 
L 436.786587 95.886603 
L 433.955297 96.446358 
L 431.124008 97.008261 
L 428.292718 97.568308 
L 425.461428 98.130805 
L 422.630139 98.710532 
L 419.798849 99.280184 
L 416.967559 99.893083 
L 414.13627 100.483119 
L 411.30498 101.08385 
L 408.473691 101.707994 
L 405.642401 102.329517 
L 402.811111 102.965313 
L 399.979822 103.626619 
L 397.148532 104.273747 
L 394.317242 104.925903 
L 391.485953 105.586864 
L 388.654663 106.257609 
L 385.823373 106.917817 
L 382.992084 107.475668 
L 380.160794 108.030487 
L 377.329504 108.623049 
L 374.498215 109.237115 
L 371.666925 109.842248 
L 368.835636 110.476105 
L 366.004346 111.103705 
L 363.173056 111.729022 
L 360.341767 112.365944 
L 357.510477 113.014908 
L 354.679187 113.665482 
L 351.847898 114.328114 
L 349.016608 115.025713 
L 346.185318 115.672936 
L 343.354029 116.3559 
L 340.522739 117.020811 
L 337.69145 117.740572 
L 334.86016 118.441778 
L 332.02887 119.153911 
L 329.197581 119.9052 
L 326.366291 120.617824 
L 323.535001 121.38632 
L 320.703712 122.172843 
L 317.872422 122.91876 
L 315.041132 123.718437 
L 312.209843 124.396972 
L 309.378553 125.079567 
L 306.547263 125.757376 
L 303.715974 126.410808 
L 300.884684 127.101498 
L 298.053395 127.75013 
L 295.222105 128.447256 
L 292.390815 129.165516 
L 289.559526 129.92458 
L 286.728236 130.66834 
L 283.896946 131.410091 
L 281.065657 132.14614 
L 278.234367 132.921223 
L 275.403077 133.746999 
L 272.571788 134.507709 
L 269.740498 135.318945 
L 266.909209 136.212644 
L 264.077919 137.043996 
L 261.246629 137.982288 
L 258.41534 138.929009 
L 255.58405 139.954651 
L 252.75276 141.051891 
L 249.921471 142.18104 
L 247.090181 143.348828 
L 244.258891 144.412723 
L 241.427602 145.275853 
L 238.596312 146.149728 
L 235.765022 147.001537 
L 232.933733 147.918191 
L 230.102443 148.875815 
L 227.271154 149.800157 
L 224.439864 150.731603 
L 221.608574 151.732034 
L 218.777285 152.767006 
L 215.945995 153.81632 
L 213.114705 154.871837 
L 210.283416 155.926069 
L 207.452126 157.036935 
L 204.620836 158.118935 
L 201.789547 159.303994 
L 198.958257 160.51349 
L 196.126967 161.670337 
L 193.295678 162.873001 
L 190.464388 164.072464 
L 187.633099 165.320705 
L 184.801809 166.541438 
L 181.970519 167.825165 
L 179.13923 169.155596 
L 176.30794 170.436481 
L 173.47665 171.719422 
L 170.645361 173.075813 
L 167.814071 174.462003 
L 164.982781 175.85097 
L 162.151492 177.36743 
L 159.320202 178.826839 
L 156.488913 180.158277 
L 153.657623 181.750802 
L 150.826333 183.576227 
L 147.995044 185.908766 
L 145.163754 188.28863 
L 142.332464 190.535184 
L 139.501175 193.43051 
L 136.669885 196.069132 
L 133.838595 200.2385 
L 131.007306 202.600214 
L 128.176016 205.121646 
L 125.344726 208.206035 
L 122.513437 213.9375 
L 119.682147 240.916911 
L 116.850858 244.130866 
L 114.019568 247.899778 
L 111.188278 252.208741 
L 108.356989 402.752084 
z
" clip-path="url(#pd55e55b88c)" style="fill: #ff0000; fill-opacity: 0.1; stroke: #ff0000; stroke-opacity: 0.1"/>
   </g>
   <g id="PolyCollection_2">
    <path d="M 108.356989 445.004819 
L 108.356989 94467.688724 
L 111.188278 267.434025 
L 114.019568 260.965612 
L 116.850858 255.81488 
L 119.682147 251.553045 
L 122.513437 247.63588 
L 125.344726 243.574103 
L 128.176016 241.271354 
L 131.007306 239.183042 
L 133.838595 237.617782 
L 136.669885 235.807875 
L 139.501175 234.429493 
L 142.332464 232.917265 
L 145.163754 231.608025 
L 147.995044 230.38461 
L 150.826333 228.694283 
L 153.657623 227.635578 
L 156.488913 226.920302 
L 159.320202 225.935703 
L 162.151492 225.137371 
L 164.982781 224.276139 
L 167.814071 223.310873 
L 170.645361 222.733278 
L 173.47665 222.222168 
L 176.30794 221.668831 
L 179.13923 221.252368 
L 181.970519 220.714164 
L 184.801809 220.02285 
L 187.633099 219.209924 
L 190.464388 218.715389 
L 193.295678 218.239574 
L 196.126967 217.39352 
L 198.958257 216.838242 
L 201.789547 216.196375 
L 204.620836 215.70381 
L 207.452126 215.356221 
L 210.283416 214.997726 
L 213.114705 214.449118 
L 215.945995 213.976242 
L 218.777285 213.617065 
L 221.608574 213.115664 
L 224.439864 212.587514 
L 227.271154 212.331069 
L 230.102443 211.848785 
L 232.933733 211.555528 
L 235.765022 211.23583 
L 238.596312 210.883902 
L 241.427602 210.379434 
L 244.258891 209.984073 
L 247.090181 209.769929 
L 249.921471 209.32315 
L 252.75276 208.919433 
L 255.58405 208.641231 
L 258.41534 208.343399 
L 261.246629 208.117639 
L 264.077919 207.670592 
L 266.909209 207.322523 
L 269.740498 207.031588 
L 272.571788 206.932055 
L 275.403077 206.812888 
L 278.234367 206.692777 
L 281.065657 206.559171 
L 283.896946 206.418346 
L 286.728236 206.204132 
L 289.559526 206.068703 
L 292.390815 205.931553 
L 295.222105 205.761981 
L 298.053395 205.561828 
L 300.884684 205.383113 
L 303.715974 205.248513 
L 306.547263 205.065053 
L 309.378553 204.931306 
L 312.209843 204.791393 
L 315.041132 204.672745 
L 317.872422 204.537118 
L 320.703712 204.376628 
L 323.535001 204.236899 
L 326.366291 204.062442 
L 329.197581 203.93846 
L 332.02887 203.728136 
L 334.86016 203.515791 
L 337.69145 203.325663 
L 340.522739 203.129904 
L 343.354029 202.916299 
L 346.185318 202.659052 
L 349.016608 202.476268 
L 351.847898 202.298625 
L 354.679187 202.191347 
L 357.510477 202.046728 
L 360.341767 201.882306 
L 363.173056 201.720007 
L 366.004346 201.560234 
L 368.835636 201.392342 
L 371.666925 201.204473 
L 374.498215 201.03285 
L 377.329504 200.862097 
L 380.160794 200.712158 
L 382.992084 200.556923 
L 385.823373 200.365729 
L 388.654663 200.192781 
L 391.485953 200.021222 
L 394.317242 199.807599 
L 397.148532 199.672922 
L 399.979822 199.518318 
L 402.811111 199.369787 
L 405.642401 199.193675 
L 408.473691 199.01924 
L 411.30498 198.823672 
L 414.13627 198.624715 
L 416.967559 198.444223 
L 419.798849 198.250284 
L 422.630139 198.011836 
L 425.461428 197.791629 
L 428.292718 197.578515 
L 431.124008 197.421144 
L 433.955297 197.272279 
L 436.786587 197.095506 
L 439.617877 196.902084 
L 442.449166 196.749278 
L 445.280456 196.554506 
L 448.111746 196.358548 
L 450.943035 196.156885 
L 453.774325 195.928109 
L 456.605614 195.747277 
L 459.436904 195.574345 
L 462.268194 195.334418 
L 465.099483 195.133498 
L 467.930773 194.801582 
L 470.762063 194.665439 
L 473.593352 194.507875 
L 476.424642 194.381733 
L 479.255932 194.232436 
L 482.087221 194.065758 
L 484.918511 193.887791 
L 487.7498 193.757642 
L 490.58109 193.542119 
L 493.41238 193.367431 
L 496.243669 193.174648 
L 499.074959 192.980615 
L 501.906249 192.808843 
L 504.737538 192.656095 
L 507.568828 192.482686 
L 510.400118 192.290633 
L 513.231407 192.074785 
L 516.062697 191.872885 
L 518.893987 191.719626 
L 521.725276 191.524973 
L 524.556566 191.351113 
L 527.387855 191.179292 
L 530.219145 191.03074 
L 533.050435 190.858555 
L 535.881724 190.706435 
L 538.713014 190.556849 
L 541.544304 190.363468 
L 544.375593 190.165015 
L 547.206883 189.994579 
L 550.038173 189.819289 
L 552.869462 189.666977 
L 555.700752 189.490877 
L 558.532041 189.295376 
L 561.363331 189.122139 
L 564.194621 188.924518 
L 567.02591 188.728867 
L 569.8572 188.551829 
L 572.68849 188.351537 
L 575.519779 188.199292 
L 578.351069 187.998651 
L 581.182359 187.845315 
L 584.013648 187.714622 
L 586.844938 187.497388 
L 589.676228 187.346422 
L 592.507517 187.170856 
L 595.338807 187.018525 
L 598.170096 186.777482 
L 601.001386 186.603883 
L 603.832676 186.380974 
L 606.663965 186.182268 
L 609.495255 186.032757 
L 612.326545 185.880826 
L 615.157834 185.705354 
L 617.989124 185.55332 
L 620.820414 185.377437 
L 623.651703 185.180374 
L 626.482993 184.979928 
L 629.314283 184.809295 
L 632.145572 184.634169 
L 634.976862 184.4374 
L 637.808151 184.240549 
L 640.639441 184.062313 
L 643.470731 183.842395 
L 646.30202 183.59978 
L 649.13331 183.379649 
L 651.9646 183.204625 
L 654.795889 183.008491 
L 657.627179 182.835381 
L 660.458469 182.685021 
L 663.289758 182.579612 
L 666.121048 182.452589 
L 668.952337 182.277188 
L 671.783627 182.105091 
L 674.614917 181.90879 
L 677.446206 181.715027 
L 680.277496 181.564658 
L 683.108786 181.368893 
L 685.940075 181.218532 
L 688.771365 181.045592 
L 691.602655 180.800094 
L 694.433944 180.603292 
L 697.265234 180.409217 
L 700.096524 180.192618 
L 702.927813 179.999645 
L 705.759103 179.80452 
L 708.590392 179.613002 
L 711.421682 179.441999 
L 714.252972 179.248996 
L 717.084261 179.057542 
L 717.084261 177.955062 
L 717.084261 177.955062 
L 714.252972 178.142985 
L 711.421682 178.331961 
L 708.590392 178.49963 
L 705.759103 178.687394 
L 702.927813 178.87873 
L 700.096524 179.067855 
L 697.265234 179.280022 
L 694.433944 179.470117 
L 691.602655 179.662896 
L 688.771365 179.903363 
L 685.940075 180.072577 
L 683.108786 180.219461 
L 680.277496 180.410966 
L 677.446206 180.557791 
L 674.614917 180.747228 
L 671.783627 180.93921 
L 668.952337 181.107399 
L 666.121048 181.278478 
L 663.289758 181.402347 
L 660.458469 181.505256 
L 657.627179 181.652231 
L 654.795889 181.821408 
L 651.9646 182.012949 
L 649.13331 182.183741 
L 646.30202 182.398532 
L 643.470731 182.635594 
L 640.639441 182.850366 
L 637.808151 183.024168 
L 634.976862 183.216155 
L 632.145572 183.407812 
L 629.314283 183.57855 
L 626.482993 183.744935 
L 623.651703 183.940147 
L 620.820414 184.131979 
L 617.989124 184.303178 
L 615.157834 184.451157 
L 612.326545 184.621888 
L 609.495255 184.769523 
L 606.663965 184.914887 
L 603.832676 185.108085 
L 601.001386 185.3251 
L 598.170096 185.493797 
L 595.338807 185.728318 
L 592.507517 185.876205 
L 589.676228 186.046832 
L 586.844938 186.193569 
L 584.013648 186.405067 
L 581.182359 186.531899 
L 578.351069 186.680836 
L 575.519779 186.875717 
L 572.68849 187.023515 
L 569.8572 187.218008 
L 567.02591 187.390061 
L 564.194621 187.579962 
L 561.363331 187.77189 
L 558.532041 187.940267 
L 555.700752 188.130146 
L 552.869462 188.300857 
L 550.038173 188.448767 
L 547.206883 188.618687 
L 544.375593 188.784075 
L 541.544304 188.976291 
L 538.713014 189.163661 
L 535.881724 189.308445 
L 533.050435 189.455894 
L 530.219145 189.622769 
L 527.387855 189.766719 
L 524.556566 189.933278 
L 521.725276 190.101871 
L 518.893987 190.290381 
L 516.062697 190.438993 
L 513.231407 190.63419 
L 510.400118 190.843815 
L 507.568828 191.030221 
L 504.737538 191.198716 
L 501.906249 191.346664 
L 499.074959 191.513534 
L 496.243669 191.701814 
L 493.41238 191.888592 
L 490.58109 192.057744 
L 487.7498 192.266632 
L 484.918511 192.392671 
L 482.087221 192.565307 
L 479.255932 192.726691 
L 476.424642 192.871335 
L 473.593352 192.993408 
L 470.762063 193.145927 
L 467.930773 193.277774 
L 465.099483 193.600179 
L 462.268194 193.79493 
L 459.436904 194.027145 
L 456.605614 194.194494 
L 453.774325 194.369438 
L 450.943035 194.590871 
L 448.111746 194.785776 
L 445.280456 194.975669 
L 442.449166 195.164082 
L 439.617877 195.311642 
L 436.786587 195.498493 
L 433.955297 195.669272 
L 431.124008 195.813052 
L 428.292718 195.964769 
L 425.461428 196.170629 
L 422.630139 196.383645 
L 419.798849 196.613725 
L 416.967559 196.800768 
L 414.13627 196.974948 
L 411.30498 197.16707 
L 408.473691 197.355548 
L 405.642401 197.523731 
L 402.811111 197.693273 
L 399.979822 197.836207 
L 397.148532 197.985038 
L 394.317242 198.114612 
L 391.485953 198.320514 
L 388.654663 198.485655 
L 385.823373 198.652342 
L 382.992084 198.836541 
L 380.160794 198.985674 
L 377.329504 199.1299 
L 374.498215 199.294566 
L 371.666925 199.460251 
L 368.835636 199.641454 
L 366.004346 199.803469 
L 363.173056 199.957449 
L 360.341767 200.113816 
L 357.510477 200.271943 
L 354.679187 200.411083 
L 351.847898 200.514099 
L 349.016608 200.685086 
L 346.185318 200.860863 
L 343.354029 201.107888 
L 340.522739 201.312927 
L 337.69145 201.500649 
L 334.86016 201.682995 
L 332.02887 201.886396 
L 329.197581 202.088299 
L 326.366291 202.207199 
L 323.535001 202.374747 
L 320.703712 202.508671 
L 317.872422 202.662523 
L 315.041132 202.792478 
L 312.209843 202.905952 
L 309.378553 203.039986 
L 306.547263 203.16805 
L 303.715974 203.343706 
L 300.884684 203.472486 
L 298.053395 203.643795 
L 295.222105 203.835382 
L 292.390815 203.997623 
L 289.559526 204.128394 
L 286.728236 204.257518 
L 283.896946 204.462293 
L 281.065657 204.596852 
L 278.234367 204.724358 
L 275.403077 204.838854 
L 272.571788 204.952544 
L 269.740498 205.047347 
L 266.909209 205.324975 
L 264.077919 205.656751 
L 261.246629 206.082874 
L 258.41534 206.298196 
L 255.58405 206.581714 
L 252.75276 206.846599 
L 249.921471 207.230842 
L 247.090181 207.65578 
L 244.258891 207.859548 
L 241.427602 208.235978 
L 238.596312 208.715644 
L 235.765022 209.049717 
L 232.933733 209.35298 
L 230.102443 209.631684 
L 227.271154 210.089312 
L 224.439864 210.33244 
L 221.608574 210.832866 
L 218.777285 211.307836 
L 215.945995 211.647539 
L 213.114705 212.095341 
L 210.283416 212.614312 
L 207.452126 212.953712 
L 204.620836 213.281682 
L 201.789547 213.745486 
L 198.958257 214.349597 
L 196.126967 214.873263 
L 193.295678 215.669387 
L 190.464388 216.116116 
L 187.633099 216.580977 
L 184.801809 217.343705 
L 181.970519 217.990644 
L 179.13923 218.495173 
L 176.30794 218.884843 
L 173.47665 219.401802 
L 170.645361 219.878428 
L 167.814071 220.417197 
L 164.982781 221.315316 
L 162.151492 222.115128 
L 159.320202 222.85657 
L 156.488913 223.768974 
L 153.657623 224.430111 
L 150.826333 225.408132 
L 147.995044 226.96486 
L 145.163754 228.088013 
L 142.332464 229.286687 
L 139.501175 230.669174 
L 136.669885 231.924436 
L 133.838595 233.568334 
L 131.007306 234.982522 
L 128.176016 236.86545 
L 125.344726 238.926086 
L 122.513437 242.529918 
L 119.682147 245.964556 
L 116.850858 249.656305 
L 114.019568 254.044437 
L 111.188278 259.077089 
L 108.356989 445.004819 
z
" clip-path="url(#pd55e55b88c)" style="fill: #ff7f50; fill-opacity: 0.1; stroke: #ff7f50; stroke-opacity: 0.1"/>
   </g>
   <g id="PolyCollection_3">
    <defs>
     <path id="m25daaab87e" d="M 108.356989 -306.63285 
L 108.356989 -294.751082 
L 111.188278 -310.406467 
L 114.019568 -322.039149 
L 116.850858 -330.970577 
L 119.682147 -351.144155 
L 122.513437 -359.873456 
L 125.344726 -367.018267 
L 128.176016 -371.330842 
L 131.007306 -374.68269 
L 133.838595 -377.832482 
L 136.669885 -381.049533 
L 139.501175 -383.252464 
L 142.332464 -385.749421 
L 145.163754 -387.539145 
L 147.995044 -389.199701 
L 150.826333 -390.715536 
L 153.657623 -391.960506 
L 156.488913 -393.048536 
L 159.320202 -394.013534 
L 162.151492 -395.178761 
L 164.982781 -396.118276 
L 167.814071 -397.006105 
L 170.645361 -397.94616 
L 173.47665 -398.884391 
L 176.30794 -399.819145 
L 179.13923 -400.720752 
L 181.970519 -401.613318 
L 184.801809 -402.414018 
L 187.633099 -403.186194 
L 190.464388 -404.088231 
L 193.295678 -405.073927 
L 196.126967 -405.871717 
L 198.958257 -406.705304 
L 201.789547 -407.811591 
L 204.620836 -408.680252 
L 207.452126 -409.435741 
L 210.283416 -410.236536 
L 213.114705 -411.044036 
L 215.945995 -411.791458 
L 218.777285 -412.518315 
L 221.608574 -413.309047 
L 224.439864 -414.041806 
L 227.271154 -414.766861 
L 230.102443 -415.465414 
L 232.933733 -416.179851 
L 235.765022 -416.898965 
L 238.596312 -417.638704 
L 241.427602 -418.353745 
L 244.258891 -419.034332 
L 247.090181 -419.746212 
L 249.921471 -420.701052 
L 252.75276 -421.687808 
L 255.58405 -422.618797 
L 258.41534 -423.539517 
L 261.246629 -424.378306 
L 264.077919 -425.196984 
L 266.909209 -426.017602 
L 269.740498 -426.767563 
L 272.571788 -427.502708 
L 275.403077 -428.249197 
L 278.234367 -428.931475 
L 281.065657 -429.63243 
L 283.896946 -430.340577 
L 286.728236 -431.014999 
L 289.559526 -431.677381 
L 292.390815 -432.310919 
L 295.222105 -432.963294 
L 298.053395 -433.563004 
L 300.884684 -434.174774 
L 303.715974 -434.786182 
L 306.547263 -435.383456 
L 309.378553 -435.97918 
L 312.209843 -436.553943 
L 315.041132 -437.166044 
L 317.872422 -437.769912 
L 320.703712 -438.553904 
L 323.535001 -439.340416 
L 326.366291 -440.061606 
L 329.197581 -440.814145 
L 332.02887 -441.554306 
L 334.86016 -442.284498 
L 337.69145 -442.965706 
L 340.522739 -443.662014 
L 343.354029 -444.32482 
L 346.185318 -444.995263 
L 349.016608 -445.634157 
L 351.847898 -446.318765 
L 354.679187 -446.979744 
L 357.510477 -447.627044 
L 360.341767 -448.305372 
L 363.173056 -448.905437 
L 366.004346 -449.525056 
L 368.835636 -450.170141 
L 371.666925 -450.773212 
L 374.498215 -451.325818 
L 377.329504 -451.897548 
L 380.160794 -452.486464 
L 382.992084 -453.071707 
L 385.823373 -453.618364 
L 388.654663 -454.156424 
L 391.485953 -454.80457 
L 394.317242 -455.434017 
L 397.148532 -456.06729 
L 399.979822 -456.699127 
L 402.811111 -457.304404 
L 405.642401 -457.900072 
L 408.473691 -458.506918 
L 411.30498 -459.092031 
L 414.13627 -459.665381 
L 416.967559 -460.216111 
L 419.798849 -460.776558 
L 422.630139 -461.325101 
L 425.461428 -461.857004 
L 428.292718 -462.404502 
L 431.124008 -462.933128 
L 433.955297 -463.47161 
L 436.786587 -463.996041 
L 439.617877 -464.504923 
L 442.449166 -465.020688 
L 445.280456 -465.532393 
L 448.111746 -466.025124 
L 450.943035 -466.496727 
L 453.774325 -466.990763 
L 456.605614 -467.499862 
L 459.436904 -468.084539 
L 462.268194 -468.623996 
L 465.099483 -469.179913 
L 467.930773 -469.962447 
L 470.762063 -470.723245 
L 473.593352 -471.491096 
L 476.424642 -472.205597 
L 479.255932 -472.922892 
L 482.087221 -473.60809 
L 484.918511 -474.305212 
L 487.7498 -474.969712 
L 490.58109 -475.627753 
L 493.41238 -476.31206 
L 496.243669 -476.986198 
L 499.074959 -477.654213 
L 501.906249 -478.276336 
L 504.737538 -478.891356 
L 507.568828 -479.510725 
L 510.400118 -480.142962 
L 513.231407 -480.752427 
L 516.062697 -481.352571 
L 518.893987 -481.903078 
L 521.725276 -482.468855 
L 524.556566 -483.027183 
L 527.387855 -483.581711 
L 530.219145 -484.173508 
L 533.050435 -485.030382 
L 535.881724 -485.844761 
L 538.713014 -486.703012 
L 541.544304 -487.487236 
L 544.375593 -488.273935 
L 547.206883 -489.055214 
L 550.038173 -489.816972 
L 552.869462 -490.561712 
L 555.700752 -491.229049 
L 558.532041 -491.926238 
L 561.363331 -493.171285 
L 564.194621 -494.302236 
L 567.02591 -495.383679 
L 569.8572 -496.163551 
L 572.68849 -496.877766 
L 575.519779 -497.573602 
L 578.351069 -498.246229 
L 581.182359 -498.928412 
L 584.013648 -499.624317 
L 586.844938 -500.313693 
L 589.676228 -501.003214 
L 592.507517 -501.732701 
L 595.338807 -502.416884 
L 598.170096 -503.112211 
L 601.001386 -503.847778 
L 603.832676 -504.537156 
L 606.663965 -505.197868 
L 609.495255 -505.871786 
L 612.326545 -506.532793 
L 615.157834 -507.20058 
L 617.989124 -507.832918 
L 620.820414 -508.468138 
L 623.651703 -509.158667 
L 626.482993 -509.784739 
L 629.314283 -510.445254 
L 632.145572 -511.096525 
L 634.976862 -511.678162 
L 637.808151 -512.289395 
L 640.639441 -512.87336 
L 643.470731 -513.462049 
L 646.30202 -514.064158 
L 649.13331 -514.622915 
L 651.9646 -515.214279 
L 654.795889 -515.815889 
L 657.627179 -516.404792 
L 660.458469 -516.977584 
L 663.289758 -517.533044 
L 666.121048 -518.10482 
L 668.952337 -518.714996 
L 671.783627 -519.26926 
L 674.614917 -519.79408 
L 677.446206 -520.345118 
L 680.277496 -520.853161 
L 683.108786 -521.409044 
L 685.940075 -521.943227 
L 688.771365 -522.473286 
L 691.602655 -522.972321 
L 694.433944 -523.495099 
L 697.265234 -523.983627 
L 700.096524 -524.478208 
L 702.927813 -524.972802 
L 705.759103 -525.449633 
L 708.590392 -525.883196 
L 711.421682 -526.343497 
L 714.252972 -526.777287 
L 717.084261 -527.220941 
L 717.084261 -529.32125 
L 717.084261 -529.32125 
L 714.252972 -528.896977 
L 711.421682 -528.467437 
L 708.590392 -528.019533 
L 705.759103 -527.583295 
L 702.927813 -527.108611 
L 700.096524 -526.650719 
L 697.265234 -526.162546 
L 694.433944 -525.674261 
L 691.602655 -525.190998 
L 688.771365 -524.704944 
L 685.940075 -524.206855 
L 683.108786 -523.731158 
L 680.277496 -523.196346 
L 677.446206 -522.67357 
L 674.614917 -522.126765 
L 671.783627 -521.563462 
L 668.952337 -521.030102 
L 666.121048 -520.493478 
L 663.289758 -519.909712 
L 660.458469 -519.351288 
L 657.627179 -518.811855 
L 654.795889 -518.257984 
L 651.9646 -517.708412 
L 649.13331 -517.137588 
L 646.30202 -516.563927 
L 643.470731 -516.057591 
L 640.639441 -515.502007 
L 637.808151 -514.924705 
L 634.976862 -514.373864 
L 632.145572 -513.774048 
L 629.314283 -513.142473 
L 626.482993 -512.50717 
L 623.651703 -511.878824 
L 620.820414 -511.23948 
L 617.989124 -510.555331 
L 615.157834 -509.934884 
L 612.326545 -509.336154 
L 609.495255 -508.681153 
L 606.663965 -508.002325 
L 603.832676 -507.33481 
L 601.001386 -506.659829 
L 598.170096 -505.984212 
L 595.338807 -505.286055 
L 592.507517 -504.583812 
L 589.676228 -503.906602 
L 586.844938 -503.215333 
L 584.013648 -502.503879 
L 581.182359 -501.803001 
L 578.351069 -501.142289 
L 575.519779 -500.453612 
L 572.68849 -499.756684 
L 569.8572 -499.050483 
L 567.02591 -498.286266 
L 564.194621 -497.168413 
L 561.363331 -495.972668 
L 558.532041 -494.745216 
L 555.700752 -493.996674 
L 552.869462 -493.299955 
L 550.038173 -492.525304 
L 547.206883 -491.719185 
L 544.375593 -490.952385 
L 541.544304 -490.142682 
L 538.713014 -489.376832 
L 535.881724 -488.579184 
L 533.050435 -487.761304 
L 530.219145 -486.936071 
L 527.387855 -486.354271 
L 524.556566 -485.782026 
L 521.725276 -485.209197 
L 518.893987 -484.661215 
L 516.062697 -484.108504 
L 513.231407 -483.542136 
L 510.400118 -482.966675 
L 507.568828 -482.389349 
L 504.737538 -481.784671 
L 501.906249 -481.178644 
L 499.074959 -480.591283 
L 496.243669 -479.982675 
L 493.41238 -479.346942 
L 490.58109 -478.732231 
L 487.7498 -478.080504 
L 484.918511 -477.441458 
L 482.087221 -476.785571 
L 479.255932 -476.092897 
L 476.424642 -475.358697 
L 473.593352 -474.662577 
L 470.762063 -473.960943 
L 467.930773 -473.223814 
L 465.099483 -472.455594 
L 462.268194 -471.906693 
L 459.436904 -471.362167 
L 456.605614 -470.808425 
L 453.774325 -470.322457 
L 450.943035 -469.853892 
L 448.111746 -469.369822 
L 445.280456 -468.882532 
L 442.449166 -468.397749 
L 439.617877 -467.893771 
L 436.786587 -467.399778 
L 433.955297 -466.928724 
L 431.124008 -466.432432 
L 428.292718 -465.921803 
L 425.461428 -465.418367 
L 422.630139 -464.915721 
L 419.798849 -464.391215 
L 416.967559 -463.866069 
L 414.13627 -463.307595 
L 411.30498 -462.784735 
L 408.473691 -462.228904 
L 405.642401 -461.664605 
L 402.811111 -461.075034 
L 399.979822 -460.517094 
L 397.148532 -459.935497 
L 394.317242 -459.334453 
L 391.485953 -458.721496 
L 388.654663 -458.103619 
L 385.823373 -457.591528 
L 382.992084 -457.082569 
L 380.160794 -456.544699 
L 377.329504 -456.029324 
L 374.498215 -455.491027 
L 371.666925 -454.960001 
L 368.835636 -454.376749 
L 366.004346 -453.791093 
L 363.173056 -453.246258 
L 360.341767 -452.662068 
L 357.510477 -452.060819 
L 354.679187 -451.448802 
L 351.847898 -450.827938 
L 349.016608 -450.213562 
L 346.185318 -449.634997 
L 343.354029 -449.0157 
L 340.522739 -448.393149 
L 337.69145 -447.750343 
L 334.86016 -447.107694 
L 332.02887 -446.482212 
L 329.197581 -445.797206 
L 326.366291 -445.145016 
L 323.535001 -444.471364 
L 320.703712 -443.758117 
L 317.872422 -443.054767 
L 315.041132 -442.488121 
L 312.209843 -441.937654 
L 309.378553 -441.375477 
L 306.547263 -440.810092 
L 303.715974 -440.247171 
L 300.884684 -439.67906 
L 298.053395 -439.100191 
L 295.222105 -438.532475 
L 292.390815 -437.942278 
L 289.559526 -437.354943 
L 286.728236 -436.752071 
L 283.896946 -436.162693 
L 281.065657 -435.510944 
L 278.234367 -434.851531 
L 275.403077 -434.197983 
L 272.571788 -433.553149 
L 269.740498 -432.845187 
L 266.909209 -432.120867 
L 264.077919 -431.433479 
L 261.246629 -430.747616 
L 258.41534 -429.972009 
L 255.58405 -429.106472 
L 252.75276 -428.275866 
L 249.921471 -427.475766 
L 247.090181 -426.593879 
L 244.258891 -425.969486 
L 241.427602 -425.348911 
L 238.596312 -424.720819 
L 235.765022 -424.105578 
L 232.933733 -423.456683 
L 230.102443 -422.887157 
L 227.271154 -422.278212 
L 224.439864 -421.632329 
L 221.608574 -421.007294 
L 218.777285 -420.328678 
L 215.945995 -419.571334 
L 213.114705 -418.918417 
L 210.283416 -418.219738 
L 207.452126 -417.505586 
L 204.620836 -416.845923 
L 201.789547 -415.989319 
L 198.958257 -415.289449 
L 196.126967 -414.625301 
L 193.295678 -413.85701 
L 190.464388 -413.054545 
L 187.633099 -412.335346 
L 184.801809 -411.641161 
L 181.970519 -410.891152 
L 179.13923 -410.135803 
L 176.30794 -409.325765 
L 173.47665 -408.510603 
L 170.645361 -407.746811 
L 167.814071 -406.97433 
L 164.982781 -406.217945 
L 162.151492 -405.122295 
L 159.320202 -404.165733 
L 156.488913 -402.869841 
L 153.657623 -401.405269 
L 150.826333 -399.571613 
L 147.995044 -398.030817 
L 145.163754 -396.277588 
L 142.332464 -394.327167 
L 139.501175 -391.922185 
L 136.669885 -388.754173 
L 133.838595 -385.673925 
L 131.007306 -382.285417 
L 128.176016 -378.425222 
L 125.344726 -374.177716 
L 122.513437 -370.861835 
L 119.682147 -367.15537 
L 116.850858 -338.091568 
L 114.019568 -329.299919 
L 111.188278 -318.99054 
L 108.356989 -306.63285 
z
" style="stroke: #8a2be2; stroke-opacity: 0.1"/>
    </defs>
    <g clip-path="url(#pd55e55b88c)">
     <use xlink:href="#m25daaab87e" x="0" y="559.20125" style="fill: #8a2be2; fill-opacity: 0.1; stroke: #8a2be2; stroke-opacity: 0.1"/>
    </g>
   </g>
   <g id="matplotlib.axis_1">
    <g id="xtick_1">
     <g id="line2d_1">
      <path d="M 105.525699 506.16 
L 105.525699 7.2 
" clip-path="url(#pd55e55b88c)" style="fill: none; stroke-dasharray: 1.85,0.8; stroke-dashoffset: 0; stroke: #b0b0b0; stroke-width: 0.5"/>
     </g>
     <g id="line2d_2">
      <defs>
       <path id="m81689d58b4" d="M 0 0 
L 0 3.5 
" style="stroke: #000000; stroke-width: 0.8"/>
      </defs>
      <g>
       <use xlink:href="#m81689d58b4" x="105.525699" y="506.16" style="stroke: #000000; stroke-width: 0.8"/>
      </g>
     </g>
     <g id="text_1">
      <!-- 0 -->
      <g transform="translate(99.799449 526.837188) scale(0.18 -0.18)">
       <defs>
        <path id="DejaVuSans-30" d="M 2034 4250 
Q 1547 4250 1301 3770 
Q 1056 3291 1056 2328 
Q 1056 1369 1301 889 
Q 1547 409 2034 409 
Q 2525 409 2770 889 
Q 3016 1369 3016 2328 
Q 3016 3291 2770 3770 
Q 2525 4250 2034 4250 
z
M 2034 4750 
Q 2819 4750 3233 4129 
Q 3647 3509 3647 2328 
Q 3647 1150 3233 529 
Q 2819 -91 2034 -91 
Q 1250 -91 836 529 
Q 422 1150 422 2328 
Q 422 3509 836 4129 
Q 1250 4750 2034 4750 
z
" transform="scale(0.015625)"/>
       </defs>
       <use xlink:href="#DejaVuSans-30"/>
      </g>
     </g>
    </g>
    <g id="xtick_2">
     <g id="line2d_3">
      <path d="M 247.090181 506.16 
L 247.090181 7.2 
" clip-path="url(#pd55e55b88c)" style="fill: none; stroke-dasharray: 1.85,0.8; stroke-dashoffset: 0; stroke: #b0b0b0; stroke-width: 0.5"/>
     </g>
     <g id="line2d_4">
      <g>
       <use xlink:href="#m81689d58b4" x="247.090181" y="506.16" style="stroke: #000000; stroke-width: 0.8"/>
      </g>
     </g>
     <g id="text_2">
      <!-- 50 -->
      <g transform="translate(235.637681 526.837188) scale(0.18 -0.18)">
       <defs>
        <path id="DejaVuSans-35" d="M 691 4666 
L 3169 4666 
L 3169 4134 
L 1269 4134 
L 1269 2991 
Q 1406 3038 1543 3061 
Q 1681 3084 1819 3084 
Q 2600 3084 3056 2656 
Q 3513 2228 3513 1497 
Q 3513 744 3044 326 
Q 2575 -91 1722 -91 
Q 1428 -91 1123 -41 
Q 819 9 494 109 
L 494 744 
Q 775 591 1075 516 
Q 1375 441 1709 441 
Q 2250 441 2565 725 
Q 2881 1009 2881 1497 
Q 2881 1984 2565 2268 
Q 2250 2553 1709 2553 
Q 1456 2553 1204 2497 
Q 953 2441 691 2322 
L 691 4666 
z
" transform="scale(0.015625)"/>
       </defs>
       <use xlink:href="#DejaVuSans-35"/>
       <use xlink:href="#DejaVuSans-30" x="63.623047"/>
      </g>
     </g>
    </g>
    <g id="xtick_3">
     <g id="line2d_5">
      <path d="M 388.654663 506.16 
L 388.654663 7.2 
" clip-path="url(#pd55e55b88c)" style="fill: none; stroke-dasharray: 1.85,0.8; stroke-dashoffset: 0; stroke: #b0b0b0; stroke-width: 0.5"/>
     </g>
     <g id="line2d_6">
      <g>
       <use xlink:href="#m81689d58b4" x="388.654663" y="506.16" style="stroke: #000000; stroke-width: 0.8"/>
      </g>
     </g>
     <g id="text_3">
      <!-- 100 -->
      <g transform="translate(371.475913 526.837188) scale(0.18 -0.18)">
       <defs>
        <path id="DejaVuSans-31" d="M 794 531 
L 1825 531 
L 1825 4091 
L 703 3866 
L 703 4441 
L 1819 4666 
L 2450 4666 
L 2450 531 
L 3481 531 
L 3481 0 
L 794 0 
L 794 531 
z
" transform="scale(0.015625)"/>
       </defs>
       <use xlink:href="#DejaVuSans-31"/>
       <use xlink:href="#DejaVuSans-30" x="63.623047"/>
       <use xlink:href="#DejaVuSans-30" x="127.246094"/>
      </g>
     </g>
    </g>
    <g id="xtick_4">
     <g id="line2d_7">
      <path d="M 530.219145 506.16 
L 530.219145 7.2 
" clip-path="url(#pd55e55b88c)" style="fill: none; stroke-dasharray: 1.85,0.8; stroke-dashoffset: 0; stroke: #b0b0b0; stroke-width: 0.5"/>
     </g>
     <g id="line2d_8">
      <g>
       <use xlink:href="#m81689d58b4" x="530.219145" y="506.16" style="stroke: #000000; stroke-width: 0.8"/>
      </g>
     </g>
     <g id="text_4">
      <!-- 150 -->
      <g transform="translate(513.040395 526.837188) scale(0.18 -0.18)">
       <use xlink:href="#DejaVuSans-31"/>
       <use xlink:href="#DejaVuSans-35" x="63.623047"/>
       <use xlink:href="#DejaVuSans-30" x="127.246094"/>
      </g>
     </g>
    </g>
    <g id="xtick_5">
     <g id="line2d_9">
      <path d="M 671.783627 506.16 
L 671.783627 7.2 
" clip-path="url(#pd55e55b88c)" style="fill: none; stroke-dasharray: 1.85,0.8; stroke-dashoffset: 0; stroke: #b0b0b0; stroke-width: 0.5"/>
     </g>
     <g id="line2d_10">
      <g>
       <use xlink:href="#m81689d58b4" x="671.783627" y="506.16" style="stroke: #000000; stroke-width: 0.8"/>
      </g>
     </g>
     <g id="text_5">
      <!-- 200 -->
      <g transform="translate(654.604877 526.837188) scale(0.18 -0.18)">
       <defs>
        <path id="DejaVuSans-32" d="M 1228 531 
L 3431 531 
L 3431 0 
L 469 0 
L 469 531 
Q 828 903 1448 1529 
Q 2069 2156 2228 2338 
Q 2531 2678 2651 2914 
Q 2772 3150 2772 3378 
Q 2772 3750 2511 3984 
Q 2250 4219 1831 4219 
Q 1534 4219 1204 4116 
Q 875 4013 500 3803 
L 500 4441 
Q 881 4594 1212 4672 
Q 1544 4750 1819 4750 
Q 2544 4750 2975 4387 
Q 3406 4025 3406 3419 
Q 3406 3131 3298 2873 
Q 3191 2616 2906 2266 
Q 2828 2175 2409 1742 
Q 1991 1309 1228 531 
z
" transform="scale(0.015625)"/>
       </defs>
       <use xlink:href="#DejaVuSans-32"/>
       <use xlink:href="#DejaVuSans-30" x="63.623047"/>
       <use xlink:href="#DejaVuSans-30" x="127.246094"/>
      </g>
     </g>
    </g>
    <g id="text_6">
     <!-- Decision Round -->
     <g transform="translate(343.067656 548.257813) scale(0.18 -0.18)">
      <defs>
       <path id="DejaVuSans-44" d="M 1259 4147 
L 1259 519 
L 2022 519 
Q 2988 519 3436 956 
Q 3884 1394 3884 2338 
Q 3884 3275 3436 3711 
Q 2988 4147 2022 4147 
L 1259 4147 
z
M 628 4666 
L 1925 4666 
Q 3281 4666 3915 4102 
Q 4550 3538 4550 2338 
Q 4550 1131 3912 565 
Q 3275 0 1925 0 
L 628 0 
L 628 4666 
z
" transform="scale(0.015625)"/>
       <path id="DejaVuSans-65" d="M 3597 1894 
L 3597 1613 
L 953 1613 
Q 991 1019 1311 708 
Q 1631 397 2203 397 
Q 2534 397 2845 478 
Q 3156 559 3463 722 
L 3463 178 
Q 3153 47 2828 -22 
Q 2503 -91 2169 -91 
Q 1331 -91 842 396 
Q 353 884 353 1716 
Q 353 2575 817 3079 
Q 1281 3584 2069 3584 
Q 2775 3584 3186 3129 
Q 3597 2675 3597 1894 
z
M 3022 2063 
Q 3016 2534 2758 2815 
Q 2500 3097 2075 3097 
Q 1594 3097 1305 2825 
Q 1016 2553 972 2059 
L 3022 2063 
z
" transform="scale(0.015625)"/>
       <path id="DejaVuSans-63" d="M 3122 3366 
L 3122 2828 
Q 2878 2963 2633 3030 
Q 2388 3097 2138 3097 
Q 1578 3097 1268 2742 
Q 959 2388 959 1747 
Q 959 1106 1268 751 
Q 1578 397 2138 397 
Q 2388 397 2633 464 
Q 2878 531 3122 666 
L 3122 134 
Q 2881 22 2623 -34 
Q 2366 -91 2075 -91 
Q 1284 -91 818 406 
Q 353 903 353 1747 
Q 353 2603 823 3093 
Q 1294 3584 2113 3584 
Q 2378 3584 2631 3529 
Q 2884 3475 3122 3366 
z
" transform="scale(0.015625)"/>
       <path id="DejaVuSans-69" d="M 603 3500 
L 1178 3500 
L 1178 0 
L 603 0 
L 603 3500 
z
M 603 4863 
L 1178 4863 
L 1178 4134 
L 603 4134 
L 603 4863 
z
" transform="scale(0.015625)"/>
       <path id="DejaVuSans-73" d="M 2834 3397 
L 2834 2853 
Q 2591 2978 2328 3040 
Q 2066 3103 1784 3103 
Q 1356 3103 1142 2972 
Q 928 2841 928 2578 
Q 928 2378 1081 2264 
Q 1234 2150 1697 2047 
L 1894 2003 
Q 2506 1872 2764 1633 
Q 3022 1394 3022 966 
Q 3022 478 2636 193 
Q 2250 -91 1575 -91 
Q 1294 -91 989 -36 
Q 684 19 347 128 
L 347 722 
Q 666 556 975 473 
Q 1284 391 1588 391 
Q 1994 391 2212 530 
Q 2431 669 2431 922 
Q 2431 1156 2273 1281 
Q 2116 1406 1581 1522 
L 1381 1569 
Q 847 1681 609 1914 
Q 372 2147 372 2553 
Q 372 3047 722 3315 
Q 1072 3584 1716 3584 
Q 2034 3584 2315 3537 
Q 2597 3491 2834 3397 
z
" transform="scale(0.015625)"/>
       <path id="DejaVuSans-6f" d="M 1959 3097 
Q 1497 3097 1228 2736 
Q 959 2375 959 1747 
Q 959 1119 1226 758 
Q 1494 397 1959 397 
Q 2419 397 2687 759 
Q 2956 1122 2956 1747 
Q 2956 2369 2687 2733 
Q 2419 3097 1959 3097 
z
M 1959 3584 
Q 2709 3584 3137 3096 
Q 3566 2609 3566 1747 
Q 3566 888 3137 398 
Q 2709 -91 1959 -91 
Q 1206 -91 779 398 
Q 353 888 353 1747 
Q 353 2609 779 3096 
Q 1206 3584 1959 3584 
z
" transform="scale(0.015625)"/>
       <path id="DejaVuSans-6e" d="M 3513 2113 
L 3513 0 
L 2938 0 
L 2938 2094 
Q 2938 2591 2744 2837 
Q 2550 3084 2163 3084 
Q 1697 3084 1428 2787 
Q 1159 2491 1159 1978 
L 1159 0 
L 581 0 
L 581 3500 
L 1159 3500 
L 1159 2956 
Q 1366 3272 1645 3428 
Q 1925 3584 2291 3584 
Q 2894 3584 3203 3211 
Q 3513 2838 3513 2113 
z
" transform="scale(0.015625)"/>
       <path id="DejaVuSans-20" transform="scale(0.015625)"/>
       <path id="DejaVuSans-52" d="M 2841 2188 
Q 3044 2119 3236 1894 
Q 3428 1669 3622 1275 
L 4263 0 
L 3584 0 
L 2988 1197 
Q 2756 1666 2539 1819 
Q 2322 1972 1947 1972 
L 1259 1972 
L 1259 0 
L 628 0 
L 628 4666 
L 2053 4666 
Q 2853 4666 3247 4331 
Q 3641 3997 3641 3322 
Q 3641 2881 3436 2590 
Q 3231 2300 2841 2188 
z
M 1259 4147 
L 1259 2491 
L 2053 2491 
Q 2509 2491 2742 2702 
Q 2975 2913 2975 3322 
Q 2975 3731 2742 3939 
Q 2509 4147 2053 4147 
L 1259 4147 
z
" transform="scale(0.015625)"/>
       <path id="DejaVuSans-75" d="M 544 1381 
L 544 3500 
L 1119 3500 
L 1119 1403 
Q 1119 906 1312 657 
Q 1506 409 1894 409 
Q 2359 409 2629 706 
Q 2900 1003 2900 1516 
L 2900 3500 
L 3475 3500 
L 3475 0 
L 2900 0 
L 2900 538 
Q 2691 219 2414 64 
Q 2138 -91 1772 -91 
Q 1169 -91 856 284 
Q 544 659 544 1381 
z
M 1991 3584 
L 1991 3584 
z
" transform="scale(0.015625)"/>
       <path id="DejaVuSans-64" d="M 2906 2969 
L 2906 4863 
L 3481 4863 
L 3481 0 
L 2906 0 
L 2906 525 
Q 2725 213 2448 61 
Q 2172 -91 1784 -91 
Q 1150 -91 751 415 
Q 353 922 353 1747 
Q 353 2572 751 3078 
Q 1150 3584 1784 3584 
Q 2172 3584 2448 3432 
Q 2725 3281 2906 2969 
z
M 947 1747 
Q 947 1113 1208 752 
Q 1469 391 1925 391 
Q 2381 391 2643 752 
Q 2906 1113 2906 1747 
Q 2906 2381 2643 2742 
Q 2381 3103 1925 3103 
Q 1469 3103 1208 2742 
Q 947 2381 947 1747 
z
" transform="scale(0.015625)"/>
      </defs>
      <use xlink:href="#DejaVuSans-44"/>
      <use xlink:href="#DejaVuSans-65" x="77.001953"/>
      <use xlink:href="#DejaVuSans-63" x="138.525391"/>
      <use xlink:href="#DejaVuSans-69" x="193.505859"/>
      <use xlink:href="#DejaVuSans-73" x="221.289062"/>
      <use xlink:href="#DejaVuSans-69" x="273.388672"/>
      <use xlink:href="#DejaVuSans-6f" x="301.171875"/>
      <use xlink:href="#DejaVuSans-6e" x="362.353516"/>
      <use xlink:href="#DejaVuSans-20" x="425.732422"/>
      <use xlink:href="#DejaVuSans-52" x="457.519531"/>
      <use xlink:href="#DejaVuSans-6f" x="522.501953"/>
      <use xlink:href="#DejaVuSans-75" x="583.683594"/>
      <use xlink:href="#DejaVuSans-6e" x="647.0625"/>
      <use xlink:href="#DejaVuSans-64" x="710.441406"/>
     </g>
    </g>
   </g>
   <g id="matplotlib.axis_2">
    <g id="ytick_1">
     <g id="line2d_11">
      <path d="M 77.920625 440.295435 
L 747.520625 440.295435 
" clip-path="url(#pd55e55b88c)" style="fill: none; stroke-dasharray: 1.85,0.8; stroke-dashoffset: 0; stroke: #b0b0b0; stroke-width: 0.5"/>
     </g>
     <g id="line2d_12">
      <defs>
       <path id="me2b928c0bc" d="M 0 0 
L -3.5 0 
" style="stroke: #000000; stroke-width: 0.8"/>
      </defs>
      <g>
       <use xlink:href="#me2b928c0bc" x="77.920625" y="440.295435" style="stroke: #000000; stroke-width: 0.8"/>
      </g>
     </g>
     <g id="text_7">
      <!-- $\mathdefault{10^{-2}}$ -->
      <g transform="translate(28.620625 447.134029) scale(0.18 -0.18)">
       <defs>
        <path id="DejaVuSans-2212" d="M 678 2272 
L 4684 2272 
L 4684 1741 
L 678 1741 
L 678 2272 
z
" transform="scale(0.015625)"/>
       </defs>
       <use xlink:href="#DejaVuSans-31" transform="translate(0 0.765625)"/>
       <use xlink:href="#DejaVuSans-30" transform="translate(63.623047 0.765625)"/>
       <use xlink:href="#DejaVuSans-2212" transform="translate(128.203125 39.046875) scale(0.7)"/>
       <use xlink:href="#DejaVuSans-32" transform="translate(186.855469 39.046875) scale(0.7)"/>
      </g>
     </g>
    </g>
    <g id="ytick_2">
     <g id="line2d_13">
      <path d="M 77.920625 346.07961 
L 747.520625 346.07961 
" clip-path="url(#pd55e55b88c)" style="fill: none; stroke-dasharray: 1.85,0.8; stroke-dashoffset: 0; stroke: #b0b0b0; stroke-width: 0.5"/>
     </g>
     <g id="line2d_14">
      <g>
       <use xlink:href="#me2b928c0bc" x="77.920625" y="346.07961" style="stroke: #000000; stroke-width: 0.8"/>
      </g>
     </g>
     <g id="text_8">
      <!-- $\mathdefault{10^{-1}}$ -->
      <g transform="translate(28.620625 352.918204) scale(0.18 -0.18)">
       <use xlink:href="#DejaVuSans-31" transform="translate(0 0.684375)"/>
       <use xlink:href="#DejaVuSans-30" transform="translate(63.623047 0.684375)"/>
       <use xlink:href="#DejaVuSans-2212" transform="translate(128.203125 38.965625) scale(0.7)"/>
       <use xlink:href="#DejaVuSans-31" transform="translate(186.855469 38.965625) scale(0.7)"/>
      </g>
     </g>
    </g>
    <g id="ytick_3">
     <g id="line2d_15">
      <path d="M 77.920625 251.863785 
L 747.520625 251.863785 
" clip-path="url(#pd55e55b88c)" style="fill: none; stroke-dasharray: 1.85,0.8; stroke-dashoffset: 0; stroke: #b0b0b0; stroke-width: 0.5"/>
     </g>
     <g id="line2d_16">
      <g>
       <use xlink:href="#me2b928c0bc" x="77.920625" y="251.863785" style="stroke: #000000; stroke-width: 0.8"/>
      </g>
     </g>
     <g id="text_9">
      <!-- $\mathdefault{10^{0}}$ -->
      <g transform="translate(39.240625 258.702379) scale(0.18 -0.18)">
       <use xlink:href="#DejaVuSans-31" transform="translate(0 0.765625)"/>
       <use xlink:href="#DejaVuSans-30" transform="translate(63.623047 0.765625)"/>
       <use xlink:href="#DejaVuSans-30" transform="translate(128.203125 39.046875) scale(0.7)"/>
      </g>
     </g>
    </g>
    <g id="ytick_4">
     <g id="line2d_17">
      <path d="M 77.920625 157.64796 
L 747.520625 157.64796 
" clip-path="url(#pd55e55b88c)" style="fill: none; stroke-dasharray: 1.85,0.8; stroke-dashoffset: 0; stroke: #b0b0b0; stroke-width: 0.5"/>
     </g>
     <g id="line2d_18">
      <g>
       <use xlink:href="#me2b928c0bc" x="77.920625" y="157.64796" style="stroke: #000000; stroke-width: 0.8"/>
      </g>
     </g>
     <g id="text_10">
      <!-- $\mathdefault{10^{1}}$ -->
      <g transform="translate(39.240625 164.486554) scale(0.18 -0.18)">
       <use xlink:href="#DejaVuSans-31" transform="translate(0 0.684375)"/>
       <use xlink:href="#DejaVuSans-30" transform="translate(63.623047 0.684375)"/>
       <use xlink:href="#DejaVuSans-31" transform="translate(128.203125 38.965625) scale(0.7)"/>
      </g>
     </g>
    </g>
    <g id="ytick_5">
     <g id="line2d_19">
      <path d="M 77.920625 63.432135 
L 747.520625 63.432135 
" clip-path="url(#pd55e55b88c)" style="fill: none; stroke-dasharray: 1.85,0.8; stroke-dashoffset: 0; stroke: #b0b0b0; stroke-width: 0.5"/>
     </g>
     <g id="line2d_20">
      <g>
       <use xlink:href="#me2b928c0bc" x="77.920625" y="63.432135" style="stroke: #000000; stroke-width: 0.8"/>
      </g>
     </g>
     <g id="text_11">
      <!-- $\mathdefault{10^{2}}$ -->
      <g transform="translate(39.240625 70.270729) scale(0.18 -0.18)">
       <use xlink:href="#DejaVuSans-31" transform="translate(0 0.765625)"/>
       <use xlink:href="#DejaVuSans-30" transform="translate(63.623047 0.765625)"/>
       <use xlink:href="#DejaVuSans-32" transform="translate(128.203125 39.046875) scale(0.7)"/>
      </g>
     </g>
    </g>
    <g id="ytick_6">
     <g id="line2d_21">
      <defs>
       <path id="mb672212959" d="M 0 0 
L -2 0 
" style="stroke: #000000; stroke-width: 0.6"/>
      </defs>
      <g>
       <use xlink:href="#mb672212959" x="77.920625" y="506.149471" style="stroke: #000000; stroke-width: 0.6"/>
      </g>
     </g>
    </g>
    <g id="ytick_7">
     <g id="line2d_22">
      <g>
       <use xlink:href="#mb672212959" x="77.920625" y="489.558887" style="stroke: #000000; stroke-width: 0.6"/>
      </g>
     </g>
    </g>
    <g id="ytick_8">
     <g id="line2d_23">
      <g>
       <use xlink:href="#mb672212959" x="77.920625" y="477.787681" style="stroke: #000000; stroke-width: 0.6"/>
      </g>
     </g>
    </g>
    <g id="ytick_9">
     <g id="line2d_24">
      <g>
       <use xlink:href="#mb672212959" x="77.920625" y="468.657225" style="stroke: #000000; stroke-width: 0.6"/>
      </g>
     </g>
    </g>
    <g id="ytick_10">
     <g id="line2d_25">
      <g>
       <use xlink:href="#mb672212959" x="77.920625" y="461.197098" style="stroke: #000000; stroke-width: 0.6"/>
      </g>
     </g>
    </g>
    <g id="ytick_11">
     <g id="line2d_26">
      <g>
       <use xlink:href="#mb672212959" x="77.920625" y="454.889651" style="stroke: #000000; stroke-width: 0.6"/>
      </g>
     </g>
    </g>
    <g id="ytick_12">
     <g id="line2d_27">
      <g>
       <use xlink:href="#mb672212959" x="77.920625" y="449.425892" style="stroke: #000000; stroke-width: 0.6"/>
      </g>
     </g>
    </g>
    <g id="ytick_13">
     <g id="line2d_28">
      <g>
       <use xlink:href="#mb672212959" x="77.920625" y="444.606515" style="stroke: #000000; stroke-width: 0.6"/>
      </g>
     </g>
    </g>
    <g id="ytick_14">
     <g id="line2d_29">
      <g>
       <use xlink:href="#mb672212959" x="77.920625" y="411.933646" style="stroke: #000000; stroke-width: 0.6"/>
      </g>
     </g>
    </g>
    <g id="ytick_15">
     <g id="line2d_30">
      <g>
       <use xlink:href="#mb672212959" x="77.920625" y="395.343063" style="stroke: #000000; stroke-width: 0.6"/>
      </g>
     </g>
    </g>
    <g id="ytick_16">
     <g id="line2d_31">
      <g>
       <use xlink:href="#mb672212959" x="77.920625" y="383.571856" style="stroke: #000000; stroke-width: 0.6"/>
      </g>
     </g>
    </g>
    <g id="ytick_17">
     <g id="line2d_32">
      <g>
       <use xlink:href="#mb672212959" x="77.920625" y="374.4414" style="stroke: #000000; stroke-width: 0.6"/>
      </g>
     </g>
    </g>
    <g id="ytick_18">
     <g id="line2d_33">
      <g>
       <use xlink:href="#mb672212959" x="77.920625" y="366.981273" style="stroke: #000000; stroke-width: 0.6"/>
      </g>
     </g>
    </g>
    <g id="ytick_19">
     <g id="line2d_34">
      <g>
       <use xlink:href="#mb672212959" x="77.920625" y="360.673826" style="stroke: #000000; stroke-width: 0.6"/>
      </g>
     </g>
    </g>
    <g id="ytick_20">
     <g id="line2d_35">
      <g>
       <use xlink:href="#mb672212959" x="77.920625" y="355.210067" style="stroke: #000000; stroke-width: 0.6"/>
      </g>
     </g>
    </g>
    <g id="ytick_21">
     <g id="line2d_36">
      <g>
       <use xlink:href="#mb672212959" x="77.920625" y="350.39069" style="stroke: #000000; stroke-width: 0.6"/>
      </g>
     </g>
    </g>
    <g id="ytick_22">
     <g id="line2d_37">
      <g>
       <use xlink:href="#mb672212959" x="77.920625" y="317.717821" style="stroke: #000000; stroke-width: 0.6"/>
      </g>
     </g>
    </g>
    <g id="ytick_23">
     <g id="line2d_38">
      <g>
       <use xlink:href="#mb672212959" x="77.920625" y="301.127238" style="stroke: #000000; stroke-width: 0.6"/>
      </g>
     </g>
    </g>
    <g id="ytick_24">
     <g id="line2d_39">
      <g>
       <use xlink:href="#mb672212959" x="77.920625" y="289.356031" style="stroke: #000000; stroke-width: 0.6"/>
      </g>
     </g>
    </g>
    <g id="ytick_25">
     <g id="line2d_40">
      <g>
       <use xlink:href="#mb672212959" x="77.920625" y="280.225575" style="stroke: #000000; stroke-width: 0.6"/>
      </g>
     </g>
    </g>
    <g id="ytick_26">
     <g id="line2d_41">
      <g>
       <use xlink:href="#mb672212959" x="77.920625" y="272.765448" style="stroke: #000000; stroke-width: 0.6"/>
      </g>
     </g>
    </g>
    <g id="ytick_27">
     <g id="line2d_42">
      <g>
       <use xlink:href="#mb672212959" x="77.920625" y="266.458001" style="stroke: #000000; stroke-width: 0.6"/>
      </g>
     </g>
    </g>
    <g id="ytick_28">
     <g id="line2d_43">
      <g>
       <use xlink:href="#mb672212959" x="77.920625" y="260.994242" style="stroke: #000000; stroke-width: 0.6"/>
      </g>
     </g>
    </g>
    <g id="ytick_29">
     <g id="line2d_44">
      <g>
       <use xlink:href="#mb672212959" x="77.920625" y="256.174865" style="stroke: #000000; stroke-width: 0.6"/>
      </g>
     </g>
    </g>
    <g id="ytick_30">
     <g id="line2d_45">
      <g>
       <use xlink:href="#mb672212959" x="77.920625" y="223.501996" style="stroke: #000000; stroke-width: 0.6"/>
      </g>
     </g>
    </g>
    <g id="ytick_31">
     <g id="line2d_46">
      <g>
       <use xlink:href="#mb672212959" x="77.920625" y="206.911413" style="stroke: #000000; stroke-width: 0.6"/>
      </g>
     </g>
    </g>
    <g id="ytick_32">
     <g id="line2d_47">
      <g>
       <use xlink:href="#mb672212959" x="77.920625" y="195.140207" style="stroke: #000000; stroke-width: 0.6"/>
      </g>
     </g>
    </g>
    <g id="ytick_33">
     <g id="line2d_48">
      <g>
       <use xlink:href="#mb672212959" x="77.920625" y="186.00975" style="stroke: #000000; stroke-width: 0.6"/>
      </g>
     </g>
    </g>
    <g id="ytick_34">
     <g id="line2d_49">
      <g>
       <use xlink:href="#mb672212959" x="77.920625" y="178.549623" style="stroke: #000000; stroke-width: 0.6"/>
      </g>
     </g>
    </g>
    <g id="ytick_35">
     <g id="line2d_50">
      <g>
       <use xlink:href="#mb672212959" x="77.920625" y="172.242176" style="stroke: #000000; stroke-width: 0.6"/>
      </g>
     </g>
    </g>
    <g id="ytick_36">
     <g id="line2d_51">
      <g>
       <use xlink:href="#mb672212959" x="77.920625" y="166.778417" style="stroke: #000000; stroke-width: 0.6"/>
      </g>
     </g>
    </g>
    <g id="ytick_37">
     <g id="line2d_52">
      <g>
       <use xlink:href="#mb672212959" x="77.920625" y="161.95904" style="stroke: #000000; stroke-width: 0.6"/>
      </g>
     </g>
    </g>
    <g id="ytick_38">
     <g id="line2d_53">
      <g>
       <use xlink:href="#mb672212959" x="77.920625" y="129.286171" style="stroke: #000000; stroke-width: 0.6"/>
      </g>
     </g>
    </g>
    <g id="ytick_39">
     <g id="line2d_54">
      <g>
       <use xlink:href="#mb672212959" x="77.920625" y="112.695588" style="stroke: #000000; stroke-width: 0.6"/>
      </g>
     </g>
    </g>
    <g id="ytick_40">
     <g id="line2d_55">
      <g>
       <use xlink:href="#mb672212959" x="77.920625" y="100.924382" style="stroke: #000000; stroke-width: 0.6"/>
      </g>
     </g>
    </g>
    <g id="ytick_41">
     <g id="line2d_56">
      <g>
       <use xlink:href="#mb672212959" x="77.920625" y="91.793925" style="stroke: #000000; stroke-width: 0.6"/>
      </g>
     </g>
    </g>
    <g id="ytick_42">
     <g id="line2d_57">
      <g>
       <use xlink:href="#mb672212959" x="77.920625" y="84.333798" style="stroke: #000000; stroke-width: 0.6"/>
      </g>
     </g>
    </g>
    <g id="ytick_43">
     <g id="line2d_58">
      <g>
       <use xlink:href="#mb672212959" x="77.920625" y="78.026351" style="stroke: #000000; stroke-width: 0.6"/>
      </g>
     </g>
    </g>
    <g id="ytick_44">
     <g id="line2d_59">
      <g>
       <use xlink:href="#mb672212959" x="77.920625" y="72.562592" style="stroke: #000000; stroke-width: 0.6"/>
      </g>
     </g>
    </g>
    <g id="ytick_45">
     <g id="line2d_60">
      <g>
       <use xlink:href="#mb672212959" x="77.920625" y="67.743215" style="stroke: #000000; stroke-width: 0.6"/>
      </g>
     </g>
    </g>
    <g id="ytick_46">
     <g id="line2d_61">
      <g>
       <use xlink:href="#mb672212959" x="77.920625" y="35.070346" style="stroke: #000000; stroke-width: 0.6"/>
      </g>
     </g>
    </g>
    <g id="ytick_47">
     <g id="line2d_62">
      <g>
       <use xlink:href="#mb672212959" x="77.920625" y="18.479763" style="stroke: #000000; stroke-width: 0.6"/>
      </g>
     </g>
    </g>
    <g id="text_12">
     <!-- Runtime -->
     <g transform="translate(20.877188 294.269063) rotate(-90) scale(0.18 -0.18)">
      <defs>
       <path id="DejaVuSans-74" d="M 1172 4494 
L 1172 3500 
L 2356 3500 
L 2356 3053 
L 1172 3053 
L 1172 1153 
Q 1172 725 1289 603 
Q 1406 481 1766 481 
L 2356 481 
L 2356 0 
L 1766 0 
Q 1100 0 847 248 
Q 594 497 594 1153 
L 594 3053 
L 172 3053 
L 172 3500 
L 594 3500 
L 594 4494 
L 1172 4494 
z
" transform="scale(0.015625)"/>
       <path id="DejaVuSans-6d" d="M 3328 2828 
Q 3544 3216 3844 3400 
Q 4144 3584 4550 3584 
Q 5097 3584 5394 3201 
Q 5691 2819 5691 2113 
L 5691 0 
L 5113 0 
L 5113 2094 
Q 5113 2597 4934 2840 
Q 4756 3084 4391 3084 
Q 3944 3084 3684 2787 
Q 3425 2491 3425 1978 
L 3425 0 
L 2847 0 
L 2847 2094 
Q 2847 2600 2669 2842 
Q 2491 3084 2119 3084 
Q 1678 3084 1418 2786 
Q 1159 2488 1159 1978 
L 1159 0 
L 581 0 
L 581 3500 
L 1159 3500 
L 1159 2956 
Q 1356 3278 1631 3431 
Q 1906 3584 2284 3584 
Q 2666 3584 2933 3390 
Q 3200 3197 3328 2828 
z
" transform="scale(0.015625)"/>
      </defs>
      <use xlink:href="#DejaVuSans-52"/>
      <use xlink:href="#DejaVuSans-75" x="64.982422"/>
      <use xlink:href="#DejaVuSans-6e" x="128.361328"/>
      <use xlink:href="#DejaVuSans-74" x="191.740234"/>
      <use xlink:href="#DejaVuSans-69" x="230.949219"/>
      <use xlink:href="#DejaVuSans-6d" x="258.732422"/>
      <use xlink:href="#DejaVuSans-65" x="356.144531"/>
     </g>
    </g>
   </g>
   <g id="line2d_63">
    <path d="M 108.356989 433.57989 
L 111.188278 265.168356 
L 114.019568 259.357602 
L 116.850858 254.434361 
L 119.682147 250.340323 
L 122.513437 228.206203 
L 125.344726 218.585041 
L 128.176016 213.352527 
L 131.007306 210.732984 
L 133.838595 208.599744 
L 136.669885 205.056793 
L 139.501175 202.473338 
L 142.332464 199.488093 
L 153.657623 190.191876 
L 156.488913 188.405823 
L 164.982781 183.596867 
L 167.814071 181.932694 
L 176.30794 177.425601 
L 187.633099 171.684605 
L 204.620836 163.910095 
L 218.777285 158.131943 
L 227.271154 154.989655 
L 238.596312 151.046818 
L 244.258891 149.195795 
L 249.921471 146.729388 
L 255.58405 144.371101 
L 261.246629 142.260828 
L 266.909209 140.275313 
L 275.403077 137.601849 
L 281.065657 135.887816 
L 295.222105 131.903172 
L 306.547263 129.015768 
L 317.872422 126.048513 
L 334.86016 121.269413 
L 346.185318 118.30765 
L 368.835636 112.808832 
L 382.992084 109.677003 
L 385.823373 109.089173 
L 399.979822 105.613273 
L 414.13627 102.386385 
L 433.955297 98.215372 
L 450.943035 94.892485 
L 459.436904 93.11464 
L 465.099483 91.926537 
L 473.593352 89.430841 
L 484.918511 86.413005 
L 496.243669 83.57656 
L 513.231407 79.664141 
L 530.219145 75.913287 
L 538.713014 73.258252 
L 550.038173 69.955598 
L 558.532041 67.640793 
L 564.194621 65.166516 
L 567.02591 63.974977 
L 575.519779 61.700364 
L 584.013648 59.573889 
L 603.832676 54.558959 
L 617.989124 51.21272 
L 634.976862 47.293924 
L 646.30202 44.923549 
L 680.277496 38.011688 
L 697.265234 34.948532 
L 705.759103 33.460041 
L 717.084261 31.659319 
L 717.084261 31.659319 
" clip-path="url(#pd55e55b88c)" style="fill: none; stroke: #ff0000; stroke-width: 1.5; stroke-linecap: square"/>
   </g>
   <g id="line2d_64">
    <path d="M 108.356989 483.48 
L 111.188278 263.042575 
L 114.019568 257.358859 
L 116.850858 252.619834 
L 119.682147 248.663465 
L 125.344726 241.184131 
L 128.176016 239.009129 
L 131.007306 237.028903 
L 133.838595 235.542984 
L 136.669885 233.820101 
L 139.501175 232.506152 
L 142.332464 231.061722 
L 147.995044 228.639019 
L 150.826333 227.018227 
L 153.657623 226.001463 
L 156.488913 225.314307 
L 159.320202 224.367179 
L 164.982781 222.768952 
L 167.814071 221.83846 
L 176.30794 220.253164 
L 179.13923 219.850551 
L 181.970519 219.329748 
L 184.801809 218.661354 
L 187.633099 217.87434 
L 193.295678 216.934303 
L 196.126967 216.113991 
L 204.620836 214.474826 
L 210.283416 213.788667 
L 215.945995 212.795326 
L 218.777285 212.446162 
L 224.439864 211.444444 
L 227.271154 211.19484 
L 230.102443 210.725219 
L 238.596312 209.785413 
L 244.258891 208.908023 
L 247.090181 208.699202 
L 252.75276 207.869891 
L 261.246629 207.08761 
L 266.909209 206.31156 
L 269.740498 206.027441 
L 281.065657 205.566249 
L 295.222105 204.787343 
L 306.547263 204.105559 
L 329.197581 203.002923 
L 351.847898 201.396634 
L 360.341767 200.988507 
L 391.485953 199.162032 
L 397.148532 198.820277 
L 411.30498 197.986988 
L 439.617877 196.099136 
L 448.111746 195.564605 
L 465.099483 194.359657 
L 467.930773 194.032585 
L 487.7498 193.005345 
L 499.074959 192.2405 
L 564.194621 188.246718 
L 581.182359 187.183337 
L 589.676228 186.691467 
L 634.976862 183.822221 
L 663.289758 181.986746 
L 671.783627 181.517998 
L 685.940075 180.641543 
L 694.433944 180.032782 
L 717.084261 178.502589 
L 717.084261 178.502589 
" clip-path="url(#pd55e55b88c)" style="fill: none; stroke: #ff7f50; stroke-width: 1.5; stroke-linecap: square"/>
   </g>
   <g id="line2d_65">
    <path d="M 108.356989 258.079507 
L 111.188278 244.278052 
L 114.019568 233.370874 
L 116.850858 224.515462 
L 119.682147 199.273274 
L 122.513437 193.465841 
L 125.344726 188.446869 
L 128.176016 184.169654 
L 131.007306 180.54087 
L 136.669885 174.118319 
L 139.501175 171.384733 
L 142.332464 168.938592 
L 145.163754 167.060049 
L 147.995044 165.348202 
L 153.657623 162.246454 
L 156.488913 160.948093 
L 162.151492 158.749409 
L 164.982781 157.722314 
L 176.30794 154.353321 
L 184.801809 151.914112 
L 190.464388 150.384751 
L 196.126967 148.719101 
L 198.958257 147.979175 
L 204.620836 146.234802 
L 215.945995 143.335228 
L 224.439864 141.188421 
L 241.427602 137.200619 
L 247.090181 135.888124 
L 258.41534 132.319213 
L 266.909209 130.018325 
L 275.403077 127.869647 
L 292.390815 123.977849 
L 303.715974 121.593536 
L 317.872422 118.703646 
L 332.02887 115.108849 
L 346.185318 111.820391 
L 357.510477 109.297293 
L 366.004346 107.487604 
L 374.498215 105.739851 
L 394.317242 101.770556 
L 408.473691 98.791033 
L 422.630139 96.041466 
L 448.111746 91.469611 
L 459.436904 89.445087 
L 465.099483 88.350725 
L 473.593352 86.093693 
L 487.7498 82.646586 
L 501.906249 79.448033 
L 518.893987 75.895868 
L 530.219145 73.62315 
L 541.544304 70.364753 
L 552.869462 67.247515 
L 558.532041 65.841251 
L 564.194621 63.440834 
L 567.02591 62.340545 
L 572.68849 60.85871 
L 609.495255 51.900674 
L 632.145572 46.744066 
L 649.13331 43.301683 
L 671.783627 38.768812 
L 688.771365 35.596922 
L 708.590392 32.235945 
L 717.084261 30.91668 
L 717.084261 30.91668 
" clip-path="url(#pd55e55b88c)" style="fill: none; stroke: #8a2be2; stroke-width: 1.5; stroke-linecap: square"/>
   </g>
   <g id="patch_3">
    <path d="M 77.920625 506.16 
L 77.920625 7.2 
" style="fill: none; stroke: #000000; stroke-width: 0.8; stroke-linejoin: miter; stroke-linecap: square"/>
   </g>
   <g id="patch_4">
    <path d="M 747.520625 506.16 
L 747.520625 7.2 
" style="fill: none; stroke: #000000; stroke-width: 0.8; stroke-linejoin: miter; stroke-linecap: square"/>
   </g>
   <g id="patch_5">
    <path d="M 77.920625 506.16 
L 747.520625 506.16 
" style="fill: none; stroke: #000000; stroke-width: 0.8; stroke-linejoin: miter; stroke-linecap: square"/>
   </g>
   <g id="patch_6">
    <path d="M 77.920625 7.2 
L 747.520625 7.2 
" style="fill: none; stroke: #000000; stroke-width: 0.8; stroke-linejoin: miter; stroke-linecap: square"/>
   </g>
   <g id="legend_1">
    <g id="patch_7">
     <path d="M 500.358125 497.16 
L 734.920625 497.16 
Q 738.520625 497.16 738.520625 493.56 
L 738.520625 416.098125 
Q 738.520625 412.498125 734.920625 412.498125 
L 500.358125 412.498125 
Q 496.758125 412.498125 496.758125 416.098125 
L 496.758125 493.56 
Q 496.758125 497.16 500.358125 497.16 
z
" style="fill: #ffffff; opacity: 0.8; stroke: #cccccc; stroke-linejoin: miter"/>
    </g>
    <g id="line2d_66">
     <path d="M 503.958125 427.075313 
L 521.958125 427.075313 
L 539.958125 427.075313 
" style="fill: none; stroke: #ff0000; stroke-width: 1.5; stroke-linecap: square"/>
    </g>
    <g id="text_13">
     <!-- Hybrid-MBTL (Ours) -->
     <g transform="translate(554.358125 433.375313) scale(0.18 -0.18)">
      <defs>
       <path id="DejaVuSans-48" d="M 628 4666 
L 1259 4666 
L 1259 2753 
L 3553 2753 
L 3553 4666 
L 4184 4666 
L 4184 0 
L 3553 0 
L 3553 2222 
L 1259 2222 
L 1259 0 
L 628 0 
L 628 4666 
z
" transform="scale(0.015625)"/>
       <path id="DejaVuSans-79" d="M 2059 -325 
Q 1816 -950 1584 -1140 
Q 1353 -1331 966 -1331 
L 506 -1331 
L 506 -850 
L 844 -850 
Q 1081 -850 1212 -737 
Q 1344 -625 1503 -206 
L 1606 56 
L 191 3500 
L 800 3500 
L 1894 763 
L 2988 3500 
L 3597 3500 
L 2059 -325 
z
" transform="scale(0.015625)"/>
       <path id="DejaVuSans-62" d="M 3116 1747 
Q 3116 2381 2855 2742 
Q 2594 3103 2138 3103 
Q 1681 3103 1420 2742 
Q 1159 2381 1159 1747 
Q 1159 1113 1420 752 
Q 1681 391 2138 391 
Q 2594 391 2855 752 
Q 3116 1113 3116 1747 
z
M 1159 2969 
Q 1341 3281 1617 3432 
Q 1894 3584 2278 3584 
Q 2916 3584 3314 3078 
Q 3713 2572 3713 1747 
Q 3713 922 3314 415 
Q 2916 -91 2278 -91 
Q 1894 -91 1617 61 
Q 1341 213 1159 525 
L 1159 0 
L 581 0 
L 581 4863 
L 1159 4863 
L 1159 2969 
z
" transform="scale(0.015625)"/>
       <path id="DejaVuSans-72" d="M 2631 2963 
Q 2534 3019 2420 3045 
Q 2306 3072 2169 3072 
Q 1681 3072 1420 2755 
Q 1159 2438 1159 1844 
L 1159 0 
L 581 0 
L 581 3500 
L 1159 3500 
L 1159 2956 
Q 1341 3275 1631 3429 
Q 1922 3584 2338 3584 
Q 2397 3584 2469 3576 
Q 2541 3569 2628 3553 
L 2631 2963 
z
" transform="scale(0.015625)"/>
       <path id="DejaVuSans-2d" d="M 313 2009 
L 1997 2009 
L 1997 1497 
L 313 1497 
L 313 2009 
z
" transform="scale(0.015625)"/>
       <path id="DejaVuSans-4d" d="M 628 4666 
L 1569 4666 
L 2759 1491 
L 3956 4666 
L 4897 4666 
L 4897 0 
L 4281 0 
L 4281 4097 
L 3078 897 
L 2444 897 
L 1241 4097 
L 1241 0 
L 628 0 
L 628 4666 
z
" transform="scale(0.015625)"/>
       <path id="DejaVuSans-42" d="M 1259 2228 
L 1259 519 
L 2272 519 
Q 2781 519 3026 730 
Q 3272 941 3272 1375 
Q 3272 1813 3026 2020 
Q 2781 2228 2272 2228 
L 1259 2228 
z
M 1259 4147 
L 1259 2741 
L 2194 2741 
Q 2656 2741 2882 2914 
Q 3109 3088 3109 3444 
Q 3109 3797 2882 3972 
Q 2656 4147 2194 4147 
L 1259 4147 
z
M 628 4666 
L 2241 4666 
Q 2963 4666 3353 4366 
Q 3744 4066 3744 3513 
Q 3744 3084 3544 2831 
Q 3344 2578 2956 2516 
Q 3422 2416 3680 2098 
Q 3938 1781 3938 1306 
Q 3938 681 3513 340 
Q 3088 0 2303 0 
L 628 0 
L 628 4666 
z
" transform="scale(0.015625)"/>
       <path id="DejaVuSans-54" d="M -19 4666 
L 3928 4666 
L 3928 4134 
L 2272 4134 
L 2272 0 
L 1638 0 
L 1638 4134 
L -19 4134 
L -19 4666 
z
" transform="scale(0.015625)"/>
       <path id="DejaVuSans-4c" d="M 628 4666 
L 1259 4666 
L 1259 531 
L 3531 531 
L 3531 0 
L 628 0 
L 628 4666 
z
" transform="scale(0.015625)"/>
       <path id="DejaVuSans-28" d="M 1984 4856 
Q 1566 4138 1362 3434 
Q 1159 2731 1159 2009 
Q 1159 1288 1364 580 
Q 1569 -128 1984 -844 
L 1484 -844 
Q 1016 -109 783 600 
Q 550 1309 550 2009 
Q 550 2706 781 3412 
Q 1013 4119 1484 4856 
L 1984 4856 
z
" transform="scale(0.015625)"/>
       <path id="DejaVuSans-4f" d="M 2522 4238 
Q 1834 4238 1429 3725 
Q 1025 3213 1025 2328 
Q 1025 1447 1429 934 
Q 1834 422 2522 422 
Q 3209 422 3611 934 
Q 4013 1447 4013 2328 
Q 4013 3213 3611 3725 
Q 3209 4238 2522 4238 
z
M 2522 4750 
Q 3503 4750 4090 4092 
Q 4678 3434 4678 2328 
Q 4678 1225 4090 567 
Q 3503 -91 2522 -91 
Q 1538 -91 948 565 
Q 359 1222 359 2328 
Q 359 3434 948 4092 
Q 1538 4750 2522 4750 
z
" transform="scale(0.015625)"/>
       <path id="DejaVuSans-29" d="M 513 4856 
L 1013 4856 
Q 1481 4119 1714 3412 
Q 1947 2706 1947 2009 
Q 1947 1309 1714 600 
Q 1481 -109 1013 -844 
L 513 -844 
Q 928 -128 1133 580 
Q 1338 1288 1338 2009 
Q 1338 2731 1133 3434 
Q 928 4138 513 4856 
z
" transform="scale(0.015625)"/>
      </defs>
      <use xlink:href="#DejaVuSans-48"/>
      <use xlink:href="#DejaVuSans-79" x="75.195312"/>
      <use xlink:href="#DejaVuSans-62" x="134.375"/>
      <use xlink:href="#DejaVuSans-72" x="197.851562"/>
      <use xlink:href="#DejaVuSans-69" x="238.964844"/>
      <use xlink:href="#DejaVuSans-64" x="266.748047"/>
      <use xlink:href="#DejaVuSans-2d" x="330.224609"/>
      <use xlink:href="#DejaVuSans-4d" x="366.308594"/>
      <use xlink:href="#DejaVuSans-42" x="452.587891"/>
      <use xlink:href="#DejaVuSans-54" x="521.191406"/>
      <use xlink:href="#DejaVuSans-4c" x="582.275391"/>
      <use xlink:href="#DejaVuSans-20" x="637.988281"/>
      <use xlink:href="#DejaVuSans-28" x="669.775391"/>
      <use xlink:href="#DejaVuSans-4f" x="708.789062"/>
      <use xlink:href="#DejaVuSans-75" x="787.5"/>
      <use xlink:href="#DejaVuSans-72" x="850.878906"/>
      <use xlink:href="#DejaVuSans-73" x="891.992188"/>
      <use xlink:href="#DejaVuSans-29" x="944.091797"/>
     </g>
    </g>
    <g id="line2d_67">
     <path d="M 503.958125 453.495938 
L 521.958125 453.495938 
L 539.958125 453.495938 
" style="fill: none; stroke: #ff7f50; stroke-width: 1.5; stroke-linecap: square"/>
    </g>
    <g id="text_14">
     <!-- SC-MBTL (Ours) -->
     <g transform="translate(554.358125 459.795938) scale(0.18 -0.18)">
      <defs>
       <path id="DejaVuSans-53" d="M 3425 4513 
L 3425 3897 
Q 3066 4069 2747 4153 
Q 2428 4238 2131 4238 
Q 1616 4238 1336 4038 
Q 1056 3838 1056 3469 
Q 1056 3159 1242 3001 
Q 1428 2844 1947 2747 
L 2328 2669 
Q 3034 2534 3370 2195 
Q 3706 1856 3706 1288 
Q 3706 609 3251 259 
Q 2797 -91 1919 -91 
Q 1588 -91 1214 -16 
Q 841 59 441 206 
L 441 856 
Q 825 641 1194 531 
Q 1563 422 1919 422 
Q 2459 422 2753 634 
Q 3047 847 3047 1241 
Q 3047 1584 2836 1778 
Q 2625 1972 2144 2069 
L 1759 2144 
Q 1053 2284 737 2584 
Q 422 2884 422 3419 
Q 422 4038 858 4394 
Q 1294 4750 2059 4750 
Q 2388 4750 2728 4690 
Q 3069 4631 3425 4513 
z
" transform="scale(0.015625)"/>
       <path id="DejaVuSans-43" d="M 4122 4306 
L 4122 3641 
Q 3803 3938 3442 4084 
Q 3081 4231 2675 4231 
Q 1875 4231 1450 3742 
Q 1025 3253 1025 2328 
Q 1025 1406 1450 917 
Q 1875 428 2675 428 
Q 3081 428 3442 575 
Q 3803 722 4122 1019 
L 4122 359 
Q 3791 134 3420 21 
Q 3050 -91 2638 -91 
Q 1578 -91 968 557 
Q 359 1206 359 2328 
Q 359 3453 968 4101 
Q 1578 4750 2638 4750 
Q 3056 4750 3426 4639 
Q 3797 4528 4122 4306 
z
" transform="scale(0.015625)"/>
      </defs>
      <use xlink:href="#DejaVuSans-53"/>
      <use xlink:href="#DejaVuSans-43" x="63.476562"/>
      <use xlink:href="#DejaVuSans-2d" x="133.300781"/>
      <use xlink:href="#DejaVuSans-4d" x="169.384766"/>
      <use xlink:href="#DejaVuSans-42" x="255.664062"/>
      <use xlink:href="#DejaVuSans-54" x="324.267578"/>
      <use xlink:href="#DejaVuSans-4c" x="385.351562"/>
      <use xlink:href="#DejaVuSans-20" x="441.064453"/>
      <use xlink:href="#DejaVuSans-28" x="472.851562"/>
      <use xlink:href="#DejaVuSans-4f" x="511.865234"/>
      <use xlink:href="#DejaVuSans-75" x="590.576172"/>
      <use xlink:href="#DejaVuSans-72" x="653.955078"/>
      <use xlink:href="#DejaVuSans-73" x="695.068359"/>
      <use xlink:href="#DejaVuSans-29" x="747.167969"/>
     </g>
    </g>
    <g id="line2d_68">
     <path d="M 503.958125 479.916563 
L 521.958125 479.916563 
L 539.958125 479.916563 
" style="fill: none; stroke: #8a2be2; stroke-width: 1.5; stroke-linecap: square"/>
    </g>
    <g id="text_15">
     <!-- GP-MBTL -->
     <g transform="translate(554.358125 486.216563) scale(0.18 -0.18)">
      <defs>
       <path id="DejaVuSans-47" d="M 3809 666 
L 3809 1919 
L 2778 1919 
L 2778 2438 
L 4434 2438 
L 4434 434 
Q 4069 175 3628 42 
Q 3188 -91 2688 -91 
Q 1594 -91 976 548 
Q 359 1188 359 2328 
Q 359 3472 976 4111 
Q 1594 4750 2688 4750 
Q 3144 4750 3555 4637 
Q 3966 4525 4313 4306 
L 4313 3634 
Q 3963 3931 3569 4081 
Q 3175 4231 2741 4231 
Q 1884 4231 1454 3753 
Q 1025 3275 1025 2328 
Q 1025 1384 1454 906 
Q 1884 428 2741 428 
Q 3075 428 3337 486 
Q 3600 544 3809 666 
z
" transform="scale(0.015625)"/>
       <path id="DejaVuSans-50" d="M 1259 4147 
L 1259 2394 
L 2053 2394 
Q 2494 2394 2734 2622 
Q 2975 2850 2975 3272 
Q 2975 3691 2734 3919 
Q 2494 4147 2053 4147 
L 1259 4147 
z
M 628 4666 
L 2053 4666 
Q 2838 4666 3239 4311 
Q 3641 3956 3641 3272 
Q 3641 2581 3239 2228 
Q 2838 1875 2053 1875 
L 1259 1875 
L 1259 0 
L 628 0 
L 628 4666 
z
" transform="scale(0.015625)"/>
      </defs>
      <use xlink:href="#DejaVuSans-47"/>
      <use xlink:href="#DejaVuSans-50" x="77.490234"/>
      <use xlink:href="#DejaVuSans-2d" x="135.542969"/>
      <use xlink:href="#DejaVuSans-4d" x="171.626953"/>
      <use xlink:href="#DejaVuSans-42" x="257.90625"/>
      <use xlink:href="#DejaVuSans-54" x="326.509766"/>
      <use xlink:href="#DejaVuSans-4c" x="387.59375"/>
     </g>
    </g>
   </g>
  </g>
 </g>
 <defs>
  <clipPath id="pd55e55b88c">
   <rect x="77.920625" y="7.2" width="669.6" height="498.96"/>
  </clipPath>
 </defs>
</svg>
