<?xml version="1.0" encoding="utf-8" standalone="no"?>
<!DOCTYPE svg PUBLIC "-//W3C//DTD SVG 1.1//EN"
  "http://www.w3.org/Graphics/SVG/1.1/DTD/svg11.dtd">
<svg xmlns:xlink="http://www.w3.org/1999/xlink" width="754.720625pt" height="559.20125pt" viewBox="0 0 754.720625 559.20125" xmlns="http://www.w3.org/2000/svg" version="1.1">
 <metadata>
  <rdf:RDF xmlns:dc="http://purl.org/dc/elements/1.1/" xmlns:cc="http://creativecommons.org/ns#" xmlns:rdf="http://www.w3.org/1999/02/22-rdf-syntax-ns#">
   <cc:Work>
    <dc:type rdf:resource="http://purl.org/dc/dcmitype/StillImage"/>
    <dc:date>2025-02-26T08:54:55.782517</dc:date>
    <dc:format>image/svg+xml</dc:format>
    <dc:creator>
     <cc:Agent>
      <dc:title>Matplotlib v3.9.4, https://matplotlib.org/</dc:title>
     </cc:Agent>
    </dc:creator>
   </cc:Work>
  </rdf:RDF>
 </metadata>
 <defs>
  <style type="text/css">*{stroke-linejoin: round; stroke-linecap: butt}</style>
 </defs>
 <g id="figure_1">
  <g id="patch_1">
   <path d="M 0 559.20125 
L 754.720625 559.20125 
L 754.720625 0 
L 0 0 
z
" style="fill: #ffffff"/>
  </g>
  <g id="axes_1">
   <g id="patch_2">
    <path d="M 77.920625 506.16 
L 747.520625 506.16 
L 747.520625 7.2 
L 77.920625 7.2 
z
" style="fill: #ffffff"/>
   </g>
   <g id="PolyCollection_1">
    <defs>
     <path id="m1061fcf08b" d="M 108.356989 -79.13822 
L 108.356989 -75.72125 
L 111.188278 -223.889685 
L 114.019568 -255.703499 
L 116.850858 -272.176678 
L 119.682147 -282.880828 
L 122.513437 -303.713834 
L 125.344726 -317.326689 
L 128.176016 -328.606488 
L 131.007306 -337.620429 
L 133.838595 -344.18319 
L 136.669885 -350.273688 
L 139.501175 -355.583431 
L 142.332464 -359.695861 
L 145.163754 -363.691383 
L 147.995044 -367.964354 
L 150.826333 -371.253126 
L 153.657623 -373.810575 
L 156.488913 -376.389286 
L 159.320202 -378.58061 
L 162.151492 -380.562248 
L 164.982781 -382.477722 
L 167.814071 -384.291848 
L 170.645361 -385.921586 
L 173.47665 -387.421545 
L 176.30794 -388.879983 
L 179.13923 -390.271094 
L 181.970519 -391.510543 
L 184.801809 -392.748527 
L 187.633099 -393.943039 
L 190.464388 -395.044994 
L 193.295678 -396.074142 
L 196.126967 -397.103387 
L 198.958257 -398.114836 
L 201.789547 -399.041949 
L 204.620836 -399.966214 
L 207.452126 -400.880511 
L 210.283416 -401.843487 
L 213.114705 -402.824127 
L 215.945995 -403.666764 
L 218.777285 -404.468695 
L 221.608574 -405.329541 
L 224.439864 -406.158277 
L 227.271154 -406.96039 
L 230.102443 -407.817003 
L 232.933733 -408.527111 
L 235.765022 -409.29686 
L 238.596312 -410.086036 
L 241.427602 -410.873939 
L 244.258891 -411.654787 
L 247.090181 -412.660494 
L 249.921471 -413.728914 
L 252.75276 -414.822173 
L 255.58405 -415.848295 
L 258.41534 -416.758639 
L 261.246629 -417.657166 
L 264.077919 -418.556039 
L 266.909209 -419.423633 
L 269.740498 -420.283808 
L 272.571788 -421.10643 
L 275.403077 -421.890627 
L 278.234367 -422.692668 
L 281.065657 -423.51193 
L 283.896946 -424.341325 
L 286.728236 -425.112561 
L 289.559526 -425.80418 
L 292.390815 -426.513512 
L 295.222105 -427.248787 
L 298.053395 -427.95125 
L 300.884684 -428.607005 
L 303.715974 -429.241457 
L 306.547263 -429.915074 
L 309.378553 -430.542852 
L 312.209843 -431.194043 
L 315.041132 -431.817132 
L 317.872422 -432.615775 
L 320.703712 -433.42664 
L 323.535001 -434.179485 
L 326.366291 -434.879587 
L 329.197581 -435.615306 
L 332.02887 -436.330861 
L 334.86016 -436.997273 
L 337.69145 -437.687327 
L 340.522739 -438.338874 
L 343.354029 -438.9434 
L 346.185318 -439.589797 
L 349.016608 -440.187681 
L 351.847898 -440.823274 
L 354.679187 -441.455161 
L 357.510477 -442.064213 
L 360.341767 -442.652125 
L 363.173056 -443.261533 
L 366.004346 -443.827564 
L 368.835636 -444.408575 
L 371.666925 -445.010189 
L 374.498215 -445.563274 
L 377.329504 -446.115014 
L 380.160794 -446.650595 
L 382.992084 -447.164095 
L 385.823373 -447.6927 
L 388.654663 -448.295072 
L 391.485953 -448.933028 
L 394.317242 -449.519533 
L 397.148532 -450.129296 
L 399.979822 -450.713984 
L 402.811111 -451.298296 
L 405.642401 -451.877153 
L 408.473691 -452.456189 
L 411.30498 -452.995365 
L 414.13627 -453.547517 
L 416.967559 -454.10927 
L 419.798849 -454.666951 
L 422.630139 -455.196122 
L 425.461428 -455.728736 
L 428.292718 -456.259757 
L 431.124008 -456.78384 
L 433.955297 -457.309768 
L 436.786587 -457.823489 
L 439.617877 -458.344054 
L 442.449166 -458.823353 
L 445.280456 -459.305115 
L 448.111746 -459.790532 
L 450.943035 -460.267642 
L 453.774325 -460.739971 
L 456.605614 -461.293771 
L 459.436904 -461.828504 
L 462.268194 -462.367136 
L 465.099483 -462.872008 
L 467.930773 -463.681709 
L 470.762063 -464.433047 
L 473.593352 -465.121127 
L 476.424642 -465.808913 
L 479.255932 -466.491872 
L 482.087221 -467.157677 
L 484.918511 -467.817358 
L 487.7498 -468.46686 
L 490.58109 -469.090405 
L 493.41238 -469.700455 
L 496.243669 -470.298338 
L 499.074959 -470.895662 
L 501.906249 -471.504382 
L 504.737538 -472.075139 
L 507.568828 -472.631414 
L 510.400118 -473.178064 
L 513.231407 -473.755534 
L 516.062697 -474.313078 
L 518.893987 -474.84605 
L 521.725276 -475.355198 
L 524.556566 -475.856494 
L 527.387855 -476.441325 
L 530.219145 -476.978979 
L 533.050435 -477.65613 
L 535.881724 -478.390041 
L 538.713014 -479.109962 
L 541.544304 -479.814569 
L 544.375593 -480.493755 
L 547.206883 -481.151571 
L 550.038173 -481.839836 
L 552.869462 -482.463672 
L 555.700752 -483.088889 
L 558.532041 -483.753693 
L 561.363331 -484.73473 
L 564.194621 -485.678508 
L 567.02591 -486.632688 
L 569.8572 -487.261007 
L 572.68849 -487.893755 
L 575.519779 -488.463096 
L 578.351069 -489.028873 
L 581.182359 -489.613859 
L 584.013648 -490.192779 
L 586.844938 -490.8275 
L 589.676228 -491.384629 
L 592.507517 -491.951062 
L 595.338807 -492.506613 
L 598.170096 -493.083774 
L 601.001386 -493.668654 
L 603.832676 -494.237639 
L 606.663965 -494.815108 
L 609.495255 -495.372658 
L 612.326545 -495.907083 
L 615.157834 -496.460183 
L 617.989124 -496.963225 
L 620.820414 -497.518542 
L 623.651703 -498.044417 
L 626.482993 -498.574517 
L 629.314283 -499.125402 
L 632.145572 -499.689489 
L 634.976862 -500.21783 
L 637.808151 -500.711589 
L 640.639441 -501.196379 
L 643.470731 -501.671255 
L 646.30202 -502.156354 
L 649.13331 -502.648026 
L 651.9646 -503.169885 
L 654.795889 -503.666019 
L 657.627179 -504.13621 
L 660.458469 -504.582659 
L 663.289758 -505.063622 
L 666.121048 -505.554512 
L 668.952337 -506.040438 
L 671.783627 -506.484847 
L 674.614917 -506.963986 
L 677.446206 -507.427687 
L 680.277496 -507.888181 
L 683.108786 -508.327416 
L 685.940075 -508.778759 
L 688.771365 -509.20879 
L 691.602655 -509.639307 
L 694.433944 -510.060652 
L 697.265234 -510.46643 
L 700.096524 -510.894878 
L 702.927813 -511.314107 
L 705.759103 -511.709293 
L 708.590392 -512.10241 
L 711.421682 -512.512089 
L 714.252972 -512.903965 
L 717.084261 -513.306926 
L 717.084261 -522.730067 
L 717.084261 -522.730067 
L 714.252972 -522.324201 
L 711.421682 -521.932426 
L 708.590392 -521.557947 
L 705.759103 -521.145791 
L 702.927813 -520.732207 
L 700.096524 -520.354032 
L 697.265234 -519.927226 
L 694.433944 -519.496646 
L 691.602655 -519.087527 
L 688.771365 -518.680395 
L 685.940075 -518.284781 
L 683.108786 -517.862068 
L 680.277496 -517.415469 
L 677.446206 -516.968325 
L 674.614917 -516.523031 
L 671.783627 -516.066902 
L 668.952337 -515.591825 
L 666.121048 -515.128404 
L 663.289758 -514.660849 
L 660.458469 -514.16511 
L 657.627179 -513.663963 
L 654.795889 -513.135088 
L 651.9646 -512.609652 
L 649.13331 -512.132653 
L 646.30202 -511.622817 
L 643.470731 -511.141175 
L 640.639441 -510.642537 
L 637.808151 -510.139304 
L 634.976862 -509.596988 
L 632.145572 -509.088231 
L 629.314283 -508.572926 
L 626.482993 -508.046563 
L 623.651703 -507.506112 
L 620.820414 -506.958658 
L 617.989124 -506.396102 
L 615.157834 -505.895696 
L 612.326545 -505.357342 
L 609.495255 -504.813961 
L 606.663965 -504.262249 
L 603.832676 -503.705529 
L 601.001386 -503.09585 
L 598.170096 -502.52671 
L 595.338807 -501.932399 
L 592.507517 -501.355114 
L 589.676228 -500.795489 
L 586.844938 -500.203599 
L 584.013648 -499.627078 
L 581.182359 -498.963469 
L 578.351069 -498.381783 
L 575.519779 -497.826083 
L 572.68849 -497.210557 
L 569.8572 -496.557231 
L 567.02591 -495.922678 
L 564.194621 -494.838726 
L 561.363331 -493.731893 
L 558.532041 -492.674142 
L 555.700752 -492.016349 
L 552.869462 -491.396556 
L 550.038173 -490.74036 
L 547.206883 -490.086694 
L 544.375593 -489.415047 
L 541.544304 -488.734569 
L 538.713014 -488.072996 
L 535.881724 -487.381503 
L 533.050435 -486.60785 
L 530.219145 -485.828956 
L 527.387855 -485.295778 
L 524.556566 -484.758531 
L 521.725276 -484.227816 
L 518.893987 -483.718564 
L 516.062697 -483.189805 
L 513.231407 -482.657113 
L 510.400118 -482.165407 
L 507.568828 -481.662448 
L 504.737538 -481.135471 
L 501.906249 -480.604662 
L 499.074959 -480.057346 
L 496.243669 -479.505079 
L 493.41238 -478.945699 
L 490.58109 -478.377905 
L 487.7498 -477.773109 
L 484.918511 -477.206285 
L 482.087221 -476.578556 
L 479.255932 -475.966546 
L 476.424642 -475.346348 
L 473.593352 -474.692269 
L 470.762063 -474.032526 
L 467.930773 -473.352098 
L 465.099483 -472.62138 
L 462.268194 -472.097393 
L 459.436904 -471.576255 
L 456.605614 -471.058128 
L 453.774325 -470.532485 
L 450.943035 -470.060549 
L 448.111746 -469.588997 
L 445.280456 -469.110285 
L 442.449166 -468.622975 
L 439.617877 -468.128171 
L 436.786587 -467.680936 
L 433.955297 -467.175044 
L 431.124008 -466.670191 
L 428.292718 -466.151765 
L 425.461428 -465.643657 
L 422.630139 -465.092983 
L 419.798849 -464.572806 
L 416.967559 -464.029714 
L 414.13627 -463.491012 
L 411.30498 -462.962477 
L 408.473691 -462.413976 
L 405.642401 -461.843918 
L 402.811111 -461.281546 
L 399.979822 -460.69064 
L 397.148532 -460.087814 
L 394.317242 -459.512534 
L 391.485953 -458.894174 
L 388.654663 -458.304036 
L 385.823373 -457.681576 
L 382.992084 -457.127045 
L 380.160794 -456.574576 
L 377.329504 -456.029525 
L 374.498215 -455.449164 
L 371.666925 -454.865416 
L 368.835636 -454.307633 
L 366.004346 -453.733104 
L 363.173056 -453.132385 
L 360.341767 -452.547854 
L 357.510477 -451.947513 
L 354.679187 -451.343629 
L 351.847898 -450.737904 
L 349.016608 -450.129525 
L 346.185318 -449.516366 
L 343.354029 -448.885759 
L 340.522739 -448.2456 
L 337.69145 -447.59824 
L 334.86016 -446.937829 
L 332.02887 -446.273942 
L 329.197581 -445.596648 
L 326.366291 -444.907461 
L 323.535001 -444.214024 
L 320.703712 -443.501944 
L 317.872422 -442.785968 
L 315.041132 -442.029499 
L 312.209843 -441.388141 
L 309.378553 -440.740139 
L 306.547263 -440.088282 
L 303.715974 -439.434193 
L 300.884684 -438.77009 
L 298.053395 -438.100061 
L 295.222105 -437.405164 
L 292.390815 -436.727995 
L 289.559526 -436.015178 
L 286.728236 -435.303324 
L 283.896946 -434.632917 
L 281.065657 -433.898478 
L 278.234367 -433.127298 
L 275.403077 -432.341693 
L 272.571788 -431.522177 
L 269.740498 -430.74322 
L 266.909209 -429.934421 
L 264.077919 -429.113323 
L 261.246629 -428.238906 
L 258.41534 -427.385405 
L 255.58405 -426.509305 
L 252.75276 -425.608167 
L 249.921471 -424.73303 
L 247.090181 -423.772643 
L 244.258891 -422.807607 
L 241.427602 -422.073811 
L 238.596312 -421.315579 
L 235.765022 -420.559737 
L 232.933733 -419.801739 
L 230.102443 -419.024966 
L 227.271154 -418.236997 
L 224.439864 -417.432306 
L 221.608574 -416.628003 
L 218.777285 -415.777043 
L 215.945995 -414.876562 
L 213.114705 -414.027299 
L 210.283416 -413.09356 
L 207.452126 -412.149384 
L 204.620836 -411.317791 
L 201.789547 -410.425969 
L 198.958257 -409.434658 
L 196.126967 -408.487718 
L 193.295678 -407.456823 
L 190.464388 -406.378241 
L 187.633099 -405.288691 
L 184.801809 -404.142606 
L 181.970519 -402.931598 
L 179.13923 -401.727766 
L 176.30794 -400.492165 
L 173.47665 -399.111798 
L 170.645361 -397.653118 
L 167.814071 -396.160628 
L 164.982781 -394.469451 
L 162.151492 -392.767905 
L 159.320202 -390.756824 
L 156.488913 -388.711133 
L 153.657623 -386.544803 
L 150.826333 -384.294436 
L 147.995044 -381.958642 
L 145.163754 -379.576525 
L 142.332464 -376.601274 
L 139.501175 -373.246086 
L 136.669885 -369.121736 
L 133.838595 -365.10008 
L 131.007306 -360.444978 
L 128.176016 -354.926718 
L 125.344726 -343.37356 
L 122.513437 -331.949567 
L 119.682147 -285.305867 
L 116.850858 -274.641974 
L 114.019568 -258.131483 
L 111.188278 -226.383623 
L 108.356989 -79.13822 
z
" style="stroke: #ff0000; stroke-opacity: 0.1"/>
    </defs>
    <g clip-path="url(#pfa048c6179)">
     <use xlink:href="#m1061fcf08b" x="0" y="559.20125" style="fill: #ff0000; fill-opacity: 0.1; stroke: #ff0000; stroke-opacity: 0.1"/>
    </g>
   </g>
   <g id="PolyCollection_2">
    <path d="M 108.356989 425.81477 
L 108.356989 86615.588364 
L 111.188278 258.31032 
L 114.019568 252.098371 
L 116.850858 247.022642 
L 119.682147 242.869416 
L 122.513437 239.086212 
L 125.344726 235.163967 
L 128.176016 232.961409 
L 131.007306 230.970506 
L 133.838595 229.46408 
L 136.669885 227.749399 
L 139.501175 226.44493 
L 142.332464 225.01844 
L 145.163754 223.789112 
L 147.995044 222.639339 
L 150.826333 221.054125 
L 153.657623 220.060172 
L 156.488913 219.390692 
L 159.320202 218.472039 
L 162.151492 217.727114 
L 164.982781 216.92618 
L 167.814071 216.02892 
L 170.645361 215.489195 
L 173.47665 215.013621 
L 176.30794 214.49871 
L 179.13923 214.111282 
L 181.970519 213.610837 
L 184.801809 212.97024 
L 187.633099 212.215845 
L 190.464388 211.753749 
L 193.295678 211.310263 
L 196.126967 210.525146 
L 198.958257 210.009342 
L 201.789547 209.415195 
L 204.620836 208.958759 
L 207.452126 208.63468 
L 210.283416 208.30476 
L 213.114705 207.797553 
L 215.945995 207.359464 
L 218.777285 207.024794 
L 221.608574 206.56057 
L 224.439864 206.069645 
L 227.271154 205.831227 
L 230.102443 205.383339 
L 232.933733 205.112179 
L 235.765022 204.817167 
L 238.596312 204.492553 
L 241.427602 204.024997 
L 244.258891 203.661415 
L 247.090181 203.465039 
L 249.921471 203.054315 
L 252.75276 202.68176 
L 255.58405 202.425168 
L 258.41534 202.151118 
L 261.246629 201.943868 
L 264.077919 201.533352 
L 266.909209 201.211655 
L 269.740498 200.944068 
L 272.571788 200.852203 
L 275.403077 200.743008 
L 278.234367 200.632378 
L 281.065657 200.510036 
L 283.896946 200.380707 
L 286.728236 200.184189 
L 289.559526 200.058515 
L 292.390815 199.931978 
L 295.222105 199.775226 
L 298.053395 199.590934 
L 300.884684 199.426662 
L 303.715974 199.301926 
L 306.547263 199.132332 
L 309.378553 199.008056 
L 312.209843 198.877323 
L 315.041132 198.767527 
L 317.872422 198.641716 
L 320.703712 198.493457 
L 323.535001 198.364091 
L 326.366291 198.2042 
L 329.197581 198.089675 
L 332.02887 197.896099 
L 334.86016 197.699796 
L 337.69145 197.524432 
L 340.522739 197.343661 
L 343.354029 197.146741 
L 346.185318 196.910279 
L 349.016608 196.740953 
L 351.847898 196.576354 
L 354.679187 196.475642 
L 357.510477 196.34101 
L 360.341767 196.187401 
L 363.173056 196.035589 
L 366.004346 195.886125 
L 368.835636 195.730107 
L 371.666925 195.555125 
L 374.498215 195.394862 
L 377.329504 195.23636 
L 380.160794 195.098182 
L 382.992084 194.955121 
L 385.823373 194.780048 
L 388.654663 194.621849 
L 391.485953 194.464499 
L 394.317242 194.268663 
L 397.148532 194.144764 
L 399.979822 194.002653 
L 402.811111 193.866555 
L 405.642401 193.70545 
L 408.473691 193.546444 
L 411.30498 193.367271 
L 414.13627 193.184891 
L 416.967559 193.018745 
L 419.798849 192.840565 
L 422.630139 192.621754 
L 425.461428 192.419415 
L 428.292718 192.225196 
L 431.124008 192.081065 
L 433.955297 191.94398 
L 436.786587 191.781804 
L 439.617877 191.604728 
L 442.449166 191.464533 
L 445.280456 191.286081 
L 448.111746 191.107105 
L 450.943035 190.922515 
L 453.774325 190.713002 
L 456.605614 190.547229 
L 459.436904 190.388671 
L 462.268194 190.169329 
L 465.099483 189.985402 
L 467.930773 189.682385 
L 470.762063 189.557097 
L 473.593352 189.412419 
L 476.424642 189.296325 
L 479.255932 189.159658 
L 482.087221 189.007449 
L 484.918511 188.844023 
L 487.7498 188.724772 
L 490.58109 188.527736 
L 493.41238 188.367396 
L 496.243669 188.190904 
L 499.074959 188.0128 
L 501.906249 187.85503 
L 504.737538 187.715153 
L 507.568828 187.556276 
L 510.400118 187.380644 
L 513.231407 187.183383 
L 516.062697 186.99831 
L 518.893987 186.857529 
L 521.725276 186.679185 
L 524.556566 186.519785 
L 527.387855 186.362558 
L 530.219145 186.226353 
L 533.050435 186.06867 
L 535.881724 185.92933 
L 538.713014 185.792663 
L 541.544304 185.615626 
L 544.375593 185.433595 
L 547.206883 185.27731 
L 550.038173 185.116907 
L 552.869462 184.976834 
L 555.700752 184.815696 
L 558.532041 184.636458 
L 561.363331 184.477776 
L 564.194621 184.297162 
L 567.02591 184.118495 
L 569.8572 183.956774 
L 572.68849 183.773797 
L 575.519779 183.634238 
L 578.351069 183.450677 
L 581.182359 183.310229 
L 584.013648 183.190301 
L 586.844938 182.991803 
L 589.676228 182.8535 
L 592.507517 182.692588 
L 595.338807 182.553135 
L 598.170096 182.332769 
L 601.001386 182.173792 
L 603.832676 181.969882 
L 606.663965 181.788184 
L 609.495255 181.651201 
L 612.326545 181.512403 
L 615.157834 181.352052 
L 617.989124 181.213068 
L 620.820414 181.052106 
L 623.651703 180.871647 
L 626.482993 180.688399 
L 629.314283 180.532148 
L 632.145572 180.371506 
L 634.976862 180.190848 
L 637.808151 180.010019 
L 640.639441 179.846185 
L 643.470731 179.644209 
L 646.30202 179.421583 
L 649.13331 179.219755 
L 651.9646 179.058841 
L 654.795889 178.878944 
L 657.627179 178.720175 
L 660.458469 178.582226 
L 663.289758 178.485256 
L 666.121048 178.368803 
L 668.952337 178.207977 
L 671.783627 178.050469 
L 674.614917 177.870355 
L 677.446206 177.692807 
L 680.277496 177.554542 
L 683.108786 177.374975 
L 685.940075 177.236991 
L 688.771365 177.078265 
L 691.602655 176.854086 
L 694.433944 176.673645 
L 697.265234 176.495843 
L 700.096524 176.297416 
L 702.927813 176.120682 
L 705.759103 175.942262 
L 708.590392 175.766576 
L 711.421682 175.609899 
L 714.252972 175.433325 
L 717.084261 175.257855 
L 717.084261 173.233687 
L 717.084261 173.233687 
L 714.252972 173.406412 
L 711.421682 173.580018 
L 708.590392 173.734202 
L 705.759103 173.907037 
L 702.927813 174.08299 
L 700.096524 174.256795 
L 697.265234 174.451725 
L 694.433944 174.626881 
L 691.602655 174.804114 
L 688.771365 175.023994 
L 685.940075 175.179913 
L 683.108786 175.315257 
L 680.277496 175.491897 
L 677.446206 175.627505 
L 674.614917 175.801196 
L 671.783627 175.978312 
L 668.952337 176.133138 
L 666.121048 176.291032 
L 663.289758 176.405648 
L 660.458469 176.501095 
L 657.627179 176.636832 
L 654.795889 176.792912 
L 651.9646 176.969587 
L 649.13331 177.127453 
L 646.30202 177.32479 
L 643.470731 177.542411 
L 640.639441 177.739527 
L 637.808151 177.899796 
L 634.976862 178.076329 
L 632.145572 178.252327 
L 629.314283 178.409402 
L 626.482993 178.562785 
L 623.651703 178.742223 
L 620.820414 178.919157 
L 617.989124 179.077049 
L 615.157834 179.21443 
L 612.326545 179.372162 
L 609.495255 179.509276 
L 606.663965 179.643797 
L 603.832676 179.821731 
L 601.001386 180.021209 
L 598.170096 180.176815 
L 595.338807 180.393394 
L 592.507517 180.530773 
L 589.676228 180.689172 
L 586.844938 180.825328 
L 584.013648 181.019538 
L 581.182359 181.137125 
L 578.351069 181.275135 
L 575.519779 181.455105 
L 572.68849 181.592106 
L 569.8572 181.77163 
L 567.02591 181.930611 
L 564.194621 182.105959 
L 561.363331 182.283258 
L 558.532041 182.438465 
L 555.700752 182.614008 
L 552.869462 182.772092 
L 550.038173 182.908882 
L 547.206883 183.065913 
L 544.375593 183.218796 
L 541.544304 183.39636 
L 538.713014 183.569498 
L 535.881724 183.703062 
L 533.050435 183.839372 
L 530.219145 183.99364 
L 527.387855 184.126815 
L 524.556566 184.280565 
L 521.725276 184.436833 
L 518.893987 184.610605 
L 516.062697 184.74862 
L 513.231407 184.929318 
L 510.400118 185.122696 
L 507.568828 185.294304 
L 504.737538 185.449569 
L 501.906249 185.586323 
L 499.074959 185.740626 
L 496.243669 185.914349 
L 493.41238 186.086771 
L 490.58109 186.243494 
L 487.7498 186.436112 
L 484.918511 186.552607 
L 482.087221 186.712127 
L 479.255932 186.861153 
L 476.424642 186.995041 
L 473.593352 187.108494 
L 470.762063 187.249608 
L 467.930773 187.371914 
L 465.099483 187.667295 
L 462.268194 187.847052 
L 459.436904 188.061117 
L 456.605614 188.215803 
L 453.774325 188.377691 
L 450.943035 188.581908 
L 448.111746 188.761875 
L 445.280456 188.935629 
L 442.449166 189.109523 
L 439.617877 189.246536 
L 436.786587 189.419052 
L 433.955297 189.577454 
L 431.124008 189.711559 
L 428.292718 189.852325 
L 425.461428 190.041898 
L 422.630139 190.238343 
L 419.798849 190.45047 
L 416.967559 190.62346 
L 414.13627 190.785049 
L 411.30498 190.96273 
L 408.473691 191.137269 
L 405.642401 191.292398 
L 402.811111 191.449669 
L 399.979822 191.582134 
L 397.148532 191.719997 
L 394.317242 191.840756 
L 391.485953 192.031508 
L 388.654663 192.184946 
L 385.823373 192.339007 
L 382.992084 192.509827 
L 380.160794 192.648584 
L 377.329504 192.782964 
L 374.498215 192.937604 
L 371.666925 193.093577 
L 368.835636 193.264057 
L 366.004346 193.415585 
L 363.173056 193.561212 
L 360.341767 193.709491 
L 357.510477 193.859507 
L 354.679187 193.991812 
L 351.847898 194.09029 
L 349.016608 194.251634 
L 346.185318 194.417392 
L 343.354029 194.649186 
L 340.522739 194.842347 
L 337.69145 195.018884 
L 334.86016 195.189322 
L 332.02887 195.380263 
L 329.197581 195.56808 
L 326.366291 195.67923 
L 323.535001 195.834369 
L 320.703712 195.959695 
L 317.872422 196.103717 
L 315.041132 196.225399 
L 312.209843 196.331906 
L 309.378553 196.458179 
L 306.547263 196.579238 
L 303.715974 196.744301 
L 300.884684 196.865668 
L 298.053395 197.025111 
L 295.222105 197.20515 
L 292.390815 197.358191 
L 289.559526 197.481513 
L 286.728236 197.604029 
L 283.896946 197.79673 
L 281.065657 197.923085 
L 278.234367 198.042815 
L 275.403077 198.15063 
L 272.571788 198.256751 
L 269.740498 198.347174 
L 266.909209 198.608266 
L 264.077919 198.92154 
L 261.246629 199.320328 
L 258.41534 199.521959 
L 255.58405 199.788953 
L 252.75276 200.03822 
L 249.921471 200.399552 
L 247.090181 200.798844 
L 244.258891 200.988969 
L 241.427602 201.341591 
L 238.596312 201.795513 
L 235.765022 202.111586 
L 232.933733 202.397976 
L 230.102443 202.660182 
L 227.271154 203.09309 
L 224.439864 203.324083 
L 221.608574 203.797455 
L 218.777285 204.244332 
L 215.945995 204.569458 
L 213.114705 204.994689 
L 210.283416 205.48563 
L 207.452126 205.804858 
L 204.620836 206.119802 
L 201.789547 206.563022 
L 198.958257 207.14026 
L 196.126967 207.640774 
L 193.295678 208.399184 
L 190.464388 208.825831 
L 187.633099 209.270501 
L 184.801809 209.995699 
L 181.970519 210.609223 
L 179.13923 211.089676 
L 176.30794 211.461243 
L 173.47665 211.953629 
L 170.645361 212.406557 
L 167.814071 212.920571 
L 164.982781 213.778469 
L 162.151492 214.545253 
L 159.320202 215.256673 
L 156.488913 216.130048 
L 153.657623 216.76268 
L 150.826333 217.699033 
L 147.995044 219.189584 
L 145.163754 220.267985 
L 142.332464 221.416837 
L 139.501175 222.748567 
L 136.669885 223.964338 
L 133.838595 225.552812 
L 131.007306 226.940095 
L 128.176016 228.765028 
L 125.344726 230.766666 
L 122.513437 234.290974 
L 119.682147 237.648413 
L 116.850858 241.299651 
L 114.019568 245.678521 
L 111.188278 250.789211 
L 108.356989 425.81477 
z
" clip-path="url(#pfa048c6179)" style="fill: #ff7f50; fill-opacity: 0.1; stroke: #ff7f50; stroke-opacity: 0.1"/>
   </g>
   <g id="PolyCollection_3">
    <defs>
     <path id="m960dc09501" d="M 108.356989 -312.40794 
L 108.356989 -305.91589 
L 111.188278 -322.72242 
L 114.019568 -339.284348 
L 116.850858 -345.906067 
L 119.682147 -351.330842 
L 122.513437 -355.87465 
L 125.344726 -359.749985 
L 128.176016 -363.758148 
L 131.007306 -367.04528 
L 133.838595 -370.214223 
L 136.669885 -373.023537 
L 139.501175 -375.714144 
L 142.332464 -378.215929 
L 145.163754 -380.561951 
L 147.995044 -382.707977 
L 150.826333 -384.674698 
L 153.657623 -386.515164 
L 156.488913 -388.296818 
L 159.320202 -390.05596 
L 162.151492 -391.732486 
L 164.982781 -393.235464 
L 167.814071 -394.627207 
L 170.645361 -395.996547 
L 173.47665 -397.248504 
L 176.30794 -398.472323 
L 179.13923 -399.642672 
L 181.970519 -400.751062 
L 184.801809 -401.87423 
L 187.633099 -402.943131 
L 190.464388 -403.912718 
L 193.295678 -404.903415 
L 196.126967 -405.842404 
L 198.958257 -406.71872 
L 201.789547 -407.59876 
L 204.620836 -408.47409 
L 207.452126 -409.318072 
L 210.283416 -410.175562 
L 213.114705 -410.952346 
L 215.945995 -411.748045 
L 218.777285 -412.505362 
L 221.608574 -413.258098 
L 224.439864 -413.971162 
L 227.271154 -414.679994 
L 230.102443 -415.381313 
L 232.933733 -416.05077 
L 235.765022 -416.774781 
L 238.596312 -417.478663 
L 241.427602 -418.135607 
L 244.258891 -418.753076 
L 247.090181 -419.361916 
L 249.921471 -420.283394 
L 252.75276 -421.195238 
L 255.58405 -422.045451 
L 258.41534 -422.854211 
L 261.246629 -423.671739 
L 264.077919 -424.456293 
L 266.909209 -425.198505 
L 269.740498 -425.96876 
L 272.571788 -426.768877 
L 275.403077 -427.544725 
L 278.234367 -428.289444 
L 281.065657 -428.979686 
L 283.896946 -429.723396 
L 286.728236 -430.392735 
L 289.559526 -431.076928 
L 292.390815 -431.741547 
L 295.222105 -432.385242 
L 298.053395 -433.013501 
L 300.884684 -433.653812 
L 303.715974 -434.272005 
L 306.547263 -434.877906 
L 309.378553 -435.460939 
L 312.209843 -436.061464 
L 315.041132 -436.646589 
L 317.872422 -437.253482 
L 320.703712 -437.953279 
L 323.535001 -438.629348 
L 326.366291 -439.296989 
L 329.197581 -439.951179 
L 332.02887 -440.606535 
L 334.86016 -441.259715 
L 337.69145 -441.888912 
L 340.522739 -442.503603 
L 343.354029 -443.066803 
L 346.185318 -443.659983 
L 349.016608 -444.219319 
L 351.847898 -444.827166 
L 354.679187 -445.397844 
L 357.510477 -445.976194 
L 360.341767 -446.547227 
L 363.173056 -447.116292 
L 366.004346 -447.666192 
L 368.835636 -448.201001 
L 371.666925 -448.733192 
L 374.498215 -449.235494 
L 377.329504 -449.746962 
L 380.160794 -450.256802 
L 382.992084 -450.752384 
L 385.823373 -451.237217 
L 388.654663 -451.718443 
L 391.485953 -452.287601 
L 394.317242 -452.888627 
L 397.148532 -453.452653 
L 399.979822 -453.963272 
L 402.811111 -454.506041 
L 405.642401 -455.032776 
L 408.473691 -455.549538 
L 411.30498 -456.055843 
L 414.13627 -456.567574 
L 416.967559 -457.068721 
L 419.798849 -457.560947 
L 422.630139 -458.049105 
L 425.461428 -458.538318 
L 428.292718 -459.001505 
L 431.124008 -459.455118 
L 433.955297 -459.90851 
L 436.786587 -460.373352 
L 439.617877 -460.835624 
L 442.449166 -461.308294 
L 445.280456 -461.751134 
L 448.111746 -462.203432 
L 450.943035 -462.617656 
L 453.774325 -463.047898 
L 456.605614 -463.48665 
L 459.436904 -463.96139 
L 462.268194 -464.433338 
L 465.099483 -464.902341 
L 467.930773 -465.590305 
L 470.762063 -466.267888 
L 473.593352 -466.907447 
L 476.424642 -467.549211 
L 479.255932 -468.145566 
L 482.087221 -468.781202 
L 484.918511 -469.361667 
L 487.7498 -469.909161 
L 490.58109 -470.511299 
L 493.41238 -471.048792 
L 496.243669 -471.593091 
L 499.074959 -472.138637 
L 501.906249 -472.679355 
L 504.737538 -473.20669 
L 507.568828 -473.734496 
L 510.400118 -474.243778 
L 513.231407 -474.774164 
L 516.062697 -475.296664 
L 518.893987 -475.795023 
L 521.725276 -476.305532 
L 524.556566 -476.79304 
L 527.387855 -477.274751 
L 530.219145 -477.806461 
L 533.050435 -478.530963 
L 535.881724 -479.186213 
L 538.713014 -479.881708 
L 541.544304 -480.536593 
L 544.375593 -481.156684 
L 547.206883 -481.795739 
L 550.038173 -482.366459 
L 552.869462 -482.95505 
L 555.700752 -483.564167 
L 558.532041 -484.206454 
L 561.363331 -485.119017 
L 564.194621 -486.082154 
L 567.02591 -486.919623 
L 569.8572 -487.504419 
L 572.68849 -488.082573 
L 575.519779 -488.640125 
L 578.351069 -489.211007 
L 581.182359 -489.719185 
L 584.013648 -490.326053 
L 586.844938 -490.889756 
L 589.676228 -491.468642 
L 592.507517 -492.056813 
L 595.338807 -492.638771 
L 598.170096 -493.123386 
L 601.001386 -493.632166 
L 603.832676 -494.164289 
L 606.663965 -494.69337 
L 609.495255 -495.240315 
L 612.326545 -495.766587 
L 615.157834 -496.298534 
L 617.989124 -496.814315 
L 620.820414 -497.292261 
L 623.651703 -497.779515 
L 626.482993 -498.318366 
L 629.314283 -498.786874 
L 632.145572 -499.260661 
L 634.976862 -499.721799 
L 637.808151 -500.167939 
L 640.639441 -500.656125 
L 643.470731 -501.107866 
L 646.30202 -501.564614 
L 649.13331 -502.061066 
L 651.9646 -502.546069 
L 654.795889 -503.009159 
L 657.627179 -503.474548 
L 660.458469 -503.92916 
L 663.289758 -504.366781 
L 666.121048 -504.791667 
L 668.952337 -505.251742 
L 671.783627 -505.704641 
L 674.614917 -506.135131 
L 677.446206 -506.553732 
L 680.277496 -506.986005 
L 683.108786 -507.435558 
L 685.940075 -507.849129 
L 688.771365 -508.248614 
L 691.602655 -508.661291 
L 694.433944 -509.085369 
L 697.265234 -509.483899 
L 700.096524 -509.86732 
L 702.927813 -510.244339 
L 705.759103 -510.607185 
L 708.590392 -511.006829 
L 711.421682 -511.403116 
L 714.252972 -511.747886 
L 717.084261 -512.116229 
L 717.084261 -529.32125 
L 717.084261 -529.32125 
L 714.252972 -528.887735 
L 711.421682 -528.440531 
L 708.590392 -527.998007 
L 705.759103 -527.585822 
L 702.927813 -527.144565 
L 700.096524 -526.697418 
L 697.265234 -526.237695 
L 694.433944 -525.773375 
L 691.602655 -525.327042 
L 688.771365 -524.882999 
L 685.940075 -524.423802 
L 683.108786 -523.951979 
L 680.277496 -523.480083 
L 677.446206 -523.034054 
L 674.614917 -522.544547 
L 671.783627 -522.025171 
L 668.952337 -521.512598 
L 666.121048 -521.002205 
L 663.289758 -520.485756 
L 660.458469 -520.002416 
L 657.627179 -519.484816 
L 654.795889 -518.956258 
L 651.9646 -518.427928 
L 649.13331 -517.907575 
L 646.30202 -517.372662 
L 643.470731 -516.893585 
L 640.639441 -516.369699 
L 637.808151 -515.870921 
L 634.976862 -515.336152 
L 632.145572 -514.752721 
L 629.314283 -514.198515 
L 626.482993 -513.657396 
L 623.651703 -513.072833 
L 620.820414 -512.484362 
L 617.989124 -511.871634 
L 615.157834 -511.338501 
L 612.326545 -510.776632 
L 609.495255 -510.215922 
L 606.663965 -509.663861 
L 603.832676 -509.084568 
L 601.001386 -508.499066 
L 598.170096 -507.9019 
L 595.338807 -507.287529 
L 592.507517 -506.708904 
L 589.676228 -506.095597 
L 586.844938 -505.472571 
L 584.013648 -504.805164 
L 581.182359 -504.162145 
L 578.351069 -503.546815 
L 575.519779 -502.922733 
L 572.68849 -502.324407 
L 569.8572 -501.701707 
L 567.02591 -501.048226 
L 564.194621 -499.903326 
L 561.363331 -498.773672 
L 558.532041 -497.599128 
L 555.700752 -496.912401 
L 552.869462 -496.269869 
L 550.038173 -495.603073 
L 547.206883 -494.916204 
L 544.375593 -494.228058 
L 541.544304 -493.531659 
L 538.713014 -492.858479 
L 535.881724 -492.157298 
L 533.050435 -491.383646 
L 530.219145 -490.638631 
L 527.387855 -490.115178 
L 524.556566 -489.63519 
L 521.725276 -489.129853 
L 518.893987 -488.636583 
L 516.062697 -488.122615 
L 513.231407 -487.609056 
L 510.400118 -487.118772 
L 507.568828 -486.614343 
L 504.737538 -486.08996 
L 501.906249 -485.562942 
L 499.074959 -485.001565 
L 496.243669 -484.440944 
L 493.41238 -483.860156 
L 490.58109 -483.244231 
L 487.7498 -482.643218 
L 484.918511 -482.03847 
L 482.087221 -481.435623 
L 479.255932 -480.788078 
L 476.424642 -480.150506 
L 473.593352 -479.51095 
L 470.762063 -478.872421 
L 467.930773 -478.187861 
L 465.099483 -477.475051 
L 462.268194 -476.935915 
L 459.436904 -476.407893 
L 456.605614 -475.869563 
L 453.774325 -475.386977 
L 450.943035 -474.897106 
L 448.111746 -474.404048 
L 445.280456 -473.905675 
L 442.449166 -473.426279 
L 439.617877 -472.901219 
L 436.786587 -472.390869 
L 433.955297 -471.865863 
L 431.124008 -471.349297 
L 428.292718 -470.818761 
L 425.461428 -470.281773 
L 422.630139 -469.75466 
L 419.798849 -469.20782 
L 416.967559 -468.671905 
L 414.13627 -468.127951 
L 411.30498 -467.576691 
L 408.473691 -467.012773 
L 405.642401 -466.461614 
L 402.811111 -465.898167 
L 399.979822 -465.336715 
L 397.148532 -464.758669 
L 394.317242 -464.162924 
L 391.485953 -463.580649 
L 388.654663 -462.973132 
L 385.823373 -462.447184 
L 382.992084 -461.907024 
L 380.160794 -461.352479 
L 377.329504 -460.800321 
L 374.498215 -460.224569 
L 371.666925 -459.63595 
L 368.835636 -459.047515 
L 366.004346 -458.47032 
L 363.173056 -457.879302 
L 360.341767 -457.272596 
L 357.510477 -456.655508 
L 354.679187 -456.04821 
L 351.847898 -455.437133 
L 349.016608 -454.800969 
L 346.185318 -454.173732 
L 343.354029 -453.524018 
L 340.522739 -452.8793 
L 337.69145 -452.211684 
L 334.86016 -451.561066 
L 332.02887 -450.898225 
L 329.197581 -450.227544 
L 326.366291 -449.527467 
L 323.535001 -448.807903 
L 320.703712 -448.07441 
L 317.872422 -447.347886 
L 315.041132 -446.712106 
L 312.209843 -446.055533 
L 309.378553 -445.408472 
L 306.547263 -444.743704 
L 303.715974 -444.128504 
L 300.884684 -443.471262 
L 298.053395 -442.771834 
L 295.222105 -442.086113 
L 292.390815 -441.396356 
L 289.559526 -440.689814 
L 286.728236 -439.989814 
L 283.896946 -439.280118 
L 281.065657 -438.510457 
L 278.234367 -437.750444 
L 275.403077 -437.009908 
L 272.571788 -436.230809 
L 269.740498 -435.462937 
L 266.909209 -434.66716 
L 264.077919 -433.877588 
L 261.246629 -433.036971 
L 258.41534 -432.191882 
L 255.58405 -431.334091 
L 252.75276 -430.465241 
L 249.921471 -429.571159 
L 247.090181 -428.64983 
L 244.258891 -427.962871 
L 241.427602 -427.275164 
L 238.596312 -426.530381 
L 235.765022 -425.707693 
L 232.933733 -424.915438 
L 230.102443 -424.146791 
L 227.271154 -423.413929 
L 224.439864 -422.646381 
L 221.608574 -421.892167 
L 218.777285 -421.110074 
L 215.945995 -420.309687 
L 213.114705 -419.46653 
L 210.283416 -418.657992 
L 207.452126 -417.827901 
L 204.620836 -416.994911 
L 201.789547 -416.157467 
L 198.958257 -415.309314 
L 196.126967 -414.480876 
L 193.295678 -413.603881 
L 190.464388 -412.734325 
L 187.633099 -411.877623 
L 184.801809 -410.958228 
L 181.970519 -409.909416 
L 179.13923 -408.842192 
L 176.30794 -407.771084 
L 173.47665 -406.657899 
L 170.645361 -405.542834 
L 167.814071 -404.302615 
L 164.982781 -403.097057 
L 162.151492 -401.839862 
L 159.320202 -400.470194 
L 156.488913 -398.988149 
L 153.657623 -397.400161 
L 150.826333 -395.916928 
L 147.995044 -394.236812 
L 145.163754 -392.470289 
L 142.332464 -390.681219 
L 139.501175 -388.809999 
L 136.669885 -386.791776 
L 133.838595 -384.7341 
L 131.007306 -382.446732 
L 128.176016 -380.068006 
L 125.344726 -377.485135 
L 122.513437 -374.865701 
L 119.682147 -372.001955 
L 116.850858 -365.870814 
L 114.019568 -358.282138 
L 111.188278 -343.981708 
L 108.356989 -312.40794 
z
" style="stroke: #8a2be2; stroke-opacity: 0.1"/>
    </defs>
    <g clip-path="url(#pfa048c6179)">
     <use xlink:href="#m960dc09501" x="0" y="559.20125" style="fill: #8a2be2; fill-opacity: 0.1; stroke: #8a2be2; stroke-opacity: 0.1"/>
    </g>
   </g>
   <g id="matplotlib.axis_1">
    <g id="xtick_1">
     <g id="line2d_1">
      <path d="M 105.525699 506.16 
L 105.525699 7.2 
" clip-path="url(#pfa048c6179)" style="fill: none; stroke-dasharray: 1.85,0.8; stroke-dashoffset: 0; stroke: #b0b0b0; stroke-width: 0.5"/>
     </g>
     <g id="line2d_2">
      <defs>
       <path id="mef7e932462" d="M 0 0 
L 0 3.5 
" style="stroke: #000000; stroke-width: 0.8"/>
      </defs>
      <g>
       <use xlink:href="#mef7e932462" x="105.525699" y="506.16" style="stroke: #000000; stroke-width: 0.8"/>
      </g>
     </g>
     <g id="text_1">
      <!-- 0 -->
      <g transform="translate(99.799449 526.837188) scale(0.18 -0.18)">
       <defs>
        <path id="DejaVuSans-30" d="M 2034 4250 
Q 1547 4250 1301 3770 
Q 1056 3291 1056 2328 
Q 1056 1369 1301 889 
Q 1547 409 2034 409 
Q 2525 409 2770 889 
Q 3016 1369 3016 2328 
Q 3016 3291 2770 3770 
Q 2525 4250 2034 4250 
z
M 2034 4750 
Q 2819 4750 3233 4129 
Q 3647 3509 3647 2328 
Q 3647 1150 3233 529 
Q 2819 -91 2034 -91 
Q 1250 -91 836 529 
Q 422 1150 422 2328 
Q 422 3509 836 4129 
Q 1250 4750 2034 4750 
z
" transform="scale(0.015625)"/>
       </defs>
       <use xlink:href="#DejaVuSans-30"/>
      </g>
     </g>
    </g>
    <g id="xtick_2">
     <g id="line2d_3">
      <path d="M 247.090181 506.16 
L 247.090181 7.2 
" clip-path="url(#pfa048c6179)" style="fill: none; stroke-dasharray: 1.85,0.8; stroke-dashoffset: 0; stroke: #b0b0b0; stroke-width: 0.5"/>
     </g>
     <g id="line2d_4">
      <g>
       <use xlink:href="#mef7e932462" x="247.090181" y="506.16" style="stroke: #000000; stroke-width: 0.8"/>
      </g>
     </g>
     <g id="text_2">
      <!-- 50 -->
      <g transform="translate(235.637681 526.837188) scale(0.18 -0.18)">
       <defs>
        <path id="DejaVuSans-35" d="M 691 4666 
L 3169 4666 
L 3169 4134 
L 1269 4134 
L 1269 2991 
Q 1406 3038 1543 3061 
Q 1681 3084 1819 3084 
Q 2600 3084 3056 2656 
Q 3513 2228 3513 1497 
Q 3513 744 3044 326 
Q 2575 -91 1722 -91 
Q 1428 -91 1123 -41 
Q 819 9 494 109 
L 494 744 
Q 775 591 1075 516 
Q 1375 441 1709 441 
Q 2250 441 2565 725 
Q 2881 1009 2881 1497 
Q 2881 1984 2565 2268 
Q 2250 2553 1709 2553 
Q 1456 2553 1204 2497 
Q 953 2441 691 2322 
L 691 4666 
z
" transform="scale(0.015625)"/>
       </defs>
       <use xlink:href="#DejaVuSans-35"/>
       <use xlink:href="#DejaVuSans-30" x="63.623047"/>
      </g>
     </g>
    </g>
    <g id="xtick_3">
     <g id="line2d_5">
      <path d="M 388.654663 506.16 
L 388.654663 7.2 
" clip-path="url(#pfa048c6179)" style="fill: none; stroke-dasharray: 1.85,0.8; stroke-dashoffset: 0; stroke: #b0b0b0; stroke-width: 0.5"/>
     </g>
     <g id="line2d_6">
      <g>
       <use xlink:href="#mef7e932462" x="388.654663" y="506.16" style="stroke: #000000; stroke-width: 0.8"/>
      </g>
     </g>
     <g id="text_3">
      <!-- 100 -->
      <g transform="translate(371.475913 526.837188) scale(0.18 -0.18)">
       <defs>
        <path id="DejaVuSans-31" d="M 794 531 
L 1825 531 
L 1825 4091 
L 703 3866 
L 703 4441 
L 1819 4666 
L 2450 4666 
L 2450 531 
L 3481 531 
L 3481 0 
L 794 0 
L 794 531 
z
" transform="scale(0.015625)"/>
       </defs>
       <use xlink:href="#DejaVuSans-31"/>
       <use xlink:href="#DejaVuSans-30" x="63.623047"/>
       <use xlink:href="#DejaVuSans-30" x="127.246094"/>
      </g>
     </g>
    </g>
    <g id="xtick_4">
     <g id="line2d_7">
      <path d="M 530.219145 506.16 
L 530.219145 7.2 
" clip-path="url(#pfa048c6179)" style="fill: none; stroke-dasharray: 1.85,0.8; stroke-dashoffset: 0; stroke: #b0b0b0; stroke-width: 0.5"/>
     </g>
     <g id="line2d_8">
      <g>
       <use xlink:href="#mef7e932462" x="530.219145" y="506.16" style="stroke: #000000; stroke-width: 0.8"/>
      </g>
     </g>
     <g id="text_4">
      <!-- 150 -->
      <g transform="translate(513.040395 526.837188) scale(0.18 -0.18)">
       <use xlink:href="#DejaVuSans-31"/>
       <use xlink:href="#DejaVuSans-35" x="63.623047"/>
       <use xlink:href="#DejaVuSans-30" x="127.246094"/>
      </g>
     </g>
    </g>
    <g id="xtick_5">
     <g id="line2d_9">
      <path d="M 671.783627 506.16 
L 671.783627 7.2 
" clip-path="url(#pfa048c6179)" style="fill: none; stroke-dasharray: 1.85,0.8; stroke-dashoffset: 0; stroke: #b0b0b0; stroke-width: 0.5"/>
     </g>
     <g id="line2d_10">
      <g>
       <use xlink:href="#mef7e932462" x="671.783627" y="506.16" style="stroke: #000000; stroke-width: 0.8"/>
      </g>
     </g>
     <g id="text_5">
      <!-- 200 -->
      <g transform="translate(654.604877 526.837188) scale(0.18 -0.18)">
       <defs>
        <path id="DejaVuSans-32" d="M 1228 531 
L 3431 531 
L 3431 0 
L 469 0 
L 469 531 
Q 828 903 1448 1529 
Q 2069 2156 2228 2338 
Q 2531 2678 2651 2914 
Q 2772 3150 2772 3378 
Q 2772 3750 2511 3984 
Q 2250 4219 1831 4219 
Q 1534 4219 1204 4116 
Q 875 4013 500 3803 
L 500 4441 
Q 881 4594 1212 4672 
Q 1544 4750 1819 4750 
Q 2544 4750 2975 4387 
Q 3406 4025 3406 3419 
Q 3406 3131 3298 2873 
Q 3191 2616 2906 2266 
Q 2828 2175 2409 1742 
Q 1991 1309 1228 531 
z
" transform="scale(0.015625)"/>
       </defs>
       <use xlink:href="#DejaVuSans-32"/>
       <use xlink:href="#DejaVuSans-30" x="63.623047"/>
       <use xlink:href="#DejaVuSans-30" x="127.246094"/>
      </g>
     </g>
    </g>
    <g id="text_6">
     <!-- Decision Round -->
     <g transform="translate(343.067656 548.257813) scale(0.18 -0.18)">
      <defs>
       <path id="DejaVuSans-44" d="M 1259 4147 
L 1259 519 
L 2022 519 
Q 2988 519 3436 956 
Q 3884 1394 3884 2338 
Q 3884 3275 3436 3711 
Q 2988 4147 2022 4147 
L 1259 4147 
z
M 628 4666 
L 1925 4666 
Q 3281 4666 3915 4102 
Q 4550 3538 4550 2338 
Q 4550 1131 3912 565 
Q 3275 0 1925 0 
L 628 0 
L 628 4666 
z
" transform="scale(0.015625)"/>
       <path id="DejaVuSans-65" d="M 3597 1894 
L 3597 1613 
L 953 1613 
Q 991 1019 1311 708 
Q 1631 397 2203 397 
Q 2534 397 2845 478 
Q 3156 559 3463 722 
L 3463 178 
Q 3153 47 2828 -22 
Q 2503 -91 2169 -91 
Q 1331 -91 842 396 
Q 353 884 353 1716 
Q 353 2575 817 3079 
Q 1281 3584 2069 3584 
Q 2775 3584 3186 3129 
Q 3597 2675 3597 1894 
z
M 3022 2063 
Q 3016 2534 2758 2815 
Q 2500 3097 2075 3097 
Q 1594 3097 1305 2825 
Q 1016 2553 972 2059 
L 3022 2063 
z
" transform="scale(0.015625)"/>
       <path id="DejaVuSans-63" d="M 3122 3366 
L 3122 2828 
Q 2878 2963 2633 3030 
Q 2388 3097 2138 3097 
Q 1578 3097 1268 2742 
Q 959 2388 959 1747 
Q 959 1106 1268 751 
Q 1578 397 2138 397 
Q 2388 397 2633 464 
Q 2878 531 3122 666 
L 3122 134 
Q 2881 22 2623 -34 
Q 2366 -91 2075 -91 
Q 1284 -91 818 406 
Q 353 903 353 1747 
Q 353 2603 823 3093 
Q 1294 3584 2113 3584 
Q 2378 3584 2631 3529 
Q 2884 3475 3122 3366 
z
" transform="scale(0.015625)"/>
       <path id="DejaVuSans-69" d="M 603 3500 
L 1178 3500 
L 1178 0 
L 603 0 
L 603 3500 
z
M 603 4863 
L 1178 4863 
L 1178 4134 
L 603 4134 
L 603 4863 
z
" transform="scale(0.015625)"/>
       <path id="DejaVuSans-73" d="M 2834 3397 
L 2834 2853 
Q 2591 2978 2328 3040 
Q 2066 3103 1784 3103 
Q 1356 3103 1142 2972 
Q 928 2841 928 2578 
Q 928 2378 1081 2264 
Q 1234 2150 1697 2047 
L 1894 2003 
Q 2506 1872 2764 1633 
Q 3022 1394 3022 966 
Q 3022 478 2636 193 
Q 2250 -91 1575 -91 
Q 1294 -91 989 -36 
Q 684 19 347 128 
L 347 722 
Q 666 556 975 473 
Q 1284 391 1588 391 
Q 1994 391 2212 530 
Q 2431 669 2431 922 
Q 2431 1156 2273 1281 
Q 2116 1406 1581 1522 
L 1381 1569 
Q 847 1681 609 1914 
Q 372 2147 372 2553 
Q 372 3047 722 3315 
Q 1072 3584 1716 3584 
Q 2034 3584 2315 3537 
Q 2597 3491 2834 3397 
z
" transform="scale(0.015625)"/>
       <path id="DejaVuSans-6f" d="M 1959 3097 
Q 1497 3097 1228 2736 
Q 959 2375 959 1747 
Q 959 1119 1226 758 
Q 1494 397 1959 397 
Q 2419 397 2687 759 
Q 2956 1122 2956 1747 
Q 2956 2369 2687 2733 
Q 2419 3097 1959 3097 
z
M 1959 3584 
Q 2709 3584 3137 3096 
Q 3566 2609 3566 1747 
Q 3566 888 3137 398 
Q 2709 -91 1959 -91 
Q 1206 -91 779 398 
Q 353 888 353 1747 
Q 353 2609 779 3096 
Q 1206 3584 1959 3584 
z
" transform="scale(0.015625)"/>
       <path id="DejaVuSans-6e" d="M 3513 2113 
L 3513 0 
L 2938 0 
L 2938 2094 
Q 2938 2591 2744 2837 
Q 2550 3084 2163 3084 
Q 1697 3084 1428 2787 
Q 1159 2491 1159 1978 
L 1159 0 
L 581 0 
L 581 3500 
L 1159 3500 
L 1159 2956 
Q 1366 3272 1645 3428 
Q 1925 3584 2291 3584 
Q 2894 3584 3203 3211 
Q 3513 2838 3513 2113 
z
" transform="scale(0.015625)"/>
       <path id="DejaVuSans-20" transform="scale(0.015625)"/>
       <path id="DejaVuSans-52" d="M 2841 2188 
Q 3044 2119 3236 1894 
Q 3428 1669 3622 1275 
L 4263 0 
L 3584 0 
L 2988 1197 
Q 2756 1666 2539 1819 
Q 2322 1972 1947 1972 
L 1259 1972 
L 1259 0 
L 628 0 
L 628 4666 
L 2053 4666 
Q 2853 4666 3247 4331 
Q 3641 3997 3641 3322 
Q 3641 2881 3436 2590 
Q 3231 2300 2841 2188 
z
M 1259 4147 
L 1259 2491 
L 2053 2491 
Q 2509 2491 2742 2702 
Q 2975 2913 2975 3322 
Q 2975 3731 2742 3939 
Q 2509 4147 2053 4147 
L 1259 4147 
z
" transform="scale(0.015625)"/>
       <path id="DejaVuSans-75" d="M 544 1381 
L 544 3500 
L 1119 3500 
L 1119 1403 
Q 1119 906 1312 657 
Q 1506 409 1894 409 
Q 2359 409 2629 706 
Q 2900 1003 2900 1516 
L 2900 3500 
L 3475 3500 
L 3475 0 
L 2900 0 
L 2900 538 
Q 2691 219 2414 64 
Q 2138 -91 1772 -91 
Q 1169 -91 856 284 
Q 544 659 544 1381 
z
M 1991 3584 
L 1991 3584 
z
" transform="scale(0.015625)"/>
       <path id="DejaVuSans-64" d="M 2906 2969 
L 2906 4863 
L 3481 4863 
L 3481 0 
L 2906 0 
L 2906 525 
Q 2725 213 2448 61 
Q 2172 -91 1784 -91 
Q 1150 -91 751 415 
Q 353 922 353 1747 
Q 353 2572 751 3078 
Q 1150 3584 1784 3584 
Q 2172 3584 2448 3432 
Q 2725 3281 2906 2969 
z
M 947 1747 
Q 947 1113 1208 752 
Q 1469 391 1925 391 
Q 2381 391 2643 752 
Q 2906 1113 2906 1747 
Q 2906 2381 2643 2742 
Q 2381 3103 1925 3103 
Q 1469 3103 1208 2742 
Q 947 2381 947 1747 
z
" transform="scale(0.015625)"/>
      </defs>
      <use xlink:href="#DejaVuSans-44"/>
      <use xlink:href="#DejaVuSans-65" x="77.001953"/>
      <use xlink:href="#DejaVuSans-63" x="138.525391"/>
      <use xlink:href="#DejaVuSans-69" x="193.505859"/>
      <use xlink:href="#DejaVuSans-73" x="221.289062"/>
      <use xlink:href="#DejaVuSans-69" x="273.388672"/>
      <use xlink:href="#DejaVuSans-6f" x="301.171875"/>
      <use xlink:href="#DejaVuSans-6e" x="362.353516"/>
      <use xlink:href="#DejaVuSans-20" x="425.732422"/>
      <use xlink:href="#DejaVuSans-52" x="457.519531"/>
      <use xlink:href="#DejaVuSans-6f" x="522.501953"/>
      <use xlink:href="#DejaVuSans-75" x="583.683594"/>
      <use xlink:href="#DejaVuSans-6e" x="647.0625"/>
      <use xlink:href="#DejaVuSans-64" x="710.441406"/>
     </g>
    </g>
   </g>
   <g id="matplotlib.axis_2">
    <g id="ytick_1">
     <g id="line2d_11">
      <path d="M 77.920625 503.454424 
L 747.520625 503.454424 
" clip-path="url(#pfa048c6179)" style="fill: none; stroke-dasharray: 1.85,0.8; stroke-dashoffset: 0; stroke: #b0b0b0; stroke-width: 0.5"/>
     </g>
     <g id="line2d_12">
      <defs>
       <path id="mdf187617ce" d="M 0 0 
L -3.5 0 
" style="stroke: #000000; stroke-width: 0.8"/>
      </defs>
      <g>
       <use xlink:href="#mdf187617ce" x="77.920625" y="503.454424" style="stroke: #000000; stroke-width: 0.8"/>
      </g>
     </g>
     <g id="text_7">
      <!-- $\mathdefault{10^{-3}}$ -->
      <g transform="translate(28.620625 510.293018) scale(0.18 -0.18)">
       <defs>
        <path id="DejaVuSans-2212" d="M 678 2272 
L 4684 2272 
L 4684 1741 
L 678 1741 
L 678 2272 
z
" transform="scale(0.015625)"/>
        <path id="DejaVuSans-33" d="M 2597 2516 
Q 3050 2419 3304 2112 
Q 3559 1806 3559 1356 
Q 3559 666 3084 287 
Q 2609 -91 1734 -91 
Q 1441 -91 1130 -33 
Q 819 25 488 141 
L 488 750 
Q 750 597 1062 519 
Q 1375 441 1716 441 
Q 2309 441 2620 675 
Q 2931 909 2931 1356 
Q 2931 1769 2642 2001 
Q 2353 2234 1838 2234 
L 1294 2234 
L 1294 2753 
L 1863 2753 
Q 2328 2753 2575 2939 
Q 2822 3125 2822 3475 
Q 2822 3834 2567 4026 
Q 2313 4219 1838 4219 
Q 1578 4219 1281 4162 
Q 984 4106 628 3988 
L 628 4550 
Q 988 4650 1302 4700 
Q 1616 4750 1894 4750 
Q 2613 4750 3031 4423 
Q 3450 4097 3450 3541 
Q 3450 3153 3228 2886 
Q 3006 2619 2597 2516 
z
" transform="scale(0.015625)"/>
       </defs>
       <use xlink:href="#DejaVuSans-31" transform="translate(0 0.765625)"/>
       <use xlink:href="#DejaVuSans-30" transform="translate(63.623047 0.765625)"/>
       <use xlink:href="#DejaVuSans-2212" transform="translate(128.203125 39.046875) scale(0.7)"/>
       <use xlink:href="#DejaVuSans-33" transform="translate(186.855469 39.046875) scale(0.7)"/>
      </g>
     </g>
    </g>
    <g id="ytick_2">
     <g id="line2d_13">
      <path d="M 77.920625 417.083176 
L 747.520625 417.083176 
" clip-path="url(#pfa048c6179)" style="fill: none; stroke-dasharray: 1.85,0.8; stroke-dashoffset: 0; stroke: #b0b0b0; stroke-width: 0.5"/>
     </g>
     <g id="line2d_14">
      <g>
       <use xlink:href="#mdf187617ce" x="77.920625" y="417.083176" style="stroke: #000000; stroke-width: 0.8"/>
      </g>
     </g>
     <g id="text_8">
      <!-- $\mathdefault{10^{-2}}$ -->
      <g transform="translate(28.620625 423.92177) scale(0.18 -0.18)">
       <use xlink:href="#DejaVuSans-31" transform="translate(0 0.765625)"/>
       <use xlink:href="#DejaVuSans-30" transform="translate(63.623047 0.765625)"/>
       <use xlink:href="#DejaVuSans-2212" transform="translate(128.203125 39.046875) scale(0.7)"/>
       <use xlink:href="#DejaVuSans-32" transform="translate(186.855469 39.046875) scale(0.7)"/>
      </g>
     </g>
    </g>
    <g id="ytick_3">
     <g id="line2d_15">
      <path d="M 77.920625 330.711929 
L 747.520625 330.711929 
" clip-path="url(#pfa048c6179)" style="fill: none; stroke-dasharray: 1.85,0.8; stroke-dashoffset: 0; stroke: #b0b0b0; stroke-width: 0.5"/>
     </g>
     <g id="line2d_16">
      <g>
       <use xlink:href="#mdf187617ce" x="77.920625" y="330.711929" style="stroke: #000000; stroke-width: 0.8"/>
      </g>
     </g>
     <g id="text_9">
      <!-- $\mathdefault{10^{-1}}$ -->
      <g transform="translate(28.620625 337.550522) scale(0.18 -0.18)">
       <use xlink:href="#DejaVuSans-31" transform="translate(0 0.684375)"/>
       <use xlink:href="#DejaVuSans-30" transform="translate(63.623047 0.684375)"/>
       <use xlink:href="#DejaVuSans-2212" transform="translate(128.203125 38.965625) scale(0.7)"/>
       <use xlink:href="#DejaVuSans-31" transform="translate(186.855469 38.965625) scale(0.7)"/>
      </g>
     </g>
    </g>
    <g id="ytick_4">
     <g id="line2d_17">
      <path d="M 77.920625 244.340681 
L 747.520625 244.340681 
" clip-path="url(#pfa048c6179)" style="fill: none; stroke-dasharray: 1.85,0.8; stroke-dashoffset: 0; stroke: #b0b0b0; stroke-width: 0.5"/>
     </g>
     <g id="line2d_18">
      <g>
       <use xlink:href="#mdf187617ce" x="77.920625" y="244.340681" style="stroke: #000000; stroke-width: 0.8"/>
      </g>
     </g>
     <g id="text_10">
      <!-- $\mathdefault{10^{0}}$ -->
      <g transform="translate(39.240625 251.179275) scale(0.18 -0.18)">
       <use xlink:href="#DejaVuSans-31" transform="translate(0 0.765625)"/>
       <use xlink:href="#DejaVuSans-30" transform="translate(63.623047 0.765625)"/>
       <use xlink:href="#DejaVuSans-30" transform="translate(128.203125 39.046875) scale(0.7)"/>
      </g>
     </g>
    </g>
    <g id="ytick_5">
     <g id="line2d_19">
      <path d="M 77.920625 157.969433 
L 747.520625 157.969433 
" clip-path="url(#pfa048c6179)" style="fill: none; stroke-dasharray: 1.85,0.8; stroke-dashoffset: 0; stroke: #b0b0b0; stroke-width: 0.5"/>
     </g>
     <g id="line2d_20">
      <g>
       <use xlink:href="#mdf187617ce" x="77.920625" y="157.969433" style="stroke: #000000; stroke-width: 0.8"/>
      </g>
     </g>
     <g id="text_11">
      <!-- $\mathdefault{10^{1}}$ -->
      <g transform="translate(39.240625 164.808027) scale(0.18 -0.18)">
       <use xlink:href="#DejaVuSans-31" transform="translate(0 0.684375)"/>
       <use xlink:href="#DejaVuSans-30" transform="translate(63.623047 0.684375)"/>
       <use xlink:href="#DejaVuSans-31" transform="translate(128.203125 38.965625) scale(0.7)"/>
      </g>
     </g>
    </g>
    <g id="ytick_6">
     <g id="line2d_21">
      <path d="M 77.920625 71.598186 
L 747.520625 71.598186 
" clip-path="url(#pfa048c6179)" style="fill: none; stroke-dasharray: 1.85,0.8; stroke-dashoffset: 0; stroke: #b0b0b0; stroke-width: 0.5"/>
     </g>
     <g id="line2d_22">
      <g>
       <use xlink:href="#mdf187617ce" x="77.920625" y="71.598186" style="stroke: #000000; stroke-width: 0.8"/>
      </g>
     </g>
     <g id="text_12">
      <!-- $\mathdefault{10^{2}}$ -->
      <g transform="translate(39.240625 78.436779) scale(0.18 -0.18)">
       <use xlink:href="#DejaVuSans-31" transform="translate(0 0.765625)"/>
       <use xlink:href="#DejaVuSans-30" transform="translate(63.623047 0.765625)"/>
       <use xlink:href="#DejaVuSans-32" transform="translate(128.203125 39.046875) scale(0.7)"/>
      </g>
     </g>
    </g>
    <g id="ytick_7">
     <g id="line2d_23">
      <defs>
       <path id="m3889cb8282" d="M 0 0 
L -2 0 
" style="stroke: #000000; stroke-width: 0.6"/>
      </defs>
      <g>
       <use xlink:href="#m3889cb8282" x="77.920625" y="477.454088" style="stroke: #000000; stroke-width: 0.6"/>
      </g>
     </g>
    </g>
    <g id="ytick_8">
     <g id="line2d_24">
      <g>
       <use xlink:href="#m3889cb8282" x="77.920625" y="462.244866" style="stroke: #000000; stroke-width: 0.6"/>
      </g>
     </g>
    </g>
    <g id="ytick_9">
     <g id="line2d_25">
      <g>
       <use xlink:href="#m3889cb8282" x="77.920625" y="451.453751" style="stroke: #000000; stroke-width: 0.6"/>
      </g>
     </g>
    </g>
    <g id="ytick_10">
     <g id="line2d_26">
      <g>
       <use xlink:href="#m3889cb8282" x="77.920625" y="443.083513" style="stroke: #000000; stroke-width: 0.6"/>
      </g>
     </g>
    </g>
    <g id="ytick_11">
     <g id="line2d_27">
      <g>
       <use xlink:href="#m3889cb8282" x="77.920625" y="436.24453" style="stroke: #000000; stroke-width: 0.6"/>
      </g>
     </g>
    </g>
    <g id="ytick_12">
     <g id="line2d_28">
      <g>
       <use xlink:href="#m3889cb8282" x="77.920625" y="430.462252" style="stroke: #000000; stroke-width: 0.6"/>
      </g>
     </g>
    </g>
    <g id="ytick_13">
     <g id="line2d_29">
      <g>
       <use xlink:href="#m3889cb8282" x="77.920625" y="425.453415" style="stroke: #000000; stroke-width: 0.6"/>
      </g>
     </g>
    </g>
    <g id="ytick_14">
     <g id="line2d_30">
      <g>
       <use xlink:href="#m3889cb8282" x="77.920625" y="421.035308" style="stroke: #000000; stroke-width: 0.6"/>
      </g>
     </g>
    </g>
    <g id="ytick_15">
     <g id="line2d_31">
      <g>
       <use xlink:href="#m3889cb8282" x="77.920625" y="391.08284" style="stroke: #000000; stroke-width: 0.6"/>
      </g>
     </g>
    </g>
    <g id="ytick_16">
     <g id="line2d_32">
      <g>
       <use xlink:href="#m3889cb8282" x="77.920625" y="375.873618" style="stroke: #000000; stroke-width: 0.6"/>
      </g>
     </g>
    </g>
    <g id="ytick_17">
     <g id="line2d_33">
      <g>
       <use xlink:href="#m3889cb8282" x="77.920625" y="365.082504" style="stroke: #000000; stroke-width: 0.6"/>
      </g>
     </g>
    </g>
    <g id="ytick_18">
     <g id="line2d_34">
      <g>
       <use xlink:href="#m3889cb8282" x="77.920625" y="356.712265" style="stroke: #000000; stroke-width: 0.6"/>
      </g>
     </g>
    </g>
    <g id="ytick_19">
     <g id="line2d_35">
      <g>
       <use xlink:href="#m3889cb8282" x="77.920625" y="349.873282" style="stroke: #000000; stroke-width: 0.6"/>
      </g>
     </g>
    </g>
    <g id="ytick_20">
     <g id="line2d_36">
      <g>
       <use xlink:href="#m3889cb8282" x="77.920625" y="344.091004" style="stroke: #000000; stroke-width: 0.6"/>
      </g>
     </g>
    </g>
    <g id="ytick_21">
     <g id="line2d_37">
      <g>
       <use xlink:href="#m3889cb8282" x="77.920625" y="339.082167" style="stroke: #000000; stroke-width: 0.6"/>
      </g>
     </g>
    </g>
    <g id="ytick_22">
     <g id="line2d_38">
      <g>
       <use xlink:href="#m3889cb8282" x="77.920625" y="334.66406" style="stroke: #000000; stroke-width: 0.6"/>
      </g>
     </g>
    </g>
    <g id="ytick_23">
     <g id="line2d_39">
      <g>
       <use xlink:href="#m3889cb8282" x="77.920625" y="304.711592" style="stroke: #000000; stroke-width: 0.6"/>
      </g>
     </g>
    </g>
    <g id="ytick_24">
     <g id="line2d_40">
      <g>
       <use xlink:href="#m3889cb8282" x="77.920625" y="289.502371" style="stroke: #000000; stroke-width: 0.6"/>
      </g>
     </g>
    </g>
    <g id="ytick_25">
     <g id="line2d_41">
      <g>
       <use xlink:href="#m3889cb8282" x="77.920625" y="278.711256" style="stroke: #000000; stroke-width: 0.6"/>
      </g>
     </g>
    </g>
    <g id="ytick_26">
     <g id="line2d_42">
      <g>
       <use xlink:href="#m3889cb8282" x="77.920625" y="270.341017" style="stroke: #000000; stroke-width: 0.6"/>
      </g>
     </g>
    </g>
    <g id="ytick_27">
     <g id="line2d_43">
      <g>
       <use xlink:href="#m3889cb8282" x="77.920625" y="263.502034" style="stroke: #000000; stroke-width: 0.6"/>
      </g>
     </g>
    </g>
    <g id="ytick_28">
     <g id="line2d_44">
      <g>
       <use xlink:href="#m3889cb8282" x="77.920625" y="257.719757" style="stroke: #000000; stroke-width: 0.6"/>
      </g>
     </g>
    </g>
    <g id="ytick_29">
     <g id="line2d_45">
      <g>
       <use xlink:href="#m3889cb8282" x="77.920625" y="252.71092" style="stroke: #000000; stroke-width: 0.6"/>
      </g>
     </g>
    </g>
    <g id="ytick_30">
     <g id="line2d_46">
      <g>
       <use xlink:href="#m3889cb8282" x="77.920625" y="248.292813" style="stroke: #000000; stroke-width: 0.6"/>
      </g>
     </g>
    </g>
    <g id="ytick_31">
     <g id="line2d_47">
      <g>
       <use xlink:href="#m3889cb8282" x="77.920625" y="218.340345" style="stroke: #000000; stroke-width: 0.6"/>
      </g>
     </g>
    </g>
    <g id="ytick_32">
     <g id="line2d_48">
      <g>
       <use xlink:href="#m3889cb8282" x="77.920625" y="203.131123" style="stroke: #000000; stroke-width: 0.6"/>
      </g>
     </g>
    </g>
    <g id="ytick_33">
     <g id="line2d_49">
      <g>
       <use xlink:href="#m3889cb8282" x="77.920625" y="192.340008" style="stroke: #000000; stroke-width: 0.6"/>
      </g>
     </g>
    </g>
    <g id="ytick_34">
     <g id="line2d_50">
      <g>
       <use xlink:href="#m3889cb8282" x="77.920625" y="183.96977" style="stroke: #000000; stroke-width: 0.6"/>
      </g>
     </g>
    </g>
    <g id="ytick_35">
     <g id="line2d_51">
      <g>
       <use xlink:href="#m3889cb8282" x="77.920625" y="177.130787" style="stroke: #000000; stroke-width: 0.6"/>
      </g>
     </g>
    </g>
    <g id="ytick_36">
     <g id="line2d_52">
      <g>
       <use xlink:href="#m3889cb8282" x="77.920625" y="171.348509" style="stroke: #000000; stroke-width: 0.6"/>
      </g>
     </g>
    </g>
    <g id="ytick_37">
     <g id="line2d_53">
      <g>
       <use xlink:href="#m3889cb8282" x="77.920625" y="166.339672" style="stroke: #000000; stroke-width: 0.6"/>
      </g>
     </g>
    </g>
    <g id="ytick_38">
     <g id="line2d_54">
      <g>
       <use xlink:href="#m3889cb8282" x="77.920625" y="161.921565" style="stroke: #000000; stroke-width: 0.6"/>
      </g>
     </g>
    </g>
    <g id="ytick_39">
     <g id="line2d_55">
      <g>
       <use xlink:href="#m3889cb8282" x="77.920625" y="131.969097" style="stroke: #000000; stroke-width: 0.6"/>
      </g>
     </g>
    </g>
    <g id="ytick_40">
     <g id="line2d_56">
      <g>
       <use xlink:href="#m3889cb8282" x="77.920625" y="116.759875" style="stroke: #000000; stroke-width: 0.6"/>
      </g>
     </g>
    </g>
    <g id="ytick_41">
     <g id="line2d_57">
      <g>
       <use xlink:href="#m3889cb8282" x="77.920625" y="105.968761" style="stroke: #000000; stroke-width: 0.6"/>
      </g>
     </g>
    </g>
    <g id="ytick_42">
     <g id="line2d_58">
      <g>
       <use xlink:href="#m3889cb8282" x="77.920625" y="97.598522" style="stroke: #000000; stroke-width: 0.6"/>
      </g>
     </g>
    </g>
    <g id="ytick_43">
     <g id="line2d_59">
      <g>
       <use xlink:href="#m3889cb8282" x="77.920625" y="90.759539" style="stroke: #000000; stroke-width: 0.6"/>
      </g>
     </g>
    </g>
    <g id="ytick_44">
     <g id="line2d_60">
      <g>
       <use xlink:href="#m3889cb8282" x="77.920625" y="84.977261" style="stroke: #000000; stroke-width: 0.6"/>
      </g>
     </g>
    </g>
    <g id="ytick_45">
     <g id="line2d_61">
      <g>
       <use xlink:href="#m3889cb8282" x="77.920625" y="79.968424" style="stroke: #000000; stroke-width: 0.6"/>
      </g>
     </g>
    </g>
    <g id="ytick_46">
     <g id="line2d_62">
      <g>
       <use xlink:href="#m3889cb8282" x="77.920625" y="75.550317" style="stroke: #000000; stroke-width: 0.6"/>
      </g>
     </g>
    </g>
    <g id="ytick_47">
     <g id="line2d_63">
      <g>
       <use xlink:href="#m3889cb8282" x="77.920625" y="45.597849" style="stroke: #000000; stroke-width: 0.6"/>
      </g>
     </g>
    </g>
    <g id="ytick_48">
     <g id="line2d_64">
      <g>
       <use xlink:href="#m3889cb8282" x="77.920625" y="30.388628" style="stroke: #000000; stroke-width: 0.6"/>
      </g>
     </g>
    </g>
    <g id="ytick_49">
     <g id="line2d_65">
      <g>
       <use xlink:href="#m3889cb8282" x="77.920625" y="19.597513" style="stroke: #000000; stroke-width: 0.6"/>
      </g>
     </g>
    </g>
    <g id="ytick_50">
     <g id="line2d_66">
      <g>
       <use xlink:href="#m3889cb8282" x="77.920625" y="11.227274" style="stroke: #000000; stroke-width: 0.6"/>
      </g>
     </g>
    </g>
    <g id="text_13">
     <!-- Runtime -->
     <g transform="translate(20.877188 294.269063) rotate(-90) scale(0.18 -0.18)">
      <defs>
       <path id="DejaVuSans-74" d="M 1172 4494 
L 1172 3500 
L 2356 3500 
L 2356 3053 
L 1172 3053 
L 1172 1153 
Q 1172 725 1289 603 
Q 1406 481 1766 481 
L 2356 481 
L 2356 0 
L 1766 0 
Q 1100 0 847 248 
Q 594 497 594 1153 
L 594 3053 
L 172 3053 
L 172 3500 
L 594 3500 
L 594 4494 
L 1172 4494 
z
" transform="scale(0.015625)"/>
       <path id="DejaVuSans-6d" d="M 3328 2828 
Q 3544 3216 3844 3400 
Q 4144 3584 4550 3584 
Q 5097 3584 5394 3201 
Q 5691 2819 5691 2113 
L 5691 0 
L 5113 0 
L 5113 2094 
Q 5113 2597 4934 2840 
Q 4756 3084 4391 3084 
Q 3944 3084 3684 2787 
Q 3425 2491 3425 1978 
L 3425 0 
L 2847 0 
L 2847 2094 
Q 2847 2600 2669 2842 
Q 2491 3084 2119 3084 
Q 1678 3084 1418 2786 
Q 1159 2488 1159 1978 
L 1159 0 
L 581 0 
L 581 3500 
L 1159 3500 
L 1159 2956 
Q 1356 3278 1631 3431 
Q 1906 3584 2284 3584 
Q 2666 3584 2933 3390 
Q 3200 3197 3328 2828 
z
" transform="scale(0.015625)"/>
      </defs>
      <use xlink:href="#DejaVuSans-52"/>
      <use xlink:href="#DejaVuSans-75" x="64.982422"/>
      <use xlink:href="#DejaVuSans-6e" x="128.361328"/>
      <use xlink:href="#DejaVuSans-74" x="191.740234"/>
      <use xlink:href="#DejaVuSans-69" x="230.949219"/>
      <use xlink:href="#DejaVuSans-6d" x="258.732422"/>
      <use xlink:href="#DejaVuSans-65" x="356.144531"/>
     </g>
    </g>
   </g>
   <g id="line2d_67">
    <path d="M 108.356989 481.732621 
L 111.188278 334.043873 
L 114.019568 302.264117 
L 116.850858 285.771674 
L 119.682147 275.088308 
L 122.513437 238.773228 
L 125.344726 226.63431 
L 128.176016 215.171975 
L 131.007306 208.458641 
L 133.838595 203.120145 
L 139.501175 193.756351 
L 142.332464 190.10826 
L 145.163754 186.732617 
L 147.995044 183.590885 
L 150.826333 180.863541 
L 156.488913 176.147348 
L 162.151492 172.041895 
L 167.814071 168.50753 
L 173.47665 165.480998 
L 179.13923 162.766115 
L 187.633099 159.158052 
L 196.126967 155.975456 
L 204.620836 153.131469 
L 210.283416 151.312536 
L 215.945995 149.512388 
L 227.271154 146.180389 
L 232.933733 144.614805 
L 244.258891 141.557069 
L 258.41534 136.754159 
L 269.740498 133.32435 
L 286.728236 128.648292 
L 303.715974 124.518276 
L 317.872422 121.15675 
L 326.366291 118.973619 
L 337.69145 116.232086 
L 351.847898 113.094036 
L 366.004346 110.094888 
L 382.992084 106.725873 
L 388.654663 105.568845 
L 405.642401 102.010656 
L 416.967559 99.804751 
L 431.124008 97.149465 
L 445.280456 94.674077 
L 459.436904 92.183118 
L 465.099483 91.138699 
L 470.762063 89.662218 
L 484.918511 86.396435 
L 501.906249 82.871429 
L 518.893987 79.657221 
L 530.219145 77.536885 
L 541.544304 74.662156 
L 552.869462 72.005849 
L 558.532041 70.722782 
L 567.02591 67.636701 
L 578.351069 65.205166 
L 615.157834 57.72741 
L 623.651703 56.128445 
L 640.639441 52.985225 
L 680.277496 46.247756 
L 694.433944 44.12667 
L 714.252972 41.292221 
L 717.084261 40.887626 
L 717.084261 40.887626 
" clip-path="url(#pfa048c6179)" style="fill: none; stroke: #ff0000; stroke-width: 1.5; stroke-linecap: square"/>
   </g>
   <g id="line2d_68">
    <path d="M 108.356989 466.392565 
L 111.188278 254.361577 
L 114.019568 248.75127 
L 116.850858 244.052108 
L 119.682147 240.168151 
L 125.344726 232.900917 
L 128.176016 230.804567 
L 131.007306 228.901195 
L 133.838595 227.45749 
L 136.669885 225.809147 
L 147.995044 220.874817 
L 150.826333 219.33908 
L 153.657623 218.375203 
L 156.488913 217.724952 
L 159.320202 216.829914 
L 164.982781 215.319317 
L 167.814071 214.442558 
L 176.30794 212.949239 
L 181.970519 212.080014 
L 190.464388 210.26123 
L 193.295678 209.826491 
L 196.126967 209.055243 
L 204.620836 207.512429 
L 210.283416 206.868717 
L 215.945995 205.938527 
L 218.777285 205.608806 
L 224.439864 204.67175 
L 227.271154 204.43718 
L 230.102443 203.997054 
L 238.596312 203.119799 
L 244.258891 202.301398 
L 247.090181 202.108258 
L 252.75276 201.336707 
L 261.246629 200.609166 
L 266.909209 199.887379 
L 269.740498 199.623152 
L 283.896946 199.066473 
L 289.559526 198.747888 
L 298.053395 198.286088 
L 312.209843 197.583027 
L 323.535001 197.077909 
L 343.354029 195.877181 
L 349.016608 195.475647 
L 360.341767 194.927989 
L 411.30498 192.145736 
L 456.605614 189.363405 
L 465.099483 188.808444 
L 467.930773 188.509363 
L 487.7498 187.56299 
L 499.074959 186.859512 
L 567.02591 183.008604 
L 643.470731 178.578591 
L 651.9646 177.99967 
L 660.458469 177.527229 
L 668.952337 177.156213 
L 691.602655 175.815098 
L 717.084261 174.232119 
L 717.084261 174.232119 
" clip-path="url(#pfa048c6179)" style="fill: none; stroke: #ff7f50; stroke-width: 1.5; stroke-linecap: square"/>
   </g>
   <g id="line2d_69">
    <path d="M 108.356989 249.89906 
L 111.188278 224.362821 
L 114.019568 209.227931 
L 116.850858 201.999934 
L 119.682147 196.128597 
L 122.513437 192.641834 
L 128.176016 186.408614 
L 133.838595 181.028873 
L 139.501175 176.370547 
L 145.163754 172.214539 
L 150.826333 168.48583 
L 159.320202 163.577908 
L 162.151492 162.075667 
L 167.814071 159.425243 
L 173.47665 156.95378 
L 179.13923 154.677498 
L 187.633099 151.52549 
L 201.789547 147.079561 
L 213.114705 143.750759 
L 221.608574 141.378243 
L 244.258891 135.561329 
L 247.090181 134.908638 
L 255.58405 132.224695 
L 266.909209 128.97044 
L 281.065657 125.154289 
L 286.728236 123.703883 
L 300.884684 120.318441 
L 323.535001 115.138432 
L 334.86016 112.438339 
L 351.847898 108.695212 
L 371.666925 104.621943 
L 385.823373 101.941839 
L 391.485953 100.84373 
L 402.811111 98.568318 
L 422.630139 94.844603 
L 442.449166 91.346729 
L 462.268194 87.998116 
L 465.099483 87.488239 
L 473.593352 85.465178 
L 484.918511 82.96819 
L 504.737538 79.002516 
L 521.725276 75.938149 
L 530.219145 74.432631 
L 538.713014 72.272769 
L 558.532041 67.703896 
L 567.02591 64.556017 
L 578.351069 62.141609 
L 586.844938 60.315843 
L 598.170096 57.965456 
L 626.482993 52.434706 
L 660.458469 46.381046 
L 697.265234 40.412757 
L 717.084261 37.504607 
L 717.084261 37.504607 
" clip-path="url(#pfa048c6179)" style="fill: none; stroke: #8a2be2; stroke-width: 1.5; stroke-linecap: square"/>
   </g>
   <g id="patch_3">
    <path d="M 77.920625 506.16 
L 77.920625 7.2 
" style="fill: none; stroke: #000000; stroke-width: 0.8; stroke-linejoin: miter; stroke-linecap: square"/>
   </g>
   <g id="patch_4">
    <path d="M 747.520625 506.16 
L 747.520625 7.2 
" style="fill: none; stroke: #000000; stroke-width: 0.8; stroke-linejoin: miter; stroke-linecap: square"/>
   </g>
   <g id="patch_5">
    <path d="M 77.920625 506.16 
L 747.520625 506.16 
" style="fill: none; stroke: #000000; stroke-width: 0.8; stroke-linejoin: miter; stroke-linecap: square"/>
   </g>
   <g id="patch_6">
    <path d="M 77.920625 7.2 
L 747.520625 7.2 
" style="fill: none; stroke: #000000; stroke-width: 0.8; stroke-linejoin: miter; stroke-linecap: square"/>
   </g>
   <g id="legend_1">
    <g id="patch_7">
     <path d="M 500.358125 497.16 
L 734.920625 497.16 
Q 738.520625 497.16 738.520625 493.56 
L 738.520625 416.098125 
Q 738.520625 412.498125 734.920625 412.498125 
L 500.358125 412.498125 
Q 496.758125 412.498125 496.758125 416.098125 
L 496.758125 493.56 
Q 496.758125 497.16 500.358125 497.16 
z
" style="fill: #ffffff; opacity: 0.8; stroke: #cccccc; stroke-linejoin: miter"/>
    </g>
    <g id="line2d_70">
     <path d="M 503.958125 427.075313 
L 521.958125 427.075313 
L 539.958125 427.075313 
" style="fill: none; stroke: #ff0000; stroke-width: 1.5; stroke-linecap: square"/>
    </g>
    <g id="text_14">
     <!-- Hybrid-MBTL (Ours) -->
     <g transform="translate(554.358125 433.375313) scale(0.18 -0.18)">
      <defs>
       <path id="DejaVuSans-48" d="M 628 4666 
L 1259 4666 
L 1259 2753 
L 3553 2753 
L 3553 4666 
L 4184 4666 
L 4184 0 
L 3553 0 
L 3553 2222 
L 1259 2222 
L 1259 0 
L 628 0 
L 628 4666 
z
" transform="scale(0.015625)"/>
       <path id="DejaVuSans-79" d="M 2059 -325 
Q 1816 -950 1584 -1140 
Q 1353 -1331 966 -1331 
L 506 -1331 
L 506 -850 
L 844 -850 
Q 1081 -850 1212 -737 
Q 1344 -625 1503 -206 
L 1606 56 
L 191 3500 
L 800 3500 
L 1894 763 
L 2988 3500 
L 3597 3500 
L 2059 -325 
z
" transform="scale(0.015625)"/>
       <path id="DejaVuSans-62" d="M 3116 1747 
Q 3116 2381 2855 2742 
Q 2594 3103 2138 3103 
Q 1681 3103 1420 2742 
Q 1159 2381 1159 1747 
Q 1159 1113 1420 752 
Q 1681 391 2138 391 
Q 2594 391 2855 752 
Q 3116 1113 3116 1747 
z
M 1159 2969 
Q 1341 3281 1617 3432 
Q 1894 3584 2278 3584 
Q 2916 3584 3314 3078 
Q 3713 2572 3713 1747 
Q 3713 922 3314 415 
Q 2916 -91 2278 -91 
Q 1894 -91 1617 61 
Q 1341 213 1159 525 
L 1159 0 
L 581 0 
L 581 4863 
L 1159 4863 
L 1159 2969 
z
" transform="scale(0.015625)"/>
       <path id="DejaVuSans-72" d="M 2631 2963 
Q 2534 3019 2420 3045 
Q 2306 3072 2169 3072 
Q 1681 3072 1420 2755 
Q 1159 2438 1159 1844 
L 1159 0 
L 581 0 
L 581 3500 
L 1159 3500 
L 1159 2956 
Q 1341 3275 1631 3429 
Q 1922 3584 2338 3584 
Q 2397 3584 2469 3576 
Q 2541 3569 2628 3553 
L 2631 2963 
z
" transform="scale(0.015625)"/>
       <path id="DejaVuSans-2d" d="M 313 2009 
L 1997 2009 
L 1997 1497 
L 313 1497 
L 313 2009 
z
" transform="scale(0.015625)"/>
       <path id="DejaVuSans-4d" d="M 628 4666 
L 1569 4666 
L 2759 1491 
L 3956 4666 
L 4897 4666 
L 4897 0 
L 4281 0 
L 4281 4097 
L 3078 897 
L 2444 897 
L 1241 4097 
L 1241 0 
L 628 0 
L 628 4666 
z
" transform="scale(0.015625)"/>
       <path id="DejaVuSans-42" d="M 1259 2228 
L 1259 519 
L 2272 519 
Q 2781 519 3026 730 
Q 3272 941 3272 1375 
Q 3272 1813 3026 2020 
Q 2781 2228 2272 2228 
L 1259 2228 
z
M 1259 4147 
L 1259 2741 
L 2194 2741 
Q 2656 2741 2882 2914 
Q 3109 3088 3109 3444 
Q 3109 3797 2882 3972 
Q 2656 4147 2194 4147 
L 1259 4147 
z
M 628 4666 
L 2241 4666 
Q 2963 4666 3353 4366 
Q 3744 4066 3744 3513 
Q 3744 3084 3544 2831 
Q 3344 2578 2956 2516 
Q 3422 2416 3680 2098 
Q 3938 1781 3938 1306 
Q 3938 681 3513 340 
Q 3088 0 2303 0 
L 628 0 
L 628 4666 
z
" transform="scale(0.015625)"/>
       <path id="DejaVuSans-54" d="M -19 4666 
L 3928 4666 
L 3928 4134 
L 2272 4134 
L 2272 0 
L 1638 0 
L 1638 4134 
L -19 4134 
L -19 4666 
z
" transform="scale(0.015625)"/>
       <path id="DejaVuSans-4c" d="M 628 4666 
L 1259 4666 
L 1259 531 
L 3531 531 
L 3531 0 
L 628 0 
L 628 4666 
z
" transform="scale(0.015625)"/>
       <path id="DejaVuSans-28" d="M 1984 4856 
Q 1566 4138 1362 3434 
Q 1159 2731 1159 2009 
Q 1159 1288 1364 580 
Q 1569 -128 1984 -844 
L 1484 -844 
Q 1016 -109 783 600 
Q 550 1309 550 2009 
Q 550 2706 781 3412 
Q 1013 4119 1484 4856 
L 1984 4856 
z
" transform="scale(0.015625)"/>
       <path id="DejaVuSans-4f" d="M 2522 4238 
Q 1834 4238 1429 3725 
Q 1025 3213 1025 2328 
Q 1025 1447 1429 934 
Q 1834 422 2522 422 
Q 3209 422 3611 934 
Q 4013 1447 4013 2328 
Q 4013 3213 3611 3725 
Q 3209 4238 2522 4238 
z
M 2522 4750 
Q 3503 4750 4090 4092 
Q 4678 3434 4678 2328 
Q 4678 1225 4090 567 
Q 3503 -91 2522 -91 
Q 1538 -91 948 565 
Q 359 1222 359 2328 
Q 359 3434 948 4092 
Q 1538 4750 2522 4750 
z
" transform="scale(0.015625)"/>
       <path id="DejaVuSans-29" d="M 513 4856 
L 1013 4856 
Q 1481 4119 1714 3412 
Q 1947 2706 1947 2009 
Q 1947 1309 1714 600 
Q 1481 -109 1013 -844 
L 513 -844 
Q 928 -128 1133 580 
Q 1338 1288 1338 2009 
Q 1338 2731 1133 3434 
Q 928 4138 513 4856 
z
" transform="scale(0.015625)"/>
      </defs>
      <use xlink:href="#DejaVuSans-48"/>
      <use xlink:href="#DejaVuSans-79" x="75.195312"/>
      <use xlink:href="#DejaVuSans-62" x="134.375"/>
      <use xlink:href="#DejaVuSans-72" x="197.851562"/>
      <use xlink:href="#DejaVuSans-69" x="238.964844"/>
      <use xlink:href="#DejaVuSans-64" x="266.748047"/>
      <use xlink:href="#DejaVuSans-2d" x="330.224609"/>
      <use xlink:href="#DejaVuSans-4d" x="366.308594"/>
      <use xlink:href="#DejaVuSans-42" x="452.587891"/>
      <use xlink:href="#DejaVuSans-54" x="521.191406"/>
      <use xlink:href="#DejaVuSans-4c" x="582.275391"/>
      <use xlink:href="#DejaVuSans-20" x="637.988281"/>
      <use xlink:href="#DejaVuSans-28" x="669.775391"/>
      <use xlink:href="#DejaVuSans-4f" x="708.789062"/>
      <use xlink:href="#DejaVuSans-75" x="787.5"/>
      <use xlink:href="#DejaVuSans-72" x="850.878906"/>
      <use xlink:href="#DejaVuSans-73" x="891.992188"/>
      <use xlink:href="#DejaVuSans-29" x="944.091797"/>
     </g>
    </g>
    <g id="line2d_71">
     <path d="M 503.958125 453.495938 
L 521.958125 453.495938 
L 539.958125 453.495938 
" style="fill: none; stroke: #ff7f50; stroke-width: 1.5; stroke-linecap: square"/>
    </g>
    <g id="text_15">
     <!-- SC-MBTL (Ours) -->
     <g transform="translate(554.358125 459.795938) scale(0.18 -0.18)">
      <defs>
       <path id="DejaVuSans-53" d="M 3425 4513 
L 3425 3897 
Q 3066 4069 2747 4153 
Q 2428 4238 2131 4238 
Q 1616 4238 1336 4038 
Q 1056 3838 1056 3469 
Q 1056 3159 1242 3001 
Q 1428 2844 1947 2747 
L 2328 2669 
Q 3034 2534 3370 2195 
Q 3706 1856 3706 1288 
Q 3706 609 3251 259 
Q 2797 -91 1919 -91 
Q 1588 -91 1214 -16 
Q 841 59 441 206 
L 441 856 
Q 825 641 1194 531 
Q 1563 422 1919 422 
Q 2459 422 2753 634 
Q 3047 847 3047 1241 
Q 3047 1584 2836 1778 
Q 2625 1972 2144 2069 
L 1759 2144 
Q 1053 2284 737 2584 
Q 422 2884 422 3419 
Q 422 4038 858 4394 
Q 1294 4750 2059 4750 
Q 2388 4750 2728 4690 
Q 3069 4631 3425 4513 
z
" transform="scale(0.015625)"/>
       <path id="DejaVuSans-43" d="M 4122 4306 
L 4122 3641 
Q 3803 3938 3442 4084 
Q 3081 4231 2675 4231 
Q 1875 4231 1450 3742 
Q 1025 3253 1025 2328 
Q 1025 1406 1450 917 
Q 1875 428 2675 428 
Q 3081 428 3442 575 
Q 3803 722 4122 1019 
L 4122 359 
Q 3791 134 3420 21 
Q 3050 -91 2638 -91 
Q 1578 -91 968 557 
Q 359 1206 359 2328 
Q 359 3453 968 4101 
Q 1578 4750 2638 4750 
Q 3056 4750 3426 4639 
Q 3797 4528 4122 4306 
z
" transform="scale(0.015625)"/>
      </defs>
      <use xlink:href="#DejaVuSans-53"/>
      <use xlink:href="#DejaVuSans-43" x="63.476562"/>
      <use xlink:href="#DejaVuSans-2d" x="133.300781"/>
      <use xlink:href="#DejaVuSans-4d" x="169.384766"/>
      <use xlink:href="#DejaVuSans-42" x="255.664062"/>
      <use xlink:href="#DejaVuSans-54" x="324.267578"/>
      <use xlink:href="#DejaVuSans-4c" x="385.351562"/>
      <use xlink:href="#DejaVuSans-20" x="441.064453"/>
      <use xlink:href="#DejaVuSans-28" x="472.851562"/>
      <use xlink:href="#DejaVuSans-4f" x="511.865234"/>
      <use xlink:href="#DejaVuSans-75" x="590.576172"/>
      <use xlink:href="#DejaVuSans-72" x="653.955078"/>
      <use xlink:href="#DejaVuSans-73" x="695.068359"/>
      <use xlink:href="#DejaVuSans-29" x="747.167969"/>
     </g>
    </g>
    <g id="line2d_72">
     <path d="M 503.958125 479.916563 
L 521.958125 479.916563 
L 539.958125 479.916563 
" style="fill: none; stroke: #8a2be2; stroke-width: 1.5; stroke-linecap: square"/>
    </g>
    <g id="text_16">
     <!-- GP-MBTL -->
     <g transform="translate(554.358125 486.216563) scale(0.18 -0.18)">
      <defs>
       <path id="DejaVuSans-47" d="M 3809 666 
L 3809 1919 
L 2778 1919 
L 2778 2438 
L 4434 2438 
L 4434 434 
Q 4069 175 3628 42 
Q 3188 -91 2688 -91 
Q 1594 -91 976 548 
Q 359 1188 359 2328 
Q 359 3472 976 4111 
Q 1594 4750 2688 4750 
Q 3144 4750 3555 4637 
Q 3966 4525 4313 4306 
L 4313 3634 
Q 3963 3931 3569 4081 
Q 3175 4231 2741 4231 
Q 1884 4231 1454 3753 
Q 1025 3275 1025 2328 
Q 1025 1384 1454 906 
Q 1884 428 2741 428 
Q 3075 428 3337 486 
Q 3600 544 3809 666 
z
" transform="scale(0.015625)"/>
       <path id="DejaVuSans-50" d="M 1259 4147 
L 1259 2394 
L 2053 2394 
Q 2494 2394 2734 2622 
Q 2975 2850 2975 3272 
Q 2975 3691 2734 3919 
Q 2494 4147 2053 4147 
L 1259 4147 
z
M 628 4666 
L 2053 4666 
Q 2838 4666 3239 4311 
Q 3641 3956 3641 3272 
Q 3641 2581 3239 2228 
Q 2838 1875 2053 1875 
L 1259 1875 
L 1259 0 
L 628 0 
L 628 4666 
z
" transform="scale(0.015625)"/>
      </defs>
      <use xlink:href="#DejaVuSans-47"/>
      <use xlink:href="#DejaVuSans-50" x="77.490234"/>
      <use xlink:href="#DejaVuSans-2d" x="135.542969"/>
      <use xlink:href="#DejaVuSans-4d" x="171.626953"/>
      <use xlink:href="#DejaVuSans-42" x="257.90625"/>
      <use xlink:href="#DejaVuSans-54" x="326.509766"/>
      <use xlink:href="#DejaVuSans-4c" x="387.59375"/>
     </g>
    </g>
   </g>
  </g>
 </g>
 <defs>
  <clipPath id="pfa048c6179">
   <rect x="77.920625" y="7.2" width="669.6" height="498.96"/>
  </clipPath>
 </defs>
</svg>
