<?xml version="1.0" encoding="utf-8" standalone="no"?>
<!DOCTYPE svg PUBLIC "-//W3C//DTD SVG 1.1//EN"
  "http://www.w3.org/Graphics/SVG/1.1/DTD/svg11.dtd">
<svg xmlns:xlink="http://www.w3.org/1999/xlink" width="568.875312pt" height="395.608955pt" viewBox="0 0 568.875312 395.608955" xmlns="http://www.w3.org/2000/svg" version="1.1">
 <metadata>
  <rdf:RDF xmlns:dc="http://purl.org/dc/elements/1.1/" xmlns:cc="http://creativecommons.org/ns#" xmlns:rdf="http://www.w3.org/1999/02/22-rdf-syntax-ns#">
   <cc:Work>
    <dc:type rdf:resource="http://purl.org/dc/dcmitype/StillImage"/>
    <dc:date>2025-05-09T17:53:52.163196</dc:date>
    <dc:format>image/svg+xml</dc:format>
    <dc:creator>
     <cc:Agent>
      <dc:title>Matplotlib v3.9.4, https://matplotlib.org/</dc:title>
     </cc:Agent>
    </dc:creator>
   </cc:Work>
  </rdf:RDF>
 </metadata>
 <defs>
  <style type="text/css">*{stroke-linejoin: round; stroke-linecap: butt}</style>
 </defs>
 <g id="figure_1">
  <g id="patch_1">
   <path d="M 0 395.608955 
L 568.875312 395.608955 
L 568.875312 0 
L 0 0 
z
" style="fill: #ffffff"/>
  </g>
  <g id="axes_1">
   <g id="patch_2">
    <path d="M 59.475313 345.471142 
L 561.675313 345.471142 
L 561.675313 12.831142 
L 59.475313 12.831142 
z
" style="fill: #ffffff"/>
   </g>
   <g id="PolyCollection_1">
    <defs>
     <path id="mbc719ee81b" d="M 82.302585 -115.972132 
L 82.302585 -111.66567 
L 151.019523 -111.66567 
L 191.216355 -111.66567 
L 219.736461 -111.66567 
L 241.858374 -111.66567 
L 259.933293 -111.66567 
L 275.21542 -111.66567 
L 288.4534 -111.66567 
L 300.130125 -111.66567 
L 310.575312 -111.66567 
L 320.024134 -111.66567 
L 328.650231 -111.66567 
L 336.585472 -111.66567 
L 343.932358 -111.66567 
L 350.772144 -111.66567 
L 357.170338 -111.66567 
L 363.180516 -111.66567 
L 368.847063 -111.66567 
L 374.207157 -111.66567 
L 379.292251 -111.66567 
L 384.12919 -111.66567 
L 388.741072 -111.66567 
L 393.147912 -111.66567 
L 397.36717 -111.66567 
L 401.414164 -111.66567 
L 405.30241 -111.66567 
L 409.043895 -111.66567 
L 412.649296 -111.66567 
L 416.128165 -111.66567 
L 419.489083 -111.66567 
L 422.739786 -111.66567 
L 425.887276 -111.66567 
L 428.937904 -111.66567 
L 431.897454 -111.66567 
L 434.771209 -111.66567 
L 437.564002 -111.66567 
L 440.28027 -111.66567 
L 442.924095 -111.66567 
L 445.499242 -111.66567 
L 448.009189 -111.66567 
L 450.457155 -111.66567 
L 452.846128 -111.66567 
L 455.178884 -111.66567 
L 457.45801 -111.66567 
L 459.685915 -111.66567 
L 461.86485 -111.66567 
L 463.996924 -111.66567 
L 466.084108 -111.66567 
L 468.128254 -111.66567 
L 470.131102 -111.66567 
L 472.094286 -111.66567 
L 474.019348 -111.66567 
L 475.907741 -111.66567 
L 477.760833 -111.66567 
L 479.579923 -111.66567 
L 481.366234 -111.66567 
L 483.120927 -111.66567 
L 484.845103 -111.66567 
L 486.539804 -111.66567 
L 488.206021 -111.66567 
L 489.844696 -111.66567 
L 491.456725 -111.66567 
L 493.04296 -111.66567 
L 494.604214 -111.66567 
L 496.141261 -111.66567 
L 497.654842 -111.66567 
L 499.145661 -111.66567 
L 500.614392 -111.66567 
L 502.061682 -111.66567 
L 503.488147 -111.66567 
L 504.894377 -111.66567 
L 506.28094 -111.66567 
L 507.648376 -111.66567 
L 508.997208 -111.66567 
L 510.327934 -111.66567 
L 511.641033 -111.66567 
L 512.936968 -111.66567 
L 514.21618 -111.66567 
L 515.479097 -111.66567 
L 516.726127 -111.66567 
L 517.957665 -111.66567 
L 519.174093 -111.66567 
L 520.375775 -111.66567 
L 521.563066 -111.66567 
L 522.736305 -111.66567 
L 523.895823 -111.66567 
L 525.041935 -111.66567 
L 526.174948 -111.66567 
L 527.295159 -111.66567 
L 528.402853 -111.66567 
L 529.498307 -111.66567 
L 530.581788 -111.66567 
L 531.653556 -111.66567 
L 532.713862 -111.66567 
L 533.762946 -111.66567 
L 534.801046 -111.66567 
L 535.828387 -111.66567 
L 536.845192 -111.66567 
L 537.851674 -111.66567 
L 538.84804 -111.66567 
L 538.84804 -115.972132 
L 538.84804 -115.972132 
L 537.851674 -115.972132 
L 536.845192 -115.972132 
L 535.828387 -115.972132 
L 534.801046 -115.972132 
L 533.762946 -115.972132 
L 532.713862 -115.972132 
L 531.653556 -115.972132 
L 530.581788 -115.972132 
L 529.498307 -115.972132 
L 528.402853 -115.972132 
L 527.295159 -115.972132 
L 526.174948 -115.972132 
L 525.041935 -115.972132 
L 523.895823 -115.972132 
L 522.736305 -115.972132 
L 521.563066 -115.972132 
L 520.375775 -115.972132 
L 519.174093 -115.972132 
L 517.957665 -115.972132 
L 516.726127 -115.972132 
L 515.479097 -115.972132 
L 514.21618 -115.972132 
L 512.936968 -115.972132 
L 511.641033 -115.972132 
L 510.327934 -115.972132 
L 508.997208 -115.972132 
L 507.648376 -115.972132 
L 506.28094 -115.972132 
L 504.894377 -115.972132 
L 503.488147 -115.972132 
L 502.061682 -115.972132 
L 500.614392 -115.972132 
L 499.145661 -115.972132 
L 497.654842 -115.972132 
L 496.141261 -115.972132 
L 494.604214 -115.972132 
L 493.04296 -115.972132 
L 491.456725 -115.972132 
L 489.844696 -115.972132 
L 488.206021 -115.972132 
L 486.539804 -115.972132 
L 484.845103 -115.972132 
L 483.120927 -115.972132 
L 481.366234 -115.972132 
L 479.579923 -115.972132 
L 477.760833 -115.972132 
L 475.907741 -115.972132 
L 474.019348 -115.972132 
L 472.094286 -115.972132 
L 470.131102 -115.972132 
L 468.128254 -115.972132 
L 466.084108 -115.972132 
L 463.996924 -115.972132 
L 461.86485 -115.972132 
L 459.685915 -115.972132 
L 457.45801 -115.972132 
L 455.178884 -115.972132 
L 452.846128 -115.972132 
L 450.457155 -115.972132 
L 448.009189 -115.972132 
L 445.499242 -115.972132 
L 442.924095 -115.972132 
L 440.28027 -115.972132 
L 437.564002 -115.972132 
L 434.771209 -115.972132 
L 431.897454 -115.972132 
L 428.937904 -115.972132 
L 425.887276 -115.972132 
L 422.739786 -115.972132 
L 419.489083 -115.972132 
L 416.128165 -115.972132 
L 412.649296 -115.972132 
L 409.043895 -115.972132 
L 405.30241 -115.972132 
L 401.414164 -115.972132 
L 397.36717 -115.972132 
L 393.147912 -115.972132 
L 388.741072 -115.972132 
L 384.12919 -115.972132 
L 379.292251 -115.972132 
L 374.207157 -115.972132 
L 368.847063 -115.972132 
L 363.180516 -115.972132 
L 357.170338 -115.972132 
L 350.772144 -115.972132 
L 343.932358 -115.972132 
L 336.585472 -115.972132 
L 328.650231 -115.972132 
L 320.024134 -115.972132 
L 310.575312 -115.972132 
L 300.130125 -115.972132 
L 288.4534 -115.972132 
L 275.21542 -115.972132 
L 259.933293 -115.972132 
L 241.858374 -115.972132 
L 219.736461 -115.972132 
L 191.216355 -115.972132 
L 151.019523 -115.972132 
L 82.302585 -115.972132 
z
" style="stroke: #fdc086; stroke-opacity: 0.05"/>
    </defs>
    <g clip-path="url(#p2c76217928)">
     <use xlink:href="#mbc719ee81b" x="0" y="395.608955" style="fill: #fdc086; fill-opacity: 0.05; stroke: #fdc086; stroke-opacity: 0.05"/>
    </g>
   </g>
   <g id="PolyCollection_2">
    <defs>
     <path id="ma559c5be92" d="M 82.302585 -255.814497 
L 82.302585 -161.025825 
L 151.019523 -161.025825 
L 191.216355 -161.025825 
L 219.736461 -161.025825 
L 241.858374 -161.025825 
L 259.933293 -161.025825 
L 275.21542 -161.025825 
L 288.4534 -161.025825 
L 300.130125 -161.025825 
L 310.575312 -161.025825 
L 320.024134 -161.025825 
L 328.650231 -161.025825 
L 336.585472 -161.025825 
L 343.932358 -161.025825 
L 350.772144 -161.025825 
L 357.170338 -161.025825 
L 363.180516 -161.025825 
L 368.847063 -161.025825 
L 374.207157 -161.025825 
L 379.292251 -161.025825 
L 384.12919 -161.025825 
L 388.741072 -161.025825 
L 393.147912 -161.025825 
L 397.36717 -161.025825 
L 401.414164 -161.025825 
L 405.30241 -161.025825 
L 409.043895 -161.025825 
L 412.649296 -161.025825 
L 416.128165 -161.025825 
L 419.489083 -161.025825 
L 422.739786 -161.025825 
L 425.887276 -161.025825 
L 428.937904 -161.025825 
L 431.897454 -161.025825 
L 434.771209 -161.025825 
L 437.564002 -161.025825 
L 440.28027 -161.025825 
L 442.924095 -161.025825 
L 445.499242 -161.025825 
L 448.009189 -161.025825 
L 450.457155 -161.025825 
L 452.846128 -161.025825 
L 455.178884 -161.025825 
L 457.45801 -161.025825 
L 459.685915 -161.025825 
L 461.86485 -161.025825 
L 463.996924 -161.025825 
L 466.084108 -161.025825 
L 468.128254 -161.025825 
L 470.131102 -161.025825 
L 472.094286 -161.025825 
L 474.019348 -161.025825 
L 475.907741 -161.025825 
L 477.760833 -161.025825 
L 479.579923 -161.025825 
L 481.366234 -161.025825 
L 483.120927 -161.025825 
L 484.845103 -161.025825 
L 486.539804 -161.025825 
L 488.206021 -161.025825 
L 489.844696 -161.025825 
L 491.456725 -161.025825 
L 493.04296 -161.025825 
L 494.604214 -161.025825 
L 496.141261 -161.025825 
L 497.654842 -161.025825 
L 499.145661 -161.025825 
L 500.614392 -161.025825 
L 502.061682 -161.025825 
L 503.488147 -161.025825 
L 504.894377 -161.025825 
L 506.28094 -161.025825 
L 507.648376 -161.025825 
L 508.997208 -161.025825 
L 510.327934 -161.025825 
L 511.641033 -161.025825 
L 512.936968 -161.025825 
L 514.21618 -161.025825 
L 515.479097 -161.025825 
L 516.726127 -161.025825 
L 517.957665 -161.025825 
L 519.174093 -161.025825 
L 520.375775 -161.025825 
L 521.563066 -161.025825 
L 522.736305 -161.025825 
L 523.895823 -161.025825 
L 525.041935 -161.025825 
L 526.174948 -161.025825 
L 527.295159 -161.025825 
L 528.402853 -161.025825 
L 529.498307 -161.025825 
L 530.581788 -161.025825 
L 531.653556 -161.025825 
L 532.713862 -161.025825 
L 533.762946 -161.025825 
L 534.801046 -161.025825 
L 535.828387 -161.025825 
L 536.845192 -161.025825 
L 537.851674 -161.025825 
L 538.84804 -161.025825 
L 538.84804 -255.814497 
L 538.84804 -255.814497 
L 537.851674 -255.814497 
L 536.845192 -255.814497 
L 535.828387 -255.814497 
L 534.801046 -255.814497 
L 533.762946 -255.814497 
L 532.713862 -255.814497 
L 531.653556 -255.814497 
L 530.581788 -255.814497 
L 529.498307 -255.814497 
L 528.402853 -255.814497 
L 527.295159 -255.814497 
L 526.174948 -255.814497 
L 525.041935 -255.814497 
L 523.895823 -255.814497 
L 522.736305 -255.814497 
L 521.563066 -255.814497 
L 520.375775 -255.814497 
L 519.174093 -255.814497 
L 517.957665 -255.814497 
L 516.726127 -255.814497 
L 515.479097 -255.814497 
L 514.21618 -255.814497 
L 512.936968 -255.814497 
L 511.641033 -255.814497 
L 510.327934 -255.814497 
L 508.997208 -255.814497 
L 507.648376 -255.814497 
L 506.28094 -255.814497 
L 504.894377 -255.814497 
L 503.488147 -255.814497 
L 502.061682 -255.814497 
L 500.614392 -255.814497 
L 499.145661 -255.814497 
L 497.654842 -255.814497 
L 496.141261 -255.814497 
L 494.604214 -255.814497 
L 493.04296 -255.814497 
L 491.456725 -255.814497 
L 489.844696 -255.814497 
L 488.206021 -255.814497 
L 486.539804 -255.814497 
L 484.845103 -255.814497 
L 483.120927 -255.814497 
L 481.366234 -255.814497 
L 479.579923 -255.814497 
L 477.760833 -255.814497 
L 475.907741 -255.814497 
L 474.019348 -255.814497 
L 472.094286 -255.814497 
L 470.131102 -255.814497 
L 468.128254 -255.814497 
L 466.084108 -255.814497 
L 463.996924 -255.814497 
L 461.86485 -255.814497 
L 459.685915 -255.814497 
L 457.45801 -255.814497 
L 455.178884 -255.814497 
L 452.846128 -255.814497 
L 450.457155 -255.814497 
L 448.009189 -255.814497 
L 445.499242 -255.814497 
L 442.924095 -255.814497 
L 440.28027 -255.814497 
L 437.564002 -255.814497 
L 434.771209 -255.814497 
L 431.897454 -255.814497 
L 428.937904 -255.814497 
L 425.887276 -255.814497 
L 422.739786 -255.814497 
L 419.489083 -255.814497 
L 416.128165 -255.814497 
L 412.649296 -255.814497 
L 409.043895 -255.814497 
L 405.30241 -255.814497 
L 401.414164 -255.814497 
L 397.36717 -255.814497 
L 393.147912 -255.814497 
L 388.741072 -255.814497 
L 384.12919 -255.814497 
L 379.292251 -255.814497 
L 374.207157 -255.814497 
L 368.847063 -255.814497 
L 363.180516 -255.814497 
L 357.170338 -255.814497 
L 350.772144 -255.814497 
L 343.932358 -255.814497 
L 336.585472 -255.814497 
L 328.650231 -255.814497 
L 320.024134 -255.814497 
L 310.575312 -255.814497 
L 300.130125 -255.814497 
L 288.4534 -255.814497 
L 275.21542 -255.814497 
L 259.933293 -255.814497 
L 241.858374 -255.814497 
L 219.736461 -255.814497 
L 191.216355 -255.814497 
L 151.019523 -255.814497 
L 82.302585 -255.814497 
z
" style="stroke: #beaed4; stroke-opacity: 0.05"/>
    </defs>
    <g clip-path="url(#p2c76217928)">
     <use xlink:href="#ma559c5be92" x="0" y="395.608955" style="fill: #beaed4; fill-opacity: 0.05; stroke: #beaed4; stroke-opacity: 0.05"/>
    </g>
   </g>
   <g id="PolyCollection_3">
    <defs>
     <path id="mf4df40a2e6" d="M 82.302585 -173.084733 
L 82.302585 -65.257812 
L 151.019523 -96.433213 
L 191.216355 -117.590071 
L 219.736461 -131.723778 
L 241.858374 -143.3262 
L 259.933293 -155.390961 
L 275.21542 -160.28505 
L 288.4534 -167.75197 
L 300.130125 -174.339593 
L 310.575312 -181.172739 
L 320.024134 -183.765376 
L 328.650231 -189.002649 
L 336.585472 -195.636098 
L 343.932358 -199.298139 
L 350.772144 -202.3848 
L 357.170338 -207.460549 
L 363.180516 -208.663117 
L 368.847063 -211.777286 
L 374.207157 -212.990119 
L 379.292251 -215.849965 
L 384.12919 -217.8627 
L 388.741072 -219.346457 
L 393.147912 -221.835684 
L 397.36717 -222.161594 
L 401.414164 -225.201603 
L 405.30241 -227.916837 
L 409.043895 -229.701 
L 412.649296 -230.825779 
L 416.128165 -231.776404 
L 419.489083 -232.85823 
L 422.739786 -234.022009 
L 425.887276 -235.868425 
L 428.937904 -237.512534 
L 431.897454 -240.62242 
L 434.771209 -242.676144 
L 437.564002 -243.872753 
L 440.28027 -245.19828 
L 442.924095 -245.769851 
L 445.499242 -247.332209 
L 448.009189 -247.938368 
L 450.457155 -248.565157 
L 452.846128 -251.905195 
L 455.178884 -254.254342 
L 457.45801 -256.876599 
L 459.685915 -257.470934 
L 461.86485 -257.509904 
L 463.996924 -258.425189 
L 466.084108 -258.341682 
L 468.128254 -259.776606 
L 470.131102 -260.252402 
L 472.094286 -260.90722 
L 474.019348 -262.534608 
L 475.907741 -263.172755 
L 477.760833 -263.965406 
L 479.579923 -265.638601 
L 481.366234 -266.040196 
L 483.120927 -267.372216 
L 484.845103 -268.468949 
L 486.539804 -268.539745 
L 488.206021 -268.65389 
L 489.844696 -269.258954 
L 491.456725 -270.2096 
L 493.04296 -270.433182 
L 494.604214 -271.169441 
L 496.141261 -272.374927 
L 497.654842 -272.870303 
L 499.145661 -273.291181 
L 500.614392 -273.700121 
L 502.061682 -273.91353 
L 503.488147 -274.361712 
L 504.894377 -275.259432 
L 506.28094 -275.411851 
L 507.648376 -275.801011 
L 508.997208 -276.233035 
L 510.327934 -276.283741 
L 511.641033 -276.316543 
L 512.936968 -276.92093 
L 514.21618 -278.275342 
L 515.479097 -278.482061 
L 516.726127 -278.400361 
L 517.957665 -279.142262 
L 519.174093 -279.553462 
L 520.375775 -279.722242 
L 521.563066 -279.813987 
L 522.736305 -279.982528 
L 523.895823 -280.433826 
L 525.041935 -280.855507 
L 526.174948 -282.214597 
L 527.295159 -282.629916 
L 528.402853 -282.742877 
L 529.498307 -283.364302 
L 530.581788 -283.832795 
L 531.653556 -284.305225 
L 532.713862 -285.740685 
L 533.762946 -286.801606 
L 534.801046 -287.555169 
L 535.828387 -287.576407 
L 536.845192 -289.034822 
L 537.851674 -289.239952 
L 538.84804 -290.727599 
L 538.84804 -345.082806 
L 538.84804 -345.082806 
L 537.851674 -343.628253 
L 536.845192 -343.371038 
L 535.828387 -342.937 
L 534.801046 -342.897895 
L 533.762946 -342.963082 
L 532.713862 -342.667145 
L 531.653556 -342.570626 
L 530.581788 -342.221587 
L 529.498307 -341.873569 
L 528.402853 -341.812106 
L 527.295159 -341.476129 
L 526.174948 -339.945299 
L 525.041935 -336.966541 
L 523.895823 -336.802245 
L 522.736305 -336.550675 
L 521.563066 -336.448728 
L 520.375775 -334.938348 
L 519.174093 -334.956505 
L 517.957665 -334.576606 
L 516.726127 -334.196567 
L 515.479097 -332.874555 
L 514.21618 -332.76245 
L 512.936968 -332.18278 
L 511.641033 -332.106358 
L 510.327934 -332.076026 
L 508.997208 -332.050305 
L 507.648376 -331.716297 
L 506.28094 -331.5227 
L 504.894377 -331.4866 
L 503.488147 -330.626263 
L 502.061682 -330.462838 
L 500.614392 -328.777674 
L 499.145661 -328.647223 
L 497.654842 -328.050907 
L 496.141261 -327.060231 
L 494.604214 -326.522368 
L 493.04296 -326.463569 
L 491.456725 -324.615255 
L 489.844696 -323.53878 
L 488.206021 -322.800471 
L 486.539804 -322.665296 
L 484.845103 -322.542163 
L 483.120927 -322.191228 
L 481.366234 -322.320314 
L 479.579923 -322.208374 
L 477.760833 -322.032175 
L 475.907741 -321.450744 
L 474.019348 -321.299598 
L 472.094286 -321.11997 
L 470.131102 -319.309132 
L 468.128254 -318.991582 
L 466.084108 -317.943976 
L 463.996924 -315.86203 
L 461.86485 -315.689829 
L 459.685915 -315.614307 
L 457.45801 -315.591382 
L 455.178884 -314.75705 
L 452.846128 -312.853038 
L 450.457155 -312.184221 
L 448.009189 -311.881949 
L 445.499242 -311.655668 
L 442.924095 -311.206139 
L 440.28027 -310.444251 
L 437.564002 -309.580475 
L 434.771209 -309.538333 
L 431.897454 -309.169536 
L 428.937904 -307.793545 
L 425.887276 -307.066407 
L 422.739786 -305.500412 
L 419.489083 -304.830934 
L 416.128165 -304.278283 
L 412.649296 -303.755069 
L 409.043895 -303.669096 
L 405.30241 -300.294079 
L 401.414164 -298.900253 
L 397.36717 -297.261383 
L 393.147912 -294.246947 
L 388.741072 -292.749973 
L 384.12919 -292.140389 
L 379.292251 -291.699189 
L 374.207157 -291.177597 
L 368.847063 -290.160526 
L 363.180516 -289.744456 
L 357.170338 -286.267999 
L 350.772144 -285.238404 
L 343.932358 -283.48616 
L 336.585472 -281.232121 
L 328.650231 -277.368358 
L 320.024134 -275.389602 
L 310.575312 -269.041857 
L 300.130125 -264.424939 
L 288.4534 -261.043375 
L 275.21542 -256.727839 
L 259.933293 -253.764076 
L 241.858374 -244.24569 
L 219.736461 -237.366502 
L 191.216355 -218.611939 
L 151.019523 -199.594939 
L 82.302585 -173.084733 
z
" style="stroke: #7fc97f; stroke-opacity: 0.05"/>
    </defs>
    <g clip-path="url(#p2c76217928)">
     <use xlink:href="#mf4df40a2e6" x="0" y="395.608955" style="fill: #7fc97f; fill-opacity: 0.05; stroke: #7fc97f; stroke-opacity: 0.05"/>
    </g>
   </g>
   <g id="PolyCollection_4">
    <defs>
     <path id="mb0384100a9" d="M 82.302585 -177.604933 
L 82.302585 -111.422303 
L 151.019523 -111.14517 
L 191.216355 -111.192317 
L 219.736461 -134.458706 
L 241.858374 -152.928281 
L 259.933293 -162.885892 
L 275.21542 -169.037671 
L 288.4534 -171.423366 
L 300.130125 -173.24269 
L 310.575312 -177.538643 
L 320.024134 -182.36896 
L 328.650231 -187.096556 
L 336.585472 -190.363787 
L 343.932358 -194.094643 
L 350.772144 -195.964127 
L 357.170338 -199.15312 
L 363.180516 -201.995607 
L 368.847063 -204.937183 
L 374.207157 -208.693096 
L 379.292251 -214.047273 
L 384.12919 -217.752646 
L 388.741072 -221.703017 
L 393.147912 -226.271549 
L 397.36717 -232.533787 
L 401.414164 -235.244464 
L 405.30241 -236.505966 
L 409.043895 -238.373446 
L 412.649296 -244.713238 
L 416.128165 -248.303134 
L 419.489083 -252.211803 
L 422.739786 -257.436169 
L 425.887276 -261.831144 
L 428.937904 -263.62789 
L 431.897454 -267.335582 
L 434.771209 -271.853848 
L 437.564002 -272.654493 
L 440.28027 -274.384401 
L 442.924095 -276.391333 
L 445.499242 -277.965638 
L 448.009189 -281.437088 
L 450.457155 -283.880372 
L 452.846128 -285.19207 
L 455.178884 -286.380667 
L 457.45801 -287.151584 
L 459.685915 -288.111288 
L 461.86485 -291.335866 
L 463.996924 -291.637113 
L 466.084108 -292.688033 
L 468.128254 -293.511387 
L 470.131102 -293.906636 
L 472.094286 -294.448547 
L 474.019348 -296.312841 
L 475.907741 -296.778701 
L 477.760833 -297.267633 
L 479.579923 -297.688873 
L 481.366234 -298.29797 
L 483.120927 -299.182299 
L 484.845103 -299.768847 
L 486.539804 -299.878075 
L 488.206021 -299.79642 
L 489.844696 -300.078433 
L 491.456725 -300.650091 
L 493.04296 -301.30006 
L 494.604214 -301.505962 
L 496.141261 -301.948019 
L 497.654842 -302.054983 
L 499.145661 -302.826628 
L 500.614392 -303.584303 
L 502.061682 -303.606099 
L 503.488147 -303.653242 
L 504.894377 -303.916309 
L 506.28094 -304.162668 
L 507.648376 -304.177453 
L 508.997208 -304.511397 
L 510.327934 -304.882468 
L 511.641033 -304.952066 
L 512.936968 -305.155634 
L 514.21618 -305.187384 
L 515.479097 -307.1621 
L 516.726127 -307.156122 
L 517.957665 -307.253722 
L 519.174093 -307.76945 
L 520.375775 -308.142135 
L 521.563066 -308.216407 
L 522.736305 -309.407308 
L 523.895823 -310.67234 
L 525.041935 -311.140809 
L 526.174948 -311.356007 
L 527.295159 -311.430741 
L 528.402853 -311.637201 
L 529.498307 -311.637837 
L 530.581788 -311.7283 
L 531.653556 -312.258769 
L 532.713862 -312.678119 
L 533.762946 -312.883388 
L 534.801046 -312.919487 
L 535.828387 -313.207261 
L 536.845192 -313.488332 
L 537.851674 -314.222947 
L 538.84804 -314.722015 
L 538.84804 -362.619859 
L 538.84804 -362.619859 
L 537.851674 -362.472556 
L 536.845192 -361.78112 
L 535.828387 -361.607289 
L 534.801046 -361.479654 
L 533.762946 -360.761235 
L 532.713862 -360.585257 
L 531.653556 -360.36372 
L 530.581788 -360.303298 
L 529.498307 -360.257977 
L 528.402853 -360.229736 
L 527.295159 -360.193928 
L 526.174948 -360.188709 
L 525.041935 -359.139285 
L 523.895823 -359.004981 
L 522.736305 -358.838113 
L 521.563066 -357.871936 
L 520.375775 -357.80331 
L 519.174093 -357.391557 
L 517.957665 -356.913742 
L 516.726127 -356.881177 
L 515.479097 -356.765703 
L 514.21618 -355.940747 
L 512.936968 -355.918711 
L 511.641033 -355.79902 
L 510.327934 -354.970933 
L 508.997208 -354.084448 
L 507.648376 -353.80428 
L 506.28094 -353.8034 
L 504.894377 -353.740327 
L 503.488147 -353.770618 
L 502.061682 -353.722279 
L 500.614392 -353.704363 
L 499.145661 -353.036506 
L 497.654842 -351.671179 
L 496.141261 -351.612509 
L 494.604214 -349.92905 
L 493.04296 -349.680002 
L 491.456725 -348.627345 
L 489.844696 -348.747652 
L 488.206021 -348.336807 
L 486.539804 -347.07601 
L 484.845103 -346.940251 
L 483.120927 -346.740572 
L 481.366234 -346.703426 
L 479.579923 -346.540683 
L 477.760833 -346.276138 
L 475.907741 -346.006991 
L 474.019348 -345.954498 
L 472.094286 -345.839787 
L 470.131102 -345.642941 
L 468.128254 -345.633138 
L 466.084108 -345.304165 
L 463.996924 -344.940524 
L 461.86485 -344.797661 
L 459.685915 -345.087168 
L 457.45801 -344.616167 
L 455.178884 -344.144879 
L 452.846128 -343.431023 
L 450.457155 -341.928079 
L 448.009189 -341.306049 
L 445.499242 -341.648657 
L 442.924095 -341.674319 
L 440.28027 -341.333302 
L 437.564002 -340.48173 
L 434.771209 -340.228657 
L 431.897454 -337.505047 
L 428.937904 -334.577411 
L 425.887276 -334.508174 
L 422.739786 -333.871308 
L 419.489083 -331.603213 
L 416.128165 -329.352326 
L 412.649296 -328.506971 
L 409.043895 -326.06459 
L 405.30241 -324.094886 
L 401.414164 -323.514626 
L 397.36717 -320.715772 
L 393.147912 -317.641723 
L 388.741072 -314.859816 
L 384.12919 -310.967906 
L 379.292251 -306.824204 
L 374.207157 -300.104188 
L 368.847063 -293.6138 
L 363.180516 -290.283866 
L 357.170338 -286.787699 
L 350.772144 -279.748412 
L 343.932358 -277.638618 
L 336.585472 -274.885844 
L 328.650231 -266.800201 
L 320.024134 -260.361473 
L 310.575312 -252.984138 
L 300.130125 -250.942642 
L 288.4534 -242.812 
L 275.21542 -239.169024 
L 259.933293 -231.184554 
L 241.858374 -226.999069 
L 219.736461 -222.407686 
L 191.216355 -182.78189 
L 151.019523 -182.782447 
L 82.302585 -177.604933 
z
" style="stroke: #bf5b17; stroke-opacity: 0.05"/>
    </defs>
    <g clip-path="url(#p2c76217928)">
     <use xlink:href="#mb0384100a9" x="0" y="395.608955" style="fill: #bf5b17; fill-opacity: 0.05; stroke: #bf5b17; stroke-opacity: 0.05"/>
    </g>
   </g>
   <g id="PolyCollection_5">
    <defs>
     <path id="m5f6d38af5c" d="M 82.302585 -177.604933 
L 82.302585 -111.422303 
L 151.019523 -128.897245 
L 191.216355 -157.326291 
L 219.736461 -157.870602 
L 241.858374 -157.881392 
L 259.933293 -157.8927 
L 275.21542 -157.894998 
L 288.4534 -168.187745 
L 300.130125 -173.623816 
L 310.575312 -173.623928 
L 320.024134 -180.674993 
L 328.650231 -183.321294 
L 336.585472 -183.321294 
L 343.932358 -183.322385 
L 350.772144 -187.927545 
L 357.170338 -206.22001 
L 363.180516 -206.767024 
L 368.847063 -206.767024 
L 374.207157 -206.767024 
L 379.292251 -206.767024 
L 384.12919 -207.352589 
L 388.741072 -207.352589 
L 393.147912 -207.352589 
L 397.36717 -234.268468 
L 401.414164 -234.268468 
L 405.30241 -234.476924 
L 409.043895 -234.570656 
L 412.649296 -235.71938 
L 416.128165 -235.71938 
L 419.489083 -237.457877 
L 422.739786 -237.457877 
L 425.887276 -237.827077 
L 428.937904 -237.827077 
L 431.897454 -238.8973 
L 434.771209 -239.634068 
L 437.564002 -241.36349 
L 440.28027 -241.36349 
L 442.924095 -241.36349 
L 445.499242 -241.36349 
L 448.009189 -241.396466 
L 450.457155 -241.511363 
L 452.846128 -241.579999 
L 455.178884 -241.579999 
L 457.45801 -241.579999 
L 459.685915 -241.579999 
L 461.86485 -241.579999 
L 463.996924 -241.579999 
L 466.084108 -249.300547 
L 468.128254 -249.300547 
L 470.131102 -249.300547 
L 472.094286 -249.312733 
L 474.019348 -249.312733 
L 475.907741 -249.312733 
L 477.760833 -249.312733 
L 479.579923 -249.323351 
L 481.366234 -250.553872 
L 483.120927 -250.556285 
L 484.845103 -250.556285 
L 486.539804 -250.918314 
L 488.206021 -251.660066 
L 489.844696 -251.660066 
L 491.456725 -251.660066 
L 493.04296 -251.722298 
L 494.604214 -252.206704 
L 496.141261 -252.206704 
L 497.654842 -252.301261 
L 499.145661 -252.301261 
L 500.614392 -252.758754 
L 502.061682 -252.761078 
L 503.488147 -252.761078 
L 504.894377 -252.761078 
L 506.28094 -252.761078 
L 507.648376 -252.911393 
L 508.997208 -252.940968 
L 510.327934 -252.940968 
L 511.641033 -252.940968 
L 512.936968 -252.940968 
L 514.21618 -252.940968 
L 515.479097 -253.005843 
L 516.726127 -253.005843 
L 517.957665 -253.005843 
L 519.174093 -253.016657 
L 520.375775 -253.117373 
L 521.563066 -253.117373 
L 522.736305 -253.346049 
L 523.895823 -253.37247 
L 525.041935 -253.37247 
L 526.174948 -253.37247 
L 527.295159 -258.213281 
L 528.402853 -258.213281 
L 529.498307 -269.84431 
L 530.581788 -269.84431 
L 531.653556 -269.9868 
L 532.713862 -269.9868 
L 533.762946 -270.402956 
L 534.801046 -270.465673 
L 535.828387 -270.465673 
L 536.845192 -270.465673 
L 537.851674 -270.592848 
L 538.84804 -270.675939 
L 538.84804 -295.363201 
L 538.84804 -295.363201 
L 537.851674 -295.380862 
L 536.845192 -295.311713 
L 535.828387 -295.311713 
L 534.801046 -295.311713 
L 533.762946 -295.31219 
L 532.713862 -295.024449 
L 531.653556 -295.024449 
L 530.581788 -295.040731 
L 529.498307 -295.040731 
L 528.402853 -290.989119 
L 527.295159 -290.989119 
L 526.174948 -286.831634 
L 525.041935 -286.831634 
L 523.895823 -286.831634 
L 522.736305 -286.803975 
L 521.563066 -286.788463 
L 520.375775 -286.788463 
L 519.174093 -286.772265 
L 517.957665 -286.764847 
L 516.726127 -286.764847 
L 515.479097 -286.764847 
L 514.21618 -286.750645 
L 512.936968 -286.750645 
L 511.641033 -286.750645 
L 510.327934 -286.750645 
L 508.997208 -286.750645 
L 507.648376 -286.731195 
L 506.28094 -286.694539 
L 504.894377 -286.694539 
L 503.488147 -286.694539 
L 502.061682 -286.694539 
L 500.614392 -286.691535 
L 499.145661 -286.645975 
L 497.654842 -286.645975 
L 496.141261 -286.552201 
L 494.604214 -286.552201 
L 493.04296 -286.408414 
L 491.456725 -286.326775 
L 489.844696 -286.326775 
L 488.206021 -286.326775 
L 486.539804 -286.335114 
L 484.845103 -286.307144 
L 483.120927 -286.307144 
L 481.366234 -286.304773 
L 479.579923 -285.791573 
L 477.760833 -285.787311 
L 475.907741 -285.787311 
L 474.019348 -285.787311 
L 472.094286 -285.787311 
L 470.131102 -285.780513 
L 468.128254 -285.780513 
L 466.084108 -285.780513 
L 463.996924 -277.961225 
L 461.86485 -277.961225 
L 459.685915 -277.961225 
L 457.45801 -277.961225 
L 455.178884 -277.961225 
L 452.846128 -277.961225 
L 450.457155 -277.936068 
L 448.009189 -277.91586 
L 445.499242 -277.883698 
L 442.924095 -277.883698 
L 440.28027 -277.883698 
L 437.564002 -277.883698 
L 434.771209 -277.33139 
L 431.897454 -276.743526 
L 428.937904 -276.524737 
L 425.887276 -276.524737 
L 422.739786 -276.441982 
L 419.489083 -276.441982 
L 416.128165 -276.09137 
L 412.649296 -276.09137 
L 409.043895 -275.646464 
L 405.30241 -275.610477 
L 401.414164 -275.39295 
L 397.36717 -275.39295 
L 393.147912 -228.038146 
L 388.741072 -228.038146 
L 384.12919 -228.038146 
L 379.292251 -227.598601 
L 374.207157 -227.598601 
L 368.847063 -227.598601 
L 363.180516 -227.598601 
L 357.170338 -227.415082 
L 350.772144 -213.312213 
L 343.932358 -213.024857 
L 336.585472 -213.025258 
L 328.650231 -213.025258 
L 320.024134 -212.273237 
L 310.575312 -210.465665 
L 300.130125 -210.465552 
L 288.4534 -208.538325 
L 275.21542 -199.988853 
L 259.933293 -199.988805 
L 241.858374 -199.98726 
L 219.736461 -199.990302 
L 191.216355 -200.14987 
L 151.019523 -183.447935 
L 82.302585 -177.604933 
z
" style="stroke: #f0027f; stroke-opacity: 0.05"/>
    </defs>
    <g clip-path="url(#p2c76217928)">
     <use xlink:href="#m5f6d38af5c" x="0" y="395.608955" style="fill: #f0027f; fill-opacity: 0.05; stroke: #f0027f; stroke-opacity: 0.05"/>
    </g>
   </g>
   <g id="PolyCollection_6">
    <defs>
     <path id="m1ee9513523" d="M 82.302585 -177.604933 
L 82.302585 -111.422303 
L 151.019523 -128.897245 
L 191.216355 -157.326291 
L 219.736461 -157.870602 
L 241.858374 -157.881392 
L 259.933293 -157.8927 
L 275.21542 -157.927095 
L 288.4534 -164.623284 
L 300.130125 -168.570064 
L 310.575312 -171.39823 
L 320.024134 -176.36214 
L 328.650231 -176.333907 
L 336.585472 -179.304802 
L 343.932358 -181.879589 
L 350.772144 -184.80896 
L 357.170338 -185.349311 
L 363.180516 -189.188576 
L 368.847063 -193.349092 
L 374.207157 -196.460292 
L 379.292251 -199.441393 
L 384.12919 -204.07834 
L 388.741072 -208.340163 
L 393.147912 -212.370313 
L 397.36717 -218.777579 
L 401.414164 -223.536227 
L 405.30241 -229.38507 
L 409.043895 -233.955902 
L 412.649296 -242.249686 
L 416.128165 -246.886985 
L 419.489083 -251.248255 
L 422.739786 -255.49084 
L 425.887276 -259.162987 
L 428.937904 -261.703201 
L 431.897454 -264.816401 
L 434.771209 -265.971943 
L 437.564002 -270.56537 
L 440.28027 -273.263519 
L 442.924095 -276.021167 
L 445.499242 -277.925686 
L 448.009189 -279.023109 
L 450.457155 -281.635499 
L 452.846128 -283.755753 
L 455.178884 -284.041928 
L 457.45801 -285.899454 
L 459.685915 -287.520682 
L 461.86485 -288.060889 
L 463.996924 -289.25243 
L 466.084108 -290.258818 
L 468.128254 -291.818841 
L 470.131102 -292.127409 
L 472.094286 -293.462512 
L 474.019348 -294.654334 
L 475.907741 -294.216847 
L 477.760833 -294.64719 
L 479.579923 -294.99023 
L 481.366234 -295.039214 
L 483.120927 -295.217859 
L 484.845103 -295.753301 
L 486.539804 -295.922448 
L 488.206021 -297.336612 
L 489.844696 -298.299126 
L 491.456725 -298.676015 
L 493.04296 -298.877761 
L 494.604214 -300.427489 
L 496.141261 -300.466704 
L 497.654842 -300.79591 
L 499.145661 -300.93668 
L 500.614392 -300.962721 
L 502.061682 -301.104696 
L 503.488147 -301.30048 
L 504.894377 -301.884633 
L 506.28094 -302.253029 
L 507.648376 -302.294137 
L 508.997208 -303.368793 
L 510.327934 -304.138107 
L 511.641033 -304.963946 
L 512.936968 -307.365782 
L 514.21618 -307.719124 
L 515.479097 -307.765847 
L 516.726127 -307.439408 
L 517.957665 -307.802615 
L 519.174093 -308.34216 
L 520.375775 -308.577227 
L 521.563066 -309.014585 
L 522.736305 -309.950294 
L 523.895823 -310.516832 
L 525.041935 -310.722707 
L 526.174948 -310.915269 
L 527.295159 -311.61361 
L 528.402853 -312.073287 
L 529.498307 -312.644307 
L 530.581788 -312.662412 
L 531.653556 -312.662762 
L 532.713862 -313.978578 
L 533.762946 -314.100485 
L 534.801046 -314.257168 
L 535.828387 -314.876108 
L 536.845192 -314.953146 
L 537.851674 -315.058137 
L 538.84804 -315.114201 
L 538.84804 -359.573359 
L 538.84804 -359.573359 
L 537.851674 -359.555866 
L 536.845192 -359.543764 
L 535.828387 -359.482253 
L 534.801046 -359.267705 
L 533.762946 -358.286866 
L 532.713862 -357.534624 
L 531.653556 -356.516442 
L 530.581788 -356.510378 
L 529.498307 -356.50703 
L 528.402853 -353.960512 
L 527.295159 -352.009625 
L 526.174948 -351.906507 
L 525.041935 -350.453001 
L 523.895823 -349.243466 
L 522.736305 -348.613689 
L 521.563066 -347.038126 
L 520.375775 -346.608485 
L 519.174093 -345.567181 
L 517.957665 -344.306392 
L 516.726127 -342.710286 
L 515.479097 -341.201692 
L 514.21618 -341.120336 
L 512.936968 -340.899152 
L 511.641033 -341.646217 
L 510.327934 -341.494734 
L 508.997208 -341.226548 
L 507.648376 -340.048303 
L 506.28094 -339.508428 
L 504.894377 -337.093788 
L 503.488147 -335.805949 
L 502.061682 -335.501239 
L 500.614392 -335.008729 
L 499.145661 -334.992542 
L 497.654842 -334.906693 
L 496.141261 -334.668633 
L 494.604214 -334.603119 
L 493.04296 -334.570082 
L 491.456725 -334.487835 
L 489.844696 -333.763907 
L 488.206021 -333.184776 
L 486.539804 -333.197182 
L 484.845103 -332.969863 
L 483.120927 -332.907168 
L 481.366234 -332.797688 
L 479.579923 -332.332049 
L 477.760833 -331.947073 
L 475.907741 -332.181543 
L 474.019348 -330.526428 
L 472.094286 -330.263843 
L 470.131102 -330.25701 
L 468.128254 -329.979891 
L 466.084108 -330.041875 
L 463.996924 -329.708225 
L 461.86485 -329.877597 
L 459.685915 -329.447414 
L 457.45801 -328.027251 
L 455.178884 -327.408734 
L 452.846128 -327.257784 
L 450.457155 -327.326607 
L 448.009189 -327.861062 
L 445.499242 -327.364154 
L 442.924095 -327.100049 
L 440.28027 -326.989425 
L 437.564002 -325.735144 
L 434.771209 -324.639018 
L 431.897454 -323.863767 
L 428.937904 -322.443182 
L 425.887276 -321.632667 
L 422.739786 -320.882268 
L 419.489083 -319.417959 
L 416.128165 -316.846883 
L 412.649296 -314.23661 
L 409.043895 -311.241177 
L 405.30241 -308.648061 
L 401.414164 -305.458519 
L 397.36717 -302.762237 
L 393.147912 -297.312151 
L 388.741072 -293.251427 
L 384.12919 -287.912391 
L 379.292251 -283.673282 
L 374.207157 -280.978693 
L 368.847063 -273.704912 
L 363.180516 -268.966184 
L 357.170338 -262.596809 
L 350.772144 -251.872241 
L 343.932358 -246.619489 
L 336.585472 -239.31808 
L 328.650231 -236.385257 
L 320.024134 -224.934158 
L 310.575312 -217.649417 
L 300.130125 -213.470074 
L 288.4534 -205.327544 
L 275.21542 -199.978657 
L 259.933293 -199.988805 
L 241.858374 -199.98726 
L 219.736461 -199.990302 
L 191.216355 -200.14987 
L 151.019523 -183.447935 
L 82.302585 -177.604933 
z
" style="stroke: #386cb0; stroke-opacity: 0.05"/>
    </defs>
    <g clip-path="url(#p2c76217928)">
     <use xlink:href="#m1ee9513523" x="0" y="395.608955" style="fill: #386cb0; fill-opacity: 0.05; stroke: #386cb0; stroke-opacity: 0.05"/>
    </g>
   </g>
   <g id="PolyCollection_7">
    <defs>
     <path id="m98e55ed6b0" d="M 82.302585 -315.137539 
L 82.302585 -231.34922 
L 151.019523 -249.115074 
L 191.216355 -278.900565 
L 219.736461 -299.148107 
L 241.858374 -308.073056 
L 259.933293 -312.591863 
L 275.21542 -314.790669 
L 288.4534 -317.664975 
L 300.130125 -318.756792 
L 310.575312 -319.534182 
L 320.024134 -320.351662 
L 328.650231 -320.834156 
L 336.585472 -321.065191 
L 343.932358 -321.336365 
L 350.772144 -321.460107 
L 357.170338 -321.668924 
L 363.180516 -321.876986 
L 368.847063 -321.966161 
L 374.207157 -322.061584 
L 379.292251 -322.101082 
L 384.12919 -322.142294 
L 388.741072 -322.172007 
L 393.147912 -322.196719 
L 397.36717 -322.223359 
L 401.414164 -322.233618 
L 405.30241 -322.255626 
L 409.043895 -322.258784 
L 412.649296 -322.276333 
L 416.128165 -322.286684 
L 419.489083 -322.297476 
L 422.739786 -322.304456 
L 425.887276 -322.318124 
L 428.937904 -322.330601 
L 431.897454 -322.339755 
L 434.771209 -322.347527 
L 437.564002 -322.353375 
L 440.28027 -322.359638 
L 442.924095 -322.361481 
L 445.499242 -322.365483 
L 448.009189 -322.366915 
L 450.457155 -322.369044 
L 452.846128 -322.371036 
L 455.178884 -322.37298 
L 457.45801 -322.374337 
L 459.685915 -322.37424 
L 461.86485 -322.374927 
L 463.996924 -322.3756 
L 466.084108 -322.376234 
L 468.128254 -322.37677 
L 470.131102 -322.377233 
L 472.094286 -322.377423 
L 474.019348 -322.377732 
L 475.907741 -322.377933 
L 477.760833 -322.378072 
L 479.579923 -322.378072 
L 481.366234 -322.378072 
L 483.120927 -322.378072 
L 484.845103 -322.378072 
L 486.539804 -322.378072 
L 488.206021 -322.378072 
L 489.844696 -322.378072 
L 491.456725 -322.378072 
L 493.04296 -322.378072 
L 494.604214 -322.378072 
L 496.141261 -322.378072 
L 497.654842 -322.378072 
L 499.145661 -322.378072 
L 500.614392 -322.378072 
L 502.061682 -322.378072 
L 503.488147 -322.378072 
L 504.894377 -322.378072 
L 506.28094 -322.378072 
L 507.648376 -322.378072 
L 508.997208 -322.378072 
L 510.327934 -322.378072 
L 511.641033 -322.378072 
L 512.936968 -322.378072 
L 514.21618 -322.378072 
L 515.479097 -322.378072 
L 516.726127 -322.378072 
L 517.957665 -322.378072 
L 519.174093 -322.378072 
L 520.375775 -322.378072 
L 521.563066 -322.378072 
L 522.736305 -322.378072 
L 523.895823 -322.378072 
L 525.041935 -322.378072 
L 526.174948 -322.378072 
L 527.295159 -322.378072 
L 528.402853 -322.378072 
L 529.498307 -322.378072 
L 530.581788 -322.378072 
L 531.653556 -322.378072 
L 532.713862 -322.378072 
L 533.762946 -322.378072 
L 534.801046 -322.378072 
L 535.828387 -322.378072 
L 536.845192 -322.378072 
L 537.851674 -322.378072 
L 538.84804 -322.378072 
L 538.84804 -367.657779 
L 538.84804 -367.657779 
L 537.851674 -367.657779 
L 536.845192 -367.657779 
L 535.828387 -367.657779 
L 534.801046 -367.657779 
L 533.762946 -367.657779 
L 532.713862 -367.657779 
L 531.653556 -367.657779 
L 530.581788 -367.657779 
L 529.498307 -367.657779 
L 528.402853 -367.657779 
L 527.295159 -367.657779 
L 526.174948 -367.657779 
L 525.041935 -367.657779 
L 523.895823 -367.657779 
L 522.736305 -367.657779 
L 521.563066 -367.657779 
L 520.375775 -367.657779 
L 519.174093 -367.657779 
L 517.957665 -367.657779 
L 516.726127 -367.657779 
L 515.479097 -367.657779 
L 514.21618 -367.657779 
L 512.936968 -367.657779 
L 511.641033 -367.657779 
L 510.327934 -367.657779 
L 508.997208 -367.657779 
L 507.648376 -367.657779 
L 506.28094 -367.657779 
L 504.894377 -367.657779 
L 503.488147 -367.657779 
L 502.061682 -367.657779 
L 500.614392 -367.657779 
L 499.145661 -367.657779 
L 497.654842 -367.657779 
L 496.141261 -367.657779 
L 494.604214 -367.657779 
L 493.04296 -367.657779 
L 491.456725 -367.657779 
L 489.844696 -367.657779 
L 488.206021 -367.657779 
L 486.539804 -367.657779 
L 484.845103 -367.657779 
L 483.120927 -367.657779 
L 481.366234 -367.657779 
L 479.579923 -367.657779 
L 477.760833 -367.657779 
L 475.907741 -367.657784 
L 474.019348 -367.657803 
L 472.094286 -367.657813 
L 470.131102 -367.657644 
L 468.128254 -367.657581 
L 466.084108 -367.657584 
L 463.996924 -367.657644 
L 461.86485 -367.657709 
L 459.685915 -367.657658 
L 457.45801 -367.656655 
L 455.178884 -367.656719 
L 452.846128 -367.656782 
L 450.457155 -367.656891 
L 448.009189 -367.65702 
L 445.499242 -367.655885 
L 442.924095 -367.6561 
L 440.28027 -367.651565 
L 437.564002 -367.651342 
L 434.771209 -367.650464 
L 431.897454 -367.650523 
L 428.937904 -367.649956 
L 425.887276 -367.649954 
L 422.739786 -367.647876 
L 419.489083 -367.638937 
L 416.128165 -367.633743 
L 412.649296 -367.625813 
L 409.043895 -367.62476 
L 405.30241 -367.609182 
L 401.414164 -367.60902 
L 397.36717 -367.595177 
L 393.147912 -367.587852 
L 388.741072 -367.576828 
L 384.12919 -367.570383 
L 379.292251 -367.544776 
L 374.207157 -367.502657 
L 368.847063 -367.453274 
L 363.180516 -367.349573 
L 357.170338 -367.354882 
L 350.772144 -367.354953 
L 343.932358 -367.228387 
L 336.585472 -367.201171 
L 328.650231 -366.965292 
L 320.024134 -366.96768 
L 310.575312 -367.083424 
L 300.130125 -366.93556 
L 288.4534 -366.871585 
L 275.21542 -367.053441 
L 259.933293 -365.636785 
L 241.858374 -364.8497 
L 219.736461 -361.816775 
L 191.216355 -363.500433 
L 151.019523 -358.186257 
L 82.302585 -315.137539 
z
" style="stroke: #666666; stroke-opacity: 0.05"/>
    </defs>
    <g clip-path="url(#p2c76217928)">
     <use xlink:href="#m98e55ed6b0" x="0" y="395.608955" style="fill: #666666; fill-opacity: 0.05; stroke: #666666; stroke-opacity: 0.05"/>
    </g>
   </g>
   <g id="matplotlib.axis_1">
    <g id="xtick_1">
     <g id="line2d_1">
      <path d="M 82.302585 345.471142 
L 82.302585 12.831142 
" clip-path="url(#p2c76217928)" style="fill: none; stroke-dasharray: 1.85,0.8; stroke-dashoffset: 0; stroke: #b0b0b0; stroke-width: 0.5"/>
     </g>
     <g id="line2d_2">
      <defs>
       <path id="mfd7122c047" d="M 0 0 
L 0 3.5 
" style="stroke: #000000; stroke-width: 0.8"/>
      </defs>
      <g>
       <use xlink:href="#mfd7122c047" x="82.302585" y="345.471142" style="stroke: #000000; stroke-width: 0.8"/>
      </g>
     </g>
     <g id="text_1">
      <!-- $\mathdefault{10^{0}}$ -->
      <g transform="translate(69.102585 363.868798) scale(0.15 -0.15)">
       <defs>
        <path id="DejaVuSans-31" d="M 794 531 
L 1825 531 
L 1825 4091 
L 703 3866 
L 703 4441 
L 1819 4666 
L 2450 4666 
L 2450 531 
L 3481 531 
L 3481 0 
L 794 0 
L 794 531 
z
" transform="scale(0.015625)"/>
        <path id="DejaVuSans-30" d="M 2034 4250 
Q 1547 4250 1301 3770 
Q 1056 3291 1056 2328 
Q 1056 1369 1301 889 
Q 1547 409 2034 409 
Q 2525 409 2770 889 
Q 3016 1369 3016 2328 
Q 3016 3291 2770 3770 
Q 2525 4250 2034 4250 
z
M 2034 4750 
Q 2819 4750 3233 4129 
Q 3647 3509 3647 2328 
Q 3647 1150 3233 529 
Q 2819 -91 2034 -91 
Q 1250 -91 836 529 
Q 422 1150 422 2328 
Q 422 3509 836 4129 
Q 1250 4750 2034 4750 
z
" transform="scale(0.015625)"/>
       </defs>
       <use xlink:href="#DejaVuSans-31" transform="translate(0 0.765625)"/>
       <use xlink:href="#DejaVuSans-30" transform="translate(63.623047 0.765625)"/>
       <use xlink:href="#DejaVuSans-30" transform="translate(128.203125 39.046875) scale(0.7)"/>
      </g>
     </g>
    </g>
    <g id="xtick_2">
     <g id="line2d_3">
      <path d="M 310.575312 345.471142 
L 310.575312 12.831142 
" clip-path="url(#p2c76217928)" style="fill: none; stroke-dasharray: 1.85,0.8; stroke-dashoffset: 0; stroke: #b0b0b0; stroke-width: 0.5"/>
     </g>
     <g id="line2d_4">
      <g>
       <use xlink:href="#mfd7122c047" x="310.575312" y="345.471142" style="stroke: #000000; stroke-width: 0.8"/>
      </g>
     </g>
     <g id="text_2">
      <!-- $\mathdefault{10^{1}}$ -->
      <g transform="translate(297.375313 363.868798) scale(0.15 -0.15)">
       <use xlink:href="#DejaVuSans-31" transform="translate(0 0.684375)"/>
       <use xlink:href="#DejaVuSans-30" transform="translate(63.623047 0.684375)"/>
       <use xlink:href="#DejaVuSans-31" transform="translate(128.203125 38.965625) scale(0.7)"/>
      </g>
     </g>
    </g>
    <g id="xtick_3">
     <g id="line2d_5">
      <path d="M 538.84804 345.471142 
L 538.84804 12.831142 
" clip-path="url(#p2c76217928)" style="fill: none; stroke-dasharray: 1.85,0.8; stroke-dashoffset: 0; stroke: #b0b0b0; stroke-width: 0.5"/>
     </g>
     <g id="line2d_6">
      <g>
       <use xlink:href="#mfd7122c047" x="538.84804" y="345.471142" style="stroke: #000000; stroke-width: 0.8"/>
      </g>
     </g>
     <g id="text_3">
      <!-- $\mathdefault{10^{2}}$ -->
      <g transform="translate(525.64804 363.868798) scale(0.15 -0.15)">
       <defs>
        <path id="DejaVuSans-32" d="M 1228 531 
L 3431 531 
L 3431 0 
L 469 0 
L 469 531 
Q 828 903 1448 1529 
Q 2069 2156 2228 2338 
Q 2531 2678 2651 2914 
Q 2772 3150 2772 3378 
Q 2772 3750 2511 3984 
Q 2250 4219 1831 4219 
Q 1534 4219 1204 4116 
Q 875 4013 500 3803 
L 500 4441 
Q 881 4594 1212 4672 
Q 1544 4750 1819 4750 
Q 2544 4750 2975 4387 
Q 3406 4025 3406 3419 
Q 3406 3131 3298 2873 
Q 3191 2616 2906 2266 
Q 2828 2175 2409 1742 
Q 1991 1309 1228 531 
z
" transform="scale(0.015625)"/>
       </defs>
       <use xlink:href="#DejaVuSans-31" transform="translate(0 0.765625)"/>
       <use xlink:href="#DejaVuSans-30" transform="translate(63.623047 0.765625)"/>
       <use xlink:href="#DejaVuSans-32" transform="translate(128.203125 39.046875) scale(0.7)"/>
      </g>
     </g>
    </g>
    <g id="xtick_4">
     <g id="line2d_7">
      <defs>
       <path id="m263de176a6" d="M 0 0 
L 0 2 
" style="stroke: #000000; stroke-width: 0.6"/>
      </defs>
      <g>
       <use xlink:href="#m263de176a6" x="60.180672" y="345.471142" style="stroke: #000000; stroke-width: 0.6"/>
      </g>
     </g>
    </g>
    <g id="xtick_5">
     <g id="line2d_8">
      <g>
       <use xlink:href="#m263de176a6" x="71.857398" y="345.471142" style="stroke: #000000; stroke-width: 0.6"/>
      </g>
     </g>
    </g>
    <g id="xtick_6">
     <g id="line2d_9">
      <g>
       <use xlink:href="#m263de176a6" x="151.019523" y="345.471142" style="stroke: #000000; stroke-width: 0.6"/>
      </g>
     </g>
    </g>
    <g id="xtick_7">
     <g id="line2d_10">
      <g>
       <use xlink:href="#m263de176a6" x="191.216355" y="345.471142" style="stroke: #000000; stroke-width: 0.6"/>
      </g>
     </g>
    </g>
    <g id="xtick_8">
     <g id="line2d_11">
      <g>
       <use xlink:href="#m263de176a6" x="219.736461" y="345.471142" style="stroke: #000000; stroke-width: 0.6"/>
      </g>
     </g>
    </g>
    <g id="xtick_9">
     <g id="line2d_12">
      <g>
       <use xlink:href="#m263de176a6" x="241.858374" y="345.471142" style="stroke: #000000; stroke-width: 0.6"/>
      </g>
     </g>
    </g>
    <g id="xtick_10">
     <g id="line2d_13">
      <g>
       <use xlink:href="#m263de176a6" x="259.933293" y="345.471142" style="stroke: #000000; stroke-width: 0.6"/>
      </g>
     </g>
    </g>
    <g id="xtick_11">
     <g id="line2d_14">
      <g>
       <use xlink:href="#m263de176a6" x="275.21542" y="345.471142" style="stroke: #000000; stroke-width: 0.6"/>
      </g>
     </g>
    </g>
    <g id="xtick_12">
     <g id="line2d_15">
      <g>
       <use xlink:href="#m263de176a6" x="288.4534" y="345.471142" style="stroke: #000000; stroke-width: 0.6"/>
      </g>
     </g>
    </g>
    <g id="xtick_13">
     <g id="line2d_16">
      <g>
       <use xlink:href="#m263de176a6" x="300.130125" y="345.471142" style="stroke: #000000; stroke-width: 0.6"/>
      </g>
     </g>
    </g>
    <g id="xtick_14">
     <g id="line2d_17">
      <g>
       <use xlink:href="#m263de176a6" x="379.292251" y="345.471142" style="stroke: #000000; stroke-width: 0.6"/>
      </g>
     </g>
    </g>
    <g id="xtick_15">
     <g id="line2d_18">
      <g>
       <use xlink:href="#m263de176a6" x="419.489083" y="345.471142" style="stroke: #000000; stroke-width: 0.6"/>
      </g>
     </g>
    </g>
    <g id="xtick_16">
     <g id="line2d_19">
      <g>
       <use xlink:href="#m263de176a6" x="448.009189" y="345.471142" style="stroke: #000000; stroke-width: 0.6"/>
      </g>
     </g>
    </g>
    <g id="xtick_17">
     <g id="line2d_20">
      <g>
       <use xlink:href="#m263de176a6" x="470.131102" y="345.471142" style="stroke: #000000; stroke-width: 0.6"/>
      </g>
     </g>
    </g>
    <g id="xtick_18">
     <g id="line2d_21">
      <g>
       <use xlink:href="#m263de176a6" x="488.206021" y="345.471142" style="stroke: #000000; stroke-width: 0.6"/>
      </g>
     </g>
    </g>
    <g id="xtick_19">
     <g id="line2d_22">
      <g>
       <use xlink:href="#m263de176a6" x="503.488147" y="345.471142" style="stroke: #000000; stroke-width: 0.6"/>
      </g>
     </g>
    </g>
    <g id="xtick_20">
     <g id="line2d_23">
      <g>
       <use xlink:href="#m263de176a6" x="516.726127" y="345.471142" style="stroke: #000000; stroke-width: 0.6"/>
      </g>
     </g>
    </g>
    <g id="xtick_21">
     <g id="line2d_24">
      <g>
       <use xlink:href="#m263de176a6" x="528.402853" y="345.471142" style="stroke: #000000; stroke-width: 0.6"/>
      </g>
     </g>
    </g>
    <g id="text_4">
     <!-- Decision Round -->
     <g transform="translate(240.922344 384.665517) scale(0.18 -0.18)">
      <defs>
       <path id="DejaVuSans-44" d="M 1259 4147 
L 1259 519 
L 2022 519 
Q 2988 519 3436 956 
Q 3884 1394 3884 2338 
Q 3884 3275 3436 3711 
Q 2988 4147 2022 4147 
L 1259 4147 
z
M 628 4666 
L 1925 4666 
Q 3281 4666 3915 4102 
Q 4550 3538 4550 2338 
Q 4550 1131 3912 565 
Q 3275 0 1925 0 
L 628 0 
L 628 4666 
z
" transform="scale(0.015625)"/>
       <path id="DejaVuSans-65" d="M 3597 1894 
L 3597 1613 
L 953 1613 
Q 991 1019 1311 708 
Q 1631 397 2203 397 
Q 2534 397 2845 478 
Q 3156 559 3463 722 
L 3463 178 
Q 3153 47 2828 -22 
Q 2503 -91 2169 -91 
Q 1331 -91 842 396 
Q 353 884 353 1716 
Q 353 2575 817 3079 
Q 1281 3584 2069 3584 
Q 2775 3584 3186 3129 
Q 3597 2675 3597 1894 
z
M 3022 2063 
Q 3016 2534 2758 2815 
Q 2500 3097 2075 3097 
Q 1594 3097 1305 2825 
Q 1016 2553 972 2059 
L 3022 2063 
z
" transform="scale(0.015625)"/>
       <path id="DejaVuSans-63" d="M 3122 3366 
L 3122 2828 
Q 2878 2963 2633 3030 
Q 2388 3097 2138 3097 
Q 1578 3097 1268 2742 
Q 959 2388 959 1747 
Q 959 1106 1268 751 
Q 1578 397 2138 397 
Q 2388 397 2633 464 
Q 2878 531 3122 666 
L 3122 134 
Q 2881 22 2623 -34 
Q 2366 -91 2075 -91 
Q 1284 -91 818 406 
Q 353 903 353 1747 
Q 353 2603 823 3093 
Q 1294 3584 2113 3584 
Q 2378 3584 2631 3529 
Q 2884 3475 3122 3366 
z
" transform="scale(0.015625)"/>
       <path id="DejaVuSans-69" d="M 603 3500 
L 1178 3500 
L 1178 0 
L 603 0 
L 603 3500 
z
M 603 4863 
L 1178 4863 
L 1178 4134 
L 603 4134 
L 603 4863 
z
" transform="scale(0.015625)"/>
       <path id="DejaVuSans-73" d="M 2834 3397 
L 2834 2853 
Q 2591 2978 2328 3040 
Q 2066 3103 1784 3103 
Q 1356 3103 1142 2972 
Q 928 2841 928 2578 
Q 928 2378 1081 2264 
Q 1234 2150 1697 2047 
L 1894 2003 
Q 2506 1872 2764 1633 
Q 3022 1394 3022 966 
Q 3022 478 2636 193 
Q 2250 -91 1575 -91 
Q 1294 -91 989 -36 
Q 684 19 347 128 
L 347 722 
Q 666 556 975 473 
Q 1284 391 1588 391 
Q 1994 391 2212 530 
Q 2431 669 2431 922 
Q 2431 1156 2273 1281 
Q 2116 1406 1581 1522 
L 1381 1569 
Q 847 1681 609 1914 
Q 372 2147 372 2553 
Q 372 3047 722 3315 
Q 1072 3584 1716 3584 
Q 2034 3584 2315 3537 
Q 2597 3491 2834 3397 
z
" transform="scale(0.015625)"/>
       <path id="DejaVuSans-6f" d="M 1959 3097 
Q 1497 3097 1228 2736 
Q 959 2375 959 1747 
Q 959 1119 1226 758 
Q 1494 397 1959 397 
Q 2419 397 2687 759 
Q 2956 1122 2956 1747 
Q 2956 2369 2687 2733 
Q 2419 3097 1959 3097 
z
M 1959 3584 
Q 2709 3584 3137 3096 
Q 3566 2609 3566 1747 
Q 3566 888 3137 398 
Q 2709 -91 1959 -91 
Q 1206 -91 779 398 
Q 353 888 353 1747 
Q 353 2609 779 3096 
Q 1206 3584 1959 3584 
z
" transform="scale(0.015625)"/>
       <path id="DejaVuSans-6e" d="M 3513 2113 
L 3513 0 
L 2938 0 
L 2938 2094 
Q 2938 2591 2744 2837 
Q 2550 3084 2163 3084 
Q 1697 3084 1428 2787 
Q 1159 2491 1159 1978 
L 1159 0 
L 581 0 
L 581 3500 
L 1159 3500 
L 1159 2956 
Q 1366 3272 1645 3428 
Q 1925 3584 2291 3584 
Q 2894 3584 3203 3211 
Q 3513 2838 3513 2113 
z
" transform="scale(0.015625)"/>
       <path id="DejaVuSans-20" transform="scale(0.015625)"/>
       <path id="DejaVuSans-52" d="M 2841 2188 
Q 3044 2119 3236 1894 
Q 3428 1669 3622 1275 
L 4263 0 
L 3584 0 
L 2988 1197 
Q 2756 1666 2539 1819 
Q 2322 1972 1947 1972 
L 1259 1972 
L 1259 0 
L 628 0 
L 628 4666 
L 2053 4666 
Q 2853 4666 3247 4331 
Q 3641 3997 3641 3322 
Q 3641 2881 3436 2590 
Q 3231 2300 2841 2188 
z
M 1259 4147 
L 1259 2491 
L 2053 2491 
Q 2509 2491 2742 2702 
Q 2975 2913 2975 3322 
Q 2975 3731 2742 3939 
Q 2509 4147 2053 4147 
L 1259 4147 
z
" transform="scale(0.015625)"/>
       <path id="DejaVuSans-75" d="M 544 1381 
L 544 3500 
L 1119 3500 
L 1119 1403 
Q 1119 906 1312 657 
Q 1506 409 1894 409 
Q 2359 409 2629 706 
Q 2900 1003 2900 1516 
L 2900 3500 
L 3475 3500 
L 3475 0 
L 2900 0 
L 2900 538 
Q 2691 219 2414 64 
Q 2138 -91 1772 -91 
Q 1169 -91 856 284 
Q 544 659 544 1381 
z
M 1991 3584 
L 1991 3584 
z
" transform="scale(0.015625)"/>
       <path id="DejaVuSans-64" d="M 2906 2969 
L 2906 4863 
L 3481 4863 
L 3481 0 
L 2906 0 
L 2906 525 
Q 2725 213 2448 61 
Q 2172 -91 1784 -91 
Q 1150 -91 751 415 
Q 353 922 353 1747 
Q 353 2572 751 3078 
Q 1150 3584 1784 3584 
Q 2172 3584 2448 3432 
Q 2725 3281 2906 2969 
z
M 947 1747 
Q 947 1113 1208 752 
Q 1469 391 1925 391 
Q 2381 391 2643 752 
Q 2906 1113 2906 1747 
Q 2906 2381 2643 2742 
Q 2381 3103 1925 3103 
Q 1469 3103 1208 2742 
Q 947 2381 947 1747 
z
" transform="scale(0.015625)"/>
      </defs>
      <use xlink:href="#DejaVuSans-44"/>
      <use xlink:href="#DejaVuSans-65" x="77.001953"/>
      <use xlink:href="#DejaVuSans-63" x="138.525391"/>
      <use xlink:href="#DejaVuSans-69" x="193.505859"/>
      <use xlink:href="#DejaVuSans-73" x="221.289062"/>
      <use xlink:href="#DejaVuSans-69" x="273.388672"/>
      <use xlink:href="#DejaVuSans-6f" x="301.171875"/>
      <use xlink:href="#DejaVuSans-6e" x="362.353516"/>
      <use xlink:href="#DejaVuSans-20" x="425.732422"/>
      <use xlink:href="#DejaVuSans-52" x="457.519531"/>
      <use xlink:href="#DejaVuSans-6f" x="522.501953"/>
      <use xlink:href="#DejaVuSans-75" x="583.683594"/>
      <use xlink:href="#DejaVuSans-6e" x="647.0625"/>
      <use xlink:href="#DejaVuSans-64" x="710.441406"/>
     </g>
    </g>
   </g>
   <g id="matplotlib.axis_2">
    <g id="ytick_1">
     <g id="line2d_25">
      <path d="M 59.475313 338.493545 
L 561.675313 338.493545 
" clip-path="url(#p2c76217928)" style="fill: none; stroke-dasharray: 1.85,0.8; stroke-dashoffset: 0; stroke: #b0b0b0; stroke-width: 0.5"/>
     </g>
     <g id="line2d_26">
      <defs>
       <path id="m3f0dc54413" d="M 0 0 
L -3.5 0 
" style="stroke: #000000; stroke-width: 0.8"/>
      </defs>
      <g>
       <use xlink:href="#m3f0dc54413" x="59.475313" y="338.493545" style="stroke: #000000; stroke-width: 0.8"/>
      </g>
     </g>
     <g id="text_5">
      <!-- 0.1 -->
      <g transform="translate(28.620625 344.192373) scale(0.15 -0.15)">
       <defs>
        <path id="DejaVuSans-2e" d="M 684 794 
L 1344 794 
L 1344 0 
L 684 0 
L 684 794 
z
" transform="scale(0.015625)"/>
       </defs>
       <use xlink:href="#DejaVuSans-30"/>
       <use xlink:href="#DejaVuSans-2e" x="63.623047"/>
       <use xlink:href="#DejaVuSans-31" x="95.410156"/>
      </g>
     </g>
    </g>
    <g id="ytick_2">
     <g id="line2d_27">
      <path d="M 59.475313 284.227758 
L 561.675313 284.227758 
" clip-path="url(#p2c76217928)" style="fill: none; stroke-dasharray: 1.85,0.8; stroke-dashoffset: 0; stroke: #b0b0b0; stroke-width: 0.5"/>
     </g>
     <g id="line2d_28">
      <g>
       <use xlink:href="#m3f0dc54413" x="59.475313" y="284.227758" style="stroke: #000000; stroke-width: 0.8"/>
      </g>
     </g>
     <g id="text_6">
      <!-- 0.2 -->
      <g transform="translate(28.620625 289.926587) scale(0.15 -0.15)">
       <use xlink:href="#DejaVuSans-30"/>
       <use xlink:href="#DejaVuSans-2e" x="63.623047"/>
       <use xlink:href="#DejaVuSans-32" x="95.410156"/>
      </g>
     </g>
    </g>
    <g id="ytick_3">
     <g id="line2d_29">
      <path d="M 59.475313 229.961972 
L 561.675313 229.961972 
" clip-path="url(#p2c76217928)" style="fill: none; stroke-dasharray: 1.85,0.8; stroke-dashoffset: 0; stroke: #b0b0b0; stroke-width: 0.5"/>
     </g>
     <g id="line2d_30">
      <g>
       <use xlink:href="#m3f0dc54413" x="59.475313" y="229.961972" style="stroke: #000000; stroke-width: 0.8"/>
      </g>
     </g>
     <g id="text_7">
      <!-- 0.3 -->
      <g transform="translate(28.620625 235.660801) scale(0.15 -0.15)">
       <defs>
        <path id="DejaVuSans-33" d="M 2597 2516 
Q 3050 2419 3304 2112 
Q 3559 1806 3559 1356 
Q 3559 666 3084 287 
Q 2609 -91 1734 -91 
Q 1441 -91 1130 -33 
Q 819 25 488 141 
L 488 750 
Q 750 597 1062 519 
Q 1375 441 1716 441 
Q 2309 441 2620 675 
Q 2931 909 2931 1356 
Q 2931 1769 2642 2001 
Q 2353 2234 1838 2234 
L 1294 2234 
L 1294 2753 
L 1863 2753 
Q 2328 2753 2575 2939 
Q 2822 3125 2822 3475 
Q 2822 3834 2567 4026 
Q 2313 4219 1838 4219 
Q 1578 4219 1281 4162 
Q 984 4106 628 3988 
L 628 4550 
Q 988 4650 1302 4700 
Q 1616 4750 1894 4750 
Q 2613 4750 3031 4423 
Q 3450 4097 3450 3541 
Q 3450 3153 3228 2886 
Q 3006 2619 2597 2516 
z
" transform="scale(0.015625)"/>
       </defs>
       <use xlink:href="#DejaVuSans-30"/>
       <use xlink:href="#DejaVuSans-2e" x="63.623047"/>
       <use xlink:href="#DejaVuSans-33" x="95.410156"/>
      </g>
     </g>
    </g>
    <g id="ytick_4">
     <g id="line2d_31">
      <path d="M 59.475313 175.696186 
L 561.675313 175.696186 
" clip-path="url(#p2c76217928)" style="fill: none; stroke-dasharray: 1.85,0.8; stroke-dashoffset: 0; stroke: #b0b0b0; stroke-width: 0.5"/>
     </g>
     <g id="line2d_32">
      <g>
       <use xlink:href="#m3f0dc54413" x="59.475313" y="175.696186" style="stroke: #000000; stroke-width: 0.8"/>
      </g>
     </g>
     <g id="text_8">
      <!-- 0.4 -->
      <g transform="translate(28.620625 181.395014) scale(0.15 -0.15)">
       <defs>
        <path id="DejaVuSans-34" d="M 2419 4116 
L 825 1625 
L 2419 1625 
L 2419 4116 
z
M 2253 4666 
L 3047 4666 
L 3047 1625 
L 3713 1625 
L 3713 1100 
L 3047 1100 
L 3047 0 
L 2419 0 
L 2419 1100 
L 313 1100 
L 313 1709 
L 2253 4666 
z
" transform="scale(0.015625)"/>
       </defs>
       <use xlink:href="#DejaVuSans-30"/>
       <use xlink:href="#DejaVuSans-2e" x="63.623047"/>
       <use xlink:href="#DejaVuSans-34" x="95.410156"/>
      </g>
     </g>
    </g>
    <g id="ytick_5">
     <g id="line2d_33">
      <path d="M 59.475313 121.4304 
L 561.675313 121.4304 
" clip-path="url(#p2c76217928)" style="fill: none; stroke-dasharray: 1.85,0.8; stroke-dashoffset: 0; stroke: #b0b0b0; stroke-width: 0.5"/>
     </g>
     <g id="line2d_34">
      <g>
       <use xlink:href="#m3f0dc54413" x="59.475313" y="121.4304" style="stroke: #000000; stroke-width: 0.8"/>
      </g>
     </g>
     <g id="text_9">
      <!-- 0.5 -->
      <g transform="translate(28.620625 127.129228) scale(0.15 -0.15)">
       <defs>
        <path id="DejaVuSans-35" d="M 691 4666 
L 3169 4666 
L 3169 4134 
L 1269 4134 
L 1269 2991 
Q 1406 3038 1543 3061 
Q 1681 3084 1819 3084 
Q 2600 3084 3056 2656 
Q 3513 2228 3513 1497 
Q 3513 744 3044 326 
Q 2575 -91 1722 -91 
Q 1428 -91 1123 -41 
Q 819 9 494 109 
L 494 744 
Q 775 591 1075 516 
Q 1375 441 1709 441 
Q 2250 441 2565 725 
Q 2881 1009 2881 1497 
Q 2881 1984 2565 2268 
Q 2250 2553 1709 2553 
Q 1456 2553 1204 2497 
Q 953 2441 691 2322 
L 691 4666 
z
" transform="scale(0.015625)"/>
       </defs>
       <use xlink:href="#DejaVuSans-30"/>
       <use xlink:href="#DejaVuSans-2e" x="63.623047"/>
       <use xlink:href="#DejaVuSans-35" x="95.410156"/>
      </g>
     </g>
    </g>
    <g id="ytick_6">
     <g id="line2d_35">
      <path d="M 59.475313 67.164614 
L 561.675313 67.164614 
" clip-path="url(#p2c76217928)" style="fill: none; stroke-dasharray: 1.85,0.8; stroke-dashoffset: 0; stroke: #b0b0b0; stroke-width: 0.5"/>
     </g>
     <g id="line2d_36">
      <g>
       <use xlink:href="#m3f0dc54413" x="59.475313" y="67.164614" style="stroke: #000000; stroke-width: 0.8"/>
      </g>
     </g>
     <g id="text_10">
      <!-- 0.6 -->
      <g transform="translate(28.620625 72.863442) scale(0.15 -0.15)">
       <defs>
        <path id="DejaVuSans-36" d="M 2113 2584 
Q 1688 2584 1439 2293 
Q 1191 2003 1191 1497 
Q 1191 994 1439 701 
Q 1688 409 2113 409 
Q 2538 409 2786 701 
Q 3034 994 3034 1497 
Q 3034 2003 2786 2293 
Q 2538 2584 2113 2584 
z
M 3366 4563 
L 3366 3988 
Q 3128 4100 2886 4159 
Q 2644 4219 2406 4219 
Q 1781 4219 1451 3797 
Q 1122 3375 1075 2522 
Q 1259 2794 1537 2939 
Q 1816 3084 2150 3084 
Q 2853 3084 3261 2657 
Q 3669 2231 3669 1497 
Q 3669 778 3244 343 
Q 2819 -91 2113 -91 
Q 1303 -91 875 529 
Q 447 1150 447 2328 
Q 447 3434 972 4092 
Q 1497 4750 2381 4750 
Q 2619 4750 2861 4703 
Q 3103 4656 3366 4563 
z
" transform="scale(0.015625)"/>
       </defs>
       <use xlink:href="#DejaVuSans-30"/>
       <use xlink:href="#DejaVuSans-2e" x="63.623047"/>
       <use xlink:href="#DejaVuSans-36" x="95.410156"/>
      </g>
     </g>
    </g>
    <g id="ytick_7">
     <g id="line2d_37">
      <path d="M 59.475313 12.898828 
L 561.675313 12.898828 
" clip-path="url(#p2c76217928)" style="fill: none; stroke-dasharray: 1.85,0.8; stroke-dashoffset: 0; stroke: #b0b0b0; stroke-width: 0.5"/>
     </g>
     <g id="line2d_38">
      <g>
       <use xlink:href="#m3f0dc54413" x="59.475313" y="12.898828" style="stroke: #000000; stroke-width: 0.8"/>
      </g>
     </g>
     <g id="text_11">
      <!-- 0.7 -->
      <g transform="translate(28.620625 18.597656) scale(0.15 -0.15)">
       <defs>
        <path id="DejaVuSans-37" d="M 525 4666 
L 3525 4666 
L 3525 4397 
L 1831 0 
L 1172 0 
L 2766 4134 
L 525 4134 
L 525 4666 
z
" transform="scale(0.015625)"/>
       </defs>
       <use xlink:href="#DejaVuSans-30"/>
       <use xlink:href="#DejaVuSans-2e" x="63.623047"/>
       <use xlink:href="#DejaVuSans-37" x="95.410156"/>
      </g>
     </g>
    </g>
    <g id="text_12">
     <!-- Normalized Performance -->
     <g transform="translate(20.877187 290.078955) rotate(-90) scale(0.18 -0.18)">
      <defs>
       <path id="DejaVuSans-4e" d="M 628 4666 
L 1478 4666 
L 3547 763 
L 3547 4666 
L 4159 4666 
L 4159 0 
L 3309 0 
L 1241 3903 
L 1241 0 
L 628 0 
L 628 4666 
z
" transform="scale(0.015625)"/>
       <path id="DejaVuSans-72" d="M 2631 2963 
Q 2534 3019 2420 3045 
Q 2306 3072 2169 3072 
Q 1681 3072 1420 2755 
Q 1159 2438 1159 1844 
L 1159 0 
L 581 0 
L 581 3500 
L 1159 3500 
L 1159 2956 
Q 1341 3275 1631 3429 
Q 1922 3584 2338 3584 
Q 2397 3584 2469 3576 
Q 2541 3569 2628 3553 
L 2631 2963 
z
" transform="scale(0.015625)"/>
       <path id="DejaVuSans-6d" d="M 3328 2828 
Q 3544 3216 3844 3400 
Q 4144 3584 4550 3584 
Q 5097 3584 5394 3201 
Q 5691 2819 5691 2113 
L 5691 0 
L 5113 0 
L 5113 2094 
Q 5113 2597 4934 2840 
Q 4756 3084 4391 3084 
Q 3944 3084 3684 2787 
Q 3425 2491 3425 1978 
L 3425 0 
L 2847 0 
L 2847 2094 
Q 2847 2600 2669 2842 
Q 2491 3084 2119 3084 
Q 1678 3084 1418 2786 
Q 1159 2488 1159 1978 
L 1159 0 
L 581 0 
L 581 3500 
L 1159 3500 
L 1159 2956 
Q 1356 3278 1631 3431 
Q 1906 3584 2284 3584 
Q 2666 3584 2933 3390 
Q 3200 3197 3328 2828 
z
" transform="scale(0.015625)"/>
       <path id="DejaVuSans-61" d="M 2194 1759 
Q 1497 1759 1228 1600 
Q 959 1441 959 1056 
Q 959 750 1161 570 
Q 1363 391 1709 391 
Q 2188 391 2477 730 
Q 2766 1069 2766 1631 
L 2766 1759 
L 2194 1759 
z
M 3341 1997 
L 3341 0 
L 2766 0 
L 2766 531 
Q 2569 213 2275 61 
Q 1981 -91 1556 -91 
Q 1019 -91 701 211 
Q 384 513 384 1019 
Q 384 1609 779 1909 
Q 1175 2209 1959 2209 
L 2766 2209 
L 2766 2266 
Q 2766 2663 2505 2880 
Q 2244 3097 1772 3097 
Q 1472 3097 1187 3025 
Q 903 2953 641 2809 
L 641 3341 
Q 956 3463 1253 3523 
Q 1550 3584 1831 3584 
Q 2591 3584 2966 3190 
Q 3341 2797 3341 1997 
z
" transform="scale(0.015625)"/>
       <path id="DejaVuSans-6c" d="M 603 4863 
L 1178 4863 
L 1178 0 
L 603 0 
L 603 4863 
z
" transform="scale(0.015625)"/>
       <path id="DejaVuSans-7a" d="M 353 3500 
L 3084 3500 
L 3084 2975 
L 922 459 
L 3084 459 
L 3084 0 
L 275 0 
L 275 525 
L 2438 3041 
L 353 3041 
L 353 3500 
z
" transform="scale(0.015625)"/>
       <path id="DejaVuSans-50" d="M 1259 4147 
L 1259 2394 
L 2053 2394 
Q 2494 2394 2734 2622 
Q 2975 2850 2975 3272 
Q 2975 3691 2734 3919 
Q 2494 4147 2053 4147 
L 1259 4147 
z
M 628 4666 
L 2053 4666 
Q 2838 4666 3239 4311 
Q 3641 3956 3641 3272 
Q 3641 2581 3239 2228 
Q 2838 1875 2053 1875 
L 1259 1875 
L 1259 0 
L 628 0 
L 628 4666 
z
" transform="scale(0.015625)"/>
       <path id="DejaVuSans-66" d="M 2375 4863 
L 2375 4384 
L 1825 4384 
Q 1516 4384 1395 4259 
Q 1275 4134 1275 3809 
L 1275 3500 
L 2222 3500 
L 2222 3053 
L 1275 3053 
L 1275 0 
L 697 0 
L 697 3053 
L 147 3053 
L 147 3500 
L 697 3500 
L 697 3744 
Q 697 4328 969 4595 
Q 1241 4863 1831 4863 
L 2375 4863 
z
" transform="scale(0.015625)"/>
      </defs>
      <use xlink:href="#DejaVuSans-4e"/>
      <use xlink:href="#DejaVuSans-6f" x="74.804688"/>
      <use xlink:href="#DejaVuSans-72" x="135.986328"/>
      <use xlink:href="#DejaVuSans-6d" x="175.349609"/>
      <use xlink:href="#DejaVuSans-61" x="272.761719"/>
      <use xlink:href="#DejaVuSans-6c" x="334.041016"/>
      <use xlink:href="#DejaVuSans-69" x="361.824219"/>
      <use xlink:href="#DejaVuSans-7a" x="389.607422"/>
      <use xlink:href="#DejaVuSans-65" x="442.097656"/>
      <use xlink:href="#DejaVuSans-64" x="503.621094"/>
      <use xlink:href="#DejaVuSans-20" x="567.097656"/>
      <use xlink:href="#DejaVuSans-50" x="598.884766"/>
      <use xlink:href="#DejaVuSans-65" x="655.5625"/>
      <use xlink:href="#DejaVuSans-72" x="717.085938"/>
      <use xlink:href="#DejaVuSans-66" x="758.199219"/>
      <use xlink:href="#DejaVuSans-6f" x="793.404297"/>
      <use xlink:href="#DejaVuSans-72" x="854.585938"/>
      <use xlink:href="#DejaVuSans-6d" x="893.949219"/>
      <use xlink:href="#DejaVuSans-61" x="991.361328"/>
      <use xlink:href="#DejaVuSans-6e" x="1052.640625"/>
      <use xlink:href="#DejaVuSans-63" x="1116.019531"/>
      <use xlink:href="#DejaVuSans-65" x="1171"/>
     </g>
    </g>
   </g>
   <g id="line2d_39">
    <path d="M 82.302585 281.790053 
L 151.019523 281.790053 
L 191.216355 281.790053 
L 219.736461 281.790053 
L 241.858374 281.790053 
L 259.933293 281.790053 
L 275.21542 281.790053 
L 288.4534 281.790053 
L 300.130125 281.790053 
L 310.575312 281.790053 
L 320.024134 281.790053 
L 328.650231 281.790053 
L 336.585472 281.790053 
L 343.932358 281.790053 
L 350.772144 281.790053 
L 357.170338 281.790053 
L 363.180516 281.790053 
L 368.847063 281.790053 
L 374.207157 281.790053 
L 379.292251 281.790053 
L 384.12919 281.790053 
L 388.741072 281.790053 
L 393.147912 281.790053 
L 397.36717 281.790053 
L 401.414164 281.790053 
L 405.30241 281.790053 
L 409.043895 281.790053 
L 412.649296 281.790053 
L 416.128165 281.790053 
L 419.489083 281.790053 
L 422.739786 281.790053 
L 425.887276 281.790053 
L 428.937904 281.790053 
L 431.897454 281.790053 
L 434.771209 281.790053 
L 437.564002 281.790053 
L 440.28027 281.790053 
L 442.924095 281.790053 
L 445.499242 281.790053 
L 448.009189 281.790053 
L 450.457155 281.790053 
L 452.846128 281.790053 
L 455.178884 281.790053 
L 457.45801 281.790053 
L 459.685915 281.790053 
L 461.86485 281.790053 
L 463.996924 281.790053 
L 466.084108 281.790053 
L 468.128254 281.790053 
L 470.131102 281.790053 
L 472.094286 281.790053 
L 474.019348 281.790053 
L 475.907741 281.790053 
L 477.760833 281.790053 
L 479.579923 281.790053 
L 481.366234 281.790053 
L 483.120927 281.790053 
L 484.845103 281.790053 
L 486.539804 281.790053 
L 488.206021 281.790053 
L 489.844696 281.790053 
L 491.456725 281.790053 
L 493.04296 281.790053 
L 494.604214 281.790053 
L 496.141261 281.790053 
L 497.654842 281.790053 
L 499.145661 281.790053 
L 500.614392 281.790053 
L 502.061682 281.790053 
L 503.488147 281.790053 
L 504.894377 281.790053 
L 506.28094 281.790053 
L 507.648376 281.790053 
L 508.997208 281.790053 
L 510.327934 281.790053 
L 511.641033 281.790053 
L 512.936968 281.790053 
L 514.21618 281.790053 
L 515.479097 281.790053 
L 516.726127 281.790053 
L 517.957665 281.790053 
L 519.174093 281.790053 
L 520.375775 281.790053 
L 521.563066 281.790053 
L 522.736305 281.790053 
L 523.895823 281.790053 
L 525.041935 281.790053 
L 526.174948 281.790053 
L 527.295159 281.790053 
L 528.402853 281.790053 
L 529.498307 281.790053 
L 530.581788 281.790053 
L 531.653556 281.790053 
L 532.713862 281.790053 
L 533.762946 281.790053 
L 534.801046 281.790053 
L 535.828387 281.790053 
L 536.845192 281.790053 
L 537.851674 281.790053 
L 538.84804 281.790053 
" clip-path="url(#p2c76217928)" style="fill: none; stroke-dasharray: 11.1,4.8; stroke-dashoffset: 0; stroke: #fdc086; stroke-width: 3"/>
   </g>
   <g id="line2d_40">
    <path d="M 82.302585 187.188794 
L 151.019523 187.188794 
L 191.216355 187.188794 
L 219.736461 187.188794 
L 241.858374 187.188794 
L 259.933293 187.188794 
L 275.21542 187.188794 
L 288.4534 187.188794 
L 300.130125 187.188794 
L 310.575312 187.188794 
L 320.024134 187.188794 
L 328.650231 187.188794 
L 336.585472 187.188794 
L 343.932358 187.188794 
L 350.772144 187.188794 
L 357.170338 187.188794 
L 363.180516 187.188794 
L 368.847063 187.188794 
L 374.207157 187.188794 
L 379.292251 187.188794 
L 384.12919 187.188794 
L 388.741072 187.188794 
L 393.147912 187.188794 
L 397.36717 187.188794 
L 401.414164 187.188794 
L 405.30241 187.188794 
L 409.043895 187.188794 
L 412.649296 187.188794 
L 416.128165 187.188794 
L 419.489083 187.188794 
L 422.739786 187.188794 
L 425.887276 187.188794 
L 428.937904 187.188794 
L 431.897454 187.188794 
L 434.771209 187.188794 
L 437.564002 187.188794 
L 440.28027 187.188794 
L 442.924095 187.188794 
L 445.499242 187.188794 
L 448.009189 187.188794 
L 450.457155 187.188794 
L 452.846128 187.188794 
L 455.178884 187.188794 
L 457.45801 187.188794 
L 459.685915 187.188794 
L 461.86485 187.188794 
L 463.996924 187.188794 
L 466.084108 187.188794 
L 468.128254 187.188794 
L 470.131102 187.188794 
L 472.094286 187.188794 
L 474.019348 187.188794 
L 475.907741 187.188794 
L 477.760833 187.188794 
L 479.579923 187.188794 
L 481.366234 187.188794 
L 483.120927 187.188794 
L 484.845103 187.188794 
L 486.539804 187.188794 
L 488.206021 187.188794 
L 489.844696 187.188794 
L 491.456725 187.188794 
L 493.04296 187.188794 
L 494.604214 187.188794 
L 496.141261 187.188794 
L 497.654842 187.188794 
L 499.145661 187.188794 
L 500.614392 187.188794 
L 502.061682 187.188794 
L 503.488147 187.188794 
L 504.894377 187.188794 
L 506.28094 187.188794 
L 507.648376 187.188794 
L 508.997208 187.188794 
L 510.327934 187.188794 
L 511.641033 187.188794 
L 512.936968 187.188794 
L 514.21618 187.188794 
L 515.479097 187.188794 
L 516.726127 187.188794 
L 517.957665 187.188794 
L 519.174093 187.188794 
L 520.375775 187.188794 
L 521.563066 187.188794 
L 522.736305 187.188794 
L 523.895823 187.188794 
L 525.041935 187.188794 
L 526.174948 187.188794 
L 527.295159 187.188794 
L 528.402853 187.188794 
L 529.498307 187.188794 
L 530.581788 187.188794 
L 531.653556 187.188794 
L 532.713862 187.188794 
L 533.762946 187.188794 
L 534.801046 187.188794 
L 535.828387 187.188794 
L 536.845192 187.188794 
L 537.851674 187.188794 
L 538.84804 187.188794 
" clip-path="url(#p2c76217928)" style="fill: none; stroke-dasharray: 11.1,4.8; stroke-dashoffset: 0; stroke: #beaed4; stroke-width: 3"/>
   </g>
   <g id="line2d_41">
    <path d="M 82.302585 276.437682 
L 151.019523 247.594878 
L 191.216355 227.50795 
L 219.736461 211.063815 
L 241.858374 201.82301 
L 259.933293 191.031436 
L 275.21542 187.10251 
L 288.4534 181.211282 
L 300.130125 176.226688 
L 310.575312 170.501656 
L 320.024134 166.031465 
L 328.650231 162.423451 
L 336.585472 157.174845 
L 343.932358 154.216805 
L 350.772144 151.797353 
L 357.170338 148.74468 
L 363.180516 146.405168 
L 368.847063 144.640049 
L 374.207157 143.525097 
L 379.292251 141.834377 
L 384.12919 140.60741 
L 388.741072 139.560739 
L 393.147912 137.567639 
L 397.36717 135.897466 
L 401.414164 133.558026 
L 405.30241 131.503497 
L 409.043895 128.923906 
L 412.649296 128.31853 
L 416.128165 127.581611 
L 419.489083 126.764373 
L 422.739786 125.847744 
L 425.887276 124.141539 
L 428.937904 122.955915 
L 431.897454 120.712977 
L 434.771209 119.501716 
L 437.564002 118.88234 
L 440.28027 117.787689 
L 442.924095 117.12096 
L 445.499242 116.115016 
L 448.009189 115.698796 
L 450.457155 115.234266 
L 452.846128 113.229838 
L 455.178884 111.103259 
L 457.45801 109.374964 
L 459.685915 109.066334 
L 461.86485 109.009088 
L 463.996924 108.465345 
L 466.084108 107.466125 
L 468.128254 106.224861 
L 470.131102 105.828187 
L 472.094286 104.59536 
L 474.019348 103.691852 
L 475.907741 103.297205 
L 477.760833 102.610164 
L 479.579923 101.685467 
L 481.366234 101.4287 
L 483.120927 100.827233 
L 484.845103 100.103398 
L 486.539804 100.006434 
L 488.206021 99.881774 
L 489.844696 99.210087 
L 491.456725 98.196527 
L 493.04296 97.160579 
L 494.604214 96.76305 
L 496.141261 95.891375 
L 497.654842 95.14835 
L 499.145661 94.639753 
L 500.614392 94.370057 
L 502.061682 93.42077 
L 503.488147 93.114967 
L 504.894377 92.235939 
L 506.28094 92.141679 
L 507.648376 91.8503 
L 508.997208 91.467284 
L 510.327934 91.429071 
L 511.641033 91.397504 
L 512.936968 91.057099 
L 514.21618 90.090059 
L 515.479097 89.930646 
L 516.726127 89.31049 
L 517.957665 88.749521 
L 519.174093 88.353971 
L 520.375775 88.27866 
L 521.563066 87.477597 
L 522.736305 87.342353 
L 523.895823 86.990919 
L 525.041935 86.69793 
L 526.174948 84.529007 
L 527.295159 83.555932 
L 528.402853 83.331463 
L 529.498307 82.990019 
L 530.581788 82.581764 
L 531.653556 82.171029 
L 532.713862 81.40504 
L 533.762946 80.726611 
L 534.801046 80.382423 
L 535.828387 80.352251 
L 536.845192 79.406025 
L 537.851674 79.174852 
L 538.84804 77.703752 
" clip-path="url(#p2c76217928)" style="fill: none; stroke: #7fc97f; stroke-width: 3; stroke-linecap: square"/>
   </g>
   <g id="line2d_42">
    <path d="M 82.302585 251.095337 
L 151.019523 248.645146 
L 191.216355 248.621851 
L 219.736461 217.175759 
L 241.858374 205.645279 
L 259.933293 198.573732 
L 275.21542 191.505607 
L 288.4534 188.491271 
L 300.130125 183.516288 
L 310.575312 180.347564 
L 320.024134 174.243738 
L 328.650231 168.660576 
L 336.585472 162.984139 
L 343.932358 159.742324 
L 350.772144 157.752685 
L 357.170338 152.638545 
L 363.180516 149.469218 
L 368.847063 146.333464 
L 374.207157 141.210313 
L 379.292251 135.173216 
L 384.12919 131.248679 
L 388.741072 127.327538 
L 393.147912 123.652318 
L 397.36717 118.984175 
L 401.414164 116.22941 
L 405.30241 115.308528 
L 409.043895 113.389936 
L 412.649296 108.99885 
L 416.128165 106.781225 
L 419.489083 103.701447 
L 422.739786 99.955216 
L 425.887276 97.439295 
L 428.937904 96.506304 
L 431.897454 93.18864 
L 434.771209 89.567702 
L 437.564002 89.040843 
L 440.28027 87.750103 
L 442.924095 86.576128 
L 445.499242 85.801807 
L 448.009189 84.237386 
L 450.457155 82.704729 
L 452.846128 81.297408 
L 455.178884 80.346182 
L 457.45801 79.725079 
L 459.685915 79.009727 
L 461.86485 77.542191 
L 463.996924 77.320136 
L 466.084108 76.612855 
L 468.128254 76.036692 
L 470.131102 75.834166 
L 472.094286 75.464788 
L 474.019348 74.475285 
L 475.907741 74.216109 
L 477.760833 73.837069 
L 479.579923 73.494177 
L 481.366234 73.108256 
L 483.120927 72.647519 
L 484.845103 72.254405 
L 486.539804 72.131912 
L 488.206021 71.542341 
L 489.844696 71.195912 
L 491.456725 70.970236 
L 493.04296 70.118924 
L 494.604214 69.891449 
L 496.141261 68.828691 
L 497.654842 68.745873 
L 499.145661 67.677388 
L 500.614392 66.964621 
L 502.061682 66.944765 
L 503.488147 66.897025 
L 504.894377 66.780637 
L 506.28094 66.62592 
L 507.648376 66.618088 
L 508.997208 66.311032 
L 510.327934 65.682254 
L 511.641033 65.233411 
L 512.936968 65.071782 
L 514.21618 65.044889 
L 515.479097 63.645053 
L 516.726127 63.590305 
L 517.957665 63.525222 
L 519.174093 63.028451 
L 520.375775 62.636232 
L 521.563066 62.564783 
L 522.736305 61.486244 
L 523.895823 60.770294 
L 525.041935 60.468908 
L 526.174948 59.836597 
L 527.295159 59.79662 
L 528.402853 59.675486 
L 529.498307 59.661047 
L 530.581788 59.593156 
L 531.653556 59.29771 
L 532.713862 58.977267 
L 533.762946 58.786643 
L 534.801046 58.409384 
L 535.828387 58.20168 
L 536.845192 57.974229 
L 537.851674 57.261203 
L 538.84804 56.938018 
" clip-path="url(#p2c76217928)" style="fill: none; stroke: #bf5b17; stroke-width: 3; stroke-linecap: square"/>
   </g>
   <g id="line2d_43">
    <path d="M 82.302585 251.095337 
L 151.019523 239.436365 
L 191.216355 216.870874 
L 219.736461 216.678502 
L 241.858374 216.674629 
L 259.933293 216.668202 
L 275.21542 216.667029 
L 288.4534 207.24592 
L 300.130125 203.564271 
L 310.575312 203.564158 
L 320.024134 199.134839 
L 328.650231 197.435679 
L 336.585472 197.435679 
L 343.932358 197.435334 
L 350.772144 194.989075 
L 357.170338 178.791408 
L 363.180516 178.426142 
L 368.847063 178.426142 
L 374.207157 178.426142 
L 379.292251 178.426142 
L 384.12919 177.913587 
L 388.741072 177.913587 
L 393.147912 177.913587 
L 397.36717 140.778246 
L 401.414164 140.778246 
L 405.30241 140.565254 
L 409.043895 140.500394 
L 412.649296 139.703579 
L 416.128165 139.703579 
L 419.489083 138.659025 
L 422.739786 138.659025 
L 425.887276 138.433047 
L 428.937904 138.433047 
L 431.897454 137.788541 
L 434.771209 137.126225 
L 437.564002 135.985361 
L 440.28027 135.985361 
L 442.924095 135.985361 
L 445.499242 135.985361 
L 448.009189 135.952792 
L 450.457155 135.885239 
L 452.846128 135.838343 
L 455.178884 135.838343 
L 457.45801 135.838343 
L 459.685915 135.838343 
L 461.86485 135.838343 
L 463.996924 135.838343 
L 466.084108 128.068424 
L 468.128254 128.068424 
L 470.131102 128.068424 
L 472.094286 128.058933 
L 474.019348 128.058933 
L 475.907741 128.058933 
L 477.760833 128.058933 
L 479.579923 128.051492 
L 481.366234 127.179632 
L 483.120927 127.17724 
L 484.845103 127.17724 
L 486.539804 126.98224 
L 488.206021 126.615534 
L 489.844696 126.615534 
L 491.456725 126.615534 
L 493.04296 126.543598 
L 494.604214 126.229502 
L 496.141261 126.229502 
L 497.654842 126.135337 
L 499.145661 126.135337 
L 500.614392 125.88381 
L 502.061682 125.881146 
L 503.488147 125.881146 
L 504.894377 125.881146 
L 506.28094 125.881146 
L 507.648376 125.78766 
L 508.997208 125.763148 
L 510.327934 125.763148 
L 511.641033 125.763148 
L 512.936968 125.763148 
L 514.21618 125.763148 
L 515.479097 125.72361 
L 516.726127 125.72361 
L 517.957665 125.72361 
L 519.174093 125.714493 
L 520.375775 125.656037 
L 521.563066 125.656037 
L 522.736305 125.533942 
L 523.895823 125.506903 
L 525.041935 125.506903 
L 526.174948 125.506903 
L 527.295159 121.007755 
L 528.402853 121.007755 
L 529.498307 113.166434 
L 530.581788 113.166434 
L 531.653556 113.10333 
L 532.713862 113.10333 
L 533.762946 112.751381 
L 534.801046 112.720262 
L 535.828387 112.720262 
L 536.845192 112.720262 
L 537.851674 112.6221 
L 538.84804 112.589384 
" clip-path="url(#p2c76217928)" style="fill: none; stroke: #f0027f; stroke-width: 3; stroke-linecap: square"/>
   </g>
   <g id="line2d_44">
    <path d="M 82.302585 251.095337 
L 151.019523 239.436365 
L 191.216355 216.870874 
L 219.736461 216.678502 
L 241.858374 216.674629 
L 259.933293 216.668202 
L 275.21542 216.656079 
L 288.4534 210.63354 
L 300.130125 204.588885 
L 310.575312 201.085131 
L 320.024134 194.960806 
L 328.650231 189.249372 
L 336.585472 186.297513 
L 343.932358 181.359416 
L 350.772144 177.268354 
L 357.170338 171.635895 
L 363.180516 166.531575 
L 368.847063 162.081953 
L 374.207157 156.889462 
L 379.292251 154.051617 
L 384.12919 149.613589 
L 388.741072 144.81316 
L 393.147912 140.767723 
L 397.36717 134.839046 
L 401.414164 131.111581 
L 405.30241 126.592389 
L 409.043895 123.010415 
L 412.649296 117.365806 
L 416.128165 113.742021 
L 419.489083 110.275848 
L 422.739786 107.422401 
L 425.887276 105.211127 
L 428.937904 103.535763 
L 431.897454 101.26887 
L 434.771209 100.303474 
L 437.564002 97.458698 
L 440.28027 95.482482 
L 442.924095 94.048347 
L 445.499242 92.964034 
L 448.009189 92.166869 
L 450.457155 91.127901 
L 452.846128 90.102186 
L 455.178884 89.883623 
L 457.45801 88.645602 
L 459.685915 87.124906 
L 461.86485 86.639711 
L 463.996924 86.128627 
L 466.084108 85.458608 
L 468.128254 84.709589 
L 470.131102 84.416745 
L 472.094286 83.745777 
L 474.019348 83.018574 
L 475.907741 82.409759 
L 477.760833 82.311823 
L 479.579923 81.947815 
L 481.366234 81.690504 
L 483.120927 81.546441 
L 484.845103 81.247372 
L 486.539804 81.049139 
L 488.206021 80.348261 
L 489.844696 79.577438 
L 491.456725 79.02703 
L 493.04296 78.885033 
L 494.604214 78.09365 
L 496.141261 78.041286 
L 497.654842 77.757653 
L 499.145661 77.644344 
L 500.614392 77.623229 
L 502.061682 77.305987 
L 503.488147 77.05574 
L 504.894377 76.119744 
L 506.28094 74.728227 
L 507.648376 74.437735 
L 508.997208 73.311284 
L 510.327934 72.792534 
L 511.641033 72.303873 
L 512.936968 71.476487 
L 514.21618 71.189224 
L 515.479097 71.125185 
L 516.726127 70.534108 
L 517.957665 69.554451 
L 519.174093 68.654284 
L 520.375775 68.016098 
L 521.563066 67.582599 
L 522.736305 66.326963 
L 523.895823 65.728805 
L 525.041935 65.021101 
L 526.174948 64.198067 
L 527.295159 63.797337 
L 528.402853 62.592055 
L 529.498307 61.033286 
L 530.581788 61.022559 
L 531.653556 61.019353 
L 532.713862 59.852353 
L 533.762946 59.415279 
L 534.801046 58.846518 
L 535.828387 58.429774 
L 536.845192 58.3605 
L 537.851674 58.301953 
L 538.84804 58.265174 
" clip-path="url(#p2c76217928)" style="fill: none; stroke: #386cb0; stroke-width: 3; stroke-linecap: square"/>
   </g>
   <g id="line2d_45">
    <path d="M 82.302585 122.365575 
L 151.019523 91.958289 
L 191.216355 74.408455 
L 219.736461 65.126513 
L 241.858374 59.147576 
L 259.933293 56.494631 
L 275.21542 54.6869 
L 288.4534 53.340675 
L 300.130125 52.762778 
L 310.575312 52.300152 
L 320.024134 51.949284 
L 328.650231 51.709231 
L 336.585472 51.475773 
L 343.932358 51.326578 
L 350.772144 51.201424 
L 357.170338 51.097052 
L 363.180516 50.995675 
L 368.847063 50.899237 
L 374.207157 50.826834 
L 379.292251 50.786026 
L 384.12919 50.752616 
L 388.741072 50.734537 
L 393.147912 50.716669 
L 397.36717 50.699686 
L 401.414164 50.687635 
L 405.30241 50.67655 
L 409.043895 50.667183 
L 412.649296 50.657882 
L 416.128165 50.648741 
L 419.489083 50.640748 
L 422.739786 50.632788 
L 425.887276 50.624915 
L 428.937904 50.618676 
L 431.897454 50.613816 
L 434.771209 50.609959 
L 437.564002 50.606596 
L 440.28027 50.603353 
L 442.924095 50.600164 
L 445.499242 50.598271 
L 448.009189 50.596987 
L 450.457155 50.595987 
L 452.846128 50.595045 
L 455.178884 50.594105 
L 457.45801 50.593459 
L 459.685915 50.593005 
L 461.86485 50.592637 
L 463.996924 50.592333 
L 466.084108 50.592046 
L 468.128254 50.591779 
L 470.131102 50.591516 
L 472.094286 50.591337 
L 474.019348 50.591187 
L 475.907741 50.591096 
L 477.760833 50.591029 
L 479.579923 50.591029 
L 481.366234 50.591029 
L 483.120927 50.591029 
L 484.845103 50.591029 
L 486.539804 50.591029 
L 488.206021 50.591029 
L 489.844696 50.591029 
L 491.456725 50.591029 
L 493.04296 50.591029 
L 494.604214 50.591029 
L 496.141261 50.591029 
L 497.654842 50.591029 
L 499.145661 50.591029 
L 500.614392 50.591029 
L 502.061682 50.591029 
L 503.488147 50.591029 
L 504.894377 50.591029 
L 506.28094 50.591029 
L 507.648376 50.591029 
L 508.997208 50.591029 
L 510.327934 50.591029 
L 511.641033 50.591029 
L 512.936968 50.591029 
L 514.21618 50.591029 
L 515.479097 50.591029 
L 516.726127 50.591029 
L 517.957665 50.591029 
L 519.174093 50.591029 
L 520.375775 50.591029 
L 521.563066 50.591029 
L 522.736305 50.591029 
L 523.895823 50.591029 
L 525.041935 50.591029 
L 526.174948 50.591029 
L 527.295159 50.591029 
L 528.402853 50.591029 
L 529.498307 50.591029 
L 530.581788 50.591029 
L 531.653556 50.591029 
L 532.713862 50.591029 
L 533.762946 50.591029 
L 534.801046 50.591029 
L 535.828387 50.591029 
L 536.845192 50.591029 
L 537.851674 50.591029 
L 538.84804 50.591029 
" clip-path="url(#p2c76217928)" style="fill: none; stroke-dasharray: 11.1,4.8; stroke-dashoffset: 0; stroke: #666666; stroke-width: 3"/>
   </g>
   <g id="patch_3">
    <path d="M 59.475313 345.471142 
L 59.475313 12.831142 
" style="fill: none; stroke: #000000; stroke-width: 0.8; stroke-linejoin: miter; stroke-linecap: square"/>
   </g>
   <g id="patch_4">
    <path d="M 561.675313 345.471142 
L 561.675313 12.831142 
" style="fill: none; stroke: #000000; stroke-width: 0.8; stroke-linejoin: miter; stroke-linecap: square"/>
   </g>
   <g id="patch_5">
    <path d="M 59.475313 345.471142 
L 561.675313 345.471142 
" style="fill: none; stroke: #000000; stroke-width: 0.8; stroke-linejoin: miter; stroke-linecap: square"/>
   </g>
   <g id="patch_6">
    <path d="M 59.475313 12.831142 
L 561.675313 12.831142 
" style="fill: none; stroke: #000000; stroke-width: 0.8; stroke-linejoin: miter; stroke-linecap: square"/>
   </g>
  </g>
 </g>
 <defs>
  <clipPath id="p2c76217928">
   <rect x="59.475313" y="12.831142" width="502.2" height="332.64"/>
  </clipPath>
 </defs>
</svg>
