<?xml version="1.0" encoding="utf-8" standalone="no"?>
<!DOCTYPE svg PUBLIC "-//W3C//DTD SVG 1.1//EN"
  "http://www.w3.org/Graphics/SVG/1.1/DTD/svg11.dtd">
<svg xmlns:xlink="http://www.w3.org/1999/xlink" width="754.720625pt" height="559.20125pt" viewBox="0 0 754.720625 559.20125" xmlns="http://www.w3.org/2000/svg" version="1.1">
 <metadata>
  <rdf:RDF xmlns:dc="http://purl.org/dc/elements/1.1/" xmlns:cc="http://creativecommons.org/ns#" xmlns:rdf="http://www.w3.org/1999/02/22-rdf-syntax-ns#">
   <cc:Work>
    <dc:type rdf:resource="http://purl.org/dc/dcmitype/StillImage"/>
    <dc:date>2025-02-26T21:52:06.500492</dc:date>
    <dc:format>image/svg+xml</dc:format>
    <dc:creator>
     <cc:Agent>
      <dc:title>Matplotlib v3.9.4, https://matplotlib.org/</dc:title>
     </cc:Agent>
    </dc:creator>
   </cc:Work>
  </rdf:RDF>
 </metadata>
 <defs>
  <style type="text/css">*{stroke-linejoin: round; stroke-linecap: butt}</style>
 </defs>
 <g id="figure_1">
  <g id="patch_1">
   <path d="M 0 559.20125 
L 754.720625 559.20125 
L 754.720625 0 
L 0 0 
z
" style="fill: #ffffff"/>
  </g>
  <g id="axes_1">
   <g id="patch_2">
    <path d="M 77.920625 506.16 
L 747.520625 506.16 
L 747.520625 7.2 
L 77.920625 7.2 
z
" style="fill: #ffffff"/>
   </g>
   <g id="PolyCollection_1">
    <path d="M 108.356989 300.015862 
L 108.356989 88561.865896 
L 116.583033 267.051022 
L 124.809077 228.227011 
L 133.035121 209.995713 
L 141.261166 198.601377 
L 149.48721 207.018383 
L 157.713254 197.687534 
L 165.939298 189.819568 
L 174.165342 180.470728 
L 182.391387 172.026864 
L 190.617431 163.399993 
L 198.843475 158.995772 
L 207.069519 156.161555 
L 215.295564 152.820735 
L 223.521608 148.286498 
L 231.747652 144.392154 
L 239.973696 140.775399 
L 248.19974 138.113955 
L 256.425785 135.377554 
L 264.651829 132.856608 
L 272.877873 130.104462 
L 281.103917 127.448968 
L 289.329962 124.988548 
L 297.556006 122.308917 
L 305.78205 120.640143 
L 314.008094 119.022255 
L 322.234139 117.072385 
L 330.460183 115.599175 
L 338.686227 113.936029 
L 346.912271 112.465578 
L 355.138315 111.144438 
L 363.36436 110.065728 
L 371.590404 109.11739 
L 379.816448 107.995968 
L 388.042492 106.970377 
L 396.268537 106.103431 
L 404.494581 104.899729 
L 412.720625 103.906479 
L 420.946669 103.111438 
L 429.172713 102.197658 
L 437.398758 101.348651 
L 445.624802 100.569785 
L 453.850846 99.933354 
L 462.07689 99.205045 
L 470.302935 98.325547 
L 478.528979 97.548085 
L 486.755023 96.832546 
L 494.981067 96.008099 
L 503.207111 95.209362 
L 511.433156 94.257551 
L 519.6592 93.069603 
L 527.885244 92.062569 
L 536.111288 91.065399 
L 544.337333 90.258914 
L 552.563377 89.457785 
L 560.789421 88.671017 
L 569.015465 87.877071 
L 577.24151 87.107263 
L 585.467554 86.43945 
L 593.693598 85.684531 
L 601.919642 85.073815 
L 610.145686 84.430084 
L 618.371731 83.901812 
L 626.597775 83.367231 
L 634.823819 82.761048 
L 643.049863 82.190945 
L 651.275908 81.696275 
L 659.501952 81.176168 
L 667.727996 80.592347 
L 675.95404 79.922966 
L 684.180084 79.47176 
L 692.406129 78.855861 
L 700.632173 78.400731 
L 708.858217 77.878152 
L 717.084261 77.369149 
L 717.084261 47.101864 
L 717.084261 47.101864 
L 708.858217 47.955594 
L 700.632173 48.670527 
L 692.406129 49.394273 
L 684.180084 50.150845 
L 675.95404 50.890976 
L 667.727996 51.634662 
L 659.501952 52.471192 
L 651.275908 53.240556 
L 643.049863 54.026107 
L 634.823819 54.918898 
L 626.597775 55.748413 
L 618.371731 56.602457 
L 610.145686 57.468901 
L 601.919642 58.344734 
L 593.693598 59.347318 
L 585.467554 60.28762 
L 577.24151 61.231798 
L 569.015465 62.164081 
L 560.789421 63.213082 
L 552.563377 64.154284 
L 544.337333 65.150687 
L 536.111288 66.114562 
L 527.885244 67.196624 
L 519.6592 68.277422 
L 511.433156 69.445196 
L 503.207111 70.460741 
L 494.981067 71.245145 
L 486.755023 72.089445 
L 478.528979 72.968595 
L 470.302935 73.832355 
L 462.07689 74.665631 
L 453.850846 75.560726 
L 445.624802 76.454232 
L 437.398758 77.365189 
L 429.172713 78.430145 
L 420.946669 79.310545 
L 412.720625 80.368414 
L 404.494581 81.382574 
L 396.268537 82.440457 
L 388.042492 83.578354 
L 379.816448 84.712064 
L 371.590404 85.807464 
L 363.36436 87.387191 
L 355.138315 88.672844 
L 346.912271 89.912972 
L 338.686227 91.340392 
L 330.460183 92.656035 
L 322.234139 94.026738 
L 314.008094 95.370328 
L 305.78205 96.786985 
L 297.556006 98.071951 
L 289.329962 99.815285 
L 281.103917 101.590927 
L 272.877873 103.63306 
L 264.651829 105.53878 
L 256.425785 107.915264 
L 248.19974 110.241833 
L 239.973696 112.964274 
L 231.747652 116.123695 
L 223.521608 119.336082 
L 215.295564 121.915618 
L 207.069519 124.616145 
L 198.843475 127.412581 
L 190.617431 130.150555 
L 182.391387 133.176992 
L 174.165342 137.518664 
L 165.939298 141.913887 
L 157.713254 150.233706 
L 149.48721 155.531455 
L 141.261166 192.636948 
L 133.035121 202.951996 
L 124.809077 218.428872 
L 116.583033 245.832139 
L 108.356989 300.015862 
z
" clip-path="url(#pd2a3149692)" style="fill: #ffff99; fill-opacity: 0.1; stroke: #ffff99; stroke-opacity: 0.1"/>
   </g>
   <g id="PolyCollection_2">
    <defs>
     <path id="md6d6a01581" d="M 108.356989 -199.702064 
L 108.356989 -119.951721 
L 116.583033 -306.178153 
L 124.809077 -339.115828 
L 133.035121 -355.087986 
L 141.261166 -365.305246 
L 149.48721 -388.615487 
L 157.713254 -401.535699 
L 165.939298 -412.739971 
L 174.165342 -421.647524 
L 182.391387 -427.902377 
L 190.617431 -433.831035 
L 198.843475 -439.008934 
L 207.069519 -442.916071 
L 215.295564 -446.671591 
L 223.521608 -450.784566 
L 231.747652 -453.892705 
L 239.973696 -456.346349 
L 248.19974 -458.845661 
L 256.425785 -460.950851 
L 264.651829 -462.855629 
L 272.877873 -464.701576 
L 281.103917 -466.469043 
L 289.329962 -468.057066 
L 297.556006 -469.514158 
L 305.78205 -470.923508 
L 314.008094 -472.281158 
L 322.234139 -473.49397 
L 330.460183 -474.698709 
L 338.686227 -475.866011 
L 346.912271 -476.943809 
L 355.138315 -477.972859 
L 363.36436 -478.988912 
L 371.590404 -479.979416 
L 379.816448 -480.901966 
L 388.042492 -481.825258 
L 396.268537 -482.722843 
L 404.494581 -483.678869 
L 412.720625 -484.646499 
L 420.946669 -485.484557 
L 429.172713 -486.258329 
L 437.398758 -487.072768 
L 445.624802 -487.887366 
L 453.850846 -488.71215 
L 462.07689 -489.55383 
L 470.302935 -490.253771 
L 478.528979 -491.020144 
L 486.755023 -491.820896 
L 494.981067 -492.619361 
L 503.207111 -493.388431 
L 511.433156 -494.412132 
L 519.6592 -495.485745 
L 527.885244 -496.5649 
L 536.111288 -497.593707 
L 544.337333 -498.503643 
L 552.563377 -499.385511 
L 560.789421 -500.271273 
L 569.015465 -501.161543 
L 577.24151 -502.014951 
L 585.467554 -502.863185 
L 593.693598 -503.661496 
L 601.919642 -504.466507 
L 610.145686 -505.286257 
L 618.371731 -506.133412 
L 626.597775 -506.919077 
L 634.823819 -507.623971 
L 643.049863 -508.33687 
L 651.275908 -509.093627 
L 659.501952 -509.799045 
L 667.727996 -510.462438 
L 675.95404 -511.105771 
L 684.180084 -511.793885 
L 692.406129 -512.442238 
L 700.632173 -513.094728 
L 708.858217 -513.730898 
L 717.084261 -514.540361 
L 717.084261 -524.595049 
L 717.084261 -524.595049 
L 708.858217 -523.823106 
L 700.632173 -523.171634 
L 692.406129 -522.51151 
L 684.180084 -521.851102 
L 675.95404 -521.188956 
L 667.727996 -520.514812 
L 659.501952 -519.836015 
L 651.275908 -519.1283 
L 643.049863 -518.443101 
L 634.823819 -517.720666 
L 626.597775 -516.996426 
L 618.371731 -516.313519 
L 610.145686 -515.568943 
L 601.919642 -514.797733 
L 593.693598 -514.005665 
L 585.467554 -513.179426 
L 577.24151 -512.391116 
L 569.015465 -511.574221 
L 560.789421 -510.755443 
L 552.563377 -509.872453 
L 544.337333 -509.00139 
L 536.111288 -508.122104 
L 527.885244 -507.227443 
L 519.6592 -506.359042 
L 511.433156 -505.394493 
L 503.207111 -504.433653 
L 494.981067 -503.699684 
L 486.755023 -502.945601 
L 478.528979 -502.177953 
L 470.302935 -501.413207 
L 462.07689 -500.628473 
L 453.850846 -499.831453 
L 445.624802 -499.037179 
L 437.398758 -498.247299 
L 429.172713 -497.397616 
L 420.946669 -496.536086 
L 412.720625 -495.705604 
L 404.494581 -494.741281 
L 396.268537 -493.812452 
L 388.042492 -492.978404 
L 379.816448 -492.093228 
L 371.590404 -491.10474 
L 363.36436 -490.138896 
L 355.138315 -489.120521 
L 346.912271 -488.076933 
L 338.686227 -487.011803 
L 330.460183 -485.874474 
L 322.234139 -484.679867 
L 314.008094 -483.488511 
L 305.78205 -482.264792 
L 297.556006 -480.886893 
L 289.329962 -479.4352 
L 281.103917 -477.958772 
L 272.877873 -476.29005 
L 264.651829 -474.614968 
L 256.425785 -472.643659 
L 248.19974 -470.636953 
L 239.973696 -468.543031 
L 231.747652 -466.346574 
L 223.521608 -464.055552 
L 215.295564 -461.777899 
L 207.069519 -458.894352 
L 198.843475 -455.689922 
L 190.617431 -451.821264 
L 182.391387 -448.090131 
L 174.165342 -443.697516 
L 165.939298 -438.560825 
L 157.713254 -427.539483 
L 149.48721 -416.640196 
L 141.261166 -378.912374 
L 133.035121 -371.844501 
L 124.809077 -362.283653 
L 116.583033 -347.656639 
L 108.356989 -199.702064 
z
" style="stroke: #386cb0; stroke-opacity: 0.1"/>
    </defs>
    <g clip-path="url(#pd2a3149692)">
     <use xlink:href="#md6d6a01581" x="0" y="559.20125" style="fill: #386cb0; fill-opacity: 0.1; stroke: #386cb0; stroke-opacity: 0.1"/>
    </g>
   </g>
   <g id="PolyCollection_3">
    <defs>
     <path id="mc5612a7f48" d="M 108.356989 -179.339272 
L 108.356989 -75.72125 
L 116.583033 -347.831765 
L 124.809077 -363.051527 
L 133.035121 -372.435191 
L 141.261166 -379.166132 
L 149.48721 -384.974123 
L 157.713254 -390.662868 
L 165.939298 -393.765805 
L 174.165342 -396.514968 
L 182.391387 -398.539331 
L 190.617431 -400.838525 
L 198.843475 -402.56277 
L 207.069519 -404.428302 
L 215.295564 -406.025184 
L 223.521608 -407.500498 
L 231.747652 -409.520146 
L 239.973696 -410.772548 
L 248.19974 -411.620427 
L 256.425785 -412.779533 
L 264.651829 -413.71466 
L 272.877873 -414.718259 
L 281.103917 -415.834664 
L 289.329962 -416.500826 
L 297.556006 -417.088567 
L 305.78205 -417.724081 
L 314.008094 -418.199807 
L 322.234139 -418.813754 
L 330.460183 -419.597863 
L 338.686227 -420.517564 
L 346.912271 -421.076979 
L 355.138315 -421.612805 
L 363.36436 -422.564152 
L 371.590404 -423.187068 
L 379.816448 -423.902027 
L 388.042492 -424.44832 
L 396.268537 -424.835052 
L 404.494581 -425.224945 
L 412.720625 -425.827633 
L 420.946669 -426.347256 
L 429.172713 -426.743523 
L 437.398758 -427.29237 
L 445.624802 -427.870324 
L 453.850846 -428.150733 
L 462.07689 -428.676982 
L 470.302935 -428.994035 
L 478.528979 -429.34082 
L 486.755023 -429.722654 
L 494.981067 -430.271604 
L 503.207111 -430.69817 
L 511.433156 -430.927584 
L 519.6592 -431.409281 
L 527.885244 -431.844721 
L 536.111288 -432.143488 
L 544.337333 -432.464537 
L 552.563377 -432.706169 
L 560.789421 -433.187627 
L 569.015465 -433.561934 
L 577.24151 -433.873869 
L 585.467554 -433.980403 
L 593.693598 -434.10586 
L 601.919642 -434.233492 
L 610.145686 -434.374993 
L 618.371731 -434.524554 
L 626.597775 -434.753373 
L 634.823819 -434.897367 
L 643.049863 -435.042691 
L 651.275908 -435.222932 
L 659.501952 -435.435622 
L 667.727996 -435.623825 
L 675.95404 -435.765774 
L 684.180084 -435.960999 
L 692.406129 -436.102387 
L 700.632173 -436.24946 
L 708.858217 -436.374566 
L 717.084261 -436.517504 
L 717.084261 -439.820536 
L 717.084261 -439.820536 
L 708.858217 -439.677292 
L 700.632173 -439.552362 
L 692.406129 -439.405607 
L 684.180084 -439.264305 
L 675.95404 -439.069163 
L 667.727996 -438.92683 
L 659.501952 -438.738363 
L 651.275908 -438.525776 
L 643.049863 -438.345036 
L 634.823819 -438.200266 
L 626.597775 -438.056847 
L 618.371731 -437.828466 
L 610.145686 -437.678898 
L 601.919642 -437.537955 
L 593.693598 -437.411083 
L 585.467554 -437.286358 
L 577.24151 -437.179816 
L 569.015465 -436.86936 
L 560.789421 -436.496864 
L 552.563377 -436.018275 
L 544.337333 -435.777298 
L 536.111288 -435.458014 
L 527.885244 -435.159322 
L 519.6592 -434.723702 
L 511.433156 -434.240511 
L 503.207111 -434.010958 
L 494.981067 -433.582257 
L 486.755023 -433.033288 
L 478.528979 -432.648699 
L 470.302935 -432.300864 
L 462.07689 -431.980934 
L 453.850846 -431.451841 
L 445.624802 -431.169154 
L 437.398758 -430.587416 
L 429.172713 -430.036138 
L 420.946669 -429.638703 
L 412.720625 -429.11497 
L 404.494581 -428.509343 
L 396.268537 -428.117145 
L 388.042492 -427.727812 
L 379.816448 -427.175689 
L 371.590404 -426.456882 
L 363.36436 -425.832855 
L 355.138315 -424.875443 
L 346.912271 -424.334183 
L 338.686227 -423.768864 
L 330.460183 -422.836831 
L 322.234139 -422.043588 
L 314.008094 -421.423583 
L 305.78205 -420.942234 
L 297.556006 -420.303846 
L 289.329962 -419.711715 
L 281.103917 -419.038396 
L 272.877873 -417.911879 
L 264.651829 -416.900637 
L 256.425785 -415.959262 
L 248.19974 -414.795148 
L 239.973696 -413.940489 
L 231.747652 -412.678029 
L 223.521608 -410.644943 
L 215.295564 -409.161554 
L 207.069519 -407.549883 
L 198.843475 -405.674078 
L 190.617431 -403.938221 
L 182.391387 -401.632272 
L 174.165342 -399.605361 
L 165.939298 -396.858087 
L 157.713254 -393.767299 
L 149.48721 -388.136227 
L 141.261166 -382.415392 
L 133.035121 -375.866936 
L 124.809077 -366.517936 
L 116.583033 -351.793436 
L 108.356989 -179.339272 
z
" style="stroke: #f0027f; stroke-opacity: 0.1"/>
    </defs>
    <g clip-path="url(#pd2a3149692)">
     <use xlink:href="#mc5612a7f48" x="0" y="559.20125" style="fill: #f0027f; fill-opacity: 0.1; stroke: #f0027f; stroke-opacity: 0.1"/>
    </g>
   </g>
   <g id="PolyCollection_4">
    <defs>
     <path id="m4ebca3137d" d="M 108.356989 -394.075522 
L 108.356989 -386.95528 
L 116.583033 -404.681163 
L 124.809077 -421.353879 
L 133.035121 -428.251926 
L 141.261166 -433.607618 
L 149.48721 -438.069588 
L 157.713254 -441.850446 
L 165.939298 -445.766394 
L 174.165342 -448.981595 
L 182.391387 -452.053268 
L 190.617431 -454.754286 
L 198.843475 -457.357782 
L 207.069519 -459.776135 
L 215.295564 -462.078613 
L 223.521608 -464.181271 
L 231.747652 -466.143961 
L 239.973696 -467.948526 
L 248.19974 -469.721219 
L 256.425785 -471.467527 
L 264.651829 -473.130422 
L 272.877873 -474.627698 
L 281.103917 -476.019032 
L 289.329962 -477.375707 
L 297.556006 -478.623092 
L 305.78205 -479.829599 
L 314.008094 -481.002305 
L 322.234139 -482.120268 
L 330.460183 -483.253559 
L 338.686227 -484.318664 
L 346.912271 -485.272956 
L 355.138315 -486.266813 
L 363.36436 -487.208886 
L 371.590404 -488.095415 
L 379.816448 -488.989563 
L 388.042492 -489.880975 
L 396.268537 -490.732524 
L 404.494581 -491.591932 
L 412.720625 -492.377533 
L 420.946669 -493.181137 
L 429.172713 -493.938445 
L 437.398758 -494.6845 
L 445.624802 -495.396305 
L 453.850846 -496.110383 
L 462.07689 -496.807982 
L 470.302935 -497.486862 
L 478.528979 -498.206197 
L 486.755023 -498.923584 
L 494.981067 -499.593135 
L 503.207111 -500.215913 
L 511.433156 -500.845608 
L 519.6592 -501.791022 
L 527.885244 -502.705701 
L 536.111288 -503.590012 
L 544.337333 -504.404877 
L 552.563377 -505.251115 
L 560.789421 -506.065822 
L 569.015465 -506.817416 
L 577.24151 -507.594534 
L 585.467554 -508.409105 
L 593.693598 -509.200912 
L 601.919642 -509.960059 
L 610.145686 -510.661767 
L 618.371731 -511.411005 
L 626.597775 -512.10688 
L 634.823819 -512.814599 
L 643.049863 -513.494634 
L 651.275908 -514.144354 
L 659.501952 -514.77521 
L 667.727996 -515.422329 
L 675.95404 -516.056771 
L 684.180084 -516.674324 
L 692.406129 -517.27753 
L 700.632173 -517.895312 
L 708.858217 -518.489896 
L 717.084261 -519.106559 
L 717.084261 -529.32125 
L 717.084261 -529.32125 
L 708.858217 -528.678285 
L 700.632173 -527.999061 
L 692.406129 -527.34388 
L 684.180084 -526.67445 
L 675.95404 -526.050708 
L 667.727996 -525.377593 
L 659.501952 -524.661858 
L 651.275908 -523.968172 
L 643.049863 -523.276158 
L 634.823819 -522.547311 
L 626.597775 -521.842746 
L 618.371731 -521.117886 
L 610.145686 -520.333089 
L 601.919642 -519.562898 
L 593.693598 -518.817963 
L 585.467554 -518.031044 
L 577.24151 -517.253575 
L 569.015465 -516.445459 
L 560.789421 -515.648121 
L 552.563377 -514.799437 
L 544.337333 -513.953047 
L 536.111288 -513.090999 
L 527.885244 -512.217782 
L 519.6592 -511.315925 
L 511.433156 -510.388168 
L 503.207111 -509.690887 
L 494.981067 -508.986468 
L 486.755023 -508.237288 
L 478.528979 -507.404819 
L 470.302935 -506.600856 
L 462.07689 -505.838032 
L 453.850846 -505.093681 
L 445.624802 -504.330054 
L 437.398758 -503.577783 
L 429.172713 -502.795855 
L 420.946669 -502.003641 
L 412.720625 -501.160971 
L 404.494581 -500.346247 
L 396.268537 -499.520471 
L 388.042492 -498.68648 
L 379.816448 -497.851485 
L 371.590404 -496.99012 
L 363.36436 -496.156864 
L 355.138315 -495.257412 
L 346.912271 -494.38585 
L 338.686227 -493.514117 
L 330.460183 -492.589989 
L 322.234139 -491.551664 
L 314.008094 -490.490309 
L 305.78205 -489.417576 
L 297.556006 -488.302193 
L 289.329962 -487.185568 
L 281.103917 -485.947948 
L 272.877873 -484.739451 
L 264.651829 -483.483294 
L 256.425785 -482.128612 
L 248.19974 -480.642954 
L 239.973696 -479.066472 
L 231.747652 -477.574238 
L 223.521608 -475.899132 
L 215.295564 -474.138195 
L 207.069519 -472.364783 
L 198.843475 -470.495353 
L 190.617431 -468.504188 
L 182.391387 -466.488593 
L 174.165342 -464.24836 
L 165.939298 -461.926634 
L 157.713254 -459.400797 
L 149.48721 -456.836281 
L 141.261166 -454.057682 
L 133.035121 -448.079985 
L 124.809077 -440.721273 
L 116.583033 -426.551334 
L 108.356989 -394.075522 
z
" style="stroke: #bf5b17; stroke-opacity: 0.1"/>
    </defs>
    <g clip-path="url(#pd2a3149692)">
     <use xlink:href="#m4ebca3137d" x="0" y="559.20125" style="fill: #bf5b17; fill-opacity: 0.1; stroke: #bf5b17; stroke-opacity: 0.1"/>
    </g>
   </g>
   <g id="matplotlib.axis_1">
    <g id="xtick_1">
     <g id="line2d_1">
      <path d="M 100.130944 506.16 
L 100.130944 7.2 
" clip-path="url(#pd2a3149692)" style="fill: none; stroke-dasharray: 1.85,0.8; stroke-dashoffset: 0; stroke: #b0b0b0; stroke-width: 0.5"/>
     </g>
     <g id="line2d_2">
      <defs>
       <path id="m43470d0216" d="M 0 0 
L 0 3.5 
" style="stroke: #000000; stroke-width: 0.8"/>
      </defs>
      <g>
       <use xlink:href="#m43470d0216" x="100.130944" y="506.16" style="stroke: #000000; stroke-width: 0.8"/>
      </g>
     </g>
     <g id="text_1">
      <!-- 0 -->
      <g transform="translate(94.404694 526.837188) scale(0.18 -0.18)">
       <defs>
        <path id="DejaVuSans-30" d="M 2034 4250 
Q 1547 4250 1301 3770 
Q 1056 3291 1056 2328 
Q 1056 1369 1301 889 
Q 1547 409 2034 409 
Q 2525 409 2770 889 
Q 3016 1369 3016 2328 
Q 3016 3291 2770 3770 
Q 2525 4250 2034 4250 
z
M 2034 4750 
Q 2819 4750 3233 4129 
Q 3647 3509 3647 2328 
Q 3647 1150 3233 529 
Q 2819 -91 2034 -91 
Q 1250 -91 836 529 
Q 422 1150 422 2328 
Q 422 3509 836 4129 
Q 1250 4750 2034 4750 
z
" transform="scale(0.015625)"/>
       </defs>
       <use xlink:href="#DejaVuSans-30"/>
      </g>
     </g>
    </g>
    <g id="xtick_2">
     <g id="line2d_3">
      <path d="M 182.391387 506.16 
L 182.391387 7.2 
" clip-path="url(#pd2a3149692)" style="fill: none; stroke-dasharray: 1.85,0.8; stroke-dashoffset: 0; stroke: #b0b0b0; stroke-width: 0.5"/>
     </g>
     <g id="line2d_4">
      <g>
       <use xlink:href="#m43470d0216" x="182.391387" y="506.16" style="stroke: #000000; stroke-width: 0.8"/>
      </g>
     </g>
     <g id="text_2">
      <!-- 10 -->
      <g transform="translate(170.938887 526.837188) scale(0.18 -0.18)">
       <defs>
        <path id="DejaVuSans-31" d="M 794 531 
L 1825 531 
L 1825 4091 
L 703 3866 
L 703 4441 
L 1819 4666 
L 2450 4666 
L 2450 531 
L 3481 531 
L 3481 0 
L 794 0 
L 794 531 
z
" transform="scale(0.015625)"/>
       </defs>
       <use xlink:href="#DejaVuSans-31"/>
       <use xlink:href="#DejaVuSans-30" x="63.623047"/>
      </g>
     </g>
    </g>
    <g id="xtick_3">
     <g id="line2d_5">
      <path d="M 264.651829 506.16 
L 264.651829 7.2 
" clip-path="url(#pd2a3149692)" style="fill: none; stroke-dasharray: 1.85,0.8; stroke-dashoffset: 0; stroke: #b0b0b0; stroke-width: 0.5"/>
     </g>
     <g id="line2d_6">
      <g>
       <use xlink:href="#m43470d0216" x="264.651829" y="506.16" style="stroke: #000000; stroke-width: 0.8"/>
      </g>
     </g>
     <g id="text_3">
      <!-- 20 -->
      <g transform="translate(253.199329 526.837188) scale(0.18 -0.18)">
       <defs>
        <path id="DejaVuSans-32" d="M 1228 531 
L 3431 531 
L 3431 0 
L 469 0 
L 469 531 
Q 828 903 1448 1529 
Q 2069 2156 2228 2338 
Q 2531 2678 2651 2914 
Q 2772 3150 2772 3378 
Q 2772 3750 2511 3984 
Q 2250 4219 1831 4219 
Q 1534 4219 1204 4116 
Q 875 4013 500 3803 
L 500 4441 
Q 881 4594 1212 4672 
Q 1544 4750 1819 4750 
Q 2544 4750 2975 4387 
Q 3406 4025 3406 3419 
Q 3406 3131 3298 2873 
Q 3191 2616 2906 2266 
Q 2828 2175 2409 1742 
Q 1991 1309 1228 531 
z
" transform="scale(0.015625)"/>
       </defs>
       <use xlink:href="#DejaVuSans-32"/>
       <use xlink:href="#DejaVuSans-30" x="63.623047"/>
      </g>
     </g>
    </g>
    <g id="xtick_4">
     <g id="line2d_7">
      <path d="M 346.912271 506.16 
L 346.912271 7.2 
" clip-path="url(#pd2a3149692)" style="fill: none; stroke-dasharray: 1.85,0.8; stroke-dashoffset: 0; stroke: #b0b0b0; stroke-width: 0.5"/>
     </g>
     <g id="line2d_8">
      <g>
       <use xlink:href="#m43470d0216" x="346.912271" y="506.16" style="stroke: #000000; stroke-width: 0.8"/>
      </g>
     </g>
     <g id="text_4">
      <!-- 30 -->
      <g transform="translate(335.459771 526.837188) scale(0.18 -0.18)">
       <defs>
        <path id="DejaVuSans-33" d="M 2597 2516 
Q 3050 2419 3304 2112 
Q 3559 1806 3559 1356 
Q 3559 666 3084 287 
Q 2609 -91 1734 -91 
Q 1441 -91 1130 -33 
Q 819 25 488 141 
L 488 750 
Q 750 597 1062 519 
Q 1375 441 1716 441 
Q 2309 441 2620 675 
Q 2931 909 2931 1356 
Q 2931 1769 2642 2001 
Q 2353 2234 1838 2234 
L 1294 2234 
L 1294 2753 
L 1863 2753 
Q 2328 2753 2575 2939 
Q 2822 3125 2822 3475 
Q 2822 3834 2567 4026 
Q 2313 4219 1838 4219 
Q 1578 4219 1281 4162 
Q 984 4106 628 3988 
L 628 4550 
Q 988 4650 1302 4700 
Q 1616 4750 1894 4750 
Q 2613 4750 3031 4423 
Q 3450 4097 3450 3541 
Q 3450 3153 3228 2886 
Q 3006 2619 2597 2516 
z
" transform="scale(0.015625)"/>
       </defs>
       <use xlink:href="#DejaVuSans-33"/>
       <use xlink:href="#DejaVuSans-30" x="63.623047"/>
      </g>
     </g>
    </g>
    <g id="xtick_5">
     <g id="line2d_9">
      <path d="M 429.172713 506.16 
L 429.172713 7.2 
" clip-path="url(#pd2a3149692)" style="fill: none; stroke-dasharray: 1.85,0.8; stroke-dashoffset: 0; stroke: #b0b0b0; stroke-width: 0.5"/>
     </g>
     <g id="line2d_10">
      <g>
       <use xlink:href="#m43470d0216" x="429.172713" y="506.16" style="stroke: #000000; stroke-width: 0.8"/>
      </g>
     </g>
     <g id="text_5">
      <!-- 40 -->
      <g transform="translate(417.720213 526.837188) scale(0.18 -0.18)">
       <defs>
        <path id="DejaVuSans-34" d="M 2419 4116 
L 825 1625 
L 2419 1625 
L 2419 4116 
z
M 2253 4666 
L 3047 4666 
L 3047 1625 
L 3713 1625 
L 3713 1100 
L 3047 1100 
L 3047 0 
L 2419 0 
L 2419 1100 
L 313 1100 
L 313 1709 
L 2253 4666 
z
" transform="scale(0.015625)"/>
       </defs>
       <use xlink:href="#DejaVuSans-34"/>
       <use xlink:href="#DejaVuSans-30" x="63.623047"/>
      </g>
     </g>
    </g>
    <g id="xtick_6">
     <g id="line2d_11">
      <path d="M 511.433156 506.16 
L 511.433156 7.2 
" clip-path="url(#pd2a3149692)" style="fill: none; stroke-dasharray: 1.85,0.8; stroke-dashoffset: 0; stroke: #b0b0b0; stroke-width: 0.5"/>
     </g>
     <g id="line2d_12">
      <g>
       <use xlink:href="#m43470d0216" x="511.433156" y="506.16" style="stroke: #000000; stroke-width: 0.8"/>
      </g>
     </g>
     <g id="text_6">
      <!-- 50 -->
      <g transform="translate(499.980656 526.837188) scale(0.18 -0.18)">
       <defs>
        <path id="DejaVuSans-35" d="M 691 4666 
L 3169 4666 
L 3169 4134 
L 1269 4134 
L 1269 2991 
Q 1406 3038 1543 3061 
Q 1681 3084 1819 3084 
Q 2600 3084 3056 2656 
Q 3513 2228 3513 1497 
Q 3513 744 3044 326 
Q 2575 -91 1722 -91 
Q 1428 -91 1123 -41 
Q 819 9 494 109 
L 494 744 
Q 775 591 1075 516 
Q 1375 441 1709 441 
Q 2250 441 2565 725 
Q 2881 1009 2881 1497 
Q 2881 1984 2565 2268 
Q 2250 2553 1709 2553 
Q 1456 2553 1204 2497 
Q 953 2441 691 2322 
L 691 4666 
z
" transform="scale(0.015625)"/>
       </defs>
       <use xlink:href="#DejaVuSans-35"/>
       <use xlink:href="#DejaVuSans-30" x="63.623047"/>
      </g>
     </g>
    </g>
    <g id="xtick_7">
     <g id="line2d_13">
      <path d="M 593.693598 506.16 
L 593.693598 7.2 
" clip-path="url(#pd2a3149692)" style="fill: none; stroke-dasharray: 1.85,0.8; stroke-dashoffset: 0; stroke: #b0b0b0; stroke-width: 0.5"/>
     </g>
     <g id="line2d_14">
      <g>
       <use xlink:href="#m43470d0216" x="593.693598" y="506.16" style="stroke: #000000; stroke-width: 0.8"/>
      </g>
     </g>
     <g id="text_7">
      <!-- 60 -->
      <g transform="translate(582.241098 526.837188) scale(0.18 -0.18)">
       <defs>
        <path id="DejaVuSans-36" d="M 2113 2584 
Q 1688 2584 1439 2293 
Q 1191 2003 1191 1497 
Q 1191 994 1439 701 
Q 1688 409 2113 409 
Q 2538 409 2786 701 
Q 3034 994 3034 1497 
Q 3034 2003 2786 2293 
Q 2538 2584 2113 2584 
z
M 3366 4563 
L 3366 3988 
Q 3128 4100 2886 4159 
Q 2644 4219 2406 4219 
Q 1781 4219 1451 3797 
Q 1122 3375 1075 2522 
Q 1259 2794 1537 2939 
Q 1816 3084 2150 3084 
Q 2853 3084 3261 2657 
Q 3669 2231 3669 1497 
Q 3669 778 3244 343 
Q 2819 -91 2113 -91 
Q 1303 -91 875 529 
Q 447 1150 447 2328 
Q 447 3434 972 4092 
Q 1497 4750 2381 4750 
Q 2619 4750 2861 4703 
Q 3103 4656 3366 4563 
z
" transform="scale(0.015625)"/>
       </defs>
       <use xlink:href="#DejaVuSans-36"/>
       <use xlink:href="#DejaVuSans-30" x="63.623047"/>
      </g>
     </g>
    </g>
    <g id="xtick_8">
     <g id="line2d_15">
      <path d="M 675.95404 506.16 
L 675.95404 7.2 
" clip-path="url(#pd2a3149692)" style="fill: none; stroke-dasharray: 1.85,0.8; stroke-dashoffset: 0; stroke: #b0b0b0; stroke-width: 0.5"/>
     </g>
     <g id="line2d_16">
      <g>
       <use xlink:href="#m43470d0216" x="675.95404" y="506.16" style="stroke: #000000; stroke-width: 0.8"/>
      </g>
     </g>
     <g id="text_8">
      <!-- 70 -->
      <g transform="translate(664.50154 526.837188) scale(0.18 -0.18)">
       <defs>
        <path id="DejaVuSans-37" d="M 525 4666 
L 3525 4666 
L 3525 4397 
L 1831 0 
L 1172 0 
L 2766 4134 
L 525 4134 
L 525 4666 
z
" transform="scale(0.015625)"/>
       </defs>
       <use xlink:href="#DejaVuSans-37"/>
       <use xlink:href="#DejaVuSans-30" x="63.623047"/>
      </g>
     </g>
    </g>
    <g id="text_9">
     <!-- Decision Round -->
     <g transform="translate(343.067656 548.257813) scale(0.18 -0.18)">
      <defs>
       <path id="DejaVuSans-44" d="M 1259 4147 
L 1259 519 
L 2022 519 
Q 2988 519 3436 956 
Q 3884 1394 3884 2338 
Q 3884 3275 3436 3711 
Q 2988 4147 2022 4147 
L 1259 4147 
z
M 628 4666 
L 1925 4666 
Q 3281 4666 3915 4102 
Q 4550 3538 4550 2338 
Q 4550 1131 3912 565 
Q 3275 0 1925 0 
L 628 0 
L 628 4666 
z
" transform="scale(0.015625)"/>
       <path id="DejaVuSans-65" d="M 3597 1894 
L 3597 1613 
L 953 1613 
Q 991 1019 1311 708 
Q 1631 397 2203 397 
Q 2534 397 2845 478 
Q 3156 559 3463 722 
L 3463 178 
Q 3153 47 2828 -22 
Q 2503 -91 2169 -91 
Q 1331 -91 842 396 
Q 353 884 353 1716 
Q 353 2575 817 3079 
Q 1281 3584 2069 3584 
Q 2775 3584 3186 3129 
Q 3597 2675 3597 1894 
z
M 3022 2063 
Q 3016 2534 2758 2815 
Q 2500 3097 2075 3097 
Q 1594 3097 1305 2825 
Q 1016 2553 972 2059 
L 3022 2063 
z
" transform="scale(0.015625)"/>
       <path id="DejaVuSans-63" d="M 3122 3366 
L 3122 2828 
Q 2878 2963 2633 3030 
Q 2388 3097 2138 3097 
Q 1578 3097 1268 2742 
Q 959 2388 959 1747 
Q 959 1106 1268 751 
Q 1578 397 2138 397 
Q 2388 397 2633 464 
Q 2878 531 3122 666 
L 3122 134 
Q 2881 22 2623 -34 
Q 2366 -91 2075 -91 
Q 1284 -91 818 406 
Q 353 903 353 1747 
Q 353 2603 823 3093 
Q 1294 3584 2113 3584 
Q 2378 3584 2631 3529 
Q 2884 3475 3122 3366 
z
" transform="scale(0.015625)"/>
       <path id="DejaVuSans-69" d="M 603 3500 
L 1178 3500 
L 1178 0 
L 603 0 
L 603 3500 
z
M 603 4863 
L 1178 4863 
L 1178 4134 
L 603 4134 
L 603 4863 
z
" transform="scale(0.015625)"/>
       <path id="DejaVuSans-73" d="M 2834 3397 
L 2834 2853 
Q 2591 2978 2328 3040 
Q 2066 3103 1784 3103 
Q 1356 3103 1142 2972 
Q 928 2841 928 2578 
Q 928 2378 1081 2264 
Q 1234 2150 1697 2047 
L 1894 2003 
Q 2506 1872 2764 1633 
Q 3022 1394 3022 966 
Q 3022 478 2636 193 
Q 2250 -91 1575 -91 
Q 1294 -91 989 -36 
Q 684 19 347 128 
L 347 722 
Q 666 556 975 473 
Q 1284 391 1588 391 
Q 1994 391 2212 530 
Q 2431 669 2431 922 
Q 2431 1156 2273 1281 
Q 2116 1406 1581 1522 
L 1381 1569 
Q 847 1681 609 1914 
Q 372 2147 372 2553 
Q 372 3047 722 3315 
Q 1072 3584 1716 3584 
Q 2034 3584 2315 3537 
Q 2597 3491 2834 3397 
z
" transform="scale(0.015625)"/>
       <path id="DejaVuSans-6f" d="M 1959 3097 
Q 1497 3097 1228 2736 
Q 959 2375 959 1747 
Q 959 1119 1226 758 
Q 1494 397 1959 397 
Q 2419 397 2687 759 
Q 2956 1122 2956 1747 
Q 2956 2369 2687 2733 
Q 2419 3097 1959 3097 
z
M 1959 3584 
Q 2709 3584 3137 3096 
Q 3566 2609 3566 1747 
Q 3566 888 3137 398 
Q 2709 -91 1959 -91 
Q 1206 -91 779 398 
Q 353 888 353 1747 
Q 353 2609 779 3096 
Q 1206 3584 1959 3584 
z
" transform="scale(0.015625)"/>
       <path id="DejaVuSans-6e" d="M 3513 2113 
L 3513 0 
L 2938 0 
L 2938 2094 
Q 2938 2591 2744 2837 
Q 2550 3084 2163 3084 
Q 1697 3084 1428 2787 
Q 1159 2491 1159 1978 
L 1159 0 
L 581 0 
L 581 3500 
L 1159 3500 
L 1159 2956 
Q 1366 3272 1645 3428 
Q 1925 3584 2291 3584 
Q 2894 3584 3203 3211 
Q 3513 2838 3513 2113 
z
" transform="scale(0.015625)"/>
       <path id="DejaVuSans-20" transform="scale(0.015625)"/>
       <path id="DejaVuSans-52" d="M 2841 2188 
Q 3044 2119 3236 1894 
Q 3428 1669 3622 1275 
L 4263 0 
L 3584 0 
L 2988 1197 
Q 2756 1666 2539 1819 
Q 2322 1972 1947 1972 
L 1259 1972 
L 1259 0 
L 628 0 
L 628 4666 
L 2053 4666 
Q 2853 4666 3247 4331 
Q 3641 3997 3641 3322 
Q 3641 2881 3436 2590 
Q 3231 2300 2841 2188 
z
M 1259 4147 
L 1259 2491 
L 2053 2491 
Q 2509 2491 2742 2702 
Q 2975 2913 2975 3322 
Q 2975 3731 2742 3939 
Q 2509 4147 2053 4147 
L 1259 4147 
z
" transform="scale(0.015625)"/>
       <path id="DejaVuSans-75" d="M 544 1381 
L 544 3500 
L 1119 3500 
L 1119 1403 
Q 1119 906 1312 657 
Q 1506 409 1894 409 
Q 2359 409 2629 706 
Q 2900 1003 2900 1516 
L 2900 3500 
L 3475 3500 
L 3475 0 
L 2900 0 
L 2900 538 
Q 2691 219 2414 64 
Q 2138 -91 1772 -91 
Q 1169 -91 856 284 
Q 544 659 544 1381 
z
M 1991 3584 
L 1991 3584 
z
" transform="scale(0.015625)"/>
       <path id="DejaVuSans-64" d="M 2906 2969 
L 2906 4863 
L 3481 4863 
L 3481 0 
L 2906 0 
L 2906 525 
Q 2725 213 2448 61 
Q 2172 -91 1784 -91 
Q 1150 -91 751 415 
Q 353 922 353 1747 
Q 353 2572 751 3078 
Q 1150 3584 1784 3584 
Q 2172 3584 2448 3432 
Q 2725 3281 2906 2969 
z
M 947 1747 
Q 947 1113 1208 752 
Q 1469 391 1925 391 
Q 2381 391 2643 752 
Q 2906 1113 2906 1747 
Q 2906 2381 2643 2742 
Q 2381 3103 1925 3103 
Q 1469 3103 1208 2742 
Q 947 2381 947 1747 
z
" transform="scale(0.015625)"/>
      </defs>
      <use xlink:href="#DejaVuSans-44"/>
      <use xlink:href="#DejaVuSans-65" x="77.001953"/>
      <use xlink:href="#DejaVuSans-63" x="138.525391"/>
      <use xlink:href="#DejaVuSans-69" x="193.505859"/>
      <use xlink:href="#DejaVuSans-73" x="221.289062"/>
      <use xlink:href="#DejaVuSans-69" x="273.388672"/>
      <use xlink:href="#DejaVuSans-6f" x="301.171875"/>
      <use xlink:href="#DejaVuSans-6e" x="362.353516"/>
      <use xlink:href="#DejaVuSans-20" x="425.732422"/>
      <use xlink:href="#DejaVuSans-52" x="457.519531"/>
      <use xlink:href="#DejaVuSans-6f" x="522.501953"/>
      <use xlink:href="#DejaVuSans-75" x="583.683594"/>
      <use xlink:href="#DejaVuSans-6e" x="647.0625"/>
      <use xlink:href="#DejaVuSans-64" x="710.441406"/>
     </g>
    </g>
   </g>
   <g id="matplotlib.axis_2">
    <g id="ytick_1">
     <g id="line2d_17">
      <path d="M 77.920625 431.070865 
L 747.520625 431.070865 
" clip-path="url(#pd2a3149692)" style="fill: none; stroke-dasharray: 1.85,0.8; stroke-dashoffset: 0; stroke: #b0b0b0; stroke-width: 0.5"/>
     </g>
     <g id="line2d_18">
      <defs>
       <path id="m3fa2a42ea1" d="M 0 0 
L -3.5 0 
" style="stroke: #000000; stroke-width: 0.8"/>
      </defs>
      <g>
       <use xlink:href="#m3fa2a42ea1" x="77.920625" y="431.070865" style="stroke: #000000; stroke-width: 0.8"/>
      </g>
     </g>
     <g id="text_10">
      <!-- $\mathdefault{10^{-3}}$ -->
      <g transform="translate(28.620625 437.909458) scale(0.18 -0.18)">
       <defs>
        <path id="DejaVuSans-2212" d="M 678 2272 
L 4684 2272 
L 4684 1741 
L 678 1741 
L 678 2272 
z
" transform="scale(0.015625)"/>
       </defs>
       <use xlink:href="#DejaVuSans-31" transform="translate(0 0.765625)"/>
       <use xlink:href="#DejaVuSans-30" transform="translate(63.623047 0.765625)"/>
       <use xlink:href="#DejaVuSans-2212" transform="translate(128.203125 39.046875) scale(0.7)"/>
       <use xlink:href="#DejaVuSans-33" transform="translate(186.855469 39.046875) scale(0.7)"/>
      </g>
     </g>
    </g>
    <g id="ytick_2">
     <g id="line2d_19">
      <path d="M 77.920625 342.674882 
L 747.520625 342.674882 
" clip-path="url(#pd2a3149692)" style="fill: none; stroke-dasharray: 1.85,0.8; stroke-dashoffset: 0; stroke: #b0b0b0; stroke-width: 0.5"/>
     </g>
     <g id="line2d_20">
      <g>
       <use xlink:href="#m3fa2a42ea1" x="77.920625" y="342.674882" style="stroke: #000000; stroke-width: 0.8"/>
      </g>
     </g>
     <g id="text_11">
      <!-- $\mathdefault{10^{-2}}$ -->
      <g transform="translate(28.620625 349.513475) scale(0.18 -0.18)">
       <use xlink:href="#DejaVuSans-31" transform="translate(0 0.765625)"/>
       <use xlink:href="#DejaVuSans-30" transform="translate(63.623047 0.765625)"/>
       <use xlink:href="#DejaVuSans-2212" transform="translate(128.203125 39.046875) scale(0.7)"/>
       <use xlink:href="#DejaVuSans-32" transform="translate(186.855469 39.046875) scale(0.7)"/>
      </g>
     </g>
    </g>
    <g id="ytick_3">
     <g id="line2d_21">
      <path d="M 77.920625 254.278899 
L 747.520625 254.278899 
" clip-path="url(#pd2a3149692)" style="fill: none; stroke-dasharray: 1.85,0.8; stroke-dashoffset: 0; stroke: #b0b0b0; stroke-width: 0.5"/>
     </g>
     <g id="line2d_22">
      <g>
       <use xlink:href="#m3fa2a42ea1" x="77.920625" y="254.278899" style="stroke: #000000; stroke-width: 0.8"/>
      </g>
     </g>
     <g id="text_12">
      <!-- $\mathdefault{10^{-1}}$ -->
      <g transform="translate(28.620625 261.117492) scale(0.18 -0.18)">
       <use xlink:href="#DejaVuSans-31" transform="translate(0 0.684375)"/>
       <use xlink:href="#DejaVuSans-30" transform="translate(63.623047 0.684375)"/>
       <use xlink:href="#DejaVuSans-2212" transform="translate(128.203125 38.965625) scale(0.7)"/>
       <use xlink:href="#DejaVuSans-31" transform="translate(186.855469 38.965625) scale(0.7)"/>
      </g>
     </g>
    </g>
    <g id="ytick_4">
     <g id="line2d_23">
      <path d="M 77.920625 165.882916 
L 747.520625 165.882916 
" clip-path="url(#pd2a3149692)" style="fill: none; stroke-dasharray: 1.85,0.8; stroke-dashoffset: 0; stroke: #b0b0b0; stroke-width: 0.5"/>
     </g>
     <g id="line2d_24">
      <g>
       <use xlink:href="#m3fa2a42ea1" x="77.920625" y="165.882916" style="stroke: #000000; stroke-width: 0.8"/>
      </g>
     </g>
     <g id="text_13">
      <!-- $\mathdefault{10^{0}}$ -->
      <g transform="translate(39.240625 172.721509) scale(0.18 -0.18)">
       <use xlink:href="#DejaVuSans-31" transform="translate(0 0.765625)"/>
       <use xlink:href="#DejaVuSans-30" transform="translate(63.623047 0.765625)"/>
       <use xlink:href="#DejaVuSans-30" transform="translate(128.203125 39.046875) scale(0.7)"/>
      </g>
     </g>
    </g>
    <g id="ytick_5">
     <g id="line2d_25">
      <path d="M 77.920625 77.486933 
L 747.520625 77.486933 
" clip-path="url(#pd2a3149692)" style="fill: none; stroke-dasharray: 1.85,0.8; stroke-dashoffset: 0; stroke: #b0b0b0; stroke-width: 0.5"/>
     </g>
     <g id="line2d_26">
      <g>
       <use xlink:href="#m3fa2a42ea1" x="77.920625" y="77.486933" style="stroke: #000000; stroke-width: 0.8"/>
      </g>
     </g>
     <g id="text_14">
      <!-- $\mathdefault{10^{1}}$ -->
      <g transform="translate(39.240625 84.325527) scale(0.18 -0.18)">
       <use xlink:href="#DejaVuSans-31" transform="translate(0 0.684375)"/>
       <use xlink:href="#DejaVuSans-30" transform="translate(63.623047 0.684375)"/>
       <use xlink:href="#DejaVuSans-31" transform="translate(128.203125 38.965625) scale(0.7)"/>
      </g>
     </g>
    </g>
    <g id="ytick_6">
     <g id="line2d_27">
      <defs>
       <path id="ma6bbef106d" d="M 0 0 
L -2 0 
" style="stroke: #000000; stroke-width: 0.6"/>
      </defs>
      <g>
       <use xlink:href="#ma6bbef106d" x="77.920625" y="492.857005" style="stroke: #000000; stroke-width: 0.6"/>
      </g>
     </g>
    </g>
    <g id="ytick_7">
     <g id="line2d_28">
      <g>
       <use xlink:href="#ma6bbef106d" x="77.920625" y="477.291245" style="stroke: #000000; stroke-width: 0.6"/>
      </g>
     </g>
    </g>
    <g id="ytick_8">
     <g id="line2d_29">
      <g>
       <use xlink:href="#ma6bbef106d" x="77.920625" y="466.247163" style="stroke: #000000; stroke-width: 0.6"/>
      </g>
     </g>
    </g>
    <g id="ytick_9">
     <g id="line2d_30">
      <g>
       <use xlink:href="#ma6bbef106d" x="77.920625" y="457.680707" style="stroke: #000000; stroke-width: 0.6"/>
      </g>
     </g>
    </g>
    <g id="ytick_10">
     <g id="line2d_31">
      <g>
       <use xlink:href="#ma6bbef106d" x="77.920625" y="450.681403" style="stroke: #000000; stroke-width: 0.6"/>
      </g>
     </g>
    </g>
    <g id="ytick_11">
     <g id="line2d_32">
      <g>
       <use xlink:href="#ma6bbef106d" x="77.920625" y="444.763576" style="stroke: #000000; stroke-width: 0.6"/>
      </g>
     </g>
    </g>
    <g id="ytick_12">
     <g id="line2d_33">
      <g>
       <use xlink:href="#ma6bbef106d" x="77.920625" y="439.637321" style="stroke: #000000; stroke-width: 0.6"/>
      </g>
     </g>
    </g>
    <g id="ytick_13">
     <g id="line2d_34">
      <g>
       <use xlink:href="#ma6bbef106d" x="77.920625" y="435.115643" style="stroke: #000000; stroke-width: 0.6"/>
      </g>
     </g>
    </g>
    <g id="ytick_14">
     <g id="line2d_35">
      <g>
       <use xlink:href="#ma6bbef106d" x="77.920625" y="404.461022" style="stroke: #000000; stroke-width: 0.6"/>
      </g>
     </g>
    </g>
    <g id="ytick_15">
     <g id="line2d_36">
      <g>
       <use xlink:href="#ma6bbef106d" x="77.920625" y="388.895262" style="stroke: #000000; stroke-width: 0.6"/>
      </g>
     </g>
    </g>
    <g id="ytick_16">
     <g id="line2d_37">
      <g>
       <use xlink:href="#ma6bbef106d" x="77.920625" y="377.85118" style="stroke: #000000; stroke-width: 0.6"/>
      </g>
     </g>
    </g>
    <g id="ytick_17">
     <g id="line2d_38">
      <g>
       <use xlink:href="#ma6bbef106d" x="77.920625" y="369.284724" style="stroke: #000000; stroke-width: 0.6"/>
      </g>
     </g>
    </g>
    <g id="ytick_18">
     <g id="line2d_39">
      <g>
       <use xlink:href="#ma6bbef106d" x="77.920625" y="362.28542" style="stroke: #000000; stroke-width: 0.6"/>
      </g>
     </g>
    </g>
    <g id="ytick_19">
     <g id="line2d_40">
      <g>
       <use xlink:href="#ma6bbef106d" x="77.920625" y="356.367593" style="stroke: #000000; stroke-width: 0.6"/>
      </g>
     </g>
    </g>
    <g id="ytick_20">
     <g id="line2d_41">
      <g>
       <use xlink:href="#ma6bbef106d" x="77.920625" y="351.241338" style="stroke: #000000; stroke-width: 0.6"/>
      </g>
     </g>
    </g>
    <g id="ytick_21">
     <g id="line2d_42">
      <g>
       <use xlink:href="#ma6bbef106d" x="77.920625" y="346.71966" style="stroke: #000000; stroke-width: 0.6"/>
      </g>
     </g>
    </g>
    <g id="ytick_22">
     <g id="line2d_43">
      <g>
       <use xlink:href="#ma6bbef106d" x="77.920625" y="316.065039" style="stroke: #000000; stroke-width: 0.6"/>
      </g>
     </g>
    </g>
    <g id="ytick_23">
     <g id="line2d_44">
      <g>
       <use xlink:href="#ma6bbef106d" x="77.920625" y="300.499279" style="stroke: #000000; stroke-width: 0.6"/>
      </g>
     </g>
    </g>
    <g id="ytick_24">
     <g id="line2d_45">
      <g>
       <use xlink:href="#ma6bbef106d" x="77.920625" y="289.455197" style="stroke: #000000; stroke-width: 0.6"/>
      </g>
     </g>
    </g>
    <g id="ytick_25">
     <g id="line2d_46">
      <g>
       <use xlink:href="#ma6bbef106d" x="77.920625" y="280.888741" style="stroke: #000000; stroke-width: 0.6"/>
      </g>
     </g>
    </g>
    <g id="ytick_26">
     <g id="line2d_47">
      <g>
       <use xlink:href="#ma6bbef106d" x="77.920625" y="273.889437" style="stroke: #000000; stroke-width: 0.6"/>
      </g>
     </g>
    </g>
    <g id="ytick_27">
     <g id="line2d_48">
      <g>
       <use xlink:href="#ma6bbef106d" x="77.920625" y="267.97161" style="stroke: #000000; stroke-width: 0.6"/>
      </g>
     </g>
    </g>
    <g id="ytick_28">
     <g id="line2d_49">
      <g>
       <use xlink:href="#ma6bbef106d" x="77.920625" y="262.845355" style="stroke: #000000; stroke-width: 0.6"/>
      </g>
     </g>
    </g>
    <g id="ytick_29">
     <g id="line2d_50">
      <g>
       <use xlink:href="#ma6bbef106d" x="77.920625" y="258.323677" style="stroke: #000000; stroke-width: 0.6"/>
      </g>
     </g>
    </g>
    <g id="ytick_30">
     <g id="line2d_51">
      <g>
       <use xlink:href="#ma6bbef106d" x="77.920625" y="227.669056" style="stroke: #000000; stroke-width: 0.6"/>
      </g>
     </g>
    </g>
    <g id="ytick_31">
     <g id="line2d_52">
      <g>
       <use xlink:href="#ma6bbef106d" x="77.920625" y="212.103296" style="stroke: #000000; stroke-width: 0.6"/>
      </g>
     </g>
    </g>
    <g id="ytick_32">
     <g id="line2d_53">
      <g>
       <use xlink:href="#ma6bbef106d" x="77.920625" y="201.059214" style="stroke: #000000; stroke-width: 0.6"/>
      </g>
     </g>
    </g>
    <g id="ytick_33">
     <g id="line2d_54">
      <g>
       <use xlink:href="#ma6bbef106d" x="77.920625" y="192.492758" style="stroke: #000000; stroke-width: 0.6"/>
      </g>
     </g>
    </g>
    <g id="ytick_34">
     <g id="line2d_55">
      <g>
       <use xlink:href="#ma6bbef106d" x="77.920625" y="185.493454" style="stroke: #000000; stroke-width: 0.6"/>
      </g>
     </g>
    </g>
    <g id="ytick_35">
     <g id="line2d_56">
      <g>
       <use xlink:href="#ma6bbef106d" x="77.920625" y="179.575627" style="stroke: #000000; stroke-width: 0.6"/>
      </g>
     </g>
    </g>
    <g id="ytick_36">
     <g id="line2d_57">
      <g>
       <use xlink:href="#ma6bbef106d" x="77.920625" y="174.449372" style="stroke: #000000; stroke-width: 0.6"/>
      </g>
     </g>
    </g>
    <g id="ytick_37">
     <g id="line2d_58">
      <g>
       <use xlink:href="#ma6bbef106d" x="77.920625" y="169.927694" style="stroke: #000000; stroke-width: 0.6"/>
      </g>
     </g>
    </g>
    <g id="ytick_38">
     <g id="line2d_59">
      <g>
       <use xlink:href="#ma6bbef106d" x="77.920625" y="139.273073" style="stroke: #000000; stroke-width: 0.6"/>
      </g>
     </g>
    </g>
    <g id="ytick_39">
     <g id="line2d_60">
      <g>
       <use xlink:href="#ma6bbef106d" x="77.920625" y="123.707313" style="stroke: #000000; stroke-width: 0.6"/>
      </g>
     </g>
    </g>
    <g id="ytick_40">
     <g id="line2d_61">
      <g>
       <use xlink:href="#ma6bbef106d" x="77.920625" y="112.663231" style="stroke: #000000; stroke-width: 0.6"/>
      </g>
     </g>
    </g>
    <g id="ytick_41">
     <g id="line2d_62">
      <g>
       <use xlink:href="#ma6bbef106d" x="77.920625" y="104.096775" style="stroke: #000000; stroke-width: 0.6"/>
      </g>
     </g>
    </g>
    <g id="ytick_42">
     <g id="line2d_63">
      <g>
       <use xlink:href="#ma6bbef106d" x="77.920625" y="97.097471" style="stroke: #000000; stroke-width: 0.6"/>
      </g>
     </g>
    </g>
    <g id="ytick_43">
     <g id="line2d_64">
      <g>
       <use xlink:href="#ma6bbef106d" x="77.920625" y="91.179644" style="stroke: #000000; stroke-width: 0.6"/>
      </g>
     </g>
    </g>
    <g id="ytick_44">
     <g id="line2d_65">
      <g>
       <use xlink:href="#ma6bbef106d" x="77.920625" y="86.053389" style="stroke: #000000; stroke-width: 0.6"/>
      </g>
     </g>
    </g>
    <g id="ytick_45">
     <g id="line2d_66">
      <g>
       <use xlink:href="#ma6bbef106d" x="77.920625" y="81.531711" style="stroke: #000000; stroke-width: 0.6"/>
      </g>
     </g>
    </g>
    <g id="ytick_46">
     <g id="line2d_67">
      <g>
       <use xlink:href="#ma6bbef106d" x="77.920625" y="50.87709" style="stroke: #000000; stroke-width: 0.6"/>
      </g>
     </g>
    </g>
    <g id="ytick_47">
     <g id="line2d_68">
      <g>
       <use xlink:href="#ma6bbef106d" x="77.920625" y="35.31133" style="stroke: #000000; stroke-width: 0.6"/>
      </g>
     </g>
    </g>
    <g id="ytick_48">
     <g id="line2d_69">
      <g>
       <use xlink:href="#ma6bbef106d" x="77.920625" y="24.267248" style="stroke: #000000; stroke-width: 0.6"/>
      </g>
     </g>
    </g>
    <g id="ytick_49">
     <g id="line2d_70">
      <g>
       <use xlink:href="#ma6bbef106d" x="77.920625" y="15.700792" style="stroke: #000000; stroke-width: 0.6"/>
      </g>
     </g>
    </g>
    <g id="ytick_50">
     <g id="line2d_71">
      <g>
       <use xlink:href="#ma6bbef106d" x="77.920625" y="8.701488" style="stroke: #000000; stroke-width: 0.6"/>
      </g>
     </g>
    </g>
    <g id="text_15">
     <!-- Runtime -->
     <g transform="translate(20.877188 294.269063) rotate(-90) scale(0.18 -0.18)">
      <defs>
       <path id="DejaVuSans-74" d="M 1172 4494 
L 1172 3500 
L 2356 3500 
L 2356 3053 
L 1172 3053 
L 1172 1153 
Q 1172 725 1289 603 
Q 1406 481 1766 481 
L 2356 481 
L 2356 0 
L 1766 0 
Q 1100 0 847 248 
Q 594 497 594 1153 
L 594 3053 
L 172 3053 
L 172 3500 
L 594 3500 
L 594 4494 
L 1172 4494 
z
" transform="scale(0.015625)"/>
       <path id="DejaVuSans-6d" d="M 3328 2828 
Q 3544 3216 3844 3400 
Q 4144 3584 4550 3584 
Q 5097 3584 5394 3201 
Q 5691 2819 5691 2113 
L 5691 0 
L 5113 0 
L 5113 2094 
Q 5113 2597 4934 2840 
Q 4756 3084 4391 3084 
Q 3944 3084 3684 2787 
Q 3425 2491 3425 1978 
L 3425 0 
L 2847 0 
L 2847 2094 
Q 2847 2600 2669 2842 
Q 2491 3084 2119 3084 
Q 1678 3084 1418 2786 
Q 1159 2488 1159 1978 
L 1159 0 
L 581 0 
L 581 3500 
L 1159 3500 
L 1159 2956 
Q 1356 3278 1631 3431 
Q 1906 3584 2284 3584 
Q 2666 3584 2933 3390 
Q 3200 3197 3328 2828 
z
" transform="scale(0.015625)"/>
      </defs>
      <use xlink:href="#DejaVuSans-52"/>
      <use xlink:href="#DejaVuSans-75" x="64.982422"/>
      <use xlink:href="#DejaVuSans-6e" x="128.361328"/>
      <use xlink:href="#DejaVuSans-74" x="191.740234"/>
      <use xlink:href="#DejaVuSans-69" x="230.949219"/>
      <use xlink:href="#DejaVuSans-6d" x="258.732422"/>
      <use xlink:href="#DejaVuSans-65" x="356.144531"/>
     </g>
    </g>
   </g>
   <g id="line2d_72">
    <path d="M 108.356989 374.119713 
L 116.583033 254.993856 
L 124.809077 223.016192 
L 133.035121 206.312534 
L 141.261166 195.503446 
L 149.48721 173.221977 
L 157.713254 167.052559 
L 165.939298 158.833996 
L 174.165342 153.277072 
L 182.391387 147.883921 
L 190.617431 143.282795 
L 198.843475 140.043921 
L 207.069519 137.23595 
L 215.295564 134.338743 
L 223.521608 131.144609 
L 231.747652 127.712726 
L 239.973696 124.404622 
L 248.19974 121.70208 
L 256.425785 119.241398 
L 264.651829 116.81741 
L 272.877873 114.63094 
L 281.103917 112.38277 
L 289.329962 110.37451 
L 297.556006 108.308668 
L 305.78205 106.890006 
L 314.008094 105.402903 
L 322.234139 103.845618 
L 330.460183 102.438568 
L 338.686227 100.999241 
L 346.912271 99.556455 
L 355.138315 98.287368 
L 363.36436 97.075611 
L 371.590404 95.719763 
L 379.816448 94.615183 
L 388.042492 93.519589 
L 396.268537 92.476906 
L 404.494581 91.367835 
L 412.720625 90.361023 
L 420.946669 89.395292 
L 429.172713 88.503213 
L 437.398758 87.513698 
L 445.624802 86.64875 
L 453.850846 85.844492 
L 462.07689 85.00709 
L 470.302935 84.157842 
L 478.528979 83.323893 
L 486.755023 82.501141 
L 494.981067 81.663673 
L 503.207111 80.874336 
L 511.433156 79.880716 
L 519.6592 78.706005 
L 527.885244 77.650561 
L 536.111288 76.597639 
L 544.337333 75.687677 
L 552.563377 74.757962 
L 560.789421 73.869342 
L 569.015465 72.906879 
L 577.24151 72.029524 
L 585.467554 71.178423 
L 593.693598 70.300308 
L 601.919642 69.428522 
L 610.145686 68.62974 
L 618.371731 67.875004 
L 626.597775 67.125883 
L 634.823819 66.36937 
L 643.049863 65.581555 
L 651.275908 64.890123 
L 659.501952 64.201026 
L 667.727996 63.445514 
L 675.95404 62.725581 
L 684.180084 62.077515 
L 692.406129 61.365597 
L 700.632173 60.726809 
L 708.858217 60.072464 
L 717.084261 59.326796 
" clip-path="url(#pd2a3149692)" style="fill: none; stroke: #ffff99; stroke-width: 1.5; stroke-linecap: square"/>
   </g>
   <g id="line2d_73">
    <path d="M 108.356989 381.578544 
L 116.583033 226.934901 
L 124.809077 206.779717 
L 133.035121 194.827933 
L 141.261166 186.492696 
L 149.48721 154.070988 
L 157.713254 142.502765 
L 165.939298 131.419706 
L 174.165342 124.966918 
L 182.391387 119.893015 
L 190.617431 115.330784 
L 198.843475 110.952843 
L 207.069519 107.470679 
L 215.295564 104.238214 
L 223.521608 101.210569 
L 231.747652 98.578797 
L 239.973696 96.274214 
L 248.19974 94.009006 
L 256.425785 91.96053 
L 264.651829 90.017445 
L 272.877873 88.269821 
L 281.103917 86.559092 
L 289.329962 85.035115 
L 297.556006 83.581119 
L 305.78205 82.189803 
L 314.008094 80.908882 
L 322.234139 79.708352 
L 330.460183 78.509411 
L 338.686227 77.359259 
L 346.912271 76.288708 
L 355.138315 75.251341 
L 363.36436 74.23396 
L 371.590404 73.257562 
L 379.816448 72.297285 
L 388.042492 71.395805 
L 396.268537 70.534558 
L 404.494581 69.594079 
L 412.720625 68.628339 
L 420.946669 67.794611 
L 429.172713 66.970662 
L 437.398758 66.136059 
L 445.624802 65.335603 
L 453.850846 64.528272 
L 462.07689 63.712127 
L 470.302935 62.963693 
L 478.528979 62.198251 
L 486.755023 61.416436 
L 494.981067 60.643348 
L 503.207111 59.89434 
L 511.433156 58.906548 
L 519.6592 57.895176 
L 527.885244 56.936081 
L 536.111288 55.983544 
L 544.337333 55.091019 
L 552.563377 54.215287 
L 560.789421 53.331099 
L 569.015465 52.48141 
L 577.24151 51.648715 
L 585.467554 50.834456 
L 593.693598 50.020313 
L 601.919642 49.22264 
L 610.145686 48.430399 
L 618.371731 47.641328 
L 626.597775 46.91378 
L 634.823819 46.19795 
L 643.049863 45.479659 
L 651.275908 44.763347 
L 659.501952 44.056631 
L 667.727996 43.384535 
L 675.95404 42.723787 
L 684.180084 42.050351 
L 692.406129 41.395185 
L 700.632173 40.73838 
L 708.858217 40.09356 
L 717.084261 39.305304 
" clip-path="url(#pd2a3149692)" style="fill: none; stroke: #386cb0; stroke-width: 1.5; stroke-linecap: square"/>
   </g>
   <g id="line2d_74">
    <path d="M 108.356989 403.972621 
L 116.583033 209.337569 
L 124.809077 194.377407 
L 133.035121 185.011853 
L 141.261166 178.376121 
L 149.48721 172.613527 
L 157.713254 166.954795 
L 165.939298 163.858177 
L 174.165342 161.109997 
L 182.391387 159.084308 
L 190.617431 156.781601 
L 198.843475 155.051315 
L 207.069519 153.180439 
L 215.295564 151.575861 
L 223.521608 150.096344 
L 231.747652 148.069702 
L 239.973696 146.812063 
L 248.19974 145.960655 
L 256.425785 144.798941 
L 264.651829 143.860561 
L 272.877873 142.852982 
L 281.103917 141.73131 
L 289.329962 141.06142 
L 297.556006 140.471392 
L 305.78205 139.834381 
L 314.008094 139.355725 
L 322.234139 138.738622 
L 330.460183 137.949754 
L 338.686227 137.023627 
L 346.912271 136.461135 
L 355.138315 135.922476 
L 363.36436 134.967968 
L 371.590404 134.344472 
L 379.816448 133.627508 
L 388.042492 133.078176 
L 396.268537 132.690087 
L 404.494581 132.298992 
L 412.720625 131.694772 
L 420.946669 131.173006 
L 429.172713 130.776131 
L 437.398758 130.226016 
L 445.624802 129.646088 
L 453.850846 129.364491 
L 462.07689 128.83676 
L 470.302935 128.518206 
L 478.528979 128.170874 
L 486.755023 127.787603 
L 494.981067 127.238643 
L 503.207111 126.810963 
L 511.433156 126.581477 
L 519.6592 126.099001 
L 527.885244 125.663466 
L 536.111288 125.364739 
L 544.337333 125.044611 
L 552.563377 124.80332 
L 560.789421 124.323358 
L 569.015465 123.949996 
L 577.24151 123.638832 
L 585.467554 123.532294 
L 593.693598 123.407219 
L 601.919642 123.279983 
L 610.145686 123.138773 
L 618.371731 122.989208 
L 626.597775 122.760618 
L 634.823819 122.616923 
L 643.049863 122.471888 
L 651.275908 122.291387 
L 659.501952 122.078751 
L 667.727996 121.89041 
L 675.95404 121.748261 
L 684.180084 121.553079 
L 692.406129 121.411736 
L 700.632173 121.264829 
L 708.858217 121.139815 
L 717.084261 120.996717 
" clip-path="url(#pd2a3149692)" style="fill: none; stroke: #f0027f; stroke-width: 1.5; stroke-linecap: square"/>
   </g>
   <g id="line2d_75">
    <path d="M 108.356989 168.52101 
L 116.583033 142.048226 
L 124.809077 126.955073 
L 133.035121 119.769147 
L 141.261166 114.022699 
L 149.48721 110.612805 
L 157.713254 107.581326 
L 165.939298 104.510609 
L 174.165342 101.832317 
L 182.391387 99.255785 
L 190.617431 96.959684 
L 198.843475 94.71542 
L 207.069519 92.617084 
L 215.295564 90.621239 
L 223.521608 88.715689 
L 231.747652 86.918304 
L 239.973696 85.292672 
L 248.19974 83.632069 
L 256.425785 82.034283 
L 264.651829 80.546453 
L 272.877873 79.185709 
L 281.103917 77.897657 
L 289.329962 76.608119 
L 297.556006 75.434367 
L 305.78205 74.27911 
L 314.008094 73.162568 
L 322.234139 72.076378 
L 330.460183 70.996345 
L 338.686227 70.010194 
L 346.912271 69.10208 
L 355.138315 68.176546 
L 363.36436 67.258262 
L 371.590404 66.401451 
L 379.816448 65.525581 
L 388.042492 64.665609 
L 396.268537 63.82384 
L 404.494581 62.983161 
L 412.720625 62.181342 
L 420.946669 61.355976 
L 429.172713 60.579214 
L 437.398758 59.813158 
L 445.624802 59.078782 
L 453.850846 58.337052 
L 462.07689 57.613347 
L 470.302935 56.887559 
L 478.528979 56.120888 
L 486.755023 55.339056 
L 494.981067 54.624864 
L 503.207111 53.956275 
L 511.433156 53.288623 
L 519.6592 52.353128 
L 527.885244 51.445652 
L 536.111288 50.567571 
L 544.337333 49.726202 
L 552.563377 48.879879 
L 560.789421 48.046078 
L 569.015465 47.268766 
L 577.24151 46.474212 
L 585.467554 45.68051 
L 593.693598 44.891451 
L 601.919642 44.140295 
L 610.145686 43.40007 
L 618.371731 42.63082 
L 626.597775 41.918628 
L 634.823819 41.212685 
L 643.049863 40.505159 
L 651.275908 39.831606 
L 659.501952 39.165325 
L 667.727996 38.47949 
L 675.95404 37.823213 
L 684.180084 37.202165 
L 692.406129 36.561545 
L 700.632173 35.922621 
L 708.858217 35.280157 
L 717.084261 34.648605 
" clip-path="url(#pd2a3149692)" style="fill: none; stroke: #bf5b17; stroke-width: 1.5; stroke-linecap: square"/>
   </g>
   <g id="patch_3">
    <path d="M 77.920625 506.16 
L 77.920625 7.2 
" style="fill: none; stroke: #000000; stroke-width: 0.8; stroke-linejoin: miter; stroke-linecap: square"/>
   </g>
   <g id="patch_4">
    <path d="M 747.520625 506.16 
L 747.520625 7.2 
" style="fill: none; stroke: #000000; stroke-width: 0.8; stroke-linejoin: miter; stroke-linecap: square"/>
   </g>
   <g id="patch_5">
    <path d="M 77.920625 506.16 
L 747.520625 506.16 
" style="fill: none; stroke: #000000; stroke-width: 0.8; stroke-linejoin: miter; stroke-linecap: square"/>
   </g>
   <g id="patch_6">
    <path d="M 77.920625 7.2 
L 747.520625 7.2 
" style="fill: none; stroke: #000000; stroke-width: 0.8; stroke-linejoin: miter; stroke-linecap: square"/>
   </g>
   <g id="legend_1">
    <g id="patch_7">
     <path d="M 456.975313 497.16 
L 734.920625 497.16 
Q 738.520625 497.16 738.520625 493.56 
L 738.520625 389.6775 
Q 738.520625 386.0775 734.920625 386.0775 
L 456.975313 386.0775 
Q 453.375313 386.0775 453.375313 389.6775 
L 453.375313 493.56 
Q 453.375313 497.16 456.975313 497.16 
z
" style="fill: #ffffff; opacity: 0.8; stroke: #cccccc; stroke-linejoin: miter"/>
    </g>
    <g id="line2d_76">
     <path d="M 460.575313 400.654688 
L 478.575313 400.654688 
L 496.575313 400.654688 
" style="fill: none; stroke: #ffff99; stroke-width: 1.5; stroke-linecap: square"/>
    </g>
    <g id="text_16">
     <!-- Hybrid-MBTL-new (Ours) -->
     <g transform="translate(510.975313 406.954688) scale(0.18 -0.18)">
      <defs>
       <path id="DejaVuSans-48" d="M 628 4666 
L 1259 4666 
L 1259 2753 
L 3553 2753 
L 3553 4666 
L 4184 4666 
L 4184 0 
L 3553 0 
L 3553 2222 
L 1259 2222 
L 1259 0 
L 628 0 
L 628 4666 
z
" transform="scale(0.015625)"/>
       <path id="DejaVuSans-79" d="M 2059 -325 
Q 1816 -950 1584 -1140 
Q 1353 -1331 966 -1331 
L 506 -1331 
L 506 -850 
L 844 -850 
Q 1081 -850 1212 -737 
Q 1344 -625 1503 -206 
L 1606 56 
L 191 3500 
L 800 3500 
L 1894 763 
L 2988 3500 
L 3597 3500 
L 2059 -325 
z
" transform="scale(0.015625)"/>
       <path id="DejaVuSans-62" d="M 3116 1747 
Q 3116 2381 2855 2742 
Q 2594 3103 2138 3103 
Q 1681 3103 1420 2742 
Q 1159 2381 1159 1747 
Q 1159 1113 1420 752 
Q 1681 391 2138 391 
Q 2594 391 2855 752 
Q 3116 1113 3116 1747 
z
M 1159 2969 
Q 1341 3281 1617 3432 
Q 1894 3584 2278 3584 
Q 2916 3584 3314 3078 
Q 3713 2572 3713 1747 
Q 3713 922 3314 415 
Q 2916 -91 2278 -91 
Q 1894 -91 1617 61 
Q 1341 213 1159 525 
L 1159 0 
L 581 0 
L 581 4863 
L 1159 4863 
L 1159 2969 
z
" transform="scale(0.015625)"/>
       <path id="DejaVuSans-72" d="M 2631 2963 
Q 2534 3019 2420 3045 
Q 2306 3072 2169 3072 
Q 1681 3072 1420 2755 
Q 1159 2438 1159 1844 
L 1159 0 
L 581 0 
L 581 3500 
L 1159 3500 
L 1159 2956 
Q 1341 3275 1631 3429 
Q 1922 3584 2338 3584 
Q 2397 3584 2469 3576 
Q 2541 3569 2628 3553 
L 2631 2963 
z
" transform="scale(0.015625)"/>
       <path id="DejaVuSans-2d" d="M 313 2009 
L 1997 2009 
L 1997 1497 
L 313 1497 
L 313 2009 
z
" transform="scale(0.015625)"/>
       <path id="DejaVuSans-4d" d="M 628 4666 
L 1569 4666 
L 2759 1491 
L 3956 4666 
L 4897 4666 
L 4897 0 
L 4281 0 
L 4281 4097 
L 3078 897 
L 2444 897 
L 1241 4097 
L 1241 0 
L 628 0 
L 628 4666 
z
" transform="scale(0.015625)"/>
       <path id="DejaVuSans-42" d="M 1259 2228 
L 1259 519 
L 2272 519 
Q 2781 519 3026 730 
Q 3272 941 3272 1375 
Q 3272 1813 3026 2020 
Q 2781 2228 2272 2228 
L 1259 2228 
z
M 1259 4147 
L 1259 2741 
L 2194 2741 
Q 2656 2741 2882 2914 
Q 3109 3088 3109 3444 
Q 3109 3797 2882 3972 
Q 2656 4147 2194 4147 
L 1259 4147 
z
M 628 4666 
L 2241 4666 
Q 2963 4666 3353 4366 
Q 3744 4066 3744 3513 
Q 3744 3084 3544 2831 
Q 3344 2578 2956 2516 
Q 3422 2416 3680 2098 
Q 3938 1781 3938 1306 
Q 3938 681 3513 340 
Q 3088 0 2303 0 
L 628 0 
L 628 4666 
z
" transform="scale(0.015625)"/>
       <path id="DejaVuSans-54" d="M -19 4666 
L 3928 4666 
L 3928 4134 
L 2272 4134 
L 2272 0 
L 1638 0 
L 1638 4134 
L -19 4134 
L -19 4666 
z
" transform="scale(0.015625)"/>
       <path id="DejaVuSans-4c" d="M 628 4666 
L 1259 4666 
L 1259 531 
L 3531 531 
L 3531 0 
L 628 0 
L 628 4666 
z
" transform="scale(0.015625)"/>
       <path id="DejaVuSans-77" d="M 269 3500 
L 844 3500 
L 1563 769 
L 2278 3500 
L 2956 3500 
L 3675 769 
L 4391 3500 
L 4966 3500 
L 4050 0 
L 3372 0 
L 2619 2869 
L 1863 0 
L 1184 0 
L 269 3500 
z
" transform="scale(0.015625)"/>
       <path id="DejaVuSans-28" d="M 1984 4856 
Q 1566 4138 1362 3434 
Q 1159 2731 1159 2009 
Q 1159 1288 1364 580 
Q 1569 -128 1984 -844 
L 1484 -844 
Q 1016 -109 783 600 
Q 550 1309 550 2009 
Q 550 2706 781 3412 
Q 1013 4119 1484 4856 
L 1984 4856 
z
" transform="scale(0.015625)"/>
       <path id="DejaVuSans-4f" d="M 2522 4238 
Q 1834 4238 1429 3725 
Q 1025 3213 1025 2328 
Q 1025 1447 1429 934 
Q 1834 422 2522 422 
Q 3209 422 3611 934 
Q 4013 1447 4013 2328 
Q 4013 3213 3611 3725 
Q 3209 4238 2522 4238 
z
M 2522 4750 
Q 3503 4750 4090 4092 
Q 4678 3434 4678 2328 
Q 4678 1225 4090 567 
Q 3503 -91 2522 -91 
Q 1538 -91 948 565 
Q 359 1222 359 2328 
Q 359 3434 948 4092 
Q 1538 4750 2522 4750 
z
" transform="scale(0.015625)"/>
       <path id="DejaVuSans-29" d="M 513 4856 
L 1013 4856 
Q 1481 4119 1714 3412 
Q 1947 2706 1947 2009 
Q 1947 1309 1714 600 
Q 1481 -109 1013 -844 
L 513 -844 
Q 928 -128 1133 580 
Q 1338 1288 1338 2009 
Q 1338 2731 1133 3434 
Q 928 4138 513 4856 
z
" transform="scale(0.015625)"/>
      </defs>
      <use xlink:href="#DejaVuSans-48"/>
      <use xlink:href="#DejaVuSans-79" x="75.195312"/>
      <use xlink:href="#DejaVuSans-62" x="134.375"/>
      <use xlink:href="#DejaVuSans-72" x="197.851562"/>
      <use xlink:href="#DejaVuSans-69" x="238.964844"/>
      <use xlink:href="#DejaVuSans-64" x="266.748047"/>
      <use xlink:href="#DejaVuSans-2d" x="330.224609"/>
      <use xlink:href="#DejaVuSans-4d" x="366.308594"/>
      <use xlink:href="#DejaVuSans-42" x="452.587891"/>
      <use xlink:href="#DejaVuSans-54" x="521.191406"/>
      <use xlink:href="#DejaVuSans-4c" x="582.275391"/>
      <use xlink:href="#DejaVuSans-2d" x="636.238281"/>
      <use xlink:href="#DejaVuSans-6e" x="672.322266"/>
      <use xlink:href="#DejaVuSans-65" x="735.701172"/>
      <use xlink:href="#DejaVuSans-77" x="797.224609"/>
      <use xlink:href="#DejaVuSans-20" x="879.011719"/>
      <use xlink:href="#DejaVuSans-28" x="910.798828"/>
      <use xlink:href="#DejaVuSans-4f" x="949.8125"/>
      <use xlink:href="#DejaVuSans-75" x="1028.523438"/>
      <use xlink:href="#DejaVuSans-72" x="1091.902344"/>
      <use xlink:href="#DejaVuSans-73" x="1133.015625"/>
      <use xlink:href="#DejaVuSans-29" x="1185.115234"/>
     </g>
    </g>
    <g id="line2d_77">
     <path d="M 460.575313 427.075313 
L 478.575313 427.075313 
L 496.575313 427.075313 
" style="fill: none; stroke: #386cb0; stroke-width: 1.5; stroke-linecap: square"/>
    </g>
    <g id="text_17">
     <!-- Hybrid-MBTL (Ours) -->
     <g transform="translate(510.975313 433.375313) scale(0.18 -0.18)">
      <use xlink:href="#DejaVuSans-48"/>
      <use xlink:href="#DejaVuSans-79" x="75.195312"/>
      <use xlink:href="#DejaVuSans-62" x="134.375"/>
      <use xlink:href="#DejaVuSans-72" x="197.851562"/>
      <use xlink:href="#DejaVuSans-69" x="238.964844"/>
      <use xlink:href="#DejaVuSans-64" x="266.748047"/>
      <use xlink:href="#DejaVuSans-2d" x="330.224609"/>
      <use xlink:href="#DejaVuSans-4d" x="366.308594"/>
      <use xlink:href="#DejaVuSans-42" x="452.587891"/>
      <use xlink:href="#DejaVuSans-54" x="521.191406"/>
      <use xlink:href="#DejaVuSans-4c" x="582.275391"/>
      <use xlink:href="#DejaVuSans-20" x="637.988281"/>
      <use xlink:href="#DejaVuSans-28" x="669.775391"/>
      <use xlink:href="#DejaVuSans-4f" x="708.789062"/>
      <use xlink:href="#DejaVuSans-75" x="787.5"/>
      <use xlink:href="#DejaVuSans-72" x="850.878906"/>
      <use xlink:href="#DejaVuSans-73" x="891.992188"/>
      <use xlink:href="#DejaVuSans-29" x="944.091797"/>
     </g>
    </g>
    <g id="line2d_78">
     <path d="M 460.575313 453.495938 
L 478.575313 453.495938 
L 496.575313 453.495938 
" style="fill: none; stroke: #f0027f; stroke-width: 1.5; stroke-linecap: square"/>
    </g>
    <g id="text_18">
     <!-- SC-MBTL (Ours) -->
     <g transform="translate(510.975313 459.795938) scale(0.18 -0.18)">
      <defs>
       <path id="DejaVuSans-53" d="M 3425 4513 
L 3425 3897 
Q 3066 4069 2747 4153 
Q 2428 4238 2131 4238 
Q 1616 4238 1336 4038 
Q 1056 3838 1056 3469 
Q 1056 3159 1242 3001 
Q 1428 2844 1947 2747 
L 2328 2669 
Q 3034 2534 3370 2195 
Q 3706 1856 3706 1288 
Q 3706 609 3251 259 
Q 2797 -91 1919 -91 
Q 1588 -91 1214 -16 
Q 841 59 441 206 
L 441 856 
Q 825 641 1194 531 
Q 1563 422 1919 422 
Q 2459 422 2753 634 
Q 3047 847 3047 1241 
Q 3047 1584 2836 1778 
Q 2625 1972 2144 2069 
L 1759 2144 
Q 1053 2284 737 2584 
Q 422 2884 422 3419 
Q 422 4038 858 4394 
Q 1294 4750 2059 4750 
Q 2388 4750 2728 4690 
Q 3069 4631 3425 4513 
z
" transform="scale(0.015625)"/>
       <path id="DejaVuSans-43" d="M 4122 4306 
L 4122 3641 
Q 3803 3938 3442 4084 
Q 3081 4231 2675 4231 
Q 1875 4231 1450 3742 
Q 1025 3253 1025 2328 
Q 1025 1406 1450 917 
Q 1875 428 2675 428 
Q 3081 428 3442 575 
Q 3803 722 4122 1019 
L 4122 359 
Q 3791 134 3420 21 
Q 3050 -91 2638 -91 
Q 1578 -91 968 557 
Q 359 1206 359 2328 
Q 359 3453 968 4101 
Q 1578 4750 2638 4750 
Q 3056 4750 3426 4639 
Q 3797 4528 4122 4306 
z
" transform="scale(0.015625)"/>
      </defs>
      <use xlink:href="#DejaVuSans-53"/>
      <use xlink:href="#DejaVuSans-43" x="63.476562"/>
      <use xlink:href="#DejaVuSans-2d" x="133.300781"/>
      <use xlink:href="#DejaVuSans-4d" x="169.384766"/>
      <use xlink:href="#DejaVuSans-42" x="255.664062"/>
      <use xlink:href="#DejaVuSans-54" x="324.267578"/>
      <use xlink:href="#DejaVuSans-4c" x="385.351562"/>
      <use xlink:href="#DejaVuSans-20" x="441.064453"/>
      <use xlink:href="#DejaVuSans-28" x="472.851562"/>
      <use xlink:href="#DejaVuSans-4f" x="511.865234"/>
      <use xlink:href="#DejaVuSans-75" x="590.576172"/>
      <use xlink:href="#DejaVuSans-72" x="653.955078"/>
      <use xlink:href="#DejaVuSans-73" x="695.068359"/>
      <use xlink:href="#DejaVuSans-29" x="747.167969"/>
     </g>
    </g>
    <g id="line2d_79">
     <path d="M 460.575313 479.916563 
L 478.575313 479.916563 
L 496.575313 479.916563 
" style="fill: none; stroke: #bf5b17; stroke-width: 1.5; stroke-linecap: square"/>
    </g>
    <g id="text_19">
     <!-- GP-MBTL -->
     <g transform="translate(510.975313 486.216563) scale(0.18 -0.18)">
      <defs>
       <path id="DejaVuSans-47" d="M 3809 666 
L 3809 1919 
L 2778 1919 
L 2778 2438 
L 4434 2438 
L 4434 434 
Q 4069 175 3628 42 
Q 3188 -91 2688 -91 
Q 1594 -91 976 548 
Q 359 1188 359 2328 
Q 359 3472 976 4111 
Q 1594 4750 2688 4750 
Q 3144 4750 3555 4637 
Q 3966 4525 4313 4306 
L 4313 3634 
Q 3963 3931 3569 4081 
Q 3175 4231 2741 4231 
Q 1884 4231 1454 3753 
Q 1025 3275 1025 2328 
Q 1025 1384 1454 906 
Q 1884 428 2741 428 
Q 3075 428 3337 486 
Q 3600 544 3809 666 
z
" transform="scale(0.015625)"/>
       <path id="DejaVuSans-50" d="M 1259 4147 
L 1259 2394 
L 2053 2394 
Q 2494 2394 2734 2622 
Q 2975 2850 2975 3272 
Q 2975 3691 2734 3919 
Q 2494 4147 2053 4147 
L 1259 4147 
z
M 628 4666 
L 2053 4666 
Q 2838 4666 3239 4311 
Q 3641 3956 3641 3272 
Q 3641 2581 3239 2228 
Q 2838 1875 2053 1875 
L 1259 1875 
L 1259 0 
L 628 0 
L 628 4666 
z
" transform="scale(0.015625)"/>
      </defs>
      <use xlink:href="#DejaVuSans-47"/>
      <use xlink:href="#DejaVuSans-50" x="77.490234"/>
      <use xlink:href="#DejaVuSans-2d" x="135.542969"/>
      <use xlink:href="#DejaVuSans-4d" x="171.626953"/>
      <use xlink:href="#DejaVuSans-42" x="257.90625"/>
      <use xlink:href="#DejaVuSans-54" x="326.509766"/>
      <use xlink:href="#DejaVuSans-4c" x="387.59375"/>
     </g>
    </g>
   </g>
  </g>
 </g>
 <defs>
  <clipPath id="pd2a3149692">
   <rect x="77.920625" y="7.2" width="669.6" height="498.96"/>
  </clipPath>
 </defs>
</svg>
