<?xml version="1.0" encoding="utf-8" standalone="no"?>
<!DOCTYPE svg PUBLIC "-//W3C//DTD SVG 1.1//EN"
  "http://www.w3.org/Graphics/SVG/1.1/DTD/svg11.dtd">
<svg xmlns:xlink="http://www.w3.org/1999/xlink" width="580.270625pt" height="389.977813pt" viewBox="0 0 580.270625 389.977813" xmlns="http://www.w3.org/2000/svg" version="1.1">
 <metadata>
  <rdf:RDF xmlns:dc="http://purl.org/dc/elements/1.1/" xmlns:cc="http://creativecommons.org/ns#" xmlns:rdf="http://www.w3.org/1999/02/22-rdf-syntax-ns#">
   <cc:Work>
    <dc:type rdf:resource="http://purl.org/dc/dcmitype/StillImage"/>
    <dc:date>2025-05-09T17:52:41.339505</dc:date>
    <dc:format>image/svg+xml</dc:format>
    <dc:creator>
     <cc:Agent>
      <dc:title>Matplotlib v3.9.4, https://matplotlib.org/</dc:title>
     </cc:Agent>
    </dc:creator>
   </cc:Work>
  </rdf:RDF>
 </metadata>
 <defs>
  <style type="text/css">*{stroke-linejoin: round; stroke-linecap: butt}</style>
 </defs>
 <g id="figure_1">
  <g id="patch_1">
   <path d="M -0 389.977813 
L 580.270625 389.977813 
L 580.270625 0 
L -0 0 
z
" style="fill: #ffffff"/>
  </g>
  <g id="axes_1">
   <g id="patch_2">
    <path d="M 70.870625 339.84 
L 573.070625 339.84 
L 573.070625 7.2 
L 70.870625 7.2 
z
" style="fill: #ffffff"/>
   </g>
   <g id="PolyCollection_1">
    <path d="M 93.697898 211.901915 
L 93.697898 71578.920276 
L 103.015152 179.280361 
L 112.332406 149.75518 
L 121.64966 135.071472 
L 130.966914 125.594672 
L 140.284169 136.888587 
L 149.601423 120.237377 
L 158.918677 95.462633 
L 168.235931 93.809265 
L 177.553185 91.304599 
L 186.870439 89.584021 
L 196.187694 87.553332 
L 205.504948 86.043105 
L 214.822202 84.803425 
L 224.139456 83.539187 
L 233.45671 82.097766 
L 242.773965 80.957909 
L 252.091219 80.064716 
L 261.408473 79.254956 
L 270.725727 78.336049 
L 280.042981 77.408891 
L 289.360235 76.550943 
L 298.67749 75.805895 
L 307.994744 75.221427 
L 317.311998 74.619189 
L 326.629252 74.143661 
L 335.946506 73.571853 
L 345.26376 73.028892 
L 354.581015 72.451497 
L 363.898269 71.868716 
L 373.215523 71.38988 
L 382.532777 70.664121 
L 391.850031 70.22864 
L 401.167285 69.801318 
L 410.48454 69.421998 
L 419.801794 68.880295 
L 429.119048 68.564201 
L 438.436302 67.998769 
L 447.753556 67.579076 
L 457.070811 67.290605 
L 466.388065 66.897626 
L 475.705319 66.510356 
L 485.022573 66.287499 
L 494.339827 65.996874 
L 503.657081 65.70404 
L 512.974336 65.386514 
L 522.29159 65.22561 
L 531.608844 64.909396 
L 540.926098 64.666359 
L 550.243352 64.541213 
L 550.243352 50.779371 
L 550.243352 50.779371 
L 540.926098 51.281715 
L 531.608844 51.834064 
L 522.29159 52.455599 
L 512.974336 52.900553 
L 503.657081 53.280233 
L 494.339827 53.905965 
L 485.022573 54.359356 
L 475.705319 54.860684 
L 466.388065 55.35937 
L 457.070811 55.86869 
L 447.753556 56.331136 
L 438.436302 56.862615 
L 429.119048 57.489375 
L 419.801794 57.93117 
L 410.48454 58.638691 
L 401.167285 59.108609 
L 391.850031 59.587055 
L 382.532777 60.180446 
L 373.215523 60.794878 
L 363.898269 61.345567 
L 354.581015 61.853188 
L 345.26376 62.313061 
L 335.946506 62.75924 
L 326.629252 63.29858 
L 317.311998 63.779988 
L 307.994744 64.281145 
L 298.67749 64.888915 
L 289.360235 65.484863 
L 280.042981 66.041696 
L 270.725727 66.604363 
L 261.408473 67.29439 
L 252.091219 67.758582 
L 242.773965 68.436087 
L 233.45671 69.204851 
L 224.139456 70.076387 
L 214.822202 70.912427 
L 205.504948 71.688183 
L 196.187694 72.659843 
L 186.870439 73.67742 
L 177.553185 74.643958 
L 168.235931 75.753565 
L 158.918677 76.428348 
L 149.601423 84.626948 
L 140.284169 91.757809 
L 130.966914 121.716014 
L 121.64966 129.907366 
L 112.332406 141.827541 
L 103.015152 161.851569 
L 93.697898 211.901915 
z
" clip-path="url(#p2257df47c5)" style="fill: #386cb0; fill-opacity: 0.1; stroke: #386cb0; stroke-opacity: 0.1"/>
   </g>
   <g id="PolyCollection_2">
    <defs>
     <path id="m76f763bfd1" d="M 93.697898 -98.305961 
L 93.697898 -65.257813 
L 103.015152 -225.795668 
L 112.332406 -246.949681 
L 121.64966 -259.256239 
L 130.966914 -267.642666 
L 140.284169 -274.396307 
L 149.601423 -280.738511 
L 158.918677 -284.110348 
L 168.235931 -287.082877 
L 177.553185 -289.224928 
L 186.870439 -291.669456 
L 196.187694 -293.507943 
L 205.504948 -295.471978 
L 214.822202 -297.137735 
L 224.139456 -298.677137 
L 233.45671 -300.780939 
L 242.773965 -302.104793 
L 252.091219 -302.986234 
L 261.408473 -304.197051 
L 270.725727 -305.151622 
L 280.042981 -306.206537 
L 289.360235 -307.389383 
L 298.67749 -308.084313 
L 307.994744 -308.699894 
L 317.311998 -309.3597 
L 326.629252 -309.856406 
L 335.946506 -310.494161 
L 345.26376 -311.319688 
L 354.581015 -312.292997 
L 363.898269 -312.875993 
L 373.215523 -313.439139 
L 382.532777 -314.44959 
L 391.850031 -315.107611 
L 401.167285 -315.863861 
L 410.48454 -316.438521 
L 419.801794 -316.840396 
L 429.119048 -317.246261 
L 438.436302 -317.884849 
L 447.753556 -318.432546 
L 457.070811 -318.84283 
L 466.388065 -319.414964 
L 475.705319 -320.031435 
L 485.022573 -320.316667 
L 494.339827 -320.858642 
L 503.657081 -321.174894 
L 512.974336 -321.520963 
L 522.29159 -321.905035 
L 531.608844 -322.467535 
L 540.926098 -322.897296 
L 550.243352 -323.12085 
L 550.243352 -323.373883 
L 550.243352 -323.373883 
L 540.926098 -323.150694 
L 531.608844 -322.722159 
L 522.29159 -322.161009 
L 512.974336 -321.777644 
L 503.657081 -321.432517 
L 494.339827 -321.116983 
L 485.022573 -320.578942 
L 475.705319 -320.295064 
L 466.388065 -319.681643 
L 457.070811 -319.112244 
L 447.753556 -318.704133 
L 438.436302 -318.159627 
L 429.119048 -317.524579 
L 419.801794 -317.119885 
L 410.48454 -316.720409 
L 401.167285 -316.148891 
L 391.850031 -315.39822 
L 382.532777 -314.743982 
L 373.215523 -313.73943 
L 363.898269 -313.178958 
L 354.581015 -312.599484 
L 345.26376 -311.631677 
L 335.946506 -310.811297 
L 326.629252 -310.176732 
L 317.311998 -309.682893 
L 307.994744 -309.027223 
L 298.67749 -308.414711 
L 289.360235 -307.725404 
L 280.042981 -306.552867 
L 270.725727 -305.503531 
L 261.408473 -304.556749 
L 252.091219 -303.357089 
L 242.773965 -302.482745 
L 233.45671 -301.169395 
L 224.139456 -299.082592 
L 214.822202 -297.560461 
L 205.504948 -295.912678 
L 196.187694 -293.967811 
L 186.870439 -292.151291 
L 177.553185 -289.741172 
L 168.235931 -287.626485 
L 158.918677 -284.701119 
L 149.601423 -281.386819 
L 140.284169 -275.17041 
L 130.966914 -268.584676 
L 121.64966 -260.452613 
L 112.332406 -248.677954 
L 103.015152 -229.074429 
L 93.697898 -98.305961 
z
" style="stroke: #f0027f; stroke-opacity: 0.1"/>
    </defs>
    <g clip-path="url(#p2257df47c5)">
     <use xlink:href="#m76f763bfd1" x="0" y="389.977813" style="fill: #f0027f; fill-opacity: 0.1; stroke: #f0027f; stroke-opacity: 0.1"/>
    </g>
   </g>
   <g id="PolyCollection_3">
    <defs>
     <path id="m555158fc3a" d="M 93.697898 -282.278304 
L 93.697898 -274.755994 
L 103.015152 -287.084755 
L 112.332406 -295.547707 
L 121.64966 -302.550572 
L 130.966914 -308.98638 
L 140.284169 -321.132075 
L 149.601423 -325.729127 
L 158.918677 -328.835106 
L 168.235931 -331.226574 
L 177.553185 -333.623598 
L 186.870439 -335.919404 
L 196.187694 -337.553172 
L 205.504948 -339.046796 
L 214.822202 -340.476421 
L 224.139456 -341.673498 
L 233.45671 -342.613141 
L 242.773965 -343.395217 
L 252.091219 -344.33539 
L 261.408473 -345.206582 
L 270.725727 -345.944458 
L 280.042981 -346.702751 
L 289.360235 -347.322548 
L 298.67749 -348.127999 
L 307.994744 -348.766847 
L 317.311998 -349.366297 
L 326.629252 -349.993232 
L 335.946506 -350.568544 
L 345.26376 -351.117919 
L 354.581015 -351.705691 
L 363.898269 -352.323631 
L 373.215523 -352.938484 
L 382.532777 -353.587554 
L 391.850031 -354.189021 
L 401.167285 -354.79785 
L 410.48454 -355.373033 
L 419.801794 -355.886636 
L 429.119048 -356.405711 
L 438.436302 -356.963424 
L 447.753556 -357.485884 
L 457.070811 -358.021082 
L 466.388065 -358.560768 
L 475.705319 -359.052962 
L 485.022573 -359.560697 
L 494.339827 -360.072968 
L 503.657081 -360.591355 
L 512.974336 -361.121285 
L 522.29159 -361.656728 
L 531.608844 -362.159986 
L 540.926098 -362.688053 
L 550.243352 -363.19837 
L 550.243352 -367.657813 
L 550.243352 -367.657813 
L 540.926098 -367.177503 
L 531.608844 -366.718394 
L 522.29159 -366.271497 
L 512.974336 -365.762364 
L 503.657081 -365.278766 
L 494.339827 -364.802122 
L 485.022573 -364.321158 
L 475.705319 -363.878722 
L 466.388065 -363.373386 
L 457.070811 -362.915418 
L 447.753556 -362.4207 
L 438.436302 -361.893075 
L 429.119048 -361.413652 
L 419.801794 -360.852527 
L 410.48454 -360.410351 
L 401.167285 -359.822729 
L 391.850031 -359.323947 
L 382.532777 -358.742583 
L 373.215523 -358.304823 
L 363.898269 -357.750093 
L 354.581015 -357.160814 
L 345.26376 -356.638362 
L 335.946506 -356.092139 
L 326.629252 -355.562895 
L 317.311998 -355.035105 
L 307.994744 -354.469308 
L 298.67749 -353.947738 
L 289.360235 -353.201653 
L 280.042981 -352.629774 
L 270.725727 -351.888682 
L 261.408473 -351.257241 
L 252.091219 -350.539802 
L 242.773965 -349.684372 
L 233.45671 -348.518568 
L 224.139456 -347.464494 
L 214.822202 -346.339336 
L 205.504948 -344.968491 
L 196.187694 -342.944667 
L 186.870439 -341.177391 
L 177.553185 -339.003898 
L 168.235931 -336.814912 
L 158.918677 -334.313891 
L 149.601423 -331.585826 
L 140.284169 -329.008934 
L 130.966914 -325.456728 
L 121.64966 -306.408821 
L 112.332406 -300.440933 
L 103.015152 -292.317945 
L 93.697898 -282.278304 
z
" style="stroke: #bf5b17; stroke-opacity: 0.1"/>
    </defs>
    <g clip-path="url(#p2257df47c5)">
     <use xlink:href="#m555158fc3a" x="0" y="389.977813" style="fill: #bf5b17; fill-opacity: 0.1; stroke: #bf5b17; stroke-opacity: 0.1"/>
    </g>
   </g>
   <g id="matplotlib.axis_1">
    <g id="xtick_1">
     <g id="line2d_1">
      <path d="M 84.380644 339.84 
L 84.380644 7.2 
" clip-path="url(#p2257df47c5)" style="fill: none; stroke-dasharray: 1.85,0.8; stroke-dashoffset: 0; stroke: #b0b0b0; stroke-width: 0.5"/>
     </g>
     <g id="line2d_2">
      <defs>
       <path id="md08b9c8d1f" d="M 0 0 
L 0 3.5 
" style="stroke: #000000; stroke-width: 0.8"/>
      </defs>
      <g>
       <use xlink:href="#md08b9c8d1f" x="84.380644" y="339.84" style="stroke: #000000; stroke-width: 0.8"/>
      </g>
     </g>
     <g id="text_1">
      <!-- 0 -->
      <g transform="translate(79.608769 358.237656) scale(0.15 -0.15)">
       <defs>
        <path id="DejaVuSans-30" d="M 2034 4250 
Q 1547 4250 1301 3770 
Q 1056 3291 1056 2328 
Q 1056 1369 1301 889 
Q 1547 409 2034 409 
Q 2525 409 2770 889 
Q 3016 1369 3016 2328 
Q 3016 3291 2770 3770 
Q 2525 4250 2034 4250 
z
M 2034 4750 
Q 2819 4750 3233 4129 
Q 3647 3509 3647 2328 
Q 3647 1150 3233 529 
Q 2819 -91 2034 -91 
Q 1250 -91 836 529 
Q 422 1150 422 2328 
Q 422 3509 836 4129 
Q 1250 4750 2034 4750 
z
" transform="scale(0.015625)"/>
       </defs>
       <use xlink:href="#DejaVuSans-30"/>
      </g>
     </g>
    </g>
    <g id="xtick_2">
     <g id="line2d_3">
      <path d="M 177.553185 339.84 
L 177.553185 7.2 
" clip-path="url(#p2257df47c5)" style="fill: none; stroke-dasharray: 1.85,0.8; stroke-dashoffset: 0; stroke: #b0b0b0; stroke-width: 0.5"/>
     </g>
     <g id="line2d_4">
      <g>
       <use xlink:href="#md08b9c8d1f" x="177.553185" y="339.84" style="stroke: #000000; stroke-width: 0.8"/>
      </g>
     </g>
     <g id="text_2">
      <!-- 10 -->
      <g transform="translate(168.009435 358.237656) scale(0.15 -0.15)">
       <defs>
        <path id="DejaVuSans-31" d="M 794 531 
L 1825 531 
L 1825 4091 
L 703 3866 
L 703 4441 
L 1819 4666 
L 2450 4666 
L 2450 531 
L 3481 531 
L 3481 0 
L 794 0 
L 794 531 
z
" transform="scale(0.015625)"/>
       </defs>
       <use xlink:href="#DejaVuSans-31"/>
       <use xlink:href="#DejaVuSans-30" x="63.623047"/>
      </g>
     </g>
    </g>
    <g id="xtick_3">
     <g id="line2d_5">
      <path d="M 270.725727 339.84 
L 270.725727 7.2 
" clip-path="url(#p2257df47c5)" style="fill: none; stroke-dasharray: 1.85,0.8; stroke-dashoffset: 0; stroke: #b0b0b0; stroke-width: 0.5"/>
     </g>
     <g id="line2d_6">
      <g>
       <use xlink:href="#md08b9c8d1f" x="270.725727" y="339.84" style="stroke: #000000; stroke-width: 0.8"/>
      </g>
     </g>
     <g id="text_3">
      <!-- 20 -->
      <g transform="translate(261.181977 358.237656) scale(0.15 -0.15)">
       <defs>
        <path id="DejaVuSans-32" d="M 1228 531 
L 3431 531 
L 3431 0 
L 469 0 
L 469 531 
Q 828 903 1448 1529 
Q 2069 2156 2228 2338 
Q 2531 2678 2651 2914 
Q 2772 3150 2772 3378 
Q 2772 3750 2511 3984 
Q 2250 4219 1831 4219 
Q 1534 4219 1204 4116 
Q 875 4013 500 3803 
L 500 4441 
Q 881 4594 1212 4672 
Q 1544 4750 1819 4750 
Q 2544 4750 2975 4387 
Q 3406 4025 3406 3419 
Q 3406 3131 3298 2873 
Q 3191 2616 2906 2266 
Q 2828 2175 2409 1742 
Q 1991 1309 1228 531 
z
" transform="scale(0.015625)"/>
       </defs>
       <use xlink:href="#DejaVuSans-32"/>
       <use xlink:href="#DejaVuSans-30" x="63.623047"/>
      </g>
     </g>
    </g>
    <g id="xtick_4">
     <g id="line2d_7">
      <path d="M 363.898269 339.84 
L 363.898269 7.2 
" clip-path="url(#p2257df47c5)" style="fill: none; stroke-dasharray: 1.85,0.8; stroke-dashoffset: 0; stroke: #b0b0b0; stroke-width: 0.5"/>
     </g>
     <g id="line2d_8">
      <g>
       <use xlink:href="#md08b9c8d1f" x="363.898269" y="339.84" style="stroke: #000000; stroke-width: 0.8"/>
      </g>
     </g>
     <g id="text_4">
      <!-- 30 -->
      <g transform="translate(354.354519 358.237656) scale(0.15 -0.15)">
       <defs>
        <path id="DejaVuSans-33" d="M 2597 2516 
Q 3050 2419 3304 2112 
Q 3559 1806 3559 1356 
Q 3559 666 3084 287 
Q 2609 -91 1734 -91 
Q 1441 -91 1130 -33 
Q 819 25 488 141 
L 488 750 
Q 750 597 1062 519 
Q 1375 441 1716 441 
Q 2309 441 2620 675 
Q 2931 909 2931 1356 
Q 2931 1769 2642 2001 
Q 2353 2234 1838 2234 
L 1294 2234 
L 1294 2753 
L 1863 2753 
Q 2328 2753 2575 2939 
Q 2822 3125 2822 3475 
Q 2822 3834 2567 4026 
Q 2313 4219 1838 4219 
Q 1578 4219 1281 4162 
Q 984 4106 628 3988 
L 628 4550 
Q 988 4650 1302 4700 
Q 1616 4750 1894 4750 
Q 2613 4750 3031 4423 
Q 3450 4097 3450 3541 
Q 3450 3153 3228 2886 
Q 3006 2619 2597 2516 
z
" transform="scale(0.015625)"/>
       </defs>
       <use xlink:href="#DejaVuSans-33"/>
       <use xlink:href="#DejaVuSans-30" x="63.623047"/>
      </g>
     </g>
    </g>
    <g id="xtick_5">
     <g id="line2d_9">
      <path d="M 457.070811 339.84 
L 457.070811 7.2 
" clip-path="url(#p2257df47c5)" style="fill: none; stroke-dasharray: 1.85,0.8; stroke-dashoffset: 0; stroke: #b0b0b0; stroke-width: 0.5"/>
     </g>
     <g id="line2d_10">
      <g>
       <use xlink:href="#md08b9c8d1f" x="457.070811" y="339.84" style="stroke: #000000; stroke-width: 0.8"/>
      </g>
     </g>
     <g id="text_5">
      <!-- 40 -->
      <g transform="translate(447.527061 358.237656) scale(0.15 -0.15)">
       <defs>
        <path id="DejaVuSans-34" d="M 2419 4116 
L 825 1625 
L 2419 1625 
L 2419 4116 
z
M 2253 4666 
L 3047 4666 
L 3047 1625 
L 3713 1625 
L 3713 1100 
L 3047 1100 
L 3047 0 
L 2419 0 
L 2419 1100 
L 313 1100 
L 313 1709 
L 2253 4666 
z
" transform="scale(0.015625)"/>
       </defs>
       <use xlink:href="#DejaVuSans-34"/>
       <use xlink:href="#DejaVuSans-30" x="63.623047"/>
      </g>
     </g>
    </g>
    <g id="xtick_6">
     <g id="line2d_11">
      <path d="M 550.243352 339.84 
L 550.243352 7.2 
" clip-path="url(#p2257df47c5)" style="fill: none; stroke-dasharray: 1.85,0.8; stroke-dashoffset: 0; stroke: #b0b0b0; stroke-width: 0.5"/>
     </g>
     <g id="line2d_12">
      <g>
       <use xlink:href="#md08b9c8d1f" x="550.243352" y="339.84" style="stroke: #000000; stroke-width: 0.8"/>
      </g>
     </g>
     <g id="text_6">
      <!-- 50 -->
      <g transform="translate(540.699602 358.237656) scale(0.15 -0.15)">
       <defs>
        <path id="DejaVuSans-35" d="M 691 4666 
L 3169 4666 
L 3169 4134 
L 1269 4134 
L 1269 2991 
Q 1406 3038 1543 3061 
Q 1681 3084 1819 3084 
Q 2600 3084 3056 2656 
Q 3513 2228 3513 1497 
Q 3513 744 3044 326 
Q 2575 -91 1722 -91 
Q 1428 -91 1123 -41 
Q 819 9 494 109 
L 494 744 
Q 775 591 1075 516 
Q 1375 441 1709 441 
Q 2250 441 2565 725 
Q 2881 1009 2881 1497 
Q 2881 1984 2565 2268 
Q 2250 2553 1709 2553 
Q 1456 2553 1204 2497 
Q 953 2441 691 2322 
L 691 4666 
z
" transform="scale(0.015625)"/>
       </defs>
       <use xlink:href="#DejaVuSans-35"/>
       <use xlink:href="#DejaVuSans-30" x="63.623047"/>
      </g>
     </g>
    </g>
    <g id="text_7">
     <!-- Decision Round -->
     <g transform="translate(252.317656 379.034375) scale(0.18 -0.18)">
      <defs>
       <path id="DejaVuSans-44" d="M 1259 4147 
L 1259 519 
L 2022 519 
Q 2988 519 3436 956 
Q 3884 1394 3884 2338 
Q 3884 3275 3436 3711 
Q 2988 4147 2022 4147 
L 1259 4147 
z
M 628 4666 
L 1925 4666 
Q 3281 4666 3915 4102 
Q 4550 3538 4550 2338 
Q 4550 1131 3912 565 
Q 3275 0 1925 0 
L 628 0 
L 628 4666 
z
" transform="scale(0.015625)"/>
       <path id="DejaVuSans-65" d="M 3597 1894 
L 3597 1613 
L 953 1613 
Q 991 1019 1311 708 
Q 1631 397 2203 397 
Q 2534 397 2845 478 
Q 3156 559 3463 722 
L 3463 178 
Q 3153 47 2828 -22 
Q 2503 -91 2169 -91 
Q 1331 -91 842 396 
Q 353 884 353 1716 
Q 353 2575 817 3079 
Q 1281 3584 2069 3584 
Q 2775 3584 3186 3129 
Q 3597 2675 3597 1894 
z
M 3022 2063 
Q 3016 2534 2758 2815 
Q 2500 3097 2075 3097 
Q 1594 3097 1305 2825 
Q 1016 2553 972 2059 
L 3022 2063 
z
" transform="scale(0.015625)"/>
       <path id="DejaVuSans-63" d="M 3122 3366 
L 3122 2828 
Q 2878 2963 2633 3030 
Q 2388 3097 2138 3097 
Q 1578 3097 1268 2742 
Q 959 2388 959 1747 
Q 959 1106 1268 751 
Q 1578 397 2138 397 
Q 2388 397 2633 464 
Q 2878 531 3122 666 
L 3122 134 
Q 2881 22 2623 -34 
Q 2366 -91 2075 -91 
Q 1284 -91 818 406 
Q 353 903 353 1747 
Q 353 2603 823 3093 
Q 1294 3584 2113 3584 
Q 2378 3584 2631 3529 
Q 2884 3475 3122 3366 
z
" transform="scale(0.015625)"/>
       <path id="DejaVuSans-69" d="M 603 3500 
L 1178 3500 
L 1178 0 
L 603 0 
L 603 3500 
z
M 603 4863 
L 1178 4863 
L 1178 4134 
L 603 4134 
L 603 4863 
z
" transform="scale(0.015625)"/>
       <path id="DejaVuSans-73" d="M 2834 3397 
L 2834 2853 
Q 2591 2978 2328 3040 
Q 2066 3103 1784 3103 
Q 1356 3103 1142 2972 
Q 928 2841 928 2578 
Q 928 2378 1081 2264 
Q 1234 2150 1697 2047 
L 1894 2003 
Q 2506 1872 2764 1633 
Q 3022 1394 3022 966 
Q 3022 478 2636 193 
Q 2250 -91 1575 -91 
Q 1294 -91 989 -36 
Q 684 19 347 128 
L 347 722 
Q 666 556 975 473 
Q 1284 391 1588 391 
Q 1994 391 2212 530 
Q 2431 669 2431 922 
Q 2431 1156 2273 1281 
Q 2116 1406 1581 1522 
L 1381 1569 
Q 847 1681 609 1914 
Q 372 2147 372 2553 
Q 372 3047 722 3315 
Q 1072 3584 1716 3584 
Q 2034 3584 2315 3537 
Q 2597 3491 2834 3397 
z
" transform="scale(0.015625)"/>
       <path id="DejaVuSans-6f" d="M 1959 3097 
Q 1497 3097 1228 2736 
Q 959 2375 959 1747 
Q 959 1119 1226 758 
Q 1494 397 1959 397 
Q 2419 397 2687 759 
Q 2956 1122 2956 1747 
Q 2956 2369 2687 2733 
Q 2419 3097 1959 3097 
z
M 1959 3584 
Q 2709 3584 3137 3096 
Q 3566 2609 3566 1747 
Q 3566 888 3137 398 
Q 2709 -91 1959 -91 
Q 1206 -91 779 398 
Q 353 888 353 1747 
Q 353 2609 779 3096 
Q 1206 3584 1959 3584 
z
" transform="scale(0.015625)"/>
       <path id="DejaVuSans-6e" d="M 3513 2113 
L 3513 0 
L 2938 0 
L 2938 2094 
Q 2938 2591 2744 2837 
Q 2550 3084 2163 3084 
Q 1697 3084 1428 2787 
Q 1159 2491 1159 1978 
L 1159 0 
L 581 0 
L 581 3500 
L 1159 3500 
L 1159 2956 
Q 1366 3272 1645 3428 
Q 1925 3584 2291 3584 
Q 2894 3584 3203 3211 
Q 3513 2838 3513 2113 
z
" transform="scale(0.015625)"/>
       <path id="DejaVuSans-20" transform="scale(0.015625)"/>
       <path id="DejaVuSans-52" d="M 2841 2188 
Q 3044 2119 3236 1894 
Q 3428 1669 3622 1275 
L 4263 0 
L 3584 0 
L 2988 1197 
Q 2756 1666 2539 1819 
Q 2322 1972 1947 1972 
L 1259 1972 
L 1259 0 
L 628 0 
L 628 4666 
L 2053 4666 
Q 2853 4666 3247 4331 
Q 3641 3997 3641 3322 
Q 3641 2881 3436 2590 
Q 3231 2300 2841 2188 
z
M 1259 4147 
L 1259 2491 
L 2053 2491 
Q 2509 2491 2742 2702 
Q 2975 2913 2975 3322 
Q 2975 3731 2742 3939 
Q 2509 4147 2053 4147 
L 1259 4147 
z
" transform="scale(0.015625)"/>
       <path id="DejaVuSans-75" d="M 544 1381 
L 544 3500 
L 1119 3500 
L 1119 1403 
Q 1119 906 1312 657 
Q 1506 409 1894 409 
Q 2359 409 2629 706 
Q 2900 1003 2900 1516 
L 2900 3500 
L 3475 3500 
L 3475 0 
L 2900 0 
L 2900 538 
Q 2691 219 2414 64 
Q 2138 -91 1772 -91 
Q 1169 -91 856 284 
Q 544 659 544 1381 
z
M 1991 3584 
L 1991 3584 
z
" transform="scale(0.015625)"/>
       <path id="DejaVuSans-64" d="M 2906 2969 
L 2906 4863 
L 3481 4863 
L 3481 0 
L 2906 0 
L 2906 525 
Q 2725 213 2448 61 
Q 2172 -91 1784 -91 
Q 1150 -91 751 415 
Q 353 922 353 1747 
Q 353 2572 751 3078 
Q 1150 3584 1784 3584 
Q 2172 3584 2448 3432 
Q 2725 3281 2906 2969 
z
M 947 1747 
Q 947 1113 1208 752 
Q 1469 391 1925 391 
Q 2381 391 2643 752 
Q 2906 1113 2906 1747 
Q 2906 2381 2643 2742 
Q 2381 3103 1925 3103 
Q 1469 3103 1208 2742 
Q 947 2381 947 1747 
z
" transform="scale(0.015625)"/>
      </defs>
      <use xlink:href="#DejaVuSans-44"/>
      <use xlink:href="#DejaVuSans-65" x="77.001953"/>
      <use xlink:href="#DejaVuSans-63" x="138.525391"/>
      <use xlink:href="#DejaVuSans-69" x="193.505859"/>
      <use xlink:href="#DejaVuSans-73" x="221.289062"/>
      <use xlink:href="#DejaVuSans-69" x="273.388672"/>
      <use xlink:href="#DejaVuSans-6f" x="301.171875"/>
      <use xlink:href="#DejaVuSans-6e" x="362.353516"/>
      <use xlink:href="#DejaVuSans-20" x="425.732422"/>
      <use xlink:href="#DejaVuSans-52" x="457.519531"/>
      <use xlink:href="#DejaVuSans-6f" x="522.501953"/>
      <use xlink:href="#DejaVuSans-75" x="583.683594"/>
      <use xlink:href="#DejaVuSans-6e" x="647.0625"/>
      <use xlink:href="#DejaVuSans-64" x="710.441406"/>
     </g>
    </g>
   </g>
   <g id="matplotlib.axis_2">
    <g id="ytick_1">
     <g id="line2d_13">
      <path d="M 70.870625 272.229291 
L 573.070625 272.229291 
" clip-path="url(#p2257df47c5)" style="fill: none; stroke-dasharray: 1.85,0.8; stroke-dashoffset: 0; stroke: #b0b0b0; stroke-width: 0.5"/>
     </g>
     <g id="line2d_14">
      <defs>
       <path id="me80d74621e" d="M 0 0 
L -3.5 0 
" style="stroke: #000000; stroke-width: 0.8"/>
      </defs>
      <g>
       <use xlink:href="#me80d74621e" x="70.870625" y="272.229291" style="stroke: #000000; stroke-width: 0.8"/>
      </g>
     </g>
     <g id="text_8">
      <!-- $\mathdefault{10^{-2}}$ -->
      <g transform="translate(28.620625 277.928119) scale(0.15 -0.15)">
       <defs>
        <path id="DejaVuSans-2212" d="M 678 2272 
L 4684 2272 
L 4684 1741 
L 678 1741 
L 678 2272 
z
" transform="scale(0.015625)"/>
       </defs>
       <use xlink:href="#DejaVuSans-31" transform="translate(0 0.765625)"/>
       <use xlink:href="#DejaVuSans-30" transform="translate(63.623047 0.765625)"/>
       <use xlink:href="#DejaVuSans-2212" transform="translate(128.203125 39.046875) scale(0.7)"/>
       <use xlink:href="#DejaVuSans-32" transform="translate(186.855469 39.046875) scale(0.7)"/>
      </g>
     </g>
    </g>
    <g id="ytick_2">
     <g id="line2d_15">
      <path d="M 70.870625 200.779701 
L 573.070625 200.779701 
" clip-path="url(#p2257df47c5)" style="fill: none; stroke-dasharray: 1.85,0.8; stroke-dashoffset: 0; stroke: #b0b0b0; stroke-width: 0.5"/>
     </g>
     <g id="line2d_16">
      <g>
       <use xlink:href="#me80d74621e" x="70.870625" y="200.779701" style="stroke: #000000; stroke-width: 0.8"/>
      </g>
     </g>
     <g id="text_9">
      <!-- $\mathdefault{10^{-1}}$ -->
      <g transform="translate(28.620625 206.478529) scale(0.15 -0.15)">
       <use xlink:href="#DejaVuSans-31" transform="translate(0 0.684375)"/>
       <use xlink:href="#DejaVuSans-30" transform="translate(63.623047 0.684375)"/>
       <use xlink:href="#DejaVuSans-2212" transform="translate(128.203125 38.965625) scale(0.7)"/>
       <use xlink:href="#DejaVuSans-31" transform="translate(186.855469 38.965625) scale(0.7)"/>
      </g>
     </g>
    </g>
    <g id="ytick_3">
     <g id="line2d_17">
      <path d="M 70.870625 129.330111 
L 573.070625 129.330111 
" clip-path="url(#p2257df47c5)" style="fill: none; stroke-dasharray: 1.85,0.8; stroke-dashoffset: 0; stroke: #b0b0b0; stroke-width: 0.5"/>
     </g>
     <g id="line2d_18">
      <g>
       <use xlink:href="#me80d74621e" x="70.870625" y="129.330111" style="stroke: #000000; stroke-width: 0.8"/>
      </g>
     </g>
     <g id="text_10">
      <!-- $\mathdefault{10^{0}}$ -->
      <g transform="translate(37.470625 135.028939) scale(0.15 -0.15)">
       <use xlink:href="#DejaVuSans-31" transform="translate(0 0.765625)"/>
       <use xlink:href="#DejaVuSans-30" transform="translate(63.623047 0.765625)"/>
       <use xlink:href="#DejaVuSans-30" transform="translate(128.203125 39.046875) scale(0.7)"/>
      </g>
     </g>
    </g>
    <g id="ytick_4">
     <g id="line2d_19">
      <path d="M 70.870625 57.880521 
L 573.070625 57.880521 
" clip-path="url(#p2257df47c5)" style="fill: none; stroke-dasharray: 1.85,0.8; stroke-dashoffset: 0; stroke: #b0b0b0; stroke-width: 0.5"/>
     </g>
     <g id="line2d_20">
      <g>
       <use xlink:href="#me80d74621e" x="70.870625" y="57.880521" style="stroke: #000000; stroke-width: 0.8"/>
      </g>
     </g>
     <g id="text_11">
      <!-- $\mathdefault{10^{1}}$ -->
      <g transform="translate(37.470625 63.579349) scale(0.15 -0.15)">
       <use xlink:href="#DejaVuSans-31" transform="translate(0 0.684375)"/>
       <use xlink:href="#DejaVuSans-30" transform="translate(63.623047 0.684375)"/>
       <use xlink:href="#DejaVuSans-31" transform="translate(128.203125 38.965625) scale(0.7)"/>
      </g>
     </g>
    </g>
    <g id="ytick_5">
     <g id="line2d_21">
      <defs>
       <path id="mf75f61191c" d="M 0 0 
L -2 0 
" style="stroke: #000000; stroke-width: 0.6"/>
      </defs>
      <g>
       <use xlink:href="#mf75f61191c" x="70.870625" y="322.170411" style="stroke: #000000; stroke-width: 0.6"/>
      </g>
     </g>
    </g>
    <g id="ytick_6">
     <g id="line2d_22">
      <g>
       <use xlink:href="#mf75f61191c" x="70.870625" y="309.588763" style="stroke: #000000; stroke-width: 0.6"/>
      </g>
     </g>
    </g>
    <g id="ytick_7">
     <g id="line2d_23">
      <g>
       <use xlink:href="#mf75f61191c" x="70.870625" y="300.661942" style="stroke: #000000; stroke-width: 0.6"/>
      </g>
     </g>
    </g>
    <g id="ytick_8">
     <g id="line2d_24">
      <g>
       <use xlink:href="#mf75f61191c" x="70.870625" y="293.737761" style="stroke: #000000; stroke-width: 0.6"/>
      </g>
     </g>
    </g>
    <g id="ytick_9">
     <g id="line2d_25">
      <g>
       <use xlink:href="#mf75f61191c" x="70.870625" y="288.080293" style="stroke: #000000; stroke-width: 0.6"/>
      </g>
     </g>
    </g>
    <g id="ytick_10">
     <g id="line2d_26">
      <g>
       <use xlink:href="#mf75f61191c" x="70.870625" y="283.296973" style="stroke: #000000; stroke-width: 0.6"/>
      </g>
     </g>
    </g>
    <g id="ytick_11">
     <g id="line2d_27">
      <g>
       <use xlink:href="#mf75f61191c" x="70.870625" y="279.153472" style="stroke: #000000; stroke-width: 0.6"/>
      </g>
     </g>
    </g>
    <g id="ytick_12">
     <g id="line2d_28">
      <g>
       <use xlink:href="#mf75f61191c" x="70.870625" y="275.498645" style="stroke: #000000; stroke-width: 0.6"/>
      </g>
     </g>
    </g>
    <g id="ytick_13">
     <g id="line2d_29">
      <g>
       <use xlink:href="#mf75f61191c" x="70.870625" y="250.720821" style="stroke: #000000; stroke-width: 0.6"/>
      </g>
     </g>
    </g>
    <g id="ytick_14">
     <g id="line2d_30">
      <g>
       <use xlink:href="#mf75f61191c" x="70.870625" y="238.139173" style="stroke: #000000; stroke-width: 0.6"/>
      </g>
     </g>
    </g>
    <g id="ytick_15">
     <g id="line2d_31">
      <g>
       <use xlink:href="#mf75f61191c" x="70.870625" y="229.212352" style="stroke: #000000; stroke-width: 0.6"/>
      </g>
     </g>
    </g>
    <g id="ytick_16">
     <g id="line2d_32">
      <g>
       <use xlink:href="#mf75f61191c" x="70.870625" y="222.288171" style="stroke: #000000; stroke-width: 0.6"/>
      </g>
     </g>
    </g>
    <g id="ytick_17">
     <g id="line2d_33">
      <g>
       <use xlink:href="#mf75f61191c" x="70.870625" y="216.630703" style="stroke: #000000; stroke-width: 0.6"/>
      </g>
     </g>
    </g>
    <g id="ytick_18">
     <g id="line2d_34">
      <g>
       <use xlink:href="#mf75f61191c" x="70.870625" y="211.847383" style="stroke: #000000; stroke-width: 0.6"/>
      </g>
     </g>
    </g>
    <g id="ytick_19">
     <g id="line2d_35">
      <g>
       <use xlink:href="#mf75f61191c" x="70.870625" y="207.703882" style="stroke: #000000; stroke-width: 0.6"/>
      </g>
     </g>
    </g>
    <g id="ytick_20">
     <g id="line2d_36">
      <g>
       <use xlink:href="#mf75f61191c" x="70.870625" y="204.049055" style="stroke: #000000; stroke-width: 0.6"/>
      </g>
     </g>
    </g>
    <g id="ytick_21">
     <g id="line2d_37">
      <g>
       <use xlink:href="#mf75f61191c" x="70.870625" y="179.271231" style="stroke: #000000; stroke-width: 0.6"/>
      </g>
     </g>
    </g>
    <g id="ytick_22">
     <g id="line2d_38">
      <g>
       <use xlink:href="#mf75f61191c" x="70.870625" y="166.689583" style="stroke: #000000; stroke-width: 0.6"/>
      </g>
     </g>
    </g>
    <g id="ytick_23">
     <g id="line2d_39">
      <g>
       <use xlink:href="#mf75f61191c" x="70.870625" y="157.762761" style="stroke: #000000; stroke-width: 0.6"/>
      </g>
     </g>
    </g>
    <g id="ytick_24">
     <g id="line2d_40">
      <g>
       <use xlink:href="#mf75f61191c" x="70.870625" y="150.838581" style="stroke: #000000; stroke-width: 0.6"/>
      </g>
     </g>
    </g>
    <g id="ytick_25">
     <g id="line2d_41">
      <g>
       <use xlink:href="#mf75f61191c" x="70.870625" y="145.181113" style="stroke: #000000; stroke-width: 0.6"/>
      </g>
     </g>
    </g>
    <g id="ytick_26">
     <g id="line2d_42">
      <g>
       <use xlink:href="#mf75f61191c" x="70.870625" y="140.397792" style="stroke: #000000; stroke-width: 0.6"/>
      </g>
     </g>
    </g>
    <g id="ytick_27">
     <g id="line2d_43">
      <g>
       <use xlink:href="#mf75f61191c" x="70.870625" y="136.254292" style="stroke: #000000; stroke-width: 0.6"/>
      </g>
     </g>
    </g>
    <g id="ytick_28">
     <g id="line2d_44">
      <g>
       <use xlink:href="#mf75f61191c" x="70.870625" y="132.599465" style="stroke: #000000; stroke-width: 0.6"/>
      </g>
     </g>
    </g>
    <g id="ytick_29">
     <g id="line2d_45">
      <g>
       <use xlink:href="#mf75f61191c" x="70.870625" y="107.821641" style="stroke: #000000; stroke-width: 0.6"/>
      </g>
     </g>
    </g>
    <g id="ytick_30">
     <g id="line2d_46">
      <g>
       <use xlink:href="#mf75f61191c" x="70.870625" y="95.239993" style="stroke: #000000; stroke-width: 0.6"/>
      </g>
     </g>
    </g>
    <g id="ytick_31">
     <g id="line2d_47">
      <g>
       <use xlink:href="#mf75f61191c" x="70.870625" y="86.313171" style="stroke: #000000; stroke-width: 0.6"/>
      </g>
     </g>
    </g>
    <g id="ytick_32">
     <g id="line2d_48">
      <g>
       <use xlink:href="#mf75f61191c" x="70.870625" y="79.38899" style="stroke: #000000; stroke-width: 0.6"/>
      </g>
     </g>
    </g>
    <g id="ytick_33">
     <g id="line2d_49">
      <g>
       <use xlink:href="#mf75f61191c" x="70.870625" y="73.731523" style="stroke: #000000; stroke-width: 0.6"/>
      </g>
     </g>
    </g>
    <g id="ytick_34">
     <g id="line2d_50">
      <g>
       <use xlink:href="#mf75f61191c" x="70.870625" y="68.948202" style="stroke: #000000; stroke-width: 0.6"/>
      </g>
     </g>
    </g>
    <g id="ytick_35">
     <g id="line2d_51">
      <g>
       <use xlink:href="#mf75f61191c" x="70.870625" y="64.804701" style="stroke: #000000; stroke-width: 0.6"/>
      </g>
     </g>
    </g>
    <g id="ytick_36">
     <g id="line2d_52">
      <g>
       <use xlink:href="#mf75f61191c" x="70.870625" y="61.149875" style="stroke: #000000; stroke-width: 0.6"/>
      </g>
     </g>
    </g>
    <g id="ytick_37">
     <g id="line2d_53">
      <g>
       <use xlink:href="#mf75f61191c" x="70.870625" y="36.372051" style="stroke: #000000; stroke-width: 0.6"/>
      </g>
     </g>
    </g>
    <g id="ytick_38">
     <g id="line2d_54">
      <g>
       <use xlink:href="#mf75f61191c" x="70.870625" y="23.790403" style="stroke: #000000; stroke-width: 0.6"/>
      </g>
     </g>
    </g>
    <g id="ytick_39">
     <g id="line2d_55">
      <g>
       <use xlink:href="#mf75f61191c" x="70.870625" y="14.863581" style="stroke: #000000; stroke-width: 0.6"/>
      </g>
     </g>
    </g>
    <g id="ytick_40">
     <g id="line2d_56">
      <g>
       <use xlink:href="#mf75f61191c" x="70.870625" y="7.9394" style="stroke: #000000; stroke-width: 0.6"/>
      </g>
     </g>
    </g>
    <g id="text_12">
     <!-- Runtime -->
     <g transform="translate(20.877188 211.109063) rotate(-90) scale(0.18 -0.18)">
      <defs>
       <path id="DejaVuSans-74" d="M 1172 4494 
L 1172 3500 
L 2356 3500 
L 2356 3053 
L 1172 3053 
L 1172 1153 
Q 1172 725 1289 603 
Q 1406 481 1766 481 
L 2356 481 
L 2356 0 
L 1766 0 
Q 1100 0 847 248 
Q 594 497 594 1153 
L 594 3053 
L 172 3053 
L 172 3500 
L 594 3500 
L 594 4494 
L 1172 4494 
z
" transform="scale(0.015625)"/>
       <path id="DejaVuSans-6d" d="M 3328 2828 
Q 3544 3216 3844 3400 
Q 4144 3584 4550 3584 
Q 5097 3584 5394 3201 
Q 5691 2819 5691 2113 
L 5691 0 
L 5113 0 
L 5113 2094 
Q 5113 2597 4934 2840 
Q 4756 3084 4391 3084 
Q 3944 3084 3684 2787 
Q 3425 2491 3425 1978 
L 3425 0 
L 2847 0 
L 2847 2094 
Q 2847 2600 2669 2842 
Q 2491 3084 2119 3084 
Q 1678 3084 1418 2786 
Q 1159 2488 1159 1978 
L 1159 0 
L 581 0 
L 581 3500 
L 1159 3500 
L 1159 2956 
Q 1356 3278 1631 3431 
Q 1906 3584 2284 3584 
Q 2666 3584 2933 3390 
Q 3200 3197 3328 2828 
z
" transform="scale(0.015625)"/>
      </defs>
      <use xlink:href="#DejaVuSans-52"/>
      <use xlink:href="#DejaVuSans-75" x="64.982422"/>
      <use xlink:href="#DejaVuSans-6e" x="128.361328"/>
      <use xlink:href="#DejaVuSans-74" x="191.740234"/>
      <use xlink:href="#DejaVuSans-69" x="230.949219"/>
      <use xlink:href="#DejaVuSans-6d" x="258.732422"/>
      <use xlink:href="#DejaVuSans-65" x="356.144531"/>
     </g>
    </g>
   </g>
   <g id="line2d_57">
    <path d="M 93.697898 269.308889 
L 103.015152 169.35806 
L 112.332406 145.538875 
L 121.64966 132.382115 
L 130.966914 123.59478 
L 140.284169 106.753503 
L 149.601423 97.581748 
L 158.918677 84.508331 
L 168.235931 83.486262 
L 177.553185 81.869283 
L 186.870439 80.622439 
L 196.187694 79.221485 
L 205.504948 78.042848 
L 214.822202 77.087024 
L 224.139456 76.083319 
L 233.45671 74.986451 
L 242.773965 74.06961 
L 252.091219 73.30555 
L 261.408473 72.701931 
L 270.725727 71.919047 
L 280.042981 71.207664 
L 289.360235 70.527192 
L 298.67749 69.869762 
L 307.994744 69.271612 
L 317.311998 68.728693 
L 326.629252 68.249716 
L 335.946506 67.696947 
L 345.26376 67.210687 
L 354.581015 66.702045 
L 363.898269 66.163178 
L 373.215523 65.642361 
L 382.532777 64.981629 
L 391.850031 64.453883 
L 401.167285 63.996648 
L 410.48454 63.564269 
L 419.801794 62.925287 
L 429.119048 62.535305 
L 438.436302 61.93378 
L 447.753556 61.448222 
L 457.070811 61.05705 
L 466.388065 60.595261 
L 475.705319 60.141995 
L 485.022573 59.753768 
L 494.339827 59.366205 
L 503.657081 58.874468 
L 512.974336 58.51971 
L 522.29159 58.188275 
L 531.608844 57.688063 
L 540.926098 57.257892 
L 550.243352 56.903544 
" clip-path="url(#p2257df47c5)" style="fill: none; stroke: #386cb0; stroke-width: 3; stroke-linecap: square"/>
   </g>
   <g id="line2d_58">
    <path d="M 93.697898 303.989709 
L 103.015152 162.499478 
L 112.332406 142.151964 
L 121.64966 130.117621 
L 130.966914 121.860567 
L 140.284169 115.19204 
L 149.601423 108.913454 
L 158.918677 105.570673 
L 168.235931 102.621941 
L 177.553185 100.493689 
L 186.870439 98.066504 
L 196.187694 96.239084 
L 205.504948 94.284702 
L 214.822202 92.627995 
L 224.139456 91.097286 
L 233.45671 89.002038 
L 242.773965 87.683468 
L 252.091219 86.805597 
L 261.408473 85.600391 
L 270.725727 84.649737 
L 280.042981 83.597628 
L 289.360235 82.419964 
L 298.67749 81.727861 
L 307.994744 81.113822 
L 317.311998 80.456095 
L 326.629252 79.96083 
L 335.946506 79.324678 
L 345.26376 78.501738 
L 354.581015 77.531194 
L 363.898269 76.949967 
L 373.215523 76.388164 
L 382.532777 75.380677 
L 391.850031 74.724556 
L 401.167285 73.971109 
L 410.48454 73.398027 
L 419.801794 72.997358 
L 429.119048 72.592081 
L 438.436302 71.95527 
L 447.753556 71.409176 
L 457.070811 70.999983 
L 466.388065 70.429223 
L 475.705319 69.814283 
L 485.022573 69.529731 
L 494.339827 68.989731 
L 503.657081 68.67384 
L 512.974336 68.328244 
L 522.29159 67.944527 
L 531.608844 67.382704 
L 540.926098 66.953559 
L 550.243352 66.730188 
" clip-path="url(#p2257df47c5)" style="fill: none; stroke: #f0027f; stroke-width: 3; stroke-linecap: square"/>
   </g>
   <g id="line2d_59">
    <path d="M 93.697898 111.233275 
L 103.015152 100.166272 
L 112.332406 91.887139 
L 121.64966 85.438188 
L 130.966914 71.676073 
L 140.284169 64.658038 
L 149.601423 61.182365 
L 158.918677 58.282552 
L 168.235931 55.831436 
L 177.553185 53.5476 
L 186.870439 51.318179 
L 196.187694 49.611943 
L 205.504948 47.829124 
L 214.822202 46.43167 
L 224.139456 45.273919 
L 233.45671 44.271685 
L 242.773965 43.278955 
L 252.091219 42.385404 
L 261.408473 41.598655 
L 270.725727 40.919123 
L 280.042981 40.170251 
L 289.360235 39.576685 
L 298.67749 38.803706 
L 307.994744 38.228925 
L 317.311998 37.647839 
L 326.629252 37.074953 
L 335.946506 36.524728 
L 345.26376 35.977069 
L 354.581015 35.424837 
L 363.898269 34.822481 
L 373.215523 34.240296 
L 382.532777 33.705817 
L 391.850031 33.115232 
L 401.167285 32.56592 
L 410.48454 31.984015 
L 419.801794 31.508997 
L 429.119048 30.967212 
L 438.436302 30.451772 
L 447.753556 29.926524 
L 457.070811 29.413165 
L 466.388065 28.917528 
L 475.705319 28.418253 
L 485.022573 27.945684 
L 494.339827 27.450261 
L 503.657081 26.954326 
L 512.974336 26.4493 
L 522.29159 25.927991 
L 531.608844 25.454993 
L 540.926098 24.963913 
L 550.243352 24.46968 
" clip-path="url(#p2257df47c5)" style="fill: none; stroke: #bf5b17; stroke-width: 3; stroke-linecap: square"/>
   </g>
   <g id="patch_3">
    <path d="M 70.870625 339.84 
L 70.870625 7.2 
" style="fill: none; stroke: #000000; stroke-width: 0.8; stroke-linejoin: miter; stroke-linecap: square"/>
   </g>
   <g id="patch_4">
    <path d="M 573.070625 339.84 
L 573.070625 7.2 
" style="fill: none; stroke: #000000; stroke-width: 0.8; stroke-linejoin: miter; stroke-linecap: square"/>
   </g>
   <g id="patch_5">
    <path d="M 70.870625 339.84 
L 573.070625 339.84 
" style="fill: none; stroke: #000000; stroke-width: 0.8; stroke-linejoin: miter; stroke-linecap: square"/>
   </g>
   <g id="patch_6">
    <path d="M 70.870625 7.2 
L 573.070625 7.2 
" style="fill: none; stroke: #000000; stroke-width: 0.8; stroke-linejoin: miter; stroke-linecap: square"/>
   </g>
   <g id="legend_1">
    <g id="patch_7">
     <path d="M 365.330625 331.84 
L 561.870625 331.84 
Q 565.070625 331.84 565.070625 328.64 
L 565.070625 259.785 
Q 565.070625 256.585 561.870625 256.585 
L 365.330625 256.585 
Q 362.130625 256.585 362.130625 259.785 
L 362.130625 328.64 
Q 362.130625 331.84 365.330625 331.84 
z
" style="fill: #ffffff; opacity: 0.8; stroke: #cccccc; stroke-linejoin: miter"/>
    </g>
    <g id="line2d_60">
     <path d="M 368.530625 269.5425 
L 384.530625 269.5425 
L 400.530625 269.5425 
" style="fill: none; stroke: #386cb0; stroke-width: 3; stroke-linecap: square"/>
    </g>
    <g id="text_13">
     <!-- M/GP-MBTL (Ours) -->
     <g transform="translate(413.330625 275.1425) scale(0.16 -0.16)">
      <defs>
       <path id="DejaVuSans-4d" d="M 628 4666 
L 1569 4666 
L 2759 1491 
L 3956 4666 
L 4897 4666 
L 4897 0 
L 4281 0 
L 4281 4097 
L 3078 897 
L 2444 897 
L 1241 4097 
L 1241 0 
L 628 0 
L 628 4666 
z
" transform="scale(0.015625)"/>
       <path id="DejaVuSans-2f" d="M 1625 4666 
L 2156 4666 
L 531 -594 
L 0 -594 
L 1625 4666 
z
" transform="scale(0.015625)"/>
       <path id="DejaVuSans-47" d="M 3809 666 
L 3809 1919 
L 2778 1919 
L 2778 2438 
L 4434 2438 
L 4434 434 
Q 4069 175 3628 42 
Q 3188 -91 2688 -91 
Q 1594 -91 976 548 
Q 359 1188 359 2328 
Q 359 3472 976 4111 
Q 1594 4750 2688 4750 
Q 3144 4750 3555 4637 
Q 3966 4525 4313 4306 
L 4313 3634 
Q 3963 3931 3569 4081 
Q 3175 4231 2741 4231 
Q 1884 4231 1454 3753 
Q 1025 3275 1025 2328 
Q 1025 1384 1454 906 
Q 1884 428 2741 428 
Q 3075 428 3337 486 
Q 3600 544 3809 666 
z
" transform="scale(0.015625)"/>
       <path id="DejaVuSans-50" d="M 1259 4147 
L 1259 2394 
L 2053 2394 
Q 2494 2394 2734 2622 
Q 2975 2850 2975 3272 
Q 2975 3691 2734 3919 
Q 2494 4147 2053 4147 
L 1259 4147 
z
M 628 4666 
L 2053 4666 
Q 2838 4666 3239 4311 
Q 3641 3956 3641 3272 
Q 3641 2581 3239 2228 
Q 2838 1875 2053 1875 
L 1259 1875 
L 1259 0 
L 628 0 
L 628 4666 
z
" transform="scale(0.015625)"/>
       <path id="DejaVuSans-2d" d="M 313 2009 
L 1997 2009 
L 1997 1497 
L 313 1497 
L 313 2009 
z
" transform="scale(0.015625)"/>
       <path id="DejaVuSans-42" d="M 1259 2228 
L 1259 519 
L 2272 519 
Q 2781 519 3026 730 
Q 3272 941 3272 1375 
Q 3272 1813 3026 2020 
Q 2781 2228 2272 2228 
L 1259 2228 
z
M 1259 4147 
L 1259 2741 
L 2194 2741 
Q 2656 2741 2882 2914 
Q 3109 3088 3109 3444 
Q 3109 3797 2882 3972 
Q 2656 4147 2194 4147 
L 1259 4147 
z
M 628 4666 
L 2241 4666 
Q 2963 4666 3353 4366 
Q 3744 4066 3744 3513 
Q 3744 3084 3544 2831 
Q 3344 2578 2956 2516 
Q 3422 2416 3680 2098 
Q 3938 1781 3938 1306 
Q 3938 681 3513 340 
Q 3088 0 2303 0 
L 628 0 
L 628 4666 
z
" transform="scale(0.015625)"/>
       <path id="DejaVuSans-54" d="M -19 4666 
L 3928 4666 
L 3928 4134 
L 2272 4134 
L 2272 0 
L 1638 0 
L 1638 4134 
L -19 4134 
L -19 4666 
z
" transform="scale(0.015625)"/>
       <path id="DejaVuSans-4c" d="M 628 4666 
L 1259 4666 
L 1259 531 
L 3531 531 
L 3531 0 
L 628 0 
L 628 4666 
z
" transform="scale(0.015625)"/>
       <path id="DejaVuSans-28" d="M 1984 4856 
Q 1566 4138 1362 3434 
Q 1159 2731 1159 2009 
Q 1159 1288 1364 580 
Q 1569 -128 1984 -844 
L 1484 -844 
Q 1016 -109 783 600 
Q 550 1309 550 2009 
Q 550 2706 781 3412 
Q 1013 4119 1484 4856 
L 1984 4856 
z
" transform="scale(0.015625)"/>
       <path id="DejaVuSans-4f" d="M 2522 4238 
Q 1834 4238 1429 3725 
Q 1025 3213 1025 2328 
Q 1025 1447 1429 934 
Q 1834 422 2522 422 
Q 3209 422 3611 934 
Q 4013 1447 4013 2328 
Q 4013 3213 3611 3725 
Q 3209 4238 2522 4238 
z
M 2522 4750 
Q 3503 4750 4090 4092 
Q 4678 3434 4678 2328 
Q 4678 1225 4090 567 
Q 3503 -91 2522 -91 
Q 1538 -91 948 565 
Q 359 1222 359 2328 
Q 359 3434 948 4092 
Q 1538 4750 2522 4750 
z
" transform="scale(0.015625)"/>
       <path id="DejaVuSans-72" d="M 2631 2963 
Q 2534 3019 2420 3045 
Q 2306 3072 2169 3072 
Q 1681 3072 1420 2755 
Q 1159 2438 1159 1844 
L 1159 0 
L 581 0 
L 581 3500 
L 1159 3500 
L 1159 2956 
Q 1341 3275 1631 3429 
Q 1922 3584 2338 3584 
Q 2397 3584 2469 3576 
Q 2541 3569 2628 3553 
L 2631 2963 
z
" transform="scale(0.015625)"/>
       <path id="DejaVuSans-29" d="M 513 4856 
L 1013 4856 
Q 1481 4119 1714 3412 
Q 1947 2706 1947 2009 
Q 1947 1309 1714 600 
Q 1481 -109 1013 -844 
L 513 -844 
Q 928 -128 1133 580 
Q 1338 1288 1338 2009 
Q 1338 2731 1133 3434 
Q 928 4138 513 4856 
z
" transform="scale(0.015625)"/>
      </defs>
      <use xlink:href="#DejaVuSans-4d"/>
      <use xlink:href="#DejaVuSans-2f" x="86.279297"/>
      <use xlink:href="#DejaVuSans-47" x="119.970703"/>
      <use xlink:href="#DejaVuSans-50" x="197.460938"/>
      <use xlink:href="#DejaVuSans-2d" x="255.513672"/>
      <use xlink:href="#DejaVuSans-4d" x="291.597656"/>
      <use xlink:href="#DejaVuSans-42" x="377.876953"/>
      <use xlink:href="#DejaVuSans-54" x="446.480469"/>
      <use xlink:href="#DejaVuSans-4c" x="507.564453"/>
      <use xlink:href="#DejaVuSans-20" x="563.277344"/>
      <use xlink:href="#DejaVuSans-28" x="595.064453"/>
      <use xlink:href="#DejaVuSans-4f" x="634.078125"/>
      <use xlink:href="#DejaVuSans-75" x="712.789062"/>
      <use xlink:href="#DejaVuSans-72" x="776.167969"/>
      <use xlink:href="#DejaVuSans-73" x="817.28125"/>
      <use xlink:href="#DejaVuSans-29" x="869.380859"/>
     </g>
    </g>
    <g id="line2d_61">
     <path d="M 368.530625 293.0275 
L 384.530625 293.0275 
L 400.530625 293.0275 
" style="fill: none; stroke: #f0027f; stroke-width: 3; stroke-linecap: square"/>
    </g>
    <g id="text_14">
     <!-- M-MBTL -->
     <g transform="translate(413.330625 298.6275) scale(0.16 -0.16)">
      <use xlink:href="#DejaVuSans-4d"/>
      <use xlink:href="#DejaVuSans-2d" x="86.279297"/>
      <use xlink:href="#DejaVuSans-4d" x="122.363281"/>
      <use xlink:href="#DejaVuSans-42" x="208.642578"/>
      <use xlink:href="#DejaVuSans-54" x="277.246094"/>
      <use xlink:href="#DejaVuSans-4c" x="338.330078"/>
     </g>
    </g>
    <g id="line2d_62">
     <path d="M 368.530625 316.5125 
L 384.530625 316.5125 
L 400.530625 316.5125 
" style="fill: none; stroke: #bf5b17; stroke-width: 3; stroke-linecap: square"/>
    </g>
    <g id="text_15">
     <!-- GP-MBTL -->
     <g transform="translate(413.330625 322.1125) scale(0.16 -0.16)">
      <use xlink:href="#DejaVuSans-47"/>
      <use xlink:href="#DejaVuSans-50" x="77.490234"/>
      <use xlink:href="#DejaVuSans-2d" x="135.542969"/>
      <use xlink:href="#DejaVuSans-4d" x="171.626953"/>
      <use xlink:href="#DejaVuSans-42" x="257.90625"/>
      <use xlink:href="#DejaVuSans-54" x="326.509766"/>
      <use xlink:href="#DejaVuSans-4c" x="387.59375"/>
     </g>
    </g>
   </g>
  </g>
 </g>
 <defs>
  <clipPath id="p2257df47c5">
   <rect x="70.870625" y="7.2" width="502.2" height="332.64"/>
  </clipPath>
 </defs>
</svg>
