<?xml version="1.0" encoding="utf-8" standalone="no"?>
<!DOCTYPE svg PUBLIC "-//W3C//DTD SVG 1.1//EN"
  "http://www.w3.org/Graphics/SVG/1.1/DTD/svg11.dtd">
<svg xmlns:xlink="http://www.w3.org/1999/xlink" width="752.49875pt" height="559.20125pt" viewBox="0 0 752.49875 559.20125" xmlns="http://www.w3.org/2000/svg" version="1.1">
 <metadata>
  <rdf:RDF xmlns:dc="http://purl.org/dc/elements/1.1/" xmlns:cc="http://creativecommons.org/ns#" xmlns:rdf="http://www.w3.org/1999/02/22-rdf-syntax-ns#">
   <cc:Work>
    <dc:type rdf:resource="http://purl.org/dc/dcmitype/StillImage"/>
    <dc:date>2025-02-27T10:07:34.508739</dc:date>
    <dc:format>image/svg+xml</dc:format>
    <dc:creator>
     <cc:Agent>
      <dc:title>Matplotlib v3.9.4, https://matplotlib.org/</dc:title>
     </cc:Agent>
    </dc:creator>
   </cc:Work>
  </rdf:RDF>
 </metadata>
 <defs>
  <style type="text/css">*{stroke-linejoin: round; stroke-linecap: butt}</style>
 </defs>
 <g id="figure_1">
  <g id="patch_1">
   <path d="M 0 559.20125 
L 752.49875 559.20125 
L 752.49875 0 
L 0 0 
z
" style="fill: #ffffff"/>
  </g>
  <g id="axes_1">
   <g id="patch_2">
    <path d="M 75.69875 506.16 
L 745.29875 506.16 
L 745.29875 7.2 
L 75.69875 7.2 
z
" style="fill: #ffffff"/>
   </g>
   <g id="PolyCollection_1">
    <defs>
     <path id="mbdce6be3b4" d="M 106.135114 -468.988985 
L 106.135114 -460.571879 
L 230.190717 -460.571879 
L 302.758593 -460.571879 
L 354.24632 -460.571879 
L 394.183304 -460.571879 
L 426.814196 -460.571879 
L 454.403222 -460.571879 
L 478.301923 -460.571879 
L 499.382072 -460.571879 
L 518.238907 -460.571879 
L 535.29699 -460.571879 
L 550.869799 -460.571879 
L 565.195395 -460.571879 
L 578.458825 -460.571879 
L 590.806783 -460.571879 
L 602.357526 -460.571879 
L 613.207782 -460.571879 
L 623.437675 -460.571879 
L 633.114324 -460.571879 
L 642.29451 -460.571879 
L 651.026701 -460.571879 
L 659.352593 -460.571879 
L 667.308321 -460.571879 
L 674.925402 -460.571879 
L 682.231494 -460.571879 
L 689.250998 -460.571879 
L 696.005551 -460.571879 
L 702.514428 -460.571879 
L 708.794876 -460.571879 
L 714.862386 -460.571879 
L 714.862386 -468.988985 
L 714.862386 -468.988985 
L 708.794876 -468.988985 
L 702.514428 -468.988985 
L 696.005551 -468.988985 
L 689.250998 -468.988985 
L 682.231494 -468.988985 
L 674.925402 -468.988985 
L 667.308321 -468.988985 
L 659.352593 -468.988985 
L 651.026701 -468.988985 
L 642.29451 -468.988985 
L 633.114324 -468.988985 
L 623.437675 -468.988985 
L 613.207782 -468.988985 
L 602.357526 -468.988985 
L 590.806783 -468.988985 
L 578.458825 -468.988985 
L 565.195395 -468.988985 
L 550.869799 -468.988985 
L 535.29699 -468.988985 
L 518.238907 -468.988985 
L 499.382072 -468.988985 
L 478.301923 -468.988985 
L 454.403222 -468.988985 
L 426.814196 -468.988985 
L 394.183304 -468.988985 
L 354.24632 -468.988985 
L 302.758593 -468.988985 
L 230.190717 -468.988985 
L 106.135114 -468.988985 
z
" style="stroke: #2ca02c; stroke-opacity: 0.05"/>
    </defs>
    <g clip-path="url(#pb4de95035c)">
     <use xlink:href="#mbdce6be3b4" x="0" y="559.20125" style="fill: #2ca02c; fill-opacity: 0.05; stroke: #2ca02c; stroke-opacity: 0.05"/>
    </g>
   </g>
   <g id="PolyCollection_2">
    <defs>
     <path id="m364783e0b9" d="M 106.135114 -437.632837 
L 106.135114 -435.456352 
L 230.190717 -435.456352 
L 302.758593 -435.456352 
L 354.24632 -435.456352 
L 394.183304 -435.456352 
L 426.814196 -435.456352 
L 454.403222 -435.456352 
L 478.301923 -435.456352 
L 499.382072 -435.456352 
L 518.238907 -435.456352 
L 535.29699 -435.456352 
L 550.869799 -435.456352 
L 565.195395 -435.456352 
L 578.458825 -435.456352 
L 590.806783 -435.456352 
L 602.357526 -435.456352 
L 613.207782 -435.456352 
L 623.437675 -435.456352 
L 633.114324 -435.456352 
L 642.29451 -435.456352 
L 651.026701 -435.456352 
L 659.352593 -435.456352 
L 667.308321 -435.456352 
L 674.925402 -435.456352 
L 682.231494 -435.456352 
L 689.250998 -435.456352 
L 696.005551 -435.456352 
L 702.514428 -435.456352 
L 708.794876 -435.456352 
L 714.862386 -435.456352 
L 714.862386 -437.632837 
L 714.862386 -437.632837 
L 708.794876 -437.632837 
L 702.514428 -437.632837 
L 696.005551 -437.632837 
L 689.250998 -437.632837 
L 682.231494 -437.632837 
L 674.925402 -437.632837 
L 667.308321 -437.632837 
L 659.352593 -437.632837 
L 651.026701 -437.632837 
L 642.29451 -437.632837 
L 633.114324 -437.632837 
L 623.437675 -437.632837 
L 613.207782 -437.632837 
L 602.357526 -437.632837 
L 590.806783 -437.632837 
L 578.458825 -437.632837 
L 565.195395 -437.632837 
L 550.869799 -437.632837 
L 535.29699 -437.632837 
L 518.238907 -437.632837 
L 499.382072 -437.632837 
L 478.301923 -437.632837 
L 454.403222 -437.632837 
L 426.814196 -437.632837 
L 394.183304 -437.632837 
L 354.24632 -437.632837 
L 302.758593 -437.632837 
L 230.190717 -437.632837 
L 106.135114 -437.632837 
z
" style="stroke: #ff7f0e; stroke-opacity: 0.05"/>
    </defs>
    <g clip-path="url(#pb4de95035c)">
     <use xlink:href="#m364783e0b9" x="0" y="559.20125" style="fill: #ff7f0e; fill-opacity: 0.05; stroke: #ff7f0e; stroke-opacity: 0.05"/>
    </g>
   </g>
   <g id="PolyCollection_3">
    <defs>
     <path id="m8ee8e1f2fa" d="M 106.135114 -501.145876 
L 106.135114 -75.72125 
L 230.190717 -260.794542 
L 302.758593 -369.669736 
L 354.24632 -420.23588 
L 394.183304 -450.340442 
L 426.814196 -457.096133 
L 454.403222 -463.21273 
L 478.301923 -465.254192 
L 499.382072 -469.782713 
L 518.238907 -473.130902 
L 535.29699 -476.922194 
L 550.869799 -479.292631 
L 565.195395 -480.856544 
L 578.458825 -482.037481 
L 590.806783 -483.000824 
L 602.357526 -484.663829 
L 613.207782 -486.025289 
L 623.437675 -486.766691 
L 633.114324 -487.894445 
L 642.29451 -488.778162 
L 651.026701 -489.389884 
L 659.352593 -489.755281 
L 667.308321 -490.215554 
L 674.925402 -490.548229 
L 682.231494 -490.789315 
L 689.250998 -491.480355 
L 696.005551 -491.745793 
L 702.514428 -492.728744 
L 708.794876 -492.969719 
L 714.862386 -493.118209 
L 714.862386 -499.133628 
L 714.862386 -499.133628 
L 708.794876 -498.796584 
L 702.514428 -498.667199 
L 696.005551 -498.841504 
L 689.250998 -498.502859 
L 682.231494 -498.2047 
L 674.925402 -497.984075 
L 667.308321 -497.650654 
L 659.352593 -497.358422 
L 651.026701 -496.955605 
L 642.29451 -496.676689 
L 633.114324 -496.216109 
L 623.437675 -496.127821 
L 613.207782 -495.490436 
L 602.357526 -495.24717 
L 590.806783 -494.67591 
L 578.458825 -493.84656 
L 565.195395 -493.172105 
L 550.869799 -492.202271 
L 535.29699 -491.409144 
L 518.238907 -491.282939 
L 499.382072 -488.763386 
L 478.301923 -486.872389 
L 454.403222 -484.781512 
L 426.814196 -484.526163 
L 394.183304 -481.806417 
L 354.24632 -490.904351 
L 302.758593 -508.474013 
L 230.190717 -529.32125 
L 106.135114 -501.145876 
z
" style="stroke: #1f77b4; stroke-opacity: 0.05"/>
    </defs>
    <g clip-path="url(#pb4de95035c)">
     <use xlink:href="#m8ee8e1f2fa" x="0" y="559.20125" style="fill: #1f77b4; fill-opacity: 0.05; stroke: #1f77b4; stroke-opacity: 0.05"/>
    </g>
   </g>
   <g id="PolyCollection_4">
    <defs>
     <path id="m3fce580b23" d="M 106.135114 -430.539049 
L 106.135114 -422.562158 
L 230.190717 -439.026161 
L 302.758593 -444.033899 
L 354.24632 -449.892424 
L 394.183304 -453.69884 
L 426.814196 -456.256282 
L 454.403222 -457.813149 
L 478.301923 -458.428038 
L 499.382072 -462.833107 
L 518.238907 -465.804447 
L 535.29699 -470.624221 
L 550.869799 -474.268576 
L 565.195395 -477.819665 
L 578.458825 -480.932086 
L 590.806783 -482.406342 
L 602.357526 -483.782374 
L 613.207782 -484.734274 
L 623.437675 -486.115645 
L 633.114324 -486.630655 
L 642.29451 -487.111258 
L 651.026701 -487.777262 
L 659.352593 -488.338698 
L 667.308321 -488.822331 
L 674.925402 -489.282063 
L 682.231494 -489.591003 
L 689.250998 -489.799527 
L 696.005551 -490.21376 
L 702.514428 -490.501172 
L 708.794876 -490.625743 
L 714.862386 -490.792093 
L 714.862386 -495.744425 
L 714.862386 -495.744425 
L 708.794876 -495.619332 
L 702.514428 -495.551051 
L 696.005551 -495.377107 
L 689.250998 -495.191098 
L 682.231494 -495.07198 
L 674.925402 -494.851981 
L 667.308321 -494.470201 
L 659.352593 -494.102427 
L 651.026701 -493.643411 
L 642.29451 -492.922103 
L 633.114324 -492.357632 
L 623.437675 -491.792381 
L 613.207782 -491.586811 
L 602.357526 -491.10821 
L 590.806783 -490.649601 
L 578.458825 -490.608327 
L 565.195395 -490.345872 
L 550.869799 -490.449733 
L 535.29699 -488.584988 
L 518.238907 -485.303031 
L 499.382072 -480.835013 
L 478.301923 -475.647345 
L 454.403222 -473.301704 
L 426.814196 -470.375947 
L 394.183304 -466.443702 
L 354.24632 -465.292176 
L 302.758593 -463.913079 
L 230.190717 -458.055763 
L 106.135114 -430.539049 
z
" style="stroke: #e377c2; stroke-opacity: 0.05"/>
    </defs>
    <g clip-path="url(#pb4de95035c)">
     <use xlink:href="#m3fce580b23" x="0" y="559.20125" style="fill: #e377c2; fill-opacity: 0.05; stroke: #e377c2; stroke-opacity: 0.05"/>
    </g>
   </g>
   <g id="PolyCollection_5">
    <defs>
     <path id="m19a0c679f9" d="M 106.135114 -430.539049 
L 106.135114 -422.562158 
L 230.190717 -436.371708 
L 302.758593 -443.563852 
L 354.24632 -451.943085 
L 394.183304 -454.800585 
L 426.814196 -459.452234 
L 454.403222 -461.3832 
L 478.301923 -464.532121 
L 499.382072 -469.521342 
L 518.238907 -471.967199 
L 535.29699 -476.11486 
L 550.869799 -476.396913 
L 565.195395 -476.644065 
L 578.458825 -483.711453 
L 590.806783 -485.57611 
L 602.357526 -486.855892 
L 613.207782 -487.688929 
L 623.437675 -487.892859 
L 633.114324 -488.618043 
L 642.29451 -488.842334 
L 651.026701 -488.932048 
L 659.352593 -489.000489 
L 667.308321 -489.39155 
L 674.925402 -489.421969 
L 682.231494 -489.611087 
L 689.250998 -489.713651 
L 696.005551 -490.027095 
L 702.514428 -492.857143 
L 708.794876 -493.023882 
L 714.862386 -493.102551 
L 714.862386 -499.248888 
L 714.862386 -499.248888 
L 708.794876 -499.198981 
L 702.514428 -499.102831 
L 696.005551 -497.901171 
L 689.250998 -497.625507 
L 682.231494 -497.550589 
L 674.925402 -497.332129 
L 667.308321 -497.297375 
L 659.352593 -497.084476 
L 651.026701 -496.965793 
L 642.29451 -496.891796 
L 633.114324 -496.761346 
L 623.437675 -496.120427 
L 613.207782 -495.872706 
L 602.357526 -495.262686 
L 590.806783 -495.099237 
L 578.458825 -493.732848 
L 565.195395 -492.407547 
L 550.869799 -492.228565 
L 535.29699 -492.063391 
L 518.238907 -489.258871 
L 499.382072 -488.564013 
L 478.301923 -479.45948 
L 454.403222 -476.53021 
L 426.814196 -475.288075 
L 394.183304 -471.043234 
L 354.24632 -467.189539 
L 302.758593 -452.224726 
L 230.190717 -443.79705 
L 106.135114 -430.539049 
z
" style="stroke: #8c564b; stroke-opacity: 0.05"/>
    </defs>
    <g clip-path="url(#pb4de95035c)">
     <use xlink:href="#m19a0c679f9" x="0" y="559.20125" style="fill: #8c564b; fill-opacity: 0.05; stroke: #8c564b; stroke-opacity: 0.05"/>
    </g>
   </g>
   <g id="PolyCollection_6">
    <defs>
     <path id="m07ee727e76" d="M 106.135114 -430.539049 
L 106.135114 -422.562158 
L 230.190717 -436.371708 
L 302.758593 -443.563852 
L 354.24632 -451.943085 
L 394.183304 -454.800585 
L 426.814196 -459.452234 
L 454.403222 -466.200874 
L 478.301923 -468.886382 
L 499.382072 -471.952751 
L 518.238907 -475.623244 
L 535.29699 -477.654979 
L 550.869799 -478.028901 
L 565.195395 -478.342536 
L 578.458825 -483.086429 
L 590.806783 -484.41103 
L 602.357526 -485.657497 
L 613.207782 -486.192688 
L 623.437675 -488.015336 
L 633.114324 -489.202473 
L 642.29451 -489.410631 
L 651.026701 -490.31683 
L 659.352593 -491.5894 
L 667.308321 -492.02088 
L 674.925402 -492.466016 
L 682.231494 -493.265555 
L 689.250998 -493.378017 
L 696.005551 -493.702196 
L 702.514428 -494.344649 
L 708.794876 -494.472589 
L 714.862386 -494.651914 
L 714.862386 -500.725736 
L 714.862386 -500.725736 
L 708.794876 -500.636357 
L 702.514428 -500.500177 
L 696.005551 -500.203673 
L 689.250998 -499.922833 
L 682.231494 -499.837712 
L 674.925402 -499.930132 
L 667.308321 -499.664486 
L 659.352593 -499.526856 
L 651.026701 -497.854632 
L 642.29451 -497.542472 
L 633.114324 -497.375954 
L 623.437675 -495.668591 
L 613.207782 -495.432032 
L 602.357526 -494.952783 
L 590.806783 -494.408406 
L 578.458825 -492.970695 
L 565.195395 -491.758981 
L 550.869799 -491.56887 
L 535.29699 -491.135377 
L 518.238907 -490.466345 
L 499.382072 -486.547147 
L 478.301923 -482.594734 
L 454.403222 -481.249566 
L 426.814196 -475.288075 
L 394.183304 -471.043234 
L 354.24632 -467.189539 
L 302.758593 -452.224726 
L 230.190717 -443.79705 
L 106.135114 -430.539049 
z
" style="stroke: #9467bd; stroke-opacity: 0.05"/>
    </defs>
    <g clip-path="url(#pb4de95035c)">
     <use xlink:href="#m07ee727e76" x="0" y="559.20125" style="fill: #9467bd; fill-opacity: 0.05; stroke: #9467bd; stroke-opacity: 0.05"/>
    </g>
   </g>
   <g id="PolyCollection_7">
    <defs>
     <path id="m8695b4e502" d="M 106.135114 -430.539049 
L 106.135114 -422.562158 
L 230.190717 -436.371708 
L 302.758593 -443.563852 
L 354.24632 -451.943085 
L 394.183304 -454.800585 
L 426.814196 -459.452234 
L 454.403222 -467.82959 
L 478.301923 -469.655383 
L 499.382072 -471.110992 
L 518.238907 -472.726283 
L 535.29699 -473.382672 
L 550.869799 -473.796621 
L 565.195395 -474.061867 
L 578.458825 -474.635818 
L 590.806783 -475.426988 
L 602.357526 -476.039693 
L 613.207782 -476.267074 
L 623.437675 -476.871169 
L 633.114324 -477.466349 
L 642.29451 -478.673495 
L 651.026701 -480.196922 
L 659.352593 -481.517038 
L 667.308321 -482.128054 
L 674.925402 -483.282797 
L 682.231494 -484.293217 
L 689.250998 -484.52046 
L 696.005551 -485.128182 
L 702.514428 -485.743014 
L 708.794876 -487.177487 
L 714.862386 -487.815007 
L 714.862386 -498.185769 
L 714.862386 -498.185769 
L 708.794876 -497.932586 
L 702.514428 -497.491641 
L 696.005551 -497.231009 
L 689.250998 -497.107543 
L 682.231494 -496.936318 
L 674.925402 -496.700022 
L 667.308321 -496.094583 
L 659.352593 -495.870303 
L 651.026701 -494.830154 
L 642.29451 -494.205458 
L 633.114324 -493.183222 
L 623.437675 -492.216432 
L 613.207782 -491.939031 
L 602.357526 -491.497939 
L 590.806783 -490.984931 
L 578.458825 -490.815528 
L 565.195395 -489.96458 
L 550.869799 -489.600986 
L 535.29699 -489.267121 
L 518.238907 -488.616927 
L 499.382072 -487.125404 
L 478.301923 -483.206805 
L 454.403222 -481.155271 
L 426.814196 -475.288075 
L 394.183304 -471.043234 
L 354.24632 -467.189539 
L 302.758593 -452.224726 
L 230.190717 -443.79705 
L 106.135114 -430.539049 
z
" style="stroke: #d62728; stroke-opacity: 0.05"/>
    </defs>
    <g clip-path="url(#pb4de95035c)">
     <use xlink:href="#m8695b4e502" x="0" y="559.20125" style="fill: #d62728; fill-opacity: 0.05; stroke: #d62728; stroke-opacity: 0.05"/>
    </g>
   </g>
   <g id="PolyCollection_8">
    <defs>
     <path id="mf189b71c2f" d="M 106.135114 -430.539049 
L 106.135114 -422.562158 
L 230.190717 -436.371708 
L 302.758593 -443.563852 
L 354.24632 -451.943085 
L 394.183304 -454.800585 
L 426.814196 -459.452234 
L 454.403222 -463.752038 
L 478.301923 -469.022028 
L 499.382072 -471.956189 
L 518.238907 -475.366137 
L 535.29699 -477.844718 
L 550.869799 -478.304024 
L 565.195395 -478.80691 
L 578.458825 -484.0953 
L 590.806783 -485.344942 
L 602.357526 -486.83899 
L 613.207782 -487.233612 
L 623.437675 -488.638568 
L 633.114324 -490.225399 
L 642.29451 -490.337327 
L 651.026701 -490.743406 
L 659.352593 -492.511454 
L 667.308321 -492.755965 
L 674.925402 -492.972911 
L 682.231494 -493.311744 
L 689.250998 -493.501879 
L 696.005551 -493.693117 
L 702.514428 -493.99173 
L 708.794876 -494.076049 
L 714.862386 -494.19256 
L 714.862386 -499.969665 
L 714.862386 -499.969665 
L 708.794876 -499.896946 
L 702.514428 -499.800065 
L 696.005551 -499.5866 
L 689.250998 -499.46886 
L 682.231494 -499.290336 
L 674.925402 -499.232746 
L 667.308321 -499.099498 
L 659.352593 -499.005234 
L 651.026701 -498.347709 
L 642.29451 -497.933919 
L 633.114324 -497.83069 
L 623.437675 -496.02582 
L 613.207782 -495.731198 
L 602.357526 -495.473689 
L 590.806783 -494.987781 
L 578.458825 -493.954853 
L 565.195395 -492.544959 
L 550.869799 -492.0345 
L 535.29699 -491.475912 
L 518.238907 -490.89345 
L 499.382072 -486.609221 
L 478.301923 -481.85401 
L 454.403222 -478.426124 
L 426.814196 -475.288075 
L 394.183304 -471.043234 
L 354.24632 -467.189539 
L 302.758593 -452.224726 
L 230.190717 -443.79705 
L 106.135114 -430.539049 
z
" style="stroke: #bcbd22; stroke-opacity: 0.05"/>
    </defs>
    <g clip-path="url(#pb4de95035c)">
     <use xlink:href="#mf189b71c2f" x="0" y="559.20125" style="fill: #bcbd22; fill-opacity: 0.05; stroke: #bcbd22; stroke-opacity: 0.05"/>
    </g>
   </g>
   <g id="PolyCollection_9">
    <defs>
     <path id="m1af4224e80" d="M 106.135114 -437.702282 
L 106.135114 -435.752301 
L 230.190717 -469.282865 
L 302.758593 -476.532836 
L 354.24632 -483.331582 
L 394.183304 -486.306955 
L 426.814196 -489.713823 
L 454.403222 -491.313876 
L 478.301923 -493.479162 
L 499.382072 -494.643799 
L 518.238907 -495.220767 
L 535.29699 -495.486363 
L 550.869799 -495.820723 
L 565.195395 -496.024751 
L 578.458825 -496.433204 
L 590.806783 -496.694795 
L 602.357526 -496.836004 
L 613.207782 -497.094742 
L 623.437675 -497.59954 
L 633.114324 -497.731289 
L 642.29451 -497.767304 
L 651.026701 -497.858511 
L 659.352593 -497.877088 
L 667.308321 -497.96479 
L 674.925402 -498.183134 
L 682.231494 -498.299811 
L 689.250998 -498.349416 
L 696.005551 -498.405546 
L 702.514428 -498.426638 
L 708.794876 -498.939591 
L 714.862386 -498.99288 
L 714.862386 -504.693092 
L 714.862386 -504.693092 
L 708.794876 -504.627475 
L 702.514428 -504.125644 
L 696.005551 -504.114481 
L 689.250998 -504.0903 
L 682.231494 -504.054118 
L 674.925402 -503.986745 
L 667.308321 -503.825102 
L 659.352593 -503.718523 
L 651.026701 -503.698225 
L 642.29451 -503.594141 
L 633.114324 -503.542537 
L 623.437675 -503.43364 
L 613.207782 -503.207195 
L 602.357526 -502.986053 
L 590.806783 -502.882003 
L 578.458825 -502.621476 
L 565.195395 -502.390743 
L 550.869799 -502.257783 
L 535.29699 -501.989848 
L 518.238907 -501.648633 
L 499.382072 -500.997316 
L 478.301923 -499.928772 
L 454.403222 -498.646239 
L 426.814196 -497.197831 
L 394.183304 -495.111052 
L 354.24632 -490.731743 
L 302.758593 -484.997739 
L 230.190717 -473.372177 
L 106.135114 -437.702282 
z
" style="stroke: #7f7f7f; stroke-opacity: 0.05"/>
    </defs>
    <g clip-path="url(#pb4de95035c)">
     <use xlink:href="#m1af4224e80" x="0" y="559.20125" style="fill: #7f7f7f; fill-opacity: 0.05; stroke: #7f7f7f; stroke-opacity: 0.05"/>
    </g>
   </g>
   <g id="matplotlib.axis_1">
    <g id="xtick_1">
     <g id="line2d_1">
      <path d="M 106.135114 506.16 
L 106.135114 7.2 
" clip-path="url(#pb4de95035c)" style="fill: none; stroke-dasharray: 1.85,0.8; stroke-dashoffset: 0; stroke: #b0b0b0; stroke-width: 0.5"/>
     </g>
     <g id="line2d_2">
      <defs>
       <path id="m7791e07fd8" d="M 0 0 
L 0 3.5 
" style="stroke: #000000; stroke-width: 0.8"/>
      </defs>
      <g>
       <use xlink:href="#m7791e07fd8" x="106.135114" y="506.16" style="stroke: #000000; stroke-width: 0.8"/>
      </g>
     </g>
     <g id="text_1">
      <!-- $\mathdefault{10^{0}}$ -->
      <g transform="translate(90.295114 526.837188) scale(0.18 -0.18)">
       <defs>
        <path id="DejaVuSans-31" d="M 794 531 
L 1825 531 
L 1825 4091 
L 703 3866 
L 703 4441 
L 1819 4666 
L 2450 4666 
L 2450 531 
L 3481 531 
L 3481 0 
L 794 0 
L 794 531 
z
" transform="scale(0.015625)"/>
        <path id="DejaVuSans-30" d="M 2034 4250 
Q 1547 4250 1301 3770 
Q 1056 3291 1056 2328 
Q 1056 1369 1301 889 
Q 1547 409 2034 409 
Q 2525 409 2770 889 
Q 3016 1369 3016 2328 
Q 3016 3291 2770 3770 
Q 2525 4250 2034 4250 
z
M 2034 4750 
Q 2819 4750 3233 4129 
Q 3647 3509 3647 2328 
Q 3647 1150 3233 529 
Q 2819 -91 2034 -91 
Q 1250 -91 836 529 
Q 422 1150 422 2328 
Q 422 3509 836 4129 
Q 1250 4750 2034 4750 
z
" transform="scale(0.015625)"/>
       </defs>
       <use xlink:href="#DejaVuSans-31" transform="translate(0 0.765625)"/>
       <use xlink:href="#DejaVuSans-30" transform="translate(63.623047 0.765625)"/>
       <use xlink:href="#DejaVuSans-30" transform="translate(128.203125 39.046875) scale(0.7)"/>
      </g>
     </g>
    </g>
    <g id="xtick_2">
     <g id="line2d_3">
      <path d="M 518.238907 506.16 
L 518.238907 7.2 
" clip-path="url(#pb4de95035c)" style="fill: none; stroke-dasharray: 1.85,0.8; stroke-dashoffset: 0; stroke: #b0b0b0; stroke-width: 0.5"/>
     </g>
     <g id="line2d_4">
      <g>
       <use xlink:href="#m7791e07fd8" x="518.238907" y="506.16" style="stroke: #000000; stroke-width: 0.8"/>
      </g>
     </g>
     <g id="text_2">
      <!-- $\mathdefault{10^{1}}$ -->
      <g transform="translate(502.398907 526.837188) scale(0.18 -0.18)">
       <use xlink:href="#DejaVuSans-31" transform="translate(0 0.684375)"/>
       <use xlink:href="#DejaVuSans-30" transform="translate(63.623047 0.684375)"/>
       <use xlink:href="#DejaVuSans-31" transform="translate(128.203125 38.965625) scale(0.7)"/>
      </g>
     </g>
    </g>
    <g id="xtick_3">
     <g id="line2d_5">
      <defs>
       <path id="m8754ff39b9" d="M 0 0 
L 0 2 
" style="stroke: #000000; stroke-width: 0.6"/>
      </defs>
      <g>
       <use xlink:href="#m8754ff39b9" x="87.278278" y="506.16" style="stroke: #000000; stroke-width: 0.6"/>
      </g>
     </g>
    </g>
    <g id="xtick_4">
     <g id="line2d_6">
      <g>
       <use xlink:href="#m8754ff39b9" x="230.190717" y="506.16" style="stroke: #000000; stroke-width: 0.6"/>
      </g>
     </g>
    </g>
    <g id="xtick_5">
     <g id="line2d_7">
      <g>
       <use xlink:href="#m8754ff39b9" x="302.758593" y="506.16" style="stroke: #000000; stroke-width: 0.6"/>
      </g>
     </g>
    </g>
    <g id="xtick_6">
     <g id="line2d_8">
      <g>
       <use xlink:href="#m8754ff39b9" x="354.24632" y="506.16" style="stroke: #000000; stroke-width: 0.6"/>
      </g>
     </g>
    </g>
    <g id="xtick_7">
     <g id="line2d_9">
      <g>
       <use xlink:href="#m8754ff39b9" x="394.183304" y="506.16" style="stroke: #000000; stroke-width: 0.6"/>
      </g>
     </g>
    </g>
    <g id="xtick_8">
     <g id="line2d_10">
      <g>
       <use xlink:href="#m8754ff39b9" x="426.814196" y="506.16" style="stroke: #000000; stroke-width: 0.6"/>
      </g>
     </g>
    </g>
    <g id="xtick_9">
     <g id="line2d_11">
      <g>
       <use xlink:href="#m8754ff39b9" x="454.403222" y="506.16" style="stroke: #000000; stroke-width: 0.6"/>
      </g>
     </g>
    </g>
    <g id="xtick_10">
     <g id="line2d_12">
      <g>
       <use xlink:href="#m8754ff39b9" x="478.301923" y="506.16" style="stroke: #000000; stroke-width: 0.6"/>
      </g>
     </g>
    </g>
    <g id="xtick_11">
     <g id="line2d_13">
      <g>
       <use xlink:href="#m8754ff39b9" x="499.382072" y="506.16" style="stroke: #000000; stroke-width: 0.6"/>
      </g>
     </g>
    </g>
    <g id="xtick_12">
     <g id="line2d_14">
      <g>
       <use xlink:href="#m8754ff39b9" x="642.29451" y="506.16" style="stroke: #000000; stroke-width: 0.6"/>
      </g>
     </g>
    </g>
    <g id="xtick_13">
     <g id="line2d_15">
      <g>
       <use xlink:href="#m8754ff39b9" x="714.862386" y="506.16" style="stroke: #000000; stroke-width: 0.6"/>
      </g>
     </g>
    </g>
    <g id="text_3">
     <!-- Decision Round -->
     <g transform="translate(340.845781 548.257813) scale(0.18 -0.18)">
      <defs>
       <path id="DejaVuSans-44" d="M 1259 4147 
L 1259 519 
L 2022 519 
Q 2988 519 3436 956 
Q 3884 1394 3884 2338 
Q 3884 3275 3436 3711 
Q 2988 4147 2022 4147 
L 1259 4147 
z
M 628 4666 
L 1925 4666 
Q 3281 4666 3915 4102 
Q 4550 3538 4550 2338 
Q 4550 1131 3912 565 
Q 3275 0 1925 0 
L 628 0 
L 628 4666 
z
" transform="scale(0.015625)"/>
       <path id="DejaVuSans-65" d="M 3597 1894 
L 3597 1613 
L 953 1613 
Q 991 1019 1311 708 
Q 1631 397 2203 397 
Q 2534 397 2845 478 
Q 3156 559 3463 722 
L 3463 178 
Q 3153 47 2828 -22 
Q 2503 -91 2169 -91 
Q 1331 -91 842 396 
Q 353 884 353 1716 
Q 353 2575 817 3079 
Q 1281 3584 2069 3584 
Q 2775 3584 3186 3129 
Q 3597 2675 3597 1894 
z
M 3022 2063 
Q 3016 2534 2758 2815 
Q 2500 3097 2075 3097 
Q 1594 3097 1305 2825 
Q 1016 2553 972 2059 
L 3022 2063 
z
" transform="scale(0.015625)"/>
       <path id="DejaVuSans-63" d="M 3122 3366 
L 3122 2828 
Q 2878 2963 2633 3030 
Q 2388 3097 2138 3097 
Q 1578 3097 1268 2742 
Q 959 2388 959 1747 
Q 959 1106 1268 751 
Q 1578 397 2138 397 
Q 2388 397 2633 464 
Q 2878 531 3122 666 
L 3122 134 
Q 2881 22 2623 -34 
Q 2366 -91 2075 -91 
Q 1284 -91 818 406 
Q 353 903 353 1747 
Q 353 2603 823 3093 
Q 1294 3584 2113 3584 
Q 2378 3584 2631 3529 
Q 2884 3475 3122 3366 
z
" transform="scale(0.015625)"/>
       <path id="DejaVuSans-69" d="M 603 3500 
L 1178 3500 
L 1178 0 
L 603 0 
L 603 3500 
z
M 603 4863 
L 1178 4863 
L 1178 4134 
L 603 4134 
L 603 4863 
z
" transform="scale(0.015625)"/>
       <path id="DejaVuSans-73" d="M 2834 3397 
L 2834 2853 
Q 2591 2978 2328 3040 
Q 2066 3103 1784 3103 
Q 1356 3103 1142 2972 
Q 928 2841 928 2578 
Q 928 2378 1081 2264 
Q 1234 2150 1697 2047 
L 1894 2003 
Q 2506 1872 2764 1633 
Q 3022 1394 3022 966 
Q 3022 478 2636 193 
Q 2250 -91 1575 -91 
Q 1294 -91 989 -36 
Q 684 19 347 128 
L 347 722 
Q 666 556 975 473 
Q 1284 391 1588 391 
Q 1994 391 2212 530 
Q 2431 669 2431 922 
Q 2431 1156 2273 1281 
Q 2116 1406 1581 1522 
L 1381 1569 
Q 847 1681 609 1914 
Q 372 2147 372 2553 
Q 372 3047 722 3315 
Q 1072 3584 1716 3584 
Q 2034 3584 2315 3537 
Q 2597 3491 2834 3397 
z
" transform="scale(0.015625)"/>
       <path id="DejaVuSans-6f" d="M 1959 3097 
Q 1497 3097 1228 2736 
Q 959 2375 959 1747 
Q 959 1119 1226 758 
Q 1494 397 1959 397 
Q 2419 397 2687 759 
Q 2956 1122 2956 1747 
Q 2956 2369 2687 2733 
Q 2419 3097 1959 3097 
z
M 1959 3584 
Q 2709 3584 3137 3096 
Q 3566 2609 3566 1747 
Q 3566 888 3137 398 
Q 2709 -91 1959 -91 
Q 1206 -91 779 398 
Q 353 888 353 1747 
Q 353 2609 779 3096 
Q 1206 3584 1959 3584 
z
" transform="scale(0.015625)"/>
       <path id="DejaVuSans-6e" d="M 3513 2113 
L 3513 0 
L 2938 0 
L 2938 2094 
Q 2938 2591 2744 2837 
Q 2550 3084 2163 3084 
Q 1697 3084 1428 2787 
Q 1159 2491 1159 1978 
L 1159 0 
L 581 0 
L 581 3500 
L 1159 3500 
L 1159 2956 
Q 1366 3272 1645 3428 
Q 1925 3584 2291 3584 
Q 2894 3584 3203 3211 
Q 3513 2838 3513 2113 
z
" transform="scale(0.015625)"/>
       <path id="DejaVuSans-20" transform="scale(0.015625)"/>
       <path id="DejaVuSans-52" d="M 2841 2188 
Q 3044 2119 3236 1894 
Q 3428 1669 3622 1275 
L 4263 0 
L 3584 0 
L 2988 1197 
Q 2756 1666 2539 1819 
Q 2322 1972 1947 1972 
L 1259 1972 
L 1259 0 
L 628 0 
L 628 4666 
L 2053 4666 
Q 2853 4666 3247 4331 
Q 3641 3997 3641 3322 
Q 3641 2881 3436 2590 
Q 3231 2300 2841 2188 
z
M 1259 4147 
L 1259 2491 
L 2053 2491 
Q 2509 2491 2742 2702 
Q 2975 2913 2975 3322 
Q 2975 3731 2742 3939 
Q 2509 4147 2053 4147 
L 1259 4147 
z
" transform="scale(0.015625)"/>
       <path id="DejaVuSans-75" d="M 544 1381 
L 544 3500 
L 1119 3500 
L 1119 1403 
Q 1119 906 1312 657 
Q 1506 409 1894 409 
Q 2359 409 2629 706 
Q 2900 1003 2900 1516 
L 2900 3500 
L 3475 3500 
L 3475 0 
L 2900 0 
L 2900 538 
Q 2691 219 2414 64 
Q 2138 -91 1772 -91 
Q 1169 -91 856 284 
Q 544 659 544 1381 
z
M 1991 3584 
L 1991 3584 
z
" transform="scale(0.015625)"/>
       <path id="DejaVuSans-64" d="M 2906 2969 
L 2906 4863 
L 3481 4863 
L 3481 0 
L 2906 0 
L 2906 525 
Q 2725 213 2448 61 
Q 2172 -91 1784 -91 
Q 1150 -91 751 415 
Q 353 922 353 1747 
Q 353 2572 751 3078 
Q 1150 3584 1784 3584 
Q 2172 3584 2448 3432 
Q 2725 3281 2906 2969 
z
M 947 1747 
Q 947 1113 1208 752 
Q 1469 391 1925 391 
Q 2381 391 2643 752 
Q 2906 1113 2906 1747 
Q 2906 2381 2643 2742 
Q 2381 3103 1925 3103 
Q 1469 3103 1208 2742 
Q 947 2381 947 1747 
z
" transform="scale(0.015625)"/>
      </defs>
      <use xlink:href="#DejaVuSans-44"/>
      <use xlink:href="#DejaVuSans-65" x="77.001953"/>
      <use xlink:href="#DejaVuSans-63" x="138.525391"/>
      <use xlink:href="#DejaVuSans-69" x="193.505859"/>
      <use xlink:href="#DejaVuSans-73" x="221.289062"/>
      <use xlink:href="#DejaVuSans-69" x="273.388672"/>
      <use xlink:href="#DejaVuSans-6f" x="301.171875"/>
      <use xlink:href="#DejaVuSans-6e" x="362.353516"/>
      <use xlink:href="#DejaVuSans-20" x="425.732422"/>
      <use xlink:href="#DejaVuSans-52" x="457.519531"/>
      <use xlink:href="#DejaVuSans-6f" x="522.501953"/>
      <use xlink:href="#DejaVuSans-75" x="583.683594"/>
      <use xlink:href="#DejaVuSans-6e" x="647.0625"/>
      <use xlink:href="#DejaVuSans-64" x="710.441406"/>
     </g>
    </g>
   </g>
   <g id="matplotlib.axis_2">
    <g id="ytick_1">
     <g id="line2d_16">
      <path d="M 75.69875 488.73179 
L 745.29875 488.73179 
" clip-path="url(#pb4de95035c)" style="fill: none; stroke-dasharray: 1.85,0.8; stroke-dashoffset: 0; stroke: #b0b0b0; stroke-width: 0.5"/>
     </g>
     <g id="line2d_17">
      <defs>
       <path id="m9dac31404e" d="M 0 0 
L -3.5 0 
" style="stroke: #000000; stroke-width: 0.8"/>
      </defs>
      <g>
       <use xlink:href="#m9dac31404e" x="75.69875" y="488.73179" style="stroke: #000000; stroke-width: 0.8"/>
      </g>
     </g>
     <g id="text_4">
      <!-- 0.14 -->
      <g transform="translate(28.620625 495.570384) scale(0.18 -0.18)">
       <defs>
        <path id="DejaVuSans-2e" d="M 684 794 
L 1344 794 
L 1344 0 
L 684 0 
L 684 794 
z
" transform="scale(0.015625)"/>
        <path id="DejaVuSans-34" d="M 2419 4116 
L 825 1625 
L 2419 1625 
L 2419 4116 
z
M 2253 4666 
L 3047 4666 
L 3047 1625 
L 3713 1625 
L 3713 1100 
L 3047 1100 
L 3047 0 
L 2419 0 
L 2419 1100 
L 313 1100 
L 313 1709 
L 2253 4666 
z
" transform="scale(0.015625)"/>
       </defs>
       <use xlink:href="#DejaVuSans-30"/>
       <use xlink:href="#DejaVuSans-2e" x="63.623047"/>
       <use xlink:href="#DejaVuSans-31" x="95.410156"/>
       <use xlink:href="#DejaVuSans-34" x="159.033203"/>
      </g>
     </g>
    </g>
    <g id="ytick_2">
     <g id="line2d_18">
      <path d="M 75.69875 381.16227 
L 745.29875 381.16227 
" clip-path="url(#pb4de95035c)" style="fill: none; stroke-dasharray: 1.85,0.8; stroke-dashoffset: 0; stroke: #b0b0b0; stroke-width: 0.5"/>
     </g>
     <g id="line2d_19">
      <g>
       <use xlink:href="#m9dac31404e" x="75.69875" y="381.16227" style="stroke: #000000; stroke-width: 0.8"/>
      </g>
     </g>
     <g id="text_5">
      <!-- 0.16 -->
      <g transform="translate(28.620625 388.000864) scale(0.18 -0.18)">
       <defs>
        <path id="DejaVuSans-36" d="M 2113 2584 
Q 1688 2584 1439 2293 
Q 1191 2003 1191 1497 
Q 1191 994 1439 701 
Q 1688 409 2113 409 
Q 2538 409 2786 701 
Q 3034 994 3034 1497 
Q 3034 2003 2786 2293 
Q 2538 2584 2113 2584 
z
M 3366 4563 
L 3366 3988 
Q 3128 4100 2886 4159 
Q 2644 4219 2406 4219 
Q 1781 4219 1451 3797 
Q 1122 3375 1075 2522 
Q 1259 2794 1537 2939 
Q 1816 3084 2150 3084 
Q 2853 3084 3261 2657 
Q 3669 2231 3669 1497 
Q 3669 778 3244 343 
Q 2819 -91 2113 -91 
Q 1303 -91 875 529 
Q 447 1150 447 2328 
Q 447 3434 972 4092 
Q 1497 4750 2381 4750 
Q 2619 4750 2861 4703 
Q 3103 4656 3366 4563 
z
" transform="scale(0.015625)"/>
       </defs>
       <use xlink:href="#DejaVuSans-30"/>
       <use xlink:href="#DejaVuSans-2e" x="63.623047"/>
       <use xlink:href="#DejaVuSans-31" x="95.410156"/>
       <use xlink:href="#DejaVuSans-36" x="159.033203"/>
      </g>
     </g>
    </g>
    <g id="ytick_3">
     <g id="line2d_20">
      <path d="M 75.69875 273.59275 
L 745.29875 273.59275 
" clip-path="url(#pb4de95035c)" style="fill: none; stroke-dasharray: 1.85,0.8; stroke-dashoffset: 0; stroke: #b0b0b0; stroke-width: 0.5"/>
     </g>
     <g id="line2d_21">
      <g>
       <use xlink:href="#m9dac31404e" x="75.69875" y="273.59275" style="stroke: #000000; stroke-width: 0.8"/>
      </g>
     </g>
     <g id="text_6">
      <!-- 0.18 -->
      <g transform="translate(28.620625 280.431344) scale(0.18 -0.18)">
       <defs>
        <path id="DejaVuSans-38" d="M 2034 2216 
Q 1584 2216 1326 1975 
Q 1069 1734 1069 1313 
Q 1069 891 1326 650 
Q 1584 409 2034 409 
Q 2484 409 2743 651 
Q 3003 894 3003 1313 
Q 3003 1734 2745 1975 
Q 2488 2216 2034 2216 
z
M 1403 2484 
Q 997 2584 770 2862 
Q 544 3141 544 3541 
Q 544 4100 942 4425 
Q 1341 4750 2034 4750 
Q 2731 4750 3128 4425 
Q 3525 4100 3525 3541 
Q 3525 3141 3298 2862 
Q 3072 2584 2669 2484 
Q 3125 2378 3379 2068 
Q 3634 1759 3634 1313 
Q 3634 634 3220 271 
Q 2806 -91 2034 -91 
Q 1263 -91 848 271 
Q 434 634 434 1313 
Q 434 1759 690 2068 
Q 947 2378 1403 2484 
z
M 1172 3481 
Q 1172 3119 1398 2916 
Q 1625 2713 2034 2713 
Q 2441 2713 2670 2916 
Q 2900 3119 2900 3481 
Q 2900 3844 2670 4047 
Q 2441 4250 2034 4250 
Q 1625 4250 1398 4047 
Q 1172 3844 1172 3481 
z
" transform="scale(0.015625)"/>
       </defs>
       <use xlink:href="#DejaVuSans-30"/>
       <use xlink:href="#DejaVuSans-2e" x="63.623047"/>
       <use xlink:href="#DejaVuSans-31" x="95.410156"/>
       <use xlink:href="#DejaVuSans-38" x="159.033203"/>
      </g>
     </g>
    </g>
    <g id="ytick_4">
     <g id="line2d_22">
      <path d="M 75.69875 166.02323 
L 745.29875 166.02323 
" clip-path="url(#pb4de95035c)" style="fill: none; stroke-dasharray: 1.85,0.8; stroke-dashoffset: 0; stroke: #b0b0b0; stroke-width: 0.5"/>
     </g>
     <g id="line2d_23">
      <g>
       <use xlink:href="#m9dac31404e" x="75.69875" y="166.02323" style="stroke: #000000; stroke-width: 0.8"/>
      </g>
     </g>
     <g id="text_7">
      <!-- 0.20 -->
      <g transform="translate(28.620625 172.861824) scale(0.18 -0.18)">
       <defs>
        <path id="DejaVuSans-32" d="M 1228 531 
L 3431 531 
L 3431 0 
L 469 0 
L 469 531 
Q 828 903 1448 1529 
Q 2069 2156 2228 2338 
Q 2531 2678 2651 2914 
Q 2772 3150 2772 3378 
Q 2772 3750 2511 3984 
Q 2250 4219 1831 4219 
Q 1534 4219 1204 4116 
Q 875 4013 500 3803 
L 500 4441 
Q 881 4594 1212 4672 
Q 1544 4750 1819 4750 
Q 2544 4750 2975 4387 
Q 3406 4025 3406 3419 
Q 3406 3131 3298 2873 
Q 3191 2616 2906 2266 
Q 2828 2175 2409 1742 
Q 1991 1309 1228 531 
z
" transform="scale(0.015625)"/>
       </defs>
       <use xlink:href="#DejaVuSans-30"/>
       <use xlink:href="#DejaVuSans-2e" x="63.623047"/>
       <use xlink:href="#DejaVuSans-32" x="95.410156"/>
       <use xlink:href="#DejaVuSans-30" x="159.033203"/>
      </g>
     </g>
    </g>
    <g id="ytick_5">
     <g id="line2d_24">
      <path d="M 75.69875 58.45371 
L 745.29875 58.45371 
" clip-path="url(#pb4de95035c)" style="fill: none; stroke-dasharray: 1.85,0.8; stroke-dashoffset: 0; stroke: #b0b0b0; stroke-width: 0.5"/>
     </g>
     <g id="line2d_25">
      <g>
       <use xlink:href="#m9dac31404e" x="75.69875" y="58.45371" style="stroke: #000000; stroke-width: 0.8"/>
      </g>
     </g>
     <g id="text_8">
      <!-- 0.22 -->
      <g transform="translate(28.620625 65.292304) scale(0.18 -0.18)">
       <use xlink:href="#DejaVuSans-30"/>
       <use xlink:href="#DejaVuSans-2e" x="63.623047"/>
       <use xlink:href="#DejaVuSans-32" x="95.410156"/>
       <use xlink:href="#DejaVuSans-32" x="159.033203"/>
      </g>
     </g>
    </g>
    <g id="text_9">
     <!-- Normalized Performance -->
     <g transform="translate(20.877187 367.607813) rotate(-90) scale(0.18 -0.18)">
      <defs>
       <path id="DejaVuSans-4e" d="M 628 4666 
L 1478 4666 
L 3547 763 
L 3547 4666 
L 4159 4666 
L 4159 0 
L 3309 0 
L 1241 3903 
L 1241 0 
L 628 0 
L 628 4666 
z
" transform="scale(0.015625)"/>
       <path id="DejaVuSans-72" d="M 2631 2963 
Q 2534 3019 2420 3045 
Q 2306 3072 2169 3072 
Q 1681 3072 1420 2755 
Q 1159 2438 1159 1844 
L 1159 0 
L 581 0 
L 581 3500 
L 1159 3500 
L 1159 2956 
Q 1341 3275 1631 3429 
Q 1922 3584 2338 3584 
Q 2397 3584 2469 3576 
Q 2541 3569 2628 3553 
L 2631 2963 
z
" transform="scale(0.015625)"/>
       <path id="DejaVuSans-6d" d="M 3328 2828 
Q 3544 3216 3844 3400 
Q 4144 3584 4550 3584 
Q 5097 3584 5394 3201 
Q 5691 2819 5691 2113 
L 5691 0 
L 5113 0 
L 5113 2094 
Q 5113 2597 4934 2840 
Q 4756 3084 4391 3084 
Q 3944 3084 3684 2787 
Q 3425 2491 3425 1978 
L 3425 0 
L 2847 0 
L 2847 2094 
Q 2847 2600 2669 2842 
Q 2491 3084 2119 3084 
Q 1678 3084 1418 2786 
Q 1159 2488 1159 1978 
L 1159 0 
L 581 0 
L 581 3500 
L 1159 3500 
L 1159 2956 
Q 1356 3278 1631 3431 
Q 1906 3584 2284 3584 
Q 2666 3584 2933 3390 
Q 3200 3197 3328 2828 
z
" transform="scale(0.015625)"/>
       <path id="DejaVuSans-61" d="M 2194 1759 
Q 1497 1759 1228 1600 
Q 959 1441 959 1056 
Q 959 750 1161 570 
Q 1363 391 1709 391 
Q 2188 391 2477 730 
Q 2766 1069 2766 1631 
L 2766 1759 
L 2194 1759 
z
M 3341 1997 
L 3341 0 
L 2766 0 
L 2766 531 
Q 2569 213 2275 61 
Q 1981 -91 1556 -91 
Q 1019 -91 701 211 
Q 384 513 384 1019 
Q 384 1609 779 1909 
Q 1175 2209 1959 2209 
L 2766 2209 
L 2766 2266 
Q 2766 2663 2505 2880 
Q 2244 3097 1772 3097 
Q 1472 3097 1187 3025 
Q 903 2953 641 2809 
L 641 3341 
Q 956 3463 1253 3523 
Q 1550 3584 1831 3584 
Q 2591 3584 2966 3190 
Q 3341 2797 3341 1997 
z
" transform="scale(0.015625)"/>
       <path id="DejaVuSans-6c" d="M 603 4863 
L 1178 4863 
L 1178 0 
L 603 0 
L 603 4863 
z
" transform="scale(0.015625)"/>
       <path id="DejaVuSans-7a" d="M 353 3500 
L 3084 3500 
L 3084 2975 
L 922 459 
L 3084 459 
L 3084 0 
L 275 0 
L 275 525 
L 2438 3041 
L 353 3041 
L 353 3500 
z
" transform="scale(0.015625)"/>
       <path id="DejaVuSans-50" d="M 1259 4147 
L 1259 2394 
L 2053 2394 
Q 2494 2394 2734 2622 
Q 2975 2850 2975 3272 
Q 2975 3691 2734 3919 
Q 2494 4147 2053 4147 
L 1259 4147 
z
M 628 4666 
L 2053 4666 
Q 2838 4666 3239 4311 
Q 3641 3956 3641 3272 
Q 3641 2581 3239 2228 
Q 2838 1875 2053 1875 
L 1259 1875 
L 1259 0 
L 628 0 
L 628 4666 
z
" transform="scale(0.015625)"/>
       <path id="DejaVuSans-66" d="M 2375 4863 
L 2375 4384 
L 1825 4384 
Q 1516 4384 1395 4259 
Q 1275 4134 1275 3809 
L 1275 3500 
L 2222 3500 
L 2222 3053 
L 1275 3053 
L 1275 0 
L 697 0 
L 697 3053 
L 147 3053 
L 147 3500 
L 697 3500 
L 697 3744 
Q 697 4328 969 4595 
Q 1241 4863 1831 4863 
L 2375 4863 
z
" transform="scale(0.015625)"/>
      </defs>
      <use xlink:href="#DejaVuSans-4e"/>
      <use xlink:href="#DejaVuSans-6f" x="74.804688"/>
      <use xlink:href="#DejaVuSans-72" x="135.986328"/>
      <use xlink:href="#DejaVuSans-6d" x="175.349609"/>
      <use xlink:href="#DejaVuSans-61" x="272.761719"/>
      <use xlink:href="#DejaVuSans-6c" x="334.041016"/>
      <use xlink:href="#DejaVuSans-69" x="361.824219"/>
      <use xlink:href="#DejaVuSans-7a" x="389.607422"/>
      <use xlink:href="#DejaVuSans-65" x="442.097656"/>
      <use xlink:href="#DejaVuSans-64" x="503.621094"/>
      <use xlink:href="#DejaVuSans-20" x="567.097656"/>
      <use xlink:href="#DejaVuSans-50" x="598.884766"/>
      <use xlink:href="#DejaVuSans-65" x="655.5625"/>
      <use xlink:href="#DejaVuSans-72" x="717.085938"/>
      <use xlink:href="#DejaVuSans-66" x="758.199219"/>
      <use xlink:href="#DejaVuSans-6f" x="793.404297"/>
      <use xlink:href="#DejaVuSans-72" x="854.585938"/>
      <use xlink:href="#DejaVuSans-6d" x="893.949219"/>
      <use xlink:href="#DejaVuSans-61" x="991.361328"/>
      <use xlink:href="#DejaVuSans-6e" x="1052.640625"/>
      <use xlink:href="#DejaVuSans-63" x="1116.019531"/>
      <use xlink:href="#DejaVuSans-65" x="1171"/>
     </g>
    </g>
   </g>
   <g id="line2d_26">
    <path d="M 106.135114 94.420818 
L 230.190717 94.420818 
L 302.758593 94.420818 
L 354.24632 94.420818 
L 394.183304 94.420818 
L 426.814196 94.420818 
L 454.403222 94.420818 
L 478.301923 94.420818 
L 499.382072 94.420818 
L 518.238907 94.420818 
L 535.29699 94.420818 
L 550.869799 94.420818 
L 565.195395 94.420818 
L 578.458825 94.420818 
L 590.806783 94.420818 
L 602.357526 94.420818 
L 613.207782 94.420818 
L 623.437675 94.420818 
L 633.114324 94.420818 
L 642.29451 94.420818 
L 651.026701 94.420818 
L 659.352593 94.420818 
L 667.308321 94.420818 
L 674.925402 94.420818 
L 682.231494 94.420818 
L 689.250998 94.420818 
L 696.005551 94.420818 
L 702.514428 94.420818 
L 708.794876 94.420818 
L 714.862386 94.420818 
" clip-path="url(#pb4de95035c)" style="fill: none; stroke-dasharray: 5.55,2.4; stroke-dashoffset: 0; stroke: #2ca02c; stroke-width: 1.5"/>
   </g>
   <g id="line2d_27">
    <path d="M 106.135114 122.656656 
L 230.190717 122.656656 
L 302.758593 122.656656 
L 354.24632 122.656656 
L 394.183304 122.656656 
L 426.814196 122.656656 
L 454.403222 122.656656 
L 478.301923 122.656656 
L 499.382072 122.656656 
L 518.238907 122.656656 
L 535.29699 122.656656 
L 550.869799 122.656656 
L 565.195395 122.656656 
L 578.458825 122.656656 
L 590.806783 122.656656 
L 602.357526 122.656656 
L 613.207782 122.656656 
L 623.437675 122.656656 
L 633.114324 122.656656 
L 642.29451 122.656656 
L 651.026701 122.656656 
L 659.352593 122.656656 
L 667.308321 122.656656 
L 674.925402 122.656656 
L 682.231494 122.656656 
L 689.250998 122.656656 
L 696.005551 122.656656 
L 702.514428 122.656656 
L 708.794876 122.656656 
L 714.862386 122.656656 
" clip-path="url(#pb4de95035c)" style="fill: none; stroke-dasharray: 5.55,2.4; stroke-dashoffset: 0; stroke: #ff7f0e; stroke-width: 1.5"/>
   </g>
   <g id="line2d_28">
    <path d="M 106.135114 270.767687 
L 230.190717 164.143354 
L 302.758593 120.129375 
L 354.24632 103.631134 
L 394.183304 93.127821 
L 426.814196 88.390102 
L 454.403222 85.204129 
L 478.301923 83.137959 
L 499.382072 79.928201 
L 518.238907 76.99433 
L 535.29699 75.035581 
L 550.869799 73.453799 
L 565.195395 72.186925 
L 578.458825 71.259229 
L 590.806783 70.362883 
L 602.357526 69.245751 
L 613.207782 68.443387 
L 623.437675 67.753994 
L 633.114324 67.145973 
L 642.29451 66.473824 
L 651.026701 66.028506 
L 659.352593 65.644399 
L 667.308321 65.268146 
L 674.925402 64.935098 
L 682.231494 64.704242 
L 689.250998 64.209643 
L 696.005551 63.907602 
L 702.514428 63.503279 
L 708.794876 63.318099 
L 714.862386 63.075332 
" clip-path="url(#pb4de95035c)" style="fill: none; stroke: #1f77b4; stroke-width: 1.5; stroke-linecap: square"/>
   </g>
   <g id="line2d_29">
    <path d="M 106.135114 132.650646 
L 230.190717 110.660288 
L 302.758593 105.227761 
L 354.24632 101.60895 
L 394.183304 99.129979 
L 426.814196 95.885136 
L 454.403222 93.643824 
L 478.301923 92.163559 
L 499.382072 87.36719 
L 518.238907 83.647511 
L 535.29699 79.596645 
L 550.869799 76.842095 
L 565.195395 75.118481 
L 578.458825 73.431044 
L 590.806783 72.673279 
L 602.357526 71.755958 
L 613.207782 71.040708 
L 623.437675 70.247237 
L 633.114324 69.707107 
L 642.29451 69.184569 
L 651.026701 68.490914 
L 659.352593 67.980687 
L 667.308321 67.554984 
L 674.925402 67.134228 
L 682.231494 66.869758 
L 689.250998 66.705938 
L 696.005551 66.405816 
L 702.514428 66.175138 
L 708.794876 66.078712 
L 714.862386 65.932991 
" clip-path="url(#pb4de95035c)" style="fill: none; stroke: #e377c2; stroke-width: 1.5; stroke-linecap: square"/>
   </g>
   <g id="line2d_30">
    <path d="M 106.135114 132.650646 
L 230.190717 119.116871 
L 302.758593 111.306961 
L 354.24632 99.634938 
L 394.183304 96.27934 
L 426.814196 91.831096 
L 454.403222 90.244545 
L 478.301923 87.205449 
L 499.382072 80.158573 
L 518.238907 78.588215 
L 535.29699 75.112125 
L 550.869799 74.888511 
L 565.195395 74.675444 
L 578.458825 70.4791 
L 590.806783 68.863577 
L 602.357526 68.141961 
L 613.207782 67.420433 
L 623.437675 67.194607 
L 633.114324 66.511556 
L 642.29451 66.334185 
L 651.026701 66.25233 
L 659.352593 66.158768 
L 667.308321 65.856788 
L 674.925402 65.824201 
L 682.231494 65.620412 
L 689.250998 65.531671 
L 696.005551 65.237117 
L 702.514428 63.221263 
L 708.794876 63.089819 
L 714.862386 63.02553 
" clip-path="url(#pb4de95035c)" style="fill: none; stroke: #8c564b; stroke-width: 1.5; stroke-linecap: square"/>
   </g>
   <g id="line2d_31">
    <path d="M 106.135114 132.650646 
L 230.190717 119.116871 
L 302.758593 111.306961 
L 354.24632 99.634938 
L 394.183304 96.27934 
L 426.814196 91.831096 
L 454.403222 85.47603 
L 478.301923 83.460692 
L 499.382072 79.951301 
L 518.238907 76.156455 
L 535.29699 74.806072 
L 550.869799 74.402365 
L 565.195395 74.150491 
L 578.458825 71.172688 
L 590.806783 69.791532 
L 602.357526 68.89611 
L 613.207782 68.38889 
L 623.437675 67.359287 
L 633.114324 65.912037 
L 642.29451 65.724699 
L 651.026701 65.115519 
L 659.352593 63.643122 
L 667.308321 63.358567 
L 674.925402 63.003176 
L 682.231494 62.649616 
L 689.250998 62.550825 
L 696.005551 62.248315 
L 702.514428 61.778837 
L 708.794876 61.646777 
L 714.862386 61.512425 
" clip-path="url(#pb4de95035c)" style="fill: none; stroke: #9467bd; stroke-width: 1.5; stroke-linecap: square"/>
   </g>
   <g id="line2d_32">
    <path d="M 106.135114 132.650646 
L 230.190717 119.116871 
L 302.758593 111.306961 
L 354.24632 99.634938 
L 394.183304 96.27934 
L 426.814196 91.831096 
L 454.403222 84.70882 
L 478.301923 82.770156 
L 499.382072 80.083052 
L 518.238907 78.529645 
L 535.29699 77.876354 
L 550.869799 77.502446 
L 565.195395 77.188026 
L 578.458825 76.475577 
L 590.806783 75.99529 
L 602.357526 75.432434 
L 613.207782 75.098198 
L 623.437675 74.657449 
L 633.114324 73.876464 
L 642.29451 72.761773 
L 651.026701 71.687712 
L 659.352593 70.50758 
L 667.308321 70.089931 
L 674.925402 69.20984 
L 682.231494 68.586483 
L 689.250998 68.387248 
L 696.005551 68.021655 
L 702.514428 67.583923 
L 708.794876 66.646214 
L 714.862386 66.200862 
" clip-path="url(#pb4de95035c)" style="fill: none; stroke: #d62728; stroke-width: 1.5; stroke-linecap: square"/>
   </g>
   <g id="line2d_33">
    <path d="M 106.135114 132.650646 
L 230.190717 119.116871 
L 302.758593 111.306961 
L 354.24632 99.634938 
L 394.183304 96.27934 
L 426.814196 91.831096 
L 454.403222 88.112169 
L 478.301923 83.763231 
L 499.382072 79.918545 
L 518.238907 76.071457 
L 535.29699 74.540935 
L 550.869799 74.031988 
L 565.195395 73.525316 
L 578.458825 70.176173 
L 590.806783 69.034889 
L 602.357526 68.044911 
L 613.207782 67.718845 
L 623.437675 66.869056 
L 633.114324 65.173206 
L 642.29451 65.065627 
L 651.026701 64.655692 
L 659.352593 63.442906 
L 667.308321 63.273518 
L 674.925402 63.098421 
L 682.231494 62.90021 
L 689.250998 62.71588 
L 696.005551 62.561392 
L 702.514428 62.305353 
L 708.794876 62.214753 
L 714.862386 62.120138 
" clip-path="url(#pb4de95035c)" style="fill: none; stroke: #bcbd22; stroke-width: 1.5; stroke-linecap: square"/>
   </g>
   <g id="line2d_34">
    <path d="M 106.135114 122.473959 
L 230.190717 87.873729 
L 302.758593 78.435962 
L 354.24632 72.169587 
L 394.183304 68.492246 
L 426.814196 65.745423 
L 454.403222 64.221193 
L 478.301923 62.497283 
L 499.382072 61.380693 
L 518.238907 60.76655 
L 535.29699 60.463145 
L 550.869799 60.161997 
L 565.195395 59.993503 
L 578.458825 59.67391 
L 590.806783 59.412851 
L 602.357526 59.290221 
L 613.207782 59.050281 
L 623.437675 58.68466 
L 633.114324 58.564337 
L 642.29451 58.520527 
L 651.026701 58.422882 
L 659.352593 58.403444 
L 667.308321 58.306304 
L 674.925402 58.116311 
L 682.231494 58.024286 
L 689.250998 57.981392 
L 696.005551 57.941237 
L 702.514428 57.925109 
L 708.794876 57.417717 
L 714.862386 57.358264 
" clip-path="url(#pb4de95035c)" style="fill: none; stroke-dasharray: 5.55,2.4; stroke-dashoffset: 0; stroke: #7f7f7f; stroke-width: 1.5"/>
   </g>
   <g id="patch_3">
    <path d="M 75.69875 506.16 
L 75.69875 7.2 
" style="fill: none; stroke: #000000; stroke-width: 0.8; stroke-linejoin: miter; stroke-linecap: square"/>
   </g>
   <g id="patch_4">
    <path d="M 745.29875 506.16 
L 745.29875 7.2 
" style="fill: none; stroke: #000000; stroke-width: 0.8; stroke-linejoin: miter; stroke-linecap: square"/>
   </g>
   <g id="patch_5">
    <path d="M 75.69875 506.16 
L 745.29875 506.16 
" style="fill: none; stroke: #000000; stroke-width: 0.8; stroke-linejoin: miter; stroke-linecap: square"/>
   </g>
   <g id="patch_6">
    <path d="M 75.69875 7.2 
L 745.29875 7.2 
" style="fill: none; stroke: #000000; stroke-width: 0.8; stroke-linejoin: miter; stroke-linecap: square"/>
   </g>
   <g id="legend_1">
    <g id="patch_7">
     <path d="M 406.1 497.16 
L 732.69875 497.16 
Q 736.29875 497.16 736.29875 493.56 
L 736.29875 257.574375 
Q 736.29875 253.974375 732.69875 253.974375 
L 406.1 253.974375 
Q 402.5 253.974375 402.5 257.574375 
L 402.5 493.56 
Q 402.5 497.16 406.1 497.16 
z
" style="fill: #ffffff; opacity: 0.8; stroke: #cccccc; stroke-linejoin: miter"/>
    </g>
    <g id="line2d_35">
     <path d="M 409.7 268.551563 
L 427.7 268.551563 
L 445.7 268.551563 
" style="fill: none; stroke-dasharray: 5.55,2.4; stroke-dashoffset: 0; stroke: #2ca02c; stroke-width: 1.5"/>
    </g>
    <g id="text_10">
     <!-- Independent Training -->
     <g transform="translate(460.1 274.851563) scale(0.18 -0.18)">
      <defs>
       <path id="DejaVuSans-49" d="M 628 4666 
L 1259 4666 
L 1259 0 
L 628 0 
L 628 4666 
z
" transform="scale(0.015625)"/>
       <path id="DejaVuSans-70" d="M 1159 525 
L 1159 -1331 
L 581 -1331 
L 581 3500 
L 1159 3500 
L 1159 2969 
Q 1341 3281 1617 3432 
Q 1894 3584 2278 3584 
Q 2916 3584 3314 3078 
Q 3713 2572 3713 1747 
Q 3713 922 3314 415 
Q 2916 -91 2278 -91 
Q 1894 -91 1617 61 
Q 1341 213 1159 525 
z
M 3116 1747 
Q 3116 2381 2855 2742 
Q 2594 3103 2138 3103 
Q 1681 3103 1420 2742 
Q 1159 2381 1159 1747 
Q 1159 1113 1420 752 
Q 1681 391 2138 391 
Q 2594 391 2855 752 
Q 3116 1113 3116 1747 
z
" transform="scale(0.015625)"/>
       <path id="DejaVuSans-74" d="M 1172 4494 
L 1172 3500 
L 2356 3500 
L 2356 3053 
L 1172 3053 
L 1172 1153 
Q 1172 725 1289 603 
Q 1406 481 1766 481 
L 2356 481 
L 2356 0 
L 1766 0 
Q 1100 0 847 248 
Q 594 497 594 1153 
L 594 3053 
L 172 3053 
L 172 3500 
L 594 3500 
L 594 4494 
L 1172 4494 
z
" transform="scale(0.015625)"/>
       <path id="DejaVuSans-54" d="M -19 4666 
L 3928 4666 
L 3928 4134 
L 2272 4134 
L 2272 0 
L 1638 0 
L 1638 4134 
L -19 4134 
L -19 4666 
z
" transform="scale(0.015625)"/>
       <path id="DejaVuSans-67" d="M 2906 1791 
Q 2906 2416 2648 2759 
Q 2391 3103 1925 3103 
Q 1463 3103 1205 2759 
Q 947 2416 947 1791 
Q 947 1169 1205 825 
Q 1463 481 1925 481 
Q 2391 481 2648 825 
Q 2906 1169 2906 1791 
z
M 3481 434 
Q 3481 -459 3084 -895 
Q 2688 -1331 1869 -1331 
Q 1566 -1331 1297 -1286 
Q 1028 -1241 775 -1147 
L 775 -588 
Q 1028 -725 1275 -790 
Q 1522 -856 1778 -856 
Q 2344 -856 2625 -561 
Q 2906 -266 2906 331 
L 2906 616 
Q 2728 306 2450 153 
Q 2172 0 1784 0 
Q 1141 0 747 490 
Q 353 981 353 1791 
Q 353 2603 747 3093 
Q 1141 3584 1784 3584 
Q 2172 3584 2450 3431 
Q 2728 3278 2906 2969 
L 2906 3500 
L 3481 3500 
L 3481 434 
z
" transform="scale(0.015625)"/>
      </defs>
      <use xlink:href="#DejaVuSans-49"/>
      <use xlink:href="#DejaVuSans-6e" x="29.492188"/>
      <use xlink:href="#DejaVuSans-64" x="92.871094"/>
      <use xlink:href="#DejaVuSans-65" x="156.347656"/>
      <use xlink:href="#DejaVuSans-70" x="217.871094"/>
      <use xlink:href="#DejaVuSans-65" x="281.347656"/>
      <use xlink:href="#DejaVuSans-6e" x="342.871094"/>
      <use xlink:href="#DejaVuSans-64" x="406.25"/>
      <use xlink:href="#DejaVuSans-65" x="469.726562"/>
      <use xlink:href="#DejaVuSans-6e" x="531.25"/>
      <use xlink:href="#DejaVuSans-74" x="594.628906"/>
      <use xlink:href="#DejaVuSans-20" x="633.837891"/>
      <use xlink:href="#DejaVuSans-54" x="665.625"/>
      <use xlink:href="#DejaVuSans-72" x="711.958984"/>
      <use xlink:href="#DejaVuSans-61" x="753.072266"/>
      <use xlink:href="#DejaVuSans-69" x="814.351562"/>
      <use xlink:href="#DejaVuSans-6e" x="842.134766"/>
      <use xlink:href="#DejaVuSans-69" x="905.513672"/>
      <use xlink:href="#DejaVuSans-6e" x="933.296875"/>
      <use xlink:href="#DejaVuSans-67" x="996.675781"/>
     </g>
    </g>
    <g id="line2d_36">
     <path d="M 409.7 294.972188 
L 427.7 294.972188 
L 445.7 294.972188 
" style="fill: none; stroke-dasharray: 5.55,2.4; stroke-dashoffset: 0; stroke: #ff7f0e; stroke-width: 1.5"/>
    </g>
    <g id="text_11">
     <!-- Multi-task Training -->
     <g transform="translate(460.1 301.272188) scale(0.18 -0.18)">
      <defs>
       <path id="DejaVuSans-4d" d="M 628 4666 
L 1569 4666 
L 2759 1491 
L 3956 4666 
L 4897 4666 
L 4897 0 
L 4281 0 
L 4281 4097 
L 3078 897 
L 2444 897 
L 1241 4097 
L 1241 0 
L 628 0 
L 628 4666 
z
" transform="scale(0.015625)"/>
       <path id="DejaVuSans-2d" d="M 313 2009 
L 1997 2009 
L 1997 1497 
L 313 1497 
L 313 2009 
z
" transform="scale(0.015625)"/>
       <path id="DejaVuSans-6b" d="M 581 4863 
L 1159 4863 
L 1159 1991 
L 2875 3500 
L 3609 3500 
L 1753 1863 
L 3688 0 
L 2938 0 
L 1159 1709 
L 1159 0 
L 581 0 
L 581 4863 
z
" transform="scale(0.015625)"/>
      </defs>
      <use xlink:href="#DejaVuSans-4d"/>
      <use xlink:href="#DejaVuSans-75" x="86.279297"/>
      <use xlink:href="#DejaVuSans-6c" x="149.658203"/>
      <use xlink:href="#DejaVuSans-74" x="177.441406"/>
      <use xlink:href="#DejaVuSans-69" x="216.650391"/>
      <use xlink:href="#DejaVuSans-2d" x="244.433594"/>
      <use xlink:href="#DejaVuSans-74" x="280.517578"/>
      <use xlink:href="#DejaVuSans-61" x="319.726562"/>
      <use xlink:href="#DejaVuSans-73" x="381.005859"/>
      <use xlink:href="#DejaVuSans-6b" x="433.105469"/>
      <use xlink:href="#DejaVuSans-20" x="491.015625"/>
      <use xlink:href="#DejaVuSans-54" x="522.802734"/>
      <use xlink:href="#DejaVuSans-72" x="569.136719"/>
      <use xlink:href="#DejaVuSans-61" x="610.25"/>
      <use xlink:href="#DejaVuSans-69" x="671.529297"/>
      <use xlink:href="#DejaVuSans-6e" x="699.3125"/>
      <use xlink:href="#DejaVuSans-69" x="762.691406"/>
      <use xlink:href="#DejaVuSans-6e" x="790.474609"/>
      <use xlink:href="#DejaVuSans-67" x="853.853516"/>
     </g>
    </g>
    <g id="line2d_37">
     <path d="M 409.7 321.392813 
L 427.7 321.392813 
L 445.7 321.392813 
" style="fill: none; stroke: #1f77b4; stroke-width: 1.5; stroke-linecap: square"/>
    </g>
    <g id="text_12">
     <!-- Random -->
     <g transform="translate(460.1 327.692813) scale(0.18 -0.18)">
      <use xlink:href="#DejaVuSans-52"/>
      <use xlink:href="#DejaVuSans-61" x="67.232422"/>
      <use xlink:href="#DejaVuSans-6e" x="128.511719"/>
      <use xlink:href="#DejaVuSans-64" x="191.890625"/>
      <use xlink:href="#DejaVuSans-6f" x="255.367188"/>
      <use xlink:href="#DejaVuSans-6d" x="316.548828"/>
     </g>
    </g>
    <g id="line2d_38">
     <path d="M 409.7 347.813438 
L 427.7 347.813438 
L 445.7 347.813438 
" style="fill: none; stroke: #e377c2; stroke-width: 1.5; stroke-linecap: square"/>
    </g>
    <g id="text_13">
     <!-- GP-MBTL -->
     <g transform="translate(460.1 354.113438) scale(0.18 -0.18)">
      <defs>
       <path id="DejaVuSans-47" d="M 3809 666 
L 3809 1919 
L 2778 1919 
L 2778 2438 
L 4434 2438 
L 4434 434 
Q 4069 175 3628 42 
Q 3188 -91 2688 -91 
Q 1594 -91 976 548 
Q 359 1188 359 2328 
Q 359 3472 976 4111 
Q 1594 4750 2688 4750 
Q 3144 4750 3555 4637 
Q 3966 4525 4313 4306 
L 4313 3634 
Q 3963 3931 3569 4081 
Q 3175 4231 2741 4231 
Q 1884 4231 1454 3753 
Q 1025 3275 1025 2328 
Q 1025 1384 1454 906 
Q 1884 428 2741 428 
Q 3075 428 3337 486 
Q 3600 544 3809 666 
z
" transform="scale(0.015625)"/>
       <path id="DejaVuSans-42" d="M 1259 2228 
L 1259 519 
L 2272 519 
Q 2781 519 3026 730 
Q 3272 941 3272 1375 
Q 3272 1813 3026 2020 
Q 2781 2228 2272 2228 
L 1259 2228 
z
M 1259 4147 
L 1259 2741 
L 2194 2741 
Q 2656 2741 2882 2914 
Q 3109 3088 3109 3444 
Q 3109 3797 2882 3972 
Q 2656 4147 2194 4147 
L 1259 4147 
z
M 628 4666 
L 2241 4666 
Q 2963 4666 3353 4366 
Q 3744 4066 3744 3513 
Q 3744 3084 3544 2831 
Q 3344 2578 2956 2516 
Q 3422 2416 3680 2098 
Q 3938 1781 3938 1306 
Q 3938 681 3513 340 
Q 3088 0 2303 0 
L 628 0 
L 628 4666 
z
" transform="scale(0.015625)"/>
       <path id="DejaVuSans-4c" d="M 628 4666 
L 1259 4666 
L 1259 531 
L 3531 531 
L 3531 0 
L 628 0 
L 628 4666 
z
" transform="scale(0.015625)"/>
      </defs>
      <use xlink:href="#DejaVuSans-47"/>
      <use xlink:href="#DejaVuSans-50" x="77.490234"/>
      <use xlink:href="#DejaVuSans-2d" x="135.542969"/>
      <use xlink:href="#DejaVuSans-4d" x="171.626953"/>
      <use xlink:href="#DejaVuSans-42" x="257.90625"/>
      <use xlink:href="#DejaVuSans-54" x="326.509766"/>
      <use xlink:href="#DejaVuSans-4c" x="387.59375"/>
     </g>
    </g>
    <g id="line2d_39">
     <path d="M 409.7 374.234063 
L 427.7 374.234063 
L 445.7 374.234063 
" style="fill: none; stroke: #8c564b; stroke-width: 1.5; stroke-linecap: square"/>
    </g>
    <g id="text_14">
     <!-- SC-MBTL -->
     <g transform="translate(460.1 380.534063) scale(0.18 -0.18)">
      <defs>
       <path id="DejaVuSans-53" d="M 3425 4513 
L 3425 3897 
Q 3066 4069 2747 4153 
Q 2428 4238 2131 4238 
Q 1616 4238 1336 4038 
Q 1056 3838 1056 3469 
Q 1056 3159 1242 3001 
Q 1428 2844 1947 2747 
L 2328 2669 
Q 3034 2534 3370 2195 
Q 3706 1856 3706 1288 
Q 3706 609 3251 259 
Q 2797 -91 1919 -91 
Q 1588 -91 1214 -16 
Q 841 59 441 206 
L 441 856 
Q 825 641 1194 531 
Q 1563 422 1919 422 
Q 2459 422 2753 634 
Q 3047 847 3047 1241 
Q 3047 1584 2836 1778 
Q 2625 1972 2144 2069 
L 1759 2144 
Q 1053 2284 737 2584 
Q 422 2884 422 3419 
Q 422 4038 858 4394 
Q 1294 4750 2059 4750 
Q 2388 4750 2728 4690 
Q 3069 4631 3425 4513 
z
" transform="scale(0.015625)"/>
       <path id="DejaVuSans-43" d="M 4122 4306 
L 4122 3641 
Q 3803 3938 3442 4084 
Q 3081 4231 2675 4231 
Q 1875 4231 1450 3742 
Q 1025 3253 1025 2328 
Q 1025 1406 1450 917 
Q 1875 428 2675 428 
Q 3081 428 3442 575 
Q 3803 722 4122 1019 
L 4122 359 
Q 3791 134 3420 21 
Q 3050 -91 2638 -91 
Q 1578 -91 968 557 
Q 359 1206 359 2328 
Q 359 3453 968 4101 
Q 1578 4750 2638 4750 
Q 3056 4750 3426 4639 
Q 3797 4528 4122 4306 
z
" transform="scale(0.015625)"/>
      </defs>
      <use xlink:href="#DejaVuSans-53"/>
      <use xlink:href="#DejaVuSans-43" x="63.476562"/>
      <use xlink:href="#DejaVuSans-2d" x="133.300781"/>
      <use xlink:href="#DejaVuSans-4d" x="169.384766"/>
      <use xlink:href="#DejaVuSans-42" x="255.664062"/>
      <use xlink:href="#DejaVuSans-54" x="324.267578"/>
      <use xlink:href="#DejaVuSans-4c" x="385.351562"/>
     </g>
    </g>
    <g id="line2d_40">
     <path d="M 409.7 400.654688 
L 427.7 400.654688 
L 445.7 400.654688 
" style="fill: none; stroke: #9467bd; stroke-width: 1.5; stroke-linecap: square"/>
    </g>
    <g id="text_15">
     <!-- Hybrid-MBTL (Ours) -->
     <g transform="translate(460.1 406.954688) scale(0.18 -0.18)">
      <defs>
       <path id="DejaVuSans-48" d="M 628 4666 
L 1259 4666 
L 1259 2753 
L 3553 2753 
L 3553 4666 
L 4184 4666 
L 4184 0 
L 3553 0 
L 3553 2222 
L 1259 2222 
L 1259 0 
L 628 0 
L 628 4666 
z
" transform="scale(0.015625)"/>
       <path id="DejaVuSans-79" d="M 2059 -325 
Q 1816 -950 1584 -1140 
Q 1353 -1331 966 -1331 
L 506 -1331 
L 506 -850 
L 844 -850 
Q 1081 -850 1212 -737 
Q 1344 -625 1503 -206 
L 1606 56 
L 191 3500 
L 800 3500 
L 1894 763 
L 2988 3500 
L 3597 3500 
L 2059 -325 
z
" transform="scale(0.015625)"/>
       <path id="DejaVuSans-62" d="M 3116 1747 
Q 3116 2381 2855 2742 
Q 2594 3103 2138 3103 
Q 1681 3103 1420 2742 
Q 1159 2381 1159 1747 
Q 1159 1113 1420 752 
Q 1681 391 2138 391 
Q 2594 391 2855 752 
Q 3116 1113 3116 1747 
z
M 1159 2969 
Q 1341 3281 1617 3432 
Q 1894 3584 2278 3584 
Q 2916 3584 3314 3078 
Q 3713 2572 3713 1747 
Q 3713 922 3314 415 
Q 2916 -91 2278 -91 
Q 1894 -91 1617 61 
Q 1341 213 1159 525 
L 1159 0 
L 581 0 
L 581 4863 
L 1159 4863 
L 1159 2969 
z
" transform="scale(0.015625)"/>
       <path id="DejaVuSans-28" d="M 1984 4856 
Q 1566 4138 1362 3434 
Q 1159 2731 1159 2009 
Q 1159 1288 1364 580 
Q 1569 -128 1984 -844 
L 1484 -844 
Q 1016 -109 783 600 
Q 550 1309 550 2009 
Q 550 2706 781 3412 
Q 1013 4119 1484 4856 
L 1984 4856 
z
" transform="scale(0.015625)"/>
       <path id="DejaVuSans-4f" d="M 2522 4238 
Q 1834 4238 1429 3725 
Q 1025 3213 1025 2328 
Q 1025 1447 1429 934 
Q 1834 422 2522 422 
Q 3209 422 3611 934 
Q 4013 1447 4013 2328 
Q 4013 3213 3611 3725 
Q 3209 4238 2522 4238 
z
M 2522 4750 
Q 3503 4750 4090 4092 
Q 4678 3434 4678 2328 
Q 4678 1225 4090 567 
Q 3503 -91 2522 -91 
Q 1538 -91 948 565 
Q 359 1222 359 2328 
Q 359 3434 948 4092 
Q 1538 4750 2522 4750 
z
" transform="scale(0.015625)"/>
       <path id="DejaVuSans-29" d="M 513 4856 
L 1013 4856 
Q 1481 4119 1714 3412 
Q 1947 2706 1947 2009 
Q 1947 1309 1714 600 
Q 1481 -109 1013 -844 
L 513 -844 
Q 928 -128 1133 580 
Q 1338 1288 1338 2009 
Q 1338 2731 1133 3434 
Q 928 4138 513 4856 
z
" transform="scale(0.015625)"/>
      </defs>
      <use xlink:href="#DejaVuSans-48"/>
      <use xlink:href="#DejaVuSans-79" x="75.195312"/>
      <use xlink:href="#DejaVuSans-62" x="134.375"/>
      <use xlink:href="#DejaVuSans-72" x="197.851562"/>
      <use xlink:href="#DejaVuSans-69" x="238.964844"/>
      <use xlink:href="#DejaVuSans-64" x="266.748047"/>
      <use xlink:href="#DejaVuSans-2d" x="330.224609"/>
      <use xlink:href="#DejaVuSans-4d" x="366.308594"/>
      <use xlink:href="#DejaVuSans-42" x="452.587891"/>
      <use xlink:href="#DejaVuSans-54" x="521.191406"/>
      <use xlink:href="#DejaVuSans-4c" x="582.275391"/>
      <use xlink:href="#DejaVuSans-20" x="637.988281"/>
      <use xlink:href="#DejaVuSans-28" x="669.775391"/>
      <use xlink:href="#DejaVuSans-4f" x="708.789062"/>
      <use xlink:href="#DejaVuSans-75" x="787.5"/>
      <use xlink:href="#DejaVuSans-72" x="850.878906"/>
      <use xlink:href="#DejaVuSans-73" x="891.992188"/>
      <use xlink:href="#DejaVuSans-29" x="944.091797"/>
     </g>
    </g>
    <g id="line2d_41">
     <path d="M 409.7 427.075313 
L 427.7 427.075313 
L 445.7 427.075313 
" style="fill: none; stroke: #d62728; stroke-width: 1.5; stroke-linecap: square"/>
    </g>
    <g id="text_16">
     <!-- Hybrid-MBTL-new (Ours) -->
     <g transform="translate(460.1 433.375313) scale(0.18 -0.18)">
      <defs>
       <path id="DejaVuSans-77" d="M 269 3500 
L 844 3500 
L 1563 769 
L 2278 3500 
L 2956 3500 
L 3675 769 
L 4391 3500 
L 4966 3500 
L 4050 0 
L 3372 0 
L 2619 2869 
L 1863 0 
L 1184 0 
L 269 3500 
z
" transform="scale(0.015625)"/>
      </defs>
      <use xlink:href="#DejaVuSans-48"/>
      <use xlink:href="#DejaVuSans-79" x="75.195312"/>
      <use xlink:href="#DejaVuSans-62" x="134.375"/>
      <use xlink:href="#DejaVuSans-72" x="197.851562"/>
      <use xlink:href="#DejaVuSans-69" x="238.964844"/>
      <use xlink:href="#DejaVuSans-64" x="266.748047"/>
      <use xlink:href="#DejaVuSans-2d" x="330.224609"/>
      <use xlink:href="#DejaVuSans-4d" x="366.308594"/>
      <use xlink:href="#DejaVuSans-42" x="452.587891"/>
      <use xlink:href="#DejaVuSans-54" x="521.191406"/>
      <use xlink:href="#DejaVuSans-4c" x="582.275391"/>
      <use xlink:href="#DejaVuSans-2d" x="636.238281"/>
      <use xlink:href="#DejaVuSans-6e" x="672.322266"/>
      <use xlink:href="#DejaVuSans-65" x="735.701172"/>
      <use xlink:href="#DejaVuSans-77" x="797.224609"/>
      <use xlink:href="#DejaVuSans-20" x="879.011719"/>
      <use xlink:href="#DejaVuSans-28" x="910.798828"/>
      <use xlink:href="#DejaVuSans-4f" x="949.8125"/>
      <use xlink:href="#DejaVuSans-75" x="1028.523438"/>
      <use xlink:href="#DejaVuSans-72" x="1091.902344"/>
      <use xlink:href="#DejaVuSans-73" x="1133.015625"/>
      <use xlink:href="#DejaVuSans-29" x="1185.115234"/>
     </g>
    </g>
    <g id="line2d_42">
     <path d="M 409.7 453.495938 
L 427.7 453.495938 
L 445.7 453.495938 
" style="fill: none; stroke: #bcbd22; stroke-width: 1.5; stroke-linecap: square"/>
    </g>
    <g id="text_17">
     <!-- Hybrid-MBTL-mountain (Ours) -->
     <g transform="translate(460.1 459.795938) scale(0.18 -0.18)">
      <use xlink:href="#DejaVuSans-48"/>
      <use xlink:href="#DejaVuSans-79" x="75.195312"/>
      <use xlink:href="#DejaVuSans-62" x="134.375"/>
      <use xlink:href="#DejaVuSans-72" x="197.851562"/>
      <use xlink:href="#DejaVuSans-69" x="238.964844"/>
      <use xlink:href="#DejaVuSans-64" x="266.748047"/>
      <use xlink:href="#DejaVuSans-2d" x="330.224609"/>
      <use xlink:href="#DejaVuSans-4d" x="366.308594"/>
      <use xlink:href="#DejaVuSans-42" x="452.587891"/>
      <use xlink:href="#DejaVuSans-54" x="521.191406"/>
      <use xlink:href="#DejaVuSans-4c" x="582.275391"/>
      <use xlink:href="#DejaVuSans-2d" x="636.238281"/>
      <use xlink:href="#DejaVuSans-6d" x="672.322266"/>
      <use xlink:href="#DejaVuSans-6f" x="769.734375"/>
      <use xlink:href="#DejaVuSans-75" x="830.916016"/>
      <use xlink:href="#DejaVuSans-6e" x="894.294922"/>
      <use xlink:href="#DejaVuSans-74" x="957.673828"/>
      <use xlink:href="#DejaVuSans-61" x="996.882812"/>
      <use xlink:href="#DejaVuSans-69" x="1058.162109"/>
      <use xlink:href="#DejaVuSans-6e" x="1085.945312"/>
      <use xlink:href="#DejaVuSans-20" x="1149.324219"/>
      <use xlink:href="#DejaVuSans-28" x="1181.111328"/>
      <use xlink:href="#DejaVuSans-4f" x="1220.125"/>
      <use xlink:href="#DejaVuSans-75" x="1298.835938"/>
      <use xlink:href="#DejaVuSans-72" x="1362.214844"/>
      <use xlink:href="#DejaVuSans-73" x="1403.328125"/>
      <use xlink:href="#DejaVuSans-29" x="1455.427734"/>
     </g>
    </g>
    <g id="line2d_43">
     <path d="M 409.7 479.916563 
L 427.7 479.916563 
L 445.7 479.916563 
" style="fill: none; stroke-dasharray: 5.55,2.4; stroke-dashoffset: 0; stroke: #7f7f7f; stroke-width: 1.5"/>
    </g>
    <g id="text_18">
     <!-- Stochastic Oracle -->
     <g transform="translate(460.1 486.216563) scale(0.18 -0.18)">
      <defs>
       <path id="DejaVuSans-68" d="M 3513 2113 
L 3513 0 
L 2938 0 
L 2938 2094 
Q 2938 2591 2744 2837 
Q 2550 3084 2163 3084 
Q 1697 3084 1428 2787 
Q 1159 2491 1159 1978 
L 1159 0 
L 581 0 
L 581 4863 
L 1159 4863 
L 1159 2956 
Q 1366 3272 1645 3428 
Q 1925 3584 2291 3584 
Q 2894 3584 3203 3211 
Q 3513 2838 3513 2113 
z
" transform="scale(0.015625)"/>
      </defs>
      <use xlink:href="#DejaVuSans-53"/>
      <use xlink:href="#DejaVuSans-74" x="63.476562"/>
      <use xlink:href="#DejaVuSans-6f" x="102.685547"/>
      <use xlink:href="#DejaVuSans-63" x="163.867188"/>
      <use xlink:href="#DejaVuSans-68" x="218.847656"/>
      <use xlink:href="#DejaVuSans-61" x="282.226562"/>
      <use xlink:href="#DejaVuSans-73" x="343.505859"/>
      <use xlink:href="#DejaVuSans-74" x="395.605469"/>
      <use xlink:href="#DejaVuSans-69" x="434.814453"/>
      <use xlink:href="#DejaVuSans-63" x="462.597656"/>
      <use xlink:href="#DejaVuSans-20" x="517.578125"/>
      <use xlink:href="#DejaVuSans-4f" x="549.365234"/>
      <use xlink:href="#DejaVuSans-72" x="628.076172"/>
      <use xlink:href="#DejaVuSans-61" x="669.189453"/>
      <use xlink:href="#DejaVuSans-63" x="730.46875"/>
      <use xlink:href="#DejaVuSans-6c" x="785.449219"/>
      <use xlink:href="#DejaVuSans-65" x="813.232422"/>
     </g>
    </g>
   </g>
  </g>
 </g>
 <defs>
  <clipPath id="pb4de95035c">
   <rect x="75.69875" y="7.2" width="669.6" height="498.96"/>
  </clipPath>
 </defs>
</svg>
