<?xml version="1.0" encoding="utf-8" standalone="no"?>
<!DOCTYPE svg PUBLIC "-//W3C//DTD SVG 1.1//EN"
  "http://www.w3.org/Graphics/SVG/1.1/DTD/svg11.dtd">
<svg xmlns:xlink="http://www.w3.org/1999/xlink" width="578.419062pt" height="389.977813pt" viewBox="0 0 578.419062 389.977813" xmlns="http://www.w3.org/2000/svg" version="1.1">
 <metadata>
  <rdf:RDF xmlns:dc="http://purl.org/dc/elements/1.1/" xmlns:cc="http://creativecommons.org/ns#" xmlns:rdf="http://www.w3.org/1999/02/22-rdf-syntax-ns#">
   <cc:Work>
    <dc:type rdf:resource="http://purl.org/dc/dcmitype/StillImage"/>
    <dc:date>2025-05-15T23:47:08.241176</dc:date>
    <dc:format>image/svg+xml</dc:format>
    <dc:creator>
     <cc:Agent>
      <dc:title>Matplotlib v3.9.4, https://matplotlib.org/</dc:title>
     </cc:Agent>
    </dc:creator>
   </cc:Work>
  </rdf:RDF>
 </metadata>
 <defs>
  <style type="text/css">*{stroke-linejoin: round; stroke-linecap: butt}</style>
 </defs>
 <g id="figure_1">
  <g id="patch_1">
   <path d="M 0 389.977813 
L 578.419062 389.977813 
L 578.419062 0 
L 0 0 
z
" style="fill: #ffffff"/>
  </g>
  <g id="axes_1">
   <g id="patch_2">
    <path d="M 69.019063 339.84 
L 571.219063 339.84 
L 571.219063 7.2 
L 69.019063 7.2 
z
" style="fill: #ffffff"/>
   </g>
   <g id="PolyCollection_1">
    <defs>
     <path id="m44a19bce32" d="M 91.846335 -327.436303 
L 91.846335 -321.824899 
L 160.563273 -321.824899 
L 200.760105 -321.824899 
L 229.280211 -321.824899 
L 251.402124 -321.824899 
L 269.477043 -321.824899 
L 284.75917 -321.824899 
L 297.99715 -321.824899 
L 309.673875 -321.824899 
L 320.119063 -321.824899 
L 329.567884 -321.824899 
L 338.193981 -321.824899 
L 346.129222 -321.824899 
L 353.476108 -321.824899 
L 360.315894 -321.824899 
L 366.714088 -321.824899 
L 372.724266 -321.824899 
L 378.390813 -321.824899 
L 383.750907 -321.824899 
L 388.836001 -321.824899 
L 393.67294 -321.824899 
L 398.284822 -321.824899 
L 402.691662 -321.824899 
L 406.91092 -321.824899 
L 410.957914 -321.824899 
L 414.84616 -321.824899 
L 418.587645 -321.824899 
L 422.193046 -321.824899 
L 425.671915 -321.824899 
L 429.032833 -321.824899 
L 432.283536 -321.824899 
L 435.431026 -321.824899 
L 438.481654 -321.824899 
L 441.441204 -321.824899 
L 444.314959 -321.824899 
L 447.107752 -321.824899 
L 449.82402 -321.824899 
L 452.467845 -321.824899 
L 455.042992 -321.824899 
L 457.552939 -321.824899 
L 460.000905 -321.824899 
L 462.389878 -321.824899 
L 464.722634 -321.824899 
L 467.00176 -321.824899 
L 469.229665 -321.824899 
L 471.4086 -321.824899 
L 473.540674 -321.824899 
L 475.627858 -321.824899 
L 477.672004 -321.824899 
L 479.674852 -321.824899 
L 481.638036 -321.824899 
L 483.563098 -321.824899 
L 485.451491 -321.824899 
L 487.304583 -321.824899 
L 489.123673 -321.824899 
L 490.909984 -321.824899 
L 492.664677 -321.824899 
L 494.388853 -321.824899 
L 496.083554 -321.824899 
L 497.749771 -321.824899 
L 499.388446 -321.824899 
L 501.000475 -321.824899 
L 502.58671 -321.824899 
L 504.147964 -321.824899 
L 505.685011 -321.824899 
L 507.198592 -321.824899 
L 508.689411 -321.824899 
L 510.158142 -321.824899 
L 511.605432 -321.824899 
L 513.031897 -321.824899 
L 514.438127 -321.824899 
L 515.82469 -321.824899 
L 517.192126 -321.824899 
L 518.540958 -321.824899 
L 519.871684 -321.824899 
L 521.184783 -321.824899 
L 522.480718 -321.824899 
L 523.75993 -321.824899 
L 525.022847 -321.824899 
L 526.269877 -321.824899 
L 527.501415 -321.824899 
L 528.717843 -321.824899 
L 529.919525 -321.824899 
L 531.106816 -321.824899 
L 532.280055 -321.824899 
L 533.439573 -321.824899 
L 534.585685 -321.824899 
L 535.718698 -321.824899 
L 536.838909 -321.824899 
L 537.946603 -321.824899 
L 539.042057 -321.824899 
L 540.125538 -321.824899 
L 541.197306 -321.824899 
L 542.257612 -321.824899 
L 543.306696 -321.824899 
L 544.344796 -321.824899 
L 545.372137 -321.824899 
L 546.388942 -321.824899 
L 547.395424 -321.824899 
L 548.39179 -321.824899 
L 548.39179 -327.436303 
L 548.39179 -327.436303 
L 547.395424 -327.436303 
L 546.388942 -327.436303 
L 545.372137 -327.436303 
L 544.344796 -327.436303 
L 543.306696 -327.436303 
L 542.257612 -327.436303 
L 541.197306 -327.436303 
L 540.125538 -327.436303 
L 539.042057 -327.436303 
L 537.946603 -327.436303 
L 536.838909 -327.436303 
L 535.718698 -327.436303 
L 534.585685 -327.436303 
L 533.439573 -327.436303 
L 532.280055 -327.436303 
L 531.106816 -327.436303 
L 529.919525 -327.436303 
L 528.717843 -327.436303 
L 527.501415 -327.436303 
L 526.269877 -327.436303 
L 525.022847 -327.436303 
L 523.75993 -327.436303 
L 522.480718 -327.436303 
L 521.184783 -327.436303 
L 519.871684 -327.436303 
L 518.540958 -327.436303 
L 517.192126 -327.436303 
L 515.82469 -327.436303 
L 514.438127 -327.436303 
L 513.031897 -327.436303 
L 511.605432 -327.436303 
L 510.158142 -327.436303 
L 508.689411 -327.436303 
L 507.198592 -327.436303 
L 505.685011 -327.436303 
L 504.147964 -327.436303 
L 502.58671 -327.436303 
L 501.000475 -327.436303 
L 499.388446 -327.436303 
L 497.749771 -327.436303 
L 496.083554 -327.436303 
L 494.388853 -327.436303 
L 492.664677 -327.436303 
L 490.909984 -327.436303 
L 489.123673 -327.436303 
L 487.304583 -327.436303 
L 485.451491 -327.436303 
L 483.563098 -327.436303 
L 481.638036 -327.436303 
L 479.674852 -327.436303 
L 477.672004 -327.436303 
L 475.627858 -327.436303 
L 473.540674 -327.436303 
L 471.4086 -327.436303 
L 469.229665 -327.436303 
L 467.00176 -327.436303 
L 464.722634 -327.436303 
L 462.389878 -327.436303 
L 460.000905 -327.436303 
L 457.552939 -327.436303 
L 455.042992 -327.436303 
L 452.467845 -327.436303 
L 449.82402 -327.436303 
L 447.107752 -327.436303 
L 444.314959 -327.436303 
L 441.441204 -327.436303 
L 438.481654 -327.436303 
L 435.431026 -327.436303 
L 432.283536 -327.436303 
L 429.032833 -327.436303 
L 425.671915 -327.436303 
L 422.193046 -327.436303 
L 418.587645 -327.436303 
L 414.84616 -327.436303 
L 410.957914 -327.436303 
L 406.91092 -327.436303 
L 402.691662 -327.436303 
L 398.284822 -327.436303 
L 393.67294 -327.436303 
L 388.836001 -327.436303 
L 383.750907 -327.436303 
L 378.390813 -327.436303 
L 372.724266 -327.436303 
L 366.714088 -327.436303 
L 360.315894 -327.436303 
L 353.476108 -327.436303 
L 346.129222 -327.436303 
L 338.193981 -327.436303 
L 329.567884 -327.436303 
L 320.119063 -327.436303 
L 309.673875 -327.436303 
L 297.99715 -327.436303 
L 284.75917 -327.436303 
L 269.477043 -327.436303 
L 251.402124 -327.436303 
L 229.280211 -327.436303 
L 200.760105 -327.436303 
L 160.563273 -327.436303 
L 91.846335 -327.436303 
z
" style="stroke: #fdc086; stroke-opacity: 0.05"/>
    </defs>
    <g clip-path="url(#pb677257cbc)">
     <use xlink:href="#m44a19bce32" x="0" y="389.977813" style="fill: #fdc086; fill-opacity: 0.05; stroke: #fdc086; stroke-opacity: 0.05"/>
    </g>
   </g>
   <g id="PolyCollection_2">
    <defs>
     <path id="m084d1c9dec" d="M 91.846335 -306.532204 
L 91.846335 -305.081214 
L 160.563273 -305.081214 
L 200.760105 -305.081214 
L 229.280211 -305.081214 
L 251.402124 -305.081214 
L 269.477043 -305.081214 
L 284.75917 -305.081214 
L 297.99715 -305.081214 
L 309.673875 -305.081214 
L 320.119063 -305.081214 
L 329.567884 -305.081214 
L 338.193981 -305.081214 
L 346.129222 -305.081214 
L 353.476108 -305.081214 
L 360.315894 -305.081214 
L 366.714088 -305.081214 
L 372.724266 -305.081214 
L 378.390813 -305.081214 
L 383.750907 -305.081214 
L 388.836001 -305.081214 
L 393.67294 -305.081214 
L 398.284822 -305.081214 
L 402.691662 -305.081214 
L 406.91092 -305.081214 
L 410.957914 -305.081214 
L 414.84616 -305.081214 
L 418.587645 -305.081214 
L 422.193046 -305.081214 
L 425.671915 -305.081214 
L 429.032833 -305.081214 
L 432.283536 -305.081214 
L 435.431026 -305.081214 
L 438.481654 -305.081214 
L 441.441204 -305.081214 
L 444.314959 -305.081214 
L 447.107752 -305.081214 
L 449.82402 -305.081214 
L 452.467845 -305.081214 
L 455.042992 -305.081214 
L 457.552939 -305.081214 
L 460.000905 -305.081214 
L 462.389878 -305.081214 
L 464.722634 -305.081214 
L 467.00176 -305.081214 
L 469.229665 -305.081214 
L 471.4086 -305.081214 
L 473.540674 -305.081214 
L 475.627858 -305.081214 
L 477.672004 -305.081214 
L 479.674852 -305.081214 
L 481.638036 -305.081214 
L 483.563098 -305.081214 
L 485.451491 -305.081214 
L 487.304583 -305.081214 
L 489.123673 -305.081214 
L 490.909984 -305.081214 
L 492.664677 -305.081214 
L 494.388853 -305.081214 
L 496.083554 -305.081214 
L 497.749771 -305.081214 
L 499.388446 -305.081214 
L 501.000475 -305.081214 
L 502.58671 -305.081214 
L 504.147964 -305.081214 
L 505.685011 -305.081214 
L 507.198592 -305.081214 
L 508.689411 -305.081214 
L 510.158142 -305.081214 
L 511.605432 -305.081214 
L 513.031897 -305.081214 
L 514.438127 -305.081214 
L 515.82469 -305.081214 
L 517.192126 -305.081214 
L 518.540958 -305.081214 
L 519.871684 -305.081214 
L 521.184783 -305.081214 
L 522.480718 -305.081214 
L 523.75993 -305.081214 
L 525.022847 -305.081214 
L 526.269877 -305.081214 
L 527.501415 -305.081214 
L 528.717843 -305.081214 
L 529.919525 -305.081214 
L 531.106816 -305.081214 
L 532.280055 -305.081214 
L 533.439573 -305.081214 
L 534.585685 -305.081214 
L 535.718698 -305.081214 
L 536.838909 -305.081214 
L 537.946603 -305.081214 
L 539.042057 -305.081214 
L 540.125538 -305.081214 
L 541.197306 -305.081214 
L 542.257612 -305.081214 
L 543.306696 -305.081214 
L 544.344796 -305.081214 
L 545.372137 -305.081214 
L 546.388942 -305.081214 
L 547.395424 -305.081214 
L 548.39179 -305.081214 
L 548.39179 -306.532204 
L 548.39179 -306.532204 
L 547.395424 -306.532204 
L 546.388942 -306.532204 
L 545.372137 -306.532204 
L 544.344796 -306.532204 
L 543.306696 -306.532204 
L 542.257612 -306.532204 
L 541.197306 -306.532204 
L 540.125538 -306.532204 
L 539.042057 -306.532204 
L 537.946603 -306.532204 
L 536.838909 -306.532204 
L 535.718698 -306.532204 
L 534.585685 -306.532204 
L 533.439573 -306.532204 
L 532.280055 -306.532204 
L 531.106816 -306.532204 
L 529.919525 -306.532204 
L 528.717843 -306.532204 
L 527.501415 -306.532204 
L 526.269877 -306.532204 
L 525.022847 -306.532204 
L 523.75993 -306.532204 
L 522.480718 -306.532204 
L 521.184783 -306.532204 
L 519.871684 -306.532204 
L 518.540958 -306.532204 
L 517.192126 -306.532204 
L 515.82469 -306.532204 
L 514.438127 -306.532204 
L 513.031897 -306.532204 
L 511.605432 -306.532204 
L 510.158142 -306.532204 
L 508.689411 -306.532204 
L 507.198592 -306.532204 
L 505.685011 -306.532204 
L 504.147964 -306.532204 
L 502.58671 -306.532204 
L 501.000475 -306.532204 
L 499.388446 -306.532204 
L 497.749771 -306.532204 
L 496.083554 -306.532204 
L 494.388853 -306.532204 
L 492.664677 -306.532204 
L 490.909984 -306.532204 
L 489.123673 -306.532204 
L 487.304583 -306.532204 
L 485.451491 -306.532204 
L 483.563098 -306.532204 
L 481.638036 -306.532204 
L 479.674852 -306.532204 
L 477.672004 -306.532204 
L 475.627858 -306.532204 
L 473.540674 -306.532204 
L 471.4086 -306.532204 
L 469.229665 -306.532204 
L 467.00176 -306.532204 
L 464.722634 -306.532204 
L 462.389878 -306.532204 
L 460.000905 -306.532204 
L 457.552939 -306.532204 
L 455.042992 -306.532204 
L 452.467845 -306.532204 
L 449.82402 -306.532204 
L 447.107752 -306.532204 
L 444.314959 -306.532204 
L 441.441204 -306.532204 
L 438.481654 -306.532204 
L 435.431026 -306.532204 
L 432.283536 -306.532204 
L 429.032833 -306.532204 
L 425.671915 -306.532204 
L 422.193046 -306.532204 
L 418.587645 -306.532204 
L 414.84616 -306.532204 
L 410.957914 -306.532204 
L 406.91092 -306.532204 
L 402.691662 -306.532204 
L 398.284822 -306.532204 
L 393.67294 -306.532204 
L 388.836001 -306.532204 
L 383.750907 -306.532204 
L 378.390813 -306.532204 
L 372.724266 -306.532204 
L 366.714088 -306.532204 
L 360.315894 -306.532204 
L 353.476108 -306.532204 
L 346.129222 -306.532204 
L 338.193981 -306.532204 
L 329.567884 -306.532204 
L 320.119063 -306.532204 
L 309.673875 -306.532204 
L 297.99715 -306.532204 
L 284.75917 -306.532204 
L 269.477043 -306.532204 
L 251.402124 -306.532204 
L 229.280211 -306.532204 
L 200.760105 -306.532204 
L 160.563273 -306.532204 
L 91.846335 -306.532204 
z
" style="stroke: #beaed4; stroke-opacity: 0.05"/>
    </defs>
    <g clip-path="url(#pb677257cbc)">
     <use xlink:href="#m084d1c9dec" x="0" y="389.977813" style="fill: #beaed4; fill-opacity: 0.05; stroke: #beaed4; stroke-opacity: 0.05"/>
    </g>
   </g>
   <g id="PolyCollection_3">
    <defs>
     <path id="macf1719ed6" d="M 91.846335 -348.87423 
L 91.846335 -65.257812 
L 160.563273 -188.640007 
L 200.760105 -261.22347 
L 229.280211 -294.934233 
L 251.402124 -315.00394 
L 269.477043 -319.507734 
L 284.75917 -323.585466 
L 297.99715 -324.946441 
L 309.673875 -327.965455 
L 320.119063 -330.19758 
L 329.567884 -332.725109 
L 338.193981 -334.3054 
L 346.129222 -335.348009 
L 353.476108 -336.1353 
L 360.315894 -336.777528 
L 366.714088 -337.886199 
L 372.724266 -338.793838 
L 378.390813 -339.288107 
L 383.750907 -340.039943 
L 388.836001 -340.629087 
L 393.67294 -341.036902 
L 398.284822 -341.2805 
L 402.691662 -341.587348 
L 406.91092 -341.809132 
L 410.957914 -341.969856 
L 414.84616 -342.430549 
L 418.587645 -342.607508 
L 422.193046 -343.262809 
L 425.671915 -343.423458 
L 429.032833 -343.522452 
L 432.283536 -343.762113 
L 435.431026 -343.889944 
L 438.481654 -344.07751 
L 441.441204 -344.284653 
L 444.314959 -344.406291 
L 447.107752 -344.592686 
L 449.82402 -344.70457 
L 452.467845 -344.842824 
L 455.042992 -344.959161 
L 457.552939 -345.081962 
L 460.000905 -345.155914 
L 462.389878 -345.429103 
L 464.722634 -345.551305 
L 467.00176 -345.853875 
L 469.229665 -345.915762 
L 471.4086 -345.986846 
L 473.540674 -346.127826 
L 475.627858 -346.218987 
L 477.672004 -346.244641 
L 479.674852 -346.355161 
L 481.638036 -346.414915 
L 483.563098 -346.504523 
L 485.451491 -346.614293 
L 487.304583 -346.783057 
L 489.123673 -346.895753 
L 490.909984 -346.947342 
L 492.664677 -347.014601 
L 494.388853 -347.045794 
L 496.083554 -347.172282 
L 497.749771 -347.25179 
L 499.388446 -347.327708 
L 501.000475 -347.385848 
L 502.58671 -347.427682 
L 504.147964 -347.526279 
L 505.685011 -347.608383 
L 507.198592 -347.640095 
L 508.689411 -347.706978 
L 510.158142 -347.802056 
L 511.605432 -347.943551 
L 513.031897 -347.967462 
L 514.438127 -348.005628 
L 515.82469 -348.147292 
L 517.192126 -348.173953 
L 518.540958 -348.231488 
L 519.871684 -348.279176 
L 521.184783 -348.353836 
L 522.480718 -348.434927 
L 523.75993 -348.583907 
L 525.022847 -348.645487 
L 526.269877 -348.6834 
L 527.501415 -348.751141 
L 528.717843 -348.796659 
L 529.919525 -348.824319 
L 531.106816 -348.902524 
L 532.280055 -348.960052 
L 533.439573 -349.040028 
L 534.585685 -349.086092 
L 535.718698 -349.132169 
L 536.838909 -349.197211 
L 537.946603 -349.269892 
L 539.042057 -349.33569 
L 540.125538 -349.354628 
L 541.197306 -349.38141 
L 542.257612 -349.39508 
L 543.306696 -349.450324 
L 544.344796 -349.504273 
L 545.372137 -349.537693 
L 546.388942 -349.638924 
L 547.395424 -349.770125 
L 548.39179 -349.777314 
L 548.39179 -352.732937 
L 548.39179 -352.732937 
L 547.395424 -352.714185 
L 546.388942 -352.647641 
L 545.372137 -352.626675 
L 544.344796 -352.615223 
L 543.306696 -352.544102 
L 542.257612 -352.526792 
L 541.197306 -352.486593 
L 540.125538 -352.452158 
L 539.042057 -352.425138 
L 537.946603 -352.410819 
L 536.838909 -352.352425 
L 535.718698 -352.334266 
L 534.585685 -352.285972 
L 533.439573 -352.275339 
L 532.280055 -352.202463 
L 531.106816 -352.185452 
L 529.919525 -352.150937 
L 528.717843 -352.119149 
L 527.501415 -351.993459 
L 526.269877 -351.937747 
L 525.022847 -351.848638 
L 523.75993 -351.793772 
L 522.480718 -351.747783 
L 521.184783 -351.715301 
L 519.871684 -351.637902 
L 518.540958 -351.587257 
L 517.192126 -351.546329 
L 515.82469 -351.477046 
L 514.438127 -351.37367 
L 513.031897 -351.327583 
L 511.605432 -351.245026 
L 510.158142 -351.17281 
L 508.689411 -351.130058 
L 507.198592 -351.046111 
L 505.685011 -351.003007 
L 504.147964 -350.913404 
L 502.58671 -350.85104 
L 501.000475 -350.805856 
L 499.388446 -350.708601 
L 497.749771 -350.671409 
L 496.083554 -350.648078 
L 494.388853 -350.605615 
L 492.664677 -350.524004 
L 490.909984 -350.396763 
L 489.123673 -350.25078 
L 487.304583 -350.100547 
L 485.451491 -350.093854 
L 483.563098 -349.947097 
L 481.638036 -349.892599 
L 479.674852 -349.737078 
L 477.672004 -349.648544 
L 475.627858 -349.542523 
L 473.540674 -349.477817 
L 471.4086 -349.406726 
L 469.229665 -349.30349 
L 467.00176 -349.253227 
L 464.722634 -349.185422 
L 462.389878 -349.136884 
L 460.000905 -349.066236 
L 457.552939 -348.898784 
L 455.042992 -348.786253 
L 452.467845 -348.65175 
L 449.82402 -348.563009 
L 447.107752 -348.381801 
L 444.314959 -348.244737 
L 441.441204 -348.182234 
L 438.481654 -348.036533 
L 435.431026 -347.878556 
L 432.283536 -347.62972 
L 429.032833 -347.532731 
L 425.671915 -347.308035 
L 422.193046 -347.221778 
L 418.587645 -347.337982 
L 414.84616 -347.112218 
L 410.957914 -346.913446 
L 406.91092 -346.766363 
L 402.691662 -346.544082 
L 398.284822 -346.34926 
L 393.67294 -346.080716 
L 388.836001 -345.894772 
L 383.750907 -345.587719 
L 378.390813 -345.52886 
L 372.724266 -345.103937 
L 366.714088 -344.941759 
L 360.315894 -344.560919 
L 353.476108 -344.008019 
L 346.129222 -343.558383 
L 338.193981 -342.911826 
L 329.567884 -342.383075 
L 320.119063 -342.298938 
L 309.673875 -340.619236 
L 297.99715 -339.358572 
L 284.75917 -337.964654 
L 269.477043 -337.794421 
L 251.402124 -335.981257 
L 229.280211 -342.046547 
L 200.760105 -353.759655 
L 160.563273 -367.657813 
L 91.846335 -348.87423 
z
" style="stroke: #7fc97f; stroke-opacity: 0.05"/>
    </defs>
    <g clip-path="url(#pb677257cbc)">
     <use xlink:href="#macf1719ed6" x="0" y="389.977813" style="fill: #7fc97f; fill-opacity: 0.05; stroke: #7fc97f; stroke-opacity: 0.05"/>
    </g>
   </g>
   <g id="PolyCollection_4">
    <defs>
     <path id="md9842ee61a" d="M 91.846335 -301.803012 
L 91.846335 -296.485084 
L 160.563273 -307.461087 
L 200.760105 -310.799579 
L 229.280211 -314.705262 
L 251.402124 -317.242872 
L 269.477043 -319.066768 
L 284.75917 -320.060204 
L 297.99715 -320.599023 
L 309.673875 -323.696342 
L 320.119063 -325.830916 
L 329.567884 -328.266673 
L 338.193981 -330.371277 
L 346.129222 -333.329853 
L 353.476108 -335.185489 
L 360.315894 -336.335747 
L 366.714088 -337.786948 
L 372.724266 -338.425053 
L 378.390813 -338.820788 
L 383.750907 -339.184311 
L 388.836001 -339.422346 
L 393.67294 -339.757294 
L 398.284822 -340.189202 
L 402.691662 -340.636745 
L 406.91092 -340.982303 
L 410.957914 -341.125552 
L 414.84616 -341.314042 
L 418.587645 -341.516485 
L 422.193046 -341.703258 
L 425.671915 -341.804563 
L 429.032833 -341.940676 
L 432.283536 -342.037736 
L 435.431026 -342.148738 
L 438.481654 -342.202348 
L 441.441204 -342.384573 
L 444.314959 -342.497638 
L 447.107752 -342.606349 
L 449.82402 -342.751618 
L 452.467845 -342.822017 
L 455.042992 -343.06245 
L 457.552939 -343.398248 
L 460.000905 -343.54614 
L 462.389878 -343.677723 
L 464.722634 -343.794375 
L 467.00176 -343.912561 
L 469.229665 -344.062771 
L 471.4086 -344.320789 
L 473.540674 -344.436284 
L 475.627858 -344.533406 
L 477.672004 -344.697167 
L 479.674852 -344.789917 
L 481.638036 -344.928285 
L 483.563098 -345.015078 
L 485.451491 -345.067884 
L 487.304583 -345.17031 
L 489.123673 -345.209333 
L 490.909984 -345.304746 
L 492.664677 -345.324992 
L 494.388853 -345.363482 
L 496.083554 -345.41335 
L 497.749771 -345.474712 
L 499.388446 -345.566452 
L 501.000475 -345.622281 
L 502.58671 -346.010589 
L 504.147964 -346.051737 
L 505.685011 -346.156558 
L 507.198592 -346.21046 
L 508.689411 -346.256134 
L 510.158142 -346.302282 
L 511.605432 -346.387174 
L 513.031897 -346.437864 
L 514.438127 -346.473751 
L 515.82469 -346.537246 
L 517.192126 -346.573367 
L 518.540958 -346.623808 
L 519.871684 -346.658738 
L 521.184783 -346.705591 
L 522.480718 -346.752734 
L 523.75993 -346.76069 
L 525.022847 -346.816734 
L 526.269877 -346.827139 
L 527.501415 -346.862588 
L 528.717843 -346.906441 
L 529.919525 -346.929509 
L 531.106816 -346.974864 
L 532.280055 -347.052639 
L 533.439573 -347.077525 
L 534.585685 -347.15735 
L 535.718698 -347.186089 
L 536.838909 -347.18335 
L 537.946603 -347.247877 
L 539.042057 -347.321221 
L 540.125538 -347.418701 
L 541.197306 -347.489037 
L 542.257612 -347.500997 
L 543.306696 -347.545496 
L 544.344796 -347.645193 
L 545.372137 -347.711585 
L 546.388942 -347.789077 
L 547.395424 -347.861938 
L 548.39179 -347.900783 
L 548.39179 -350.622722 
L 548.39179 -350.622722 
L 547.395424 -350.556946 
L 546.388942 -350.514159 
L 545.372137 -350.410206 
L 544.344796 -350.360127 
L 543.306696 -350.272808 
L 542.257612 -350.17048 
L 541.197306 -350.0432 
L 540.125538 -349.979477 
L 539.042057 -349.939222 
L 537.946603 -349.898652 
L 536.838909 -349.824772 
L 535.718698 -349.718012 
L 534.585685 -349.691973 
L 533.439573 -349.636014 
L 532.280055 -349.607266 
L 531.106816 -349.570516 
L 529.919525 -349.504335 
L 528.717843 -349.467888 
L 527.501415 -349.41506 
L 526.269877 -349.362395 
L 525.022847 -349.292521 
L 523.75993 -349.239836 
L 522.480718 -349.112525 
L 521.184783 -349.053906 
L 519.871684 -348.981115 
L 518.540958 -348.923663 
L 517.192126 -348.867298 
L 515.82469 -348.825314 
L 514.438127 -348.769711 
L 513.031897 -348.66373 
L 511.605432 -348.612104 
L 510.158142 -348.494056 
L 508.689411 -348.461424 
L 507.198592 -348.420284 
L 505.685011 -348.372021 
L 504.147964 -348.294226 
L 502.58671 -348.248441 
L 501.000475 -348.357453 
L 499.388446 -348.310055 
L 497.749771 -348.227064 
L 496.083554 -348.185312 
L 494.388853 -348.14483 
L 492.664677 -348.107434 
L 490.909984 -348.062114 
L 489.123673 -347.994583 
L 487.304583 -347.936982 
L 485.451491 -347.875957 
L 483.563098 -347.79284 
L 481.638036 -347.68316 
L 479.674852 -347.584639 
L 477.672004 -347.419153 
L 475.627858 -347.291259 
L 473.540674 -347.155994 
L 471.4086 -347.030227 
L 469.229665 -346.958594 
L 467.00176 -346.80635 
L 464.722634 -346.567932 
L 462.389878 -346.376534 
L 460.000905 -346.222719 
L 457.552939 -346.029991 
L 455.042992 -346.035452 
L 452.467845 -345.929692 
L 449.82402 -345.869663 
L 447.107752 -345.81346 
L 444.314959 -345.703729 
L 441.441204 -345.669253 
L 438.481654 -345.643132 
L 435.431026 -345.552917 
L 432.283536 -345.504108 
L 429.032833 -345.42798 
L 425.671915 -345.330419 
L 422.193046 -345.284727 
L 418.587645 -345.213608 
L 414.84616 -345.101474 
L 410.957914 -344.927426 
L 406.91092 -344.823426 
L 402.691662 -344.576248 
L 398.284822 -344.205048 
L 393.67294 -343.849534 
L 388.836001 -343.428842 
L 383.750907 -343.075579 
L 378.390813 -342.758189 
L 372.724266 -342.419284 
L 366.714088 -342.173052 
L 360.315894 -342.058123 
L 353.476108 -342.070602 
L 346.129222 -341.724136 
L 338.193981 -341.58251 
L 329.567884 -340.551884 
L 320.119063 -338.558058 
L 309.673875 -335.370513 
L 297.99715 -331.517026 
L 284.75917 -329.672431 
L 269.477043 -327.835956 
L 251.402124 -325.739447 
L 229.280211 -324.971763 
L 200.760105 -324.052365 
L 160.563273 -320.147488 
L 91.846335 -301.803012 
z
" style="stroke: #bf5b17; stroke-opacity: 0.05"/>
    </defs>
    <g clip-path="url(#pb677257cbc)">
     <use xlink:href="#md9842ee61a" x="0" y="389.977813" style="fill: #bf5b17; fill-opacity: 0.05; stroke: #bf5b17; stroke-opacity: 0.05"/>
    </g>
   </g>
   <g id="PolyCollection_5">
    <defs>
     <path id="mc4167b5ac6" d="M 91.846335 -301.803012 
L 91.846335 -296.485084 
L 160.563273 -305.691451 
L 200.760105 -310.486214 
L 229.280211 -316.072369 
L 251.402124 -317.977369 
L 269.477043 -321.078469 
L 284.75917 -322.365779 
L 297.99715 -324.46506 
L 309.673875 -327.791207 
L 320.119063 -329.421778 
L 329.567884 -332.186886 
L 338.193981 -332.374921 
L 346.129222 -332.539689 
L 353.476108 -337.251281 
L 360.315894 -338.494386 
L 366.714088 -339.347574 
L 372.724266 -339.902932 
L 378.390813 -340.038885 
L 383.750907 -340.522341 
L 388.836001 -340.671869 
L 393.67294 -340.731678 
L 398.284822 -340.777305 
L 402.691662 -341.038012 
L 406.91092 -341.058292 
L 410.957914 -341.18437 
L 414.84616 -341.252747 
L 418.587645 -341.461709 
L 422.193046 -343.348408 
L 425.671915 -343.459567 
L 429.032833 -343.512013 
L 432.283536 -343.5311 
L 435.431026 -343.674106 
L 438.481654 -343.688699 
L 441.441204 -343.826603 
L 444.314959 -344.232957 
L 447.107752 -344.51956 
L 449.82402 -344.929393 
L 452.467845 -345.670923 
L 455.042992 -345.684525 
L 457.552939 -345.80512 
L 460.000905 -345.976736 
L 462.389878 -345.97938 
L 464.722634 -346.028923 
L 467.00176 -346.377206 
L 469.229665 -347.830132 
L 471.4086 -347.941293 
L 473.540674 -348.002199 
L 475.627858 -348.05724 
L 477.672004 -348.073994 
L 479.674852 -348.874579 
L 481.638036 -348.876535 
L 483.563098 -348.976028 
L 485.451491 -348.979108 
L 487.304583 -349.322743 
L 489.123673 -349.369345 
L 490.909984 -349.387298 
L 492.664677 -349.388006 
L 494.388853 -349.5123 
L 496.083554 -349.513224 
L 497.749771 -349.513427 
L 499.388446 -349.687322 
L 501.000475 -349.711562 
L 502.58671 -349.731431 
L 504.147964 -349.747255 
L 505.685011 -349.821664 
L 507.198592 -349.830323 
L 508.689411 -349.906954 
L 510.158142 -349.988345 
L 511.605432 -350.012994 
L 513.031897 -350.07815 
L 514.438127 -350.083181 
L 515.82469 -350.274527 
L 517.192126 -350.856105 
L 518.540958 -350.8639 
L 519.871684 -350.891083 
L 521.184783 -350.904965 
L 522.480718 -350.991571 
L 523.75993 -350.99209 
L 525.022847 -350.992163 
L 526.269877 -351.031669 
L 527.501415 -351.054019 
L 528.717843 -351.068766 
L 529.919525 -351.069782 
L 531.106816 -351.070953 
L 532.280055 -351.093483 
L 533.439573 -351.093574 
L 534.585685 -351.10401 
L 535.718698 -351.114906 
L 536.838909 -351.130514 
L 537.946603 -351.130514 
L 539.042057 -351.130985 
L 540.125538 -351.133934 
L 541.197306 -351.19389 
L 542.257612 -351.259348 
L 543.306696 -351.270169 
L 544.344796 -351.306898 
L 545.372137 -351.306898 
L 546.388942 -351.356089 
L 547.395424 -351.356651 
L 548.39179 -351.356651 
L 548.39179 -354.160367 
L 548.39179 -354.160367 
L 547.395424 -354.160367 
L 546.388942 -354.160333 
L 545.372137 -354.09896 
L 544.344796 -354.09896 
L 543.306696 -354.086666 
L 542.257612 -354.078433 
L 541.197306 -353.999097 
L 540.125538 -353.983989 
L 539.042057 -353.981185 
L 537.946603 -353.98017 
L 536.838909 -353.98017 
L 535.718698 -353.964592 
L 534.585685 -353.947219 
L 533.439573 -353.934666 
L 532.280055 -353.934001 
L 531.106816 -353.913189 
L 529.919525 -353.912691 
L 528.717843 -353.910087 
L 527.501415 -353.890959 
L 526.269877 -353.871813 
L 525.022847 -353.828312 
L 523.75993 -353.828143 
L 522.480718 -353.827831 
L 521.184783 -353.657865 
L 519.871684 -353.647283 
L 518.540958 -353.603917 
L 517.192126 -353.594674 
L 515.82469 -353.178712 
L 514.438127 -352.914777 
L 513.031897 -352.912642 
L 511.605432 -352.845834 
L 510.158142 -352.826528 
L 508.689411 -352.778718 
L 507.198592 -352.762133 
L 505.685011 -352.755443 
L 504.147964 -352.714049 
L 502.58671 -352.701918 
L 501.000475 -352.6889 
L 499.388446 -352.669685 
L 497.749771 -352.576774 
L 496.083554 -352.576016 
L 494.388853 -352.572609 
L 492.664677 -352.427421 
L 490.909984 -352.42713 
L 489.123673 -352.408153 
L 487.304583 -352.356951 
L 485.451491 -351.86855 
L 483.563098 -351.864216 
L 481.638036 -351.830627 
L 479.674852 -351.825605 
L 477.672004 -351.26612 
L 475.627858 -351.25072 
L 473.540674 -351.219316 
L 471.4086 -351.179486 
L 469.229665 -351.10228 
L 467.00176 -349.58328 
L 464.722634 -349.338638 
L 462.389878 -349.271585 
L 460.000905 -349.269326 
L 457.552939 -349.152477 
L 455.042992 -349.098506 
L 452.467845 -349.07901 
L 449.82402 -348.444761 
L 447.107752 -347.971202 
L 444.314959 -347.797646 
L 441.441204 -347.924072 
L 438.481654 -347.727195 
L 435.431026 -347.711081 
L 432.283536 -347.624671 
L 429.032833 -347.609571 
L 425.671915 -347.5763 
L 422.193046 -347.5122 
L 418.587645 -346.711093 
L 414.84616 -346.527317 
L 410.957914 -346.477372 
L 406.91092 -346.331732 
L 402.691662 -346.308562 
L 398.284822 -346.16663 
L 393.67294 -346.087508 
L 388.836001 -346.038176 
L 383.750907 -345.95121 
L 378.390813 -345.52393 
L 372.724266 -345.358783 
L 366.714088 -344.952103 
L 360.315894 -344.843137 
L 353.476108 -343.932211 
L 346.129222 -343.048677 
L 338.193981 -342.929356 
L 329.567884 -342.81924 
L 320.119063 -340.94956 
L 309.673875 -340.486321 
L 297.99715 -334.416633 
L 284.75917 -332.463786 
L 269.477043 -331.635696 
L 251.402124 -328.805802 
L 229.280211 -326.236672 
L 200.760105 -316.26013 
L 160.563273 -310.641679 
L 91.846335 -301.803012 
z
" style="stroke: #f0027f; stroke-opacity: 0.05"/>
    </defs>
    <g clip-path="url(#pb677257cbc)">
     <use xlink:href="#mc4167b5ac6" x="0" y="389.977813" style="fill: #f0027f; fill-opacity: 0.05; stroke: #f0027f; stroke-opacity: 0.05"/>
    </g>
   </g>
   <g id="PolyCollection_6">
    <defs>
     <path id="me42dfb2256" d="M 91.846335 -301.803012 
L 91.846335 -296.485084 
L 160.563273 -305.691451 
L 200.760105 -310.486214 
L 229.280211 -316.072369 
L 251.402124 -317.977369 
L 269.477043 -321.078469 
L 284.75917 -323.945005 
L 297.99715 -327.458331 
L 309.673875 -329.414438 
L 320.119063 -331.687737 
L 329.567884 -333.340125 
L 338.193981 -333.646329 
L 346.129222 -333.981586 
L 353.476108 -337.507179 
L 360.315894 -338.340274 
L 366.714088 -339.336306 
L 372.724266 -339.599387 
L 378.390813 -340.536024 
L 383.750907 -341.593912 
L 388.836001 -341.668531 
L 393.67294 -341.93925 
L 398.284822 -343.117949 
L 402.691662 -343.280956 
L 406.91092 -343.425587 
L 410.957914 -343.651475 
L 414.84616 -343.778232 
L 418.587645 -343.905724 
L 422.193046 -344.104799 
L 425.671915 -344.161012 
L 429.032833 -344.238686 
L 432.283536 -344.255833 
L 435.431026 -344.311616 
L 438.481654 -344.355918 
L 441.441204 -344.478761 
L 444.314959 -344.950812 
L 447.107752 -345.018561 
L 449.82402 -345.228591 
L 452.467845 -345.32523 
L 455.042992 -345.427247 
L 457.552939 -345.631872 
L 460.000905 -345.720964 
L 462.389878 -345.837557 
L 464.722634 -346.009666 
L 467.00176 -346.13132 
L 469.229665 -346.376811 
L 471.4086 -346.495299 
L 473.540674 -347.04928 
L 475.627858 -347.153684 
L 477.672004 -347.259375 
L 479.674852 -347.334748 
L 481.638036 -347.368271 
L 483.563098 -347.419526 
L 485.451491 -347.497744 
L 487.304583 -347.492278 
L 489.123673 -347.505383 
L 490.909984 -347.580371 
L 492.664677 -347.614643 
L 494.388853 -347.750212 
L 496.083554 -347.784902 
L 497.749771 -347.818876 
L 499.388446 -347.834725 
L 501.000475 -347.837821 
L 502.58671 -347.853861 
L 504.147964 -347.867578 
L 505.685011 -348.151628 
L 507.198592 -348.205095 
L 508.689411 -348.322297 
L 510.158142 -348.32741 
L 511.605432 -348.344191 
L 513.031897 -348.357606 
L 514.438127 -348.370154 
L 515.82469 -348.364254 
L 517.192126 -348.537048 
L 518.540958 -348.549551 
L 519.871684 -348.584824 
L 521.184783 -348.653765 
L 522.480718 -348.723238 
L 523.75993 -348.746142 
L 525.022847 -348.8212 
L 526.269877 -348.923485 
L 527.501415 -348.955291 
L 528.717843 -349.016123 
L 529.919525 -349.067959 
L 531.106816 -349.077928 
L 532.280055 -349.123166 
L 533.439573 -349.138892 
L 534.585685 -349.150467 
L 535.718698 -349.166853 
L 536.838909 -349.167414 
L 537.946603 -349.173423 
L 539.042057 -349.23563 
L 540.125538 -349.532993 
L 541.197306 -349.581296 
L 542.257612 -349.59442 
L 543.306696 -349.701219 
L 544.344796 -349.742243 
L 545.372137 -349.857963 
L 546.388942 -349.930078 
L 547.395424 -349.988073 
L 548.39179 -350.048113 
L 548.39179 -353.022037 
L 548.39179 -353.022037 
L 547.395424 -352.960957 
L 546.388942 -352.826955 
L 545.372137 -352.7843 
L 544.344796 -352.753292 
L 543.306696 -352.749634 
L 542.257612 -352.703116 
L 541.197306 -352.68413 
L 540.125538 -352.672324 
L 539.042057 -352.367235 
L 537.946603 -352.331524 
L 536.838909 -352.273922 
L 535.718698 -352.262914 
L 534.585685 -352.254556 
L 533.439573 -352.241135 
L 532.280055 -352.218585 
L 531.106816 -352.213311 
L 529.919525 -352.209469 
L 528.717843 -352.179578 
L 527.501415 -352.138331 
L 526.269877 -352.106079 
L 525.022847 -352.042968 
L 523.75993 -351.993287 
L 522.480718 -351.982947 
L 521.184783 -351.853931 
L 519.871684 -351.798612 
L 518.540958 -351.786408 
L 517.192126 -351.759647 
L 515.82469 -351.458429 
L 514.438127 -351.408404 
L 513.031897 -351.392773 
L 511.605432 -351.361592 
L 510.158142 -351.337218 
L 508.689411 -351.323832 
L 507.198592 -351.258239 
L 505.685011 -351.23015 
L 504.147964 -351.072294 
L 502.58671 -351.036473 
L 501.000475 -351.027244 
L 499.388446 -351.016264 
L 497.749771 -350.96654 
L 496.083554 -350.947014 
L 494.388853 -350.90538 
L 492.664677 -350.787645 
L 490.909984 -350.769103 
L 489.123673 -350.74186 
L 487.304583 -350.699779 
L 485.451491 -350.564247 
L 483.563098 -350.482114 
L 481.638036 -350.467054 
L 479.674852 -350.420716 
L 477.672004 -350.268853 
L 475.627858 -350.281068 
L 473.540674 -350.208533 
L 471.4086 -349.878053 
L 469.229665 -349.808552 
L 467.00176 -349.261788 
L 464.722634 -349.140365 
L 462.389878 -349.056699 
L 460.000905 -348.979771 
L 457.552939 -348.914093 
L 455.042992 -348.761323 
L 452.467845 -348.701511 
L 449.82402 -348.577709 
L 447.107752 -348.495281 
L 444.314959 -348.339842 
L 441.441204 -348.461328 
L 438.481654 -348.241894 
L 435.431026 -348.191899 
L 432.283536 -348.114949 
L 429.032833 -348.090089 
L 425.671915 -348.04161 
L 422.193046 -347.977022 
L 418.587645 -347.834712 
L 414.84616 -347.756219 
L 410.957914 -347.637203 
L 406.91092 -347.59881 
L 402.691662 -347.509978 
L 398.284822 -347.447135 
L 393.67294 -347.008785 
L 388.836001 -346.732925 
L 383.750907 -346.664106 
L 378.390813 -345.460859 
L 372.724266 -345.264444 
L 366.714088 -345.092772 
L 360.315894 -344.768833 
L 353.476108 -344.080215 
L 346.129222 -343.140285 
L 338.193981 -342.799979 
L 329.567884 -342.427587 
L 320.119063 -342.039279 
L 309.673875 -339.183126 
L 297.99715 -336.012986 
L 284.75917 -333.727728 
L 269.477043 -331.635696 
L 251.402124 -328.805802 
L 229.280211 -326.236672 
L 200.760105 -316.26013 
L 160.563273 -310.641679 
L 91.846335 -301.803012 
z
" style="stroke: #386cb0; stroke-opacity: 0.05"/>
    </defs>
    <g clip-path="url(#pb677257cbc)">
     <use xlink:href="#me42dfb2256" x="0" y="389.977813" style="fill: #386cb0; fill-opacity: 0.05; stroke: #386cb0; stroke-opacity: 0.05"/>
    </g>
   </g>
   <g id="PolyCollection_7">
    <defs>
     <path id="md5cd8cc0c5" d="M 91.846335 -306.5785 
L 91.846335 -305.278513 
L 160.563273 -327.632222 
L 200.760105 -332.465537 
L 229.280211 -337.195091 
L 251.402124 -339.927066 
L 269.477043 -341.950201 
L 284.75917 -343.108284 
L 297.99715 -344.1881 
L 309.673875 -344.960643 
L 320.119063 -345.705318 
L 329.567884 -346.347246 
L 338.193981 -346.848261 
L 346.129222 -347.283723 
L 353.476108 -347.73466 
L 360.315894 -348.124829 
L 366.714088 -348.431627 
L 372.724266 -348.714561 
L 378.390813 -349.014537 
L 383.750907 -349.242817 
L 388.836001 -349.461226 
L 393.67294 -349.698725 
L 398.284822 -349.931986 
L 402.691662 -350.175785 
L 406.91092 -350.346373 
L 410.957914 -350.517043 
L 414.84616 -350.642801 
L 418.587645 -350.791951 
L 422.193046 -350.901814 
L 425.671915 -350.994625 
L 429.032833 -351.071613 
L 432.283536 -351.16237 
L 435.431026 -351.239845 
L 438.481654 -351.341587 
L 441.441204 -351.42339 
L 444.314959 -351.512762 
L 447.107752 -351.571873 
L 449.82402 -351.637977 
L 452.467845 -351.717373 
L 455.042992 -351.764983 
L 457.552939 -351.806965 
L 460.000905 -351.856684 
L 462.389878 -351.902623 
L 464.722634 -351.949151 
L 467.00176 -351.988532 
L 469.229665 -352.014706 
L 471.4086 -352.056084 
L 473.540674 -352.116538 
L 475.627858 -352.15923 
L 477.672004 -352.211633 
L 479.674852 -352.249311 
L 481.638036 -352.271823 
L 483.563098 -352.302 
L 485.451491 -352.351296 
L 487.304583 -352.378316 
L 489.123673 -352.416198 
L 490.909984 -352.440068 
L 492.664677 -352.46036 
L 494.388853 -352.483138 
L 496.083554 -352.514644 
L 497.749771 -352.536761 
L 499.388446 -352.548257 
L 501.000475 -352.57124 
L 502.58671 -352.592026 
L 504.147964 -352.620773 
L 505.685011 -352.641842 
L 507.198592 -352.657828 
L 508.689411 -352.681979 
L 510.158142 -352.700252 
L 511.605432 -352.712044 
L 513.031897 -352.725438 
L 514.438127 -352.740537 
L 515.82469 -352.750481 
L 517.192126 -352.760893 
L 518.540958 -352.773929 
L 519.871684 -352.783121 
L 521.184783 -352.791811 
L 522.480718 -352.803079 
L 523.75993 -352.815014 
L 525.022847 -352.826131 
L 526.269877 -352.835027 
L 527.501415 -352.84172 
L 528.717843 -352.846288 
L 529.919525 -352.854016 
L 531.106816 -352.862475 
L 532.280055 -352.870999 
L 533.439573 -352.884209 
L 534.585685 -352.887612 
L 535.718698 -352.893146 
L 536.838909 -352.899858 
L 537.946603 -352.90401 
L 539.042057 -352.909076 
L 540.125538 -352.914162 
L 541.197306 -352.916226 
L 542.257612 -352.919534 
L 543.306696 -352.924436 
L 544.344796 -352.928529 
L 545.372137 -352.932382 
L 546.388942 -352.937115 
L 547.395424 -352.939914 
L 548.39179 -352.943562 
L 548.39179 -355.395185 
L 548.39179 -355.395185 
L 547.395424 -355.392278 
L 546.388942 -355.388267 
L 545.372137 -355.385944 
L 544.344796 -355.38268 
L 543.306696 -355.37954 
L 542.257612 -355.377021 
L 541.197306 -355.372303 
L 540.125538 -355.366226 
L 539.042057 -355.362361 
L 537.946603 -355.35806 
L 536.838909 -355.351947 
L 535.718698 -355.348297 
L 534.585685 -355.342963 
L 533.439573 -355.334903 
L 532.280055 -355.336115 
L 531.106816 -355.332349 
L 529.919525 -355.328037 
L 528.717843 -355.322862 
L 527.501415 -355.314313 
L 526.269877 -355.307469 
L 525.022847 -355.301958 
L 523.75993 -355.298522 
L 522.480718 -355.295126 
L 521.184783 -355.289788 
L 519.871684 -355.279578 
L 518.540958 -355.269258 
L 517.192126 -355.261304 
L 515.82469 -355.250552 
L 514.438127 -355.237228 
L 513.031897 -355.227012 
L 511.605432 -355.214925 
L 510.158142 -355.199251 
L 508.689411 -355.189405 
L 507.198592 -355.184638 
L 505.685011 -355.170671 
L 504.147964 -355.161567 
L 502.58671 -355.157748 
L 501.000475 -355.144803 
L 499.388446 -355.132894 
L 497.749771 -355.106595 
L 496.083554 -355.090576 
L 494.388853 -355.077469 
L 492.664677 -355.054721 
L 490.909984 -355.029097 
L 489.123673 -355.004572 
L 487.304583 -354.993236 
L 485.451491 -354.969423 
L 483.563098 -354.961516 
L 481.638036 -354.933067 
L 479.674852 -354.89235 
L 477.672004 -354.865719 
L 475.627858 -354.850499 
L 473.540674 -354.824996 
L 471.4086 -354.812646 
L 469.229665 -354.779932 
L 467.00176 -354.729749 
L 464.722634 -354.686217 
L 462.389878 -354.642105 
L 460.000905 -354.593837 
L 457.552939 -354.545355 
L 455.042992 -354.486798 
L 452.467845 -354.428519 
L 449.82402 -354.38644 
L 447.107752 -354.324548 
L 444.314959 -354.236813 
L 441.441204 -354.175392 
L 438.481654 -354.089803 
L 435.431026 -354.013709 
L 432.283536 -353.90035 
L 429.032833 -353.79894 
L 425.671915 -353.681253 
L 422.193046 -353.570331 
L 418.587645 -353.450955 
L 414.84616 -353.355913 
L 410.957914 -353.228036 
L 406.91092 -353.129515 
L 402.691662 -353.015095 
L 398.284822 -352.962036 
L 393.67294 -352.866449 
L 388.836001 -352.749608 
L 383.750907 -352.582426 
L 378.390813 -352.365166 
L 372.724266 -352.16397 
L 366.714088 -351.900543 
L 360.315894 -351.599903 
L 353.476108 -351.265463 
L 346.129222 -350.949222 
L 338.193981 -350.546185 
L 329.567884 -350.132308 
L 320.119063 -349.543867 
L 309.673875 -349.044231 
L 297.99715 -348.232614 
L 284.75917 -347.424667 
L 269.477043 -346.412715 
L 251.402124 -344.959159 
L 229.280211 -342.710101 
L 200.760105 -338.108805 
L 160.563273 -330.35843 
L 91.846335 -306.5785 
z
" style="stroke: #666666; stroke-opacity: 0.05"/>
    </defs>
    <g clip-path="url(#pb677257cbc)">
     <use xlink:href="#md5cd8cc0c5" x="0" y="389.977813" style="fill: #666666; fill-opacity: 0.05; stroke: #666666; stroke-opacity: 0.05"/>
    </g>
   </g>
   <g id="matplotlib.axis_1">
    <g id="xtick_1">
     <g id="line2d_1">
      <path d="M 91.846335 339.84 
L 91.846335 7.2 
" clip-path="url(#pb677257cbc)" style="fill: none; stroke-dasharray: 1.85,0.8; stroke-dashoffset: 0; stroke: #b0b0b0; stroke-width: 0.5"/>
     </g>
     <g id="line2d_2">
      <defs>
       <path id="md43ccd9bb3" d="M 0 0 
L 0 3.5 
" style="stroke: #000000; stroke-width: 0.8"/>
      </defs>
      <g>
       <use xlink:href="#md43ccd9bb3" x="91.846335" y="339.84" style="stroke: #000000; stroke-width: 0.8"/>
      </g>
     </g>
     <g id="text_1">
      <!-- $\mathdefault{10^{0}}$ -->
      <g transform="translate(78.646335 358.237656) scale(0.15 -0.15)">
       <defs>
        <path id="DejaVuSans-31" d="M 794 531 
L 1825 531 
L 1825 4091 
L 703 3866 
L 703 4441 
L 1819 4666 
L 2450 4666 
L 2450 531 
L 3481 531 
L 3481 0 
L 794 0 
L 794 531 
z
" transform="scale(0.015625)"/>
        <path id="DejaVuSans-30" d="M 2034 4250 
Q 1547 4250 1301 3770 
Q 1056 3291 1056 2328 
Q 1056 1369 1301 889 
Q 1547 409 2034 409 
Q 2525 409 2770 889 
Q 3016 1369 3016 2328 
Q 3016 3291 2770 3770 
Q 2525 4250 2034 4250 
z
M 2034 4750 
Q 2819 4750 3233 4129 
Q 3647 3509 3647 2328 
Q 3647 1150 3233 529 
Q 2819 -91 2034 -91 
Q 1250 -91 836 529 
Q 422 1150 422 2328 
Q 422 3509 836 4129 
Q 1250 4750 2034 4750 
z
" transform="scale(0.015625)"/>
       </defs>
       <use xlink:href="#DejaVuSans-31" transform="translate(0 0.765625)"/>
       <use xlink:href="#DejaVuSans-30" transform="translate(63.623047 0.765625)"/>
       <use xlink:href="#DejaVuSans-30" transform="translate(128.203125 39.046875) scale(0.7)"/>
      </g>
     </g>
    </g>
    <g id="xtick_2">
     <g id="line2d_3">
      <path d="M 320.119063 339.84 
L 320.119063 7.2 
" clip-path="url(#pb677257cbc)" style="fill: none; stroke-dasharray: 1.85,0.8; stroke-dashoffset: 0; stroke: #b0b0b0; stroke-width: 0.5"/>
     </g>
     <g id="line2d_4">
      <g>
       <use xlink:href="#md43ccd9bb3" x="320.119063" y="339.84" style="stroke: #000000; stroke-width: 0.8"/>
      </g>
     </g>
     <g id="text_2">
      <!-- $\mathdefault{10^{1}}$ -->
      <g transform="translate(306.919063 358.237656) scale(0.15 -0.15)">
       <use xlink:href="#DejaVuSans-31" transform="translate(0 0.684375)"/>
       <use xlink:href="#DejaVuSans-30" transform="translate(63.623047 0.684375)"/>
       <use xlink:href="#DejaVuSans-31" transform="translate(128.203125 38.965625) scale(0.7)"/>
      </g>
     </g>
    </g>
    <g id="xtick_3">
     <g id="line2d_5">
      <path d="M 548.39179 339.84 
L 548.39179 7.2 
" clip-path="url(#pb677257cbc)" style="fill: none; stroke-dasharray: 1.85,0.8; stroke-dashoffset: 0; stroke: #b0b0b0; stroke-width: 0.5"/>
     </g>
     <g id="line2d_6">
      <g>
       <use xlink:href="#md43ccd9bb3" x="548.39179" y="339.84" style="stroke: #000000; stroke-width: 0.8"/>
      </g>
     </g>
     <g id="text_3">
      <!-- $\mathdefault{10^{2}}$ -->
      <g transform="translate(535.19179 358.237656) scale(0.15 -0.15)">
       <defs>
        <path id="DejaVuSans-32" d="M 1228 531 
L 3431 531 
L 3431 0 
L 469 0 
L 469 531 
Q 828 903 1448 1529 
Q 2069 2156 2228 2338 
Q 2531 2678 2651 2914 
Q 2772 3150 2772 3378 
Q 2772 3750 2511 3984 
Q 2250 4219 1831 4219 
Q 1534 4219 1204 4116 
Q 875 4013 500 3803 
L 500 4441 
Q 881 4594 1212 4672 
Q 1544 4750 1819 4750 
Q 2544 4750 2975 4387 
Q 3406 4025 3406 3419 
Q 3406 3131 3298 2873 
Q 3191 2616 2906 2266 
Q 2828 2175 2409 1742 
Q 1991 1309 1228 531 
z
" transform="scale(0.015625)"/>
       </defs>
       <use xlink:href="#DejaVuSans-31" transform="translate(0 0.765625)"/>
       <use xlink:href="#DejaVuSans-30" transform="translate(63.623047 0.765625)"/>
       <use xlink:href="#DejaVuSans-32" transform="translate(128.203125 39.046875) scale(0.7)"/>
      </g>
     </g>
    </g>
    <g id="xtick_4">
     <g id="line2d_7">
      <defs>
       <path id="mfe408747b7" d="M 0 0 
L 0 2 
" style="stroke: #000000; stroke-width: 0.6"/>
      </defs>
      <g>
       <use xlink:href="#mfe408747b7" x="69.724422" y="339.84" style="stroke: #000000; stroke-width: 0.6"/>
      </g>
     </g>
    </g>
    <g id="xtick_5">
     <g id="line2d_8">
      <g>
       <use xlink:href="#mfe408747b7" x="81.401148" y="339.84" style="stroke: #000000; stroke-width: 0.6"/>
      </g>
     </g>
    </g>
    <g id="xtick_6">
     <g id="line2d_9">
      <g>
       <use xlink:href="#mfe408747b7" x="160.563273" y="339.84" style="stroke: #000000; stroke-width: 0.6"/>
      </g>
     </g>
    </g>
    <g id="xtick_7">
     <g id="line2d_10">
      <g>
       <use xlink:href="#mfe408747b7" x="200.760105" y="339.84" style="stroke: #000000; stroke-width: 0.6"/>
      </g>
     </g>
    </g>
    <g id="xtick_8">
     <g id="line2d_11">
      <g>
       <use xlink:href="#mfe408747b7" x="229.280211" y="339.84" style="stroke: #000000; stroke-width: 0.6"/>
      </g>
     </g>
    </g>
    <g id="xtick_9">
     <g id="line2d_12">
      <g>
       <use xlink:href="#mfe408747b7" x="251.402124" y="339.84" style="stroke: #000000; stroke-width: 0.6"/>
      </g>
     </g>
    </g>
    <g id="xtick_10">
     <g id="line2d_13">
      <g>
       <use xlink:href="#mfe408747b7" x="269.477043" y="339.84" style="stroke: #000000; stroke-width: 0.6"/>
      </g>
     </g>
    </g>
    <g id="xtick_11">
     <g id="line2d_14">
      <g>
       <use xlink:href="#mfe408747b7" x="284.75917" y="339.84" style="stroke: #000000; stroke-width: 0.6"/>
      </g>
     </g>
    </g>
    <g id="xtick_12">
     <g id="line2d_15">
      <g>
       <use xlink:href="#mfe408747b7" x="297.99715" y="339.84" style="stroke: #000000; stroke-width: 0.6"/>
      </g>
     </g>
    </g>
    <g id="xtick_13">
     <g id="line2d_16">
      <g>
       <use xlink:href="#mfe408747b7" x="309.673875" y="339.84" style="stroke: #000000; stroke-width: 0.6"/>
      </g>
     </g>
    </g>
    <g id="xtick_14">
     <g id="line2d_17">
      <g>
       <use xlink:href="#mfe408747b7" x="388.836001" y="339.84" style="stroke: #000000; stroke-width: 0.6"/>
      </g>
     </g>
    </g>
    <g id="xtick_15">
     <g id="line2d_18">
      <g>
       <use xlink:href="#mfe408747b7" x="429.032833" y="339.84" style="stroke: #000000; stroke-width: 0.6"/>
      </g>
     </g>
    </g>
    <g id="xtick_16">
     <g id="line2d_19">
      <g>
       <use xlink:href="#mfe408747b7" x="457.552939" y="339.84" style="stroke: #000000; stroke-width: 0.6"/>
      </g>
     </g>
    </g>
    <g id="xtick_17">
     <g id="line2d_20">
      <g>
       <use xlink:href="#mfe408747b7" x="479.674852" y="339.84" style="stroke: #000000; stroke-width: 0.6"/>
      </g>
     </g>
    </g>
    <g id="xtick_18">
     <g id="line2d_21">
      <g>
       <use xlink:href="#mfe408747b7" x="497.749771" y="339.84" style="stroke: #000000; stroke-width: 0.6"/>
      </g>
     </g>
    </g>
    <g id="xtick_19">
     <g id="line2d_22">
      <g>
       <use xlink:href="#mfe408747b7" x="513.031897" y="339.84" style="stroke: #000000; stroke-width: 0.6"/>
      </g>
     </g>
    </g>
    <g id="xtick_20">
     <g id="line2d_23">
      <g>
       <use xlink:href="#mfe408747b7" x="526.269877" y="339.84" style="stroke: #000000; stroke-width: 0.6"/>
      </g>
     </g>
    </g>
    <g id="xtick_21">
     <g id="line2d_24">
      <g>
       <use xlink:href="#mfe408747b7" x="537.946603" y="339.84" style="stroke: #000000; stroke-width: 0.6"/>
      </g>
     </g>
    </g>
    <g id="text_4">
     <!-- Decision Round -->
     <g transform="translate(250.466094 379.034375) scale(0.18 -0.18)">
      <defs>
       <path id="DejaVuSans-44" d="M 1259 4147 
L 1259 519 
L 2022 519 
Q 2988 519 3436 956 
Q 3884 1394 3884 2338 
Q 3884 3275 3436 3711 
Q 2988 4147 2022 4147 
L 1259 4147 
z
M 628 4666 
L 1925 4666 
Q 3281 4666 3915 4102 
Q 4550 3538 4550 2338 
Q 4550 1131 3912 565 
Q 3275 0 1925 0 
L 628 0 
L 628 4666 
z
" transform="scale(0.015625)"/>
       <path id="DejaVuSans-65" d="M 3597 1894 
L 3597 1613 
L 953 1613 
Q 991 1019 1311 708 
Q 1631 397 2203 397 
Q 2534 397 2845 478 
Q 3156 559 3463 722 
L 3463 178 
Q 3153 47 2828 -22 
Q 2503 -91 2169 -91 
Q 1331 -91 842 396 
Q 353 884 353 1716 
Q 353 2575 817 3079 
Q 1281 3584 2069 3584 
Q 2775 3584 3186 3129 
Q 3597 2675 3597 1894 
z
M 3022 2063 
Q 3016 2534 2758 2815 
Q 2500 3097 2075 3097 
Q 1594 3097 1305 2825 
Q 1016 2553 972 2059 
L 3022 2063 
z
" transform="scale(0.015625)"/>
       <path id="DejaVuSans-63" d="M 3122 3366 
L 3122 2828 
Q 2878 2963 2633 3030 
Q 2388 3097 2138 3097 
Q 1578 3097 1268 2742 
Q 959 2388 959 1747 
Q 959 1106 1268 751 
Q 1578 397 2138 397 
Q 2388 397 2633 464 
Q 2878 531 3122 666 
L 3122 134 
Q 2881 22 2623 -34 
Q 2366 -91 2075 -91 
Q 1284 -91 818 406 
Q 353 903 353 1747 
Q 353 2603 823 3093 
Q 1294 3584 2113 3584 
Q 2378 3584 2631 3529 
Q 2884 3475 3122 3366 
z
" transform="scale(0.015625)"/>
       <path id="DejaVuSans-69" d="M 603 3500 
L 1178 3500 
L 1178 0 
L 603 0 
L 603 3500 
z
M 603 4863 
L 1178 4863 
L 1178 4134 
L 603 4134 
L 603 4863 
z
" transform="scale(0.015625)"/>
       <path id="DejaVuSans-73" d="M 2834 3397 
L 2834 2853 
Q 2591 2978 2328 3040 
Q 2066 3103 1784 3103 
Q 1356 3103 1142 2972 
Q 928 2841 928 2578 
Q 928 2378 1081 2264 
Q 1234 2150 1697 2047 
L 1894 2003 
Q 2506 1872 2764 1633 
Q 3022 1394 3022 966 
Q 3022 478 2636 193 
Q 2250 -91 1575 -91 
Q 1294 -91 989 -36 
Q 684 19 347 128 
L 347 722 
Q 666 556 975 473 
Q 1284 391 1588 391 
Q 1994 391 2212 530 
Q 2431 669 2431 922 
Q 2431 1156 2273 1281 
Q 2116 1406 1581 1522 
L 1381 1569 
Q 847 1681 609 1914 
Q 372 2147 372 2553 
Q 372 3047 722 3315 
Q 1072 3584 1716 3584 
Q 2034 3584 2315 3537 
Q 2597 3491 2834 3397 
z
" transform="scale(0.015625)"/>
       <path id="DejaVuSans-6f" d="M 1959 3097 
Q 1497 3097 1228 2736 
Q 959 2375 959 1747 
Q 959 1119 1226 758 
Q 1494 397 1959 397 
Q 2419 397 2687 759 
Q 2956 1122 2956 1747 
Q 2956 2369 2687 2733 
Q 2419 3097 1959 3097 
z
M 1959 3584 
Q 2709 3584 3137 3096 
Q 3566 2609 3566 1747 
Q 3566 888 3137 398 
Q 2709 -91 1959 -91 
Q 1206 -91 779 398 
Q 353 888 353 1747 
Q 353 2609 779 3096 
Q 1206 3584 1959 3584 
z
" transform="scale(0.015625)"/>
       <path id="DejaVuSans-6e" d="M 3513 2113 
L 3513 0 
L 2938 0 
L 2938 2094 
Q 2938 2591 2744 2837 
Q 2550 3084 2163 3084 
Q 1697 3084 1428 2787 
Q 1159 2491 1159 1978 
L 1159 0 
L 581 0 
L 581 3500 
L 1159 3500 
L 1159 2956 
Q 1366 3272 1645 3428 
Q 1925 3584 2291 3584 
Q 2894 3584 3203 3211 
Q 3513 2838 3513 2113 
z
" transform="scale(0.015625)"/>
       <path id="DejaVuSans-20" transform="scale(0.015625)"/>
       <path id="DejaVuSans-52" d="M 2841 2188 
Q 3044 2119 3236 1894 
Q 3428 1669 3622 1275 
L 4263 0 
L 3584 0 
L 2988 1197 
Q 2756 1666 2539 1819 
Q 2322 1972 1947 1972 
L 1259 1972 
L 1259 0 
L 628 0 
L 628 4666 
L 2053 4666 
Q 2853 4666 3247 4331 
Q 3641 3997 3641 3322 
Q 3641 2881 3436 2590 
Q 3231 2300 2841 2188 
z
M 1259 4147 
L 1259 2491 
L 2053 2491 
Q 2509 2491 2742 2702 
Q 2975 2913 2975 3322 
Q 2975 3731 2742 3939 
Q 2509 4147 2053 4147 
L 1259 4147 
z
" transform="scale(0.015625)"/>
       <path id="DejaVuSans-75" d="M 544 1381 
L 544 3500 
L 1119 3500 
L 1119 1403 
Q 1119 906 1312 657 
Q 1506 409 1894 409 
Q 2359 409 2629 706 
Q 2900 1003 2900 1516 
L 2900 3500 
L 3475 3500 
L 3475 0 
L 2900 0 
L 2900 538 
Q 2691 219 2414 64 
Q 2138 -91 1772 -91 
Q 1169 -91 856 284 
Q 544 659 544 1381 
z
M 1991 3584 
L 1991 3584 
z
" transform="scale(0.015625)"/>
       <path id="DejaVuSans-64" d="M 2906 2969 
L 2906 4863 
L 3481 4863 
L 3481 0 
L 2906 0 
L 2906 525 
Q 2725 213 2448 61 
Q 2172 -91 1784 -91 
Q 1150 -91 751 415 
Q 353 922 353 1747 
Q 353 2572 751 3078 
Q 1150 3584 1784 3584 
Q 2172 3584 2448 3432 
Q 2725 3281 2906 2969 
z
M 947 1747 
Q 947 1113 1208 752 
Q 1469 391 1925 391 
Q 2381 391 2643 752 
Q 2906 1113 2906 1747 
Q 2906 2381 2643 2742 
Q 2381 3103 1925 3103 
Q 1469 3103 1208 2742 
Q 947 2381 947 1747 
z
" transform="scale(0.015625)"/>
      </defs>
      <use xlink:href="#DejaVuSans-44"/>
      <use xlink:href="#DejaVuSans-65" x="77.001953"/>
      <use xlink:href="#DejaVuSans-63" x="138.525391"/>
      <use xlink:href="#DejaVuSans-69" x="193.505859"/>
      <use xlink:href="#DejaVuSans-73" x="221.289062"/>
      <use xlink:href="#DejaVuSans-69" x="273.388672"/>
      <use xlink:href="#DejaVuSans-6f" x="301.171875"/>
      <use xlink:href="#DejaVuSans-6e" x="362.353516"/>
      <use xlink:href="#DejaVuSans-20" x="425.732422"/>
      <use xlink:href="#DejaVuSans-52" x="457.519531"/>
      <use xlink:href="#DejaVuSans-6f" x="522.501953"/>
      <use xlink:href="#DejaVuSans-75" x="583.683594"/>
      <use xlink:href="#DejaVuSans-6e" x="647.0625"/>
      <use xlink:href="#DejaVuSans-64" x="710.441406"/>
     </g>
    </g>
   </g>
   <g id="matplotlib.axis_2">
    <g id="ytick_1">
     <g id="line2d_25">
      <path d="M 69.019063 328.221193 
L 571.219063 328.221193 
" clip-path="url(#pb677257cbc)" style="fill: none; stroke-dasharray: 1.85,0.8; stroke-dashoffset: 0; stroke: #b0b0b0; stroke-width: 0.5"/>
     </g>
     <g id="line2d_26">
      <defs>
       <path id="mfc2eb6658c" d="M 0 0 
L -3.5 0 
" style="stroke: #000000; stroke-width: 0.8"/>
      </defs>
      <g>
       <use xlink:href="#mfc2eb6658c" x="69.019063" y="328.221193" style="stroke: #000000; stroke-width: 0.8"/>
      </g>
     </g>
     <g id="text_5">
      <!-- 0.14 -->
      <g transform="translate(28.620625 333.920022) scale(0.15 -0.15)">
       <defs>
        <path id="DejaVuSans-2e" d="M 684 794 
L 1344 794 
L 1344 0 
L 684 0 
L 684 794 
z
" transform="scale(0.015625)"/>
        <path id="DejaVuSans-34" d="M 2419 4116 
L 825 1625 
L 2419 1625 
L 2419 4116 
z
M 2253 4666 
L 3047 4666 
L 3047 1625 
L 3713 1625 
L 3713 1100 
L 3047 1100 
L 3047 0 
L 2419 0 
L 2419 1100 
L 313 1100 
L 313 1709 
L 2253 4666 
z
" transform="scale(0.015625)"/>
       </defs>
       <use xlink:href="#DejaVuSans-30"/>
       <use xlink:href="#DejaVuSans-2e" x="63.623047"/>
       <use xlink:href="#DejaVuSans-31" x="95.410156"/>
       <use xlink:href="#DejaVuSans-34" x="159.033203"/>
      </g>
     </g>
    </g>
    <g id="ytick_2">
     <g id="line2d_27">
      <path d="M 69.019063 256.50818 
L 571.219063 256.50818 
" clip-path="url(#pb677257cbc)" style="fill: none; stroke-dasharray: 1.85,0.8; stroke-dashoffset: 0; stroke: #b0b0b0; stroke-width: 0.5"/>
     </g>
     <g id="line2d_28">
      <g>
       <use xlink:href="#mfc2eb6658c" x="69.019063" y="256.50818" style="stroke: #000000; stroke-width: 0.8"/>
      </g>
     </g>
     <g id="text_6">
      <!-- 0.16 -->
      <g transform="translate(28.620625 262.207008) scale(0.15 -0.15)">
       <defs>
        <path id="DejaVuSans-36" d="M 2113 2584 
Q 1688 2584 1439 2293 
Q 1191 2003 1191 1497 
Q 1191 994 1439 701 
Q 1688 409 2113 409 
Q 2538 409 2786 701 
Q 3034 994 3034 1497 
Q 3034 2003 2786 2293 
Q 2538 2584 2113 2584 
z
M 3366 4563 
L 3366 3988 
Q 3128 4100 2886 4159 
Q 2644 4219 2406 4219 
Q 1781 4219 1451 3797 
Q 1122 3375 1075 2522 
Q 1259 2794 1537 2939 
Q 1816 3084 2150 3084 
Q 2853 3084 3261 2657 
Q 3669 2231 3669 1497 
Q 3669 778 3244 343 
Q 2819 -91 2113 -91 
Q 1303 -91 875 529 
Q 447 1150 447 2328 
Q 447 3434 972 4092 
Q 1497 4750 2381 4750 
Q 2619 4750 2861 4703 
Q 3103 4656 3366 4563 
z
" transform="scale(0.015625)"/>
       </defs>
       <use xlink:href="#DejaVuSans-30"/>
       <use xlink:href="#DejaVuSans-2e" x="63.623047"/>
       <use xlink:href="#DejaVuSans-31" x="95.410156"/>
       <use xlink:href="#DejaVuSans-36" x="159.033203"/>
      </g>
     </g>
    </g>
    <g id="ytick_3">
     <g id="line2d_29">
      <path d="M 69.019063 184.795167 
L 571.219063 184.795167 
" clip-path="url(#pb677257cbc)" style="fill: none; stroke-dasharray: 1.85,0.8; stroke-dashoffset: 0; stroke: #b0b0b0; stroke-width: 0.5"/>
     </g>
     <g id="line2d_30">
      <g>
       <use xlink:href="#mfc2eb6658c" x="69.019063" y="184.795167" style="stroke: #000000; stroke-width: 0.8"/>
      </g>
     </g>
     <g id="text_7">
      <!-- 0.18 -->
      <g transform="translate(28.620625 190.493995) scale(0.15 -0.15)">
       <defs>
        <path id="DejaVuSans-38" d="M 2034 2216 
Q 1584 2216 1326 1975 
Q 1069 1734 1069 1313 
Q 1069 891 1326 650 
Q 1584 409 2034 409 
Q 2484 409 2743 651 
Q 3003 894 3003 1313 
Q 3003 1734 2745 1975 
Q 2488 2216 2034 2216 
z
M 1403 2484 
Q 997 2584 770 2862 
Q 544 3141 544 3541 
Q 544 4100 942 4425 
Q 1341 4750 2034 4750 
Q 2731 4750 3128 4425 
Q 3525 4100 3525 3541 
Q 3525 3141 3298 2862 
Q 3072 2584 2669 2484 
Q 3125 2378 3379 2068 
Q 3634 1759 3634 1313 
Q 3634 634 3220 271 
Q 2806 -91 2034 -91 
Q 1263 -91 848 271 
Q 434 634 434 1313 
Q 434 1759 690 2068 
Q 947 2378 1403 2484 
z
M 1172 3481 
Q 1172 3119 1398 2916 
Q 1625 2713 2034 2713 
Q 2441 2713 2670 2916 
Q 2900 3119 2900 3481 
Q 2900 3844 2670 4047 
Q 2441 4250 2034 4250 
Q 1625 4250 1398 4047 
Q 1172 3844 1172 3481 
z
" transform="scale(0.015625)"/>
       </defs>
       <use xlink:href="#DejaVuSans-30"/>
       <use xlink:href="#DejaVuSans-2e" x="63.623047"/>
       <use xlink:href="#DejaVuSans-31" x="95.410156"/>
       <use xlink:href="#DejaVuSans-38" x="159.033203"/>
      </g>
     </g>
    </g>
    <g id="ytick_4">
     <g id="line2d_31">
      <path d="M 69.019063 113.082153 
L 571.219063 113.082153 
" clip-path="url(#pb677257cbc)" style="fill: none; stroke-dasharray: 1.85,0.8; stroke-dashoffset: 0; stroke: #b0b0b0; stroke-width: 0.5"/>
     </g>
     <g id="line2d_32">
      <g>
       <use xlink:href="#mfc2eb6658c" x="69.019063" y="113.082153" style="stroke: #000000; stroke-width: 0.8"/>
      </g>
     </g>
     <g id="text_8">
      <!-- 0.20 -->
      <g transform="translate(28.620625 118.780981) scale(0.15 -0.15)">
       <use xlink:href="#DejaVuSans-30"/>
       <use xlink:href="#DejaVuSans-2e" x="63.623047"/>
       <use xlink:href="#DejaVuSans-32" x="95.410156"/>
       <use xlink:href="#DejaVuSans-30" x="159.033203"/>
      </g>
     </g>
    </g>
    <g id="ytick_5">
     <g id="line2d_33">
      <path d="M 69.019063 41.36914 
L 571.219063 41.36914 
" clip-path="url(#pb677257cbc)" style="fill: none; stroke-dasharray: 1.85,0.8; stroke-dashoffset: 0; stroke: #b0b0b0; stroke-width: 0.5"/>
     </g>
     <g id="line2d_34">
      <g>
       <use xlink:href="#mfc2eb6658c" x="69.019063" y="41.36914" style="stroke: #000000; stroke-width: 0.8"/>
      </g>
     </g>
     <g id="text_9">
      <!-- 0.22 -->
      <g transform="translate(28.620625 47.067968) scale(0.15 -0.15)">
       <use xlink:href="#DejaVuSans-30"/>
       <use xlink:href="#DejaVuSans-2e" x="63.623047"/>
       <use xlink:href="#DejaVuSans-32" x="95.410156"/>
       <use xlink:href="#DejaVuSans-32" x="159.033203"/>
      </g>
     </g>
    </g>
    <g id="text_10">
     <!-- Normalized Performance -->
     <g transform="translate(20.877187 284.447813) rotate(-90) scale(0.18 -0.18)">
      <defs>
       <path id="DejaVuSans-4e" d="M 628 4666 
L 1478 4666 
L 3547 763 
L 3547 4666 
L 4159 4666 
L 4159 0 
L 3309 0 
L 1241 3903 
L 1241 0 
L 628 0 
L 628 4666 
z
" transform="scale(0.015625)"/>
       <path id="DejaVuSans-72" d="M 2631 2963 
Q 2534 3019 2420 3045 
Q 2306 3072 2169 3072 
Q 1681 3072 1420 2755 
Q 1159 2438 1159 1844 
L 1159 0 
L 581 0 
L 581 3500 
L 1159 3500 
L 1159 2956 
Q 1341 3275 1631 3429 
Q 1922 3584 2338 3584 
Q 2397 3584 2469 3576 
Q 2541 3569 2628 3553 
L 2631 2963 
z
" transform="scale(0.015625)"/>
       <path id="DejaVuSans-6d" d="M 3328 2828 
Q 3544 3216 3844 3400 
Q 4144 3584 4550 3584 
Q 5097 3584 5394 3201 
Q 5691 2819 5691 2113 
L 5691 0 
L 5113 0 
L 5113 2094 
Q 5113 2597 4934 2840 
Q 4756 3084 4391 3084 
Q 3944 3084 3684 2787 
Q 3425 2491 3425 1978 
L 3425 0 
L 2847 0 
L 2847 2094 
Q 2847 2600 2669 2842 
Q 2491 3084 2119 3084 
Q 1678 3084 1418 2786 
Q 1159 2488 1159 1978 
L 1159 0 
L 581 0 
L 581 3500 
L 1159 3500 
L 1159 2956 
Q 1356 3278 1631 3431 
Q 1906 3584 2284 3584 
Q 2666 3584 2933 3390 
Q 3200 3197 3328 2828 
z
" transform="scale(0.015625)"/>
       <path id="DejaVuSans-61" d="M 2194 1759 
Q 1497 1759 1228 1600 
Q 959 1441 959 1056 
Q 959 750 1161 570 
Q 1363 391 1709 391 
Q 2188 391 2477 730 
Q 2766 1069 2766 1631 
L 2766 1759 
L 2194 1759 
z
M 3341 1997 
L 3341 0 
L 2766 0 
L 2766 531 
Q 2569 213 2275 61 
Q 1981 -91 1556 -91 
Q 1019 -91 701 211 
Q 384 513 384 1019 
Q 384 1609 779 1909 
Q 1175 2209 1959 2209 
L 2766 2209 
L 2766 2266 
Q 2766 2663 2505 2880 
Q 2244 3097 1772 3097 
Q 1472 3097 1187 3025 
Q 903 2953 641 2809 
L 641 3341 
Q 956 3463 1253 3523 
Q 1550 3584 1831 3584 
Q 2591 3584 2966 3190 
Q 3341 2797 3341 1997 
z
" transform="scale(0.015625)"/>
       <path id="DejaVuSans-6c" d="M 603 4863 
L 1178 4863 
L 1178 0 
L 603 0 
L 603 4863 
z
" transform="scale(0.015625)"/>
       <path id="DejaVuSans-7a" d="M 353 3500 
L 3084 3500 
L 3084 2975 
L 922 459 
L 3084 459 
L 3084 0 
L 275 0 
L 275 525 
L 2438 3041 
L 353 3041 
L 353 3500 
z
" transform="scale(0.015625)"/>
       <path id="DejaVuSans-50" d="M 1259 4147 
L 1259 2394 
L 2053 2394 
Q 2494 2394 2734 2622 
Q 2975 2850 2975 3272 
Q 2975 3691 2734 3919 
Q 2494 4147 2053 4147 
L 1259 4147 
z
M 628 4666 
L 2053 4666 
Q 2838 4666 3239 4311 
Q 3641 3956 3641 3272 
Q 3641 2581 3239 2228 
Q 2838 1875 2053 1875 
L 1259 1875 
L 1259 0 
L 628 0 
L 628 4666 
z
" transform="scale(0.015625)"/>
       <path id="DejaVuSans-66" d="M 2375 4863 
L 2375 4384 
L 1825 4384 
Q 1516 4384 1395 4259 
Q 1275 4134 1275 3809 
L 1275 3500 
L 2222 3500 
L 2222 3053 
L 1275 3053 
L 1275 0 
L 697 0 
L 697 3053 
L 147 3053 
L 147 3500 
L 697 3500 
L 697 3744 
Q 697 4328 969 4595 
Q 1241 4863 1831 4863 
L 2375 4863 
z
" transform="scale(0.015625)"/>
      </defs>
      <use xlink:href="#DejaVuSans-4e"/>
      <use xlink:href="#DejaVuSans-6f" x="74.804688"/>
      <use xlink:href="#DejaVuSans-72" x="135.986328"/>
      <use xlink:href="#DejaVuSans-6d" x="175.349609"/>
      <use xlink:href="#DejaVuSans-61" x="272.761719"/>
      <use xlink:href="#DejaVuSans-6c" x="334.041016"/>
      <use xlink:href="#DejaVuSans-69" x="361.824219"/>
      <use xlink:href="#DejaVuSans-7a" x="389.607422"/>
      <use xlink:href="#DejaVuSans-65" x="442.097656"/>
      <use xlink:href="#DejaVuSans-64" x="503.621094"/>
      <use xlink:href="#DejaVuSans-20" x="567.097656"/>
      <use xlink:href="#DejaVuSans-50" x="598.884766"/>
      <use xlink:href="#DejaVuSans-65" x="655.5625"/>
      <use xlink:href="#DejaVuSans-72" x="717.085938"/>
      <use xlink:href="#DejaVuSans-66" x="758.199219"/>
      <use xlink:href="#DejaVuSans-6f" x="793.404297"/>
      <use xlink:href="#DejaVuSans-72" x="854.585938"/>
      <use xlink:href="#DejaVuSans-6d" x="893.949219"/>
      <use xlink:href="#DejaVuSans-61" x="991.361328"/>
      <use xlink:href="#DejaVuSans-6e" x="1052.640625"/>
      <use xlink:href="#DejaVuSans-63" x="1116.019531"/>
      <use xlink:href="#DejaVuSans-65" x="1171"/>
     </g>
    </g>
   </g>
   <g id="line2d_35">
    <path d="M 91.846335 65.347212 
L 160.563273 65.347212 
L 200.760105 65.347212 
L 229.280211 65.347212 
L 251.402124 65.347212 
L 269.477043 65.347212 
L 284.75917 65.347212 
L 297.99715 65.347212 
L 309.673875 65.347212 
L 320.119063 65.347212 
L 329.567884 65.347212 
L 338.193981 65.347212 
L 346.129222 65.347212 
L 353.476108 65.347212 
L 360.315894 65.347212 
L 366.714088 65.347212 
L 372.724266 65.347212 
L 378.390813 65.347212 
L 383.750907 65.347212 
L 388.836001 65.347212 
L 393.67294 65.347212 
L 398.284822 65.347212 
L 402.691662 65.347212 
L 406.91092 65.347212 
L 410.957914 65.347212 
L 414.84616 65.347212 
L 418.587645 65.347212 
L 422.193046 65.347212 
L 425.671915 65.347212 
L 429.032833 65.347212 
L 432.283536 65.347212 
L 435.431026 65.347212 
L 438.481654 65.347212 
L 441.441204 65.347212 
L 444.314959 65.347212 
L 447.107752 65.347212 
L 449.82402 65.347212 
L 452.467845 65.347212 
L 455.042992 65.347212 
L 457.552939 65.347212 
L 460.000905 65.347212 
L 462.389878 65.347212 
L 464.722634 65.347212 
L 467.00176 65.347212 
L 469.229665 65.347212 
L 471.4086 65.347212 
L 473.540674 65.347212 
L 475.627858 65.347212 
L 477.672004 65.347212 
L 479.674852 65.347212 
L 481.638036 65.347212 
L 483.563098 65.347212 
L 485.451491 65.347212 
L 487.304583 65.347212 
L 489.123673 65.347212 
L 490.909984 65.347212 
L 492.664677 65.347212 
L 494.388853 65.347212 
L 496.083554 65.347212 
L 497.749771 65.347212 
L 499.388446 65.347212 
L 501.000475 65.347212 
L 502.58671 65.347212 
L 504.147964 65.347212 
L 505.685011 65.347212 
L 507.198592 65.347212 
L 508.689411 65.347212 
L 510.158142 65.347212 
L 511.605432 65.347212 
L 513.031897 65.347212 
L 514.438127 65.347212 
L 515.82469 65.347212 
L 517.192126 65.347212 
L 518.540958 65.347212 
L 519.871684 65.347212 
L 521.184783 65.347212 
L 522.480718 65.347212 
L 523.75993 65.347212 
L 525.022847 65.347212 
L 526.269877 65.347212 
L 527.501415 65.347212 
L 528.717843 65.347212 
L 529.919525 65.347212 
L 531.106816 65.347212 
L 532.280055 65.347212 
L 533.439573 65.347212 
L 534.585685 65.347212 
L 535.718698 65.347212 
L 536.838909 65.347212 
L 537.946603 65.347212 
L 539.042057 65.347212 
L 540.125538 65.347212 
L 541.197306 65.347212 
L 542.257612 65.347212 
L 543.306696 65.347212 
L 544.344796 65.347212 
L 545.372137 65.347212 
L 546.388942 65.347212 
L 547.395424 65.347212 
L 548.39179 65.347212 
" clip-path="url(#pb677257cbc)" style="fill: none; stroke-dasharray: 11.1,4.8; stroke-dashoffset: 0; stroke: #fdc086; stroke-width: 3"/>
   </g>
   <g id="line2d_36">
    <path d="M 91.846335 84.171104 
L 160.563273 84.171104 
L 200.760105 84.171104 
L 229.280211 84.171104 
L 251.402124 84.171104 
L 269.477043 84.171104 
L 284.75917 84.171104 
L 297.99715 84.171104 
L 309.673875 84.171104 
L 320.119063 84.171104 
L 329.567884 84.171104 
L 338.193981 84.171104 
L 346.129222 84.171104 
L 353.476108 84.171104 
L 360.315894 84.171104 
L 366.714088 84.171104 
L 372.724266 84.171104 
L 378.390813 84.171104 
L 383.750907 84.171104 
L 388.836001 84.171104 
L 393.67294 84.171104 
L 398.284822 84.171104 
L 402.691662 84.171104 
L 406.91092 84.171104 
L 410.957914 84.171104 
L 414.84616 84.171104 
L 418.587645 84.171104 
L 422.193046 84.171104 
L 425.671915 84.171104 
L 429.032833 84.171104 
L 432.283536 84.171104 
L 435.431026 84.171104 
L 438.481654 84.171104 
L 441.441204 84.171104 
L 444.314959 84.171104 
L 447.107752 84.171104 
L 449.82402 84.171104 
L 452.467845 84.171104 
L 455.042992 84.171104 
L 457.552939 84.171104 
L 460.000905 84.171104 
L 462.389878 84.171104 
L 464.722634 84.171104 
L 467.00176 84.171104 
L 469.229665 84.171104 
L 471.4086 84.171104 
L 473.540674 84.171104 
L 475.627858 84.171104 
L 477.672004 84.171104 
L 479.674852 84.171104 
L 481.638036 84.171104 
L 483.563098 84.171104 
L 485.451491 84.171104 
L 487.304583 84.171104 
L 489.123673 84.171104 
L 490.909984 84.171104 
L 492.664677 84.171104 
L 494.388853 84.171104 
L 496.083554 84.171104 
L 497.749771 84.171104 
L 499.388446 84.171104 
L 501.000475 84.171104 
L 502.58671 84.171104 
L 504.147964 84.171104 
L 505.685011 84.171104 
L 507.198592 84.171104 
L 508.689411 84.171104 
L 510.158142 84.171104 
L 511.605432 84.171104 
L 513.031897 84.171104 
L 514.438127 84.171104 
L 515.82469 84.171104 
L 517.192126 84.171104 
L 518.540958 84.171104 
L 519.871684 84.171104 
L 521.184783 84.171104 
L 522.480718 84.171104 
L 523.75993 84.171104 
L 525.022847 84.171104 
L 526.269877 84.171104 
L 527.501415 84.171104 
L 528.717843 84.171104 
L 529.919525 84.171104 
L 531.106816 84.171104 
L 532.280055 84.171104 
L 533.439573 84.171104 
L 534.585685 84.171104 
L 535.718698 84.171104 
L 536.838909 84.171104 
L 537.946603 84.171104 
L 539.042057 84.171104 
L 540.125538 84.171104 
L 541.197306 84.171104 
L 542.257612 84.171104 
L 543.306696 84.171104 
L 544.344796 84.171104 
L 545.372137 84.171104 
L 546.388942 84.171104 
L 547.395424 84.171104 
L 548.39179 84.171104 
" clip-path="url(#pb677257cbc)" style="fill: none; stroke-dasharray: 11.1,4.8; stroke-dashoffset: 0; stroke: #beaed4; stroke-width: 3"/>
   </g>
   <g id="line2d_37">
    <path d="M 91.846335 182.911791 
L 160.563273 111.828903 
L 200.760105 82.48625 
L 229.280211 71.487423 
L 251.402124 64.485214 
L 269.477043 61.326735 
L 284.75917 59.202752 
L 297.99715 57.825306 
L 309.673875 55.685467 
L 320.119063 53.729553 
L 329.567884 52.423721 
L 338.193981 51.369199 
L 346.129222 50.524617 
L 353.476108 49.906153 
L 360.315894 49.308589 
L 366.714088 48.563834 
L 372.724266 48.028925 
L 378.390813 47.569329 
L 383.750907 47.163982 
L 388.836001 46.715883 
L 393.67294 46.419004 
L 398.284822 46.162932 
L 402.691662 45.912097 
L 406.91092 45.690065 
L 410.957914 45.536161 
L 414.84616 45.206429 
L 418.587645 45.005068 
L 422.193046 44.735519 
L 425.671915 44.612066 
L 429.032833 44.450221 
L 432.283536 44.281896 
L 435.431026 44.093563 
L 438.481654 43.920791 
L 441.441204 43.744369 
L 444.314959 43.652298 
L 447.107752 43.490569 
L 449.82402 43.344023 
L 452.467845 43.230526 
L 455.042992 43.105105 
L 457.552939 42.98744 
L 460.000905 42.866737 
L 462.389878 42.694819 
L 464.722634 42.609449 
L 467.00176 42.424262 
L 469.229665 42.368187 
L 471.4086 42.281026 
L 473.540674 42.174991 
L 475.627858 42.097057 
L 477.672004 42.03122 
L 479.674852 41.931693 
L 481.638036 41.824056 
L 483.563098 41.752002 
L 485.451491 41.623739 
L 487.304583 41.53601 
L 489.123673 41.404546 
L 490.909984 41.30576 
L 492.664677 41.20851 
L 494.388853 41.152108 
L 496.083554 41.067632 
L 497.749771 41.016213 
L 499.388446 40.959658 
L 501.000475 40.88196 
L 502.58671 40.838452 
L 504.147964 40.757971 
L 505.685011 40.672117 
L 507.198592 40.634709 
L 508.689411 40.559294 
L 510.158142 40.490379 
L 511.605432 40.383524 
L 513.031897 40.33029 
L 514.438127 40.288163 
L 515.82469 40.165644 
L 517.192126 40.117672 
L 518.540958 40.06844 
L 519.871684 40.019274 
L 521.184783 39.943244 
L 522.480718 39.886457 
L 523.75993 39.788973 
L 525.022847 39.73075 
L 526.269877 39.667239 
L 527.501415 39.605513 
L 528.717843 39.519909 
L 529.919525 39.490184 
L 531.106816 39.433824 
L 532.280055 39.396555 
L 533.439573 39.320129 
L 534.585685 39.291781 
L 535.718698 39.244595 
L 536.838909 39.202995 
L 537.946603 39.137457 
L 539.042057 39.097399 
L 540.125538 39.07442 
L 541.197306 39.043811 
L 542.257612 39.016876 
L 543.306696 38.980599 
L 544.344796 38.918065 
L 545.372137 38.895628 
L 546.388942 38.83453 
L 547.395424 38.735658 
L 548.39179 38.722687 
" clip-path="url(#pb677257cbc)" style="fill: none; stroke: #7fc97f; stroke-width: 3; stroke-linecap: square"/>
   </g>
   <g id="line2d_38">
    <path d="M 91.846335 90.833764 
L 160.563273 76.173525 
L 200.760105 72.551841 
L 229.280211 70.1393 
L 251.402124 68.486653 
L 269.477043 66.526451 
L 284.75917 65.111495 
L 297.99715 63.919788 
L 309.673875 60.444385 
L 320.119063 57.783326 
L 329.567884 55.568534 
L 338.193981 54.000919 
L 346.129222 52.450818 
L 353.476108 51.349767 
L 360.315894 50.780878 
L 366.714088 49.997813 
L 372.724266 49.555644 
L 378.390813 49.188324 
L 383.750907 48.847867 
L 388.836001 48.552218 
L 393.67294 48.174399 
L 398.284822 47.780687 
L 402.691662 47.371316 
L 406.91092 47.074948 
L 410.957914 46.951324 
L 414.84616 46.770055 
L 418.587645 46.612766 
L 422.193046 46.48382 
L 425.671915 46.410322 
L 429.032833 46.293484 
L 432.283536 46.20689 
L 435.431026 46.126985 
L 438.481654 46.055073 
L 441.441204 45.9509 
L 444.314959 45.877129 
L 447.107752 45.767908 
L 449.82402 45.667172 
L 452.467845 45.601958 
L 455.042992 45.428861 
L 457.552939 45.263693 
L 460.000905 45.093383 
L 462.389878 44.950684 
L 464.722634 44.796659 
L 467.00176 44.618357 
L 469.229665 44.46713 
L 471.4086 44.302304 
L 473.540674 44.181674 
L 475.627858 44.06548 
L 477.672004 43.919652 
L 479.674852 43.790535 
L 481.638036 43.67209 
L 483.563098 43.573853 
L 485.451491 43.505892 
L 487.304583 43.424166 
L 489.123673 43.375855 
L 490.909984 43.294383 
L 492.664677 43.2616 
L 494.388853 43.223656 
L 496.083554 43.178481 
L 497.749771 43.126925 
L 499.388446 43.039559 
L 501.000475 42.987945 
L 502.58671 42.848297 
L 504.147964 42.804831 
L 505.685011 42.713523 
L 507.198592 42.66244 
L 508.689411 42.619034 
L 510.158142 42.579644 
L 511.605432 42.478174 
L 513.031897 42.427015 
L 514.438127 42.356082 
L 515.82469 42.296532 
L 517.192126 42.25748 
L 518.540958 42.204077 
L 519.871684 42.157886 
L 521.184783 42.098064 
L 522.480718 42.045183 
L 523.75993 41.977549 
L 525.022847 41.923185 
L 526.269877 41.883045 
L 527.501415 41.838989 
L 528.717843 41.790648 
L 529.919525 41.76089 
L 531.106816 41.705123 
L 532.280055 41.64786 
L 533.439573 41.621043 
L 534.585685 41.553151 
L 535.718698 41.525762 
L 536.838909 41.473752 
L 537.946603 41.404548 
L 539.042057 41.347591 
L 540.125538 41.278723 
L 541.197306 41.211694 
L 542.257612 41.142074 
L 543.306696 41.06866 
L 544.344796 40.975152 
L 545.372137 40.916917 
L 546.388942 40.826194 
L 547.395424 40.768371 
L 548.39179 40.71606 
" clip-path="url(#pb677257cbc)" style="fill: none; stroke: #bf5b17; stroke-width: 3; stroke-linecap: square"/>
   </g>
   <g id="line2d_39">
    <path d="M 91.846335 90.833764 
L 160.563273 81.811247 
L 200.760105 76.604641 
L 229.280211 68.823292 
L 251.402124 66.586227 
L 269.477043 63.62073 
L 284.75917 62.56303 
L 297.99715 60.536966 
L 309.673875 55.839048 
L 320.119063 54.792143 
L 329.567884 52.47475 
L 338.193981 52.325674 
L 346.129222 52.183629 
L 353.476108 49.386066 
L 360.315894 48.309051 
L 366.714088 47.827974 
L 372.724266 47.346955 
L 378.390813 47.196405 
L 383.750907 46.741037 
L 388.836001 46.62279 
L 393.67294 46.56822 
L 398.284822 46.505845 
L 402.691662 46.304525 
L 406.91092 46.282801 
L 410.957914 46.146941 
L 414.84616 46.08778 
L 418.587645 45.891411 
L 422.193046 44.547509 
L 425.671915 44.459879 
L 429.032833 44.41702 
L 432.283536 44.399927 
L 435.431026 44.285219 
L 438.481654 44.269866 
L 441.441204 44.102475 
L 444.314959 43.962511 
L 447.107752 43.732432 
L 449.82402 43.290736 
L 452.467845 42.602846 
L 455.042992 42.586297 
L 457.552939 42.499014 
L 460.000905 42.354781 
L 462.389878 42.35233 
L 464.722634 42.294032 
L 467.00176 41.997569 
L 469.229665 40.511606 
L 471.4086 40.417423 
L 473.540674 40.367055 
L 475.627858 40.323833 
L 477.672004 40.307756 
L 479.674852 39.62772 
L 481.638036 39.624232 
L 483.563098 39.55769 
L 485.451491 39.553983 
L 487.304583 39.137965 
L 489.123673 39.089064 
L 490.909984 39.070599 
L 492.664677 39.070099 
L 494.388853 38.935358 
L 496.083554 38.933193 
L 497.749771 38.932712 
L 499.388446 38.799309 
L 501.000475 38.777581 
L 502.58671 38.761138 
L 504.147964 38.74716 
L 505.685011 38.689259 
L 507.198592 38.681585 
L 508.689411 38.634977 
L 510.158142 38.570376 
L 511.605432 38.548398 
L 513.031897 38.482417 
L 514.438127 38.478834 
L 515.82469 38.251193 
L 517.192126 37.752423 
L 518.540958 37.743904 
L 519.871684 37.70863 
L 521.184783 37.696397 
L 522.480718 37.568111 
L 523.75993 37.567696 
L 525.022847 37.567575 
L 526.269877 37.526072 
L 527.501415 37.505324 
L 528.717843 37.488386 
L 529.919525 37.486576 
L 531.106816 37.485741 
L 532.280055 37.46407 
L 533.439573 37.463692 
L 534.585685 37.452198 
L 535.718698 37.438063 
L 536.838909 37.42247 
L 537.946603 37.42247 
L 539.042057 37.421728 
L 540.125538 37.418851 
L 541.197306 37.381319 
L 542.257612 37.308922 
L 543.306696 37.299395 
L 544.344796 37.274884 
L 545.372137 37.274884 
L 546.388942 37.219602 
L 547.395424 37.219303 
L 548.39179 37.219303 
" clip-path="url(#pb677257cbc)" style="fill: none; stroke: #f0027f; stroke-width: 3; stroke-linecap: square"/>
   </g>
   <g id="line2d_40">
    <path d="M 91.846335 90.833764 
L 160.563273 81.811247 
L 200.760105 76.604641 
L 229.280211 68.823292 
L 251.402124 66.586227 
L 269.477043 63.62073 
L 284.75917 61.141446 
L 297.99715 58.242154 
L 309.673875 55.67903 
L 320.119063 53.114304 
L 329.567884 52.093957 
L 338.193981 51.754659 
L 346.129222 51.416877 
L 353.476108 49.184116 
L 360.315894 48.423259 
L 366.714088 47.763274 
L 372.724266 47.545897 
L 378.390813 46.979371 
L 383.750907 45.848804 
L 388.836001 45.777084 
L 393.67294 45.503795 
L 398.284822 44.695271 
L 402.691662 44.582346 
L 406.91092 44.465614 
L 410.957914 44.333474 
L 414.84616 44.210587 
L 418.587645 44.107594 
L 422.193046 43.936902 
L 425.671915 43.876502 
L 429.032833 43.813425 
L 432.283536 43.792421 
L 435.431026 43.726055 
L 438.481654 43.678907 
L 441.441204 43.507768 
L 444.314959 43.332486 
L 447.107752 43.220892 
L 449.82402 43.074662 
L 452.467845 42.964442 
L 455.042992 42.883528 
L 457.552939 42.70483 
L 460.000905 42.627445 
L 462.389878 42.530684 
L 464.722634 42.402797 
L 467.00176 42.281258 
L 469.229665 41.885131 
L 471.4086 41.791137 
L 473.540674 41.348906 
L 475.627858 41.260437 
L 477.672004 41.213698 
L 479.674852 41.100081 
L 481.638036 41.06015 
L 483.563098 41.026993 
L 485.451491 40.946817 
L 487.304583 40.881784 
L 489.123673 40.854191 
L 490.909984 40.803076 
L 492.664677 40.776668 
L 494.388853 40.650016 
L 496.083554 40.611855 
L 497.749771 40.585105 
L 499.388446 40.552318 
L 501.000475 40.54528 
L 502.58671 40.532645 
L 504.147964 40.507877 
L 505.685011 40.286924 
L 507.198592 40.246146 
L 508.689411 40.154748 
L 510.158142 40.145498 
L 511.605432 40.124921 
L 513.031897 40.102623 
L 514.438127 40.088533 
L 515.82469 40.066471 
L 517.192126 39.829465 
L 518.540958 39.809833 
L 519.871684 39.786094 
L 521.184783 39.723964 
L 522.480718 39.62472 
L 523.75993 39.608098 
L 525.022847 39.545728 
L 526.269877 39.463031 
L 527.501415 39.431001 
L 528.717843 39.379962 
L 529.919525 39.339098 
L 531.106816 39.332193 
L 532.280055 39.306937 
L 533.439573 39.287799 
L 534.585685 39.275301 
L 535.718698 39.262929 
L 536.838909 39.257145 
L 537.946603 39.225339 
L 539.042057 39.17638 
L 540.125538 38.875154 
L 541.197306 38.845099 
L 542.257612 38.829044 
L 543.306696 38.752386 
L 544.344796 38.730045 
L 545.372137 38.656681 
L 546.388942 38.599296 
L 547.395424 38.503297 
L 548.39179 38.442737 
" clip-path="url(#pb677257cbc)" style="fill: none; stroke: #386cb0; stroke-width: 3; stroke-linecap: square"/>
   </g>
   <g id="line2d_41">
    <path d="M 91.846335 84.049306 
L 160.563273 60.982486 
L 200.760105 54.690641 
L 229.280211 50.025216 
L 251.402124 47.5347 
L 269.477043 45.796354 
L 284.75917 44.711337 
L 297.99715 43.767455 
L 309.673875 42.975375 
L 320.119063 42.35322 
L 329.567884 41.738036 
L 338.193981 41.28059 
L 346.129222 40.86134 
L 353.476108 40.477751 
L 360.315894 40.115447 
L 366.714088 39.811728 
L 372.724266 39.538547 
L 378.390813 39.287961 
L 383.750907 39.065191 
L 388.836001 38.872395 
L 393.67294 38.695226 
L 398.284822 38.530802 
L 402.691662 38.382372 
L 406.91092 38.239868 
L 410.957914 38.105273 
L 414.84616 37.978456 
L 418.587645 37.85636 
L 422.193046 37.74174 
L 425.671915 37.639874 
L 429.032833 37.542536 
L 432.283536 37.446452 
L 435.431026 37.351035 
L 438.481654 37.262118 
L 441.441204 37.178421 
L 444.314959 37.103025 
L 447.107752 37.029602 
L 449.82402 36.965604 
L 452.467845 36.904867 
L 455.042992 36.851922 
L 457.552939 36.801652 
L 460.000905 36.752552 
L 462.389878 36.705448 
L 464.722634 36.660129 
L 467.00176 36.618672 
L 469.229665 36.580494 
L 471.4086 36.543448 
L 473.540674 36.507045 
L 475.627858 36.472948 
L 477.672004 36.439137 
L 479.674852 36.406982 
L 481.638036 36.375368 
L 483.563098 36.346054 
L 485.451491 36.317453 
L 487.304583 36.292036 
L 489.123673 36.267428 
L 490.909984 36.24323 
L 492.664677 36.220272 
L 494.388853 36.197509 
L 496.083554 36.175202 
L 497.749771 36.156135 
L 499.388446 36.137237 
L 501.000475 36.119791 
L 502.58671 36.102925 
L 504.147964 36.086643 
L 505.685011 36.071556 
L 507.198592 36.05658 
L 508.689411 36.04212 
L 510.158142 36.028061 
L 511.605432 36.014328 
L 513.031897 36.001588 
L 514.438127 35.98893 
L 515.82469 35.977296 
L 517.192126 35.966714 
L 518.540958 35.956219 
L 519.871684 35.946463 
L 521.184783 35.937013 
L 522.480718 35.92871 
L 523.75993 35.921044 
L 525.022847 35.913768 
L 526.269877 35.906565 
L 527.501415 35.899796 
L 528.717843 35.893237 
L 529.919525 35.886786 
L 531.106816 35.880401 
L 532.280055 35.874256 
L 533.439573 35.868256 
L 534.585685 35.862525 
L 535.718698 35.857091 
L 536.838909 35.85191 
L 537.946603 35.846778 
L 539.042057 35.842094 
L 540.125538 35.837618 
L 541.197306 35.833548 
L 542.257612 35.829535 
L 543.306696 35.825825 
L 544.344796 35.822208 
L 545.372137 35.81865 
L 546.388942 35.815121 
L 547.395424 35.811716 
L 548.39179 35.808439 
" clip-path="url(#pb677257cbc)" style="fill: none; stroke-dasharray: 11.1,4.8; stroke-dashoffset: 0; stroke: #666666; stroke-width: 3"/>
   </g>
   <g id="patch_3">
    <path d="M 69.019063 339.84 
L 69.019063 7.2 
" style="fill: none; stroke: #000000; stroke-width: 0.8; stroke-linejoin: miter; stroke-linecap: square"/>
   </g>
   <g id="patch_4">
    <path d="M 571.219063 339.84 
L 571.219063 7.2 
" style="fill: none; stroke: #000000; stroke-width: 0.8; stroke-linejoin: miter; stroke-linecap: square"/>
   </g>
   <g id="patch_5">
    <path d="M 69.019063 339.84 
L 571.219063 339.84 
" style="fill: none; stroke: #000000; stroke-width: 0.8; stroke-linejoin: miter; stroke-linecap: square"/>
   </g>
   <g id="patch_6">
    <path d="M 69.019063 7.2 
L 571.219063 7.2 
" style="fill: none; stroke: #000000; stroke-width: 0.8; stroke-linejoin: miter; stroke-linecap: square"/>
   </g>
   <g id="legend_1">
    <g id="patch_7">
     <path d="M 339.191563 331.84 
L 560.019063 331.84 
Q 563.219063 331.84 563.219063 328.64 
L 563.219063 165.845 
Q 563.219063 162.645 560.019063 162.645 
L 339.191563 162.645 
Q 335.991563 162.645 335.991563 165.845 
L 335.991563 328.64 
Q 335.991563 331.84 339.191563 331.84 
z
" style="fill: #ffffff; opacity: 0.8; stroke: #cccccc; stroke-linejoin: miter"/>
    </g>
    <g id="line2d_42">
     <path d="M 342.391563 175.6025 
L 358.391563 175.6025 
L 374.391563 175.6025 
" style="fill: none; stroke-dasharray: 11.1,4.8; stroke-dashoffset: 0; stroke: #fdc086; stroke-width: 3"/>
    </g>
    <g id="text_11">
     <!-- Independent Training -->
     <g transform="translate(387.191563 181.2025) scale(0.16 -0.16)">
      <defs>
       <path id="DejaVuSans-49" d="M 628 4666 
L 1259 4666 
L 1259 0 
L 628 0 
L 628 4666 
z
" transform="scale(0.015625)"/>
       <path id="DejaVuSans-70" d="M 1159 525 
L 1159 -1331 
L 581 -1331 
L 581 3500 
L 1159 3500 
L 1159 2969 
Q 1341 3281 1617 3432 
Q 1894 3584 2278 3584 
Q 2916 3584 3314 3078 
Q 3713 2572 3713 1747 
Q 3713 922 3314 415 
Q 2916 -91 2278 -91 
Q 1894 -91 1617 61 
Q 1341 213 1159 525 
z
M 3116 1747 
Q 3116 2381 2855 2742 
Q 2594 3103 2138 3103 
Q 1681 3103 1420 2742 
Q 1159 2381 1159 1747 
Q 1159 1113 1420 752 
Q 1681 391 2138 391 
Q 2594 391 2855 752 
Q 3116 1113 3116 1747 
z
" transform="scale(0.015625)"/>
       <path id="DejaVuSans-74" d="M 1172 4494 
L 1172 3500 
L 2356 3500 
L 2356 3053 
L 1172 3053 
L 1172 1153 
Q 1172 725 1289 603 
Q 1406 481 1766 481 
L 2356 481 
L 2356 0 
L 1766 0 
Q 1100 0 847 248 
Q 594 497 594 1153 
L 594 3053 
L 172 3053 
L 172 3500 
L 594 3500 
L 594 4494 
L 1172 4494 
z
" transform="scale(0.015625)"/>
       <path id="DejaVuSans-54" d="M -19 4666 
L 3928 4666 
L 3928 4134 
L 2272 4134 
L 2272 0 
L 1638 0 
L 1638 4134 
L -19 4134 
L -19 4666 
z
" transform="scale(0.015625)"/>
       <path id="DejaVuSans-67" d="M 2906 1791 
Q 2906 2416 2648 2759 
Q 2391 3103 1925 3103 
Q 1463 3103 1205 2759 
Q 947 2416 947 1791 
Q 947 1169 1205 825 
Q 1463 481 1925 481 
Q 2391 481 2648 825 
Q 2906 1169 2906 1791 
z
M 3481 434 
Q 3481 -459 3084 -895 
Q 2688 -1331 1869 -1331 
Q 1566 -1331 1297 -1286 
Q 1028 -1241 775 -1147 
L 775 -588 
Q 1028 -725 1275 -790 
Q 1522 -856 1778 -856 
Q 2344 -856 2625 -561 
Q 2906 -266 2906 331 
L 2906 616 
Q 2728 306 2450 153 
Q 2172 0 1784 0 
Q 1141 0 747 490 
Q 353 981 353 1791 
Q 353 2603 747 3093 
Q 1141 3584 1784 3584 
Q 2172 3584 2450 3431 
Q 2728 3278 2906 2969 
L 2906 3500 
L 3481 3500 
L 3481 434 
z
" transform="scale(0.015625)"/>
      </defs>
      <use xlink:href="#DejaVuSans-49"/>
      <use xlink:href="#DejaVuSans-6e" x="29.492188"/>
      <use xlink:href="#DejaVuSans-64" x="92.871094"/>
      <use xlink:href="#DejaVuSans-65" x="156.347656"/>
      <use xlink:href="#DejaVuSans-70" x="217.871094"/>
      <use xlink:href="#DejaVuSans-65" x="281.347656"/>
      <use xlink:href="#DejaVuSans-6e" x="342.871094"/>
      <use xlink:href="#DejaVuSans-64" x="406.25"/>
      <use xlink:href="#DejaVuSans-65" x="469.726562"/>
      <use xlink:href="#DejaVuSans-6e" x="531.25"/>
      <use xlink:href="#DejaVuSans-74" x="594.628906"/>
      <use xlink:href="#DejaVuSans-20" x="633.837891"/>
      <use xlink:href="#DejaVuSans-54" x="665.625"/>
      <use xlink:href="#DejaVuSans-72" x="711.958984"/>
      <use xlink:href="#DejaVuSans-61" x="753.072266"/>
      <use xlink:href="#DejaVuSans-69" x="814.351562"/>
      <use xlink:href="#DejaVuSans-6e" x="842.134766"/>
      <use xlink:href="#DejaVuSans-69" x="905.513672"/>
      <use xlink:href="#DejaVuSans-6e" x="933.296875"/>
      <use xlink:href="#DejaVuSans-67" x="996.675781"/>
     </g>
    </g>
    <g id="line2d_43">
     <path d="M 342.391563 199.0875 
L 358.391563 199.0875 
L 374.391563 199.0875 
" style="fill: none; stroke-dasharray: 11.1,4.8; stroke-dashoffset: 0; stroke: #beaed4; stroke-width: 3"/>
    </g>
    <g id="text_12">
     <!-- Multi-task Training -->
     <g transform="translate(387.191563 204.6875) scale(0.16 -0.16)">
      <defs>
       <path id="DejaVuSans-4d" d="M 628 4666 
L 1569 4666 
L 2759 1491 
L 3956 4666 
L 4897 4666 
L 4897 0 
L 4281 0 
L 4281 4097 
L 3078 897 
L 2444 897 
L 1241 4097 
L 1241 0 
L 628 0 
L 628 4666 
z
" transform="scale(0.015625)"/>
       <path id="DejaVuSans-2d" d="M 313 2009 
L 1997 2009 
L 1997 1497 
L 313 1497 
L 313 2009 
z
" transform="scale(0.015625)"/>
       <path id="DejaVuSans-6b" d="M 581 4863 
L 1159 4863 
L 1159 1991 
L 2875 3500 
L 3609 3500 
L 1753 1863 
L 3688 0 
L 2938 0 
L 1159 1709 
L 1159 0 
L 581 0 
L 581 4863 
z
" transform="scale(0.015625)"/>
      </defs>
      <use xlink:href="#DejaVuSans-4d"/>
      <use xlink:href="#DejaVuSans-75" x="86.279297"/>
      <use xlink:href="#DejaVuSans-6c" x="149.658203"/>
      <use xlink:href="#DejaVuSans-74" x="177.441406"/>
      <use xlink:href="#DejaVuSans-69" x="216.650391"/>
      <use xlink:href="#DejaVuSans-2d" x="244.433594"/>
      <use xlink:href="#DejaVuSans-74" x="280.517578"/>
      <use xlink:href="#DejaVuSans-61" x="319.726562"/>
      <use xlink:href="#DejaVuSans-73" x="381.005859"/>
      <use xlink:href="#DejaVuSans-6b" x="433.105469"/>
      <use xlink:href="#DejaVuSans-20" x="491.015625"/>
      <use xlink:href="#DejaVuSans-54" x="522.802734"/>
      <use xlink:href="#DejaVuSans-72" x="569.136719"/>
      <use xlink:href="#DejaVuSans-61" x="610.25"/>
      <use xlink:href="#DejaVuSans-69" x="671.529297"/>
      <use xlink:href="#DejaVuSans-6e" x="699.3125"/>
      <use xlink:href="#DejaVuSans-69" x="762.691406"/>
      <use xlink:href="#DejaVuSans-6e" x="790.474609"/>
      <use xlink:href="#DejaVuSans-67" x="853.853516"/>
     </g>
    </g>
    <g id="line2d_44">
     <path d="M 342.391563 222.5725 
L 358.391563 222.5725 
L 374.391563 222.5725 
" style="fill: none; stroke: #7fc97f; stroke-width: 3; stroke-linecap: square"/>
    </g>
    <g id="text_13">
     <!-- Random -->
     <g transform="translate(387.191563 228.1725) scale(0.16 -0.16)">
      <use xlink:href="#DejaVuSans-52"/>
      <use xlink:href="#DejaVuSans-61" x="67.232422"/>
      <use xlink:href="#DejaVuSans-6e" x="128.511719"/>
      <use xlink:href="#DejaVuSans-64" x="191.890625"/>
      <use xlink:href="#DejaVuSans-6f" x="255.367188"/>
      <use xlink:href="#DejaVuSans-6d" x="316.548828"/>
     </g>
    </g>
    <g id="line2d_45">
     <path d="M 342.391563 246.0575 
L 358.391563 246.0575 
L 374.391563 246.0575 
" style="fill: none; stroke: #bf5b17; stroke-width: 3; stroke-linecap: square"/>
    </g>
    <g id="text_14">
     <!-- GP-MBTL -->
     <g transform="translate(387.191563 251.6575) scale(0.16 -0.16)">
      <defs>
       <path id="DejaVuSans-47" d="M 3809 666 
L 3809 1919 
L 2778 1919 
L 2778 2438 
L 4434 2438 
L 4434 434 
Q 4069 175 3628 42 
Q 3188 -91 2688 -91 
Q 1594 -91 976 548 
Q 359 1188 359 2328 
Q 359 3472 976 4111 
Q 1594 4750 2688 4750 
Q 3144 4750 3555 4637 
Q 3966 4525 4313 4306 
L 4313 3634 
Q 3963 3931 3569 4081 
Q 3175 4231 2741 4231 
Q 1884 4231 1454 3753 
Q 1025 3275 1025 2328 
Q 1025 1384 1454 906 
Q 1884 428 2741 428 
Q 3075 428 3337 486 
Q 3600 544 3809 666 
z
" transform="scale(0.015625)"/>
       <path id="DejaVuSans-42" d="M 1259 2228 
L 1259 519 
L 2272 519 
Q 2781 519 3026 730 
Q 3272 941 3272 1375 
Q 3272 1813 3026 2020 
Q 2781 2228 2272 2228 
L 1259 2228 
z
M 1259 4147 
L 1259 2741 
L 2194 2741 
Q 2656 2741 2882 2914 
Q 3109 3088 3109 3444 
Q 3109 3797 2882 3972 
Q 2656 4147 2194 4147 
L 1259 4147 
z
M 628 4666 
L 2241 4666 
Q 2963 4666 3353 4366 
Q 3744 4066 3744 3513 
Q 3744 3084 3544 2831 
Q 3344 2578 2956 2516 
Q 3422 2416 3680 2098 
Q 3938 1781 3938 1306 
Q 3938 681 3513 340 
Q 3088 0 2303 0 
L 628 0 
L 628 4666 
z
" transform="scale(0.015625)"/>
       <path id="DejaVuSans-4c" d="M 628 4666 
L 1259 4666 
L 1259 531 
L 3531 531 
L 3531 0 
L 628 0 
L 628 4666 
z
" transform="scale(0.015625)"/>
      </defs>
      <use xlink:href="#DejaVuSans-47"/>
      <use xlink:href="#DejaVuSans-50" x="77.490234"/>
      <use xlink:href="#DejaVuSans-2d" x="135.542969"/>
      <use xlink:href="#DejaVuSans-4d" x="171.626953"/>
      <use xlink:href="#DejaVuSans-42" x="257.90625"/>
      <use xlink:href="#DejaVuSans-54" x="326.509766"/>
      <use xlink:href="#DejaVuSans-4c" x="387.59375"/>
     </g>
    </g>
    <g id="line2d_46">
     <path d="M 342.391563 269.5425 
L 358.391563 269.5425 
L 374.391563 269.5425 
" style="fill: none; stroke: #f0027f; stroke-width: 3; stroke-linecap: square"/>
    </g>
    <g id="text_15">
     <!-- M-MBTL (Ours) -->
     <g transform="translate(387.191563 275.1425) scale(0.16 -0.16)">
      <defs>
       <path id="DejaVuSans-28" d="M 1984 4856 
Q 1566 4138 1362 3434 
Q 1159 2731 1159 2009 
Q 1159 1288 1364 580 
Q 1569 -128 1984 -844 
L 1484 -844 
Q 1016 -109 783 600 
Q 550 1309 550 2009 
Q 550 2706 781 3412 
Q 1013 4119 1484 4856 
L 1984 4856 
z
" transform="scale(0.015625)"/>
       <path id="DejaVuSans-4f" d="M 2522 4238 
Q 1834 4238 1429 3725 
Q 1025 3213 1025 2328 
Q 1025 1447 1429 934 
Q 1834 422 2522 422 
Q 3209 422 3611 934 
Q 4013 1447 4013 2328 
Q 4013 3213 3611 3725 
Q 3209 4238 2522 4238 
z
M 2522 4750 
Q 3503 4750 4090 4092 
Q 4678 3434 4678 2328 
Q 4678 1225 4090 567 
Q 3503 -91 2522 -91 
Q 1538 -91 948 565 
Q 359 1222 359 2328 
Q 359 3434 948 4092 
Q 1538 4750 2522 4750 
z
" transform="scale(0.015625)"/>
       <path id="DejaVuSans-29" d="M 513 4856 
L 1013 4856 
Q 1481 4119 1714 3412 
Q 1947 2706 1947 2009 
Q 1947 1309 1714 600 
Q 1481 -109 1013 -844 
L 513 -844 
Q 928 -128 1133 580 
Q 1338 1288 1338 2009 
Q 1338 2731 1133 3434 
Q 928 4138 513 4856 
z
" transform="scale(0.015625)"/>
      </defs>
      <use xlink:href="#DejaVuSans-4d"/>
      <use xlink:href="#DejaVuSans-2d" x="86.279297"/>
      <use xlink:href="#DejaVuSans-4d" x="122.363281"/>
      <use xlink:href="#DejaVuSans-42" x="208.642578"/>
      <use xlink:href="#DejaVuSans-54" x="277.246094"/>
      <use xlink:href="#DejaVuSans-4c" x="338.330078"/>
      <use xlink:href="#DejaVuSans-20" x="394.042969"/>
      <use xlink:href="#DejaVuSans-28" x="425.830078"/>
      <use xlink:href="#DejaVuSans-4f" x="464.84375"/>
      <use xlink:href="#DejaVuSans-75" x="543.554688"/>
      <use xlink:href="#DejaVuSans-72" x="606.933594"/>
      <use xlink:href="#DejaVuSans-73" x="648.046875"/>
      <use xlink:href="#DejaVuSans-29" x="700.146484"/>
     </g>
    </g>
    <g id="line2d_47">
     <path d="M 342.391563 293.0275 
L 358.391563 293.0275 
L 374.391563 293.0275 
" style="fill: none; stroke: #386cb0; stroke-width: 3; stroke-linecap: square"/>
    </g>
    <g id="text_16">
     <!-- M/GP-MBTL (Ours) -->
     <g transform="translate(387.191563 298.6275) scale(0.16 -0.16)">
      <defs>
       <path id="DejaVuSans-2f" d="M 1625 4666 
L 2156 4666 
L 531 -594 
L 0 -594 
L 1625 4666 
z
" transform="scale(0.015625)"/>
      </defs>
      <use xlink:href="#DejaVuSans-4d"/>
      <use xlink:href="#DejaVuSans-2f" x="86.279297"/>
      <use xlink:href="#DejaVuSans-47" x="119.970703"/>
      <use xlink:href="#DejaVuSans-50" x="197.460938"/>
      <use xlink:href="#DejaVuSans-2d" x="255.513672"/>
      <use xlink:href="#DejaVuSans-4d" x="291.597656"/>
      <use xlink:href="#DejaVuSans-42" x="377.876953"/>
      <use xlink:href="#DejaVuSans-54" x="446.480469"/>
      <use xlink:href="#DejaVuSans-4c" x="507.564453"/>
      <use xlink:href="#DejaVuSans-20" x="563.277344"/>
      <use xlink:href="#DejaVuSans-28" x="595.064453"/>
      <use xlink:href="#DejaVuSans-4f" x="634.078125"/>
      <use xlink:href="#DejaVuSans-75" x="712.789062"/>
      <use xlink:href="#DejaVuSans-72" x="776.167969"/>
      <use xlink:href="#DejaVuSans-73" x="817.28125"/>
      <use xlink:href="#DejaVuSans-29" x="869.380859"/>
     </g>
    </g>
    <g id="line2d_48">
     <path d="M 342.391563 316.5125 
L 358.391563 316.5125 
L 374.391563 316.5125 
" style="fill: none; stroke-dasharray: 11.1,4.8; stroke-dashoffset: 0; stroke: #666666; stroke-width: 3"/>
    </g>
    <g id="text_17">
     <!-- Myopic Oracle -->
     <g transform="translate(387.191563 322.1125) scale(0.16 -0.16)">
      <defs>
       <path id="DejaVuSans-79" d="M 2059 -325 
Q 1816 -950 1584 -1140 
Q 1353 -1331 966 -1331 
L 506 -1331 
L 506 -850 
L 844 -850 
Q 1081 -850 1212 -737 
Q 1344 -625 1503 -206 
L 1606 56 
L 191 3500 
L 800 3500 
L 1894 763 
L 2988 3500 
L 3597 3500 
L 2059 -325 
z
" transform="scale(0.015625)"/>
      </defs>
      <use xlink:href="#DejaVuSans-4d"/>
      <use xlink:href="#DejaVuSans-79" x="86.279297"/>
      <use xlink:href="#DejaVuSans-6f" x="145.458984"/>
      <use xlink:href="#DejaVuSans-70" x="206.640625"/>
      <use xlink:href="#DejaVuSans-69" x="270.117188"/>
      <use xlink:href="#DejaVuSans-63" x="297.900391"/>
      <use xlink:href="#DejaVuSans-20" x="352.880859"/>
      <use xlink:href="#DejaVuSans-4f" x="384.667969"/>
      <use xlink:href="#DejaVuSans-72" x="463.378906"/>
      <use xlink:href="#DejaVuSans-61" x="504.492188"/>
      <use xlink:href="#DejaVuSans-63" x="565.771484"/>
      <use xlink:href="#DejaVuSans-6c" x="620.751953"/>
      <use xlink:href="#DejaVuSans-65" x="648.535156"/>
     </g>
    </g>
   </g>
  </g>
 </g>
 <defs>
  <clipPath id="pb677257cbc">
   <rect x="69.019063" y="7.2" width="502.2" height="332.64"/>
  </clipPath>
 </defs>
</svg>
