<?xml version="1.0" encoding="utf-8" standalone="no"?>
<!DOCTYPE svg PUBLIC "-//W3C//DTD SVG 1.1//EN"
  "http://www.w3.org/Graphics/SVG/1.1/DTD/svg11.dtd">
<svg xmlns:xlink="http://www.w3.org/1999/xlink" width="580.270625pt" height="393.392066pt" viewBox="0 0 580.270625 393.392066" xmlns="http://www.w3.org/2000/svg" version="1.1">
 <metadata>
  <rdf:RDF xmlns:dc="http://purl.org/dc/elements/1.1/" xmlns:cc="http://creativecommons.org/ns#" xmlns:rdf="http://www.w3.org/1999/02/22-rdf-syntax-ns#">
   <cc:Work>
    <dc:type rdf:resource="http://purl.org/dc/dcmitype/StillImage"/>
    <dc:date>2025-05-15T23:47:10.348475</dc:date>
    <dc:format>image/svg+xml</dc:format>
    <dc:creator>
     <cc:Agent>
      <dc:title>Matplotlib v3.9.4, https://matplotlib.org/</dc:title>
     </cc:Agent>
    </dc:creator>
   </cc:Work>
  </rdf:RDF>
 </metadata>
 <defs>
  <style type="text/css">*{stroke-linejoin: round; stroke-linecap: butt}</style>
 </defs>
 <g id="figure_1">
  <g id="patch_1">
   <path d="M -0 393.392066 
L 580.270625 393.392066 
L 580.270625 0 
L -0 0 
z
" style="fill: #ffffff"/>
  </g>
  <g id="axes_1">
   <g id="patch_2">
    <path d="M 70.870625 343.254253 
L 573.070625 343.254253 
L 573.070625 10.614253 
L 70.870625 10.614253 
z
" style="fill: #ffffff"/>
   </g>
   <g id="PolyCollection_1">
    <path d="M 93.697898 227.48367 
L 93.697898 66936.00167 
L 98.309468 166.34187 
L 102.921038 152.059166 
L 107.532608 142.655686 
L 112.144179 135.904538 
L 116.755749 143.074007 
L 121.367319 131.599675 
L 125.978889 112.72502 
L 130.59046 111.272812 
L 135.20203 109.131829 
L 139.8136 107.620759 
L 144.42517 105.828877 
L 149.036741 104.482328 
L 153.648311 103.371275 
L 158.259881 102.24148 
L 162.871451 100.95098 
L 167.483022 99.9267 
L 172.094592 99.125224 
L 176.706162 98.39539 
L 181.317732 97.563732 
L 185.929303 96.729695 
L 190.540873 95.956086 
L 195.152443 95.282997 
L 199.764013 94.750379 
L 204.375584 94.204832 
L 208.987154 93.772268 
L 213.598724 93.248264 
L 218.210294 92.751119 
L 222.821865 92.222706 
L 227.433435 91.698679 
L 232.045005 91.251573 
L 236.656575 90.59142 
L 241.268146 90.195068 
L 245.879716 89.799778 
L 250.491286 89.445056 
L 255.102856 88.93979 
L 259.714427 88.637427 
L 264.325997 88.113496 
L 268.937567 87.742031 
L 273.549137 87.483166 
L 278.160708 87.129987 
L 282.772278 86.789224 
L 287.383848 86.577556 
L 291.995418 86.310826 
L 296.606989 86.024508 
L 301.218559 85.732361 
L 305.830129 85.578191 
L 310.441699 85.278038 
L 315.05327 85.035519 
L 319.66484 84.900723 
L 324.27641 84.432232 
L 328.88798 83.965541 
L 333.499551 83.609231 
L 338.111121 83.090554 
L 342.722691 83.019641 
L 347.334261 82.827064 
L 351.945832 82.743325 
L 356.557402 82.62564 
L 361.168972 82.575195 
L 365.780542 82.612858 
L 370.392113 82.546816 
L 375.003683 82.561537 
L 379.615253 82.422196 
L 384.226823 82.294185 
L 388.838394 82.174208 
L 393.449964 82.221769 
L 398.061534 82.134768 
L 402.673104 82.058669 
L 407.284675 82.022228 
L 411.896245 81.897061 
L 416.507815 81.873471 
L 421.119385 81.839324 
L 425.730956 81.754602 
L 430.342526 81.693555 
L 434.954096 81.67278 
L 439.565666 81.484491 
L 444.177237 81.454328 
L 448.788807 81.32113 
L 453.400377 81.047466 
L 458.011947 80.800541 
L 462.623518 80.531707 
L 467.235088 80.369173 
L 471.846658 80.049293 
L 476.458228 79.752776 
L 481.069799 79.433787 
L 485.681369 79.142993 
L 490.292939 78.815867 
L 494.904509 78.51268 
L 499.51608 78.237088 
L 504.12765 77.993886 
L 508.73922 77.736645 
L 513.35079 77.303384 
L 517.962361 77.064813 
L 522.573931 76.707663 
L 527.185501 76.326575 
L 531.797071 75.988294 
L 536.408642 75.727383 
L 541.020212 75.435687 
L 545.631782 74.977297 
L 550.243352 74.572331 
L 550.243352 51.831001 
L 550.243352 51.831001 
L 545.631782 52.092982 
L 541.020212 52.319579 
L 536.408642 52.576942 
L 531.797071 52.865835 
L 527.185501 53.146614 
L 522.573931 53.47097 
L 517.962361 53.752163 
L 513.35079 54.09389 
L 508.73922 54.426313 
L 504.12765 54.780357 
L 499.51608 55.100236 
L 494.904509 55.492559 
L 490.292939 55.789423 
L 485.681369 56.176114 
L 481.069799 56.491454 
L 476.458228 56.820217 
L 471.846658 57.176186 
L 467.235088 57.529563 
L 462.623518 57.965283 
L 458.011947 58.338352 
L 453.400377 58.809871 
L 448.788807 59.276981 
L 444.177237 59.70444 
L 439.565666 60.221941 
L 434.954096 60.667098 
L 430.342526 61.132681 
L 425.730956 61.615333 
L 421.119385 62.061123 
L 416.507815 62.502583 
L 411.896245 62.979522 
L 407.284675 63.348561 
L 402.673104 63.849709 
L 398.061534 64.247105 
L 393.449964 64.720126 
L 388.838394 65.323463 
L 384.226823 65.764039 
L 379.615253 66.223908 
L 375.003683 66.587512 
L 370.392113 67.114182 
L 365.780542 67.549065 
L 361.168972 68.051839 
L 356.557402 68.564579 
L 351.945832 69.048696 
L 347.334261 69.543772 
L 342.722691 69.984585 
L 338.111121 70.492183 
L 333.499551 71.233228 
L 328.88798 71.927229 
L 324.27641 72.495205 
L 319.66484 73.163569 
L 315.05327 73.61273 
L 310.441699 74.098657 
L 305.830129 74.668879 
L 301.218559 75.077681 
L 296.606989 75.431654 
L 291.995418 75.992952 
L 287.383848 76.412722 
L 282.772278 76.865543 
L 278.160708 77.332309 
L 273.549137 77.80537 
L 268.937567 78.240905 
L 264.325997 78.754686 
L 259.714427 79.329174 
L 255.102856 79.727198 
L 250.491286 80.380386 
L 245.879716 80.806945 
L 241.268146 81.243385 
L 236.656575 81.792469 
L 232.045005 82.360003 
L 227.433435 82.854856 
L 222.821865 83.320424 
L 218.210294 83.739372 
L 213.598724 84.151757 
L 208.987154 84.645186 
L 204.375584 85.092088 
L 199.764013 85.559472 
L 195.152443 86.113682 
L 190.540873 86.666337 
L 185.929303 87.179456 
L 181.317732 87.701012 
L 176.706162 88.346515 
L 172.094592 88.782113 
L 167.483022 89.415302 
L 162.871451 90.132714 
L 158.259881 90.951179 
L 153.648311 91.733213 
L 149.036741 92.457363 
L 144.42517 93.366439 
L 139.8136 94.309419 
L 135.20203 95.211331 
L 130.59046 96.253573 
L 125.978889 96.872734 
L 121.367319 104.011848 
L 116.755749 110.081204 
L 112.144179 134.000197 
L 107.532608 140.244337 
L 102.921038 148.711965 
L 98.309468 160.911651 
L 93.697898 227.48367 
z
" clip-path="url(#p809032eb30)" style="fill: #386cb0; fill-opacity: 0.1; stroke: #386cb0; stroke-opacity: 0.1"/>
   </g>
   <g id="PolyCollection_2">
    <defs>
     <path id="maebe79ac0d" d="M 93.697898 -119.108215 
L 93.697898 -65.257812 
L 98.309468 -227.196445 
L 102.921038 -241.385995 
L 107.532608 -250.760649 
L 112.144179 -257.514298 
L 116.755749 -263.118195 
L 121.367319 -268.488374 
L 125.978889 -271.389818 
L 130.59046 -273.964034 
L 135.20203 -275.835814 
L 139.8136 -277.973835 
L 144.42517 -279.588634 
L 149.036741 -281.321739 
L 153.648311 -282.794135 
L 158.259881 -284.15599 
L 162.871451 -286.02162 
L 167.483022 -287.199349 
L 172.094592 -287.987042 
L 176.706162 -289.067854 
L 181.317732 -289.922129 
L 185.929303 -290.86755 
L 190.540873 -291.928182 
L 195.152443 -292.551581 
L 199.764013 -293.108052 
L 204.375584 -293.702698 
L 208.987154 -294.150875 
L 213.598724 -294.72608 
L 218.210294 -295.470859 
L 222.821865 -296.349305 
L 227.433435 -296.876217 
L 232.045005 -297.385872 
L 236.656575 -298.299878 
L 241.268146 -298.897162 
L 245.879716 -299.582742 
L 250.491286 -300.10424 
L 255.102856 -300.469357 
L 259.714427 -300.838962 
L 264.325997 -301.419638 
L 268.937567 -301.918572 
L 273.549137 -302.291602 
L 278.160708 -302.812126 
L 282.772278 -303.373115 
L 287.383848 -303.632863 
L 291.995418 -304.123005 
L 296.606989 -304.411488 
L 301.218559 -304.727223 
L 305.830129 -305.078 
L 310.441699 -305.590282 
L 315.05327 -305.982582 
L 319.66484 -306.187236 
L 324.27641 -306.631954 
L 328.88798 -307.038024 
L 333.499551 -307.309501 
L 338.111121 -307.605002 
L 342.722691 -307.821748 
L 347.334261 -308.267196 
L 351.945832 -308.605632 
L 356.557402 -308.888699 
L 361.168972 -308.976579 
L 365.780542 -309.081674 
L 370.392113 -309.187984 
L 375.003683 -309.309662 
L 379.615253 -309.442505 
L 384.226823 -309.648258 
L 388.838394 -309.772049 
L 393.449964 -309.897347 
L 398.061534 -310.0568 
L 402.673104 -310.247849 
L 407.284675 -310.417431 
L 411.896245 -310.540803 
L 416.507815 -310.714937 
L 421.119385 -310.838102 
L 425.730956 -310.964957 
L 430.342526 -311.071671 
L 434.954096 -311.195895 
L 439.565666 -311.34349 
L 444.177237 -311.471026 
L 448.788807 -311.633961 
L 453.400377 -311.745371 
L 458.011947 -311.94544 
L 462.623518 -312.147107 
L 467.235088 -312.327318 
L 471.846658 -312.510718 
L 476.458228 -312.712354 
L 481.069799 -312.954852 
L 485.681369 -313.123436 
L 490.292939 -313.288971 
L 494.904509 -313.381975 
L 499.51608 -313.512865 
L 504.12765 -313.663292 
L 508.73922 -313.812508 
L 513.35079 -313.959946 
L 517.962361 -314.111673 
L 522.573931 -314.282994 
L 527.185501 -314.436927 
L 531.797071 -314.590082 
L 536.408642 -314.722273 
L 541.020212 -314.85854 
L 545.631782 -315.030568 
L 550.243352 -315.184432 
L 550.243352 -315.502757 
L 550.243352 -315.502757 
L 545.631782 -315.349686 
L 541.020212 -315.178194 
L 536.408642 -315.042843 
L 531.797071 -314.910376 
L 527.185501 -314.757835 
L 522.573931 -314.604625 
L 517.962361 -314.434417 
L 513.35079 -314.283521 
L 508.73922 -314.137065 
L 504.12765 -313.987957 
L 499.51608 -313.838276 
L 494.904509 -313.708121 
L 490.292939 -313.615702 
L 485.681369 -313.451629 
L 481.069799 -313.28388 
L 476.458228 -313.042647 
L 471.846658 -312.842137 
L 467.235088 -312.660071 
L 462.623518 -312.481515 
L 458.011947 -312.281212 
L 453.400377 -312.08231 
L 448.788807 -311.971578 
L 444.177237 -311.80938 
L 439.565666 -311.682835 
L 434.954096 -311.536739 
L 430.342526 -311.413241 
L 425.730956 -311.307039 
L 421.119385 -311.181066 
L 416.507815 -311.058614 
L 411.896245 -310.88539 
L 407.284675 -310.762737 
L 402.673104 -310.594067 
L 398.061534 -310.403047 
L 393.449964 -310.244582 
L 388.838394 -310.120254 
L 384.226823 -309.996557 
L 379.615253 -309.792157 
L 375.003683 -309.660358 
L 370.392113 -309.539111 
L 365.780542 -309.432911 
L 361.168972 -309.32801 
L 356.557402 -309.240752 
L 351.945832 -308.959089 
L 347.334261 -308.622584 
L 342.722691 -308.180152 
L 338.111121 -307.964785 
L 333.499551 -307.670664 
L 328.88798 -307.401375 
L 324.27641 -306.999205 
L 319.66484 -306.558497 
L 315.05327 -306.355824 
L 310.441699 -305.966978 
L 305.830129 -305.45914 
L 301.218559 -305.111436 
L 296.606989 -304.797903 
L 291.995418 -304.511705 
L 287.383848 -304.026162 
L 282.772278 -303.768658 
L 278.160708 -303.212341 
L 273.549137 -302.696116 
L 268.937567 -302.326033 
L 264.325997 -301.832313 
L 259.714427 -301.25738 
L 255.102856 -300.890839 
L 250.491286 -300.528525 
L 245.879716 -300.011256 
L 241.268146 -299.331721 
L 236.656575 -298.740718 
L 232.045005 -297.836231 
L 227.433435 -297.331625 
L 222.821865 -296.810498 
L 218.210294 -295.941238 
L 213.598724 -295.203991 
L 208.987154 -294.635949 
L 204.375584 -294.193028 
L 199.764013 -293.606635 
L 195.152443 -293.06013 
L 190.540873 -292.443691 
L 185.929303 -291.397397 
L 181.317732 -290.464379 
L 176.706162 -289.62213 
L 172.094592 -288.55682 
L 167.483022 -287.78314 
L 162.871451 -286.625525 
L 158.259881 -284.787064 
L 153.648311 -283.448027 
L 149.036741 -282.004972 
L 144.42517 -280.312233 
L 139.8136 -278.738391 
L 135.20203 -276.65761 
L 130.59046 -274.847354 
L 125.978889 -272.359227 
L 121.367319 -269.564114 
L 116.755749 -264.420888 
L 112.144179 -259.125636 
L 107.532608 -252.838515 
L 102.921038 -244.286658 
L 98.309468 -231.900729 
L 93.697898 -119.108215 
z
" style="stroke: #f0027f; stroke-opacity: 0.1"/>
    </defs>
    <g clip-path="url(#p809032eb30)">
     <use xlink:href="#maebe79ac0d" x="0" y="393.392066" style="fill: #f0027f; fill-opacity: 0.1; stroke: #f0027f; stroke-opacity: 0.1"/>
    </g>
   </g>
   <g id="PolyCollection_3">
    <defs>
     <path id="m2d7b40ad49" d="M 93.697898 -270.021459 
L 93.697898 -263.865059 
L 98.309468 -273.605839 
L 102.921038 -280.603294 
L 107.532608 -286.582144 
L 112.144179 -292.196965 
L 116.755749 -302.942574 
L 121.367319 -307.07844 
L 125.978889 -309.876891 
L 130.59046 -312.020764 
L 135.20203 -314.16557 
L 139.8136 -316.216998 
L 144.42517 -317.696938 
L 149.036741 -319.001006 
L 153.648311 -320.291597 
L 158.259881 -321.356441 
L 162.871451 -322.221737 
L 167.483022 -322.929459 
L 172.094592 -323.769017 
L 176.706162 -324.572678 
L 181.317732 -325.255497 
L 185.929303 -325.952982 
L 190.540873 -326.532035 
L 195.152443 -327.189703 
L 199.764013 -327.768127 
L 204.375584 -328.319814 
L 208.987154 -328.887459 
L 213.598724 -329.404637 
L 218.210294 -329.90855 
L 222.821865 -330.442017 
L 227.433435 -331.022313 
L 232.045005 -331.603159 
L 236.656575 -332.170225 
L 241.268146 -332.712878 
L 245.879716 -333.261365 
L 250.491286 -333.801999 
L 255.102856 -334.282242 
L 259.714427 -334.765836 
L 264.325997 -335.300553 
L 268.937567 -335.789635 
L 273.549137 -336.277183 
L 278.160708 -336.769813 
L 282.772278 -337.227103 
L 287.383848 -337.697561 
L 291.995418 -338.166447 
L 296.606989 -338.622633 
L 301.218559 -339.088622 
L 305.830129 -339.555074 
L 310.441699 -340.007284 
L 315.05327 -340.481301 
L 319.66484 -340.923575 
L 324.27641 -341.42706 
L 328.88798 -341.95165 
L 333.499551 -342.481034 
L 338.111121 -342.982347 
L 342.722691 -343.539927 
L 347.334261 -344.043948 
L 351.945832 -344.535575 
L 356.557402 -345.022517 
L 361.168972 -345.528119 
L 365.780542 -346.04271 
L 370.392113 -346.552216 
L 375.003683 -347.036583 
L 379.615253 -347.500809 
L 384.226823 -347.95576 
L 388.838394 -348.419736 
L 393.449964 -348.874253 
L 398.061534 -349.354651 
L 402.673104 -349.813494 
L 407.284675 -350.269988 
L 411.896245 -350.707884 
L 416.507815 -351.124504 
L 421.119385 -351.580885 
L 425.730956 -352.052266 
L 430.342526 -352.523069 
L 434.954096 -352.988128 
L 439.565666 -353.520635 
L 444.177237 -354.080784 
L 448.788807 -354.597474 
L 453.400377 -355.10587 
L 458.011947 -355.633736 
L 462.623518 -356.1202 
L 467.235088 -356.599154 
L 471.846658 -357.087491 
L 476.458228 -357.572312 
L 481.069799 -358.057177 
L 485.681369 -358.517441 
L 490.292939 -358.995132 
L 494.904509 -359.45602 
L 499.51608 -359.91221 
L 504.12765 -360.359533 
L 508.73922 -360.825395 
L 513.35079 -361.280049 
L 517.962361 -361.712438 
L 522.573931 -362.153312 
L 527.185501 -362.584981 
L 531.797071 -363.016082 
L 536.408642 -363.435411 
L 541.020212 -363.84594 
L 545.631782 -364.276605 
L 550.243352 -364.670145 
L 550.243352 -367.657813 
L 550.243352 -367.657813 
L 545.631782 -367.281504 
L 541.020212 -366.914531 
L 536.408642 -366.512882 
L 531.797071 -366.104245 
L 527.185501 -365.713399 
L 522.573931 -365.322071 
L 517.962361 -364.913979 
L 513.35079 -364.499928 
L 508.73922 -364.066205 
L 504.12765 -363.653107 
L 499.51608 -363.220951 
L 494.904509 -362.782374 
L 490.292939 -362.333269 
L 485.681369 -361.885267 
L 481.069799 -361.456955 
L 476.458228 -361.040066 
L 471.846658 -360.605882 
L 467.235088 -360.161172 
L 462.623518 -359.693943 
L 458.011947 -359.238005 
L 453.400377 -358.753942 
L 448.788807 -358.260615 
L 444.177237 -357.778044 
L 439.565666 -357.274792 
L 434.954096 -356.762656 
L 430.342526 -356.345548 
L 425.730956 -355.899391 
L 421.119385 -355.450661 
L 416.507815 -355.017126 
L 411.896245 -354.575909 
L 407.284675 -354.130197 
L 402.673104 -353.665259 
L 398.061534 -353.198826 
L 393.449964 -352.755082 
L 388.838394 -352.320392 
L 384.226823 -351.888628 
L 379.615253 -351.454468 
L 375.003683 -351.012443 
L 370.392113 -350.580944 
L 365.780542 -350.12078 
L 361.168972 -349.669393 
L 356.557402 -349.213238 
L 351.945832 -348.717342 
L 347.334261 -348.264967 
L 342.722691 -347.785303 
L 338.111121 -347.287505 
L 333.499551 -346.788367 
L 328.88798 -346.290945 
L 324.27641 -345.785579 
L 319.66484 -345.318376 
L 315.05327 -344.88159 
L 310.441699 -344.477338 
L 305.830129 -344.08304 
L 301.218559 -343.637834 
L 296.606989 -343.207111 
L 291.995418 -342.771873 
L 287.383848 -342.335888 
L 282.772278 -341.932789 
L 278.160708 -341.467762 
L 273.549137 -341.025353 
L 268.937567 -340.525246 
L 264.325997 -340.051618 
L 259.714427 -339.612778 
L 255.102856 -339.087295 
L 250.491286 -338.681453 
L 245.879716 -338.133344 
L 241.268146 -337.677301 
L 236.656575 -337.165126 
L 232.045005 -336.749889 
L 227.433435 -336.21739 
L 222.821865 -335.690978 
L 218.210294 -335.201182 
L 213.598724 -334.705052 
L 208.987154 -334.216003 
L 204.375584 -333.730096 
L 199.764013 -333.221637 
L 195.152443 -332.737434 
L 190.540873 -332.092045 
L 185.929303 -331.570107 
L 181.317732 -330.883675 
L 176.706162 -330.306137 
L 172.094592 -329.648581 
L 167.483022 -328.832889 
L 162.871451 -327.752093 
L 158.259881 -326.79461 
L 153.648311 -325.748386 
L 149.036741 -324.496173 
L 144.42517 -322.602313 
L 139.8136 -320.994721 
L 135.20203 -318.992309 
L 130.59046 -317.00332 
L 125.978889 -314.71727 
L 121.367319 -312.251027 
L 116.755749 -309.961575 
L 112.144179 -306.834767 
L 107.532608 -290.073474 
L 102.921038 -284.987517 
L 98.309468 -278.138214 
L 93.697898 -270.021459 
z
" style="stroke: #bf5b17; stroke-opacity: 0.1"/>
    </defs>
    <g clip-path="url(#p809032eb30)">
     <use xlink:href="#m2d7b40ad49" x="0" y="393.392066" style="fill: #bf5b17; fill-opacity: 0.1; stroke: #bf5b17; stroke-opacity: 0.1"/>
    </g>
   </g>
   <g id="matplotlib.axis_1">
    <g id="xtick_1">
     <g id="line2d_1">
      <path d="M 89.086327 343.254253 
L 89.086327 10.614253 
" clip-path="url(#p809032eb30)" style="fill: none; stroke-dasharray: 1.85,0.8; stroke-dashoffset: 0; stroke: #b0b0b0; stroke-width: 0.5"/>
     </g>
     <g id="line2d_2">
      <defs>
       <path id="m2fff57bbc2" d="M 0 0 
L 0 3.5 
" style="stroke: #000000; stroke-width: 0.8"/>
      </defs>
      <g>
       <use xlink:href="#m2fff57bbc2" x="89.086327" y="343.254253" style="stroke: #000000; stroke-width: 0.8"/>
      </g>
     </g>
     <g id="text_1">
      <!-- 0 -->
      <g transform="translate(84.314452 361.651909) scale(0.15 -0.15)">
       <defs>
        <path id="DejaVuSans-30" d="M 2034 4250 
Q 1547 4250 1301 3770 
Q 1056 3291 1056 2328 
Q 1056 1369 1301 889 
Q 1547 409 2034 409 
Q 2525 409 2770 889 
Q 3016 1369 3016 2328 
Q 3016 3291 2770 3770 
Q 2525 4250 2034 4250 
z
M 2034 4750 
Q 2819 4750 3233 4129 
Q 3647 3509 3647 2328 
Q 3647 1150 3233 529 
Q 2819 -91 2034 -91 
Q 1250 -91 836 529 
Q 422 1150 422 2328 
Q 422 3509 836 4129 
Q 1250 4750 2034 4750 
z
" transform="scale(0.015625)"/>
       </defs>
       <use xlink:href="#DejaVuSans-30"/>
      </g>
     </g>
    </g>
    <g id="xtick_2">
     <g id="line2d_3">
      <path d="M 181.317732 343.254253 
L 181.317732 10.614253 
" clip-path="url(#p809032eb30)" style="fill: none; stroke-dasharray: 1.85,0.8; stroke-dashoffset: 0; stroke: #b0b0b0; stroke-width: 0.5"/>
     </g>
     <g id="line2d_4">
      <g>
       <use xlink:href="#m2fff57bbc2" x="181.317732" y="343.254253" style="stroke: #000000; stroke-width: 0.8"/>
      </g>
     </g>
     <g id="text_2">
      <!-- 20 -->
      <g transform="translate(171.773982 361.651909) scale(0.15 -0.15)">
       <defs>
        <path id="DejaVuSans-32" d="M 1228 531 
L 3431 531 
L 3431 0 
L 469 0 
L 469 531 
Q 828 903 1448 1529 
Q 2069 2156 2228 2338 
Q 2531 2678 2651 2914 
Q 2772 3150 2772 3378 
Q 2772 3750 2511 3984 
Q 2250 4219 1831 4219 
Q 1534 4219 1204 4116 
Q 875 4013 500 3803 
L 500 4441 
Q 881 4594 1212 4672 
Q 1544 4750 1819 4750 
Q 2544 4750 2975 4387 
Q 3406 4025 3406 3419 
Q 3406 3131 3298 2873 
Q 3191 2616 2906 2266 
Q 2828 2175 2409 1742 
Q 1991 1309 1228 531 
z
" transform="scale(0.015625)"/>
       </defs>
       <use xlink:href="#DejaVuSans-32"/>
       <use xlink:href="#DejaVuSans-30" x="63.623047"/>
      </g>
     </g>
    </g>
    <g id="xtick_3">
     <g id="line2d_5">
      <path d="M 273.549137 343.254253 
L 273.549137 10.614253 
" clip-path="url(#p809032eb30)" style="fill: none; stroke-dasharray: 1.85,0.8; stroke-dashoffset: 0; stroke: #b0b0b0; stroke-width: 0.5"/>
     </g>
     <g id="line2d_6">
      <g>
       <use xlink:href="#m2fff57bbc2" x="273.549137" y="343.254253" style="stroke: #000000; stroke-width: 0.8"/>
      </g>
     </g>
     <g id="text_3">
      <!-- 40 -->
      <g transform="translate(264.005387 361.651909) scale(0.15 -0.15)">
       <defs>
        <path id="DejaVuSans-34" d="M 2419 4116 
L 825 1625 
L 2419 1625 
L 2419 4116 
z
M 2253 4666 
L 3047 4666 
L 3047 1625 
L 3713 1625 
L 3713 1100 
L 3047 1100 
L 3047 0 
L 2419 0 
L 2419 1100 
L 313 1100 
L 313 1709 
L 2253 4666 
z
" transform="scale(0.015625)"/>
       </defs>
       <use xlink:href="#DejaVuSans-34"/>
       <use xlink:href="#DejaVuSans-30" x="63.623047"/>
      </g>
     </g>
    </g>
    <g id="xtick_4">
     <g id="line2d_7">
      <path d="M 365.780542 343.254253 
L 365.780542 10.614253 
" clip-path="url(#p809032eb30)" style="fill: none; stroke-dasharray: 1.85,0.8; stroke-dashoffset: 0; stroke: #b0b0b0; stroke-width: 0.5"/>
     </g>
     <g id="line2d_8">
      <g>
       <use xlink:href="#m2fff57bbc2" x="365.780542" y="343.254253" style="stroke: #000000; stroke-width: 0.8"/>
      </g>
     </g>
     <g id="text_4">
      <!-- 60 -->
      <g transform="translate(356.236792 361.651909) scale(0.15 -0.15)">
       <defs>
        <path id="DejaVuSans-36" d="M 2113 2584 
Q 1688 2584 1439 2293 
Q 1191 2003 1191 1497 
Q 1191 994 1439 701 
Q 1688 409 2113 409 
Q 2538 409 2786 701 
Q 3034 994 3034 1497 
Q 3034 2003 2786 2293 
Q 2538 2584 2113 2584 
z
M 3366 4563 
L 3366 3988 
Q 3128 4100 2886 4159 
Q 2644 4219 2406 4219 
Q 1781 4219 1451 3797 
Q 1122 3375 1075 2522 
Q 1259 2794 1537 2939 
Q 1816 3084 2150 3084 
Q 2853 3084 3261 2657 
Q 3669 2231 3669 1497 
Q 3669 778 3244 343 
Q 2819 -91 2113 -91 
Q 1303 -91 875 529 
Q 447 1150 447 2328 
Q 447 3434 972 4092 
Q 1497 4750 2381 4750 
Q 2619 4750 2861 4703 
Q 3103 4656 3366 4563 
z
" transform="scale(0.015625)"/>
       </defs>
       <use xlink:href="#DejaVuSans-36"/>
       <use xlink:href="#DejaVuSans-30" x="63.623047"/>
      </g>
     </g>
    </g>
    <g id="xtick_5">
     <g id="line2d_9">
      <path d="M 458.011947 343.254253 
L 458.011947 10.614253 
" clip-path="url(#p809032eb30)" style="fill: none; stroke-dasharray: 1.85,0.8; stroke-dashoffset: 0; stroke: #b0b0b0; stroke-width: 0.5"/>
     </g>
     <g id="line2d_10">
      <g>
       <use xlink:href="#m2fff57bbc2" x="458.011947" y="343.254253" style="stroke: #000000; stroke-width: 0.8"/>
      </g>
     </g>
     <g id="text_5">
      <!-- 80 -->
      <g transform="translate(448.468197 361.651909) scale(0.15 -0.15)">
       <defs>
        <path id="DejaVuSans-38" d="M 2034 2216 
Q 1584 2216 1326 1975 
Q 1069 1734 1069 1313 
Q 1069 891 1326 650 
Q 1584 409 2034 409 
Q 2484 409 2743 651 
Q 3003 894 3003 1313 
Q 3003 1734 2745 1975 
Q 2488 2216 2034 2216 
z
M 1403 2484 
Q 997 2584 770 2862 
Q 544 3141 544 3541 
Q 544 4100 942 4425 
Q 1341 4750 2034 4750 
Q 2731 4750 3128 4425 
Q 3525 4100 3525 3541 
Q 3525 3141 3298 2862 
Q 3072 2584 2669 2484 
Q 3125 2378 3379 2068 
Q 3634 1759 3634 1313 
Q 3634 634 3220 271 
Q 2806 -91 2034 -91 
Q 1263 -91 848 271 
Q 434 634 434 1313 
Q 434 1759 690 2068 
Q 947 2378 1403 2484 
z
M 1172 3481 
Q 1172 3119 1398 2916 
Q 1625 2713 2034 2713 
Q 2441 2713 2670 2916 
Q 2900 3119 2900 3481 
Q 2900 3844 2670 4047 
Q 2441 4250 2034 4250 
Q 1625 4250 1398 4047 
Q 1172 3844 1172 3481 
z
" transform="scale(0.015625)"/>
       </defs>
       <use xlink:href="#DejaVuSans-38"/>
       <use xlink:href="#DejaVuSans-30" x="63.623047"/>
      </g>
     </g>
    </g>
    <g id="xtick_6">
     <g id="line2d_11">
      <path d="M 550.243352 343.254253 
L 550.243352 10.614253 
" clip-path="url(#p809032eb30)" style="fill: none; stroke-dasharray: 1.85,0.8; stroke-dashoffset: 0; stroke: #b0b0b0; stroke-width: 0.5"/>
     </g>
     <g id="line2d_12">
      <g>
       <use xlink:href="#m2fff57bbc2" x="550.243352" y="343.254253" style="stroke: #000000; stroke-width: 0.8"/>
      </g>
     </g>
     <g id="text_6">
      <!-- 100 -->
      <g transform="translate(535.927727 361.651909) scale(0.15 -0.15)">
       <defs>
        <path id="DejaVuSans-31" d="M 794 531 
L 1825 531 
L 1825 4091 
L 703 3866 
L 703 4441 
L 1819 4666 
L 2450 4666 
L 2450 531 
L 3481 531 
L 3481 0 
L 794 0 
L 794 531 
z
" transform="scale(0.015625)"/>
       </defs>
       <use xlink:href="#DejaVuSans-31"/>
       <use xlink:href="#DejaVuSans-30" x="63.623047"/>
       <use xlink:href="#DejaVuSans-30" x="127.246094"/>
      </g>
     </g>
    </g>
    <g id="text_7">
     <!-- Decision Round -->
     <g transform="translate(252.317656 382.448628) scale(0.18 -0.18)">
      <defs>
       <path id="DejaVuSans-44" d="M 1259 4147 
L 1259 519 
L 2022 519 
Q 2988 519 3436 956 
Q 3884 1394 3884 2338 
Q 3884 3275 3436 3711 
Q 2988 4147 2022 4147 
L 1259 4147 
z
M 628 4666 
L 1925 4666 
Q 3281 4666 3915 4102 
Q 4550 3538 4550 2338 
Q 4550 1131 3912 565 
Q 3275 0 1925 0 
L 628 0 
L 628 4666 
z
" transform="scale(0.015625)"/>
       <path id="DejaVuSans-65" d="M 3597 1894 
L 3597 1613 
L 953 1613 
Q 991 1019 1311 708 
Q 1631 397 2203 397 
Q 2534 397 2845 478 
Q 3156 559 3463 722 
L 3463 178 
Q 3153 47 2828 -22 
Q 2503 -91 2169 -91 
Q 1331 -91 842 396 
Q 353 884 353 1716 
Q 353 2575 817 3079 
Q 1281 3584 2069 3584 
Q 2775 3584 3186 3129 
Q 3597 2675 3597 1894 
z
M 3022 2063 
Q 3016 2534 2758 2815 
Q 2500 3097 2075 3097 
Q 1594 3097 1305 2825 
Q 1016 2553 972 2059 
L 3022 2063 
z
" transform="scale(0.015625)"/>
       <path id="DejaVuSans-63" d="M 3122 3366 
L 3122 2828 
Q 2878 2963 2633 3030 
Q 2388 3097 2138 3097 
Q 1578 3097 1268 2742 
Q 959 2388 959 1747 
Q 959 1106 1268 751 
Q 1578 397 2138 397 
Q 2388 397 2633 464 
Q 2878 531 3122 666 
L 3122 134 
Q 2881 22 2623 -34 
Q 2366 -91 2075 -91 
Q 1284 -91 818 406 
Q 353 903 353 1747 
Q 353 2603 823 3093 
Q 1294 3584 2113 3584 
Q 2378 3584 2631 3529 
Q 2884 3475 3122 3366 
z
" transform="scale(0.015625)"/>
       <path id="DejaVuSans-69" d="M 603 3500 
L 1178 3500 
L 1178 0 
L 603 0 
L 603 3500 
z
M 603 4863 
L 1178 4863 
L 1178 4134 
L 603 4134 
L 603 4863 
z
" transform="scale(0.015625)"/>
       <path id="DejaVuSans-73" d="M 2834 3397 
L 2834 2853 
Q 2591 2978 2328 3040 
Q 2066 3103 1784 3103 
Q 1356 3103 1142 2972 
Q 928 2841 928 2578 
Q 928 2378 1081 2264 
Q 1234 2150 1697 2047 
L 1894 2003 
Q 2506 1872 2764 1633 
Q 3022 1394 3022 966 
Q 3022 478 2636 193 
Q 2250 -91 1575 -91 
Q 1294 -91 989 -36 
Q 684 19 347 128 
L 347 722 
Q 666 556 975 473 
Q 1284 391 1588 391 
Q 1994 391 2212 530 
Q 2431 669 2431 922 
Q 2431 1156 2273 1281 
Q 2116 1406 1581 1522 
L 1381 1569 
Q 847 1681 609 1914 
Q 372 2147 372 2553 
Q 372 3047 722 3315 
Q 1072 3584 1716 3584 
Q 2034 3584 2315 3537 
Q 2597 3491 2834 3397 
z
" transform="scale(0.015625)"/>
       <path id="DejaVuSans-6f" d="M 1959 3097 
Q 1497 3097 1228 2736 
Q 959 2375 959 1747 
Q 959 1119 1226 758 
Q 1494 397 1959 397 
Q 2419 397 2687 759 
Q 2956 1122 2956 1747 
Q 2956 2369 2687 2733 
Q 2419 3097 1959 3097 
z
M 1959 3584 
Q 2709 3584 3137 3096 
Q 3566 2609 3566 1747 
Q 3566 888 3137 398 
Q 2709 -91 1959 -91 
Q 1206 -91 779 398 
Q 353 888 353 1747 
Q 353 2609 779 3096 
Q 1206 3584 1959 3584 
z
" transform="scale(0.015625)"/>
       <path id="DejaVuSans-6e" d="M 3513 2113 
L 3513 0 
L 2938 0 
L 2938 2094 
Q 2938 2591 2744 2837 
Q 2550 3084 2163 3084 
Q 1697 3084 1428 2787 
Q 1159 2491 1159 1978 
L 1159 0 
L 581 0 
L 581 3500 
L 1159 3500 
L 1159 2956 
Q 1366 3272 1645 3428 
Q 1925 3584 2291 3584 
Q 2894 3584 3203 3211 
Q 3513 2838 3513 2113 
z
" transform="scale(0.015625)"/>
       <path id="DejaVuSans-20" transform="scale(0.015625)"/>
       <path id="DejaVuSans-52" d="M 2841 2188 
Q 3044 2119 3236 1894 
Q 3428 1669 3622 1275 
L 4263 0 
L 3584 0 
L 2988 1197 
Q 2756 1666 2539 1819 
Q 2322 1972 1947 1972 
L 1259 1972 
L 1259 0 
L 628 0 
L 628 4666 
L 2053 4666 
Q 2853 4666 3247 4331 
Q 3641 3997 3641 3322 
Q 3641 2881 3436 2590 
Q 3231 2300 2841 2188 
z
M 1259 4147 
L 1259 2491 
L 2053 2491 
Q 2509 2491 2742 2702 
Q 2975 2913 2975 3322 
Q 2975 3731 2742 3939 
Q 2509 4147 2053 4147 
L 1259 4147 
z
" transform="scale(0.015625)"/>
       <path id="DejaVuSans-75" d="M 544 1381 
L 544 3500 
L 1119 3500 
L 1119 1403 
Q 1119 906 1312 657 
Q 1506 409 1894 409 
Q 2359 409 2629 706 
Q 2900 1003 2900 1516 
L 2900 3500 
L 3475 3500 
L 3475 0 
L 2900 0 
L 2900 538 
Q 2691 219 2414 64 
Q 2138 -91 1772 -91 
Q 1169 -91 856 284 
Q 544 659 544 1381 
z
M 1991 3584 
L 1991 3584 
z
" transform="scale(0.015625)"/>
       <path id="DejaVuSans-64" d="M 2906 2969 
L 2906 4863 
L 3481 4863 
L 3481 0 
L 2906 0 
L 2906 525 
Q 2725 213 2448 61 
Q 2172 -91 1784 -91 
Q 1150 -91 751 415 
Q 353 922 353 1747 
Q 353 2572 751 3078 
Q 1150 3584 1784 3584 
Q 2172 3584 2448 3432 
Q 2725 3281 2906 2969 
z
M 947 1747 
Q 947 1113 1208 752 
Q 1469 391 1925 391 
Q 2381 391 2643 752 
Q 2906 1113 2906 1747 
Q 2906 2381 2643 2742 
Q 2381 3103 1925 3103 
Q 1469 3103 1208 2742 
Q 947 2381 947 1747 
z
" transform="scale(0.015625)"/>
      </defs>
      <use xlink:href="#DejaVuSans-44"/>
      <use xlink:href="#DejaVuSans-65" x="77.001953"/>
      <use xlink:href="#DejaVuSans-63" x="138.525391"/>
      <use xlink:href="#DejaVuSans-69" x="193.505859"/>
      <use xlink:href="#DejaVuSans-73" x="221.289062"/>
      <use xlink:href="#DejaVuSans-69" x="273.388672"/>
      <use xlink:href="#DejaVuSans-6f" x="301.171875"/>
      <use xlink:href="#DejaVuSans-6e" x="362.353516"/>
      <use xlink:href="#DejaVuSans-20" x="425.732422"/>
      <use xlink:href="#DejaVuSans-52" x="457.519531"/>
      <use xlink:href="#DejaVuSans-6f" x="522.501953"/>
      <use xlink:href="#DejaVuSans-75" x="583.683594"/>
      <use xlink:href="#DejaVuSans-6e" x="647.0625"/>
      <use xlink:href="#DejaVuSans-64" x="710.441406"/>
     </g>
    </g>
   </g>
   <g id="matplotlib.axis_2">
    <g id="ytick_1">
     <g id="line2d_13">
      <path d="M 70.870625 280.056923 
L 573.070625 280.056923 
" clip-path="url(#p809032eb30)" style="fill: none; stroke-dasharray: 1.85,0.8; stroke-dashoffset: 0; stroke: #b0b0b0; stroke-width: 0.5"/>
     </g>
     <g id="line2d_14">
      <defs>
       <path id="m22bde690d2" d="M 0 0 
L -3.5 0 
" style="stroke: #000000; stroke-width: 0.8"/>
      </defs>
      <g>
       <use xlink:href="#m22bde690d2" x="70.870625" y="280.056923" style="stroke: #000000; stroke-width: 0.8"/>
      </g>
     </g>
     <g id="text_8">
      <!-- $\mathdefault{10^{-2}}$ -->
      <g transform="translate(28.620625 285.755751) scale(0.15 -0.15)">
       <defs>
        <path id="DejaVuSans-2212" d="M 678 2272 
L 4684 2272 
L 4684 1741 
L 678 1741 
L 678 2272 
z
" transform="scale(0.015625)"/>
       </defs>
       <use xlink:href="#DejaVuSans-31" transform="translate(0 0.765625)"/>
       <use xlink:href="#DejaVuSans-30" transform="translate(63.623047 0.765625)"/>
       <use xlink:href="#DejaVuSans-2212" transform="translate(128.203125 39.046875) scale(0.7)"/>
       <use xlink:href="#DejaVuSans-32" transform="translate(186.855469 39.046875) scale(0.7)"/>
      </g>
     </g>
    </g>
    <g id="ytick_2">
     <g id="line2d_15">
      <path d="M 70.870625 213.2674 
L 573.070625 213.2674 
" clip-path="url(#p809032eb30)" style="fill: none; stroke-dasharray: 1.85,0.8; stroke-dashoffset: 0; stroke: #b0b0b0; stroke-width: 0.5"/>
     </g>
     <g id="line2d_16">
      <g>
       <use xlink:href="#m22bde690d2" x="70.870625" y="213.2674" style="stroke: #000000; stroke-width: 0.8"/>
      </g>
     </g>
     <g id="text_9">
      <!-- $\mathdefault{10^{-1}}$ -->
      <g transform="translate(28.620625 218.966228) scale(0.15 -0.15)">
       <use xlink:href="#DejaVuSans-31" transform="translate(0 0.684375)"/>
       <use xlink:href="#DejaVuSans-30" transform="translate(63.623047 0.684375)"/>
       <use xlink:href="#DejaVuSans-2212" transform="translate(128.203125 38.965625) scale(0.7)"/>
       <use xlink:href="#DejaVuSans-31" transform="translate(186.855469 38.965625) scale(0.7)"/>
      </g>
     </g>
    </g>
    <g id="ytick_3">
     <g id="line2d_17">
      <path d="M 70.870625 146.477876 
L 573.070625 146.477876 
" clip-path="url(#p809032eb30)" style="fill: none; stroke-dasharray: 1.85,0.8; stroke-dashoffset: 0; stroke: #b0b0b0; stroke-width: 0.5"/>
     </g>
     <g id="line2d_18">
      <g>
       <use xlink:href="#m22bde690d2" x="70.870625" y="146.477876" style="stroke: #000000; stroke-width: 0.8"/>
      </g>
     </g>
     <g id="text_10">
      <!-- $\mathdefault{10^{0}}$ -->
      <g transform="translate(37.470625 152.176704) scale(0.15 -0.15)">
       <use xlink:href="#DejaVuSans-31" transform="translate(0 0.765625)"/>
       <use xlink:href="#DejaVuSans-30" transform="translate(63.623047 0.765625)"/>
       <use xlink:href="#DejaVuSans-30" transform="translate(128.203125 39.046875) scale(0.7)"/>
      </g>
     </g>
    </g>
    <g id="ytick_4">
     <g id="line2d_19">
      <path d="M 70.870625 79.688352 
L 573.070625 79.688352 
" clip-path="url(#p809032eb30)" style="fill: none; stroke-dasharray: 1.85,0.8; stroke-dashoffset: 0; stroke: #b0b0b0; stroke-width: 0.5"/>
     </g>
     <g id="line2d_20">
      <g>
       <use xlink:href="#m22bde690d2" x="70.870625" y="79.688352" style="stroke: #000000; stroke-width: 0.8"/>
      </g>
     </g>
     <g id="text_11">
      <!-- $\mathdefault{10^{1}}$ -->
      <g transform="translate(37.470625 85.38718) scale(0.15 -0.15)">
       <use xlink:href="#DejaVuSans-31" transform="translate(0 0.684375)"/>
       <use xlink:href="#DejaVuSans-30" transform="translate(63.623047 0.684375)"/>
       <use xlink:href="#DejaVuSans-31" transform="translate(128.203125 38.965625) scale(0.7)"/>
      </g>
     </g>
    </g>
    <g id="ytick_5">
     <g id="line2d_21">
      <path d="M 70.870625 12.898828 
L 573.070625 12.898828 
" clip-path="url(#p809032eb30)" style="fill: none; stroke-dasharray: 1.85,0.8; stroke-dashoffset: 0; stroke: #b0b0b0; stroke-width: 0.5"/>
     </g>
     <g id="line2d_22">
      <g>
       <use xlink:href="#m22bde690d2" x="70.870625" y="12.898828" style="stroke: #000000; stroke-width: 0.8"/>
      </g>
     </g>
     <g id="text_12">
      <!-- $\mathdefault{10^{2}}$ -->
      <g transform="translate(37.470625 18.597656) scale(0.15 -0.15)">
       <use xlink:href="#DejaVuSans-31" transform="translate(0 0.765625)"/>
       <use xlink:href="#DejaVuSans-30" transform="translate(63.623047 0.765625)"/>
       <use xlink:href="#DejaVuSans-32" transform="translate(128.203125 39.046875) scale(0.7)"/>
      </g>
     </g>
    </g>
    <g id="ytick_6">
     <g id="line2d_23">
      <defs>
       <path id="md968b803cd" d="M 0 0 
L -2 0 
" style="stroke: #000000; stroke-width: 0.6"/>
      </defs>
      <g>
       <use xlink:href="#md968b803cd" x="70.870625" y="326.740797" style="stroke: #000000; stroke-width: 0.6"/>
      </g>
     </g>
    </g>
    <g id="ytick_7">
     <g id="line2d_24">
      <g>
       <use xlink:href="#md968b803cd" x="70.870625" y="314.979746" style="stroke: #000000; stroke-width: 0.6"/>
      </g>
     </g>
    </g>
    <g id="ytick_8">
     <g id="line2d_25">
      <g>
       <use xlink:href="#md968b803cd" x="70.870625" y="306.635147" style="stroke: #000000; stroke-width: 0.6"/>
      </g>
     </g>
    </g>
    <g id="ytick_9">
     <g id="line2d_26">
      <g>
       <use xlink:href="#md968b803cd" x="70.870625" y="300.162573" style="stroke: #000000; stroke-width: 0.6"/>
      </g>
     </g>
    </g>
    <g id="ytick_10">
     <g id="line2d_27">
      <g>
       <use xlink:href="#md968b803cd" x="70.870625" y="294.874096" style="stroke: #000000; stroke-width: 0.6"/>
      </g>
     </g>
    </g>
    <g id="ytick_11">
     <g id="line2d_28">
      <g>
       <use xlink:href="#md968b803cd" x="70.870625" y="290.402751" style="stroke: #000000; stroke-width: 0.6"/>
      </g>
     </g>
    </g>
    <g id="ytick_12">
     <g id="line2d_29">
      <g>
       <use xlink:href="#md968b803cd" x="70.870625" y="286.529497" style="stroke: #000000; stroke-width: 0.6"/>
      </g>
     </g>
    </g>
    <g id="ytick_13">
     <g id="line2d_30">
      <g>
       <use xlink:href="#md968b803cd" x="70.870625" y="283.113044" style="stroke: #000000; stroke-width: 0.6"/>
      </g>
     </g>
    </g>
    <g id="ytick_14">
     <g id="line2d_31">
      <g>
       <use xlink:href="#md968b803cd" x="70.870625" y="259.951273" style="stroke: #000000; stroke-width: 0.6"/>
      </g>
     </g>
    </g>
    <g id="ytick_15">
     <g id="line2d_32">
      <g>
       <use xlink:href="#md968b803cd" x="70.870625" y="248.190222" style="stroke: #000000; stroke-width: 0.6"/>
      </g>
     </g>
    </g>
    <g id="ytick_16">
     <g id="line2d_33">
      <g>
       <use xlink:href="#md968b803cd" x="70.870625" y="239.845623" style="stroke: #000000; stroke-width: 0.6"/>
      </g>
     </g>
    </g>
    <g id="ytick_17">
     <g id="line2d_34">
      <g>
       <use xlink:href="#md968b803cd" x="70.870625" y="233.37305" style="stroke: #000000; stroke-width: 0.6"/>
      </g>
     </g>
    </g>
    <g id="ytick_18">
     <g id="line2d_35">
      <g>
       <use xlink:href="#md968b803cd" x="70.870625" y="228.084572" style="stroke: #000000; stroke-width: 0.6"/>
      </g>
     </g>
    </g>
    <g id="ytick_19">
     <g id="line2d_36">
      <g>
       <use xlink:href="#md968b803cd" x="70.870625" y="223.613228" style="stroke: #000000; stroke-width: 0.6"/>
      </g>
     </g>
    </g>
    <g id="ytick_20">
     <g id="line2d_37">
      <g>
       <use xlink:href="#md968b803cd" x="70.870625" y="219.739973" style="stroke: #000000; stroke-width: 0.6"/>
      </g>
     </g>
    </g>
    <g id="ytick_21">
     <g id="line2d_38">
      <g>
       <use xlink:href="#md968b803cd" x="70.870625" y="216.323521" style="stroke: #000000; stroke-width: 0.6"/>
      </g>
     </g>
    </g>
    <g id="ytick_22">
     <g id="line2d_39">
      <g>
       <use xlink:href="#md968b803cd" x="70.870625" y="193.161749" style="stroke: #000000; stroke-width: 0.6"/>
      </g>
     </g>
    </g>
    <g id="ytick_23">
     <g id="line2d_40">
      <g>
       <use xlink:href="#md968b803cd" x="70.870625" y="181.400698" style="stroke: #000000; stroke-width: 0.6"/>
      </g>
     </g>
    </g>
    <g id="ytick_24">
     <g id="line2d_41">
      <g>
       <use xlink:href="#md968b803cd" x="70.870625" y="173.056099" style="stroke: #000000; stroke-width: 0.6"/>
      </g>
     </g>
    </g>
    <g id="ytick_25">
     <g id="line2d_42">
      <g>
       <use xlink:href="#md968b803cd" x="70.870625" y="166.583526" style="stroke: #000000; stroke-width: 0.6"/>
      </g>
     </g>
    </g>
    <g id="ytick_26">
     <g id="line2d_43">
      <g>
       <use xlink:href="#md968b803cd" x="70.870625" y="161.295048" style="stroke: #000000; stroke-width: 0.6"/>
      </g>
     </g>
    </g>
    <g id="ytick_27">
     <g id="line2d_44">
      <g>
       <use xlink:href="#md968b803cd" x="70.870625" y="156.823704" style="stroke: #000000; stroke-width: 0.6"/>
      </g>
     </g>
    </g>
    <g id="ytick_28">
     <g id="line2d_45">
      <g>
       <use xlink:href="#md968b803cd" x="70.870625" y="152.950449" style="stroke: #000000; stroke-width: 0.6"/>
      </g>
     </g>
    </g>
    <g id="ytick_29">
     <g id="line2d_46">
      <g>
       <use xlink:href="#md968b803cd" x="70.870625" y="149.533997" style="stroke: #000000; stroke-width: 0.6"/>
      </g>
     </g>
    </g>
    <g id="ytick_30">
     <g id="line2d_47">
      <g>
       <use xlink:href="#md968b803cd" x="70.870625" y="126.372226" style="stroke: #000000; stroke-width: 0.6"/>
      </g>
     </g>
    </g>
    <g id="ytick_31">
     <g id="line2d_48">
      <g>
       <use xlink:href="#md968b803cd" x="70.870625" y="114.611174" style="stroke: #000000; stroke-width: 0.6"/>
      </g>
     </g>
    </g>
    <g id="ytick_32">
     <g id="line2d_49">
      <g>
       <use xlink:href="#md968b803cd" x="70.870625" y="106.266576" style="stroke: #000000; stroke-width: 0.6"/>
      </g>
     </g>
    </g>
    <g id="ytick_33">
     <g id="line2d_50">
      <g>
       <use xlink:href="#md968b803cd" x="70.870625" y="99.794002" style="stroke: #000000; stroke-width: 0.6"/>
      </g>
     </g>
    </g>
    <g id="ytick_34">
     <g id="line2d_51">
      <g>
       <use xlink:href="#md968b803cd" x="70.870625" y="94.505524" style="stroke: #000000; stroke-width: 0.6"/>
      </g>
     </g>
    </g>
    <g id="ytick_35">
     <g id="line2d_52">
      <g>
       <use xlink:href="#md968b803cd" x="70.870625" y="90.03418" style="stroke: #000000; stroke-width: 0.6"/>
      </g>
     </g>
    </g>
    <g id="ytick_36">
     <g id="line2d_53">
      <g>
       <use xlink:href="#md968b803cd" x="70.870625" y="86.160926" style="stroke: #000000; stroke-width: 0.6"/>
      </g>
     </g>
    </g>
    <g id="ytick_37">
     <g id="line2d_54">
      <g>
       <use xlink:href="#md968b803cd" x="70.870625" y="82.744473" style="stroke: #000000; stroke-width: 0.6"/>
      </g>
     </g>
    </g>
    <g id="ytick_38">
     <g id="line2d_55">
      <g>
       <use xlink:href="#md968b803cd" x="70.870625" y="59.582702" style="stroke: #000000; stroke-width: 0.6"/>
      </g>
     </g>
    </g>
    <g id="ytick_39">
     <g id="line2d_56">
      <g>
       <use xlink:href="#md968b803cd" x="70.870625" y="47.821651" style="stroke: #000000; stroke-width: 0.6"/>
      </g>
     </g>
    </g>
    <g id="ytick_40">
     <g id="line2d_57">
      <g>
       <use xlink:href="#md968b803cd" x="70.870625" y="39.477052" style="stroke: #000000; stroke-width: 0.6"/>
      </g>
     </g>
    </g>
    <g id="ytick_41">
     <g id="line2d_58">
      <g>
       <use xlink:href="#md968b803cd" x="70.870625" y="33.004478" style="stroke: #000000; stroke-width: 0.6"/>
      </g>
     </g>
    </g>
    <g id="ytick_42">
     <g id="line2d_59">
      <g>
       <use xlink:href="#md968b803cd" x="70.870625" y="27.716" style="stroke: #000000; stroke-width: 0.6"/>
      </g>
     </g>
    </g>
    <g id="ytick_43">
     <g id="line2d_60">
      <g>
       <use xlink:href="#md968b803cd" x="70.870625" y="23.244656" style="stroke: #000000; stroke-width: 0.6"/>
      </g>
     </g>
    </g>
    <g id="ytick_44">
     <g id="line2d_61">
      <g>
       <use xlink:href="#md968b803cd" x="70.870625" y="19.371402" style="stroke: #000000; stroke-width: 0.6"/>
      </g>
     </g>
    </g>
    <g id="ytick_45">
     <g id="line2d_62">
      <g>
       <use xlink:href="#md968b803cd" x="70.870625" y="15.954949" style="stroke: #000000; stroke-width: 0.6"/>
      </g>
     </g>
    </g>
    <g id="text_13">
     <!-- Runtime -->
     <g transform="translate(20.877188 214.523316) rotate(-90) scale(0.18 -0.18)">
      <defs>
       <path id="DejaVuSans-74" d="M 1172 4494 
L 1172 3500 
L 2356 3500 
L 2356 3053 
L 1172 3053 
L 1172 1153 
Q 1172 725 1289 603 
Q 1406 481 1766 481 
L 2356 481 
L 2356 0 
L 1766 0 
Q 1100 0 847 248 
Q 594 497 594 1153 
L 594 3053 
L 172 3053 
L 172 3500 
L 594 3500 
L 594 4494 
L 1172 4494 
z
" transform="scale(0.015625)"/>
       <path id="DejaVuSans-6d" d="M 3328 2828 
Q 3544 3216 3844 3400 
Q 4144 3584 4550 3584 
Q 5097 3584 5394 3201 
Q 5691 2819 5691 2113 
L 5691 0 
L 5113 0 
L 5113 2094 
Q 5113 2597 4934 2840 
Q 4756 3084 4391 3084 
Q 3944 3084 3684 2787 
Q 3425 2491 3425 1978 
L 3425 0 
L 2847 0 
L 2847 2094 
Q 2847 2600 2669 2842 
Q 2491 3084 2119 3084 
Q 1678 3084 1418 2786 
Q 1159 2488 1159 1978 
L 1159 0 
L 581 0 
L 581 3500 
L 1159 3500 
L 1159 2956 
Q 1356 3278 1631 3431 
Q 1906 3584 2284 3584 
Q 2666 3584 2933 3390 
Q 3200 3197 3328 2828 
z
" transform="scale(0.015625)"/>
      </defs>
      <use xlink:href="#DejaVuSans-52"/>
      <use xlink:href="#DejaVuSans-75" x="64.982422"/>
      <use xlink:href="#DejaVuSans-6e" x="128.361328"/>
      <use xlink:href="#DejaVuSans-74" x="191.740234"/>
      <use xlink:href="#DejaVuSans-69" x="230.949219"/>
      <use xlink:href="#DejaVuSans-6d" x="258.732422"/>
      <use xlink:href="#DejaVuSans-65" x="356.144531"/>
     </g>
    </g>
   </g>
   <g id="line2d_63">
    <path d="M 93.697898 262.877272 
L 98.309468 163.499873 
L 102.921038 150.33731 
L 107.532608 141.424961 
L 112.144179 134.936742 
L 116.755749 122.119709 
L 121.367319 114.642566 
L 125.978889 103.72916 
L 130.59046 102.801757 
L 135.20203 101.344395 
L 139.8136 100.208106 
L 144.42517 98.93344 
L 149.036741 97.851119 
L 153.648311 96.972432 
L 158.259881 96.050439 
L 162.871451 95.040392 
L 167.483022 94.19744 
L 172.094592 93.49507 
L 176.706162 92.937948 
L 181.317732 92.215186 
L 185.929303 91.56329 
L 190.540873 90.940891 
L 195.152443 90.337519 
L 199.764013 89.792411 
L 204.375584 89.29206 
L 208.987154 88.851209 
L 213.598724 88.344875 
L 218.210294 87.89667 
L 222.821865 87.431374 
L 227.433435 86.941013 
L 232.045005 86.466412 
L 236.656575 85.859575 
L 241.268146 85.375264 
L 245.879716 84.956242 
L 250.491286 84.560057 
L 255.102856 83.969274 
L 259.714427 83.611509 
L 264.325997 83.058268 
L 268.937567 82.604179 
L 273.549137 82.242509 
L 278.160708 81.81942 
L 282.772278 81.40505 
L 287.383848 81.052135 
L 291.995418 80.695515 
L 296.606989 80.247192 
L 301.218559 79.918533 
L 305.830129 79.613654 
L 310.441699 79.153065 
L 315.05327 78.765429 
L 319.66484 78.442485 
L 324.27641 77.853945 
L 328.88798 77.326293 
L 333.499551 76.766124 
L 338.111121 76.112694 
L 342.722691 75.77597 
L 347.334261 75.431594 
L 351.945832 75.095209 
L 356.557402 74.751296 
L 361.168972 74.413883 
L 365.780542 74.113876 
L 370.392113 73.816026 
L 375.003683 73.488517 
L 379.615253 73.206725 
L 384.226823 72.867183 
L 388.838394 72.54202 
L 393.449964 72.170495 
L 398.061534 71.833373 
L 402.673104 71.548199 
L 407.284675 71.207934 
L 411.896245 70.922652 
L 416.507815 70.600187 
L 421.119385 70.296161 
L 425.730956 69.971134 
L 430.342526 69.628228 
L 434.954096 69.308615 
L 439.565666 68.947069 
L 444.177237 68.586828 
L 448.788807 68.25346 
L 453.400377 67.847852 
L 458.011947 67.447387 
L 462.623518 67.107167 
L 467.235088 66.757157 
L 471.846658 66.41425 
L 476.458228 66.076846 
L 481.069799 65.751133 
L 485.681369 65.443448 
L 490.292939 65.075315 
L 494.904509 64.776483 
L 499.51608 64.420458 
L 504.12765 64.124368 
L 508.73922 63.800295 
L 513.35079 63.43665 
L 517.962361 63.126862 
L 522.573931 62.822159 
L 527.185501 62.480216 
L 531.797071 62.181587 
L 536.408642 61.901383 
L 541.020212 61.633358 
L 545.631782 61.334549 
L 550.243352 61.027824 
" clip-path="url(#p809032eb30)" style="fill: none; stroke: #386cb0; stroke-width: 3; stroke-linecap: square"/>
   </g>
   <g id="line2d_64">
    <path d="M 93.697898 290.179119 
L 98.309468 163.748214 
L 102.921038 150.519495 
L 107.532608 141.573881 
L 112.144179 135.060911 
L 116.755749 129.615211 
L 121.367319 124.360835 
L 125.978889 121.513494 
L 130.59046 118.983009 
L 135.20203 117.142443 
L 139.8136 115.033434 
L 144.42517 113.439376 
L 149.036741 111.726698 
L 153.648311 110.269142 
L 158.259881 108.918823 
L 162.871451 107.066922 
L 167.483022 105.899353 
L 172.094592 105.118736 
L 176.706162 104.045749 
L 181.317732 103.197544 
L 185.929303 102.258383 
L 190.540873 101.204984 
L 195.152443 100.585095 
L 199.764013 100.03365 
L 204.375584 99.443167 
L 208.987154 98.997639 
L 213.598724 98.426046 
L 218.210294 97.685064 
L 222.821865 96.811248 
L 227.433435 96.287251 
L 232.045005 95.78014 
L 236.656575 94.87093 
L 241.268146 94.27681 
L 245.879716 93.594275 
L 250.491286 93.074908 
L 255.102856 92.711202 
L 259.714427 92.34314 
L 264.325997 91.765356 
L 268.937567 91.269048 
L 273.549137 90.897502 
L 278.160708 90.379142 
L 282.772278 89.820505 
L 287.383848 89.561887 
L 291.995418 89.07406 
L 296.606989 88.786727 
L 301.218559 88.4721 
L 305.830129 88.122869 
L 310.441699 87.612824 
L 315.05327 87.222262 
L 319.66484 87.018605 
L 324.27641 86.575905 
L 328.88798 86.171797 
L 333.499551 85.901421 
L 338.111121 85.606614 
L 342.722691 85.390562 
L 347.334261 84.946631 
L 351.945832 84.609167 
L 356.557402 84.326806 
L 361.168972 84.239239 
L 365.780542 84.134242 
L 370.392113 84.027986 
L 375.003683 83.906526 
L 379.615253 83.774207 
L 384.226823 83.569135 
L 388.838394 83.445391 
L 393.449964 83.320581 
L 398.061534 83.161626 
L 402.673104 82.970591 
L 407.284675 82.801468 
L 411.896245 82.678457 
L 416.507815 82.504781 
L 421.119385 82.381975 
L 425.730956 82.255564 
L 430.342526 82.149106 
L 434.954096 82.025248 
L 439.565666 81.878407 
L 444.177237 81.751369 
L 448.788807 81.588805 
L 453.400377 81.477736 
L 458.011947 81.278254 
L 462.623518 81.077273 
L 467.235088 80.897894 
L 471.846658 80.715165 
L 476.458228 80.514095 
L 481.069799 80.272233 
L 485.681369 80.104069 
L 490.292939 79.939269 
L 494.904509 79.846559 
L 499.51608 79.716039 
L 504.12765 79.565987 
L 508.73922 79.416825 
L 513.35079 79.269881 
L 517.962361 79.118572 
L 522.573931 78.94781 
L 527.185501 78.794241 
L 531.797071 78.641395 
L 536.408642 78.509065 
L 541.020212 78.373258 
L 545.631782 78.2015 
L 550.243352 78.048035 
" clip-path="url(#p809032eb30)" style="fill: none; stroke: #f0027f; stroke-width: 3; stroke-linecap: square"/>
   </g>
   <g id="line2d_65">
    <path d="M 93.697898 126.28578 
L 98.309468 117.431604 
L 102.921038 110.513906 
L 107.532608 105.011759 
L 112.144179 92.962479 
L 116.755749 86.728198 
L 121.367319 83.612184 
L 125.978889 80.994136 
L 130.59046 78.77317 
L 135.20203 76.712844 
L 139.8136 74.687948 
L 144.42517 73.138868 
L 149.036741 71.51354 
L 153.648311 70.243944 
L 158.259881 69.189281 
L 162.871451 68.273547 
L 167.483022 67.360965 
L 172.094592 66.534548 
L 176.706162 65.811227 
L 181.317732 65.186187 
L 185.929303 64.494762 
L 190.540873 63.947009 
L 195.152443 63.296067 
L 199.764013 62.769207 
L 204.375584 62.241152 
L 208.987154 61.718148 
L 213.598724 61.216319 
L 218.210294 60.716652 
L 222.821865 60.206999 
L 227.433435 59.656063 
L 232.045005 59.10154 
L 236.656575 58.617007 
L 241.268146 58.090898 
L 245.879716 57.592542 
L 250.491286 57.047857 
L 255.102856 56.607913 
L 259.714427 56.101636 
L 264.325997 55.618814 
L 268.937567 55.138089 
L 273.549137 54.64375 
L 278.160708 54.17827 
L 282.772278 53.716799 
L 287.383848 53.282727 
L 291.995418 52.831599 
L 296.606989 52.386715 
L 301.218559 51.939744 
L 305.830129 51.484745 
L 310.441699 51.063732 
L 315.05327 50.627259 
L 319.66484 50.187936 
L 324.27641 49.703959 
L 328.88798 49.1897 
L 333.499551 48.677486 
L 338.111121 48.177341 
L 342.722691 47.65185 
L 347.334261 47.160895 
L 351.945832 46.690313 
L 356.557402 46.198571 
L 361.168972 45.719466 
L 365.780542 45.238711 
L 370.392113 44.755597 
L 375.003683 44.299485 
L 379.615253 43.847117 
L 384.226823 43.403267 
L 388.838394 42.956483 
L 393.449964 42.512543 
L 398.061534 42.051691 
L 402.673104 41.588801 
L 407.284675 41.127805 
L 411.896245 40.685741 
L 416.507815 40.256001 
L 421.119385 39.811806 
L 425.730956 39.352503 
L 430.342526 38.894836 
L 434.954096 38.455321 
L 439.565666 37.933659 
L 444.177237 37.403783 
L 448.788807 36.905233 
L 453.400377 36.404846 
L 458.011947 35.900249 
L 462.623518 35.429991 
L 467.235088 34.957259 
L 471.846658 34.492065 
L 476.458228 34.034085 
L 481.069799 33.585217 
L 485.681369 33.141861 
L 490.292939 32.679871 
L 494.904509 32.225213 
L 499.51608 31.778332 
L 504.12765 31.339024 
L 508.73922 30.901028 
L 513.35079 30.457422 
L 517.962361 30.034709 
L 522.573931 29.611125 
L 527.185501 29.20072 
L 531.797071 28.790824 
L 536.408642 28.377125 
L 541.020212 27.971271 
L 545.631782 27.574117 
L 550.243352 27.189637 
" clip-path="url(#p809032eb30)" style="fill: none; stroke: #bf5b17; stroke-width: 3; stroke-linecap: square"/>
   </g>
   <g id="patch_3">
    <path d="M 70.870625 343.254253 
L 70.870625 10.614253 
" style="fill: none; stroke: #000000; stroke-width: 0.8; stroke-linejoin: miter; stroke-linecap: square"/>
   </g>
   <g id="patch_4">
    <path d="M 573.070625 343.254253 
L 573.070625 10.614253 
" style="fill: none; stroke: #000000; stroke-width: 0.8; stroke-linejoin: miter; stroke-linecap: square"/>
   </g>
   <g id="patch_5">
    <path d="M 70.870625 343.254253 
L 573.070625 343.254253 
" style="fill: none; stroke: #000000; stroke-width: 0.8; stroke-linejoin: miter; stroke-linecap: square"/>
   </g>
   <g id="patch_6">
    <path d="M 70.870625 10.614253 
L 573.070625 10.614253 
" style="fill: none; stroke: #000000; stroke-width: 0.8; stroke-linejoin: miter; stroke-linecap: square"/>
   </g>
   <g id="legend_1">
    <g id="patch_7">
     <path d="M 365.330625 335.254253 
L 561.870625 335.254253 
Q 565.070625 335.254253 565.070625 332.054253 
L 565.070625 263.199253 
Q 565.070625 259.999253 561.870625 259.999253 
L 365.330625 259.999253 
Q 362.130625 259.999253 362.130625 263.199253 
L 362.130625 332.054253 
Q 362.130625 335.254253 365.330625 335.254253 
z
" style="fill: #ffffff; opacity: 0.8; stroke: #cccccc; stroke-linejoin: miter"/>
    </g>
    <g id="line2d_66">
     <path d="M 368.530625 272.956753 
L 384.530625 272.956753 
L 400.530625 272.956753 
" style="fill: none; stroke: #386cb0; stroke-width: 3; stroke-linecap: square"/>
    </g>
    <g id="text_14">
     <!-- M/GP-MBTL (Ours) -->
     <g transform="translate(413.330625 278.556753) scale(0.16 -0.16)">
      <defs>
       <path id="DejaVuSans-4d" d="M 628 4666 
L 1569 4666 
L 2759 1491 
L 3956 4666 
L 4897 4666 
L 4897 0 
L 4281 0 
L 4281 4097 
L 3078 897 
L 2444 897 
L 1241 4097 
L 1241 0 
L 628 0 
L 628 4666 
z
" transform="scale(0.015625)"/>
       <path id="DejaVuSans-2f" d="M 1625 4666 
L 2156 4666 
L 531 -594 
L 0 -594 
L 1625 4666 
z
" transform="scale(0.015625)"/>
       <path id="DejaVuSans-47" d="M 3809 666 
L 3809 1919 
L 2778 1919 
L 2778 2438 
L 4434 2438 
L 4434 434 
Q 4069 175 3628 42 
Q 3188 -91 2688 -91 
Q 1594 -91 976 548 
Q 359 1188 359 2328 
Q 359 3472 976 4111 
Q 1594 4750 2688 4750 
Q 3144 4750 3555 4637 
Q 3966 4525 4313 4306 
L 4313 3634 
Q 3963 3931 3569 4081 
Q 3175 4231 2741 4231 
Q 1884 4231 1454 3753 
Q 1025 3275 1025 2328 
Q 1025 1384 1454 906 
Q 1884 428 2741 428 
Q 3075 428 3337 486 
Q 3600 544 3809 666 
z
" transform="scale(0.015625)"/>
       <path id="DejaVuSans-50" d="M 1259 4147 
L 1259 2394 
L 2053 2394 
Q 2494 2394 2734 2622 
Q 2975 2850 2975 3272 
Q 2975 3691 2734 3919 
Q 2494 4147 2053 4147 
L 1259 4147 
z
M 628 4666 
L 2053 4666 
Q 2838 4666 3239 4311 
Q 3641 3956 3641 3272 
Q 3641 2581 3239 2228 
Q 2838 1875 2053 1875 
L 1259 1875 
L 1259 0 
L 628 0 
L 628 4666 
z
" transform="scale(0.015625)"/>
       <path id="DejaVuSans-2d" d="M 313 2009 
L 1997 2009 
L 1997 1497 
L 313 1497 
L 313 2009 
z
" transform="scale(0.015625)"/>
       <path id="DejaVuSans-42" d="M 1259 2228 
L 1259 519 
L 2272 519 
Q 2781 519 3026 730 
Q 3272 941 3272 1375 
Q 3272 1813 3026 2020 
Q 2781 2228 2272 2228 
L 1259 2228 
z
M 1259 4147 
L 1259 2741 
L 2194 2741 
Q 2656 2741 2882 2914 
Q 3109 3088 3109 3444 
Q 3109 3797 2882 3972 
Q 2656 4147 2194 4147 
L 1259 4147 
z
M 628 4666 
L 2241 4666 
Q 2963 4666 3353 4366 
Q 3744 4066 3744 3513 
Q 3744 3084 3544 2831 
Q 3344 2578 2956 2516 
Q 3422 2416 3680 2098 
Q 3938 1781 3938 1306 
Q 3938 681 3513 340 
Q 3088 0 2303 0 
L 628 0 
L 628 4666 
z
" transform="scale(0.015625)"/>
       <path id="DejaVuSans-54" d="M -19 4666 
L 3928 4666 
L 3928 4134 
L 2272 4134 
L 2272 0 
L 1638 0 
L 1638 4134 
L -19 4134 
L -19 4666 
z
" transform="scale(0.015625)"/>
       <path id="DejaVuSans-4c" d="M 628 4666 
L 1259 4666 
L 1259 531 
L 3531 531 
L 3531 0 
L 628 0 
L 628 4666 
z
" transform="scale(0.015625)"/>
       <path id="DejaVuSans-28" d="M 1984 4856 
Q 1566 4138 1362 3434 
Q 1159 2731 1159 2009 
Q 1159 1288 1364 580 
Q 1569 -128 1984 -844 
L 1484 -844 
Q 1016 -109 783 600 
Q 550 1309 550 2009 
Q 550 2706 781 3412 
Q 1013 4119 1484 4856 
L 1984 4856 
z
" transform="scale(0.015625)"/>
       <path id="DejaVuSans-4f" d="M 2522 4238 
Q 1834 4238 1429 3725 
Q 1025 3213 1025 2328 
Q 1025 1447 1429 934 
Q 1834 422 2522 422 
Q 3209 422 3611 934 
Q 4013 1447 4013 2328 
Q 4013 3213 3611 3725 
Q 3209 4238 2522 4238 
z
M 2522 4750 
Q 3503 4750 4090 4092 
Q 4678 3434 4678 2328 
Q 4678 1225 4090 567 
Q 3503 -91 2522 -91 
Q 1538 -91 948 565 
Q 359 1222 359 2328 
Q 359 3434 948 4092 
Q 1538 4750 2522 4750 
z
" transform="scale(0.015625)"/>
       <path id="DejaVuSans-72" d="M 2631 2963 
Q 2534 3019 2420 3045 
Q 2306 3072 2169 3072 
Q 1681 3072 1420 2755 
Q 1159 2438 1159 1844 
L 1159 0 
L 581 0 
L 581 3500 
L 1159 3500 
L 1159 2956 
Q 1341 3275 1631 3429 
Q 1922 3584 2338 3584 
Q 2397 3584 2469 3576 
Q 2541 3569 2628 3553 
L 2631 2963 
z
" transform="scale(0.015625)"/>
       <path id="DejaVuSans-29" d="M 513 4856 
L 1013 4856 
Q 1481 4119 1714 3412 
Q 1947 2706 1947 2009 
Q 1947 1309 1714 600 
Q 1481 -109 1013 -844 
L 513 -844 
Q 928 -128 1133 580 
Q 1338 1288 1338 2009 
Q 1338 2731 1133 3434 
Q 928 4138 513 4856 
z
" transform="scale(0.015625)"/>
      </defs>
      <use xlink:href="#DejaVuSans-4d"/>
      <use xlink:href="#DejaVuSans-2f" x="86.279297"/>
      <use xlink:href="#DejaVuSans-47" x="119.970703"/>
      <use xlink:href="#DejaVuSans-50" x="197.460938"/>
      <use xlink:href="#DejaVuSans-2d" x="255.513672"/>
      <use xlink:href="#DejaVuSans-4d" x="291.597656"/>
      <use xlink:href="#DejaVuSans-42" x="377.876953"/>
      <use xlink:href="#DejaVuSans-54" x="446.480469"/>
      <use xlink:href="#DejaVuSans-4c" x="507.564453"/>
      <use xlink:href="#DejaVuSans-20" x="563.277344"/>
      <use xlink:href="#DejaVuSans-28" x="595.064453"/>
      <use xlink:href="#DejaVuSans-4f" x="634.078125"/>
      <use xlink:href="#DejaVuSans-75" x="712.789062"/>
      <use xlink:href="#DejaVuSans-72" x="776.167969"/>
      <use xlink:href="#DejaVuSans-73" x="817.28125"/>
      <use xlink:href="#DejaVuSans-29" x="869.380859"/>
     </g>
    </g>
    <g id="line2d_67">
     <path d="M 368.530625 296.441753 
L 384.530625 296.441753 
L 400.530625 296.441753 
" style="fill: none; stroke: #f0027f; stroke-width: 3; stroke-linecap: square"/>
    </g>
    <g id="text_15">
     <!-- M-MBTL (Ours) -->
     <g transform="translate(413.330625 302.041753) scale(0.16 -0.16)">
      <use xlink:href="#DejaVuSans-4d"/>
      <use xlink:href="#DejaVuSans-2d" x="86.279297"/>
      <use xlink:href="#DejaVuSans-4d" x="122.363281"/>
      <use xlink:href="#DejaVuSans-42" x="208.642578"/>
      <use xlink:href="#DejaVuSans-54" x="277.246094"/>
      <use xlink:href="#DejaVuSans-4c" x="338.330078"/>
      <use xlink:href="#DejaVuSans-20" x="394.042969"/>
      <use xlink:href="#DejaVuSans-28" x="425.830078"/>
      <use xlink:href="#DejaVuSans-4f" x="464.84375"/>
      <use xlink:href="#DejaVuSans-75" x="543.554688"/>
      <use xlink:href="#DejaVuSans-72" x="606.933594"/>
      <use xlink:href="#DejaVuSans-73" x="648.046875"/>
      <use xlink:href="#DejaVuSans-29" x="700.146484"/>
     </g>
    </g>
    <g id="line2d_68">
     <path d="M 368.530625 319.926753 
L 384.530625 319.926753 
L 400.530625 319.926753 
" style="fill: none; stroke: #bf5b17; stroke-width: 3; stroke-linecap: square"/>
    </g>
    <g id="text_16">
     <!-- GP-MBTL -->
     <g transform="translate(413.330625 325.526753) scale(0.16 -0.16)">
      <use xlink:href="#DejaVuSans-47"/>
      <use xlink:href="#DejaVuSans-50" x="77.490234"/>
      <use xlink:href="#DejaVuSans-2d" x="135.542969"/>
      <use xlink:href="#DejaVuSans-4d" x="171.626953"/>
      <use xlink:href="#DejaVuSans-42" x="257.90625"/>
      <use xlink:href="#DejaVuSans-54" x="326.509766"/>
      <use xlink:href="#DejaVuSans-4c" x="387.59375"/>
     </g>
    </g>
   </g>
  </g>
 </g>
 <defs>
  <clipPath id="p809032eb30">
   <rect x="70.870625" y="10.614253" width="502.2" height="332.64"/>
  </clipPath>
 </defs>
</svg>
