<?xml version="1.0" encoding="utf-8" standalone="no"?>
<!DOCTYPE svg PUBLIC "-//W3C//DTD SVG 1.1//EN"
  "http://www.w3.org/Graphics/SVG/1.1/DTD/svg11.dtd">
<svg xmlns:xlink="http://www.w3.org/1999/xlink" width="568.875312pt" height="389.977813pt" viewBox="0 0 568.875312 389.977813" xmlns="http://www.w3.org/2000/svg" version="1.1">
 <metadata>
  <rdf:RDF xmlns:dc="http://purl.org/dc/elements/1.1/" xmlns:cc="http://creativecommons.org/ns#" xmlns:rdf="http://www.w3.org/1999/02/22-rdf-syntax-ns#">
   <cc:Work>
    <dc:type rdf:resource="http://purl.org/dc/dcmitype/StillImage"/>
    <dc:date>2025-11-18T14:56:56.281561</dc:date>
    <dc:format>image/svg+xml</dc:format>
    <dc:creator>
     <cc:Agent>
      <dc:title>Matplotlib v3.9.4, https://matplotlib.org/</dc:title>
     </cc:Agent>
    </dc:creator>
   </cc:Work>
  </rdf:RDF>
 </metadata>
 <defs>
  <style type="text/css">*{stroke-linejoin: round; stroke-linecap: butt}</style>
 </defs>
 <g id="figure_1">
  <g id="patch_1">
   <path d="M 0 389.977813 
L 568.875312 389.977813 
L 568.875312 0 
L 0 0 
z
" style="fill: #ffffff"/>
  </g>
  <g id="axes_1">
   <g id="patch_2">
    <path d="M 59.475313 339.84 
L 561.675313 339.84 
L 561.675313 7.2 
L 59.475313 7.2 
z
" style="fill: #ffffff"/>
   </g>
   <g id="PolyCollection_1">
    <defs>
     <path id="mabe4f3d5dd" d="M 82.302585 -314.041932 
L 82.302585 -312.273042 
L 168.088309 -312.273042 
L 218.269741 -312.273042 
L 253.874033 -312.273042 
L 281.490868 -312.273042 
L 304.055465 -312.273042 
L 323.13356 -312.273042 
L 339.659757 -312.273042 
L 354.236896 -312.273042 
L 367.276592 -312.273042 
L 379.072431 -312.273042 
L 389.841189 -312.273042 
L 399.747485 -312.273042 
L 408.919284 -312.273042 
L 417.458023 -312.273042 
L 425.445481 -312.273042 
L 432.948544 -312.273042 
L 440.02262 -312.273042 
L 446.714122 -312.273042 
L 453.062316 -312.273042 
L 459.100715 -312.273042 
L 464.858155 -312.273042 
L 470.359623 -312.273042 
L 475.626913 -312.273042 
L 480.67915 -312.273042 
L 485.533209 -312.273042 
L 490.204052 -312.273042 
L 494.705008 -312.273042 
L 499.048002 -312.273042 
L 503.243747 -312.273042 
L 507.301902 -312.273042 
L 511.231205 -312.273042 
L 515.039587 -312.273042 
L 518.734268 -312.273042 
L 522.321842 -312.273042 
L 525.808344 -312.273042 
L 529.199314 -312.273042 
L 532.499846 -312.273042 
L 535.714641 -312.273042 
L 538.84804 -312.273042 
L 538.84804 -314.041932 
L 538.84804 -314.041932 
L 535.714641 -314.041932 
L 532.499846 -314.041932 
L 529.199314 -314.041932 
L 525.808344 -314.041932 
L 522.321842 -314.041932 
L 518.734268 -314.041932 
L 515.039587 -314.041932 
L 511.231205 -314.041932 
L 507.301902 -314.041932 
L 503.243747 -314.041932 
L 499.048002 -314.041932 
L 494.705008 -314.041932 
L 490.204052 -314.041932 
L 485.533209 -314.041932 
L 480.67915 -314.041932 
L 475.626913 -314.041932 
L 470.359623 -314.041932 
L 464.858155 -314.041932 
L 459.100715 -314.041932 
L 453.062316 -314.041932 
L 446.714122 -314.041932 
L 440.02262 -314.041932 
L 432.948544 -314.041932 
L 425.445481 -314.041932 
L 417.458023 -314.041932 
L 408.919284 -314.041932 
L 399.747485 -314.041932 
L 389.841189 -314.041932 
L 379.072431 -314.041932 
L 367.276592 -314.041932 
L 354.236896 -314.041932 
L 339.659757 -314.041932 
L 323.13356 -314.041932 
L 304.055465 -314.041932 
L 281.490868 -314.041932 
L 253.874033 -314.041932 
L 218.269741 -314.041932 
L 168.088309 -314.041932 
L 82.302585 -314.041932 
z
" style="stroke: #fdc086; stroke-opacity: 0.05"/>
    </defs>
    <g clip-path="url(#p2b74ffb981)">
     <use xlink:href="#mabe4f3d5dd" x="0" y="389.977813" style="fill: #fdc086; fill-opacity: 0.05; stroke: #fdc086; stroke-opacity: 0.05"/>
    </g>
   </g>
   <g id="PolyCollection_2">
    <defs>
     <path id="mabcd73f8a6" d="M 82.302585 -236.276752 
L 82.302585 -118.891396 
L 168.088309 -162.672078 
L 218.269741 -274.614963 
L 253.874033 -286.913126 
L 281.490868 -191.115314 
L 304.055465 -259.047617 
L 323.13356 -294.811977 
L 339.659757 -325.972443 
L 354.236896 -208.706006 
L 367.276592 -345.86684 
L 379.072431 -345.86684 
L 389.841189 -345.86684 
L 399.747485 -345.86684 
L 408.919284 -345.86684 
L 417.458023 -345.86684 
L 425.445481 -345.86684 
L 432.948544 -345.86684 
L 440.02262 -345.86684 
L 446.714122 -345.86684 
L 453.062316 -345.86684 
L 459.100715 -345.86684 
L 464.858155 -345.86684 
L 470.359623 -345.86684 
L 475.626913 -345.86684 
L 480.67915 -345.86684 
L 485.533209 -345.86684 
L 490.204052 -345.86684 
L 494.705008 -345.86684 
L 499.048002 -345.86684 
L 503.243747 -345.86684 
L 507.301902 -345.86684 
L 511.231205 -345.86684 
L 515.039587 -345.86684 
L 518.734268 -345.86684 
L 522.321842 -345.86684 
L 525.808344 -345.86684 
L 529.199314 -345.86684 
L 532.499846 -345.86684 
L 535.714641 -345.86684 
L 538.84804 -345.86684 
L 538.84804 -348.211985 
L 538.84804 -348.211985 
L 535.714641 -348.211985 
L 532.499846 -348.211985 
L 529.199314 -348.211985 
L 525.808344 -348.211985 
L 522.321842 -348.211985 
L 518.734268 -348.211985 
L 515.039587 -348.211985 
L 511.231205 -348.211985 
L 507.301902 -348.211985 
L 503.243747 -348.211985 
L 499.048002 -348.211985 
L 494.705008 -348.211985 
L 490.204052 -348.211985 
L 485.533209 -348.211985 
L 480.67915 -348.211985 
L 475.626913 -348.211985 
L 470.359623 -348.211985 
L 464.858155 -348.211985 
L 459.100715 -348.211985 
L 453.062316 -348.211985 
L 446.714122 -348.211985 
L 440.02262 -348.211985 
L 432.948544 -348.211985 
L 425.445481 -348.211985 
L 417.458023 -348.211985 
L 408.919284 -348.211985 
L 399.747485 -348.211985 
L 389.841189 -348.211985 
L 379.072431 -348.211985 
L 367.276592 -348.211985 
L 354.236896 -298.582817 
L 339.659757 -344.264219 
L 323.13356 -357.983182 
L 304.055465 -293.122779 
L 281.490868 -367.657813 
L 253.874033 -333.733204 
L 218.269741 -357.954134 
L 168.088309 -355.156805 
L 82.302585 -236.276752 
z
" style="stroke: #beaed4; stroke-opacity: 0.05"/>
    </defs>
    <g clip-path="url(#p2b74ffb981)">
     <use xlink:href="#mabcd73f8a6" x="0" y="389.977813" style="fill: #beaed4; fill-opacity: 0.05; stroke: #beaed4; stroke-opacity: 0.05"/>
    </g>
   </g>
   <g id="PolyCollection_3">
    <defs>
     <path id="mbdfbe0b3b1" d="M 82.302585 -295.28962 
L 82.302585 -132.803168 
L 168.088309 -230.285358 
L 218.269741 -272.67748 
L 253.874033 -296.423396 
L 281.490868 -306.827143 
L 304.055465 -316.161544 
L 323.13356 -322.484582 
L 339.659757 -326.332174 
L 354.236896 -329.995345 
L 367.276592 -333.27566 
L 379.072431 -335.820625 
L 389.841189 -336.59692 
L 399.747485 -337.749062 
L 408.919284 -339.487534 
L 417.458023 -340.146545 
L 425.445481 -340.852956 
L 432.948544 -341.516475 
L 440.02262 -341.95675 
L 446.714122 -342.275412 
L 453.062316 -342.604056 
L 459.100715 -343.247799 
L 464.858155 -343.595276 
L 470.359623 -344.012316 
L 475.626913 -344.237042 
L 480.67915 -344.405835 
L 485.533209 -344.544303 
L 490.204052 -344.682774 
L 494.705008 -344.880294 
L 499.048002 -344.944899 
L 503.243747 -345.188808 
L 507.301902 -345.316902 
L 511.231205 -345.53951 
L 515.039587 -345.704888 
L 518.734268 -345.824312 
L 522.321842 -345.923048 
L 525.808344 -346.10517 
L 529.199314 -346.256035 
L 532.499846 -346.311929 
L 535.714641 -346.393816 
L 538.84804 -346.499399 
L 538.84804 -348.444808 
L 538.84804 -348.444808 
L 535.714641 -348.444274 
L 532.499846 -348.426598 
L 529.199314 -348.361948 
L 525.808344 -348.330314 
L 522.321842 -348.330178 
L 518.734268 -348.322009 
L 515.039587 -348.315718 
L 511.231205 -348.323749 
L 507.301902 -348.299991 
L 503.243747 -348.252743 
L 499.048002 -348.25631 
L 494.705008 -348.16827 
L 490.204052 -348.159899 
L 485.533209 -348.158336 
L 480.67915 -348.093626 
L 475.626913 -348.015869 
L 470.359623 -347.884983 
L 464.858155 -347.828396 
L 459.100715 -347.718461 
L 453.062316 -347.613693 
L 446.714122 -347.457936 
L 440.02262 -347.299379 
L 432.948544 -346.956194 
L 425.445481 -346.780797 
L 417.458023 -346.456758 
L 408.919284 -346.317335 
L 399.747485 -346.290287 
L 389.841189 -345.902824 
L 379.072431 -345.656441 
L 367.276592 -345.539057 
L 354.236896 -345.388885 
L 339.659757 -345.483626 
L 323.13356 -344.877352 
L 304.055465 -343.51652 
L 281.490868 -342.529842 
L 253.874033 -340.581079 
L 218.269741 -335.675275 
L 168.088309 -324.604014 
L 82.302585 -295.28962 
z
" style="stroke: #7fc97f; stroke-opacity: 0.05"/>
    </defs>
    <g clip-path="url(#p2b74ffb981)">
     <use xlink:href="#mbdfbe0b3b1" x="0" y="389.977813" style="fill: #7fc97f; fill-opacity: 0.05; stroke: #7fc97f; stroke-opacity: 0.05"/>
    </g>
   </g>
   <g id="PolyCollection_4">
    <defs>
     <path id="m17a31d507d" d="M 82.302585 -314.450027 
L 82.302585 -65.257812 
L 168.088309 -203.863335 
L 218.269741 -265.436139 
L 253.874033 -294.22643 
L 281.490868 -313.324497 
L 304.055465 -321.306611 
L 323.13356 -329.694711 
L 339.659757 -333.783324 
L 354.236896 -336.636182 
L 367.276592 -338.631618 
L 379.072431 -340.111707 
L 389.841189 -341.232427 
L 399.747485 -341.752261 
L 408.919284 -342.381404 
L 417.458023 -342.973953 
L 425.445481 -343.498692 
L 432.948544 -343.879919 
L 440.02262 -344.204806 
L 446.714122 -344.572026 
L 453.062316 -344.752604 
L 459.100715 -344.949167 
L 464.858155 -345.124446 
L 470.359623 -345.389387 
L 475.626913 -345.515451 
L 480.67915 -345.736594 
L 485.533209 -345.816581 
L 490.204052 -345.858246 
L 494.705008 -345.95864 
L 499.048002 -346.057773 
L 503.243747 -346.344252 
L 507.301902 -346.45548 
L 511.231205 -346.540109 
L 515.039587 -346.627976 
L 518.734268 -346.707888 
L 522.321842 -346.754548 
L 525.808344 -346.827483 
L 529.199314 -346.917427 
L 532.499846 -347.00938 
L 535.714641 -347.032789 
L 538.84804 -347.099604 
L 538.84804 -348.637838 
L 538.84804 -348.637838 
L 535.714641 -348.648451 
L 532.499846 -348.635921 
L 529.199314 -348.612949 
L 525.808344 -348.599425 
L 522.321842 -348.571846 
L 518.734268 -348.548529 
L 515.039587 -348.520567 
L 511.231205 -348.509644 
L 507.301902 -348.473451 
L 503.243747 -348.447809 
L 499.048002 -348.526167 
L 494.705008 -348.486828 
L 490.204052 -348.457426 
L 485.533209 -348.40284 
L 480.67915 -348.347167 
L 475.626913 -348.387578 
L 470.359623 -348.345283 
L 464.858155 -348.353698 
L 459.100715 -348.322526 
L 453.062316 -348.295219 
L 446.714122 -348.20742 
L 440.02262 -348.118253 
L 432.948544 -348.125245 
L 425.445481 -348.047603 
L 417.458023 -347.987615 
L 408.919284 -348.059298 
L 399.747485 -348.090064 
L 389.841189 -348.099715 
L 379.072431 -348.028041 
L 367.276592 -348.241088 
L 354.236896 -348.553013 
L 339.659757 -348.968344 
L 323.13356 -348.975223 
L 304.055465 -350.814663 
L 281.490868 -350.865393 
L 253.874033 -352.928456 
L 218.269741 -353.964993 
L 168.088309 -349.281059 
L 82.302585 -314.450027 
z
" style="stroke: #bf5b17; stroke-opacity: 0.05"/>
    </defs>
    <g clip-path="url(#p2b74ffb981)">
     <use xlink:href="#m17a31d507d" x="0" y="389.977813" style="fill: #bf5b17; fill-opacity: 0.05; stroke: #bf5b17; stroke-opacity: 0.05"/>
    </g>
   </g>
   <g id="PolyCollection_5">
    <defs>
     <path id="m54a8918e6a" d="M 82.302585 -314.450027 
L 82.302585 -65.257812 
L 168.088309 -215.927863 
L 218.269741 -309.998141 
L 253.874033 -322.786792 
L 281.490868 -330.461645 
L 304.055465 -332.972212 
L 323.13356 -333.809949 
L 339.659757 -334.768568 
L 354.236896 -336.110221 
L 367.276592 -337.500856 
L 379.072431 -338.444676 
L 389.841189 -338.669313 
L 399.747485 -339.880467 
L 408.919284 -340.939384 
L 417.458023 -341.872809 
L 425.445481 -341.982582 
L 432.948544 -342.633504 
L 440.02262 -342.663595 
L 446.714122 -342.97005 
L 453.062316 -343.032577 
L 459.100715 -344.040229 
L 464.858155 -344.124157 
L 470.359623 -344.281171 
L 475.626913 -344.579362 
L 480.67915 -344.752349 
L 485.533209 -345.414949 
L 490.204052 -345.433342 
L 494.705008 -345.511642 
L 499.048002 -345.606304 
L 503.243747 -345.606304 
L 507.301902 -345.629568 
L 511.231205 -345.629677 
L 515.039587 -345.916526 
L 518.734268 -345.92031 
L 522.321842 -345.922569 
L 525.808344 -345.952433 
L 529.199314 -346.280044 
L 532.499846 -346.280044 
L 535.714641 -346.341532 
L 538.84804 -346.431914 
L 538.84804 -348.49743 
L 538.84804 -348.49743 
L 535.714641 -348.444786 
L 532.499846 -348.454156 
L 529.199314 -348.454156 
L 525.808344 -348.492424 
L 522.321842 -348.491375 
L 518.734268 -348.491514 
L 515.039587 -348.493776 
L 511.231205 -348.404028 
L 507.301902 -348.404073 
L 503.243747 -348.413248 
L 499.048002 -348.413248 
L 494.705008 -348.429674 
L 490.204052 -348.451982 
L 485.533209 -348.458902 
L 480.67915 -347.473772 
L 475.626913 -347.510052 
L 470.359623 -347.304124 
L 464.858155 -347.337473 
L 459.100715 -347.365563 
L 453.062316 -347.308146 
L 446.714122 -347.328683 
L 440.02262 -347.406013 
L 432.948544 -347.421932 
L 425.445481 -347.490291 
L 417.458023 -347.526805 
L 408.919284 -347.348194 
L 399.747485 -347.389887 
L 389.841189 -347.676667 
L 379.072431 -347.694759 
L 367.276592 -347.984057 
L 354.236896 -348.328061 
L 339.659757 -349.006941 
L 323.13356 -349.23524 
L 304.055465 -349.389651 
L 281.490868 -350.206569 
L 253.874033 -352.314762 
L 218.269741 -354.211529 
L 168.088309 -357.981114 
L 82.302585 -314.450027 
z
" style="stroke: #f0027f; stroke-opacity: 0.05"/>
    </defs>
    <g clip-path="url(#p2b74ffb981)">
     <use xlink:href="#m54a8918e6a" x="0" y="389.977813" style="fill: #f0027f; fill-opacity: 0.05; stroke: #f0027f; stroke-opacity: 0.05"/>
    </g>
   </g>
   <g id="PolyCollection_6">
    <defs>
     <path id="m7a46523333" d="M 82.302585 -314.450027 
L 82.302585 -65.257812 
L 168.088309 -215.927863 
L 218.269741 -309.998141 
L 253.874033 -322.786792 
L 281.490868 -330.461645 
L 304.055465 -332.972212 
L 323.13356 -333.81211 
L 339.659757 -334.766703 
L 354.236896 -336.121187 
L 367.276592 -337.50679 
L 379.072431 -338.493146 
L 389.841189 -338.725439 
L 399.747485 -339.896643 
L 408.919284 -341.008856 
L 417.458023 -341.92699 
L 425.445481 -342.083228 
L 432.948544 -342.725161 
L 440.02262 -342.79288 
L 446.714122 -343.102327 
L 453.062316 -343.164683 
L 459.100715 -344.140694 
L 464.858155 -344.210231 
L 470.359623 -344.35316 
L 475.626913 -344.629707 
L 480.67915 -344.799375 
L 485.533209 -345.317802 
L 490.204052 -345.397092 
L 494.705008 -345.487999 
L 499.048002 -345.586547 
L 503.243747 -345.592914 
L 507.301902 -345.625426 
L 511.231205 -345.62825 
L 515.039587 -345.872489 
L 518.734268 -345.920414 
L 522.321842 -345.93976 
L 525.808344 -345.966226 
L 529.199314 -346.280678 
L 532.499846 -346.281683 
L 535.714641 -346.340971 
L 538.84804 -346.424639 
L 538.84804 -348.450267 
L 538.84804 -348.450267 
L 535.714641 -348.395822 
L 532.499846 -348.403356 
L 529.199314 -348.401687 
L 525.808344 -348.454264 
L 522.321842 -348.449714 
L 518.734268 -348.439356 
L 515.039587 -348.421507 
L 511.231205 -348.348126 
L 507.301902 -348.347853 
L 503.243747 -348.344348 
L 499.048002 -348.332286 
L 494.705008 -348.342499 
L 490.204052 -348.360393 
L 485.533209 -348.260519 
L 480.67915 -347.534384 
L 475.626913 -347.560513 
L 470.359623 -347.388222 
L 464.858155 -347.410455 
L 459.100715 -347.410844 
L 453.062316 -347.410712 
L 446.714122 -347.431156 
L 440.02262 -347.517934 
L 432.948544 -347.497431 
L 425.445481 -347.586383 
L 417.458023 -347.588767 
L 408.919284 -347.449655 
L 399.747485 -347.526939 
L 389.841189 -347.829016 
L 379.072431 -347.820265 
L 367.276592 -348.054122 
L 354.236896 -348.351478 
L 339.659757 -349.026986 
L 323.13356 -349.243892 
L 304.055465 -349.389651 
L 281.490868 -350.206569 
L 253.874033 -352.314762 
L 218.269741 -354.211529 
L 168.088309 -357.981114 
L 82.302585 -314.450027 
z
" style="stroke: #386cb0; stroke-opacity: 0.05"/>
    </defs>
    <g clip-path="url(#p2b74ffb981)">
     <use xlink:href="#m7a46523333" x="0" y="389.977813" style="fill: #386cb0; fill-opacity: 0.05; stroke: #386cb0; stroke-opacity: 0.05"/>
    </g>
   </g>
   <g id="PolyCollection_7">
    <defs>
     <path id="m84375e7f8a" d="M 82.302585 -335.874101 
L 82.302585 -305.280879 
L 168.088309 -333.469827 
L 218.269741 -340.948895 
L 253.874033 -344.05271 
L 281.490868 -346.005025 
L 304.055465 -346.782592 
L 323.13356 -347.37031 
L 339.659757 -347.894607 
L 354.236896 -348.161091 
L 367.276592 -348.327607 
L 379.072431 -348.484256 
L 389.841189 -348.588221 
L 399.747485 -348.652872 
L 408.919284 -348.692237 
L 417.458023 -348.721611 
L 425.445481 -348.751255 
L 432.948544 -348.770792 
L 440.02262 -348.780864 
L 446.714122 -348.797988 
L 453.062316 -348.805982 
L 459.100715 -348.816826 
L 464.858155 -348.819908 
L 470.359623 -348.825353 
L 475.626913 -348.827625 
L 480.67915 -348.831308 
L 485.533209 -348.833455 
L 490.204052 -348.835031 
L 494.705008 -348.837709 
L 499.048002 -348.83903 
L 503.243747 -348.840079 
L 507.301902 -348.840989 
L 511.231205 -348.841706 
L 515.039587 -348.842598 
L 518.734268 -348.843357 
L 522.321842 -348.843785 
L 525.808344 -348.844155 
L 529.199314 -348.844493 
L 532.499846 -348.844901 
L 535.714641 -348.845161 
L 538.84804 -348.845325 
L 538.84804 -348.848185 
L 538.84804 -348.848185 
L 535.714641 -348.848199 
L 532.499846 -348.848269 
L 529.199314 -348.848452 
L 525.808344 -348.848549 
L 522.321842 -348.848647 
L 518.734268 -348.848725 
L 515.039587 -348.849024 
L 511.231205 -348.849442 
L 507.301902 -348.849616 
L 503.243747 -348.849871 
L 499.048002 -348.850112 
L 494.705008 -348.850538 
L 490.204052 -348.852238 
L 485.533209 -348.852573 
L 480.67915 -348.853095 
L 475.626913 -348.854685 
L 470.359623 -348.854703 
L 464.858155 -348.857501 
L 459.100715 -348.857132 
L 453.062316 -348.862998 
L 446.714122 -348.863286 
L 440.02262 -348.869173 
L 432.948544 -348.864707 
L 425.445481 -348.865746 
L 417.458023 -348.872861 
L 408.919284 -348.871145 
L 399.747485 -348.867974 
L 389.841189 -348.868049 
L 379.072431 -348.89074 
L 367.276592 -348.940392 
L 354.236896 -348.954066 
L 339.659757 -348.990911 
L 323.13356 -349.097095 
L 304.055465 -349.09942 
L 281.490868 -348.839414 
L 253.874033 -348.388368 
L 218.269741 -347.162896 
L 168.088309 -344.842771 
L 82.302585 -335.874101 
z
" style="stroke: #666666; stroke-opacity: 0.05"/>
    </defs>
    <g clip-path="url(#p2b74ffb981)">
     <use xlink:href="#m84375e7f8a" x="0" y="389.977813" style="fill: #666666; fill-opacity: 0.05; stroke: #666666; stroke-opacity: 0.05"/>
    </g>
   </g>
   <g id="matplotlib.axis_1">
    <g id="xtick_1">
     <g id="line2d_1">
      <path d="M 82.302585 339.84 
L 82.302585 7.2 
" clip-path="url(#p2b74ffb981)" style="fill: none; stroke-dasharray: 1.85,0.8; stroke-dashoffset: 0; stroke: #b0b0b0; stroke-width: 0.5"/>
     </g>
     <g id="line2d_2">
      <defs>
       <path id="m20c498db6b" d="M 0 0 
L 0 3.5 
" style="stroke: #000000; stroke-width: 0.8"/>
      </defs>
      <g>
       <use xlink:href="#m20c498db6b" x="82.302585" y="339.84" style="stroke: #000000; stroke-width: 0.8"/>
      </g>
     </g>
     <g id="text_1">
      <!-- $\mathdefault{10^{0}}$ -->
      <g transform="translate(69.102585 358.237656) scale(0.15 -0.15)">
       <defs>
        <path id="DejaVuSans-31" d="M 794 531 
L 1825 531 
L 1825 4091 
L 703 3866 
L 703 4441 
L 1819 4666 
L 2450 4666 
L 2450 531 
L 3481 531 
L 3481 0 
L 794 0 
L 794 531 
z
" transform="scale(0.015625)"/>
        <path id="DejaVuSans-30" d="M 2034 4250 
Q 1547 4250 1301 3770 
Q 1056 3291 1056 2328 
Q 1056 1369 1301 889 
Q 1547 409 2034 409 
Q 2525 409 2770 889 
Q 3016 1369 3016 2328 
Q 3016 3291 2770 3770 
Q 2525 4250 2034 4250 
z
M 2034 4750 
Q 2819 4750 3233 4129 
Q 3647 3509 3647 2328 
Q 3647 1150 3233 529 
Q 2819 -91 2034 -91 
Q 1250 -91 836 529 
Q 422 1150 422 2328 
Q 422 3509 836 4129 
Q 1250 4750 2034 4750 
z
" transform="scale(0.015625)"/>
       </defs>
       <use xlink:href="#DejaVuSans-31" transform="translate(0 0.765625)"/>
       <use xlink:href="#DejaVuSans-30" transform="translate(63.623047 0.765625)"/>
       <use xlink:href="#DejaVuSans-30" transform="translate(128.203125 39.046875) scale(0.7)"/>
      </g>
     </g>
    </g>
    <g id="xtick_2">
     <g id="line2d_3">
      <path d="M 367.276592 339.84 
L 367.276592 7.2 
" clip-path="url(#p2b74ffb981)" style="fill: none; stroke-dasharray: 1.85,0.8; stroke-dashoffset: 0; stroke: #b0b0b0; stroke-width: 0.5"/>
     </g>
     <g id="line2d_4">
      <g>
       <use xlink:href="#m20c498db6b" x="367.276592" y="339.84" style="stroke: #000000; stroke-width: 0.8"/>
      </g>
     </g>
     <g id="text_2">
      <!-- $\mathdefault{10^{1}}$ -->
      <g transform="translate(354.076592 358.237656) scale(0.15 -0.15)">
       <use xlink:href="#DejaVuSans-31" transform="translate(0 0.684375)"/>
       <use xlink:href="#DejaVuSans-30" transform="translate(63.623047 0.684375)"/>
       <use xlink:href="#DejaVuSans-31" transform="translate(128.203125 38.965625) scale(0.7)"/>
      </g>
     </g>
    </g>
    <g id="xtick_3">
     <g id="line2d_5">
      <defs>
       <path id="me254e4ba82" d="M 0 0 
L 0 2 
" style="stroke: #000000; stroke-width: 0.6"/>
      </defs>
      <g>
       <use xlink:href="#me254e4ba82" x="69.26289" y="339.84" style="stroke: #000000; stroke-width: 0.6"/>
      </g>
     </g>
    </g>
    <g id="xtick_4">
     <g id="line2d_6">
      <g>
       <use xlink:href="#me254e4ba82" x="168.088309" y="339.84" style="stroke: #000000; stroke-width: 0.6"/>
      </g>
     </g>
    </g>
    <g id="xtick_5">
     <g id="line2d_7">
      <g>
       <use xlink:href="#me254e4ba82" x="218.269741" y="339.84" style="stroke: #000000; stroke-width: 0.6"/>
      </g>
     </g>
    </g>
    <g id="xtick_6">
     <g id="line2d_8">
      <g>
       <use xlink:href="#me254e4ba82" x="253.874033" y="339.84" style="stroke: #000000; stroke-width: 0.6"/>
      </g>
     </g>
    </g>
    <g id="xtick_7">
     <g id="line2d_9">
      <g>
       <use xlink:href="#me254e4ba82" x="281.490868" y="339.84" style="stroke: #000000; stroke-width: 0.6"/>
      </g>
     </g>
    </g>
    <g id="xtick_8">
     <g id="line2d_10">
      <g>
       <use xlink:href="#me254e4ba82" x="304.055465" y="339.84" style="stroke: #000000; stroke-width: 0.6"/>
      </g>
     </g>
    </g>
    <g id="xtick_9">
     <g id="line2d_11">
      <g>
       <use xlink:href="#me254e4ba82" x="323.13356" y="339.84" style="stroke: #000000; stroke-width: 0.6"/>
      </g>
     </g>
    </g>
    <g id="xtick_10">
     <g id="line2d_12">
      <g>
       <use xlink:href="#me254e4ba82" x="339.659757" y="339.84" style="stroke: #000000; stroke-width: 0.6"/>
      </g>
     </g>
    </g>
    <g id="xtick_11">
     <g id="line2d_13">
      <g>
       <use xlink:href="#me254e4ba82" x="354.236896" y="339.84" style="stroke: #000000; stroke-width: 0.6"/>
      </g>
     </g>
    </g>
    <g id="xtick_12">
     <g id="line2d_14">
      <g>
       <use xlink:href="#me254e4ba82" x="453.062316" y="339.84" style="stroke: #000000; stroke-width: 0.6"/>
      </g>
     </g>
    </g>
    <g id="xtick_13">
     <g id="line2d_15">
      <g>
       <use xlink:href="#me254e4ba82" x="503.243747" y="339.84" style="stroke: #000000; stroke-width: 0.6"/>
      </g>
     </g>
    </g>
    <g id="xtick_14">
     <g id="line2d_16">
      <g>
       <use xlink:href="#me254e4ba82" x="538.84804" y="339.84" style="stroke: #000000; stroke-width: 0.6"/>
      </g>
     </g>
    </g>
    <g id="text_3">
     <!-- Decision Round -->
     <g transform="translate(240.922344 379.034375) scale(0.18 -0.18)">
      <defs>
       <path id="DejaVuSans-44" d="M 1259 4147 
L 1259 519 
L 2022 519 
Q 2988 519 3436 956 
Q 3884 1394 3884 2338 
Q 3884 3275 3436 3711 
Q 2988 4147 2022 4147 
L 1259 4147 
z
M 628 4666 
L 1925 4666 
Q 3281 4666 3915 4102 
Q 4550 3538 4550 2338 
Q 4550 1131 3912 565 
Q 3275 0 1925 0 
L 628 0 
L 628 4666 
z
" transform="scale(0.015625)"/>
       <path id="DejaVuSans-65" d="M 3597 1894 
L 3597 1613 
L 953 1613 
Q 991 1019 1311 708 
Q 1631 397 2203 397 
Q 2534 397 2845 478 
Q 3156 559 3463 722 
L 3463 178 
Q 3153 47 2828 -22 
Q 2503 -91 2169 -91 
Q 1331 -91 842 396 
Q 353 884 353 1716 
Q 353 2575 817 3079 
Q 1281 3584 2069 3584 
Q 2775 3584 3186 3129 
Q 3597 2675 3597 1894 
z
M 3022 2063 
Q 3016 2534 2758 2815 
Q 2500 3097 2075 3097 
Q 1594 3097 1305 2825 
Q 1016 2553 972 2059 
L 3022 2063 
z
" transform="scale(0.015625)"/>
       <path id="DejaVuSans-63" d="M 3122 3366 
L 3122 2828 
Q 2878 2963 2633 3030 
Q 2388 3097 2138 3097 
Q 1578 3097 1268 2742 
Q 959 2388 959 1747 
Q 959 1106 1268 751 
Q 1578 397 2138 397 
Q 2388 397 2633 464 
Q 2878 531 3122 666 
L 3122 134 
Q 2881 22 2623 -34 
Q 2366 -91 2075 -91 
Q 1284 -91 818 406 
Q 353 903 353 1747 
Q 353 2603 823 3093 
Q 1294 3584 2113 3584 
Q 2378 3584 2631 3529 
Q 2884 3475 3122 3366 
z
" transform="scale(0.015625)"/>
       <path id="DejaVuSans-69" d="M 603 3500 
L 1178 3500 
L 1178 0 
L 603 0 
L 603 3500 
z
M 603 4863 
L 1178 4863 
L 1178 4134 
L 603 4134 
L 603 4863 
z
" transform="scale(0.015625)"/>
       <path id="DejaVuSans-73" d="M 2834 3397 
L 2834 2853 
Q 2591 2978 2328 3040 
Q 2066 3103 1784 3103 
Q 1356 3103 1142 2972 
Q 928 2841 928 2578 
Q 928 2378 1081 2264 
Q 1234 2150 1697 2047 
L 1894 2003 
Q 2506 1872 2764 1633 
Q 3022 1394 3022 966 
Q 3022 478 2636 193 
Q 2250 -91 1575 -91 
Q 1294 -91 989 -36 
Q 684 19 347 128 
L 347 722 
Q 666 556 975 473 
Q 1284 391 1588 391 
Q 1994 391 2212 530 
Q 2431 669 2431 922 
Q 2431 1156 2273 1281 
Q 2116 1406 1581 1522 
L 1381 1569 
Q 847 1681 609 1914 
Q 372 2147 372 2553 
Q 372 3047 722 3315 
Q 1072 3584 1716 3584 
Q 2034 3584 2315 3537 
Q 2597 3491 2834 3397 
z
" transform="scale(0.015625)"/>
       <path id="DejaVuSans-6f" d="M 1959 3097 
Q 1497 3097 1228 2736 
Q 959 2375 959 1747 
Q 959 1119 1226 758 
Q 1494 397 1959 397 
Q 2419 397 2687 759 
Q 2956 1122 2956 1747 
Q 2956 2369 2687 2733 
Q 2419 3097 1959 3097 
z
M 1959 3584 
Q 2709 3584 3137 3096 
Q 3566 2609 3566 1747 
Q 3566 888 3137 398 
Q 2709 -91 1959 -91 
Q 1206 -91 779 398 
Q 353 888 353 1747 
Q 353 2609 779 3096 
Q 1206 3584 1959 3584 
z
" transform="scale(0.015625)"/>
       <path id="DejaVuSans-6e" d="M 3513 2113 
L 3513 0 
L 2938 0 
L 2938 2094 
Q 2938 2591 2744 2837 
Q 2550 3084 2163 3084 
Q 1697 3084 1428 2787 
Q 1159 2491 1159 1978 
L 1159 0 
L 581 0 
L 581 3500 
L 1159 3500 
L 1159 2956 
Q 1366 3272 1645 3428 
Q 1925 3584 2291 3584 
Q 2894 3584 3203 3211 
Q 3513 2838 3513 2113 
z
" transform="scale(0.015625)"/>
       <path id="DejaVuSans-20" transform="scale(0.015625)"/>
       <path id="DejaVuSans-52" d="M 2841 2188 
Q 3044 2119 3236 1894 
Q 3428 1669 3622 1275 
L 4263 0 
L 3584 0 
L 2988 1197 
Q 2756 1666 2539 1819 
Q 2322 1972 1947 1972 
L 1259 1972 
L 1259 0 
L 628 0 
L 628 4666 
L 2053 4666 
Q 2853 4666 3247 4331 
Q 3641 3997 3641 3322 
Q 3641 2881 3436 2590 
Q 3231 2300 2841 2188 
z
M 1259 4147 
L 1259 2491 
L 2053 2491 
Q 2509 2491 2742 2702 
Q 2975 2913 2975 3322 
Q 2975 3731 2742 3939 
Q 2509 4147 2053 4147 
L 1259 4147 
z
" transform="scale(0.015625)"/>
       <path id="DejaVuSans-75" d="M 544 1381 
L 544 3500 
L 1119 3500 
L 1119 1403 
Q 1119 906 1312 657 
Q 1506 409 1894 409 
Q 2359 409 2629 706 
Q 2900 1003 2900 1516 
L 2900 3500 
L 3475 3500 
L 3475 0 
L 2900 0 
L 2900 538 
Q 2691 219 2414 64 
Q 2138 -91 1772 -91 
Q 1169 -91 856 284 
Q 544 659 544 1381 
z
M 1991 3584 
L 1991 3584 
z
" transform="scale(0.015625)"/>
       <path id="DejaVuSans-64" d="M 2906 2969 
L 2906 4863 
L 3481 4863 
L 3481 0 
L 2906 0 
L 2906 525 
Q 2725 213 2448 61 
Q 2172 -91 1784 -91 
Q 1150 -91 751 415 
Q 353 922 353 1747 
Q 353 2572 751 3078 
Q 1150 3584 1784 3584 
Q 2172 3584 2448 3432 
Q 2725 3281 2906 2969 
z
M 947 1747 
Q 947 1113 1208 752 
Q 1469 391 1925 391 
Q 2381 391 2643 752 
Q 2906 1113 2906 1747 
Q 2906 2381 2643 2742 
Q 2381 3103 1925 3103 
Q 1469 3103 1208 2742 
Q 947 2381 947 1747 
z
" transform="scale(0.015625)"/>
      </defs>
      <use xlink:href="#DejaVuSans-44"/>
      <use xlink:href="#DejaVuSans-65" x="77.001953"/>
      <use xlink:href="#DejaVuSans-63" x="138.525391"/>
      <use xlink:href="#DejaVuSans-69" x="193.505859"/>
      <use xlink:href="#DejaVuSans-73" x="221.289062"/>
      <use xlink:href="#DejaVuSans-69" x="273.388672"/>
      <use xlink:href="#DejaVuSans-6f" x="301.171875"/>
      <use xlink:href="#DejaVuSans-6e" x="362.353516"/>
      <use xlink:href="#DejaVuSans-20" x="425.732422"/>
      <use xlink:href="#DejaVuSans-52" x="457.519531"/>
      <use xlink:href="#DejaVuSans-6f" x="522.501953"/>
      <use xlink:href="#DejaVuSans-75" x="583.683594"/>
      <use xlink:href="#DejaVuSans-6e" x="647.0625"/>
      <use xlink:href="#DejaVuSans-64" x="710.441406"/>
     </g>
    </g>
   </g>
   <g id="matplotlib.axis_2">
    <g id="ytick_1">
     <g id="line2d_17">
      <path d="M 59.475313 313.870167 
L 561.675313 313.870167 
" clip-path="url(#p2b74ffb981)" style="fill: none; stroke-dasharray: 1.85,0.8; stroke-dashoffset: 0; stroke: #b0b0b0; stroke-width: 0.5"/>
     </g>
     <g id="line2d_18">
      <defs>
       <path id="m2e9a175e62" d="M 0 0 
L -3.5 0 
" style="stroke: #000000; stroke-width: 0.8"/>
      </defs>
      <g>
       <use xlink:href="#m2e9a175e62" x="59.475313" y="313.870167" style="stroke: #000000; stroke-width: 0.8"/>
      </g>
     </g>
     <g id="text_4">
      <!-- 0.5 -->
      <g transform="translate(28.620625 319.568995) scale(0.15 -0.15)">
       <defs>
        <path id="DejaVuSans-2e" d="M 684 794 
L 1344 794 
L 1344 0 
L 684 0 
L 684 794 
z
" transform="scale(0.015625)"/>
        <path id="DejaVuSans-35" d="M 691 4666 
L 3169 4666 
L 3169 4134 
L 1269 4134 
L 1269 2991 
Q 1406 3038 1543 3061 
Q 1681 3084 1819 3084 
Q 2600 3084 3056 2656 
Q 3513 2228 3513 1497 
Q 3513 744 3044 326 
Q 2575 -91 1722 -91 
Q 1428 -91 1123 -41 
Q 819 9 494 109 
L 494 744 
Q 775 591 1075 516 
Q 1375 441 1709 441 
Q 2250 441 2565 725 
Q 2881 1009 2881 1497 
Q 2881 1984 2565 2268 
Q 2250 2553 1709 2553 
Q 1456 2553 1204 2497 
Q 953 2441 691 2322 
L 691 4666 
z
" transform="scale(0.015625)"/>
       </defs>
       <use xlink:href="#DejaVuSans-30"/>
       <use xlink:href="#DejaVuSans-2e" x="63.623047"/>
       <use xlink:href="#DejaVuSans-35" x="95.410156"/>
      </g>
     </g>
    </g>
    <g id="ytick_2">
     <g id="line2d_19">
      <path d="M 59.475313 259.322206 
L 561.675313 259.322206 
" clip-path="url(#p2b74ffb981)" style="fill: none; stroke-dasharray: 1.85,0.8; stroke-dashoffset: 0; stroke: #b0b0b0; stroke-width: 0.5"/>
     </g>
     <g id="line2d_20">
      <g>
       <use xlink:href="#m2e9a175e62" x="59.475313" y="259.322206" style="stroke: #000000; stroke-width: 0.8"/>
      </g>
     </g>
     <g id="text_5">
      <!-- 0.6 -->
      <g transform="translate(28.620625 265.021034) scale(0.15 -0.15)">
       <defs>
        <path id="DejaVuSans-36" d="M 2113 2584 
Q 1688 2584 1439 2293 
Q 1191 2003 1191 1497 
Q 1191 994 1439 701 
Q 1688 409 2113 409 
Q 2538 409 2786 701 
Q 3034 994 3034 1497 
Q 3034 2003 2786 2293 
Q 2538 2584 2113 2584 
z
M 3366 4563 
L 3366 3988 
Q 3128 4100 2886 4159 
Q 2644 4219 2406 4219 
Q 1781 4219 1451 3797 
Q 1122 3375 1075 2522 
Q 1259 2794 1537 2939 
Q 1816 3084 2150 3084 
Q 2853 3084 3261 2657 
Q 3669 2231 3669 1497 
Q 3669 778 3244 343 
Q 2819 -91 2113 -91 
Q 1303 -91 875 529 
Q 447 1150 447 2328 
Q 447 3434 972 4092 
Q 1497 4750 2381 4750 
Q 2619 4750 2861 4703 
Q 3103 4656 3366 4563 
z
" transform="scale(0.015625)"/>
       </defs>
       <use xlink:href="#DejaVuSans-30"/>
       <use xlink:href="#DejaVuSans-2e" x="63.623047"/>
       <use xlink:href="#DejaVuSans-36" x="95.410156"/>
      </g>
     </g>
    </g>
    <g id="ytick_3">
     <g id="line2d_21">
      <path d="M 59.475313 204.774245 
L 561.675313 204.774245 
" clip-path="url(#p2b74ffb981)" style="fill: none; stroke-dasharray: 1.85,0.8; stroke-dashoffset: 0; stroke: #b0b0b0; stroke-width: 0.5"/>
     </g>
     <g id="line2d_22">
      <g>
       <use xlink:href="#m2e9a175e62" x="59.475313" y="204.774245" style="stroke: #000000; stroke-width: 0.8"/>
      </g>
     </g>
     <g id="text_6">
      <!-- 0.7 -->
      <g transform="translate(28.620625 210.473073) scale(0.15 -0.15)">
       <defs>
        <path id="DejaVuSans-37" d="M 525 4666 
L 3525 4666 
L 3525 4397 
L 1831 0 
L 1172 0 
L 2766 4134 
L 525 4134 
L 525 4666 
z
" transform="scale(0.015625)"/>
       </defs>
       <use xlink:href="#DejaVuSans-30"/>
       <use xlink:href="#DejaVuSans-2e" x="63.623047"/>
       <use xlink:href="#DejaVuSans-37" x="95.410156"/>
      </g>
     </g>
    </g>
    <g id="ytick_4">
     <g id="line2d_23">
      <path d="M 59.475313 150.226284 
L 561.675313 150.226284 
" clip-path="url(#p2b74ffb981)" style="fill: none; stroke-dasharray: 1.85,0.8; stroke-dashoffset: 0; stroke: #b0b0b0; stroke-width: 0.5"/>
     </g>
     <g id="line2d_24">
      <g>
       <use xlink:href="#m2e9a175e62" x="59.475313" y="150.226284" style="stroke: #000000; stroke-width: 0.8"/>
      </g>
     </g>
     <g id="text_7">
      <!-- 0.8 -->
      <g transform="translate(28.620625 155.925112) scale(0.15 -0.15)">
       <defs>
        <path id="DejaVuSans-38" d="M 2034 2216 
Q 1584 2216 1326 1975 
Q 1069 1734 1069 1313 
Q 1069 891 1326 650 
Q 1584 409 2034 409 
Q 2484 409 2743 651 
Q 3003 894 3003 1313 
Q 3003 1734 2745 1975 
Q 2488 2216 2034 2216 
z
M 1403 2484 
Q 997 2584 770 2862 
Q 544 3141 544 3541 
Q 544 4100 942 4425 
Q 1341 4750 2034 4750 
Q 2731 4750 3128 4425 
Q 3525 4100 3525 3541 
Q 3525 3141 3298 2862 
Q 3072 2584 2669 2484 
Q 3125 2378 3379 2068 
Q 3634 1759 3634 1313 
Q 3634 634 3220 271 
Q 2806 -91 2034 -91 
Q 1263 -91 848 271 
Q 434 634 434 1313 
Q 434 1759 690 2068 
Q 947 2378 1403 2484 
z
M 1172 3481 
Q 1172 3119 1398 2916 
Q 1625 2713 2034 2713 
Q 2441 2713 2670 2916 
Q 2900 3119 2900 3481 
Q 2900 3844 2670 4047 
Q 2441 4250 2034 4250 
Q 1625 4250 1398 4047 
Q 1172 3844 1172 3481 
z
" transform="scale(0.015625)"/>
       </defs>
       <use xlink:href="#DejaVuSans-30"/>
       <use xlink:href="#DejaVuSans-2e" x="63.623047"/>
       <use xlink:href="#DejaVuSans-38" x="95.410156"/>
      </g>
     </g>
    </g>
    <g id="ytick_5">
     <g id="line2d_25">
      <path d="M 59.475313 95.678323 
L 561.675313 95.678323 
" clip-path="url(#p2b74ffb981)" style="fill: none; stroke-dasharray: 1.85,0.8; stroke-dashoffset: 0; stroke: #b0b0b0; stroke-width: 0.5"/>
     </g>
     <g id="line2d_26">
      <g>
       <use xlink:href="#m2e9a175e62" x="59.475313" y="95.678323" style="stroke: #000000; stroke-width: 0.8"/>
      </g>
     </g>
     <g id="text_8">
      <!-- 0.9 -->
      <g transform="translate(28.620625 101.377151) scale(0.15 -0.15)">
       <defs>
        <path id="DejaVuSans-39" d="M 703 97 
L 703 672 
Q 941 559 1184 500 
Q 1428 441 1663 441 
Q 2288 441 2617 861 
Q 2947 1281 2994 2138 
Q 2813 1869 2534 1725 
Q 2256 1581 1919 1581 
Q 1219 1581 811 2004 
Q 403 2428 403 3163 
Q 403 3881 828 4315 
Q 1253 4750 1959 4750 
Q 2769 4750 3195 4129 
Q 3622 3509 3622 2328 
Q 3622 1225 3098 567 
Q 2575 -91 1691 -91 
Q 1453 -91 1209 -44 
Q 966 3 703 97 
z
M 1959 2075 
Q 2384 2075 2632 2365 
Q 2881 2656 2881 3163 
Q 2881 3666 2632 3958 
Q 2384 4250 1959 4250 
Q 1534 4250 1286 3958 
Q 1038 3666 1038 3163 
Q 1038 2656 1286 2365 
Q 1534 2075 1959 2075 
z
" transform="scale(0.015625)"/>
       </defs>
       <use xlink:href="#DejaVuSans-30"/>
       <use xlink:href="#DejaVuSans-2e" x="63.623047"/>
       <use xlink:href="#DejaVuSans-39" x="95.410156"/>
      </g>
     </g>
    </g>
    <g id="ytick_6">
     <g id="line2d_27">
      <path d="M 59.475313 41.130362 
L 561.675313 41.130362 
" clip-path="url(#p2b74ffb981)" style="fill: none; stroke-dasharray: 1.85,0.8; stroke-dashoffset: 0; stroke: #b0b0b0; stroke-width: 0.5"/>
     </g>
     <g id="line2d_28">
      <g>
       <use xlink:href="#m2e9a175e62" x="59.475313" y="41.130362" style="stroke: #000000; stroke-width: 0.8"/>
      </g>
     </g>
     <g id="text_9">
      <!-- 1.0 -->
      <g transform="translate(28.620625 46.82919) scale(0.15 -0.15)">
       <use xlink:href="#DejaVuSans-31"/>
       <use xlink:href="#DejaVuSans-2e" x="63.623047"/>
       <use xlink:href="#DejaVuSans-30" x="95.410156"/>
      </g>
     </g>
    </g>
    <g id="text_10">
     <!-- Normalized Performance -->
     <g transform="translate(20.877187 284.447812) rotate(-90) scale(0.18 -0.18)">
      <defs>
       <path id="DejaVuSans-4e" d="M 628 4666 
L 1478 4666 
L 3547 763 
L 3547 4666 
L 4159 4666 
L 4159 0 
L 3309 0 
L 1241 3903 
L 1241 0 
L 628 0 
L 628 4666 
z
" transform="scale(0.015625)"/>
       <path id="DejaVuSans-72" d="M 2631 2963 
Q 2534 3019 2420 3045 
Q 2306 3072 2169 3072 
Q 1681 3072 1420 2755 
Q 1159 2438 1159 1844 
L 1159 0 
L 581 0 
L 581 3500 
L 1159 3500 
L 1159 2956 
Q 1341 3275 1631 3429 
Q 1922 3584 2338 3584 
Q 2397 3584 2469 3576 
Q 2541 3569 2628 3553 
L 2631 2963 
z
" transform="scale(0.015625)"/>
       <path id="DejaVuSans-6d" d="M 3328 2828 
Q 3544 3216 3844 3400 
Q 4144 3584 4550 3584 
Q 5097 3584 5394 3201 
Q 5691 2819 5691 2113 
L 5691 0 
L 5113 0 
L 5113 2094 
Q 5113 2597 4934 2840 
Q 4756 3084 4391 3084 
Q 3944 3084 3684 2787 
Q 3425 2491 3425 1978 
L 3425 0 
L 2847 0 
L 2847 2094 
Q 2847 2600 2669 2842 
Q 2491 3084 2119 3084 
Q 1678 3084 1418 2786 
Q 1159 2488 1159 1978 
L 1159 0 
L 581 0 
L 581 3500 
L 1159 3500 
L 1159 2956 
Q 1356 3278 1631 3431 
Q 1906 3584 2284 3584 
Q 2666 3584 2933 3390 
Q 3200 3197 3328 2828 
z
" transform="scale(0.015625)"/>
       <path id="DejaVuSans-61" d="M 2194 1759 
Q 1497 1759 1228 1600 
Q 959 1441 959 1056 
Q 959 750 1161 570 
Q 1363 391 1709 391 
Q 2188 391 2477 730 
Q 2766 1069 2766 1631 
L 2766 1759 
L 2194 1759 
z
M 3341 1997 
L 3341 0 
L 2766 0 
L 2766 531 
Q 2569 213 2275 61 
Q 1981 -91 1556 -91 
Q 1019 -91 701 211 
Q 384 513 384 1019 
Q 384 1609 779 1909 
Q 1175 2209 1959 2209 
L 2766 2209 
L 2766 2266 
Q 2766 2663 2505 2880 
Q 2244 3097 1772 3097 
Q 1472 3097 1187 3025 
Q 903 2953 641 2809 
L 641 3341 
Q 956 3463 1253 3523 
Q 1550 3584 1831 3584 
Q 2591 3584 2966 3190 
Q 3341 2797 3341 1997 
z
" transform="scale(0.015625)"/>
       <path id="DejaVuSans-6c" d="M 603 4863 
L 1178 4863 
L 1178 0 
L 603 0 
L 603 4863 
z
" transform="scale(0.015625)"/>
       <path id="DejaVuSans-7a" d="M 353 3500 
L 3084 3500 
L 3084 2975 
L 922 459 
L 3084 459 
L 3084 0 
L 275 0 
L 275 525 
L 2438 3041 
L 353 3041 
L 353 3500 
z
" transform="scale(0.015625)"/>
       <path id="DejaVuSans-50" d="M 1259 4147 
L 1259 2394 
L 2053 2394 
Q 2494 2394 2734 2622 
Q 2975 2850 2975 3272 
Q 2975 3691 2734 3919 
Q 2494 4147 2053 4147 
L 1259 4147 
z
M 628 4666 
L 2053 4666 
Q 2838 4666 3239 4311 
Q 3641 3956 3641 3272 
Q 3641 2581 3239 2228 
Q 2838 1875 2053 1875 
L 1259 1875 
L 1259 0 
L 628 0 
L 628 4666 
z
" transform="scale(0.015625)"/>
       <path id="DejaVuSans-66" d="M 2375 4863 
L 2375 4384 
L 1825 4384 
Q 1516 4384 1395 4259 
Q 1275 4134 1275 3809 
L 1275 3500 
L 2222 3500 
L 2222 3053 
L 1275 3053 
L 1275 0 
L 697 0 
L 697 3053 
L 147 3053 
L 147 3500 
L 697 3500 
L 697 3744 
Q 697 4328 969 4595 
Q 1241 4863 1831 4863 
L 2375 4863 
z
" transform="scale(0.015625)"/>
      </defs>
      <use xlink:href="#DejaVuSans-4e"/>
      <use xlink:href="#DejaVuSans-6f" x="74.804688"/>
      <use xlink:href="#DejaVuSans-72" x="135.986328"/>
      <use xlink:href="#DejaVuSans-6d" x="175.349609"/>
      <use xlink:href="#DejaVuSans-61" x="272.761719"/>
      <use xlink:href="#DejaVuSans-6c" x="334.041016"/>
      <use xlink:href="#DejaVuSans-69" x="361.824219"/>
      <use xlink:href="#DejaVuSans-7a" x="389.607422"/>
      <use xlink:href="#DejaVuSans-65" x="442.097656"/>
      <use xlink:href="#DejaVuSans-64" x="503.621094"/>
      <use xlink:href="#DejaVuSans-20" x="567.097656"/>
      <use xlink:href="#DejaVuSans-50" x="598.884766"/>
      <use xlink:href="#DejaVuSans-65" x="655.5625"/>
      <use xlink:href="#DejaVuSans-72" x="717.085938"/>
      <use xlink:href="#DejaVuSans-66" x="758.199219"/>
      <use xlink:href="#DejaVuSans-6f" x="793.404297"/>
      <use xlink:href="#DejaVuSans-72" x="854.585938"/>
      <use xlink:href="#DejaVuSans-6d" x="893.949219"/>
      <use xlink:href="#DejaVuSans-61" x="991.361328"/>
      <use xlink:href="#DejaVuSans-6e" x="1052.640625"/>
      <use xlink:href="#DejaVuSans-63" x="1116.019531"/>
      <use xlink:href="#DejaVuSans-65" x="1171"/>
     </g>
    </g>
   </g>
   <g id="line2d_29">
    <path d="M 82.302585 76.820325 
L 168.088309 76.820325 
L 218.269741 76.820325 
L 253.874033 76.820325 
L 281.490868 76.820325 
L 304.055465 76.820325 
L 323.13356 76.820325 
L 339.659757 76.820325 
L 354.236896 76.820325 
L 367.276592 76.820325 
L 379.072431 76.820325 
L 389.841189 76.820325 
L 399.747485 76.820325 
L 408.919284 76.820325 
L 417.458023 76.820325 
L 425.445481 76.820325 
L 432.948544 76.820325 
L 440.02262 76.820325 
L 446.714122 76.820325 
L 453.062316 76.820325 
L 459.100715 76.820325 
L 464.858155 76.820325 
L 470.359623 76.820325 
L 475.626913 76.820325 
L 480.67915 76.820325 
L 485.533209 76.820325 
L 490.204052 76.820325 
L 494.705008 76.820325 
L 499.048002 76.820325 
L 503.243747 76.820325 
L 507.301902 76.820325 
L 511.231205 76.820325 
L 515.039587 76.820325 
L 518.734268 76.820325 
L 522.321842 76.820325 
L 525.808344 76.820325 
L 529.199314 76.820325 
L 532.499846 76.820325 
L 535.714641 76.820325 
L 538.84804 76.820325 
" clip-path="url(#p2b74ffb981)" style="fill: none; stroke-dasharray: 11.1,4.8; stroke-dashoffset: 0; stroke: #fdc086; stroke-width: 3"/>
   </g>
   <g id="line2d_30">
    <path d="M 82.302585 212.393739 
L 168.088309 131.063371 
L 218.269741 73.693264 
L 253.874033 79.654647 
L 281.490868 110.591249 
L 304.055465 113.892615 
L 323.13356 63.580233 
L 339.659757 54.859481 
L 354.236896 136.333401 
L 367.276592 42.9384 
L 379.072431 42.9384 
L 389.841189 42.9384 
L 399.747485 42.9384 
L 408.919284 42.9384 
L 417.458023 42.9384 
L 425.445481 42.9384 
L 432.948544 42.9384 
L 440.02262 42.9384 
L 446.714122 42.9384 
L 453.062316 42.9384 
L 459.100715 42.9384 
L 464.858155 42.9384 
L 470.359623 42.9384 
L 475.626913 42.9384 
L 480.67915 42.9384 
L 485.533209 42.9384 
L 490.204052 42.9384 
L 494.705008 42.9384 
L 499.048002 42.9384 
L 503.243747 42.9384 
L 507.301902 42.9384 
L 511.231205 42.9384 
L 515.039587 42.9384 
L 518.734268 42.9384 
L 522.321842 42.9384 
L 525.808344 42.9384 
L 529.199314 42.9384 
L 532.499846 42.9384 
L 535.714641 42.9384 
L 538.84804 42.9384 
" clip-path="url(#p2b74ffb981)" style="fill: none; stroke-dasharray: 11.1,4.8; stroke-dashoffset: 0; stroke: #beaed4; stroke-width: 3"/>
   </g>
   <g id="line2d_31">
    <path d="M 82.302585 175.931418 
L 168.088309 112.533127 
L 218.269741 85.801435 
L 253.874033 71.475575 
L 281.490868 65.29932 
L 304.055465 60.138781 
L 323.13356 56.296845 
L 339.659757 54.069912 
L 354.236896 52.285697 
L 367.276592 50.570454 
L 379.072431 49.239279 
L 389.841189 48.727941 
L 399.747485 47.958138 
L 408.919284 47.075378 
L 417.458023 46.676161 
L 425.445481 46.160936 
L 432.948544 45.741478 
L 440.02262 45.349748 
L 446.714122 45.111139 
L 453.062316 44.868938 
L 459.100715 44.494682 
L 464.858155 44.265976 
L 470.359623 44.029163 
L 475.626913 43.851357 
L 480.67915 43.728082 
L 485.533209 43.626493 
L 490.204052 43.556476 
L 494.705008 43.453531 
L 499.048002 43.377208 
L 503.243747 43.257037 
L 507.301902 43.169366 
L 511.231205 43.046183 
L 515.039587 42.967509 
L 518.734268 42.904652 
L 522.321842 42.851199 
L 525.808344 42.76007 
L 529.199314 42.668821 
L 532.499846 42.608549 
L 535.714641 42.558767 
L 538.84804 42.505709 
" clip-path="url(#p2b74ffb981)" style="fill: none; stroke: #7fc97f; stroke-width: 3; stroke-linecap: square"/>
   </g>
   <g id="line2d_32">
    <path d="M 82.302585 200.123893 
L 168.088309 113.405615 
L 218.269741 80.277246 
L 253.874033 66.40037 
L 281.490868 57.882867 
L 304.055465 53.917175 
L 323.13356 50.642846 
L 339.659757 48.601978 
L 354.236896 47.383215 
L 367.276592 46.54146 
L 379.072431 45.907939 
L 389.841189 45.311741 
L 399.747485 45.05665 
L 408.919284 44.757461 
L 417.458023 44.497029 
L 425.445481 44.204665 
L 432.948544 43.975231 
L 440.02262 43.816283 
L 446.714122 43.588089 
L 453.062316 43.453901 
L 459.100715 43.341966 
L 464.858155 43.23874 
L 470.359623 43.110478 
L 475.626913 43.026298 
L 480.67915 42.935932 
L 485.533209 42.868102 
L 490.204052 42.819976 
L 494.705008 42.755078 
L 499.048002 42.685842 
L 503.243747 42.581782 
L 507.301902 42.513347 
L 511.231205 42.452936 
L 515.039587 42.403541 
L 518.734268 42.349604 
L 522.321842 42.314616 
L 525.808344 42.264359 
L 529.199314 42.212624 
L 532.499846 42.155162 
L 535.714641 42.137192 
L 538.84804 42.109091 
" clip-path="url(#p2b74ffb981)" style="fill: none; stroke: #bf5b17; stroke-width: 3; stroke-linecap: square"/>
   </g>
   <g id="line2d_33">
    <path d="M 82.302585 200.123893 
L 168.088309 103.023324 
L 218.269741 57.872977 
L 253.874033 52.427035 
L 281.490868 49.643706 
L 304.055465 48.796881 
L 323.13356 48.455218 
L 339.659757 48.090058 
L 354.236896 47.758671 
L 367.276592 47.235356 
L 379.072431 46.908095 
L 389.841189 46.804823 
L 399.747485 46.342636 
L 408.919284 45.834024 
L 417.458023 45.278006 
L 425.445481 45.241376 
L 432.948544 44.950094 
L 440.02262 44.943009 
L 446.714122 44.828446 
L 453.062316 44.807451 
L 459.100715 44.274916 
L 464.858155 44.246997 
L 470.359623 44.185165 
L 475.626913 43.933106 
L 480.67915 43.864752 
L 485.533209 43.040887 
L 490.204052 43.03515 
L 494.705008 43.007154 
L 499.048002 42.968037 
L 503.243747 42.968037 
L 507.301902 42.960992 
L 511.231205 42.96096 
L 515.039587 42.772661 
L 518.734268 42.7719 
L 522.321842 42.770841 
L 525.808344 42.755384 
L 529.199314 42.610712 
L 532.499846 42.610712 
L 535.714641 42.584654 
L 538.84804 42.51314 
" clip-path="url(#p2b74ffb981)" style="fill: none; stroke: #f0027f; stroke-width: 3; stroke-linecap: square"/>
   </g>
   <g id="line2d_34">
    <path d="M 82.302585 200.123893 
L 168.088309 103.023324 
L 218.269741 57.872977 
L 253.874033 52.427035 
L 281.490868 49.643706 
L 304.055465 48.796881 
L 323.13356 48.449812 
L 339.659757 48.080968 
L 354.236896 47.74148 
L 367.276592 47.197357 
L 379.072431 46.821107 
L 389.841189 46.700585 
L 399.747485 46.266022 
L 408.919284 45.748557 
L 417.458023 45.219934 
L 425.445481 45.143007 
L 432.948544 44.866517 
L 440.02262 44.822405 
L 446.714122 44.711071 
L 453.062316 44.690115 
L 459.100715 44.202044 
L 464.858155 44.167469 
L 470.359623 44.107122 
L 475.626913 43.882702 
L 480.67915 43.810933 
L 485.533209 43.188652 
L 490.204052 43.09907 
L 494.705008 43.062563 
L 499.048002 43.018396 
L 503.243747 43.009181 
L 507.301902 42.991173 
L 511.231205 42.989624 
L 515.039587 42.830815 
L 518.734268 42.797928 
L 522.321842 42.783075 
L 525.808344 42.767567 
L 529.199314 42.63663 
L 532.499846 42.635293 
L 535.714641 42.609416 
L 538.84804 42.54036 
" clip-path="url(#p2b74ffb981)" style="fill: none; stroke: #386cb0; stroke-width: 3; stroke-linecap: square"/>
   </g>
   <g id="line2d_35">
    <path d="M 82.302585 69.400323 
L 168.088309 50.821513 
L 218.269741 45.921917 
L 253.874033 43.757274 
L 281.490868 42.555593 
L 304.055465 42.036807 
L 323.13356 41.74411 
L 339.659757 41.535053 
L 354.236896 41.420234 
L 367.276592 41.343813 
L 379.072431 41.290315 
L 389.841189 41.249678 
L 399.747485 41.217389 
L 408.919284 41.196122 
L 417.458023 41.180576 
L 425.445481 41.169312 
L 432.948544 41.160063 
L 440.02262 41.152794 
L 446.714122 41.147175 
L 453.062316 41.143323 
L 459.100715 41.140833 
L 464.858155 41.139108 
L 470.359623 41.137785 
L 475.626913 41.136658 
L 480.67915 41.135611 
L 485.533209 41.134798 
L 490.204052 41.134178 
L 494.705008 41.133689 
L 499.048002 41.133241 
L 503.243747 41.132837 
L 507.301902 41.13251 
L 511.231205 41.132239 
L 515.039587 41.132001 
L 518.734268 41.131772 
L 522.321842 41.131596 
L 525.808344 41.13146 
L 529.199314 41.13134 
L 532.499846 41.131228 
L 535.714641 41.131133 
L 538.84804 41.131057 
" clip-path="url(#p2b74ffb981)" style="fill: none; stroke-dasharray: 11.1,4.8; stroke-dashoffset: 0; stroke: #666666; stroke-width: 3"/>
   </g>
   <g id="patch_3">
    <path d="M 59.475313 339.84 
L 59.475313 7.2 
" style="fill: none; stroke: #000000; stroke-width: 0.8; stroke-linejoin: miter; stroke-linecap: square"/>
   </g>
   <g id="patch_4">
    <path d="M 561.675313 339.84 
L 561.675313 7.2 
" style="fill: none; stroke: #000000; stroke-width: 0.8; stroke-linejoin: miter; stroke-linecap: square"/>
   </g>
   <g id="patch_5">
    <path d="M 59.475313 339.84 
L 561.675313 339.84 
" style="fill: none; stroke: #000000; stroke-width: 0.8; stroke-linejoin: miter; stroke-linecap: square"/>
   </g>
   <g id="patch_6">
    <path d="M 59.475313 7.2 
L 561.675313 7.2 
" style="fill: none; stroke: #000000; stroke-width: 0.8; stroke-linejoin: miter; stroke-linecap: square"/>
   </g>
  </g>
 </g>
 <defs>
  <clipPath id="p2b74ffb981">
   <rect x="59.475313" y="7.2" width="502.2" height="332.64"/>
  </clipPath>
 </defs>
</svg>
