<?xml version="1.0" encoding="utf-8" standalone="no"?>
<!DOCTYPE svg PUBLIC "-//W3C//DTD SVG 1.1//EN"
  "http://www.w3.org/Graphics/SVG/1.1/DTD/svg11.dtd">
<svg xmlns:xlink="http://www.w3.org/1999/xlink" width="754.720625pt" height="559.20125pt" viewBox="0 0 754.720625 559.20125" xmlns="http://www.w3.org/2000/svg" version="1.1">
 <metadata>
  <rdf:RDF xmlns:dc="http://purl.org/dc/elements/1.1/" xmlns:cc="http://creativecommons.org/ns#" xmlns:rdf="http://www.w3.org/1999/02/22-rdf-syntax-ns#">
   <cc:Work>
    <dc:type rdf:resource="http://purl.org/dc/dcmitype/StillImage"/>
    <dc:date>2025-02-27T10:06:18.887971</dc:date>
    <dc:format>image/svg+xml</dc:format>
    <dc:creator>
     <cc:Agent>
      <dc:title>Matplotlib v3.9.4, https://matplotlib.org/</dc:title>
     </cc:Agent>
    </dc:creator>
   </cc:Work>
  </rdf:RDF>
 </metadata>
 <defs>
  <style type="text/css">*{stroke-linejoin: round; stroke-linecap: butt}</style>
 </defs>
 <g id="figure_1">
  <g id="patch_1">
   <path d="M 0 559.20125 
L 754.720625 559.20125 
L 754.720625 0 
L 0 0 
z
" style="fill: #ffffff"/>
  </g>
  <g id="axes_1">
   <g id="patch_2">
    <path d="M 77.920625 506.16 
L 747.520625 506.16 
L 747.520625 7.2 
L 77.920625 7.2 
z
" style="fill: #ffffff"/>
   </g>
   <g id="PolyCollection_1">
    <path d="M 108.356989 329.848659 
L 108.356989 105480.45049 
L 116.062397 279.637287 
L 123.767806 235.504016 
L 131.473214 213.658341 
L 139.178623 199.972472 
L 146.884031 201.159449 
L 154.58944 181.925594 
L 162.294848 154.547927 
L 170.000257 151.82754 
L 177.705665 148.28797 
L 185.411074 145.595971 
L 193.116482 142.54749 
L 200.821891 140.200997 
L 208.527299 138.192533 
L 216.232708 136.260226 
L 223.938116 134.085935 
L 231.643525 132.309942 
L 239.348933 130.933211 
L 247.054342 129.750208 
L 254.75975 128.396767 
L 262.465159 127.053971 
L 270.170567 125.74252 
L 277.875976 124.576876 
L 285.581384 123.683148 
L 293.286793 122.743736 
L 300.992202 121.995704 
L 308.69761 121.054647 
L 316.403019 120.200594 
L 324.108427 119.269056 
L 331.813836 118.470373 
L 339.519244 117.687195 
L 347.224653 116.580745 
L 354.930061 115.839878 
L 362.63547 115.183914 
L 370.340878 114.494275 
L 378.046287 113.58211 
L 385.751695 113.069737 
L 393.457104 112.186743 
L 401.162512 111.491864 
L 408.867921 110.988395 
L 416.573329 110.355009 
L 424.278738 109.766717 
L 431.984146 109.290839 
L 439.689555 108.741919 
L 447.394963 108.139403 
L 455.100372 107.569443 
L 462.80578 107.183839 
L 470.511189 106.55012 
L 478.216597 106.011718 
L 485.922006 105.648706 
L 493.627414 104.759391 
L 501.332823 103.907075 
L 509.038231 103.151139 
L 516.74364 102.185392 
L 524.449048 101.86691 
L 532.154457 101.420866 
L 539.859866 101.117195 
L 547.565274 100.768447 
L 555.270683 100.503908 
L 562.976091 100.344652 
L 570.6815 100.047965 
L 578.386908 99.884647 
L 586.092317 99.539552 
L 593.797725 99.156299 
L 601.503134 98.800966 
L 609.208542 98.678956 
L 616.913951 98.36808 
L 624.619359 98.118753 
L 632.324768 97.86109 
L 640.030176 97.547494 
L 647.735585 97.348275 
L 655.440993 97.10866 
L 663.146402 96.823511 
L 670.85181 96.548424 
L 678.557219 96.382771 
L 686.262627 95.860937 
L 693.968036 95.593179 
L 701.673444 95.192043 
L 709.378853 94.603655 
L 717.084261 93.974134 
L 717.084261 65.26847 
L 717.084261 65.26847 
L 709.378853 66.004959 
L 701.673444 66.731208 
L 693.968036 67.367566 
L 686.262627 68.130191 
L 678.557219 68.795971 
L 670.85181 69.447178 
L 663.146402 70.158359 
L 655.440993 70.804196 
L 647.735585 71.409735 
L 640.030176 72.105057 
L 632.324768 72.645222 
L 624.619359 73.373149 
L 616.913951 73.971133 
L 609.208542 74.668465 
L 601.503134 75.561818 
L 593.797725 76.222352 
L 586.092317 76.929736 
L 578.386908 77.500418 
L 570.6815 78.252689 
L 562.976091 78.874295 
L 555.270683 79.563042 
L 547.565274 80.293819 
L 539.859866 81.011946 
L 532.154457 81.705457 
L 524.449048 82.32058 
L 516.74364 83.007379 
L 509.038231 84.05989 
L 501.332823 85.056558 
L 493.627414 85.878352 
L 485.922006 86.795359 
L 478.216597 87.455868 
L 470.511189 88.119296 
L 462.80578 88.963573 
L 455.100372 89.583638 
L 447.394963 90.218496 
L 439.689555 91.091747 
L 431.984146 91.711682 
L 424.278738 92.377116 
L 416.573329 93.091239 
L 408.867921 93.894066 
L 401.162512 94.583056 
L 393.457104 95.363892 
L 385.751695 96.374626 
L 378.046287 97.077633 
L 370.340878 98.197271 
L 362.63547 98.861927 
L 354.930061 99.636302 
L 347.224653 100.524366 
L 339.519244 101.594913 
L 331.813836 102.478174 
L 324.108427 103.366919 
L 316.403019 104.08294 
L 308.69761 104.82869 
L 300.992202 105.711273 
L 293.286793 106.477612 
L 285.581384 107.273913 
L 277.875976 108.229581 
L 270.170567 109.189852 
L 262.465159 110.101889 
L 254.75975 111.095033 
L 247.054342 112.349197 
L 239.348933 113.258873 
L 231.643525 114.443317 
L 223.938116 115.785563 
L 216.232708 117.384666 
L 208.527299 118.901261 
L 200.821891 120.375102 
L 193.116482 122.19381 
L 185.411074 123.979637 
L 177.705665 125.606403 
L 170.000257 127.630436 
L 162.294848 128.758059 
L 154.58944 140.294566 
L 146.884031 150.057821 
L 139.178623 182.571931 
L 131.473214 195.16835 
L 123.767806 214.4429 
L 116.062397 247.991695 
L 108.356989 329.848659 
z
" clip-path="url(#p2868d318be)" style="fill-opacity: 0.1; stroke: #000000; stroke-opacity: 0.1"/>
   </g>
   <g id="PolyCollection_2">
    <defs>
     <path id="mfebb7f8c2d" d="M 108.356989 -167.604272 
L 108.356989 -122.689092 
L 116.062397 -307.855228 
L 123.767806 -337.889341 
L 131.473214 -354.82387 
L 139.178623 -366.064686 
L 146.884031 -379.606921 
L 154.58944 -401.043864 
L 162.294848 -412.924829 
L 170.000257 -418.019872 
L 177.705665 -422.966378 
L 185.411074 -427.271912 
L 193.116482 -432.430205 
L 200.821891 -435.904588 
L 208.527299 -439.118301 
L 216.232708 -441.98268 
L 223.938116 -444.141898 
L 231.643525 -446.576356 
L 239.348933 -447.982452 
L 247.054342 -449.482644 
L 254.75975 -450.952803 
L 262.465159 -452.682805 
L 270.170567 -454.215656 
L 277.875976 -455.38428 
L 285.581384 -457.205293 
L 293.286793 -458.686411 
L 300.992202 -459.876295 
L 308.69761 -461.186258 
L 316.403019 -462.429224 
L 324.108427 -463.810328 
L 331.813836 -465.095981 
L 339.519244 -466.294835 
L 347.224653 -467.602499 
L 354.930061 -468.797217 
L 362.63547 -470.067173 
L 370.340878 -471.189303 
L 378.046287 -472.370623 
L 385.751695 -473.576492 
L 393.457104 -474.752609 
L 401.162512 -475.711899 
L 408.867921 -476.79636 
L 416.573329 -477.836786 
L 424.278738 -478.975376 
L 431.984146 -479.950025 
L 439.689555 -480.847856 
L 447.394963 -481.813595 
L 455.100372 -482.763672 
L 462.80578 -483.668546 
L 470.511189 -484.534568 
L 478.216597 -485.450348 
L 485.922006 -486.395422 
L 493.627414 -487.633498 
L 501.332823 -488.647847 
L 509.038231 -489.785239 
L 516.74364 -490.916608 
L 524.449048 -492.048819 
L 532.154457 -493.094325 
L 539.859866 -494.099173 
L 547.565274 -495.18873 
L 555.270683 -496.222472 
L 562.976091 -497.232419 
L 570.6815 -498.181293 
L 578.386908 -499.129817 
L 586.092317 -500.02743 
L 593.797725 -500.968819 
L 601.503134 -501.809915 
L 609.208542 -502.594806 
L 616.913951 -503.533091 
L 624.619359 -504.417169 
L 632.324768 -505.191334 
L 640.030176 -506.015868 
L 647.735585 -506.799974 
L 655.440993 -507.582342 
L 663.146402 -508.387847 
L 670.85181 -509.186305 
L 678.557219 -510.094093 
L 686.262627 -511.01427 
L 693.968036 -511.92943 
L 701.673444 -512.786897 
L 709.378853 -513.707686 
L 717.084261 -514.528276 
L 717.084261 -521.590692 
L 717.084261 -521.590692 
L 709.378853 -520.776684 
L 701.673444 -519.963662 
L 693.968036 -519.120613 
L 686.262627 -518.278984 
L 678.557219 -517.44383 
L 670.85181 -516.527845 
L 663.146402 -515.756262 
L 655.440993 -514.939773 
L 647.735585 -514.188645 
L 640.030176 -513.42705 
L 632.324768 -512.592705 
L 624.619359 -511.727688 
L 616.913951 -510.820977 
L 609.208542 -509.99112 
L 601.503134 -509.139834 
L 593.797725 -508.28944 
L 586.092317 -507.328006 
L 578.386908 -506.439611 
L 570.6815 -505.49764 
L 562.976091 -504.552557 
L 555.270683 -503.608901 
L 547.565274 -502.614294 
L 539.859866 -501.587495 
L 532.154457 -500.591365 
L 524.449048 -499.604829 
L 516.74364 -498.494407 
L 509.038231 -497.452165 
L 501.332823 -496.383119 
L 493.627414 -495.328688 
L 485.922006 -494.198184 
L 478.216597 -493.203335 
L 470.511189 -492.390052 
L 462.80578 -491.438318 
L 455.100372 -490.479811 
L 447.394963 -489.495808 
L 439.689555 -488.703423 
L 431.984146 -487.755535 
L 424.278738 -486.808436 
L 416.573329 -485.784934 
L 408.867921 -484.778564 
L 401.162512 -483.874418 
L 393.457104 -482.959355 
L 385.751695 -481.870632 
L 378.046287 -480.889292 
L 370.340878 -479.819826 
L 362.63547 -478.871811 
L 354.930061 -477.879654 
L 347.224653 -476.909882 
L 339.519244 -475.894709 
L 331.813836 -474.90017 
L 324.108427 -473.879631 
L 316.403019 -472.812035 
L 308.69761 -471.801032 
L 300.992202 -470.797228 
L 293.286793 -469.840038 
L 285.581384 -468.599869 
L 277.875976 -467.195665 
L 270.170567 -466.205103 
L 262.465159 -464.790813 
L 254.75975 -463.556127 
L 247.054342 -462.279174 
L 239.348933 -461.013012 
L 231.643525 -459.259048 
L 223.938116 -457.259918 
L 216.232708 -454.684278 
L 208.527299 -452.726367 
L 200.821891 -449.625684 
L 193.116482 -447.510173 
L 185.411074 -444.236123 
L 177.705665 -439.808705 
L 170.000257 -436.785034 
L 162.294848 -433.065178 
L 154.58944 -428.938942 
L 146.884031 -421.315952 
L 139.178623 -379.306404 
L 131.473214 -367.707617 
L 123.767806 -350.967719 
L 116.062397 -324.672637 
L 108.356989 -167.604272 
z
" style="stroke: #ffff99; stroke-opacity: 0.1"/>
    </defs>
    <g clip-path="url(#p2868d318be)">
     <use xlink:href="#mfebb7f8c2d" x="0" y="559.20125" style="fill: #ffff99; fill-opacity: 0.1; stroke: #ffff99; stroke-opacity: 0.1"/>
    </g>
   </g>
   <g id="PolyCollection_3">
    <defs>
     <path id="ma9e69d7f09" d="M 108.356989 -112.710696 
L 108.356989 -75.72125 
L 116.062397 -280.781519 
L 123.767806 -323.3248 
L 131.473214 -346.079885 
L 139.178623 -359.770518 
L 146.884031 -382.745167 
L 154.58944 -386.878597 
L 162.294848 -396.470829 
L 170.000257 -403.170241 
L 177.705665 -407.556249 
L 185.411074 -410.760944 
L 193.116482 -413.375459 
L 200.821891 -416.068921 
L 208.527299 -419.111893 
L 216.232708 -421.265949 
L 223.938116 -423.692663 
L 231.643525 -425.786067 
L 239.348933 -427.542574 
L 247.054342 -429.022597 
L 254.75975 -430.65537 
L 262.465159 -432.072875 
L 270.170567 -433.131066 
L 277.875976 -434.301152 
L 285.581384 -435.597342 
L 293.286793 -436.668652 
L 300.992202 -437.607484 
L 308.69761 -438.648692 
L 316.403019 -439.540652 
L 324.108427 -440.361424 
L 331.813836 -441.098377 
L 339.519244 -441.94218 
L 347.224653 -442.893592 
L 354.930061 -443.68596 
L 362.63547 -444.584765 
L 370.340878 -445.275974 
L 378.046287 -446.555942 
L 385.751695 -447.27864 
L 393.457104 -448.250948 
L 401.162512 -449.157527 
L 408.867921 -449.694097 
L 416.573329 -451.140528 
L 424.278738 -451.958804 
L 431.984146 -452.453916 
L 439.689555 -453.129819 
L 447.394963 -453.766567 
L 455.100372 -454.414568 
L 462.80578 -454.93683 
L 470.511189 -455.933078 
L 478.216597 -456.480611 
L 485.922006 -457.025364 
L 493.627414 -457.964614 
L 501.332823 -458.823737 
L 509.038231 -459.809024 
L 516.74364 -460.764069 
L 524.449048 -461.358851 
L 532.154457 -461.92934 
L 539.859866 -462.368233 
L 547.565274 -462.862864 
L 555.270683 -463.276757 
L 562.976091 -463.594091 
L 570.6815 -464.000968 
L 578.386908 -464.360333 
L 586.092317 -464.710337 
L 593.797725 -465.20589 
L 601.503134 -465.66185 
L 609.208542 -466.081714 
L 616.913951 -466.457362 
L 624.619359 -466.831721 
L 632.324768 -467.178182 
L 640.030176 -467.469145 
L 647.735585 -467.881479 
L 655.440993 -468.190114 
L 663.146402 -468.494246 
L 670.85181 -468.994047 
L 678.557219 -469.390627 
L 686.262627 -469.973696 
L 693.968036 -470.519574 
L 701.673444 -471.057858 
L 709.378853 -471.839639 
L 717.084261 -472.467027 
L 717.084261 -492.55683 
L 717.084261 -492.55683 
L 709.378853 -491.977372 
L 701.673444 -491.228095 
L 693.968036 -490.609608 
L 686.262627 -489.914487 
L 678.557219 -489.353664 
L 670.85181 -488.80464 
L 663.146402 -488.181152 
L 655.440993 -487.632473 
L 647.735585 -487.062078 
L 640.030176 -486.524324 
L 632.324768 -485.919057 
L 624.619359 -485.302791 
L 616.913951 -484.751616 
L 609.208542 -484.182311 
L 601.503134 -483.657344 
L 593.797725 -483.077483 
L 586.092317 -482.486748 
L 578.386908 -481.853122 
L 570.6815 -481.315714 
L 562.976091 -480.739693 
L 555.270683 -480.157236 
L 547.565274 -479.557695 
L 539.859866 -478.876903 
L 532.154457 -478.311784 
L 524.449048 -477.728961 
L 516.74364 -477.091872 
L 509.038231 -476.241598 
L 501.332823 -475.271766 
L 493.627414 -474.370178 
L 485.922006 -473.590344 
L 478.216597 -472.933989 
L 470.511189 -472.314685 
L 462.80578 -471.481565 
L 455.100372 -470.880453 
L 447.394963 -470.125731 
L 439.689555 -469.475201 
L 431.984146 -468.954253 
L 424.278738 -468.288535 
L 416.573329 -467.645409 
L 408.867921 -466.796701 
L 401.162512 -465.991663 
L 393.457104 -465.229558 
L 385.751695 -464.301076 
L 378.046287 -463.628933 
L 370.340878 -462.725033 
L 362.63547 -462.067243 
L 354.930061 -461.354052 
L 347.224653 -460.661672 
L 339.519244 -459.858073 
L 331.813836 -459.222384 
L 324.108427 -458.389046 
L 316.403019 -457.707864 
L 308.69761 -456.699762 
L 300.992202 -455.936387 
L 293.286793 -455.155914 
L 285.581384 -454.298452 
L 277.875976 -453.165072 
L 270.170567 -452.103114 
L 262.465159 -451.032547 
L 254.75975 -449.947479 
L 247.054342 -448.540538 
L 239.348933 -447.355431 
L 231.643525 -446.189349 
L 223.938116 -444.655929 
L 216.232708 -443.020126 
L 208.527299 -441.603633 
L 200.821891 -440.08637 
L 193.116482 -438.422363 
L 185.411074 -436.334122 
L 177.705665 -434.930184 
L 170.000257 -432.589403 
L 162.294848 -429.422377 
L 154.58944 -424.98734 
L 146.884031 -424.250288 
L 139.178623 -373.409458 
L 131.473214 -359.864998 
L 123.767806 -339.834188 
L 116.062397 -302.313104 
L 108.356989 -112.710696 
z
" style="stroke: #386cb0; stroke-opacity: 0.1"/>
    </defs>
    <g clip-path="url(#p2868d318be)">
     <use xlink:href="#ma9e69d7f09" x="0" y="559.20125" style="fill: #386cb0; fill-opacity: 0.1; stroke: #386cb0; stroke-opacity: 0.1"/>
    </g>
   </g>
   <g id="PolyCollection_4">
    <defs>
     <path id="ma12c3834a6" d="M 108.356989 -133.498039 
L 108.356989 -76.718283 
L 116.062397 -313.595059 
L 123.767806 -341.223154 
L 131.473214 -357.956473 
L 139.178623 -369.839677 
L 146.884031 -379.18506 
L 154.58944 -388.029623 
L 162.294848 -392.801103 
L 170.000257 -396.962718 
L 177.705665 -400.055486 
L 185.411074 -403.393072 
L 193.116482 -405.961474 
L 200.821891 -408.829895 
L 208.527299 -411.180698 
L 216.232708 -413.32507 
L 223.938116 -416.255809 
L 231.643525 -418.073123 
L 239.348933 -419.304391 
L 247.054342 -421.07166 
L 254.75975 -422.479609 
L 262.465159 -423.99224 
L 270.170567 -425.691857 
L 277.875976 -426.690958 
L 285.581384 -427.601091 
L 293.286793 -428.581325 
L 300.992202 -429.296022 
L 308.69761 -430.210859 
L 316.403019 -431.397732 
L 324.108427 -432.789866 
L 331.813836 -433.619218 
L 339.519244 -434.426569 
L 347.224653 -435.855544 
L 354.930061 -436.812539 
L 362.63547 -437.939412 
L 370.340878 -438.767655 
L 378.046287 -439.367911 
L 385.751695 -439.960863 
L 393.457104 -440.910913 
L 401.162512 -441.699691 
L 408.867921 -442.29611 
L 416.573329 -443.141843 
L 424.278738 -444.011019 
L 431.984146 -444.419041 
L 439.689555 -445.203267 
L 447.394963 -445.685529 
L 455.100372 -446.200862 
L 462.80578 -446.744992 
L 470.511189 -447.598077 
L 478.216597 -448.257776 
L 485.922006 -448.62014 
L 493.627414 -449.368945 
L 501.332823 -450.006732 
L 509.038231 -450.444703 
L 516.74364 -450.941914 
L 524.449048 -451.307981 
L 532.154457 -452.064944 
L 539.859866 -452.613757 
L 547.565274 -453.064542 
L 555.270683 -453.204628 
L 562.976091 -453.383125 
L 570.6815 -453.556375 
L 578.386908 -453.739819 
L 586.092317 -453.949097 
L 593.797725 -454.276405 
L 601.503134 -454.476598 
L 609.208542 -454.676301 
L 616.913951 -454.928859 
L 624.619359 -455.241882 
L 632.324768 -455.528681 
L 640.030176 -455.742407 
L 647.735585 -456.019648 
L 655.440993 -456.209978 
L 663.146402 -456.404181 
L 670.85181 -456.576732 
L 678.557219 -456.781996 
L 686.262627 -457.024033 
L 693.968036 -457.224886 
L 701.673444 -457.487674 
L 709.378853 -457.671413 
L 717.084261 -458.011939 
L 717.084261 -469.932553 
L 717.084261 -469.932553 
L 709.378853 -469.604295 
L 701.673444 -469.415025 
L 693.968036 -469.118455 
L 686.262627 -468.883084 
L 678.557219 -468.624791 
L 670.85181 -468.409884 
L 663.146402 -468.224149 
L 655.440993 -468.009978 
L 647.735585 -467.797034 
L 640.030176 -467.515235 
L 632.324768 -467.331921 
L 624.619359 -467.068412 
L 616.913951 -466.745993 
L 609.208542 -466.481979 
L 601.503134 -466.278663 
L 593.797725 -466.076789 
L 586.092317 -465.721172 
L 578.386908 -465.490378 
L 570.6815 -465.289433 
L 562.976091 -465.120362 
L 555.270683 -464.956597 
L 547.565274 -464.814232 
L 539.859866 -464.319592 
L 532.154457 -463.733761 
L 524.449048 -462.956324 
L 516.74364 -462.579686 
L 509.038231 -462.094679 
L 501.332823 -461.650182 
L 493.627414 -460.977973 
L 485.922006 -460.261193 
L 478.216597 -459.952737 
L 470.511189 -459.321783 
L 462.80578 -458.497633 
L 455.100372 -457.949531 
L 447.394963 -457.451553 
L 439.689555 -456.987984 
L 431.984146 -456.173121 
L 424.278738 -455.76769 
L 416.573329 -454.879806 
L 408.867921 -454.051706 
L 401.162512 -453.439424 
L 393.457104 -452.600149 
L 385.751695 -451.683039 
L 378.046287 -451.091359 
L 370.340878 -450.50099 
L 362.63547 -449.650858 
L 354.930061 -448.533345 
L 347.224653 -447.514479 
L 339.519244 -445.959988 
L 331.813836 -445.129918 
L 324.108427 -444.312088 
L 316.403019 -442.976802 
L 308.69761 -441.789149 
L 300.992202 -440.790051 
L 293.286793 -440.011569 
L 285.581384 -439.017279 
L 277.875976 -438.160369 
L 270.170567 -437.200093 
L 262.465159 -435.464073 
L 254.75975 -433.860767 
L 247.054342 -432.483076 
L 239.348933 -430.700874 
L 231.643525 -429.325544 
L 223.938116 -427.263826 
L 216.232708 -424.10712 
L 208.527299 -421.809073 
L 200.821891 -419.329069 
L 193.116482 -416.543564 
L 185.411074 -413.707567 
L 177.705665 -409.895639 
L 170.000257 -406.69965 
L 162.294848 -402.172386 
L 154.58944 -397.278736 
L 146.884031 -388.185154 
L 139.178623 -378.476868 
L 131.473214 -366.975186 
L 123.767806 -349.355825 
L 116.062397 -320.491989 
L 108.356989 -133.498039 
z
" style="stroke: #f0027f; stroke-opacity: 0.1"/>
    </defs>
    <g clip-path="url(#p2868d318be)">
     <use xlink:href="#ma12c3834a6" x="0" y="559.20125" style="fill: #f0027f; fill-opacity: 0.1; stroke: #f0027f; stroke-opacity: 0.1"/>
    </g>
   </g>
   <g id="PolyCollection_5">
    <defs>
     <path id="mcb32f5bdb0" d="M 108.356989 -400.942487 
L 108.356989 -385.566625 
L 116.062397 -398.32429 
L 123.767806 -408.3989 
L 131.473214 -416.526538 
L 139.178623 -435.666752 
L 146.884031 -443.832502 
L 154.58944 -450.202898 
L 162.294848 -454.06961 
L 170.000257 -457.119826 
L 177.705665 -460.017032 
L 185.411074 -463.013233 
L 193.116482 -464.97073 
L 200.821891 -467.287893 
L 208.527299 -468.977736 
L 216.232708 -470.580775 
L 223.938116 -472.021768 
L 231.643525 -473.261069 
L 239.348933 -474.266065 
L 247.054342 -475.205012 
L 254.75975 -476.292645 
L 262.465159 -477.280817 
L 270.170567 -478.131429 
L 277.875976 -479.030556 
L 285.581384 -479.937651 
L 293.286793 -480.802961 
L 300.992202 -481.670258 
L 308.69761 -482.55951 
L 316.403019 -483.342303 
L 324.108427 -484.088904 
L 331.813836 -484.990908 
L 339.519244 -485.960206 
L 347.224653 -486.721221 
L 354.930061 -487.563054 
L 362.63547 -488.658732 
L 370.340878 -489.493705 
L 378.046287 -490.223982 
L 385.751695 -491.055509 
L 393.457104 -491.836883 
L 401.162512 -492.609363 
L 408.867921 -493.358917 
L 416.573329 -494.156958 
L 424.278738 -494.940674 
L 431.984146 -495.705308 
L 439.689555 -496.442566 
L 447.394963 -497.196853 
L 455.100372 -497.947021 
L 462.80578 -498.687746 
L 470.511189 -499.422625 
L 478.216597 -500.122098 
L 485.922006 -500.847045 
L 493.627414 -501.78548 
L 501.332823 -502.729119 
L 509.038231 -503.667775 
L 516.74364 -504.595017 
L 524.449048 -505.472258 
L 532.154457 -506.368683 
L 539.859866 -507.27246 
L 547.565274 -508.109579 
L 555.270683 -508.931976 
L 562.976091 -509.758638 
L 570.6815 -510.522901 
L 578.386908 -511.296147 
L 586.092317 -512.077358 
L 593.797725 -512.843933 
L 601.503134 -513.609163 
L 609.208542 -514.318485 
L 616.913951 -515.052226 
L 624.619359 -515.72793 
L 632.324768 -516.405941 
L 640.030176 -517.098641 
L 647.735585 -517.759952 
L 655.440993 -518.434804 
L 663.146402 -519.08448 
L 670.85181 -519.770083 
L 678.557219 -520.443375 
L 686.262627 -521.231704 
L 693.968036 -522.024531 
L 701.673444 -522.744847 
L 709.378853 -523.503275 
L 717.084261 -524.278407 
L 717.084261 -529.32125 
L 717.084261 -529.32125 
L 709.378853 -528.610053 
L 701.673444 -527.92804 
L 693.968036 -527.223387 
L 686.262627 -526.47714 
L 678.557219 -525.771165 
L 670.85181 -525.141229 
L 663.146402 -524.526755 
L 655.440993 -523.906215 
L 647.735585 -523.263857 
L 640.030176 -522.637872 
L 632.324768 -522.004017 
L 624.619359 -521.350493 
L 616.913951 -520.70568 
L 609.208542 -520.048446 
L 601.503134 -519.37582 
L 593.797725 -518.705169 
L 586.092317 -518.036843 
L 578.386908 -517.307894 
L 570.6815 -516.552743 
L 562.976091 -515.820896 
L 555.270683 -515.081406 
L 547.565274 -514.296574 
L 539.859866 -513.504422 
L 532.154457 -512.754202 
L 524.449048 -512.017115 
L 516.74364 -511.194941 
L 509.038231 -510.288361 
L 501.332823 -509.451203 
L 493.627414 -508.636942 
L 485.922006 -507.756414 
L 478.216597 -507.079917 
L 470.511189 -506.423386 
L 462.80578 -505.767664 
L 455.100372 -505.104203 
L 447.394963 -504.429445 
L 439.689555 -503.801771 
L 431.984146 -503.141971 
L 424.278738 -502.434619 
L 416.573329 -501.756766 
L 408.867921 -501.003969 
L 401.162512 -500.185061 
L 393.457104 -499.488845 
L 385.751695 -498.741207 
L 378.046287 -497.968545 
L 370.340878 -497.28428 
L 362.63547 -496.357802 
L 354.930061 -495.63877 
L 347.224653 -494.948656 
L 339.519244 -494.128878 
L 331.813836 -493.309171 
L 324.108427 -492.570165 
L 316.403019 -491.866569 
L 308.69761 -491.13445 
L 300.992202 -490.412379 
L 293.286793 -489.608524 
L 285.581384 -488.765109 
L 277.875976 -488.007878 
L 270.170567 -487.248559 
L 262.465159 -486.507027 
L 254.75975 -485.499856 
L 247.054342 -484.537063 
L 239.348933 -483.305389 
L 231.643525 -481.865775 
L 223.938116 -480.16985 
L 216.232708 -478.725197 
L 208.527299 -477.125516 
L 200.821891 -475.372687 
L 193.116482 -473.195042 
L 185.411074 -470.252623 
L 177.705665 -467.523897 
L 170.000257 -464.550281 
L 162.294848 -461.183555 
L 154.58944 -457.403577 
L 146.884031 -454.428633 
L 139.178623 -451.448431 
L 131.473214 -426.901889 
L 123.767806 -419.550099 
L 116.062397 -410.961439 
L 108.356989 -400.942487 
z
" style="stroke: #bf5b17; stroke-opacity: 0.1"/>
    </defs>
    <g clip-path="url(#p2868d318be)">
     <use xlink:href="#mcb32f5bdb0" x="0" y="559.20125" style="fill: #bf5b17; fill-opacity: 0.1; stroke: #bf5b17; stroke-opacity: 0.1"/>
    </g>
   </g>
   <g id="matplotlib.axis_1">
    <g id="xtick_1">
     <g id="line2d_1">
      <path d="M 100.65158 506.16 
L 100.65158 7.2 
" clip-path="url(#p2868d318be)" style="fill: none; stroke-dasharray: 1.85,0.8; stroke-dashoffset: 0; stroke: #b0b0b0; stroke-width: 0.5"/>
     </g>
     <g id="line2d_2">
      <defs>
       <path id="maa2f104c1f" d="M 0 0 
L 0 3.5 
" style="stroke: #000000; stroke-width: 0.8"/>
      </defs>
      <g>
       <use xlink:href="#maa2f104c1f" x="100.65158" y="506.16" style="stroke: #000000; stroke-width: 0.8"/>
      </g>
     </g>
     <g id="text_1">
      <!-- 0 -->
      <g transform="translate(94.92533 526.837188) scale(0.18 -0.18)">
       <defs>
        <path id="DejaVuSans-30" d="M 2034 4250 
Q 1547 4250 1301 3770 
Q 1056 3291 1056 2328 
Q 1056 1369 1301 889 
Q 1547 409 2034 409 
Q 2525 409 2770 889 
Q 3016 1369 3016 2328 
Q 3016 3291 2770 3770 
Q 2525 4250 2034 4250 
z
M 2034 4750 
Q 2819 4750 3233 4129 
Q 3647 3509 3647 2328 
Q 3647 1150 3233 529 
Q 2819 -91 2034 -91 
Q 1250 -91 836 529 
Q 422 1150 422 2328 
Q 422 3509 836 4129 
Q 1250 4750 2034 4750 
z
" transform="scale(0.015625)"/>
       </defs>
       <use xlink:href="#DejaVuSans-30"/>
      </g>
     </g>
    </g>
    <g id="xtick_2">
     <g id="line2d_3">
      <path d="M 177.705665 506.16 
L 177.705665 7.2 
" clip-path="url(#p2868d318be)" style="fill: none; stroke-dasharray: 1.85,0.8; stroke-dashoffset: 0; stroke: #b0b0b0; stroke-width: 0.5"/>
     </g>
     <g id="line2d_4">
      <g>
       <use xlink:href="#maa2f104c1f" x="177.705665" y="506.16" style="stroke: #000000; stroke-width: 0.8"/>
      </g>
     </g>
     <g id="text_2">
      <!-- 10 -->
      <g transform="translate(166.253165 526.837188) scale(0.18 -0.18)">
       <defs>
        <path id="DejaVuSans-31" d="M 794 531 
L 1825 531 
L 1825 4091 
L 703 3866 
L 703 4441 
L 1819 4666 
L 2450 4666 
L 2450 531 
L 3481 531 
L 3481 0 
L 794 0 
L 794 531 
z
" transform="scale(0.015625)"/>
       </defs>
       <use xlink:href="#DejaVuSans-31"/>
       <use xlink:href="#DejaVuSans-30" x="63.623047"/>
      </g>
     </g>
    </g>
    <g id="xtick_3">
     <g id="line2d_5">
      <path d="M 254.75975 506.16 
L 254.75975 7.2 
" clip-path="url(#p2868d318be)" style="fill: none; stroke-dasharray: 1.85,0.8; stroke-dashoffset: 0; stroke: #b0b0b0; stroke-width: 0.5"/>
     </g>
     <g id="line2d_6">
      <g>
       <use xlink:href="#maa2f104c1f" x="254.75975" y="506.16" style="stroke: #000000; stroke-width: 0.8"/>
      </g>
     </g>
     <g id="text_3">
      <!-- 20 -->
      <g transform="translate(243.30725 526.837188) scale(0.18 -0.18)">
       <defs>
        <path id="DejaVuSans-32" d="M 1228 531 
L 3431 531 
L 3431 0 
L 469 0 
L 469 531 
Q 828 903 1448 1529 
Q 2069 2156 2228 2338 
Q 2531 2678 2651 2914 
Q 2772 3150 2772 3378 
Q 2772 3750 2511 3984 
Q 2250 4219 1831 4219 
Q 1534 4219 1204 4116 
Q 875 4013 500 3803 
L 500 4441 
Q 881 4594 1212 4672 
Q 1544 4750 1819 4750 
Q 2544 4750 2975 4387 
Q 3406 4025 3406 3419 
Q 3406 3131 3298 2873 
Q 3191 2616 2906 2266 
Q 2828 2175 2409 1742 
Q 1991 1309 1228 531 
z
" transform="scale(0.015625)"/>
       </defs>
       <use xlink:href="#DejaVuSans-32"/>
       <use xlink:href="#DejaVuSans-30" x="63.623047"/>
      </g>
     </g>
    </g>
    <g id="xtick_4">
     <g id="line2d_7">
      <path d="M 331.813836 506.16 
L 331.813836 7.2 
" clip-path="url(#p2868d318be)" style="fill: none; stroke-dasharray: 1.85,0.8; stroke-dashoffset: 0; stroke: #b0b0b0; stroke-width: 0.5"/>
     </g>
     <g id="line2d_8">
      <g>
       <use xlink:href="#maa2f104c1f" x="331.813836" y="506.16" style="stroke: #000000; stroke-width: 0.8"/>
      </g>
     </g>
     <g id="text_4">
      <!-- 30 -->
      <g transform="translate(320.361336 526.837188) scale(0.18 -0.18)">
       <defs>
        <path id="DejaVuSans-33" d="M 2597 2516 
Q 3050 2419 3304 2112 
Q 3559 1806 3559 1356 
Q 3559 666 3084 287 
Q 2609 -91 1734 -91 
Q 1441 -91 1130 -33 
Q 819 25 488 141 
L 488 750 
Q 750 597 1062 519 
Q 1375 441 1716 441 
Q 2309 441 2620 675 
Q 2931 909 2931 1356 
Q 2931 1769 2642 2001 
Q 2353 2234 1838 2234 
L 1294 2234 
L 1294 2753 
L 1863 2753 
Q 2328 2753 2575 2939 
Q 2822 3125 2822 3475 
Q 2822 3834 2567 4026 
Q 2313 4219 1838 4219 
Q 1578 4219 1281 4162 
Q 984 4106 628 3988 
L 628 4550 
Q 988 4650 1302 4700 
Q 1616 4750 1894 4750 
Q 2613 4750 3031 4423 
Q 3450 4097 3450 3541 
Q 3450 3153 3228 2886 
Q 3006 2619 2597 2516 
z
" transform="scale(0.015625)"/>
       </defs>
       <use xlink:href="#DejaVuSans-33"/>
       <use xlink:href="#DejaVuSans-30" x="63.623047"/>
      </g>
     </g>
    </g>
    <g id="xtick_5">
     <g id="line2d_9">
      <path d="M 408.867921 506.16 
L 408.867921 7.2 
" clip-path="url(#p2868d318be)" style="fill: none; stroke-dasharray: 1.85,0.8; stroke-dashoffset: 0; stroke: #b0b0b0; stroke-width: 0.5"/>
     </g>
     <g id="line2d_10">
      <g>
       <use xlink:href="#maa2f104c1f" x="408.867921" y="506.16" style="stroke: #000000; stroke-width: 0.8"/>
      </g>
     </g>
     <g id="text_5">
      <!-- 40 -->
      <g transform="translate(397.415421 526.837188) scale(0.18 -0.18)">
       <defs>
        <path id="DejaVuSans-34" d="M 2419 4116 
L 825 1625 
L 2419 1625 
L 2419 4116 
z
M 2253 4666 
L 3047 4666 
L 3047 1625 
L 3713 1625 
L 3713 1100 
L 3047 1100 
L 3047 0 
L 2419 0 
L 2419 1100 
L 313 1100 
L 313 1709 
L 2253 4666 
z
" transform="scale(0.015625)"/>
       </defs>
       <use xlink:href="#DejaVuSans-34"/>
       <use xlink:href="#DejaVuSans-30" x="63.623047"/>
      </g>
     </g>
    </g>
    <g id="xtick_6">
     <g id="line2d_11">
      <path d="M 485.922006 506.16 
L 485.922006 7.2 
" clip-path="url(#p2868d318be)" style="fill: none; stroke-dasharray: 1.85,0.8; stroke-dashoffset: 0; stroke: #b0b0b0; stroke-width: 0.5"/>
     </g>
     <g id="line2d_12">
      <g>
       <use xlink:href="#maa2f104c1f" x="485.922006" y="506.16" style="stroke: #000000; stroke-width: 0.8"/>
      </g>
     </g>
     <g id="text_6">
      <!-- 50 -->
      <g transform="translate(474.469506 526.837188) scale(0.18 -0.18)">
       <defs>
        <path id="DejaVuSans-35" d="M 691 4666 
L 3169 4666 
L 3169 4134 
L 1269 4134 
L 1269 2991 
Q 1406 3038 1543 3061 
Q 1681 3084 1819 3084 
Q 2600 3084 3056 2656 
Q 3513 2228 3513 1497 
Q 3513 744 3044 326 
Q 2575 -91 1722 -91 
Q 1428 -91 1123 -41 
Q 819 9 494 109 
L 494 744 
Q 775 591 1075 516 
Q 1375 441 1709 441 
Q 2250 441 2565 725 
Q 2881 1009 2881 1497 
Q 2881 1984 2565 2268 
Q 2250 2553 1709 2553 
Q 1456 2553 1204 2497 
Q 953 2441 691 2322 
L 691 4666 
z
" transform="scale(0.015625)"/>
       </defs>
       <use xlink:href="#DejaVuSans-35"/>
       <use xlink:href="#DejaVuSans-30" x="63.623047"/>
      </g>
     </g>
    </g>
    <g id="xtick_7">
     <g id="line2d_13">
      <path d="M 562.976091 506.16 
L 562.976091 7.2 
" clip-path="url(#p2868d318be)" style="fill: none; stroke-dasharray: 1.85,0.8; stroke-dashoffset: 0; stroke: #b0b0b0; stroke-width: 0.5"/>
     </g>
     <g id="line2d_14">
      <g>
       <use xlink:href="#maa2f104c1f" x="562.976091" y="506.16" style="stroke: #000000; stroke-width: 0.8"/>
      </g>
     </g>
     <g id="text_7">
      <!-- 60 -->
      <g transform="translate(551.523591 526.837188) scale(0.18 -0.18)">
       <defs>
        <path id="DejaVuSans-36" d="M 2113 2584 
Q 1688 2584 1439 2293 
Q 1191 2003 1191 1497 
Q 1191 994 1439 701 
Q 1688 409 2113 409 
Q 2538 409 2786 701 
Q 3034 994 3034 1497 
Q 3034 2003 2786 2293 
Q 2538 2584 2113 2584 
z
M 3366 4563 
L 3366 3988 
Q 3128 4100 2886 4159 
Q 2644 4219 2406 4219 
Q 1781 4219 1451 3797 
Q 1122 3375 1075 2522 
Q 1259 2794 1537 2939 
Q 1816 3084 2150 3084 
Q 2853 3084 3261 2657 
Q 3669 2231 3669 1497 
Q 3669 778 3244 343 
Q 2819 -91 2113 -91 
Q 1303 -91 875 529 
Q 447 1150 447 2328 
Q 447 3434 972 4092 
Q 1497 4750 2381 4750 
Q 2619 4750 2861 4703 
Q 3103 4656 3366 4563 
z
" transform="scale(0.015625)"/>
       </defs>
       <use xlink:href="#DejaVuSans-36"/>
       <use xlink:href="#DejaVuSans-30" x="63.623047"/>
      </g>
     </g>
    </g>
    <g id="xtick_8">
     <g id="line2d_15">
      <path d="M 640.030176 506.16 
L 640.030176 7.2 
" clip-path="url(#p2868d318be)" style="fill: none; stroke-dasharray: 1.85,0.8; stroke-dashoffset: 0; stroke: #b0b0b0; stroke-width: 0.5"/>
     </g>
     <g id="line2d_16">
      <g>
       <use xlink:href="#maa2f104c1f" x="640.030176" y="506.16" style="stroke: #000000; stroke-width: 0.8"/>
      </g>
     </g>
     <g id="text_8">
      <!-- 70 -->
      <g transform="translate(628.577676 526.837188) scale(0.18 -0.18)">
       <defs>
        <path id="DejaVuSans-37" d="M 525 4666 
L 3525 4666 
L 3525 4397 
L 1831 0 
L 1172 0 
L 2766 4134 
L 525 4134 
L 525 4666 
z
" transform="scale(0.015625)"/>
       </defs>
       <use xlink:href="#DejaVuSans-37"/>
       <use xlink:href="#DejaVuSans-30" x="63.623047"/>
      </g>
     </g>
    </g>
    <g id="xtick_9">
     <g id="line2d_17">
      <path d="M 717.084261 506.16 
L 717.084261 7.2 
" clip-path="url(#p2868d318be)" style="fill: none; stroke-dasharray: 1.85,0.8; stroke-dashoffset: 0; stroke: #b0b0b0; stroke-width: 0.5"/>
     </g>
     <g id="line2d_18">
      <g>
       <use xlink:href="#maa2f104c1f" x="717.084261" y="506.16" style="stroke: #000000; stroke-width: 0.8"/>
      </g>
     </g>
     <g id="text_9">
      <!-- 80 -->
      <g transform="translate(705.631761 526.837188) scale(0.18 -0.18)">
       <defs>
        <path id="DejaVuSans-38" d="M 2034 2216 
Q 1584 2216 1326 1975 
Q 1069 1734 1069 1313 
Q 1069 891 1326 650 
Q 1584 409 2034 409 
Q 2484 409 2743 651 
Q 3003 894 3003 1313 
Q 3003 1734 2745 1975 
Q 2488 2216 2034 2216 
z
M 1403 2484 
Q 997 2584 770 2862 
Q 544 3141 544 3541 
Q 544 4100 942 4425 
Q 1341 4750 2034 4750 
Q 2731 4750 3128 4425 
Q 3525 4100 3525 3541 
Q 3525 3141 3298 2862 
Q 3072 2584 2669 2484 
Q 3125 2378 3379 2068 
Q 3634 1759 3634 1313 
Q 3634 634 3220 271 
Q 2806 -91 2034 -91 
Q 1263 -91 848 271 
Q 434 634 434 1313 
Q 434 1759 690 2068 
Q 947 2378 1403 2484 
z
M 1172 3481 
Q 1172 3119 1398 2916 
Q 1625 2713 2034 2713 
Q 2441 2713 2670 2916 
Q 2900 3119 2900 3481 
Q 2900 3844 2670 4047 
Q 2441 4250 2034 4250 
Q 1625 4250 1398 4047 
Q 1172 3844 1172 3481 
z
" transform="scale(0.015625)"/>
       </defs>
       <use xlink:href="#DejaVuSans-38"/>
       <use xlink:href="#DejaVuSans-30" x="63.623047"/>
      </g>
     </g>
    </g>
    <g id="text_10">
     <!-- Decision Round -->
     <g transform="translate(343.067656 548.257813) scale(0.18 -0.18)">
      <defs>
       <path id="DejaVuSans-44" d="M 1259 4147 
L 1259 519 
L 2022 519 
Q 2988 519 3436 956 
Q 3884 1394 3884 2338 
Q 3884 3275 3436 3711 
Q 2988 4147 2022 4147 
L 1259 4147 
z
M 628 4666 
L 1925 4666 
Q 3281 4666 3915 4102 
Q 4550 3538 4550 2338 
Q 4550 1131 3912 565 
Q 3275 0 1925 0 
L 628 0 
L 628 4666 
z
" transform="scale(0.015625)"/>
       <path id="DejaVuSans-65" d="M 3597 1894 
L 3597 1613 
L 953 1613 
Q 991 1019 1311 708 
Q 1631 397 2203 397 
Q 2534 397 2845 478 
Q 3156 559 3463 722 
L 3463 178 
Q 3153 47 2828 -22 
Q 2503 -91 2169 -91 
Q 1331 -91 842 396 
Q 353 884 353 1716 
Q 353 2575 817 3079 
Q 1281 3584 2069 3584 
Q 2775 3584 3186 3129 
Q 3597 2675 3597 1894 
z
M 3022 2063 
Q 3016 2534 2758 2815 
Q 2500 3097 2075 3097 
Q 1594 3097 1305 2825 
Q 1016 2553 972 2059 
L 3022 2063 
z
" transform="scale(0.015625)"/>
       <path id="DejaVuSans-63" d="M 3122 3366 
L 3122 2828 
Q 2878 2963 2633 3030 
Q 2388 3097 2138 3097 
Q 1578 3097 1268 2742 
Q 959 2388 959 1747 
Q 959 1106 1268 751 
Q 1578 397 2138 397 
Q 2388 397 2633 464 
Q 2878 531 3122 666 
L 3122 134 
Q 2881 22 2623 -34 
Q 2366 -91 2075 -91 
Q 1284 -91 818 406 
Q 353 903 353 1747 
Q 353 2603 823 3093 
Q 1294 3584 2113 3584 
Q 2378 3584 2631 3529 
Q 2884 3475 3122 3366 
z
" transform="scale(0.015625)"/>
       <path id="DejaVuSans-69" d="M 603 3500 
L 1178 3500 
L 1178 0 
L 603 0 
L 603 3500 
z
M 603 4863 
L 1178 4863 
L 1178 4134 
L 603 4134 
L 603 4863 
z
" transform="scale(0.015625)"/>
       <path id="DejaVuSans-73" d="M 2834 3397 
L 2834 2853 
Q 2591 2978 2328 3040 
Q 2066 3103 1784 3103 
Q 1356 3103 1142 2972 
Q 928 2841 928 2578 
Q 928 2378 1081 2264 
Q 1234 2150 1697 2047 
L 1894 2003 
Q 2506 1872 2764 1633 
Q 3022 1394 3022 966 
Q 3022 478 2636 193 
Q 2250 -91 1575 -91 
Q 1294 -91 989 -36 
Q 684 19 347 128 
L 347 722 
Q 666 556 975 473 
Q 1284 391 1588 391 
Q 1994 391 2212 530 
Q 2431 669 2431 922 
Q 2431 1156 2273 1281 
Q 2116 1406 1581 1522 
L 1381 1569 
Q 847 1681 609 1914 
Q 372 2147 372 2553 
Q 372 3047 722 3315 
Q 1072 3584 1716 3584 
Q 2034 3584 2315 3537 
Q 2597 3491 2834 3397 
z
" transform="scale(0.015625)"/>
       <path id="DejaVuSans-6f" d="M 1959 3097 
Q 1497 3097 1228 2736 
Q 959 2375 959 1747 
Q 959 1119 1226 758 
Q 1494 397 1959 397 
Q 2419 397 2687 759 
Q 2956 1122 2956 1747 
Q 2956 2369 2687 2733 
Q 2419 3097 1959 3097 
z
M 1959 3584 
Q 2709 3584 3137 3096 
Q 3566 2609 3566 1747 
Q 3566 888 3137 398 
Q 2709 -91 1959 -91 
Q 1206 -91 779 398 
Q 353 888 353 1747 
Q 353 2609 779 3096 
Q 1206 3584 1959 3584 
z
" transform="scale(0.015625)"/>
       <path id="DejaVuSans-6e" d="M 3513 2113 
L 3513 0 
L 2938 0 
L 2938 2094 
Q 2938 2591 2744 2837 
Q 2550 3084 2163 3084 
Q 1697 3084 1428 2787 
Q 1159 2491 1159 1978 
L 1159 0 
L 581 0 
L 581 3500 
L 1159 3500 
L 1159 2956 
Q 1366 3272 1645 3428 
Q 1925 3584 2291 3584 
Q 2894 3584 3203 3211 
Q 3513 2838 3513 2113 
z
" transform="scale(0.015625)"/>
       <path id="DejaVuSans-20" transform="scale(0.015625)"/>
       <path id="DejaVuSans-52" d="M 2841 2188 
Q 3044 2119 3236 1894 
Q 3428 1669 3622 1275 
L 4263 0 
L 3584 0 
L 2988 1197 
Q 2756 1666 2539 1819 
Q 2322 1972 1947 1972 
L 1259 1972 
L 1259 0 
L 628 0 
L 628 4666 
L 2053 4666 
Q 2853 4666 3247 4331 
Q 3641 3997 3641 3322 
Q 3641 2881 3436 2590 
Q 3231 2300 2841 2188 
z
M 1259 4147 
L 1259 2491 
L 2053 2491 
Q 2509 2491 2742 2702 
Q 2975 2913 2975 3322 
Q 2975 3731 2742 3939 
Q 2509 4147 2053 4147 
L 1259 4147 
z
" transform="scale(0.015625)"/>
       <path id="DejaVuSans-75" d="M 544 1381 
L 544 3500 
L 1119 3500 
L 1119 1403 
Q 1119 906 1312 657 
Q 1506 409 1894 409 
Q 2359 409 2629 706 
Q 2900 1003 2900 1516 
L 2900 3500 
L 3475 3500 
L 3475 0 
L 2900 0 
L 2900 538 
Q 2691 219 2414 64 
Q 2138 -91 1772 -91 
Q 1169 -91 856 284 
Q 544 659 544 1381 
z
M 1991 3584 
L 1991 3584 
z
" transform="scale(0.015625)"/>
       <path id="DejaVuSans-64" d="M 2906 2969 
L 2906 4863 
L 3481 4863 
L 3481 0 
L 2906 0 
L 2906 525 
Q 2725 213 2448 61 
Q 2172 -91 1784 -91 
Q 1150 -91 751 415 
Q 353 922 353 1747 
Q 353 2572 751 3078 
Q 1150 3584 1784 3584 
Q 2172 3584 2448 3432 
Q 2725 3281 2906 2969 
z
M 947 1747 
Q 947 1113 1208 752 
Q 1469 391 1925 391 
Q 2381 391 2643 752 
Q 2906 1113 2906 1747 
Q 2906 2381 2643 2742 
Q 2381 3103 1925 3103 
Q 1469 3103 1208 2742 
Q 947 2381 947 1747 
z
" transform="scale(0.015625)"/>
      </defs>
      <use xlink:href="#DejaVuSans-44"/>
      <use xlink:href="#DejaVuSans-65" x="77.001953"/>
      <use xlink:href="#DejaVuSans-63" x="138.525391"/>
      <use xlink:href="#DejaVuSans-69" x="193.505859"/>
      <use xlink:href="#DejaVuSans-73" x="221.289062"/>
      <use xlink:href="#DejaVuSans-69" x="273.388672"/>
      <use xlink:href="#DejaVuSans-6f" x="301.171875"/>
      <use xlink:href="#DejaVuSans-6e" x="362.353516"/>
      <use xlink:href="#DejaVuSans-20" x="425.732422"/>
      <use xlink:href="#DejaVuSans-52" x="457.519531"/>
      <use xlink:href="#DejaVuSans-6f" x="522.501953"/>
      <use xlink:href="#DejaVuSans-75" x="583.683594"/>
      <use xlink:href="#DejaVuSans-6e" x="647.0625"/>
      <use xlink:href="#DejaVuSans-64" x="710.441406"/>
     </g>
    </g>
   </g>
   <g id="matplotlib.axis_2">
    <g id="ytick_1">
     <g id="line2d_19">
      <path d="M 77.920625 425.084925 
L 747.520625 425.084925 
" clip-path="url(#p2868d318be)" style="fill: none; stroke-dasharray: 1.85,0.8; stroke-dashoffset: 0; stroke: #b0b0b0; stroke-width: 0.5"/>
     </g>
     <g id="line2d_20">
      <defs>
       <path id="m76930ed376" d="M 0 0 
L -3.5 0 
" style="stroke: #000000; stroke-width: 0.8"/>
      </defs>
      <g>
       <use xlink:href="#m76930ed376" x="77.920625" y="425.084925" style="stroke: #000000; stroke-width: 0.8"/>
      </g>
     </g>
     <g id="text_11">
      <!-- $\mathdefault{10^{-2}}$ -->
      <g transform="translate(28.620625 431.923518) scale(0.18 -0.18)">
       <defs>
        <path id="DejaVuSans-2212" d="M 678 2272 
L 4684 2272 
L 4684 1741 
L 678 1741 
L 678 2272 
z
" transform="scale(0.015625)"/>
       </defs>
       <use xlink:href="#DejaVuSans-31" transform="translate(0 0.765625)"/>
       <use xlink:href="#DejaVuSans-30" transform="translate(63.623047 0.765625)"/>
       <use xlink:href="#DejaVuSans-2212" transform="translate(128.203125 39.046875) scale(0.7)"/>
       <use xlink:href="#DejaVuSans-32" transform="translate(186.855469 39.046875) scale(0.7)"/>
      </g>
     </g>
    </g>
    <g id="ytick_2">
     <g id="line2d_21">
      <path d="M 77.920625 319.819027 
L 747.520625 319.819027 
" clip-path="url(#p2868d318be)" style="fill: none; stroke-dasharray: 1.85,0.8; stroke-dashoffset: 0; stroke: #b0b0b0; stroke-width: 0.5"/>
     </g>
     <g id="line2d_22">
      <g>
       <use xlink:href="#m76930ed376" x="77.920625" y="319.819027" style="stroke: #000000; stroke-width: 0.8"/>
      </g>
     </g>
     <g id="text_12">
      <!-- $\mathdefault{10^{-1}}$ -->
      <g transform="translate(28.620625 326.657621) scale(0.18 -0.18)">
       <use xlink:href="#DejaVuSans-31" transform="translate(0 0.684375)"/>
       <use xlink:href="#DejaVuSans-30" transform="translate(63.623047 0.684375)"/>
       <use xlink:href="#DejaVuSans-2212" transform="translate(128.203125 38.965625) scale(0.7)"/>
       <use xlink:href="#DejaVuSans-31" transform="translate(186.855469 38.965625) scale(0.7)"/>
      </g>
     </g>
    </g>
    <g id="ytick_3">
     <g id="line2d_23">
      <path d="M 77.920625 214.55313 
L 747.520625 214.55313 
" clip-path="url(#p2868d318be)" style="fill: none; stroke-dasharray: 1.85,0.8; stroke-dashoffset: 0; stroke: #b0b0b0; stroke-width: 0.5"/>
     </g>
     <g id="line2d_24">
      <g>
       <use xlink:href="#m76930ed376" x="77.920625" y="214.55313" style="stroke: #000000; stroke-width: 0.8"/>
      </g>
     </g>
     <g id="text_13">
      <!-- $\mathdefault{10^{0}}$ -->
      <g transform="translate(39.240625 221.391724) scale(0.18 -0.18)">
       <use xlink:href="#DejaVuSans-31" transform="translate(0 0.765625)"/>
       <use xlink:href="#DejaVuSans-30" transform="translate(63.623047 0.765625)"/>
       <use xlink:href="#DejaVuSans-30" transform="translate(128.203125 39.046875) scale(0.7)"/>
      </g>
     </g>
    </g>
    <g id="ytick_4">
     <g id="line2d_25">
      <path d="M 77.920625 109.287233 
L 747.520625 109.287233 
" clip-path="url(#p2868d318be)" style="fill: none; stroke-dasharray: 1.85,0.8; stroke-dashoffset: 0; stroke: #b0b0b0; stroke-width: 0.5"/>
     </g>
     <g id="line2d_26">
      <g>
       <use xlink:href="#m76930ed376" x="77.920625" y="109.287233" style="stroke: #000000; stroke-width: 0.8"/>
      </g>
     </g>
     <g id="text_14">
      <!-- $\mathdefault{10^{1}}$ -->
      <g transform="translate(39.240625 116.125826) scale(0.18 -0.18)">
       <use xlink:href="#DejaVuSans-31" transform="translate(0 0.684375)"/>
       <use xlink:href="#DejaVuSans-30" transform="translate(63.623047 0.684375)"/>
       <use xlink:href="#DejaVuSans-31" transform="translate(128.203125 38.965625) scale(0.7)"/>
      </g>
     </g>
    </g>
    <g id="ytick_5">
     <g id="line2d_27">
      <defs>
       <path id="mee12a73a52" d="M 0 0 
L -2 0 
" style="stroke: #000000; stroke-width: 0.6"/>
      </defs>
      <g>
       <use xlink:href="#mee12a73a52" x="77.920625" y="498.662629" style="stroke: #000000; stroke-width: 0.6"/>
      </g>
     </g>
    </g>
    <g id="ytick_6">
     <g id="line2d_28">
      <g>
       <use xlink:href="#mee12a73a52" x="77.920625" y="480.126225" style="stroke: #000000; stroke-width: 0.6"/>
      </g>
     </g>
    </g>
    <g id="ytick_7">
     <g id="line2d_29">
      <g>
       <use xlink:href="#mee12a73a52" x="77.920625" y="466.974437" style="stroke: #000000; stroke-width: 0.6"/>
      </g>
     </g>
    </g>
    <g id="ytick_8">
     <g id="line2d_30">
      <g>
       <use xlink:href="#mee12a73a52" x="77.920625" y="456.773117" style="stroke: #000000; stroke-width: 0.6"/>
      </g>
     </g>
    </g>
    <g id="ytick_9">
     <g id="line2d_31">
      <g>
       <use xlink:href="#mee12a73a52" x="77.920625" y="448.438032" style="stroke: #000000; stroke-width: 0.6"/>
      </g>
     </g>
    </g>
    <g id="ytick_10">
     <g id="line2d_32">
      <g>
       <use xlink:href="#mee12a73a52" x="77.920625" y="441.390818" style="stroke: #000000; stroke-width: 0.6"/>
      </g>
     </g>
    </g>
    <g id="ytick_11">
     <g id="line2d_33">
      <g>
       <use xlink:href="#mee12a73a52" x="77.920625" y="435.286244" style="stroke: #000000; stroke-width: 0.6"/>
      </g>
     </g>
    </g>
    <g id="ytick_12">
     <g id="line2d_34">
      <g>
       <use xlink:href="#mee12a73a52" x="77.920625" y="429.901628" style="stroke: #000000; stroke-width: 0.6"/>
      </g>
     </g>
    </g>
    <g id="ytick_13">
     <g id="line2d_35">
      <g>
       <use xlink:href="#mee12a73a52" x="77.920625" y="393.396732" style="stroke: #000000; stroke-width: 0.6"/>
      </g>
     </g>
    </g>
    <g id="ytick_14">
     <g id="line2d_36">
      <g>
       <use xlink:href="#mee12a73a52" x="77.920625" y="374.860328" style="stroke: #000000; stroke-width: 0.6"/>
      </g>
     </g>
    </g>
    <g id="ytick_15">
     <g id="line2d_37">
      <g>
       <use xlink:href="#mee12a73a52" x="77.920625" y="361.708539" style="stroke: #000000; stroke-width: 0.6"/>
      </g>
     </g>
    </g>
    <g id="ytick_16">
     <g id="line2d_38">
      <g>
       <use xlink:href="#mee12a73a52" x="77.920625" y="351.50722" style="stroke: #000000; stroke-width: 0.6"/>
      </g>
     </g>
    </g>
    <g id="ytick_17">
     <g id="line2d_39">
      <g>
       <use xlink:href="#mee12a73a52" x="77.920625" y="343.172135" style="stroke: #000000; stroke-width: 0.6"/>
      </g>
     </g>
    </g>
    <g id="ytick_18">
     <g id="line2d_40">
      <g>
       <use xlink:href="#mee12a73a52" x="77.920625" y="336.124921" style="stroke: #000000; stroke-width: 0.6"/>
      </g>
     </g>
    </g>
    <g id="ytick_19">
     <g id="line2d_41">
      <g>
       <use xlink:href="#mee12a73a52" x="77.920625" y="330.020347" style="stroke: #000000; stroke-width: 0.6"/>
      </g>
     </g>
    </g>
    <g id="ytick_20">
     <g id="line2d_42">
      <g>
       <use xlink:href="#mee12a73a52" x="77.920625" y="324.635731" style="stroke: #000000; stroke-width: 0.6"/>
      </g>
     </g>
    </g>
    <g id="ytick_21">
     <g id="line2d_43">
      <g>
       <use xlink:href="#mee12a73a52" x="77.920625" y="288.130835" style="stroke: #000000; stroke-width: 0.6"/>
      </g>
     </g>
    </g>
    <g id="ytick_22">
     <g id="line2d_44">
      <g>
       <use xlink:href="#mee12a73a52" x="77.920625" y="269.59443" style="stroke: #000000; stroke-width: 0.6"/>
      </g>
     </g>
    </g>
    <g id="ytick_23">
     <g id="line2d_45">
      <g>
       <use xlink:href="#mee12a73a52" x="77.920625" y="256.442642" style="stroke: #000000; stroke-width: 0.6"/>
      </g>
     </g>
    </g>
    <g id="ytick_24">
     <g id="line2d_46">
      <g>
       <use xlink:href="#mee12a73a52" x="77.920625" y="246.241322" style="stroke: #000000; stroke-width: 0.6"/>
      </g>
     </g>
    </g>
    <g id="ytick_25">
     <g id="line2d_47">
      <g>
       <use xlink:href="#mee12a73a52" x="77.920625" y="237.906238" style="stroke: #000000; stroke-width: 0.6"/>
      </g>
     </g>
    </g>
    <g id="ytick_26">
     <g id="line2d_48">
      <g>
       <use xlink:href="#mee12a73a52" x="77.920625" y="230.859024" style="stroke: #000000; stroke-width: 0.6"/>
      </g>
     </g>
    </g>
    <g id="ytick_27">
     <g id="line2d_49">
      <g>
       <use xlink:href="#mee12a73a52" x="77.920625" y="224.754449" style="stroke: #000000; stroke-width: 0.6"/>
      </g>
     </g>
    </g>
    <g id="ytick_28">
     <g id="line2d_50">
      <g>
       <use xlink:href="#mee12a73a52" x="77.920625" y="219.369833" style="stroke: #000000; stroke-width: 0.6"/>
      </g>
     </g>
    </g>
    <g id="ytick_29">
     <g id="line2d_51">
      <g>
       <use xlink:href="#mee12a73a52" x="77.920625" y="182.864937" style="stroke: #000000; stroke-width: 0.6"/>
      </g>
     </g>
    </g>
    <g id="ytick_30">
     <g id="line2d_52">
      <g>
       <use xlink:href="#mee12a73a52" x="77.920625" y="164.328533" style="stroke: #000000; stroke-width: 0.6"/>
      </g>
     </g>
    </g>
    <g id="ytick_31">
     <g id="line2d_53">
      <g>
       <use xlink:href="#mee12a73a52" x="77.920625" y="151.176745" style="stroke: #000000; stroke-width: 0.6"/>
      </g>
     </g>
    </g>
    <g id="ytick_32">
     <g id="line2d_54">
      <g>
       <use xlink:href="#mee12a73a52" x="77.920625" y="140.975425" style="stroke: #000000; stroke-width: 0.6"/>
      </g>
     </g>
    </g>
    <g id="ytick_33">
     <g id="line2d_55">
      <g>
       <use xlink:href="#mee12a73a52" x="77.920625" y="132.64034" style="stroke: #000000; stroke-width: 0.6"/>
      </g>
     </g>
    </g>
    <g id="ytick_34">
     <g id="line2d_56">
      <g>
       <use xlink:href="#mee12a73a52" x="77.920625" y="125.593126" style="stroke: #000000; stroke-width: 0.6"/>
      </g>
     </g>
    </g>
    <g id="ytick_35">
     <g id="line2d_57">
      <g>
       <use xlink:href="#mee12a73a52" x="77.920625" y="119.488552" style="stroke: #000000; stroke-width: 0.6"/>
      </g>
     </g>
    </g>
    <g id="ytick_36">
     <g id="line2d_58">
      <g>
       <use xlink:href="#mee12a73a52" x="77.920625" y="114.103936" style="stroke: #000000; stroke-width: 0.6"/>
      </g>
     </g>
    </g>
    <g id="ytick_37">
     <g id="line2d_59">
      <g>
       <use xlink:href="#mee12a73a52" x="77.920625" y="77.59904" style="stroke: #000000; stroke-width: 0.6"/>
      </g>
     </g>
    </g>
    <g id="ytick_38">
     <g id="line2d_60">
      <g>
       <use xlink:href="#mee12a73a52" x="77.920625" y="59.062635" style="stroke: #000000; stroke-width: 0.6"/>
      </g>
     </g>
    </g>
    <g id="ytick_39">
     <g id="line2d_61">
      <g>
       <use xlink:href="#mee12a73a52" x="77.920625" y="45.910847" style="stroke: #000000; stroke-width: 0.6"/>
      </g>
     </g>
    </g>
    <g id="ytick_40">
     <g id="line2d_62">
      <g>
       <use xlink:href="#mee12a73a52" x="77.920625" y="35.709528" style="stroke: #000000; stroke-width: 0.6"/>
      </g>
     </g>
    </g>
    <g id="ytick_41">
     <g id="line2d_63">
      <g>
       <use xlink:href="#mee12a73a52" x="77.920625" y="27.374443" style="stroke: #000000; stroke-width: 0.6"/>
      </g>
     </g>
    </g>
    <g id="ytick_42">
     <g id="line2d_64">
      <g>
       <use xlink:href="#mee12a73a52" x="77.920625" y="20.327229" style="stroke: #000000; stroke-width: 0.6"/>
      </g>
     </g>
    </g>
    <g id="ytick_43">
     <g id="line2d_65">
      <g>
       <use xlink:href="#mee12a73a52" x="77.920625" y="14.222655" style="stroke: #000000; stroke-width: 0.6"/>
      </g>
     </g>
    </g>
    <g id="ytick_44">
     <g id="line2d_66">
      <g>
       <use xlink:href="#mee12a73a52" x="77.920625" y="8.838038" style="stroke: #000000; stroke-width: 0.6"/>
      </g>
     </g>
    </g>
    <g id="text_15">
     <!-- Runtime -->
     <g transform="translate(20.877188 294.269063) rotate(-90) scale(0.18 -0.18)">
      <defs>
       <path id="DejaVuSans-74" d="M 1172 4494 
L 1172 3500 
L 2356 3500 
L 2356 3053 
L 1172 3053 
L 1172 1153 
Q 1172 725 1289 603 
Q 1406 481 1766 481 
L 2356 481 
L 2356 0 
L 1766 0 
Q 1100 0 847 248 
Q 594 497 594 1153 
L 594 3053 
L 172 3053 
L 172 3500 
L 594 3500 
L 594 4494 
L 1172 4494 
z
" transform="scale(0.015625)"/>
       <path id="DejaVuSans-6d" d="M 3328 2828 
Q 3544 3216 3844 3400 
Q 4144 3584 4550 3584 
Q 5097 3584 5394 3201 
Q 5691 2819 5691 2113 
L 5691 0 
L 5113 0 
L 5113 2094 
Q 5113 2597 4934 2840 
Q 4756 3084 4391 3084 
Q 3944 3084 3684 2787 
Q 3425 2491 3425 1978 
L 3425 0 
L 2847 0 
L 2847 2094 
Q 2847 2600 2669 2842 
Q 2491 3084 2119 3084 
Q 1678 3084 1418 2786 
Q 1159 2488 1159 1978 
L 1159 0 
L 581 0 
L 581 3500 
L 1159 3500 
L 1159 2956 
Q 1356 3278 1631 3431 
Q 1906 3584 2284 3584 
Q 2666 3584 2933 3390 
Q 3200 3197 3328 2828 
z
" transform="scale(0.015625)"/>
      </defs>
      <use xlink:href="#DejaVuSans-52"/>
      <use xlink:href="#DejaVuSans-75" x="64.982422"/>
      <use xlink:href="#DejaVuSans-6e" x="128.361328"/>
      <use xlink:href="#DejaVuSans-74" x="191.740234"/>
      <use xlink:href="#DejaVuSans-69" x="230.949219"/>
      <use xlink:href="#DejaVuSans-6d" x="258.732422"/>
      <use xlink:href="#DejaVuSans-65" x="356.144531"/>
     </g>
    </g>
   </g>
   <g id="line2d_67">
    <path d="M 108.356989 414.372454 
L 116.062397 261.129279 
L 123.767806 223.771202 
L 131.473214 203.484864 
L 139.178623 190.449279 
L 146.884031 168.811911 
L 154.58944 156.526458 
L 162.294848 139.858012 
L 170.000257 138.146431 
L 177.705665 135.554737 
L 185.411074 133.52191 
L 193.116482 131.24716 
L 200.821891 129.221627 
L 208.527299 127.536799 
L 216.232708 125.855111 
L 223.938116 124.026089 
L 231.643525 122.509311 
L 239.348933 121.247178 
L 247.054342 120.226735 
L 254.75975 118.932241 
L 262.465159 117.796642 
L 270.170567 116.721084 
L 277.875976 115.676404 
L 285.581384 114.746217 
L 293.286793 113.891012 
L 300.992202 113.132214 
L 308.69761 112.225538 
L 316.403019 111.435116 
L 324.108427 110.630014 
L 331.813836 109.778525 
L 339.519244 108.936615 
L 347.224653 107.851239 
L 354.930061 107.023924 
L 362.63547 106.298333 
L 370.340878 105.62339 
L 378.046287 104.589078 
L 385.751695 103.964271 
L 393.457104 103.00583 
L 401.162512 102.260133 
L 408.867921 101.646851 
L 416.573329 100.913011 
L 424.278738 100.250022 
L 431.984146 99.661459 
L 439.689555 99.070275 
L 447.394963 98.306387 
L 455.100372 97.697687 
L 462.80578 97.17194 
L 470.511189 96.41212 
L 478.216597 95.79873 
L 485.922006 95.256957 
L 493.627414 94.350979 
L 501.332823 93.517029 
L 509.038231 92.616106 
L 516.74364 91.598028 
L 524.449048 91.056962 
L 532.154457 90.508501 
L 539.859866 89.968123 
L 547.565274 89.394361 
L 555.270683 88.84479 
L 562.976091 88.360466 
L 570.6815 87.863583 
L 578.386908 87.335997 
L 586.092317 86.850903 
L 593.797725 86.266035 
L 601.503134 85.720369 
L 609.208542 85.115197 
L 616.913951 84.561104 
L 624.619359 84.091697 
L 632.324768 83.536213 
L 640.030176 83.078729 
L 647.735585 82.56354 
L 655.440993 82.090069 
L 663.146402 81.57375 
L 670.85181 81.018292 
L 678.557219 80.539347 
L 686.262627 79.924408 
L 693.968036 79.335781 
L 701.673444 78.7817 
L 709.378853 78.103545 
L 717.084261 77.404308 
" clip-path="url(#p2868d318be)" style="fill: none; stroke: #000000; stroke-width: 1.5; stroke-linecap: square"/>
   </g>
   <g id="line2d_68">
    <path d="M 108.356989 408.74711 
L 116.062397 242.168324 
L 123.767806 214.30663 
L 131.473214 197.48314 
L 139.178623 186.03794 
L 146.884031 154.139553 
L 154.58944 142.11444 
L 162.294848 135.105998 
L 170.000257 130.842667 
L 177.705665 127.042447 
L 185.411074 122.664831 
L 193.116482 118.612077 
L 200.821891 115.923262 
L 208.527299 112.774448 
L 216.232708 110.428065 
L 223.938116 108.031431 
L 231.643525 105.845146 
L 239.348933 104.240818 
L 247.054342 102.874059 
L 254.75975 101.513835 
L 262.465159 100.064756 
L 270.170567 98.598952 
L 277.875976 97.530882 
L 285.581384 95.944579 
L 293.286793 94.598716 
L 300.992202 93.539156 
L 308.69761 92.400217 
L 316.403019 91.286492 
L 324.108427 90.079601 
L 331.813836 88.940855 
L 339.519244 87.854958 
L 347.224653 86.708607 
L 354.930061 85.637635 
L 362.63547 84.520122 
L 370.340878 83.493324 
L 378.046287 82.373161 
L 385.751695 81.289849 
L 393.457104 80.161361 
L 401.162512 79.226159 
L 408.867921 78.239795 
L 416.573329 77.217876 
L 424.278738 76.141784 
L 431.984146 75.182085 
L 439.689555 74.257087 
L 447.394963 73.385373 
L 455.100372 72.416908 
L 462.80578 71.482951 
L 470.511189 70.57042 
L 478.216597 69.710253 
L 485.922006 68.738179 
L 493.627414 67.558437 
L 501.332823 66.522359 
L 509.038231 65.422012 
L 516.74364 64.338913 
L 524.449048 63.218496 
L 532.154457 62.204897 
L 539.859866 61.204765 
L 547.565274 60.14914 
L 555.270683 59.136547 
L 562.976091 58.162405 
L 570.6815 57.215578 
L 578.386908 56.270592 
L 586.092317 55.377955 
L 593.797725 54.425744 
L 601.503134 53.579628 
L 609.208542 52.758872 
L 616.913951 51.879145 
L 624.619359 50.982848 
L 632.324768 50.159611 
L 640.030176 49.329775 
L 647.735585 48.557833 
L 655.440993 47.792342 
L 663.146402 46.980904 
L 670.85181 46.196962 
L 678.557219 45.284747 
L 686.262627 44.410472 
L 693.968036 43.534977 
L 701.673444 42.685284 
L 709.378853 41.822569 
L 717.084261 41.005523 
" clip-path="url(#p2868d318be)" style="fill: none; stroke: #ffff99; stroke-width: 1.5; stroke-linecap: square"/>
   </g>
   <g id="line2d_69">
    <path d="M 108.356989 461.342028 
L 116.062397 266.397861 
L 123.767806 226.880524 
L 131.473214 205.711178 
L 139.178623 192.10451 
L 146.884031 151.1467 
L 154.58944 149.407306 
L 162.294848 143.347912 
L 170.000257 138.994711 
L 177.705665 135.939068 
L 185.411074 133.888392 
L 193.116482 131.608049 
L 200.821891 129.564197 
L 208.527299 127.474019 
L 216.232708 125.776272 
L 223.938116 123.835747 
L 231.643525 122.084614 
L 239.348933 120.687217 
L 247.054342 119.385886 
L 254.75975 117.88964 
L 262.465159 116.672625 
L 270.170567 115.606981 
L 277.875976 114.501988 
L 285.581384 113.303694 
L 293.286793 112.360757 
L 300.992202 111.516834 
L 308.69761 110.64182 
L 316.403019 109.680436 
L 324.108427 108.943096 
L 331.813836 108.148545 
L 339.519244 107.429046 
L 347.224653 106.565782 
L 354.930061 105.832977 
L 362.63547 105.044602 
L 370.340878 104.373256 
L 378.046287 103.316403 
L 385.751695 102.623642 
L 393.457104 101.677275 
L 401.162512 100.85614 
L 408.867921 100.160706 
L 416.573329 99.067452 
L 424.278738 98.352309 
L 431.984146 97.756742 
L 439.689555 97.172085 
L 447.394963 96.527227 
L 455.100372 95.816388 
L 462.80578 95.24766 
L 470.511189 94.347506 
L 478.216597 93.757712 
L 485.922006 93.147191 
L 493.627414 92.301866 
L 501.332823 91.417737 
L 509.038231 90.441552 
L 516.74364 89.548179 
L 524.449048 88.9285 
L 532.154457 88.350751 
L 539.859866 87.837514 
L 547.565274 87.233085 
L 555.270683 86.709514 
L 562.976091 86.235233 
L 570.6815 85.728033 
L 578.386908 85.262904 
L 586.092317 84.744072 
L 593.797725 84.191766 
L 601.503134 83.661858 
L 609.208542 83.179202 
L 616.913951 82.687704 
L 624.619359 82.207399 
L 632.324768 81.698956 
L 640.030176 81.218815 
L 647.735585 80.730847 
L 655.440993 80.264092 
L 663.146402 79.811915 
L 670.85181 79.237117 
L 678.557219 78.747993 
L 686.262627 78.178437 
L 693.968036 77.541858 
L 701.673444 76.954783 
L 709.378853 76.192779 
L 717.084261 75.594545 
" clip-path="url(#p2868d318be)" style="fill: none; stroke: #386cb0; stroke-width: 1.5; stroke-linecap: square"/>
   </g>
   <g id="line2d_70">
    <path d="M 108.356989 445.792409 
L 116.062397 242.027788 
L 123.767806 213.731154 
L 131.473214 196.513384 
L 139.178623 184.839302 
L 146.884031 175.295021 
L 154.58944 166.313564 
L 162.294848 161.474801 
L 170.000257 157.111326 
L 177.705665 153.961443 
L 185.411074 150.360652 
L 193.116482 147.643229 
L 200.821891 144.821024 
L 208.527299 142.39819 
L 216.232708 140.168025 
L 223.938116 137.110904 
L 231.643525 135.156584 
L 239.348933 133.844409 
L 247.054342 132.068747 
L 254.75975 130.677803 
L 262.465159 129.114198 
L 270.170567 127.394105 
L 277.875976 126.416842 
L 285.581384 125.536634 
L 293.286793 124.548499 
L 300.992202 123.797932 
L 308.69761 122.835677 
L 316.403019 121.648365 
L 324.108427 120.288227 
L 331.813836 119.465357 
L 339.519244 118.645223 
L 347.224653 117.145573 
L 354.930061 116.153709 
L 362.63547 115.032112 
L 370.340878 114.191529 
L 378.046287 113.596847 
L 385.751695 113.004612 
L 393.457104 112.073129 
L 401.162512 111.255886 
L 408.867921 110.650521 
L 416.573329 109.814732 
L 424.278738 108.935006 
L 431.984146 108.528446 
L 439.689555 107.72694 
L 447.394963 107.255222 
L 455.100372 106.749676 
L 462.80578 106.203306 
L 470.511189 105.366536 
L 478.216597 104.72304 
L 485.922006 104.391051 
L 493.627414 103.660283 
L 501.332823 103.003109 
L 509.038231 102.561461 
L 516.74364 102.071125 
L 524.449048 101.699103 
L 532.154457 100.930605 
L 539.859866 100.36093 
L 547.565274 99.88542 
L 555.270683 99.744049 
L 562.976091 99.573859 
L 570.6815 99.402965 
L 578.386908 99.209653 
L 586.092317 98.988241 
L 593.797725 98.644964 
L 601.503134 98.443823 
L 609.208542 98.242081 
L 616.913951 97.983059 
L 624.619359 97.664734 
L 632.324768 97.391076 
L 640.030176 97.194506 
L 647.735585 96.914695 
L 655.440993 96.711607 
L 663.146402 96.506138 
L 670.85181 96.326147 
L 678.557219 96.115441 
L 686.262627 95.864228 
L 693.968036 95.643887 
L 701.673444 95.36202 
L 709.378853 95.175156 
L 717.084261 94.84156 
" clip-path="url(#p2868d318be)" style="fill: none; stroke: #f0027f; stroke-width: 1.5; stroke-linecap: square"/>
   </g>
   <g id="line2d_71">
    <path d="M 108.356989 165.303295 
L 116.062397 154.123116 
L 123.767806 144.887588 
L 131.473214 137.19333 
L 139.178623 114.966017 
L 146.884031 109.764371 
L 154.58944 105.256389 
L 162.294848 101.436431 
L 170.000257 98.2154 
L 177.705665 95.276875 
L 185.411074 92.425173 
L 193.116482 89.93367 
L 200.821891 87.692471 
L 208.527299 85.968347 
L 216.232708 84.367136 
L 223.938116 82.924151 
L 231.643525 81.43568 
L 239.348933 80.192472 
L 247.054342 79.092507 
L 254.75975 78.073601 
L 262.465159 77.074975 
L 270.170567 76.284355 
L 277.875976 75.462027 
L 285.581384 74.637136 
L 293.286793 73.783826 
L 300.992202 72.951285 
L 308.69761 72.153516 
L 316.403019 71.398422 
L 324.108427 70.675318 
L 331.813836 69.862278 
L 339.519244 68.974502 
L 347.224653 68.181477 
L 354.930061 67.42225 
L 362.63547 66.5311 
L 370.340878 65.646508 
L 378.046287 64.941187 
L 385.751695 64.14157 
L 393.457104 63.378475 
L 401.162512 62.647295 
L 408.867921 61.860185 
L 416.573329 61.086647 
L 424.278738 60.360222 
L 431.984146 59.626562 
L 439.689555 58.93116 
L 447.394963 58.24522 
L 455.100372 57.535718 
L 462.80578 56.836627 
L 470.511189 56.144368 
L 478.216597 55.468002 
L 485.922006 54.769113 
L 493.627414 53.861807 
L 501.332823 52.987649 
L 509.038231 52.103438 
L 516.74364 51.187273 
L 524.449048 50.339541 
L 532.154457 49.528409 
L 539.859866 48.7067 
L 547.565274 47.893589 
L 555.270683 47.09124 
L 562.976091 46.31107 
L 570.6815 45.564086 
L 578.386908 44.800482 
L 586.092317 44.04711 
L 593.797725 43.33283 
L 601.503134 42.617893 
L 609.208542 41.928071 
L 616.913951 41.234962 
L 624.619359 40.575654 
L 632.324768 39.910637 
L 640.030176 39.24915 
L 647.735585 38.606567 
L 655.440993 37.948936 
L 663.146402 37.314696 
L 670.85181 36.666758 
L 678.557219 36.016411 
L 686.262627 35.271637 
L 693.968036 34.503429 
L 701.673444 33.791389 
L 709.378853 33.073316 
L 717.084261 32.331924 
" clip-path="url(#p2868d318be)" style="fill: none; stroke: #bf5b17; stroke-width: 1.5; stroke-linecap: square"/>
   </g>
   <g id="patch_3">
    <path d="M 77.920625 506.16 
L 77.920625 7.2 
" style="fill: none; stroke: #000000; stroke-width: 0.8; stroke-linejoin: miter; stroke-linecap: square"/>
   </g>
   <g id="patch_4">
    <path d="M 747.520625 506.16 
L 747.520625 7.2 
" style="fill: none; stroke: #000000; stroke-width: 0.8; stroke-linejoin: miter; stroke-linecap: square"/>
   </g>
   <g id="patch_5">
    <path d="M 77.920625 506.16 
L 747.520625 506.16 
" style="fill: none; stroke: #000000; stroke-width: 0.8; stroke-linejoin: miter; stroke-linecap: square"/>
   </g>
   <g id="patch_6">
    <path d="M 77.920625 7.2 
L 747.520625 7.2 
" style="fill: none; stroke: #000000; stroke-width: 0.8; stroke-linejoin: miter; stroke-linecap: square"/>
   </g>
   <g id="legend_1">
    <g id="patch_7">
     <path d="M 408.321875 497.16 
L 734.920625 497.16 
Q 738.520625 497.16 738.520625 493.56 
L 738.520625 363.256875 
Q 738.520625 359.656875 734.920625 359.656875 
L 408.321875 359.656875 
Q 404.721875 359.656875 404.721875 363.256875 
L 404.721875 493.56 
Q 404.721875 497.16 408.321875 497.16 
z
" style="fill: #ffffff; opacity: 0.8; stroke: #cccccc; stroke-linejoin: miter"/>
    </g>
    <g id="line2d_72">
     <path d="M 411.921875 374.234063 
L 429.921875 374.234063 
L 447.921875 374.234063 
" style="fill: none; stroke: #000000; stroke-width: 1.5; stroke-linecap: square"/>
    </g>
    <g id="text_16">
     <!-- Hybrid-MBTL-mountain (Ours) -->
     <g transform="translate(462.321875 380.534063) scale(0.18 -0.18)">
      <defs>
       <path id="DejaVuSans-48" d="M 628 4666 
L 1259 4666 
L 1259 2753 
L 3553 2753 
L 3553 4666 
L 4184 4666 
L 4184 0 
L 3553 0 
L 3553 2222 
L 1259 2222 
L 1259 0 
L 628 0 
L 628 4666 
z
" transform="scale(0.015625)"/>
       <path id="DejaVuSans-79" d="M 2059 -325 
Q 1816 -950 1584 -1140 
Q 1353 -1331 966 -1331 
L 506 -1331 
L 506 -850 
L 844 -850 
Q 1081 -850 1212 -737 
Q 1344 -625 1503 -206 
L 1606 56 
L 191 3500 
L 800 3500 
L 1894 763 
L 2988 3500 
L 3597 3500 
L 2059 -325 
z
" transform="scale(0.015625)"/>
       <path id="DejaVuSans-62" d="M 3116 1747 
Q 3116 2381 2855 2742 
Q 2594 3103 2138 3103 
Q 1681 3103 1420 2742 
Q 1159 2381 1159 1747 
Q 1159 1113 1420 752 
Q 1681 391 2138 391 
Q 2594 391 2855 752 
Q 3116 1113 3116 1747 
z
M 1159 2969 
Q 1341 3281 1617 3432 
Q 1894 3584 2278 3584 
Q 2916 3584 3314 3078 
Q 3713 2572 3713 1747 
Q 3713 922 3314 415 
Q 2916 -91 2278 -91 
Q 1894 -91 1617 61 
Q 1341 213 1159 525 
L 1159 0 
L 581 0 
L 581 4863 
L 1159 4863 
L 1159 2969 
z
" transform="scale(0.015625)"/>
       <path id="DejaVuSans-72" d="M 2631 2963 
Q 2534 3019 2420 3045 
Q 2306 3072 2169 3072 
Q 1681 3072 1420 2755 
Q 1159 2438 1159 1844 
L 1159 0 
L 581 0 
L 581 3500 
L 1159 3500 
L 1159 2956 
Q 1341 3275 1631 3429 
Q 1922 3584 2338 3584 
Q 2397 3584 2469 3576 
Q 2541 3569 2628 3553 
L 2631 2963 
z
" transform="scale(0.015625)"/>
       <path id="DejaVuSans-2d" d="M 313 2009 
L 1997 2009 
L 1997 1497 
L 313 1497 
L 313 2009 
z
" transform="scale(0.015625)"/>
       <path id="DejaVuSans-4d" d="M 628 4666 
L 1569 4666 
L 2759 1491 
L 3956 4666 
L 4897 4666 
L 4897 0 
L 4281 0 
L 4281 4097 
L 3078 897 
L 2444 897 
L 1241 4097 
L 1241 0 
L 628 0 
L 628 4666 
z
" transform="scale(0.015625)"/>
       <path id="DejaVuSans-42" d="M 1259 2228 
L 1259 519 
L 2272 519 
Q 2781 519 3026 730 
Q 3272 941 3272 1375 
Q 3272 1813 3026 2020 
Q 2781 2228 2272 2228 
L 1259 2228 
z
M 1259 4147 
L 1259 2741 
L 2194 2741 
Q 2656 2741 2882 2914 
Q 3109 3088 3109 3444 
Q 3109 3797 2882 3972 
Q 2656 4147 2194 4147 
L 1259 4147 
z
M 628 4666 
L 2241 4666 
Q 2963 4666 3353 4366 
Q 3744 4066 3744 3513 
Q 3744 3084 3544 2831 
Q 3344 2578 2956 2516 
Q 3422 2416 3680 2098 
Q 3938 1781 3938 1306 
Q 3938 681 3513 340 
Q 3088 0 2303 0 
L 628 0 
L 628 4666 
z
" transform="scale(0.015625)"/>
       <path id="DejaVuSans-54" d="M -19 4666 
L 3928 4666 
L 3928 4134 
L 2272 4134 
L 2272 0 
L 1638 0 
L 1638 4134 
L -19 4134 
L -19 4666 
z
" transform="scale(0.015625)"/>
       <path id="DejaVuSans-4c" d="M 628 4666 
L 1259 4666 
L 1259 531 
L 3531 531 
L 3531 0 
L 628 0 
L 628 4666 
z
" transform="scale(0.015625)"/>
       <path id="DejaVuSans-61" d="M 2194 1759 
Q 1497 1759 1228 1600 
Q 959 1441 959 1056 
Q 959 750 1161 570 
Q 1363 391 1709 391 
Q 2188 391 2477 730 
Q 2766 1069 2766 1631 
L 2766 1759 
L 2194 1759 
z
M 3341 1997 
L 3341 0 
L 2766 0 
L 2766 531 
Q 2569 213 2275 61 
Q 1981 -91 1556 -91 
Q 1019 -91 701 211 
Q 384 513 384 1019 
Q 384 1609 779 1909 
Q 1175 2209 1959 2209 
L 2766 2209 
L 2766 2266 
Q 2766 2663 2505 2880 
Q 2244 3097 1772 3097 
Q 1472 3097 1187 3025 
Q 903 2953 641 2809 
L 641 3341 
Q 956 3463 1253 3523 
Q 1550 3584 1831 3584 
Q 2591 3584 2966 3190 
Q 3341 2797 3341 1997 
z
" transform="scale(0.015625)"/>
       <path id="DejaVuSans-28" d="M 1984 4856 
Q 1566 4138 1362 3434 
Q 1159 2731 1159 2009 
Q 1159 1288 1364 580 
Q 1569 -128 1984 -844 
L 1484 -844 
Q 1016 -109 783 600 
Q 550 1309 550 2009 
Q 550 2706 781 3412 
Q 1013 4119 1484 4856 
L 1984 4856 
z
" transform="scale(0.015625)"/>
       <path id="DejaVuSans-4f" d="M 2522 4238 
Q 1834 4238 1429 3725 
Q 1025 3213 1025 2328 
Q 1025 1447 1429 934 
Q 1834 422 2522 422 
Q 3209 422 3611 934 
Q 4013 1447 4013 2328 
Q 4013 3213 3611 3725 
Q 3209 4238 2522 4238 
z
M 2522 4750 
Q 3503 4750 4090 4092 
Q 4678 3434 4678 2328 
Q 4678 1225 4090 567 
Q 3503 -91 2522 -91 
Q 1538 -91 948 565 
Q 359 1222 359 2328 
Q 359 3434 948 4092 
Q 1538 4750 2522 4750 
z
" transform="scale(0.015625)"/>
       <path id="DejaVuSans-29" d="M 513 4856 
L 1013 4856 
Q 1481 4119 1714 3412 
Q 1947 2706 1947 2009 
Q 1947 1309 1714 600 
Q 1481 -109 1013 -844 
L 513 -844 
Q 928 -128 1133 580 
Q 1338 1288 1338 2009 
Q 1338 2731 1133 3434 
Q 928 4138 513 4856 
z
" transform="scale(0.015625)"/>
      </defs>
      <use xlink:href="#DejaVuSans-48"/>
      <use xlink:href="#DejaVuSans-79" x="75.195312"/>
      <use xlink:href="#DejaVuSans-62" x="134.375"/>
      <use xlink:href="#DejaVuSans-72" x="197.851562"/>
      <use xlink:href="#DejaVuSans-69" x="238.964844"/>
      <use xlink:href="#DejaVuSans-64" x="266.748047"/>
      <use xlink:href="#DejaVuSans-2d" x="330.224609"/>
      <use xlink:href="#DejaVuSans-4d" x="366.308594"/>
      <use xlink:href="#DejaVuSans-42" x="452.587891"/>
      <use xlink:href="#DejaVuSans-54" x="521.191406"/>
      <use xlink:href="#DejaVuSans-4c" x="582.275391"/>
      <use xlink:href="#DejaVuSans-2d" x="636.238281"/>
      <use xlink:href="#DejaVuSans-6d" x="672.322266"/>
      <use xlink:href="#DejaVuSans-6f" x="769.734375"/>
      <use xlink:href="#DejaVuSans-75" x="830.916016"/>
      <use xlink:href="#DejaVuSans-6e" x="894.294922"/>
      <use xlink:href="#DejaVuSans-74" x="957.673828"/>
      <use xlink:href="#DejaVuSans-61" x="996.882812"/>
      <use xlink:href="#DejaVuSans-69" x="1058.162109"/>
      <use xlink:href="#DejaVuSans-6e" x="1085.945312"/>
      <use xlink:href="#DejaVuSans-20" x="1149.324219"/>
      <use xlink:href="#DejaVuSans-28" x="1181.111328"/>
      <use xlink:href="#DejaVuSans-4f" x="1220.125"/>
      <use xlink:href="#DejaVuSans-75" x="1298.835938"/>
      <use xlink:href="#DejaVuSans-72" x="1362.214844"/>
      <use xlink:href="#DejaVuSans-73" x="1403.328125"/>
      <use xlink:href="#DejaVuSans-29" x="1455.427734"/>
     </g>
    </g>
    <g id="line2d_73">
     <path d="M 411.921875 400.654688 
L 429.921875 400.654688 
L 447.921875 400.654688 
" style="fill: none; stroke: #ffff99; stroke-width: 1.5; stroke-linecap: square"/>
    </g>
    <g id="text_17">
     <!-- Hybrid-MBTL-new (Ours) -->
     <g transform="translate(462.321875 406.954688) scale(0.18 -0.18)">
      <defs>
       <path id="DejaVuSans-77" d="M 269 3500 
L 844 3500 
L 1563 769 
L 2278 3500 
L 2956 3500 
L 3675 769 
L 4391 3500 
L 4966 3500 
L 4050 0 
L 3372 0 
L 2619 2869 
L 1863 0 
L 1184 0 
L 269 3500 
z
" transform="scale(0.015625)"/>
      </defs>
      <use xlink:href="#DejaVuSans-48"/>
      <use xlink:href="#DejaVuSans-79" x="75.195312"/>
      <use xlink:href="#DejaVuSans-62" x="134.375"/>
      <use xlink:href="#DejaVuSans-72" x="197.851562"/>
      <use xlink:href="#DejaVuSans-69" x="238.964844"/>
      <use xlink:href="#DejaVuSans-64" x="266.748047"/>
      <use xlink:href="#DejaVuSans-2d" x="330.224609"/>
      <use xlink:href="#DejaVuSans-4d" x="366.308594"/>
      <use xlink:href="#DejaVuSans-42" x="452.587891"/>
      <use xlink:href="#DejaVuSans-54" x="521.191406"/>
      <use xlink:href="#DejaVuSans-4c" x="582.275391"/>
      <use xlink:href="#DejaVuSans-2d" x="636.238281"/>
      <use xlink:href="#DejaVuSans-6e" x="672.322266"/>
      <use xlink:href="#DejaVuSans-65" x="735.701172"/>
      <use xlink:href="#DejaVuSans-77" x="797.224609"/>
      <use xlink:href="#DejaVuSans-20" x="879.011719"/>
      <use xlink:href="#DejaVuSans-28" x="910.798828"/>
      <use xlink:href="#DejaVuSans-4f" x="949.8125"/>
      <use xlink:href="#DejaVuSans-75" x="1028.523438"/>
      <use xlink:href="#DejaVuSans-72" x="1091.902344"/>
      <use xlink:href="#DejaVuSans-73" x="1133.015625"/>
      <use xlink:href="#DejaVuSans-29" x="1185.115234"/>
     </g>
    </g>
    <g id="line2d_74">
     <path d="M 411.921875 427.075313 
L 429.921875 427.075313 
L 447.921875 427.075313 
" style="fill: none; stroke: #386cb0; stroke-width: 1.5; stroke-linecap: square"/>
    </g>
    <g id="text_18">
     <!-- Hybrid-MBTL (Ours) -->
     <g transform="translate(462.321875 433.375313) scale(0.18 -0.18)">
      <use xlink:href="#DejaVuSans-48"/>
      <use xlink:href="#DejaVuSans-79" x="75.195312"/>
      <use xlink:href="#DejaVuSans-62" x="134.375"/>
      <use xlink:href="#DejaVuSans-72" x="197.851562"/>
      <use xlink:href="#DejaVuSans-69" x="238.964844"/>
      <use xlink:href="#DejaVuSans-64" x="266.748047"/>
      <use xlink:href="#DejaVuSans-2d" x="330.224609"/>
      <use xlink:href="#DejaVuSans-4d" x="366.308594"/>
      <use xlink:href="#DejaVuSans-42" x="452.587891"/>
      <use xlink:href="#DejaVuSans-54" x="521.191406"/>
      <use xlink:href="#DejaVuSans-4c" x="582.275391"/>
      <use xlink:href="#DejaVuSans-20" x="637.988281"/>
      <use xlink:href="#DejaVuSans-28" x="669.775391"/>
      <use xlink:href="#DejaVuSans-4f" x="708.789062"/>
      <use xlink:href="#DejaVuSans-75" x="787.5"/>
      <use xlink:href="#DejaVuSans-72" x="850.878906"/>
      <use xlink:href="#DejaVuSans-73" x="891.992188"/>
      <use xlink:href="#DejaVuSans-29" x="944.091797"/>
     </g>
    </g>
    <g id="line2d_75">
     <path d="M 411.921875 453.495938 
L 429.921875 453.495938 
L 447.921875 453.495938 
" style="fill: none; stroke: #f0027f; stroke-width: 1.5; stroke-linecap: square"/>
    </g>
    <g id="text_19">
     <!-- SC-MBTL (Ours) -->
     <g transform="translate(462.321875 459.795938) scale(0.18 -0.18)">
      <defs>
       <path id="DejaVuSans-53" d="M 3425 4513 
L 3425 3897 
Q 3066 4069 2747 4153 
Q 2428 4238 2131 4238 
Q 1616 4238 1336 4038 
Q 1056 3838 1056 3469 
Q 1056 3159 1242 3001 
Q 1428 2844 1947 2747 
L 2328 2669 
Q 3034 2534 3370 2195 
Q 3706 1856 3706 1288 
Q 3706 609 3251 259 
Q 2797 -91 1919 -91 
Q 1588 -91 1214 -16 
Q 841 59 441 206 
L 441 856 
Q 825 641 1194 531 
Q 1563 422 1919 422 
Q 2459 422 2753 634 
Q 3047 847 3047 1241 
Q 3047 1584 2836 1778 
Q 2625 1972 2144 2069 
L 1759 2144 
Q 1053 2284 737 2584 
Q 422 2884 422 3419 
Q 422 4038 858 4394 
Q 1294 4750 2059 4750 
Q 2388 4750 2728 4690 
Q 3069 4631 3425 4513 
z
" transform="scale(0.015625)"/>
       <path id="DejaVuSans-43" d="M 4122 4306 
L 4122 3641 
Q 3803 3938 3442 4084 
Q 3081 4231 2675 4231 
Q 1875 4231 1450 3742 
Q 1025 3253 1025 2328 
Q 1025 1406 1450 917 
Q 1875 428 2675 428 
Q 3081 428 3442 575 
Q 3803 722 4122 1019 
L 4122 359 
Q 3791 134 3420 21 
Q 3050 -91 2638 -91 
Q 1578 -91 968 557 
Q 359 1206 359 2328 
Q 359 3453 968 4101 
Q 1578 4750 2638 4750 
Q 3056 4750 3426 4639 
Q 3797 4528 4122 4306 
z
" transform="scale(0.015625)"/>
      </defs>
      <use xlink:href="#DejaVuSans-53"/>
      <use xlink:href="#DejaVuSans-43" x="63.476562"/>
      <use xlink:href="#DejaVuSans-2d" x="133.300781"/>
      <use xlink:href="#DejaVuSans-4d" x="169.384766"/>
      <use xlink:href="#DejaVuSans-42" x="255.664062"/>
      <use xlink:href="#DejaVuSans-54" x="324.267578"/>
      <use xlink:href="#DejaVuSans-4c" x="385.351562"/>
      <use xlink:href="#DejaVuSans-20" x="441.064453"/>
      <use xlink:href="#DejaVuSans-28" x="472.851562"/>
      <use xlink:href="#DejaVuSans-4f" x="511.865234"/>
      <use xlink:href="#DejaVuSans-75" x="590.576172"/>
      <use xlink:href="#DejaVuSans-72" x="653.955078"/>
      <use xlink:href="#DejaVuSans-73" x="695.068359"/>
      <use xlink:href="#DejaVuSans-29" x="747.167969"/>
     </g>
    </g>
    <g id="line2d_76">
     <path d="M 411.921875 479.916563 
L 429.921875 479.916563 
L 447.921875 479.916563 
" style="fill: none; stroke: #bf5b17; stroke-width: 1.5; stroke-linecap: square"/>
    </g>
    <g id="text_20">
     <!-- GP-MBTL -->
     <g transform="translate(462.321875 486.216563) scale(0.18 -0.18)">
      <defs>
       <path id="DejaVuSans-47" d="M 3809 666 
L 3809 1919 
L 2778 1919 
L 2778 2438 
L 4434 2438 
L 4434 434 
Q 4069 175 3628 42 
Q 3188 -91 2688 -91 
Q 1594 -91 976 548 
Q 359 1188 359 2328 
Q 359 3472 976 4111 
Q 1594 4750 2688 4750 
Q 3144 4750 3555 4637 
Q 3966 4525 4313 4306 
L 4313 3634 
Q 3963 3931 3569 4081 
Q 3175 4231 2741 4231 
Q 1884 4231 1454 3753 
Q 1025 3275 1025 2328 
Q 1025 1384 1454 906 
Q 1884 428 2741 428 
Q 3075 428 3337 486 
Q 3600 544 3809 666 
z
" transform="scale(0.015625)"/>
       <path id="DejaVuSans-50" d="M 1259 4147 
L 1259 2394 
L 2053 2394 
Q 2494 2394 2734 2622 
Q 2975 2850 2975 3272 
Q 2975 3691 2734 3919 
Q 2494 4147 2053 4147 
L 1259 4147 
z
M 628 4666 
L 2053 4666 
Q 2838 4666 3239 4311 
Q 3641 3956 3641 3272 
Q 3641 2581 3239 2228 
Q 2838 1875 2053 1875 
L 1259 1875 
L 1259 0 
L 628 0 
L 628 4666 
z
" transform="scale(0.015625)"/>
      </defs>
      <use xlink:href="#DejaVuSans-47"/>
      <use xlink:href="#DejaVuSans-50" x="77.490234"/>
      <use xlink:href="#DejaVuSans-2d" x="135.542969"/>
      <use xlink:href="#DejaVuSans-4d" x="171.626953"/>
      <use xlink:href="#DejaVuSans-42" x="257.90625"/>
      <use xlink:href="#DejaVuSans-54" x="326.509766"/>
      <use xlink:href="#DejaVuSans-4c" x="387.59375"/>
     </g>
    </g>
   </g>
  </g>
 </g>
 <defs>
  <clipPath id="p2868d318be">
   <rect x="77.920625" y="7.2" width="669.6" height="498.96"/>
  </clipPath>
 </defs>
</svg>
