<?xml version="1.0" encoding="utf-8" standalone="no"?>
<!DOCTYPE svg PUBLIC "-//W3C//DTD SVG 1.1//EN"
  "http://www.w3.org/Graphics/SVG/1.1/DTD/svg11.dtd">
<svg xmlns:xlink="http://www.w3.org/1999/xlink" width="568.875312pt" height="395.609063pt" viewBox="0 0 568.875312 395.609063" xmlns="http://www.w3.org/2000/svg" version="1.1">
 <metadata>
  <rdf:RDF xmlns:dc="http://purl.org/dc/elements/1.1/" xmlns:cc="http://creativecommons.org/ns#" xmlns:rdf="http://www.w3.org/1999/02/22-rdf-syntax-ns#">
   <cc:Work>
    <dc:type rdf:resource="http://purl.org/dc/dcmitype/StillImage"/>
    <dc:date>2025-05-09T17:52:35.159361</dc:date>
    <dc:format>image/svg+xml</dc:format>
    <dc:creator>
     <cc:Agent>
      <dc:title>Matplotlib v3.9.4, https://matplotlib.org/</dc:title>
     </cc:Agent>
    </dc:creator>
   </cc:Work>
  </rdf:RDF>
 </metadata>
 <defs>
  <style type="text/css">*{stroke-linejoin: round; stroke-linecap: butt}</style>
 </defs>
 <g id="figure_1">
  <g id="patch_1">
   <path d="M 0 395.609063 
L 568.875312 395.609063 
L 568.875312 0 
L 0 0 
z
" style="fill: #ffffff"/>
  </g>
  <g id="axes_1">
   <g id="patch_2">
    <path d="M 59.475313 345.471251 
L 561.675313 345.471251 
L 561.675313 12.831251 
L 59.475313 12.831251 
z
" style="fill: #ffffff"/>
   </g>
   <g id="PolyCollection_1">
    <defs>
     <path id="m180aa67594" d="M 82.302585 -115.97215 
L 82.302585 -111.665686 
L 163.195053 -111.665686 
L 210.514113 -111.665686 
L 244.087521 -111.665686 
L 270.129079 -111.665686 
L 291.406581 -111.665686 
L 309.396453 -111.665686 
L 324.979988 -111.665686 
L 338.725641 -111.665686 
L 351.021546 -111.665686 
L 362.144546 -111.665686 
L 372.299049 -111.665686 
L 381.640286 -111.665686 
L 390.28892 -111.665686 
L 398.340607 -111.665686 
L 405.872456 -111.665686 
L 412.947541 -111.665686 
L 419.618109 -111.665686 
L 425.927924 -111.665686 
L 431.914014 -111.665686 
L 437.60798 -111.665686 
L 443.037013 -111.665686 
L 448.224675 -111.665686 
L 453.191516 -111.665686 
L 457.955572 -111.665686 
L 462.532753 -111.665686 
L 466.937169 -111.665686 
L 471.181388 -111.665686 
L 475.276656 -111.665686 
L 479.233074 -111.665686 
L 483.05975 -111.665686 
L 486.764924 -111.665686 
L 490.356074 -111.665686 
L 493.840009 -111.665686 
L 497.222946 -111.665686 
L 500.510576 -111.665686 
L 503.708123 -111.665686 
L 506.820392 -111.665686 
L 509.851814 -111.665686 
L 512.806482 -111.665686 
L 515.688188 -111.665686 
L 518.500448 -111.665686 
L 521.246532 -111.665686 
L 523.929481 -111.665686 
L 526.552134 -111.665686 
L 529.117142 -111.665686 
L 531.626985 -111.665686 
L 534.083984 -111.665686 
L 536.49032 -111.665686 
L 538.84804 -111.665686 
L 538.84804 -115.97215 
L 538.84804 -115.97215 
L 536.49032 -115.97215 
L 534.083984 -115.97215 
L 531.626985 -115.97215 
L 529.117142 -115.97215 
L 526.552134 -115.97215 
L 523.929481 -115.97215 
L 521.246532 -115.97215 
L 518.500448 -115.97215 
L 515.688188 -115.97215 
L 512.806482 -115.97215 
L 509.851814 -115.97215 
L 506.820392 -115.97215 
L 503.708123 -115.97215 
L 500.510576 -115.97215 
L 497.222946 -115.97215 
L 493.840009 -115.97215 
L 490.356074 -115.97215 
L 486.764924 -115.97215 
L 483.05975 -115.97215 
L 479.233074 -115.97215 
L 475.276656 -115.97215 
L 471.181388 -115.97215 
L 466.937169 -115.97215 
L 462.532753 -115.97215 
L 457.955572 -115.97215 
L 453.191516 -115.97215 
L 448.224675 -115.97215 
L 443.037013 -115.97215 
L 437.60798 -115.97215 
L 431.914014 -115.97215 
L 425.927924 -115.97215 
L 419.618109 -115.97215 
L 412.947541 -115.97215 
L 405.872456 -115.97215 
L 398.340607 -115.97215 
L 390.28892 -115.97215 
L 381.640286 -115.97215 
L 372.299049 -115.97215 
L 362.144546 -115.97215 
L 351.021546 -115.97215 
L 338.725641 -115.97215 
L 324.979988 -115.97215 
L 309.396453 -115.97215 
L 291.406581 -115.97215 
L 270.129079 -115.97215 
L 244.087521 -115.97215 
L 210.514113 -115.97215 
L 163.195053 -115.97215 
L 82.302585 -115.97215 
z
" style="stroke: #fdc086; stroke-opacity: 0.05"/>
    </defs>
    <g clip-path="url(#pd7f7468842)">
     <use xlink:href="#m180aa67594" x="0" y="395.609063" style="fill: #fdc086; fill-opacity: 0.05; stroke: #fdc086; stroke-opacity: 0.05"/>
    </g>
   </g>
   <g id="PolyCollection_2">
    <defs>
     <path id="ma29e6f5efc" d="M 82.302585 -255.814562 
L 82.302585 -161.025858 
L 163.195053 -161.025858 
L 210.514113 -161.025858 
L 244.087521 -161.025858 
L 270.129079 -161.025858 
L 291.406581 -161.025858 
L 309.396453 -161.025858 
L 324.979988 -161.025858 
L 338.725641 -161.025858 
L 351.021546 -161.025858 
L 362.144546 -161.025858 
L 372.299049 -161.025858 
L 381.640286 -161.025858 
L 390.28892 -161.025858 
L 398.340607 -161.025858 
L 405.872456 -161.025858 
L 412.947541 -161.025858 
L 419.618109 -161.025858 
L 425.927924 -161.025858 
L 431.914014 -161.025858 
L 437.60798 -161.025858 
L 443.037013 -161.025858 
L 448.224675 -161.025858 
L 453.191516 -161.025858 
L 457.955572 -161.025858 
L 462.532753 -161.025858 
L 466.937169 -161.025858 
L 471.181388 -161.025858 
L 475.276656 -161.025858 
L 479.233074 -161.025858 
L 483.05975 -161.025858 
L 486.764924 -161.025858 
L 490.356074 -161.025858 
L 493.840009 -161.025858 
L 497.222946 -161.025858 
L 500.510576 -161.025858 
L 503.708123 -161.025858 
L 506.820392 -161.025858 
L 509.851814 -161.025858 
L 512.806482 -161.025858 
L 515.688188 -161.025858 
L 518.500448 -161.025858 
L 521.246532 -161.025858 
L 523.929481 -161.025858 
L 526.552134 -161.025858 
L 529.117142 -161.025858 
L 531.626985 -161.025858 
L 534.083984 -161.025858 
L 536.49032 -161.025858 
L 538.84804 -161.025858 
L 538.84804 -255.814562 
L 538.84804 -255.814562 
L 536.49032 -255.814562 
L 534.083984 -255.814562 
L 531.626985 -255.814562 
L 529.117142 -255.814562 
L 526.552134 -255.814562 
L 523.929481 -255.814562 
L 521.246532 -255.814562 
L 518.500448 -255.814562 
L 515.688188 -255.814562 
L 512.806482 -255.814562 
L 509.851814 -255.814562 
L 506.820392 -255.814562 
L 503.708123 -255.814562 
L 500.510576 -255.814562 
L 497.222946 -255.814562 
L 493.840009 -255.814562 
L 490.356074 -255.814562 
L 486.764924 -255.814562 
L 483.05975 -255.814562 
L 479.233074 -255.814562 
L 475.276656 -255.814562 
L 471.181388 -255.814562 
L 466.937169 -255.814562 
L 462.532753 -255.814562 
L 457.955572 -255.814562 
L 453.191516 -255.814562 
L 448.224675 -255.814562 
L 443.037013 -255.814562 
L 437.60798 -255.814562 
L 431.914014 -255.814562 
L 425.927924 -255.814562 
L 419.618109 -255.814562 
L 412.947541 -255.814562 
L 405.872456 -255.814562 
L 398.340607 -255.814562 
L 390.28892 -255.814562 
L 381.640286 -255.814562 
L 372.299049 -255.814562 
L 362.144546 -255.814562 
L 351.021546 -255.814562 
L 338.725641 -255.814562 
L 324.979988 -255.814562 
L 309.396453 -255.814562 
L 291.406581 -255.814562 
L 270.129079 -255.814562 
L 244.087521 -255.814562 
L 210.514113 -255.814562 
L 163.195053 -255.814562 
L 82.302585 -255.814562 
z
" style="stroke: #beaed4; stroke-opacity: 0.05"/>
    </defs>
    <g clip-path="url(#pd7f7468842)">
     <use xlink:href="#ma29e6f5efc" x="0" y="395.609063" style="fill: #beaed4; fill-opacity: 0.05; stroke: #beaed4; stroke-opacity: 0.05"/>
    </g>
   </g>
   <g id="PolyCollection_3">
    <defs>
     <path id="mbd7507475d" d="M 82.302585 -173.08477 
L 82.302585 -65.257812 
L 163.195053 -96.433224 
L 210.514113 -117.590089 
L 244.087521 -131.7238 
L 270.129079 -143.326227 
L 291.406581 -155.390992 
L 309.396453 -160.285083 
L 324.979988 -167.752005 
L 338.725641 -174.33963 
L 351.021546 -181.172778 
L 362.144546 -183.765417 
L 372.299049 -189.002691 
L 381.640286 -195.636142 
L 390.28892 -199.298185 
L 398.340607 -202.384847 
L 405.872456 -207.460598 
L 412.947541 -208.663166 
L 419.618109 -211.777336 
L 425.927924 -212.990169 
L 431.914014 -215.850016 
L 437.60798 -217.862752 
L 443.037013 -219.34651 
L 448.224675 -221.835738 
L 453.191516 -222.161647 
L 457.955572 -225.201658 
L 462.532753 -227.916892 
L 466.937169 -229.701057 
L 471.181388 -230.825836 
L 475.276656 -231.776461 
L 479.233074 -232.858288 
L 483.05975 -234.022066 
L 486.764924 -235.868483 
L 490.356074 -237.512593 
L 493.840009 -240.62248 
L 497.222946 -242.676205 
L 500.510576 -243.872814 
L 503.708123 -245.198342 
L 506.820392 -245.769913 
L 509.851814 -247.332272 
L 512.806482 -247.938431 
L 515.688188 -248.565219 
L 518.500448 -251.905259 
L 521.246532 -254.254406 
L 523.929481 -256.876665 
L 526.552134 -257.471 
L 529.117142 -257.50997 
L 531.626985 -258.425255 
L 534.083984 -258.341748 
L 536.49032 -259.776672 
L 538.84804 -260.252468 
L 538.84804 -319.309219 
L 538.84804 -319.309219 
L 536.49032 -318.991668 
L 534.083984 -317.944063 
L 531.626985 -315.862116 
L 529.117142 -315.689914 
L 526.552134 -315.614392 
L 523.929481 -315.591468 
L 521.246532 -314.757135 
L 518.500448 -312.853123 
L 515.688188 -312.184305 
L 512.806482 -311.882033 
L 509.851814 -311.655752 
L 506.820392 -311.206223 
L 503.708123 -310.444335 
L 500.510576 -309.580559 
L 497.222946 -309.538416 
L 493.840009 -309.169619 
L 490.356074 -307.793628 
L 486.764924 -307.066489 
L 483.05975 -305.500494 
L 479.233074 -304.831016 
L 475.276656 -304.278364 
L 471.181388 -303.755151 
L 466.937169 -303.669177 
L 462.532753 -300.294159 
L 457.955572 -298.900333 
L 453.191516 -297.261463 
L 448.224675 -294.247025 
L 443.037013 -292.750051 
L 437.60798 -292.140467 
L 431.914014 -291.699267 
L 425.927924 -291.177674 
L 419.618109 -290.160603 
L 412.947541 -289.744533 
L 405.872456 -286.268075 
L 398.340607 -285.238479 
L 390.28892 -283.486234 
L 381.640286 -281.232195 
L 372.299049 -277.368431 
L 362.144546 -275.389674 
L 351.021546 -269.041927 
L 338.725641 -264.425008 
L 324.979988 -261.043442 
L 309.396453 -256.727905 
L 291.406581 -253.764141 
L 270.129079 -244.245751 
L 244.087521 -237.366561 
L 210.514113 -218.611991 
L 163.195053 -199.594985 
L 82.302585 -173.08477 
z
" style="stroke: #7fc97f; stroke-opacity: 0.05"/>
    </defs>
    <g clip-path="url(#pd7f7468842)">
     <use xlink:href="#mbd7507475d" x="0" y="395.609063" style="fill: #7fc97f; fill-opacity: 0.05; stroke: #7fc97f; stroke-opacity: 0.05"/>
    </g>
   </g>
   <g id="PolyCollection_4">
    <defs>
     <path id="m54e5d0c17e" d="M 82.302585 -177.604971 
L 82.302585 -111.422319 
L 163.195053 -111.145186 
L 210.514113 -111.192332 
L 244.087521 -134.458729 
L 270.129079 -151.745931 
L 291.406581 -161.507577 
L 309.396453 -167.472882 
L 324.979988 -169.733038 
L 338.725641 -171.554718 
L 351.021546 -175.83744 
L 362.144546 -182.904262 
L 372.299049 -185.647206 
L 381.640286 -189.129555 
L 390.28892 -193.063383 
L 398.340607 -195.80771 
L 405.872456 -198.512368 
L 412.947541 -200.738077 
L 419.618109 -203.826413 
L 425.927924 -207.862085 
L 431.914014 -211.925722 
L 437.60798 -216.236184 
L 443.037013 -221.138918 
L 448.224675 -225.636721 
L 453.191516 -232.550762 
L 457.955572 -235.089303 
L 462.532753 -237.744786 
L 466.937169 -239.200664 
L 471.181388 -244.999528 
L 475.276656 -248.452281 
L 479.233074 -251.310738 
L 483.05975 -255.616705 
L 486.764924 -258.738955 
L 490.356074 -262.882863 
L 493.840009 -268.569939 
L 497.222946 -269.461938 
L 500.510576 -270.922905 
L 503.708123 -272.911398 
L 506.820392 -274.004942 
L 509.851814 -275.537082 
L 512.806482 -279.272608 
L 515.688188 -280.724821 
L 518.500448 -281.549607 
L 521.246532 -282.340901 
L 523.929481 -282.960927 
L 526.552134 -285.108959 
L 529.117142 -288.021133 
L 531.626985 -288.407689 
L 534.083984 -289.461412 
L 536.49032 -290.751874 
L 538.84804 -291.20378 
L 538.84804 -346.074132 
L 538.84804 -346.074132 
L 536.49032 -345.928211 
L 534.083984 -345.24452 
L 531.626985 -345.041396 
L 529.117142 -344.951586 
L 526.552134 -344.795757 
L 523.929481 -344.80065 
L 521.246532 -344.184324 
L 518.500448 -343.71439 
L 515.688188 -342.133774 
L 512.806482 -341.747426 
L 509.851814 -341.677453 
L 506.820392 -341.595596 
L 503.708123 -341.274326 
L 500.510576 -340.416054 
L 497.222946 -339.816945 
L 493.840009 -339.423069 
L 490.356074 -337.891842 
L 486.764924 -336.515564 
L 483.05975 -335.707309 
L 479.233074 -333.568814 
L 475.276656 -331.481023 
L 471.181388 -330.445521 
L 466.937169 -328.360095 
L 462.532753 -326.815181 
L 457.955572 -323.983769 
L 453.191516 -321.620378 
L 448.224675 -318.229903 
L 443.037013 -315.496983 
L 437.60798 -311.580132 
L 431.914014 -306.725443 
L 425.927924 -301.749486 
L 419.618109 -295.376177 
L 412.947541 -287.747643 
L 405.872456 -285.641455 
L 398.340607 -279.6461 
L 390.28892 -276.19781 
L 381.640286 -273.884962 
L 372.299049 -266.028125 
L 362.144546 -260.034131 
L 351.021546 -252.986786 
L 338.725641 -250.801462 
L 324.979988 -242.640062 
L 309.396453 -239.101264 
L 291.406581 -231.0644 
L 270.129079 -226.705399 
L 244.087521 -222.40774 
L 210.514113 -182.78193 
L 163.195053 -182.782487 
L 82.302585 -177.604971 
z
" style="stroke: #bf5b17; stroke-opacity: 0.05"/>
    </defs>
    <g clip-path="url(#pd7f7468842)">
     <use xlink:href="#m54e5d0c17e" x="0" y="395.609063" style="fill: #bf5b17; fill-opacity: 0.05; stroke: #bf5b17; stroke-opacity: 0.05"/>
    </g>
   </g>
   <g id="PolyCollection_5">
    <defs>
     <path id="md2cdec81f1" d="M 82.302585 -177.604971 
L 82.302585 -111.422319 
L 163.195053 -128.897267 
L 210.514113 -157.326323 
L 244.087521 -157.870634 
L 270.129079 -157.881423 
L 291.406581 -157.892732 
L 309.396453 -157.895029 
L 324.979988 -168.187781 
L 338.725641 -173.623853 
L 351.021546 -173.623965 
L 362.144546 -180.675032 
L 372.299049 -183.321335 
L 381.640286 -183.321335 
L 390.28892 -183.322425 
L 398.340607 -187.927587 
L 405.872456 -206.220058 
L 412.947541 -206.767073 
L 419.618109 -206.767073 
L 425.927924 -206.767073 
L 431.914014 -206.767073 
L 437.60798 -207.352638 
L 443.037013 -207.352638 
L 448.224675 -207.352638 
L 453.191516 -234.268526 
L 457.955572 -234.268526 
L 462.532753 -234.476982 
L 466.937169 -234.570714 
L 471.181388 -235.719439 
L 475.276656 -235.719439 
L 479.233074 -237.457935 
L 483.05975 -237.457935 
L 486.764924 -237.827136 
L 490.356074 -237.827136 
L 493.840009 -238.89736 
L 497.222946 -239.634128 
L 500.510576 -241.36355 
L 503.708123 -241.36355 
L 506.820392 -241.36355 
L 509.851814 -241.36355 
L 512.806482 -241.396526 
L 515.688188 -241.511424 
L 518.500448 -241.58006 
L 521.246532 -241.58006 
L 523.929481 -241.58006 
L 526.552134 -241.58006 
L 529.117142 -241.58006 
L 531.626985 -241.58006 
L 534.083984 -249.30061 
L 536.49032 -249.30061 
L 538.84804 -249.30061 
L 538.84804 -285.780589 
L 538.84804 -285.780589 
L 536.49032 -285.780589 
L 534.083984 -285.780589 
L 531.626985 -277.961297 
L 529.117142 -277.961297 
L 526.552134 -277.961297 
L 523.929481 -277.961297 
L 521.246532 -277.961297 
L 518.500448 -277.961297 
L 515.688188 -277.936141 
L 512.806482 -277.915933 
L 509.851814 -277.88377 
L 506.820392 -277.88377 
L 503.708123 -277.88377 
L 500.510576 -277.88377 
L 497.222946 -277.331463 
L 493.840009 -276.743599 
L 490.356074 -276.524809 
L 486.764924 -276.524809 
L 483.05975 -276.442054 
L 479.233074 -276.442054 
L 475.276656 -276.091442 
L 471.181388 -276.091442 
L 466.937169 -275.646536 
L 462.532753 -275.610549 
L 457.955572 -275.393022 
L 453.191516 -275.393022 
L 448.224675 -228.038202 
L 443.037013 -228.038202 
L 437.60798 -228.038202 
L 431.914014 -227.598656 
L 425.927924 -227.598656 
L 419.618109 -227.598656 
L 412.947541 -227.598656 
L 405.872456 -227.415138 
L 398.340607 -213.312264 
L 390.28892 -213.024908 
L 381.640286 -213.025308 
L 372.299049 -213.025308 
L 362.144546 -212.273288 
L 351.021546 -210.465715 
L 338.725641 -210.465601 
L 324.979988 -208.538374 
L 309.396453 -199.988899 
L 291.406581 -199.988851 
L 270.129079 -199.987306 
L 244.087521 -199.990348 
L 210.514113 -200.149916 
L 163.195053 -183.447975 
L 82.302585 -177.604971 
z
" style="stroke: #f0027f; stroke-opacity: 0.05"/>
    </defs>
    <g clip-path="url(#pd7f7468842)">
     <use xlink:href="#md2cdec81f1" x="0" y="395.609063" style="fill: #f0027f; fill-opacity: 0.05; stroke: #f0027f; stroke-opacity: 0.05"/>
    </g>
   </g>
   <g id="PolyCollection_6">
    <defs>
     <path id="m1857275678" d="M 82.302585 -177.604971 
L 82.302585 -111.422319 
L 163.195053 -128.897267 
L 210.514113 -157.326323 
L 244.087521 -157.870634 
L 270.129079 -157.881423 
L 291.406581 -157.892732 
L 309.396453 -161.250736 
L 324.979988 -161.441088 
L 338.725641 -165.934746 
L 351.021546 -169.398708 
L 362.144546 -173.245716 
L 372.299049 -177.434124 
L 381.640286 -181.206068 
L 390.28892 -186.378996 
L 398.340607 -188.464154 
L 405.872456 -193.913074 
L 412.947541 -197.636403 
L 419.618109 -199.692026 
L 425.927924 -202.573155 
L 431.914014 -205.381428 
L 437.60798 -208.61315 
L 443.037013 -210.586592 
L 448.224675 -211.905004 
L 453.191516 -213.222751 
L 457.955572 -214.870701 
L 462.532753 -217.579885 
L 466.937169 -220.849502 
L 471.181388 -222.71891 
L 475.276656 -224.913596 
L 479.233074 -226.544577 
L 483.05975 -227.331679 
L 486.764924 -229.927184 
L 490.356074 -232.96195 
L 493.840009 -234.907241 
L 497.222946 -236.207927 
L 500.510576 -237.409234 
L 503.708123 -237.944648 
L 506.820392 -238.333358 
L 509.851814 -238.896802 
L 512.806482 -239.565579 
L 515.688188 -240.761517 
L 518.500448 -243.473643 
L 521.246532 -244.118915 
L 523.929481 -244.650655 
L 526.552134 -245.877001 
L 529.117142 -247.29432 
L 531.626985 -249.7614 
L 534.083984 -250.790665 
L 536.49032 -251.958474 
L 538.84804 -252.730067 
L 538.84804 -317.500231 
L 538.84804 -317.500231 
L 536.49032 -316.862889 
L 534.083984 -317.049824 
L 531.626985 -316.630015 
L 529.117142 -316.197687 
L 526.552134 -314.757894 
L 523.929481 -313.684322 
L 521.246532 -311.159065 
L 518.500448 -311.071216 
L 515.688188 -310.497306 
L 512.806482 -309.877208 
L 509.851814 -309.397403 
L 506.820392 -309.078482 
L 503.708123 -308.039031 
L 500.510576 -307.09517 
L 497.222946 -305.606341 
L 493.840009 -304.951602 
L 490.356074 -302.766876 
L 486.764924 -301.935097 
L 483.05975 -300.465257 
L 479.233074 -299.19445 
L 475.276656 -298.353641 
L 471.181388 -296.725822 
L 466.937169 -295.343853 
L 462.532753 -292.786965 
L 457.955572 -291.029747 
L 453.191516 -289.420571 
L 448.224675 -287.919877 
L 443.037013 -287.478001 
L 437.60798 -285.063289 
L 431.914014 -277.351276 
L 425.927924 -275.983471 
L 419.618109 -274.477885 
L 412.947541 -267.525579 
L 405.872456 -265.565508 
L 398.340607 -261.19575 
L 390.28892 -256.659385 
L 381.640286 -250.820041 
L 372.299049 -246.025379 
L 362.144546 -242.614916 
L 351.021546 -236.875503 
L 338.725641 -226.477078 
L 324.979988 -223.620332 
L 309.396453 -206.207905 
L 291.406581 -199.988851 
L 270.129079 -199.987306 
L 244.087521 -199.990348 
L 210.514113 -200.149916 
L 163.195053 -183.447975 
L 82.302585 -177.604971 
z
" style="stroke: #f0027f; stroke-opacity: 0.05"/>
    </defs>
    <g clip-path="url(#pd7f7468842)">
     <use xlink:href="#m1857275678" x="0" y="395.609063" style="fill: #f0027f; fill-opacity: 0.05; stroke: #f0027f; stroke-opacity: 0.05"/>
    </g>
   </g>
   <g id="PolyCollection_7">
    <defs>
     <path id="m22ca09268f" d="M 82.302585 -177.604971 
L 82.302585 -111.422319 
L 163.195053 -111.145186 
L 210.514113 -111.192332 
L 244.087521 -112.555518 
L 270.129079 -124.567964 
L 291.406581 -130.304378 
L 309.396453 -149.284005 
L 324.979988 -161.655713 
L 338.725641 -164.454059 
L 351.021546 -172.478578 
L 362.144546 -184.128477 
L 372.299049 -185.990463 
L 381.640286 -191.154488 
L 390.28892 -193.068059 
L 398.340607 -197.299526 
L 405.872456 -202.393103 
L 412.947541 -206.413359 
L 419.618109 -207.77468 
L 425.927924 -210.527896 
L 431.914014 -212.923831 
L 437.60798 -215.236513 
L 443.037013 -217.907096 
L 448.224675 -220.841475 
L 453.191516 -223.106599 
L 457.955572 -226.191796 
L 462.532753 -227.265834 
L 466.937169 -228.138502 
L 471.181388 -230.071119 
L 475.276656 -232.611211 
L 479.233074 -235.109696 
L 483.05975 -238.12156 
L 486.764924 -239.584892 
L 490.356074 -241.487898 
L 493.840009 -244.788194 
L 497.222946 -246.953719 
L 500.510576 -249.881454 
L 503.708123 -250.802319 
L 506.820392 -251.658143 
L 509.851814 -252.733456 
L 512.806482 -253.271716 
L 515.688188 -253.960788 
L 518.500448 -255.100099 
L 521.246532 -256.546783 
L 523.929481 -258.764014 
L 526.552134 -261.84915 
L 529.117142 -263.107302 
L 531.626985 -263.375333 
L 534.083984 -263.575268 
L 536.49032 -264.081365 
L 538.84804 -265.604839 
L 538.84804 -329.991991 
L 538.84804 -329.991991 
L 536.49032 -329.74528 
L 534.083984 -329.761325 
L 531.626985 -329.745053 
L 529.117142 -329.435812 
L 526.552134 -329.172248 
L 523.929481 -327.536405 
L 521.246532 -327.751368 
L 518.500448 -327.416271 
L 515.688188 -325.835877 
L 512.806482 -325.5426 
L 509.851814 -323.637742 
L 506.820392 -323.271313 
L 503.708123 -322.120634 
L 500.510576 -321.414394 
L 497.222946 -318.738572 
L 493.840009 -317.967106 
L 490.356074 -315.797269 
L 486.764924 -315.432937 
L 483.05975 -314.297647 
L 479.233074 -310.952183 
L 475.276656 -307.619733 
L 471.181388 -306.951251 
L 466.937169 -306.311681 
L 462.532753 -303.535473 
L 457.955572 -302.92468 
L 453.191516 -300.574467 
L 448.224675 -298.676776 
L 443.037013 -296.855431 
L 437.60798 -295.432195 
L 431.914014 -293.711054 
L 425.927924 -292.370678 
L 419.618109 -290.866908 
L 412.947541 -287.392854 
L 405.872456 -285.774986 
L 398.340607 -278.957361 
L 390.28892 -274.384699 
L 381.640286 -272.200204 
L 372.299049 -262.001152 
L 362.144546 -250.951711 
L 351.021546 -243.58974 
L 338.725641 -234.812365 
L 324.979988 -225.018278 
L 309.396453 -217.139349 
L 291.406581 -201.777197 
L 270.129079 -195.648723 
L 244.087521 -183.538404 
L 210.514113 -182.78193 
L 163.195053 -182.782487 
L 82.302585 -177.604971 
z
" style="stroke: #bf5b17; stroke-opacity: 0.05"/>
    </defs>
    <g clip-path="url(#pd7f7468842)">
     <use xlink:href="#m22ca09268f" x="0" y="395.609063" style="fill: #bf5b17; fill-opacity: 0.05; stroke: #bf5b17; stroke-opacity: 0.05"/>
    </g>
   </g>
   <g id="PolyCollection_8">
    <defs>
     <path id="mb843ecc25e" d="M 82.302585 -177.604971 
L 82.302585 -111.422319 
L 163.195053 -128.897267 
L 210.514113 -157.326323 
L 244.087521 -157.870634 
L 270.129079 -157.881423 
L 291.406581 -157.892732 
L 309.396453 -157.927127 
L 324.979988 -164.623318 
L 338.725641 -168.5701 
L 351.021546 -171.398266 
L 362.144546 -176.362178 
L 372.299049 -176.333945 
L 381.640286 -179.304841 
L 390.28892 -181.879629 
L 398.340607 -184.809001 
L 405.872456 -185.349352 
L 412.947541 -189.188618 
L 419.618109 -193.349136 
L 425.927924 -196.460337 
L 431.914014 -199.441439 
L 437.60798 -204.078388 
L 443.037013 -208.340211 
L 448.224675 -212.370363 
L 453.191516 -218.777632 
L 457.955572 -223.536281 
L 462.532753 -229.385126 
L 466.937169 -233.95596 
L 471.181388 -242.249747 
L 475.276656 -246.887047 
L 479.233074 -251.248319 
L 483.05975 -255.490905 
L 486.764924 -259.163053 
L 490.356074 -261.703268 
L 493.840009 -264.81647 
L 497.222946 -265.972011 
L 500.510576 -270.56544 
L 503.708123 -273.26359 
L 506.820392 -276.021239 
L 509.851814 -277.925759 
L 512.806482 -279.023182 
L 515.688188 -281.635573 
L 518.500448 -283.755828 
L 521.246532 -284.042003 
L 523.929481 -285.899529 
L 526.552134 -287.520758 
L 529.117142 -288.060966 
L 531.626985 -289.252506 
L 534.083984 -290.258895 
L 536.49032 -291.818918 
L 538.84804 -292.127486 
L 538.84804 -330.257101 
L 538.84804 -330.257101 
L 536.49032 -329.979982 
L 534.083984 -330.041965 
L 531.626985 -329.708316 
L 529.117142 -329.877688 
L 526.552134 -329.447505 
L 523.929481 -328.027341 
L 521.246532 -327.408824 
L 518.500448 -327.257874 
L 515.688188 -327.326697 
L 512.806482 -327.861152 
L 509.851814 -327.364244 
L 506.820392 -327.100138 
L 503.708123 -326.989515 
L 500.510576 -325.735233 
L 497.222946 -324.639106 
L 493.840009 -323.863856 
L 490.356074 -322.44327 
L 486.764924 -321.632755 
L 483.05975 -320.882355 
L 479.233074 -319.418046 
L 475.276656 -316.846969 
L 471.181388 -314.236695 
L 466.937169 -311.241261 
L 462.532753 -308.648144 
L 457.955572 -305.458602 
L 453.191516 -302.762319 
L 448.224675 -297.31223 
L 443.037013 -293.251505 
L 437.60798 -287.912467 
L 431.914014 -283.673357 
L 425.927924 -280.978766 
L 419.618109 -273.704983 
L 412.947541 -268.966254 
L 405.872456 -262.596876 
L 398.340607 -251.872305 
L 390.28892 -246.619551 
L 381.640286 -239.31814 
L 372.299049 -236.385316 
L 362.144546 -224.934213 
L 351.021546 -217.649469 
L 338.725641 -213.470125 
L 324.979988 -205.327592 
L 309.396453 -199.978703 
L 291.406581 -199.988851 
L 270.129079 -199.987306 
L 244.087521 -199.990348 
L 210.514113 -200.149916 
L 163.195053 -183.447975 
L 82.302585 -177.604971 
z
" style="stroke: #386cb0; stroke-opacity: 0.05"/>
    </defs>
    <g clip-path="url(#pd7f7468842)">
     <use xlink:href="#mb843ecc25e" x="0" y="395.609063" style="fill: #386cb0; fill-opacity: 0.05; stroke: #386cb0; stroke-opacity: 0.05"/>
    </g>
   </g>
   <g id="PolyCollection_9">
    <defs>
     <path id="mdd39aaaa83" d="M 82.302585 -315.137624 
L 82.302585 -231.349277 
L 163.195053 -249.115137 
L 210.514113 -278.900638 
L 244.087521 -299.148187 
L 270.129079 -308.07314 
L 291.406581 -312.591947 
L 309.396453 -314.790754 
L 324.979988 -317.665062 
L 338.725641 -318.756879 
L 351.021546 -319.534269 
L 362.144546 -320.351749 
L 372.299049 -320.834243 
L 381.640286 -321.065279 
L 390.28892 -321.336453 
L 398.340607 -321.460195 
L 405.872456 -321.669011 
L 412.947541 -321.877074 
L 419.618109 -321.966249 
L 425.927924 -322.061672 
L 431.914014 -322.10117 
L 437.60798 -322.142382 
L 443.037013 -322.172095 
L 448.224675 -322.196806 
L 453.191516 -322.223447 
L 457.955572 -322.233706 
L 462.532753 -322.255714 
L 466.937169 -322.258872 
L 471.181388 -322.276421 
L 475.276656 -322.286771 
L 479.233074 -322.297564 
L 483.05975 -322.304544 
L 486.764924 -322.318212 
L 490.356074 -322.330689 
L 493.840009 -322.339842 
L 497.222946 -322.347615 
L 500.510576 -322.353463 
L 503.708123 -322.359726 
L 506.820392 -322.361569 
L 509.851814 -322.365571 
L 512.806482 -322.367003 
L 515.688188 -322.369132 
L 518.500448 -322.371124 
L 521.246532 -322.373068 
L 523.929481 -322.374425 
L 526.552134 -322.374328 
L 529.117142 -322.375015 
L 531.626985 -322.375687 
L 534.083984 -322.376322 
L 536.49032 -322.376858 
L 538.84804 -322.377321 
L 538.84804 -367.657748 
L 538.84804 -367.657748 
L 536.49032 -367.657684 
L 534.083984 -367.657687 
L 531.626985 -367.657748 
L 529.117142 -367.657813 
L 526.552134 -367.657762 
L 523.929481 -367.656759 
L 521.246532 -367.656822 
L 518.500448 -367.656885 
L 515.688188 -367.656994 
L 512.806482 -367.657123 
L 509.851814 -367.655988 
L 506.820392 -367.656204 
L 503.708123 -367.651668 
L 500.510576 -367.651446 
L 497.222946 -367.650568 
L 493.840009 -367.650627 
L 490.356074 -367.650059 
L 486.764924 -367.650057 
L 483.05975 -367.647979 
L 479.233074 -367.63904 
L 475.276656 -367.633847 
L 471.181388 -367.625916 
L 466.937169 -367.624863 
L 462.532753 -367.609285 
L 457.955572 -367.609123 
L 453.191516 -367.595281 
L 448.224675 -367.587955 
L 443.037013 -367.576931 
L 437.60798 -367.570486 
L 431.914014 -367.54488 
L 425.927924 -367.50276 
L 419.618109 -367.453378 
L 412.947541 -367.349677 
L 405.872456 -367.354986 
L 398.340607 -367.355057 
L 390.28892 -367.22849 
L 381.640286 -367.201275 
L 372.299049 -366.965395 
L 362.144546 -366.967783 
L 351.021546 -367.083527 
L 338.725641 -366.935664 
L 324.979988 -366.871688 
L 309.396453 -367.053544 
L 291.406581 -365.636888 
L 270.129079 -364.849802 
L 244.087521 -361.816876 
L 210.514113 -363.500535 
L 163.195053 -358.186358 
L 82.302585 -315.137624 
z
" style="stroke: #666666; stroke-opacity: 0.05"/>
    </defs>
    <g clip-path="url(#pd7f7468842)">
     <use xlink:href="#mdd39aaaa83" x="0" y="395.609063" style="fill: #666666; fill-opacity: 0.05; stroke: #666666; stroke-opacity: 0.05"/>
    </g>
   </g>
   <g id="matplotlib.axis_1">
    <g id="xtick_1">
     <g id="line2d_1">
      <path d="M 82.302585 345.471251 
L 82.302585 12.831251 
" clip-path="url(#pd7f7468842)" style="fill: none; stroke-dasharray: 1.85,0.8; stroke-dashoffset: 0; stroke: #b0b0b0; stroke-width: 0.5"/>
     </g>
     <g id="line2d_2">
      <defs>
       <path id="m5217dad21f" d="M 0 0 
L 0 3.5 
" style="stroke: #000000; stroke-width: 0.8"/>
      </defs>
      <g>
       <use xlink:href="#m5217dad21f" x="82.302585" y="345.471251" style="stroke: #000000; stroke-width: 0.8"/>
      </g>
     </g>
     <g id="text_1">
      <!-- $\mathdefault{10^{0}}$ -->
      <g transform="translate(69.102585 363.868907) scale(0.15 -0.15)">
       <defs>
        <path id="DejaVuSans-31" d="M 794 531 
L 1825 531 
L 1825 4091 
L 703 3866 
L 703 4441 
L 1819 4666 
L 2450 4666 
L 2450 531 
L 3481 531 
L 3481 0 
L 794 0 
L 794 531 
z
" transform="scale(0.015625)"/>
        <path id="DejaVuSans-30" d="M 2034 4250 
Q 1547 4250 1301 3770 
Q 1056 3291 1056 2328 
Q 1056 1369 1301 889 
Q 1547 409 2034 409 
Q 2525 409 2770 889 
Q 3016 1369 3016 2328 
Q 3016 3291 2770 3770 
Q 2525 4250 2034 4250 
z
M 2034 4750 
Q 2819 4750 3233 4129 
Q 3647 3509 3647 2328 
Q 3647 1150 3233 529 
Q 2819 -91 2034 -91 
Q 1250 -91 836 529 
Q 422 1150 422 2328 
Q 422 3509 836 4129 
Q 1250 4750 2034 4750 
z
" transform="scale(0.015625)"/>
       </defs>
       <use xlink:href="#DejaVuSans-31" transform="translate(0 0.765625)"/>
       <use xlink:href="#DejaVuSans-30" transform="translate(63.623047 0.765625)"/>
       <use xlink:href="#DejaVuSans-30" transform="translate(128.203125 39.046875) scale(0.7)"/>
      </g>
     </g>
    </g>
    <g id="xtick_2">
     <g id="line2d_3">
      <path d="M 351.021546 345.471251 
L 351.021546 12.831251 
" clip-path="url(#pd7f7468842)" style="fill: none; stroke-dasharray: 1.85,0.8; stroke-dashoffset: 0; stroke: #b0b0b0; stroke-width: 0.5"/>
     </g>
     <g id="line2d_4">
      <g>
       <use xlink:href="#m5217dad21f" x="351.021546" y="345.471251" style="stroke: #000000; stroke-width: 0.8"/>
      </g>
     </g>
     <g id="text_2">
      <!-- $\mathdefault{10^{1}}$ -->
      <g transform="translate(337.821546 363.868907) scale(0.15 -0.15)">
       <use xlink:href="#DejaVuSans-31" transform="translate(0 0.684375)"/>
       <use xlink:href="#DejaVuSans-30" transform="translate(63.623047 0.684375)"/>
       <use xlink:href="#DejaVuSans-31" transform="translate(128.203125 38.965625) scale(0.7)"/>
      </g>
     </g>
    </g>
    <g id="xtick_3">
     <g id="line2d_5">
      <defs>
       <path id="m3dc3ef278a" d="M 0 0 
L 0 2 
" style="stroke: #000000; stroke-width: 0.6"/>
      </defs>
      <g>
       <use xlink:href="#m3dc3ef278a" x="70.00668" y="345.471251" style="stroke: #000000; stroke-width: 0.6"/>
      </g>
     </g>
    </g>
    <g id="xtick_4">
     <g id="line2d_6">
      <g>
       <use xlink:href="#m3dc3ef278a" x="163.195053" y="345.471251" style="stroke: #000000; stroke-width: 0.6"/>
      </g>
     </g>
    </g>
    <g id="xtick_5">
     <g id="line2d_7">
      <g>
       <use xlink:href="#m3dc3ef278a" x="210.514113" y="345.471251" style="stroke: #000000; stroke-width: 0.6"/>
      </g>
     </g>
    </g>
    <g id="xtick_6">
     <g id="line2d_8">
      <g>
       <use xlink:href="#m3dc3ef278a" x="244.087521" y="345.471251" style="stroke: #000000; stroke-width: 0.6"/>
      </g>
     </g>
    </g>
    <g id="xtick_7">
     <g id="line2d_9">
      <g>
       <use xlink:href="#m3dc3ef278a" x="270.129079" y="345.471251" style="stroke: #000000; stroke-width: 0.6"/>
      </g>
     </g>
    </g>
    <g id="xtick_8">
     <g id="line2d_10">
      <g>
       <use xlink:href="#m3dc3ef278a" x="291.406581" y="345.471251" style="stroke: #000000; stroke-width: 0.6"/>
      </g>
     </g>
    </g>
    <g id="xtick_9">
     <g id="line2d_11">
      <g>
       <use xlink:href="#m3dc3ef278a" x="309.396453" y="345.471251" style="stroke: #000000; stroke-width: 0.6"/>
      </g>
     </g>
    </g>
    <g id="xtick_10">
     <g id="line2d_12">
      <g>
       <use xlink:href="#m3dc3ef278a" x="324.979988" y="345.471251" style="stroke: #000000; stroke-width: 0.6"/>
      </g>
     </g>
    </g>
    <g id="xtick_11">
     <g id="line2d_13">
      <g>
       <use xlink:href="#m3dc3ef278a" x="338.725641" y="345.471251" style="stroke: #000000; stroke-width: 0.6"/>
      </g>
     </g>
    </g>
    <g id="xtick_12">
     <g id="line2d_14">
      <g>
       <use xlink:href="#m3dc3ef278a" x="431.914014" y="345.471251" style="stroke: #000000; stroke-width: 0.6"/>
      </g>
     </g>
    </g>
    <g id="xtick_13">
     <g id="line2d_15">
      <g>
       <use xlink:href="#m3dc3ef278a" x="479.233074" y="345.471251" style="stroke: #000000; stroke-width: 0.6"/>
      </g>
     </g>
    </g>
    <g id="xtick_14">
     <g id="line2d_16">
      <g>
       <use xlink:href="#m3dc3ef278a" x="512.806482" y="345.471251" style="stroke: #000000; stroke-width: 0.6"/>
      </g>
     </g>
    </g>
    <g id="xtick_15">
     <g id="line2d_17">
      <g>
       <use xlink:href="#m3dc3ef278a" x="538.84804" y="345.471251" style="stroke: #000000; stroke-width: 0.6"/>
      </g>
     </g>
    </g>
    <g id="xtick_16">
     <g id="line2d_18">
      <g>
       <use xlink:href="#m3dc3ef278a" x="560.125542" y="345.471251" style="stroke: #000000; stroke-width: 0.6"/>
      </g>
     </g>
    </g>
    <g id="text_3">
     <!-- Decision Round -->
     <g transform="translate(240.922344 384.665626) scale(0.18 -0.18)">
      <defs>
       <path id="DejaVuSans-44" d="M 1259 4147 
L 1259 519 
L 2022 519 
Q 2988 519 3436 956 
Q 3884 1394 3884 2338 
Q 3884 3275 3436 3711 
Q 2988 4147 2022 4147 
L 1259 4147 
z
M 628 4666 
L 1925 4666 
Q 3281 4666 3915 4102 
Q 4550 3538 4550 2338 
Q 4550 1131 3912 565 
Q 3275 0 1925 0 
L 628 0 
L 628 4666 
z
" transform="scale(0.015625)"/>
       <path id="DejaVuSans-65" d="M 3597 1894 
L 3597 1613 
L 953 1613 
Q 991 1019 1311 708 
Q 1631 397 2203 397 
Q 2534 397 2845 478 
Q 3156 559 3463 722 
L 3463 178 
Q 3153 47 2828 -22 
Q 2503 -91 2169 -91 
Q 1331 -91 842 396 
Q 353 884 353 1716 
Q 353 2575 817 3079 
Q 1281 3584 2069 3584 
Q 2775 3584 3186 3129 
Q 3597 2675 3597 1894 
z
M 3022 2063 
Q 3016 2534 2758 2815 
Q 2500 3097 2075 3097 
Q 1594 3097 1305 2825 
Q 1016 2553 972 2059 
L 3022 2063 
z
" transform="scale(0.015625)"/>
       <path id="DejaVuSans-63" d="M 3122 3366 
L 3122 2828 
Q 2878 2963 2633 3030 
Q 2388 3097 2138 3097 
Q 1578 3097 1268 2742 
Q 959 2388 959 1747 
Q 959 1106 1268 751 
Q 1578 397 2138 397 
Q 2388 397 2633 464 
Q 2878 531 3122 666 
L 3122 134 
Q 2881 22 2623 -34 
Q 2366 -91 2075 -91 
Q 1284 -91 818 406 
Q 353 903 353 1747 
Q 353 2603 823 3093 
Q 1294 3584 2113 3584 
Q 2378 3584 2631 3529 
Q 2884 3475 3122 3366 
z
" transform="scale(0.015625)"/>
       <path id="DejaVuSans-69" d="M 603 3500 
L 1178 3500 
L 1178 0 
L 603 0 
L 603 3500 
z
M 603 4863 
L 1178 4863 
L 1178 4134 
L 603 4134 
L 603 4863 
z
" transform="scale(0.015625)"/>
       <path id="DejaVuSans-73" d="M 2834 3397 
L 2834 2853 
Q 2591 2978 2328 3040 
Q 2066 3103 1784 3103 
Q 1356 3103 1142 2972 
Q 928 2841 928 2578 
Q 928 2378 1081 2264 
Q 1234 2150 1697 2047 
L 1894 2003 
Q 2506 1872 2764 1633 
Q 3022 1394 3022 966 
Q 3022 478 2636 193 
Q 2250 -91 1575 -91 
Q 1294 -91 989 -36 
Q 684 19 347 128 
L 347 722 
Q 666 556 975 473 
Q 1284 391 1588 391 
Q 1994 391 2212 530 
Q 2431 669 2431 922 
Q 2431 1156 2273 1281 
Q 2116 1406 1581 1522 
L 1381 1569 
Q 847 1681 609 1914 
Q 372 2147 372 2553 
Q 372 3047 722 3315 
Q 1072 3584 1716 3584 
Q 2034 3584 2315 3537 
Q 2597 3491 2834 3397 
z
" transform="scale(0.015625)"/>
       <path id="DejaVuSans-6f" d="M 1959 3097 
Q 1497 3097 1228 2736 
Q 959 2375 959 1747 
Q 959 1119 1226 758 
Q 1494 397 1959 397 
Q 2419 397 2687 759 
Q 2956 1122 2956 1747 
Q 2956 2369 2687 2733 
Q 2419 3097 1959 3097 
z
M 1959 3584 
Q 2709 3584 3137 3096 
Q 3566 2609 3566 1747 
Q 3566 888 3137 398 
Q 2709 -91 1959 -91 
Q 1206 -91 779 398 
Q 353 888 353 1747 
Q 353 2609 779 3096 
Q 1206 3584 1959 3584 
z
" transform="scale(0.015625)"/>
       <path id="DejaVuSans-6e" d="M 3513 2113 
L 3513 0 
L 2938 0 
L 2938 2094 
Q 2938 2591 2744 2837 
Q 2550 3084 2163 3084 
Q 1697 3084 1428 2787 
Q 1159 2491 1159 1978 
L 1159 0 
L 581 0 
L 581 3500 
L 1159 3500 
L 1159 2956 
Q 1366 3272 1645 3428 
Q 1925 3584 2291 3584 
Q 2894 3584 3203 3211 
Q 3513 2838 3513 2113 
z
" transform="scale(0.015625)"/>
       <path id="DejaVuSans-20" transform="scale(0.015625)"/>
       <path id="DejaVuSans-52" d="M 2841 2188 
Q 3044 2119 3236 1894 
Q 3428 1669 3622 1275 
L 4263 0 
L 3584 0 
L 2988 1197 
Q 2756 1666 2539 1819 
Q 2322 1972 1947 1972 
L 1259 1972 
L 1259 0 
L 628 0 
L 628 4666 
L 2053 4666 
Q 2853 4666 3247 4331 
Q 3641 3997 3641 3322 
Q 3641 2881 3436 2590 
Q 3231 2300 2841 2188 
z
M 1259 4147 
L 1259 2491 
L 2053 2491 
Q 2509 2491 2742 2702 
Q 2975 2913 2975 3322 
Q 2975 3731 2742 3939 
Q 2509 4147 2053 4147 
L 1259 4147 
z
" transform="scale(0.015625)"/>
       <path id="DejaVuSans-75" d="M 544 1381 
L 544 3500 
L 1119 3500 
L 1119 1403 
Q 1119 906 1312 657 
Q 1506 409 1894 409 
Q 2359 409 2629 706 
Q 2900 1003 2900 1516 
L 2900 3500 
L 3475 3500 
L 3475 0 
L 2900 0 
L 2900 538 
Q 2691 219 2414 64 
Q 2138 -91 1772 -91 
Q 1169 -91 856 284 
Q 544 659 544 1381 
z
M 1991 3584 
L 1991 3584 
z
" transform="scale(0.015625)"/>
       <path id="DejaVuSans-64" d="M 2906 2969 
L 2906 4863 
L 3481 4863 
L 3481 0 
L 2906 0 
L 2906 525 
Q 2725 213 2448 61 
Q 2172 -91 1784 -91 
Q 1150 -91 751 415 
Q 353 922 353 1747 
Q 353 2572 751 3078 
Q 1150 3584 1784 3584 
Q 2172 3584 2448 3432 
Q 2725 3281 2906 2969 
z
M 947 1747 
Q 947 1113 1208 752 
Q 1469 391 1925 391 
Q 2381 391 2643 752 
Q 2906 1113 2906 1747 
Q 2906 2381 2643 2742 
Q 2381 3103 1925 3103 
Q 1469 3103 1208 2742 
Q 947 2381 947 1747 
z
" transform="scale(0.015625)"/>
      </defs>
      <use xlink:href="#DejaVuSans-44"/>
      <use xlink:href="#DejaVuSans-65" x="77.001953"/>
      <use xlink:href="#DejaVuSans-63" x="138.525391"/>
      <use xlink:href="#DejaVuSans-69" x="193.505859"/>
      <use xlink:href="#DejaVuSans-73" x="221.289062"/>
      <use xlink:href="#DejaVuSans-69" x="273.388672"/>
      <use xlink:href="#DejaVuSans-6f" x="301.171875"/>
      <use xlink:href="#DejaVuSans-6e" x="362.353516"/>
      <use xlink:href="#DejaVuSans-20" x="425.732422"/>
      <use xlink:href="#DejaVuSans-52" x="457.519531"/>
      <use xlink:href="#DejaVuSans-6f" x="522.501953"/>
      <use xlink:href="#DejaVuSans-75" x="583.683594"/>
      <use xlink:href="#DejaVuSans-6e" x="647.0625"/>
      <use xlink:href="#DejaVuSans-64" x="710.441406"/>
     </g>
    </g>
   </g>
   <g id="matplotlib.axis_2">
    <g id="ytick_1">
     <g id="line2d_19">
      <path d="M 59.475313 338.493656 
L 561.675313 338.493656 
" clip-path="url(#pd7f7468842)" style="fill: none; stroke-dasharray: 1.85,0.8; stroke-dashoffset: 0; stroke: #b0b0b0; stroke-width: 0.5"/>
     </g>
     <g id="line2d_20">
      <defs>
       <path id="mf863c66203" d="M 0 0 
L -3.5 0 
" style="stroke: #000000; stroke-width: 0.8"/>
      </defs>
      <g>
       <use xlink:href="#mf863c66203" x="59.475313" y="338.493656" style="stroke: #000000; stroke-width: 0.8"/>
      </g>
     </g>
     <g id="text_4">
      <!-- 0.1 -->
      <g transform="translate(28.620625 344.192484) scale(0.15 -0.15)">
       <defs>
        <path id="DejaVuSans-2e" d="M 684 794 
L 1344 794 
L 1344 0 
L 684 0 
L 684 794 
z
" transform="scale(0.015625)"/>
       </defs>
       <use xlink:href="#DejaVuSans-30"/>
       <use xlink:href="#DejaVuSans-2e" x="63.623047"/>
       <use xlink:href="#DejaVuSans-31" x="95.410156"/>
      </g>
     </g>
    </g>
    <g id="ytick_2">
     <g id="line2d_21">
      <path d="M 59.475313 284.227851 
L 561.675313 284.227851 
" clip-path="url(#pd7f7468842)" style="fill: none; stroke-dasharray: 1.85,0.8; stroke-dashoffset: 0; stroke: #b0b0b0; stroke-width: 0.5"/>
     </g>
     <g id="line2d_22">
      <g>
       <use xlink:href="#mf863c66203" x="59.475313" y="284.227851" style="stroke: #000000; stroke-width: 0.8"/>
      </g>
     </g>
     <g id="text_5">
      <!-- 0.2 -->
      <g transform="translate(28.620625 289.926679) scale(0.15 -0.15)">
       <defs>
        <path id="DejaVuSans-32" d="M 1228 531 
L 3431 531 
L 3431 0 
L 469 0 
L 469 531 
Q 828 903 1448 1529 
Q 2069 2156 2228 2338 
Q 2531 2678 2651 2914 
Q 2772 3150 2772 3378 
Q 2772 3750 2511 3984 
Q 2250 4219 1831 4219 
Q 1534 4219 1204 4116 
Q 875 4013 500 3803 
L 500 4441 
Q 881 4594 1212 4672 
Q 1544 4750 1819 4750 
Q 2544 4750 2975 4387 
Q 3406 4025 3406 3419 
Q 3406 3131 3298 2873 
Q 3191 2616 2906 2266 
Q 2828 2175 2409 1742 
Q 1991 1309 1228 531 
z
" transform="scale(0.015625)"/>
       </defs>
       <use xlink:href="#DejaVuSans-30"/>
       <use xlink:href="#DejaVuSans-2e" x="63.623047"/>
       <use xlink:href="#DejaVuSans-32" x="95.410156"/>
      </g>
     </g>
    </g>
    <g id="ytick_3">
     <g id="line2d_23">
      <path d="M 59.475313 229.962047 
L 561.675313 229.962047 
" clip-path="url(#pd7f7468842)" style="fill: none; stroke-dasharray: 1.85,0.8; stroke-dashoffset: 0; stroke: #b0b0b0; stroke-width: 0.5"/>
     </g>
     <g id="line2d_24">
      <g>
       <use xlink:href="#mf863c66203" x="59.475313" y="229.962047" style="stroke: #000000; stroke-width: 0.8"/>
      </g>
     </g>
     <g id="text_6">
      <!-- 0.3 -->
      <g transform="translate(28.620625 235.660875) scale(0.15 -0.15)">
       <defs>
        <path id="DejaVuSans-33" d="M 2597 2516 
Q 3050 2419 3304 2112 
Q 3559 1806 3559 1356 
Q 3559 666 3084 287 
Q 2609 -91 1734 -91 
Q 1441 -91 1130 -33 
Q 819 25 488 141 
L 488 750 
Q 750 597 1062 519 
Q 1375 441 1716 441 
Q 2309 441 2620 675 
Q 2931 909 2931 1356 
Q 2931 1769 2642 2001 
Q 2353 2234 1838 2234 
L 1294 2234 
L 1294 2753 
L 1863 2753 
Q 2328 2753 2575 2939 
Q 2822 3125 2822 3475 
Q 2822 3834 2567 4026 
Q 2313 4219 1838 4219 
Q 1578 4219 1281 4162 
Q 984 4106 628 3988 
L 628 4550 
Q 988 4650 1302 4700 
Q 1616 4750 1894 4750 
Q 2613 4750 3031 4423 
Q 3450 4097 3450 3541 
Q 3450 3153 3228 2886 
Q 3006 2619 2597 2516 
z
" transform="scale(0.015625)"/>
       </defs>
       <use xlink:href="#DejaVuSans-30"/>
       <use xlink:href="#DejaVuSans-2e" x="63.623047"/>
       <use xlink:href="#DejaVuSans-33" x="95.410156"/>
      </g>
     </g>
    </g>
    <g id="ytick_4">
     <g id="line2d_25">
      <path d="M 59.475313 175.696242 
L 561.675313 175.696242 
" clip-path="url(#pd7f7468842)" style="fill: none; stroke-dasharray: 1.85,0.8; stroke-dashoffset: 0; stroke: #b0b0b0; stroke-width: 0.5"/>
     </g>
     <g id="line2d_26">
      <g>
       <use xlink:href="#mf863c66203" x="59.475313" y="175.696242" style="stroke: #000000; stroke-width: 0.8"/>
      </g>
     </g>
     <g id="text_7">
      <!-- 0.4 -->
      <g transform="translate(28.620625 181.39507) scale(0.15 -0.15)">
       <defs>
        <path id="DejaVuSans-34" d="M 2419 4116 
L 825 1625 
L 2419 1625 
L 2419 4116 
z
M 2253 4666 
L 3047 4666 
L 3047 1625 
L 3713 1625 
L 3713 1100 
L 3047 1100 
L 3047 0 
L 2419 0 
L 2419 1100 
L 313 1100 
L 313 1709 
L 2253 4666 
z
" transform="scale(0.015625)"/>
       </defs>
       <use xlink:href="#DejaVuSans-30"/>
       <use xlink:href="#DejaVuSans-2e" x="63.623047"/>
       <use xlink:href="#DejaVuSans-34" x="95.410156"/>
      </g>
     </g>
    </g>
    <g id="ytick_5">
     <g id="line2d_27">
      <path d="M 59.475313 121.430437 
L 561.675313 121.430437 
" clip-path="url(#pd7f7468842)" style="fill: none; stroke-dasharray: 1.85,0.8; stroke-dashoffset: 0; stroke: #b0b0b0; stroke-width: 0.5"/>
     </g>
     <g id="line2d_28">
      <g>
       <use xlink:href="#mf863c66203" x="59.475313" y="121.430437" style="stroke: #000000; stroke-width: 0.8"/>
      </g>
     </g>
     <g id="text_8">
      <!-- 0.5 -->
      <g transform="translate(28.620625 127.129266) scale(0.15 -0.15)">
       <defs>
        <path id="DejaVuSans-35" d="M 691 4666 
L 3169 4666 
L 3169 4134 
L 1269 4134 
L 1269 2991 
Q 1406 3038 1543 3061 
Q 1681 3084 1819 3084 
Q 2600 3084 3056 2656 
Q 3513 2228 3513 1497 
Q 3513 744 3044 326 
Q 2575 -91 1722 -91 
Q 1428 -91 1123 -41 
Q 819 9 494 109 
L 494 744 
Q 775 591 1075 516 
Q 1375 441 1709 441 
Q 2250 441 2565 725 
Q 2881 1009 2881 1497 
Q 2881 1984 2565 2268 
Q 2250 2553 1709 2553 
Q 1456 2553 1204 2497 
Q 953 2441 691 2322 
L 691 4666 
z
" transform="scale(0.015625)"/>
       </defs>
       <use xlink:href="#DejaVuSans-30"/>
       <use xlink:href="#DejaVuSans-2e" x="63.623047"/>
       <use xlink:href="#DejaVuSans-35" x="95.410156"/>
      </g>
     </g>
    </g>
    <g id="ytick_6">
     <g id="line2d_29">
      <path d="M 59.475313 67.164633 
L 561.675313 67.164633 
" clip-path="url(#pd7f7468842)" style="fill: none; stroke-dasharray: 1.85,0.8; stroke-dashoffset: 0; stroke: #b0b0b0; stroke-width: 0.5"/>
     </g>
     <g id="line2d_30">
      <g>
       <use xlink:href="#mf863c66203" x="59.475313" y="67.164633" style="stroke: #000000; stroke-width: 0.8"/>
      </g>
     </g>
     <g id="text_9">
      <!-- 0.6 -->
      <g transform="translate(28.620625 72.863461) scale(0.15 -0.15)">
       <defs>
        <path id="DejaVuSans-36" d="M 2113 2584 
Q 1688 2584 1439 2293 
Q 1191 2003 1191 1497 
Q 1191 994 1439 701 
Q 1688 409 2113 409 
Q 2538 409 2786 701 
Q 3034 994 3034 1497 
Q 3034 2003 2786 2293 
Q 2538 2584 2113 2584 
z
M 3366 4563 
L 3366 3988 
Q 3128 4100 2886 4159 
Q 2644 4219 2406 4219 
Q 1781 4219 1451 3797 
Q 1122 3375 1075 2522 
Q 1259 2794 1537 2939 
Q 1816 3084 2150 3084 
Q 2853 3084 3261 2657 
Q 3669 2231 3669 1497 
Q 3669 778 3244 343 
Q 2819 -91 2113 -91 
Q 1303 -91 875 529 
Q 447 1150 447 2328 
Q 447 3434 972 4092 
Q 1497 4750 2381 4750 
Q 2619 4750 2861 4703 
Q 3103 4656 3366 4563 
z
" transform="scale(0.015625)"/>
       </defs>
       <use xlink:href="#DejaVuSans-30"/>
       <use xlink:href="#DejaVuSans-2e" x="63.623047"/>
       <use xlink:href="#DejaVuSans-36" x="95.410156"/>
      </g>
     </g>
    </g>
    <g id="ytick_7">
     <g id="line2d_31">
      <path d="M 59.475313 12.898828 
L 561.675313 12.898828 
" clip-path="url(#pd7f7468842)" style="fill: none; stroke-dasharray: 1.85,0.8; stroke-dashoffset: 0; stroke: #b0b0b0; stroke-width: 0.5"/>
     </g>
     <g id="line2d_32">
      <g>
       <use xlink:href="#mf863c66203" x="59.475313" y="12.898828" style="stroke: #000000; stroke-width: 0.8"/>
      </g>
     </g>
     <g id="text_10">
      <!-- 0.7 -->
      <g transform="translate(28.620625 18.597656) scale(0.15 -0.15)">
       <defs>
        <path id="DejaVuSans-37" d="M 525 4666 
L 3525 4666 
L 3525 4397 
L 1831 0 
L 1172 0 
L 2766 4134 
L 525 4134 
L 525 4666 
z
" transform="scale(0.015625)"/>
       </defs>
       <use xlink:href="#DejaVuSans-30"/>
       <use xlink:href="#DejaVuSans-2e" x="63.623047"/>
       <use xlink:href="#DejaVuSans-37" x="95.410156"/>
      </g>
     </g>
    </g>
    <g id="text_11">
     <!-- Normalized Performance -->
     <g transform="translate(20.877187 290.079063) rotate(-90) scale(0.18 -0.18)">
      <defs>
       <path id="DejaVuSans-4e" d="M 628 4666 
L 1478 4666 
L 3547 763 
L 3547 4666 
L 4159 4666 
L 4159 0 
L 3309 0 
L 1241 3903 
L 1241 0 
L 628 0 
L 628 4666 
z
" transform="scale(0.015625)"/>
       <path id="DejaVuSans-72" d="M 2631 2963 
Q 2534 3019 2420 3045 
Q 2306 3072 2169 3072 
Q 1681 3072 1420 2755 
Q 1159 2438 1159 1844 
L 1159 0 
L 581 0 
L 581 3500 
L 1159 3500 
L 1159 2956 
Q 1341 3275 1631 3429 
Q 1922 3584 2338 3584 
Q 2397 3584 2469 3576 
Q 2541 3569 2628 3553 
L 2631 2963 
z
" transform="scale(0.015625)"/>
       <path id="DejaVuSans-6d" d="M 3328 2828 
Q 3544 3216 3844 3400 
Q 4144 3584 4550 3584 
Q 5097 3584 5394 3201 
Q 5691 2819 5691 2113 
L 5691 0 
L 5113 0 
L 5113 2094 
Q 5113 2597 4934 2840 
Q 4756 3084 4391 3084 
Q 3944 3084 3684 2787 
Q 3425 2491 3425 1978 
L 3425 0 
L 2847 0 
L 2847 2094 
Q 2847 2600 2669 2842 
Q 2491 3084 2119 3084 
Q 1678 3084 1418 2786 
Q 1159 2488 1159 1978 
L 1159 0 
L 581 0 
L 581 3500 
L 1159 3500 
L 1159 2956 
Q 1356 3278 1631 3431 
Q 1906 3584 2284 3584 
Q 2666 3584 2933 3390 
Q 3200 3197 3328 2828 
z
" transform="scale(0.015625)"/>
       <path id="DejaVuSans-61" d="M 2194 1759 
Q 1497 1759 1228 1600 
Q 959 1441 959 1056 
Q 959 750 1161 570 
Q 1363 391 1709 391 
Q 2188 391 2477 730 
Q 2766 1069 2766 1631 
L 2766 1759 
L 2194 1759 
z
M 3341 1997 
L 3341 0 
L 2766 0 
L 2766 531 
Q 2569 213 2275 61 
Q 1981 -91 1556 -91 
Q 1019 -91 701 211 
Q 384 513 384 1019 
Q 384 1609 779 1909 
Q 1175 2209 1959 2209 
L 2766 2209 
L 2766 2266 
Q 2766 2663 2505 2880 
Q 2244 3097 1772 3097 
Q 1472 3097 1187 3025 
Q 903 2953 641 2809 
L 641 3341 
Q 956 3463 1253 3523 
Q 1550 3584 1831 3584 
Q 2591 3584 2966 3190 
Q 3341 2797 3341 1997 
z
" transform="scale(0.015625)"/>
       <path id="DejaVuSans-6c" d="M 603 4863 
L 1178 4863 
L 1178 0 
L 603 0 
L 603 4863 
z
" transform="scale(0.015625)"/>
       <path id="DejaVuSans-7a" d="M 353 3500 
L 3084 3500 
L 3084 2975 
L 922 459 
L 3084 459 
L 3084 0 
L 275 0 
L 275 525 
L 2438 3041 
L 353 3041 
L 353 3500 
z
" transform="scale(0.015625)"/>
       <path id="DejaVuSans-50" d="M 1259 4147 
L 1259 2394 
L 2053 2394 
Q 2494 2394 2734 2622 
Q 2975 2850 2975 3272 
Q 2975 3691 2734 3919 
Q 2494 4147 2053 4147 
L 1259 4147 
z
M 628 4666 
L 2053 4666 
Q 2838 4666 3239 4311 
Q 3641 3956 3641 3272 
Q 3641 2581 3239 2228 
Q 2838 1875 2053 1875 
L 1259 1875 
L 1259 0 
L 628 0 
L 628 4666 
z
" transform="scale(0.015625)"/>
       <path id="DejaVuSans-66" d="M 2375 4863 
L 2375 4384 
L 1825 4384 
Q 1516 4384 1395 4259 
Q 1275 4134 1275 3809 
L 1275 3500 
L 2222 3500 
L 2222 3053 
L 1275 3053 
L 1275 0 
L 697 0 
L 697 3053 
L 147 3053 
L 147 3500 
L 697 3500 
L 697 3744 
Q 697 4328 969 4595 
Q 1241 4863 1831 4863 
L 2375 4863 
z
" transform="scale(0.015625)"/>
      </defs>
      <use xlink:href="#DejaVuSans-4e"/>
      <use xlink:href="#DejaVuSans-6f" x="74.804688"/>
      <use xlink:href="#DejaVuSans-72" x="135.986328"/>
      <use xlink:href="#DejaVuSans-6d" x="175.349609"/>
      <use xlink:href="#DejaVuSans-61" x="272.761719"/>
      <use xlink:href="#DejaVuSans-6c" x="334.041016"/>
      <use xlink:href="#DejaVuSans-69" x="361.824219"/>
      <use xlink:href="#DejaVuSans-7a" x="389.607422"/>
      <use xlink:href="#DejaVuSans-65" x="442.097656"/>
      <use xlink:href="#DejaVuSans-64" x="503.621094"/>
      <use xlink:href="#DejaVuSans-20" x="567.097656"/>
      <use xlink:href="#DejaVuSans-50" x="598.884766"/>
      <use xlink:href="#DejaVuSans-65" x="655.5625"/>
      <use xlink:href="#DejaVuSans-72" x="717.085938"/>
      <use xlink:href="#DejaVuSans-66" x="758.199219"/>
      <use xlink:href="#DejaVuSans-6f" x="793.404297"/>
      <use xlink:href="#DejaVuSans-72" x="854.585938"/>
      <use xlink:href="#DejaVuSans-6d" x="893.949219"/>
      <use xlink:href="#DejaVuSans-61" x="991.361328"/>
      <use xlink:href="#DejaVuSans-6e" x="1052.640625"/>
      <use xlink:href="#DejaVuSans-63" x="1116.019531"/>
      <use xlink:href="#DejaVuSans-65" x="1171"/>
     </g>
    </g>
   </g>
   <g id="line2d_33">
    <path d="M 82.302585 281.790145 
L 163.195053 281.790145 
L 210.514113 281.790145 
L 244.087521 281.790145 
L 270.129079 281.790145 
L 291.406581 281.790145 
L 309.396453 281.790145 
L 324.979988 281.790145 
L 338.725641 281.790145 
L 351.021546 281.790145 
L 362.144546 281.790145 
L 372.299049 281.790145 
L 381.640286 281.790145 
L 390.28892 281.790145 
L 398.340607 281.790145 
L 405.872456 281.790145 
L 412.947541 281.790145 
L 419.618109 281.790145 
L 425.927924 281.790145 
L 431.914014 281.790145 
L 437.60798 281.790145 
L 443.037013 281.790145 
L 448.224675 281.790145 
L 453.191516 281.790145 
L 457.955572 281.790145 
L 462.532753 281.790145 
L 466.937169 281.790145 
L 471.181388 281.790145 
L 475.276656 281.790145 
L 479.233074 281.790145 
L 483.05975 281.790145 
L 486.764924 281.790145 
L 490.356074 281.790145 
L 493.840009 281.790145 
L 497.222946 281.790145 
L 500.510576 281.790145 
L 503.708123 281.790145 
L 506.820392 281.790145 
L 509.851814 281.790145 
L 512.806482 281.790145 
L 515.688188 281.790145 
L 518.500448 281.790145 
L 521.246532 281.790145 
L 523.929481 281.790145 
L 526.552134 281.790145 
L 529.117142 281.790145 
L 531.626985 281.790145 
L 534.083984 281.790145 
L 536.49032 281.790145 
L 538.84804 281.790145 
" clip-path="url(#pd7f7468842)" style="fill: none; stroke-dasharray: 11.1,4.8; stroke-dashoffset: 0; stroke: #fdc086; stroke-width: 3"/>
   </g>
   <g id="line2d_34">
    <path d="M 82.302585 187.188853 
L 163.195053 187.188853 
L 210.514113 187.188853 
L 244.087521 187.188853 
L 270.129079 187.188853 
L 291.406581 187.188853 
L 309.396453 187.188853 
L 324.979988 187.188853 
L 338.725641 187.188853 
L 351.021546 187.188853 
L 362.144546 187.188853 
L 372.299049 187.188853 
L 381.640286 187.188853 
L 390.28892 187.188853 
L 398.340607 187.188853 
L 405.872456 187.188853 
L 412.947541 187.188853 
L 419.618109 187.188853 
L 425.927924 187.188853 
L 431.914014 187.188853 
L 437.60798 187.188853 
L 443.037013 187.188853 
L 448.224675 187.188853 
L 453.191516 187.188853 
L 457.955572 187.188853 
L 462.532753 187.188853 
L 466.937169 187.188853 
L 471.181388 187.188853 
L 475.276656 187.188853 
L 479.233074 187.188853 
L 483.05975 187.188853 
L 486.764924 187.188853 
L 490.356074 187.188853 
L 493.840009 187.188853 
L 497.222946 187.188853 
L 500.510576 187.188853 
L 503.708123 187.188853 
L 506.820392 187.188853 
L 509.851814 187.188853 
L 512.806482 187.188853 
L 515.688188 187.188853 
L 518.500448 187.188853 
L 521.246532 187.188853 
L 523.929481 187.188853 
L 526.552134 187.188853 
L 529.117142 187.188853 
L 531.626985 187.188853 
L 534.083984 187.188853 
L 536.49032 187.188853 
L 538.84804 187.188853 
" clip-path="url(#pd7f7468842)" style="fill: none; stroke-dasharray: 11.1,4.8; stroke-dashoffset: 0; stroke: #beaed4; stroke-width: 3"/>
   </g>
   <g id="line2d_35">
    <path d="M 82.302585 276.437772 
L 163.195053 247.594959 
L 210.514113 227.508023 
L 244.087521 211.063883 
L 270.129079 201.823074 
L 291.406581 191.031497 
L 309.396453 187.102569 
L 324.979988 181.21134 
L 338.725641 176.226744 
L 351.021546 170.50171 
L 362.144546 166.031517 
L 372.299049 162.423502 
L 381.640286 157.174895 
L 390.28892 154.216853 
L 398.340607 151.7974 
L 405.872456 148.744727 
L 412.947541 146.405214 
L 419.618109 144.640094 
L 425.927924 143.525141 
L 431.914014 141.834422 
L 437.60798 140.607454 
L 443.037013 139.560783 
L 448.224675 137.567682 
L 453.191516 135.897508 
L 457.955572 133.558068 
L 462.532753 131.503537 
L 466.937169 128.923946 
L 471.181388 128.31857 
L 475.276656 127.58165 
L 479.233074 126.764412 
L 483.05975 125.847783 
L 486.764924 124.141577 
L 490.356074 122.955952 
L 493.840009 120.713013 
L 497.222946 119.501753 
L 500.510576 118.882377 
L 503.708123 117.787725 
L 506.820392 117.120995 
L 509.851814 116.115051 
L 512.806482 115.698831 
L 515.688188 115.234301 
L 518.500448 113.229872 
L 521.246532 111.103292 
L 523.929481 109.374997 
L 526.552134 109.066367 
L 529.117142 109.009121 
L 531.626985 108.465377 
L 534.083984 107.466158 
L 536.49032 106.224893 
L 538.84804 105.828219 
" clip-path="url(#pd7f7468842)" style="fill: none; stroke: #7fc97f; stroke-width: 3; stroke-linecap: square"/>
   </g>
   <g id="line2d_36">
    <path d="M 82.302585 251.095418 
L 163.195053 248.645227 
L 210.514113 248.621932 
L 244.087521 217.175828 
L 270.129079 206.383398 
L 291.406581 199.323075 
L 309.396453 192.32199 
L 324.979988 189.422513 
L 338.725641 184.430973 
L 351.021546 181.19695 
L 362.144546 174.139867 
L 372.299049 169.771397 
L 381.640286 164.101805 
L 390.28892 160.978467 
L 398.340607 157.882159 
L 405.872456 153.532152 
L 412.947541 151.366203 
L 419.618109 146.007768 
L 425.927924 140.803277 
L 431.914014 136.28348 
L 437.60798 131.700905 
L 443.037013 127.291113 
L 448.224675 123.675751 
L 453.191516 118.523493 
L 457.955572 116.072527 
L 462.532753 113.329079 
L 466.937169 111.828683 
L 471.181388 107.886538 
L 475.276656 105.642411 
L 479.233074 103.169287 
L 483.05975 99.947056 
L 486.764924 97.981803 
L 490.356074 95.221711 
L 493.840009 91.612559 
L 497.222946 90.969622 
L 500.510576 89.939584 
L 503.708123 88.516201 
L 506.820392 87.808794 
L 509.851814 87.001795 
L 512.806482 85.099046 
L 515.688188 84.179766 
L 518.500448 82.977064 
L 521.246532 82.34645 
L 523.929481 81.728274 
L 526.552134 80.656705 
L 529.117142 79.122704 
L 531.626985 78.884521 
L 534.083984 78.256097 
L 536.49032 77.269021 
L 538.84804 76.970107 
" clip-path="url(#pd7f7468842)" style="fill: none; stroke: #bf5b17; stroke-width: 3; stroke-linecap: square"/>
   </g>
   <g id="line2d_37">
    <path d="M 82.302585 251.095418 
L 163.195053 239.436442 
L 210.514113 216.870944 
L 244.087521 216.678572 
L 270.129079 216.674698 
L 291.406581 216.668272 
L 309.396453 216.667099 
L 324.979988 207.245986 
L 338.725641 203.564336 
L 351.021546 203.564223 
L 362.144546 199.134903 
L 372.299049 197.435742 
L 381.640286 197.435742 
L 390.28892 197.435397 
L 398.340607 194.989138 
L 405.872456 178.791465 
L 412.947541 178.426199 
L 419.618109 178.426199 
L 425.927924 178.426199 
L 431.914014 178.426199 
L 437.60798 177.913643 
L 443.037013 177.913643 
L 448.224675 177.913643 
L 453.191516 140.778289 
L 457.955572 140.778289 
L 462.532753 140.565298 
L 466.937169 140.500438 
L 471.181388 139.703623 
L 475.276656 139.703623 
L 479.233074 138.659068 
L 483.05975 138.659068 
L 486.764924 138.43309 
L 490.356074 138.43309 
L 493.840009 137.788584 
L 497.222946 137.126268 
L 500.510576 135.985403 
L 503.708123 135.985403 
L 506.820392 135.985403 
L 509.851814 135.985403 
L 512.806482 135.952834 
L 515.688188 135.885281 
L 518.500448 135.838385 
L 521.246532 135.838385 
L 523.929481 135.838385 
L 526.552134 135.838385 
L 529.117142 135.838385 
L 531.626985 135.838385 
L 534.083984 128.068464 
L 536.49032 128.068464 
L 538.84804 128.068464 
" clip-path="url(#pd7f7468842)" style="fill: none; stroke: #f0027f; stroke-width: 3; stroke-linecap: square"/>
   </g>
   <g id="line2d_38">
    <path d="M 82.302585 251.095418 
L 163.195053 239.436442 
L 210.514113 216.870944 
L 244.087521 216.678572 
L 270.129079 216.674698 
L 291.406581 216.668272 
L 309.396453 211.879743 
L 324.979988 203.078353 
L 338.725641 199.403151 
L 351.021546 192.471958 
L 362.144546 187.678747 
L 372.299049 183.879312 
L 381.640286 179.596009 
L 390.28892 174.089873 
L 398.340607 170.779111 
L 405.872456 165.869772 
L 412.947541 163.028072 
L 419.618109 158.524108 
L 425.927924 156.33075 
L 431.914014 154.242711 
L 437.60798 148.770843 
L 443.037013 146.576766 
L 448.224675 145.696623 
L 453.191516 144.287402 
L 457.955572 142.658839 
L 462.532753 140.425638 
L 466.937169 137.512386 
L 471.181388 135.886697 
L 475.276656 133.975444 
L 479.233074 132.73955 
L 483.05975 131.710595 
L 486.764924 129.677923 
L 490.356074 127.74465 
L 493.840009 125.679642 
L 497.222946 124.70193 
L 500.510576 123.356861 
L 503.708123 122.617223 
L 506.820392 121.903143 
L 509.851814 121.461961 
L 512.806482 120.887669 
L 515.688188 119.979652 
L 518.500448 118.336633 
L 521.246532 117.970073 
L 523.929481 116.441575 
L 526.552134 115.291616 
L 529.117142 113.86306 
L 531.626985 112.413356 
L 534.083984 111.688819 
L 536.49032 111.198382 
L 538.84804 110.493914 
" clip-path="url(#pd7f7468842)" style="fill: none; stroke-dasharray: 11.1,4.8; stroke-dashoffset: 0; stroke: #f0027f; stroke-width: 3"/>
   </g>
   <g id="line2d_39">
    <path d="M 82.302585 251.095418 
L 163.195053 248.645227 
L 210.514113 248.621932 
L 244.087521 247.562102 
L 270.129079 235.500719 
L 291.406581 229.568275 
L 309.396453 212.397386 
L 324.979988 202.272068 
L 338.725641 195.975851 
L 351.021546 187.574904 
L 362.144546 178.068969 
L 372.299049 171.613256 
L 381.640286 163.931717 
L 390.28892 161.882684 
L 398.340607 157.48062 
L 405.872456 151.525018 
L 412.947541 148.705957 
L 419.618109 146.288269 
L 425.927924 144.159776 
L 431.914014 142.291621 
L 437.60798 140.274709 
L 443.037013 138.2278 
L 448.224675 135.849937 
L 453.191516 133.76853 
L 457.955572 131.050825 
L 462.532753 130.208409 
L 466.937169 128.383972 
L 471.181388 127.097878 
L 475.276656 125.493591 
L 479.233074 122.578124 
L 483.05975 119.39946 
L 486.764924 118.100148 
L 490.356074 116.96648 
L 493.840009 114.231413 
L 497.222946 112.762918 
L 500.510576 109.961139 
L 503.708123 109.147587 
L 506.820392 108.144335 
L 509.851814 107.423465 
L 512.806482 106.201905 
L 515.688188 105.710731 
L 518.500448 104.350878 
L 521.246532 103.459988 
L 523.929481 102.458853 
L 526.552134 100.098364 
L 529.117142 99.337506 
L 531.626985 99.04887 
L 534.083984 98.940767 
L 536.49032 98.69574 
L 538.84804 97.810648 
" clip-path="url(#pd7f7468842)" style="fill: none; stroke-dasharray: 11.1,4.8; stroke-dashoffset: 0; stroke: #bf5b17; stroke-width: 3"/>
   </g>
   <g id="line2d_40">
    <path d="M 82.302585 251.095418 
L 163.195053 239.436442 
L 210.514113 216.870944 
L 244.087521 216.678572 
L 270.129079 216.674698 
L 291.406581 216.668272 
L 309.396453 216.656148 
L 324.979988 210.633608 
L 338.725641 204.588951 
L 351.021546 201.085196 
L 362.144546 194.960868 
L 372.299049 189.249433 
L 381.640286 186.297573 
L 390.28892 181.359473 
L 398.340607 177.26841 
L 405.872456 171.635949 
L 412.947541 166.531627 
L 419.618109 162.082004 
L 425.927924 156.889512 
L 431.914014 154.051665 
L 437.60798 149.613636 
L 443.037013 144.813205 
L 448.224675 140.767766 
L 453.191516 134.839088 
L 457.955572 131.111622 
L 462.532753 126.592428 
L 466.937169 123.010453 
L 471.181388 117.365842 
L 475.276656 113.742055 
L 479.233074 110.275881 
L 483.05975 107.422433 
L 486.764924 105.211159 
L 490.356074 103.535794 
L 493.840009 101.2689 
L 497.222946 100.303504 
L 500.510576 97.458727 
L 503.708123 95.482511 
L 506.820392 94.048374 
L 509.851814 92.964062 
L 512.806482 92.166896 
L 515.688188 91.127928 
L 518.500448 90.102212 
L 521.246532 89.88365 
L 523.929481 88.645628 
L 526.552134 87.124932 
L 529.117142 86.639736 
L 531.626985 86.128652 
L 534.083984 85.458633 
L 536.49032 84.709613 
L 538.84804 84.41677 
" clip-path="url(#pd7f7468842)" style="fill: none; stroke: #386cb0; stroke-width: 3; stroke-linecap: square"/>
   </g>
   <g id="line2d_41">
    <path d="M 82.302585 122.365612 
L 163.195053 91.958316 
L 210.514113 74.408476 
L 244.087521 65.126531 
L 270.129079 59.147592 
L 291.406581 56.494646 
L 309.396453 54.686914 
L 324.979988 53.340688 
L 338.725641 52.762792 
L 351.021546 52.300165 
L 362.144546 51.949297 
L 372.299049 51.709244 
L 381.640286 51.475786 
L 390.28892 51.326592 
L 398.340607 51.201437 
L 405.872456 51.097065 
L 412.947541 50.995688 
L 419.618109 50.89925 
L 425.927924 50.826847 
L 431.914014 50.786039 
L 437.60798 50.752629 
L 443.037013 50.73455 
L 448.224675 50.716682 
L 453.191516 50.699699 
L 457.955572 50.687648 
L 462.532753 50.676563 
L 466.937169 50.667196 
L 471.181388 50.657894 
L 475.276656 50.648754 
L 479.233074 50.640761 
L 483.05975 50.632801 
L 486.764924 50.624928 
L 490.356074 50.618689 
L 493.840009 50.613829 
L 497.222946 50.609972 
L 500.510576 50.606609 
L 503.708123 50.603366 
L 506.820392 50.600177 
L 509.851814 50.598284 
L 512.806482 50.597 
L 515.688188 50.596 
L 518.500448 50.595058 
L 521.246532 50.594118 
L 523.929481 50.593471 
L 526.552134 50.593018 
L 529.117142 50.59265 
L 531.626985 50.592345 
L 534.083984 50.592059 
L 536.49032 50.591792 
L 538.84804 50.591528 
" clip-path="url(#pd7f7468842)" style="fill: none; stroke-dasharray: 11.1,4.8; stroke-dashoffset: 0; stroke: #666666; stroke-width: 3"/>
   </g>
   <g id="patch_3">
    <path d="M 59.475313 345.471251 
L 59.475313 12.831251 
" style="fill: none; stroke: #000000; stroke-width: 0.8; stroke-linejoin: miter; stroke-linecap: square"/>
   </g>
   <g id="patch_4">
    <path d="M 561.675313 345.471251 
L 561.675313 12.831251 
" style="fill: none; stroke: #000000; stroke-width: 0.8; stroke-linejoin: miter; stroke-linecap: square"/>
   </g>
   <g id="patch_5">
    <path d="M 59.475313 345.471251 
L 561.675313 345.471251 
" style="fill: none; stroke: #000000; stroke-width: 0.8; stroke-linejoin: miter; stroke-linecap: square"/>
   </g>
   <g id="patch_6">
    <path d="M 59.475313 12.831251 
L 561.675313 12.831251 
" style="fill: none; stroke: #000000; stroke-width: 0.8; stroke-linejoin: miter; stroke-linecap: square"/>
   </g>
  </g>
 </g>
 <defs>
  <clipPath id="pd7f7468842">
   <rect x="59.475313" y="12.831251" width="502.2" height="332.64"/>
  </clipPath>
 </defs>
</svg>
