<?xml version="1.0" encoding="utf-8" standalone="no"?>
<!DOCTYPE svg PUBLIC "-//W3C//DTD SVG 1.1//EN"
  "http://www.w3.org/Graphics/SVG/1.1/DTD/svg11.dtd">
<svg xmlns:xlink="http://www.w3.org/1999/xlink" width="741.04625pt" height="564.273808pt" viewBox="0 0 741.04625 564.273808" xmlns="http://www.w3.org/2000/svg" version="1.1">
 <metadata>
  <rdf:RDF xmlns:dc="http://purl.org/dc/elements/1.1/" xmlns:cc="http://creativecommons.org/ns#" xmlns:rdf="http://www.w3.org/1999/02/22-rdf-syntax-ns#">
   <cc:Work>
    <dc:type rdf:resource="http://purl.org/dc/dcmitype/StillImage"/>
    <dc:date>2025-02-26T21:52:36.229496</dc:date>
    <dc:format>image/svg+xml</dc:format>
    <dc:creator>
     <cc:Agent>
      <dc:title>Matplotlib v3.9.4, https://matplotlib.org/</dc:title>
     </cc:Agent>
    </dc:creator>
   </cc:Work>
  </rdf:RDF>
 </metadata>
 <defs>
  <style type="text/css">*{stroke-linejoin: round; stroke-linecap: butt}</style>
 </defs>
 <g id="figure_1">
  <g id="patch_1">
   <path d="M 0 564.273808 
L 741.04625 564.273808 
L 741.04625 0 
L 0 0 
z
" style="fill: #ffffff"/>
  </g>
  <g id="axes_1">
   <g id="patch_2">
    <path d="M 64.24625 511.232558 
L 733.84625 511.232558 
L 733.84625 12.272558 
L 64.24625 12.272558 
z
" style="fill: #ffffff"/>
   </g>
   <g id="PolyCollection_1">
    <defs>
     <path id="m3915714986" d="M 94.682614 -442.833564 
L 94.682614 -432.667253 
L 202.539237 -432.667253 
L 265.631318 -432.667253 
L 310.395861 -432.667253 
L 345.117938 -432.667253 
L 373.487941 -432.667253 
L 397.474437 -432.667253 
L 418.252484 -432.667253 
L 436.580021 -432.667253 
L 452.974562 -432.667253 
L 467.805228 -432.667253 
L 481.344565 -432.667253 
L 493.799547 -432.667253 
L 505.33106 -432.667253 
L 516.066642 -432.667253 
L 526.109108 -432.667253 
L 535.542555 -432.667253 
L 544.436645 -432.667253 
L 552.849733 -432.667253 
L 560.831185 -432.667253 
L 568.423141 -432.667253 
L 575.661851 -432.667253 
L 582.578733 -432.667253 
L 589.201188 -432.667253 
L 595.553263 -432.667253 
L 601.656171 -432.667253 
L 607.528725 -432.667253 
L 613.187684 -432.667253 
L 618.648041 -432.667253 
L 623.923266 -432.667253 
L 629.0255 -432.667253 
L 633.965732 -432.667253 
L 638.753931 -432.667253 
L 643.399178 -432.667253 
L 647.909761 -432.667253 
L 652.293269 -432.667253 
L 656.556664 -432.667253 
L 660.706356 -432.667253 
L 664.748251 -432.667253 
L 668.687809 -432.667253 
L 672.530084 -432.667253 
L 676.279764 -432.667253 
L 679.941209 -432.667253 
L 683.518475 -432.667253 
L 687.015346 -432.667253 
L 690.435356 -432.667253 
L 693.781813 -432.667253 
L 697.057812 -432.667253 
L 700.26626 -432.667253 
L 703.409886 -432.667253 
L 703.409886 -442.833564 
L 703.409886 -442.833564 
L 700.26626 -442.833564 
L 697.057812 -442.833564 
L 693.781813 -442.833564 
L 690.435356 -442.833564 
L 687.015346 -442.833564 
L 683.518475 -442.833564 
L 679.941209 -442.833564 
L 676.279764 -442.833564 
L 672.530084 -442.833564 
L 668.687809 -442.833564 
L 664.748251 -442.833564 
L 660.706356 -442.833564 
L 656.556664 -442.833564 
L 652.293269 -442.833564 
L 647.909761 -442.833564 
L 643.399178 -442.833564 
L 638.753931 -442.833564 
L 633.965732 -442.833564 
L 629.0255 -442.833564 
L 623.923266 -442.833564 
L 618.648041 -442.833564 
L 613.187684 -442.833564 
L 607.528725 -442.833564 
L 601.656171 -442.833564 
L 595.553263 -442.833564 
L 589.201188 -442.833564 
L 582.578733 -442.833564 
L 575.661851 -442.833564 
L 568.423141 -442.833564 
L 560.831185 -442.833564 
L 552.849733 -442.833564 
L 544.436645 -442.833564 
L 535.542555 -442.833564 
L 526.109108 -442.833564 
L 516.066642 -442.833564 
L 505.33106 -442.833564 
L 493.799547 -442.833564 
L 481.344565 -442.833564 
L 467.805228 -442.833564 
L 452.974562 -442.833564 
L 436.580021 -442.833564 
L 418.252484 -442.833564 
L 397.474437 -442.833564 
L 373.487941 -442.833564 
L 345.117938 -442.833564 
L 310.395861 -442.833564 
L 265.631318 -442.833564 
L 202.539237 -442.833564 
L 94.682614 -442.833564 
z
" style="stroke: #fdc086; stroke-opacity: 0.1"/>
    </defs>
    <g clip-path="url(#p90a7d09f78)">
     <use xlink:href="#m3915714986" x="0" y="564.273808" style="fill: #fdc086; fill-opacity: 0.1; stroke: #fdc086; stroke-opacity: 0.1"/>
    </g>
   </g>
   <g id="PolyCollection_2">
    <defs>
     <path id="m40b4455542" d="M 94.682614 -318.571938 
L 94.682614 -162.492528 
L 202.539237 -162.727483 
L 265.631318 -290.752281 
L 310.395861 -290.752281 
L 345.117938 -290.752281 
L 373.487941 -290.752281 
L 397.474437 -298.213303 
L 418.252484 -298.213303 
L 436.580021 -298.213303 
L 452.974562 -298.213303 
L 467.805228 -298.213303 
L 481.344565 -298.213303 
L 493.799547 -298.213303 
L 505.33106 -298.213303 
L 516.066642 -298.213303 
L 526.109108 -298.213303 
L 535.542555 -298.213303 
L 544.436645 -298.213303 
L 552.849733 -298.213303 
L 560.831185 -298.213303 
L 568.423141 -298.213303 
L 575.661851 -298.213303 
L 582.578733 -298.213303 
L 589.201188 -298.213303 
L 595.553263 -298.213303 
L 601.656171 -298.213303 
L 607.528725 -298.213303 
L 613.187684 -298.213303 
L 618.648041 -298.213303 
L 623.923266 -298.213303 
L 629.0255 -298.213303 
L 633.965732 -298.213303 
L 638.753931 -298.213303 
L 643.399178 -298.213303 
L 647.909761 -298.213303 
L 652.293269 -298.213303 
L 656.556664 -298.213303 
L 660.706356 -298.213303 
L 664.748251 -298.213303 
L 668.687809 -298.213303 
L 672.530084 -298.213303 
L 676.279764 -298.213303 
L 679.941209 -298.213303 
L 683.518475 -298.213303 
L 687.015346 -298.213303 
L 690.435356 -298.213303 
L 693.781813 -298.213303 
L 697.057812 -298.213303 
L 700.26626 -298.213303 
L 703.409886 -298.213303 
L 703.409886 -340.705774 
L 703.409886 -340.705774 
L 700.26626 -340.705774 
L 697.057812 -340.705774 
L 693.781813 -340.705774 
L 690.435356 -340.705774 
L 687.015346 -340.705774 
L 683.518475 -340.705774 
L 679.941209 -340.705774 
L 676.279764 -340.705774 
L 672.530084 -340.705774 
L 668.687809 -340.705774 
L 664.748251 -340.705774 
L 660.706356 -340.705774 
L 656.556664 -340.705774 
L 652.293269 -340.705774 
L 647.909761 -340.705774 
L 643.399178 -340.705774 
L 638.753931 -340.705774 
L 633.965732 -340.705774 
L 629.0255 -340.705774 
L 623.923266 -340.705774 
L 618.648041 -340.705774 
L 613.187684 -340.705774 
L 607.528725 -340.705774 
L 601.656171 -340.705774 
L 595.553263 -340.705774 
L 589.201188 -340.705774 
L 582.578733 -340.705774 
L 575.661851 -340.705774 
L 568.423141 -340.705774 
L 560.831185 -340.705774 
L 552.849733 -340.705774 
L 544.436645 -340.705774 
L 535.542555 -340.705774 
L 526.109108 -340.705774 
L 516.066642 -340.705774 
L 505.33106 -340.705774 
L 493.799547 -340.705774 
L 481.344565 -340.705774 
L 467.805228 -340.705774 
L 452.974562 -340.705774 
L 436.580021 -340.705774 
L 418.252484 -340.705774 
L 397.474437 -340.705774 
L 373.487941 -303.916068 
L 345.117938 -303.916068 
L 310.395861 -303.916068 
L 265.631318 -303.916068 
L 202.539237 -320.648889 
L 94.682614 -318.571938 
z
" style="stroke: #beaed4; stroke-opacity: 0.1"/>
    </defs>
    <g clip-path="url(#p90a7d09f78)">
     <use xlink:href="#m40b4455542" x="0" y="564.273808" style="fill: #beaed4; fill-opacity: 0.1; stroke: #beaed4; stroke-opacity: 0.1"/>
    </g>
   </g>
   <g id="PolyCollection_3">
    <defs>
     <path id="m7085ceb7e8" d="M 94.682614 -307.254113 
L 94.682614 -75.72125 
L 202.539237 -191.997556 
L 265.631318 -278.397289 
L 310.395861 -323.303805 
L 345.117938 -351.563195 
L 373.487941 -366.530059 
L 397.474437 -387.133836 
L 418.252484 -396.210526 
L 436.580021 -408.722604 
L 452.974562 -417.791703 
L 467.805228 -426.531874 
L 481.344565 -434.827016 
L 493.799547 -440.880897 
L 505.33106 -444.172356 
L 516.066642 -449.329223 
L 526.109108 -453.067151 
L 535.542555 -456.695634 
L 544.436645 -461.148639 
L 552.849733 -464.172647 
L 560.831185 -466.72534 
L 568.423141 -469.47553 
L 575.661851 -471.668255 
L 582.578733 -473.389776 
L 589.201188 -476.020989 
L 595.553263 -477.240286 
L 601.656171 -478.840853 
L 607.528725 -480.242856 
L 613.187684 -481.457408 
L 618.648041 -482.781243 
L 623.923266 -483.701053 
L 629.0255 -484.971457 
L 633.965732 -486.146745 
L 638.753931 -487.313398 
L 643.399178 -488.791203 
L 647.909761 -489.474411 
L 652.293269 -489.925278 
L 656.556664 -490.847123 
L 660.706356 -491.452283 
L 664.748251 -492.392235 
L 668.687809 -493.358733 
L 672.530084 -493.934386 
L 676.279764 -494.626041 
L 679.941209 -495.081885 
L 683.518475 -496.6449 
L 687.015346 -497.149919 
L 690.435356 -497.931723 
L 693.781813 -498.678272 
L 697.057812 -499.255203 
L 700.26626 -499.836665 
L 703.409886 -500.560597 
L 703.409886 -516.663697 
L 703.409886 -516.663697 
L 700.26626 -516.373098 
L 697.057812 -516.183975 
L 693.781813 -515.919254 
L 690.435356 -515.344919 
L 687.015346 -514.939792 
L 683.518475 -514.567736 
L 679.941209 -514.081769 
L 676.279764 -513.574165 
L 672.530084 -512.933648 
L 668.687809 -512.378606 
L 664.748251 -511.793414 
L 660.706356 -511.415088 
L 656.556664 -511.049498 
L 652.293269 -510.650679 
L 647.909761 -510.133729 
L 643.399178 -509.780228 
L 638.753931 -508.940582 
L 633.965732 -508.389017 
L 629.0255 -507.513212 
L 623.923266 -507.162059 
L 618.648041 -506.404212 
L 613.187684 -505.542558 
L 607.528725 -504.363195 
L 601.656171 -503.574766 
L 595.553263 -502.861989 
L 589.201188 -501.776621 
L 582.578733 -500.861752 
L 575.661851 -499.509302 
L 568.423141 -498.970552 
L 560.831185 -497.901415 
L 552.849733 -495.956229 
L 544.436645 -493.975277 
L 535.542555 -491.804509 
L 526.109108 -489.962731 
L 516.066642 -488.827574 
L 505.33106 -486.160982 
L 493.799547 -483.871012 
L 481.344565 -479.721133 
L 467.805228 -477.976786 
L 452.974562 -473.594474 
L 436.580021 -470.481286 
L 418.252484 -467.748608 
L 397.474437 -459.901186 
L 373.487941 -452.793005 
L 345.117938 -444.983606 
L 310.395861 -433.797352 
L 265.631318 -414.062716 
L 202.539237 -384.549496 
L 94.682614 -307.254113 
z
" style="stroke: #7fc97f; stroke-opacity: 0.1"/>
    </defs>
    <g clip-path="url(#p90a7d09f78)">
     <use xlink:href="#m7085ceb7e8" x="0" y="564.273808" style="fill: #7fc97f; fill-opacity: 0.1; stroke: #7fc97f; stroke-opacity: 0.1"/>
    </g>
   </g>
   <g id="PolyCollection_4">
    <defs>
     <path id="m6f18065459" d="M 94.682614 -355.452809 
L 94.682614 -306.83003 
L 202.539237 -333.215204 
L 265.631318 -350.395854 
L 310.395861 -368.285469 
L 345.117938 -391.340166 
L 373.487941 -403.841424 
L 397.474437 -414.977704 
L 418.252484 -422.224268 
L 436.580021 -428.60851 
L 452.974562 -435.112192 
L 467.805228 -439.212117 
L 481.344565 -443.602591 
L 493.799547 -447.804945 
L 505.33106 -451.05918 
L 516.066642 -453.643503 
L 526.109108 -456.387804 
L 535.542555 -459.329545 
L 544.436645 -460.863385 
L 552.849733 -463.750747 
L 560.831185 -465.33261 
L 568.423141 -468.407872 
L 575.661851 -470.743592 
L 582.578733 -472.292783 
L 589.201188 -474.604114 
L 595.553263 -475.911441 
L 601.656171 -477.842019 
L 607.528725 -478.806555 
L 613.187684 -480.087773 
L 618.648041 -481.674165 
L 623.923266 -482.272561 
L 629.0255 -483.548678 
L 633.965732 -484.813499 
L 638.753931 -485.354265 
L 643.399178 -486.372658 
L 647.909761 -486.910315 
L 652.293269 -488.127797 
L 656.556664 -489.104059 
L 660.706356 -489.533466 
L 664.748251 -490.271516 
L 668.687809 -491.579163 
L 672.530084 -492.258523 
L 676.279764 -492.894381 
L 679.941209 -493.577484 
L 683.518475 -494.170692 
L 687.015346 -494.966178 
L 690.435356 -495.329535 
L 693.781813 -496.184312 
L 697.057812 -496.910427 
L 700.26626 -497.414757 
L 703.409886 -497.847144 
L 703.409886 -518.097218 
L 703.409886 -518.097218 
L 700.26626 -517.763576 
L 697.057812 -517.160251 
L 693.781813 -516.858389 
L 690.435356 -516.571967 
L 687.015346 -516.313192 
L 683.518475 -515.943362 
L 679.941209 -515.645895 
L 676.279764 -515.526948 
L 672.530084 -515.176741 
L 668.687809 -514.850796 
L 664.748251 -514.641434 
L 660.706356 -514.251699 
L 656.556664 -513.804147 
L 652.293269 -513.142509 
L 647.909761 -512.663496 
L 643.399178 -512.069693 
L 638.753931 -511.704747 
L 633.965732 -510.969927 
L 629.0255 -510.645768 
L 623.923266 -510.006752 
L 618.648041 -509.401251 
L 613.187684 -508.702934 
L 607.528725 -507.660485 
L 601.656171 -506.486711 
L 595.553263 -505.710788 
L 589.201188 -504.254598 
L 582.578733 -502.56052 
L 575.661851 -501.730831 
L 568.423141 -500.578268 
L 560.831185 -499.77057 
L 552.849733 -498.804124 
L 544.436645 -496.607376 
L 535.542555 -495.011976 
L 526.109108 -493.41226 
L 516.066642 -490.845221 
L 505.33106 -489.30578 
L 493.799547 -487.591072 
L 481.344565 -485.400687 
L 467.805228 -483.3141 
L 452.974562 -479.910874 
L 436.580021 -476.69628 
L 418.252484 -472.811826 
L 397.474437 -467.004102 
L 373.487941 -461.843012 
L 345.117938 -455.726862 
L 310.395861 -445.663535 
L 265.631318 -435.469329 
L 202.539237 -399.082499 
L 94.682614 -355.452809 
z
" style="stroke: #bf5b17; stroke-opacity: 0.1"/>
    </defs>
    <g clip-path="url(#p90a7d09f78)">
     <use xlink:href="#m6f18065459" x="0" y="564.273808" style="fill: #bf5b17; fill-opacity: 0.1; stroke: #bf5b17; stroke-opacity: 0.1"/>
    </g>
   </g>
   <g id="PolyCollection_5">
    <defs>
     <path id="m611741f3f8" d="M 94.682614 -355.452809 
L 94.682614 -306.83003 
L 202.539237 -334.392449 
L 265.631318 -342.267671 
L 310.395861 -365.220888 
L 345.117938 -391.813297 
L 373.487941 -436.87183 
L 397.474437 -440.791866 
L 418.252484 -449.33916 
L 436.580021 -455.938855 
L 452.974562 -457.262015 
L 467.805228 -464.120847 
L 481.344565 -471.987608 
L 493.799547 -472.131956 
L 505.33106 -473.765262 
L 516.066642 -474.046464 
L 526.109108 -475.435979 
L 535.542555 -479.264505 
L 544.436645 -479.342498 
L 552.849733 -483.967624 
L 560.831185 -483.99867 
L 568.423141 -484.003013 
L 575.661851 -486.943391 
L 582.578733 -487.030545 
L 589.201188 -487.866987 
L 595.553263 -489.561235 
L 601.656171 -489.924882 
L 607.528725 -490.822064 
L 613.187684 -494.067973 
L 618.648041 -494.152176 
L 623.923266 -494.349454 
L 629.0255 -494.495902 
L 633.965732 -495.233236 
L 638.753931 -495.689084 
L 643.399178 -495.865498 
L 647.909761 -496.30116 
L 652.293269 -496.352268 
L 656.556664 -496.61449 
L 660.706356 -496.753963 
L 664.748251 -497.043348 
L 668.687809 -497.178497 
L 672.530084 -497.20182 
L 676.279764 -498.403078 
L 679.941209 -498.425894 
L 683.518475 -498.463548 
L 687.015346 -498.638584 
L 690.435356 -499.54343 
L 693.781813 -499.577816 
L 697.057812 -499.850999 
L 700.26626 -500.506748 
L 703.409886 -500.606897 
L 703.409886 -516.606676 
L 703.409886 -516.606676 
L 700.26626 -516.522799 
L 697.057812 -516.013174 
L 693.781813 -515.910676 
L 690.435356 -515.861496 
L 687.015346 -515.415929 
L 683.518475 -515.230018 
L 679.941209 -515.190367 
L 676.279764 -515.16829 
L 672.530084 -514.714167 
L 668.687809 -514.706128 
L 664.748251 -514.623226 
L 660.706356 -514.39293 
L 656.556664 -514.31011 
L 652.293269 -514.071008 
L 647.909761 -514.027851 
L 643.399178 -513.78824 
L 638.753931 -513.582233 
L 633.965732 -513.354364 
L 629.0255 -512.678576 
L 623.923266 -512.632115 
L 618.648041 -512.453975 
L 613.187684 -512.412014 
L 607.528725 -510.395297 
L 601.656171 -509.895357 
L 595.553263 -509.591832 
L 589.201188 -508.214597 
L 582.578733 -507.495241 
L 575.661851 -507.432193 
L 568.423141 -506.459497 
L 560.831185 -506.457295 
L 552.849733 -506.446995 
L 544.436645 -504.472796 
L 535.542555 -504.474753 
L 526.109108 -502.76933 
L 516.066642 -501.928303 
L 505.33106 -501.547549 
L 493.799547 -500.834902 
L 481.344565 -500.744439 
L 467.805228 -485.673805 
L 452.974562 -478.40047 
L 436.580021 -476.958621 
L 418.252484 -473.905126 
L 397.474437 -466.062032 
L 373.487941 -464.913474 
L 345.117938 -429.83772 
L 310.395861 -404.075891 
L 265.631318 -388.006305 
L 202.539237 -383.310596 
L 94.682614 -355.452809 
z
" style="stroke: #f0027f; stroke-opacity: 0.1"/>
    </defs>
    <g clip-path="url(#p90a7d09f78)">
     <use xlink:href="#m611741f3f8" x="0" y="564.273808" style="fill: #f0027f; fill-opacity: 0.1; stroke: #f0027f; stroke-opacity: 0.1"/>
    </g>
   </g>
   <g id="PolyCollection_6">
    <defs>
     <path id="md7e4ad6799" d="M 94.682614 -355.452809 
L 94.682614 -306.83003 
L 202.539237 -334.392449 
L 265.631318 -342.267671 
L 310.395861 -365.220888 
L 345.117938 -391.813297 
L 373.487941 -436.87183 
L 397.474437 -441.796288 
L 418.252484 -448.845691 
L 436.580021 -454.172671 
L 452.974562 -457.574322 
L 467.805228 -461.476979 
L 481.344565 -467.084726 
L 493.799547 -470.065823 
L 505.33106 -473.649753 
L 516.066642 -474.829483 
L 526.109108 -477.649284 
L 535.542555 -479.552403 
L 544.436645 -480.852914 
L 552.849733 -482.542146 
L 560.831185 -484.163505 
L 568.423141 -484.710213 
L 575.661851 -485.915956 
L 582.578733 -486.834852 
L 589.201188 -488.297957 
L 595.553263 -489.413421 
L 601.656171 -490.152816 
L 607.528725 -490.904088 
L 613.187684 -491.802501 
L 618.648041 -492.280214 
L 623.923266 -492.929923 
L 629.0255 -493.776334 
L 633.965732 -494.486528 
L 638.753931 -494.867081 
L 643.399178 -495.999508 
L 647.909761 -496.807296 
L 652.293269 -497.161723 
L 656.556664 -497.500057 
L 660.706356 -497.976806 
L 664.748251 -498.591411 
L 668.687809 -499.088397 
L 672.530084 -499.613467 
L 676.279764 -500.024567 
L 679.941209 -500.541856 
L 683.518475 -500.931799 
L 687.015346 -501.412336 
L 690.435356 -501.819025 
L 693.781813 -502.526011 
L 697.057812 -502.815676 
L 700.26626 -503.326629 
L 703.409886 -503.652491 
L 703.409886 -521.614005 
L 703.409886 -521.614005 
L 700.26626 -521.350366 
L 697.057812 -521.004422 
L 693.781813 -520.877303 
L 690.435356 -520.681885 
L 687.015346 -520.507253 
L 683.518475 -520.281608 
L 679.941209 -519.875882 
L 676.279764 -519.555916 
L 672.530084 -519.219321 
L 668.687809 -518.948804 
L 664.748251 -518.610897 
L 660.706356 -518.356564 
L 656.556664 -517.952614 
L 652.293269 -517.379474 
L 647.909761 -517.064293 
L 643.399178 -516.177799 
L 638.753931 -515.70046 
L 633.965732 -515.268212 
L 629.0255 -514.71977 
L 623.923266 -513.999126 
L 618.648041 -513.32873 
L 613.187684 -512.422173 
L 607.528725 -511.506785 
L 601.656171 -511.109824 
L 595.553263 -510.162076 
L 589.201188 -509.372483 
L 582.578733 -507.943155 
L 575.661851 -507.035889 
L 568.423141 -505.93889 
L 560.831185 -505.247493 
L 552.849733 -504.710878 
L 544.436645 -503.71536 
L 535.542555 -502.628651 
L 526.109108 -501.243432 
L 516.066642 -500.116806 
L 505.33106 -498.747802 
L 493.799547 -496.809087 
L 481.344565 -495.891512 
L 467.805228 -485.598849 
L 452.974562 -480.324697 
L 436.580021 -477.162119 
L 418.252484 -473.325209 
L 397.474437 -467.044304 
L 373.487941 -464.913474 
L 345.117938 -429.83772 
L 310.395861 -404.075891 
L 265.631318 -388.006305 
L 202.539237 -383.310596 
L 94.682614 -355.452809 
z
" style="stroke: #386cb0; stroke-opacity: 0.1"/>
    </defs>
    <g clip-path="url(#p90a7d09f78)">
     <use xlink:href="#md7e4ad6799" x="0" y="564.273808" style="fill: #386cb0; fill-opacity: 0.1; stroke: #386cb0; stroke-opacity: 0.1"/>
    </g>
   </g>
   <g id="PolyCollection_7">
    <defs>
     <path id="m51e40ae4bc" d="M 94.682614 -355.452809 
L 94.682614 -306.83003 
L 202.539237 -334.392449 
L 265.631318 -342.267671 
L 310.395861 -365.220888 
L 345.117938 -391.813297 
L 373.487941 -436.87183 
L 397.474437 -441.796288 
L 418.252484 -448.845691 
L 436.580021 -454.194649 
L 452.974562 -457.572083 
L 467.805228 -461.484098 
L 481.344565 -467.489071 
L 493.799547 -468.610583 
L 505.33106 -471.751877 
L 516.066642 -472.436433 
L 526.109108 -474.534155 
L 535.542555 -477.124259 
L 544.436645 -478.338468 
L 552.849733 -481.160834 
L 560.831185 -482.406573 
L 568.423141 -483.106224 
L 575.661851 -485.347699 
L 582.578733 -486.017647 
L 589.201188 -487.095157 
L 595.553263 -487.843638 
L 601.656171 -489.226237 
L 607.528725 -490.161313 
L 613.187684 -491.383226 
L 618.648041 -491.947337 
L 623.923266 -492.401547 
L 629.0255 -493.329678 
L 633.965732 -493.746334 
L 638.753931 -494.588347 
L 643.399178 -495.211005 
L 647.909761 -495.659027 
L 652.293269 -496.24565 
L 656.556664 -496.751795 
L 660.706356 -497.091542 
L 664.748251 -497.60661 
L 668.687809 -497.918298 
L 672.530084 -498.362108 
L 676.279764 -498.766713 
L 679.941209 -499.012508 
L 683.518475 -499.363234 
L 687.015346 -499.749787 
L 690.435356 -499.915884 
L 693.781813 -500.584437 
L 697.057812 -500.87419 
L 700.26626 -501.080909 
L 703.409886 -501.390778 
L 703.409886 -519.5074 
L 703.409886 -519.5074 
L 700.26626 -519.256571 
L 697.057812 -518.869539 
L 693.781813 -518.695661 
L 690.435356 -518.544264 
L 687.015346 -518.269057 
L 683.518475 -517.945832 
L 679.941209 -517.758181 
L 676.279764 -517.392622 
L 672.530084 -517.243927 
L 668.687809 -517.065072 
L 664.748251 -516.661987 
L 660.706356 -516.336593 
L 656.556664 -516.017744 
L 652.293269 -515.677722 
L 647.909761 -515.339153 
L 643.399178 -514.725035 
L 638.753931 -514.471986 
L 633.965732 -513.319677 
L 629.0255 -512.82894 
L 623.923266 -512.452747 
L 618.648041 -512.227391 
L 613.187684 -511.404672 
L 607.528725 -510.805039 
L 601.656171 -510.486266 
L 595.553263 -509.675226 
L 589.201188 -509.040101 
L 582.578733 -507.830628 
L 575.661851 -507.373486 
L 568.423141 -506.715837 
L 560.831185 -506.234411 
L 552.849733 -505.142616 
L 544.436645 -503.934312 
L 535.542555 -502.935853 
L 526.109108 -501.14056 
L 516.066642 -500.249529 
L 505.33106 -499.1931 
L 493.799547 -497.055084 
L 481.344565 -496.517133 
L 467.805228 -485.531063 
L 452.974562 -480.335776 
L 436.580021 -477.055287 
L 418.252484 -473.325209 
L 397.474437 -467.044304 
L 373.487941 -464.913474 
L 345.117938 -429.83772 
L 310.395861 -404.075891 
L 265.631318 -388.006305 
L 202.539237 -383.310596 
L 94.682614 -355.452809 
z
" style="stroke: #ffff99; stroke-opacity: 0.1"/>
    </defs>
    <g clip-path="url(#p90a7d09f78)">
     <use xlink:href="#m51e40ae4bc" x="0" y="564.273808" style="fill: #ffff99; fill-opacity: 0.1; stroke: #ffff99; stroke-opacity: 0.1"/>
    </g>
   </g>
   <g id="PolyCollection_8">
    <defs>
     <path id="m8b7529c2d9" d="M 94.682614 -429.923843 
L 94.682614 -359.032046 
L 202.539237 -432.008958 
L 265.631318 -454.600741 
L 310.395861 -468.574457 
L 345.117938 -476.219464 
L 373.487941 -479.602942 
L 397.474437 -485.434974 
L 418.252484 -493.193666 
L 436.580021 -495.510445 
L 452.974562 -497.622185 
L 467.805228 -498.378832 
L 481.344565 -501.470093 
L 493.799547 -502.763431 
L 505.33106 -503.621834 
L 516.066642 -504.567637 
L 526.109108 -506.016421 
L 535.542555 -507.710584 
L 544.436645 -508.555598 
L 552.849733 -508.635579 
L 560.831185 -512.632549 
L 568.423141 -513.141834 
L 575.661851 -514.096931 
L 582.578733 -514.629015 
L 589.201188 -515.542424 
L 595.553263 -516.605135 
L 601.656171 -516.982815 
L 607.528725 -517.524167 
L 613.187684 -517.922757 
L 618.648041 -518.099032 
L 623.923266 -518.408161 
L 629.0255 -518.792515 
L 633.965732 -519.176384 
L 638.753931 -519.271073 
L 643.399178 -519.653743 
L 647.909761 -520.362769 
L 652.293269 -520.480061 
L 656.556664 -520.556748 
L 660.706356 -520.971708 
L 664.748251 -521.069521 
L 668.687809 -521.24753 
L 672.530084 -521.323664 
L 676.279764 -521.375537 
L 679.941209 -522.766439 
L 683.518475 -522.833303 
L 687.015346 -523.035065 
L 690.435356 -523.212837 
L 693.781813 -523.272205 
L 697.057812 -523.442403 
L 700.26626 -523.544654 
L 703.409886 -523.561094 
L 703.409886 -529.32125 
L 703.409886 -529.32125 
L 700.26626 -529.300999 
L 697.057812 -529.174112 
L 693.781813 -529.02171 
L 690.435356 -528.937071 
L 687.015346 -528.775721 
L 683.518475 -528.750872 
L 679.941209 -528.709144 
L 676.279764 -527.818688 
L 672.530084 -527.750259 
L 668.687809 -527.702735 
L 664.748251 -527.598443 
L 660.706356 -527.513754 
L 656.556664 -527.16913 
L 652.293269 -527.072836 
L 647.909761 -527.007017 
L 643.399178 -526.186588 
L 638.753931 -525.820987 
L 633.965732 -525.760841 
L 629.0255 -525.487308 
L 623.923266 -524.921795 
L 618.648041 -524.604015 
L 613.187684 -524.423556 
L 607.528725 -524.170552 
L 601.656171 -523.668497 
L 595.553263 -523.453237 
L 589.201188 -522.372976 
L 582.578733 -522.378435 
L 575.661851 -521.787481 
L 568.423141 -521.487641 
L 560.831185 -521.112776 
L 552.849733 -520.932184 
L 544.436645 -520.864692 
L 535.542555 -520.078489 
L 526.109108 -518.694133 
L 516.066642 -517.697319 
L 505.33106 -516.764724 
L 493.799547 -515.591156 
L 481.344565 -515.241836 
L 467.805228 -512.414672 
L 452.974562 -511.666999 
L 436.580021 -510.895089 
L 418.252484 -509.968567 
L 397.474437 -507.19762 
L 373.487941 -503.327233 
L 345.117938 -501.097273 
L 310.395861 -493.516217 
L 265.631318 -476.373582 
L 202.539237 -459.401548 
L 94.682614 -429.923843 
z
" style="stroke: #666666; stroke-opacity: 0.1"/>
    </defs>
    <g clip-path="url(#p90a7d09f78)">
     <use xlink:href="#m8b7529c2d9" x="0" y="564.273808" style="fill: #666666; fill-opacity: 0.1; stroke: #666666; stroke-opacity: 0.1"/>
    </g>
   </g>
   <g id="matplotlib.axis_1">
    <g id="xtick_1">
     <g id="line2d_1">
      <path d="M 94.682614 511.232558 
L 94.682614 12.272558 
" clip-path="url(#p90a7d09f78)" style="fill: none; stroke-dasharray: 1.85,0.8; stroke-dashoffset: 0; stroke: #b0b0b0; stroke-width: 0.5"/>
     </g>
     <g id="line2d_2">
      <defs>
       <path id="ma8f0b2796b" d="M 0 0 
L 0 3.5 
" style="stroke: #000000; stroke-width: 0.8"/>
      </defs>
      <g>
       <use xlink:href="#ma8f0b2796b" x="94.682614" y="511.232558" style="stroke: #000000; stroke-width: 0.8"/>
      </g>
     </g>
     <g id="text_1">
      <!-- $\mathdefault{10^{0}}$ -->
      <g transform="translate(78.842614 531.909745) scale(0.18 -0.18)">
       <defs>
        <path id="DejaVuSans-31" d="M 794 531 
L 1825 531 
L 1825 4091 
L 703 3866 
L 703 4441 
L 1819 4666 
L 2450 4666 
L 2450 531 
L 3481 531 
L 3481 0 
L 794 0 
L 794 531 
z
" transform="scale(0.015625)"/>
        <path id="DejaVuSans-30" d="M 2034 4250 
Q 1547 4250 1301 3770 
Q 1056 3291 1056 2328 
Q 1056 1369 1301 889 
Q 1547 409 2034 409 
Q 2525 409 2770 889 
Q 3016 1369 3016 2328 
Q 3016 3291 2770 3770 
Q 2525 4250 2034 4250 
z
M 2034 4750 
Q 2819 4750 3233 4129 
Q 3647 3509 3647 2328 
Q 3647 1150 3233 529 
Q 2819 -91 2034 -91 
Q 1250 -91 836 529 
Q 422 1150 422 2328 
Q 422 3509 836 4129 
Q 1250 4750 2034 4750 
z
" transform="scale(0.015625)"/>
       </defs>
       <use xlink:href="#DejaVuSans-31" transform="translate(0 0.765625)"/>
       <use xlink:href="#DejaVuSans-30" transform="translate(63.623047 0.765625)"/>
       <use xlink:href="#DejaVuSans-30" transform="translate(128.203125 39.046875) scale(0.7)"/>
      </g>
     </g>
    </g>
    <g id="xtick_2">
     <g id="line2d_3">
      <path d="M 452.974562 511.232558 
L 452.974562 12.272558 
" clip-path="url(#p90a7d09f78)" style="fill: none; stroke-dasharray: 1.85,0.8; stroke-dashoffset: 0; stroke: #b0b0b0; stroke-width: 0.5"/>
     </g>
     <g id="line2d_4">
      <g>
       <use xlink:href="#ma8f0b2796b" x="452.974562" y="511.232558" style="stroke: #000000; stroke-width: 0.8"/>
      </g>
     </g>
     <g id="text_2">
      <!-- $\mathdefault{10^{1}}$ -->
      <g transform="translate(437.134562 531.909745) scale(0.18 -0.18)">
       <use xlink:href="#DejaVuSans-31" transform="translate(0 0.684375)"/>
       <use xlink:href="#DejaVuSans-30" transform="translate(63.623047 0.684375)"/>
       <use xlink:href="#DejaVuSans-31" transform="translate(128.203125 38.965625) scale(0.7)"/>
      </g>
     </g>
    </g>
    <g id="xtick_3">
     <g id="line2d_5">
      <defs>
       <path id="me3c9d270bb" d="M 0 0 
L 0 2 
" style="stroke: #000000; stroke-width: 0.6"/>
      </defs>
      <g>
       <use xlink:href="#me3c9d270bb" x="78.288073" y="511.232558" style="stroke: #000000; stroke-width: 0.6"/>
      </g>
     </g>
    </g>
    <g id="xtick_4">
     <g id="line2d_6">
      <g>
       <use xlink:href="#me3c9d270bb" x="202.539237" y="511.232558" style="stroke: #000000; stroke-width: 0.6"/>
      </g>
     </g>
    </g>
    <g id="xtick_5">
     <g id="line2d_7">
      <g>
       <use xlink:href="#me3c9d270bb" x="265.631318" y="511.232558" style="stroke: #000000; stroke-width: 0.6"/>
      </g>
     </g>
    </g>
    <g id="xtick_6">
     <g id="line2d_8">
      <g>
       <use xlink:href="#me3c9d270bb" x="310.395861" y="511.232558" style="stroke: #000000; stroke-width: 0.6"/>
      </g>
     </g>
    </g>
    <g id="xtick_7">
     <g id="line2d_9">
      <g>
       <use xlink:href="#me3c9d270bb" x="345.117938" y="511.232558" style="stroke: #000000; stroke-width: 0.6"/>
      </g>
     </g>
    </g>
    <g id="xtick_8">
     <g id="line2d_10">
      <g>
       <use xlink:href="#me3c9d270bb" x="373.487941" y="511.232558" style="stroke: #000000; stroke-width: 0.6"/>
      </g>
     </g>
    </g>
    <g id="xtick_9">
     <g id="line2d_11">
      <g>
       <use xlink:href="#me3c9d270bb" x="397.474437" y="511.232558" style="stroke: #000000; stroke-width: 0.6"/>
      </g>
     </g>
    </g>
    <g id="xtick_10">
     <g id="line2d_12">
      <g>
       <use xlink:href="#me3c9d270bb" x="418.252484" y="511.232558" style="stroke: #000000; stroke-width: 0.6"/>
      </g>
     </g>
    </g>
    <g id="xtick_11">
     <g id="line2d_13">
      <g>
       <use xlink:href="#me3c9d270bb" x="436.580021" y="511.232558" style="stroke: #000000; stroke-width: 0.6"/>
      </g>
     </g>
    </g>
    <g id="xtick_12">
     <g id="line2d_14">
      <g>
       <use xlink:href="#me3c9d270bb" x="560.831185" y="511.232558" style="stroke: #000000; stroke-width: 0.6"/>
      </g>
     </g>
    </g>
    <g id="xtick_13">
     <g id="line2d_15">
      <g>
       <use xlink:href="#me3c9d270bb" x="623.923266" y="511.232558" style="stroke: #000000; stroke-width: 0.6"/>
      </g>
     </g>
    </g>
    <g id="xtick_14">
     <g id="line2d_16">
      <g>
       <use xlink:href="#me3c9d270bb" x="668.687809" y="511.232558" style="stroke: #000000; stroke-width: 0.6"/>
      </g>
     </g>
    </g>
    <g id="xtick_15">
     <g id="line2d_17">
      <g>
       <use xlink:href="#me3c9d270bb" x="703.409886" y="511.232558" style="stroke: #000000; stroke-width: 0.6"/>
      </g>
     </g>
    </g>
    <g id="xtick_16">
     <g id="line2d_18">
      <g>
       <use xlink:href="#me3c9d270bb" x="731.779889" y="511.232558" style="stroke: #000000; stroke-width: 0.6"/>
      </g>
     </g>
    </g>
    <g id="text_3">
     <!-- Decision Round -->
     <g transform="translate(329.393281 553.33037) scale(0.18 -0.18)">
      <defs>
       <path id="DejaVuSans-44" d="M 1259 4147 
L 1259 519 
L 2022 519 
Q 2988 519 3436 956 
Q 3884 1394 3884 2338 
Q 3884 3275 3436 3711 
Q 2988 4147 2022 4147 
L 1259 4147 
z
M 628 4666 
L 1925 4666 
Q 3281 4666 3915 4102 
Q 4550 3538 4550 2338 
Q 4550 1131 3912 565 
Q 3275 0 1925 0 
L 628 0 
L 628 4666 
z
" transform="scale(0.015625)"/>
       <path id="DejaVuSans-65" d="M 3597 1894 
L 3597 1613 
L 953 1613 
Q 991 1019 1311 708 
Q 1631 397 2203 397 
Q 2534 397 2845 478 
Q 3156 559 3463 722 
L 3463 178 
Q 3153 47 2828 -22 
Q 2503 -91 2169 -91 
Q 1331 -91 842 396 
Q 353 884 353 1716 
Q 353 2575 817 3079 
Q 1281 3584 2069 3584 
Q 2775 3584 3186 3129 
Q 3597 2675 3597 1894 
z
M 3022 2063 
Q 3016 2534 2758 2815 
Q 2500 3097 2075 3097 
Q 1594 3097 1305 2825 
Q 1016 2553 972 2059 
L 3022 2063 
z
" transform="scale(0.015625)"/>
       <path id="DejaVuSans-63" d="M 3122 3366 
L 3122 2828 
Q 2878 2963 2633 3030 
Q 2388 3097 2138 3097 
Q 1578 3097 1268 2742 
Q 959 2388 959 1747 
Q 959 1106 1268 751 
Q 1578 397 2138 397 
Q 2388 397 2633 464 
Q 2878 531 3122 666 
L 3122 134 
Q 2881 22 2623 -34 
Q 2366 -91 2075 -91 
Q 1284 -91 818 406 
Q 353 903 353 1747 
Q 353 2603 823 3093 
Q 1294 3584 2113 3584 
Q 2378 3584 2631 3529 
Q 2884 3475 3122 3366 
z
" transform="scale(0.015625)"/>
       <path id="DejaVuSans-69" d="M 603 3500 
L 1178 3500 
L 1178 0 
L 603 0 
L 603 3500 
z
M 603 4863 
L 1178 4863 
L 1178 4134 
L 603 4134 
L 603 4863 
z
" transform="scale(0.015625)"/>
       <path id="DejaVuSans-73" d="M 2834 3397 
L 2834 2853 
Q 2591 2978 2328 3040 
Q 2066 3103 1784 3103 
Q 1356 3103 1142 2972 
Q 928 2841 928 2578 
Q 928 2378 1081 2264 
Q 1234 2150 1697 2047 
L 1894 2003 
Q 2506 1872 2764 1633 
Q 3022 1394 3022 966 
Q 3022 478 2636 193 
Q 2250 -91 1575 -91 
Q 1294 -91 989 -36 
Q 684 19 347 128 
L 347 722 
Q 666 556 975 473 
Q 1284 391 1588 391 
Q 1994 391 2212 530 
Q 2431 669 2431 922 
Q 2431 1156 2273 1281 
Q 2116 1406 1581 1522 
L 1381 1569 
Q 847 1681 609 1914 
Q 372 2147 372 2553 
Q 372 3047 722 3315 
Q 1072 3584 1716 3584 
Q 2034 3584 2315 3537 
Q 2597 3491 2834 3397 
z
" transform="scale(0.015625)"/>
       <path id="DejaVuSans-6f" d="M 1959 3097 
Q 1497 3097 1228 2736 
Q 959 2375 959 1747 
Q 959 1119 1226 758 
Q 1494 397 1959 397 
Q 2419 397 2687 759 
Q 2956 1122 2956 1747 
Q 2956 2369 2687 2733 
Q 2419 3097 1959 3097 
z
M 1959 3584 
Q 2709 3584 3137 3096 
Q 3566 2609 3566 1747 
Q 3566 888 3137 398 
Q 2709 -91 1959 -91 
Q 1206 -91 779 398 
Q 353 888 353 1747 
Q 353 2609 779 3096 
Q 1206 3584 1959 3584 
z
" transform="scale(0.015625)"/>
       <path id="DejaVuSans-6e" d="M 3513 2113 
L 3513 0 
L 2938 0 
L 2938 2094 
Q 2938 2591 2744 2837 
Q 2550 3084 2163 3084 
Q 1697 3084 1428 2787 
Q 1159 2491 1159 1978 
L 1159 0 
L 581 0 
L 581 3500 
L 1159 3500 
L 1159 2956 
Q 1366 3272 1645 3428 
Q 1925 3584 2291 3584 
Q 2894 3584 3203 3211 
Q 3513 2838 3513 2113 
z
" transform="scale(0.015625)"/>
       <path id="DejaVuSans-20" transform="scale(0.015625)"/>
       <path id="DejaVuSans-52" d="M 2841 2188 
Q 3044 2119 3236 1894 
Q 3428 1669 3622 1275 
L 4263 0 
L 3584 0 
L 2988 1197 
Q 2756 1666 2539 1819 
Q 2322 1972 1947 1972 
L 1259 1972 
L 1259 0 
L 628 0 
L 628 4666 
L 2053 4666 
Q 2853 4666 3247 4331 
Q 3641 3997 3641 3322 
Q 3641 2881 3436 2590 
Q 3231 2300 2841 2188 
z
M 1259 4147 
L 1259 2491 
L 2053 2491 
Q 2509 2491 2742 2702 
Q 2975 2913 2975 3322 
Q 2975 3731 2742 3939 
Q 2509 4147 2053 4147 
L 1259 4147 
z
" transform="scale(0.015625)"/>
       <path id="DejaVuSans-75" d="M 544 1381 
L 544 3500 
L 1119 3500 
L 1119 1403 
Q 1119 906 1312 657 
Q 1506 409 1894 409 
Q 2359 409 2629 706 
Q 2900 1003 2900 1516 
L 2900 3500 
L 3475 3500 
L 3475 0 
L 2900 0 
L 2900 538 
Q 2691 219 2414 64 
Q 2138 -91 1772 -91 
Q 1169 -91 856 284 
Q 544 659 544 1381 
z
M 1991 3584 
L 1991 3584 
z
" transform="scale(0.015625)"/>
       <path id="DejaVuSans-64" d="M 2906 2969 
L 2906 4863 
L 3481 4863 
L 3481 0 
L 2906 0 
L 2906 525 
Q 2725 213 2448 61 
Q 2172 -91 1784 -91 
Q 1150 -91 751 415 
Q 353 922 353 1747 
Q 353 2572 751 3078 
Q 1150 3584 1784 3584 
Q 2172 3584 2448 3432 
Q 2725 3281 2906 2969 
z
M 947 1747 
Q 947 1113 1208 752 
Q 1469 391 1925 391 
Q 2381 391 2643 752 
Q 2906 1113 2906 1747 
Q 2906 2381 2643 2742 
Q 2381 3103 1925 3103 
Q 1469 3103 1208 2742 
Q 947 2381 947 1747 
z
" transform="scale(0.015625)"/>
      </defs>
      <use xlink:href="#DejaVuSans-44"/>
      <use xlink:href="#DejaVuSans-65" x="77.001953"/>
      <use xlink:href="#DejaVuSans-63" x="138.525391"/>
      <use xlink:href="#DejaVuSans-69" x="193.505859"/>
      <use xlink:href="#DejaVuSans-73" x="221.289062"/>
      <use xlink:href="#DejaVuSans-69" x="273.388672"/>
      <use xlink:href="#DejaVuSans-6f" x="301.171875"/>
      <use xlink:href="#DejaVuSans-6e" x="362.353516"/>
      <use xlink:href="#DejaVuSans-20" x="425.732422"/>
      <use xlink:href="#DejaVuSans-52" x="457.519531"/>
      <use xlink:href="#DejaVuSans-6f" x="522.501953"/>
      <use xlink:href="#DejaVuSans-75" x="583.683594"/>
      <use xlink:href="#DejaVuSans-6e" x="647.0625"/>
      <use xlink:href="#DejaVuSans-64" x="710.441406"/>
     </g>
    </g>
   </g>
   <g id="matplotlib.axis_2">
    <g id="ytick_1">
     <g id="line2d_19">
      <path d="M 64.24625 480.45184 
L 733.84625 480.45184 
" clip-path="url(#p90a7d09f78)" style="fill: none; stroke-dasharray: 1.85,0.8; stroke-dashoffset: 0; stroke: #b0b0b0; stroke-width: 0.5"/>
     </g>
     <g id="line2d_20">
      <defs>
       <path id="m0e49f577d5" d="M 0 0 
L -3.5 0 
" style="stroke: #000000; stroke-width: 0.8"/>
      </defs>
      <g>
       <use xlink:href="#m0e49f577d5" x="64.24625" y="480.45184" style="stroke: #000000; stroke-width: 0.8"/>
      </g>
     </g>
     <g id="text_4">
      <!-- 0.4 -->
      <g transform="translate(28.620625 487.290434) scale(0.18 -0.18)">
       <defs>
        <path id="DejaVuSans-2e" d="M 684 794 
L 1344 794 
L 1344 0 
L 684 0 
L 684 794 
z
" transform="scale(0.015625)"/>
        <path id="DejaVuSans-34" d="M 2419 4116 
L 825 1625 
L 2419 1625 
L 2419 4116 
z
M 2253 4666 
L 3047 4666 
L 3047 1625 
L 3713 1625 
L 3713 1100 
L 3047 1100 
L 3047 0 
L 2419 0 
L 2419 1100 
L 313 1100 
L 313 1709 
L 2253 4666 
z
" transform="scale(0.015625)"/>
       </defs>
       <use xlink:href="#DejaVuSans-30"/>
       <use xlink:href="#DejaVuSans-2e" x="63.623047"/>
       <use xlink:href="#DejaVuSans-34" x="95.410156"/>
      </g>
     </g>
    </g>
    <g id="ytick_2">
     <g id="line2d_21">
      <path d="M 64.24625 387.169191 
L 733.84625 387.169191 
" clip-path="url(#p90a7d09f78)" style="fill: none; stroke-dasharray: 1.85,0.8; stroke-dashoffset: 0; stroke: #b0b0b0; stroke-width: 0.5"/>
     </g>
     <g id="line2d_22">
      <g>
       <use xlink:href="#m0e49f577d5" x="64.24625" y="387.169191" style="stroke: #000000; stroke-width: 0.8"/>
      </g>
     </g>
     <g id="text_5">
      <!-- 0.5 -->
      <g transform="translate(28.620625 394.007785) scale(0.18 -0.18)">
       <defs>
        <path id="DejaVuSans-35" d="M 691 4666 
L 3169 4666 
L 3169 4134 
L 1269 4134 
L 1269 2991 
Q 1406 3038 1543 3061 
Q 1681 3084 1819 3084 
Q 2600 3084 3056 2656 
Q 3513 2228 3513 1497 
Q 3513 744 3044 326 
Q 2575 -91 1722 -91 
Q 1428 -91 1123 -41 
Q 819 9 494 109 
L 494 744 
Q 775 591 1075 516 
Q 1375 441 1709 441 
Q 2250 441 2565 725 
Q 2881 1009 2881 1497 
Q 2881 1984 2565 2268 
Q 2250 2553 1709 2553 
Q 1456 2553 1204 2497 
Q 953 2441 691 2322 
L 691 4666 
z
" transform="scale(0.015625)"/>
       </defs>
       <use xlink:href="#DejaVuSans-30"/>
       <use xlink:href="#DejaVuSans-2e" x="63.623047"/>
       <use xlink:href="#DejaVuSans-35" x="95.410156"/>
      </g>
     </g>
    </g>
    <g id="ytick_3">
     <g id="line2d_23">
      <path d="M 64.24625 293.886542 
L 733.84625 293.886542 
" clip-path="url(#p90a7d09f78)" style="fill: none; stroke-dasharray: 1.85,0.8; stroke-dashoffset: 0; stroke: #b0b0b0; stroke-width: 0.5"/>
     </g>
     <g id="line2d_24">
      <g>
       <use xlink:href="#m0e49f577d5" x="64.24625" y="293.886542" style="stroke: #000000; stroke-width: 0.8"/>
      </g>
     </g>
     <g id="text_6">
      <!-- 0.6 -->
      <g transform="translate(28.620625 300.725135) scale(0.18 -0.18)">
       <defs>
        <path id="DejaVuSans-36" d="M 2113 2584 
Q 1688 2584 1439 2293 
Q 1191 2003 1191 1497 
Q 1191 994 1439 701 
Q 1688 409 2113 409 
Q 2538 409 2786 701 
Q 3034 994 3034 1497 
Q 3034 2003 2786 2293 
Q 2538 2584 2113 2584 
z
M 3366 4563 
L 3366 3988 
Q 3128 4100 2886 4159 
Q 2644 4219 2406 4219 
Q 1781 4219 1451 3797 
Q 1122 3375 1075 2522 
Q 1259 2794 1537 2939 
Q 1816 3084 2150 3084 
Q 2853 3084 3261 2657 
Q 3669 2231 3669 1497 
Q 3669 778 3244 343 
Q 2819 -91 2113 -91 
Q 1303 -91 875 529 
Q 447 1150 447 2328 
Q 447 3434 972 4092 
Q 1497 4750 2381 4750 
Q 2619 4750 2861 4703 
Q 3103 4656 3366 4563 
z
" transform="scale(0.015625)"/>
       </defs>
       <use xlink:href="#DejaVuSans-30"/>
       <use xlink:href="#DejaVuSans-2e" x="63.623047"/>
       <use xlink:href="#DejaVuSans-36" x="95.410156"/>
      </g>
     </g>
    </g>
    <g id="ytick_4">
     <g id="line2d_25">
      <path d="M 64.24625 200.603892 
L 733.84625 200.603892 
" clip-path="url(#p90a7d09f78)" style="fill: none; stroke-dasharray: 1.85,0.8; stroke-dashoffset: 0; stroke: #b0b0b0; stroke-width: 0.5"/>
     </g>
     <g id="line2d_26">
      <g>
       <use xlink:href="#m0e49f577d5" x="64.24625" y="200.603892" style="stroke: #000000; stroke-width: 0.8"/>
      </g>
     </g>
     <g id="text_7">
      <!-- 0.7 -->
      <g transform="translate(28.620625 207.442486) scale(0.18 -0.18)">
       <defs>
        <path id="DejaVuSans-37" d="M 525 4666 
L 3525 4666 
L 3525 4397 
L 1831 0 
L 1172 0 
L 2766 4134 
L 525 4134 
L 525 4666 
z
" transform="scale(0.015625)"/>
       </defs>
       <use xlink:href="#DejaVuSans-30"/>
       <use xlink:href="#DejaVuSans-2e" x="63.623047"/>
       <use xlink:href="#DejaVuSans-37" x="95.410156"/>
      </g>
     </g>
    </g>
    <g id="ytick_5">
     <g id="line2d_27">
      <path d="M 64.24625 107.321243 
L 733.84625 107.321243 
" clip-path="url(#p90a7d09f78)" style="fill: none; stroke-dasharray: 1.85,0.8; stroke-dashoffset: 0; stroke: #b0b0b0; stroke-width: 0.5"/>
     </g>
     <g id="line2d_28">
      <g>
       <use xlink:href="#m0e49f577d5" x="64.24625" y="107.321243" style="stroke: #000000; stroke-width: 0.8"/>
      </g>
     </g>
     <g id="text_8">
      <!-- 0.8 -->
      <g transform="translate(28.620625 114.159837) scale(0.18 -0.18)">
       <defs>
        <path id="DejaVuSans-38" d="M 2034 2216 
Q 1584 2216 1326 1975 
Q 1069 1734 1069 1313 
Q 1069 891 1326 650 
Q 1584 409 2034 409 
Q 2484 409 2743 651 
Q 3003 894 3003 1313 
Q 3003 1734 2745 1975 
Q 2488 2216 2034 2216 
z
M 1403 2484 
Q 997 2584 770 2862 
Q 544 3141 544 3541 
Q 544 4100 942 4425 
Q 1341 4750 2034 4750 
Q 2731 4750 3128 4425 
Q 3525 4100 3525 3541 
Q 3525 3141 3298 2862 
Q 3072 2584 2669 2484 
Q 3125 2378 3379 2068 
Q 3634 1759 3634 1313 
Q 3634 634 3220 271 
Q 2806 -91 2034 -91 
Q 1263 -91 848 271 
Q 434 634 434 1313 
Q 434 1759 690 2068 
Q 947 2378 1403 2484 
z
M 1172 3481 
Q 1172 3119 1398 2916 
Q 1625 2713 2034 2713 
Q 2441 2713 2670 2916 
Q 2900 3119 2900 3481 
Q 2900 3844 2670 4047 
Q 2441 4250 2034 4250 
Q 1625 4250 1398 4047 
Q 1172 3844 1172 3481 
z
" transform="scale(0.015625)"/>
       </defs>
       <use xlink:href="#DejaVuSans-30"/>
       <use xlink:href="#DejaVuSans-2e" x="63.623047"/>
       <use xlink:href="#DejaVuSans-38" x="95.410156"/>
      </g>
     </g>
    </g>
    <g id="ytick_6">
     <g id="line2d_29">
      <path d="M 64.24625 14.038594 
L 733.84625 14.038594 
" clip-path="url(#p90a7d09f78)" style="fill: none; stroke-dasharray: 1.85,0.8; stroke-dashoffset: 0; stroke: #b0b0b0; stroke-width: 0.5"/>
     </g>
     <g id="line2d_30">
      <g>
       <use xlink:href="#m0e49f577d5" x="64.24625" y="14.038594" style="stroke: #000000; stroke-width: 0.8"/>
      </g>
     </g>
     <g id="text_9">
      <!-- 0.9 -->
      <g transform="translate(28.620625 20.877187) scale(0.18 -0.18)">
       <defs>
        <path id="DejaVuSans-39" d="M 703 97 
L 703 672 
Q 941 559 1184 500 
Q 1428 441 1663 441 
Q 2288 441 2617 861 
Q 2947 1281 2994 2138 
Q 2813 1869 2534 1725 
Q 2256 1581 1919 1581 
Q 1219 1581 811 2004 
Q 403 2428 403 3163 
Q 403 3881 828 4315 
Q 1253 4750 1959 4750 
Q 2769 4750 3195 4129 
Q 3622 3509 3622 2328 
Q 3622 1225 3098 567 
Q 2575 -91 1691 -91 
Q 1453 -91 1209 -44 
Q 966 3 703 97 
z
M 1959 2075 
Q 2384 2075 2632 2365 
Q 2881 2656 2881 3163 
Q 2881 3666 2632 3958 
Q 2384 4250 1959 4250 
Q 1534 4250 1286 3958 
Q 1038 3666 1038 3163 
Q 1038 2656 1286 2365 
Q 1534 2075 1959 2075 
z
" transform="scale(0.015625)"/>
       </defs>
       <use xlink:href="#DejaVuSans-30"/>
       <use xlink:href="#DejaVuSans-2e" x="63.623047"/>
       <use xlink:href="#DejaVuSans-39" x="95.410156"/>
      </g>
     </g>
    </g>
    <g id="text_10">
     <!-- Normalized Performance -->
     <g transform="translate(20.877187 372.68037) rotate(-90) scale(0.18 -0.18)">
      <defs>
       <path id="DejaVuSans-4e" d="M 628 4666 
L 1478 4666 
L 3547 763 
L 3547 4666 
L 4159 4666 
L 4159 0 
L 3309 0 
L 1241 3903 
L 1241 0 
L 628 0 
L 628 4666 
z
" transform="scale(0.015625)"/>
       <path id="DejaVuSans-72" d="M 2631 2963 
Q 2534 3019 2420 3045 
Q 2306 3072 2169 3072 
Q 1681 3072 1420 2755 
Q 1159 2438 1159 1844 
L 1159 0 
L 581 0 
L 581 3500 
L 1159 3500 
L 1159 2956 
Q 1341 3275 1631 3429 
Q 1922 3584 2338 3584 
Q 2397 3584 2469 3576 
Q 2541 3569 2628 3553 
L 2631 2963 
z
" transform="scale(0.015625)"/>
       <path id="DejaVuSans-6d" d="M 3328 2828 
Q 3544 3216 3844 3400 
Q 4144 3584 4550 3584 
Q 5097 3584 5394 3201 
Q 5691 2819 5691 2113 
L 5691 0 
L 5113 0 
L 5113 2094 
Q 5113 2597 4934 2840 
Q 4756 3084 4391 3084 
Q 3944 3084 3684 2787 
Q 3425 2491 3425 1978 
L 3425 0 
L 2847 0 
L 2847 2094 
Q 2847 2600 2669 2842 
Q 2491 3084 2119 3084 
Q 1678 3084 1418 2786 
Q 1159 2488 1159 1978 
L 1159 0 
L 581 0 
L 581 3500 
L 1159 3500 
L 1159 2956 
Q 1356 3278 1631 3431 
Q 1906 3584 2284 3584 
Q 2666 3584 2933 3390 
Q 3200 3197 3328 2828 
z
" transform="scale(0.015625)"/>
       <path id="DejaVuSans-61" d="M 2194 1759 
Q 1497 1759 1228 1600 
Q 959 1441 959 1056 
Q 959 750 1161 570 
Q 1363 391 1709 391 
Q 2188 391 2477 730 
Q 2766 1069 2766 1631 
L 2766 1759 
L 2194 1759 
z
M 3341 1997 
L 3341 0 
L 2766 0 
L 2766 531 
Q 2569 213 2275 61 
Q 1981 -91 1556 -91 
Q 1019 -91 701 211 
Q 384 513 384 1019 
Q 384 1609 779 1909 
Q 1175 2209 1959 2209 
L 2766 2209 
L 2766 2266 
Q 2766 2663 2505 2880 
Q 2244 3097 1772 3097 
Q 1472 3097 1187 3025 
Q 903 2953 641 2809 
L 641 3341 
Q 956 3463 1253 3523 
Q 1550 3584 1831 3584 
Q 2591 3584 2966 3190 
Q 3341 2797 3341 1997 
z
" transform="scale(0.015625)"/>
       <path id="DejaVuSans-6c" d="M 603 4863 
L 1178 4863 
L 1178 0 
L 603 0 
L 603 4863 
z
" transform="scale(0.015625)"/>
       <path id="DejaVuSans-7a" d="M 353 3500 
L 3084 3500 
L 3084 2975 
L 922 459 
L 3084 459 
L 3084 0 
L 275 0 
L 275 525 
L 2438 3041 
L 353 3041 
L 353 3500 
z
" transform="scale(0.015625)"/>
       <path id="DejaVuSans-50" d="M 1259 4147 
L 1259 2394 
L 2053 2394 
Q 2494 2394 2734 2622 
Q 2975 2850 2975 3272 
Q 2975 3691 2734 3919 
Q 2494 4147 2053 4147 
L 1259 4147 
z
M 628 4666 
L 2053 4666 
Q 2838 4666 3239 4311 
Q 3641 3956 3641 3272 
Q 3641 2581 3239 2228 
Q 2838 1875 2053 1875 
L 1259 1875 
L 1259 0 
L 628 0 
L 628 4666 
z
" transform="scale(0.015625)"/>
       <path id="DejaVuSans-66" d="M 2375 4863 
L 2375 4384 
L 1825 4384 
Q 1516 4384 1395 4259 
Q 1275 4134 1275 3809 
L 1275 3500 
L 2222 3500 
L 2222 3053 
L 1275 3053 
L 1275 0 
L 697 0 
L 697 3053 
L 147 3053 
L 147 3500 
L 697 3500 
L 697 3744 
Q 697 4328 969 4595 
Q 1241 4863 1831 4863 
L 2375 4863 
z
" transform="scale(0.015625)"/>
      </defs>
      <use xlink:href="#DejaVuSans-4e"/>
      <use xlink:href="#DejaVuSans-6f" x="74.804688"/>
      <use xlink:href="#DejaVuSans-72" x="135.986328"/>
      <use xlink:href="#DejaVuSans-6d" x="175.349609"/>
      <use xlink:href="#DejaVuSans-61" x="272.761719"/>
      <use xlink:href="#DejaVuSans-6c" x="334.041016"/>
      <use xlink:href="#DejaVuSans-69" x="361.824219"/>
      <use xlink:href="#DejaVuSans-7a" x="389.607422"/>
      <use xlink:href="#DejaVuSans-65" x="442.097656"/>
      <use xlink:href="#DejaVuSans-64" x="503.621094"/>
      <use xlink:href="#DejaVuSans-20" x="567.097656"/>
      <use xlink:href="#DejaVuSans-50" x="598.884766"/>
      <use xlink:href="#DejaVuSans-65" x="655.5625"/>
      <use xlink:href="#DejaVuSans-72" x="717.085938"/>
      <use xlink:href="#DejaVuSans-66" x="758.199219"/>
      <use xlink:href="#DejaVuSans-6f" x="793.404297"/>
      <use xlink:href="#DejaVuSans-72" x="854.585938"/>
      <use xlink:href="#DejaVuSans-6d" x="893.949219"/>
      <use xlink:href="#DejaVuSans-61" x="991.361328"/>
      <use xlink:href="#DejaVuSans-6e" x="1052.640625"/>
      <use xlink:href="#DejaVuSans-63" x="1116.019531"/>
      <use xlink:href="#DejaVuSans-65" x="1171"/>
     </g>
    </g>
   </g>
   <g id="line2d_31">
    <path d="M 94.682614 126.5234 
L 202.539237 126.5234 
L 265.631318 126.5234 
L 310.395861 126.5234 
L 345.117938 126.5234 
L 373.487941 126.5234 
L 397.474437 126.5234 
L 418.252484 126.5234 
L 436.580021 126.5234 
L 452.974562 126.5234 
L 467.805228 126.5234 
L 481.344565 126.5234 
L 493.799547 126.5234 
L 505.33106 126.5234 
L 516.066642 126.5234 
L 526.109108 126.5234 
L 535.542555 126.5234 
L 544.436645 126.5234 
L 552.849733 126.5234 
L 560.831185 126.5234 
L 568.423141 126.5234 
L 575.661851 126.5234 
L 582.578733 126.5234 
L 589.201188 126.5234 
L 595.553263 126.5234 
L 601.656171 126.5234 
L 607.528725 126.5234 
L 613.187684 126.5234 
L 618.648041 126.5234 
L 623.923266 126.5234 
L 629.0255 126.5234 
L 633.965732 126.5234 
L 638.753931 126.5234 
L 643.399178 126.5234 
L 647.909761 126.5234 
L 652.293269 126.5234 
L 656.556664 126.5234 
L 660.706356 126.5234 
L 664.748251 126.5234 
L 668.687809 126.5234 
L 672.530084 126.5234 
L 676.279764 126.5234 
L 679.941209 126.5234 
L 683.518475 126.5234 
L 687.015346 126.5234 
L 690.435356 126.5234 
L 693.781813 126.5234 
L 697.057812 126.5234 
L 700.26626 126.5234 
L 703.409886 126.5234 
" clip-path="url(#p90a7d09f78)" style="fill: none; stroke-dasharray: 5.55,2.4; stroke-dashoffset: 0; stroke: #fdc086; stroke-width: 1.5"/>
   </g>
   <g id="line2d_32">
    <path d="M 94.682614 323.741575 
L 202.539237 322.585622 
L 265.631318 266.939633 
L 310.395861 266.939633 
L 345.117938 266.939633 
L 373.487941 266.939633 
L 397.474437 244.814269 
L 418.252484 244.814269 
L 436.580021 244.814269 
L 452.974562 244.814269 
L 467.805228 244.814269 
L 481.344565 244.814269 
L 493.799547 244.814269 
L 505.33106 244.814269 
L 516.066642 244.814269 
L 526.109108 244.814269 
L 535.542555 244.814269 
L 544.436645 244.814269 
L 552.849733 244.814269 
L 560.831185 244.814269 
L 568.423141 244.814269 
L 575.661851 244.814269 
L 582.578733 244.814269 
L 589.201188 244.814269 
L 595.553263 244.814269 
L 601.656171 244.814269 
L 607.528725 244.814269 
L 613.187684 244.814269 
L 618.648041 244.814269 
L 623.923266 244.814269 
L 629.0255 244.814269 
L 633.965732 244.814269 
L 638.753931 244.814269 
L 643.399178 244.814269 
L 647.909761 244.814269 
L 652.293269 244.814269 
L 656.556664 244.814269 
L 660.706356 244.814269 
L 664.748251 244.814269 
L 668.687809 244.814269 
L 672.530084 244.814269 
L 676.279764 244.814269 
L 679.941209 244.814269 
L 683.518475 244.814269 
L 687.015346 244.814269 
L 690.435356 244.814269 
L 693.781813 244.814269 
L 697.057812 244.814269 
L 700.26626 244.814269 
L 703.409886 244.814269 
" clip-path="url(#p90a7d09f78)" style="fill: none; stroke-dasharray: 5.55,2.4; stroke-dashoffset: 0; stroke: #beaed4; stroke-width: 1.5"/>
   </g>
   <g id="line2d_33">
    <path d="M 94.682614 372.786126 
L 202.539237 276.000282 
L 265.631318 218.043805 
L 310.395861 185.723229 
L 345.117938 166.000407 
L 373.487941 154.612276 
L 397.474437 140.756297 
L 418.252484 132.294241 
L 436.580021 124.671863 
L 452.974562 118.58072 
L 467.805228 112.019478 
L 481.344565 106.999733 
L 493.799547 101.897853 
L 505.33106 99.107139 
L 516.066642 95.195409 
L 526.109108 92.758867 
L 535.542555 90.023737 
L 544.436645 86.71185 
L 552.849733 84.20937 
L 560.831185 81.96043 
L 568.423141 80.050767 
L 575.661851 78.68503 
L 582.578733 77.148044 
L 589.201188 75.375003 
L 595.553263 74.222671 
L 601.656171 73.065999 
L 607.528725 71.970783 
L 613.187684 70.773825 
L 618.648041 69.68108 
L 623.923266 68.842252 
L 629.0255 68.031473 
L 633.965732 67.005927 
L 638.753931 66.146818 
L 643.399178 64.988093 
L 647.909761 64.469738 
L 652.293269 63.985829 
L 656.556664 63.325497 
L 660.706356 62.840123 
L 664.748251 62.180983 
L 668.687809 61.405138 
L 672.530084 60.839791 
L 676.279764 60.173705 
L 679.941209 59.691981 
L 683.518475 58.66749 
L 687.015346 58.228952 
L 690.435356 57.635487 
L 693.781813 56.975045 
L 697.057812 56.554219 
L 700.26626 56.168926 
L 703.409886 55.661661 
" clip-path="url(#p90a7d09f78)" style="fill: none; stroke: #7fc97f; stroke-width: 1.5; stroke-linecap: square"/>
   </g>
   <g id="line2d_34">
    <path d="M 94.682614 233.132388 
L 202.539237 198.124956 
L 265.631318 171.341216 
L 310.395861 157.299306 
L 345.117938 140.740294 
L 373.487941 131.43159 
L 397.474437 123.282905 
L 418.252484 116.755761 
L 436.580021 111.621413 
L 452.974562 106.762275 
L 467.805228 103.010699 
L 481.344565 99.772169 
L 493.799547 96.5758 
L 505.33106 94.091328 
L 516.066642 92.029446 
L 526.109108 89.373776 
L 535.542555 87.103047 
L 544.436645 85.538427 
L 552.849733 82.996373 
L 560.831185 81.722218 
L 568.423141 79.780738 
L 575.661851 78.036596 
L 582.578733 76.847157 
L 589.201188 74.844452 
L 595.553263 73.462693 
L 601.656171 72.109443 
L 607.528725 71.040288 
L 613.187684 69.878454 
L 618.648041 68.7361 
L 623.923266 68.134151 
L 629.0255 67.176585 
L 633.965732 66.382095 
L 638.753931 65.744302 
L 643.399178 65.052632 
L 647.909761 64.486902 
L 652.293269 63.638655 
L 656.556664 62.819705 
L 660.706356 62.381226 
L 664.748251 61.817333 
L 668.687809 61.058829 
L 672.530084 60.556176 
L 676.279764 60.063143 
L 679.941209 59.662119 
L 683.518475 59.216781 
L 687.015346 58.634123 
L 690.435356 58.323057 
L 693.781813 57.752457 
L 697.057812 57.238469 
L 700.26626 56.684641 
L 703.409886 56.301627 
" clip-path="url(#p90a7d09f78)" style="fill: none; stroke: #bf5b17; stroke-width: 1.5; stroke-linecap: square"/>
   </g>
   <g id="line2d_35">
    <path d="M 94.682614 233.132388 
L 202.539237 205.422286 
L 265.631318 199.13682 
L 310.395861 179.625418 
L 345.117938 153.4483 
L 373.487941 113.381156 
L 397.474437 110.846859 
L 418.252484 102.651665 
L 436.580021 97.82507 
L 452.974562 96.442565 
L 467.805228 89.376482 
L 481.344565 77.907784 
L 493.799547 77.790379 
L 505.33106 76.617402 
L 516.066642 76.286424 
L 526.109108 75.171154 
L 535.542555 72.404179 
L 544.436645 72.366161 
L 552.849733 69.066499 
L 560.831185 69.045825 
L 568.423141 69.042553 
L 575.661851 67.086016 
L 582.578733 67.010915 
L 589.201188 66.233016 
L 595.553263 64.697274 
L 601.656171 64.363688 
L 607.528725 63.665127 
L 613.187684 61.033815 
L 618.648041 60.970732 
L 623.923266 60.783023 
L 629.0255 60.686569 
L 633.965732 59.980008 
L 638.753931 59.638149 
L 643.399178 59.446939 
L 647.909761 59.109303 
L 652.293269 59.06217 
L 656.556664 58.811508 
L 660.706356 58.700362 
L 664.748251 58.440521 
L 668.687809 58.331496 
L 672.530084 58.315814 
L 676.279764 57.488124 
L 679.941209 57.465677 
L 683.518475 57.427025 
L 687.015346 57.246552 
L 690.435356 56.571345 
L 693.781813 56.529562 
L 697.057812 56.341721 
L 700.26626 55.759034 
L 703.409886 55.667021 
" clip-path="url(#p90a7d09f78)" style="fill: none; stroke: #f0027f; stroke-width: 1.5; stroke-linecap: square"/>
   </g>
   <g id="line2d_36">
    <path d="M 94.682614 233.132388 
L 202.539237 205.422286 
L 265.631318 199.13682 
L 310.395861 179.625418 
L 345.117938 153.4483 
L 373.487941 113.381156 
L 397.474437 109.853512 
L 418.252484 103.188358 
L 436.580021 98.606413 
L 452.974562 95.324299 
L 467.805228 90.735894 
L 481.344565 82.785689 
L 493.799547 80.836353 
L 505.33106 78.075031 
L 516.066642 76.800663 
L 526.109108 74.82745 
L 535.542555 73.183281 
L 544.436645 71.989671 
L 552.849733 70.647296 
L 560.831185 69.568309 
L 568.423141 68.949256 
L 575.661851 67.797885 
L 582.578733 66.884805 
L 589.201188 65.438588 
L 595.553263 64.48606 
L 601.656171 63.642488 
L 607.528725 63.068371 
L 613.187684 62.161471 
L 618.648041 61.469336 
L 623.923266 60.809284 
L 629.0255 60.025756 
L 633.965732 59.396438 
L 638.753931 58.990037 
L 643.399178 58.185155 
L 647.909761 57.338013 
L 652.293269 57.00321 
L 656.556664 56.547473 
L 660.706356 56.107123 
L 664.748251 55.672654 
L 668.687809 55.255207 
L 672.530084 54.857414 
L 676.279764 54.483566 
L 679.941209 54.064939 
L 683.518475 53.667105 
L 687.015346 53.314013 
L 690.435356 53.023353 
L 693.781813 52.572151 
L 697.057812 52.363759 
L 700.26626 51.935311 
L 703.409886 51.64056 
" clip-path="url(#p90a7d09f78)" style="fill: none; stroke: #386cb0; stroke-width: 1.5; stroke-linecap: square"/>
   </g>
   <g id="line2d_37">
    <path d="M 94.682614 233.132388 
L 202.539237 205.422286 
L 265.631318 199.13682 
L 310.395861 179.625418 
L 345.117938 153.4483 
L 373.487941 113.381156 
L 397.474437 109.853512 
L 418.252484 103.188358 
L 436.580021 98.64884 
L 452.974562 95.319879 
L 467.805228 90.766228 
L 481.344565 82.270706 
L 493.799547 81.440974 
L 505.33106 78.80132 
L 516.066642 77.930827 
L 526.109108 76.43645 
L 535.542555 74.243752 
L 544.436645 73.137418 
L 552.849733 71.122083 
L 560.831185 69.953316 
L 568.423141 69.362777 
L 575.661851 67.913215 
L 582.578733 67.34967 
L 589.201188 66.206179 
L 595.553263 65.514376 
L 601.656171 64.417557 
L 607.528725 63.790632 
L 613.187684 62.879859 
L 618.648041 62.186444 
L 623.923266 61.846661 
L 629.0255 61.194499 
L 633.965732 60.740802 
L 638.753931 59.743642 
L 643.399178 59.305788 
L 647.909761 58.774718 
L 652.293269 58.312122 
L 656.556664 57.889039 
L 660.706356 57.559741 
L 664.748251 57.139509 
L 668.687809 56.782123 
L 672.530084 56.470791 
L 676.279764 56.19414 
L 679.941209 55.888463 
L 683.518475 55.619275 
L 687.015346 55.264386 
L 690.435356 55.043734 
L 693.781813 54.633759 
L 697.057812 54.401944 
L 700.26626 54.105068 
L 703.409886 53.824719 
" clip-path="url(#p90a7d09f78)" style="fill: none; stroke: #ffff99; stroke-width: 1.5; stroke-linecap: square"/>
   </g>
   <g id="line2d_38">
    <path d="M 94.682614 169.795864 
L 202.539237 118.568555 
L 265.631318 98.786646 
L 310.395861 83.228471 
L 345.117938 75.615439 
L 373.487941 72.80872 
L 397.474437 67.957511 
L 418.252484 62.692691 
L 436.580021 61.071041 
L 452.974562 59.629216 
L 467.805228 58.877056 
L 481.344565 55.917843 
L 493.799547 55.096514 
L 505.33106 54.080529 
L 516.066642 53.14133 
L 526.109108 51.918531 
L 535.542555 50.379271 
L 544.436645 49.563663 
L 552.849733 49.489926 
L 560.831185 47.401146 
L 568.423141 46.95907 
L 575.661851 46.331602 
L 582.578733 45.770083 
L 589.201188 45.316108 
L 595.553263 44.244622 
L 601.656171 43.948152 
L 607.528725 43.426448 
L 613.187684 43.100652 
L 618.648041 42.922284 
L 623.923266 42.60883 
L 629.0255 42.133896 
L 633.965732 41.805196 
L 638.753931 41.727778 
L 643.399178 41.353643 
L 647.909761 40.588915 
L 652.293269 40.497359 
L 656.556664 40.410869 
L 660.706356 40.031077 
L 664.748251 39.939826 
L 668.687809 39.798676 
L 672.530084 39.736847 
L 676.279764 39.676695 
L 679.941209 38.536016 
L 683.518475 38.48172 
L 687.015346 38.368415 
L 690.435356 38.198854 
L 693.781813 38.12685 
L 697.057812 37.965551 
L 700.26626 37.850982 
L 703.409886 37.832636 
" clip-path="url(#p90a7d09f78)" style="fill: none; stroke-dasharray: 5.55,2.4; stroke-dashoffset: 0; stroke: #666666; stroke-width: 1.5"/>
   </g>
   <g id="patch_3">
    <path d="M 64.24625 511.232558 
L 64.24625 12.272558 
" style="fill: none; stroke: #000000; stroke-width: 0.8; stroke-linejoin: miter; stroke-linecap: square"/>
   </g>
   <g id="patch_4">
    <path d="M 733.84625 511.232558 
L 733.84625 12.272558 
" style="fill: none; stroke: #000000; stroke-width: 0.8; stroke-linejoin: miter; stroke-linecap: square"/>
   </g>
   <g id="patch_5">
    <path d="M 64.24625 511.232558 
L 733.84625 511.232558 
" style="fill: none; stroke: #000000; stroke-width: 0.8; stroke-linejoin: miter; stroke-linecap: square"/>
   </g>
   <g id="patch_6">
    <path d="M 64.24625 12.272558 
L 733.84625 12.272558 
" style="fill: none; stroke: #000000; stroke-width: 0.8; stroke-linejoin: miter; stroke-linecap: square"/>
   </g>
   <g id="legend_1">
    <g id="patch_7">
     <path d="M 443.300938 502.232558 
L 721.24625 502.232558 
Q 724.84625 502.232558 724.84625 498.632558 
L 724.84625 289.067558 
Q 724.84625 285.467558 721.24625 285.467558 
L 443.300938 285.467558 
Q 439.700938 285.467558 439.700938 289.067558 
L 439.700938 498.632558 
Q 439.700938 502.232558 443.300938 502.232558 
z
" style="fill: #ffffff; opacity: 0.8; stroke: #cccccc; stroke-linejoin: miter"/>
    </g>
    <g id="line2d_39">
     <path d="M 446.900937 300.044745 
L 464.900937 300.044745 
L 482.900937 300.044745 
" style="fill: none; stroke-dasharray: 5.55,2.4; stroke-dashoffset: 0; stroke: #fdc086; stroke-width: 1.5"/>
    </g>
    <g id="text_11">
     <!-- Independent Training -->
     <g transform="translate(497.300937 306.344745) scale(0.18 -0.18)">
      <defs>
       <path id="DejaVuSans-49" d="M 628 4666 
L 1259 4666 
L 1259 0 
L 628 0 
L 628 4666 
z
" transform="scale(0.015625)"/>
       <path id="DejaVuSans-70" d="M 1159 525 
L 1159 -1331 
L 581 -1331 
L 581 3500 
L 1159 3500 
L 1159 2969 
Q 1341 3281 1617 3432 
Q 1894 3584 2278 3584 
Q 2916 3584 3314 3078 
Q 3713 2572 3713 1747 
Q 3713 922 3314 415 
Q 2916 -91 2278 -91 
Q 1894 -91 1617 61 
Q 1341 213 1159 525 
z
M 3116 1747 
Q 3116 2381 2855 2742 
Q 2594 3103 2138 3103 
Q 1681 3103 1420 2742 
Q 1159 2381 1159 1747 
Q 1159 1113 1420 752 
Q 1681 391 2138 391 
Q 2594 391 2855 752 
Q 3116 1113 3116 1747 
z
" transform="scale(0.015625)"/>
       <path id="DejaVuSans-74" d="M 1172 4494 
L 1172 3500 
L 2356 3500 
L 2356 3053 
L 1172 3053 
L 1172 1153 
Q 1172 725 1289 603 
Q 1406 481 1766 481 
L 2356 481 
L 2356 0 
L 1766 0 
Q 1100 0 847 248 
Q 594 497 594 1153 
L 594 3053 
L 172 3053 
L 172 3500 
L 594 3500 
L 594 4494 
L 1172 4494 
z
" transform="scale(0.015625)"/>
       <path id="DejaVuSans-54" d="M -19 4666 
L 3928 4666 
L 3928 4134 
L 2272 4134 
L 2272 0 
L 1638 0 
L 1638 4134 
L -19 4134 
L -19 4666 
z
" transform="scale(0.015625)"/>
       <path id="DejaVuSans-67" d="M 2906 1791 
Q 2906 2416 2648 2759 
Q 2391 3103 1925 3103 
Q 1463 3103 1205 2759 
Q 947 2416 947 1791 
Q 947 1169 1205 825 
Q 1463 481 1925 481 
Q 2391 481 2648 825 
Q 2906 1169 2906 1791 
z
M 3481 434 
Q 3481 -459 3084 -895 
Q 2688 -1331 1869 -1331 
Q 1566 -1331 1297 -1286 
Q 1028 -1241 775 -1147 
L 775 -588 
Q 1028 -725 1275 -790 
Q 1522 -856 1778 -856 
Q 2344 -856 2625 -561 
Q 2906 -266 2906 331 
L 2906 616 
Q 2728 306 2450 153 
Q 2172 0 1784 0 
Q 1141 0 747 490 
Q 353 981 353 1791 
Q 353 2603 747 3093 
Q 1141 3584 1784 3584 
Q 2172 3584 2450 3431 
Q 2728 3278 2906 2969 
L 2906 3500 
L 3481 3500 
L 3481 434 
z
" transform="scale(0.015625)"/>
      </defs>
      <use xlink:href="#DejaVuSans-49"/>
      <use xlink:href="#DejaVuSans-6e" x="29.492188"/>
      <use xlink:href="#DejaVuSans-64" x="92.871094"/>
      <use xlink:href="#DejaVuSans-65" x="156.347656"/>
      <use xlink:href="#DejaVuSans-70" x="217.871094"/>
      <use xlink:href="#DejaVuSans-65" x="281.347656"/>
      <use xlink:href="#DejaVuSans-6e" x="342.871094"/>
      <use xlink:href="#DejaVuSans-64" x="406.25"/>
      <use xlink:href="#DejaVuSans-65" x="469.726562"/>
      <use xlink:href="#DejaVuSans-6e" x="531.25"/>
      <use xlink:href="#DejaVuSans-74" x="594.628906"/>
      <use xlink:href="#DejaVuSans-20" x="633.837891"/>
      <use xlink:href="#DejaVuSans-54" x="665.625"/>
      <use xlink:href="#DejaVuSans-72" x="711.958984"/>
      <use xlink:href="#DejaVuSans-61" x="753.072266"/>
      <use xlink:href="#DejaVuSans-69" x="814.351562"/>
      <use xlink:href="#DejaVuSans-6e" x="842.134766"/>
      <use xlink:href="#DejaVuSans-69" x="905.513672"/>
      <use xlink:href="#DejaVuSans-6e" x="933.296875"/>
      <use xlink:href="#DejaVuSans-67" x="996.675781"/>
     </g>
    </g>
    <g id="line2d_40">
     <path d="M 446.900937 326.46537 
L 464.900937 326.46537 
L 482.900937 326.46537 
" style="fill: none; stroke-dasharray: 5.55,2.4; stroke-dashoffset: 0; stroke: #beaed4; stroke-width: 1.5"/>
    </g>
    <g id="text_12">
     <!-- Multi-task Training -->
     <g transform="translate(497.300937 332.76537) scale(0.18 -0.18)">
      <defs>
       <path id="DejaVuSans-4d" d="M 628 4666 
L 1569 4666 
L 2759 1491 
L 3956 4666 
L 4897 4666 
L 4897 0 
L 4281 0 
L 4281 4097 
L 3078 897 
L 2444 897 
L 1241 4097 
L 1241 0 
L 628 0 
L 628 4666 
z
" transform="scale(0.015625)"/>
       <path id="DejaVuSans-2d" d="M 313 2009 
L 1997 2009 
L 1997 1497 
L 313 1497 
L 313 2009 
z
" transform="scale(0.015625)"/>
       <path id="DejaVuSans-6b" d="M 581 4863 
L 1159 4863 
L 1159 1991 
L 2875 3500 
L 3609 3500 
L 1753 1863 
L 3688 0 
L 2938 0 
L 1159 1709 
L 1159 0 
L 581 0 
L 581 4863 
z
" transform="scale(0.015625)"/>
      </defs>
      <use xlink:href="#DejaVuSans-4d"/>
      <use xlink:href="#DejaVuSans-75" x="86.279297"/>
      <use xlink:href="#DejaVuSans-6c" x="149.658203"/>
      <use xlink:href="#DejaVuSans-74" x="177.441406"/>
      <use xlink:href="#DejaVuSans-69" x="216.650391"/>
      <use xlink:href="#DejaVuSans-2d" x="244.433594"/>
      <use xlink:href="#DejaVuSans-74" x="280.517578"/>
      <use xlink:href="#DejaVuSans-61" x="319.726562"/>
      <use xlink:href="#DejaVuSans-73" x="381.005859"/>
      <use xlink:href="#DejaVuSans-6b" x="433.105469"/>
      <use xlink:href="#DejaVuSans-20" x="491.015625"/>
      <use xlink:href="#DejaVuSans-54" x="522.802734"/>
      <use xlink:href="#DejaVuSans-72" x="569.136719"/>
      <use xlink:href="#DejaVuSans-61" x="610.25"/>
      <use xlink:href="#DejaVuSans-69" x="671.529297"/>
      <use xlink:href="#DejaVuSans-6e" x="699.3125"/>
      <use xlink:href="#DejaVuSans-69" x="762.691406"/>
      <use xlink:href="#DejaVuSans-6e" x="790.474609"/>
      <use xlink:href="#DejaVuSans-67" x="853.853516"/>
     </g>
    </g>
    <g id="line2d_41">
     <path d="M 446.900937 352.885995 
L 464.900937 352.885995 
L 482.900937 352.885995 
" style="fill: none; stroke: #7fc97f; stroke-width: 1.5; stroke-linecap: square"/>
    </g>
    <g id="text_13">
     <!-- Random -->
     <g transform="translate(497.300937 359.185995) scale(0.18 -0.18)">
      <use xlink:href="#DejaVuSans-52"/>
      <use xlink:href="#DejaVuSans-61" x="67.232422"/>
      <use xlink:href="#DejaVuSans-6e" x="128.511719"/>
      <use xlink:href="#DejaVuSans-64" x="191.890625"/>
      <use xlink:href="#DejaVuSans-6f" x="255.367188"/>
      <use xlink:href="#DejaVuSans-6d" x="316.548828"/>
     </g>
    </g>
    <g id="line2d_42">
     <path d="M 446.900937 379.30662 
L 464.900937 379.30662 
L 482.900937 379.30662 
" style="fill: none; stroke: #bf5b17; stroke-width: 1.5; stroke-linecap: square"/>
    </g>
    <g id="text_14">
     <!-- GP-MBTL -->
     <g transform="translate(497.300937 385.60662) scale(0.18 -0.18)">
      <defs>
       <path id="DejaVuSans-47" d="M 3809 666 
L 3809 1919 
L 2778 1919 
L 2778 2438 
L 4434 2438 
L 4434 434 
Q 4069 175 3628 42 
Q 3188 -91 2688 -91 
Q 1594 -91 976 548 
Q 359 1188 359 2328 
Q 359 3472 976 4111 
Q 1594 4750 2688 4750 
Q 3144 4750 3555 4637 
Q 3966 4525 4313 4306 
L 4313 3634 
Q 3963 3931 3569 4081 
Q 3175 4231 2741 4231 
Q 1884 4231 1454 3753 
Q 1025 3275 1025 2328 
Q 1025 1384 1454 906 
Q 1884 428 2741 428 
Q 3075 428 3337 486 
Q 3600 544 3809 666 
z
" transform="scale(0.015625)"/>
       <path id="DejaVuSans-42" d="M 1259 2228 
L 1259 519 
L 2272 519 
Q 2781 519 3026 730 
Q 3272 941 3272 1375 
Q 3272 1813 3026 2020 
Q 2781 2228 2272 2228 
L 1259 2228 
z
M 1259 4147 
L 1259 2741 
L 2194 2741 
Q 2656 2741 2882 2914 
Q 3109 3088 3109 3444 
Q 3109 3797 2882 3972 
Q 2656 4147 2194 4147 
L 1259 4147 
z
M 628 4666 
L 2241 4666 
Q 2963 4666 3353 4366 
Q 3744 4066 3744 3513 
Q 3744 3084 3544 2831 
Q 3344 2578 2956 2516 
Q 3422 2416 3680 2098 
Q 3938 1781 3938 1306 
Q 3938 681 3513 340 
Q 3088 0 2303 0 
L 628 0 
L 628 4666 
z
" transform="scale(0.015625)"/>
       <path id="DejaVuSans-4c" d="M 628 4666 
L 1259 4666 
L 1259 531 
L 3531 531 
L 3531 0 
L 628 0 
L 628 4666 
z
" transform="scale(0.015625)"/>
      </defs>
      <use xlink:href="#DejaVuSans-47"/>
      <use xlink:href="#DejaVuSans-50" x="77.490234"/>
      <use xlink:href="#DejaVuSans-2d" x="135.542969"/>
      <use xlink:href="#DejaVuSans-4d" x="171.626953"/>
      <use xlink:href="#DejaVuSans-42" x="257.90625"/>
      <use xlink:href="#DejaVuSans-54" x="326.509766"/>
      <use xlink:href="#DejaVuSans-4c" x="387.59375"/>
     </g>
    </g>
    <g id="line2d_43">
     <path d="M 446.900937 405.727245 
L 464.900937 405.727245 
L 482.900937 405.727245 
" style="fill: none; stroke: #f0027f; stroke-width: 1.5; stroke-linecap: square"/>
    </g>
    <g id="text_15">
     <!-- SC-MBTL -->
     <g transform="translate(497.300937 412.027245) scale(0.18 -0.18)">
      <defs>
       <path id="DejaVuSans-53" d="M 3425 4513 
L 3425 3897 
Q 3066 4069 2747 4153 
Q 2428 4238 2131 4238 
Q 1616 4238 1336 4038 
Q 1056 3838 1056 3469 
Q 1056 3159 1242 3001 
Q 1428 2844 1947 2747 
L 2328 2669 
Q 3034 2534 3370 2195 
Q 3706 1856 3706 1288 
Q 3706 609 3251 259 
Q 2797 -91 1919 -91 
Q 1588 -91 1214 -16 
Q 841 59 441 206 
L 441 856 
Q 825 641 1194 531 
Q 1563 422 1919 422 
Q 2459 422 2753 634 
Q 3047 847 3047 1241 
Q 3047 1584 2836 1778 
Q 2625 1972 2144 2069 
L 1759 2144 
Q 1053 2284 737 2584 
Q 422 2884 422 3419 
Q 422 4038 858 4394 
Q 1294 4750 2059 4750 
Q 2388 4750 2728 4690 
Q 3069 4631 3425 4513 
z
" transform="scale(0.015625)"/>
       <path id="DejaVuSans-43" d="M 4122 4306 
L 4122 3641 
Q 3803 3938 3442 4084 
Q 3081 4231 2675 4231 
Q 1875 4231 1450 3742 
Q 1025 3253 1025 2328 
Q 1025 1406 1450 917 
Q 1875 428 2675 428 
Q 3081 428 3442 575 
Q 3803 722 4122 1019 
L 4122 359 
Q 3791 134 3420 21 
Q 3050 -91 2638 -91 
Q 1578 -91 968 557 
Q 359 1206 359 2328 
Q 359 3453 968 4101 
Q 1578 4750 2638 4750 
Q 3056 4750 3426 4639 
Q 3797 4528 4122 4306 
z
" transform="scale(0.015625)"/>
      </defs>
      <use xlink:href="#DejaVuSans-53"/>
      <use xlink:href="#DejaVuSans-43" x="63.476562"/>
      <use xlink:href="#DejaVuSans-2d" x="133.300781"/>
      <use xlink:href="#DejaVuSans-4d" x="169.384766"/>
      <use xlink:href="#DejaVuSans-42" x="255.664062"/>
      <use xlink:href="#DejaVuSans-54" x="324.267578"/>
      <use xlink:href="#DejaVuSans-4c" x="385.351562"/>
     </g>
    </g>
    <g id="line2d_44">
     <path d="M 446.900937 432.14787 
L 464.900937 432.14787 
L 482.900937 432.14787 
" style="fill: none; stroke: #386cb0; stroke-width: 1.5; stroke-linecap: square"/>
    </g>
    <g id="text_16">
     <!-- Hybrid-MBTL (Ours) -->
     <g transform="translate(497.300937 438.44787) scale(0.18 -0.18)">
      <defs>
       <path id="DejaVuSans-48" d="M 628 4666 
L 1259 4666 
L 1259 2753 
L 3553 2753 
L 3553 4666 
L 4184 4666 
L 4184 0 
L 3553 0 
L 3553 2222 
L 1259 2222 
L 1259 0 
L 628 0 
L 628 4666 
z
" transform="scale(0.015625)"/>
       <path id="DejaVuSans-79" d="M 2059 -325 
Q 1816 -950 1584 -1140 
Q 1353 -1331 966 -1331 
L 506 -1331 
L 506 -850 
L 844 -850 
Q 1081 -850 1212 -737 
Q 1344 -625 1503 -206 
L 1606 56 
L 191 3500 
L 800 3500 
L 1894 763 
L 2988 3500 
L 3597 3500 
L 2059 -325 
z
" transform="scale(0.015625)"/>
       <path id="DejaVuSans-62" d="M 3116 1747 
Q 3116 2381 2855 2742 
Q 2594 3103 2138 3103 
Q 1681 3103 1420 2742 
Q 1159 2381 1159 1747 
Q 1159 1113 1420 752 
Q 1681 391 2138 391 
Q 2594 391 2855 752 
Q 3116 1113 3116 1747 
z
M 1159 2969 
Q 1341 3281 1617 3432 
Q 1894 3584 2278 3584 
Q 2916 3584 3314 3078 
Q 3713 2572 3713 1747 
Q 3713 922 3314 415 
Q 2916 -91 2278 -91 
Q 1894 -91 1617 61 
Q 1341 213 1159 525 
L 1159 0 
L 581 0 
L 581 4863 
L 1159 4863 
L 1159 2969 
z
" transform="scale(0.015625)"/>
       <path id="DejaVuSans-28" d="M 1984 4856 
Q 1566 4138 1362 3434 
Q 1159 2731 1159 2009 
Q 1159 1288 1364 580 
Q 1569 -128 1984 -844 
L 1484 -844 
Q 1016 -109 783 600 
Q 550 1309 550 2009 
Q 550 2706 781 3412 
Q 1013 4119 1484 4856 
L 1984 4856 
z
" transform="scale(0.015625)"/>
       <path id="DejaVuSans-4f" d="M 2522 4238 
Q 1834 4238 1429 3725 
Q 1025 3213 1025 2328 
Q 1025 1447 1429 934 
Q 1834 422 2522 422 
Q 3209 422 3611 934 
Q 4013 1447 4013 2328 
Q 4013 3213 3611 3725 
Q 3209 4238 2522 4238 
z
M 2522 4750 
Q 3503 4750 4090 4092 
Q 4678 3434 4678 2328 
Q 4678 1225 4090 567 
Q 3503 -91 2522 -91 
Q 1538 -91 948 565 
Q 359 1222 359 2328 
Q 359 3434 948 4092 
Q 1538 4750 2522 4750 
z
" transform="scale(0.015625)"/>
       <path id="DejaVuSans-29" d="M 513 4856 
L 1013 4856 
Q 1481 4119 1714 3412 
Q 1947 2706 1947 2009 
Q 1947 1309 1714 600 
Q 1481 -109 1013 -844 
L 513 -844 
Q 928 -128 1133 580 
Q 1338 1288 1338 2009 
Q 1338 2731 1133 3434 
Q 928 4138 513 4856 
z
" transform="scale(0.015625)"/>
      </defs>
      <use xlink:href="#DejaVuSans-48"/>
      <use xlink:href="#DejaVuSans-79" x="75.195312"/>
      <use xlink:href="#DejaVuSans-62" x="134.375"/>
      <use xlink:href="#DejaVuSans-72" x="197.851562"/>
      <use xlink:href="#DejaVuSans-69" x="238.964844"/>
      <use xlink:href="#DejaVuSans-64" x="266.748047"/>
      <use xlink:href="#DejaVuSans-2d" x="330.224609"/>
      <use xlink:href="#DejaVuSans-4d" x="366.308594"/>
      <use xlink:href="#DejaVuSans-42" x="452.587891"/>
      <use xlink:href="#DejaVuSans-54" x="521.191406"/>
      <use xlink:href="#DejaVuSans-4c" x="582.275391"/>
      <use xlink:href="#DejaVuSans-20" x="637.988281"/>
      <use xlink:href="#DejaVuSans-28" x="669.775391"/>
      <use xlink:href="#DejaVuSans-4f" x="708.789062"/>
      <use xlink:href="#DejaVuSans-75" x="787.5"/>
      <use xlink:href="#DejaVuSans-72" x="850.878906"/>
      <use xlink:href="#DejaVuSans-73" x="891.992188"/>
      <use xlink:href="#DejaVuSans-29" x="944.091797"/>
     </g>
    </g>
    <g id="line2d_45">
     <path d="M 446.900937 458.568495 
L 464.900937 458.568495 
L 482.900937 458.568495 
" style="fill: none; stroke: #ffff99; stroke-width: 1.5; stroke-linecap: square"/>
    </g>
    <g id="text_17">
     <!-- Hybrid-MBTL-new (Ours) -->
     <g transform="translate(497.300937 464.868495) scale(0.18 -0.18)">
      <defs>
       <path id="DejaVuSans-77" d="M 269 3500 
L 844 3500 
L 1563 769 
L 2278 3500 
L 2956 3500 
L 3675 769 
L 4391 3500 
L 4966 3500 
L 4050 0 
L 3372 0 
L 2619 2869 
L 1863 0 
L 1184 0 
L 269 3500 
z
" transform="scale(0.015625)"/>
      </defs>
      <use xlink:href="#DejaVuSans-48"/>
      <use xlink:href="#DejaVuSans-79" x="75.195312"/>
      <use xlink:href="#DejaVuSans-62" x="134.375"/>
      <use xlink:href="#DejaVuSans-72" x="197.851562"/>
      <use xlink:href="#DejaVuSans-69" x="238.964844"/>
      <use xlink:href="#DejaVuSans-64" x="266.748047"/>
      <use xlink:href="#DejaVuSans-2d" x="330.224609"/>
      <use xlink:href="#DejaVuSans-4d" x="366.308594"/>
      <use xlink:href="#DejaVuSans-42" x="452.587891"/>
      <use xlink:href="#DejaVuSans-54" x="521.191406"/>
      <use xlink:href="#DejaVuSans-4c" x="582.275391"/>
      <use xlink:href="#DejaVuSans-2d" x="636.238281"/>
      <use xlink:href="#DejaVuSans-6e" x="672.322266"/>
      <use xlink:href="#DejaVuSans-65" x="735.701172"/>
      <use xlink:href="#DejaVuSans-77" x="797.224609"/>
      <use xlink:href="#DejaVuSans-20" x="879.011719"/>
      <use xlink:href="#DejaVuSans-28" x="910.798828"/>
      <use xlink:href="#DejaVuSans-4f" x="949.8125"/>
      <use xlink:href="#DejaVuSans-75" x="1028.523438"/>
      <use xlink:href="#DejaVuSans-72" x="1091.902344"/>
      <use xlink:href="#DejaVuSans-73" x="1133.015625"/>
      <use xlink:href="#DejaVuSans-29" x="1185.115234"/>
     </g>
    </g>
    <g id="line2d_46">
     <path d="M 446.900937 484.98912 
L 464.900937 484.98912 
L 482.900937 484.98912 
" style="fill: none; stroke-dasharray: 5.55,2.4; stroke-dashoffset: 0; stroke: #666666; stroke-width: 1.5"/>
    </g>
    <g id="text_18">
     <!-- Stochastic Oracle -->
     <g transform="translate(497.300937 491.28912) scale(0.18 -0.18)">
      <defs>
       <path id="DejaVuSans-68" d="M 3513 2113 
L 3513 0 
L 2938 0 
L 2938 2094 
Q 2938 2591 2744 2837 
Q 2550 3084 2163 3084 
Q 1697 3084 1428 2787 
Q 1159 2491 1159 1978 
L 1159 0 
L 581 0 
L 581 4863 
L 1159 4863 
L 1159 2956 
Q 1366 3272 1645 3428 
Q 1925 3584 2291 3584 
Q 2894 3584 3203 3211 
Q 3513 2838 3513 2113 
z
" transform="scale(0.015625)"/>
      </defs>
      <use xlink:href="#DejaVuSans-53"/>
      <use xlink:href="#DejaVuSans-74" x="63.476562"/>
      <use xlink:href="#DejaVuSans-6f" x="102.685547"/>
      <use xlink:href="#DejaVuSans-63" x="163.867188"/>
      <use xlink:href="#DejaVuSans-68" x="218.847656"/>
      <use xlink:href="#DejaVuSans-61" x="282.226562"/>
      <use xlink:href="#DejaVuSans-73" x="343.505859"/>
      <use xlink:href="#DejaVuSans-74" x="395.605469"/>
      <use xlink:href="#DejaVuSans-69" x="434.814453"/>
      <use xlink:href="#DejaVuSans-63" x="462.597656"/>
      <use xlink:href="#DejaVuSans-20" x="517.578125"/>
      <use xlink:href="#DejaVuSans-4f" x="549.365234"/>
      <use xlink:href="#DejaVuSans-72" x="628.076172"/>
      <use xlink:href="#DejaVuSans-61" x="669.189453"/>
      <use xlink:href="#DejaVuSans-63" x="730.46875"/>
      <use xlink:href="#DejaVuSans-6c" x="785.449219"/>
      <use xlink:href="#DejaVuSans-65" x="813.232422"/>
     </g>
    </g>
   </g>
  </g>
 </g>
 <defs>
  <clipPath id="p90a7d09f78">
   <rect x="64.24625" y="12.272558" width="669.6" height="498.96"/>
  </clipPath>
 </defs>
</svg>
