<?xml version="1.0" encoding="utf-8" standalone="no"?>
<!DOCTYPE svg PUBLIC "-//W3C//DTD SVG 1.1//EN"
  "http://www.w3.org/Graphics/SVG/1.1/DTD/svg11.dtd">
<svg xmlns:xlink="http://www.w3.org/1999/xlink" width="741.04625pt" height="559.20125pt" viewBox="0 0 741.04625 559.20125" xmlns="http://www.w3.org/2000/svg" version="1.1">
 <metadata>
  <rdf:RDF xmlns:dc="http://purl.org/dc/elements/1.1/" xmlns:cc="http://creativecommons.org/ns#" xmlns:rdf="http://www.w3.org/1999/02/22-rdf-syntax-ns#">
   <cc:Work>
    <dc:type rdf:resource="http://purl.org/dc/dcmitype/StillImage"/>
    <dc:date>2025-02-26T00:51:00.485671</dc:date>
    <dc:format>image/svg+xml</dc:format>
    <dc:creator>
     <cc:Agent>
      <dc:title>Matplotlib v3.9.4, https://matplotlib.org/</dc:title>
     </cc:Agent>
    </dc:creator>
   </cc:Work>
  </rdf:RDF>
 </metadata>
 <defs>
  <style type="text/css">*{stroke-linejoin: round; stroke-linecap: butt}</style>
 </defs>
 <g id="figure_1">
  <g id="patch_1">
   <path d="M 0 559.20125 
L 741.04625 559.20125 
L 741.04625 0 
L 0 0 
z
" style="fill: #ffffff"/>
  </g>
  <g id="axes_1">
   <g id="patch_2">
    <path d="M 64.24625 506.16 
L 733.84625 506.16 
L 733.84625 7.2 
L 64.24625 7.2 
z
" style="fill: #ffffff"/>
   </g>
   <g id="PolyCollection_1">
    <defs>
     <path id="m4cb4f8c6c3" d="M 94.682614 -461.866077 
L 94.682614 -75.72125 
L 202.539237 -309.197487 
L 265.631318 -454.967495 
L 310.395861 -474.784614 
L 345.117938 -486.677459 
L 373.487941 -490.5678 
L 397.474437 -491.868182 
L 418.252484 -493.348409 
L 436.580021 -495.437762 
L 452.974562 -497.583257 
L 467.805228 -499.047778 
L 481.344565 -499.401036 
L 493.799547 -501.230881 
L 505.33106 -502.905423 
L 516.066642 -504.397284 
L 526.109108 -504.630324 
L 535.542555 -505.639838 
L 544.436645 -505.697673 
L 552.849733 -506.174467 
L 560.831185 -506.269593 
L 568.423141 -507.831619 
L 575.661851 -507.938299 
L 582.578733 -508.170901 
L 589.201188 -508.600555 
L 595.553263 -508.864447 
L 601.656171 -509.748014 
L 607.528725 -509.846928 
L 613.187684 -509.982854 
L 618.648041 -510.131859 
L 623.923266 -510.135189 
L 629.0255 -510.172838 
L 633.965732 -510.175852 
L 638.753931 -510.604137 
L 643.399178 -510.63906 
L 647.909761 -510.660099 
L 652.293269 -510.699286 
L 656.556664 -511.198117 
L 660.706356 -511.199067 
L 664.748251 -511.296536 
L 668.687809 -511.421221 
L 672.530084 -511.939157 
L 676.279764 -511.988549 
L 679.941209 -512.030906 
L 683.518475 -512.05268 
L 687.015346 -512.099787 
L 690.435356 -512.112925 
L 693.781813 -512.326123 
L 697.057812 -512.337376 
L 700.26626 -512.408259 
L 703.409886 -512.411198 
L 703.409886 -514.686211 
L 703.409886 -514.686211 
L 700.26626 -514.685969 
L 697.057812 -514.682561 
L 693.781813 -514.682932 
L 690.435356 -514.600548 
L 687.015346 -514.601824 
L 683.518475 -514.604612 
L 679.941209 -514.607925 
L 676.279764 -514.616179 
L 672.530084 -514.611772 
L 668.687809 -514.612392 
L 664.748251 -514.543531 
L 660.706356 -514.557409 
L 656.556664 -514.554722 
L 652.293269 -514.618801 
L 647.909761 -514.615286 
L 643.399178 -514.607295 
L 638.753931 -514.604889 
L 633.965732 -514.473616 
L 629.0255 -514.472993 
L 623.923266 -514.485024 
L 618.648041 -514.465731 
L 613.187684 -514.483139 
L 607.528725 -514.514625 
L 601.656171 -514.418056 
L 595.553263 -513.095377 
L 589.201188 -513.097694 
L 582.578733 -512.795477 
L 575.661851 -512.849155 
L 568.423141 -512.886068 
L 560.831185 -512.818 
L 552.849733 -512.85138 
L 544.436645 -512.977085 
L 535.542555 -512.981324 
L 526.109108 -513.069623 
L 516.066642 -513.09104 
L 505.33106 -512.866876 
L 493.799547 -512.929374 
L 481.344565 -513.389481 
L 467.805228 -513.40434 
L 452.974562 -513.855998 
L 436.580021 -514.395038 
L 418.252484 -515.420643 
L 397.474437 -515.77814 
L 373.487941 -516.008038 
L 345.117938 -517.273922 
L 310.395861 -520.54075 
L 265.631318 -523.479954 
L 202.539237 -529.32125 
L 94.682614 -461.866077 
z
" style="stroke: #ff0000; stroke-opacity: 0.1"/>
    </defs>
    <g clip-path="url(#p6f4e1a8510)">
     <use xlink:href="#m4cb4f8c6c3" x="0" y="559.20125" style="fill: #ff0000; fill-opacity: 0.1; stroke: #ff0000; stroke-opacity: 0.1"/>
    </g>
   </g>
   <g id="PolyCollection_2">
    <defs>
     <path id="m45eda3770a" d="M 94.682614 -461.866077 
L 94.682614 -75.72125 
L 202.539237 -309.197487 
L 265.631318 -454.967495 
L 310.395861 -474.784614 
L 345.117938 -486.677459 
L 373.487941 -490.5678 
L 397.474437 -491.865946 
L 418.252484 -493.351408 
L 436.580021 -495.430415 
L 452.974562 -497.585324 
L 467.805228 -499.047856 
L 481.344565 -499.395949 
L 493.799547 -501.272736 
L 505.33106 -502.91362 
L 516.066642 -504.360043 
L 526.109108 -504.530145 
L 535.542555 -505.538806 
L 544.436645 -505.585433 
L 552.849733 -506.060312 
L 560.831185 -506.157203 
L 568.423141 -507.718647 
L 575.661851 -507.8487 
L 582.578733 -508.092008 
L 589.201188 -508.55408 
L 595.553263 -508.822139 
L 601.656171 -509.848894 
L 607.528725 -509.877395 
L 613.187684 -509.998728 
L 618.648041 -510.145416 
L 623.923266 -510.145416 
L 629.0255 -510.181465 
L 633.965732 -510.181633 
L 638.753931 -510.626131 
L 643.399178 -510.631995 
L 647.909761 -510.635494 
L 652.293269 -510.681771 
L 656.556664 -511.189433 
L 660.706356 -511.189433 
L 664.748251 -511.284714 
L 668.687809 -511.424769 
L 672.530084 -511.969209 
L 676.279764 -511.983136 
L 679.941209 -512.025036 
L 683.518475 -512.047342 
L 687.015346 -512.097141 
L 690.435356 -512.110404 
L 693.781813 -512.332151 
L 697.057812 -512.34332 
L 700.26626 -512.417048 
L 703.409886 -512.419684 
L 703.409886 -514.701951 
L 703.409886 -514.701951 
L 700.26626 -514.702324 
L 697.057812 -514.697919 
L 693.781813 -514.698422 
L 690.435356 -514.603342 
L 687.015346 -514.605002 
L 683.518475 -514.606574 
L 679.941209 -514.609634 
L 676.279764 -514.621339 
L 672.530084 -514.623179 
L 668.687809 -514.625465 
L 664.748251 -514.543888 
L 660.706356 -514.558408 
L 656.556664 -514.558408 
L 652.293269 -514.617707 
L 647.909761 -514.616081 
L 643.399178 -514.616298 
L 638.753931 -514.619802 
L 633.965732 -514.48073 
L 629.0255 -514.480799 
L 623.923266 -514.495016 
L 618.648041 -514.495016 
L 613.187684 -514.520471 
L 607.528725 -514.555039 
L 601.656171 -514.565762 
L 595.553263 -513.039218 
L 589.201188 -513.095436 
L 582.578733 -512.776334 
L 575.661851 -512.828011 
L 568.423141 -512.871539 
L 560.831185 -512.782566 
L 552.849733 -512.814389 
L 544.436645 -512.93422 
L 535.542555 -512.958887 
L 526.109108 -513.064815 
L 516.066642 -513.121397 
L 505.33106 -512.844623 
L 493.799547 -512.909231 
L 481.344565 -513.35362 
L 467.805228 -513.381657 
L 452.974562 -513.829949 
L 436.580021 -514.363013 
L 418.252484 -515.414995 
L 397.474437 -515.768765 
L 373.487941 -516.008038 
L 345.117938 -517.273922 
L 310.395861 -520.54075 
L 265.631318 -523.479954 
L 202.539237 -529.32125 
L 94.682614 -461.866077 
z
" style="stroke: #ff7f50; stroke-opacity: 0.1"/>
    </defs>
    <g clip-path="url(#p6f4e1a8510)">
     <use xlink:href="#m45eda3770a" x="0" y="559.20125" style="fill: #ff7f50; fill-opacity: 0.1; stroke: #ff7f50; stroke-opacity: 0.1"/>
    </g>
   </g>
   <g id="PolyCollection_3">
    <defs>
     <path id="m2479c1f9eb" d="M 94.682614 -461.866077 
L 94.682614 -75.72125 
L 202.539237 -290.50246 
L 265.631318 -385.914831 
L 310.395861 -430.527869 
L 345.117938 -460.169624 
L 373.487941 -472.605284 
L 397.474437 -485.62271 
L 418.252484 -491.655468 
L 436.580021 -495.625801 
L 452.974562 -499.190413 
L 467.805228 -501.050054 
L 481.344565 -502.513535 
L 493.799547 -503.809952 
L 505.33106 -504.887873 
L 516.066642 -505.802667 
L 526.109108 -506.461272 
L 535.542555 -507.254102 
L 544.436645 -507.92867 
L 552.849733 -508.510076 
L 560.831185 -508.777488 
L 568.423141 -509.293342 
L 575.661851 -509.608568 
L 582.578733 -509.997232 
L 589.201188 -510.205108 
L 595.553263 -510.379015 
L 601.656171 -510.75927 
L 607.528725 -510.851254 
L 613.187684 -511.004214 
L 618.648041 -511.087741 
L 623.923266 -511.414403 
L 629.0255 -511.625065 
L 633.965732 -511.750371 
L 638.753931 -511.864688 
L 643.399178 -511.957811 
L 647.909761 -512.089449 
L 652.293269 -512.184791 
L 656.556664 -512.37376 
L 660.706356 -512.539472 
L 664.748251 -512.606598 
L 668.687809 -512.652062 
L 672.530084 -512.703716 
L 676.279764 -512.77109 
L 679.941209 -512.817295 
L 683.518475 -512.864179 
L 687.015346 -512.926245 
L 690.435356 -512.965961 
L 693.781813 -513.01709 
L 697.057812 -513.08906 
L 700.26626 -513.132711 
L 703.409886 -513.207355 
L 703.409886 -515.082803 
L 703.409886 -515.082803 
L 700.26626 -515.081443 
L 697.057812 -515.071212 
L 693.781813 -515.06209 
L 690.435356 -515.062434 
L 687.015346 -515.031837 
L 683.518475 -515.021071 
L 679.941209 -515.003262 
L 676.279764 -514.992241 
L 672.530084 -514.97849 
L 668.687809 -514.952756 
L 664.748251 -514.947666 
L 660.706356 -514.906009 
L 656.556664 -514.825802 
L 652.293269 -514.800183 
L 647.909761 -514.750567 
L 643.399178 -514.69004 
L 638.753931 -514.662833 
L 633.965732 -514.642036 
L 629.0255 -514.599634 
L 623.923266 -514.5245 
L 618.648041 -514.618098 
L 613.187684 -514.539616 
L 607.528725 -514.507617 
L 601.656171 -514.432386 
L 595.553263 -514.553593 
L 589.201188 -514.488389 
L 582.578733 -514.398347 
L 575.661851 -514.395216 
L 568.423141 -514.303671 
L 560.831185 -514.420326 
L 552.849733 -514.329605 
L 544.436645 -514.129019 
L 535.542555 -514.197414 
L 526.109108 -514.045464 
L 516.066642 -513.910638 
L 505.33106 -513.894281 
L 493.799547 -514.171966 
L 481.344565 -514.174365 
L 467.805228 -513.941101 
L 452.974562 -514.218026 
L 436.580021 -514.614121 
L 418.252484 -515.297428 
L 397.474437 -515.437949 
L 373.487941 -518.292817 
L 345.117938 -518.403897 
L 310.395861 -521.491721 
L 265.631318 -523.097925 
L 202.539237 -515.839765 
L 94.682614 -461.866077 
z
" style="stroke: #8a2be2; stroke-opacity: 0.1"/>
    </defs>
    <g clip-path="url(#p6f4e1a8510)">
     <use xlink:href="#m2479c1f9eb" x="0" y="559.20125" style="fill: #8a2be2; fill-opacity: 0.1; stroke: #8a2be2; stroke-opacity: 0.1"/>
    </g>
   </g>
   <g id="PolyCollection_4">
    <defs>
     <path id="m4c4a31d03b" d="M 94.682614 -433.729843 
L 94.682614 -162.77406 
L 202.539237 -326.152543 
L 265.631318 -397.062743 
L 310.395861 -432.660676 
L 345.117938 -455.07623 
L 373.487941 -468.837892 
L 397.474437 -481.002001 
L 418.252484 -484.315483 
L 436.580021 -487.968922 
L 452.974562 -490.965346 
L 467.805228 -494.275331 
L 481.344565 -496.589608 
L 493.799547 -498.201617 
L 505.33106 -499.626125 
L 516.066642 -500.808395 
L 526.109108 -502.274046 
L 535.542555 -503.881653 
L 544.436645 -504.441998 
L 552.849733 -504.879111 
L 560.831185 -505.60716 
L 568.423141 -506.781821 
L 575.661851 -507.101833 
L 582.578733 -507.637639 
L 589.201188 -507.927026 
L 595.553263 -508.154317 
L 601.656171 -508.653739 
L 607.528725 -509.252088 
L 613.187684 -509.383741 
L 618.648041 -509.570614 
L 623.923266 -509.767796 
L 629.0255 -509.897622 
L 633.965732 -510.269616 
L 638.753931 -510.427238 
L 643.399178 -510.779193 
L 647.909761 -510.8711 
L 652.293269 -511.186797 
L 656.556664 -511.382507 
L 660.706356 -511.542905 
L 664.748251 -511.718649 
L 668.687809 -511.809139 
L 672.530084 -511.900402 
L 676.279764 -511.948089 
L 679.941209 -511.973365 
L 683.518475 -512.192346 
L 687.015346 -512.332167 
L 690.435356 -512.402451 
L 693.781813 -512.460212 
L 697.057812 -512.51682 
L 700.26626 -512.556905 
L 703.409886 -512.623517 
L 703.409886 -514.75278 
L 703.409886 -514.75278 
L 700.26626 -514.741506 
L 697.057812 -514.718085 
L 693.781813 -514.708314 
L 690.435356 -514.708445 
L 687.015346 -514.710631 
L 683.518475 -514.735888 
L 679.941209 -514.772099 
L 676.279764 -514.742248 
L 672.530084 -514.715302 
L 668.687809 -514.680663 
L 664.748251 -514.61784 
L 660.706356 -514.612725 
L 656.556664 -514.593887 
L 652.293269 -514.583078 
L 647.909761 -514.585426 
L 643.399178 -514.54837 
L 638.753931 -514.648836 
L 633.965732 -514.572173 
L 629.0255 -514.430676 
L 623.923266 -514.368839 
L 618.648041 -514.340553 
L 613.187684 -514.238839 
L 607.528725 -514.137339 
L 601.656171 -514.175782 
L 595.553263 -514.182238 
L 589.201188 -514.211291 
L 582.578733 -514.043178 
L 575.661851 -514.082635 
L 568.423141 -513.988993 
L 560.831185 -514.115565 
L 552.849733 -514.063548 
L 544.436645 -513.980197 
L 535.542555 -513.963815 
L 526.109108 -513.88782 
L 516.066642 -513.601426 
L 505.33106 -513.72455 
L 493.799547 -513.148069 
L 481.344565 -512.645798 
L 467.805228 -512.543115 
L 452.974562 -512.106849 
L 436.580021 -510.827555 
L 418.252484 -509.2577 
L 397.474437 -507.578286 
L 373.487941 -505.760695 
L 345.117938 -503.598642 
L 310.395861 -502.082734 
L 265.631318 -499.965892 
L 202.539237 -482.567873 
L 94.682614 -433.729843 
z
" style="stroke: #008000; stroke-opacity: 0.1"/>
    </defs>
    <g clip-path="url(#p6f4e1a8510)">
     <use xlink:href="#m4c4a31d03b" x="0" y="559.20125" style="fill: #008000; fill-opacity: 0.1; stroke: #008000; stroke-opacity: 0.1"/>
    </g>
   </g>
   <g id="PolyCollection_5">
    <defs>
     <path id="mf070818969" d="M 94.682614 -461.233698 
L 94.682614 -458.492651 
L 202.539237 -458.492651 
L 265.631318 -458.492651 
L 310.395861 -458.492651 
L 345.117938 -458.492651 
L 373.487941 -458.492651 
L 397.474437 -458.492651 
L 418.252484 -458.492651 
L 436.580021 -458.492651 
L 452.974562 -458.492651 
L 467.805228 -458.492651 
L 481.344565 -458.492651 
L 493.799547 -458.492651 
L 505.33106 -458.492651 
L 516.066642 -458.492651 
L 526.109108 -458.492651 
L 535.542555 -458.492651 
L 544.436645 -458.492651 
L 552.849733 -458.492651 
L 560.831185 -458.492651 
L 568.423141 -458.492651 
L 575.661851 -458.492651 
L 582.578733 -458.492651 
L 589.201188 -458.492651 
L 595.553263 -458.492651 
L 601.656171 -458.492651 
L 607.528725 -458.492651 
L 613.187684 -458.492651 
L 618.648041 -458.492651 
L 623.923266 -458.492651 
L 629.0255 -458.492651 
L 633.965732 -458.492651 
L 638.753931 -458.492651 
L 643.399178 -458.492651 
L 647.909761 -458.492651 
L 652.293269 -458.492651 
L 656.556664 -458.492651 
L 660.706356 -458.492651 
L 664.748251 -458.492651 
L 668.687809 -458.492651 
L 672.530084 -458.492651 
L 676.279764 -458.492651 
L 679.941209 -458.492651 
L 683.518475 -458.492651 
L 687.015346 -458.492651 
L 690.435356 -458.492651 
L 693.781813 -458.492651 
L 697.057812 -458.492651 
L 700.26626 -458.492651 
L 703.409886 -458.492651 
L 703.409886 -461.233698 
L 703.409886 -461.233698 
L 700.26626 -461.233698 
L 697.057812 -461.233698 
L 693.781813 -461.233698 
L 690.435356 -461.233698 
L 687.015346 -461.233698 
L 683.518475 -461.233698 
L 679.941209 -461.233698 
L 676.279764 -461.233698 
L 672.530084 -461.233698 
L 668.687809 -461.233698 
L 664.748251 -461.233698 
L 660.706356 -461.233698 
L 656.556664 -461.233698 
L 652.293269 -461.233698 
L 647.909761 -461.233698 
L 643.399178 -461.233698 
L 638.753931 -461.233698 
L 633.965732 -461.233698 
L 629.0255 -461.233698 
L 623.923266 -461.233698 
L 618.648041 -461.233698 
L 613.187684 -461.233698 
L 607.528725 -461.233698 
L 601.656171 -461.233698 
L 595.553263 -461.233698 
L 589.201188 -461.233698 
L 582.578733 -461.233698 
L 575.661851 -461.233698 
L 568.423141 -461.233698 
L 560.831185 -461.233698 
L 552.849733 -461.233698 
L 544.436645 -461.233698 
L 535.542555 -461.233698 
L 526.109108 -461.233698 
L 516.066642 -461.233698 
L 505.33106 -461.233698 
L 493.799547 -461.233698 
L 481.344565 -461.233698 
L 467.805228 -461.233698 
L 452.974562 -461.233698 
L 436.580021 -461.233698 
L 418.252484 -461.233698 
L 397.474437 -461.233698 
L 373.487941 -461.233698 
L 345.117938 -461.233698 
L 310.395861 -461.233698 
L 265.631318 -461.233698 
L 202.539237 -461.233698 
L 94.682614 -461.233698 
z
" style="stroke: #0000ff; stroke-opacity: 0.1"/>
    </defs>
    <g clip-path="url(#p6f4e1a8510)">
     <use xlink:href="#mf070818969" x="0" y="559.20125" style="fill: #0000ff; fill-opacity: 0.1; stroke: #0000ff; stroke-opacity: 0.1"/>
    </g>
   </g>
   <g id="PolyCollection_6">
    <defs>
     <path id="md963d44faf" d="M 94.682614 -340.729846 
L 94.682614 -158.831113 
L 202.539237 -226.673055 
L 265.631318 -400.13821 
L 310.395861 -475.835707 
L 345.117938 -475.835707 
L 373.487941 -475.835707 
L 397.474437 -477.18456 
L 418.252484 -513.608184 
L 436.580021 -513.608184 
L 452.974562 -513.608184 
L 467.805228 -513.608184 
L 481.344565 -513.608184 
L 493.799547 -513.608184 
L 505.33106 -513.608184 
L 516.066642 -513.608184 
L 526.109108 -513.608184 
L 535.542555 -513.608184 
L 544.436645 -513.608184 
L 552.849733 -513.608184 
L 560.831185 -513.608184 
L 568.423141 -513.608184 
L 575.661851 -513.608184 
L 582.578733 -513.608184 
L 589.201188 -513.608184 
L 595.553263 -513.608184 
L 601.656171 -513.608184 
L 607.528725 -513.608184 
L 613.187684 -513.608184 
L 618.648041 -513.608184 
L 623.923266 -513.608184 
L 629.0255 -513.608184 
L 633.965732 -513.608184 
L 638.753931 -513.608184 
L 643.399178 -513.608184 
L 647.909761 -513.608184 
L 652.293269 -513.608184 
L 656.556664 -513.608184 
L 660.706356 -513.608184 
L 664.748251 -513.608184 
L 668.687809 -513.608184 
L 672.530084 -513.608184 
L 676.279764 -513.608184 
L 679.941209 -513.608184 
L 683.518475 -513.608184 
L 687.015346 -513.608184 
L 690.435356 -513.608184 
L 693.781813 -513.608184 
L 697.057812 -513.608184 
L 700.26626 -513.608184 
L 703.409886 -513.608184 
L 703.409886 -515.429625 
L 703.409886 -515.429625 
L 700.26626 -515.429625 
L 697.057812 -515.429625 
L 693.781813 -515.429625 
L 690.435356 -515.429625 
L 687.015346 -515.429625 
L 683.518475 -515.429625 
L 679.941209 -515.429625 
L 676.279764 -515.429625 
L 672.530084 -515.429625 
L 668.687809 -515.429625 
L 664.748251 -515.429625 
L 660.706356 -515.429625 
L 656.556664 -515.429625 
L 652.293269 -515.429625 
L 647.909761 -515.429625 
L 643.399178 -515.429625 
L 638.753931 -515.429625 
L 633.965732 -515.429625 
L 629.0255 -515.429625 
L 623.923266 -515.429625 
L 618.648041 -515.429625 
L 613.187684 -515.429625 
L 607.528725 -515.429625 
L 601.656171 -515.429625 
L 595.553263 -515.429625 
L 589.201188 -515.429625 
L 582.578733 -515.429625 
L 575.661851 -515.429625 
L 568.423141 -515.429625 
L 560.831185 -515.429625 
L 552.849733 -515.429625 
L 544.436645 -515.429625 
L 535.542555 -515.429625 
L 526.109108 -515.429625 
L 516.066642 -515.429625 
L 505.33106 -515.429625 
L 493.799547 -515.429625 
L 481.344565 -515.429625 
L 467.805228 -515.429625 
L 452.974562 -515.429625 
L 436.580021 -515.429625 
L 418.252484 -515.429625 
L 397.474437 -521.678924 
L 373.487941 -516.517075 
L 345.117938 -516.517075 
L 310.395861 -516.517075 
L 265.631318 -529.279443 
L 202.539237 -524.944739 
L 94.682614 -340.729846 
z
" style="stroke: #000000; stroke-opacity: 0.1"/>
    </defs>
    <g clip-path="url(#p6f4e1a8510)">
     <use xlink:href="#md963d44faf" x="0" y="559.20125" style="fill-opacity: 0.1; stroke: #000000; stroke-opacity: 0.1"/>
    </g>
   </g>
   <g id="PolyCollection_7">
    <defs>
     <path id="m3d4051b196" d="M 94.682614 -495.064528 
L 94.682614 -447.657691 
L 202.539237 -487.950254 
L 265.631318 -503.062618 
L 310.395861 -508.340084 
L 345.117938 -509.782889 
L 373.487941 -511.059324 
L 397.474437 -511.757696 
L 418.252484 -512.19167 
L 436.580021 -512.591736 
L 452.974562 -512.682872 
L 467.805228 -512.793541 
L 481.344565 -512.917904 
L 493.799547 -513.093806 
L 505.33106 -513.107802 
L 516.066642 -513.174845 
L 526.109108 -513.354948 
L 535.542555 -513.491863 
L 544.436645 -513.718515 
L 552.849733 -513.868969 
L 560.831185 -513.870109 
L 568.423141 -514.003297 
L 575.661851 -514.151216 
L 582.578733 -514.176023 
L 589.201188 -514.32174 
L 595.553263 -514.383137 
L 601.656171 -514.459346 
L 607.528725 -514.490306 
L 613.187684 -514.520512 
L 618.648041 -514.608791 
L 623.923266 -514.611807 
L 629.0255 -514.67019 
L 633.965732 -514.682373 
L 638.753931 -514.683918 
L 643.399178 -514.734716 
L 647.909761 -514.737033 
L 652.293269 -514.746195 
L 656.556664 -514.748503 
L 660.706356 -514.749267 
L 664.748251 -514.753598 
L 668.687809 -514.758285 
L 672.530084 -514.761225 
L 676.279764 -514.761439 
L 679.941209 -514.763686 
L 683.518475 -514.79884 
L 687.015346 -514.821634 
L 690.435356 -514.833182 
L 693.781813 -514.838915 
L 697.057812 -514.840352 
L 700.26626 -514.861215 
L 703.409886 -514.864378 
L 703.409886 -515.110499 
L 703.409886 -515.110499 
L 700.26626 -515.111267 
L 697.057812 -515.111642 
L 693.781813 -515.110741 
L 690.435356 -515.113735 
L 687.015346 -515.109771 
L 683.518475 -515.09436 
L 679.941209 -515.072293 
L 676.279764 -515.070549 
L 672.530084 -515.070586 
L 668.687809 -515.070216 
L 664.748251 -515.069584 
L 660.706356 -515.070655 
L 656.556664 -515.070978 
L 652.293269 -515.072091 
L 647.909761 -515.073032 
L 643.399178 -515.073786 
L 638.753931 -515.058344 
L 633.965732 -515.058274 
L 629.0255 -515.057259 
L 623.923266 -515.050026 
L 618.648041 -515.049708 
L 613.187684 -514.96429 
L 607.528725 -514.964105 
L 601.656171 -514.963313 
L 595.553263 -514.858518 
L 589.201188 -514.828214 
L 582.578733 -514.752003 
L 575.661851 -514.747801 
L 568.423141 -514.680744 
L 560.831185 -514.663262 
L 552.849733 -514.662791 
L 544.436645 -514.606415 
L 535.542555 -514.535949 
L 526.109108 -514.4474 
L 516.066642 -514.298061 
L 505.33106 -514.272641 
L 493.799547 -514.274583 
L 481.344565 -514.085019 
L 467.805228 -514.052285 
L 452.974562 -514.021492 
L 436.580021 -514.014444 
L 418.252484 -513.970757 
L 397.474437 -513.967062 
L 373.487941 -513.654017 
L 345.117938 -513.229943 
L 310.395861 -512.280164 
L 265.631318 -511.135871 
L 202.539237 -506.308691 
L 94.682614 -495.064528 
z
" style="stroke: #ff0000; stroke-opacity: 0.1"/>
    </defs>
    <g clip-path="url(#p6f4e1a8510)">
     <use xlink:href="#m3d4051b196" x="0" y="559.20125" style="fill: #ff0000; fill-opacity: 0.1; stroke: #ff0000; stroke-opacity: 0.1"/>
    </g>
   </g>
   <g id="matplotlib.axis_1">
    <g id="xtick_1">
     <g id="line2d_1">
      <path d="M 94.682614 506.16 
L 94.682614 7.2 
" clip-path="url(#p6f4e1a8510)" style="fill: none; stroke-dasharray: 1.85,0.8; stroke-dashoffset: 0; stroke: #b0b0b0; stroke-width: 0.5"/>
     </g>
     <g id="line2d_2">
      <defs>
       <path id="m23556d827a" d="M 0 0 
L 0 3.5 
" style="stroke: #000000; stroke-width: 0.8"/>
      </defs>
      <g>
       <use xlink:href="#m23556d827a" x="94.682614" y="506.16" style="stroke: #000000; stroke-width: 0.8"/>
      </g>
     </g>
     <g id="text_1">
      <!-- $\mathdefault{10^{0}}$ -->
      <g transform="translate(78.842614 526.837188) scale(0.18 -0.18)">
       <defs>
        <path id="DejaVuSans-31" d="M 794 531 
L 1825 531 
L 1825 4091 
L 703 3866 
L 703 4441 
L 1819 4666 
L 2450 4666 
L 2450 531 
L 3481 531 
L 3481 0 
L 794 0 
L 794 531 
z
" transform="scale(0.015625)"/>
        <path id="DejaVuSans-30" d="M 2034 4250 
Q 1547 4250 1301 3770 
Q 1056 3291 1056 2328 
Q 1056 1369 1301 889 
Q 1547 409 2034 409 
Q 2525 409 2770 889 
Q 3016 1369 3016 2328 
Q 3016 3291 2770 3770 
Q 2525 4250 2034 4250 
z
M 2034 4750 
Q 2819 4750 3233 4129 
Q 3647 3509 3647 2328 
Q 3647 1150 3233 529 
Q 2819 -91 2034 -91 
Q 1250 -91 836 529 
Q 422 1150 422 2328 
Q 422 3509 836 4129 
Q 1250 4750 2034 4750 
z
" transform="scale(0.015625)"/>
       </defs>
       <use xlink:href="#DejaVuSans-31" transform="translate(0 0.765625)"/>
       <use xlink:href="#DejaVuSans-30" transform="translate(63.623047 0.765625)"/>
       <use xlink:href="#DejaVuSans-30" transform="translate(128.203125 39.046875) scale(0.7)"/>
      </g>
     </g>
    </g>
    <g id="xtick_2">
     <g id="line2d_3">
      <path d="M 452.974562 506.16 
L 452.974562 7.2 
" clip-path="url(#p6f4e1a8510)" style="fill: none; stroke-dasharray: 1.85,0.8; stroke-dashoffset: 0; stroke: #b0b0b0; stroke-width: 0.5"/>
     </g>
     <g id="line2d_4">
      <g>
       <use xlink:href="#m23556d827a" x="452.974562" y="506.16" style="stroke: #000000; stroke-width: 0.8"/>
      </g>
     </g>
     <g id="text_2">
      <!-- $\mathdefault{10^{1}}$ -->
      <g transform="translate(437.134562 526.837188) scale(0.18 -0.18)">
       <use xlink:href="#DejaVuSans-31" transform="translate(0 0.684375)"/>
       <use xlink:href="#DejaVuSans-30" transform="translate(63.623047 0.684375)"/>
       <use xlink:href="#DejaVuSans-31" transform="translate(128.203125 38.965625) scale(0.7)"/>
      </g>
     </g>
    </g>
    <g id="xtick_3">
     <g id="line2d_5">
      <defs>
       <path id="m9bf6847f6e" d="M 0 0 
L 0 2 
" style="stroke: #000000; stroke-width: 0.6"/>
      </defs>
      <g>
       <use xlink:href="#m9bf6847f6e" x="78.288073" y="506.16" style="stroke: #000000; stroke-width: 0.6"/>
      </g>
     </g>
    </g>
    <g id="xtick_4">
     <g id="line2d_6">
      <g>
       <use xlink:href="#m9bf6847f6e" x="202.539237" y="506.16" style="stroke: #000000; stroke-width: 0.6"/>
      </g>
     </g>
    </g>
    <g id="xtick_5">
     <g id="line2d_7">
      <g>
       <use xlink:href="#m9bf6847f6e" x="265.631318" y="506.16" style="stroke: #000000; stroke-width: 0.6"/>
      </g>
     </g>
    </g>
    <g id="xtick_6">
     <g id="line2d_8">
      <g>
       <use xlink:href="#m9bf6847f6e" x="310.395861" y="506.16" style="stroke: #000000; stroke-width: 0.6"/>
      </g>
     </g>
    </g>
    <g id="xtick_7">
     <g id="line2d_9">
      <g>
       <use xlink:href="#m9bf6847f6e" x="345.117938" y="506.16" style="stroke: #000000; stroke-width: 0.6"/>
      </g>
     </g>
    </g>
    <g id="xtick_8">
     <g id="line2d_10">
      <g>
       <use xlink:href="#m9bf6847f6e" x="373.487941" y="506.16" style="stroke: #000000; stroke-width: 0.6"/>
      </g>
     </g>
    </g>
    <g id="xtick_9">
     <g id="line2d_11">
      <g>
       <use xlink:href="#m9bf6847f6e" x="397.474437" y="506.16" style="stroke: #000000; stroke-width: 0.6"/>
      </g>
     </g>
    </g>
    <g id="xtick_10">
     <g id="line2d_12">
      <g>
       <use xlink:href="#m9bf6847f6e" x="418.252484" y="506.16" style="stroke: #000000; stroke-width: 0.6"/>
      </g>
     </g>
    </g>
    <g id="xtick_11">
     <g id="line2d_13">
      <g>
       <use xlink:href="#m9bf6847f6e" x="436.580021" y="506.16" style="stroke: #000000; stroke-width: 0.6"/>
      </g>
     </g>
    </g>
    <g id="xtick_12">
     <g id="line2d_14">
      <g>
       <use xlink:href="#m9bf6847f6e" x="560.831185" y="506.16" style="stroke: #000000; stroke-width: 0.6"/>
      </g>
     </g>
    </g>
    <g id="xtick_13">
     <g id="line2d_15">
      <g>
       <use xlink:href="#m9bf6847f6e" x="623.923266" y="506.16" style="stroke: #000000; stroke-width: 0.6"/>
      </g>
     </g>
    </g>
    <g id="xtick_14">
     <g id="line2d_16">
      <g>
       <use xlink:href="#m9bf6847f6e" x="668.687809" y="506.16" style="stroke: #000000; stroke-width: 0.6"/>
      </g>
     </g>
    </g>
    <g id="xtick_15">
     <g id="line2d_17">
      <g>
       <use xlink:href="#m9bf6847f6e" x="703.409886" y="506.16" style="stroke: #000000; stroke-width: 0.6"/>
      </g>
     </g>
    </g>
    <g id="xtick_16">
     <g id="line2d_18">
      <g>
       <use xlink:href="#m9bf6847f6e" x="731.779889" y="506.16" style="stroke: #000000; stroke-width: 0.6"/>
      </g>
     </g>
    </g>
    <g id="text_3">
     <!-- Decision Round -->
     <g transform="translate(329.393281 548.257813) scale(0.18 -0.18)">
      <defs>
       <path id="DejaVuSans-44" d="M 1259 4147 
L 1259 519 
L 2022 519 
Q 2988 519 3436 956 
Q 3884 1394 3884 2338 
Q 3884 3275 3436 3711 
Q 2988 4147 2022 4147 
L 1259 4147 
z
M 628 4666 
L 1925 4666 
Q 3281 4666 3915 4102 
Q 4550 3538 4550 2338 
Q 4550 1131 3912 565 
Q 3275 0 1925 0 
L 628 0 
L 628 4666 
z
" transform="scale(0.015625)"/>
       <path id="DejaVuSans-65" d="M 3597 1894 
L 3597 1613 
L 953 1613 
Q 991 1019 1311 708 
Q 1631 397 2203 397 
Q 2534 397 2845 478 
Q 3156 559 3463 722 
L 3463 178 
Q 3153 47 2828 -22 
Q 2503 -91 2169 -91 
Q 1331 -91 842 396 
Q 353 884 353 1716 
Q 353 2575 817 3079 
Q 1281 3584 2069 3584 
Q 2775 3584 3186 3129 
Q 3597 2675 3597 1894 
z
M 3022 2063 
Q 3016 2534 2758 2815 
Q 2500 3097 2075 3097 
Q 1594 3097 1305 2825 
Q 1016 2553 972 2059 
L 3022 2063 
z
" transform="scale(0.015625)"/>
       <path id="DejaVuSans-63" d="M 3122 3366 
L 3122 2828 
Q 2878 2963 2633 3030 
Q 2388 3097 2138 3097 
Q 1578 3097 1268 2742 
Q 959 2388 959 1747 
Q 959 1106 1268 751 
Q 1578 397 2138 397 
Q 2388 397 2633 464 
Q 2878 531 3122 666 
L 3122 134 
Q 2881 22 2623 -34 
Q 2366 -91 2075 -91 
Q 1284 -91 818 406 
Q 353 903 353 1747 
Q 353 2603 823 3093 
Q 1294 3584 2113 3584 
Q 2378 3584 2631 3529 
Q 2884 3475 3122 3366 
z
" transform="scale(0.015625)"/>
       <path id="DejaVuSans-69" d="M 603 3500 
L 1178 3500 
L 1178 0 
L 603 0 
L 603 3500 
z
M 603 4863 
L 1178 4863 
L 1178 4134 
L 603 4134 
L 603 4863 
z
" transform="scale(0.015625)"/>
       <path id="DejaVuSans-73" d="M 2834 3397 
L 2834 2853 
Q 2591 2978 2328 3040 
Q 2066 3103 1784 3103 
Q 1356 3103 1142 2972 
Q 928 2841 928 2578 
Q 928 2378 1081 2264 
Q 1234 2150 1697 2047 
L 1894 2003 
Q 2506 1872 2764 1633 
Q 3022 1394 3022 966 
Q 3022 478 2636 193 
Q 2250 -91 1575 -91 
Q 1294 -91 989 -36 
Q 684 19 347 128 
L 347 722 
Q 666 556 975 473 
Q 1284 391 1588 391 
Q 1994 391 2212 530 
Q 2431 669 2431 922 
Q 2431 1156 2273 1281 
Q 2116 1406 1581 1522 
L 1381 1569 
Q 847 1681 609 1914 
Q 372 2147 372 2553 
Q 372 3047 722 3315 
Q 1072 3584 1716 3584 
Q 2034 3584 2315 3537 
Q 2597 3491 2834 3397 
z
" transform="scale(0.015625)"/>
       <path id="DejaVuSans-6f" d="M 1959 3097 
Q 1497 3097 1228 2736 
Q 959 2375 959 1747 
Q 959 1119 1226 758 
Q 1494 397 1959 397 
Q 2419 397 2687 759 
Q 2956 1122 2956 1747 
Q 2956 2369 2687 2733 
Q 2419 3097 1959 3097 
z
M 1959 3584 
Q 2709 3584 3137 3096 
Q 3566 2609 3566 1747 
Q 3566 888 3137 398 
Q 2709 -91 1959 -91 
Q 1206 -91 779 398 
Q 353 888 353 1747 
Q 353 2609 779 3096 
Q 1206 3584 1959 3584 
z
" transform="scale(0.015625)"/>
       <path id="DejaVuSans-6e" d="M 3513 2113 
L 3513 0 
L 2938 0 
L 2938 2094 
Q 2938 2591 2744 2837 
Q 2550 3084 2163 3084 
Q 1697 3084 1428 2787 
Q 1159 2491 1159 1978 
L 1159 0 
L 581 0 
L 581 3500 
L 1159 3500 
L 1159 2956 
Q 1366 3272 1645 3428 
Q 1925 3584 2291 3584 
Q 2894 3584 3203 3211 
Q 3513 2838 3513 2113 
z
" transform="scale(0.015625)"/>
       <path id="DejaVuSans-20" transform="scale(0.015625)"/>
       <path id="DejaVuSans-52" d="M 2841 2188 
Q 3044 2119 3236 1894 
Q 3428 1669 3622 1275 
L 4263 0 
L 3584 0 
L 2988 1197 
Q 2756 1666 2539 1819 
Q 2322 1972 1947 1972 
L 1259 1972 
L 1259 0 
L 628 0 
L 628 4666 
L 2053 4666 
Q 2853 4666 3247 4331 
Q 3641 3997 3641 3322 
Q 3641 2881 3436 2590 
Q 3231 2300 2841 2188 
z
M 1259 4147 
L 1259 2491 
L 2053 2491 
Q 2509 2491 2742 2702 
Q 2975 2913 2975 3322 
Q 2975 3731 2742 3939 
Q 2509 4147 2053 4147 
L 1259 4147 
z
" transform="scale(0.015625)"/>
       <path id="DejaVuSans-75" d="M 544 1381 
L 544 3500 
L 1119 3500 
L 1119 1403 
Q 1119 906 1312 657 
Q 1506 409 1894 409 
Q 2359 409 2629 706 
Q 2900 1003 2900 1516 
L 2900 3500 
L 3475 3500 
L 3475 0 
L 2900 0 
L 2900 538 
Q 2691 219 2414 64 
Q 2138 -91 1772 -91 
Q 1169 -91 856 284 
Q 544 659 544 1381 
z
M 1991 3584 
L 1991 3584 
z
" transform="scale(0.015625)"/>
       <path id="DejaVuSans-64" d="M 2906 2969 
L 2906 4863 
L 3481 4863 
L 3481 0 
L 2906 0 
L 2906 525 
Q 2725 213 2448 61 
Q 2172 -91 1784 -91 
Q 1150 -91 751 415 
Q 353 922 353 1747 
Q 353 2572 751 3078 
Q 1150 3584 1784 3584 
Q 2172 3584 2448 3432 
Q 2725 3281 2906 2969 
z
M 947 1747 
Q 947 1113 1208 752 
Q 1469 391 1925 391 
Q 2381 391 2643 752 
Q 2906 1113 2906 1747 
Q 2906 2381 2643 2742 
Q 2381 3103 1925 3103 
Q 1469 3103 1208 2742 
Q 947 2381 947 1747 
z
" transform="scale(0.015625)"/>
      </defs>
      <use xlink:href="#DejaVuSans-44"/>
      <use xlink:href="#DejaVuSans-65" x="77.001953"/>
      <use xlink:href="#DejaVuSans-63" x="138.525391"/>
      <use xlink:href="#DejaVuSans-69" x="193.505859"/>
      <use xlink:href="#DejaVuSans-73" x="221.289062"/>
      <use xlink:href="#DejaVuSans-69" x="273.388672"/>
      <use xlink:href="#DejaVuSans-6f" x="301.171875"/>
      <use xlink:href="#DejaVuSans-6e" x="362.353516"/>
      <use xlink:href="#DejaVuSans-20" x="425.732422"/>
      <use xlink:href="#DejaVuSans-52" x="457.519531"/>
      <use xlink:href="#DejaVuSans-6f" x="522.501953"/>
      <use xlink:href="#DejaVuSans-75" x="583.683594"/>
      <use xlink:href="#DejaVuSans-6e" x="647.0625"/>
      <use xlink:href="#DejaVuSans-64" x="710.441406"/>
     </g>
    </g>
   </g>
   <g id="matplotlib.axis_2">
    <g id="ytick_1">
     <g id="line2d_19">
      <path d="M 64.24625 466.667248 
L 733.84625 466.667248 
" clip-path="url(#p6f4e1a8510)" style="fill: none; stroke-dasharray: 1.85,0.8; stroke-dashoffset: 0; stroke: #b0b0b0; stroke-width: 0.5"/>
     </g>
     <g id="line2d_20">
      <defs>
       <path id="ma9ef146f3e" d="M 0 0 
L -3.5 0 
" style="stroke: #000000; stroke-width: 0.8"/>
      </defs>
      <g>
       <use xlink:href="#ma9ef146f3e" x="64.24625" y="466.667248" style="stroke: #000000; stroke-width: 0.8"/>
      </g>
     </g>
     <g id="text_4">
      <!-- 0.5 -->
      <g transform="translate(28.620625 473.505842) scale(0.18 -0.18)">
       <defs>
        <path id="DejaVuSans-2e" d="M 684 794 
L 1344 794 
L 1344 0 
L 684 0 
L 684 794 
z
" transform="scale(0.015625)"/>
        <path id="DejaVuSans-35" d="M 691 4666 
L 3169 4666 
L 3169 4134 
L 1269 4134 
L 1269 2991 
Q 1406 3038 1543 3061 
Q 1681 3084 1819 3084 
Q 2600 3084 3056 2656 
Q 3513 2228 3513 1497 
Q 3513 744 3044 326 
Q 2575 -91 1722 -91 
Q 1428 -91 1123 -41 
Q 819 9 494 109 
L 494 744 
Q 775 591 1075 516 
Q 1375 441 1709 441 
Q 2250 441 2565 725 
Q 2881 1009 2881 1497 
Q 2881 1984 2565 2268 
Q 2250 2553 1709 2553 
Q 1456 2553 1204 2497 
Q 953 2441 691 2322 
L 691 4666 
z
" transform="scale(0.015625)"/>
       </defs>
       <use xlink:href="#DejaVuSans-30"/>
       <use xlink:href="#DejaVuSans-2e" x="63.623047"/>
       <use xlink:href="#DejaVuSans-35" x="95.410156"/>
      </g>
     </g>
    </g>
    <g id="ytick_2">
     <g id="line2d_21">
      <path d="M 64.24625 382.140479 
L 733.84625 382.140479 
" clip-path="url(#p6f4e1a8510)" style="fill: none; stroke-dasharray: 1.85,0.8; stroke-dashoffset: 0; stroke: #b0b0b0; stroke-width: 0.5"/>
     </g>
     <g id="line2d_22">
      <g>
       <use xlink:href="#ma9ef146f3e" x="64.24625" y="382.140479" style="stroke: #000000; stroke-width: 0.8"/>
      </g>
     </g>
     <g id="text_5">
      <!-- 0.6 -->
      <g transform="translate(28.620625 388.979072) scale(0.18 -0.18)">
       <defs>
        <path id="DejaVuSans-36" d="M 2113 2584 
Q 1688 2584 1439 2293 
Q 1191 2003 1191 1497 
Q 1191 994 1439 701 
Q 1688 409 2113 409 
Q 2538 409 2786 701 
Q 3034 994 3034 1497 
Q 3034 2003 2786 2293 
Q 2538 2584 2113 2584 
z
M 3366 4563 
L 3366 3988 
Q 3128 4100 2886 4159 
Q 2644 4219 2406 4219 
Q 1781 4219 1451 3797 
Q 1122 3375 1075 2522 
Q 1259 2794 1537 2939 
Q 1816 3084 2150 3084 
Q 2853 3084 3261 2657 
Q 3669 2231 3669 1497 
Q 3669 778 3244 343 
Q 2819 -91 2113 -91 
Q 1303 -91 875 529 
Q 447 1150 447 2328 
Q 447 3434 972 4092 
Q 1497 4750 2381 4750 
Q 2619 4750 2861 4703 
Q 3103 4656 3366 4563 
z
" transform="scale(0.015625)"/>
       </defs>
       <use xlink:href="#DejaVuSans-30"/>
       <use xlink:href="#DejaVuSans-2e" x="63.623047"/>
       <use xlink:href="#DejaVuSans-36" x="95.410156"/>
      </g>
     </g>
    </g>
    <g id="ytick_3">
     <g id="line2d_23">
      <path d="M 64.24625 297.613709 
L 733.84625 297.613709 
" clip-path="url(#p6f4e1a8510)" style="fill: none; stroke-dasharray: 1.85,0.8; stroke-dashoffset: 0; stroke: #b0b0b0; stroke-width: 0.5"/>
     </g>
     <g id="line2d_24">
      <g>
       <use xlink:href="#ma9ef146f3e" x="64.24625" y="297.613709" style="stroke: #000000; stroke-width: 0.8"/>
      </g>
     </g>
     <g id="text_6">
      <!-- 0.7 -->
      <g transform="translate(28.620625 304.452303) scale(0.18 -0.18)">
       <defs>
        <path id="DejaVuSans-37" d="M 525 4666 
L 3525 4666 
L 3525 4397 
L 1831 0 
L 1172 0 
L 2766 4134 
L 525 4134 
L 525 4666 
z
" transform="scale(0.015625)"/>
       </defs>
       <use xlink:href="#DejaVuSans-30"/>
       <use xlink:href="#DejaVuSans-2e" x="63.623047"/>
       <use xlink:href="#DejaVuSans-37" x="95.410156"/>
      </g>
     </g>
    </g>
    <g id="ytick_4">
     <g id="line2d_25">
      <path d="M 64.24625 213.086939 
L 733.84625 213.086939 
" clip-path="url(#p6f4e1a8510)" style="fill: none; stroke-dasharray: 1.85,0.8; stroke-dashoffset: 0; stroke: #b0b0b0; stroke-width: 0.5"/>
     </g>
     <g id="line2d_26">
      <g>
       <use xlink:href="#ma9ef146f3e" x="64.24625" y="213.086939" style="stroke: #000000; stroke-width: 0.8"/>
      </g>
     </g>
     <g id="text_7">
      <!-- 0.8 -->
      <g transform="translate(28.620625 219.925533) scale(0.18 -0.18)">
       <defs>
        <path id="DejaVuSans-38" d="M 2034 2216 
Q 1584 2216 1326 1975 
Q 1069 1734 1069 1313 
Q 1069 891 1326 650 
Q 1584 409 2034 409 
Q 2484 409 2743 651 
Q 3003 894 3003 1313 
Q 3003 1734 2745 1975 
Q 2488 2216 2034 2216 
z
M 1403 2484 
Q 997 2584 770 2862 
Q 544 3141 544 3541 
Q 544 4100 942 4425 
Q 1341 4750 2034 4750 
Q 2731 4750 3128 4425 
Q 3525 4100 3525 3541 
Q 3525 3141 3298 2862 
Q 3072 2584 2669 2484 
Q 3125 2378 3379 2068 
Q 3634 1759 3634 1313 
Q 3634 634 3220 271 
Q 2806 -91 2034 -91 
Q 1263 -91 848 271 
Q 434 634 434 1313 
Q 434 1759 690 2068 
Q 947 2378 1403 2484 
z
M 1172 3481 
Q 1172 3119 1398 2916 
Q 1625 2713 2034 2713 
Q 2441 2713 2670 2916 
Q 2900 3119 2900 3481 
Q 2900 3844 2670 4047 
Q 2441 4250 2034 4250 
Q 1625 4250 1398 4047 
Q 1172 3844 1172 3481 
z
" transform="scale(0.015625)"/>
       </defs>
       <use xlink:href="#DejaVuSans-30"/>
       <use xlink:href="#DejaVuSans-2e" x="63.623047"/>
       <use xlink:href="#DejaVuSans-38" x="95.410156"/>
      </g>
     </g>
    </g>
    <g id="ytick_5">
     <g id="line2d_27">
      <path d="M 64.24625 128.560169 
L 733.84625 128.560169 
" clip-path="url(#p6f4e1a8510)" style="fill: none; stroke-dasharray: 1.85,0.8; stroke-dashoffset: 0; stroke: #b0b0b0; stroke-width: 0.5"/>
     </g>
     <g id="line2d_28">
      <g>
       <use xlink:href="#ma9ef146f3e" x="64.24625" y="128.560169" style="stroke: #000000; stroke-width: 0.8"/>
      </g>
     </g>
     <g id="text_8">
      <!-- 0.9 -->
      <g transform="translate(28.620625 135.398763) scale(0.18 -0.18)">
       <defs>
        <path id="DejaVuSans-39" d="M 703 97 
L 703 672 
Q 941 559 1184 500 
Q 1428 441 1663 441 
Q 2288 441 2617 861 
Q 2947 1281 2994 2138 
Q 2813 1869 2534 1725 
Q 2256 1581 1919 1581 
Q 1219 1581 811 2004 
Q 403 2428 403 3163 
Q 403 3881 828 4315 
Q 1253 4750 1959 4750 
Q 2769 4750 3195 4129 
Q 3622 3509 3622 2328 
Q 3622 1225 3098 567 
Q 2575 -91 1691 -91 
Q 1453 -91 1209 -44 
Q 966 3 703 97 
z
M 1959 2075 
Q 2384 2075 2632 2365 
Q 2881 2656 2881 3163 
Q 2881 3666 2632 3958 
Q 2384 4250 1959 4250 
Q 1534 4250 1286 3958 
Q 1038 3666 1038 3163 
Q 1038 2656 1286 2365 
Q 1534 2075 1959 2075 
z
" transform="scale(0.015625)"/>
       </defs>
       <use xlink:href="#DejaVuSans-30"/>
       <use xlink:href="#DejaVuSans-2e" x="63.623047"/>
       <use xlink:href="#DejaVuSans-39" x="95.410156"/>
      </g>
     </g>
    </g>
    <g id="ytick_6">
     <g id="line2d_29">
      <path d="M 64.24625 44.033399 
L 733.84625 44.033399 
" clip-path="url(#p6f4e1a8510)" style="fill: none; stroke-dasharray: 1.85,0.8; stroke-dashoffset: 0; stroke: #b0b0b0; stroke-width: 0.5"/>
     </g>
     <g id="line2d_30">
      <g>
       <use xlink:href="#ma9ef146f3e" x="64.24625" y="44.033399" style="stroke: #000000; stroke-width: 0.8"/>
      </g>
     </g>
     <g id="text_9">
      <!-- 1.0 -->
      <g transform="translate(28.620625 50.871993) scale(0.18 -0.18)">
       <use xlink:href="#DejaVuSans-31"/>
       <use xlink:href="#DejaVuSans-2e" x="63.623047"/>
       <use xlink:href="#DejaVuSans-30" x="95.410156"/>
      </g>
     </g>
    </g>
    <g id="text_10">
     <!-- Normalized Performance -->
     <g transform="translate(20.877187 367.607813) rotate(-90) scale(0.18 -0.18)">
      <defs>
       <path id="DejaVuSans-4e" d="M 628 4666 
L 1478 4666 
L 3547 763 
L 3547 4666 
L 4159 4666 
L 4159 0 
L 3309 0 
L 1241 3903 
L 1241 0 
L 628 0 
L 628 4666 
z
" transform="scale(0.015625)"/>
       <path id="DejaVuSans-72" d="M 2631 2963 
Q 2534 3019 2420 3045 
Q 2306 3072 2169 3072 
Q 1681 3072 1420 2755 
Q 1159 2438 1159 1844 
L 1159 0 
L 581 0 
L 581 3500 
L 1159 3500 
L 1159 2956 
Q 1341 3275 1631 3429 
Q 1922 3584 2338 3584 
Q 2397 3584 2469 3576 
Q 2541 3569 2628 3553 
L 2631 2963 
z
" transform="scale(0.015625)"/>
       <path id="DejaVuSans-6d" d="M 3328 2828 
Q 3544 3216 3844 3400 
Q 4144 3584 4550 3584 
Q 5097 3584 5394 3201 
Q 5691 2819 5691 2113 
L 5691 0 
L 5113 0 
L 5113 2094 
Q 5113 2597 4934 2840 
Q 4756 3084 4391 3084 
Q 3944 3084 3684 2787 
Q 3425 2491 3425 1978 
L 3425 0 
L 2847 0 
L 2847 2094 
Q 2847 2600 2669 2842 
Q 2491 3084 2119 3084 
Q 1678 3084 1418 2786 
Q 1159 2488 1159 1978 
L 1159 0 
L 581 0 
L 581 3500 
L 1159 3500 
L 1159 2956 
Q 1356 3278 1631 3431 
Q 1906 3584 2284 3584 
Q 2666 3584 2933 3390 
Q 3200 3197 3328 2828 
z
" transform="scale(0.015625)"/>
       <path id="DejaVuSans-61" d="M 2194 1759 
Q 1497 1759 1228 1600 
Q 959 1441 959 1056 
Q 959 750 1161 570 
Q 1363 391 1709 391 
Q 2188 391 2477 730 
Q 2766 1069 2766 1631 
L 2766 1759 
L 2194 1759 
z
M 3341 1997 
L 3341 0 
L 2766 0 
L 2766 531 
Q 2569 213 2275 61 
Q 1981 -91 1556 -91 
Q 1019 -91 701 211 
Q 384 513 384 1019 
Q 384 1609 779 1909 
Q 1175 2209 1959 2209 
L 2766 2209 
L 2766 2266 
Q 2766 2663 2505 2880 
Q 2244 3097 1772 3097 
Q 1472 3097 1187 3025 
Q 903 2953 641 2809 
L 641 3341 
Q 956 3463 1253 3523 
Q 1550 3584 1831 3584 
Q 2591 3584 2966 3190 
Q 3341 2797 3341 1997 
z
" transform="scale(0.015625)"/>
       <path id="DejaVuSans-6c" d="M 603 4863 
L 1178 4863 
L 1178 0 
L 603 0 
L 603 4863 
z
" transform="scale(0.015625)"/>
       <path id="DejaVuSans-7a" d="M 353 3500 
L 3084 3500 
L 3084 2975 
L 922 459 
L 3084 459 
L 3084 0 
L 275 0 
L 275 525 
L 2438 3041 
L 353 3041 
L 353 3500 
z
" transform="scale(0.015625)"/>
       <path id="DejaVuSans-50" d="M 1259 4147 
L 1259 2394 
L 2053 2394 
Q 2494 2394 2734 2622 
Q 2975 2850 2975 3272 
Q 2975 3691 2734 3919 
Q 2494 4147 2053 4147 
L 1259 4147 
z
M 628 4666 
L 2053 4666 
Q 2838 4666 3239 4311 
Q 3641 3956 3641 3272 
Q 3641 2581 3239 2228 
Q 2838 1875 2053 1875 
L 1259 1875 
L 1259 0 
L 628 0 
L 628 4666 
z
" transform="scale(0.015625)"/>
       <path id="DejaVuSans-66" d="M 2375 4863 
L 2375 4384 
L 1825 4384 
Q 1516 4384 1395 4259 
Q 1275 4134 1275 3809 
L 1275 3500 
L 2222 3500 
L 2222 3053 
L 1275 3053 
L 1275 0 
L 697 0 
L 697 3053 
L 147 3053 
L 147 3500 
L 697 3500 
L 697 3744 
Q 697 4328 969 4595 
Q 1241 4863 1831 4863 
L 2375 4863 
z
" transform="scale(0.015625)"/>
      </defs>
      <use xlink:href="#DejaVuSans-4e"/>
      <use xlink:href="#DejaVuSans-6f" x="74.804688"/>
      <use xlink:href="#DejaVuSans-72" x="135.986328"/>
      <use xlink:href="#DejaVuSans-6d" x="175.349609"/>
      <use xlink:href="#DejaVuSans-61" x="272.761719"/>
      <use xlink:href="#DejaVuSans-6c" x="334.041016"/>
      <use xlink:href="#DejaVuSans-69" x="361.824219"/>
      <use xlink:href="#DejaVuSans-7a" x="389.607422"/>
      <use xlink:href="#DejaVuSans-65" x="442.097656"/>
      <use xlink:href="#DejaVuSans-64" x="503.621094"/>
      <use xlink:href="#DejaVuSans-20" x="567.097656"/>
      <use xlink:href="#DejaVuSans-50" x="598.884766"/>
      <use xlink:href="#DejaVuSans-65" x="655.5625"/>
      <use xlink:href="#DejaVuSans-72" x="717.085938"/>
      <use xlink:href="#DejaVuSans-66" x="758.199219"/>
      <use xlink:href="#DejaVuSans-6f" x="793.404297"/>
      <use xlink:href="#DejaVuSans-72" x="854.585938"/>
      <use xlink:href="#DejaVuSans-6d" x="893.949219"/>
      <use xlink:href="#DejaVuSans-61" x="991.361328"/>
      <use xlink:href="#DejaVuSans-6e" x="1052.640625"/>
      <use xlink:href="#DejaVuSans-63" x="1116.019531"/>
      <use xlink:href="#DejaVuSans-65" x="1171"/>
     </g>
    </g>
   </g>
   <g id="line2d_31">
    <path d="M 94.682614 290.407586 
L 202.539237 139.941882 
L 265.631318 69.977525 
L 310.395861 61.538568 
L 345.117938 57.225559 
L 373.487941 55.913331 
L 397.474437 55.378089 
L 418.252484 54.816724 
L 436.580021 54.28485 
L 452.974562 53.481623 
L 467.805228 52.975191 
L 481.344565 52.805992 
L 493.799547 52.121122 
L 505.33106 51.3151 
L 516.066642 50.457088 
L 526.109108 50.351276 
L 535.542555 49.890669 
L 544.436645 49.863871 
L 552.849733 49.688327 
L 560.831185 49.657453 
L 568.423141 48.842406 
L 575.661851 48.807523 
L 582.578733 48.718061 
L 589.201188 48.352126 
L 595.553263 48.221338 
L 601.656171 47.118215 
L 607.528725 47.020474 
L 613.187684 46.968253 
L 618.648041 46.902455 
L 623.923266 46.891143 
L 629.0255 46.878335 
L 633.965732 46.876516 
L 638.753931 46.596737 
L 643.399178 46.578072 
L 647.909761 46.563557 
L 652.293269 46.542207 
L 656.556664 46.324831 
L 660.706356 46.323012 
L 664.748251 46.281216 
L 668.687809 46.184444 
L 672.530084 45.925786 
L 676.279764 45.898886 
L 679.941209 45.881835 
L 683.518475 45.872604 
L 687.015346 45.850445 
L 690.435356 45.844513 
L 693.781813 45.696723 
L 697.057812 45.691281 
L 700.26626 45.654136 
L 703.409886 45.652545 
" clip-path="url(#p6f4e1a8510)" style="fill: none; stroke: #ff0000; stroke-width: 1.5; stroke-linecap: square"/>
   </g>
   <g id="line2d_32">
    <path d="M 94.682614 290.407586 
L 202.539237 139.941882 
L 265.631318 69.977525 
L 310.395861 61.538568 
L 345.117938 57.225559 
L 373.487941 55.913331 
L 397.474437 55.383895 
L 418.252484 54.818048 
L 436.580021 54.304536 
L 452.974562 53.493614 
L 467.805228 52.986494 
L 481.344565 52.826465 
L 493.799547 52.110266 
L 505.33106 51.322128 
L 516.066642 50.46053 
L 526.109108 50.40377 
L 535.542555 49.952404 
L 544.436645 49.941424 
L 552.849733 49.763899 
L 560.831185 49.731365 
L 568.423141 48.906157 
L 575.661851 48.862894 
L 582.578733 48.767079 
L 589.201188 48.376492 
L 595.553263 48.270572 
L 601.656171 46.993922 
L 607.528725 46.985033 
L 613.187684 46.941651 
L 618.648041 46.881034 
L 623.923266 46.881034 
L 629.0255 46.870118 
L 633.965732 46.870068 
L 638.753931 46.578283 
L 643.399178 46.577104 
L 647.909761 46.575462 
L 652.293269 46.551511 
L 656.556664 46.32733 
L 660.706356 46.32733 
L 664.748251 46.286949 
L 668.687809 46.176133 
L 672.530084 45.905056 
L 676.279764 45.899013 
L 679.941209 45.883915 
L 683.518475 45.874292 
L 687.015346 45.850179 
L 690.435356 45.844377 
L 693.781813 45.685964 
L 697.057812 45.68063 
L 700.26626 45.641564 
L 703.409886 45.640432 
" clip-path="url(#p6f4e1a8510)" style="fill: none; stroke: #ff7f50; stroke-width: 1.5; stroke-linecap: square"/>
   </g>
   <g id="line2d_33">
    <path d="M 94.682614 290.407586 
L 202.539237 156.030137 
L 265.631318 104.694872 
L 310.395861 83.191455 
L 345.117938 69.91449 
L 373.487941 63.7522 
L 397.474437 58.67092 
L 418.252484 55.724802 
L 436.580021 54.081289 
L 452.974562 52.49703 
L 467.805228 51.705672 
L 481.344565 50.8573 
L 493.799547 50.210291 
L 505.33106 49.810173 
L 516.066642 49.344598 
L 526.109108 48.947882 
L 535.542555 48.475492 
L 544.436645 48.172405 
L 552.849733 47.781409 
L 560.831185 47.602343 
L 568.423141 47.402744 
L 575.661851 47.199358 
L 582.578733 47.00346 
L 589.201188 46.854501 
L 595.553263 46.734946 
L 601.656171 46.605422 
L 607.528725 46.521815 
L 613.187684 46.429335 
L 618.648041 46.348331 
L 623.923266 46.231798 
L 629.0255 46.088901 
L 633.965732 46.005047 
L 638.753931 45.937489 
L 643.399178 45.877325 
L 647.909761 45.781242 
L 652.293269 45.708763 
L 656.556664 45.601469 
L 660.706356 45.47851 
L 664.748251 45.424118 
L 668.687809 45.398841 
L 672.530084 45.360147 
L 676.279764 45.319585 
L 679.941209 45.290972 
L 683.518475 45.258625 
L 687.015346 45.222209 
L 690.435356 45.187052 
L 693.781813 45.16166 
L 697.057812 45.121114 
L 700.26626 45.094173 
L 703.409886 45.056171 
" clip-path="url(#p6f4e1a8510)" style="fill: none; stroke: #8a2be2; stroke-width: 1.5; stroke-linecap: square"/>
   </g>
   <g id="line2d_34">
    <path d="M 94.682614 260.949298 
L 202.539237 154.841042 
L 265.631318 110.686932 
L 310.395861 91.829545 
L 345.117938 79.863814 
L 373.487941 71.901957 
L 397.474437 64.911107 
L 418.252484 62.414659 
L 436.580021 59.803012 
L 452.974562 57.665153 
L 467.805228 55.792027 
L 481.344565 54.583547 
L 493.799547 53.526407 
L 505.33106 52.525913 
L 516.066642 51.996339 
L 526.109108 51.120317 
L 535.542555 50.278516 
L 544.436645 49.990153 
L 552.849733 49.72992 
L 560.831185 49.339888 
L 568.423141 48.815843 
L 575.661851 48.609016 
L 582.578733 48.360841 
L 589.201188 48.132091 
L 595.553263 48.032973 
L 601.656171 47.78649 
L 607.528725 47.506536 
L 613.187684 47.38996 
L 618.648041 47.245666 
L 623.923266 47.132933 
L 629.0255 47.037101 
L 633.965732 46.780356 
L 638.753931 46.663213 
L 643.399178 46.537468 
L 647.909761 46.472987 
L 652.293269 46.316313 
L 656.556664 46.213053 
L 660.706356 46.123435 
L 664.748251 46.033005 
L 668.687809 45.956349 
L 672.530084 45.893398 
L 676.279764 45.856082 
L 679.941209 45.828518 
L 683.518475 45.737133 
L 687.015346 45.679851 
L 690.435356 45.645802 
L 693.781813 45.616987 
L 697.057812 45.583798 
L 700.26626 45.552044 
L 703.409886 45.513102 
" clip-path="url(#p6f4e1a8510)" style="fill: none; stroke: #008000; stroke-width: 1.5; stroke-linecap: square"/>
   </g>
   <g id="line2d_35">
    <path d="M 94.682614 99.338075 
L 202.539237 99.338075 
L 265.631318 99.338075 
L 310.395861 99.338075 
L 345.117938 99.338075 
L 373.487941 99.338075 
L 397.474437 99.338075 
L 418.252484 99.338075 
L 436.580021 99.338075 
L 452.974562 99.338075 
L 467.805228 99.338075 
L 481.344565 99.338075 
L 493.799547 99.338075 
L 505.33106 99.338075 
L 516.066642 99.338075 
L 526.109108 99.338075 
L 535.542555 99.338075 
L 544.436645 99.338075 
L 552.849733 99.338075 
L 560.831185 99.338075 
L 568.423141 99.338075 
L 575.661851 99.338075 
L 582.578733 99.338075 
L 589.201188 99.338075 
L 595.553263 99.338075 
L 601.656171 99.338075 
L 607.528725 99.338075 
L 613.187684 99.338075 
L 618.648041 99.338075 
L 623.923266 99.338075 
L 629.0255 99.338075 
L 633.965732 99.338075 
L 638.753931 99.338075 
L 643.399178 99.338075 
L 647.909761 99.338075 
L 652.293269 99.338075 
L 656.556664 99.338075 
L 660.706356 99.338075 
L 664.748251 99.338075 
L 668.687809 99.338075 
L 672.530084 99.338075 
L 676.279764 99.338075 
L 679.941209 99.338075 
L 683.518475 99.338075 
L 687.015346 99.338075 
L 690.435356 99.338075 
L 693.781813 99.338075 
L 697.057812 99.338075 
L 700.26626 99.338075 
L 703.409886 99.338075 
" clip-path="url(#p6f4e1a8510)" style="fill: none; stroke-dasharray: 5.55,2.4; stroke-dashoffset: 0; stroke: #0000ff; stroke-width: 1.5"/>
   </g>
   <g id="line2d_36">
    <path d="M 94.682614 309.420771 
L 202.539237 183.392353 
L 265.631318 94.492423 
L 310.395861 63.024859 
L 345.117938 63.024859 
L 373.487941 63.024859 
L 397.474437 59.769508 
L 418.252484 44.682345 
L 436.580021 44.682345 
L 452.974562 44.682345 
L 467.805228 44.682345 
L 481.344565 44.682345 
L 493.799547 44.682345 
L 505.33106 44.682345 
L 516.066642 44.682345 
L 526.109108 44.682345 
L 535.542555 44.682345 
L 544.436645 44.682345 
L 552.849733 44.682345 
L 560.831185 44.682345 
L 568.423141 44.682345 
L 575.661851 44.682345 
L 582.578733 44.682345 
L 589.201188 44.682345 
L 595.553263 44.682345 
L 601.656171 44.682345 
L 607.528725 44.682345 
L 613.187684 44.682345 
L 618.648041 44.682345 
L 623.923266 44.682345 
L 629.0255 44.682345 
L 633.965732 44.682345 
L 638.753931 44.682345 
L 643.399178 44.682345 
L 647.909761 44.682345 
L 652.293269 44.682345 
L 656.556664 44.682345 
L 660.706356 44.682345 
L 664.748251 44.682345 
L 668.687809 44.682345 
L 672.530084 44.682345 
L 676.279764 44.682345 
L 679.941209 44.682345 
L 683.518475 44.682345 
L 687.015346 44.682345 
L 690.435356 44.682345 
L 693.781813 44.682345 
L 697.057812 44.682345 
L 700.26626 44.682345 
L 703.409886 44.682345 
" clip-path="url(#p6f4e1a8510)" style="fill: none; stroke-dasharray: 5.55,2.4; stroke-dashoffset: 0; stroke: #000000; stroke-width: 1.5"/>
   </g>
   <g id="line2d_37">
    <path d="M 94.682614 87.840141 
L 202.539237 62.071777 
L 265.631318 52.102006 
L 310.395861 48.891126 
L 345.117938 47.694834 
L 373.487941 46.84458 
L 397.474437 46.338871 
L 418.252484 46.120037 
L 436.580021 45.89816 
L 452.974562 45.849068 
L 467.805228 45.778337 
L 481.344565 45.699789 
L 493.799547 45.517056 
L 505.33106 45.511029 
L 516.066642 45.464797 
L 526.109108 45.300076 
L 535.542555 45.187344 
L 544.436645 45.038785 
L 552.849733 44.93537 
L 560.831185 44.934565 
L 568.423141 44.85923 
L 575.661851 44.751741 
L 582.578733 44.737237 
L 589.201188 44.626273 
L 595.553263 44.580422 
L 601.656171 44.489921 
L 607.528725 44.474045 
L 613.187684 44.458849 
L 618.648041 44.372 
L 623.923266 44.370334 
L 629.0255 44.337526 
L 633.965732 44.330926 
L 638.753931 44.330119 
L 643.399178 44.296999 
L 647.909761 44.296218 
L 652.293269 44.292107 
L 656.556664 44.29151 
L 660.706356 44.291289 
L 664.748251 44.289659 
L 668.687809 44.287 
L 672.530084 44.285344 
L 676.279764 44.285256 
L 679.941209 44.28326 
L 683.518475 44.25465 
L 687.015346 44.235548 
L 690.435356 44.227792 
L 693.781813 44.226422 
L 697.057812 44.225253 
L 700.26626 44.215009 
L 703.409886 44.213812 
" clip-path="url(#p6f4e1a8510)" style="fill: none; stroke-dasharray: 5.55,2.4; stroke-dashoffset: 0; stroke: #ff0000; stroke-width: 1.5"/>
   </g>
   <g id="patch_3">
    <path d="M 64.24625 506.16 
L 64.24625 7.2 
" style="fill: none; stroke: #000000; stroke-width: 0.8; stroke-linejoin: miter; stroke-linecap: square"/>
   </g>
   <g id="patch_4">
    <path d="M 733.84625 506.16 
L 733.84625 7.2 
" style="fill: none; stroke: #000000; stroke-width: 0.8; stroke-linejoin: miter; stroke-linecap: square"/>
   </g>
   <g id="patch_5">
    <path d="M 64.24625 506.16 
L 733.84625 506.16 
" style="fill: none; stroke: #000000; stroke-width: 0.8; stroke-linejoin: miter; stroke-linecap: square"/>
   </g>
   <g id="patch_6">
    <path d="M 64.24625 7.2 
L 733.84625 7.2 
" style="fill: none; stroke: #000000; stroke-width: 0.8; stroke-linejoin: miter; stroke-linecap: square"/>
   </g>
   <g id="legend_1">
    <g id="patch_7">
     <path d="M 472.815313 497.16 
L 721.24625 497.16 
Q 724.84625 497.16 724.84625 493.56 
L 724.84625 310.415625 
Q 724.84625 306.815625 721.24625 306.815625 
L 472.815313 306.815625 
Q 469.215313 306.815625 469.215313 310.415625 
L 469.215313 493.56 
Q 469.215313 497.16 472.815313 497.16 
z
" style="fill: #ffffff; opacity: 0.8; stroke: #cccccc; stroke-linejoin: miter"/>
    </g>
    <g id="line2d_38">
     <path d="M 476.415313 321.392813 
L 494.415313 321.392813 
L 512.415313 321.392813 
" style="fill: none; stroke: #ff0000; stroke-width: 1.5; stroke-linecap: square"/>
    </g>
    <g id="text_11">
     <!-- Hybrid-MBTL (Ours) -->
     <g transform="translate(526.815313 327.692813) scale(0.18 -0.18)">
      <defs>
       <path id="DejaVuSans-48" d="M 628 4666 
L 1259 4666 
L 1259 2753 
L 3553 2753 
L 3553 4666 
L 4184 4666 
L 4184 0 
L 3553 0 
L 3553 2222 
L 1259 2222 
L 1259 0 
L 628 0 
L 628 4666 
z
" transform="scale(0.015625)"/>
       <path id="DejaVuSans-79" d="M 2059 -325 
Q 1816 -950 1584 -1140 
Q 1353 -1331 966 -1331 
L 506 -1331 
L 506 -850 
L 844 -850 
Q 1081 -850 1212 -737 
Q 1344 -625 1503 -206 
L 1606 56 
L 191 3500 
L 800 3500 
L 1894 763 
L 2988 3500 
L 3597 3500 
L 2059 -325 
z
" transform="scale(0.015625)"/>
       <path id="DejaVuSans-62" d="M 3116 1747 
Q 3116 2381 2855 2742 
Q 2594 3103 2138 3103 
Q 1681 3103 1420 2742 
Q 1159 2381 1159 1747 
Q 1159 1113 1420 752 
Q 1681 391 2138 391 
Q 2594 391 2855 752 
Q 3116 1113 3116 1747 
z
M 1159 2969 
Q 1341 3281 1617 3432 
Q 1894 3584 2278 3584 
Q 2916 3584 3314 3078 
Q 3713 2572 3713 1747 
Q 3713 922 3314 415 
Q 2916 -91 2278 -91 
Q 1894 -91 1617 61 
Q 1341 213 1159 525 
L 1159 0 
L 581 0 
L 581 4863 
L 1159 4863 
L 1159 2969 
z
" transform="scale(0.015625)"/>
       <path id="DejaVuSans-2d" d="M 313 2009 
L 1997 2009 
L 1997 1497 
L 313 1497 
L 313 2009 
z
" transform="scale(0.015625)"/>
       <path id="DejaVuSans-4d" d="M 628 4666 
L 1569 4666 
L 2759 1491 
L 3956 4666 
L 4897 4666 
L 4897 0 
L 4281 0 
L 4281 4097 
L 3078 897 
L 2444 897 
L 1241 4097 
L 1241 0 
L 628 0 
L 628 4666 
z
" transform="scale(0.015625)"/>
       <path id="DejaVuSans-42" d="M 1259 2228 
L 1259 519 
L 2272 519 
Q 2781 519 3026 730 
Q 3272 941 3272 1375 
Q 3272 1813 3026 2020 
Q 2781 2228 2272 2228 
L 1259 2228 
z
M 1259 4147 
L 1259 2741 
L 2194 2741 
Q 2656 2741 2882 2914 
Q 3109 3088 3109 3444 
Q 3109 3797 2882 3972 
Q 2656 4147 2194 4147 
L 1259 4147 
z
M 628 4666 
L 2241 4666 
Q 2963 4666 3353 4366 
Q 3744 4066 3744 3513 
Q 3744 3084 3544 2831 
Q 3344 2578 2956 2516 
Q 3422 2416 3680 2098 
Q 3938 1781 3938 1306 
Q 3938 681 3513 340 
Q 3088 0 2303 0 
L 628 0 
L 628 4666 
z
" transform="scale(0.015625)"/>
       <path id="DejaVuSans-54" d="M -19 4666 
L 3928 4666 
L 3928 4134 
L 2272 4134 
L 2272 0 
L 1638 0 
L 1638 4134 
L -19 4134 
L -19 4666 
z
" transform="scale(0.015625)"/>
       <path id="DejaVuSans-4c" d="M 628 4666 
L 1259 4666 
L 1259 531 
L 3531 531 
L 3531 0 
L 628 0 
L 628 4666 
z
" transform="scale(0.015625)"/>
       <path id="DejaVuSans-28" d="M 1984 4856 
Q 1566 4138 1362 3434 
Q 1159 2731 1159 2009 
Q 1159 1288 1364 580 
Q 1569 -128 1984 -844 
L 1484 -844 
Q 1016 -109 783 600 
Q 550 1309 550 2009 
Q 550 2706 781 3412 
Q 1013 4119 1484 4856 
L 1984 4856 
z
" transform="scale(0.015625)"/>
       <path id="DejaVuSans-4f" d="M 2522 4238 
Q 1834 4238 1429 3725 
Q 1025 3213 1025 2328 
Q 1025 1447 1429 934 
Q 1834 422 2522 422 
Q 3209 422 3611 934 
Q 4013 1447 4013 2328 
Q 4013 3213 3611 3725 
Q 3209 4238 2522 4238 
z
M 2522 4750 
Q 3503 4750 4090 4092 
Q 4678 3434 4678 2328 
Q 4678 1225 4090 567 
Q 3503 -91 2522 -91 
Q 1538 -91 948 565 
Q 359 1222 359 2328 
Q 359 3434 948 4092 
Q 1538 4750 2522 4750 
z
" transform="scale(0.015625)"/>
       <path id="DejaVuSans-29" d="M 513 4856 
L 1013 4856 
Q 1481 4119 1714 3412 
Q 1947 2706 1947 2009 
Q 1947 1309 1714 600 
Q 1481 -109 1013 -844 
L 513 -844 
Q 928 -128 1133 580 
Q 1338 1288 1338 2009 
Q 1338 2731 1133 3434 
Q 928 4138 513 4856 
z
" transform="scale(0.015625)"/>
      </defs>
      <use xlink:href="#DejaVuSans-48"/>
      <use xlink:href="#DejaVuSans-79" x="75.195312"/>
      <use xlink:href="#DejaVuSans-62" x="134.375"/>
      <use xlink:href="#DejaVuSans-72" x="197.851562"/>
      <use xlink:href="#DejaVuSans-69" x="238.964844"/>
      <use xlink:href="#DejaVuSans-64" x="266.748047"/>
      <use xlink:href="#DejaVuSans-2d" x="330.224609"/>
      <use xlink:href="#DejaVuSans-4d" x="366.308594"/>
      <use xlink:href="#DejaVuSans-42" x="452.587891"/>
      <use xlink:href="#DejaVuSans-54" x="521.191406"/>
      <use xlink:href="#DejaVuSans-4c" x="582.275391"/>
      <use xlink:href="#DejaVuSans-20" x="637.988281"/>
      <use xlink:href="#DejaVuSans-28" x="669.775391"/>
      <use xlink:href="#DejaVuSans-4f" x="708.789062"/>
      <use xlink:href="#DejaVuSans-75" x="787.5"/>
      <use xlink:href="#DejaVuSans-72" x="850.878906"/>
      <use xlink:href="#DejaVuSans-73" x="891.992188"/>
      <use xlink:href="#DejaVuSans-29" x="944.091797"/>
     </g>
    </g>
    <g id="line2d_39">
     <path d="M 476.415313 347.813438 
L 494.415313 347.813438 
L 512.415313 347.813438 
" style="fill: none; stroke: #ff7f50; stroke-width: 1.5; stroke-linecap: square"/>
    </g>
    <g id="text_12">
     <!-- SC-MBTL -->
     <g transform="translate(526.815313 354.113438) scale(0.18 -0.18)">
      <defs>
       <path id="DejaVuSans-53" d="M 3425 4513 
L 3425 3897 
Q 3066 4069 2747 4153 
Q 2428 4238 2131 4238 
Q 1616 4238 1336 4038 
Q 1056 3838 1056 3469 
Q 1056 3159 1242 3001 
Q 1428 2844 1947 2747 
L 2328 2669 
Q 3034 2534 3370 2195 
Q 3706 1856 3706 1288 
Q 3706 609 3251 259 
Q 2797 -91 1919 -91 
Q 1588 -91 1214 -16 
Q 841 59 441 206 
L 441 856 
Q 825 641 1194 531 
Q 1563 422 1919 422 
Q 2459 422 2753 634 
Q 3047 847 3047 1241 
Q 3047 1584 2836 1778 
Q 2625 1972 2144 2069 
L 1759 2144 
Q 1053 2284 737 2584 
Q 422 2884 422 3419 
Q 422 4038 858 4394 
Q 1294 4750 2059 4750 
Q 2388 4750 2728 4690 
Q 3069 4631 3425 4513 
z
" transform="scale(0.015625)"/>
       <path id="DejaVuSans-43" d="M 4122 4306 
L 4122 3641 
Q 3803 3938 3442 4084 
Q 3081 4231 2675 4231 
Q 1875 4231 1450 3742 
Q 1025 3253 1025 2328 
Q 1025 1406 1450 917 
Q 1875 428 2675 428 
Q 3081 428 3442 575 
Q 3803 722 4122 1019 
L 4122 359 
Q 3791 134 3420 21 
Q 3050 -91 2638 -91 
Q 1578 -91 968 557 
Q 359 1206 359 2328 
Q 359 3453 968 4101 
Q 1578 4750 2638 4750 
Q 3056 4750 3426 4639 
Q 3797 4528 4122 4306 
z
" transform="scale(0.015625)"/>
      </defs>
      <use xlink:href="#DejaVuSans-53"/>
      <use xlink:href="#DejaVuSans-43" x="63.476562"/>
      <use xlink:href="#DejaVuSans-2d" x="133.300781"/>
      <use xlink:href="#DejaVuSans-4d" x="169.384766"/>
      <use xlink:href="#DejaVuSans-42" x="255.664062"/>
      <use xlink:href="#DejaVuSans-54" x="324.267578"/>
      <use xlink:href="#DejaVuSans-4c" x="385.351562"/>
     </g>
    </g>
    <g id="line2d_40">
     <path d="M 476.415313 374.234063 
L 494.415313 374.234063 
L 512.415313 374.234063 
" style="fill: none; stroke: #8a2be2; stroke-width: 1.5; stroke-linecap: square"/>
    </g>
    <g id="text_13">
     <!-- GP-MBTL -->
     <g transform="translate(526.815313 380.534063) scale(0.18 -0.18)">
      <defs>
       <path id="DejaVuSans-47" d="M 3809 666 
L 3809 1919 
L 2778 1919 
L 2778 2438 
L 4434 2438 
L 4434 434 
Q 4069 175 3628 42 
Q 3188 -91 2688 -91 
Q 1594 -91 976 548 
Q 359 1188 359 2328 
Q 359 3472 976 4111 
Q 1594 4750 2688 4750 
Q 3144 4750 3555 4637 
Q 3966 4525 4313 4306 
L 4313 3634 
Q 3963 3931 3569 4081 
Q 3175 4231 2741 4231 
Q 1884 4231 1454 3753 
Q 1025 3275 1025 2328 
Q 1025 1384 1454 906 
Q 1884 428 2741 428 
Q 3075 428 3337 486 
Q 3600 544 3809 666 
z
" transform="scale(0.015625)"/>
      </defs>
      <use xlink:href="#DejaVuSans-47"/>
      <use xlink:href="#DejaVuSans-50" x="77.490234"/>
      <use xlink:href="#DejaVuSans-2d" x="135.542969"/>
      <use xlink:href="#DejaVuSans-4d" x="171.626953"/>
      <use xlink:href="#DejaVuSans-42" x="257.90625"/>
      <use xlink:href="#DejaVuSans-54" x="326.509766"/>
      <use xlink:href="#DejaVuSans-4c" x="387.59375"/>
     </g>
    </g>
    <g id="line2d_41">
     <path d="M 476.415313 400.654688 
L 494.415313 400.654688 
L 512.415313 400.654688 
" style="fill: none; stroke: #008000; stroke-width: 1.5; stroke-linecap: square"/>
    </g>
    <g id="text_14">
     <!-- Random -->
     <g transform="translate(526.815313 406.954688) scale(0.18 -0.18)">
      <use xlink:href="#DejaVuSans-52"/>
      <use xlink:href="#DejaVuSans-61" x="67.232422"/>
      <use xlink:href="#DejaVuSans-6e" x="128.511719"/>
      <use xlink:href="#DejaVuSans-64" x="191.890625"/>
      <use xlink:href="#DejaVuSans-6f" x="255.367188"/>
      <use xlink:href="#DejaVuSans-6d" x="316.548828"/>
     </g>
    </g>
    <g id="line2d_42">
     <path d="M 476.415313 427.075313 
L 494.415313 427.075313 
L 512.415313 427.075313 
" style="fill: none; stroke-dasharray: 5.55,2.4; stroke-dashoffset: 0; stroke: #0000ff; stroke-width: 1.5"/>
    </g>
    <g id="text_15">
     <!-- Independent Training -->
     <g transform="translate(526.815313 433.375313) scale(0.18 -0.18)">
      <defs>
       <path id="DejaVuSans-49" d="M 628 4666 
L 1259 4666 
L 1259 0 
L 628 0 
L 628 4666 
z
" transform="scale(0.015625)"/>
       <path id="DejaVuSans-70" d="M 1159 525 
L 1159 -1331 
L 581 -1331 
L 581 3500 
L 1159 3500 
L 1159 2969 
Q 1341 3281 1617 3432 
Q 1894 3584 2278 3584 
Q 2916 3584 3314 3078 
Q 3713 2572 3713 1747 
Q 3713 922 3314 415 
Q 2916 -91 2278 -91 
Q 1894 -91 1617 61 
Q 1341 213 1159 525 
z
M 3116 1747 
Q 3116 2381 2855 2742 
Q 2594 3103 2138 3103 
Q 1681 3103 1420 2742 
Q 1159 2381 1159 1747 
Q 1159 1113 1420 752 
Q 1681 391 2138 391 
Q 2594 391 2855 752 
Q 3116 1113 3116 1747 
z
" transform="scale(0.015625)"/>
       <path id="DejaVuSans-74" d="M 1172 4494 
L 1172 3500 
L 2356 3500 
L 2356 3053 
L 1172 3053 
L 1172 1153 
Q 1172 725 1289 603 
Q 1406 481 1766 481 
L 2356 481 
L 2356 0 
L 1766 0 
Q 1100 0 847 248 
Q 594 497 594 1153 
L 594 3053 
L 172 3053 
L 172 3500 
L 594 3500 
L 594 4494 
L 1172 4494 
z
" transform="scale(0.015625)"/>
       <path id="DejaVuSans-67" d="M 2906 1791 
Q 2906 2416 2648 2759 
Q 2391 3103 1925 3103 
Q 1463 3103 1205 2759 
Q 947 2416 947 1791 
Q 947 1169 1205 825 
Q 1463 481 1925 481 
Q 2391 481 2648 825 
Q 2906 1169 2906 1791 
z
M 3481 434 
Q 3481 -459 3084 -895 
Q 2688 -1331 1869 -1331 
Q 1566 -1331 1297 -1286 
Q 1028 -1241 775 -1147 
L 775 -588 
Q 1028 -725 1275 -790 
Q 1522 -856 1778 -856 
Q 2344 -856 2625 -561 
Q 2906 -266 2906 331 
L 2906 616 
Q 2728 306 2450 153 
Q 2172 0 1784 0 
Q 1141 0 747 490 
Q 353 981 353 1791 
Q 353 2603 747 3093 
Q 1141 3584 1784 3584 
Q 2172 3584 2450 3431 
Q 2728 3278 2906 2969 
L 2906 3500 
L 3481 3500 
L 3481 434 
z
" transform="scale(0.015625)"/>
      </defs>
      <use xlink:href="#DejaVuSans-49"/>
      <use xlink:href="#DejaVuSans-6e" x="29.492188"/>
      <use xlink:href="#DejaVuSans-64" x="92.871094"/>
      <use xlink:href="#DejaVuSans-65" x="156.347656"/>
      <use xlink:href="#DejaVuSans-70" x="217.871094"/>
      <use xlink:href="#DejaVuSans-65" x="281.347656"/>
      <use xlink:href="#DejaVuSans-6e" x="342.871094"/>
      <use xlink:href="#DejaVuSans-64" x="406.25"/>
      <use xlink:href="#DejaVuSans-65" x="469.726562"/>
      <use xlink:href="#DejaVuSans-6e" x="531.25"/>
      <use xlink:href="#DejaVuSans-74" x="594.628906"/>
      <use xlink:href="#DejaVuSans-20" x="633.837891"/>
      <use xlink:href="#DejaVuSans-54" x="665.625"/>
      <use xlink:href="#DejaVuSans-72" x="711.958984"/>
      <use xlink:href="#DejaVuSans-61" x="753.072266"/>
      <use xlink:href="#DejaVuSans-69" x="814.351562"/>
      <use xlink:href="#DejaVuSans-6e" x="842.134766"/>
      <use xlink:href="#DejaVuSans-69" x="905.513672"/>
      <use xlink:href="#DejaVuSans-6e" x="933.296875"/>
      <use xlink:href="#DejaVuSans-67" x="996.675781"/>
     </g>
    </g>
    <g id="line2d_43">
     <path d="M 476.415313 453.495938 
L 494.415313 453.495938 
L 512.415313 453.495938 
" style="fill: none; stroke-dasharray: 5.55,2.4; stroke-dashoffset: 0; stroke: #000000; stroke-width: 1.5"/>
    </g>
    <g id="text_16">
     <!-- Multi-task Training -->
     <g transform="translate(526.815313 459.795938) scale(0.18 -0.18)">
      <defs>
       <path id="DejaVuSans-6b" d="M 581 4863 
L 1159 4863 
L 1159 1991 
L 2875 3500 
L 3609 3500 
L 1753 1863 
L 3688 0 
L 2938 0 
L 1159 1709 
L 1159 0 
L 581 0 
L 581 4863 
z
" transform="scale(0.015625)"/>
      </defs>
      <use xlink:href="#DejaVuSans-4d"/>
      <use xlink:href="#DejaVuSans-75" x="86.279297"/>
      <use xlink:href="#DejaVuSans-6c" x="149.658203"/>
      <use xlink:href="#DejaVuSans-74" x="177.441406"/>
      <use xlink:href="#DejaVuSans-69" x="216.650391"/>
      <use xlink:href="#DejaVuSans-2d" x="244.433594"/>
      <use xlink:href="#DejaVuSans-74" x="280.517578"/>
      <use xlink:href="#DejaVuSans-61" x="319.726562"/>
      <use xlink:href="#DejaVuSans-73" x="381.005859"/>
      <use xlink:href="#DejaVuSans-6b" x="433.105469"/>
      <use xlink:href="#DejaVuSans-20" x="491.015625"/>
      <use xlink:href="#DejaVuSans-54" x="522.802734"/>
      <use xlink:href="#DejaVuSans-72" x="569.136719"/>
      <use xlink:href="#DejaVuSans-61" x="610.25"/>
      <use xlink:href="#DejaVuSans-69" x="671.529297"/>
      <use xlink:href="#DejaVuSans-6e" x="699.3125"/>
      <use xlink:href="#DejaVuSans-69" x="762.691406"/>
      <use xlink:href="#DejaVuSans-6e" x="790.474609"/>
      <use xlink:href="#DejaVuSans-67" x="853.853516"/>
     </g>
    </g>
    <g id="line2d_44">
     <path d="M 476.415313 479.916563 
L 494.415313 479.916563 
L 512.415313 479.916563 
" style="fill: none; stroke-dasharray: 5.55,2.4; stroke-dashoffset: 0; stroke: #ff0000; stroke-width: 1.5"/>
    </g>
    <g id="text_17">
     <!-- Stochastic Oracle -->
     <g transform="translate(526.815313 486.216563) scale(0.18 -0.18)">
      <defs>
       <path id="DejaVuSans-68" d="M 3513 2113 
L 3513 0 
L 2938 0 
L 2938 2094 
Q 2938 2591 2744 2837 
Q 2550 3084 2163 3084 
Q 1697 3084 1428 2787 
Q 1159 2491 1159 1978 
L 1159 0 
L 581 0 
L 581 4863 
L 1159 4863 
L 1159 2956 
Q 1366 3272 1645 3428 
Q 1925 3584 2291 3584 
Q 2894 3584 3203 3211 
Q 3513 2838 3513 2113 
z
" transform="scale(0.015625)"/>
      </defs>
      <use xlink:href="#DejaVuSans-53"/>
      <use xlink:href="#DejaVuSans-74" x="63.476562"/>
      <use xlink:href="#DejaVuSans-6f" x="102.685547"/>
      <use xlink:href="#DejaVuSans-63" x="163.867188"/>
      <use xlink:href="#DejaVuSans-68" x="218.847656"/>
      <use xlink:href="#DejaVuSans-61" x="282.226562"/>
      <use xlink:href="#DejaVuSans-73" x="343.505859"/>
      <use xlink:href="#DejaVuSans-74" x="395.605469"/>
      <use xlink:href="#DejaVuSans-69" x="434.814453"/>
      <use xlink:href="#DejaVuSans-63" x="462.597656"/>
      <use xlink:href="#DejaVuSans-20" x="517.578125"/>
      <use xlink:href="#DejaVuSans-4f" x="549.365234"/>
      <use xlink:href="#DejaVuSans-72" x="628.076172"/>
      <use xlink:href="#DejaVuSans-61" x="669.189453"/>
      <use xlink:href="#DejaVuSans-63" x="730.46875"/>
      <use xlink:href="#DejaVuSans-6c" x="785.449219"/>
      <use xlink:href="#DejaVuSans-65" x="813.232422"/>
     </g>
    </g>
   </g>
  </g>
 </g>
 <defs>
  <clipPath id="p6f4e1a8510">
   <rect x="64.24625" y="7.2" width="669.6" height="498.96"/>
  </clipPath>
 </defs>
</svg>
