<?xml version="1.0" encoding="utf-8" standalone="no"?>
<!DOCTYPE svg PUBLIC "-//W3C//DTD SVG 1.1//EN"
  "http://www.w3.org/Graphics/SVG/1.1/DTD/svg11.dtd">
<svg xmlns:xlink="http://www.w3.org/1999/xlink" width="587.962813pt" height="389.977813pt" viewBox="0 0 587.962813 389.977813" xmlns="http://www.w3.org/2000/svg" version="1.1">
 <metadata>
  <rdf:RDF xmlns:dc="http://purl.org/dc/elements/1.1/" xmlns:cc="http://creativecommons.org/ns#" xmlns:rdf="http://www.w3.org/1999/02/22-rdf-syntax-ns#">
   <cc:Work>
    <dc:type rdf:resource="http://purl.org/dc/dcmitype/StillImage"/>
    <dc:date>2025-11-18T14:57:04.147441</dc:date>
    <dc:format>image/svg+xml</dc:format>
    <dc:creator>
     <cc:Agent>
      <dc:title>Matplotlib v3.9.4, https://matplotlib.org/</dc:title>
     </cc:Agent>
    </dc:creator>
   </cc:Work>
  </rdf:RDF>
 </metadata>
 <defs>
  <style type="text/css">*{stroke-linejoin: round; stroke-linecap: butt}</style>
 </defs>
 <g id="figure_1">
  <g id="patch_1">
   <path d="M 0 389.977813 
L 587.962813 389.977813 
L 587.962813 0 
L 0 0 
z
" style="fill: #ffffff"/>
  </g>
  <g id="axes_1">
   <g id="patch_2">
    <path d="M 78.562813 339.84 
L 580.762812 339.84 
L 580.762812 7.2 
L 78.562813 7.2 
z
" style="fill: #ffffff"/>
   </g>
   <g id="PolyCollection_1">
    <defs>
     <path id="mcb510b9d35" d="M 101.390085 -139.844341 
L 101.390085 -65.257812 
L 182.282553 -145.169613 
L 229.601613 -182.608335 
L 263.175021 -212.227456 
L 289.216579 -228.294645 
L 310.494081 -239.727514 
L 328.483953 -250.205373 
L 344.067488 -259.559709 
L 357.813141 -266.946548 
L 370.109046 -273.56788 
L 381.232046 -279.093227 
L 391.386549 -284.590821 
L 400.727786 -289.273022 
L 409.37642 -293.386211 
L 417.428107 -297.511596 
L 424.959956 -301.078507 
L 432.035041 -304.134362 
L 438.705609 -306.737221 
L 445.015424 -309.229986 
L 451.001514 -311.428996 
L 456.69548 -313.639158 
L 462.124513 -315.655417 
L 467.312175 -317.630685 
L 472.279016 -319.418474 
L 477.043072 -321.342707 
L 481.620253 -323.212043 
L 486.024669 -324.913911 
L 490.268888 -326.563968 
L 494.364156 -328.204602 
L 498.320574 -329.885414 
L 502.14725 -331.227467 
L 505.852424 -332.589372 
L 509.443574 -333.714152 
L 512.927509 -334.866834 
L 516.310446 -336.133644 
L 519.598076 -337.386461 
L 522.795623 -338.56556 
L 525.907892 -339.704307 
L 528.939314 -340.787289 
L 531.893982 -341.913785 
L 534.775688 -342.9618 
L 537.587948 -343.957673 
L 540.334032 -345.04586 
L 543.016981 -345.952196 
L 545.639634 -346.844555 
L 548.204642 -347.766039 
L 550.714485 -348.499809 
L 553.171484 -349.410462 
L 555.57782 -350.244578 
L 557.93554 -350.921626 
L 557.93554 -355.096201 
L 557.93554 -355.096201 
L 555.57782 -354.372528 
L 553.171484 -353.660567 
L 550.714485 -352.875904 
L 548.204642 -352.059004 
L 545.639634 -351.376986 
L 543.016981 -350.472583 
L 540.334032 -349.581711 
L 537.587948 -348.674736 
L 534.775688 -347.754428 
L 531.893982 -346.763246 
L 528.939314 -345.75269 
L 525.907892 -344.716985 
L 522.795623 -343.641574 
L 519.598076 -342.670936 
L 516.310446 -341.638145 
L 512.927509 -340.328345 
L 509.443574 -339.210169 
L 505.852424 -337.951331 
L 502.14725 -336.706101 
L 498.320574 -335.361328 
L 494.364156 -333.935848 
L 490.268888 -332.525023 
L 486.024669 -331.039475 
L 481.620253 -329.43689 
L 477.043072 -327.848974 
L 472.279016 -326.156574 
L 467.312175 -324.32953 
L 462.124513 -322.452078 
L 456.69548 -320.328404 
L 451.001514 -318.017715 
L 445.015424 -315.803126 
L 438.705609 -313.396485 
L 432.035041 -310.773008 
L 424.959956 -308.160018 
L 417.428107 -305.332748 
L 409.37642 -302.024992 
L 400.727786 -298.574286 
L 391.386549 -294.618799 
L 381.232046 -290.083438 
L 370.109046 -285.227386 
L 357.813141 -280.42521 
L 344.067488 -274.071088 
L 328.483953 -266.547619 
L 310.494081 -258.031137 
L 289.216579 -246.85271 
L 263.175021 -233.466823 
L 229.601613 -218.849247 
L 182.282553 -189.676173 
L 101.390085 -139.844341 
z
" style="stroke: #7fc97f; stroke-opacity: 0.05"/>
    </defs>
    <g clip-path="url(#p7d18f7125f)">
     <use xlink:href="#mcb510b9d35" x="0" y="389.977813" style="fill: #7fc97f; fill-opacity: 0.05; stroke: #7fc97f; stroke-opacity: 0.05"/>
    </g>
   </g>
   <g id="PolyCollection_2">
    <defs>
     <path id="ma04fa8c56d" d="M 101.390085 -166.697925 
L 101.390085 -162.003791 
L 182.282553 -204.59507 
L 229.601613 -225.105688 
L 263.175021 -243.741093 
L 289.216579 -257.319899 
L 310.494081 -267.338808 
L 328.483953 -274.533251 
L 344.067488 -281.214 
L 357.813141 -286.643962 
L 370.109046 -291.994091 
L 381.232046 -296.659071 
L 391.386549 -301.30425 
L 400.727786 -305.545563 
L 409.37642 -308.660687 
L 417.428107 -311.37194 
L 424.959956 -314.185227 
L 432.035041 -316.285579 
L 438.705609 -318.500795 
L 445.015424 -320.588517 
L 451.001514 -322.843383 
L 456.69548 -324.829937 
L 462.124513 -326.54121 
L 467.312175 -328.152539 
L 472.279016 -329.70754 
L 477.043072 -331.077904 
L 481.620253 -332.464168 
L 486.024669 -333.98204 
L 490.268888 -335.412083 
L 494.364156 -336.602801 
L 498.320574 -338.048319 
L 502.14725 -339.280846 
L 505.852424 -340.544294 
L 509.443574 -341.634977 
L 512.927509 -342.609102 
L 516.310446 -343.500872 
L 519.598076 -344.524393 
L 522.795623 -345.551086 
L 525.907892 -346.418191 
L 528.939314 -347.426337 
L 531.893982 -348.240727 
L 534.775688 -349.093353 
L 537.587948 -350.030174 
L 540.334032 -350.810606 
L 543.016981 -351.486488 
L 545.639634 -352.103585 
L 548.204642 -352.850819 
L 550.714485 -353.551982 
L 553.171484 -354.239976 
L 555.57782 -354.947711 
L 557.93554 -355.648782 
L 557.93554 -359.395616 
L 557.93554 -359.395616 
L 555.57782 -358.760823 
L 553.171484 -358.081747 
L 550.714485 -357.350122 
L 548.204642 -356.608639 
L 545.639634 -355.859084 
L 543.016981 -355.171575 
L 540.334032 -354.523369 
L 537.587948 -353.815022 
L 534.775688 -352.863127 
L 531.893982 -352.001086 
L 528.939314 -351.195771 
L 525.907892 -350.154322 
L 522.795623 -349.276339 
L 519.598076 -348.333463 
L 516.310446 -347.304065 
L 512.927509 -346.455909 
L 509.443574 -345.48996 
L 505.852424 -344.344894 
L 502.14725 -343.153284 
L 498.320574 -341.936676 
L 494.364156 -340.499096 
L 490.268888 -339.284788 
L 486.024669 -337.989961 
L 481.620253 -336.442433 
L 477.043072 -335.061474 
L 472.279016 -333.699592 
L 467.312175 -332.232686 
L 462.124513 -330.633162 
L 456.69548 -328.838297 
L 451.001514 -326.980806 
L 445.015424 -324.975069 
L 438.705609 -322.77278 
L 432.035041 -320.545254 
L 424.959956 -318.461324 
L 417.428107 -315.803857 
L 409.37642 -312.954214 
L 400.727786 -309.92994 
L 391.386549 -305.593236 
L 381.232046 -301.018599 
L 370.109046 -296.295356 
L 357.813141 -290.805771 
L 344.067488 -285.224514 
L 328.483953 -278.715338 
L 310.494081 -271.798705 
L 289.216579 -261.473446 
L 263.175021 -247.87502 
L 229.601613 -229.125402 
L 182.282553 -209.238685 
L 101.390085 -166.697925 
z
" style="stroke: #f0027f; stroke-opacity: 0.05"/>
    </defs>
    <g clip-path="url(#p7d18f7125f)">
     <use xlink:href="#ma04fa8c56d" x="0" y="389.977813" style="fill: #f0027f; fill-opacity: 0.05; stroke: #f0027f; stroke-opacity: 0.05"/>
    </g>
   </g>
   <g id="PolyCollection_3">
    <defs>
     <path id="m169da9f06d" d="M 101.390085 -166.697925 
L 101.390085 -162.003791 
L 182.282553 -204.59507 
L 229.601613 -225.105688 
L 263.175021 -243.741093 
L 289.216579 -257.319899 
L 310.494081 -267.338808 
L 328.483953 -274.539137 
L 344.067488 -281.227024 
L 357.813141 -286.646396 
L 370.109046 -291.993303 
L 381.232046 -296.659329 
L 391.386549 -301.302303 
L 400.727786 -305.540121 
L 409.37642 -308.661803 
L 417.428107 -311.373844 
L 424.959956 -314.193522 
L 432.035041 -316.300846 
L 438.705609 -318.515804 
L 445.015424 -320.608693 
L 451.001514 -322.859483 
L 456.69548 -324.842111 
L 462.124513 -326.551418 
L 467.312175 -328.162116 
L 472.279016 -329.714429 
L 477.043072 -331.083777 
L 481.620253 -332.469198 
L 486.024669 -333.987209 
L 490.268888 -335.415233 
L 494.364156 -336.607035 
L 498.320574 -338.048701 
L 502.14725 -339.280814 
L 505.852424 -340.544067 
L 509.443574 -341.632819 
L 512.927509 -342.60961 
L 516.310446 -343.499262 
L 519.598076 -344.523153 
L 522.795623 -345.548863 
L 525.907892 -346.415427 
L 528.939314 -347.420718 
L 531.893982 -348.238212 
L 534.775688 -349.090572 
L 537.587948 -350.029916 
L 540.334032 -350.812794 
L 543.016981 -351.488834 
L 545.639634 -352.108595 
L 548.204642 -352.857028 
L 550.714485 -353.557687 
L 553.171484 -354.24702 
L 555.57782 -354.954381 
L 557.93554 -355.656823 
L 557.93554 -359.423113 
L 557.93554 -359.423113 
L 555.57782 -358.797037 
L 553.171484 -358.11525 
L 550.714485 -357.38454 
L 548.204642 -356.640105 
L 545.639634 -355.885845 
L 543.016981 -355.184277 
L 540.334032 -354.531829 
L 537.587948 -353.814063 
L 534.775688 -352.855584 
L 531.893982 -351.991024 
L 528.939314 -351.176867 
L 525.907892 -350.144241 
L 522.795623 -349.269632 
L 519.598076 -348.325333 
L 516.310446 -347.288554 
L 512.927509 -346.457982 
L 509.443574 -345.479742 
L 505.852424 -344.344236 
L 502.14725 -343.153198 
L 498.320574 -341.937267 
L 494.364156 -340.510732 
L 490.268888 -339.293713 
L 486.024669 -338.001465 
L 481.620253 -336.457875 
L 477.043072 -335.077099 
L 472.279016 -333.718791 
L 467.312175 -332.256745 
L 462.124513 -330.655316 
L 456.69548 -328.86854 
L 451.001514 -327.00549 
L 445.015424 -325.008355 
L 438.705609 -322.798942 
L 432.035041 -320.575961 
L 424.959956 -318.472666 
L 417.428107 -315.8088 
L 409.37642 -312.958583 
L 400.727786 -309.911722 
L 391.386549 -305.571318 
L 381.232046 -301.022034 
L 370.109046 -296.266576 
L 357.813141 -290.778073 
L 344.067488 -285.184899 
L 328.483953 -278.6735 
L 310.494081 -271.798705 
L 289.216579 -261.473446 
L 263.175021 -247.87502 
L 229.601613 -229.125402 
L 182.282553 -209.238685 
L 101.390085 -166.697925 
z
" style="stroke: #386cb0; stroke-opacity: 0.05"/>
    </defs>
    <g clip-path="url(#p7d18f7125f)">
     <use xlink:href="#m169da9f06d" x="0" y="389.977813" style="fill: #386cb0; fill-opacity: 0.05; stroke: #386cb0; stroke-opacity: 0.05"/>
    </g>
   </g>
   <g id="PolyCollection_4">
    <defs>
     <path id="mffcbc12f64" d="M 101.390085 -367.657813 
L 101.390085 -362.235414 
L 182.282553 -362.235414 
L 229.601613 -362.235414 
L 263.175021 -362.235414 
L 289.216579 -362.235414 
L 310.494081 -362.235414 
L 328.483953 -362.235414 
L 344.067488 -362.235414 
L 357.813141 -362.235414 
L 370.109046 -362.235414 
L 381.232046 -362.235414 
L 391.386549 -362.235414 
L 400.727786 -362.235414 
L 409.37642 -362.235414 
L 417.428107 -362.235414 
L 424.959956 -362.235414 
L 432.035041 -362.235414 
L 438.705609 -362.235414 
L 445.015424 -362.235414 
L 451.001514 -362.235414 
L 456.69548 -362.235414 
L 462.124513 -362.235414 
L 467.312175 -362.235414 
L 472.279016 -362.235414 
L 477.043072 -362.235414 
L 481.620253 -362.235414 
L 486.024669 -362.235414 
L 490.268888 -362.235414 
L 494.364156 -362.235414 
L 498.320574 -362.235414 
L 502.14725 -362.235414 
L 505.852424 -362.235414 
L 509.443574 -362.235414 
L 512.927509 -362.235414 
L 516.310446 -362.235414 
L 519.598076 -362.235414 
L 522.795623 -362.235414 
L 525.907892 -362.235414 
L 528.939314 -362.235414 
L 531.893982 -362.235414 
L 534.775688 -362.235414 
L 537.587948 -362.235414 
L 540.334032 -362.235414 
L 543.016981 -362.235414 
L 545.639634 -362.235414 
L 548.204642 -362.235414 
L 550.714485 -362.235414 
L 553.171484 -362.235414 
L 555.57782 -362.235414 
L 557.93554 -362.235414 
L 557.93554 -367.657813 
L 557.93554 -367.657813 
L 555.57782 -367.657813 
L 553.171484 -367.657813 
L 550.714485 -367.657813 
L 548.204642 -367.657813 
L 545.639634 -367.657813 
L 543.016981 -367.657813 
L 540.334032 -367.657813 
L 537.587948 -367.657813 
L 534.775688 -367.657813 
L 531.893982 -367.657813 
L 528.939314 -367.657813 
L 525.907892 -367.657813 
L 522.795623 -367.657813 
L 519.598076 -367.657813 
L 516.310446 -367.657813 
L 512.927509 -367.657813 
L 509.443574 -367.657813 
L 505.852424 -367.657813 
L 502.14725 -367.657813 
L 498.320574 -367.657813 
L 494.364156 -367.657813 
L 490.268888 -367.657813 
L 486.024669 -367.657813 
L 481.620253 -367.657813 
L 477.043072 -367.657813 
L 472.279016 -367.657813 
L 467.312175 -367.657813 
L 462.124513 -367.657813 
L 456.69548 -367.657813 
L 451.001514 -367.657813 
L 445.015424 -367.657813 
L 438.705609 -367.657813 
L 432.035041 -367.657813 
L 424.959956 -367.657813 
L 417.428107 -367.657813 
L 409.37642 -367.657813 
L 400.727786 -367.657813 
L 391.386549 -367.657813 
L 381.232046 -367.657813 
L 370.109046 -367.657813 
L 357.813141 -367.657813 
L 344.067488 -367.657813 
L 328.483953 -367.657813 
L 310.494081 -367.657813 
L 289.216579 -367.657813 
L 263.175021 -367.657813 
L 229.601613 -367.657813 
L 182.282553 -367.657813 
L 101.390085 -367.657813 
z
" style="stroke: #fdc086; stroke-opacity: 0.05"/>
    </defs>
    <g clip-path="url(#p7d18f7125f)">
     <use xlink:href="#mffcbc12f64" x="0" y="389.977813" style="fill: #fdc086; fill-opacity: 0.05; stroke: #fdc086; stroke-opacity: 0.05"/>
    </g>
   </g>
   <g id="PolyCollection_5">
    <defs>
     <path id="m63f5b3db5c" d="M 101.390085 -167.528562 
L 101.390085 -162.712071 
L 182.282553 -205.179322 
L 229.601613 -226.60006 
L 263.175021 -242.56949 
L 289.216579 -256.214766 
L 310.494081 -267.272459 
L 328.483953 -277.743029 
L 344.067488 -283.534106 
L 357.813141 -288.824821 
L 370.109046 -293.749602 
L 381.232046 -298.334867 
L 391.386549 -302.440785 
L 400.727786 -305.932786 
L 409.37642 -309.262451 
L 417.428107 -312.493128 
L 424.959956 -315.055066 
L 432.035041 -317.423089 
L 438.705609 -319.68235 
L 445.015424 -321.863251 
L 451.001514 -323.915922 
L 456.69548 -325.814825 
L 462.124513 -327.58068 
L 467.312175 -329.324662 
L 472.279016 -330.955919 
L 477.043072 -332.469872 
L 481.620253 -333.949305 
L 486.024669 -335.333338 
L 490.268888 -336.793012 
L 494.364156 -338.150835 
L 498.320574 -339.399555 
L 502.14725 -340.663984 
L 505.852424 -341.866043 
L 509.443574 -342.990385 
L 512.927509 -344.02856 
L 516.310446 -345.030096 
L 519.598076 -346.079238 
L 522.795623 -347.08783 
L 525.907892 -348.061683 
L 528.939314 -348.993091 
L 531.893982 -349.95362 
L 534.775688 -350.851247 
L 537.587948 -351.714483 
L 540.334032 -352.540554 
L 543.016981 -353.293814 
L 545.639634 -354.04234 
L 548.204642 -354.814319 
L 550.714485 -355.53998 
L 553.171484 -356.245494 
L 555.57782 -356.971123 
L 557.93554 -357.687966 
L 557.93554 -360.85239 
L 557.93554 -360.85239 
L 555.57782 -360.157137 
L 553.171484 -359.459782 
L 550.714485 -358.725754 
L 548.204642 -357.948306 
L 545.639634 -357.174403 
L 543.016981 -356.373038 
L 540.334032 -355.545045 
L 537.587948 -354.707182 
L 534.775688 -353.849992 
L 531.893982 -352.973791 
L 528.939314 -352.103288 
L 525.907892 -351.175815 
L 522.795623 -350.268395 
L 519.598076 -349.325635 
L 516.310446 -348.327802 
L 512.927509 -347.255895 
L 509.443574 -346.177896 
L 505.852424 -345.035214 
L 502.14725 -343.895972 
L 498.320574 -342.719888 
L 494.364156 -341.419024 
L 490.268888 -340.194096 
L 486.024669 -338.878439 
L 481.620253 -337.423884 
L 477.043072 -335.873799 
L 472.279016 -334.260557 
L 467.312175 -332.534906 
L 462.124513 -330.826095 
L 456.69548 -329.045037 
L 451.001514 -327.165055 
L 445.015424 -325.339946 
L 438.705609 -323.15142 
L 432.035041 -320.97838 
L 424.959956 -318.69478 
L 417.428107 -316.231195 
L 409.37642 -313.139685 
L 400.727786 -310.037872 
L 391.386549 -306.745214 
L 381.232046 -302.639097 
L 370.109046 -298.039868 
L 357.813141 -293.274115 
L 344.067488 -288.188853 
L 328.483953 -282.526582 
L 310.494081 -272.058697 
L 289.216579 -260.831693 
L 263.175021 -247.306527 
L 229.601613 -230.789728 
L 182.282553 -209.640665 
L 101.390085 -167.528562 
z
" style="stroke: #666666; stroke-opacity: 0.05"/>
    </defs>
    <g clip-path="url(#p7d18f7125f)">
     <use xlink:href="#m63f5b3db5c" x="0" y="389.977813" style="fill: #666666; fill-opacity: 0.05; stroke: #666666; stroke-opacity: 0.05"/>
    </g>
   </g>
   <g id="PolyCollection_6">
    <defs>
     <path id="m461a505e3a" d="M 101.390085 -166.697925 
L 101.390085 -162.003791 
L 182.282553 -188.501707 
L 229.601613 -201.891314 
L 263.175021 -221.259857 
L 289.216579 -235.4847 
L 310.494081 -247.151006 
L 328.483953 -255.126396 
L 344.067488 -260.49537 
L 357.813141 -265.775789 
L 370.109046 -270.421009 
L 381.232046 -274.778758 
L 391.386549 -278.261067 
L 400.727786 -281.468748 
L 409.37642 -284.163069 
L 417.428107 -286.84802 
L 424.959956 -289.364677 
L 432.035041 -291.660356 
L 438.705609 -293.885357 
L 445.015424 -295.860894 
L 451.001514 -297.813626 
L 456.69548 -299.838158 
L 462.124513 -301.66796 
L 467.312175 -303.557406 
L 472.279016 -305.29627 
L 477.043072 -307.049771 
L 481.620253 -308.595169 
L 486.024669 -310.273359 
L 490.268888 -311.632773 
L 494.364156 -313.036171 
L 498.320574 -314.447358 
L 502.14725 -315.820881 
L 505.852424 -317.139334 
L 509.443574 -318.359467 
L 512.927509 -319.689627 
L 516.310446 -320.876816 
L 519.598076 -322.059746 
L 522.795623 -323.144038 
L 525.907892 -324.494245 
L 528.939314 -325.475118 
L 531.893982 -326.501347 
L 534.775688 -327.467866 
L 537.587948 -328.32358 
L 540.334032 -329.098961 
L 543.016981 -329.881049 
L 545.639634 -330.747895 
L 548.204642 -331.649249 
L 550.714485 -332.539361 
L 553.171484 -333.513569 
L 555.57782 -334.352745 
L 557.93554 -335.114043 
L 557.93554 -353.495846 
L 557.93554 -353.495846 
L 555.57782 -352.803329 
L 553.171484 -352.078439 
L 550.714485 -351.291954 
L 548.204642 -350.582168 
L 545.639634 -349.691052 
L 543.016981 -348.840667 
L 540.334032 -347.993307 
L 537.587948 -347.096766 
L 534.775688 -346.163574 
L 531.893982 -345.177627 
L 528.939314 -344.13727 
L 525.907892 -343.256677 
L 522.795623 -342.192554 
L 519.598076 -341.054037 
L 516.310446 -340.019389 
L 512.927509 -338.747163 
L 509.443574 -337.583262 
L 505.852424 -336.396557 
L 502.14725 -335.2109 
L 498.320574 -333.920471 
L 494.364156 -332.516915 
L 490.268888 -331.081343 
L 486.024669 -329.47241 
L 481.620253 -327.842337 
L 477.043072 -326.179306 
L 472.279016 -324.454115 
L 467.312175 -322.719954 
L 462.124513 -320.703531 
L 456.69548 -318.761588 
L 451.001514 -316.792342 
L 445.015424 -314.41904 
L 438.705609 -312.104553 
L 432.035041 -309.648224 
L 424.959956 -306.89525 
L 417.428107 -304.223707 
L 409.37642 -301.155879 
L 400.727786 -297.713119 
L 391.386549 -293.987625 
L 381.232046 -290.095131 
L 370.109046 -285.586439 
L 357.813141 -280.514952 
L 344.067488 -274.925101 
L 328.483953 -268.067669 
L 310.494081 -258.875745 
L 289.216579 -245.97843 
L 263.175021 -229.554079 
L 229.601613 -209.674811 
L 182.282553 -194.217373 
L 101.390085 -166.697925 
z
" style="stroke: #bf5b17; stroke-opacity: 0.05"/>
    </defs>
    <g clip-path="url(#p7d18f7125f)">
     <use xlink:href="#m461a505e3a" x="0" y="389.977813" style="fill: #bf5b17; fill-opacity: 0.05; stroke: #bf5b17; stroke-opacity: 0.05"/>
    </g>
   </g>
   <g id="matplotlib.axis_1">
    <g id="xtick_1">
     <g id="line2d_1">
      <path d="M 101.390085 339.84 
L 101.390085 7.2 
" clip-path="url(#p7d18f7125f)" style="fill: none; stroke-dasharray: 1.85,0.8; stroke-dashoffset: 0; stroke: #b0b0b0; stroke-width: 0.5"/>
     </g>
     <g id="line2d_2">
      <defs>
       <path id="m03fddd54cd" d="M 0 0 
L 0 3.5 
" style="stroke: #000000; stroke-width: 0.8"/>
      </defs>
      <g>
       <use xlink:href="#m03fddd54cd" x="101.390085" y="339.84" style="stroke: #000000; stroke-width: 0.8"/>
      </g>
     </g>
     <g id="text_1">
      <!-- $\mathdefault{10^{0}}$ -->
      <g transform="translate(88.190085 358.237656) scale(0.15 -0.15)">
       <defs>
        <path id="DejaVuSans-31" d="M 794 531 
L 1825 531 
L 1825 4091 
L 703 3866 
L 703 4441 
L 1819 4666 
L 2450 4666 
L 2450 531 
L 3481 531 
L 3481 0 
L 794 0 
L 794 531 
z
" transform="scale(0.015625)"/>
        <path id="DejaVuSans-30" d="M 2034 4250 
Q 1547 4250 1301 3770 
Q 1056 3291 1056 2328 
Q 1056 1369 1301 889 
Q 1547 409 2034 409 
Q 2525 409 2770 889 
Q 3016 1369 3016 2328 
Q 3016 3291 2770 3770 
Q 2525 4250 2034 4250 
z
M 2034 4750 
Q 2819 4750 3233 4129 
Q 3647 3509 3647 2328 
Q 3647 1150 3233 529 
Q 2819 -91 2034 -91 
Q 1250 -91 836 529 
Q 422 1150 422 2328 
Q 422 3509 836 4129 
Q 1250 4750 2034 4750 
z
" transform="scale(0.015625)"/>
       </defs>
       <use xlink:href="#DejaVuSans-31" transform="translate(0 0.765625)"/>
       <use xlink:href="#DejaVuSans-30" transform="translate(63.623047 0.765625)"/>
       <use xlink:href="#DejaVuSans-30" transform="translate(128.203125 39.046875) scale(0.7)"/>
      </g>
     </g>
    </g>
    <g id="xtick_2">
     <g id="line2d_3">
      <path d="M 370.109046 339.84 
L 370.109046 7.2 
" clip-path="url(#p7d18f7125f)" style="fill: none; stroke-dasharray: 1.85,0.8; stroke-dashoffset: 0; stroke: #b0b0b0; stroke-width: 0.5"/>
     </g>
     <g id="line2d_4">
      <g>
       <use xlink:href="#m03fddd54cd" x="370.109046" y="339.84" style="stroke: #000000; stroke-width: 0.8"/>
      </g>
     </g>
     <g id="text_2">
      <!-- $\mathdefault{10^{1}}$ -->
      <g transform="translate(356.909046 358.237656) scale(0.15 -0.15)">
       <use xlink:href="#DejaVuSans-31" transform="translate(0 0.684375)"/>
       <use xlink:href="#DejaVuSans-30" transform="translate(63.623047 0.684375)"/>
       <use xlink:href="#DejaVuSans-31" transform="translate(128.203125 38.965625) scale(0.7)"/>
      </g>
     </g>
    </g>
    <g id="xtick_3">
     <g id="line2d_5">
      <defs>
       <path id="m9bdbd44986" d="M 0 0 
L 0 2 
" style="stroke: #000000; stroke-width: 0.6"/>
      </defs>
      <g>
       <use xlink:href="#m9bdbd44986" x="89.09418" y="339.84" style="stroke: #000000; stroke-width: 0.6"/>
      </g>
     </g>
    </g>
    <g id="xtick_4">
     <g id="line2d_6">
      <g>
       <use xlink:href="#m9bdbd44986" x="182.282553" y="339.84" style="stroke: #000000; stroke-width: 0.6"/>
      </g>
     </g>
    </g>
    <g id="xtick_5">
     <g id="line2d_7">
      <g>
       <use xlink:href="#m9bdbd44986" x="229.601613" y="339.84" style="stroke: #000000; stroke-width: 0.6"/>
      </g>
     </g>
    </g>
    <g id="xtick_6">
     <g id="line2d_8">
      <g>
       <use xlink:href="#m9bdbd44986" x="263.175021" y="339.84" style="stroke: #000000; stroke-width: 0.6"/>
      </g>
     </g>
    </g>
    <g id="xtick_7">
     <g id="line2d_9">
      <g>
       <use xlink:href="#m9bdbd44986" x="289.216579" y="339.84" style="stroke: #000000; stroke-width: 0.6"/>
      </g>
     </g>
    </g>
    <g id="xtick_8">
     <g id="line2d_10">
      <g>
       <use xlink:href="#m9bdbd44986" x="310.494081" y="339.84" style="stroke: #000000; stroke-width: 0.6"/>
      </g>
     </g>
    </g>
    <g id="xtick_9">
     <g id="line2d_11">
      <g>
       <use xlink:href="#m9bdbd44986" x="328.483953" y="339.84" style="stroke: #000000; stroke-width: 0.6"/>
      </g>
     </g>
    </g>
    <g id="xtick_10">
     <g id="line2d_12">
      <g>
       <use xlink:href="#m9bdbd44986" x="344.067488" y="339.84" style="stroke: #000000; stroke-width: 0.6"/>
      </g>
     </g>
    </g>
    <g id="xtick_11">
     <g id="line2d_13">
      <g>
       <use xlink:href="#m9bdbd44986" x="357.813141" y="339.84" style="stroke: #000000; stroke-width: 0.6"/>
      </g>
     </g>
    </g>
    <g id="xtick_12">
     <g id="line2d_14">
      <g>
       <use xlink:href="#m9bdbd44986" x="451.001514" y="339.84" style="stroke: #000000; stroke-width: 0.6"/>
      </g>
     </g>
    </g>
    <g id="xtick_13">
     <g id="line2d_15">
      <g>
       <use xlink:href="#m9bdbd44986" x="498.320574" y="339.84" style="stroke: #000000; stroke-width: 0.6"/>
      </g>
     </g>
    </g>
    <g id="xtick_14">
     <g id="line2d_16">
      <g>
       <use xlink:href="#m9bdbd44986" x="531.893982" y="339.84" style="stroke: #000000; stroke-width: 0.6"/>
      </g>
     </g>
    </g>
    <g id="xtick_15">
     <g id="line2d_17">
      <g>
       <use xlink:href="#m9bdbd44986" x="557.93554" y="339.84" style="stroke: #000000; stroke-width: 0.6"/>
      </g>
     </g>
    </g>
    <g id="xtick_16">
     <g id="line2d_18">
      <g>
       <use xlink:href="#m9bdbd44986" x="579.213042" y="339.84" style="stroke: #000000; stroke-width: 0.6"/>
      </g>
     </g>
    </g>
    <g id="text_3">
     <!-- Decision Round -->
     <g transform="translate(260.009844 379.034375) scale(0.18 -0.18)">
      <defs>
       <path id="DejaVuSans-44" d="M 1259 4147 
L 1259 519 
L 2022 519 
Q 2988 519 3436 956 
Q 3884 1394 3884 2338 
Q 3884 3275 3436 3711 
Q 2988 4147 2022 4147 
L 1259 4147 
z
M 628 4666 
L 1925 4666 
Q 3281 4666 3915 4102 
Q 4550 3538 4550 2338 
Q 4550 1131 3912 565 
Q 3275 0 1925 0 
L 628 0 
L 628 4666 
z
" transform="scale(0.015625)"/>
       <path id="DejaVuSans-65" d="M 3597 1894 
L 3597 1613 
L 953 1613 
Q 991 1019 1311 708 
Q 1631 397 2203 397 
Q 2534 397 2845 478 
Q 3156 559 3463 722 
L 3463 178 
Q 3153 47 2828 -22 
Q 2503 -91 2169 -91 
Q 1331 -91 842 396 
Q 353 884 353 1716 
Q 353 2575 817 3079 
Q 1281 3584 2069 3584 
Q 2775 3584 3186 3129 
Q 3597 2675 3597 1894 
z
M 3022 2063 
Q 3016 2534 2758 2815 
Q 2500 3097 2075 3097 
Q 1594 3097 1305 2825 
Q 1016 2553 972 2059 
L 3022 2063 
z
" transform="scale(0.015625)"/>
       <path id="DejaVuSans-63" d="M 3122 3366 
L 3122 2828 
Q 2878 2963 2633 3030 
Q 2388 3097 2138 3097 
Q 1578 3097 1268 2742 
Q 959 2388 959 1747 
Q 959 1106 1268 751 
Q 1578 397 2138 397 
Q 2388 397 2633 464 
Q 2878 531 3122 666 
L 3122 134 
Q 2881 22 2623 -34 
Q 2366 -91 2075 -91 
Q 1284 -91 818 406 
Q 353 903 353 1747 
Q 353 2603 823 3093 
Q 1294 3584 2113 3584 
Q 2378 3584 2631 3529 
Q 2884 3475 3122 3366 
z
" transform="scale(0.015625)"/>
       <path id="DejaVuSans-69" d="M 603 3500 
L 1178 3500 
L 1178 0 
L 603 0 
L 603 3500 
z
M 603 4863 
L 1178 4863 
L 1178 4134 
L 603 4134 
L 603 4863 
z
" transform="scale(0.015625)"/>
       <path id="DejaVuSans-73" d="M 2834 3397 
L 2834 2853 
Q 2591 2978 2328 3040 
Q 2066 3103 1784 3103 
Q 1356 3103 1142 2972 
Q 928 2841 928 2578 
Q 928 2378 1081 2264 
Q 1234 2150 1697 2047 
L 1894 2003 
Q 2506 1872 2764 1633 
Q 3022 1394 3022 966 
Q 3022 478 2636 193 
Q 2250 -91 1575 -91 
Q 1294 -91 989 -36 
Q 684 19 347 128 
L 347 722 
Q 666 556 975 473 
Q 1284 391 1588 391 
Q 1994 391 2212 530 
Q 2431 669 2431 922 
Q 2431 1156 2273 1281 
Q 2116 1406 1581 1522 
L 1381 1569 
Q 847 1681 609 1914 
Q 372 2147 372 2553 
Q 372 3047 722 3315 
Q 1072 3584 1716 3584 
Q 2034 3584 2315 3537 
Q 2597 3491 2834 3397 
z
" transform="scale(0.015625)"/>
       <path id="DejaVuSans-6f" d="M 1959 3097 
Q 1497 3097 1228 2736 
Q 959 2375 959 1747 
Q 959 1119 1226 758 
Q 1494 397 1959 397 
Q 2419 397 2687 759 
Q 2956 1122 2956 1747 
Q 2956 2369 2687 2733 
Q 2419 3097 1959 3097 
z
M 1959 3584 
Q 2709 3584 3137 3096 
Q 3566 2609 3566 1747 
Q 3566 888 3137 398 
Q 2709 -91 1959 -91 
Q 1206 -91 779 398 
Q 353 888 353 1747 
Q 353 2609 779 3096 
Q 1206 3584 1959 3584 
z
" transform="scale(0.015625)"/>
       <path id="DejaVuSans-6e" d="M 3513 2113 
L 3513 0 
L 2938 0 
L 2938 2094 
Q 2938 2591 2744 2837 
Q 2550 3084 2163 3084 
Q 1697 3084 1428 2787 
Q 1159 2491 1159 1978 
L 1159 0 
L 581 0 
L 581 3500 
L 1159 3500 
L 1159 2956 
Q 1366 3272 1645 3428 
Q 1925 3584 2291 3584 
Q 2894 3584 3203 3211 
Q 3513 2838 3513 2113 
z
" transform="scale(0.015625)"/>
       <path id="DejaVuSans-20" transform="scale(0.015625)"/>
       <path id="DejaVuSans-52" d="M 2841 2188 
Q 3044 2119 3236 1894 
Q 3428 1669 3622 1275 
L 4263 0 
L 3584 0 
L 2988 1197 
Q 2756 1666 2539 1819 
Q 2322 1972 1947 1972 
L 1259 1972 
L 1259 0 
L 628 0 
L 628 4666 
L 2053 4666 
Q 2853 4666 3247 4331 
Q 3641 3997 3641 3322 
Q 3641 2881 3436 2590 
Q 3231 2300 2841 2188 
z
M 1259 4147 
L 1259 2491 
L 2053 2491 
Q 2509 2491 2742 2702 
Q 2975 2913 2975 3322 
Q 2975 3731 2742 3939 
Q 2509 4147 2053 4147 
L 1259 4147 
z
" transform="scale(0.015625)"/>
       <path id="DejaVuSans-75" d="M 544 1381 
L 544 3500 
L 1119 3500 
L 1119 1403 
Q 1119 906 1312 657 
Q 1506 409 1894 409 
Q 2359 409 2629 706 
Q 2900 1003 2900 1516 
L 2900 3500 
L 3475 3500 
L 3475 0 
L 2900 0 
L 2900 538 
Q 2691 219 2414 64 
Q 2138 -91 1772 -91 
Q 1169 -91 856 284 
Q 544 659 544 1381 
z
M 1991 3584 
L 1991 3584 
z
" transform="scale(0.015625)"/>
       <path id="DejaVuSans-64" d="M 2906 2969 
L 2906 4863 
L 3481 4863 
L 3481 0 
L 2906 0 
L 2906 525 
Q 2725 213 2448 61 
Q 2172 -91 1784 -91 
Q 1150 -91 751 415 
Q 353 922 353 1747 
Q 353 2572 751 3078 
Q 1150 3584 1784 3584 
Q 2172 3584 2448 3432 
Q 2725 3281 2906 2969 
z
M 947 1747 
Q 947 1113 1208 752 
Q 1469 391 1925 391 
Q 2381 391 2643 752 
Q 2906 1113 2906 1747 
Q 2906 2381 2643 2742 
Q 2381 3103 1925 3103 
Q 1469 3103 1208 2742 
Q 947 2381 947 1747 
z
" transform="scale(0.015625)"/>
      </defs>
      <use xlink:href="#DejaVuSans-44"/>
      <use xlink:href="#DejaVuSans-65" x="77.001953"/>
      <use xlink:href="#DejaVuSans-63" x="138.525391"/>
      <use xlink:href="#DejaVuSans-69" x="193.505859"/>
      <use xlink:href="#DejaVuSans-73" x="221.289062"/>
      <use xlink:href="#DejaVuSans-69" x="273.388672"/>
      <use xlink:href="#DejaVuSans-6f" x="301.171875"/>
      <use xlink:href="#DejaVuSans-6e" x="362.353516"/>
      <use xlink:href="#DejaVuSans-20" x="425.732422"/>
      <use xlink:href="#DejaVuSans-52" x="457.519531"/>
      <use xlink:href="#DejaVuSans-6f" x="522.501953"/>
      <use xlink:href="#DejaVuSans-75" x="583.683594"/>
      <use xlink:href="#DejaVuSans-6e" x="647.0625"/>
      <use xlink:href="#DejaVuSans-64" x="710.441406"/>
     </g>
    </g>
   </g>
   <g id="matplotlib.axis_2">
    <g id="ytick_1">
     <g id="line2d_19">
      <path d="M 78.562813 339.726508 
L 580.762812 339.726508 
" clip-path="url(#p7d18f7125f)" style="fill: none; stroke-dasharray: 1.85,0.8; stroke-dashoffset: 0; stroke: #b0b0b0; stroke-width: 0.5"/>
     </g>
     <g id="line2d_20">
      <defs>
       <path id="m4780063b88" d="M 0 0 
L -3.5 0 
" style="stroke: #000000; stroke-width: 0.8"/>
      </defs>
      <g>
       <use xlink:href="#m4780063b88" x="78.562813" y="339.726508" style="stroke: #000000; stroke-width: 0.8"/>
      </g>
     </g>
     <g id="text_4">
      <!-- 0.525 -->
      <g transform="translate(28.620625 345.425336) scale(0.15 -0.15)">
       <defs>
        <path id="DejaVuSans-2e" d="M 684 794 
L 1344 794 
L 1344 0 
L 684 0 
L 684 794 
z
" transform="scale(0.015625)"/>
        <path id="DejaVuSans-35" d="M 691 4666 
L 3169 4666 
L 3169 4134 
L 1269 4134 
L 1269 2991 
Q 1406 3038 1543 3061 
Q 1681 3084 1819 3084 
Q 2600 3084 3056 2656 
Q 3513 2228 3513 1497 
Q 3513 744 3044 326 
Q 2575 -91 1722 -91 
Q 1428 -91 1123 -41 
Q 819 9 494 109 
L 494 744 
Q 775 591 1075 516 
Q 1375 441 1709 441 
Q 2250 441 2565 725 
Q 2881 1009 2881 1497 
Q 2881 1984 2565 2268 
Q 2250 2553 1709 2553 
Q 1456 2553 1204 2497 
Q 953 2441 691 2322 
L 691 4666 
z
" transform="scale(0.015625)"/>
        <path id="DejaVuSans-32" d="M 1228 531 
L 3431 531 
L 3431 0 
L 469 0 
L 469 531 
Q 828 903 1448 1529 
Q 2069 2156 2228 2338 
Q 2531 2678 2651 2914 
Q 2772 3150 2772 3378 
Q 2772 3750 2511 3984 
Q 2250 4219 1831 4219 
Q 1534 4219 1204 4116 
Q 875 4013 500 3803 
L 500 4441 
Q 881 4594 1212 4672 
Q 1544 4750 1819 4750 
Q 2544 4750 2975 4387 
Q 3406 4025 3406 3419 
Q 3406 3131 3298 2873 
Q 3191 2616 2906 2266 
Q 2828 2175 2409 1742 
Q 1991 1309 1228 531 
z
" transform="scale(0.015625)"/>
       </defs>
       <use xlink:href="#DejaVuSans-30"/>
       <use xlink:href="#DejaVuSans-2e" x="63.623047"/>
       <use xlink:href="#DejaVuSans-35" x="95.410156"/>
       <use xlink:href="#DejaVuSans-32" x="159.033203"/>
       <use xlink:href="#DejaVuSans-35" x="222.65625"/>
      </g>
     </g>
    </g>
    <g id="ytick_2">
     <g id="line2d_21">
      <path d="M 78.562813 296.751886 
L 580.762812 296.751886 
" clip-path="url(#p7d18f7125f)" style="fill: none; stroke-dasharray: 1.85,0.8; stroke-dashoffset: 0; stroke: #b0b0b0; stroke-width: 0.5"/>
     </g>
     <g id="line2d_22">
      <g>
       <use xlink:href="#m4780063b88" x="78.562813" y="296.751886" style="stroke: #000000; stroke-width: 0.8"/>
      </g>
     </g>
     <g id="text_5">
      <!-- 0.550 -->
      <g transform="translate(28.620625 302.450715) scale(0.15 -0.15)">
       <use xlink:href="#DejaVuSans-30"/>
       <use xlink:href="#DejaVuSans-2e" x="63.623047"/>
       <use xlink:href="#DejaVuSans-35" x="95.410156"/>
       <use xlink:href="#DejaVuSans-35" x="159.033203"/>
       <use xlink:href="#DejaVuSans-30" x="222.65625"/>
      </g>
     </g>
    </g>
    <g id="ytick_3">
     <g id="line2d_23">
      <path d="M 78.562813 253.777265 
L 580.762812 253.777265 
" clip-path="url(#p7d18f7125f)" style="fill: none; stroke-dasharray: 1.85,0.8; stroke-dashoffset: 0; stroke: #b0b0b0; stroke-width: 0.5"/>
     </g>
     <g id="line2d_24">
      <g>
       <use xlink:href="#m4780063b88" x="78.562813" y="253.777265" style="stroke: #000000; stroke-width: 0.8"/>
      </g>
     </g>
     <g id="text_6">
      <!-- 0.575 -->
      <g transform="translate(28.620625 259.476093) scale(0.15 -0.15)">
       <defs>
        <path id="DejaVuSans-37" d="M 525 4666 
L 3525 4666 
L 3525 4397 
L 1831 0 
L 1172 0 
L 2766 4134 
L 525 4134 
L 525 4666 
z
" transform="scale(0.015625)"/>
       </defs>
       <use xlink:href="#DejaVuSans-30"/>
       <use xlink:href="#DejaVuSans-2e" x="63.623047"/>
       <use xlink:href="#DejaVuSans-35" x="95.410156"/>
       <use xlink:href="#DejaVuSans-37" x="159.033203"/>
       <use xlink:href="#DejaVuSans-35" x="222.65625"/>
      </g>
     </g>
    </g>
    <g id="ytick_4">
     <g id="line2d_25">
      <path d="M 78.562813 210.802643 
L 580.762812 210.802643 
" clip-path="url(#p7d18f7125f)" style="fill: none; stroke-dasharray: 1.85,0.8; stroke-dashoffset: 0; stroke: #b0b0b0; stroke-width: 0.5"/>
     </g>
     <g id="line2d_26">
      <g>
       <use xlink:href="#m4780063b88" x="78.562813" y="210.802643" style="stroke: #000000; stroke-width: 0.8"/>
      </g>
     </g>
     <g id="text_7">
      <!-- 0.600 -->
      <g transform="translate(28.620625 216.501471) scale(0.15 -0.15)">
       <defs>
        <path id="DejaVuSans-36" d="M 2113 2584 
Q 1688 2584 1439 2293 
Q 1191 2003 1191 1497 
Q 1191 994 1439 701 
Q 1688 409 2113 409 
Q 2538 409 2786 701 
Q 3034 994 3034 1497 
Q 3034 2003 2786 2293 
Q 2538 2584 2113 2584 
z
M 3366 4563 
L 3366 3988 
Q 3128 4100 2886 4159 
Q 2644 4219 2406 4219 
Q 1781 4219 1451 3797 
Q 1122 3375 1075 2522 
Q 1259 2794 1537 2939 
Q 1816 3084 2150 3084 
Q 2853 3084 3261 2657 
Q 3669 2231 3669 1497 
Q 3669 778 3244 343 
Q 2819 -91 2113 -91 
Q 1303 -91 875 529 
Q 447 1150 447 2328 
Q 447 3434 972 4092 
Q 1497 4750 2381 4750 
Q 2619 4750 2861 4703 
Q 3103 4656 3366 4563 
z
" transform="scale(0.015625)"/>
       </defs>
       <use xlink:href="#DejaVuSans-30"/>
       <use xlink:href="#DejaVuSans-2e" x="63.623047"/>
       <use xlink:href="#DejaVuSans-36" x="95.410156"/>
       <use xlink:href="#DejaVuSans-30" x="159.033203"/>
       <use xlink:href="#DejaVuSans-30" x="222.65625"/>
      </g>
     </g>
    </g>
    <g id="ytick_5">
     <g id="line2d_27">
      <path d="M 78.562813 167.828022 
L 580.762812 167.828022 
" clip-path="url(#p7d18f7125f)" style="fill: none; stroke-dasharray: 1.85,0.8; stroke-dashoffset: 0; stroke: #b0b0b0; stroke-width: 0.5"/>
     </g>
     <g id="line2d_28">
      <g>
       <use xlink:href="#m4780063b88" x="78.562813" y="167.828022" style="stroke: #000000; stroke-width: 0.8"/>
      </g>
     </g>
     <g id="text_8">
      <!-- 0.625 -->
      <g transform="translate(28.620625 173.52685) scale(0.15 -0.15)">
       <use xlink:href="#DejaVuSans-30"/>
       <use xlink:href="#DejaVuSans-2e" x="63.623047"/>
       <use xlink:href="#DejaVuSans-36" x="95.410156"/>
       <use xlink:href="#DejaVuSans-32" x="159.033203"/>
       <use xlink:href="#DejaVuSans-35" x="222.65625"/>
      </g>
     </g>
    </g>
    <g id="ytick_6">
     <g id="line2d_29">
      <path d="M 78.562813 124.8534 
L 580.762812 124.8534 
" clip-path="url(#p7d18f7125f)" style="fill: none; stroke-dasharray: 1.85,0.8; stroke-dashoffset: 0; stroke: #b0b0b0; stroke-width: 0.5"/>
     </g>
     <g id="line2d_30">
      <g>
       <use xlink:href="#m4780063b88" x="78.562813" y="124.8534" style="stroke: #000000; stroke-width: 0.8"/>
      </g>
     </g>
     <g id="text_9">
      <!-- 0.650 -->
      <g transform="translate(28.620625 130.552228) scale(0.15 -0.15)">
       <use xlink:href="#DejaVuSans-30"/>
       <use xlink:href="#DejaVuSans-2e" x="63.623047"/>
       <use xlink:href="#DejaVuSans-36" x="95.410156"/>
       <use xlink:href="#DejaVuSans-35" x="159.033203"/>
       <use xlink:href="#DejaVuSans-30" x="222.65625"/>
      </g>
     </g>
    </g>
    <g id="ytick_7">
     <g id="line2d_31">
      <path d="M 78.562813 81.878779 
L 580.762812 81.878779 
" clip-path="url(#p7d18f7125f)" style="fill: none; stroke-dasharray: 1.85,0.8; stroke-dashoffset: 0; stroke: #b0b0b0; stroke-width: 0.5"/>
     </g>
     <g id="line2d_32">
      <g>
       <use xlink:href="#m4780063b88" x="78.562813" y="81.878779" style="stroke: #000000; stroke-width: 0.8"/>
      </g>
     </g>
     <g id="text_10">
      <!-- 0.675 -->
      <g transform="translate(28.620625 87.577607) scale(0.15 -0.15)">
       <use xlink:href="#DejaVuSans-30"/>
       <use xlink:href="#DejaVuSans-2e" x="63.623047"/>
       <use xlink:href="#DejaVuSans-36" x="95.410156"/>
       <use xlink:href="#DejaVuSans-37" x="159.033203"/>
       <use xlink:href="#DejaVuSans-35" x="222.65625"/>
      </g>
     </g>
    </g>
    <g id="ytick_8">
     <g id="line2d_33">
      <path d="M 78.562813 38.904157 
L 580.762812 38.904157 
" clip-path="url(#p7d18f7125f)" style="fill: none; stroke-dasharray: 1.85,0.8; stroke-dashoffset: 0; stroke: #b0b0b0; stroke-width: 0.5"/>
     </g>
     <g id="line2d_34">
      <g>
       <use xlink:href="#m4780063b88" x="78.562813" y="38.904157" style="stroke: #000000; stroke-width: 0.8"/>
      </g>
     </g>
     <g id="text_11">
      <!-- 0.700 -->
      <g transform="translate(28.620625 44.602985) scale(0.15 -0.15)">
       <use xlink:href="#DejaVuSans-30"/>
       <use xlink:href="#DejaVuSans-2e" x="63.623047"/>
       <use xlink:href="#DejaVuSans-37" x="95.410156"/>
       <use xlink:href="#DejaVuSans-30" x="159.033203"/>
       <use xlink:href="#DejaVuSans-30" x="222.65625"/>
      </g>
     </g>
    </g>
    <g id="text_12">
     <!-- Normalized Performance -->
     <g transform="translate(20.877188 284.447812) rotate(-90) scale(0.18 -0.18)">
      <defs>
       <path id="DejaVuSans-4e" d="M 628 4666 
L 1478 4666 
L 3547 763 
L 3547 4666 
L 4159 4666 
L 4159 0 
L 3309 0 
L 1241 3903 
L 1241 0 
L 628 0 
L 628 4666 
z
" transform="scale(0.015625)"/>
       <path id="DejaVuSans-72" d="M 2631 2963 
Q 2534 3019 2420 3045 
Q 2306 3072 2169 3072 
Q 1681 3072 1420 2755 
Q 1159 2438 1159 1844 
L 1159 0 
L 581 0 
L 581 3500 
L 1159 3500 
L 1159 2956 
Q 1341 3275 1631 3429 
Q 1922 3584 2338 3584 
Q 2397 3584 2469 3576 
Q 2541 3569 2628 3553 
L 2631 2963 
z
" transform="scale(0.015625)"/>
       <path id="DejaVuSans-6d" d="M 3328 2828 
Q 3544 3216 3844 3400 
Q 4144 3584 4550 3584 
Q 5097 3584 5394 3201 
Q 5691 2819 5691 2113 
L 5691 0 
L 5113 0 
L 5113 2094 
Q 5113 2597 4934 2840 
Q 4756 3084 4391 3084 
Q 3944 3084 3684 2787 
Q 3425 2491 3425 1978 
L 3425 0 
L 2847 0 
L 2847 2094 
Q 2847 2600 2669 2842 
Q 2491 3084 2119 3084 
Q 1678 3084 1418 2786 
Q 1159 2488 1159 1978 
L 1159 0 
L 581 0 
L 581 3500 
L 1159 3500 
L 1159 2956 
Q 1356 3278 1631 3431 
Q 1906 3584 2284 3584 
Q 2666 3584 2933 3390 
Q 3200 3197 3328 2828 
z
" transform="scale(0.015625)"/>
       <path id="DejaVuSans-61" d="M 2194 1759 
Q 1497 1759 1228 1600 
Q 959 1441 959 1056 
Q 959 750 1161 570 
Q 1363 391 1709 391 
Q 2188 391 2477 730 
Q 2766 1069 2766 1631 
L 2766 1759 
L 2194 1759 
z
M 3341 1997 
L 3341 0 
L 2766 0 
L 2766 531 
Q 2569 213 2275 61 
Q 1981 -91 1556 -91 
Q 1019 -91 701 211 
Q 384 513 384 1019 
Q 384 1609 779 1909 
Q 1175 2209 1959 2209 
L 2766 2209 
L 2766 2266 
Q 2766 2663 2505 2880 
Q 2244 3097 1772 3097 
Q 1472 3097 1187 3025 
Q 903 2953 641 2809 
L 641 3341 
Q 956 3463 1253 3523 
Q 1550 3584 1831 3584 
Q 2591 3584 2966 3190 
Q 3341 2797 3341 1997 
z
" transform="scale(0.015625)"/>
       <path id="DejaVuSans-6c" d="M 603 4863 
L 1178 4863 
L 1178 0 
L 603 0 
L 603 4863 
z
" transform="scale(0.015625)"/>
       <path id="DejaVuSans-7a" d="M 353 3500 
L 3084 3500 
L 3084 2975 
L 922 459 
L 3084 459 
L 3084 0 
L 275 0 
L 275 525 
L 2438 3041 
L 353 3041 
L 353 3500 
z
" transform="scale(0.015625)"/>
       <path id="DejaVuSans-50" d="M 1259 4147 
L 1259 2394 
L 2053 2394 
Q 2494 2394 2734 2622 
Q 2975 2850 2975 3272 
Q 2975 3691 2734 3919 
Q 2494 4147 2053 4147 
L 1259 4147 
z
M 628 4666 
L 2053 4666 
Q 2838 4666 3239 4311 
Q 3641 3956 3641 3272 
Q 3641 2581 3239 2228 
Q 2838 1875 2053 1875 
L 1259 1875 
L 1259 0 
L 628 0 
L 628 4666 
z
" transform="scale(0.015625)"/>
       <path id="DejaVuSans-66" d="M 2375 4863 
L 2375 4384 
L 1825 4384 
Q 1516 4384 1395 4259 
Q 1275 4134 1275 3809 
L 1275 3500 
L 2222 3500 
L 2222 3053 
L 1275 3053 
L 1275 0 
L 697 0 
L 697 3053 
L 147 3053 
L 147 3500 
L 697 3500 
L 697 3744 
Q 697 4328 969 4595 
Q 1241 4863 1831 4863 
L 2375 4863 
z
" transform="scale(0.015625)"/>
      </defs>
      <use xlink:href="#DejaVuSans-4e"/>
      <use xlink:href="#DejaVuSans-6f" x="74.804688"/>
      <use xlink:href="#DejaVuSans-72" x="135.986328"/>
      <use xlink:href="#DejaVuSans-6d" x="175.349609"/>
      <use xlink:href="#DejaVuSans-61" x="272.761719"/>
      <use xlink:href="#DejaVuSans-6c" x="334.041016"/>
      <use xlink:href="#DejaVuSans-69" x="361.824219"/>
      <use xlink:href="#DejaVuSans-7a" x="389.607422"/>
      <use xlink:href="#DejaVuSans-65" x="442.097656"/>
      <use xlink:href="#DejaVuSans-64" x="503.621094"/>
      <use xlink:href="#DejaVuSans-20" x="567.097656"/>
      <use xlink:href="#DejaVuSans-50" x="598.884766"/>
      <use xlink:href="#DejaVuSans-65" x="655.5625"/>
      <use xlink:href="#DejaVuSans-72" x="717.085938"/>
      <use xlink:href="#DejaVuSans-66" x="758.199219"/>
      <use xlink:href="#DejaVuSans-6f" x="793.404297"/>
      <use xlink:href="#DejaVuSans-72" x="854.585938"/>
      <use xlink:href="#DejaVuSans-6d" x="893.949219"/>
      <use xlink:href="#DejaVuSans-61" x="991.361328"/>
      <use xlink:href="#DejaVuSans-6e" x="1052.640625"/>
      <use xlink:href="#DejaVuSans-63" x="1116.019531"/>
      <use xlink:href="#DejaVuSans-65" x="1171"/>
     </g>
    </g>
   </g>
   <g id="line2d_35">
    <path d="M 101.390085 287.426736 
L 182.282553 222.554919 
L 229.601613 189.249022 
L 263.175021 167.130673 
L 289.216579 152.404135 
L 310.494081 141.098487 
L 328.483953 131.601317 
L 344.067488 123.162414 
L 357.813141 116.291934 
L 370.109046 110.580179 
L 381.232046 105.38948 
L 391.386549 100.373002 
L 400.727786 96.054158 
L 409.37642 92.272211 
L 417.428107 88.555641 
L 424.959956 85.35855 
L 432.035041 82.524127 
L 438.705609 79.91096 
L 445.015424 77.461257 
L 451.001514 75.254457 
L 456.69548 72.994032 
L 462.124513 70.924065 
L 467.312175 68.997705 
L 472.279016 67.190288 
L 477.043072 65.381972 
L 481.620253 63.653346 
L 486.024669 62.001119 
L 490.268888 60.433317 
L 494.364156 58.907587 
L 498.320574 57.354441 
L 502.14725 56.011028 
L 505.852424 54.707461 
L 509.443574 53.515652 
L 512.927509 52.380223 
L 516.310446 51.091918 
L 519.598076 49.949114 
L 522.795623 48.874246 
L 525.907892 47.767167 
L 528.939314 46.707823 
L 531.893982 45.639297 
L 534.775688 44.619698 
L 537.587948 43.661608 
L 540.334032 42.664027 
L 543.016981 41.765423 
L 545.639634 40.867042 
L 548.204642 40.065291 
L 550.714485 39.289956 
L 553.171484 38.442298 
L 555.57782 37.66926 
L 557.93554 36.968899 
" clip-path="url(#p7d18f7125f)" style="fill: none; stroke: #7fc97f; stroke-width: 3; stroke-linecap: square"/>
   </g>
   <g id="line2d_36">
    <path d="M 101.390085 225.626955 
L 182.282553 183.060935 
L 229.601613 162.862268 
L 263.175021 144.169756 
L 289.216579 130.58114 
L 310.494081 120.409056 
L 328.483953 113.353518 
L 344.067488 106.758556 
L 357.813141 101.252946 
L 370.109046 95.833089 
L 381.232046 91.138978 
L 391.386549 86.52907 
L 400.727786 82.240061 
L 409.37642 79.170362 
L 417.428107 76.389914 
L 424.959956 73.654537 
L 432.035041 71.562396 
L 438.705609 69.341025 
L 445.015424 67.19602 
L 451.001514 65.065718 
L 456.69548 63.143695 
L 462.124513 61.390627 
L 467.312175 59.7852 
L 472.279016 58.274246 
L 477.043072 56.908124 
L 481.620253 55.524512 
L 486.024669 53.991812 
L 490.268888 52.629377 
L 494.364156 51.426864 
L 498.320574 49.985315 
L 502.14725 48.760747 
L 505.852424 47.533218 
L 509.443574 46.415344 
L 512.927509 45.445307 
L 516.310446 44.575344 
L 519.598076 43.548884 
L 522.795623 42.5641 
L 525.907892 41.691556 
L 528.939314 40.666758 
L 531.893982 39.856906 
L 534.775688 38.999572 
L 537.587948 38.055215 
L 540.334032 37.310825 
L 543.016981 36.648781 
L 545.639634 35.996478 
L 548.204642 35.248083 
L 550.714485 34.526761 
L 553.171484 33.816951 
L 555.57782 33.123546 
L 557.93554 32.455613 
" clip-path="url(#p7d18f7125f)" style="fill: none; stroke: #f0027f; stroke-width: 3; stroke-linecap: square"/>
   </g>
   <g id="line2d_37">
    <path d="M 101.390085 225.626955 
L 182.282553 183.060935 
L 229.601613 162.862268 
L 263.175021 144.169756 
L 289.216579 130.58114 
L 310.494081 120.409056 
L 328.483953 113.371494 
L 344.067488 106.771851 
L 357.813141 101.265578 
L 370.109046 95.847873 
L 381.232046 91.137131 
L 391.386549 86.541002 
L 400.727786 82.251891 
L 409.37642 79.16762 
L 417.428107 76.386491 
L 424.959956 73.644719 
L 432.035041 71.539409 
L 438.705609 69.320439 
L 445.015424 67.169289 
L 451.001514 65.045326 
L 456.69548 63.122487 
L 462.124513 61.374445 
L 467.312175 59.768382 
L 472.279016 58.261202 
L 477.043072 56.897375 
L 481.620253 55.514276 
L 486.024669 53.983475 
L 490.268888 52.623339 
L 494.364156 51.418929 
L 498.320574 49.984828 
L 502.14725 48.760806 
L 505.852424 47.533661 
L 509.443574 46.421532 
L 512.927509 45.444017 
L 516.310446 44.583904 
L 519.598076 43.55357 
L 522.795623 42.568565 
L 525.907892 41.697979 
L 528.939314 40.67902 
L 531.893982 39.863195 
L 534.775688 39.004734 
L 537.587948 38.055823 
L 540.334032 37.305501 
L 543.016981 36.641257 
L 545.639634 35.980593 
L 548.204642 35.229246 
L 550.714485 34.506699 
L 553.171484 33.796677 
L 555.57782 33.102104 
L 557.93554 32.437845 
" clip-path="url(#p7d18f7125f)" style="fill: none; stroke: #386cb0; stroke-width: 3; stroke-linecap: square"/>
   </g>
   <g id="line2d_38">
    <path d="M 101.390085 25.031199 
L 182.282553 25.031199 
L 229.601613 25.031199 
L 263.175021 25.031199 
L 289.216579 25.031199 
L 310.494081 25.031199 
L 328.483953 25.031199 
L 344.067488 25.031199 
L 357.813141 25.031199 
L 370.109046 25.031199 
L 381.232046 25.031199 
L 391.386549 25.031199 
L 400.727786 25.031199 
L 409.37642 25.031199 
L 417.428107 25.031199 
L 424.959956 25.031199 
L 432.035041 25.031199 
L 438.705609 25.031199 
L 445.015424 25.031199 
L 451.001514 25.031199 
L 456.69548 25.031199 
L 462.124513 25.031199 
L 467.312175 25.031199 
L 472.279016 25.031199 
L 477.043072 25.031199 
L 481.620253 25.031199 
L 486.024669 25.031199 
L 490.268888 25.031199 
L 494.364156 25.031199 
L 498.320574 25.031199 
L 502.14725 25.031199 
L 505.852424 25.031199 
L 509.443574 25.031199 
L 512.927509 25.031199 
L 516.310446 25.031199 
L 519.598076 25.031199 
L 522.795623 25.031199 
L 525.907892 25.031199 
L 528.939314 25.031199 
L 531.893982 25.031199 
L 534.775688 25.031199 
L 537.587948 25.031199 
L 540.334032 25.031199 
L 543.016981 25.031199 
L 545.639634 25.031199 
L 548.204642 25.031199 
L 550.714485 25.031199 
L 553.171484 25.031199 
L 555.57782 25.031199 
L 557.93554 25.031199 
" clip-path="url(#p7d18f7125f)" style="fill: none; stroke-dasharray: 11.1,4.8; stroke-dashoffset: 0; stroke: #fdc086; stroke-width: 3"/>
   </g>
   <g id="line2d_39">
    <path d="M 101.390085 224.857496 
L 182.282553 182.567819 
L 229.601613 161.282919 
L 263.175021 145.039804 
L 289.216579 131.454583 
L 310.494081 120.312235 
L 328.483953 109.843007 
L 344.067488 104.116333 
L 357.813141 98.928344 
L 370.109046 94.083078 
L 381.232046 89.49083 
L 391.386549 85.384813 
L 400.727786 81.992484 
L 409.37642 78.776745 
L 417.428107 75.615651 
L 424.959956 73.10289 
L 432.035041 70.777078 
L 438.705609 68.560927 
L 445.015424 66.376214 
L 451.001514 64.437324 
L 456.69548 62.547882 
L 462.124513 60.774425 
L 467.312175 59.048028 
L 472.279016 57.369574 
L 477.043072 55.805977 
L 481.620253 54.291218 
L 486.024669 52.871924 
L 490.268888 51.484258 
L 494.364156 50.192883 
L 498.320574 48.918091 
L 502.14725 47.697835 
L 505.852424 46.527184 
L 509.443574 45.393672 
L 512.927509 44.335585 
L 516.310446 43.298864 
L 519.598076 42.275376 
L 522.795623 41.2997 
L 525.907892 40.359063 
L 528.939314 39.429623 
L 531.893982 38.514107 
L 534.775688 37.627193 
L 537.587948 36.76698 
L 540.334032 35.935013 
L 543.016981 35.144387 
L 545.639634 34.369441 
L 548.204642 33.5965 
L 550.714485 32.844946 
L 553.171484 32.125174 
L 555.57782 31.413682 
L 557.93554 30.707634 
" clip-path="url(#p7d18f7125f)" style="fill: none; stroke-dasharray: 11.1,4.8; stroke-dashoffset: 0; stroke: #666666; stroke-width: 3"/>
   </g>
   <g id="line2d_40">
    <path d="M 101.390085 225.626955 
L 182.282553 198.618272 
L 229.601613 184.19475 
L 263.175021 164.570844 
L 289.216579 149.246247 
L 310.494081 136.964437 
L 328.483953 128.38078 
L 344.067488 122.267577 
L 357.813141 116.832442 
L 370.109046 111.974088 
L 381.232046 107.540868 
L 391.386549 103.853467 
L 400.727786 100.386879 
L 409.37642 97.318339 
L 417.428107 94.441949 
L 424.959956 91.847849 
L 432.035041 89.323523 
L 438.705609 86.982857 
L 445.015424 84.837846 
L 451.001514 82.674829 
L 456.69548 80.67794 
L 462.124513 78.792067 
L 467.312175 76.839133 
L 472.279016 75.10262 
L 477.043072 73.363274 
L 481.620253 71.759059 
L 486.024669 70.104928 
L 490.268888 68.620754 
L 494.364156 67.201269 
L 498.320574 65.793898 
L 502.14725 64.461922 
L 505.852424 63.209867 
L 509.443574 62.006448 
L 512.927509 60.759417 
L 516.310446 59.52971 
L 519.598076 58.420921 
L 522.795623 57.309516 
L 525.907892 56.102352 
L 528.939314 55.171619 
L 531.893982 54.138326 
L 534.775688 53.162092 
L 537.587948 52.267639 
L 540.334032 51.431678 
L 543.016981 50.616954 
L 545.639634 49.758339 
L 548.204642 48.862104 
L 550.714485 48.062155 
L 553.171484 47.181808 
L 555.57782 46.399775 
L 557.93554 45.672868 
" clip-path="url(#p7d18f7125f)" style="fill: none; stroke: #bf5b17; stroke-width: 3; stroke-linecap: square"/>
   </g>
   <g id="patch_3">
    <path d="M 78.562813 339.84 
L 78.562813 7.2 
" style="fill: none; stroke: #000000; stroke-width: 0.8; stroke-linejoin: miter; stroke-linecap: square"/>
   </g>
   <g id="patch_4">
    <path d="M 580.762812 339.84 
L 580.762812 7.2 
" style="fill: none; stroke: #000000; stroke-width: 0.8; stroke-linejoin: miter; stroke-linecap: square"/>
   </g>
   <g id="patch_5">
    <path d="M 78.562813 339.84 
L 580.762812 339.84 
" style="fill: none; stroke: #000000; stroke-width: 0.8; stroke-linejoin: miter; stroke-linecap: square"/>
   </g>
   <g id="patch_6">
    <path d="M 78.562813 7.2 
L 580.762812 7.2 
" style="fill: none; stroke: #000000; stroke-width: 0.8; stroke-linejoin: miter; stroke-linecap: square"/>
   </g>
  </g>
 </g>
 <defs>
  <clipPath id="p7d18f7125f">
   <rect x="78.562813" y="7.2" width="502.2" height="332.64"/>
  </clipPath>
 </defs>
</svg>
