<?xml version="1.0" encoding="utf-8" standalone="no"?>
<!DOCTYPE svg PUBLIC "-//W3C//DTD SVG 1.1//EN"
  "http://www.w3.org/Graphics/SVG/1.1/DTD/svg11.dtd">
<svg xmlns:xlink="http://www.w3.org/1999/xlink" width="580.270625pt" height="389.977813pt" viewBox="0 0 580.270625 389.977813" xmlns="http://www.w3.org/2000/svg" version="1.1">
 <metadata>
  <rdf:RDF xmlns:dc="http://purl.org/dc/elements/1.1/" xmlns:cc="http://creativecommons.org/ns#" xmlns:rdf="http://www.w3.org/1999/02/22-rdf-syntax-ns#">
   <cc:Work>
    <dc:type rdf:resource="http://purl.org/dc/dcmitype/StillImage"/>
    <dc:date>2025-05-09T17:52:35.606544</dc:date>
    <dc:format>image/svg+xml</dc:format>
    <dc:creator>
     <cc:Agent>
      <dc:title>Matplotlib v3.9.4, https://matplotlib.org/</dc:title>
     </cc:Agent>
    </dc:creator>
   </cc:Work>
  </rdf:RDF>
 </metadata>
 <defs>
  <style type="text/css">*{stroke-linejoin: round; stroke-linecap: butt}</style>
 </defs>
 <g id="figure_1">
  <g id="patch_1">
   <path d="M -0 389.977813 
L 580.270625 389.977813 
L 580.270625 0 
L -0 0 
z
" style="fill: #ffffff"/>
  </g>
  <g id="axes_1">
   <g id="patch_2">
    <path d="M 70.870625 339.84 
L 573.070625 339.84 
L 573.070625 7.2 
L 70.870625 7.2 
z
" style="fill: #ffffff"/>
   </g>
   <g id="PolyCollection_1">
    <path d="M 93.697898 221.177442 
L 93.697898 70300.460773 
L 103.015152 181.194551 
L 112.332406 151.902856 
L 121.64966 137.416574 
L 130.966914 128.07438 
L 140.284169 114.367718 
L 149.601423 107.564787 
L 158.918677 97.460679 
L 168.235931 91.115597 
L 177.553185 86.547275 
L 186.870439 81.729444 
L 196.187694 77.693404 
L 205.504948 74.422693 
L 214.822202 71.610827 
L 224.139456 68.502012 
L 233.45671 66.032477 
L 242.773965 64.158077 
L 252.091219 62.319642 
L 261.408473 60.714518 
L 270.725727 59.200499 
L 280.042981 57.808332 
L 289.360235 56.469349 
L 298.67749 55.22059 
L 307.994744 54.106034 
L 317.311998 52.963947 
L 326.629252 51.942662 
L 335.946506 51.008557 
L 345.26376 50.052681 
L 354.581015 49.12321 
L 363.898269 48.166655 
L 373.215523 47.395962 
L 382.532777 46.617449 
L 391.850031 45.835073 
L 401.167285 45.110392 
L 410.48454 44.411174 
L 419.801794 43.693619 
L 429.119048 42.955397 
L 438.436302 42.225299 
L 447.753556 41.597451 
L 457.070811 40.977941 
L 466.388065 40.334209 
L 475.705319 39.696415 
L 485.022573 39.086532 
L 494.339827 38.437165 
L 503.657081 37.829875 
L 512.974336 37.223649 
L 522.29159 36.570931 
L 531.608844 35.947997 
L 540.926098 35.33362 
L 550.243352 34.57814 
L 550.243352 26.620022 
L 550.243352 26.620022 
L 540.926098 27.333165 
L 531.608844 27.933996 
L 522.29159 28.557153 
L 512.974336 29.203541 
L 503.657081 29.859333 
L 494.339827 30.453245 
L 485.022573 31.093242 
L 475.705319 31.716106 
L 466.388065 32.33566 
L 457.070811 32.999039 
L 447.753556 33.663679 
L 438.436302 34.300133 
L 429.119048 35.068081 
L 419.801794 35.824707 
L 410.48454 36.453836 
L 401.167285 37.107107 
L 391.850031 37.800327 
L 382.532777 38.505282 
L 373.215523 39.229856 
L 363.898269 40.02924 
L 354.581015 40.892233 
L 345.26376 41.756457 
L 335.946506 42.679884 
L 326.629252 43.586533 
L 317.311998 44.544303 
L 307.994744 45.595094 
L 298.67749 46.770019 
L 289.360235 47.929448 
L 280.042981 49.174386 
L 270.725727 50.510773 
L 261.408473 51.96715 
L 252.091219 53.553885 
L 242.773965 55.247541 
L 233.45671 56.948357 
L 224.139456 58.841399 
L 214.822202 60.717007 
L 205.504948 62.919094 
L 196.187694 65.385139 
L 186.870439 67.933151 
L 177.553185 70.81304 
L 168.235931 74.502695 
L 158.918677 78.670282 
L 149.601423 87.138529 
L 140.284169 96.873022 
L 130.966914 125.706563 
L 121.64966 134.245247 
L 112.332406 146.954493 
L 103.015152 169.676731 
L 93.697898 221.177442 
z
" clip-path="url(#p13eef63a42)" style="fill: #386cb0; fill-opacity: 0.1; stroke: #386cb0; stroke-opacity: 0.1"/>
   </g>
   <g id="PolyCollection_2">
    <defs>
     <path id="md37a6195f5" d="M 93.697898 -98.902629 
L 93.697898 -65.257812 
L 103.015152 -224.531066 
L 112.332406 -245.081327 
L 121.64966 -257.110372 
L 130.966914 -265.313374 
L 140.284169 -271.920467 
L 149.601423 -278.13333 
L 158.918677 -281.438342 
L 168.235931 -284.348503 
L 177.553185 -286.45108 
L 186.870439 -288.844747 
L 196.187694 -290.644736 
L 205.504948 -292.571983 
L 214.822202 -294.205725 
L 224.139456 -295.71301 
L 233.45671 -297.774399 
L 242.773965 -299.073821 
L 252.091219 -299.938871 
L 261.408473 -301.125107 
L 270.725727 -302.060831 
L 280.042981 -303.096749 
L 289.360235 -304.255475 
L 298.67749 -304.937145 
L 307.994744 -305.541108 
L 317.311998 -306.188864 
L 326.629252 -306.675868 
L 335.946506 -307.302381 
L 345.26376 -308.112195 
L 354.581015 -309.066714 
L 363.898269 -309.638462 
L 373.215523 -310.191271 
L 382.532777 -311.182134 
L 391.850031 -311.829263 
L 401.167285 -312.571788 
L 410.48454 -313.136337 
L 419.801794 -313.531546 
L 429.119048 -313.930666 
L 438.436302 -314.558355 
L 447.753556 -315.096669 
L 457.070811 -315.499717 
L 466.388065 -316.061859 
L 475.705319 -316.667256 
L 485.022573 -316.947726 
L 494.339827 -317.479525 
L 503.657081 -317.79026 
L 512.974336 -318.13001 
L 522.29159 -318.506815 
L 531.608844 -319.058435 
L 540.926098 -319.479891 
L 550.243352 -319.699286 
L 550.243352 -319.921684 
L 550.243352 -319.921684 
L 540.926098 -319.702529 
L 531.608844 -319.282793 
L 522.29159 -318.732973 
L 512.974336 -318.356864 
L 503.657081 -318.017037 
L 494.339827 -317.706141 
L 485.022573 -317.178744 
L 475.705319 -316.899077 
L 466.388065 -316.296333 
L 457.070811 -315.736701 
L 447.753556 -315.334704 
L 438.436302 -314.796709 
L 429.119048 -314.170536 
L 419.801794 -313.771502 
L 410.48454 -313.37757 
L 401.167285 -312.814671 
L 391.850031 -312.073955 
L 382.532777 -311.427432 
L 373.215523 -310.438841 
L 363.898269 -309.888307 
L 354.581015 -309.318991 
L 345.26376 -308.368871 
L 335.946506 -307.561583 
L 326.629252 -306.938735 
L 317.311998 -306.452244 
L 307.994744 -305.807614 
L 298.67749 -305.206088 
L 289.360235 -304.526624 
L 280.042981 -303.371971 
L 270.725727 -302.341432 
L 261.408473 -301.409578 
L 252.091219 -300.230483 
L 242.773965 -299.369141 
L 233.45671 -298.078356 
L 224.139456 -296.02946 
L 214.822202 -294.53229 
L 205.504948 -292.909027 
L 196.187694 -290.994071 
L 186.870439 -289.206079 
L 177.553185 -286.832587 
L 168.235931 -284.747809 
L 158.918677 -281.865232 
L 149.601423 -278.599866 
L 140.284169 -272.480342 
L 130.966914 -265.992327 
L 121.64966 -257.98073 
L 112.332406 -246.349735 
L 103.015152 -226.973743 
L 93.697898 -98.902629 
z
" style="stroke: #f0027f; stroke-opacity: 0.1"/>
    </defs>
    <g clip-path="url(#p13eef63a42)">
     <use xlink:href="#md37a6195f5" x="0" y="389.977813" style="fill: #f0027f; fill-opacity: 0.1; stroke: #f0027f; stroke-opacity: 0.1"/>
    </g>
   </g>
   <g id="PolyCollection_3">
    <defs>
     <path id="mcbaa9935e9" d="M 93.697898 -279.436069 
L 93.697898 -277.550602 
L 103.015152 -287.314798 
L 112.332406 -299.571587 
L 121.64966 -304.695487 
L 130.966914 -308.541254 
L 140.284169 -312.021441 
L 149.601423 -314.942802 
L 158.918677 -317.801302 
L 168.235931 -320.263286 
L 177.553185 -322.507014 
L 186.870439 -324.634867 
L 196.187694 -326.692845 
L 205.504948 -328.498541 
L 214.822202 -330.194726 
L 224.139456 -331.774481 
L 233.45671 -333.318918 
L 242.773965 -334.781596 
L 252.091219 -336.119769 
L 261.408473 -337.471507 
L 270.725727 -338.671976 
L 280.042981 -339.802647 
L 289.360235 -340.862003 
L 298.67749 -342.096037 
L 307.994744 -343.019995 
L 317.311998 -343.952666 
L 326.629252 -344.868246 
L 335.946506 -345.741689 
L 345.26376 -346.607454 
L 354.581015 -347.432706 
L 363.898269 -348.217137 
L 373.215523 -348.950093 
L 382.532777 -349.723467 
L 391.850031 -350.434709 
L 401.167285 -351.128617 
L 410.48454 -351.786401 
L 419.801794 -352.419109 
L 429.119048 -353.077179 
L 438.436302 -353.705806 
L 447.753556 -354.286572 
L 457.070811 -354.854792 
L 466.388065 -355.416398 
L 475.705319 -355.932974 
L 485.022573 -356.485341 
L 494.339827 -357.002772 
L 503.657081 -357.549699 
L 512.974336 -358.101019 
L 522.29159 -358.657094 
L 531.608844 -359.201377 
L 540.926098 -359.708084 
L 550.243352 -360.220483 
L 550.243352 -367.657813 
L 550.243352 -367.657813 
L 540.926098 -367.094092 
L 531.608844 -366.556945 
L 522.29159 -365.966767 
L 512.974336 -365.37927 
L 503.657081 -364.760122 
L 494.339827 -364.178272 
L 485.022573 -363.616753 
L 475.705319 -363.016333 
L 466.388065 -362.421932 
L 457.070811 -361.808902 
L 447.753556 -361.158006 
L 438.436302 -360.499219 
L 429.119048 -359.844775 
L 419.801794 -359.194557 
L 410.48454 -358.58755 
L 401.167285 -357.9424 
L 391.850031 -357.281622 
L 382.532777 -356.588388 
L 373.215523 -355.913588 
L 363.898269 -355.185472 
L 354.581015 -354.450467 
L 345.26376 -353.706329 
L 335.946506 -352.858947 
L 326.629252 -351.95467 
L 317.311998 -351.085889 
L 307.994744 -350.189924 
L 298.67749 -349.325165 
L 289.360235 -348.289214 
L 280.042981 -347.298638 
L 270.725727 -346.320692 
L 261.408473 -345.263984 
L 252.091219 -344.060946 
L 242.773965 -342.812126 
L 233.45671 -341.587986 
L 224.139456 -340.341041 
L 214.822202 -339.007951 
L 205.504948 -337.625111 
L 196.187694 -336.251759 
L 186.870439 -334.72876 
L 177.553185 -333.170218 
L 168.235931 -331.435172 
L 158.918677 -329.655562 
L 149.601423 -327.771823 
L 140.284169 -325.870697 
L 130.966914 -323.482804 
L 121.64966 -319.290188 
L 112.332406 -313.967265 
L 103.015152 -303.778062 
L 93.697898 -279.436069 
z
" style="stroke: #bf5b17; stroke-opacity: 0.1"/>
    </defs>
    <g clip-path="url(#p13eef63a42)">
     <use xlink:href="#mcbaa9935e9" x="0" y="389.977813" style="fill: #bf5b17; fill-opacity: 0.1; stroke: #bf5b17; stroke-opacity: 0.1"/>
    </g>
   </g>
   <g id="matplotlib.axis_1">
    <g id="xtick_1">
     <g id="line2d_1">
      <path d="M 84.380644 339.84 
L 84.380644 7.2 
" clip-path="url(#p13eef63a42)" style="fill: none; stroke-dasharray: 1.85,0.8; stroke-dashoffset: 0; stroke: #b0b0b0; stroke-width: 0.5"/>
     </g>
     <g id="line2d_2">
      <defs>
       <path id="m1c47e8d4d5" d="M 0 0 
L 0 3.5 
" style="stroke: #000000; stroke-width: 0.8"/>
      </defs>
      <g>
       <use xlink:href="#m1c47e8d4d5" x="84.380644" y="339.84" style="stroke: #000000; stroke-width: 0.8"/>
      </g>
     </g>
     <g id="text_1">
      <!-- 0 -->
      <g transform="translate(79.608769 358.237656) scale(0.15 -0.15)">
       <defs>
        <path id="DejaVuSans-30" d="M 2034 4250 
Q 1547 4250 1301 3770 
Q 1056 3291 1056 2328 
Q 1056 1369 1301 889 
Q 1547 409 2034 409 
Q 2525 409 2770 889 
Q 3016 1369 3016 2328 
Q 3016 3291 2770 3770 
Q 2525 4250 2034 4250 
z
M 2034 4750 
Q 2819 4750 3233 4129 
Q 3647 3509 3647 2328 
Q 3647 1150 3233 529 
Q 2819 -91 2034 -91 
Q 1250 -91 836 529 
Q 422 1150 422 2328 
Q 422 3509 836 4129 
Q 1250 4750 2034 4750 
z
" transform="scale(0.015625)"/>
       </defs>
       <use xlink:href="#DejaVuSans-30"/>
      </g>
     </g>
    </g>
    <g id="xtick_2">
     <g id="line2d_3">
      <path d="M 177.553185 339.84 
L 177.553185 7.2 
" clip-path="url(#p13eef63a42)" style="fill: none; stroke-dasharray: 1.85,0.8; stroke-dashoffset: 0; stroke: #b0b0b0; stroke-width: 0.5"/>
     </g>
     <g id="line2d_4">
      <g>
       <use xlink:href="#m1c47e8d4d5" x="177.553185" y="339.84" style="stroke: #000000; stroke-width: 0.8"/>
      </g>
     </g>
     <g id="text_2">
      <!-- 10 -->
      <g transform="translate(168.009435 358.237656) scale(0.15 -0.15)">
       <defs>
        <path id="DejaVuSans-31" d="M 794 531 
L 1825 531 
L 1825 4091 
L 703 3866 
L 703 4441 
L 1819 4666 
L 2450 4666 
L 2450 531 
L 3481 531 
L 3481 0 
L 794 0 
L 794 531 
z
" transform="scale(0.015625)"/>
       </defs>
       <use xlink:href="#DejaVuSans-31"/>
       <use xlink:href="#DejaVuSans-30" x="63.623047"/>
      </g>
     </g>
    </g>
    <g id="xtick_3">
     <g id="line2d_5">
      <path d="M 270.725727 339.84 
L 270.725727 7.2 
" clip-path="url(#p13eef63a42)" style="fill: none; stroke-dasharray: 1.85,0.8; stroke-dashoffset: 0; stroke: #b0b0b0; stroke-width: 0.5"/>
     </g>
     <g id="line2d_6">
      <g>
       <use xlink:href="#m1c47e8d4d5" x="270.725727" y="339.84" style="stroke: #000000; stroke-width: 0.8"/>
      </g>
     </g>
     <g id="text_3">
      <!-- 20 -->
      <g transform="translate(261.181977 358.237656) scale(0.15 -0.15)">
       <defs>
        <path id="DejaVuSans-32" d="M 1228 531 
L 3431 531 
L 3431 0 
L 469 0 
L 469 531 
Q 828 903 1448 1529 
Q 2069 2156 2228 2338 
Q 2531 2678 2651 2914 
Q 2772 3150 2772 3378 
Q 2772 3750 2511 3984 
Q 2250 4219 1831 4219 
Q 1534 4219 1204 4116 
Q 875 4013 500 3803 
L 500 4441 
Q 881 4594 1212 4672 
Q 1544 4750 1819 4750 
Q 2544 4750 2975 4387 
Q 3406 4025 3406 3419 
Q 3406 3131 3298 2873 
Q 3191 2616 2906 2266 
Q 2828 2175 2409 1742 
Q 1991 1309 1228 531 
z
" transform="scale(0.015625)"/>
       </defs>
       <use xlink:href="#DejaVuSans-32"/>
       <use xlink:href="#DejaVuSans-30" x="63.623047"/>
      </g>
     </g>
    </g>
    <g id="xtick_4">
     <g id="line2d_7">
      <path d="M 363.898269 339.84 
L 363.898269 7.2 
" clip-path="url(#p13eef63a42)" style="fill: none; stroke-dasharray: 1.85,0.8; stroke-dashoffset: 0; stroke: #b0b0b0; stroke-width: 0.5"/>
     </g>
     <g id="line2d_8">
      <g>
       <use xlink:href="#m1c47e8d4d5" x="363.898269" y="339.84" style="stroke: #000000; stroke-width: 0.8"/>
      </g>
     </g>
     <g id="text_4">
      <!-- 30 -->
      <g transform="translate(354.354519 358.237656) scale(0.15 -0.15)">
       <defs>
        <path id="DejaVuSans-33" d="M 2597 2516 
Q 3050 2419 3304 2112 
Q 3559 1806 3559 1356 
Q 3559 666 3084 287 
Q 2609 -91 1734 -91 
Q 1441 -91 1130 -33 
Q 819 25 488 141 
L 488 750 
Q 750 597 1062 519 
Q 1375 441 1716 441 
Q 2309 441 2620 675 
Q 2931 909 2931 1356 
Q 2931 1769 2642 2001 
Q 2353 2234 1838 2234 
L 1294 2234 
L 1294 2753 
L 1863 2753 
Q 2328 2753 2575 2939 
Q 2822 3125 2822 3475 
Q 2822 3834 2567 4026 
Q 2313 4219 1838 4219 
Q 1578 4219 1281 4162 
Q 984 4106 628 3988 
L 628 4550 
Q 988 4650 1302 4700 
Q 1616 4750 1894 4750 
Q 2613 4750 3031 4423 
Q 3450 4097 3450 3541 
Q 3450 3153 3228 2886 
Q 3006 2619 2597 2516 
z
" transform="scale(0.015625)"/>
       </defs>
       <use xlink:href="#DejaVuSans-33"/>
       <use xlink:href="#DejaVuSans-30" x="63.623047"/>
      </g>
     </g>
    </g>
    <g id="xtick_5">
     <g id="line2d_9">
      <path d="M 457.070811 339.84 
L 457.070811 7.2 
" clip-path="url(#p13eef63a42)" style="fill: none; stroke-dasharray: 1.85,0.8; stroke-dashoffset: 0; stroke: #b0b0b0; stroke-width: 0.5"/>
     </g>
     <g id="line2d_10">
      <g>
       <use xlink:href="#m1c47e8d4d5" x="457.070811" y="339.84" style="stroke: #000000; stroke-width: 0.8"/>
      </g>
     </g>
     <g id="text_5">
      <!-- 40 -->
      <g transform="translate(447.527061 358.237656) scale(0.15 -0.15)">
       <defs>
        <path id="DejaVuSans-34" d="M 2419 4116 
L 825 1625 
L 2419 1625 
L 2419 4116 
z
M 2253 4666 
L 3047 4666 
L 3047 1625 
L 3713 1625 
L 3713 1100 
L 3047 1100 
L 3047 0 
L 2419 0 
L 2419 1100 
L 313 1100 
L 313 1709 
L 2253 4666 
z
" transform="scale(0.015625)"/>
       </defs>
       <use xlink:href="#DejaVuSans-34"/>
       <use xlink:href="#DejaVuSans-30" x="63.623047"/>
      </g>
     </g>
    </g>
    <g id="xtick_6">
     <g id="line2d_11">
      <path d="M 550.243352 339.84 
L 550.243352 7.2 
" clip-path="url(#p13eef63a42)" style="fill: none; stroke-dasharray: 1.85,0.8; stroke-dashoffset: 0; stroke: #b0b0b0; stroke-width: 0.5"/>
     </g>
     <g id="line2d_12">
      <g>
       <use xlink:href="#m1c47e8d4d5" x="550.243352" y="339.84" style="stroke: #000000; stroke-width: 0.8"/>
      </g>
     </g>
     <g id="text_6">
      <!-- 50 -->
      <g transform="translate(540.699602 358.237656) scale(0.15 -0.15)">
       <defs>
        <path id="DejaVuSans-35" d="M 691 4666 
L 3169 4666 
L 3169 4134 
L 1269 4134 
L 1269 2991 
Q 1406 3038 1543 3061 
Q 1681 3084 1819 3084 
Q 2600 3084 3056 2656 
Q 3513 2228 3513 1497 
Q 3513 744 3044 326 
Q 2575 -91 1722 -91 
Q 1428 -91 1123 -41 
Q 819 9 494 109 
L 494 744 
Q 775 591 1075 516 
Q 1375 441 1709 441 
Q 2250 441 2565 725 
Q 2881 1009 2881 1497 
Q 2881 1984 2565 2268 
Q 2250 2553 1709 2553 
Q 1456 2553 1204 2497 
Q 953 2441 691 2322 
L 691 4666 
z
" transform="scale(0.015625)"/>
       </defs>
       <use xlink:href="#DejaVuSans-35"/>
       <use xlink:href="#DejaVuSans-30" x="63.623047"/>
      </g>
     </g>
    </g>
    <g id="text_7">
     <!-- Decision Round -->
     <g transform="translate(252.317656 379.034375) scale(0.18 -0.18)">
      <defs>
       <path id="DejaVuSans-44" d="M 1259 4147 
L 1259 519 
L 2022 519 
Q 2988 519 3436 956 
Q 3884 1394 3884 2338 
Q 3884 3275 3436 3711 
Q 2988 4147 2022 4147 
L 1259 4147 
z
M 628 4666 
L 1925 4666 
Q 3281 4666 3915 4102 
Q 4550 3538 4550 2338 
Q 4550 1131 3912 565 
Q 3275 0 1925 0 
L 628 0 
L 628 4666 
z
" transform="scale(0.015625)"/>
       <path id="DejaVuSans-65" d="M 3597 1894 
L 3597 1613 
L 953 1613 
Q 991 1019 1311 708 
Q 1631 397 2203 397 
Q 2534 397 2845 478 
Q 3156 559 3463 722 
L 3463 178 
Q 3153 47 2828 -22 
Q 2503 -91 2169 -91 
Q 1331 -91 842 396 
Q 353 884 353 1716 
Q 353 2575 817 3079 
Q 1281 3584 2069 3584 
Q 2775 3584 3186 3129 
Q 3597 2675 3597 1894 
z
M 3022 2063 
Q 3016 2534 2758 2815 
Q 2500 3097 2075 3097 
Q 1594 3097 1305 2825 
Q 1016 2553 972 2059 
L 3022 2063 
z
" transform="scale(0.015625)"/>
       <path id="DejaVuSans-63" d="M 3122 3366 
L 3122 2828 
Q 2878 2963 2633 3030 
Q 2388 3097 2138 3097 
Q 1578 3097 1268 2742 
Q 959 2388 959 1747 
Q 959 1106 1268 751 
Q 1578 397 2138 397 
Q 2388 397 2633 464 
Q 2878 531 3122 666 
L 3122 134 
Q 2881 22 2623 -34 
Q 2366 -91 2075 -91 
Q 1284 -91 818 406 
Q 353 903 353 1747 
Q 353 2603 823 3093 
Q 1294 3584 2113 3584 
Q 2378 3584 2631 3529 
Q 2884 3475 3122 3366 
z
" transform="scale(0.015625)"/>
       <path id="DejaVuSans-69" d="M 603 3500 
L 1178 3500 
L 1178 0 
L 603 0 
L 603 3500 
z
M 603 4863 
L 1178 4863 
L 1178 4134 
L 603 4134 
L 603 4863 
z
" transform="scale(0.015625)"/>
       <path id="DejaVuSans-73" d="M 2834 3397 
L 2834 2853 
Q 2591 2978 2328 3040 
Q 2066 3103 1784 3103 
Q 1356 3103 1142 2972 
Q 928 2841 928 2578 
Q 928 2378 1081 2264 
Q 1234 2150 1697 2047 
L 1894 2003 
Q 2506 1872 2764 1633 
Q 3022 1394 3022 966 
Q 3022 478 2636 193 
Q 2250 -91 1575 -91 
Q 1294 -91 989 -36 
Q 684 19 347 128 
L 347 722 
Q 666 556 975 473 
Q 1284 391 1588 391 
Q 1994 391 2212 530 
Q 2431 669 2431 922 
Q 2431 1156 2273 1281 
Q 2116 1406 1581 1522 
L 1381 1569 
Q 847 1681 609 1914 
Q 372 2147 372 2553 
Q 372 3047 722 3315 
Q 1072 3584 1716 3584 
Q 2034 3584 2315 3537 
Q 2597 3491 2834 3397 
z
" transform="scale(0.015625)"/>
       <path id="DejaVuSans-6f" d="M 1959 3097 
Q 1497 3097 1228 2736 
Q 959 2375 959 1747 
Q 959 1119 1226 758 
Q 1494 397 1959 397 
Q 2419 397 2687 759 
Q 2956 1122 2956 1747 
Q 2956 2369 2687 2733 
Q 2419 3097 1959 3097 
z
M 1959 3584 
Q 2709 3584 3137 3096 
Q 3566 2609 3566 1747 
Q 3566 888 3137 398 
Q 2709 -91 1959 -91 
Q 1206 -91 779 398 
Q 353 888 353 1747 
Q 353 2609 779 3096 
Q 1206 3584 1959 3584 
z
" transform="scale(0.015625)"/>
       <path id="DejaVuSans-6e" d="M 3513 2113 
L 3513 0 
L 2938 0 
L 2938 2094 
Q 2938 2591 2744 2837 
Q 2550 3084 2163 3084 
Q 1697 3084 1428 2787 
Q 1159 2491 1159 1978 
L 1159 0 
L 581 0 
L 581 3500 
L 1159 3500 
L 1159 2956 
Q 1366 3272 1645 3428 
Q 1925 3584 2291 3584 
Q 2894 3584 3203 3211 
Q 3513 2838 3513 2113 
z
" transform="scale(0.015625)"/>
       <path id="DejaVuSans-20" transform="scale(0.015625)"/>
       <path id="DejaVuSans-52" d="M 2841 2188 
Q 3044 2119 3236 1894 
Q 3428 1669 3622 1275 
L 4263 0 
L 3584 0 
L 2988 1197 
Q 2756 1666 2539 1819 
Q 2322 1972 1947 1972 
L 1259 1972 
L 1259 0 
L 628 0 
L 628 4666 
L 2053 4666 
Q 2853 4666 3247 4331 
Q 3641 3997 3641 3322 
Q 3641 2881 3436 2590 
Q 3231 2300 2841 2188 
z
M 1259 4147 
L 1259 2491 
L 2053 2491 
Q 2509 2491 2742 2702 
Q 2975 2913 2975 3322 
Q 2975 3731 2742 3939 
Q 2509 4147 2053 4147 
L 1259 4147 
z
" transform="scale(0.015625)"/>
       <path id="DejaVuSans-75" d="M 544 1381 
L 544 3500 
L 1119 3500 
L 1119 1403 
Q 1119 906 1312 657 
Q 1506 409 1894 409 
Q 2359 409 2629 706 
Q 2900 1003 2900 1516 
L 2900 3500 
L 3475 3500 
L 3475 0 
L 2900 0 
L 2900 538 
Q 2691 219 2414 64 
Q 2138 -91 1772 -91 
Q 1169 -91 856 284 
Q 544 659 544 1381 
z
M 1991 3584 
L 1991 3584 
z
" transform="scale(0.015625)"/>
       <path id="DejaVuSans-64" d="M 2906 2969 
L 2906 4863 
L 3481 4863 
L 3481 0 
L 2906 0 
L 2906 525 
Q 2725 213 2448 61 
Q 2172 -91 1784 -91 
Q 1150 -91 751 415 
Q 353 922 353 1747 
Q 353 2572 751 3078 
Q 1150 3584 1784 3584 
Q 2172 3584 2448 3432 
Q 2725 3281 2906 2969 
z
M 947 1747 
Q 947 1113 1208 752 
Q 1469 391 1925 391 
Q 2381 391 2643 752 
Q 2906 1113 2906 1747 
Q 2906 2381 2643 2742 
Q 2381 3103 1925 3103 
Q 1469 3103 1208 2742 
Q 947 2381 947 1747 
z
" transform="scale(0.015625)"/>
      </defs>
      <use xlink:href="#DejaVuSans-44"/>
      <use xlink:href="#DejaVuSans-65" x="77.001953"/>
      <use xlink:href="#DejaVuSans-63" x="138.525391"/>
      <use xlink:href="#DejaVuSans-69" x="193.505859"/>
      <use xlink:href="#DejaVuSans-73" x="221.289062"/>
      <use xlink:href="#DejaVuSans-69" x="273.388672"/>
      <use xlink:href="#DejaVuSans-6f" x="301.171875"/>
      <use xlink:href="#DejaVuSans-6e" x="362.353516"/>
      <use xlink:href="#DejaVuSans-20" x="425.732422"/>
      <use xlink:href="#DejaVuSans-52" x="457.519531"/>
      <use xlink:href="#DejaVuSans-6f" x="522.501953"/>
      <use xlink:href="#DejaVuSans-75" x="583.683594"/>
      <use xlink:href="#DejaVuSans-6e" x="647.0625"/>
      <use xlink:href="#DejaVuSans-64" x="710.441406"/>
     </g>
    </g>
   </g>
   <g id="matplotlib.axis_2">
    <g id="ytick_1">
     <g id="line2d_13">
      <path d="M 70.870625 272.039939 
L 573.070625 272.039939 
" clip-path="url(#p13eef63a42)" style="fill: none; stroke-dasharray: 1.85,0.8; stroke-dashoffset: 0; stroke: #b0b0b0; stroke-width: 0.5"/>
     </g>
     <g id="line2d_14">
      <defs>
       <path id="mcdffca53b5" d="M 0 0 
L -3.5 0 
" style="stroke: #000000; stroke-width: 0.8"/>
      </defs>
      <g>
       <use xlink:href="#mcdffca53b5" x="70.870625" y="272.039939" style="stroke: #000000; stroke-width: 0.8"/>
      </g>
     </g>
     <g id="text_8">
      <!-- $\mathdefault{10^{-2}}$ -->
      <g transform="translate(28.620625 277.738768) scale(0.15 -0.15)">
       <defs>
        <path id="DejaVuSans-2212" d="M 678 2272 
L 4684 2272 
L 4684 1741 
L 678 1741 
L 678 2272 
z
" transform="scale(0.015625)"/>
       </defs>
       <use xlink:href="#DejaVuSans-31" transform="translate(0 0.765625)"/>
       <use xlink:href="#DejaVuSans-30" transform="translate(63.623047 0.765625)"/>
       <use xlink:href="#DejaVuSans-2212" transform="translate(128.203125 39.046875) scale(0.7)"/>
       <use xlink:href="#DejaVuSans-32" transform="translate(186.855469 39.046875) scale(0.7)"/>
      </g>
     </g>
    </g>
    <g id="ytick_2">
     <g id="line2d_15">
      <path d="M 70.870625 201.871181 
L 573.070625 201.871181 
" clip-path="url(#p13eef63a42)" style="fill: none; stroke-dasharray: 1.85,0.8; stroke-dashoffset: 0; stroke: #b0b0b0; stroke-width: 0.5"/>
     </g>
     <g id="line2d_16">
      <g>
       <use xlink:href="#mcdffca53b5" x="70.870625" y="201.871181" style="stroke: #000000; stroke-width: 0.8"/>
      </g>
     </g>
     <g id="text_9">
      <!-- $\mathdefault{10^{-1}}$ -->
      <g transform="translate(28.620625 207.570009) scale(0.15 -0.15)">
       <use xlink:href="#DejaVuSans-31" transform="translate(0 0.684375)"/>
       <use xlink:href="#DejaVuSans-30" transform="translate(63.623047 0.684375)"/>
       <use xlink:href="#DejaVuSans-2212" transform="translate(128.203125 38.965625) scale(0.7)"/>
       <use xlink:href="#DejaVuSans-31" transform="translate(186.855469 38.965625) scale(0.7)"/>
      </g>
     </g>
    </g>
    <g id="ytick_3">
     <g id="line2d_17">
      <path d="M 70.870625 131.702423 
L 573.070625 131.702423 
" clip-path="url(#p13eef63a42)" style="fill: none; stroke-dasharray: 1.85,0.8; stroke-dashoffset: 0; stroke: #b0b0b0; stroke-width: 0.5"/>
     </g>
     <g id="line2d_18">
      <g>
       <use xlink:href="#mcdffca53b5" x="70.870625" y="131.702423" style="stroke: #000000; stroke-width: 0.8"/>
      </g>
     </g>
     <g id="text_10">
      <!-- $\mathdefault{10^{0}}$ -->
      <g transform="translate(37.470625 137.401251) scale(0.15 -0.15)">
       <use xlink:href="#DejaVuSans-31" transform="translate(0 0.765625)"/>
       <use xlink:href="#DejaVuSans-30" transform="translate(63.623047 0.765625)"/>
       <use xlink:href="#DejaVuSans-30" transform="translate(128.203125 39.046875) scale(0.7)"/>
      </g>
     </g>
    </g>
    <g id="ytick_4">
     <g id="line2d_19">
      <path d="M 70.870625 61.533664 
L 573.070625 61.533664 
" clip-path="url(#p13eef63a42)" style="fill: none; stroke-dasharray: 1.85,0.8; stroke-dashoffset: 0; stroke: #b0b0b0; stroke-width: 0.5"/>
     </g>
     <g id="line2d_20">
      <g>
       <use xlink:href="#mcdffca53b5" x="70.870625" y="61.533664" style="stroke: #000000; stroke-width: 0.8"/>
      </g>
     </g>
     <g id="text_11">
      <!-- $\mathdefault{10^{1}}$ -->
      <g transform="translate(37.470625 67.232492) scale(0.15 -0.15)">
       <use xlink:href="#DejaVuSans-31" transform="translate(0 0.684375)"/>
       <use xlink:href="#DejaVuSans-30" transform="translate(63.623047 0.684375)"/>
       <use xlink:href="#DejaVuSans-31" transform="translate(128.203125 38.965625) scale(0.7)"/>
      </g>
     </g>
    </g>
    <g id="ytick_5">
     <g id="line2d_21">
      <defs>
       <path id="ma74ef7181a" d="M 0 0 
L -2 0 
" style="stroke: #000000; stroke-width: 0.6"/>
      </defs>
      <g>
       <use xlink:href="#ma74ef7181a" x="70.870625" y="321.085797" style="stroke: #000000; stroke-width: 0.6"/>
      </g>
     </g>
    </g>
    <g id="ytick_6">
     <g id="line2d_22">
      <g>
       <use xlink:href="#ma74ef7181a" x="70.870625" y="308.729692" style="stroke: #000000; stroke-width: 0.6"/>
      </g>
     </g>
    </g>
    <g id="ytick_7">
     <g id="line2d_23">
      <g>
       <use xlink:href="#ma74ef7181a" x="70.870625" y="299.962896" style="stroke: #000000; stroke-width: 0.6"/>
      </g>
     </g>
    </g>
    <g id="ytick_8">
     <g id="line2d_24">
      <g>
       <use xlink:href="#ma74ef7181a" x="70.870625" y="293.16284" style="stroke: #000000; stroke-width: 0.6"/>
      </g>
     </g>
    </g>
    <g id="ytick_9">
     <g id="line2d_25">
      <g>
       <use xlink:href="#ma74ef7181a" x="70.870625" y="287.606791" style="stroke: #000000; stroke-width: 0.6"/>
      </g>
     </g>
    </g>
    <g id="ytick_10">
     <g id="line2d_26">
      <g>
       <use xlink:href="#ma74ef7181a" x="70.870625" y="282.909218" style="stroke: #000000; stroke-width: 0.6"/>
      </g>
     </g>
    </g>
    <g id="ytick_11">
     <g id="line2d_27">
      <g>
       <use xlink:href="#ma74ef7181a" x="70.870625" y="278.839995" style="stroke: #000000; stroke-width: 0.6"/>
      </g>
     </g>
    </g>
    <g id="ytick_12">
     <g id="line2d_28">
      <g>
       <use xlink:href="#ma74ef7181a" x="70.870625" y="275.250686" style="stroke: #000000; stroke-width: 0.6"/>
      </g>
     </g>
    </g>
    <g id="ytick_13">
     <g id="line2d_29">
      <g>
       <use xlink:href="#ma74ef7181a" x="70.870625" y="250.917038" style="stroke: #000000; stroke-width: 0.6"/>
      </g>
     </g>
    </g>
    <g id="ytick_14">
     <g id="line2d_30">
      <g>
       <use xlink:href="#ma74ef7181a" x="70.870625" y="238.560933" style="stroke: #000000; stroke-width: 0.6"/>
      </g>
     </g>
    </g>
    <g id="ytick_15">
     <g id="line2d_31">
      <g>
       <use xlink:href="#ma74ef7181a" x="70.870625" y="229.794137" style="stroke: #000000; stroke-width: 0.6"/>
      </g>
     </g>
    </g>
    <g id="ytick_16">
     <g id="line2d_32">
      <g>
       <use xlink:href="#ma74ef7181a" x="70.870625" y="222.994082" style="stroke: #000000; stroke-width: 0.6"/>
      </g>
     </g>
    </g>
    <g id="ytick_17">
     <g id="line2d_33">
      <g>
       <use xlink:href="#ma74ef7181a" x="70.870625" y="217.438032" style="stroke: #000000; stroke-width: 0.6"/>
      </g>
     </g>
    </g>
    <g id="ytick_18">
     <g id="line2d_34">
      <g>
       <use xlink:href="#ma74ef7181a" x="70.870625" y="212.740459" style="stroke: #000000; stroke-width: 0.6"/>
      </g>
     </g>
    </g>
    <g id="ytick_19">
     <g id="line2d_35">
      <g>
       <use xlink:href="#ma74ef7181a" x="70.870625" y="208.671236" style="stroke: #000000; stroke-width: 0.6"/>
      </g>
     </g>
    </g>
    <g id="ytick_20">
     <g id="line2d_36">
      <g>
       <use xlink:href="#ma74ef7181a" x="70.870625" y="205.081927" style="stroke: #000000; stroke-width: 0.6"/>
      </g>
     </g>
    </g>
    <g id="ytick_21">
     <g id="line2d_37">
      <g>
       <use xlink:href="#ma74ef7181a" x="70.870625" y="180.74828" style="stroke: #000000; stroke-width: 0.6"/>
      </g>
     </g>
    </g>
    <g id="ytick_22">
     <g id="line2d_38">
      <g>
       <use xlink:href="#ma74ef7181a" x="70.870625" y="168.392175" style="stroke: #000000; stroke-width: 0.6"/>
      </g>
     </g>
    </g>
    <g id="ytick_23">
     <g id="line2d_39">
      <g>
       <use xlink:href="#ma74ef7181a" x="70.870625" y="159.625379" style="stroke: #000000; stroke-width: 0.6"/>
      </g>
     </g>
    </g>
    <g id="ytick_24">
     <g id="line2d_40">
      <g>
       <use xlink:href="#ma74ef7181a" x="70.870625" y="152.825324" style="stroke: #000000; stroke-width: 0.6"/>
      </g>
     </g>
    </g>
    <g id="ytick_25">
     <g id="line2d_41">
      <g>
       <use xlink:href="#ma74ef7181a" x="70.870625" y="147.269274" style="stroke: #000000; stroke-width: 0.6"/>
      </g>
     </g>
    </g>
    <g id="ytick_26">
     <g id="line2d_42">
      <g>
       <use xlink:href="#ma74ef7181a" x="70.870625" y="142.571701" style="stroke: #000000; stroke-width: 0.6"/>
      </g>
     </g>
    </g>
    <g id="ytick_27">
     <g id="line2d_43">
      <g>
       <use xlink:href="#ma74ef7181a" x="70.870625" y="138.502478" style="stroke: #000000; stroke-width: 0.6"/>
      </g>
     </g>
    </g>
    <g id="ytick_28">
     <g id="line2d_44">
      <g>
       <use xlink:href="#ma74ef7181a" x="70.870625" y="134.913169" style="stroke: #000000; stroke-width: 0.6"/>
      </g>
     </g>
    </g>
    <g id="ytick_29">
     <g id="line2d_45">
      <g>
       <use xlink:href="#ma74ef7181a" x="70.870625" y="110.579522" style="stroke: #000000; stroke-width: 0.6"/>
      </g>
     </g>
    </g>
    <g id="ytick_30">
     <g id="line2d_46">
      <g>
       <use xlink:href="#ma74ef7181a" x="70.870625" y="98.223417" style="stroke: #000000; stroke-width: 0.6"/>
      </g>
     </g>
    </g>
    <g id="ytick_31">
     <g id="line2d_47">
      <g>
       <use xlink:href="#ma74ef7181a" x="70.870625" y="89.456621" style="stroke: #000000; stroke-width: 0.6"/>
      </g>
     </g>
    </g>
    <g id="ytick_32">
     <g id="line2d_48">
      <g>
       <use xlink:href="#ma74ef7181a" x="70.870625" y="82.656565" style="stroke: #000000; stroke-width: 0.6"/>
      </g>
     </g>
    </g>
    <g id="ytick_33">
     <g id="line2d_49">
      <g>
       <use xlink:href="#ma74ef7181a" x="70.870625" y="77.100516" style="stroke: #000000; stroke-width: 0.6"/>
      </g>
     </g>
    </g>
    <g id="ytick_34">
     <g id="line2d_50">
      <g>
       <use xlink:href="#ma74ef7181a" x="70.870625" y="72.402943" style="stroke: #000000; stroke-width: 0.6"/>
      </g>
     </g>
    </g>
    <g id="ytick_35">
     <g id="line2d_51">
      <g>
       <use xlink:href="#ma74ef7181a" x="70.870625" y="68.33372" style="stroke: #000000; stroke-width: 0.6"/>
      </g>
     </g>
    </g>
    <g id="ytick_36">
     <g id="line2d_52">
      <g>
       <use xlink:href="#ma74ef7181a" x="70.870625" y="64.744411" style="stroke: #000000; stroke-width: 0.6"/>
      </g>
     </g>
    </g>
    <g id="ytick_37">
     <g id="line2d_53">
      <g>
       <use xlink:href="#ma74ef7181a" x="70.870625" y="40.410763" style="stroke: #000000; stroke-width: 0.6"/>
      </g>
     </g>
    </g>
    <g id="ytick_38">
     <g id="line2d_54">
      <g>
       <use xlink:href="#ma74ef7181a" x="70.870625" y="28.054658" style="stroke: #000000; stroke-width: 0.6"/>
      </g>
     </g>
    </g>
    <g id="ytick_39">
     <g id="line2d_55">
      <g>
       <use xlink:href="#ma74ef7181a" x="70.870625" y="19.287862" style="stroke: #000000; stroke-width: 0.6"/>
      </g>
     </g>
    </g>
    <g id="ytick_40">
     <g id="line2d_56">
      <g>
       <use xlink:href="#ma74ef7181a" x="70.870625" y="12.487807" style="stroke: #000000; stroke-width: 0.6"/>
      </g>
     </g>
    </g>
    <g id="text_12">
     <!-- Runtime -->
     <g transform="translate(20.877188 211.109062) rotate(-90) scale(0.18 -0.18)">
      <defs>
       <path id="DejaVuSans-74" d="M 1172 4494 
L 1172 3500 
L 2356 3500 
L 2356 3053 
L 1172 3053 
L 1172 1153 
Q 1172 725 1289 603 
Q 1406 481 1766 481 
L 2356 481 
L 2356 0 
L 1766 0 
Q 1100 0 847 248 
Q 594 497 594 1153 
L 594 3053 
L 172 3053 
L 172 3500 
L 594 3500 
L 594 4494 
L 1172 4494 
z
" transform="scale(0.015625)"/>
       <path id="DejaVuSans-6d" d="M 3328 2828 
Q 3544 3216 3844 3400 
Q 4144 3584 4550 3584 
Q 5097 3584 5394 3201 
Q 5691 2819 5691 2113 
L 5691 0 
L 5113 0 
L 5113 2094 
Q 5113 2597 4934 2840 
Q 4756 3084 4391 3084 
Q 3944 3084 3684 2787 
Q 3425 2491 3425 1978 
L 3425 0 
L 2847 0 
L 2847 2094 
Q 2847 2600 2669 2842 
Q 2491 3084 2119 3084 
Q 1678 3084 1418 2786 
Q 1159 2488 1159 1978 
L 1159 0 
L 581 0 
L 581 3500 
L 1159 3500 
L 1159 2956 
Q 1356 3278 1631 3431 
Q 1906 3584 2284 3584 
Q 2666 3584 2933 3390 
Q 3200 3197 3328 2828 
z
" transform="scale(0.015625)"/>
      </defs>
      <use xlink:href="#DejaVuSans-52"/>
      <use xlink:href="#DejaVuSans-75" x="64.982422"/>
      <use xlink:href="#DejaVuSans-6e" x="128.361328"/>
      <use xlink:href="#DejaVuSans-74" x="191.740234"/>
      <use xlink:href="#DejaVuSans-69" x="230.949219"/>
      <use xlink:href="#DejaVuSans-6d" x="258.732422"/>
      <use xlink:href="#DejaVuSans-65" x="356.144531"/>
     </g>
    </g>
   </g>
   <g id="line2d_57">
    <path d="M 93.697898 277.817147 
L 103.015152 174.894695 
L 112.332406 149.328345 
L 121.64966 135.789675 
L 130.966914 126.86748 
L 140.284169 104.381804 
L 149.601423 95.671337 
L 158.918677 86.639574 
L 168.235931 81.690824 
L 177.553185 77.675756 
L 186.870439 74.057135 
L 196.187694 70.922044 
L 205.504948 68.131274 
L 214.822202 65.679696 
L 224.139456 63.290481 
L 233.45671 61.153172 
L 242.773965 59.378284 
L 252.091219 57.622663 
L 261.408473 56.028045 
L 270.725727 54.546942 
L 280.042981 53.186602 
L 289.360235 51.901223 
L 298.67749 50.703315 
L 307.994744 49.554401 
L 317.311998 48.464262 
L 326.629252 47.479077 
L 335.946506 46.560568 
L 345.26376 45.623116 
L 354.581015 44.730665 
L 363.898269 43.827135 
L 373.215523 43.040189 
L 382.532777 42.292226 
L 391.850031 41.553658 
L 401.167285 40.846766 
L 410.48454 40.173512 
L 419.801794 39.505879 
L 429.119048 38.757272 
L 438.436302 38.005807 
L 447.753556 37.3731 
L 457.070811 36.728096 
L 466.388065 36.07326 
L 475.705319 35.445775 
L 485.022573 34.828556 
L 494.339827 34.184484 
L 503.657081 33.584754 
L 512.974336 32.950512 
L 522.29159 32.301373 
L 531.608844 31.678313 
L 540.926098 31.071593 
L 550.243352 30.340038 
" clip-path="url(#p13eef63a42)" style="fill: none; stroke: #386cb0; stroke-width: 3; stroke-linecap: square"/>
   </g>
   <g id="line2d_58">
    <path d="M 93.697898 303.472657 
L 103.015152 164.20094 
L 112.332406 144.255682 
L 121.64966 132.429154 
L 130.966914 124.323071 
L 140.284169 117.776123 
L 149.601423 111.610322 
L 158.918677 108.325278 
L 168.235931 105.429002 
L 177.553185 103.335382 
L 186.870439 100.951864 
L 196.187694 99.157908 
L 205.504948 97.236842 
L 214.822202 95.608368 
L 224.139456 94.106167 
L 233.45671 92.051056 
L 242.773965 90.755973 
L 252.091219 89.892786 
L 261.408473 88.710138 
L 270.725727 87.776358 
L 280.042981 86.743142 
L 289.360235 85.586461 
L 298.67749 84.9059 
L 307.994744 84.30316 
L 317.311998 83.656974 
L 326.629252 83.170228 
L 335.946506 82.545555 
L 345.26376 81.737009 
L 354.581015 80.784699 
L 363.898269 80.214172 
L 373.215523 79.662505 
L 382.532777 78.672783 
L 391.850031 78.025958 
L 401.167285 77.284341 
L 410.48454 76.72062 
L 419.801794 76.326052 
L 429.119048 75.926976 
L 438.436302 75.300047 
L 447.753556 74.761894 
L 457.070811 74.359373 
L 466.388065 73.798491 
L 475.705319 73.194425 
L 485.022573 72.914359 
L 494.339827 72.384769 
L 503.657081 72.073953 
L 512.974336 71.734164 
L 522.29159 71.357709 
L 531.608844 70.806992 
L 540.926098 70.386399 
L 550.243352 70.167124 
" clip-path="url(#p13eef63a42)" style="fill: none; stroke: #f0027f; stroke-width: 3; stroke-linecap: square"/>
   </g>
   <g id="line2d_59">
    <path d="M 93.697898 111.469897 
L 103.015152 93.332878 
L 112.332406 82.366122 
L 121.64966 77.119479 
L 130.966914 73.05907 
L 140.284169 70.251676 
L 149.601423 67.950326 
L 158.918677 65.67657 
L 168.235931 63.619467 
L 177.553185 61.675158 
L 186.870439 59.87997 
L 196.187694 58.132238 
L 205.504948 56.575593 
L 214.822202 55.058974 
L 224.139456 53.620018 
L 233.45671 52.244741 
L 242.773965 50.917186 
L 252.091219 49.629511 
L 261.408473 48.361666 
L 270.725727 47.242135 
L 280.042981 46.197265 
L 289.360235 45.176489 
L 298.67749 44.053348 
L 307.994744 43.162469 
L 317.311998 42.250295 
L 326.629252 41.360832 
L 335.946506 40.470183 
L 345.26376 39.614677 
L 354.581015 38.834658 
L 363.898269 38.077763 
L 373.215523 37.347502 
L 382.532777 36.628983 
L 391.850031 35.927753 
L 401.167285 35.25226 
L 410.48454 34.601495 
L 419.801794 33.983062 
L 429.119048 33.329353 
L 438.436302 32.686388 
L 447.753556 32.062256 
L 457.070811 31.448029 
L 466.388065 30.85778 
L 475.705319 30.297814 
L 485.022573 29.718631 
L 494.339827 29.176581 
L 503.657081 28.61014 
L 512.974336 28.020894 
L 522.29159 27.447237 
L 531.608844 26.877259 
L 540.926098 26.3535 
L 550.243352 25.812335 
" clip-path="url(#p13eef63a42)" style="fill: none; stroke: #bf5b17; stroke-width: 3; stroke-linecap: square"/>
   </g>
   <g id="patch_3">
    <path d="M 70.870625 339.84 
L 70.870625 7.2 
" style="fill: none; stroke: #000000; stroke-width: 0.8; stroke-linejoin: miter; stroke-linecap: square"/>
   </g>
   <g id="patch_4">
    <path d="M 573.070625 339.84 
L 573.070625 7.2 
" style="fill: none; stroke: #000000; stroke-width: 0.8; stroke-linejoin: miter; stroke-linecap: square"/>
   </g>
   <g id="patch_5">
    <path d="M 70.870625 339.84 
L 573.070625 339.84 
" style="fill: none; stroke: #000000; stroke-width: 0.8; stroke-linejoin: miter; stroke-linecap: square"/>
   </g>
   <g id="patch_6">
    <path d="M 70.870625 7.2 
L 573.070625 7.2 
" style="fill: none; stroke: #000000; stroke-width: 0.8; stroke-linejoin: miter; stroke-linecap: square"/>
   </g>
   <g id="legend_1">
    <g id="patch_7">
     <path d="M 365.330625 331.84 
L 561.870625 331.84 
Q 565.070625 331.84 565.070625 328.64 
L 565.070625 259.785 
Q 565.070625 256.585 561.870625 256.585 
L 365.330625 256.585 
Q 362.130625 256.585 362.130625 259.785 
L 362.130625 328.64 
Q 362.130625 331.84 365.330625 331.84 
z
" style="fill: #ffffff; opacity: 0.8; stroke: #cccccc; stroke-linejoin: miter"/>
    </g>
    <g id="line2d_60">
     <path d="M 368.530625 269.5425 
L 384.530625 269.5425 
L 400.530625 269.5425 
" style="fill: none; stroke: #386cb0; stroke-width: 3; stroke-linecap: square"/>
    </g>
    <g id="text_13">
     <!-- M/GP-MBTL (Ours) -->
     <g transform="translate(413.330625 275.1425) scale(0.16 -0.16)">
      <defs>
       <path id="DejaVuSans-4d" d="M 628 4666 
L 1569 4666 
L 2759 1491 
L 3956 4666 
L 4897 4666 
L 4897 0 
L 4281 0 
L 4281 4097 
L 3078 897 
L 2444 897 
L 1241 4097 
L 1241 0 
L 628 0 
L 628 4666 
z
" transform="scale(0.015625)"/>
       <path id="DejaVuSans-2f" d="M 1625 4666 
L 2156 4666 
L 531 -594 
L 0 -594 
L 1625 4666 
z
" transform="scale(0.015625)"/>
       <path id="DejaVuSans-47" d="M 3809 666 
L 3809 1919 
L 2778 1919 
L 2778 2438 
L 4434 2438 
L 4434 434 
Q 4069 175 3628 42 
Q 3188 -91 2688 -91 
Q 1594 -91 976 548 
Q 359 1188 359 2328 
Q 359 3472 976 4111 
Q 1594 4750 2688 4750 
Q 3144 4750 3555 4637 
Q 3966 4525 4313 4306 
L 4313 3634 
Q 3963 3931 3569 4081 
Q 3175 4231 2741 4231 
Q 1884 4231 1454 3753 
Q 1025 3275 1025 2328 
Q 1025 1384 1454 906 
Q 1884 428 2741 428 
Q 3075 428 3337 486 
Q 3600 544 3809 666 
z
" transform="scale(0.015625)"/>
       <path id="DejaVuSans-50" d="M 1259 4147 
L 1259 2394 
L 2053 2394 
Q 2494 2394 2734 2622 
Q 2975 2850 2975 3272 
Q 2975 3691 2734 3919 
Q 2494 4147 2053 4147 
L 1259 4147 
z
M 628 4666 
L 2053 4666 
Q 2838 4666 3239 4311 
Q 3641 3956 3641 3272 
Q 3641 2581 3239 2228 
Q 2838 1875 2053 1875 
L 1259 1875 
L 1259 0 
L 628 0 
L 628 4666 
z
" transform="scale(0.015625)"/>
       <path id="DejaVuSans-2d" d="M 313 2009 
L 1997 2009 
L 1997 1497 
L 313 1497 
L 313 2009 
z
" transform="scale(0.015625)"/>
       <path id="DejaVuSans-42" d="M 1259 2228 
L 1259 519 
L 2272 519 
Q 2781 519 3026 730 
Q 3272 941 3272 1375 
Q 3272 1813 3026 2020 
Q 2781 2228 2272 2228 
L 1259 2228 
z
M 1259 4147 
L 1259 2741 
L 2194 2741 
Q 2656 2741 2882 2914 
Q 3109 3088 3109 3444 
Q 3109 3797 2882 3972 
Q 2656 4147 2194 4147 
L 1259 4147 
z
M 628 4666 
L 2241 4666 
Q 2963 4666 3353 4366 
Q 3744 4066 3744 3513 
Q 3744 3084 3544 2831 
Q 3344 2578 2956 2516 
Q 3422 2416 3680 2098 
Q 3938 1781 3938 1306 
Q 3938 681 3513 340 
Q 3088 0 2303 0 
L 628 0 
L 628 4666 
z
" transform="scale(0.015625)"/>
       <path id="DejaVuSans-54" d="M -19 4666 
L 3928 4666 
L 3928 4134 
L 2272 4134 
L 2272 0 
L 1638 0 
L 1638 4134 
L -19 4134 
L -19 4666 
z
" transform="scale(0.015625)"/>
       <path id="DejaVuSans-4c" d="M 628 4666 
L 1259 4666 
L 1259 531 
L 3531 531 
L 3531 0 
L 628 0 
L 628 4666 
z
" transform="scale(0.015625)"/>
       <path id="DejaVuSans-28" d="M 1984 4856 
Q 1566 4138 1362 3434 
Q 1159 2731 1159 2009 
Q 1159 1288 1364 580 
Q 1569 -128 1984 -844 
L 1484 -844 
Q 1016 -109 783 600 
Q 550 1309 550 2009 
Q 550 2706 781 3412 
Q 1013 4119 1484 4856 
L 1984 4856 
z
" transform="scale(0.015625)"/>
       <path id="DejaVuSans-4f" d="M 2522 4238 
Q 1834 4238 1429 3725 
Q 1025 3213 1025 2328 
Q 1025 1447 1429 934 
Q 1834 422 2522 422 
Q 3209 422 3611 934 
Q 4013 1447 4013 2328 
Q 4013 3213 3611 3725 
Q 3209 4238 2522 4238 
z
M 2522 4750 
Q 3503 4750 4090 4092 
Q 4678 3434 4678 2328 
Q 4678 1225 4090 567 
Q 3503 -91 2522 -91 
Q 1538 -91 948 565 
Q 359 1222 359 2328 
Q 359 3434 948 4092 
Q 1538 4750 2522 4750 
z
" transform="scale(0.015625)"/>
       <path id="DejaVuSans-72" d="M 2631 2963 
Q 2534 3019 2420 3045 
Q 2306 3072 2169 3072 
Q 1681 3072 1420 2755 
Q 1159 2438 1159 1844 
L 1159 0 
L 581 0 
L 581 3500 
L 1159 3500 
L 1159 2956 
Q 1341 3275 1631 3429 
Q 1922 3584 2338 3584 
Q 2397 3584 2469 3576 
Q 2541 3569 2628 3553 
L 2631 2963 
z
" transform="scale(0.015625)"/>
       <path id="DejaVuSans-29" d="M 513 4856 
L 1013 4856 
Q 1481 4119 1714 3412 
Q 1947 2706 1947 2009 
Q 1947 1309 1714 600 
Q 1481 -109 1013 -844 
L 513 -844 
Q 928 -128 1133 580 
Q 1338 1288 1338 2009 
Q 1338 2731 1133 3434 
Q 928 4138 513 4856 
z
" transform="scale(0.015625)"/>
      </defs>
      <use xlink:href="#DejaVuSans-4d"/>
      <use xlink:href="#DejaVuSans-2f" x="86.279297"/>
      <use xlink:href="#DejaVuSans-47" x="119.970703"/>
      <use xlink:href="#DejaVuSans-50" x="197.460938"/>
      <use xlink:href="#DejaVuSans-2d" x="255.513672"/>
      <use xlink:href="#DejaVuSans-4d" x="291.597656"/>
      <use xlink:href="#DejaVuSans-42" x="377.876953"/>
      <use xlink:href="#DejaVuSans-54" x="446.480469"/>
      <use xlink:href="#DejaVuSans-4c" x="507.564453"/>
      <use xlink:href="#DejaVuSans-20" x="563.277344"/>
      <use xlink:href="#DejaVuSans-28" x="595.064453"/>
      <use xlink:href="#DejaVuSans-4f" x="634.078125"/>
      <use xlink:href="#DejaVuSans-75" x="712.789062"/>
      <use xlink:href="#DejaVuSans-72" x="776.167969"/>
      <use xlink:href="#DejaVuSans-73" x="817.28125"/>
      <use xlink:href="#DejaVuSans-29" x="869.380859"/>
     </g>
    </g>
    <g id="line2d_61">
     <path d="M 368.530625 293.0275 
L 384.530625 293.0275 
L 400.530625 293.0275 
" style="fill: none; stroke: #f0027f; stroke-width: 3; stroke-linecap: square"/>
    </g>
    <g id="text_14">
     <!-- M-MBTL -->
     <g transform="translate(413.330625 298.6275) scale(0.16 -0.16)">
      <use xlink:href="#DejaVuSans-4d"/>
      <use xlink:href="#DejaVuSans-2d" x="86.279297"/>
      <use xlink:href="#DejaVuSans-4d" x="122.363281"/>
      <use xlink:href="#DejaVuSans-42" x="208.642578"/>
      <use xlink:href="#DejaVuSans-54" x="277.246094"/>
      <use xlink:href="#DejaVuSans-4c" x="338.330078"/>
     </g>
    </g>
    <g id="line2d_62">
     <path d="M 368.530625 316.5125 
L 384.530625 316.5125 
L 400.530625 316.5125 
" style="fill: none; stroke: #bf5b17; stroke-width: 3; stroke-linecap: square"/>
    </g>
    <g id="text_15">
     <!-- GP-MBTL -->
     <g transform="translate(413.330625 322.1125) scale(0.16 -0.16)">
      <use xlink:href="#DejaVuSans-47"/>
      <use xlink:href="#DejaVuSans-50" x="77.490234"/>
      <use xlink:href="#DejaVuSans-2d" x="135.542969"/>
      <use xlink:href="#DejaVuSans-4d" x="171.626953"/>
      <use xlink:href="#DejaVuSans-42" x="257.90625"/>
      <use xlink:href="#DejaVuSans-54" x="326.509766"/>
      <use xlink:href="#DejaVuSans-4c" x="387.59375"/>
     </g>
    </g>
   </g>
  </g>
 </g>
 <defs>
  <clipPath id="p13eef63a42">
   <rect x="70.870625" y="7.2" width="502.2" height="332.64"/>
  </clipPath>
 </defs>
</svg>
