<?xml version="1.0" encoding="utf-8" standalone="no"?>
<!DOCTYPE svg PUBLIC "-//W3C//DTD SVG 1.1//EN"
  "http://www.w3.org/Graphics/SVG/1.1/DTD/svg11.dtd">
<svg xmlns:xlink="http://www.w3.org/1999/xlink" width="754.720625pt" height="562.257474pt" viewBox="0 0 754.720625 562.257474" xmlns="http://www.w3.org/2000/svg" version="1.1">
 <metadata>
  <rdf:RDF xmlns:dc="http://purl.org/dc/elements/1.1/" xmlns:cc="http://creativecommons.org/ns#" xmlns:rdf="http://www.w3.org/1999/02/22-rdf-syntax-ns#">
   <cc:Work>
    <dc:type rdf:resource="http://purl.org/dc/dcmitype/StillImage"/>
    <dc:date>2025-02-27T10:31:02.788810</dc:date>
    <dc:format>image/svg+xml</dc:format>
    <dc:creator>
     <cc:Agent>
      <dc:title>Matplotlib v3.9.4, https://matplotlib.org/</dc:title>
     </cc:Agent>
    </dc:creator>
   </cc:Work>
  </rdf:RDF>
 </metadata>
 <defs>
  <style type="text/css">*{stroke-linejoin: round; stroke-linecap: butt}</style>
 </defs>
 <g id="figure_1">
  <g id="patch_1">
   <path d="M 0 562.257474 
L 754.720625 562.257474 
L 754.720625 0 
L 0 0 
z
" style="fill: #ffffff"/>
  </g>
  <g id="axes_1">
   <g id="patch_2">
    <path d="M 77.920625 509.216224 
L 747.520625 509.216224 
L 747.520625 10.256224 
L 77.920625 10.256224 
z
" style="fill: #ffffff"/>
   </g>
   <g id="PolyCollection_1">
    <path d="M 108.356989 336.808227 
L 108.356989 96861.110274 
L 116.062397 275.253821 
L 123.767806 235.431839 
L 131.473214 215.556629 
L 139.178623 202.71788 
L 146.884031 183.98219 
L 154.58944 174.562137 
L 162.294848 160.574281 
L 170.000257 151.863833 
L 177.705665 145.571412 
L 185.411074 138.934635 
L 193.116482 133.363227 
L 200.821891 128.87955 
L 208.527299 125.022486 
L 216.232708 120.767713 
L 223.938116 117.394599 
L 231.643525 114.8223 
L 239.348933 112.314982 
L 247.054342 110.119346 
L 254.75975 108.04378 
L 262.465159 106.123986 
L 270.170567 104.293331 
L 277.875976 102.585433 
L 285.581384 101.063146 
L 293.286793 99.49404 
L 300.992202 98.091467 
L 308.69761 96.801854 
L 316.403019 95.481026 
L 324.108427 94.196937 
L 331.813836 92.979689 
L 339.519244 91.840593 
L 347.224653 90.707576 
L 354.930061 89.570746 
L 362.63547 88.542325 
L 370.340878 87.52902 
L 378.046287 86.489488 
L 385.751695 85.419326 
L 393.457104 84.348013 
L 401.162512 83.436128 
L 408.867921 82.544113 
L 416.573329 81.614276 
L 424.278738 80.677618 
L 431.984146 79.79561 
L 439.689555 78.869943 
L 447.394963 78.014122 
L 455.100372 77.16081 
L 462.80578 76.24628 
L 470.511189 75.36319 
L 478.216597 74.503507 
L 485.922006 73.456017 
L 493.627414 72.366531 
L 501.332823 71.268218 
L 509.038231 70.211644 
L 516.74364 69.239136 
L 524.449048 68.319263 
L 532.154457 67.40738 
L 539.859866 66.488452 
L 547.565274 65.612299 
L 555.270683 64.746911 
L 562.976091 63.918898 
L 570.6815 63.088383 
L 578.386908 62.243137 
L 586.092317 61.363722 
L 593.797725 60.541912 
L 601.503134 59.775781 
L 609.208542 59.031184 
L 616.913951 58.240169 
L 624.619359 57.495455 
L 632.324768 56.798063 
L 640.030176 56.102191 
L 647.735585 55.351324 
L 655.440993 54.688151 
L 663.146402 53.974172 
L 670.85181 53.31422 
L 678.557219 52.526768 
L 686.262627 51.728314 
L 693.968036 50.991599 
L 701.673444 50.297179 
L 709.378853 49.557593 
L 717.084261 48.838744 
L 717.084261 37.453659 
L 717.084261 37.453659 
L 709.378853 38.138091 
L 701.673444 38.851154 
L 693.968036 39.595119 
L 686.262627 40.335909 
L 678.557219 41.077793 
L 670.85181 41.840856 
L 663.146402 42.569104 
L 655.440993 43.283903 
L 647.735585 44.010435 
L 640.030176 44.754265 
L 632.324768 45.500085 
L 624.619359 46.248479 
L 616.913951 47.034553 
L 609.208542 47.803532 
L 601.503134 48.61468 
L 593.797725 49.441664 
L 586.092317 50.195618 
L 578.386908 51.022272 
L 570.6815 51.8701 
L 562.976091 52.751465 
L 555.270683 53.678167 
L 547.565274 54.566247 
L 539.859866 55.491369 
L 532.154457 56.441316 
L 524.449048 57.406986 
L 516.74364 58.373822 
L 509.038231 59.371475 
L 501.332823 60.364664 
L 493.627414 61.355682 
L 485.922006 62.421217 
L 478.216597 63.409903 
L 470.511189 64.262558 
L 462.80578 65.147615 
L 455.100372 66.050205 
L 447.394963 66.981125 
L 439.689555 67.804581 
L 431.984146 68.706004 
L 424.278738 69.592232 
L 416.573329 70.474532 
L 408.867921 71.444179 
L 401.162512 72.401276 
L 393.457104 73.323393 
L 385.751695 74.4248 
L 378.046287 75.499473 
L 370.340878 76.405006 
L 362.63547 77.350599 
L 354.930061 78.349645 
L 347.224653 79.365831 
L 339.519244 80.42766 
L 331.813836 81.571363 
L 324.108427 82.730688 
L 316.403019 83.911523 
L 308.69761 85.179892 
L 300.992202 86.422063 
L 293.286793 87.741387 
L 285.581384 89.178673 
L 277.875976 90.799571 
L 270.170567 92.395959 
L 262.465159 94.106692 
L 254.75975 95.939964 
L 247.054342 97.93737 
L 239.348933 100.122301 
L 231.643525 102.460641 
L 223.938116 104.799099 
L 216.232708 107.400822 
L 208.527299 109.984902 
L 200.821891 113.027442 
L 193.116482 116.410797 
L 185.411074 119.911729 
L 177.705665 123.864476 
L 170.000257 128.895588 
L 162.294848 134.624161 
L 154.58944 146.256816 
L 146.884031 159.65824 
L 139.178623 199.843704 
L 131.473214 211.705213 
L 123.767806 229.42593 
L 116.062397 261.282384 
L 108.356989 336.808227 
z
" clip-path="url(#pd15f9cda60)" style="fill: #386cb0; fill-opacity: 0.1; stroke: #386cb0; stroke-opacity: 0.1"/>
   </g>
   <g id="PolyCollection_2">
    <defs>
     <path id="ma7e981dc68" d="M 108.356989 -148.006519 
L 108.356989 -75.72125 
L 116.062397 -318.455202 
L 123.767806 -341.941783 
L 131.473214 -356.757348 
L 139.178623 -367.184774 
L 146.884031 -375.739068 
L 154.58944 -383.864317 
L 162.294848 -388.220764 
L 170.000257 -392.069306 
L 177.705665 -394.861855 
L 185.411074 -398.05538 
L 193.116482 -400.461271 
L 200.821891 -403.040685 
L 208.527299 -405.23033 
L 216.232708 -407.255477 
L 223.938116 -410.027618 
L 231.643525 -411.772775 
L 239.348933 -412.938341 
L 247.054342 -414.538642 
L 254.75975 -415.805317 
L 262.465159 -417.206823 
L 270.170567 -418.775993 
L 277.875976 -419.698993 
L 285.581384 -420.517815 
L 293.286793 -421.395408 
L 300.992202 -422.055851 
L 308.69761 -422.904935 
L 316.403019 -424.003991 
L 324.108427 -425.300326 
L 331.813836 -426.076933 
L 339.519244 -426.826273 
L 347.224653 -428.172826 
L 354.930061 -429.049955 
L 362.63547 -430.058239 
L 370.340878 -430.825446 
L 378.046287 -431.36229 
L 385.751695 -431.904978 
L 393.457104 -432.758766 
L 401.162512 -433.49142 
L 408.867921 -434.039893 
L 416.573329 -434.805123 
L 424.278738 -435.629623 
L 431.984146 -436.011337 
L 439.689555 -436.731518 
L 447.394963 -437.151265 
L 455.100372 -437.610295 
L 462.80578 -438.120543 
L 470.511189 -438.865146 
L 478.216597 -439.434292 
L 485.922006 -439.72961 
L 493.627414 -440.375883 
L 501.332823 -440.96274 
L 509.038231 -441.35706 
L 516.74364 -441.785879 
L 524.449048 -442.10156 
L 532.154457 -442.74766 
L 539.859866 -443.240707 
L 547.565274 -443.650261 
L 555.270683 -443.777753 
L 562.976091 -443.930326 
L 570.6815 -444.085286 
L 578.386908 -444.261949 
L 586.092317 -444.454629 
L 593.797725 -444.751417 
L 601.503134 -444.930369 
L 609.208542 -445.112661 
L 616.913951 -445.342452 
L 624.619359 -445.618185 
L 632.324768 -445.864355 
L 640.030176 -446.042652 
L 647.735585 -446.294817 
L 655.440993 -446.473745 
L 663.146402 -446.656753 
L 670.85181 -446.811157 
L 678.557219 -446.991219 
L 686.262627 -447.203736 
L 693.968036 -447.388404 
L 701.673444 -447.624582 
L 709.378853 -447.785506 
L 717.084261 -448.074767 
L 717.084261 -448.32378 
L 717.084261 -448.32378 
L 709.378853 -448.035011 
L 701.673444 -447.874453 
L 693.968036 -447.638812 
L 686.262627 -447.455026 
L 678.557219 -447.243323 
L 670.85181 -447.063699 
L 663.146402 -446.909874 
L 655.440993 -446.727601 
L 647.735585 -446.549724 
L 640.030176 -446.29843 
L 632.324768 -446.120852 
L 624.619359 -445.875536 
L 616.913951 -445.601317 
L 609.208542 -445.371653 
L 601.503134 -445.189666 
L 593.797725 -445.011237 
L 586.092317 -444.715505 
L 578.386908 -444.523787 
L 570.6815 -444.348275 
L 562.976091 -444.194075 
L 555.270683 -444.042123 
L 547.565274 -443.915028 
L 539.859866 -443.50809 
L 532.154457 -443.018266 
L 524.449048 -442.375817 
L 516.74364 -442.061403 
L 509.038231 -441.635336 
L 501.332823 -441.24427 
L 493.627414 -440.659542 
L 485.922006 -440.016738 
L 478.216597 -439.722882 
L 470.511189 -439.157466 
L 462.80578 -438.417403 
L 455.100372 -437.909576 
L 447.394963 -437.453448 
L 439.689555 -437.036596 
L 431.984146 -436.325283 
L 424.278738 -435.945976 
L 416.573329 -435.12634 
L 408.867921 -434.366155 
L 401.162512 -433.82122 
L 393.457104 -433.093655 
L 385.751695 -432.246111 
L 378.046287 -431.707208 
L 370.340878 -431.174009 
L 362.63547 -430.412223 
L 354.930061 -429.411198 
L 347.224653 -428.540685 
L 339.519244 -427.204786 
L 331.813836 -426.461113 
L 324.108427 -425.691216 
L 316.403019 -424.405529 
L 308.69761 -423.316496 
L 300.992202 -422.474829 
L 293.286793 -421.820159 
L 285.581384 -420.950892 
L 277.875976 -420.139765 
L 270.170567 -419.22496 
L 262.465159 -417.670186 
L 254.75975 -416.281833 
L 247.054342 -415.027623 
L 239.348933 -413.443664 
L 231.643525 -412.290302 
L 223.938116 -410.564169 
L 216.232708 -407.822904 
L 208.527299 -405.822939 
L 200.821891 -403.66133 
L 193.116482 -401.118254 
L 185.411074 -398.74841 
L 177.705665 -395.605881 
L 170.000257 -392.861329 
L 162.294848 -389.083496 
L 154.58944 -384.815409 
L 146.884031 -376.884246 
L 139.178623 -368.5785 
L 131.473214 -358.52771 
L 123.767806 -344.425977 
L 116.062397 -322.684236 
L 108.356989 -148.006519 
z
" style="stroke: #f0027f; stroke-opacity: 0.1"/>
    </defs>
    <g clip-path="url(#pd15f9cda60)">
     <use xlink:href="#ma7e981dc68" x="0" y="562.257474" style="fill: #f0027f; fill-opacity: 0.1; stroke: #f0027f; stroke-opacity: 0.1"/>
    </g>
   </g>
   <g id="PolyCollection_3">
    <defs>
     <path id="m84316ba22b" d="M 108.356989 -380.603978 
L 108.356989 -373.552252 
L 116.062397 -392.245035 
L 123.767806 -409.600665 
L 131.473214 -416.980089 
L 139.178623 -422.601416 
L 146.884031 -427.316558 
L 154.58944 -431.276151 
L 162.294848 -435.40516 
L 170.000257 -438.762132 
L 177.705665 -441.999225 
L 185.411074 -444.867691 
L 193.116482 -447.644234 
L 200.821891 -450.248776 
L 208.527299 -452.714095 
L 216.232708 -454.976243 
L 223.938116 -457.07194 
L 231.643525 -459.032617 
L 239.348933 -460.938233 
L 247.054342 -462.823274 
L 254.75975 -464.620584 
L 262.465159 -466.238467 
L 270.170567 -467.736327 
L 277.875976 -469.212253 
L 285.581384 -470.566057 
L 293.286793 -471.880873 
L 300.992202 -473.154548 
L 308.69761 -474.355997 
L 316.403019 -475.581776 
L 324.108427 -476.739799 
L 331.813836 -477.790165 
L 339.519244 -478.895767 
L 347.224653 -479.934845 
L 354.930061 -480.908204 
L 362.63547 -481.890632 
L 370.340878 -482.877257 
L 378.046287 -483.816909 
L 385.751695 -484.791678 
L 393.457104 -485.682944 
L 401.162512 -486.595894 
L 408.867921 -487.468271 
L 416.573329 -488.326983 
L 424.278738 -489.143252 
L 431.984146 -489.952495 
L 439.689555 -490.747853 
L 447.394963 -491.514866 
L 455.100372 -492.330769 
L 462.80578 -493.153925 
L 470.511189 -493.920547 
L 478.216597 -494.641502 
L 485.922006 -495.347766 
L 493.627414 -496.315149 
L 501.332823 -497.267406 
L 509.038231 -498.171624 
L 516.74364 -499.024973 
L 524.449048 -499.89917 
L 532.154457 -500.750507 
L 539.859866 -501.539742 
L 547.565274 -502.352937 
L 555.270683 -503.209101 
L 562.976091 -504.0496 
L 570.6815 -504.852344 
L 578.386908 -505.585367 
L 586.092317 -506.389773 
L 593.797725 -507.12595 
L 601.503134 -507.879361 
L 609.208542 -508.606826 
L 616.913951 -509.30931 
L 624.619359 -509.985233 
L 632.324768 -510.667866 
L 640.030176 -511.341792 
L 647.735585 -512.002889 
L 655.440993 -512.638439 
L 663.146402 -513.293441 
L 670.85181 -513.928598 
L 678.557219 -514.5881 
L 686.262627 -515.274111 
L 693.968036 -515.945101 
L 701.673444 -516.614092 
L 709.378853 -517.26405 
L 717.084261 -517.916722 
L 717.084261 -529.32125 
L 717.084261 -529.32125 
L 709.378853 -528.634468 
L 701.673444 -527.921789 
L 693.968036 -527.183765 
L 686.262627 -526.435025 
L 678.557219 -525.701367 
L 670.85181 -525.017971 
L 663.146402 -524.302149 
L 655.440993 -523.601333 
L 647.735585 -522.878514 
L 640.030176 -522.210803 
L 632.324768 -521.493717 
L 624.619359 -520.726074 
L 616.913951 -519.976734 
L 609.208542 -519.230876 
L 601.503134 -518.448834 
L 593.797725 -517.690137 
L 586.092317 -516.910505 
L 578.386908 -516.062026 
L 570.6815 -515.221628 
L 562.976091 -514.411164 
L 555.270683 -513.55875 
L 547.565274 -512.725904 
L 539.859866 -511.856101 
L 532.154457 -510.992914 
L 524.449048 -510.070361 
L 516.74364 -509.158646 
L 509.038231 -508.230084 
L 501.332823 -507.289867 
L 493.627414 -506.31867 
L 485.922006 -505.321294 
L 478.216597 -504.52542 
L 470.511189 -503.731253 
L 462.80578 -502.873595 
L 455.100372 -501.925368 
L 447.394963 -501.01277 
L 439.689555 -500.143046 
L 431.984146 -499.301538 
L 424.278738 -498.43068 
L 416.573329 -497.577884 
L 408.867921 -496.685662 
L 401.162512 -495.776283 
L 393.457104 -494.817695 
L 385.751695 -493.903357 
L 378.046287 -492.959846 
L 370.340878 -492.042394 
L 362.63547 -491.123988 
L 354.930061 -490.182795 
L 347.224653 -489.265186 
L 339.519244 -488.294074 
L 331.813836 -487.327475 
L 324.108427 -486.384067 
L 316.403019 -485.380476 
L 308.69761 -484.247258 
L 300.992202 -483.087033 
L 293.286793 -481.930428 
L 285.581384 -480.714665 
L 277.875976 -479.500594 
L 270.170567 -478.150996 
L 262.465159 -476.844923 
L 254.75975 -475.479321 
L 247.054342 -474.003453 
L 239.348933 -472.385896 
L 231.643525 -470.646948 
L 223.938116 -469.031599 
L 216.232708 -467.210619 
L 208.527299 -465.305757 
L 200.821891 -463.384313 
L 193.116482 -461.388713 
L 185.411074 -459.246999 
L 177.705665 -457.078379 
L 170.000257 -454.678898 
L 162.294848 -452.208972 
L 154.58944 -449.527198 
L 146.884031 -446.798845 
L 139.178623 -443.831008 
L 131.473214 -437.50364 
L 123.767806 -429.818321 
L 116.062397 -414.783075 
L 108.356989 -380.603978 
z
" style="stroke: #bf5b17; stroke-opacity: 0.1"/>
    </defs>
    <g clip-path="url(#pd15f9cda60)">
     <use xlink:href="#m84316ba22b" x="0" y="562.257474" style="fill: #bf5b17; fill-opacity: 0.1; stroke: #bf5b17; stroke-opacity: 0.1"/>
    </g>
   </g>
   <g id="matplotlib.axis_1">
    <g id="xtick_1">
     <g id="line2d_1">
      <path d="M 100.65158 509.216224 
L 100.65158 10.256224 
" clip-path="url(#pd15f9cda60)" style="fill: none; stroke-dasharray: 1.85,0.8; stroke-dashoffset: 0; stroke: #b0b0b0; stroke-width: 0.5"/>
     </g>
     <g id="line2d_2">
      <defs>
       <path id="mae0e2bfe76" d="M 0 0 
L 0 3.5 
" style="stroke: #000000; stroke-width: 0.8"/>
      </defs>
      <g>
       <use xlink:href="#mae0e2bfe76" x="100.65158" y="509.216224" style="stroke: #000000; stroke-width: 0.8"/>
      </g>
     </g>
     <g id="text_1">
      <!-- 0 -->
      <g transform="translate(94.92533 529.893411) scale(0.18 -0.18)">
       <defs>
        <path id="DejaVuSans-30" d="M 2034 4250 
Q 1547 4250 1301 3770 
Q 1056 3291 1056 2328 
Q 1056 1369 1301 889 
Q 1547 409 2034 409 
Q 2525 409 2770 889 
Q 3016 1369 3016 2328 
Q 3016 3291 2770 3770 
Q 2525 4250 2034 4250 
z
M 2034 4750 
Q 2819 4750 3233 4129 
Q 3647 3509 3647 2328 
Q 3647 1150 3233 529 
Q 2819 -91 2034 -91 
Q 1250 -91 836 529 
Q 422 1150 422 2328 
Q 422 3509 836 4129 
Q 1250 4750 2034 4750 
z
" transform="scale(0.015625)"/>
       </defs>
       <use xlink:href="#DejaVuSans-30"/>
      </g>
     </g>
    </g>
    <g id="xtick_2">
     <g id="line2d_3">
      <path d="M 177.705665 509.216224 
L 177.705665 10.256224 
" clip-path="url(#pd15f9cda60)" style="fill: none; stroke-dasharray: 1.85,0.8; stroke-dashoffset: 0; stroke: #b0b0b0; stroke-width: 0.5"/>
     </g>
     <g id="line2d_4">
      <g>
       <use xlink:href="#mae0e2bfe76" x="177.705665" y="509.216224" style="stroke: #000000; stroke-width: 0.8"/>
      </g>
     </g>
     <g id="text_2">
      <!-- 10 -->
      <g transform="translate(166.253165 529.893411) scale(0.18 -0.18)">
       <defs>
        <path id="DejaVuSans-31" d="M 794 531 
L 1825 531 
L 1825 4091 
L 703 3866 
L 703 4441 
L 1819 4666 
L 2450 4666 
L 2450 531 
L 3481 531 
L 3481 0 
L 794 0 
L 794 531 
z
" transform="scale(0.015625)"/>
       </defs>
       <use xlink:href="#DejaVuSans-31"/>
       <use xlink:href="#DejaVuSans-30" x="63.623047"/>
      </g>
     </g>
    </g>
    <g id="xtick_3">
     <g id="line2d_5">
      <path d="M 254.75975 509.216224 
L 254.75975 10.256224 
" clip-path="url(#pd15f9cda60)" style="fill: none; stroke-dasharray: 1.85,0.8; stroke-dashoffset: 0; stroke: #b0b0b0; stroke-width: 0.5"/>
     </g>
     <g id="line2d_6">
      <g>
       <use xlink:href="#mae0e2bfe76" x="254.75975" y="509.216224" style="stroke: #000000; stroke-width: 0.8"/>
      </g>
     </g>
     <g id="text_3">
      <!-- 20 -->
      <g transform="translate(243.30725 529.893411) scale(0.18 -0.18)">
       <defs>
        <path id="DejaVuSans-32" d="M 1228 531 
L 3431 531 
L 3431 0 
L 469 0 
L 469 531 
Q 828 903 1448 1529 
Q 2069 2156 2228 2338 
Q 2531 2678 2651 2914 
Q 2772 3150 2772 3378 
Q 2772 3750 2511 3984 
Q 2250 4219 1831 4219 
Q 1534 4219 1204 4116 
Q 875 4013 500 3803 
L 500 4441 
Q 881 4594 1212 4672 
Q 1544 4750 1819 4750 
Q 2544 4750 2975 4387 
Q 3406 4025 3406 3419 
Q 3406 3131 3298 2873 
Q 3191 2616 2906 2266 
Q 2828 2175 2409 1742 
Q 1991 1309 1228 531 
z
" transform="scale(0.015625)"/>
       </defs>
       <use xlink:href="#DejaVuSans-32"/>
       <use xlink:href="#DejaVuSans-30" x="63.623047"/>
      </g>
     </g>
    </g>
    <g id="xtick_4">
     <g id="line2d_7">
      <path d="M 331.813836 509.216224 
L 331.813836 10.256224 
" clip-path="url(#pd15f9cda60)" style="fill: none; stroke-dasharray: 1.85,0.8; stroke-dashoffset: 0; stroke: #b0b0b0; stroke-width: 0.5"/>
     </g>
     <g id="line2d_8">
      <g>
       <use xlink:href="#mae0e2bfe76" x="331.813836" y="509.216224" style="stroke: #000000; stroke-width: 0.8"/>
      </g>
     </g>
     <g id="text_4">
      <!-- 30 -->
      <g transform="translate(320.361336 529.893411) scale(0.18 -0.18)">
       <defs>
        <path id="DejaVuSans-33" d="M 2597 2516 
Q 3050 2419 3304 2112 
Q 3559 1806 3559 1356 
Q 3559 666 3084 287 
Q 2609 -91 1734 -91 
Q 1441 -91 1130 -33 
Q 819 25 488 141 
L 488 750 
Q 750 597 1062 519 
Q 1375 441 1716 441 
Q 2309 441 2620 675 
Q 2931 909 2931 1356 
Q 2931 1769 2642 2001 
Q 2353 2234 1838 2234 
L 1294 2234 
L 1294 2753 
L 1863 2753 
Q 2328 2753 2575 2939 
Q 2822 3125 2822 3475 
Q 2822 3834 2567 4026 
Q 2313 4219 1838 4219 
Q 1578 4219 1281 4162 
Q 984 4106 628 3988 
L 628 4550 
Q 988 4650 1302 4700 
Q 1616 4750 1894 4750 
Q 2613 4750 3031 4423 
Q 3450 4097 3450 3541 
Q 3450 3153 3228 2886 
Q 3006 2619 2597 2516 
z
" transform="scale(0.015625)"/>
       </defs>
       <use xlink:href="#DejaVuSans-33"/>
       <use xlink:href="#DejaVuSans-30" x="63.623047"/>
      </g>
     </g>
    </g>
    <g id="xtick_5">
     <g id="line2d_9">
      <path d="M 408.867921 509.216224 
L 408.867921 10.256224 
" clip-path="url(#pd15f9cda60)" style="fill: none; stroke-dasharray: 1.85,0.8; stroke-dashoffset: 0; stroke: #b0b0b0; stroke-width: 0.5"/>
     </g>
     <g id="line2d_10">
      <g>
       <use xlink:href="#mae0e2bfe76" x="408.867921" y="509.216224" style="stroke: #000000; stroke-width: 0.8"/>
      </g>
     </g>
     <g id="text_5">
      <!-- 40 -->
      <g transform="translate(397.415421 529.893411) scale(0.18 -0.18)">
       <defs>
        <path id="DejaVuSans-34" d="M 2419 4116 
L 825 1625 
L 2419 1625 
L 2419 4116 
z
M 2253 4666 
L 3047 4666 
L 3047 1625 
L 3713 1625 
L 3713 1100 
L 3047 1100 
L 3047 0 
L 2419 0 
L 2419 1100 
L 313 1100 
L 313 1709 
L 2253 4666 
z
" transform="scale(0.015625)"/>
       </defs>
       <use xlink:href="#DejaVuSans-34"/>
       <use xlink:href="#DejaVuSans-30" x="63.623047"/>
      </g>
     </g>
    </g>
    <g id="xtick_6">
     <g id="line2d_11">
      <path d="M 485.922006 509.216224 
L 485.922006 10.256224 
" clip-path="url(#pd15f9cda60)" style="fill: none; stroke-dasharray: 1.85,0.8; stroke-dashoffset: 0; stroke: #b0b0b0; stroke-width: 0.5"/>
     </g>
     <g id="line2d_12">
      <g>
       <use xlink:href="#mae0e2bfe76" x="485.922006" y="509.216224" style="stroke: #000000; stroke-width: 0.8"/>
      </g>
     </g>
     <g id="text_6">
      <!-- 50 -->
      <g transform="translate(474.469506 529.893411) scale(0.18 -0.18)">
       <defs>
        <path id="DejaVuSans-35" d="M 691 4666 
L 3169 4666 
L 3169 4134 
L 1269 4134 
L 1269 2991 
Q 1406 3038 1543 3061 
Q 1681 3084 1819 3084 
Q 2600 3084 3056 2656 
Q 3513 2228 3513 1497 
Q 3513 744 3044 326 
Q 2575 -91 1722 -91 
Q 1428 -91 1123 -41 
Q 819 9 494 109 
L 494 744 
Q 775 591 1075 516 
Q 1375 441 1709 441 
Q 2250 441 2565 725 
Q 2881 1009 2881 1497 
Q 2881 1984 2565 2268 
Q 2250 2553 1709 2553 
Q 1456 2553 1204 2497 
Q 953 2441 691 2322 
L 691 4666 
z
" transform="scale(0.015625)"/>
       </defs>
       <use xlink:href="#DejaVuSans-35"/>
       <use xlink:href="#DejaVuSans-30" x="63.623047"/>
      </g>
     </g>
    </g>
    <g id="xtick_7">
     <g id="line2d_13">
      <path d="M 562.976091 509.216224 
L 562.976091 10.256224 
" clip-path="url(#pd15f9cda60)" style="fill: none; stroke-dasharray: 1.85,0.8; stroke-dashoffset: 0; stroke: #b0b0b0; stroke-width: 0.5"/>
     </g>
     <g id="line2d_14">
      <g>
       <use xlink:href="#mae0e2bfe76" x="562.976091" y="509.216224" style="stroke: #000000; stroke-width: 0.8"/>
      </g>
     </g>
     <g id="text_7">
      <!-- 60 -->
      <g transform="translate(551.523591 529.893411) scale(0.18 -0.18)">
       <defs>
        <path id="DejaVuSans-36" d="M 2113 2584 
Q 1688 2584 1439 2293 
Q 1191 2003 1191 1497 
Q 1191 994 1439 701 
Q 1688 409 2113 409 
Q 2538 409 2786 701 
Q 3034 994 3034 1497 
Q 3034 2003 2786 2293 
Q 2538 2584 2113 2584 
z
M 3366 4563 
L 3366 3988 
Q 3128 4100 2886 4159 
Q 2644 4219 2406 4219 
Q 1781 4219 1451 3797 
Q 1122 3375 1075 2522 
Q 1259 2794 1537 2939 
Q 1816 3084 2150 3084 
Q 2853 3084 3261 2657 
Q 3669 2231 3669 1497 
Q 3669 778 3244 343 
Q 2819 -91 2113 -91 
Q 1303 -91 875 529 
Q 447 1150 447 2328 
Q 447 3434 972 4092 
Q 1497 4750 2381 4750 
Q 2619 4750 2861 4703 
Q 3103 4656 3366 4563 
z
" transform="scale(0.015625)"/>
       </defs>
       <use xlink:href="#DejaVuSans-36"/>
       <use xlink:href="#DejaVuSans-30" x="63.623047"/>
      </g>
     </g>
    </g>
    <g id="xtick_8">
     <g id="line2d_15">
      <path d="M 640.030176 509.216224 
L 640.030176 10.256224 
" clip-path="url(#pd15f9cda60)" style="fill: none; stroke-dasharray: 1.85,0.8; stroke-dashoffset: 0; stroke: #b0b0b0; stroke-width: 0.5"/>
     </g>
     <g id="line2d_16">
      <g>
       <use xlink:href="#mae0e2bfe76" x="640.030176" y="509.216224" style="stroke: #000000; stroke-width: 0.8"/>
      </g>
     </g>
     <g id="text_8">
      <!-- 70 -->
      <g transform="translate(628.577676 529.893411) scale(0.18 -0.18)">
       <defs>
        <path id="DejaVuSans-37" d="M 525 4666 
L 3525 4666 
L 3525 4397 
L 1831 0 
L 1172 0 
L 2766 4134 
L 525 4134 
L 525 4666 
z
" transform="scale(0.015625)"/>
       </defs>
       <use xlink:href="#DejaVuSans-37"/>
       <use xlink:href="#DejaVuSans-30" x="63.623047"/>
      </g>
     </g>
    </g>
    <g id="xtick_9">
     <g id="line2d_17">
      <path d="M 717.084261 509.216224 
L 717.084261 10.256224 
" clip-path="url(#pd15f9cda60)" style="fill: none; stroke-dasharray: 1.85,0.8; stroke-dashoffset: 0; stroke: #b0b0b0; stroke-width: 0.5"/>
     </g>
     <g id="line2d_18">
      <g>
       <use xlink:href="#mae0e2bfe76" x="717.084261" y="509.216224" style="stroke: #000000; stroke-width: 0.8"/>
      </g>
     </g>
     <g id="text_9">
      <!-- 80 -->
      <g transform="translate(705.631761 529.893411) scale(0.18 -0.18)">
       <defs>
        <path id="DejaVuSans-38" d="M 2034 2216 
Q 1584 2216 1326 1975 
Q 1069 1734 1069 1313 
Q 1069 891 1326 650 
Q 1584 409 2034 409 
Q 2484 409 2743 651 
Q 3003 894 3003 1313 
Q 3003 1734 2745 1975 
Q 2488 2216 2034 2216 
z
M 1403 2484 
Q 997 2584 770 2862 
Q 544 3141 544 3541 
Q 544 4100 942 4425 
Q 1341 4750 2034 4750 
Q 2731 4750 3128 4425 
Q 3525 4100 3525 3541 
Q 3525 3141 3298 2862 
Q 3072 2584 2669 2484 
Q 3125 2378 3379 2068 
Q 3634 1759 3634 1313 
Q 3634 634 3220 271 
Q 2806 -91 2034 -91 
Q 1263 -91 848 271 
Q 434 634 434 1313 
Q 434 1759 690 2068 
Q 947 2378 1403 2484 
z
M 1172 3481 
Q 1172 3119 1398 2916 
Q 1625 2713 2034 2713 
Q 2441 2713 2670 2916 
Q 2900 3119 2900 3481 
Q 2900 3844 2670 4047 
Q 2441 4250 2034 4250 
Q 1625 4250 1398 4047 
Q 1172 3844 1172 3481 
z
" transform="scale(0.015625)"/>
       </defs>
       <use xlink:href="#DejaVuSans-38"/>
       <use xlink:href="#DejaVuSans-30" x="63.623047"/>
      </g>
     </g>
    </g>
    <g id="text_10">
     <!-- Decision Round -->
     <g transform="translate(343.067656 551.314036) scale(0.18 -0.18)">
      <defs>
       <path id="DejaVuSans-44" d="M 1259 4147 
L 1259 519 
L 2022 519 
Q 2988 519 3436 956 
Q 3884 1394 3884 2338 
Q 3884 3275 3436 3711 
Q 2988 4147 2022 4147 
L 1259 4147 
z
M 628 4666 
L 1925 4666 
Q 3281 4666 3915 4102 
Q 4550 3538 4550 2338 
Q 4550 1131 3912 565 
Q 3275 0 1925 0 
L 628 0 
L 628 4666 
z
" transform="scale(0.015625)"/>
       <path id="DejaVuSans-65" d="M 3597 1894 
L 3597 1613 
L 953 1613 
Q 991 1019 1311 708 
Q 1631 397 2203 397 
Q 2534 397 2845 478 
Q 3156 559 3463 722 
L 3463 178 
Q 3153 47 2828 -22 
Q 2503 -91 2169 -91 
Q 1331 -91 842 396 
Q 353 884 353 1716 
Q 353 2575 817 3079 
Q 1281 3584 2069 3584 
Q 2775 3584 3186 3129 
Q 3597 2675 3597 1894 
z
M 3022 2063 
Q 3016 2534 2758 2815 
Q 2500 3097 2075 3097 
Q 1594 3097 1305 2825 
Q 1016 2553 972 2059 
L 3022 2063 
z
" transform="scale(0.015625)"/>
       <path id="DejaVuSans-63" d="M 3122 3366 
L 3122 2828 
Q 2878 2963 2633 3030 
Q 2388 3097 2138 3097 
Q 1578 3097 1268 2742 
Q 959 2388 959 1747 
Q 959 1106 1268 751 
Q 1578 397 2138 397 
Q 2388 397 2633 464 
Q 2878 531 3122 666 
L 3122 134 
Q 2881 22 2623 -34 
Q 2366 -91 2075 -91 
Q 1284 -91 818 406 
Q 353 903 353 1747 
Q 353 2603 823 3093 
Q 1294 3584 2113 3584 
Q 2378 3584 2631 3529 
Q 2884 3475 3122 3366 
z
" transform="scale(0.015625)"/>
       <path id="DejaVuSans-69" d="M 603 3500 
L 1178 3500 
L 1178 0 
L 603 0 
L 603 3500 
z
M 603 4863 
L 1178 4863 
L 1178 4134 
L 603 4134 
L 603 4863 
z
" transform="scale(0.015625)"/>
       <path id="DejaVuSans-73" d="M 2834 3397 
L 2834 2853 
Q 2591 2978 2328 3040 
Q 2066 3103 1784 3103 
Q 1356 3103 1142 2972 
Q 928 2841 928 2578 
Q 928 2378 1081 2264 
Q 1234 2150 1697 2047 
L 1894 2003 
Q 2506 1872 2764 1633 
Q 3022 1394 3022 966 
Q 3022 478 2636 193 
Q 2250 -91 1575 -91 
Q 1294 -91 989 -36 
Q 684 19 347 128 
L 347 722 
Q 666 556 975 473 
Q 1284 391 1588 391 
Q 1994 391 2212 530 
Q 2431 669 2431 922 
Q 2431 1156 2273 1281 
Q 2116 1406 1581 1522 
L 1381 1569 
Q 847 1681 609 1914 
Q 372 2147 372 2553 
Q 372 3047 722 3315 
Q 1072 3584 1716 3584 
Q 2034 3584 2315 3537 
Q 2597 3491 2834 3397 
z
" transform="scale(0.015625)"/>
       <path id="DejaVuSans-6f" d="M 1959 3097 
Q 1497 3097 1228 2736 
Q 959 2375 959 1747 
Q 959 1119 1226 758 
Q 1494 397 1959 397 
Q 2419 397 2687 759 
Q 2956 1122 2956 1747 
Q 2956 2369 2687 2733 
Q 2419 3097 1959 3097 
z
M 1959 3584 
Q 2709 3584 3137 3096 
Q 3566 2609 3566 1747 
Q 3566 888 3137 398 
Q 2709 -91 1959 -91 
Q 1206 -91 779 398 
Q 353 888 353 1747 
Q 353 2609 779 3096 
Q 1206 3584 1959 3584 
z
" transform="scale(0.015625)"/>
       <path id="DejaVuSans-6e" d="M 3513 2113 
L 3513 0 
L 2938 0 
L 2938 2094 
Q 2938 2591 2744 2837 
Q 2550 3084 2163 3084 
Q 1697 3084 1428 2787 
Q 1159 2491 1159 1978 
L 1159 0 
L 581 0 
L 581 3500 
L 1159 3500 
L 1159 2956 
Q 1366 3272 1645 3428 
Q 1925 3584 2291 3584 
Q 2894 3584 3203 3211 
Q 3513 2838 3513 2113 
z
" transform="scale(0.015625)"/>
       <path id="DejaVuSans-20" transform="scale(0.015625)"/>
       <path id="DejaVuSans-52" d="M 2841 2188 
Q 3044 2119 3236 1894 
Q 3428 1669 3622 1275 
L 4263 0 
L 3584 0 
L 2988 1197 
Q 2756 1666 2539 1819 
Q 2322 1972 1947 1972 
L 1259 1972 
L 1259 0 
L 628 0 
L 628 4666 
L 2053 4666 
Q 2853 4666 3247 4331 
Q 3641 3997 3641 3322 
Q 3641 2881 3436 2590 
Q 3231 2300 2841 2188 
z
M 1259 4147 
L 1259 2491 
L 2053 2491 
Q 2509 2491 2742 2702 
Q 2975 2913 2975 3322 
Q 2975 3731 2742 3939 
Q 2509 4147 2053 4147 
L 1259 4147 
z
" transform="scale(0.015625)"/>
       <path id="DejaVuSans-75" d="M 544 1381 
L 544 3500 
L 1119 3500 
L 1119 1403 
Q 1119 906 1312 657 
Q 1506 409 1894 409 
Q 2359 409 2629 706 
Q 2900 1003 2900 1516 
L 2900 3500 
L 3475 3500 
L 3475 0 
L 2900 0 
L 2900 538 
Q 2691 219 2414 64 
Q 2138 -91 1772 -91 
Q 1169 -91 856 284 
Q 544 659 544 1381 
z
M 1991 3584 
L 1991 3584 
z
" transform="scale(0.015625)"/>
       <path id="DejaVuSans-64" d="M 2906 2969 
L 2906 4863 
L 3481 4863 
L 3481 0 
L 2906 0 
L 2906 525 
Q 2725 213 2448 61 
Q 2172 -91 1784 -91 
Q 1150 -91 751 415 
Q 353 922 353 1747 
Q 353 2572 751 3078 
Q 1150 3584 1784 3584 
Q 2172 3584 2448 3432 
Q 2725 3281 2906 2969 
z
M 947 1747 
Q 947 1113 1208 752 
Q 1469 391 1925 391 
Q 2381 391 2643 752 
Q 2906 1113 2906 1747 
Q 2906 2381 2643 2742 
Q 2381 3103 1925 3103 
Q 1469 3103 1208 2742 
Q 947 2381 947 1747 
z
" transform="scale(0.015625)"/>
      </defs>
      <use xlink:href="#DejaVuSans-44"/>
      <use xlink:href="#DejaVuSans-65" x="77.001953"/>
      <use xlink:href="#DejaVuSans-63" x="138.525391"/>
      <use xlink:href="#DejaVuSans-69" x="193.505859"/>
      <use xlink:href="#DejaVuSans-73" x="221.289062"/>
      <use xlink:href="#DejaVuSans-69" x="273.388672"/>
      <use xlink:href="#DejaVuSans-6f" x="301.171875"/>
      <use xlink:href="#DejaVuSans-6e" x="362.353516"/>
      <use xlink:href="#DejaVuSans-20" x="425.732422"/>
      <use xlink:href="#DejaVuSans-52" x="457.519531"/>
      <use xlink:href="#DejaVuSans-6f" x="522.501953"/>
      <use xlink:href="#DejaVuSans-75" x="583.683594"/>
      <use xlink:href="#DejaVuSans-6e" x="647.0625"/>
      <use xlink:href="#DejaVuSans-64" x="710.441406"/>
     </g>
    </g>
   </g>
   <g id="matplotlib.axis_2">
    <g id="ytick_1">
     <g id="line2d_19">
      <path d="M 77.920625 497.307415 
L 747.520625 497.307415 
" clip-path="url(#pd15f9cda60)" style="fill: none; stroke-dasharray: 1.85,0.8; stroke-dashoffset: 0; stroke: #b0b0b0; stroke-width: 0.5"/>
     </g>
     <g id="line2d_20">
      <defs>
       <path id="m84114b1304" d="M 0 0 
L -3.5 0 
" style="stroke: #000000; stroke-width: 0.8"/>
      </defs>
      <g>
       <use xlink:href="#m84114b1304" x="77.920625" y="497.307415" style="stroke: #000000; stroke-width: 0.8"/>
      </g>
     </g>
     <g id="text_11">
      <!-- $\mathdefault{10^{-3}}$ -->
      <g transform="translate(28.620625 504.146008) scale(0.18 -0.18)">
       <defs>
        <path id="DejaVuSans-2212" d="M 678 2272 
L 4684 2272 
L 4684 1741 
L 678 1741 
L 678 2272 
z
" transform="scale(0.015625)"/>
       </defs>
       <use xlink:href="#DejaVuSans-31" transform="translate(0 0.765625)"/>
       <use xlink:href="#DejaVuSans-30" transform="translate(63.623047 0.765625)"/>
       <use xlink:href="#DejaVuSans-2212" transform="translate(128.203125 39.046875) scale(0.7)"/>
       <use xlink:href="#DejaVuSans-33" transform="translate(186.855469 39.046875) scale(0.7)"/>
      </g>
     </g>
    </g>
    <g id="ytick_2">
     <g id="line2d_21">
      <path d="M 77.920625 400.65365 
L 747.520625 400.65365 
" clip-path="url(#pd15f9cda60)" style="fill: none; stroke-dasharray: 1.85,0.8; stroke-dashoffset: 0; stroke: #b0b0b0; stroke-width: 0.5"/>
     </g>
     <g id="line2d_22">
      <g>
       <use xlink:href="#m84114b1304" x="77.920625" y="400.65365" style="stroke: #000000; stroke-width: 0.8"/>
      </g>
     </g>
     <g id="text_12">
      <!-- $\mathdefault{10^{-2}}$ -->
      <g transform="translate(28.620625 407.492244) scale(0.18 -0.18)">
       <use xlink:href="#DejaVuSans-31" transform="translate(0 0.765625)"/>
       <use xlink:href="#DejaVuSans-30" transform="translate(63.623047 0.765625)"/>
       <use xlink:href="#DejaVuSans-2212" transform="translate(128.203125 39.046875) scale(0.7)"/>
       <use xlink:href="#DejaVuSans-32" transform="translate(186.855469 39.046875) scale(0.7)"/>
      </g>
     </g>
    </g>
    <g id="ytick_3">
     <g id="line2d_23">
      <path d="M 77.920625 303.999886 
L 747.520625 303.999886 
" clip-path="url(#pd15f9cda60)" style="fill: none; stroke-dasharray: 1.85,0.8; stroke-dashoffset: 0; stroke: #b0b0b0; stroke-width: 0.5"/>
     </g>
     <g id="line2d_24">
      <g>
       <use xlink:href="#m84114b1304" x="77.920625" y="303.999886" style="stroke: #000000; stroke-width: 0.8"/>
      </g>
     </g>
     <g id="text_13">
      <!-- $\mathdefault{10^{-1}}$ -->
      <g transform="translate(28.620625 310.83848) scale(0.18 -0.18)">
       <use xlink:href="#DejaVuSans-31" transform="translate(0 0.684375)"/>
       <use xlink:href="#DejaVuSans-30" transform="translate(63.623047 0.684375)"/>
       <use xlink:href="#DejaVuSans-2212" transform="translate(128.203125 38.965625) scale(0.7)"/>
       <use xlink:href="#DejaVuSans-31" transform="translate(186.855469 38.965625) scale(0.7)"/>
      </g>
     </g>
    </g>
    <g id="ytick_4">
     <g id="line2d_25">
      <path d="M 77.920625 207.346122 
L 747.520625 207.346122 
" clip-path="url(#pd15f9cda60)" style="fill: none; stroke-dasharray: 1.85,0.8; stroke-dashoffset: 0; stroke: #b0b0b0; stroke-width: 0.5"/>
     </g>
     <g id="line2d_26">
      <g>
       <use xlink:href="#m84114b1304" x="77.920625" y="207.346122" style="stroke: #000000; stroke-width: 0.8"/>
      </g>
     </g>
     <g id="text_14">
      <!-- $\mathdefault{10^{0}}$ -->
      <g transform="translate(39.240625 214.184716) scale(0.18 -0.18)">
       <use xlink:href="#DejaVuSans-31" transform="translate(0 0.765625)"/>
       <use xlink:href="#DejaVuSans-30" transform="translate(63.623047 0.765625)"/>
       <use xlink:href="#DejaVuSans-30" transform="translate(128.203125 39.046875) scale(0.7)"/>
      </g>
     </g>
    </g>
    <g id="ytick_5">
     <g id="line2d_27">
      <path d="M 77.920625 110.692358 
L 747.520625 110.692358 
" clip-path="url(#pd15f9cda60)" style="fill: none; stroke-dasharray: 1.85,0.8; stroke-dashoffset: 0; stroke: #b0b0b0; stroke-width: 0.5"/>
     </g>
     <g id="line2d_28">
      <g>
       <use xlink:href="#m84114b1304" x="77.920625" y="110.692358" style="stroke: #000000; stroke-width: 0.8"/>
      </g>
     </g>
     <g id="text_15">
      <!-- $\mathdefault{10^{1}}$ -->
      <g transform="translate(39.240625 117.530952) scale(0.18 -0.18)">
       <use xlink:href="#DejaVuSans-31" transform="translate(0 0.684375)"/>
       <use xlink:href="#DejaVuSans-30" transform="translate(63.623047 0.684375)"/>
       <use xlink:href="#DejaVuSans-31" transform="translate(128.203125 38.965625) scale(0.7)"/>
      </g>
     </g>
    </g>
    <g id="ytick_6">
     <g id="line2d_29">
      <path d="M 77.920625 14.038594 
L 747.520625 14.038594 
" clip-path="url(#pd15f9cda60)" style="fill: none; stroke-dasharray: 1.85,0.8; stroke-dashoffset: 0; stroke: #b0b0b0; stroke-width: 0.5"/>
     </g>
     <g id="line2d_30">
      <g>
       <use xlink:href="#m84114b1304" x="77.920625" y="14.038594" style="stroke: #000000; stroke-width: 0.8"/>
      </g>
     </g>
     <g id="text_16">
      <!-- $\mathdefault{10^{2}}$ -->
      <g transform="translate(39.240625 20.877187) scale(0.18 -0.18)">
       <use xlink:href="#DejaVuSans-31" transform="translate(0 0.765625)"/>
       <use xlink:href="#DejaVuSans-30" transform="translate(63.623047 0.765625)"/>
       <use xlink:href="#DejaVuSans-32" transform="translate(128.203125 39.046875) scale(0.7)"/>
      </g>
     </g>
    </g>
    <g id="ytick_7">
     <g id="line2d_31">
      <defs>
       <path id="me289be2ade" d="M 0 0 
L -2 0 
" style="stroke: #000000; stroke-width: 0.6"/>
      </defs>
      <g>
       <use xlink:href="#me289be2ade" x="77.920625" y="506.674132" style="stroke: #000000; stroke-width: 0.6"/>
      </g>
     </g>
    </g>
    <g id="ytick_8">
     <g id="line2d_32">
      <g>
       <use xlink:href="#me289be2ade" x="77.920625" y="501.730048" style="stroke: #000000; stroke-width: 0.6"/>
      </g>
     </g>
    </g>
    <g id="ytick_9">
     <g id="line2d_33">
      <g>
       <use xlink:href="#me289be2ade" x="77.920625" y="468.211732" style="stroke: #000000; stroke-width: 0.6"/>
      </g>
     </g>
    </g>
    <g id="ytick_10">
     <g id="line2d_34">
      <g>
       <use xlink:href="#me289be2ade" x="77.920625" y="451.191849" style="stroke: #000000; stroke-width: 0.6"/>
      </g>
     </g>
    </g>
    <g id="ytick_11">
     <g id="line2d_35">
      <g>
       <use xlink:href="#me289be2ade" x="77.920625" y="439.11605" style="stroke: #000000; stroke-width: 0.6"/>
      </g>
     </g>
    </g>
    <g id="ytick_12">
     <g id="line2d_36">
      <g>
       <use xlink:href="#me289be2ade" x="77.920625" y="429.749333" style="stroke: #000000; stroke-width: 0.6"/>
      </g>
     </g>
    </g>
    <g id="ytick_13">
     <g id="line2d_37">
      <g>
       <use xlink:href="#me289be2ade" x="77.920625" y="422.096167" style="stroke: #000000; stroke-width: 0.6"/>
      </g>
     </g>
    </g>
    <g id="ytick_14">
     <g id="line2d_38">
      <g>
       <use xlink:href="#me289be2ade" x="77.920625" y="415.625508" style="stroke: #000000; stroke-width: 0.6"/>
      </g>
     </g>
    </g>
    <g id="ytick_15">
     <g id="line2d_39">
      <g>
       <use xlink:href="#me289be2ade" x="77.920625" y="410.020368" style="stroke: #000000; stroke-width: 0.6"/>
      </g>
     </g>
    </g>
    <g id="ytick_16">
     <g id="line2d_40">
      <g>
       <use xlink:href="#me289be2ade" x="77.920625" y="405.076284" style="stroke: #000000; stroke-width: 0.6"/>
      </g>
     </g>
    </g>
    <g id="ytick_17">
     <g id="line2d_41">
      <g>
       <use xlink:href="#me289be2ade" x="77.920625" y="371.557968" style="stroke: #000000; stroke-width: 0.6"/>
      </g>
     </g>
    </g>
    <g id="ytick_18">
     <g id="line2d_42">
      <g>
       <use xlink:href="#me289be2ade" x="77.920625" y="354.538085" style="stroke: #000000; stroke-width: 0.6"/>
      </g>
     </g>
    </g>
    <g id="ytick_19">
     <g id="line2d_43">
      <g>
       <use xlink:href="#me289be2ade" x="77.920625" y="342.462286" style="stroke: #000000; stroke-width: 0.6"/>
      </g>
     </g>
    </g>
    <g id="ytick_20">
     <g id="line2d_44">
      <g>
       <use xlink:href="#me289be2ade" x="77.920625" y="333.095568" style="stroke: #000000; stroke-width: 0.6"/>
      </g>
     </g>
    </g>
    <g id="ytick_21">
     <g id="line2d_45">
      <g>
       <use xlink:href="#me289be2ade" x="77.920625" y="325.442403" style="stroke: #000000; stroke-width: 0.6"/>
      </g>
     </g>
    </g>
    <g id="ytick_22">
     <g id="line2d_46">
      <g>
       <use xlink:href="#me289be2ade" x="77.920625" y="318.971744" style="stroke: #000000; stroke-width: 0.6"/>
      </g>
     </g>
    </g>
    <g id="ytick_23">
     <g id="line2d_47">
      <g>
       <use xlink:href="#me289be2ade" x="77.920625" y="313.366604" style="stroke: #000000; stroke-width: 0.6"/>
      </g>
     </g>
    </g>
    <g id="ytick_24">
     <g id="line2d_48">
      <g>
       <use xlink:href="#me289be2ade" x="77.920625" y="308.42252" style="stroke: #000000; stroke-width: 0.6"/>
      </g>
     </g>
    </g>
    <g id="ytick_25">
     <g id="line2d_49">
      <g>
       <use xlink:href="#me289be2ade" x="77.920625" y="274.904204" style="stroke: #000000; stroke-width: 0.6"/>
      </g>
     </g>
    </g>
    <g id="ytick_26">
     <g id="line2d_50">
      <g>
       <use xlink:href="#me289be2ade" x="77.920625" y="257.884321" style="stroke: #000000; stroke-width: 0.6"/>
      </g>
     </g>
    </g>
    <g id="ytick_27">
     <g id="line2d_51">
      <g>
       <use xlink:href="#me289be2ade" x="77.920625" y="245.808522" style="stroke: #000000; stroke-width: 0.6"/>
      </g>
     </g>
    </g>
    <g id="ytick_28">
     <g id="line2d_52">
      <g>
       <use xlink:href="#me289be2ade" x="77.920625" y="236.441804" style="stroke: #000000; stroke-width: 0.6"/>
      </g>
     </g>
    </g>
    <g id="ytick_29">
     <g id="line2d_53">
      <g>
       <use xlink:href="#me289be2ade" x="77.920625" y="228.788639" style="stroke: #000000; stroke-width: 0.6"/>
      </g>
     </g>
    </g>
    <g id="ytick_30">
     <g id="line2d_54">
      <g>
       <use xlink:href="#me289be2ade" x="77.920625" y="222.31798" style="stroke: #000000; stroke-width: 0.6"/>
      </g>
     </g>
    </g>
    <g id="ytick_31">
     <g id="line2d_55">
      <g>
       <use xlink:href="#me289be2ade" x="77.920625" y="216.71284" style="stroke: #000000; stroke-width: 0.6"/>
      </g>
     </g>
    </g>
    <g id="ytick_32">
     <g id="line2d_56">
      <g>
       <use xlink:href="#me289be2ade" x="77.920625" y="211.768756" style="stroke: #000000; stroke-width: 0.6"/>
      </g>
     </g>
    </g>
    <g id="ytick_33">
     <g id="line2d_57">
      <g>
       <use xlink:href="#me289be2ade" x="77.920625" y="178.25044" style="stroke: #000000; stroke-width: 0.6"/>
      </g>
     </g>
    </g>
    <g id="ytick_34">
     <g id="line2d_58">
      <g>
       <use xlink:href="#me289be2ade" x="77.920625" y="161.230557" style="stroke: #000000; stroke-width: 0.6"/>
      </g>
     </g>
    </g>
    <g id="ytick_35">
     <g id="line2d_59">
      <g>
       <use xlink:href="#me289be2ade" x="77.920625" y="149.154758" style="stroke: #000000; stroke-width: 0.6"/>
      </g>
     </g>
    </g>
    <g id="ytick_36">
     <g id="line2d_60">
      <g>
       <use xlink:href="#me289be2ade" x="77.920625" y="139.78804" style="stroke: #000000; stroke-width: 0.6"/>
      </g>
     </g>
    </g>
    <g id="ytick_37">
     <g id="line2d_61">
      <g>
       <use xlink:href="#me289be2ade" x="77.920625" y="132.134875" style="stroke: #000000; stroke-width: 0.6"/>
      </g>
     </g>
    </g>
    <g id="ytick_38">
     <g id="line2d_62">
      <g>
       <use xlink:href="#me289be2ade" x="77.920625" y="125.664215" style="stroke: #000000; stroke-width: 0.6"/>
      </g>
     </g>
    </g>
    <g id="ytick_39">
     <g id="line2d_63">
      <g>
       <use xlink:href="#me289be2ade" x="77.920625" y="120.059075" style="stroke: #000000; stroke-width: 0.6"/>
      </g>
     </g>
    </g>
    <g id="ytick_40">
     <g id="line2d_64">
      <g>
       <use xlink:href="#me289be2ade" x="77.920625" y="115.114992" style="stroke: #000000; stroke-width: 0.6"/>
      </g>
     </g>
    </g>
    <g id="ytick_41">
     <g id="line2d_65">
      <g>
       <use xlink:href="#me289be2ade" x="77.920625" y="81.596676" style="stroke: #000000; stroke-width: 0.6"/>
      </g>
     </g>
    </g>
    <g id="ytick_42">
     <g id="line2d_66">
      <g>
       <use xlink:href="#me289be2ade" x="77.920625" y="64.576793" style="stroke: #000000; stroke-width: 0.6"/>
      </g>
     </g>
    </g>
    <g id="ytick_43">
     <g id="line2d_67">
      <g>
       <use xlink:href="#me289be2ade" x="77.920625" y="52.500993" style="stroke: #000000; stroke-width: 0.6"/>
      </g>
     </g>
    </g>
    <g id="ytick_44">
     <g id="line2d_68">
      <g>
       <use xlink:href="#me289be2ade" x="77.920625" y="43.134276" style="stroke: #000000; stroke-width: 0.6"/>
      </g>
     </g>
    </g>
    <g id="ytick_45">
     <g id="line2d_69">
      <g>
       <use xlink:href="#me289be2ade" x="77.920625" y="35.48111" style="stroke: #000000; stroke-width: 0.6"/>
      </g>
     </g>
    </g>
    <g id="ytick_46">
     <g id="line2d_70">
      <g>
       <use xlink:href="#me289be2ade" x="77.920625" y="29.010451" style="stroke: #000000; stroke-width: 0.6"/>
      </g>
     </g>
    </g>
    <g id="ytick_47">
     <g id="line2d_71">
      <g>
       <use xlink:href="#me289be2ade" x="77.920625" y="23.405311" style="stroke: #000000; stroke-width: 0.6"/>
      </g>
     </g>
    </g>
    <g id="ytick_48">
     <g id="line2d_72">
      <g>
       <use xlink:href="#me289be2ade" x="77.920625" y="18.461227" style="stroke: #000000; stroke-width: 0.6"/>
      </g>
     </g>
    </g>
    <g id="text_17">
     <!-- Runtime -->
     <g transform="translate(20.877188 297.325286) rotate(-90) scale(0.18 -0.18)">
      <defs>
       <path id="DejaVuSans-74" d="M 1172 4494 
L 1172 3500 
L 2356 3500 
L 2356 3053 
L 1172 3053 
L 1172 1153 
Q 1172 725 1289 603 
Q 1406 481 1766 481 
L 2356 481 
L 2356 0 
L 1766 0 
Q 1100 0 847 248 
Q 594 497 594 1153 
L 594 3053 
L 172 3053 
L 172 3500 
L 594 3500 
L 594 4494 
L 1172 4494 
z
" transform="scale(0.015625)"/>
       <path id="DejaVuSans-6d" d="M 3328 2828 
Q 3544 3216 3844 3400 
Q 4144 3584 4550 3584 
Q 5097 3584 5394 3201 
Q 5691 2819 5691 2113 
L 5691 0 
L 5113 0 
L 5113 2094 
Q 5113 2597 4934 2840 
Q 4756 3084 4391 3084 
Q 3944 3084 3684 2787 
Q 3425 2491 3425 1978 
L 3425 0 
L 2847 0 
L 2847 2094 
Q 2847 2600 2669 2842 
Q 2491 3084 2119 3084 
Q 1678 3084 1418 2786 
Q 1159 2488 1159 1978 
L 1159 0 
L 581 0 
L 581 3500 
L 1159 3500 
L 1159 2956 
Q 1356 3278 1631 3431 
Q 1906 3584 2284 3584 
Q 2666 3584 2933 3390 
Q 3200 3197 3328 2828 
z
" transform="scale(0.015625)"/>
      </defs>
      <use xlink:href="#DejaVuSans-52"/>
      <use xlink:href="#DejaVuSans-75" x="64.982422"/>
      <use xlink:href="#DejaVuSans-6e" x="128.361328"/>
      <use xlink:href="#DejaVuSans-74" x="191.740234"/>
      <use xlink:href="#DejaVuSans-69" x="230.949219"/>
      <use xlink:href="#DejaVuSans-6d" x="258.732422"/>
      <use xlink:href="#DejaVuSans-65" x="356.144531"/>
     </g>
    </g>
   </g>
   <g id="line2d_73">
    <path d="M 108.356989 413.343009 
L 116.062397 267.689481 
L 123.767806 232.321561 
L 131.473214 213.586764 
L 139.178623 201.256197 
L 146.884031 170.082452 
L 154.58944 158.067504 
L 162.294848 145.625035 
L 170.000257 138.827974 
L 177.705665 133.330156 
L 185.411074 128.354672 
L 193.116482 124.036968 
L 200.821891 120.209592 
L 208.527299 116.83388 
L 216.232708 113.554432 
L 223.938116 110.626181 
L 231.643525 108.188054 
L 239.348933 105.777494 
L 247.054342 103.587981 
L 254.75975 101.557109 
L 262.465159 99.686748 
L 270.170567 97.924537 
L 277.875976 96.280207 
L 285.581384 94.701709 
L 293.286793 93.207731 
L 300.992202 91.852552 
L 308.69761 90.589929 
L 316.403019 89.298931 
L 324.108427 88.073508 
L 331.813836 86.889142 
L 339.519244 85.747432 
L 347.224653 84.654803 
L 354.930061 83.586352 
L 362.63547 82.574568 
L 370.340878 81.599593 
L 378.046287 80.635834 
L 385.751695 79.563123 
L 393.457104 78.4748 
L 401.162512 77.557131 
L 408.867921 76.62831 
L 416.573329 75.675947 
L 424.278738 74.770045 
L 431.984146 73.88565 
L 439.689555 72.973695 
L 447.394963 72.136174 
L 455.100372 71.23897 
L 462.80578 70.331195 
L 470.511189 69.446993 
L 478.216597 68.591285 
L 485.922006 67.57705 
L 493.627414 66.501102 
L 501.332823 65.463399 
L 509.038231 64.442599 
L 516.74364 63.455902 
L 524.449048 62.509519 
L 532.154457 61.567258 
L 539.859866 60.630803 
L 547.565274 59.72697 
L 555.270683 58.84875 
L 562.976091 57.964895 
L 570.6815 57.105586 
L 578.386908 56.258878 
L 586.092317 55.40934 
L 593.797725 54.625932 
L 601.503134 53.825363 
L 609.208542 53.04308 
L 616.913951 52.264546 
L 624.619359 51.496403 
L 632.324768 50.770107 
L 640.030176 50.045912 
L 647.735585 49.299037 
L 655.440993 48.599919 
L 663.146402 47.885474 
L 670.85181 47.18675 
L 678.557219 46.413147 
L 686.262627 45.646802 
L 693.968036 44.907775 
L 701.673444 44.185233 
L 709.378853 43.460704 
L 717.084261 42.761386 
" clip-path="url(#pd15f9cda60)" style="fill: none; stroke: #386cb0; stroke-width: 1.5; stroke-linecap: square"/>
   </g>
   <g id="line2d_74">
    <path d="M 108.356989 436.445285 
L 116.062397 241.634519 
L 123.767806 219.055219 
L 131.473214 204.605612 
L 139.178623 194.370052 
L 146.884031 185.941911 
L 154.58944 177.914917 
L 162.294848 173.603127 
L 170.000257 169.790288 
L 177.705665 167.021957 
L 185.411074 163.854149 
L 193.116482 161.466426 
L 200.821891 158.905319 
L 208.527299 156.729794 
L 216.232708 154.717325 
L 223.938116 151.960723 
L 231.643525 150.225137 
L 239.348933 149.065711 
L 247.054342 147.473629 
L 254.75975 146.213222 
L 262.465159 144.818329 
L 270.170567 143.256397 
L 277.875976 142.337516 
L 285.581384 141.522561 
L 293.286793 140.649153 
L 300.992202 139.991611 
L 308.69761 139.146254 
L 316.403019 138.052234 
L 324.108427 136.761247 
L 331.813836 135.988011 
L 339.519244 135.241517 
L 347.224653 133.900315 
L 354.930061 133.026508 
L 362.63547 132.02187 
L 370.340878 131.257384 
L 378.046287 130.72237 
L 385.751695 130.181582 
L 393.457104 129.330929 
L 401.162512 128.60083 
L 408.867921 128.054133 
L 416.573329 127.291435 
L 424.278738 126.469376 
L 431.984146 126.08887 
L 439.689555 125.373139 
L 447.394963 124.954845 
L 455.100372 124.497271 
L 462.80578 123.988238 
L 470.511189 123.245913 
L 478.216597 122.678639 
L 485.922006 122.384054 
L 493.627414 121.739521 
L 501.332823 121.153732 
L 509.038231 120.761045 
L 516.74364 120.333606 
L 524.449048 120.018561 
L 532.154457 119.374292 
L 539.859866 118.882862 
L 547.565274 118.47462 
L 555.270683 118.347327 
L 562.976091 118.195066 
L 570.6815 118.040487 
L 578.386908 117.864402 
L 586.092317 117.672204 
L 593.797725 117.375945 
L 601.503134 117.197256 
L 609.208542 117.015117 
L 616.913951 116.785389 
L 624.619359 116.510416 
L 632.324768 116.264674 
L 640.030176 116.086738 
L 647.735585 115.835009 
L 655.440993 115.656609 
L 663.146402 115.47397 
L 670.85181 115.319856 
L 678.557219 115.140014 
L 686.262627 114.927904 
L 693.968036 114.743678 
L 701.673444 114.50777 
L 709.378853 114.34703 
L 717.084261 114.058015 
" clip-path="url(#pd15f9cda60)" style="fill: none; stroke: #f0027f; stroke-width: 1.5; stroke-linecap: square"/>
   </g>
   <g id="line2d_75">
    <path d="M 108.356989 185.031452 
L 116.062397 157.248594 
L 123.767806 141.342349 
L 131.473214 133.773577 
L 139.178623 127.713209 
L 146.884031 124.079491 
L 154.58944 120.871582 
L 162.294848 117.615105 
L 170.000257 114.78701 
L 177.705665 112.045169 
L 185.411074 109.587396 
L 193.116482 107.180942 
L 200.821891 104.929202 
L 208.527299 102.777165 
L 216.232708 100.719883 
L 223.938116 98.781201 
L 231.643525 97.017272 
L 239.348933 95.206365 
L 247.054342 93.472981 
L 254.75975 91.857368 
L 262.465159 90.381663 
L 270.170567 88.991641 
L 277.875976 87.586627 
L 285.581384 86.311152 
L 293.286793 85.051792 
L 300.992202 83.843586 
L 308.69761 82.665171 
L 316.403019 81.491075 
L 324.108427 80.419169 
L 331.813836 79.428365 
L 339.519244 78.40007 
L 347.224653 77.39875 
L 354.930061 76.456342 
L 362.63547 75.496795 
L 370.340878 74.548002 
L 378.046287 73.620656 
L 385.751695 72.663208 
L 393.457104 71.759157 
L 401.162512 70.820909 
L 408.867921 69.928012 
L 416.573329 69.05071 
L 424.278738 68.214169 
L 431.984146 67.370713 
L 439.689555 66.549715 
L 447.394963 65.725592 
L 455.100372 64.855867 
L 462.80578 63.963014 
L 470.511189 63.145603 
L 478.216597 62.383768 
L 485.922006 61.627424 
L 493.627414 60.643269 
L 501.332823 59.680417 
L 509.038231 58.756058 
L 516.74364 57.860601 
L 524.449048 56.965388 
L 532.154457 56.074135 
L 539.859866 55.243419 
L 547.565274 54.39845 
L 555.270683 53.555377 
L 562.976091 52.708189 
L 570.6815 51.901111 
L 578.386908 51.107769 
L 586.092317 50.278585 
L 593.797725 49.517966 
L 601.503134 48.761581 
L 609.208542 48.003402 
L 616.913951 47.276495 
L 624.619359 46.559209 
L 632.324768 45.82864 
L 640.030176 45.130362 
L 647.735585 44.465532 
L 655.440993 43.780704 
L 663.146402 43.099814 
L 670.85181 42.419047 
L 678.557219 41.746027 
L 686.262627 41.033051 
L 693.968036 40.31803 
L 701.673444 39.609915 
L 709.378853 38.924387 
L 717.084261 38.25236 
" clip-path="url(#pd15f9cda60)" style="fill: none; stroke: #bf5b17; stroke-width: 1.5; stroke-linecap: square"/>
   </g>
   <g id="patch_3">
    <path d="M 77.920625 509.216224 
L 77.920625 10.256224 
" style="fill: none; stroke: #000000; stroke-width: 0.8; stroke-linejoin: miter; stroke-linecap: square"/>
   </g>
   <g id="patch_4">
    <path d="M 747.520625 509.216224 
L 747.520625 10.256224 
" style="fill: none; stroke: #000000; stroke-width: 0.8; stroke-linejoin: miter; stroke-linecap: square"/>
   </g>
   <g id="patch_5">
    <path d="M 77.920625 509.216224 
L 747.520625 509.216224 
" style="fill: none; stroke: #000000; stroke-width: 0.8; stroke-linejoin: miter; stroke-linecap: square"/>
   </g>
   <g id="patch_6">
    <path d="M 77.920625 10.256224 
L 747.520625 10.256224 
" style="fill: none; stroke: #000000; stroke-width: 0.8; stroke-linejoin: miter; stroke-linecap: square"/>
   </g>
   <g id="legend_1">
    <g id="patch_7">
     <path d="M 500.358125 500.216224 
L 734.920625 500.216224 
Q 738.520625 500.216224 738.520625 496.616224 
L 738.520625 419.154349 
Q 738.520625 415.554349 734.920625 415.554349 
L 500.358125 415.554349 
Q 496.758125 415.554349 496.758125 419.154349 
L 496.758125 496.616224 
Q 496.758125 500.216224 500.358125 500.216224 
z
" style="fill: #ffffff; opacity: 0.8; stroke: #cccccc; stroke-linejoin: miter"/>
    </g>
    <g id="line2d_76">
     <path d="M 503.958125 430.131536 
L 521.958125 430.131536 
L 539.958125 430.131536 
" style="fill: none; stroke: #386cb0; stroke-width: 1.5; stroke-linecap: square"/>
    </g>
    <g id="text_18">
     <!-- Hybrid-MBTL (Ours) -->
     <g transform="translate(554.358125 436.431536) scale(0.18 -0.18)">
      <defs>
       <path id="DejaVuSans-48" d="M 628 4666 
L 1259 4666 
L 1259 2753 
L 3553 2753 
L 3553 4666 
L 4184 4666 
L 4184 0 
L 3553 0 
L 3553 2222 
L 1259 2222 
L 1259 0 
L 628 0 
L 628 4666 
z
" transform="scale(0.015625)"/>
       <path id="DejaVuSans-79" d="M 2059 -325 
Q 1816 -950 1584 -1140 
Q 1353 -1331 966 -1331 
L 506 -1331 
L 506 -850 
L 844 -850 
Q 1081 -850 1212 -737 
Q 1344 -625 1503 -206 
L 1606 56 
L 191 3500 
L 800 3500 
L 1894 763 
L 2988 3500 
L 3597 3500 
L 2059 -325 
z
" transform="scale(0.015625)"/>
       <path id="DejaVuSans-62" d="M 3116 1747 
Q 3116 2381 2855 2742 
Q 2594 3103 2138 3103 
Q 1681 3103 1420 2742 
Q 1159 2381 1159 1747 
Q 1159 1113 1420 752 
Q 1681 391 2138 391 
Q 2594 391 2855 752 
Q 3116 1113 3116 1747 
z
M 1159 2969 
Q 1341 3281 1617 3432 
Q 1894 3584 2278 3584 
Q 2916 3584 3314 3078 
Q 3713 2572 3713 1747 
Q 3713 922 3314 415 
Q 2916 -91 2278 -91 
Q 1894 -91 1617 61 
Q 1341 213 1159 525 
L 1159 0 
L 581 0 
L 581 4863 
L 1159 4863 
L 1159 2969 
z
" transform="scale(0.015625)"/>
       <path id="DejaVuSans-72" d="M 2631 2963 
Q 2534 3019 2420 3045 
Q 2306 3072 2169 3072 
Q 1681 3072 1420 2755 
Q 1159 2438 1159 1844 
L 1159 0 
L 581 0 
L 581 3500 
L 1159 3500 
L 1159 2956 
Q 1341 3275 1631 3429 
Q 1922 3584 2338 3584 
Q 2397 3584 2469 3576 
Q 2541 3569 2628 3553 
L 2631 2963 
z
" transform="scale(0.015625)"/>
       <path id="DejaVuSans-2d" d="M 313 2009 
L 1997 2009 
L 1997 1497 
L 313 1497 
L 313 2009 
z
" transform="scale(0.015625)"/>
       <path id="DejaVuSans-4d" d="M 628 4666 
L 1569 4666 
L 2759 1491 
L 3956 4666 
L 4897 4666 
L 4897 0 
L 4281 0 
L 4281 4097 
L 3078 897 
L 2444 897 
L 1241 4097 
L 1241 0 
L 628 0 
L 628 4666 
z
" transform="scale(0.015625)"/>
       <path id="DejaVuSans-42" d="M 1259 2228 
L 1259 519 
L 2272 519 
Q 2781 519 3026 730 
Q 3272 941 3272 1375 
Q 3272 1813 3026 2020 
Q 2781 2228 2272 2228 
L 1259 2228 
z
M 1259 4147 
L 1259 2741 
L 2194 2741 
Q 2656 2741 2882 2914 
Q 3109 3088 3109 3444 
Q 3109 3797 2882 3972 
Q 2656 4147 2194 4147 
L 1259 4147 
z
M 628 4666 
L 2241 4666 
Q 2963 4666 3353 4366 
Q 3744 4066 3744 3513 
Q 3744 3084 3544 2831 
Q 3344 2578 2956 2516 
Q 3422 2416 3680 2098 
Q 3938 1781 3938 1306 
Q 3938 681 3513 340 
Q 3088 0 2303 0 
L 628 0 
L 628 4666 
z
" transform="scale(0.015625)"/>
       <path id="DejaVuSans-54" d="M -19 4666 
L 3928 4666 
L 3928 4134 
L 2272 4134 
L 2272 0 
L 1638 0 
L 1638 4134 
L -19 4134 
L -19 4666 
z
" transform="scale(0.015625)"/>
       <path id="DejaVuSans-4c" d="M 628 4666 
L 1259 4666 
L 1259 531 
L 3531 531 
L 3531 0 
L 628 0 
L 628 4666 
z
" transform="scale(0.015625)"/>
       <path id="DejaVuSans-28" d="M 1984 4856 
Q 1566 4138 1362 3434 
Q 1159 2731 1159 2009 
Q 1159 1288 1364 580 
Q 1569 -128 1984 -844 
L 1484 -844 
Q 1016 -109 783 600 
Q 550 1309 550 2009 
Q 550 2706 781 3412 
Q 1013 4119 1484 4856 
L 1984 4856 
z
" transform="scale(0.015625)"/>
       <path id="DejaVuSans-4f" d="M 2522 4238 
Q 1834 4238 1429 3725 
Q 1025 3213 1025 2328 
Q 1025 1447 1429 934 
Q 1834 422 2522 422 
Q 3209 422 3611 934 
Q 4013 1447 4013 2328 
Q 4013 3213 3611 3725 
Q 3209 4238 2522 4238 
z
M 2522 4750 
Q 3503 4750 4090 4092 
Q 4678 3434 4678 2328 
Q 4678 1225 4090 567 
Q 3503 -91 2522 -91 
Q 1538 -91 948 565 
Q 359 1222 359 2328 
Q 359 3434 948 4092 
Q 1538 4750 2522 4750 
z
" transform="scale(0.015625)"/>
       <path id="DejaVuSans-29" d="M 513 4856 
L 1013 4856 
Q 1481 4119 1714 3412 
Q 1947 2706 1947 2009 
Q 1947 1309 1714 600 
Q 1481 -109 1013 -844 
L 513 -844 
Q 928 -128 1133 580 
Q 1338 1288 1338 2009 
Q 1338 2731 1133 3434 
Q 928 4138 513 4856 
z
" transform="scale(0.015625)"/>
      </defs>
      <use xlink:href="#DejaVuSans-48"/>
      <use xlink:href="#DejaVuSans-79" x="75.195312"/>
      <use xlink:href="#DejaVuSans-62" x="134.375"/>
      <use xlink:href="#DejaVuSans-72" x="197.851562"/>
      <use xlink:href="#DejaVuSans-69" x="238.964844"/>
      <use xlink:href="#DejaVuSans-64" x="266.748047"/>
      <use xlink:href="#DejaVuSans-2d" x="330.224609"/>
      <use xlink:href="#DejaVuSans-4d" x="366.308594"/>
      <use xlink:href="#DejaVuSans-42" x="452.587891"/>
      <use xlink:href="#DejaVuSans-54" x="521.191406"/>
      <use xlink:href="#DejaVuSans-4c" x="582.275391"/>
      <use xlink:href="#DejaVuSans-20" x="637.988281"/>
      <use xlink:href="#DejaVuSans-28" x="669.775391"/>
      <use xlink:href="#DejaVuSans-4f" x="708.789062"/>
      <use xlink:href="#DejaVuSans-75" x="787.5"/>
      <use xlink:href="#DejaVuSans-72" x="850.878906"/>
      <use xlink:href="#DejaVuSans-73" x="891.992188"/>
      <use xlink:href="#DejaVuSans-29" x="944.091797"/>
     </g>
    </g>
    <g id="line2d_77">
     <path d="M 503.958125 456.552161 
L 521.958125 456.552161 
L 539.958125 456.552161 
" style="fill: none; stroke: #f0027f; stroke-width: 1.5; stroke-linecap: square"/>
    </g>
    <g id="text_19">
     <!-- SC-MBTL -->
     <g transform="translate(554.358125 462.852161) scale(0.18 -0.18)">
      <defs>
       <path id="DejaVuSans-53" d="M 3425 4513 
L 3425 3897 
Q 3066 4069 2747 4153 
Q 2428 4238 2131 4238 
Q 1616 4238 1336 4038 
Q 1056 3838 1056 3469 
Q 1056 3159 1242 3001 
Q 1428 2844 1947 2747 
L 2328 2669 
Q 3034 2534 3370 2195 
Q 3706 1856 3706 1288 
Q 3706 609 3251 259 
Q 2797 -91 1919 -91 
Q 1588 -91 1214 -16 
Q 841 59 441 206 
L 441 856 
Q 825 641 1194 531 
Q 1563 422 1919 422 
Q 2459 422 2753 634 
Q 3047 847 3047 1241 
Q 3047 1584 2836 1778 
Q 2625 1972 2144 2069 
L 1759 2144 
Q 1053 2284 737 2584 
Q 422 2884 422 3419 
Q 422 4038 858 4394 
Q 1294 4750 2059 4750 
Q 2388 4750 2728 4690 
Q 3069 4631 3425 4513 
z
" transform="scale(0.015625)"/>
       <path id="DejaVuSans-43" d="M 4122 4306 
L 4122 3641 
Q 3803 3938 3442 4084 
Q 3081 4231 2675 4231 
Q 1875 4231 1450 3742 
Q 1025 3253 1025 2328 
Q 1025 1406 1450 917 
Q 1875 428 2675 428 
Q 3081 428 3442 575 
Q 3803 722 4122 1019 
L 4122 359 
Q 3791 134 3420 21 
Q 3050 -91 2638 -91 
Q 1578 -91 968 557 
Q 359 1206 359 2328 
Q 359 3453 968 4101 
Q 1578 4750 2638 4750 
Q 3056 4750 3426 4639 
Q 3797 4528 4122 4306 
z
" transform="scale(0.015625)"/>
      </defs>
      <use xlink:href="#DejaVuSans-53"/>
      <use xlink:href="#DejaVuSans-43" x="63.476562"/>
      <use xlink:href="#DejaVuSans-2d" x="133.300781"/>
      <use xlink:href="#DejaVuSans-4d" x="169.384766"/>
      <use xlink:href="#DejaVuSans-42" x="255.664062"/>
      <use xlink:href="#DejaVuSans-54" x="324.267578"/>
      <use xlink:href="#DejaVuSans-4c" x="385.351562"/>
     </g>
    </g>
    <g id="line2d_78">
     <path d="M 503.958125 482.972786 
L 521.958125 482.972786 
L 539.958125 482.972786 
" style="fill: none; stroke: #bf5b17; stroke-width: 1.5; stroke-linecap: square"/>
    </g>
    <g id="text_20">
     <!-- GP-MBTL -->
     <g transform="translate(554.358125 489.272786) scale(0.18 -0.18)">
      <defs>
       <path id="DejaVuSans-47" d="M 3809 666 
L 3809 1919 
L 2778 1919 
L 2778 2438 
L 4434 2438 
L 4434 434 
Q 4069 175 3628 42 
Q 3188 -91 2688 -91 
Q 1594 -91 976 548 
Q 359 1188 359 2328 
Q 359 3472 976 4111 
Q 1594 4750 2688 4750 
Q 3144 4750 3555 4637 
Q 3966 4525 4313 4306 
L 4313 3634 
Q 3963 3931 3569 4081 
Q 3175 4231 2741 4231 
Q 1884 4231 1454 3753 
Q 1025 3275 1025 2328 
Q 1025 1384 1454 906 
Q 1884 428 2741 428 
Q 3075 428 3337 486 
Q 3600 544 3809 666 
z
" transform="scale(0.015625)"/>
       <path id="DejaVuSans-50" d="M 1259 4147 
L 1259 2394 
L 2053 2394 
Q 2494 2394 2734 2622 
Q 2975 2850 2975 3272 
Q 2975 3691 2734 3919 
Q 2494 4147 2053 4147 
L 1259 4147 
z
M 628 4666 
L 2053 4666 
Q 2838 4666 3239 4311 
Q 3641 3956 3641 3272 
Q 3641 2581 3239 2228 
Q 2838 1875 2053 1875 
L 1259 1875 
L 1259 0 
L 628 0 
L 628 4666 
z
" transform="scale(0.015625)"/>
      </defs>
      <use xlink:href="#DejaVuSans-47"/>
      <use xlink:href="#DejaVuSans-50" x="77.490234"/>
      <use xlink:href="#DejaVuSans-2d" x="135.542969"/>
      <use xlink:href="#DejaVuSans-4d" x="171.626953"/>
      <use xlink:href="#DejaVuSans-42" x="257.90625"/>
      <use xlink:href="#DejaVuSans-54" x="326.509766"/>
      <use xlink:href="#DejaVuSans-4c" x="387.59375"/>
     </g>
    </g>
   </g>
  </g>
 </g>
 <defs>
  <clipPath id="pd15f9cda60">
   <rect x="77.920625" y="10.256224" width="669.6" height="498.96"/>
  </clipPath>
 </defs>
</svg>
