<?xml version="1.0" encoding="utf-8" standalone="no"?>
<!DOCTYPE svg PUBLIC "-//W3C//DTD SVG 1.1//EN"
  "http://www.w3.org/Graphics/SVG/1.1/DTD/svg11.dtd">
<svg xmlns:xlink="http://www.w3.org/1999/xlink" width="578.419062pt" height="389.977813pt" viewBox="0 0 578.419062 389.977813" xmlns="http://www.w3.org/2000/svg" version="1.1">
 <metadata>
  <rdf:RDF xmlns:dc="http://purl.org/dc/elements/1.1/" xmlns:cc="http://creativecommons.org/ns#" xmlns:rdf="http://www.w3.org/1999/02/22-rdf-syntax-ns#">
   <cc:Work>
    <dc:type rdf:resource="http://purl.org/dc/dcmitype/StillImage"/>
    <dc:date>2025-05-09T17:52:40.802962</dc:date>
    <dc:format>image/svg+xml</dc:format>
    <dc:creator>
     <cc:Agent>
      <dc:title>Matplotlib v3.9.4, https://matplotlib.org/</dc:title>
     </cc:Agent>
    </dc:creator>
   </cc:Work>
  </rdf:RDF>
 </metadata>
 <defs>
  <style type="text/css">*{stroke-linejoin: round; stroke-linecap: butt}</style>
 </defs>
 <g id="figure_1">
  <g id="patch_1">
   <path d="M 0 389.977813 
L 578.419062 389.977813 
L 578.419062 0 
L 0 0 
z
" style="fill: #ffffff"/>
  </g>
  <g id="axes_1">
   <g id="patch_2">
    <path d="M 69.019063 339.84 
L 571.219063 339.84 
L 571.219063 7.2 
L 69.019063 7.2 
z
" style="fill: #ffffff"/>
   </g>
   <g id="PolyCollection_1">
    <defs>
     <path id="mee81ba8760" d="M 91.846335 -327.436303 
L 91.846335 -321.824899 
L 172.738803 -321.824899 
L 220.057863 -321.824899 
L 253.631271 -321.824899 
L 279.672829 -321.824899 
L 300.950331 -321.824899 
L 318.940203 -321.824899 
L 334.523738 -321.824899 
L 348.269391 -321.824899 
L 360.565296 -321.824899 
L 371.688296 -321.824899 
L 381.842799 -321.824899 
L 391.184036 -321.824899 
L 399.83267 -321.824899 
L 407.884357 -321.824899 
L 415.416206 -321.824899 
L 422.491291 -321.824899 
L 429.161859 -321.824899 
L 435.471674 -321.824899 
L 441.457764 -321.824899 
L 447.15173 -321.824899 
L 452.580763 -321.824899 
L 457.768425 -321.824899 
L 462.735266 -321.824899 
L 467.499322 -321.824899 
L 472.076503 -321.824899 
L 476.480919 -321.824899 
L 480.725138 -321.824899 
L 484.820406 -321.824899 
L 488.776824 -321.824899 
L 492.6035 -321.824899 
L 496.308674 -321.824899 
L 499.899824 -321.824899 
L 503.383759 -321.824899 
L 506.766696 -321.824899 
L 510.054326 -321.824899 
L 513.251873 -321.824899 
L 516.364142 -321.824899 
L 519.395564 -321.824899 
L 522.350232 -321.824899 
L 525.231938 -321.824899 
L 528.044198 -321.824899 
L 530.790282 -321.824899 
L 533.473231 -321.824899 
L 536.095884 -321.824899 
L 538.660892 -321.824899 
L 541.170735 -321.824899 
L 543.627734 -321.824899 
L 546.03407 -321.824899 
L 548.39179 -321.824899 
L 548.39179 -327.436303 
L 548.39179 -327.436303 
L 546.03407 -327.436303 
L 543.627734 -327.436303 
L 541.170735 -327.436303 
L 538.660892 -327.436303 
L 536.095884 -327.436303 
L 533.473231 -327.436303 
L 530.790282 -327.436303 
L 528.044198 -327.436303 
L 525.231938 -327.436303 
L 522.350232 -327.436303 
L 519.395564 -327.436303 
L 516.364142 -327.436303 
L 513.251873 -327.436303 
L 510.054326 -327.436303 
L 506.766696 -327.436303 
L 503.383759 -327.436303 
L 499.899824 -327.436303 
L 496.308674 -327.436303 
L 492.6035 -327.436303 
L 488.776824 -327.436303 
L 484.820406 -327.436303 
L 480.725138 -327.436303 
L 476.480919 -327.436303 
L 472.076503 -327.436303 
L 467.499322 -327.436303 
L 462.735266 -327.436303 
L 457.768425 -327.436303 
L 452.580763 -327.436303 
L 447.15173 -327.436303 
L 441.457764 -327.436303 
L 435.471674 -327.436303 
L 429.161859 -327.436303 
L 422.491291 -327.436303 
L 415.416206 -327.436303 
L 407.884357 -327.436303 
L 399.83267 -327.436303 
L 391.184036 -327.436303 
L 381.842799 -327.436303 
L 371.688296 -327.436303 
L 360.565296 -327.436303 
L 348.269391 -327.436303 
L 334.523738 -327.436303 
L 318.940203 -327.436303 
L 300.950331 -327.436303 
L 279.672829 -327.436303 
L 253.631271 -327.436303 
L 220.057863 -327.436303 
L 172.738803 -327.436303 
L 91.846335 -327.436303 
z
" style="stroke: #fdc086; stroke-opacity: 0.05"/>
    </defs>
    <g clip-path="url(#pabd9e57eae)">
     <use xlink:href="#mee81ba8760" x="0" y="389.977813" style="fill: #fdc086; fill-opacity: 0.05; stroke: #fdc086; stroke-opacity: 0.05"/>
    </g>
   </g>
   <g id="PolyCollection_2">
    <defs>
     <path id="m2cf9bb3942" d="M 91.846335 -306.532204 
L 91.846335 -305.081214 
L 172.738803 -305.081214 
L 220.057863 -305.081214 
L 253.631271 -305.081214 
L 279.672829 -305.081214 
L 300.950331 -305.081214 
L 318.940203 -305.081214 
L 334.523738 -305.081214 
L 348.269391 -305.081214 
L 360.565296 -305.081214 
L 371.688296 -305.081214 
L 381.842799 -305.081214 
L 391.184036 -305.081214 
L 399.83267 -305.081214 
L 407.884357 -305.081214 
L 415.416206 -305.081214 
L 422.491291 -305.081214 
L 429.161859 -305.081214 
L 435.471674 -305.081214 
L 441.457764 -305.081214 
L 447.15173 -305.081214 
L 452.580763 -305.081214 
L 457.768425 -305.081214 
L 462.735266 -305.081214 
L 467.499322 -305.081214 
L 472.076503 -305.081214 
L 476.480919 -305.081214 
L 480.725138 -305.081214 
L 484.820406 -305.081214 
L 488.776824 -305.081214 
L 492.6035 -305.081214 
L 496.308674 -305.081214 
L 499.899824 -305.081214 
L 503.383759 -305.081214 
L 506.766696 -305.081214 
L 510.054326 -305.081214 
L 513.251873 -305.081214 
L 516.364142 -305.081214 
L 519.395564 -305.081214 
L 522.350232 -305.081214 
L 525.231938 -305.081214 
L 528.044198 -305.081214 
L 530.790282 -305.081214 
L 533.473231 -305.081214 
L 536.095884 -305.081214 
L 538.660892 -305.081214 
L 541.170735 -305.081214 
L 543.627734 -305.081214 
L 546.03407 -305.081214 
L 548.39179 -305.081214 
L 548.39179 -306.532204 
L 548.39179 -306.532204 
L 546.03407 -306.532204 
L 543.627734 -306.532204 
L 541.170735 -306.532204 
L 538.660892 -306.532204 
L 536.095884 -306.532204 
L 533.473231 -306.532204 
L 530.790282 -306.532204 
L 528.044198 -306.532204 
L 525.231938 -306.532204 
L 522.350232 -306.532204 
L 519.395564 -306.532204 
L 516.364142 -306.532204 
L 513.251873 -306.532204 
L 510.054326 -306.532204 
L 506.766696 -306.532204 
L 503.383759 -306.532204 
L 499.899824 -306.532204 
L 496.308674 -306.532204 
L 492.6035 -306.532204 
L 488.776824 -306.532204 
L 484.820406 -306.532204 
L 480.725138 -306.532204 
L 476.480919 -306.532204 
L 472.076503 -306.532204 
L 467.499322 -306.532204 
L 462.735266 -306.532204 
L 457.768425 -306.532204 
L 452.580763 -306.532204 
L 447.15173 -306.532204 
L 441.457764 -306.532204 
L 435.471674 -306.532204 
L 429.161859 -306.532204 
L 422.491291 -306.532204 
L 415.416206 -306.532204 
L 407.884357 -306.532204 
L 399.83267 -306.532204 
L 391.184036 -306.532204 
L 381.842799 -306.532204 
L 371.688296 -306.532204 
L 360.565296 -306.532204 
L 348.269391 -306.532204 
L 334.523738 -306.532204 
L 318.940203 -306.532204 
L 300.950331 -306.532204 
L 279.672829 -306.532204 
L 253.631271 -306.532204 
L 220.057863 -306.532204 
L 172.738803 -306.532204 
L 91.846335 -306.532204 
z
" style="stroke: #beaed4; stroke-opacity: 0.05"/>
    </defs>
    <g clip-path="url(#pabd9e57eae)">
     <use xlink:href="#m2cf9bb3942" x="0" y="389.977813" style="fill: #beaed4; fill-opacity: 0.05; stroke: #beaed4; stroke-opacity: 0.05"/>
    </g>
   </g>
   <g id="PolyCollection_3">
    <defs>
     <path id="m56b38cb169" d="M 91.846335 -348.87423 
L 91.846335 -65.257812 
L 172.738803 -188.640007 
L 220.057863 -261.22347 
L 253.631271 -294.934233 
L 279.672829 -315.00394 
L 300.950331 -319.507734 
L 318.940203 -323.585466 
L 334.523738 -324.946441 
L 348.269391 -327.965455 
L 360.565296 -330.19758 
L 371.688296 -332.725109 
L 381.842799 -334.3054 
L 391.184036 -335.348009 
L 399.83267 -336.1353 
L 407.884357 -336.777528 
L 415.416206 -337.886199 
L 422.491291 -338.793838 
L 429.161859 -339.288107 
L 435.471674 -340.039943 
L 441.457764 -340.629087 
L 447.15173 -341.036902 
L 452.580763 -341.2805 
L 457.768425 -341.587348 
L 462.735266 -341.809132 
L 467.499322 -341.969856 
L 472.076503 -342.430549 
L 476.480919 -342.607508 
L 480.725138 -343.262809 
L 484.820406 -343.423458 
L 488.776824 -343.522452 
L 492.6035 -343.762113 
L 496.308674 -343.889944 
L 499.899824 -344.07751 
L 503.383759 -344.284653 
L 506.766696 -344.406291 
L 510.054326 -344.592686 
L 513.251873 -344.70457 
L 516.364142 -344.842824 
L 519.395564 -344.959161 
L 522.350232 -345.081962 
L 525.231938 -345.155914 
L 528.044198 -345.429103 
L 530.790282 -345.551305 
L 533.473231 -345.853875 
L 536.095884 -345.915762 
L 538.660892 -345.986846 
L 541.170735 -346.127826 
L 543.627734 -346.218987 
L 546.03407 -346.244641 
L 548.39179 -346.355161 
L 548.39179 -349.737078 
L 548.39179 -349.737078 
L 546.03407 -349.648544 
L 543.627734 -349.542523 
L 541.170735 -349.477817 
L 538.660892 -349.406726 
L 536.095884 -349.30349 
L 533.473231 -349.253227 
L 530.790282 -349.185422 
L 528.044198 -349.136884 
L 525.231938 -349.066236 
L 522.350232 -348.898784 
L 519.395564 -348.786253 
L 516.364142 -348.65175 
L 513.251873 -348.563009 
L 510.054326 -348.381801 
L 506.766696 -348.244737 
L 503.383759 -348.182234 
L 499.899824 -348.036533 
L 496.308674 -347.878556 
L 492.6035 -347.62972 
L 488.776824 -347.532731 
L 484.820406 -347.308035 
L 480.725138 -347.221778 
L 476.480919 -347.337982 
L 472.076503 -347.112218 
L 467.499322 -346.913446 
L 462.735266 -346.766363 
L 457.768425 -346.544082 
L 452.580763 -346.34926 
L 447.15173 -346.080716 
L 441.457764 -345.894772 
L 435.471674 -345.587719 
L 429.161859 -345.52886 
L 422.491291 -345.103937 
L 415.416206 -344.941759 
L 407.884357 -344.560919 
L 399.83267 -344.008019 
L 391.184036 -343.558383 
L 381.842799 -342.911826 
L 371.688296 -342.383075 
L 360.565296 -342.298938 
L 348.269391 -340.619236 
L 334.523738 -339.358572 
L 318.940203 -337.964654 
L 300.950331 -337.794421 
L 279.672829 -335.981257 
L 253.631271 -342.046547 
L 220.057863 -353.759655 
L 172.738803 -367.657813 
L 91.846335 -348.87423 
z
" style="stroke: #7fc97f; stroke-opacity: 0.05"/>
    </defs>
    <g clip-path="url(#pabd9e57eae)">
     <use xlink:href="#m56b38cb169" x="0" y="389.977813" style="fill: #7fc97f; fill-opacity: 0.05; stroke: #7fc97f; stroke-opacity: 0.05"/>
    </g>
   </g>
   <g id="PolyCollection_4">
    <defs>
     <path id="m439d025604" d="M 91.846335 -301.803012 
L 91.846335 -296.485084 
L 172.738803 -307.461087 
L 220.057863 -310.799579 
L 253.631271 -314.705262 
L 279.672829 -317.242872 
L 300.950331 -319.066768 
L 318.940203 -320.060204 
L 334.523738 -320.599023 
L 348.269391 -323.696342 
L 360.565296 -325.830916 
L 371.688296 -328.266673 
L 381.842799 -330.371277 
L 391.184036 -333.329853 
L 399.83267 -335.185489 
L 407.884357 -336.335747 
L 415.416206 -337.786948 
L 422.491291 -338.425053 
L 429.161859 -338.820788 
L 435.471674 -339.184311 
L 441.457764 -339.422346 
L 447.15173 -339.757294 
L 452.580763 -340.189202 
L 457.768425 -340.636745 
L 462.735266 -340.982303 
L 467.499322 -341.125552 
L 472.076503 -341.314042 
L 476.480919 -341.516485 
L 480.725138 -341.703258 
L 484.820406 -341.804563 
L 488.776824 -341.940676 
L 492.6035 -342.037736 
L 496.308674 -342.148738 
L 499.899824 -342.202348 
L 503.383759 -342.384573 
L 506.766696 -342.497638 
L 510.054326 -342.606349 
L 513.251873 -342.751618 
L 516.364142 -342.822017 
L 519.395564 -343.06245 
L 522.350232 -343.398248 
L 525.231938 -343.54614 
L 528.044198 -343.677723 
L 530.790282 -343.794375 
L 533.473231 -343.912561 
L 536.095884 -344.062771 
L 538.660892 -344.320789 
L 541.170735 -344.436284 
L 543.627734 -344.533406 
L 546.03407 -344.697167 
L 548.39179 -344.789917 
L 548.39179 -347.584639 
L 548.39179 -347.584639 
L 546.03407 -347.419153 
L 543.627734 -347.291259 
L 541.170735 -347.155994 
L 538.660892 -347.030227 
L 536.095884 -346.958594 
L 533.473231 -346.80635 
L 530.790282 -346.567932 
L 528.044198 -346.376534 
L 525.231938 -346.222719 
L 522.350232 -346.029991 
L 519.395564 -346.035452 
L 516.364142 -345.929692 
L 513.251873 -345.869663 
L 510.054326 -345.81346 
L 506.766696 -345.703729 
L 503.383759 -345.669253 
L 499.899824 -345.643132 
L 496.308674 -345.552917 
L 492.6035 -345.504108 
L 488.776824 -345.42798 
L 484.820406 -345.330419 
L 480.725138 -345.284727 
L 476.480919 -345.213608 
L 472.076503 -345.101474 
L 467.499322 -344.927426 
L 462.735266 -344.823426 
L 457.768425 -344.576248 
L 452.580763 -344.205048 
L 447.15173 -343.849534 
L 441.457764 -343.428842 
L 435.471674 -343.075579 
L 429.161859 -342.758189 
L 422.491291 -342.419284 
L 415.416206 -342.173052 
L 407.884357 -342.058123 
L 399.83267 -342.070602 
L 391.184036 -341.724136 
L 381.842799 -341.58251 
L 371.688296 -340.551884 
L 360.565296 -338.558058 
L 348.269391 -335.370513 
L 334.523738 -331.517026 
L 318.940203 -329.672431 
L 300.950331 -327.835956 
L 279.672829 -325.739447 
L 253.631271 -324.971763 
L 220.057863 -324.052365 
L 172.738803 -320.147488 
L 91.846335 -301.803012 
z
" style="stroke: #bf5b17; stroke-opacity: 0.05"/>
    </defs>
    <g clip-path="url(#pabd9e57eae)">
     <use xlink:href="#m439d025604" x="0" y="389.977813" style="fill: #bf5b17; fill-opacity: 0.05; stroke: #bf5b17; stroke-opacity: 0.05"/>
    </g>
   </g>
   <g id="PolyCollection_5">
    <defs>
     <path id="ma347fdeec1" d="M 91.846335 -301.803012 
L 91.846335 -296.485084 
L 172.738803 -305.691451 
L 220.057863 -310.486214 
L 253.631271 -316.072369 
L 279.672829 -317.977369 
L 300.950331 -321.078469 
L 318.940203 -322.365779 
L 334.523738 -324.46506 
L 348.269391 -327.791207 
L 360.565296 -329.421778 
L 371.688296 -332.186886 
L 381.842799 -332.374921 
L 391.184036 -332.539689 
L 399.83267 -337.251281 
L 407.884357 -338.494386 
L 415.416206 -339.347574 
L 422.491291 -339.902932 
L 429.161859 -340.038885 
L 435.471674 -340.522341 
L 441.457764 -340.671869 
L 447.15173 -340.731678 
L 452.580763 -340.777305 
L 457.768425 -341.038012 
L 462.735266 -341.058292 
L 467.499322 -341.18437 
L 472.076503 -341.252747 
L 476.480919 -341.461709 
L 480.725138 -343.348408 
L 484.820406 -343.459567 
L 488.776824 -343.512013 
L 492.6035 -343.5311 
L 496.308674 -343.674106 
L 499.899824 -343.688699 
L 503.383759 -343.826603 
L 506.766696 -344.232957 
L 510.054326 -344.51956 
L 513.251873 -344.929393 
L 516.364142 -345.670923 
L 519.395564 -345.684525 
L 522.350232 -345.80512 
L 525.231938 -345.976736 
L 528.044198 -345.97938 
L 530.790282 -346.028923 
L 533.473231 -346.377206 
L 536.095884 -347.830132 
L 538.660892 -347.941293 
L 541.170735 -348.002199 
L 543.627734 -348.05724 
L 546.03407 -348.073994 
L 548.39179 -348.874579 
L 548.39179 -351.825605 
L 548.39179 -351.825605 
L 546.03407 -351.26612 
L 543.627734 -351.25072 
L 541.170735 -351.219316 
L 538.660892 -351.179486 
L 536.095884 -351.10228 
L 533.473231 -349.58328 
L 530.790282 -349.338638 
L 528.044198 -349.271585 
L 525.231938 -349.269326 
L 522.350232 -349.152477 
L 519.395564 -349.098506 
L 516.364142 -349.07901 
L 513.251873 -348.444761 
L 510.054326 -347.971202 
L 506.766696 -347.797646 
L 503.383759 -347.924072 
L 499.899824 -347.727195 
L 496.308674 -347.711081 
L 492.6035 -347.624671 
L 488.776824 -347.609571 
L 484.820406 -347.5763 
L 480.725138 -347.5122 
L 476.480919 -346.711093 
L 472.076503 -346.527317 
L 467.499322 -346.477372 
L 462.735266 -346.331732 
L 457.768425 -346.308562 
L 452.580763 -346.16663 
L 447.15173 -346.087508 
L 441.457764 -346.038176 
L 435.471674 -345.95121 
L 429.161859 -345.52393 
L 422.491291 -345.358783 
L 415.416206 -344.952103 
L 407.884357 -344.843137 
L 399.83267 -343.932211 
L 391.184036 -343.048677 
L 381.842799 -342.929356 
L 371.688296 -342.81924 
L 360.565296 -340.94956 
L 348.269391 -340.486321 
L 334.523738 -334.416633 
L 318.940203 -332.463786 
L 300.950331 -331.635696 
L 279.672829 -328.805802 
L 253.631271 -326.236672 
L 220.057863 -316.26013 
L 172.738803 -310.641679 
L 91.846335 -301.803012 
z
" style="stroke: #f0027f; stroke-opacity: 0.05"/>
    </defs>
    <g clip-path="url(#pabd9e57eae)">
     <use xlink:href="#ma347fdeec1" x="0" y="389.977813" style="fill: #f0027f; fill-opacity: 0.05; stroke: #f0027f; stroke-opacity: 0.05"/>
    </g>
   </g>
   <g id="PolyCollection_6">
    <defs>
     <path id="m421cb2d787" d="M 91.846335 -301.803012 
L 91.846335 -296.485084 
L 172.738803 -305.691451 
L 220.057863 -310.486214 
L 253.631271 -316.072369 
L 279.672829 -317.977369 
L 300.950331 -321.078469 
L 318.940203 -322.657446 
L 334.523738 -324.470658 
L 348.269391 -326.466682 
L 360.565296 -328.521583 
L 371.688296 -330.601661 
L 381.842799 -332.254448 
L 391.184036 -333.174453 
L 399.83267 -334.622241 
L 407.884357 -335.489046 
L 415.416206 -336.274923 
L 422.491291 -337.471701 
L 429.161859 -338.033179 
L 435.471674 -338.782423 
L 441.457764 -339.159474 
L 447.15173 -340.121802 
L 452.580763 -340.420419 
L 457.768425 -341.151429 
L 462.735266 -341.548038 
L 467.499322 -341.807169 
L 472.076503 -342.148096 
L 476.480919 -342.331346 
L 480.725138 -342.479258 
L 484.820406 -342.728008 
L 488.776824 -342.853171 
L 492.6035 -343.221309 
L 496.308674 -343.343439 
L 499.899824 -343.988254 
L 503.383759 -344.06065 
L 506.766696 -344.522384 
L 510.054326 -344.74613 
L 513.251873 -345.192559 
L 516.364142 -345.382509 
L 519.395564 -345.554291 
L 522.350232 -345.66029 
L 525.231938 -345.849766 
L 528.044198 -345.909042 
L 530.790282 -346.071947 
L 533.473231 -346.272739 
L 536.095884 -346.481866 
L 538.660892 -346.595704 
L 541.170735 -346.669817 
L 543.627734 -346.850717 
L 546.03407 -346.957951 
L 548.39179 -347.039642 
L 548.39179 -350.559795 
L 548.39179 -350.559795 
L 546.03407 -350.34643 
L 543.627734 -350.293713 
L 541.170735 -350.220607 
L 538.660892 -350.160492 
L 536.095884 -350.094671 
L 533.473231 -349.793085 
L 530.790282 -349.608215 
L 528.044198 -349.51805 
L 525.231938 -349.400359 
L 522.350232 -349.302751 
L 519.395564 -349.218375 
L 516.364142 -349.115185 
L 513.251873 -348.969273 
L 510.054326 -348.858523 
L 506.766696 -348.678319 
L 503.383759 -348.751085 
L 499.899824 -348.656414 
L 496.308674 -348.69876 
L 492.6035 -348.464235 
L 488.776824 -348.397582 
L 484.820406 -348.241179 
L 480.725138 -348.120399 
L 476.480919 -347.872198 
L 472.076503 -347.620646 
L 467.499322 -347.237083 
L 462.735266 -347.042091 
L 457.768425 -346.770914 
L 452.580763 -346.697244 
L 447.15173 -346.476 
L 441.457764 -346.392746 
L 435.471674 -346.037543 
L 429.161859 -345.530532 
L 422.491291 -345.169527 
L 415.416206 -344.566193 
L 407.884357 -344.265964 
L 399.83267 -343.844491 
L 391.184036 -343.306564 
L 381.842799 -342.394265 
L 371.688296 -341.697069 
L 360.565296 -339.990808 
L 348.269391 -337.906554 
L 334.523738 -335.668698 
L 318.940203 -333.176698 
L 300.950331 -331.635696 
L 279.672829 -328.805802 
L 253.631271 -326.236672 
L 220.057863 -316.26013 
L 172.738803 -310.641679 
L 91.846335 -301.803012 
z
" style="stroke: #f0027f; stroke-opacity: 0.05"/>
    </defs>
    <g clip-path="url(#pabd9e57eae)">
     <use xlink:href="#m421cb2d787" x="0" y="389.977813" style="fill: #f0027f; fill-opacity: 0.05; stroke: #f0027f; stroke-opacity: 0.05"/>
    </g>
   </g>
   <g id="PolyCollection_7">
    <defs>
     <path id="m80440d3a93" d="M 91.846335 -301.803012 
L 91.846335 -296.485084 
L 172.738803 -307.461087 
L 220.057863 -310.799579 
L 253.631271 -316.009214 
L 279.672829 -320.337642 
L 300.950331 -323.717229 
L 318.940203 -325.895832 
L 334.523738 -328.324443 
L 348.269391 -329.596924 
L 360.565296 -331.413061 
L 371.688296 -332.018736 
L 381.842799 -332.780079 
L 391.184036 -333.327369 
L 399.83267 -333.767583 
L 407.884357 -334.143551 
L 415.416206 -334.81021 
L 422.491291 -335.455239 
L 429.161859 -336.07348 
L 435.471674 -336.450953 
L 441.457764 -336.989908 
L 447.15173 -337.180093 
L 452.580763 -337.536008 
L 457.768425 -337.884638 
L 462.735266 -338.318396 
L 467.499322 -338.527092 
L 472.076503 -339.444948 
L 476.480919 -339.669919 
L 480.725138 -339.864133 
L 484.820406 -340.073356 
L 488.776824 -340.676401 
L 492.6035 -340.828306 
L 496.308674 -340.988992 
L 499.899824 -341.185449 
L 503.383759 -341.374896 
L 506.766696 -342.049548 
L 510.054326 -342.197131 
L 513.251873 -342.287658 
L 516.364142 -342.510994 
L 519.395564 -342.584098 
L 522.350232 -342.653311 
L 525.231938 -342.782369 
L 528.044198 -343.417173 
L 530.790282 -343.50565 
L 533.473231 -343.772 
L 536.095884 -344.197337 
L 538.660892 -344.299012 
L 541.170735 -344.436921 
L 543.627734 -344.548302 
L 546.03407 -344.725221 
L 548.39179 -344.82281 
L 548.39179 -348.179712 
L 548.39179 -348.179712 
L 546.03407 -348.117862 
L 543.627734 -348.118863 
L 541.170735 -348.034647 
L 538.660892 -347.995254 
L 536.095884 -347.858963 
L 533.473231 -347.92598 
L 530.790282 -347.901437 
L 528.044198 -347.758787 
L 525.231938 -347.939183 
L 522.350232 -347.858775 
L 519.395564 -347.768483 
L 516.364142 -347.670107 
L 513.251873 -347.556207 
L 510.054326 -347.479482 
L 506.766696 -347.348994 
L 503.383759 -347.40817 
L 499.899824 -347.258495 
L 496.308674 -347.10371 
L 492.6035 -346.857329 
L 488.776824 -346.742928 
L 484.820406 -346.622929 
L 480.725138 -346.421523 
L 476.480919 -346.17757 
L 472.076503 -345.909791 
L 467.499322 -345.994192 
L 462.735266 -345.668461 
L 457.768425 -345.515211 
L 452.580763 -345.236518 
L 447.15173 -344.881839 
L 441.457764 -344.486567 
L 435.471674 -344.271699 
L 429.161859 -344.01024 
L 422.491291 -343.47472 
L 415.416206 -343.15413 
L 407.884357 -343.000543 
L 399.83267 -342.444386 
L 391.184036 -341.975325 
L 381.842799 -341.359345 
L 371.688296 -340.412708 
L 360.565296 -339.483517 
L 348.269391 -338.299107 
L 334.523738 -336.599905 
L 318.940203 -335.039344 
L 300.950331 -333.705707 
L 279.672829 -331.680272 
L 253.631271 -328.190458 
L 220.057863 -324.052365 
L 172.738803 -320.147488 
L 91.846335 -301.803012 
z
" style="stroke: #bf5b17; stroke-opacity: 0.05"/>
    </defs>
    <g clip-path="url(#pabd9e57eae)">
     <use xlink:href="#m80440d3a93" x="0" y="389.977813" style="fill: #bf5b17; fill-opacity: 0.05; stroke: #bf5b17; stroke-opacity: 0.05"/>
    </g>
   </g>
   <g id="PolyCollection_8">
    <defs>
     <path id="m922bfe04e5" d="M 91.846335 -301.803012 
L 91.846335 -296.485084 
L 172.738803 -305.691451 
L 220.057863 -310.486214 
L 253.631271 -316.072369 
L 279.672829 -317.977369 
L 300.950331 -321.078469 
L 318.940203 -323.945005 
L 334.523738 -327.458331 
L 348.269391 -329.414438 
L 360.565296 -331.687737 
L 371.688296 -333.340125 
L 381.842799 -333.646329 
L 391.184036 -333.981586 
L 399.83267 -337.507179 
L 407.884357 -338.340274 
L 415.416206 -339.336306 
L 422.491291 -339.599387 
L 429.161859 -340.536024 
L 435.471674 -341.593912 
L 441.457764 -341.668531 
L 447.15173 -341.93925 
L 452.580763 -343.117949 
L 457.768425 -343.280956 
L 462.735266 -343.425587 
L 467.499322 -343.651475 
L 472.076503 -343.778232 
L 476.480919 -343.905724 
L 480.725138 -344.104799 
L 484.820406 -344.161012 
L 488.776824 -344.238686 
L 492.6035 -344.255833 
L 496.308674 -344.311616 
L 499.899824 -344.355918 
L 503.383759 -344.478761 
L 506.766696 -344.950812 
L 510.054326 -345.018561 
L 513.251873 -345.228591 
L 516.364142 -345.32523 
L 519.395564 -345.427247 
L 522.350232 -345.631872 
L 525.231938 -345.720964 
L 528.044198 -345.837557 
L 530.790282 -346.009666 
L 533.473231 -346.13132 
L 536.095884 -346.376811 
L 538.660892 -346.495299 
L 541.170735 -347.04928 
L 543.627734 -347.153684 
L 546.03407 -347.259375 
L 548.39179 -347.334748 
L 548.39179 -350.420716 
L 548.39179 -350.420716 
L 546.03407 -350.268853 
L 543.627734 -350.281068 
L 541.170735 -350.208533 
L 538.660892 -349.878053 
L 536.095884 -349.808552 
L 533.473231 -349.261788 
L 530.790282 -349.140365 
L 528.044198 -349.056699 
L 525.231938 -348.979771 
L 522.350232 -348.914093 
L 519.395564 -348.761323 
L 516.364142 -348.701511 
L 513.251873 -348.577709 
L 510.054326 -348.495281 
L 506.766696 -348.339842 
L 503.383759 -348.461328 
L 499.899824 -348.241894 
L 496.308674 -348.191899 
L 492.6035 -348.114949 
L 488.776824 -348.090089 
L 484.820406 -348.04161 
L 480.725138 -347.977022 
L 476.480919 -347.834712 
L 472.076503 -347.756219 
L 467.499322 -347.637203 
L 462.735266 -347.59881 
L 457.768425 -347.509978 
L 452.580763 -347.447135 
L 447.15173 -347.008785 
L 441.457764 -346.732925 
L 435.471674 -346.664106 
L 429.161859 -345.460859 
L 422.491291 -345.264444 
L 415.416206 -345.092772 
L 407.884357 -344.768833 
L 399.83267 -344.080215 
L 391.184036 -343.140285 
L 381.842799 -342.799979 
L 371.688296 -342.427587 
L 360.565296 -342.039279 
L 348.269391 -339.183126 
L 334.523738 -336.012986 
L 318.940203 -333.727728 
L 300.950331 -331.635696 
L 279.672829 -328.805802 
L 253.631271 -326.236672 
L 220.057863 -316.26013 
L 172.738803 -310.641679 
L 91.846335 -301.803012 
z
" style="stroke: #386cb0; stroke-opacity: 0.05"/>
    </defs>
    <g clip-path="url(#pabd9e57eae)">
     <use xlink:href="#m922bfe04e5" x="0" y="389.977813" style="fill: #386cb0; fill-opacity: 0.05; stroke: #386cb0; stroke-opacity: 0.05"/>
    </g>
   </g>
   <g id="PolyCollection_9">
    <defs>
     <path id="m591e2d2f79" d="M 91.846335 -306.5785 
L 91.846335 -305.278513 
L 172.738803 -327.632222 
L 220.057863 -332.465537 
L 253.631271 -337.195091 
L 279.672829 -339.927066 
L 300.950331 -341.950201 
L 318.940203 -343.108284 
L 334.523738 -344.1881 
L 348.269391 -344.960643 
L 360.565296 -345.705318 
L 371.688296 -346.347246 
L 381.842799 -346.848261 
L 391.184036 -347.283723 
L 399.83267 -347.73466 
L 407.884357 -348.124829 
L 415.416206 -348.431627 
L 422.491291 -348.714561 
L 429.161859 -349.014537 
L 435.471674 -349.242817 
L 441.457764 -349.461226 
L 447.15173 -349.698725 
L 452.580763 -349.931986 
L 457.768425 -350.175785 
L 462.735266 -350.346373 
L 467.499322 -350.517043 
L 472.076503 -350.642801 
L 476.480919 -350.791951 
L 480.725138 -350.901814 
L 484.820406 -350.994625 
L 488.776824 -351.071613 
L 492.6035 -351.16237 
L 496.308674 -351.239845 
L 499.899824 -351.341587 
L 503.383759 -351.42339 
L 506.766696 -351.512762 
L 510.054326 -351.571873 
L 513.251873 -351.637977 
L 516.364142 -351.717373 
L 519.395564 -351.764983 
L 522.350232 -351.806965 
L 525.231938 -351.856684 
L 528.044198 -351.902623 
L 530.790282 -351.949151 
L 533.473231 -351.988532 
L 536.095884 -352.014706 
L 538.660892 -352.056084 
L 541.170735 -352.116538 
L 543.627734 -352.15923 
L 546.03407 -352.211633 
L 548.39179 -352.249311 
L 548.39179 -354.89235 
L 548.39179 -354.89235 
L 546.03407 -354.865719 
L 543.627734 -354.850499 
L 541.170735 -354.824996 
L 538.660892 -354.812646 
L 536.095884 -354.779932 
L 533.473231 -354.729749 
L 530.790282 -354.686217 
L 528.044198 -354.642105 
L 525.231938 -354.593837 
L 522.350232 -354.545355 
L 519.395564 -354.486798 
L 516.364142 -354.428519 
L 513.251873 -354.38644 
L 510.054326 -354.324548 
L 506.766696 -354.236813 
L 503.383759 -354.175392 
L 499.899824 -354.089803 
L 496.308674 -354.013709 
L 492.6035 -353.90035 
L 488.776824 -353.79894 
L 484.820406 -353.681253 
L 480.725138 -353.570331 
L 476.480919 -353.450955 
L 472.076503 -353.355913 
L 467.499322 -353.228036 
L 462.735266 -353.129515 
L 457.768425 -353.015095 
L 452.580763 -352.962036 
L 447.15173 -352.866449 
L 441.457764 -352.749608 
L 435.471674 -352.582426 
L 429.161859 -352.365166 
L 422.491291 -352.16397 
L 415.416206 -351.900543 
L 407.884357 -351.599903 
L 399.83267 -351.265463 
L 391.184036 -350.949222 
L 381.842799 -350.546185 
L 371.688296 -350.132308 
L 360.565296 -349.543867 
L 348.269391 -349.044231 
L 334.523738 -348.232614 
L 318.940203 -347.424667 
L 300.950331 -346.412715 
L 279.672829 -344.959159 
L 253.631271 -342.710101 
L 220.057863 -338.108805 
L 172.738803 -330.35843 
L 91.846335 -306.5785 
z
" style="stroke: #666666; stroke-opacity: 0.05"/>
    </defs>
    <g clip-path="url(#pabd9e57eae)">
     <use xlink:href="#m591e2d2f79" x="0" y="389.977813" style="fill: #666666; fill-opacity: 0.05; stroke: #666666; stroke-opacity: 0.05"/>
    </g>
   </g>
   <g id="matplotlib.axis_1">
    <g id="xtick_1">
     <g id="line2d_1">
      <path d="M 91.846335 339.84 
L 91.846335 7.2 
" clip-path="url(#pabd9e57eae)" style="fill: none; stroke-dasharray: 1.85,0.8; stroke-dashoffset: 0; stroke: #b0b0b0; stroke-width: 0.5"/>
     </g>
     <g id="line2d_2">
      <defs>
       <path id="m6130ee3909" d="M 0 0 
L 0 3.5 
" style="stroke: #000000; stroke-width: 0.8"/>
      </defs>
      <g>
       <use xlink:href="#m6130ee3909" x="91.846335" y="339.84" style="stroke: #000000; stroke-width: 0.8"/>
      </g>
     </g>
     <g id="text_1">
      <!-- $\mathdefault{10^{0}}$ -->
      <g transform="translate(78.646335 358.237656) scale(0.15 -0.15)">
       <defs>
        <path id="DejaVuSans-31" d="M 794 531 
L 1825 531 
L 1825 4091 
L 703 3866 
L 703 4441 
L 1819 4666 
L 2450 4666 
L 2450 531 
L 3481 531 
L 3481 0 
L 794 0 
L 794 531 
z
" transform="scale(0.015625)"/>
        <path id="DejaVuSans-30" d="M 2034 4250 
Q 1547 4250 1301 3770 
Q 1056 3291 1056 2328 
Q 1056 1369 1301 889 
Q 1547 409 2034 409 
Q 2525 409 2770 889 
Q 3016 1369 3016 2328 
Q 3016 3291 2770 3770 
Q 2525 4250 2034 4250 
z
M 2034 4750 
Q 2819 4750 3233 4129 
Q 3647 3509 3647 2328 
Q 3647 1150 3233 529 
Q 2819 -91 2034 -91 
Q 1250 -91 836 529 
Q 422 1150 422 2328 
Q 422 3509 836 4129 
Q 1250 4750 2034 4750 
z
" transform="scale(0.015625)"/>
       </defs>
       <use xlink:href="#DejaVuSans-31" transform="translate(0 0.765625)"/>
       <use xlink:href="#DejaVuSans-30" transform="translate(63.623047 0.765625)"/>
       <use xlink:href="#DejaVuSans-30" transform="translate(128.203125 39.046875) scale(0.7)"/>
      </g>
     </g>
    </g>
    <g id="xtick_2">
     <g id="line2d_3">
      <path d="M 360.565296 339.84 
L 360.565296 7.2 
" clip-path="url(#pabd9e57eae)" style="fill: none; stroke-dasharray: 1.85,0.8; stroke-dashoffset: 0; stroke: #b0b0b0; stroke-width: 0.5"/>
     </g>
     <g id="line2d_4">
      <g>
       <use xlink:href="#m6130ee3909" x="360.565296" y="339.84" style="stroke: #000000; stroke-width: 0.8"/>
      </g>
     </g>
     <g id="text_2">
      <!-- $\mathdefault{10^{1}}$ -->
      <g transform="translate(347.365296 358.237656) scale(0.15 -0.15)">
       <use xlink:href="#DejaVuSans-31" transform="translate(0 0.684375)"/>
       <use xlink:href="#DejaVuSans-30" transform="translate(63.623047 0.684375)"/>
       <use xlink:href="#DejaVuSans-31" transform="translate(128.203125 38.965625) scale(0.7)"/>
      </g>
     </g>
    </g>
    <g id="xtick_3">
     <g id="line2d_5">
      <defs>
       <path id="ma7049def10" d="M 0 0 
L 0 2 
" style="stroke: #000000; stroke-width: 0.6"/>
      </defs>
      <g>
       <use xlink:href="#ma7049def10" x="79.55043" y="339.84" style="stroke: #000000; stroke-width: 0.6"/>
      </g>
     </g>
    </g>
    <g id="xtick_4">
     <g id="line2d_6">
      <g>
       <use xlink:href="#ma7049def10" x="172.738803" y="339.84" style="stroke: #000000; stroke-width: 0.6"/>
      </g>
     </g>
    </g>
    <g id="xtick_5">
     <g id="line2d_7">
      <g>
       <use xlink:href="#ma7049def10" x="220.057863" y="339.84" style="stroke: #000000; stroke-width: 0.6"/>
      </g>
     </g>
    </g>
    <g id="xtick_6">
     <g id="line2d_8">
      <g>
       <use xlink:href="#ma7049def10" x="253.631271" y="339.84" style="stroke: #000000; stroke-width: 0.6"/>
      </g>
     </g>
    </g>
    <g id="xtick_7">
     <g id="line2d_9">
      <g>
       <use xlink:href="#ma7049def10" x="279.672829" y="339.84" style="stroke: #000000; stroke-width: 0.6"/>
      </g>
     </g>
    </g>
    <g id="xtick_8">
     <g id="line2d_10">
      <g>
       <use xlink:href="#ma7049def10" x="300.950331" y="339.84" style="stroke: #000000; stroke-width: 0.6"/>
      </g>
     </g>
    </g>
    <g id="xtick_9">
     <g id="line2d_11">
      <g>
       <use xlink:href="#ma7049def10" x="318.940203" y="339.84" style="stroke: #000000; stroke-width: 0.6"/>
      </g>
     </g>
    </g>
    <g id="xtick_10">
     <g id="line2d_12">
      <g>
       <use xlink:href="#ma7049def10" x="334.523738" y="339.84" style="stroke: #000000; stroke-width: 0.6"/>
      </g>
     </g>
    </g>
    <g id="xtick_11">
     <g id="line2d_13">
      <g>
       <use xlink:href="#ma7049def10" x="348.269391" y="339.84" style="stroke: #000000; stroke-width: 0.6"/>
      </g>
     </g>
    </g>
    <g id="xtick_12">
     <g id="line2d_14">
      <g>
       <use xlink:href="#ma7049def10" x="441.457764" y="339.84" style="stroke: #000000; stroke-width: 0.6"/>
      </g>
     </g>
    </g>
    <g id="xtick_13">
     <g id="line2d_15">
      <g>
       <use xlink:href="#ma7049def10" x="488.776824" y="339.84" style="stroke: #000000; stroke-width: 0.6"/>
      </g>
     </g>
    </g>
    <g id="xtick_14">
     <g id="line2d_16">
      <g>
       <use xlink:href="#ma7049def10" x="522.350232" y="339.84" style="stroke: #000000; stroke-width: 0.6"/>
      </g>
     </g>
    </g>
    <g id="xtick_15">
     <g id="line2d_17">
      <g>
       <use xlink:href="#ma7049def10" x="548.39179" y="339.84" style="stroke: #000000; stroke-width: 0.6"/>
      </g>
     </g>
    </g>
    <g id="xtick_16">
     <g id="line2d_18">
      <g>
       <use xlink:href="#ma7049def10" x="569.669292" y="339.84" style="stroke: #000000; stroke-width: 0.6"/>
      </g>
     </g>
    </g>
    <g id="text_3">
     <!-- Decision Round -->
     <g transform="translate(250.466094 379.034375) scale(0.18 -0.18)">
      <defs>
       <path id="DejaVuSans-44" d="M 1259 4147 
L 1259 519 
L 2022 519 
Q 2988 519 3436 956 
Q 3884 1394 3884 2338 
Q 3884 3275 3436 3711 
Q 2988 4147 2022 4147 
L 1259 4147 
z
M 628 4666 
L 1925 4666 
Q 3281 4666 3915 4102 
Q 4550 3538 4550 2338 
Q 4550 1131 3912 565 
Q 3275 0 1925 0 
L 628 0 
L 628 4666 
z
" transform="scale(0.015625)"/>
       <path id="DejaVuSans-65" d="M 3597 1894 
L 3597 1613 
L 953 1613 
Q 991 1019 1311 708 
Q 1631 397 2203 397 
Q 2534 397 2845 478 
Q 3156 559 3463 722 
L 3463 178 
Q 3153 47 2828 -22 
Q 2503 -91 2169 -91 
Q 1331 -91 842 396 
Q 353 884 353 1716 
Q 353 2575 817 3079 
Q 1281 3584 2069 3584 
Q 2775 3584 3186 3129 
Q 3597 2675 3597 1894 
z
M 3022 2063 
Q 3016 2534 2758 2815 
Q 2500 3097 2075 3097 
Q 1594 3097 1305 2825 
Q 1016 2553 972 2059 
L 3022 2063 
z
" transform="scale(0.015625)"/>
       <path id="DejaVuSans-63" d="M 3122 3366 
L 3122 2828 
Q 2878 2963 2633 3030 
Q 2388 3097 2138 3097 
Q 1578 3097 1268 2742 
Q 959 2388 959 1747 
Q 959 1106 1268 751 
Q 1578 397 2138 397 
Q 2388 397 2633 464 
Q 2878 531 3122 666 
L 3122 134 
Q 2881 22 2623 -34 
Q 2366 -91 2075 -91 
Q 1284 -91 818 406 
Q 353 903 353 1747 
Q 353 2603 823 3093 
Q 1294 3584 2113 3584 
Q 2378 3584 2631 3529 
Q 2884 3475 3122 3366 
z
" transform="scale(0.015625)"/>
       <path id="DejaVuSans-69" d="M 603 3500 
L 1178 3500 
L 1178 0 
L 603 0 
L 603 3500 
z
M 603 4863 
L 1178 4863 
L 1178 4134 
L 603 4134 
L 603 4863 
z
" transform="scale(0.015625)"/>
       <path id="DejaVuSans-73" d="M 2834 3397 
L 2834 2853 
Q 2591 2978 2328 3040 
Q 2066 3103 1784 3103 
Q 1356 3103 1142 2972 
Q 928 2841 928 2578 
Q 928 2378 1081 2264 
Q 1234 2150 1697 2047 
L 1894 2003 
Q 2506 1872 2764 1633 
Q 3022 1394 3022 966 
Q 3022 478 2636 193 
Q 2250 -91 1575 -91 
Q 1294 -91 989 -36 
Q 684 19 347 128 
L 347 722 
Q 666 556 975 473 
Q 1284 391 1588 391 
Q 1994 391 2212 530 
Q 2431 669 2431 922 
Q 2431 1156 2273 1281 
Q 2116 1406 1581 1522 
L 1381 1569 
Q 847 1681 609 1914 
Q 372 2147 372 2553 
Q 372 3047 722 3315 
Q 1072 3584 1716 3584 
Q 2034 3584 2315 3537 
Q 2597 3491 2834 3397 
z
" transform="scale(0.015625)"/>
       <path id="DejaVuSans-6f" d="M 1959 3097 
Q 1497 3097 1228 2736 
Q 959 2375 959 1747 
Q 959 1119 1226 758 
Q 1494 397 1959 397 
Q 2419 397 2687 759 
Q 2956 1122 2956 1747 
Q 2956 2369 2687 2733 
Q 2419 3097 1959 3097 
z
M 1959 3584 
Q 2709 3584 3137 3096 
Q 3566 2609 3566 1747 
Q 3566 888 3137 398 
Q 2709 -91 1959 -91 
Q 1206 -91 779 398 
Q 353 888 353 1747 
Q 353 2609 779 3096 
Q 1206 3584 1959 3584 
z
" transform="scale(0.015625)"/>
       <path id="DejaVuSans-6e" d="M 3513 2113 
L 3513 0 
L 2938 0 
L 2938 2094 
Q 2938 2591 2744 2837 
Q 2550 3084 2163 3084 
Q 1697 3084 1428 2787 
Q 1159 2491 1159 1978 
L 1159 0 
L 581 0 
L 581 3500 
L 1159 3500 
L 1159 2956 
Q 1366 3272 1645 3428 
Q 1925 3584 2291 3584 
Q 2894 3584 3203 3211 
Q 3513 2838 3513 2113 
z
" transform="scale(0.015625)"/>
       <path id="DejaVuSans-20" transform="scale(0.015625)"/>
       <path id="DejaVuSans-52" d="M 2841 2188 
Q 3044 2119 3236 1894 
Q 3428 1669 3622 1275 
L 4263 0 
L 3584 0 
L 2988 1197 
Q 2756 1666 2539 1819 
Q 2322 1972 1947 1972 
L 1259 1972 
L 1259 0 
L 628 0 
L 628 4666 
L 2053 4666 
Q 2853 4666 3247 4331 
Q 3641 3997 3641 3322 
Q 3641 2881 3436 2590 
Q 3231 2300 2841 2188 
z
M 1259 4147 
L 1259 2491 
L 2053 2491 
Q 2509 2491 2742 2702 
Q 2975 2913 2975 3322 
Q 2975 3731 2742 3939 
Q 2509 4147 2053 4147 
L 1259 4147 
z
" transform="scale(0.015625)"/>
       <path id="DejaVuSans-75" d="M 544 1381 
L 544 3500 
L 1119 3500 
L 1119 1403 
Q 1119 906 1312 657 
Q 1506 409 1894 409 
Q 2359 409 2629 706 
Q 2900 1003 2900 1516 
L 2900 3500 
L 3475 3500 
L 3475 0 
L 2900 0 
L 2900 538 
Q 2691 219 2414 64 
Q 2138 -91 1772 -91 
Q 1169 -91 856 284 
Q 544 659 544 1381 
z
M 1991 3584 
L 1991 3584 
z
" transform="scale(0.015625)"/>
       <path id="DejaVuSans-64" d="M 2906 2969 
L 2906 4863 
L 3481 4863 
L 3481 0 
L 2906 0 
L 2906 525 
Q 2725 213 2448 61 
Q 2172 -91 1784 -91 
Q 1150 -91 751 415 
Q 353 922 353 1747 
Q 353 2572 751 3078 
Q 1150 3584 1784 3584 
Q 2172 3584 2448 3432 
Q 2725 3281 2906 2969 
z
M 947 1747 
Q 947 1113 1208 752 
Q 1469 391 1925 391 
Q 2381 391 2643 752 
Q 2906 1113 2906 1747 
Q 2906 2381 2643 2742 
Q 2381 3103 1925 3103 
Q 1469 3103 1208 2742 
Q 947 2381 947 1747 
z
" transform="scale(0.015625)"/>
      </defs>
      <use xlink:href="#DejaVuSans-44"/>
      <use xlink:href="#DejaVuSans-65" x="77.001953"/>
      <use xlink:href="#DejaVuSans-63" x="138.525391"/>
      <use xlink:href="#DejaVuSans-69" x="193.505859"/>
      <use xlink:href="#DejaVuSans-73" x="221.289062"/>
      <use xlink:href="#DejaVuSans-69" x="273.388672"/>
      <use xlink:href="#DejaVuSans-6f" x="301.171875"/>
      <use xlink:href="#DejaVuSans-6e" x="362.353516"/>
      <use xlink:href="#DejaVuSans-20" x="425.732422"/>
      <use xlink:href="#DejaVuSans-52" x="457.519531"/>
      <use xlink:href="#DejaVuSans-6f" x="522.501953"/>
      <use xlink:href="#DejaVuSans-75" x="583.683594"/>
      <use xlink:href="#DejaVuSans-6e" x="647.0625"/>
      <use xlink:href="#DejaVuSans-64" x="710.441406"/>
     </g>
    </g>
   </g>
   <g id="matplotlib.axis_2">
    <g id="ytick_1">
     <g id="line2d_19">
      <path d="M 69.019063 328.221193 
L 571.219063 328.221193 
" clip-path="url(#pabd9e57eae)" style="fill: none; stroke-dasharray: 1.85,0.8; stroke-dashoffset: 0; stroke: #b0b0b0; stroke-width: 0.5"/>
     </g>
     <g id="line2d_20">
      <defs>
       <path id="ma7afb9c053" d="M 0 0 
L -3.5 0 
" style="stroke: #000000; stroke-width: 0.8"/>
      </defs>
      <g>
       <use xlink:href="#ma7afb9c053" x="69.019063" y="328.221193" style="stroke: #000000; stroke-width: 0.8"/>
      </g>
     </g>
     <g id="text_4">
      <!-- 0.14 -->
      <g transform="translate(28.620625 333.920022) scale(0.15 -0.15)">
       <defs>
        <path id="DejaVuSans-2e" d="M 684 794 
L 1344 794 
L 1344 0 
L 684 0 
L 684 794 
z
" transform="scale(0.015625)"/>
        <path id="DejaVuSans-34" d="M 2419 4116 
L 825 1625 
L 2419 1625 
L 2419 4116 
z
M 2253 4666 
L 3047 4666 
L 3047 1625 
L 3713 1625 
L 3713 1100 
L 3047 1100 
L 3047 0 
L 2419 0 
L 2419 1100 
L 313 1100 
L 313 1709 
L 2253 4666 
z
" transform="scale(0.015625)"/>
       </defs>
       <use xlink:href="#DejaVuSans-30"/>
       <use xlink:href="#DejaVuSans-2e" x="63.623047"/>
       <use xlink:href="#DejaVuSans-31" x="95.410156"/>
       <use xlink:href="#DejaVuSans-34" x="159.033203"/>
      </g>
     </g>
    </g>
    <g id="ytick_2">
     <g id="line2d_21">
      <path d="M 69.019063 256.50818 
L 571.219063 256.50818 
" clip-path="url(#pabd9e57eae)" style="fill: none; stroke-dasharray: 1.85,0.8; stroke-dashoffset: 0; stroke: #b0b0b0; stroke-width: 0.5"/>
     </g>
     <g id="line2d_22">
      <g>
       <use xlink:href="#ma7afb9c053" x="69.019063" y="256.50818" style="stroke: #000000; stroke-width: 0.8"/>
      </g>
     </g>
     <g id="text_5">
      <!-- 0.16 -->
      <g transform="translate(28.620625 262.207008) scale(0.15 -0.15)">
       <defs>
        <path id="DejaVuSans-36" d="M 2113 2584 
Q 1688 2584 1439 2293 
Q 1191 2003 1191 1497 
Q 1191 994 1439 701 
Q 1688 409 2113 409 
Q 2538 409 2786 701 
Q 3034 994 3034 1497 
Q 3034 2003 2786 2293 
Q 2538 2584 2113 2584 
z
M 3366 4563 
L 3366 3988 
Q 3128 4100 2886 4159 
Q 2644 4219 2406 4219 
Q 1781 4219 1451 3797 
Q 1122 3375 1075 2522 
Q 1259 2794 1537 2939 
Q 1816 3084 2150 3084 
Q 2853 3084 3261 2657 
Q 3669 2231 3669 1497 
Q 3669 778 3244 343 
Q 2819 -91 2113 -91 
Q 1303 -91 875 529 
Q 447 1150 447 2328 
Q 447 3434 972 4092 
Q 1497 4750 2381 4750 
Q 2619 4750 2861 4703 
Q 3103 4656 3366 4563 
z
" transform="scale(0.015625)"/>
       </defs>
       <use xlink:href="#DejaVuSans-30"/>
       <use xlink:href="#DejaVuSans-2e" x="63.623047"/>
       <use xlink:href="#DejaVuSans-31" x="95.410156"/>
       <use xlink:href="#DejaVuSans-36" x="159.033203"/>
      </g>
     </g>
    </g>
    <g id="ytick_3">
     <g id="line2d_23">
      <path d="M 69.019063 184.795167 
L 571.219063 184.795167 
" clip-path="url(#pabd9e57eae)" style="fill: none; stroke-dasharray: 1.85,0.8; stroke-dashoffset: 0; stroke: #b0b0b0; stroke-width: 0.5"/>
     </g>
     <g id="line2d_24">
      <g>
       <use xlink:href="#ma7afb9c053" x="69.019063" y="184.795167" style="stroke: #000000; stroke-width: 0.8"/>
      </g>
     </g>
     <g id="text_6">
      <!-- 0.18 -->
      <g transform="translate(28.620625 190.493995) scale(0.15 -0.15)">
       <defs>
        <path id="DejaVuSans-38" d="M 2034 2216 
Q 1584 2216 1326 1975 
Q 1069 1734 1069 1313 
Q 1069 891 1326 650 
Q 1584 409 2034 409 
Q 2484 409 2743 651 
Q 3003 894 3003 1313 
Q 3003 1734 2745 1975 
Q 2488 2216 2034 2216 
z
M 1403 2484 
Q 997 2584 770 2862 
Q 544 3141 544 3541 
Q 544 4100 942 4425 
Q 1341 4750 2034 4750 
Q 2731 4750 3128 4425 
Q 3525 4100 3525 3541 
Q 3525 3141 3298 2862 
Q 3072 2584 2669 2484 
Q 3125 2378 3379 2068 
Q 3634 1759 3634 1313 
Q 3634 634 3220 271 
Q 2806 -91 2034 -91 
Q 1263 -91 848 271 
Q 434 634 434 1313 
Q 434 1759 690 2068 
Q 947 2378 1403 2484 
z
M 1172 3481 
Q 1172 3119 1398 2916 
Q 1625 2713 2034 2713 
Q 2441 2713 2670 2916 
Q 2900 3119 2900 3481 
Q 2900 3844 2670 4047 
Q 2441 4250 2034 4250 
Q 1625 4250 1398 4047 
Q 1172 3844 1172 3481 
z
" transform="scale(0.015625)"/>
       </defs>
       <use xlink:href="#DejaVuSans-30"/>
       <use xlink:href="#DejaVuSans-2e" x="63.623047"/>
       <use xlink:href="#DejaVuSans-31" x="95.410156"/>
       <use xlink:href="#DejaVuSans-38" x="159.033203"/>
      </g>
     </g>
    </g>
    <g id="ytick_4">
     <g id="line2d_25">
      <path d="M 69.019063 113.082153 
L 571.219063 113.082153 
" clip-path="url(#pabd9e57eae)" style="fill: none; stroke-dasharray: 1.85,0.8; stroke-dashoffset: 0; stroke: #b0b0b0; stroke-width: 0.5"/>
     </g>
     <g id="line2d_26">
      <g>
       <use xlink:href="#ma7afb9c053" x="69.019063" y="113.082153" style="stroke: #000000; stroke-width: 0.8"/>
      </g>
     </g>
     <g id="text_7">
      <!-- 0.20 -->
      <g transform="translate(28.620625 118.780981) scale(0.15 -0.15)">
       <defs>
        <path id="DejaVuSans-32" d="M 1228 531 
L 3431 531 
L 3431 0 
L 469 0 
L 469 531 
Q 828 903 1448 1529 
Q 2069 2156 2228 2338 
Q 2531 2678 2651 2914 
Q 2772 3150 2772 3378 
Q 2772 3750 2511 3984 
Q 2250 4219 1831 4219 
Q 1534 4219 1204 4116 
Q 875 4013 500 3803 
L 500 4441 
Q 881 4594 1212 4672 
Q 1544 4750 1819 4750 
Q 2544 4750 2975 4387 
Q 3406 4025 3406 3419 
Q 3406 3131 3298 2873 
Q 3191 2616 2906 2266 
Q 2828 2175 2409 1742 
Q 1991 1309 1228 531 
z
" transform="scale(0.015625)"/>
       </defs>
       <use xlink:href="#DejaVuSans-30"/>
       <use xlink:href="#DejaVuSans-2e" x="63.623047"/>
       <use xlink:href="#DejaVuSans-32" x="95.410156"/>
       <use xlink:href="#DejaVuSans-30" x="159.033203"/>
      </g>
     </g>
    </g>
    <g id="ytick_5">
     <g id="line2d_27">
      <path d="M 69.019063 41.36914 
L 571.219063 41.36914 
" clip-path="url(#pabd9e57eae)" style="fill: none; stroke-dasharray: 1.85,0.8; stroke-dashoffset: 0; stroke: #b0b0b0; stroke-width: 0.5"/>
     </g>
     <g id="line2d_28">
      <g>
       <use xlink:href="#ma7afb9c053" x="69.019063" y="41.36914" style="stroke: #000000; stroke-width: 0.8"/>
      </g>
     </g>
     <g id="text_8">
      <!-- 0.22 -->
      <g transform="translate(28.620625 47.067968) scale(0.15 -0.15)">
       <use xlink:href="#DejaVuSans-30"/>
       <use xlink:href="#DejaVuSans-2e" x="63.623047"/>
       <use xlink:href="#DejaVuSans-32" x="95.410156"/>
       <use xlink:href="#DejaVuSans-32" x="159.033203"/>
      </g>
     </g>
    </g>
    <g id="text_9">
     <!-- Normalized Performance -->
     <g transform="translate(20.877187 284.447813) rotate(-90) scale(0.18 -0.18)">
      <defs>
       <path id="DejaVuSans-4e" d="M 628 4666 
L 1478 4666 
L 3547 763 
L 3547 4666 
L 4159 4666 
L 4159 0 
L 3309 0 
L 1241 3903 
L 1241 0 
L 628 0 
L 628 4666 
z
" transform="scale(0.015625)"/>
       <path id="DejaVuSans-72" d="M 2631 2963 
Q 2534 3019 2420 3045 
Q 2306 3072 2169 3072 
Q 1681 3072 1420 2755 
Q 1159 2438 1159 1844 
L 1159 0 
L 581 0 
L 581 3500 
L 1159 3500 
L 1159 2956 
Q 1341 3275 1631 3429 
Q 1922 3584 2338 3584 
Q 2397 3584 2469 3576 
Q 2541 3569 2628 3553 
L 2631 2963 
z
" transform="scale(0.015625)"/>
       <path id="DejaVuSans-6d" d="M 3328 2828 
Q 3544 3216 3844 3400 
Q 4144 3584 4550 3584 
Q 5097 3584 5394 3201 
Q 5691 2819 5691 2113 
L 5691 0 
L 5113 0 
L 5113 2094 
Q 5113 2597 4934 2840 
Q 4756 3084 4391 3084 
Q 3944 3084 3684 2787 
Q 3425 2491 3425 1978 
L 3425 0 
L 2847 0 
L 2847 2094 
Q 2847 2600 2669 2842 
Q 2491 3084 2119 3084 
Q 1678 3084 1418 2786 
Q 1159 2488 1159 1978 
L 1159 0 
L 581 0 
L 581 3500 
L 1159 3500 
L 1159 2956 
Q 1356 3278 1631 3431 
Q 1906 3584 2284 3584 
Q 2666 3584 2933 3390 
Q 3200 3197 3328 2828 
z
" transform="scale(0.015625)"/>
       <path id="DejaVuSans-61" d="M 2194 1759 
Q 1497 1759 1228 1600 
Q 959 1441 959 1056 
Q 959 750 1161 570 
Q 1363 391 1709 391 
Q 2188 391 2477 730 
Q 2766 1069 2766 1631 
L 2766 1759 
L 2194 1759 
z
M 3341 1997 
L 3341 0 
L 2766 0 
L 2766 531 
Q 2569 213 2275 61 
Q 1981 -91 1556 -91 
Q 1019 -91 701 211 
Q 384 513 384 1019 
Q 384 1609 779 1909 
Q 1175 2209 1959 2209 
L 2766 2209 
L 2766 2266 
Q 2766 2663 2505 2880 
Q 2244 3097 1772 3097 
Q 1472 3097 1187 3025 
Q 903 2953 641 2809 
L 641 3341 
Q 956 3463 1253 3523 
Q 1550 3584 1831 3584 
Q 2591 3584 2966 3190 
Q 3341 2797 3341 1997 
z
" transform="scale(0.015625)"/>
       <path id="DejaVuSans-6c" d="M 603 4863 
L 1178 4863 
L 1178 0 
L 603 0 
L 603 4863 
z
" transform="scale(0.015625)"/>
       <path id="DejaVuSans-7a" d="M 353 3500 
L 3084 3500 
L 3084 2975 
L 922 459 
L 3084 459 
L 3084 0 
L 275 0 
L 275 525 
L 2438 3041 
L 353 3041 
L 353 3500 
z
" transform="scale(0.015625)"/>
       <path id="DejaVuSans-50" d="M 1259 4147 
L 1259 2394 
L 2053 2394 
Q 2494 2394 2734 2622 
Q 2975 2850 2975 3272 
Q 2975 3691 2734 3919 
Q 2494 4147 2053 4147 
L 1259 4147 
z
M 628 4666 
L 2053 4666 
Q 2838 4666 3239 4311 
Q 3641 3956 3641 3272 
Q 3641 2581 3239 2228 
Q 2838 1875 2053 1875 
L 1259 1875 
L 1259 0 
L 628 0 
L 628 4666 
z
" transform="scale(0.015625)"/>
       <path id="DejaVuSans-66" d="M 2375 4863 
L 2375 4384 
L 1825 4384 
Q 1516 4384 1395 4259 
Q 1275 4134 1275 3809 
L 1275 3500 
L 2222 3500 
L 2222 3053 
L 1275 3053 
L 1275 0 
L 697 0 
L 697 3053 
L 147 3053 
L 147 3500 
L 697 3500 
L 697 3744 
Q 697 4328 969 4595 
Q 1241 4863 1831 4863 
L 2375 4863 
z
" transform="scale(0.015625)"/>
      </defs>
      <use xlink:href="#DejaVuSans-4e"/>
      <use xlink:href="#DejaVuSans-6f" x="74.804688"/>
      <use xlink:href="#DejaVuSans-72" x="135.986328"/>
      <use xlink:href="#DejaVuSans-6d" x="175.349609"/>
      <use xlink:href="#DejaVuSans-61" x="272.761719"/>
      <use xlink:href="#DejaVuSans-6c" x="334.041016"/>
      <use xlink:href="#DejaVuSans-69" x="361.824219"/>
      <use xlink:href="#DejaVuSans-7a" x="389.607422"/>
      <use xlink:href="#DejaVuSans-65" x="442.097656"/>
      <use xlink:href="#DejaVuSans-64" x="503.621094"/>
      <use xlink:href="#DejaVuSans-20" x="567.097656"/>
      <use xlink:href="#DejaVuSans-50" x="598.884766"/>
      <use xlink:href="#DejaVuSans-65" x="655.5625"/>
      <use xlink:href="#DejaVuSans-72" x="717.085938"/>
      <use xlink:href="#DejaVuSans-66" x="758.199219"/>
      <use xlink:href="#DejaVuSans-6f" x="793.404297"/>
      <use xlink:href="#DejaVuSans-72" x="854.585938"/>
      <use xlink:href="#DejaVuSans-6d" x="893.949219"/>
      <use xlink:href="#DejaVuSans-61" x="991.361328"/>
      <use xlink:href="#DejaVuSans-6e" x="1052.640625"/>
      <use xlink:href="#DejaVuSans-63" x="1116.019531"/>
      <use xlink:href="#DejaVuSans-65" x="1171"/>
     </g>
    </g>
   </g>
   <g id="line2d_29">
    <path d="M 91.846335 65.347212 
L 172.738803 65.347212 
L 220.057863 65.347212 
L 253.631271 65.347212 
L 279.672829 65.347212 
L 300.950331 65.347212 
L 318.940203 65.347212 
L 334.523738 65.347212 
L 348.269391 65.347212 
L 360.565296 65.347212 
L 371.688296 65.347212 
L 381.842799 65.347212 
L 391.184036 65.347212 
L 399.83267 65.347212 
L 407.884357 65.347212 
L 415.416206 65.347212 
L 422.491291 65.347212 
L 429.161859 65.347212 
L 435.471674 65.347212 
L 441.457764 65.347212 
L 447.15173 65.347212 
L 452.580763 65.347212 
L 457.768425 65.347212 
L 462.735266 65.347212 
L 467.499322 65.347212 
L 472.076503 65.347212 
L 476.480919 65.347212 
L 480.725138 65.347212 
L 484.820406 65.347212 
L 488.776824 65.347212 
L 492.6035 65.347212 
L 496.308674 65.347212 
L 499.899824 65.347212 
L 503.383759 65.347212 
L 506.766696 65.347212 
L 510.054326 65.347212 
L 513.251873 65.347212 
L 516.364142 65.347212 
L 519.395564 65.347212 
L 522.350232 65.347212 
L 525.231938 65.347212 
L 528.044198 65.347212 
L 530.790282 65.347212 
L 533.473231 65.347212 
L 536.095884 65.347212 
L 538.660892 65.347212 
L 541.170735 65.347212 
L 543.627734 65.347212 
L 546.03407 65.347212 
L 548.39179 65.347212 
" clip-path="url(#pabd9e57eae)" style="fill: none; stroke-dasharray: 11.1,4.8; stroke-dashoffset: 0; stroke: #fdc086; stroke-width: 3"/>
   </g>
   <g id="line2d_30">
    <path d="M 91.846335 84.171104 
L 172.738803 84.171104 
L 220.057863 84.171104 
L 253.631271 84.171104 
L 279.672829 84.171104 
L 300.950331 84.171104 
L 318.940203 84.171104 
L 334.523738 84.171104 
L 348.269391 84.171104 
L 360.565296 84.171104 
L 371.688296 84.171104 
L 381.842799 84.171104 
L 391.184036 84.171104 
L 399.83267 84.171104 
L 407.884357 84.171104 
L 415.416206 84.171104 
L 422.491291 84.171104 
L 429.161859 84.171104 
L 435.471674 84.171104 
L 441.457764 84.171104 
L 447.15173 84.171104 
L 452.580763 84.171104 
L 457.768425 84.171104 
L 462.735266 84.171104 
L 467.499322 84.171104 
L 472.076503 84.171104 
L 476.480919 84.171104 
L 480.725138 84.171104 
L 484.820406 84.171104 
L 488.776824 84.171104 
L 492.6035 84.171104 
L 496.308674 84.171104 
L 499.899824 84.171104 
L 503.383759 84.171104 
L 506.766696 84.171104 
L 510.054326 84.171104 
L 513.251873 84.171104 
L 516.364142 84.171104 
L 519.395564 84.171104 
L 522.350232 84.171104 
L 525.231938 84.171104 
L 528.044198 84.171104 
L 530.790282 84.171104 
L 533.473231 84.171104 
L 536.095884 84.171104 
L 538.660892 84.171104 
L 541.170735 84.171104 
L 543.627734 84.171104 
L 546.03407 84.171104 
L 548.39179 84.171104 
" clip-path="url(#pabd9e57eae)" style="fill: none; stroke-dasharray: 11.1,4.8; stroke-dashoffset: 0; stroke: #beaed4; stroke-width: 3"/>
   </g>
   <g id="line2d_31">
    <path d="M 91.846335 182.911791 
L 172.738803 111.828903 
L 220.057863 82.48625 
L 253.631271 71.487423 
L 279.672829 64.485214 
L 300.950331 61.326735 
L 318.940203 59.202752 
L 334.523738 57.825306 
L 348.269391 55.685467 
L 360.565296 53.729553 
L 371.688296 52.423721 
L 381.842799 51.369199 
L 391.184036 50.524617 
L 399.83267 49.906153 
L 407.884357 49.308589 
L 415.416206 48.563834 
L 422.491291 48.028925 
L 429.161859 47.569329 
L 435.471674 47.163982 
L 441.457764 46.715883 
L 447.15173 46.419004 
L 452.580763 46.162932 
L 457.768425 45.912097 
L 462.735266 45.690065 
L 467.499322 45.536161 
L 472.076503 45.206429 
L 476.480919 45.005068 
L 480.725138 44.735519 
L 484.820406 44.612066 
L 488.776824 44.450221 
L 492.6035 44.281896 
L 496.308674 44.093563 
L 499.899824 43.920791 
L 503.383759 43.744369 
L 506.766696 43.652298 
L 510.054326 43.490569 
L 513.251873 43.344023 
L 516.364142 43.230526 
L 519.395564 43.105105 
L 522.350232 42.98744 
L 525.231938 42.866737 
L 528.044198 42.694819 
L 530.790282 42.609449 
L 533.473231 42.424262 
L 536.095884 42.368187 
L 538.660892 42.281026 
L 541.170735 42.174991 
L 543.627734 42.097057 
L 546.03407 42.03122 
L 548.39179 41.931693 
" clip-path="url(#pabd9e57eae)" style="fill: none; stroke: #7fc97f; stroke-width: 3; stroke-linecap: square"/>
   </g>
   <g id="line2d_32">
    <path d="M 91.846335 90.833764 
L 172.738803 76.173525 
L 220.057863 72.551841 
L 253.631271 70.1393 
L 279.672829 68.486653 
L 300.950331 66.526451 
L 318.940203 65.111495 
L 334.523738 63.919788 
L 348.269391 60.444385 
L 360.565296 57.783326 
L 371.688296 55.568534 
L 381.842799 54.000919 
L 391.184036 52.450818 
L 399.83267 51.349767 
L 407.884357 50.780878 
L 415.416206 49.997813 
L 422.491291 49.555644 
L 429.161859 49.188324 
L 435.471674 48.847867 
L 441.457764 48.552218 
L 447.15173 48.174399 
L 452.580763 47.780687 
L 457.768425 47.371316 
L 462.735266 47.074948 
L 467.499322 46.951324 
L 472.076503 46.770055 
L 476.480919 46.612766 
L 480.725138 46.48382 
L 484.820406 46.410322 
L 488.776824 46.293484 
L 492.6035 46.20689 
L 496.308674 46.126985 
L 499.899824 46.055073 
L 503.383759 45.9509 
L 506.766696 45.877129 
L 510.054326 45.767908 
L 513.251873 45.667172 
L 516.364142 45.601958 
L 519.395564 45.428861 
L 522.350232 45.263693 
L 525.231938 45.093383 
L 528.044198 44.950684 
L 530.790282 44.796659 
L 533.473231 44.618357 
L 536.095884 44.46713 
L 538.660892 44.302304 
L 541.170735 44.181674 
L 543.627734 44.06548 
L 546.03407 43.919652 
L 548.39179 43.790535 
" clip-path="url(#pabd9e57eae)" style="fill: none; stroke: #bf5b17; stroke-width: 3; stroke-linecap: square"/>
   </g>
   <g id="line2d_33">
    <path d="M 91.846335 90.833764 
L 172.738803 81.811247 
L 220.057863 76.604641 
L 253.631271 68.823292 
L 279.672829 66.586227 
L 300.950331 63.62073 
L 318.940203 62.56303 
L 334.523738 60.536966 
L 348.269391 55.839048 
L 360.565296 54.792143 
L 371.688296 52.47475 
L 381.842799 52.325674 
L 391.184036 52.183629 
L 399.83267 49.386066 
L 407.884357 48.309051 
L 415.416206 47.827974 
L 422.491291 47.346955 
L 429.161859 47.196405 
L 435.471674 46.741037 
L 441.457764 46.62279 
L 447.15173 46.56822 
L 452.580763 46.505845 
L 457.768425 46.304525 
L 462.735266 46.282801 
L 467.499322 46.146941 
L 472.076503 46.08778 
L 476.480919 45.891411 
L 480.725138 44.547509 
L 484.820406 44.459879 
L 488.776824 44.41702 
L 492.6035 44.399927 
L 496.308674 44.285219 
L 499.899824 44.269866 
L 503.383759 44.102475 
L 506.766696 43.962511 
L 510.054326 43.732432 
L 513.251873 43.290736 
L 516.364142 42.602846 
L 519.395564 42.586297 
L 522.350232 42.499014 
L 525.231938 42.354781 
L 528.044198 42.35233 
L 530.790282 42.294032 
L 533.473231 41.997569 
L 536.095884 40.511606 
L 538.660892 40.417423 
L 541.170735 40.367055 
L 543.627734 40.323833 
L 546.03407 40.307756 
L 548.39179 39.62772 
" clip-path="url(#pabd9e57eae)" style="fill: none; stroke: #f0027f; stroke-width: 3; stroke-linecap: square"/>
   </g>
   <g id="line2d_34">
    <path d="M 91.846335 90.833764 
L 172.738803 81.811247 
L 220.057863 76.604641 
L 253.631271 68.823292 
L 279.672829 66.586227 
L 300.950331 63.62073 
L 318.940203 62.06074 
L 334.523738 59.908134 
L 348.269391 57.791194 
L 360.565296 55.721617 
L 371.688296 53.828448 
L 381.842799 52.653456 
L 391.184036 51.737304 
L 399.83267 50.744446 
L 407.884357 50.100307 
L 415.416206 49.557254 
L 422.491291 48.657199 
L 429.161859 48.195957 
L 435.471674 47.567829 
L 441.457764 47.201702 
L 447.15173 46.678912 
L 452.580763 46.418981 
L 457.768425 46.016641 
L 462.735266 45.682748 
L 467.499322 45.455686 
L 472.076503 45.093441 
L 476.480919 44.87604 
L 480.725138 44.677984 
L 484.820406 44.493219 
L 488.776824 44.352436 
L 492.6035 44.135041 
L 496.308674 43.956713 
L 499.899824 43.655479 
L 503.383759 43.571945 
L 506.766696 43.377461 
L 510.054326 43.175486 
L 513.251873 42.896896 
L 516.364142 42.728965 
L 519.395564 42.59148 
L 522.350232 42.496292 
L 525.231938 42.35275 
L 528.044198 42.264267 
L 530.790282 42.137731 
L 533.473231 41.944901 
L 536.095884 41.689544 
L 538.660892 41.599714 
L 541.170735 41.532601 
L 543.627734 41.405597 
L 546.03407 41.325622 
L 548.39179 41.178094 
" clip-path="url(#pabd9e57eae)" style="fill: none; stroke-dasharray: 11.1,4.8; stroke-dashoffset: 0; stroke: #f0027f; stroke-width: 3"/>
   </g>
   <g id="line2d_35">
    <path d="M 91.846335 90.833764 
L 172.738803 76.173525 
L 220.057863 72.551841 
L 253.631271 67.877976 
L 279.672829 63.968855 
L 300.950331 61.266345 
L 318.940203 59.510225 
L 334.523738 57.515638 
L 348.269391 56.029797 
L 360.565296 54.529523 
L 371.688296 53.762091 
L 381.842799 52.908101 
L 391.184036 52.326466 
L 399.83267 51.871828 
L 407.884357 51.405765 
L 415.416206 50.995643 
L 422.491291 50.512833 
L 429.161859 49.935952 
L 435.471674 49.616486 
L 441.457764 49.239575 
L 447.15173 48.946846 
L 452.580763 48.591549 
L 457.768425 48.277888 
L 462.735266 47.984384 
L 467.499322 47.71717 
L 472.076503 47.300443 
L 476.480919 47.054068 
L 480.725138 46.834985 
L 484.820406 46.62967 
L 488.776824 46.268148 
L 492.6035 46.134995 
L 496.308674 45.931462 
L 499.899824 45.75584 
L 503.383759 45.586279 
L 506.766696 45.278541 
L 510.054326 45.139506 
L 513.251873 45.05588 
L 516.364142 44.887262 
L 519.395564 44.801522 
L 522.350232 44.721769 
L 525.231938 44.617036 
L 528.044198 44.389833 
L 530.790282 44.274269 
L 533.473231 44.128823 
L 536.095884 43.949663 
L 538.660892 43.830679 
L 541.170735 43.742028 
L 543.627734 43.64423 
L 546.03407 43.556271 
L 548.39179 43.476552 
" clip-path="url(#pabd9e57eae)" style="fill: none; stroke-dasharray: 11.1,4.8; stroke-dashoffset: 0; stroke: #bf5b17; stroke-width: 3"/>
   </g>
   <g id="line2d_36">
    <path d="M 91.846335 90.833764 
L 172.738803 81.811247 
L 220.057863 76.604641 
L 253.631271 68.823292 
L 279.672829 66.586227 
L 300.950331 63.62073 
L 318.940203 61.141446 
L 334.523738 58.242154 
L 348.269391 55.67903 
L 360.565296 53.114304 
L 371.688296 52.093957 
L 381.842799 51.754659 
L 391.184036 51.416877 
L 399.83267 49.184116 
L 407.884357 48.423259 
L 415.416206 47.763274 
L 422.491291 47.545897 
L 429.161859 46.979371 
L 435.471674 45.848804 
L 441.457764 45.777084 
L 447.15173 45.503795 
L 452.580763 44.695271 
L 457.768425 44.582346 
L 462.735266 44.465614 
L 467.499322 44.333474 
L 472.076503 44.210587 
L 476.480919 44.107594 
L 480.725138 43.936902 
L 484.820406 43.876502 
L 488.776824 43.813425 
L 492.6035 43.792421 
L 496.308674 43.726055 
L 499.899824 43.678907 
L 503.383759 43.507768 
L 506.766696 43.332486 
L 510.054326 43.220892 
L 513.251873 43.074662 
L 516.364142 42.964442 
L 519.395564 42.883528 
L 522.350232 42.70483 
L 525.231938 42.627445 
L 528.044198 42.530684 
L 530.790282 42.402797 
L 533.473231 42.281258 
L 536.095884 41.885131 
L 538.660892 41.791137 
L 541.170735 41.348906 
L 543.627734 41.260437 
L 546.03407 41.213698 
L 548.39179 41.100081 
" clip-path="url(#pabd9e57eae)" style="fill: none; stroke: #386cb0; stroke-width: 3; stroke-linecap: square"/>
   </g>
   <g id="line2d_37">
    <path d="M 91.846335 84.049306 
L 172.738803 60.982486 
L 220.057863 54.690641 
L 253.631271 50.025216 
L 279.672829 47.5347 
L 300.950331 45.796354 
L 318.940203 44.711337 
L 334.523738 43.767455 
L 348.269391 42.975375 
L 360.565296 42.35322 
L 371.688296 41.738036 
L 381.842799 41.28059 
L 391.184036 40.86134 
L 399.83267 40.477751 
L 407.884357 40.115447 
L 415.416206 39.811728 
L 422.491291 39.538547 
L 429.161859 39.287961 
L 435.471674 39.065191 
L 441.457764 38.872395 
L 447.15173 38.695226 
L 452.580763 38.530802 
L 457.768425 38.382372 
L 462.735266 38.239868 
L 467.499322 38.105273 
L 472.076503 37.978456 
L 476.480919 37.85636 
L 480.725138 37.74174 
L 484.820406 37.639874 
L 488.776824 37.542536 
L 492.6035 37.446452 
L 496.308674 37.351035 
L 499.899824 37.262118 
L 503.383759 37.178421 
L 506.766696 37.103025 
L 510.054326 37.029602 
L 513.251873 36.965604 
L 516.364142 36.904867 
L 519.395564 36.851922 
L 522.350232 36.801652 
L 525.231938 36.752552 
L 528.044198 36.705448 
L 530.790282 36.660129 
L 533.473231 36.618672 
L 536.095884 36.580494 
L 538.660892 36.543448 
L 541.170735 36.507045 
L 543.627734 36.472948 
L 546.03407 36.439137 
L 548.39179 36.406982 
" clip-path="url(#pabd9e57eae)" style="fill: none; stroke-dasharray: 11.1,4.8; stroke-dashoffset: 0; stroke: #666666; stroke-width: 3"/>
   </g>
   <g id="patch_3">
    <path d="M 69.019063 339.84 
L 69.019063 7.2 
" style="fill: none; stroke: #000000; stroke-width: 0.8; stroke-linejoin: miter; stroke-linecap: square"/>
   </g>
   <g id="patch_4">
    <path d="M 571.219063 339.84 
L 571.219063 7.2 
" style="fill: none; stroke: #000000; stroke-width: 0.8; stroke-linejoin: miter; stroke-linecap: square"/>
   </g>
   <g id="patch_5">
    <path d="M 69.019063 339.84 
L 571.219063 339.84 
" style="fill: none; stroke: #000000; stroke-width: 0.8; stroke-linejoin: miter; stroke-linecap: square"/>
   </g>
   <g id="patch_6">
    <path d="M 69.019063 7.2 
L 571.219063 7.2 
" style="fill: none; stroke: #000000; stroke-width: 0.8; stroke-linejoin: miter; stroke-linecap: square"/>
   </g>
   <g id="legend_1">
    <g id="patch_7">
     <path d="M 339.191563 331.84 
L 560.019063 331.84 
Q 563.219063 331.84 563.219063 328.64 
L 563.219063 118.875 
Q 563.219063 115.675 560.019063 115.675 
L 339.191563 115.675 
Q 335.991563 115.675 335.991563 118.875 
L 335.991563 328.64 
Q 335.991563 331.84 339.191563 331.84 
z
" style="fill: #ffffff; opacity: 0.8; stroke: #cccccc; stroke-linejoin: miter"/>
    </g>
    <g id="line2d_38">
     <path d="M 342.391563 128.6325 
L 358.391563 128.6325 
L 374.391563 128.6325 
" style="fill: none; stroke-dasharray: 11.1,4.8; stroke-dashoffset: 0; stroke: #fdc086; stroke-width: 3"/>
    </g>
    <g id="text_10">
     <!-- Independent Training -->
     <g transform="translate(387.191563 134.2325) scale(0.16 -0.16)">
      <defs>
       <path id="DejaVuSans-49" d="M 628 4666 
L 1259 4666 
L 1259 0 
L 628 0 
L 628 4666 
z
" transform="scale(0.015625)"/>
       <path id="DejaVuSans-70" d="M 1159 525 
L 1159 -1331 
L 581 -1331 
L 581 3500 
L 1159 3500 
L 1159 2969 
Q 1341 3281 1617 3432 
Q 1894 3584 2278 3584 
Q 2916 3584 3314 3078 
Q 3713 2572 3713 1747 
Q 3713 922 3314 415 
Q 2916 -91 2278 -91 
Q 1894 -91 1617 61 
Q 1341 213 1159 525 
z
M 3116 1747 
Q 3116 2381 2855 2742 
Q 2594 3103 2138 3103 
Q 1681 3103 1420 2742 
Q 1159 2381 1159 1747 
Q 1159 1113 1420 752 
Q 1681 391 2138 391 
Q 2594 391 2855 752 
Q 3116 1113 3116 1747 
z
" transform="scale(0.015625)"/>
       <path id="DejaVuSans-74" d="M 1172 4494 
L 1172 3500 
L 2356 3500 
L 2356 3053 
L 1172 3053 
L 1172 1153 
Q 1172 725 1289 603 
Q 1406 481 1766 481 
L 2356 481 
L 2356 0 
L 1766 0 
Q 1100 0 847 248 
Q 594 497 594 1153 
L 594 3053 
L 172 3053 
L 172 3500 
L 594 3500 
L 594 4494 
L 1172 4494 
z
" transform="scale(0.015625)"/>
       <path id="DejaVuSans-54" d="M -19 4666 
L 3928 4666 
L 3928 4134 
L 2272 4134 
L 2272 0 
L 1638 0 
L 1638 4134 
L -19 4134 
L -19 4666 
z
" transform="scale(0.015625)"/>
       <path id="DejaVuSans-67" d="M 2906 1791 
Q 2906 2416 2648 2759 
Q 2391 3103 1925 3103 
Q 1463 3103 1205 2759 
Q 947 2416 947 1791 
Q 947 1169 1205 825 
Q 1463 481 1925 481 
Q 2391 481 2648 825 
Q 2906 1169 2906 1791 
z
M 3481 434 
Q 3481 -459 3084 -895 
Q 2688 -1331 1869 -1331 
Q 1566 -1331 1297 -1286 
Q 1028 -1241 775 -1147 
L 775 -588 
Q 1028 -725 1275 -790 
Q 1522 -856 1778 -856 
Q 2344 -856 2625 -561 
Q 2906 -266 2906 331 
L 2906 616 
Q 2728 306 2450 153 
Q 2172 0 1784 0 
Q 1141 0 747 490 
Q 353 981 353 1791 
Q 353 2603 747 3093 
Q 1141 3584 1784 3584 
Q 2172 3584 2450 3431 
Q 2728 3278 2906 2969 
L 2906 3500 
L 3481 3500 
L 3481 434 
z
" transform="scale(0.015625)"/>
      </defs>
      <use xlink:href="#DejaVuSans-49"/>
      <use xlink:href="#DejaVuSans-6e" x="29.492188"/>
      <use xlink:href="#DejaVuSans-64" x="92.871094"/>
      <use xlink:href="#DejaVuSans-65" x="156.347656"/>
      <use xlink:href="#DejaVuSans-70" x="217.871094"/>
      <use xlink:href="#DejaVuSans-65" x="281.347656"/>
      <use xlink:href="#DejaVuSans-6e" x="342.871094"/>
      <use xlink:href="#DejaVuSans-64" x="406.25"/>
      <use xlink:href="#DejaVuSans-65" x="469.726562"/>
      <use xlink:href="#DejaVuSans-6e" x="531.25"/>
      <use xlink:href="#DejaVuSans-74" x="594.628906"/>
      <use xlink:href="#DejaVuSans-20" x="633.837891"/>
      <use xlink:href="#DejaVuSans-54" x="665.625"/>
      <use xlink:href="#DejaVuSans-72" x="711.958984"/>
      <use xlink:href="#DejaVuSans-61" x="753.072266"/>
      <use xlink:href="#DejaVuSans-69" x="814.351562"/>
      <use xlink:href="#DejaVuSans-6e" x="842.134766"/>
      <use xlink:href="#DejaVuSans-69" x="905.513672"/>
      <use xlink:href="#DejaVuSans-6e" x="933.296875"/>
      <use xlink:href="#DejaVuSans-67" x="996.675781"/>
     </g>
    </g>
    <g id="line2d_39">
     <path d="M 342.391563 152.1175 
L 358.391563 152.1175 
L 374.391563 152.1175 
" style="fill: none; stroke-dasharray: 11.1,4.8; stroke-dashoffset: 0; stroke: #beaed4; stroke-width: 3"/>
    </g>
    <g id="text_11">
     <!-- Multi-task Training -->
     <g transform="translate(387.191563 157.7175) scale(0.16 -0.16)">
      <defs>
       <path id="DejaVuSans-4d" d="M 628 4666 
L 1569 4666 
L 2759 1491 
L 3956 4666 
L 4897 4666 
L 4897 0 
L 4281 0 
L 4281 4097 
L 3078 897 
L 2444 897 
L 1241 4097 
L 1241 0 
L 628 0 
L 628 4666 
z
" transform="scale(0.015625)"/>
       <path id="DejaVuSans-2d" d="M 313 2009 
L 1997 2009 
L 1997 1497 
L 313 1497 
L 313 2009 
z
" transform="scale(0.015625)"/>
       <path id="DejaVuSans-6b" d="M 581 4863 
L 1159 4863 
L 1159 1991 
L 2875 3500 
L 3609 3500 
L 1753 1863 
L 3688 0 
L 2938 0 
L 1159 1709 
L 1159 0 
L 581 0 
L 581 4863 
z
" transform="scale(0.015625)"/>
      </defs>
      <use xlink:href="#DejaVuSans-4d"/>
      <use xlink:href="#DejaVuSans-75" x="86.279297"/>
      <use xlink:href="#DejaVuSans-6c" x="149.658203"/>
      <use xlink:href="#DejaVuSans-74" x="177.441406"/>
      <use xlink:href="#DejaVuSans-69" x="216.650391"/>
      <use xlink:href="#DejaVuSans-2d" x="244.433594"/>
      <use xlink:href="#DejaVuSans-74" x="280.517578"/>
      <use xlink:href="#DejaVuSans-61" x="319.726562"/>
      <use xlink:href="#DejaVuSans-73" x="381.005859"/>
      <use xlink:href="#DejaVuSans-6b" x="433.105469"/>
      <use xlink:href="#DejaVuSans-20" x="491.015625"/>
      <use xlink:href="#DejaVuSans-54" x="522.802734"/>
      <use xlink:href="#DejaVuSans-72" x="569.136719"/>
      <use xlink:href="#DejaVuSans-61" x="610.25"/>
      <use xlink:href="#DejaVuSans-69" x="671.529297"/>
      <use xlink:href="#DejaVuSans-6e" x="699.3125"/>
      <use xlink:href="#DejaVuSans-69" x="762.691406"/>
      <use xlink:href="#DejaVuSans-6e" x="790.474609"/>
      <use xlink:href="#DejaVuSans-67" x="853.853516"/>
     </g>
    </g>
    <g id="line2d_40">
     <path d="M 342.391563 175.6025 
L 358.391563 175.6025 
L 374.391563 175.6025 
" style="fill: none; stroke: #7fc97f; stroke-width: 3; stroke-linecap: square"/>
    </g>
    <g id="text_12">
     <!-- Random -->
     <g transform="translate(387.191563 181.2025) scale(0.16 -0.16)">
      <use xlink:href="#DejaVuSans-52"/>
      <use xlink:href="#DejaVuSans-61" x="67.232422"/>
      <use xlink:href="#DejaVuSans-6e" x="128.511719"/>
      <use xlink:href="#DejaVuSans-64" x="191.890625"/>
      <use xlink:href="#DejaVuSans-6f" x="255.367188"/>
      <use xlink:href="#DejaVuSans-6d" x="316.548828"/>
     </g>
    </g>
    <g id="line2d_41">
     <path d="M 342.391563 199.0875 
L 358.391563 199.0875 
L 374.391563 199.0875 
" style="fill: none; stroke: #bf5b17; stroke-width: 3; stroke-linecap: square"/>
    </g>
    <g id="text_13">
     <!-- GP-MBTL -->
     <g transform="translate(387.191563 204.6875) scale(0.16 -0.16)">
      <defs>
       <path id="DejaVuSans-47" d="M 3809 666 
L 3809 1919 
L 2778 1919 
L 2778 2438 
L 4434 2438 
L 4434 434 
Q 4069 175 3628 42 
Q 3188 -91 2688 -91 
Q 1594 -91 976 548 
Q 359 1188 359 2328 
Q 359 3472 976 4111 
Q 1594 4750 2688 4750 
Q 3144 4750 3555 4637 
Q 3966 4525 4313 4306 
L 4313 3634 
Q 3963 3931 3569 4081 
Q 3175 4231 2741 4231 
Q 1884 4231 1454 3753 
Q 1025 3275 1025 2328 
Q 1025 1384 1454 906 
Q 1884 428 2741 428 
Q 3075 428 3337 486 
Q 3600 544 3809 666 
z
" transform="scale(0.015625)"/>
       <path id="DejaVuSans-42" d="M 1259 2228 
L 1259 519 
L 2272 519 
Q 2781 519 3026 730 
Q 3272 941 3272 1375 
Q 3272 1813 3026 2020 
Q 2781 2228 2272 2228 
L 1259 2228 
z
M 1259 4147 
L 1259 2741 
L 2194 2741 
Q 2656 2741 2882 2914 
Q 3109 3088 3109 3444 
Q 3109 3797 2882 3972 
Q 2656 4147 2194 4147 
L 1259 4147 
z
M 628 4666 
L 2241 4666 
Q 2963 4666 3353 4366 
Q 3744 4066 3744 3513 
Q 3744 3084 3544 2831 
Q 3344 2578 2956 2516 
Q 3422 2416 3680 2098 
Q 3938 1781 3938 1306 
Q 3938 681 3513 340 
Q 3088 0 2303 0 
L 628 0 
L 628 4666 
z
" transform="scale(0.015625)"/>
       <path id="DejaVuSans-4c" d="M 628 4666 
L 1259 4666 
L 1259 531 
L 3531 531 
L 3531 0 
L 628 0 
L 628 4666 
z
" transform="scale(0.015625)"/>
      </defs>
      <use xlink:href="#DejaVuSans-47"/>
      <use xlink:href="#DejaVuSans-50" x="77.490234"/>
      <use xlink:href="#DejaVuSans-2d" x="135.542969"/>
      <use xlink:href="#DejaVuSans-4d" x="171.626953"/>
      <use xlink:href="#DejaVuSans-42" x="257.90625"/>
      <use xlink:href="#DejaVuSans-54" x="326.509766"/>
      <use xlink:href="#DejaVuSans-4c" x="387.59375"/>
     </g>
    </g>
    <g id="line2d_42">
     <path d="M 342.391563 222.5725 
L 358.391563 222.5725 
L 374.391563 222.5725 
" style="fill: none; stroke: #f0027f; stroke-width: 3; stroke-linecap: square"/>
    </g>
    <g id="text_14">
     <!-- M-MBTL -->
     <g transform="translate(387.191563 228.1725) scale(0.16 -0.16)">
      <use xlink:href="#DejaVuSans-4d"/>
      <use xlink:href="#DejaVuSans-2d" x="86.279297"/>
      <use xlink:href="#DejaVuSans-4d" x="122.363281"/>
      <use xlink:href="#DejaVuSans-42" x="208.642578"/>
      <use xlink:href="#DejaVuSans-54" x="277.246094"/>
      <use xlink:href="#DejaVuSans-4c" x="338.330078"/>
     </g>
    </g>
    <g id="line2d_43">
     <path d="M 342.391563 246.0575 
L 358.391563 246.0575 
L 374.391563 246.0575 
" style="fill: none; stroke-dasharray: 11.1,4.8; stroke-dashoffset: 0; stroke: #f0027f; stroke-width: 3"/>
    </g>
    <g id="text_15">
     <!-- M-MBTL + Random -->
     <g transform="translate(387.191563 251.6575) scale(0.16 -0.16)">
      <defs>
       <path id="DejaVuSans-2b" d="M 2944 4013 
L 2944 2272 
L 4684 2272 
L 4684 1741 
L 2944 1741 
L 2944 0 
L 2419 0 
L 2419 1741 
L 678 1741 
L 678 2272 
L 2419 2272 
L 2419 4013 
L 2944 4013 
z
" transform="scale(0.015625)"/>
      </defs>
      <use xlink:href="#DejaVuSans-4d"/>
      <use xlink:href="#DejaVuSans-2d" x="86.279297"/>
      <use xlink:href="#DejaVuSans-4d" x="122.363281"/>
      <use xlink:href="#DejaVuSans-42" x="208.642578"/>
      <use xlink:href="#DejaVuSans-54" x="277.246094"/>
      <use xlink:href="#DejaVuSans-4c" x="338.330078"/>
      <use xlink:href="#DejaVuSans-20" x="394.042969"/>
      <use xlink:href="#DejaVuSans-2b" x="425.830078"/>
      <use xlink:href="#DejaVuSans-20" x="509.619141"/>
      <use xlink:href="#DejaVuSans-52" x="541.40625"/>
      <use xlink:href="#DejaVuSans-61" x="608.638672"/>
      <use xlink:href="#DejaVuSans-6e" x="669.917969"/>
      <use xlink:href="#DejaVuSans-64" x="733.296875"/>
      <use xlink:href="#DejaVuSans-6f" x="796.773438"/>
      <use xlink:href="#DejaVuSans-6d" x="857.955078"/>
     </g>
    </g>
    <g id="line2d_44">
     <path d="M 342.391563 269.5425 
L 358.391563 269.5425 
L 374.391563 269.5425 
" style="fill: none; stroke-dasharray: 11.1,4.8; stroke-dashoffset: 0; stroke: #bf5b17; stroke-width: 3"/>
    </g>
    <g id="text_16">
     <!-- GP-MBTL + Random -->
     <g transform="translate(387.191563 275.1425) scale(0.16 -0.16)">
      <use xlink:href="#DejaVuSans-47"/>
      <use xlink:href="#DejaVuSans-50" x="77.490234"/>
      <use xlink:href="#DejaVuSans-2d" x="135.542969"/>
      <use xlink:href="#DejaVuSans-4d" x="171.626953"/>
      <use xlink:href="#DejaVuSans-42" x="257.90625"/>
      <use xlink:href="#DejaVuSans-54" x="326.509766"/>
      <use xlink:href="#DejaVuSans-4c" x="387.59375"/>
      <use xlink:href="#DejaVuSans-20" x="443.306641"/>
      <use xlink:href="#DejaVuSans-2b" x="475.09375"/>
      <use xlink:href="#DejaVuSans-20" x="558.882812"/>
      <use xlink:href="#DejaVuSans-52" x="590.669922"/>
      <use xlink:href="#DejaVuSans-61" x="657.902344"/>
      <use xlink:href="#DejaVuSans-6e" x="719.181641"/>
      <use xlink:href="#DejaVuSans-64" x="782.560547"/>
      <use xlink:href="#DejaVuSans-6f" x="846.037109"/>
      <use xlink:href="#DejaVuSans-6d" x="907.21875"/>
     </g>
    </g>
    <g id="line2d_45">
     <path d="M 342.391563 293.0275 
L 358.391563 293.0275 
L 374.391563 293.0275 
" style="fill: none; stroke: #386cb0; stroke-width: 3; stroke-linecap: square"/>
    </g>
    <g id="text_17">
     <!-- M/GP-MBTL (Ours) -->
     <g transform="translate(387.191563 298.6275) scale(0.16 -0.16)">
      <defs>
       <path id="DejaVuSans-2f" d="M 1625 4666 
L 2156 4666 
L 531 -594 
L 0 -594 
L 1625 4666 
z
" transform="scale(0.015625)"/>
       <path id="DejaVuSans-28" d="M 1984 4856 
Q 1566 4138 1362 3434 
Q 1159 2731 1159 2009 
Q 1159 1288 1364 580 
Q 1569 -128 1984 -844 
L 1484 -844 
Q 1016 -109 783 600 
Q 550 1309 550 2009 
Q 550 2706 781 3412 
Q 1013 4119 1484 4856 
L 1984 4856 
z
" transform="scale(0.015625)"/>
       <path id="DejaVuSans-4f" d="M 2522 4238 
Q 1834 4238 1429 3725 
Q 1025 3213 1025 2328 
Q 1025 1447 1429 934 
Q 1834 422 2522 422 
Q 3209 422 3611 934 
Q 4013 1447 4013 2328 
Q 4013 3213 3611 3725 
Q 3209 4238 2522 4238 
z
M 2522 4750 
Q 3503 4750 4090 4092 
Q 4678 3434 4678 2328 
Q 4678 1225 4090 567 
Q 3503 -91 2522 -91 
Q 1538 -91 948 565 
Q 359 1222 359 2328 
Q 359 3434 948 4092 
Q 1538 4750 2522 4750 
z
" transform="scale(0.015625)"/>
       <path id="DejaVuSans-29" d="M 513 4856 
L 1013 4856 
Q 1481 4119 1714 3412 
Q 1947 2706 1947 2009 
Q 1947 1309 1714 600 
Q 1481 -109 1013 -844 
L 513 -844 
Q 928 -128 1133 580 
Q 1338 1288 1338 2009 
Q 1338 2731 1133 3434 
Q 928 4138 513 4856 
z
" transform="scale(0.015625)"/>
      </defs>
      <use xlink:href="#DejaVuSans-4d"/>
      <use xlink:href="#DejaVuSans-2f" x="86.279297"/>
      <use xlink:href="#DejaVuSans-47" x="119.970703"/>
      <use xlink:href="#DejaVuSans-50" x="197.460938"/>
      <use xlink:href="#DejaVuSans-2d" x="255.513672"/>
      <use xlink:href="#DejaVuSans-4d" x="291.597656"/>
      <use xlink:href="#DejaVuSans-42" x="377.876953"/>
      <use xlink:href="#DejaVuSans-54" x="446.480469"/>
      <use xlink:href="#DejaVuSans-4c" x="507.564453"/>
      <use xlink:href="#DejaVuSans-20" x="563.277344"/>
      <use xlink:href="#DejaVuSans-28" x="595.064453"/>
      <use xlink:href="#DejaVuSans-4f" x="634.078125"/>
      <use xlink:href="#DejaVuSans-75" x="712.789062"/>
      <use xlink:href="#DejaVuSans-72" x="776.167969"/>
      <use xlink:href="#DejaVuSans-73" x="817.28125"/>
      <use xlink:href="#DejaVuSans-29" x="869.380859"/>
     </g>
    </g>
    <g id="line2d_46">
     <path d="M 342.391563 316.5125 
L 358.391563 316.5125 
L 374.391563 316.5125 
" style="fill: none; stroke-dasharray: 11.1,4.8; stroke-dashoffset: 0; stroke: #666666; stroke-width: 3"/>
    </g>
    <g id="text_18">
     <!-- Myopic Oracle -->
     <g transform="translate(387.191563 322.1125) scale(0.16 -0.16)">
      <defs>
       <path id="DejaVuSans-79" d="M 2059 -325 
Q 1816 -950 1584 -1140 
Q 1353 -1331 966 -1331 
L 506 -1331 
L 506 -850 
L 844 -850 
Q 1081 -850 1212 -737 
Q 1344 -625 1503 -206 
L 1606 56 
L 191 3500 
L 800 3500 
L 1894 763 
L 2988 3500 
L 3597 3500 
L 2059 -325 
z
" transform="scale(0.015625)"/>
      </defs>
      <use xlink:href="#DejaVuSans-4d"/>
      <use xlink:href="#DejaVuSans-79" x="86.279297"/>
      <use xlink:href="#DejaVuSans-6f" x="145.458984"/>
      <use xlink:href="#DejaVuSans-70" x="206.640625"/>
      <use xlink:href="#DejaVuSans-69" x="270.117188"/>
      <use xlink:href="#DejaVuSans-63" x="297.900391"/>
      <use xlink:href="#DejaVuSans-20" x="352.880859"/>
      <use xlink:href="#DejaVuSans-4f" x="384.667969"/>
      <use xlink:href="#DejaVuSans-72" x="463.378906"/>
      <use xlink:href="#DejaVuSans-61" x="504.492188"/>
      <use xlink:href="#DejaVuSans-63" x="565.771484"/>
      <use xlink:href="#DejaVuSans-6c" x="620.751953"/>
      <use xlink:href="#DejaVuSans-65" x="648.535156"/>
     </g>
    </g>
   </g>
  </g>
 </g>
 <defs>
  <clipPath id="pabd9e57eae">
   <rect x="69.019063" y="7.2" width="502.2" height="332.64"/>
  </clipPath>
 </defs>
</svg>
