<?xml version="1.0" encoding="utf-8" standalone="no"?>
<!DOCTYPE svg PUBLIC "-//W3C//DTD SVG 1.1//EN"
  "http://www.w3.org/Graphics/SVG/1.1/DTD/svg11.dtd">
<svg xmlns:xlink="http://www.w3.org/1999/xlink" width="587.962813pt" height="389.977813pt" viewBox="0 0 587.962813 389.977813" xmlns="http://www.w3.org/2000/svg" version="1.1">
 <metadata>
  <rdf:RDF xmlns:dc="http://purl.org/dc/elements/1.1/" xmlns:cc="http://creativecommons.org/ns#" xmlns:rdf="http://www.w3.org/1999/02/22-rdf-syntax-ns#">
   <cc:Work>
    <dc:type rdf:resource="http://purl.org/dc/dcmitype/StillImage"/>
    <dc:date>2025-11-18T14:57:02.845327</dc:date>
    <dc:format>image/svg+xml</dc:format>
    <dc:creator>
     <cc:Agent>
      <dc:title>Matplotlib v3.9.4, https://matplotlib.org/</dc:title>
     </cc:Agent>
    </dc:creator>
   </cc:Work>
  </rdf:RDF>
 </metadata>
 <defs>
  <style type="text/css">*{stroke-linejoin: round; stroke-linecap: butt}</style>
 </defs>
 <g id="figure_1">
  <g id="patch_1">
   <path d="M 0 389.977813 
L 587.962813 389.977813 
L 587.962813 0 
L 0 0 
z
" style="fill: #ffffff"/>
  </g>
  <g id="axes_1">
   <g id="patch_2">
    <path d="M 78.562813 339.84 
L 580.762812 339.84 
L 580.762812 7.2 
L 78.562813 7.2 
z
" style="fill: #ffffff"/>
   </g>
   <g id="PolyCollection_1">
    <defs>
     <path id="md6c5963cba" d="M 101.390085 -184.239973 
L 101.390085 -65.257813 
L 182.282553 -132.449826 
L 229.601613 -169.751965 
L 263.175021 -189.094147 
L 289.216579 -201.448758 
L 310.494081 -212.704791 
L 328.483953 -221.954932 
L 344.067488 -230.465848 
L 357.813141 -237.316349 
L 370.109046 -243.05718 
L 381.232046 -247.798052 
L 391.386549 -253.578483 
L 400.727786 -257.499149 
L 409.37642 -261.144709 
L 417.428107 -265.034474 
L 424.959956 -267.883166 
L 432.035041 -270.468042 
L 438.705609 -273.195793 
L 445.015424 -275.186663 
L 451.001514 -276.551416 
L 456.69548 -278.664172 
L 462.124513 -280.352396 
L 467.312175 -281.604503 
L 472.279016 -283.397191 
L 477.043072 -285.175731 
L 481.620253 -286.047646 
L 486.024669 -288.203466 
L 490.268888 -289.428859 
L 494.364156 -291.631236 
L 498.320574 -292.928176 
L 502.14725 -294.277163 
L 505.852424 -295.592363 
L 509.443574 -296.564988 
L 512.927509 -297.73706 
L 516.310446 -298.668092 
L 519.598076 -299.960557 
L 522.795623 -301.570266 
L 525.907892 -302.570588 
L 528.939314 -302.960206 
L 531.893982 -304.460882 
L 534.775688 -305.23361 
L 537.587948 -305.936747 
L 540.334032 -306.424304 
L 543.016981 -307.311355 
L 545.639634 -308.130806 
L 548.204642 -309.202965 
L 550.714485 -310.164199 
L 553.171484 -311.304457 
L 555.57782 -312.173561 
L 557.93554 -312.515445 
L 557.93554 -326.593643 
L 557.93554 -326.593643 
L 555.57782 -326.157363 
L 553.171484 -325.864129 
L 550.714485 -325.53583 
L 548.204642 -325.062708 
L 545.639634 -324.758651 
L 543.016981 -324.131716 
L 540.334032 -323.450849 
L 537.587948 -322.934122 
L 534.775688 -322.532876 
L 531.893982 -321.930668 
L 528.939314 -321.436674 
L 525.907892 -321.167447 
L 522.795623 -320.288335 
L 519.598076 -319.486154 
L 516.310446 -318.70001 
L 512.927509 -317.852052 
L 509.443574 -317.084601 
L 505.852424 -316.302711 
L 502.14725 -315.648297 
L 498.320574 -314.737984 
L 494.364156 -313.89245 
L 490.268888 -313.352383 
L 486.024669 -312.554229 
L 481.620253 -311.861645 
L 477.043072 -310.968675 
L 472.279016 -309.274726 
L 467.312175 -307.811237 
L 462.124513 -306.446035 
L 456.69548 -306.062594 
L 451.001514 -305.278407 
L 445.015424 -303.940276 
L 438.705609 -302.279995 
L 432.035041 -300.159743 
L 424.959956 -298.922995 
L 417.428107 -297.311998 
L 409.37642 -295.123686 
L 400.727786 -292.480468 
L 391.386549 -289.096393 
L 381.232046 -286.837608 
L 370.109046 -284.229668 
L 357.813141 -279.997389 
L 344.067488 -277.295726 
L 328.483953 -272.020648 
L 310.494081 -266.481928 
L 289.216579 -260.750179 
L 263.175021 -252.745854 
L 229.601613 -238.567213 
L 182.282553 -218.318047 
L 101.390085 -184.239973 
z
" style="stroke: #7fc97f; stroke-opacity: 0.05"/>
    </defs>
    <g clip-path="url(#pb986d963bd)">
     <use xlink:href="#md6c5963cba" x="0" y="389.977813" style="fill: #7fc97f; fill-opacity: 0.05; stroke: #7fc97f; stroke-opacity: 0.05"/>
    </g>
   </g>
   <g id="PolyCollection_2">
    <defs>
     <path id="m54c8afe10e" d="M 101.390085 -138.097504 
L 101.390085 -134.23594 
L 182.282553 -208.122087 
L 229.601613 -233.482074 
L 263.175021 -234.884227 
L 289.216579 -236.792055 
L 310.494081 -238.06274 
L 328.483953 -238.299756 
L 344.067488 -246.65327 
L 357.813141 -248.784975 
L 370.109046 -249.070871 
L 381.232046 -253.420825 
L 391.386549 -270.062813 
L 400.727786 -277.20916 
L 409.37642 -278.542945 
L 417.428107 -278.56069 
L 424.959956 -279.792424 
L 432.035041 -280.010247 
L 438.705609 -291.988152 
L 445.015424 -292.058125 
L 451.001514 -292.257889 
L 456.69548 -292.680505 
L 462.124513 -297.363913 
L 467.312175 -297.40078 
L 472.279016 -297.407861 
L 477.043072 -297.408677 
L 481.620253 -297.481208 
L 486.024669 -302.803074 
L 490.268888 -304.637376 
L 494.364156 -304.774964 
L 498.320574 -305.126907 
L 502.14725 -306.470069 
L 505.852424 -306.494227 
L 509.443574 -307.839222 
L 512.927509 -307.932547 
L 516.310446 -308.222317 
L 519.598076 -311.759481 
L 522.795623 -311.988827 
L 525.907892 -312.048094 
L 528.939314 -312.322033 
L 531.893982 -317.044662 
L 534.775688 -317.044771 
L 537.587948 -317.175627 
L 540.334032 -319.566656 
L 543.016981 -319.637683 
L 545.639634 -319.747559 
L 548.204642 -319.753757 
L 550.714485 -320.45263 
L 553.171484 -320.490057 
L 555.57782 -321.335583 
L 557.93554 -321.337789 
L 557.93554 -323.899832 
L 557.93554 -323.899832 
L 555.57782 -323.899515 
L 553.171484 -323.086786 
L 550.714485 -323.057788 
L 548.204642 -322.2788 
L 545.639634 -322.271231 
L 543.016981 -322.165649 
L 540.334032 -322.094945 
L 537.587948 -319.640903 
L 534.775688 -319.530467 
L 531.893982 -319.530418 
L 528.939314 -315.024519 
L 525.907892 -314.709731 
L 522.795623 -314.650104 
L 519.598076 -314.449 
L 516.310446 -310.973647 
L 512.927509 -310.595264 
L 509.443574 -310.508571 
L 505.852424 -309.168207 
L 502.14725 -309.140743 
L 498.320574 -307.743171 
L 494.364156 -307.366244 
L 490.268888 -307.219784 
L 486.024669 -305.392029 
L 481.620253 -300.024736 
L 477.043072 -299.935784 
L 472.279016 -299.933845 
L 467.312175 -299.924696 
L 462.124513 -299.891311 
L 456.69548 -295.288035 
L 451.001514 -294.841526 
L 445.015424 -294.684768 
L 438.705609 -294.627654 
L 432.035041 -282.759253 
L 424.959956 -282.583665 
L 417.428107 -281.504626 
L 409.37642 -281.491061 
L 400.727786 -280.161931 
L 391.386549 -273.286109 
L 381.232046 -256.461837 
L 370.109046 -252.23378 
L 357.813141 -251.959389 
L 344.067488 -249.901342 
L 328.483953 -241.756623 
L 310.494081 -241.530418 
L 289.216579 -240.275582 
L 263.175021 -238.48801 
L 229.601613 -237.196956 
L 182.282553 -212.125828 
L 101.390085 -138.097504 
z
" style="stroke: #f0027f; stroke-opacity: 0.05"/>
    </defs>
    <g clip-path="url(#pb986d963bd)">
     <use xlink:href="#m54c8afe10e" x="0" y="389.977813" style="fill: #f0027f; fill-opacity: 0.05; stroke: #f0027f; stroke-opacity: 0.05"/>
    </g>
   </g>
   <g id="PolyCollection_3">
    <defs>
     <path id="m5c86228120" d="M 101.390085 -138.097504 
L 101.390085 -134.23594 
L 182.282553 -208.122087 
L 229.601613 -233.482074 
L 263.175021 -234.884227 
L 289.216579 -236.792055 
L 310.494081 -238.06274 
L 328.483953 -233.88798 
L 344.067488 -243.170771 
L 357.813141 -246.63125 
L 370.109046 -248.919946 
L 381.232046 -254.559345 
L 391.386549 -270.872743 
L 400.727786 -278.696494 
L 409.37642 -280.766 
L 417.428107 -281.880437 
L 424.959956 -285.111488 
L 432.035041 -286.648072 
L 438.705609 -295.89837 
L 445.015424 -299.786171 
L 451.001514 -304.296135 
L 456.69548 -308.277285 
L 462.124513 -311.246777 
L 467.312175 -314.099372 
L 472.279016 -316.864096 
L 477.043072 -319.144563 
L 481.620253 -321.050187 
L 486.024669 -322.561017 
L 490.268888 -324.189794 
L 494.364156 -325.70003 
L 498.320574 -327.339594 
L 502.14725 -329.160663 
L 505.852424 -330.573857 
L 509.443574 -331.911134 
L 512.927509 -333.086929 
L 516.310446 -333.958547 
L 519.598076 -334.699168 
L 522.795623 -335.48263 
L 525.907892 -336.202127 
L 528.939314 -336.956472 
L 531.893982 -337.759015 
L 534.775688 -338.477703 
L 537.587948 -338.934292 
L 540.334032 -339.393248 
L 543.016981 -340.047238 
L 545.639634 -340.81607 
L 548.204642 -341.480314 
L 550.714485 -342.255855 
L 553.171484 -343.065354 
L 555.57782 -344.018289 
L 557.93554 -344.741953 
L 557.93554 -359.861732 
L 557.93554 -359.861732 
L 555.57782 -359.542304 
L 553.171484 -359.227313 
L 550.714485 -358.874245 
L 548.204642 -358.554615 
L 545.639634 -358.205972 
L 543.016981 -357.714711 
L 540.334032 -357.331343 
L 537.587948 -356.797662 
L 534.775688 -356.239828 
L 531.893982 -355.459351 
L 528.939314 -354.796837 
L 525.907892 -354.249585 
L 522.795623 -353.494344 
L 519.598076 -352.674644 
L 516.310446 -351.959014 
L 512.927509 -351.085713 
L 509.443574 -350.232769 
L 505.852424 -349.256783 
L 502.14725 -348.079583 
L 498.320574 -347.307619 
L 494.364156 -346.066167 
L 490.268888 -344.995268 
L 486.024669 -344.003093 
L 481.620253 -342.732136 
L 477.043072 -341.234201 
L 472.279016 -339.720358 
L 467.312175 -338.605268 
L 462.124513 -336.426668 
L 456.69548 -333.885363 
L 451.001514 -331.245802 
L 445.015424 -328.79327 
L 438.705609 -326.473037 
L 432.035041 -324.835482 
L 424.959956 -321.298967 
L 417.428107 -318.362382 
L 409.37642 -314.624711 
L 400.727786 -310.094179 
L 391.386549 -305.177903 
L 381.232046 -300.760986 
L 370.109046 -295.292934 
L 357.813141 -286.60077 
L 344.067488 -275.364292 
L 328.483953 -258.593991 
L 310.494081 -241.530418 
L 289.216579 -240.275582 
L 263.175021 -238.48801 
L 229.601613 -237.196956 
L 182.282553 -212.125828 
L 101.390085 -138.097504 
z
" style="stroke: #386cb0; stroke-opacity: 0.05"/>
    </defs>
    <g clip-path="url(#pb986d963bd)">
     <use xlink:href="#m5c86228120" x="0" y="389.977813" style="fill: #386cb0; fill-opacity: 0.05; stroke: #386cb0; stroke-opacity: 0.05"/>
    </g>
   </g>
   <g id="PolyCollection_4">
    <defs>
     <path id="m0a32b53aeb" d="M 101.390085 -248.472354 
L 101.390085 -244.011693 
L 182.282553 -244.011693 
L 229.601613 -244.011693 
L 263.175021 -244.011693 
L 289.216579 -244.011693 
L 310.494081 -244.011693 
L 328.483953 -244.011693 
L 344.067488 -244.011693 
L 357.813141 -244.011693 
L 370.109046 -244.011693 
L 381.232046 -244.011693 
L 391.386549 -244.011693 
L 400.727786 -244.011693 
L 409.37642 -244.011693 
L 417.428107 -244.011693 
L 424.959956 -244.011693 
L 432.035041 -244.011693 
L 438.705609 -244.011693 
L 445.015424 -244.011693 
L 451.001514 -244.011693 
L 456.69548 -244.011693 
L 462.124513 -244.011693 
L 467.312175 -244.011693 
L 472.279016 -244.011693 
L 477.043072 -244.011693 
L 481.620253 -244.011693 
L 486.024669 -244.011693 
L 490.268888 -244.011693 
L 494.364156 -244.011693 
L 498.320574 -244.011693 
L 502.14725 -244.011693 
L 505.852424 -244.011693 
L 509.443574 -244.011693 
L 512.927509 -244.011693 
L 516.310446 -244.011693 
L 519.598076 -244.011693 
L 522.795623 -244.011693 
L 525.907892 -244.011693 
L 528.939314 -244.011693 
L 531.893982 -244.011693 
L 534.775688 -244.011693 
L 537.587948 -244.011693 
L 540.334032 -244.011693 
L 543.016981 -244.011693 
L 545.639634 -244.011693 
L 548.204642 -244.011693 
L 550.714485 -244.011693 
L 553.171484 -244.011693 
L 555.57782 -244.011693 
L 557.93554 -244.011693 
L 557.93554 -248.472354 
L 557.93554 -248.472354 
L 555.57782 -248.472354 
L 553.171484 -248.472354 
L 550.714485 -248.472354 
L 548.204642 -248.472354 
L 545.639634 -248.472354 
L 543.016981 -248.472354 
L 540.334032 -248.472354 
L 537.587948 -248.472354 
L 534.775688 -248.472354 
L 531.893982 -248.472354 
L 528.939314 -248.472354 
L 525.907892 -248.472354 
L 522.795623 -248.472354 
L 519.598076 -248.472354 
L 516.310446 -248.472354 
L 512.927509 -248.472354 
L 509.443574 -248.472354 
L 505.852424 -248.472354 
L 502.14725 -248.472354 
L 498.320574 -248.472354 
L 494.364156 -248.472354 
L 490.268888 -248.472354 
L 486.024669 -248.472354 
L 481.620253 -248.472354 
L 477.043072 -248.472354 
L 472.279016 -248.472354 
L 467.312175 -248.472354 
L 462.124513 -248.472354 
L 456.69548 -248.472354 
L 451.001514 -248.472354 
L 445.015424 -248.472354 
L 438.705609 -248.472354 
L 432.035041 -248.472354 
L 424.959956 -248.472354 
L 417.428107 -248.472354 
L 409.37642 -248.472354 
L 400.727786 -248.472354 
L 391.386549 -248.472354 
L 381.232046 -248.472354 
L 370.109046 -248.472354 
L 357.813141 -248.472354 
L 344.067488 -248.472354 
L 328.483953 -248.472354 
L 310.494081 -248.472354 
L 289.216579 -248.472354 
L 263.175021 -248.472354 
L 229.601613 -248.472354 
L 182.282553 -248.472354 
L 101.390085 -248.472354 
z
" style="stroke: #fdc086; stroke-opacity: 0.05"/>
    </defs>
    <g clip-path="url(#pb986d963bd)">
     <use xlink:href="#m0a32b53aeb" x="0" y="389.977813" style="fill: #fdc086; fill-opacity: 0.05; stroke: #fdc086; stroke-opacity: 0.05"/>
    </g>
   </g>
   <g id="PolyCollection_5">
    <defs>
     <path id="m1d89bb23af" d="M 101.390085 -257.64451 
L 101.390085 -253.639542 
L 182.282553 -284.367702 
L 229.601613 -301.851769 
L 263.175021 -312.856591 
L 289.216579 -320.138689 
L 310.494081 -325.330709 
L 328.483953 -330.025671 
L 344.067488 -334.33129 
L 357.813141 -336.668728 
L 370.109046 -338.945302 
L 381.232046 -340.883055 
L 391.386549 -342.607905 
L 400.727786 -344.200704 
L 409.37642 -345.754016 
L 417.428107 -347.041208 
L 424.959956 -348.288002 
L 432.035041 -349.419632 
L 438.705609 -350.570402 
L 445.015424 -351.615765 
L 451.001514 -352.616739 
L 456.69548 -353.560695 
L 462.124513 -354.445011 
L 467.312175 -355.272496 
L 472.279016 -356.110071 
L 477.043072 -356.672697 
L 481.620253 -357.18501 
L 486.024669 -357.66705 
L 490.268888 -358.094755 
L 494.364156 -358.552222 
L 498.320574 -358.979528 
L 502.14725 -359.37453 
L 505.852424 -359.813449 
L 509.443574 -360.202189 
L 512.927509 -360.613816 
L 516.310446 -360.986158 
L 519.598076 -361.388944 
L 522.795623 -361.761873 
L 525.907892 -362.087566 
L 528.939314 -362.440516 
L 531.893982 -362.781106 
L 534.775688 -363.092276 
L 537.587948 -363.407213 
L 540.334032 -363.711305 
L 543.016981 -364.031329 
L 545.639634 -364.307423 
L 548.204642 -364.595273 
L 550.714485 -364.859029 
L 553.171484 -365.093903 
L 555.57782 -365.265226 
L 557.93554 -365.440835 
L 557.93554 -367.657813 
L 557.93554 -367.657813 
L 555.57782 -367.485791 
L 553.171484 -367.299984 
L 550.714485 -367.032806 
L 548.204642 -366.747496 
L 545.639634 -366.469856 
L 543.016981 -366.178537 
L 540.334032 -365.918309 
L 537.587948 -365.612861 
L 534.775688 -365.317066 
L 531.893982 -364.995259 
L 528.939314 -364.680813 
L 525.907892 -364.364939 
L 522.795623 -363.996767 
L 519.598076 -363.667373 
L 516.310446 -363.342753 
L 512.927509 -362.982105 
L 509.443574 -362.627815 
L 505.852424 -362.214444 
L 502.14725 -361.844338 
L 498.320574 -361.407554 
L 494.364156 -360.994537 
L 490.268888 -360.568661 
L 486.024669 -360.105892 
L 481.620253 -359.644023 
L 477.043072 -359.14343 
L 472.279016 -358.658899 
L 467.312175 -357.857973 
L 462.124513 -357.016152 
L 456.69548 -356.157321 
L 451.001514 -355.256222 
L 445.015424 -354.300604 
L 438.705609 -353.234952 
L 432.035041 -352.067416 
L 424.959956 -350.855509 
L 417.428107 -349.578928 
L 409.37642 -348.238337 
L 400.727786 -346.711702 
L 391.386549 -345.109734 
L 381.232046 -343.424333 
L 370.109046 -341.430263 
L 357.813141 -339.243126 
L 344.067488 -337.073096 
L 328.483953 -333.001169 
L 310.494081 -328.242607 
L 289.216579 -323.092259 
L 263.175021 -316.127653 
L 229.601613 -305.009678 
L 182.282553 -287.603792 
L 101.390085 -257.64451 
z
" style="stroke: #666666; stroke-opacity: 0.05"/>
    </defs>
    <g clip-path="url(#pb986d963bd)">
     <use xlink:href="#m1d89bb23af" x="0" y="389.977813" style="fill: #666666; fill-opacity: 0.05; stroke: #666666; stroke-opacity: 0.05"/>
    </g>
   </g>
   <g id="PolyCollection_6">
    <defs>
     <path id="m911e14f4e3" d="M 101.390085 -138.097504 
L 101.390085 -134.23594 
L 182.282553 -221.068911 
L 229.601613 -253.570058 
L 263.175021 -286.159289 
L 289.216579 -292.185889 
L 310.494081 -295.511636 
L 328.483953 -299.769389 
L 344.067488 -302.09978 
L 357.813141 -304.005621 
L 370.109046 -306.600939 
L 381.232046 -308.600047 
L 391.386549 -311.368003 
L 400.727786 -313.508272 
L 409.37642 -315.110265 
L 417.428107 -317.095885 
L 424.959956 -319.128243 
L 432.035041 -321.010374 
L 438.705609 -323.159648 
L 445.015424 -325.242165 
L 451.001514 -326.953589 
L 456.69548 -328.271457 
L 462.124513 -329.487637 
L 467.312175 -331.029012 
L 472.279016 -332.402939 
L 477.043072 -333.914006 
L 481.620253 -334.978232 
L 486.024669 -336.170817 
L 490.268888 -337.452049 
L 494.364156 -338.617413 
L 498.320574 -339.85679 
L 502.14725 -341.105586 
L 505.852424 -341.969116 
L 509.443574 -342.845489 
L 512.927509 -343.675482 
L 516.310446 -344.394342 
L 519.598076 -345.153654 
L 522.795623 -345.759759 
L 525.907892 -346.385301 
L 528.939314 -346.962059 
L 531.893982 -347.594768 
L 534.775688 -348.507075 
L 537.587948 -349.277164 
L 540.334032 -349.90074 
L 543.016981 -350.805271 
L 545.639634 -351.512304 
L 548.204642 -352.094665 
L 550.714485 -352.62389 
L 553.171484 -353.220039 
L 555.57782 -353.815221 
L 557.93554 -354.439235 
L 557.93554 -363.736179 
L 557.93554 -363.736179 
L 555.57782 -363.333007 
L 553.171484 -363.006969 
L 550.714485 -362.654609 
L 548.204642 -362.325071 
L 545.639634 -361.938472 
L 543.016981 -361.600153 
L 540.334032 -361.203457 
L 537.587948 -360.760537 
L 534.775688 -360.468177 
L 531.893982 -360.103617 
L 528.939314 -359.583524 
L 525.907892 -359.002932 
L 522.795623 -358.438607 
L 519.598076 -357.930574 
L 516.310446 -357.376452 
L 512.927509 -356.727215 
L 509.443574 -356.117296 
L 505.852424 -355.568751 
L 502.14725 -354.965351 
L 498.320574 -354.348392 
L 494.364156 -353.716196 
L 490.268888 -353.055006 
L 486.024669 -352.108148 
L 481.620253 -351.423437 
L 477.043072 -350.492044 
L 472.279016 -349.702273 
L 467.312175 -348.771679 
L 462.124513 -347.723437 
L 456.69548 -346.322025 
L 451.001514 -344.995235 
L 445.015424 -343.27252 
L 438.705609 -341.777547 
L 432.035041 -340.104533 
L 424.959956 -338.165849 
L 417.428107 -336.475357 
L 409.37642 -334.372874 
L 400.727786 -332.160279 
L 391.386549 -329.203776 
L 381.232046 -326.161787 
L 370.109046 -323.123944 
L 357.813141 -319.567281 
L 344.067488 -316.030004 
L 328.483953 -313.003725 
L 310.494081 -308.75233 
L 289.216579 -305.899354 
L 263.175021 -302.460059 
L 229.601613 -280.972749 
L 182.282553 -236.904244 
L 101.390085 -138.097504 
z
" style="stroke: #bf5b17; stroke-opacity: 0.05"/>
    </defs>
    <g clip-path="url(#pb986d963bd)">
     <use xlink:href="#m911e14f4e3" x="0" y="389.977813" style="fill: #bf5b17; fill-opacity: 0.05; stroke: #bf5b17; stroke-opacity: 0.05"/>
    </g>
   </g>
   <g id="matplotlib.axis_1">
    <g id="xtick_1">
     <g id="line2d_1">
      <path d="M 101.390085 339.84 
L 101.390085 7.2 
" clip-path="url(#pb986d963bd)" style="fill: none; stroke-dasharray: 1.85,0.8; stroke-dashoffset: 0; stroke: #b0b0b0; stroke-width: 0.5"/>
     </g>
     <g id="line2d_2">
      <defs>
       <path id="m4a1d36ce7d" d="M 0 0 
L 0 3.5 
" style="stroke: #000000; stroke-width: 0.8"/>
      </defs>
      <g>
       <use xlink:href="#m4a1d36ce7d" x="101.390085" y="339.84" style="stroke: #000000; stroke-width: 0.8"/>
      </g>
     </g>
     <g id="text_1">
      <!-- $\mathdefault{10^{0}}$ -->
      <g transform="translate(88.190085 358.237656) scale(0.15 -0.15)">
       <defs>
        <path id="DejaVuSans-31" d="M 794 531 
L 1825 531 
L 1825 4091 
L 703 3866 
L 703 4441 
L 1819 4666 
L 2450 4666 
L 2450 531 
L 3481 531 
L 3481 0 
L 794 0 
L 794 531 
z
" transform="scale(0.015625)"/>
        <path id="DejaVuSans-30" d="M 2034 4250 
Q 1547 4250 1301 3770 
Q 1056 3291 1056 2328 
Q 1056 1369 1301 889 
Q 1547 409 2034 409 
Q 2525 409 2770 889 
Q 3016 1369 3016 2328 
Q 3016 3291 2770 3770 
Q 2525 4250 2034 4250 
z
M 2034 4750 
Q 2819 4750 3233 4129 
Q 3647 3509 3647 2328 
Q 3647 1150 3233 529 
Q 2819 -91 2034 -91 
Q 1250 -91 836 529 
Q 422 1150 422 2328 
Q 422 3509 836 4129 
Q 1250 4750 2034 4750 
z
" transform="scale(0.015625)"/>
       </defs>
       <use xlink:href="#DejaVuSans-31" transform="translate(0 0.765625)"/>
       <use xlink:href="#DejaVuSans-30" transform="translate(63.623047 0.765625)"/>
       <use xlink:href="#DejaVuSans-30" transform="translate(128.203125 39.046875) scale(0.7)"/>
      </g>
     </g>
    </g>
    <g id="xtick_2">
     <g id="line2d_3">
      <path d="M 370.109046 339.84 
L 370.109046 7.2 
" clip-path="url(#pb986d963bd)" style="fill: none; stroke-dasharray: 1.85,0.8; stroke-dashoffset: 0; stroke: #b0b0b0; stroke-width: 0.5"/>
     </g>
     <g id="line2d_4">
      <g>
       <use xlink:href="#m4a1d36ce7d" x="370.109046" y="339.84" style="stroke: #000000; stroke-width: 0.8"/>
      </g>
     </g>
     <g id="text_2">
      <!-- $\mathdefault{10^{1}}$ -->
      <g transform="translate(356.909046 358.237656) scale(0.15 -0.15)">
       <use xlink:href="#DejaVuSans-31" transform="translate(0 0.684375)"/>
       <use xlink:href="#DejaVuSans-30" transform="translate(63.623047 0.684375)"/>
       <use xlink:href="#DejaVuSans-31" transform="translate(128.203125 38.965625) scale(0.7)"/>
      </g>
     </g>
    </g>
    <g id="xtick_3">
     <g id="line2d_5">
      <defs>
       <path id="m294005dc77" d="M 0 0 
L 0 2 
" style="stroke: #000000; stroke-width: 0.6"/>
      </defs>
      <g>
       <use xlink:href="#m294005dc77" x="89.09418" y="339.84" style="stroke: #000000; stroke-width: 0.6"/>
      </g>
     </g>
    </g>
    <g id="xtick_4">
     <g id="line2d_6">
      <g>
       <use xlink:href="#m294005dc77" x="182.282553" y="339.84" style="stroke: #000000; stroke-width: 0.6"/>
      </g>
     </g>
    </g>
    <g id="xtick_5">
     <g id="line2d_7">
      <g>
       <use xlink:href="#m294005dc77" x="229.601613" y="339.84" style="stroke: #000000; stroke-width: 0.6"/>
      </g>
     </g>
    </g>
    <g id="xtick_6">
     <g id="line2d_8">
      <g>
       <use xlink:href="#m294005dc77" x="263.175021" y="339.84" style="stroke: #000000; stroke-width: 0.6"/>
      </g>
     </g>
    </g>
    <g id="xtick_7">
     <g id="line2d_9">
      <g>
       <use xlink:href="#m294005dc77" x="289.216579" y="339.84" style="stroke: #000000; stroke-width: 0.6"/>
      </g>
     </g>
    </g>
    <g id="xtick_8">
     <g id="line2d_10">
      <g>
       <use xlink:href="#m294005dc77" x="310.494081" y="339.84" style="stroke: #000000; stroke-width: 0.6"/>
      </g>
     </g>
    </g>
    <g id="xtick_9">
     <g id="line2d_11">
      <g>
       <use xlink:href="#m294005dc77" x="328.483953" y="339.84" style="stroke: #000000; stroke-width: 0.6"/>
      </g>
     </g>
    </g>
    <g id="xtick_10">
     <g id="line2d_12">
      <g>
       <use xlink:href="#m294005dc77" x="344.067488" y="339.84" style="stroke: #000000; stroke-width: 0.6"/>
      </g>
     </g>
    </g>
    <g id="xtick_11">
     <g id="line2d_13">
      <g>
       <use xlink:href="#m294005dc77" x="357.813141" y="339.84" style="stroke: #000000; stroke-width: 0.6"/>
      </g>
     </g>
    </g>
    <g id="xtick_12">
     <g id="line2d_14">
      <g>
       <use xlink:href="#m294005dc77" x="451.001514" y="339.84" style="stroke: #000000; stroke-width: 0.6"/>
      </g>
     </g>
    </g>
    <g id="xtick_13">
     <g id="line2d_15">
      <g>
       <use xlink:href="#m294005dc77" x="498.320574" y="339.84" style="stroke: #000000; stroke-width: 0.6"/>
      </g>
     </g>
    </g>
    <g id="xtick_14">
     <g id="line2d_16">
      <g>
       <use xlink:href="#m294005dc77" x="531.893982" y="339.84" style="stroke: #000000; stroke-width: 0.6"/>
      </g>
     </g>
    </g>
    <g id="xtick_15">
     <g id="line2d_17">
      <g>
       <use xlink:href="#m294005dc77" x="557.93554" y="339.84" style="stroke: #000000; stroke-width: 0.6"/>
      </g>
     </g>
    </g>
    <g id="xtick_16">
     <g id="line2d_18">
      <g>
       <use xlink:href="#m294005dc77" x="579.213042" y="339.84" style="stroke: #000000; stroke-width: 0.6"/>
      </g>
     </g>
    </g>
    <g id="text_3">
     <!-- Decision Round -->
     <g transform="translate(260.009844 379.034375) scale(0.18 -0.18)">
      <defs>
       <path id="DejaVuSans-44" d="M 1259 4147 
L 1259 519 
L 2022 519 
Q 2988 519 3436 956 
Q 3884 1394 3884 2338 
Q 3884 3275 3436 3711 
Q 2988 4147 2022 4147 
L 1259 4147 
z
M 628 4666 
L 1925 4666 
Q 3281 4666 3915 4102 
Q 4550 3538 4550 2338 
Q 4550 1131 3912 565 
Q 3275 0 1925 0 
L 628 0 
L 628 4666 
z
" transform="scale(0.015625)"/>
       <path id="DejaVuSans-65" d="M 3597 1894 
L 3597 1613 
L 953 1613 
Q 991 1019 1311 708 
Q 1631 397 2203 397 
Q 2534 397 2845 478 
Q 3156 559 3463 722 
L 3463 178 
Q 3153 47 2828 -22 
Q 2503 -91 2169 -91 
Q 1331 -91 842 396 
Q 353 884 353 1716 
Q 353 2575 817 3079 
Q 1281 3584 2069 3584 
Q 2775 3584 3186 3129 
Q 3597 2675 3597 1894 
z
M 3022 2063 
Q 3016 2534 2758 2815 
Q 2500 3097 2075 3097 
Q 1594 3097 1305 2825 
Q 1016 2553 972 2059 
L 3022 2063 
z
" transform="scale(0.015625)"/>
       <path id="DejaVuSans-63" d="M 3122 3366 
L 3122 2828 
Q 2878 2963 2633 3030 
Q 2388 3097 2138 3097 
Q 1578 3097 1268 2742 
Q 959 2388 959 1747 
Q 959 1106 1268 751 
Q 1578 397 2138 397 
Q 2388 397 2633 464 
Q 2878 531 3122 666 
L 3122 134 
Q 2881 22 2623 -34 
Q 2366 -91 2075 -91 
Q 1284 -91 818 406 
Q 353 903 353 1747 
Q 353 2603 823 3093 
Q 1294 3584 2113 3584 
Q 2378 3584 2631 3529 
Q 2884 3475 3122 3366 
z
" transform="scale(0.015625)"/>
       <path id="DejaVuSans-69" d="M 603 3500 
L 1178 3500 
L 1178 0 
L 603 0 
L 603 3500 
z
M 603 4863 
L 1178 4863 
L 1178 4134 
L 603 4134 
L 603 4863 
z
" transform="scale(0.015625)"/>
       <path id="DejaVuSans-73" d="M 2834 3397 
L 2834 2853 
Q 2591 2978 2328 3040 
Q 2066 3103 1784 3103 
Q 1356 3103 1142 2972 
Q 928 2841 928 2578 
Q 928 2378 1081 2264 
Q 1234 2150 1697 2047 
L 1894 2003 
Q 2506 1872 2764 1633 
Q 3022 1394 3022 966 
Q 3022 478 2636 193 
Q 2250 -91 1575 -91 
Q 1294 -91 989 -36 
Q 684 19 347 128 
L 347 722 
Q 666 556 975 473 
Q 1284 391 1588 391 
Q 1994 391 2212 530 
Q 2431 669 2431 922 
Q 2431 1156 2273 1281 
Q 2116 1406 1581 1522 
L 1381 1569 
Q 847 1681 609 1914 
Q 372 2147 372 2553 
Q 372 3047 722 3315 
Q 1072 3584 1716 3584 
Q 2034 3584 2315 3537 
Q 2597 3491 2834 3397 
z
" transform="scale(0.015625)"/>
       <path id="DejaVuSans-6f" d="M 1959 3097 
Q 1497 3097 1228 2736 
Q 959 2375 959 1747 
Q 959 1119 1226 758 
Q 1494 397 1959 397 
Q 2419 397 2687 759 
Q 2956 1122 2956 1747 
Q 2956 2369 2687 2733 
Q 2419 3097 1959 3097 
z
M 1959 3584 
Q 2709 3584 3137 3096 
Q 3566 2609 3566 1747 
Q 3566 888 3137 398 
Q 2709 -91 1959 -91 
Q 1206 -91 779 398 
Q 353 888 353 1747 
Q 353 2609 779 3096 
Q 1206 3584 1959 3584 
z
" transform="scale(0.015625)"/>
       <path id="DejaVuSans-6e" d="M 3513 2113 
L 3513 0 
L 2938 0 
L 2938 2094 
Q 2938 2591 2744 2837 
Q 2550 3084 2163 3084 
Q 1697 3084 1428 2787 
Q 1159 2491 1159 1978 
L 1159 0 
L 581 0 
L 581 3500 
L 1159 3500 
L 1159 2956 
Q 1366 3272 1645 3428 
Q 1925 3584 2291 3584 
Q 2894 3584 3203 3211 
Q 3513 2838 3513 2113 
z
" transform="scale(0.015625)"/>
       <path id="DejaVuSans-20" transform="scale(0.015625)"/>
       <path id="DejaVuSans-52" d="M 2841 2188 
Q 3044 2119 3236 1894 
Q 3428 1669 3622 1275 
L 4263 0 
L 3584 0 
L 2988 1197 
Q 2756 1666 2539 1819 
Q 2322 1972 1947 1972 
L 1259 1972 
L 1259 0 
L 628 0 
L 628 4666 
L 2053 4666 
Q 2853 4666 3247 4331 
Q 3641 3997 3641 3322 
Q 3641 2881 3436 2590 
Q 3231 2300 2841 2188 
z
M 1259 4147 
L 1259 2491 
L 2053 2491 
Q 2509 2491 2742 2702 
Q 2975 2913 2975 3322 
Q 2975 3731 2742 3939 
Q 2509 4147 2053 4147 
L 1259 4147 
z
" transform="scale(0.015625)"/>
       <path id="DejaVuSans-75" d="M 544 1381 
L 544 3500 
L 1119 3500 
L 1119 1403 
Q 1119 906 1312 657 
Q 1506 409 1894 409 
Q 2359 409 2629 706 
Q 2900 1003 2900 1516 
L 2900 3500 
L 3475 3500 
L 3475 0 
L 2900 0 
L 2900 538 
Q 2691 219 2414 64 
Q 2138 -91 1772 -91 
Q 1169 -91 856 284 
Q 544 659 544 1381 
z
M 1991 3584 
L 1991 3584 
z
" transform="scale(0.015625)"/>
       <path id="DejaVuSans-64" d="M 2906 2969 
L 2906 4863 
L 3481 4863 
L 3481 0 
L 2906 0 
L 2906 525 
Q 2725 213 2448 61 
Q 2172 -91 1784 -91 
Q 1150 -91 751 415 
Q 353 922 353 1747 
Q 353 2572 751 3078 
Q 1150 3584 1784 3584 
Q 2172 3584 2448 3432 
Q 2725 3281 2906 2969 
z
M 947 1747 
Q 947 1113 1208 752 
Q 1469 391 1925 391 
Q 2381 391 2643 752 
Q 2906 1113 2906 1747 
Q 2906 2381 2643 2742 
Q 2381 3103 1925 3103 
Q 1469 3103 1208 2742 
Q 947 2381 947 1747 
z
" transform="scale(0.015625)"/>
      </defs>
      <use xlink:href="#DejaVuSans-44"/>
      <use xlink:href="#DejaVuSans-65" x="77.001953"/>
      <use xlink:href="#DejaVuSans-63" x="138.525391"/>
      <use xlink:href="#DejaVuSans-69" x="193.505859"/>
      <use xlink:href="#DejaVuSans-73" x="221.289062"/>
      <use xlink:href="#DejaVuSans-69" x="273.388672"/>
      <use xlink:href="#DejaVuSans-6f" x="301.171875"/>
      <use xlink:href="#DejaVuSans-6e" x="362.353516"/>
      <use xlink:href="#DejaVuSans-20" x="425.732422"/>
      <use xlink:href="#DejaVuSans-52" x="457.519531"/>
      <use xlink:href="#DejaVuSans-6f" x="522.501953"/>
      <use xlink:href="#DejaVuSans-75" x="583.683594"/>
      <use xlink:href="#DejaVuSans-6e" x="647.0625"/>
      <use xlink:href="#DejaVuSans-64" x="710.441406"/>
     </g>
    </g>
   </g>
   <g id="matplotlib.axis_2">
    <g id="ytick_1">
     <g id="line2d_19">
      <path d="M 78.562813 333.973775 
L 580.762812 333.973775 
" clip-path="url(#pb986d963bd)" style="fill: none; stroke-dasharray: 1.85,0.8; stroke-dashoffset: 0; stroke: #b0b0b0; stroke-width: 0.5"/>
     </g>
     <g id="line2d_20">
      <defs>
       <path id="m5ba1a2690f" d="M 0 0 
L -3.5 0 
" style="stroke: #000000; stroke-width: 0.8"/>
      </defs>
      <g>
       <use xlink:href="#m5ba1a2690f" x="78.562813" y="333.973775" style="stroke: #000000; stroke-width: 0.8"/>
      </g>
     </g>
     <g id="text_4">
      <!-- 0.525 -->
      <g transform="translate(28.620625 339.672604) scale(0.15 -0.15)">
       <defs>
        <path id="DejaVuSans-2e" d="M 684 794 
L 1344 794 
L 1344 0 
L 684 0 
L 684 794 
z
" transform="scale(0.015625)"/>
        <path id="DejaVuSans-35" d="M 691 4666 
L 3169 4666 
L 3169 4134 
L 1269 4134 
L 1269 2991 
Q 1406 3038 1543 3061 
Q 1681 3084 1819 3084 
Q 2600 3084 3056 2656 
Q 3513 2228 3513 1497 
Q 3513 744 3044 326 
Q 2575 -91 1722 -91 
Q 1428 -91 1123 -41 
Q 819 9 494 109 
L 494 744 
Q 775 591 1075 516 
Q 1375 441 1709 441 
Q 2250 441 2565 725 
Q 2881 1009 2881 1497 
Q 2881 1984 2565 2268 
Q 2250 2553 1709 2553 
Q 1456 2553 1204 2497 
Q 953 2441 691 2322 
L 691 4666 
z
" transform="scale(0.015625)"/>
        <path id="DejaVuSans-32" d="M 1228 531 
L 3431 531 
L 3431 0 
L 469 0 
L 469 531 
Q 828 903 1448 1529 
Q 2069 2156 2228 2338 
Q 2531 2678 2651 2914 
Q 2772 3150 2772 3378 
Q 2772 3750 2511 3984 
Q 2250 4219 1831 4219 
Q 1534 4219 1204 4116 
Q 875 4013 500 3803 
L 500 4441 
Q 881 4594 1212 4672 
Q 1544 4750 1819 4750 
Q 2544 4750 2975 4387 
Q 3406 4025 3406 3419 
Q 3406 3131 3298 2873 
Q 3191 2616 2906 2266 
Q 2828 2175 2409 1742 
Q 1991 1309 1228 531 
z
" transform="scale(0.015625)"/>
       </defs>
       <use xlink:href="#DejaVuSans-30"/>
       <use xlink:href="#DejaVuSans-2e" x="63.623047"/>
       <use xlink:href="#DejaVuSans-35" x="95.410156"/>
       <use xlink:href="#DejaVuSans-32" x="159.033203"/>
       <use xlink:href="#DejaVuSans-35" x="222.65625"/>
      </g>
     </g>
    </g>
    <g id="ytick_2">
     <g id="line2d_21">
      <path d="M 78.562813 295.352639 
L 580.762812 295.352639 
" clip-path="url(#pb986d963bd)" style="fill: none; stroke-dasharray: 1.85,0.8; stroke-dashoffset: 0; stroke: #b0b0b0; stroke-width: 0.5"/>
     </g>
     <g id="line2d_22">
      <g>
       <use xlink:href="#m5ba1a2690f" x="78.562813" y="295.352639" style="stroke: #000000; stroke-width: 0.8"/>
      </g>
     </g>
     <g id="text_5">
      <!-- 0.550 -->
      <g transform="translate(28.620625 301.051467) scale(0.15 -0.15)">
       <use xlink:href="#DejaVuSans-30"/>
       <use xlink:href="#DejaVuSans-2e" x="63.623047"/>
       <use xlink:href="#DejaVuSans-35" x="95.410156"/>
       <use xlink:href="#DejaVuSans-35" x="159.033203"/>
       <use xlink:href="#DejaVuSans-30" x="222.65625"/>
      </g>
     </g>
    </g>
    <g id="ytick_3">
     <g id="line2d_23">
      <path d="M 78.562813 256.731503 
L 580.762812 256.731503 
" clip-path="url(#pb986d963bd)" style="fill: none; stroke-dasharray: 1.85,0.8; stroke-dashoffset: 0; stroke: #b0b0b0; stroke-width: 0.5"/>
     </g>
     <g id="line2d_24">
      <g>
       <use xlink:href="#m5ba1a2690f" x="78.562813" y="256.731503" style="stroke: #000000; stroke-width: 0.8"/>
      </g>
     </g>
     <g id="text_6">
      <!-- 0.575 -->
      <g transform="translate(28.620625 262.430331) scale(0.15 -0.15)">
       <defs>
        <path id="DejaVuSans-37" d="M 525 4666 
L 3525 4666 
L 3525 4397 
L 1831 0 
L 1172 0 
L 2766 4134 
L 525 4134 
L 525 4666 
z
" transform="scale(0.015625)"/>
       </defs>
       <use xlink:href="#DejaVuSans-30"/>
       <use xlink:href="#DejaVuSans-2e" x="63.623047"/>
       <use xlink:href="#DejaVuSans-35" x="95.410156"/>
       <use xlink:href="#DejaVuSans-37" x="159.033203"/>
       <use xlink:href="#DejaVuSans-35" x="222.65625"/>
      </g>
     </g>
    </g>
    <g id="ytick_4">
     <g id="line2d_25">
      <path d="M 78.562813 218.110366 
L 580.762812 218.110366 
" clip-path="url(#pb986d963bd)" style="fill: none; stroke-dasharray: 1.85,0.8; stroke-dashoffset: 0; stroke: #b0b0b0; stroke-width: 0.5"/>
     </g>
     <g id="line2d_26">
      <g>
       <use xlink:href="#m5ba1a2690f" x="78.562813" y="218.110366" style="stroke: #000000; stroke-width: 0.8"/>
      </g>
     </g>
     <g id="text_7">
      <!-- 0.600 -->
      <g transform="translate(28.620625 223.809194) scale(0.15 -0.15)">
       <defs>
        <path id="DejaVuSans-36" d="M 2113 2584 
Q 1688 2584 1439 2293 
Q 1191 2003 1191 1497 
Q 1191 994 1439 701 
Q 1688 409 2113 409 
Q 2538 409 2786 701 
Q 3034 994 3034 1497 
Q 3034 2003 2786 2293 
Q 2538 2584 2113 2584 
z
M 3366 4563 
L 3366 3988 
Q 3128 4100 2886 4159 
Q 2644 4219 2406 4219 
Q 1781 4219 1451 3797 
Q 1122 3375 1075 2522 
Q 1259 2794 1537 2939 
Q 1816 3084 2150 3084 
Q 2853 3084 3261 2657 
Q 3669 2231 3669 1497 
Q 3669 778 3244 343 
Q 2819 -91 2113 -91 
Q 1303 -91 875 529 
Q 447 1150 447 2328 
Q 447 3434 972 4092 
Q 1497 4750 2381 4750 
Q 2619 4750 2861 4703 
Q 3103 4656 3366 4563 
z
" transform="scale(0.015625)"/>
       </defs>
       <use xlink:href="#DejaVuSans-30"/>
       <use xlink:href="#DejaVuSans-2e" x="63.623047"/>
       <use xlink:href="#DejaVuSans-36" x="95.410156"/>
       <use xlink:href="#DejaVuSans-30" x="159.033203"/>
       <use xlink:href="#DejaVuSans-30" x="222.65625"/>
      </g>
     </g>
    </g>
    <g id="ytick_5">
     <g id="line2d_27">
      <path d="M 78.562813 179.48923 
L 580.762812 179.48923 
" clip-path="url(#pb986d963bd)" style="fill: none; stroke-dasharray: 1.85,0.8; stroke-dashoffset: 0; stroke: #b0b0b0; stroke-width: 0.5"/>
     </g>
     <g id="line2d_28">
      <g>
       <use xlink:href="#m5ba1a2690f" x="78.562813" y="179.48923" style="stroke: #000000; stroke-width: 0.8"/>
      </g>
     </g>
     <g id="text_8">
      <!-- 0.625 -->
      <g transform="translate(28.620625 185.188058) scale(0.15 -0.15)">
       <use xlink:href="#DejaVuSans-30"/>
       <use xlink:href="#DejaVuSans-2e" x="63.623047"/>
       <use xlink:href="#DejaVuSans-36" x="95.410156"/>
       <use xlink:href="#DejaVuSans-32" x="159.033203"/>
       <use xlink:href="#DejaVuSans-35" x="222.65625"/>
      </g>
     </g>
    </g>
    <g id="ytick_6">
     <g id="line2d_29">
      <path d="M 78.562813 140.868093 
L 580.762812 140.868093 
" clip-path="url(#pb986d963bd)" style="fill: none; stroke-dasharray: 1.85,0.8; stroke-dashoffset: 0; stroke: #b0b0b0; stroke-width: 0.5"/>
     </g>
     <g id="line2d_30">
      <g>
       <use xlink:href="#m5ba1a2690f" x="78.562813" y="140.868093" style="stroke: #000000; stroke-width: 0.8"/>
      </g>
     </g>
     <g id="text_9">
      <!-- 0.650 -->
      <g transform="translate(28.620625 146.566921) scale(0.15 -0.15)">
       <use xlink:href="#DejaVuSans-30"/>
       <use xlink:href="#DejaVuSans-2e" x="63.623047"/>
       <use xlink:href="#DejaVuSans-36" x="95.410156"/>
       <use xlink:href="#DejaVuSans-35" x="159.033203"/>
       <use xlink:href="#DejaVuSans-30" x="222.65625"/>
      </g>
     </g>
    </g>
    <g id="ytick_7">
     <g id="line2d_31">
      <path d="M 78.562813 102.246957 
L 580.762812 102.246957 
" clip-path="url(#pb986d963bd)" style="fill: none; stroke-dasharray: 1.85,0.8; stroke-dashoffset: 0; stroke: #b0b0b0; stroke-width: 0.5"/>
     </g>
     <g id="line2d_32">
      <g>
       <use xlink:href="#m5ba1a2690f" x="78.562813" y="102.246957" style="stroke: #000000; stroke-width: 0.8"/>
      </g>
     </g>
     <g id="text_10">
      <!-- 0.675 -->
      <g transform="translate(28.620625 107.945785) scale(0.15 -0.15)">
       <use xlink:href="#DejaVuSans-30"/>
       <use xlink:href="#DejaVuSans-2e" x="63.623047"/>
       <use xlink:href="#DejaVuSans-36" x="95.410156"/>
       <use xlink:href="#DejaVuSans-37" x="159.033203"/>
       <use xlink:href="#DejaVuSans-35" x="222.65625"/>
      </g>
     </g>
    </g>
    <g id="ytick_8">
     <g id="line2d_33">
      <path d="M 78.562813 63.62582 
L 580.762812 63.62582 
" clip-path="url(#pb986d963bd)" style="fill: none; stroke-dasharray: 1.85,0.8; stroke-dashoffset: 0; stroke: #b0b0b0; stroke-width: 0.5"/>
     </g>
     <g id="line2d_34">
      <g>
       <use xlink:href="#m5ba1a2690f" x="78.562813" y="63.62582" style="stroke: #000000; stroke-width: 0.8"/>
      </g>
     </g>
     <g id="text_11">
      <!-- 0.700 -->
      <g transform="translate(28.620625 69.324648) scale(0.15 -0.15)">
       <use xlink:href="#DejaVuSans-30"/>
       <use xlink:href="#DejaVuSans-2e" x="63.623047"/>
       <use xlink:href="#DejaVuSans-37" x="95.410156"/>
       <use xlink:href="#DejaVuSans-30" x="159.033203"/>
       <use xlink:href="#DejaVuSans-30" x="222.65625"/>
      </g>
     </g>
    </g>
    <g id="ytick_9">
     <g id="line2d_35">
      <path d="M 78.562813 25.004684 
L 580.762812 25.004684 
" clip-path="url(#pb986d963bd)" style="fill: none; stroke-dasharray: 1.85,0.8; stroke-dashoffset: 0; stroke: #b0b0b0; stroke-width: 0.5"/>
     </g>
     <g id="line2d_36">
      <g>
       <use xlink:href="#m5ba1a2690f" x="78.562813" y="25.004684" style="stroke: #000000; stroke-width: 0.8"/>
      </g>
     </g>
     <g id="text_12">
      <!-- 0.725 -->
      <g transform="translate(28.620625 30.703512) scale(0.15 -0.15)">
       <use xlink:href="#DejaVuSans-30"/>
       <use xlink:href="#DejaVuSans-2e" x="63.623047"/>
       <use xlink:href="#DejaVuSans-37" x="95.410156"/>
       <use xlink:href="#DejaVuSans-32" x="159.033203"/>
       <use xlink:href="#DejaVuSans-35" x="222.65625"/>
      </g>
     </g>
    </g>
    <g id="text_13">
     <!-- Normalized Performance -->
     <g transform="translate(20.877188 284.447812) rotate(-90) scale(0.18 -0.18)">
      <defs>
       <path id="DejaVuSans-4e" d="M 628 4666 
L 1478 4666 
L 3547 763 
L 3547 4666 
L 4159 4666 
L 4159 0 
L 3309 0 
L 1241 3903 
L 1241 0 
L 628 0 
L 628 4666 
z
" transform="scale(0.015625)"/>
       <path id="DejaVuSans-72" d="M 2631 2963 
Q 2534 3019 2420 3045 
Q 2306 3072 2169 3072 
Q 1681 3072 1420 2755 
Q 1159 2438 1159 1844 
L 1159 0 
L 581 0 
L 581 3500 
L 1159 3500 
L 1159 2956 
Q 1341 3275 1631 3429 
Q 1922 3584 2338 3584 
Q 2397 3584 2469 3576 
Q 2541 3569 2628 3553 
L 2631 2963 
z
" transform="scale(0.015625)"/>
       <path id="DejaVuSans-6d" d="M 3328 2828 
Q 3544 3216 3844 3400 
Q 4144 3584 4550 3584 
Q 5097 3584 5394 3201 
Q 5691 2819 5691 2113 
L 5691 0 
L 5113 0 
L 5113 2094 
Q 5113 2597 4934 2840 
Q 4756 3084 4391 3084 
Q 3944 3084 3684 2787 
Q 3425 2491 3425 1978 
L 3425 0 
L 2847 0 
L 2847 2094 
Q 2847 2600 2669 2842 
Q 2491 3084 2119 3084 
Q 1678 3084 1418 2786 
Q 1159 2488 1159 1978 
L 1159 0 
L 581 0 
L 581 3500 
L 1159 3500 
L 1159 2956 
Q 1356 3278 1631 3431 
Q 1906 3584 2284 3584 
Q 2666 3584 2933 3390 
Q 3200 3197 3328 2828 
z
" transform="scale(0.015625)"/>
       <path id="DejaVuSans-61" d="M 2194 1759 
Q 1497 1759 1228 1600 
Q 959 1441 959 1056 
Q 959 750 1161 570 
Q 1363 391 1709 391 
Q 2188 391 2477 730 
Q 2766 1069 2766 1631 
L 2766 1759 
L 2194 1759 
z
M 3341 1997 
L 3341 0 
L 2766 0 
L 2766 531 
Q 2569 213 2275 61 
Q 1981 -91 1556 -91 
Q 1019 -91 701 211 
Q 384 513 384 1019 
Q 384 1609 779 1909 
Q 1175 2209 1959 2209 
L 2766 2209 
L 2766 2266 
Q 2766 2663 2505 2880 
Q 2244 3097 1772 3097 
Q 1472 3097 1187 3025 
Q 903 2953 641 2809 
L 641 3341 
Q 956 3463 1253 3523 
Q 1550 3584 1831 3584 
Q 2591 3584 2966 3190 
Q 3341 2797 3341 1997 
z
" transform="scale(0.015625)"/>
       <path id="DejaVuSans-6c" d="M 603 4863 
L 1178 4863 
L 1178 0 
L 603 0 
L 603 4863 
z
" transform="scale(0.015625)"/>
       <path id="DejaVuSans-7a" d="M 353 3500 
L 3084 3500 
L 3084 2975 
L 922 459 
L 3084 459 
L 3084 0 
L 275 0 
L 275 525 
L 2438 3041 
L 353 3041 
L 353 3500 
z
" transform="scale(0.015625)"/>
       <path id="DejaVuSans-50" d="M 1259 4147 
L 1259 2394 
L 2053 2394 
Q 2494 2394 2734 2622 
Q 2975 2850 2975 3272 
Q 2975 3691 2734 3919 
Q 2494 4147 2053 4147 
L 1259 4147 
z
M 628 4666 
L 2053 4666 
Q 2838 4666 3239 4311 
Q 3641 3956 3641 3272 
Q 3641 2581 3239 2228 
Q 2838 1875 2053 1875 
L 1259 1875 
L 1259 0 
L 628 0 
L 628 4666 
z
" transform="scale(0.015625)"/>
       <path id="DejaVuSans-66" d="M 2375 4863 
L 2375 4384 
L 1825 4384 
Q 1516 4384 1395 4259 
Q 1275 4134 1275 3809 
L 1275 3500 
L 2222 3500 
L 2222 3053 
L 1275 3053 
L 1275 0 
L 697 0 
L 697 3053 
L 147 3053 
L 147 3500 
L 697 3500 
L 697 3744 
Q 697 4328 969 4595 
Q 1241 4863 1831 4863 
L 2375 4863 
z
" transform="scale(0.015625)"/>
      </defs>
      <use xlink:href="#DejaVuSans-4e"/>
      <use xlink:href="#DejaVuSans-6f" x="74.804688"/>
      <use xlink:href="#DejaVuSans-72" x="135.986328"/>
      <use xlink:href="#DejaVuSans-6d" x="175.349609"/>
      <use xlink:href="#DejaVuSans-61" x="272.761719"/>
      <use xlink:href="#DejaVuSans-6c" x="334.041016"/>
      <use xlink:href="#DejaVuSans-69" x="361.824219"/>
      <use xlink:href="#DejaVuSans-7a" x="389.607422"/>
      <use xlink:href="#DejaVuSans-65" x="442.097656"/>
      <use xlink:href="#DejaVuSans-64" x="503.621094"/>
      <use xlink:href="#DejaVuSans-20" x="567.097656"/>
      <use xlink:href="#DejaVuSans-50" x="598.884766"/>
      <use xlink:href="#DejaVuSans-65" x="655.5625"/>
      <use xlink:href="#DejaVuSans-72" x="717.085938"/>
      <use xlink:href="#DejaVuSans-66" x="758.199219"/>
      <use xlink:href="#DejaVuSans-6f" x="793.404297"/>
      <use xlink:href="#DejaVuSans-72" x="854.585938"/>
      <use xlink:href="#DejaVuSans-6d" x="893.949219"/>
      <use xlink:href="#DejaVuSans-61" x="991.361328"/>
      <use xlink:href="#DejaVuSans-6e" x="1052.640625"/>
      <use xlink:href="#DejaVuSans-63" x="1116.019531"/>
      <use xlink:href="#DejaVuSans-65" x="1171"/>
     </g>
    </g>
   </g>
   <g id="line2d_37">
    <path d="M 101.390085 265.22892 
L 182.282553 214.593876 
L 229.601613 185.818223 
L 263.175021 169.057812 
L 289.216579 158.878344 
L 310.494081 150.384453 
L 328.483953 142.990023 
L 344.067488 136.097026 
L 357.813141 131.320943 
L 370.109046 126.334389 
L 381.232046 122.659983 
L 391.386549 118.640375 
L 400.727786 114.988004 
L 409.37642 111.843615 
L 417.428107 108.804577 
L 424.959956 106.574732 
L 432.035041 104.66392 
L 438.705609 102.239918 
L 445.015424 100.414343 
L 451.001514 99.062901 
L 456.69548 97.614429 
L 462.124513 96.578597 
L 467.312175 95.269943 
L 472.279016 93.641854 
L 477.043072 91.90561 
L 481.620253 91.023167 
L 486.024669 89.598965 
L 490.268888 88.587191 
L 494.364156 87.21597 
L 498.320574 86.144732 
L 502.14725 85.015082 
L 505.852424 84.030275 
L 509.443574 83.153018 
L 512.927509 82.183257 
L 516.310446 81.293762 
L 519.598076 80.254457 
L 522.795623 79.048512 
L 525.907892 78.108795 
L 528.939314 77.779373 
L 531.893982 76.782037 
L 534.775688 76.094569 
L 537.587948 75.542378 
L 540.334032 75.040236 
L 543.016981 74.256277 
L 545.639634 73.533084 
L 548.204642 72.844976 
L 550.714485 72.127798 
L 553.171484 71.393519 
L 555.57782 70.812351 
L 557.93554 70.423268 
" clip-path="url(#pb986d963bd)" style="fill: none; stroke: #7fc97f; stroke-width: 3; stroke-linecap: square"/>
   </g>
   <g id="line2d_38">
    <path d="M 101.390085 253.81109 
L 182.282553 179.853855 
L 229.601613 154.638298 
L 263.175021 153.291694 
L 289.216579 151.443994 
L 310.494081 150.181233 
L 328.483953 149.949623 
L 344.067488 141.700507 
L 357.813141 139.605631 
L 370.109046 139.325487 
L 381.232046 135.036481 
L 391.386549 118.303351 
L 400.727786 111.292267 
L 409.37642 109.960809 
L 417.428107 109.945154 
L 424.959956 108.789768 
L 432.035041 108.593063 
L 438.705609 96.669909 
L 445.015424 96.606366 
L 451.001514 96.428105 
L 456.69548 95.993542 
L 462.124513 91.3502 
L 467.312175 91.315074 
L 472.279016 91.30696 
L 477.043072 91.305582 
L 481.620253 91.22484 
L 486.024669 85.880261 
L 490.268888 84.049233 
L 494.364156 83.907208 
L 498.320574 83.542773 
L 502.14725 82.172406 
L 505.852424 82.146595 
L 509.443574 80.803916 
L 512.927509 80.713907 
L 516.310446 80.37983 
L 519.598076 76.873572 
L 522.795623 76.658347 
L 525.907892 76.5989 
L 528.939314 76.304537 
L 531.893982 71.690272 
L 534.775688 71.690193 
L 537.587948 71.569548 
L 540.334032 69.147012 
L 543.016981 69.076147 
L 545.639634 68.968417 
L 548.204642 68.961534 
L 550.714485 68.222603 
L 553.171484 68.189391 
L 555.57782 67.360264 
L 557.93554 67.359002 
" clip-path="url(#pb986d963bd)" style="fill: none; stroke: #f0027f; stroke-width: 3; stroke-linecap: square"/>
   </g>
   <g id="line2d_39">
    <path d="M 101.390085 253.81109 
L 182.282553 179.853855 
L 229.601613 154.638298 
L 263.175021 153.291694 
L 289.216579 151.443994 
L 310.494081 150.181233 
L 328.483953 143.736827 
L 344.067488 130.710281 
L 357.813141 123.361803 
L 370.109046 117.871373 
L 381.232046 112.317647 
L 391.386549 101.95249 
L 400.727786 95.582476 
L 409.37642 92.282457 
L 417.428107 89.856403 
L 424.959956 86.772585 
L 432.035041 84.236036 
L 438.705609 78.792109 
L 445.015424 75.688092 
L 451.001514 72.206844 
L 456.69548 68.896489 
L 462.124513 66.14109 
L 467.312175 63.625493 
L 472.279016 61.685586 
L 477.043072 59.78843 
L 481.620253 58.086651 
L 486.024669 56.695758 
L 490.268888 55.385282 
L 494.364156 54.094714 
L 498.320574 52.654206 
L 502.14725 51.357689 
L 505.852424 50.062492 
L 509.443574 48.905861 
L 512.927509 47.891491 
L 516.310446 47.019032 
L 519.598076 46.290906 
L 522.795623 45.489326 
L 525.907892 44.751957 
L 528.939314 44.101158 
L 531.893982 43.368629 
L 534.775688 42.619047 
L 537.587948 42.111835 
L 540.334032 41.615517 
L 543.016981 41.096838 
L 545.639634 40.466791 
L 548.204642 39.960348 
L 550.714485 39.412762 
L 553.171484 38.831479 
L 555.57782 38.197516 
L 557.93554 37.67597 
" clip-path="url(#pb986d963bd)" style="fill: none; stroke: #386cb0; stroke-width: 3; stroke-linecap: square"/>
   </g>
   <g id="line2d_40">
    <path d="M 101.390085 143.735789 
L 182.282553 143.735789 
L 229.601613 143.735789 
L 263.175021 143.735789 
L 289.216579 143.735789 
L 310.494081 143.735789 
L 328.483953 143.735789 
L 344.067488 143.735789 
L 357.813141 143.735789 
L 370.109046 143.735789 
L 381.232046 143.735789 
L 391.386549 143.735789 
L 400.727786 143.735789 
L 409.37642 143.735789 
L 417.428107 143.735789 
L 424.959956 143.735789 
L 432.035041 143.735789 
L 438.705609 143.735789 
L 445.015424 143.735789 
L 451.001514 143.735789 
L 456.69548 143.735789 
L 462.124513 143.735789 
L 467.312175 143.735789 
L 472.279016 143.735789 
L 477.043072 143.735789 
L 481.620253 143.735789 
L 486.024669 143.735789 
L 490.268888 143.735789 
L 494.364156 143.735789 
L 498.320574 143.735789 
L 502.14725 143.735789 
L 505.852424 143.735789 
L 509.443574 143.735789 
L 512.927509 143.735789 
L 516.310446 143.735789 
L 519.598076 143.735789 
L 522.795623 143.735789 
L 525.907892 143.735789 
L 528.939314 143.735789 
L 531.893982 143.735789 
L 534.775688 143.735789 
L 537.587948 143.735789 
L 540.334032 143.735789 
L 543.016981 143.735789 
L 545.639634 143.735789 
L 548.204642 143.735789 
L 550.714485 143.735789 
L 553.171484 143.735789 
L 555.57782 143.735789 
L 557.93554 143.735789 
" clip-path="url(#pb986d963bd)" style="fill: none; stroke-dasharray: 11.1,4.8; stroke-dashoffset: 0; stroke: #fdc086; stroke-width: 3"/>
   </g>
   <g id="line2d_41">
    <path d="M 101.390085 134.335786 
L 182.282553 103.992066 
L 229.601613 86.547089 
L 263.175021 75.485691 
L 289.216579 68.362339 
L 310.494081 63.191154 
L 328.483953 58.464393 
L 344.067488 54.27562 
L 357.813141 52.021885 
L 370.109046 49.79003 
L 381.232046 47.824118 
L 391.386549 46.118993 
L 400.727786 44.52161 
L 409.37642 42.981636 
L 417.428107 41.667745 
L 424.959956 40.406057 
L 432.035041 39.234288 
L 438.705609 38.075135 
L 445.015424 37.019628 
L 451.001514 36.041332 
L 456.69548 35.118804 
L 462.124513 34.247231 
L 467.312175 33.412578 
L 472.279016 32.593327 
L 477.043072 32.069749 
L 481.620253 31.563296 
L 486.024669 31.091342 
L 490.268888 30.646105 
L 494.364156 30.204433 
L 498.320574 29.784271 
L 502.14725 29.368379 
L 505.852424 28.963866 
L 509.443574 28.562811 
L 512.927509 28.179852 
L 516.310446 27.813357 
L 519.598076 27.449654 
L 522.795623 27.098493 
L 525.907892 26.75156 
L 528.939314 26.417148 
L 531.893982 26.08963 
L 534.775688 25.773142 
L 537.587948 25.467776 
L 540.334032 25.163006 
L 543.016981 24.87288 
L 545.639634 24.589173 
L 548.204642 24.306428 
L 550.714485 24.031895 
L 553.171484 23.780869 
L 555.57782 23.602304 
L 557.93554 23.428489 
" clip-path="url(#pb986d963bd)" style="fill: none; stroke-dasharray: 11.1,4.8; stroke-dashoffset: 0; stroke: #666666; stroke-width: 3"/>
   </g>
   <g id="line2d_42">
    <path d="M 101.390085 253.81109 
L 182.282553 160.991235 
L 229.601613 122.706409 
L 263.175021 95.668139 
L 289.216579 90.935191 
L 310.494081 87.845829 
L 328.483953 83.591255 
L 344.067488 80.912921 
L 357.813141 78.191361 
L 370.109046 75.115371 
L 381.232046 72.596895 
L 391.386549 69.691923 
L 400.727786 67.143537 
L 409.37642 65.236243 
L 417.428107 63.192191 
L 424.959956 61.330766 
L 432.035041 59.420359 
L 438.705609 57.509215 
L 445.015424 55.72047 
L 451.001514 54.0034 
L 456.69548 52.681071 
L 462.124513 51.372275 
L 467.312175 50.077467 
L 472.279016 48.925206 
L 477.043072 47.774788 
L 481.620253 46.776978 
L 486.024669 45.83833 
L 490.268888 44.724285 
L 494.364156 43.811008 
L 498.320574 42.875221 
L 502.14725 41.942344 
L 505.852424 41.208879 
L 509.443574 40.49642 
L 512.927509 39.776464 
L 516.310446 39.092415 
L 519.598076 38.435699 
L 522.795623 37.87863 
L 525.907892 37.283696 
L 528.939314 36.705021 
L 531.893982 36.12862 
L 534.775688 35.490186 
L 537.587948 34.958962 
L 540.334032 34.425714 
L 543.016981 33.775101 
L 545.639634 33.252425 
L 548.204642 32.767945 
L 550.714485 32.338563 
L 553.171484 31.864308 
L 555.57782 31.403698 
L 557.93554 30.890106 
" clip-path="url(#pb986d963bd)" style="fill: none; stroke: #bf5b17; stroke-width: 3; stroke-linecap: square"/>
   </g>
   <g id="patch_3">
    <path d="M 78.562813 339.84 
L 78.562813 7.2 
" style="fill: none; stroke: #000000; stroke-width: 0.8; stroke-linejoin: miter; stroke-linecap: square"/>
   </g>
   <g id="patch_4">
    <path d="M 580.762812 339.84 
L 580.762812 7.2 
" style="fill: none; stroke: #000000; stroke-width: 0.8; stroke-linejoin: miter; stroke-linecap: square"/>
   </g>
   <g id="patch_5">
    <path d="M 78.562813 339.84 
L 580.762812 339.84 
" style="fill: none; stroke: #000000; stroke-width: 0.8; stroke-linejoin: miter; stroke-linecap: square"/>
   </g>
   <g id="patch_6">
    <path d="M 78.562813 7.2 
L 580.762812 7.2 
" style="fill: none; stroke: #000000; stroke-width: 0.8; stroke-linejoin: miter; stroke-linecap: square"/>
   </g>
  </g>
 </g>
 <defs>
  <clipPath id="pb986d963bd">
   <rect x="78.562813" y="7.2" width="502.2" height="332.64"/>
  </clipPath>
 </defs>
</svg>
