<?xml version="1.0" encoding="utf-8" standalone="no"?>
<!DOCTYPE svg PUBLIC "-//W3C//DTD SVG 1.1//EN"
  "http://www.w3.org/Graphics/SVG/1.1/DTD/svg11.dtd">
<svg xmlns:xlink="http://www.w3.org/1999/xlink" width="580.270625pt" height="389.977813pt" viewBox="0 0 580.270625 389.977813" xmlns="http://www.w3.org/2000/svg" version="1.1">
 <metadata>
  <rdf:RDF xmlns:dc="http://purl.org/dc/elements/1.1/" xmlns:cc="http://creativecommons.org/ns#" xmlns:rdf="http://www.w3.org/1999/02/22-rdf-syntax-ns#">
   <cc:Work>
    <dc:type rdf:resource="http://purl.org/dc/dcmitype/StillImage"/>
    <dc:date>2025-05-09T18:06:15.215825</dc:date>
    <dc:format>image/svg+xml</dc:format>
    <dc:creator>
     <cc:Agent>
      <dc:title>Matplotlib v3.9.4, https://matplotlib.org/</dc:title>
     </cc:Agent>
    </dc:creator>
   </cc:Work>
  </rdf:RDF>
 </metadata>
 <defs>
  <style type="text/css">*{stroke-linejoin: round; stroke-linecap: butt}</style>
 </defs>
 <g id="figure_1">
  <g id="patch_1">
   <path d="M -0 389.977813 
L 580.270625 389.977813 
L 580.270625 0 
L -0 0 
z
" style="fill: #ffffff"/>
  </g>
  <g id="axes_1">
   <g id="patch_2">
    <path d="M 70.870625 339.84 
L 573.070625 339.84 
L 573.070625 7.2 
L 70.870625 7.2 
z
" style="fill: #ffffff"/>
   </g>
   <g id="PolyCollection_1">
    <path d="M 93.697898 248.894695 
L 93.697898 70591.508832 
L 98.309468 171.818684 
L 102.921038 159.490656 
L 107.532608 147.857484 
L 112.144179 137.40714 
L 116.755749 133.478603 
L 121.367319 128.876314 
L 125.978889 125.133593 
L 130.59046 121.781039 
L 135.20203 120.034803 
L 139.8136 118.176268 
L 144.42517 116.253715 
L 149.036741 114.269908 
L 153.648311 112.012642 
L 158.259881 110.53964 
L 162.871451 109.32418 
L 167.483022 107.952656 
L 172.094592 107.074202 
L 176.706162 106.277942 
L 181.317732 105.238315 
L 185.929303 104.410827 
L 190.540873 103.076288 
L 195.152443 101.705783 
L 199.764013 100.182764 
L 204.375584 98.865587 
L 208.987154 97.829365 
L 213.598724 96.553793 
L 218.210294 95.362597 
L 222.821865 94.149271 
L 227.433435 93.147276 
L 232.045005 92.054225 
L 236.656575 91.073453 
L 241.268146 89.56767 
L 245.879716 88.446655 
L 250.491286 87.339828 
L 255.102856 86.264239 
L 259.714427 85.163838 
L 264.325997 84.090509 
L 268.937567 83.2056 
L 273.549137 82.191488 
L 278.160708 81.287035 
L 282.772278 80.344289 
L 287.383848 79.310824 
L 291.995418 78.335623 
L 296.606989 77.321967 
L 301.218559 76.393281 
L 305.830129 75.493459 
L 310.441699 74.5983 
L 315.05327 73.737502 
L 319.66484 72.884223 
L 324.27641 72.076633 
L 328.88798 71.215684 
L 333.499551 70.433978 
L 338.111121 69.522016 
L 342.722691 68.649705 
L 347.334261 67.797212 
L 351.945832 66.944261 
L 356.557402 66.089619 
L 361.168972 65.269714 
L 365.780542 64.50698 
L 370.392113 63.752683 
L 375.003683 63.006541 
L 379.615253 62.238611 
L 384.226823 61.380557 
L 388.838394 60.556447 
L 393.449964 59.70819 
L 398.061534 58.933763 
L 402.673104 58.172397 
L 407.284675 57.453198 
L 411.896245 56.754249 
L 416.507815 56.035075 
L 421.119385 55.346958 
L 425.730956 54.706508 
L 430.342526 54.050229 
L 434.954096 53.300337 
L 439.565666 52.559917 
L 444.177237 51.822906 
L 448.788807 51.135133 
L 453.400377 50.444932 
L 458.011947 49.813636 
L 462.623518 49.190312 
L 467.235088 48.564284 
L 471.846658 47.9229 
L 476.458228 47.278251 
L 481.069799 46.60537 
L 485.681369 45.916477 
L 490.292939 45.273612 
L 494.904509 44.627245 
L 499.51608 43.987133 
L 504.12765 43.381441 
L 508.73922 42.763066 
L 513.35079 42.147949 
L 517.962361 41.567439 
L 522.573931 41.002263 
L 527.185501 40.422511 
L 531.797071 39.867565 
L 536.408642 39.329298 
L 541.020212 38.799638 
L 545.631782 38.290806 
L 550.243352 37.761878 
L 550.243352 28.991169 
L 550.243352 28.991169 
L 545.631782 29.48674 
L 541.020212 29.966849 
L 536.408642 30.440629 
L 531.797071 30.969986 
L 527.185501 31.486544 
L 522.573931 32.015604 
L 517.962361 32.547588 
L 513.35079 33.100295 
L 508.73922 33.672927 
L 504.12765 34.22373 
L 499.51608 34.80186 
L 494.904509 35.391123 
L 490.292939 35.999183 
L 485.681369 36.610096 
L 481.069799 37.239438 
L 476.458228 37.877714 
L 471.846658 38.524697 
L 467.235088 39.1324 
L 462.623518 39.733181 
L 458.011947 40.364662 
L 453.400377 40.991078 
L 448.788807 41.642249 
L 444.177237 42.266181 
L 439.565666 42.956732 
L 434.954096 43.654839 
L 430.342526 44.328265 
L 425.730956 44.993197 
L 421.119385 45.64323 
L 416.507815 46.307668 
L 411.896245 46.968463 
L 407.284675 47.63213 
L 402.673104 48.298569 
L 398.061534 49.029532 
L 393.449964 49.796011 
L 388.838394 50.545054 
L 384.226823 51.307933 
L 379.615253 52.119453 
L 375.003683 52.870135 
L 370.392113 53.614688 
L 365.780542 54.397059 
L 361.168972 55.148626 
L 356.557402 55.92077 
L 351.945832 56.769438 
L 347.334261 57.585337 
L 342.722691 58.429841 
L 338.111121 59.34536 
L 333.499551 60.327589 
L 328.88798 61.303153 
L 324.27641 62.222668 
L 319.66484 63.126874 
L 315.05327 63.988337 
L 310.441699 64.934366 
L 305.830129 65.867147 
L 301.218559 66.779822 
L 296.606989 67.68977 
L 291.995418 68.657607 
L 287.383848 69.6824 
L 282.772278 70.687048 
L 278.160708 71.553223 
L 273.549137 72.525013 
L 268.937567 73.466481 
L 264.325997 74.400983 
L 259.714427 75.315856 
L 255.102856 76.2987 
L 250.491286 77.377177 
L 245.879716 78.389995 
L 241.268146 79.490185 
L 236.656575 80.888127 
L 232.045005 81.906232 
L 227.433435 82.918327 
L 222.821865 83.800279 
L 218.210294 84.810834 
L 213.598724 85.901951 
L 208.987154 87.077777 
L 204.375584 88.202547 
L 199.764013 89.530371 
L 195.152443 90.835599 
L 190.540873 92.043104 
L 185.929303 93.305862 
L 181.317732 94.932605 
L 176.706162 96.003085 
L 172.094592 97.057621 
L 167.483022 98.174758 
L 162.871451 99.647296 
L 158.259881 101.033074 
L 153.648311 102.425236 
L 149.036741 104.563753 
L 144.42517 106.304925 
L 139.8136 108.363126 
L 135.20203 110.112372 
L 130.59046 112.449684 
L 125.978889 115.174691 
L 121.367319 118.258617 
L 116.755749 121.103561 
L 112.144179 129.865575 
L 107.532608 137.973138 
L 102.921038 146.034736 
L 98.309468 153.351623 
L 93.697898 248.894695 
z
" clip-path="url(#pdbc5d1e4c7)" style="fill: #386cb0; fill-opacity: 0.1; stroke: #386cb0; stroke-opacity: 0.1"/>
   </g>
   <g id="PolyCollection_2">
    <defs>
     <path id="m99fceccc4a" d="M 93.697898 -120.325198 
L 93.697898 -65.257812 
L 98.309468 -230.530485 
L 102.921038 -238.947465 
L 107.532608 -247.752037 
L 112.144179 -256.282439 
L 116.755749 -259.852288 
L 121.367319 -263.978067 
L 125.978889 -266.993319 
L 130.59046 -269.919012 
L 135.20203 -271.582083 
L 139.8136 -273.132976 
L 144.42517 -274.47033 
L 149.036741 -276.064593 
L 153.648311 -277.97843 
L 158.259881 -279.396913 
L 162.871451 -280.410492 
L 167.483022 -281.64543 
L 172.094592 -282.44909 
L 176.706162 -283.144905 
L 181.317732 -284.167071 
L 185.929303 -285.416657 
L 190.540873 -286.094788 
L 195.152443 -286.919085 
L 199.764013 -287.896087 
L 204.375584 -288.636578 
L 208.987154 -289.170301 
L 213.598724 -289.935738 
L 218.210294 -290.651733 
L 222.821865 -291.400995 
L 227.433435 -291.952733 
L 232.045005 -292.598416 
L 236.656575 -293.191267 
L 241.268146 -293.648338 
L 245.879716 -294.040879 
L 250.491286 -294.471236 
L 255.102856 -294.90025 
L 259.714427 -295.455128 
L 264.325997 -296.000144 
L 268.937567 -296.445166 
L 273.549137 -297.121837 
L 278.160708 -297.406123 
L 282.772278 -297.811342 
L 287.383848 -298.304128 
L 291.995418 -298.669025 
L 296.606989 -298.961987 
L 301.218559 -299.291757 
L 305.830129 -299.641239 
L 310.441699 -299.977982 
L 315.05327 -300.240014 
L 319.66484 -300.635046 
L 324.27641 -300.873814 
L 328.88798 -301.342262 
L 333.499551 -301.680837 
L 338.111121 -302.166271 
L 342.722691 -302.57458 
L 347.334261 -303.016306 
L 351.945832 -303.35714 
L 356.557402 -303.696812 
L 361.168972 -304.097177 
L 365.780542 -304.438919 
L 370.392113 -304.812931 
L 375.003683 -305.396048 
L 379.615253 -305.769366 
L 384.226823 -306.126553 
L 388.838394 -306.405759 
L 393.449964 -306.743042 
L 398.061534 -306.97707 
L 402.673104 -307.218357 
L 407.284675 -307.55406 
L 411.896245 -307.796135 
L 416.507815 -308.23351 
L 421.119385 -308.587768 
L 425.730956 -308.886127 
L 430.342526 -309.151343 
L 434.954096 -309.406594 
L 439.565666 -309.639506 
L 444.177237 -310.097231 
L 448.788807 -310.513567 
L 453.400377 -310.845876 
L 458.011947 -310.977334 
L 462.623518 -311.106234 
L 467.235088 -311.382398 
L 471.846658 -311.660605 
L 476.458228 -312.01509 
L 481.069799 -312.395719 
L 485.681369 -312.57266 
L 490.292939 -312.76781 
L 494.904509 -313.006751 
L 499.51608 -313.220245 
L 504.12765 -313.456952 
L 508.73922 -313.711134 
L 513.35079 -314.009902 
L 517.962361 -314.218256 
L 522.573931 -314.405705 
L 527.185501 -314.702442 
L 531.797071 -314.878782 
L 536.408642 -315.128028 
L 541.020212 -315.311856 
L 545.631782 -315.456113 
L 550.243352 -315.681184 
L 550.243352 -319.876584 
L 550.243352 -319.876584 
L 545.631782 -319.655373 
L 541.020212 -319.51282 
L 536.408642 -319.33051 
L 531.797071 -319.08355 
L 527.185501 -318.907777 
L 522.573931 -318.61318 
L 517.962361 -318.426039 
L 513.35079 -318.218868 
L 508.73922 -317.922242 
L 504.12765 -317.669328 
L 499.51608 -317.433255 
L 494.904509 -317.220328 
L 490.292939 -316.981137 
L 485.681369 -316.786351 
L 481.069799 -316.609207 
L 476.458228 -316.229516 
L 471.846658 -315.87573 
L 467.235088 -315.597591 
L 462.623518 -315.31996 
L 458.011947 -315.189638 
L 453.400377 -315.056167 
L 448.788807 -314.719523 
L 444.177237 -314.296952 
L 439.565666 -313.833 
L 434.954096 -313.597225 
L 430.342526 -313.339494 
L 425.730956 -313.070977 
L 421.119385 -312.769859 
L 416.507815 -312.41268 
L 411.896245 -311.971659 
L 407.284675 -311.726945 
L 402.673104 -311.388658 
L 398.061534 -311.14611 
L 393.449964 -310.911487 
L 388.838394 -310.573992 
L 384.226823 -310.29473 
L 379.615253 -309.93847 
L 375.003683 -309.566511 
L 370.392113 -308.985853 
L 365.780542 -308.612333 
L 361.168972 -308.270876 
L 356.557402 -307.871419 
L 351.945832 -307.53113 
L 347.334261 -307.189936 
L 342.722691 -306.745583 
L 338.111121 -306.332958 
L 333.499551 -305.841446 
L 328.88798 -305.499341 
L 324.27641 -305.025034 
L 319.66484 -304.783179 
L 315.05327 -304.382478 
L 310.441699 -304.114591 
L 305.830129 -303.772087 
L 301.218559 -303.416384 
L 296.606989 -303.080277 
L 291.995418 -302.783062 
L 287.383848 -302.414591 
L 282.772278 -301.917221 
L 278.160708 -301.508695 
L 273.549137 -301.221841 
L 268.937567 -300.539802 
L 264.325997 -300.092185 
L 259.714427 -299.545109 
L 255.102856 -298.990094 
L 250.491286 -298.561252 
L 245.879716 -298.132352 
L 241.268146 -297.738781 
L 236.656575 -297.280215 
L 232.045005 -296.685699 
L 227.433435 -296.036582 
L 222.821865 -295.4828 
L 218.210294 -294.733111 
L 213.598724 -294.016417 
L 208.987154 -293.25029 
L 204.375584 -292.713268 
L 199.764013 -291.967268 
L 195.152443 -290.98272 
L 190.540873 -290.153777 
L 185.929303 -289.472006 
L 181.317732 -288.217792 
L 176.706162 -287.190672 
L 172.094592 -286.487637 
L 167.483022 -285.675801 
L 162.871451 -284.434774 
L 158.259881 -283.413484 
L 153.648311 -281.98872 
L 149.036741 -280.07673 
L 144.42517 -278.472707 
L 139.8136 -277.126179 
L 135.20203 -275.555755 
L 130.59046 -273.874894 
L 125.978889 -270.925381 
L 121.367319 -267.881021 
L 116.755749 -263.707485 
L 112.144179 -260.10746 
L 107.532608 -251.538343 
L 102.921038 -242.867651 
L 98.309468 -234.875452 
L 93.697898 -120.325198 
z
" style="stroke: #f0027f; stroke-opacity: 0.1"/>
    </defs>
    <g clip-path="url(#pdbc5d1e4c7)">
     <use xlink:href="#m99fceccc4a" x="0" y="389.977813" style="fill: #f0027f; fill-opacity: 0.1; stroke: #f0027f; stroke-opacity: 0.1"/>
    </g>
   </g>
   <g id="PolyCollection_3">
    <defs>
     <path id="m2b91a24467" d="M 93.697898 -246.148129 
L 93.697898 -229.230377 
L 98.309468 -255.812068 
L 102.921038 -267.568333 
L 107.532608 -276.160565 
L 112.144179 -279.834835 
L 116.755749 -282.039712 
L 121.367319 -283.948826 
L 125.978889 -285.806063 
L 130.59046 -287.766337 
L 135.20203 -289.494759 
L 139.8136 -290.977302 
L 144.42517 -292.350121 
L 149.036741 -293.78527 
L 153.648311 -295.240802 
L 158.259881 -296.552058 
L 162.871451 -297.778523 
L 167.483022 -298.962644 
L 172.094592 -300.024182 
L 176.706162 -301.217829 
L 181.317732 -302.267255 
L 185.929303 -303.321981 
L 190.540873 -304.680372 
L 195.152443 -305.852719 
L 199.764013 -306.960487 
L 204.375584 -308.09778 
L 208.987154 -309.160426 
L 213.598724 -310.140944 
L 218.210294 -311.136816 
L 222.821865 -312.073242 
L 227.433435 -313.131814 
L 232.045005 -313.97339 
L 236.656575 -314.819759 
L 241.268146 -315.856946 
L 245.879716 -316.840276 
L 250.491286 -317.792326 
L 255.102856 -318.697528 
L 259.714427 -319.737563 
L 264.325997 -320.692578 
L 268.937567 -321.575813 
L 273.549137 -322.497759 
L 278.160708 -323.323896 
L 282.772278 -324.201756 
L 287.383848 -325.21656 
L 291.995418 -326.183533 
L 296.606989 -327.086971 
L 301.218559 -327.9946 
L 305.830129 -328.88573 
L 310.441699 -329.754871 
L 315.05327 -330.597938 
L 319.66484 -331.411188 
L 324.27641 -332.217937 
L 328.88798 -333.000173 
L 333.499551 -333.753868 
L 338.111121 -334.559775 
L 342.722691 -335.30139 
L 347.334261 -336.021742 
L 351.945832 -336.70958 
L 356.557402 -337.382561 
L 361.168972 -338.049705 
L 365.780542 -338.666891 
L 370.392113 -339.287326 
L 375.003683 -339.904215 
L 379.615253 -340.519885 
L 384.226823 -341.190127 
L 388.838394 -341.851538 
L 393.449964 -342.508999 
L 398.061534 -343.148797 
L 402.673104 -343.777183 
L 407.284675 -344.380232 
L 411.896245 -344.999712 
L 416.507815 -345.584356 
L 421.119385 -346.156264 
L 425.730956 -346.741565 
L 430.342526 -347.289097 
L 434.954096 -347.892564 
L 439.565666 -348.49507 
L 444.177237 -349.061121 
L 448.788807 -349.640482 
L 453.400377 -350.195446 
L 458.011947 -350.748246 
L 462.623518 -351.26805 
L 467.235088 -351.789008 
L 471.846658 -352.297914 
L 476.458228 -352.846901 
L 481.069799 -353.390812 
L 485.681369 -353.930791 
L 490.292939 -354.470409 
L 494.904509 -355.011373 
L 499.51608 -355.524006 
L 504.12765 -356.034011 
L 508.73922 -356.539614 
L 513.35079 -357.05263 
L 517.962361 -357.534079 
L 522.573931 -358.028043 
L 527.185501 -358.491089 
L 531.797071 -358.95143 
L 536.408642 -359.408652 
L 541.020212 -359.855102 
L 545.631782 -360.286354 
L 550.243352 -360.72229 
L 550.243352 -367.657813 
L 550.243352 -367.657813 
L 545.631782 -367.199744 
L 541.020212 -366.74726 
L 536.408642 -366.29837 
L 531.797071 -365.813128 
L 527.185501 -365.329062 
L 522.573931 -364.851451 
L 517.962361 -364.352554 
L 513.35079 -363.844975 
L 508.73922 -363.335505 
L 504.12765 -362.813576 
L 499.51608 -362.282798 
L 494.904509 -361.746642 
L 490.292939 -361.209651 
L 485.681369 -360.671525 
L 481.069799 -360.094177 
L 476.458228 -359.522104 
L 471.846658 -358.97609 
L 467.235088 -358.424479 
L 462.623518 -357.863077 
L 458.011947 -357.313855 
L 453.400377 -356.747554 
L 448.788807 -356.165617 
L 444.177237 -355.571841 
L 439.565666 -354.963673 
L 434.954096 -354.351574 
L 430.342526 -353.715472 
L 425.730956 -353.137871 
L 421.119385 -352.540103 
L 416.507815 -351.941149 
L 411.896245 -351.31725 
L 407.284675 -350.687745 
L 402.673104 -350.038725 
L 398.061534 -349.3655 
L 393.449964 -348.710209 
L 388.838394 -348.081894 
L 384.226823 -347.410455 
L 379.615253 -346.737787 
L 375.003683 -346.116738 
L 370.392113 -345.498408 
L 365.780542 -344.852218 
L 361.168972 -344.204563 
L 356.557402 -343.518074 
L 351.945832 -342.856024 
L 347.334261 -342.166093 
L 342.722691 -341.442155 
L 338.111121 -340.700127 
L 333.499551 -339.848902 
L 328.88798 -339.042028 
L 324.27641 -338.214675 
L 319.66484 -337.397322 
L 315.05327 -336.548579 
L 310.441699 -335.714298 
L 305.830129 -334.864914 
L 301.218559 -333.970921 
L 296.606989 -333.084316 
L 291.995418 -332.180602 
L 287.383848 -331.260596 
L 282.772278 -330.296992 
L 278.160708 -329.498511 
L 273.549137 -328.631982 
L 268.937567 -327.780746 
L 264.325997 -326.882975 
L 259.714427 -325.969589 
L 255.102856 -325.027031 
L 250.491286 -324.157384 
L 245.879716 -323.289985 
L 241.268146 -322.402318 
L 236.656575 -321.41905 
L 232.045005 -320.628763 
L 227.433435 -319.792145 
L 222.821865 -318.937019 
L 218.210294 -318.043526 
L 213.598724 -317.173887 
L 208.987154 -316.317207 
L 204.375584 -315.414902 
L 199.764013 -314.483516 
L 195.152443 -313.495036 
L 190.540873 -312.434812 
L 185.929303 -311.314547 
L 181.317732 -310.445784 
L 176.706162 -309.479695 
L 172.094592 -308.592971 
L 167.483022 -307.513417 
L 162.871451 -306.476396 
L 158.259881 -305.441524 
L 153.648311 -304.343689 
L 149.036741 -303.214604 
L 144.42517 -302.062206 
L 139.8136 -300.662961 
L 135.20203 -299.183577 
L 130.59046 -297.840019 
L 125.978889 -296.489937 
L 121.367319 -294.996564 
L 116.755749 -293.126768 
L 112.144179 -290.958612 
L 107.532608 -289.085635 
L 102.921038 -284.747579 
L 98.309468 -276.683889 
L 93.697898 -246.148129 
z
" style="stroke: #bf5b17; stroke-opacity: 0.1"/>
    </defs>
    <g clip-path="url(#pdbc5d1e4c7)">
     <use xlink:href="#m2b91a24467" x="0" y="389.977813" style="fill: #bf5b17; fill-opacity: 0.1; stroke: #bf5b17; stroke-opacity: 0.1"/>
    </g>
   </g>
   <g id="matplotlib.axis_1">
    <g id="xtick_1">
     <g id="line2d_1">
      <path d="M 89.086327 339.84 
L 89.086327 7.2 
" clip-path="url(#pdbc5d1e4c7)" style="fill: none; stroke-dasharray: 1.85,0.8; stroke-dashoffset: 0; stroke: #b0b0b0; stroke-width: 0.5"/>
     </g>
     <g id="line2d_2">
      <defs>
       <path id="m6046afdd16" d="M 0 0 
L 0 3.5 
" style="stroke: #000000; stroke-width: 0.8"/>
      </defs>
      <g>
       <use xlink:href="#m6046afdd16" x="89.086327" y="339.84" style="stroke: #000000; stroke-width: 0.8"/>
      </g>
     </g>
     <g id="text_1">
      <!-- 0 -->
      <g transform="translate(84.314452 358.237656) scale(0.15 -0.15)">
       <defs>
        <path id="DejaVuSans-30" d="M 2034 4250 
Q 1547 4250 1301 3770 
Q 1056 3291 1056 2328 
Q 1056 1369 1301 889 
Q 1547 409 2034 409 
Q 2525 409 2770 889 
Q 3016 1369 3016 2328 
Q 3016 3291 2770 3770 
Q 2525 4250 2034 4250 
z
M 2034 4750 
Q 2819 4750 3233 4129 
Q 3647 3509 3647 2328 
Q 3647 1150 3233 529 
Q 2819 -91 2034 -91 
Q 1250 -91 836 529 
Q 422 1150 422 2328 
Q 422 3509 836 4129 
Q 1250 4750 2034 4750 
z
" transform="scale(0.015625)"/>
       </defs>
       <use xlink:href="#DejaVuSans-30"/>
      </g>
     </g>
    </g>
    <g id="xtick_2">
     <g id="line2d_3">
      <path d="M 181.317732 339.84 
L 181.317732 7.2 
" clip-path="url(#pdbc5d1e4c7)" style="fill: none; stroke-dasharray: 1.85,0.8; stroke-dashoffset: 0; stroke: #b0b0b0; stroke-width: 0.5"/>
     </g>
     <g id="line2d_4">
      <g>
       <use xlink:href="#m6046afdd16" x="181.317732" y="339.84" style="stroke: #000000; stroke-width: 0.8"/>
      </g>
     </g>
     <g id="text_2">
      <!-- 20 -->
      <g transform="translate(171.773982 358.237656) scale(0.15 -0.15)">
       <defs>
        <path id="DejaVuSans-32" d="M 1228 531 
L 3431 531 
L 3431 0 
L 469 0 
L 469 531 
Q 828 903 1448 1529 
Q 2069 2156 2228 2338 
Q 2531 2678 2651 2914 
Q 2772 3150 2772 3378 
Q 2772 3750 2511 3984 
Q 2250 4219 1831 4219 
Q 1534 4219 1204 4116 
Q 875 4013 500 3803 
L 500 4441 
Q 881 4594 1212 4672 
Q 1544 4750 1819 4750 
Q 2544 4750 2975 4387 
Q 3406 4025 3406 3419 
Q 3406 3131 3298 2873 
Q 3191 2616 2906 2266 
Q 2828 2175 2409 1742 
Q 1991 1309 1228 531 
z
" transform="scale(0.015625)"/>
       </defs>
       <use xlink:href="#DejaVuSans-32"/>
       <use xlink:href="#DejaVuSans-30" x="63.623047"/>
      </g>
     </g>
    </g>
    <g id="xtick_3">
     <g id="line2d_5">
      <path d="M 273.549137 339.84 
L 273.549137 7.2 
" clip-path="url(#pdbc5d1e4c7)" style="fill: none; stroke-dasharray: 1.85,0.8; stroke-dashoffset: 0; stroke: #b0b0b0; stroke-width: 0.5"/>
     </g>
     <g id="line2d_6">
      <g>
       <use xlink:href="#m6046afdd16" x="273.549137" y="339.84" style="stroke: #000000; stroke-width: 0.8"/>
      </g>
     </g>
     <g id="text_3">
      <!-- 40 -->
      <g transform="translate(264.005387 358.237656) scale(0.15 -0.15)">
       <defs>
        <path id="DejaVuSans-34" d="M 2419 4116 
L 825 1625 
L 2419 1625 
L 2419 4116 
z
M 2253 4666 
L 3047 4666 
L 3047 1625 
L 3713 1625 
L 3713 1100 
L 3047 1100 
L 3047 0 
L 2419 0 
L 2419 1100 
L 313 1100 
L 313 1709 
L 2253 4666 
z
" transform="scale(0.015625)"/>
       </defs>
       <use xlink:href="#DejaVuSans-34"/>
       <use xlink:href="#DejaVuSans-30" x="63.623047"/>
      </g>
     </g>
    </g>
    <g id="xtick_4">
     <g id="line2d_7">
      <path d="M 365.780542 339.84 
L 365.780542 7.2 
" clip-path="url(#pdbc5d1e4c7)" style="fill: none; stroke-dasharray: 1.85,0.8; stroke-dashoffset: 0; stroke: #b0b0b0; stroke-width: 0.5"/>
     </g>
     <g id="line2d_8">
      <g>
       <use xlink:href="#m6046afdd16" x="365.780542" y="339.84" style="stroke: #000000; stroke-width: 0.8"/>
      </g>
     </g>
     <g id="text_4">
      <!-- 60 -->
      <g transform="translate(356.236792 358.237656) scale(0.15 -0.15)">
       <defs>
        <path id="DejaVuSans-36" d="M 2113 2584 
Q 1688 2584 1439 2293 
Q 1191 2003 1191 1497 
Q 1191 994 1439 701 
Q 1688 409 2113 409 
Q 2538 409 2786 701 
Q 3034 994 3034 1497 
Q 3034 2003 2786 2293 
Q 2538 2584 2113 2584 
z
M 3366 4563 
L 3366 3988 
Q 3128 4100 2886 4159 
Q 2644 4219 2406 4219 
Q 1781 4219 1451 3797 
Q 1122 3375 1075 2522 
Q 1259 2794 1537 2939 
Q 1816 3084 2150 3084 
Q 2853 3084 3261 2657 
Q 3669 2231 3669 1497 
Q 3669 778 3244 343 
Q 2819 -91 2113 -91 
Q 1303 -91 875 529 
Q 447 1150 447 2328 
Q 447 3434 972 4092 
Q 1497 4750 2381 4750 
Q 2619 4750 2861 4703 
Q 3103 4656 3366 4563 
z
" transform="scale(0.015625)"/>
       </defs>
       <use xlink:href="#DejaVuSans-36"/>
       <use xlink:href="#DejaVuSans-30" x="63.623047"/>
      </g>
     </g>
    </g>
    <g id="xtick_5">
     <g id="line2d_9">
      <path d="M 458.011947 339.84 
L 458.011947 7.2 
" clip-path="url(#pdbc5d1e4c7)" style="fill: none; stroke-dasharray: 1.85,0.8; stroke-dashoffset: 0; stroke: #b0b0b0; stroke-width: 0.5"/>
     </g>
     <g id="line2d_10">
      <g>
       <use xlink:href="#m6046afdd16" x="458.011947" y="339.84" style="stroke: #000000; stroke-width: 0.8"/>
      </g>
     </g>
     <g id="text_5">
      <!-- 80 -->
      <g transform="translate(448.468197 358.237656) scale(0.15 -0.15)">
       <defs>
        <path id="DejaVuSans-38" d="M 2034 2216 
Q 1584 2216 1326 1975 
Q 1069 1734 1069 1313 
Q 1069 891 1326 650 
Q 1584 409 2034 409 
Q 2484 409 2743 651 
Q 3003 894 3003 1313 
Q 3003 1734 2745 1975 
Q 2488 2216 2034 2216 
z
M 1403 2484 
Q 997 2584 770 2862 
Q 544 3141 544 3541 
Q 544 4100 942 4425 
Q 1341 4750 2034 4750 
Q 2731 4750 3128 4425 
Q 3525 4100 3525 3541 
Q 3525 3141 3298 2862 
Q 3072 2584 2669 2484 
Q 3125 2378 3379 2068 
Q 3634 1759 3634 1313 
Q 3634 634 3220 271 
Q 2806 -91 2034 -91 
Q 1263 -91 848 271 
Q 434 634 434 1313 
Q 434 1759 690 2068 
Q 947 2378 1403 2484 
z
M 1172 3481 
Q 1172 3119 1398 2916 
Q 1625 2713 2034 2713 
Q 2441 2713 2670 2916 
Q 2900 3119 2900 3481 
Q 2900 3844 2670 4047 
Q 2441 4250 2034 4250 
Q 1625 4250 1398 4047 
Q 1172 3844 1172 3481 
z
" transform="scale(0.015625)"/>
       </defs>
       <use xlink:href="#DejaVuSans-38"/>
       <use xlink:href="#DejaVuSans-30" x="63.623047"/>
      </g>
     </g>
    </g>
    <g id="xtick_6">
     <g id="line2d_11">
      <path d="M 550.243352 339.84 
L 550.243352 7.2 
" clip-path="url(#pdbc5d1e4c7)" style="fill: none; stroke-dasharray: 1.85,0.8; stroke-dashoffset: 0; stroke: #b0b0b0; stroke-width: 0.5"/>
     </g>
     <g id="line2d_12">
      <g>
       <use xlink:href="#m6046afdd16" x="550.243352" y="339.84" style="stroke: #000000; stroke-width: 0.8"/>
      </g>
     </g>
     <g id="text_6">
      <!-- 100 -->
      <g transform="translate(535.927727 358.237656) scale(0.15 -0.15)">
       <defs>
        <path id="DejaVuSans-31" d="M 794 531 
L 1825 531 
L 1825 4091 
L 703 3866 
L 703 4441 
L 1819 4666 
L 2450 4666 
L 2450 531 
L 3481 531 
L 3481 0 
L 794 0 
L 794 531 
z
" transform="scale(0.015625)"/>
       </defs>
       <use xlink:href="#DejaVuSans-31"/>
       <use xlink:href="#DejaVuSans-30" x="63.623047"/>
       <use xlink:href="#DejaVuSans-30" x="127.246094"/>
      </g>
     </g>
    </g>
    <g id="text_7">
     <!-- Decision Round -->
     <g transform="translate(252.317656 379.034375) scale(0.18 -0.18)">
      <defs>
       <path id="DejaVuSans-44" d="M 1259 4147 
L 1259 519 
L 2022 519 
Q 2988 519 3436 956 
Q 3884 1394 3884 2338 
Q 3884 3275 3436 3711 
Q 2988 4147 2022 4147 
L 1259 4147 
z
M 628 4666 
L 1925 4666 
Q 3281 4666 3915 4102 
Q 4550 3538 4550 2338 
Q 4550 1131 3912 565 
Q 3275 0 1925 0 
L 628 0 
L 628 4666 
z
" transform="scale(0.015625)"/>
       <path id="DejaVuSans-65" d="M 3597 1894 
L 3597 1613 
L 953 1613 
Q 991 1019 1311 708 
Q 1631 397 2203 397 
Q 2534 397 2845 478 
Q 3156 559 3463 722 
L 3463 178 
Q 3153 47 2828 -22 
Q 2503 -91 2169 -91 
Q 1331 -91 842 396 
Q 353 884 353 1716 
Q 353 2575 817 3079 
Q 1281 3584 2069 3584 
Q 2775 3584 3186 3129 
Q 3597 2675 3597 1894 
z
M 3022 2063 
Q 3016 2534 2758 2815 
Q 2500 3097 2075 3097 
Q 1594 3097 1305 2825 
Q 1016 2553 972 2059 
L 3022 2063 
z
" transform="scale(0.015625)"/>
       <path id="DejaVuSans-63" d="M 3122 3366 
L 3122 2828 
Q 2878 2963 2633 3030 
Q 2388 3097 2138 3097 
Q 1578 3097 1268 2742 
Q 959 2388 959 1747 
Q 959 1106 1268 751 
Q 1578 397 2138 397 
Q 2388 397 2633 464 
Q 2878 531 3122 666 
L 3122 134 
Q 2881 22 2623 -34 
Q 2366 -91 2075 -91 
Q 1284 -91 818 406 
Q 353 903 353 1747 
Q 353 2603 823 3093 
Q 1294 3584 2113 3584 
Q 2378 3584 2631 3529 
Q 2884 3475 3122 3366 
z
" transform="scale(0.015625)"/>
       <path id="DejaVuSans-69" d="M 603 3500 
L 1178 3500 
L 1178 0 
L 603 0 
L 603 3500 
z
M 603 4863 
L 1178 4863 
L 1178 4134 
L 603 4134 
L 603 4863 
z
" transform="scale(0.015625)"/>
       <path id="DejaVuSans-73" d="M 2834 3397 
L 2834 2853 
Q 2591 2978 2328 3040 
Q 2066 3103 1784 3103 
Q 1356 3103 1142 2972 
Q 928 2841 928 2578 
Q 928 2378 1081 2264 
Q 1234 2150 1697 2047 
L 1894 2003 
Q 2506 1872 2764 1633 
Q 3022 1394 3022 966 
Q 3022 478 2636 193 
Q 2250 -91 1575 -91 
Q 1294 -91 989 -36 
Q 684 19 347 128 
L 347 722 
Q 666 556 975 473 
Q 1284 391 1588 391 
Q 1994 391 2212 530 
Q 2431 669 2431 922 
Q 2431 1156 2273 1281 
Q 2116 1406 1581 1522 
L 1381 1569 
Q 847 1681 609 1914 
Q 372 2147 372 2553 
Q 372 3047 722 3315 
Q 1072 3584 1716 3584 
Q 2034 3584 2315 3537 
Q 2597 3491 2834 3397 
z
" transform="scale(0.015625)"/>
       <path id="DejaVuSans-6f" d="M 1959 3097 
Q 1497 3097 1228 2736 
Q 959 2375 959 1747 
Q 959 1119 1226 758 
Q 1494 397 1959 397 
Q 2419 397 2687 759 
Q 2956 1122 2956 1747 
Q 2956 2369 2687 2733 
Q 2419 3097 1959 3097 
z
M 1959 3584 
Q 2709 3584 3137 3096 
Q 3566 2609 3566 1747 
Q 3566 888 3137 398 
Q 2709 -91 1959 -91 
Q 1206 -91 779 398 
Q 353 888 353 1747 
Q 353 2609 779 3096 
Q 1206 3584 1959 3584 
z
" transform="scale(0.015625)"/>
       <path id="DejaVuSans-6e" d="M 3513 2113 
L 3513 0 
L 2938 0 
L 2938 2094 
Q 2938 2591 2744 2837 
Q 2550 3084 2163 3084 
Q 1697 3084 1428 2787 
Q 1159 2491 1159 1978 
L 1159 0 
L 581 0 
L 581 3500 
L 1159 3500 
L 1159 2956 
Q 1366 3272 1645 3428 
Q 1925 3584 2291 3584 
Q 2894 3584 3203 3211 
Q 3513 2838 3513 2113 
z
" transform="scale(0.015625)"/>
       <path id="DejaVuSans-20" transform="scale(0.015625)"/>
       <path id="DejaVuSans-52" d="M 2841 2188 
Q 3044 2119 3236 1894 
Q 3428 1669 3622 1275 
L 4263 0 
L 3584 0 
L 2988 1197 
Q 2756 1666 2539 1819 
Q 2322 1972 1947 1972 
L 1259 1972 
L 1259 0 
L 628 0 
L 628 4666 
L 2053 4666 
Q 2853 4666 3247 4331 
Q 3641 3997 3641 3322 
Q 3641 2881 3436 2590 
Q 3231 2300 2841 2188 
z
M 1259 4147 
L 1259 2491 
L 2053 2491 
Q 2509 2491 2742 2702 
Q 2975 2913 2975 3322 
Q 2975 3731 2742 3939 
Q 2509 4147 2053 4147 
L 1259 4147 
z
" transform="scale(0.015625)"/>
       <path id="DejaVuSans-75" d="M 544 1381 
L 544 3500 
L 1119 3500 
L 1119 1403 
Q 1119 906 1312 657 
Q 1506 409 1894 409 
Q 2359 409 2629 706 
Q 2900 1003 2900 1516 
L 2900 3500 
L 3475 3500 
L 3475 0 
L 2900 0 
L 2900 538 
Q 2691 219 2414 64 
Q 2138 -91 1772 -91 
Q 1169 -91 856 284 
Q 544 659 544 1381 
z
M 1991 3584 
L 1991 3584 
z
" transform="scale(0.015625)"/>
       <path id="DejaVuSans-64" d="M 2906 2969 
L 2906 4863 
L 3481 4863 
L 3481 0 
L 2906 0 
L 2906 525 
Q 2725 213 2448 61 
Q 2172 -91 1784 -91 
Q 1150 -91 751 415 
Q 353 922 353 1747 
Q 353 2572 751 3078 
Q 1150 3584 1784 3584 
Q 2172 3584 2448 3432 
Q 2725 3281 2906 2969 
z
M 947 1747 
Q 947 1113 1208 752 
Q 1469 391 1925 391 
Q 2381 391 2643 752 
Q 2906 1113 2906 1747 
Q 2906 2381 2643 2742 
Q 2381 3103 1925 3103 
Q 1469 3103 1208 2742 
Q 947 2381 947 1747 
z
" transform="scale(0.015625)"/>
      </defs>
      <use xlink:href="#DejaVuSans-44"/>
      <use xlink:href="#DejaVuSans-65" x="77.001953"/>
      <use xlink:href="#DejaVuSans-63" x="138.525391"/>
      <use xlink:href="#DejaVuSans-69" x="193.505859"/>
      <use xlink:href="#DejaVuSans-73" x="221.289062"/>
      <use xlink:href="#DejaVuSans-69" x="273.388672"/>
      <use xlink:href="#DejaVuSans-6f" x="301.171875"/>
      <use xlink:href="#DejaVuSans-6e" x="362.353516"/>
      <use xlink:href="#DejaVuSans-20" x="425.732422"/>
      <use xlink:href="#DejaVuSans-52" x="457.519531"/>
      <use xlink:href="#DejaVuSans-6f" x="522.501953"/>
      <use xlink:href="#DejaVuSans-75" x="583.683594"/>
      <use xlink:href="#DejaVuSans-6e" x="647.0625"/>
      <use xlink:href="#DejaVuSans-64" x="710.441406"/>
     </g>
    </g>
   </g>
   <g id="matplotlib.axis_2">
    <g id="ytick_1">
     <g id="line2d_13">
      <path d="M 70.870625 302.607214 
L 573.070625 302.607214 
" clip-path="url(#pdbc5d1e4c7)" style="fill: none; stroke-dasharray: 1.85,0.8; stroke-dashoffset: 0; stroke: #b0b0b0; stroke-width: 0.5"/>
     </g>
     <g id="line2d_14">
      <defs>
       <path id="m4fe1b72b23" d="M 0 0 
L -3.5 0 
" style="stroke: #000000; stroke-width: 0.8"/>
      </defs>
      <g>
       <use xlink:href="#m4fe1b72b23" x="70.870625" y="302.607214" style="stroke: #000000; stroke-width: 0.8"/>
      </g>
     </g>
     <g id="text_8">
      <!-- $\mathdefault{10^{-2}}$ -->
      <g transform="translate(28.620625 308.306042) scale(0.15 -0.15)">
       <defs>
        <path id="DejaVuSans-2212" d="M 678 2272 
L 4684 2272 
L 4684 1741 
L 678 1741 
L 678 2272 
z
" transform="scale(0.015625)"/>
       </defs>
       <use xlink:href="#DejaVuSans-31" transform="translate(0 0.765625)"/>
       <use xlink:href="#DejaVuSans-30" transform="translate(63.623047 0.765625)"/>
       <use xlink:href="#DejaVuSans-2212" transform="translate(128.203125 39.046875) scale(0.7)"/>
       <use xlink:href="#DejaVuSans-32" transform="translate(186.855469 39.046875) scale(0.7)"/>
      </g>
     </g>
    </g>
    <g id="ytick_2">
     <g id="line2d_15">
      <path d="M 70.870625 232.177453 
L 573.070625 232.177453 
" clip-path="url(#pdbc5d1e4c7)" style="fill: none; stroke-dasharray: 1.85,0.8; stroke-dashoffset: 0; stroke: #b0b0b0; stroke-width: 0.5"/>
     </g>
     <g id="line2d_16">
      <g>
       <use xlink:href="#m4fe1b72b23" x="70.870625" y="232.177453" style="stroke: #000000; stroke-width: 0.8"/>
      </g>
     </g>
     <g id="text_9">
      <!-- $\mathdefault{10^{-1}}$ -->
      <g transform="translate(28.620625 237.876281) scale(0.15 -0.15)">
       <use xlink:href="#DejaVuSans-31" transform="translate(0 0.684375)"/>
       <use xlink:href="#DejaVuSans-30" transform="translate(63.623047 0.684375)"/>
       <use xlink:href="#DejaVuSans-2212" transform="translate(128.203125 38.965625) scale(0.7)"/>
       <use xlink:href="#DejaVuSans-31" transform="translate(186.855469 38.965625) scale(0.7)"/>
      </g>
     </g>
    </g>
    <g id="ytick_3">
     <g id="line2d_17">
      <path d="M 70.870625 161.747692 
L 573.070625 161.747692 
" clip-path="url(#pdbc5d1e4c7)" style="fill: none; stroke-dasharray: 1.85,0.8; stroke-dashoffset: 0; stroke: #b0b0b0; stroke-width: 0.5"/>
     </g>
     <g id="line2d_18">
      <g>
       <use xlink:href="#m4fe1b72b23" x="70.870625" y="161.747692" style="stroke: #000000; stroke-width: 0.8"/>
      </g>
     </g>
     <g id="text_10">
      <!-- $\mathdefault{10^{0}}$ -->
      <g transform="translate(37.470625 167.44652) scale(0.15 -0.15)">
       <use xlink:href="#DejaVuSans-31" transform="translate(0 0.765625)"/>
       <use xlink:href="#DejaVuSans-30" transform="translate(63.623047 0.765625)"/>
       <use xlink:href="#DejaVuSans-30" transform="translate(128.203125 39.046875) scale(0.7)"/>
      </g>
     </g>
    </g>
    <g id="ytick_4">
     <g id="line2d_19">
      <path d="M 70.870625 91.317931 
L 573.070625 91.317931 
" clip-path="url(#pdbc5d1e4c7)" style="fill: none; stroke-dasharray: 1.85,0.8; stroke-dashoffset: 0; stroke: #b0b0b0; stroke-width: 0.5"/>
     </g>
     <g id="line2d_20">
      <g>
       <use xlink:href="#m4fe1b72b23" x="70.870625" y="91.317931" style="stroke: #000000; stroke-width: 0.8"/>
      </g>
     </g>
     <g id="text_11">
      <!-- $\mathdefault{10^{1}}$ -->
      <g transform="translate(37.470625 97.016759) scale(0.15 -0.15)">
       <use xlink:href="#DejaVuSans-31" transform="translate(0 0.684375)"/>
       <use xlink:href="#DejaVuSans-30" transform="translate(63.623047 0.684375)"/>
       <use xlink:href="#DejaVuSans-31" transform="translate(128.203125 38.965625) scale(0.7)"/>
      </g>
     </g>
    </g>
    <g id="ytick_5">
     <g id="line2d_21">
      <path d="M 70.870625 20.88817 
L 573.070625 20.88817 
" clip-path="url(#pdbc5d1e4c7)" style="fill: none; stroke-dasharray: 1.85,0.8; stroke-dashoffset: 0; stroke: #b0b0b0; stroke-width: 0.5"/>
     </g>
     <g id="line2d_22">
      <g>
       <use xlink:href="#m4fe1b72b23" x="70.870625" y="20.88817" style="stroke: #000000; stroke-width: 0.8"/>
      </g>
     </g>
     <g id="text_12">
      <!-- $\mathdefault{10^{2}}$ -->
      <g transform="translate(37.470625 26.586998) scale(0.15 -0.15)">
       <use xlink:href="#DejaVuSans-31" transform="translate(0 0.765625)"/>
       <use xlink:href="#DejaVuSans-30" transform="translate(63.623047 0.765625)"/>
       <use xlink:href="#DejaVuSans-32" transform="translate(128.203125 39.046875) scale(0.7)"/>
      </g>
     </g>
    </g>
    <g id="ytick_6">
     <g id="line2d_23">
      <defs>
       <path id="m8dfaa2aac3" d="M 0 0 
L -2 0 
" style="stroke: #000000; stroke-width: 0.6"/>
      </defs>
      <g>
       <use xlink:href="#m8dfaa2aac3" x="70.870625" y="339.43344" style="stroke: #000000; stroke-width: 0.6"/>
      </g>
     </g>
    </g>
    <g id="ytick_7">
     <g id="line2d_24">
      <g>
       <use xlink:href="#m8dfaa2aac3" x="70.870625" y="330.634034" style="stroke: #000000; stroke-width: 0.6"/>
      </g>
     </g>
    </g>
    <g id="ytick_8">
     <g id="line2d_25">
      <g>
       <use xlink:href="#m8dfaa2aac3" x="70.870625" y="323.808685" style="stroke: #000000; stroke-width: 0.6"/>
      </g>
     </g>
    </g>
    <g id="ytick_9">
     <g id="line2d_26">
      <g>
       <use xlink:href="#m8dfaa2aac3" x="70.870625" y="318.231969" style="stroke: #000000; stroke-width: 0.6"/>
      </g>
     </g>
    </g>
    <g id="ytick_10">
     <g id="line2d_27">
      <g>
       <use xlink:href="#m8dfaa2aac3" x="70.870625" y="313.516922" style="stroke: #000000; stroke-width: 0.6"/>
      </g>
     </g>
    </g>
    <g id="ytick_11">
     <g id="line2d_28">
      <g>
       <use xlink:href="#m8dfaa2aac3" x="70.870625" y="309.432563" style="stroke: #000000; stroke-width: 0.6"/>
      </g>
     </g>
    </g>
    <g id="ytick_12">
     <g id="line2d_29">
      <g>
       <use xlink:href="#m8dfaa2aac3" x="70.870625" y="305.829903" style="stroke: #000000; stroke-width: 0.6"/>
      </g>
     </g>
    </g>
    <g id="ytick_13">
     <g id="line2d_30">
      <g>
       <use xlink:href="#m8dfaa2aac3" x="70.870625" y="281.405744" style="stroke: #000000; stroke-width: 0.6"/>
      </g>
     </g>
    </g>
    <g id="ytick_14">
     <g id="line2d_31">
      <g>
       <use xlink:href="#m8dfaa2aac3" x="70.870625" y="269.003678" style="stroke: #000000; stroke-width: 0.6"/>
      </g>
     </g>
    </g>
    <g id="ytick_15">
     <g id="line2d_32">
      <g>
       <use xlink:href="#m8dfaa2aac3" x="70.870625" y="260.204273" style="stroke: #000000; stroke-width: 0.6"/>
      </g>
     </g>
    </g>
    <g id="ytick_16">
     <g id="line2d_33">
      <g>
       <use xlink:href="#m8dfaa2aac3" x="70.870625" y="253.378924" style="stroke: #000000; stroke-width: 0.6"/>
      </g>
     </g>
    </g>
    <g id="ytick_17">
     <g id="line2d_34">
      <g>
       <use xlink:href="#m8dfaa2aac3" x="70.870625" y="247.802208" style="stroke: #000000; stroke-width: 0.6"/>
      </g>
     </g>
    </g>
    <g id="ytick_18">
     <g id="line2d_35">
      <g>
       <use xlink:href="#m8dfaa2aac3" x="70.870625" y="243.087161" style="stroke: #000000; stroke-width: 0.6"/>
      </g>
     </g>
    </g>
    <g id="ytick_19">
     <g id="line2d_36">
      <g>
       <use xlink:href="#m8dfaa2aac3" x="70.870625" y="239.002802" style="stroke: #000000; stroke-width: 0.6"/>
      </g>
     </g>
    </g>
    <g id="ytick_20">
     <g id="line2d_37">
      <g>
       <use xlink:href="#m8dfaa2aac3" x="70.870625" y="235.400142" style="stroke: #000000; stroke-width: 0.6"/>
      </g>
     </g>
    </g>
    <g id="ytick_21">
     <g id="line2d_38">
      <g>
       <use xlink:href="#m8dfaa2aac3" x="70.870625" y="210.975983" style="stroke: #000000; stroke-width: 0.6"/>
      </g>
     </g>
    </g>
    <g id="ytick_22">
     <g id="line2d_39">
      <g>
       <use xlink:href="#m8dfaa2aac3" x="70.870625" y="198.573917" style="stroke: #000000; stroke-width: 0.6"/>
      </g>
     </g>
    </g>
    <g id="ytick_23">
     <g id="line2d_40">
      <g>
       <use xlink:href="#m8dfaa2aac3" x="70.870625" y="189.774512" style="stroke: #000000; stroke-width: 0.6"/>
      </g>
     </g>
    </g>
    <g id="ytick_24">
     <g id="line2d_41">
      <g>
       <use xlink:href="#m8dfaa2aac3" x="70.870625" y="182.949163" style="stroke: #000000; stroke-width: 0.6"/>
      </g>
     </g>
    </g>
    <g id="ytick_25">
     <g id="line2d_42">
      <g>
       <use xlink:href="#m8dfaa2aac3" x="70.870625" y="177.372447" style="stroke: #000000; stroke-width: 0.6"/>
      </g>
     </g>
    </g>
    <g id="ytick_26">
     <g id="line2d_43">
      <g>
       <use xlink:href="#m8dfaa2aac3" x="70.870625" y="172.6574" style="stroke: #000000; stroke-width: 0.6"/>
      </g>
     </g>
    </g>
    <g id="ytick_27">
     <g id="line2d_44">
      <g>
       <use xlink:href="#m8dfaa2aac3" x="70.870625" y="168.573041" style="stroke: #000000; stroke-width: 0.6"/>
      </g>
     </g>
    </g>
    <g id="ytick_28">
     <g id="line2d_45">
      <g>
       <use xlink:href="#m8dfaa2aac3" x="70.870625" y="164.970381" style="stroke: #000000; stroke-width: 0.6"/>
      </g>
     </g>
    </g>
    <g id="ytick_29">
     <g id="line2d_46">
      <g>
       <use xlink:href="#m8dfaa2aac3" x="70.870625" y="140.546221" style="stroke: #000000; stroke-width: 0.6"/>
      </g>
     </g>
    </g>
    <g id="ytick_30">
     <g id="line2d_47">
      <g>
       <use xlink:href="#m8dfaa2aac3" x="70.870625" y="128.144156" style="stroke: #000000; stroke-width: 0.6"/>
      </g>
     </g>
    </g>
    <g id="ytick_31">
     <g id="line2d_48">
      <g>
       <use xlink:href="#m8dfaa2aac3" x="70.870625" y="119.344751" style="stroke: #000000; stroke-width: 0.6"/>
      </g>
     </g>
    </g>
    <g id="ytick_32">
     <g id="line2d_49">
      <g>
       <use xlink:href="#m8dfaa2aac3" x="70.870625" y="112.519402" style="stroke: #000000; stroke-width: 0.6"/>
      </g>
     </g>
    </g>
    <g id="ytick_33">
     <g id="line2d_50">
      <g>
       <use xlink:href="#m8dfaa2aac3" x="70.870625" y="106.942685" style="stroke: #000000; stroke-width: 0.6"/>
      </g>
     </g>
    </g>
    <g id="ytick_34">
     <g id="line2d_51">
      <g>
       <use xlink:href="#m8dfaa2aac3" x="70.870625" y="102.227639" style="stroke: #000000; stroke-width: 0.6"/>
      </g>
     </g>
    </g>
    <g id="ytick_35">
     <g id="line2d_52">
      <g>
       <use xlink:href="#m8dfaa2aac3" x="70.870625" y="98.14328" style="stroke: #000000; stroke-width: 0.6"/>
      </g>
     </g>
    </g>
    <g id="ytick_36">
     <g id="line2d_53">
      <g>
       <use xlink:href="#m8dfaa2aac3" x="70.870625" y="94.54062" style="stroke: #000000; stroke-width: 0.6"/>
      </g>
     </g>
    </g>
    <g id="ytick_37">
     <g id="line2d_54">
      <g>
       <use xlink:href="#m8dfaa2aac3" x="70.870625" y="70.11646" style="stroke: #000000; stroke-width: 0.6"/>
      </g>
     </g>
    </g>
    <g id="ytick_38">
     <g id="line2d_55">
      <g>
       <use xlink:href="#m8dfaa2aac3" x="70.870625" y="57.714395" style="stroke: #000000; stroke-width: 0.6"/>
      </g>
     </g>
    </g>
    <g id="ytick_39">
     <g id="line2d_56">
      <g>
       <use xlink:href="#m8dfaa2aac3" x="70.870625" y="48.91499" style="stroke: #000000; stroke-width: 0.6"/>
      </g>
     </g>
    </g>
    <g id="ytick_40">
     <g id="line2d_57">
      <g>
       <use xlink:href="#m8dfaa2aac3" x="70.870625" y="42.08964" style="stroke: #000000; stroke-width: 0.6"/>
      </g>
     </g>
    </g>
    <g id="ytick_41">
     <g id="line2d_58">
      <g>
       <use xlink:href="#m8dfaa2aac3" x="70.870625" y="36.512924" style="stroke: #000000; stroke-width: 0.6"/>
      </g>
     </g>
    </g>
    <g id="ytick_42">
     <g id="line2d_59">
      <g>
       <use xlink:href="#m8dfaa2aac3" x="70.870625" y="31.797878" style="stroke: #000000; stroke-width: 0.6"/>
      </g>
     </g>
    </g>
    <g id="ytick_43">
     <g id="line2d_60">
      <g>
       <use xlink:href="#m8dfaa2aac3" x="70.870625" y="27.713519" style="stroke: #000000; stroke-width: 0.6"/>
      </g>
     </g>
    </g>
    <g id="ytick_44">
     <g id="line2d_61">
      <g>
       <use xlink:href="#m8dfaa2aac3" x="70.870625" y="24.110859" style="stroke: #000000; stroke-width: 0.6"/>
      </g>
     </g>
    </g>
    <g id="text_13">
     <!-- Runtime -->
     <g transform="translate(20.877188 211.109063) rotate(-90) scale(0.18 -0.18)">
      <defs>
       <path id="DejaVuSans-74" d="M 1172 4494 
L 1172 3500 
L 2356 3500 
L 2356 3053 
L 1172 3053 
L 1172 1153 
Q 1172 725 1289 603 
Q 1406 481 1766 481 
L 2356 481 
L 2356 0 
L 1766 0 
Q 1100 0 847 248 
Q 594 497 594 1153 
L 594 3053 
L 172 3053 
L 172 3500 
L 594 3500 
L 594 4494 
L 1172 4494 
z
" transform="scale(0.015625)"/>
       <path id="DejaVuSans-6d" d="M 3328 2828 
Q 3544 3216 3844 3400 
Q 4144 3584 4550 3584 
Q 5097 3584 5394 3201 
Q 5691 2819 5691 2113 
L 5691 0 
L 5113 0 
L 5113 2094 
Q 5113 2597 4934 2840 
Q 4756 3084 4391 3084 
Q 3944 3084 3684 2787 
Q 3425 2491 3425 1978 
L 3425 0 
L 2847 0 
L 2847 2094 
Q 2847 2600 2669 2842 
Q 2491 3084 2119 3084 
Q 1678 3084 1418 2786 
Q 1159 2488 1159 1978 
L 1159 0 
L 581 0 
L 581 3500 
L 1159 3500 
L 1159 2956 
Q 1356 3278 1631 3431 
Q 1906 3584 2284 3584 
Q 2666 3584 2933 3390 
Q 3200 3197 3328 2828 
z
" transform="scale(0.015625)"/>
      </defs>
      <use xlink:href="#DejaVuSans-52"/>
      <use xlink:href="#DejaVuSans-75" x="64.982422"/>
      <use xlink:href="#DejaVuSans-6e" x="128.361328"/>
      <use xlink:href="#DejaVuSans-74" x="191.740234"/>
      <use xlink:href="#DejaVuSans-69" x="230.949219"/>
      <use xlink:href="#DejaVuSans-6d" x="258.732422"/>
      <use xlink:href="#DejaVuSans-65" x="356.144531"/>
     </g>
    </g>
   </g>
   <g id="line2d_62">
    <path d="M 93.697898 276.151581 
L 98.309468 161.212134 
L 102.921038 152.028647 
L 107.532608 142.517768 
L 112.144179 133.404514 
L 116.755749 126.669465 
L 121.367319 123.109048 
L 125.978889 119.750605 
L 130.59046 116.76089 
L 135.20203 114.672988 
L 139.8136 112.877836 
L 144.42517 110.876599 
L 149.036741 109.033432 
L 153.648311 106.844827 
L 158.259881 105.418502 
L 162.871451 104.104639 
L 167.483022 102.674644 
L 172.094592 101.657707 
L 176.706162 100.711086 
L 181.317732 99.653462 
L 185.929303 98.357119 
L 190.540873 97.064895 
L 195.152443 95.790327 
L 199.764013 94.395164 
L 204.375584 93.071745 
L 208.987154 91.983578 
L 213.598724 90.766516 
L 218.210294 89.633945 
L 222.821865 88.539158 
L 227.433435 87.607185 
L 232.045005 86.561292 
L 236.656575 85.55878 
L 241.268146 84.115767 
L 245.879716 83.006862 
L 250.491286 81.954663 
L 255.102856 80.877397 
L 259.714427 79.845211 
L 264.325997 78.863655 
L 268.937567 77.950045 
L 273.549137 76.977968 
L 278.160708 76.034552 
L 282.772278 75.136109 
L 287.383848 74.119305 
L 291.995418 73.115427 
L 296.606989 72.128267 
L 301.218559 71.210412 
L 305.830129 70.303161 
L 310.441699 69.386249 
L 315.05327 68.47613 
L 319.66484 67.618112 
L 324.27641 66.754536 
L 328.88798 65.859615 
L 333.499551 64.96526 
L 338.111121 64.012392 
L 342.722691 63.114909 
L 347.334261 62.267071 
L 351.945832 61.435705 
L 356.557402 60.584542 
L 361.168972 59.792442 
L 365.780542 59.036207 
L 370.392113 58.265571 
L 375.003683 57.520353 
L 379.615253 56.762463 
L 384.226823 55.931481 
L 388.838394 55.142967 
L 393.449964 54.352325 
L 398.061534 53.58251 
L 402.673104 52.838782 
L 407.284675 52.150172 
L 411.896245 51.471668 
L 416.507815 50.786299 
L 421.119385 50.111886 
L 425.730956 49.465891 
L 430.342526 48.804604 
L 434.954096 48.098947 
L 439.565666 47.382985 
L 444.177237 46.672812 
L 448.788807 46.02189 
L 453.400377 45.354202 
L 458.011947 44.72572 
L 462.623518 44.097692 
L 467.235088 43.486221 
L 471.846658 42.864249 
L 476.458228 42.218255 
L 481.069799 41.565311 
L 485.681369 40.910702 
L 490.292939 40.286221 
L 494.904509 39.661883 
L 499.51608 39.050995 
L 504.12765 38.461135 
L 508.73922 37.881548 
L 513.35079 37.2908 
L 517.962361 36.726229 
L 522.573931 36.180074 
L 527.185501 35.629355 
L 531.797071 35.096381 
L 536.408642 34.563212 
L 541.020212 34.06551 
L 545.631782 33.573096 
L 550.243352 33.063226 
" clip-path="url(#pdbc5d1e4c7)" style="fill: none; stroke: #386cb0; stroke-width: 3; stroke-linecap: square"/>
   </g>
   <g id="line2d_63">
    <path d="M 93.697898 286.176384 
L 98.309468 157.197758 
L 102.921038 149.007494 
L 107.532608 140.274073 
L 112.144179 131.723111 
L 116.755749 128.137228 
L 121.367319 123.986058 
L 125.978889 120.955321 
L 130.59046 118.016952 
L 135.20203 116.34441 
L 139.8136 114.783116 
L 144.42517 113.440876 
L 149.036741 111.841414 
L 153.648311 109.928561 
L 158.259881 108.506732 
L 162.871451 107.489044 
L 167.483022 106.250862 
L 172.094592 105.442844 
L 176.706162 104.743181 
L 181.317732 103.718374 
L 185.929303 102.466321 
L 190.540873 101.78625 
L 195.152443 100.959476 
L 199.764013 99.978451 
L 204.375584 99.235022 
L 208.987154 98.699539 
L 213.598724 97.933735 
L 218.210294 97.217367 
L 222.821865 96.467877 
L 227.433435 95.915049 
L 232.045005 95.267534 
L 236.656575 94.673796 
L 241.268146 94.215926 
L 245.879716 93.822836 
L 250.491286 93.393257 
L 255.102856 92.964334 
L 259.714427 92.409383 
L 264.325997 91.863268 
L 268.937567 91.416862 
L 273.549137 90.737328 
L 278.160708 90.451672 
L 282.772278 90.044689 
L 287.383848 89.549457 
L 291.995418 89.182653 
L 296.606989 88.887421 
L 301.218559 88.55427 
L 305.830129 88.201468 
L 310.441699 87.86165 
L 315.05327 87.596492 
L 319.66484 87.198434 
L 324.27641 86.958018 
L 328.88798 86.486442 
L 333.499551 86.145983 
L 338.111121 85.657303 
L 342.722691 85.246689 
L 347.334261 84.80356 
L 351.945832 84.462534 
L 356.557402 84.122532 
L 361.168972 83.722652 
L 365.780542 83.381063 
L 370.392113 83.007313 
L 375.003683 82.425509 
L 379.615253 82.052917 
L 384.226823 81.696225 
L 388.838394 81.416989 
L 393.449964 81.079594 
L 398.061534 80.845247 
L 402.673104 80.603287 
L 407.284675 80.266204 
L 411.896245 80.022719 
L 416.507815 79.583397 
L 421.119385 79.227579 
L 425.730956 78.927746 
L 430.342526 78.660767 
L 434.954096 78.404191 
L 439.565666 78.16975 
L 444.177237 77.708698 
L 448.788807 77.289031 
L 453.400377 76.954406 
L 458.011947 76.821872 
L 462.623518 76.692212 
L 467.235088 76.415264 
L 471.846658 76.137093 
L 476.458228 75.782982 
L 481.069799 75.402854 
L 485.681369 75.225805 
L 490.292939 75.030849 
L 494.904509 74.791775 
L 499.51608 74.578584 
L 504.12765 74.342216 
L 508.73922 74.088711 
L 513.35079 73.791088 
L 517.962361 73.583366 
L 522.573931 73.396081 
L 527.185501 73.100487 
L 531.797071 72.924451 
L 536.408642 72.676426 
L 541.020212 72.493409 
L 545.631782 72.350062 
L 550.243352 72.127054 
" clip-path="url(#pdbc5d1e4c7)" style="fill: none; stroke: #f0027f; stroke-width: 3; stroke-linecap: square"/>
   </g>
   <g id="line2d_64">
    <path d="M 93.697898 151.133525 
L 98.309468 121.983051 
L 102.921038 112.629299 
L 107.532608 106.677024 
L 112.144179 104.078173 
L 116.755749 101.894954 
L 121.367319 100.009017 
L 125.978889 98.365691 
L 130.59046 96.761784 
L 135.20203 95.256609 
L 139.8136 93.775894 
L 144.42517 92.387784 
L 149.036741 91.11595 
L 153.648311 89.848177 
L 158.259881 88.659213 
L 162.871451 87.54222 
L 167.483022 86.44195 
L 172.094592 85.370152 
L 176.706162 84.350945 
L 181.317732 83.348753 
L 185.929303 82.399227 
L 190.540873 81.175139 
L 195.152443 80.065871 
L 199.764013 79.025102 
L 204.375584 78.00319 
L 208.987154 77.030155 
L 213.598724 76.118705 
L 218.210294 75.193109 
L 222.821865 74.280556 
L 227.433435 73.334905 
L 232.045005 72.496077 
L 236.656575 71.680775 
L 241.268146 70.673433 
L 245.879716 69.742995 
L 250.491286 68.837688 
L 255.102856 67.952102 
L 259.714427 66.965792 
L 264.325997 66.033697 
L 268.937567 65.14246 
L 273.549137 64.259423 
L 278.160708 63.411065 
L 282.772278 62.576862 
L 287.383848 61.590189 
L 291.995418 60.649003 
L 296.606989 59.745414 
L 301.218559 58.849322 
L 305.830129 57.956621 
L 310.441699 57.09832 
L 315.05327 56.260072 
L 319.66484 55.42735 
L 324.27641 54.614781 
L 328.88798 53.807774 
L 333.499551 53.02486 
L 338.111121 52.194036 
L 342.722691 51.452194 
L 347.334261 50.72987 
L 351.945832 50.040881 
L 356.557402 49.373912 
L 361.168972 48.696127 
L 365.780542 48.062175 
L 370.392113 47.427562 
L 375.003683 46.80988 
L 379.615253 46.191248 
L 384.226823 45.51967 
L 388.838394 44.852737 
L 393.449964 44.211324 
L 398.061534 43.562996 
L 402.673104 42.909912 
L 407.284675 42.281524 
L 411.896245 41.656517 
L 416.507815 41.050219 
L 421.119385 40.463385 
L 425.730956 39.871202 
L 430.342526 39.307065 
L 434.954096 38.685568 
L 439.565666 38.077761 
L 444.177237 37.488426 
L 448.788807 36.901092 
L 453.400377 36.331205 
L 458.011947 35.770934 
L 462.623518 35.234845 
L 467.235088 34.691487 
L 471.846658 34.158914 
L 476.458228 33.611575 
L 481.069799 33.052049 
L 485.681369 32.491341 
L 490.292939 31.952551 
L 494.904509 31.413791 
L 499.51608 30.888105 
L 504.12765 30.366569 
L 508.73922 29.851901 
L 513.35079 29.340854 
L 517.962361 28.844892 
L 522.573931 28.348188 
L 527.185501 27.87705 
L 531.797071 27.403523 
L 536.408642 26.930724 
L 541.020212 26.482917 
L 545.631782 26.039856 
L 550.243352 25.591606 
" clip-path="url(#pdbc5d1e4c7)" style="fill: none; stroke: #bf5b17; stroke-width: 3; stroke-linecap: square"/>
   </g>
   <g id="patch_3">
    <path d="M 70.870625 339.84 
L 70.870625 7.2 
" style="fill: none; stroke: #000000; stroke-width: 0.8; stroke-linejoin: miter; stroke-linecap: square"/>
   </g>
   <g id="patch_4">
    <path d="M 573.070625 339.84 
L 573.070625 7.2 
" style="fill: none; stroke: #000000; stroke-width: 0.8; stroke-linejoin: miter; stroke-linecap: square"/>
   </g>
   <g id="patch_5">
    <path d="M 70.870625 339.84 
L 573.070625 339.84 
" style="fill: none; stroke: #000000; stroke-width: 0.8; stroke-linejoin: miter; stroke-linecap: square"/>
   </g>
   <g id="patch_6">
    <path d="M 70.870625 7.2 
L 573.070625 7.2 
" style="fill: none; stroke: #000000; stroke-width: 0.8; stroke-linejoin: miter; stroke-linecap: square"/>
   </g>
   <g id="legend_1">
    <g id="patch_7">
     <path d="M 365.330625 331.84 
L 561.870625 331.84 
Q 565.070625 331.84 565.070625 328.64 
L 565.070625 259.785 
Q 565.070625 256.585 561.870625 256.585 
L 365.330625 256.585 
Q 362.130625 256.585 362.130625 259.785 
L 362.130625 328.64 
Q 362.130625 331.84 365.330625 331.84 
z
" style="fill: #ffffff; opacity: 0.8; stroke: #cccccc; stroke-linejoin: miter"/>
    </g>
    <g id="line2d_65">
     <path d="M 368.530625 269.5425 
L 384.530625 269.5425 
L 400.530625 269.5425 
" style="fill: none; stroke: #386cb0; stroke-width: 3; stroke-linecap: square"/>
    </g>
    <g id="text_14">
     <!-- M/GP-MBTL (Ours) -->
     <g transform="translate(413.330625 275.1425) scale(0.16 -0.16)">
      <defs>
       <path id="DejaVuSans-4d" d="M 628 4666 
L 1569 4666 
L 2759 1491 
L 3956 4666 
L 4897 4666 
L 4897 0 
L 4281 0 
L 4281 4097 
L 3078 897 
L 2444 897 
L 1241 4097 
L 1241 0 
L 628 0 
L 628 4666 
z
" transform="scale(0.015625)"/>
       <path id="DejaVuSans-2f" d="M 1625 4666 
L 2156 4666 
L 531 -594 
L 0 -594 
L 1625 4666 
z
" transform="scale(0.015625)"/>
       <path id="DejaVuSans-47" d="M 3809 666 
L 3809 1919 
L 2778 1919 
L 2778 2438 
L 4434 2438 
L 4434 434 
Q 4069 175 3628 42 
Q 3188 -91 2688 -91 
Q 1594 -91 976 548 
Q 359 1188 359 2328 
Q 359 3472 976 4111 
Q 1594 4750 2688 4750 
Q 3144 4750 3555 4637 
Q 3966 4525 4313 4306 
L 4313 3634 
Q 3963 3931 3569 4081 
Q 3175 4231 2741 4231 
Q 1884 4231 1454 3753 
Q 1025 3275 1025 2328 
Q 1025 1384 1454 906 
Q 1884 428 2741 428 
Q 3075 428 3337 486 
Q 3600 544 3809 666 
z
" transform="scale(0.015625)"/>
       <path id="DejaVuSans-50" d="M 1259 4147 
L 1259 2394 
L 2053 2394 
Q 2494 2394 2734 2622 
Q 2975 2850 2975 3272 
Q 2975 3691 2734 3919 
Q 2494 4147 2053 4147 
L 1259 4147 
z
M 628 4666 
L 2053 4666 
Q 2838 4666 3239 4311 
Q 3641 3956 3641 3272 
Q 3641 2581 3239 2228 
Q 2838 1875 2053 1875 
L 1259 1875 
L 1259 0 
L 628 0 
L 628 4666 
z
" transform="scale(0.015625)"/>
       <path id="DejaVuSans-2d" d="M 313 2009 
L 1997 2009 
L 1997 1497 
L 313 1497 
L 313 2009 
z
" transform="scale(0.015625)"/>
       <path id="DejaVuSans-42" d="M 1259 2228 
L 1259 519 
L 2272 519 
Q 2781 519 3026 730 
Q 3272 941 3272 1375 
Q 3272 1813 3026 2020 
Q 2781 2228 2272 2228 
L 1259 2228 
z
M 1259 4147 
L 1259 2741 
L 2194 2741 
Q 2656 2741 2882 2914 
Q 3109 3088 3109 3444 
Q 3109 3797 2882 3972 
Q 2656 4147 2194 4147 
L 1259 4147 
z
M 628 4666 
L 2241 4666 
Q 2963 4666 3353 4366 
Q 3744 4066 3744 3513 
Q 3744 3084 3544 2831 
Q 3344 2578 2956 2516 
Q 3422 2416 3680 2098 
Q 3938 1781 3938 1306 
Q 3938 681 3513 340 
Q 3088 0 2303 0 
L 628 0 
L 628 4666 
z
" transform="scale(0.015625)"/>
       <path id="DejaVuSans-54" d="M -19 4666 
L 3928 4666 
L 3928 4134 
L 2272 4134 
L 2272 0 
L 1638 0 
L 1638 4134 
L -19 4134 
L -19 4666 
z
" transform="scale(0.015625)"/>
       <path id="DejaVuSans-4c" d="M 628 4666 
L 1259 4666 
L 1259 531 
L 3531 531 
L 3531 0 
L 628 0 
L 628 4666 
z
" transform="scale(0.015625)"/>
       <path id="DejaVuSans-28" d="M 1984 4856 
Q 1566 4138 1362 3434 
Q 1159 2731 1159 2009 
Q 1159 1288 1364 580 
Q 1569 -128 1984 -844 
L 1484 -844 
Q 1016 -109 783 600 
Q 550 1309 550 2009 
Q 550 2706 781 3412 
Q 1013 4119 1484 4856 
L 1984 4856 
z
" transform="scale(0.015625)"/>
       <path id="DejaVuSans-4f" d="M 2522 4238 
Q 1834 4238 1429 3725 
Q 1025 3213 1025 2328 
Q 1025 1447 1429 934 
Q 1834 422 2522 422 
Q 3209 422 3611 934 
Q 4013 1447 4013 2328 
Q 4013 3213 3611 3725 
Q 3209 4238 2522 4238 
z
M 2522 4750 
Q 3503 4750 4090 4092 
Q 4678 3434 4678 2328 
Q 4678 1225 4090 567 
Q 3503 -91 2522 -91 
Q 1538 -91 948 565 
Q 359 1222 359 2328 
Q 359 3434 948 4092 
Q 1538 4750 2522 4750 
z
" transform="scale(0.015625)"/>
       <path id="DejaVuSans-72" d="M 2631 2963 
Q 2534 3019 2420 3045 
Q 2306 3072 2169 3072 
Q 1681 3072 1420 2755 
Q 1159 2438 1159 1844 
L 1159 0 
L 581 0 
L 581 3500 
L 1159 3500 
L 1159 2956 
Q 1341 3275 1631 3429 
Q 1922 3584 2338 3584 
Q 2397 3584 2469 3576 
Q 2541 3569 2628 3553 
L 2631 2963 
z
" transform="scale(0.015625)"/>
       <path id="DejaVuSans-29" d="M 513 4856 
L 1013 4856 
Q 1481 4119 1714 3412 
Q 1947 2706 1947 2009 
Q 1947 1309 1714 600 
Q 1481 -109 1013 -844 
L 513 -844 
Q 928 -128 1133 580 
Q 1338 1288 1338 2009 
Q 1338 2731 1133 3434 
Q 928 4138 513 4856 
z
" transform="scale(0.015625)"/>
      </defs>
      <use xlink:href="#DejaVuSans-4d"/>
      <use xlink:href="#DejaVuSans-2f" x="86.279297"/>
      <use xlink:href="#DejaVuSans-47" x="119.970703"/>
      <use xlink:href="#DejaVuSans-50" x="197.460938"/>
      <use xlink:href="#DejaVuSans-2d" x="255.513672"/>
      <use xlink:href="#DejaVuSans-4d" x="291.597656"/>
      <use xlink:href="#DejaVuSans-42" x="377.876953"/>
      <use xlink:href="#DejaVuSans-54" x="446.480469"/>
      <use xlink:href="#DejaVuSans-4c" x="507.564453"/>
      <use xlink:href="#DejaVuSans-20" x="563.277344"/>
      <use xlink:href="#DejaVuSans-28" x="595.064453"/>
      <use xlink:href="#DejaVuSans-4f" x="634.078125"/>
      <use xlink:href="#DejaVuSans-75" x="712.789062"/>
      <use xlink:href="#DejaVuSans-72" x="776.167969"/>
      <use xlink:href="#DejaVuSans-73" x="817.28125"/>
      <use xlink:href="#DejaVuSans-29" x="869.380859"/>
     </g>
    </g>
    <g id="line2d_66">
     <path d="M 368.530625 293.0275 
L 384.530625 293.0275 
L 400.530625 293.0275 
" style="fill: none; stroke: #f0027f; stroke-width: 3; stroke-linecap: square"/>
    </g>
    <g id="text_15">
     <!-- M-MBTL -->
     <g transform="translate(413.330625 298.6275) scale(0.16 -0.16)">
      <use xlink:href="#DejaVuSans-4d"/>
      <use xlink:href="#DejaVuSans-2d" x="86.279297"/>
      <use xlink:href="#DejaVuSans-4d" x="122.363281"/>
      <use xlink:href="#DejaVuSans-42" x="208.642578"/>
      <use xlink:href="#DejaVuSans-54" x="277.246094"/>
      <use xlink:href="#DejaVuSans-4c" x="338.330078"/>
     </g>
    </g>
    <g id="line2d_67">
     <path d="M 368.530625 316.5125 
L 384.530625 316.5125 
L 400.530625 316.5125 
" style="fill: none; stroke: #bf5b17; stroke-width: 3; stroke-linecap: square"/>
    </g>
    <g id="text_16">
     <!-- GP-MBTL -->
     <g transform="translate(413.330625 322.1125) scale(0.16 -0.16)">
      <use xlink:href="#DejaVuSans-47"/>
      <use xlink:href="#DejaVuSans-50" x="77.490234"/>
      <use xlink:href="#DejaVuSans-2d" x="135.542969"/>
      <use xlink:href="#DejaVuSans-4d" x="171.626953"/>
      <use xlink:href="#DejaVuSans-42" x="257.90625"/>
      <use xlink:href="#DejaVuSans-54" x="326.509766"/>
      <use xlink:href="#DejaVuSans-4c" x="387.59375"/>
     </g>
    </g>
   </g>
  </g>
 </g>
 <defs>
  <clipPath id="pdbc5d1e4c7">
   <rect x="70.870625" y="7.2" width="502.2" height="332.64"/>
  </clipPath>
 </defs>
</svg>
