<?xml version="1.0" encoding="utf-8" standalone="no"?>
<!DOCTYPE svg PUBLIC "-//W3C//DTD SVG 1.1//EN"
  "http://www.w3.org/Graphics/SVG/1.1/DTD/svg11.dtd">
<svg xmlns:xlink="http://www.w3.org/1999/xlink" width="578.419062pt" height="392.803069pt" viewBox="0 0 578.419062 392.803069" xmlns="http://www.w3.org/2000/svg" version="1.1">
 <metadata>
  <rdf:RDF xmlns:dc="http://purl.org/dc/elements/1.1/" xmlns:cc="http://creativecommons.org/ns#" xmlns:rdf="http://www.w3.org/1999/02/22-rdf-syntax-ns#">
   <cc:Work>
    <dc:type rdf:resource="http://purl.org/dc/dcmitype/StillImage"/>
    <dc:date>2025-11-18T14:57:10.390944</dc:date>
    <dc:format>image/svg+xml</dc:format>
    <dc:creator>
     <cc:Agent>
      <dc:title>Matplotlib v3.9.4, https://matplotlib.org/</dc:title>
     </cc:Agent>
    </dc:creator>
   </cc:Work>
  </rdf:RDF>
 </metadata>
 <defs>
  <style type="text/css">*{stroke-linejoin: round; stroke-linecap: butt}</style>
 </defs>
 <g id="figure_1">
  <g id="patch_1">
   <path d="M 0 392.803069 
L 578.419062 392.803069 
L 578.419062 0 
L 0 0 
z
" style="fill: #ffffff"/>
  </g>
  <g id="axes_1">
   <g id="patch_2">
    <path d="M 69.019063 342.665257 
L 571.219063 342.665257 
L 571.219063 10.025257 
L 69.019063 10.025257 
z
" style="fill: #ffffff"/>
   </g>
   <g id="PolyCollection_1">
    <defs>
     <path id="mf87d58fbce" d="M 91.846335 -220.460403 
L 91.846335 -65.257812 
L 172.738803 -133.19159 
L 220.057863 -159.495603 
L 253.631271 -193.569358 
L 279.672829 -213.619257 
L 300.950331 -224.06496 
L 318.940203 -230.862124 
L 334.523738 -241.906291 
L 348.269391 -248.134341 
L 360.565296 -253.788534 
L 371.688296 -259.888512 
L 381.842799 -264.164943 
L 391.184036 -267.434756 
L 399.83267 -269.724588 
L 407.884357 -274.370119 
L 415.416206 -276.643196 
L 422.491291 -279.55046 
L 429.161859 -281.767016 
L 435.471674 -283.331988 
L 441.457764 -285.560625 
L 447.15173 -288.193095 
L 452.580763 -289.910403 
L 457.768425 -292.162062 
L 462.735266 -293.419587 
L 467.499322 -294.114833 
L 472.076503 -295.731301 
L 476.480919 -296.720706 
L 480.725138 -297.9797 
L 484.820406 -298.468983 
L 488.776824 -300.47372 
L 492.6035 -301.014332 
L 496.308674 -301.785216 
L 499.899824 -302.273105 
L 503.383759 -303.575709 
L 506.766696 -304.13121 
L 510.054326 -304.934189 
L 513.251873 -305.168183 
L 516.364142 -305.687758 
L 519.395564 -306.483095 
L 522.350232 -307.610277 
L 525.231938 -308.573466 
L 528.044198 -309.483267 
L 530.790282 -310.341363 
L 533.473231 -310.836038 
L 536.095884 -311.397419 
L 538.660892 -311.877966 
L 541.170735 -312.748484 
L 543.627734 -313.352585 
L 546.03407 -313.827559 
L 548.39179 -314.120187 
L 548.39179 -333.987611 
L 548.39179 -333.987611 
L 546.03407 -333.863807 
L 543.627734 -333.457852 
L 541.170735 -333.263918 
L 538.660892 -333.069714 
L 536.095884 -332.739987 
L 533.473231 -332.197739 
L 530.790282 -332.02644 
L 528.044198 -331.694676 
L 525.231938 -331.427533 
L 522.350232 -330.676014 
L 519.395564 -330.386696 
L 516.364142 -329.541173 
L 513.251873 -329.332049 
L 510.054326 -329.266381 
L 506.766696 -328.920656 
L 503.383759 -328.710571 
L 499.899824 -328.327352 
L 496.308674 -328.029298 
L 492.6035 -327.311382 
L 488.776824 -326.851146 
L 484.820406 -326.645974 
L 480.725138 -325.508382 
L 476.480919 -325.041268 
L 472.076503 -324.380392 
L 467.499322 -324.048303 
L 462.735266 -323.71549 
L 457.768425 -323.104897 
L 452.580763 -322.760636 
L 447.15173 -322.124544 
L 441.457764 -321.381703 
L 435.471674 -320.465049 
L 429.161859 -318.602963 
L 422.491291 -317.478231 
L 415.416206 -316.111907 
L 407.884357 -315.130466 
L 399.83267 -314.039948 
L 391.184036 -313.175106 
L 381.842799 -310.944109 
L 371.688296 -309.560618 
L 360.565296 -307.88372 
L 348.269391 -306.192223 
L 334.523738 -304.744044 
L 318.940203 -300.9295 
L 300.950331 -298.078745 
L 279.672829 -292.059465 
L 253.631271 -282.245476 
L 220.057863 -270.323545 
L 172.738803 -255.094239 
L 91.846335 -220.460403 
z
" style="stroke: #7fc97f; stroke-opacity: 0.05"/>
    </defs>
    <g clip-path="url(#pa4137e728b)">
     <use xlink:href="#mf87d58fbce" x="0" y="392.803069" style="fill: #7fc97f; fill-opacity: 0.05; stroke: #7fc97f; stroke-opacity: 0.05"/>
    </g>
   </g>
   <g id="PolyCollection_2">
    <defs>
     <path id="m8fceddc682" d="M 91.846335 -201.677566 
L 91.846335 -199.447533 
L 172.738803 -199.729214 
L 220.057863 -209.048933 
L 253.631271 -217.28433 
L 279.672829 -221.097847 
L 300.950331 -252.537194 
L 318.940203 -279.490955 
L 334.523738 -279.554822 
L 348.269391 -281.367515 
L 360.565296 -282.131128 
L 371.688296 -282.142994 
L 381.842799 -282.149895 
L 391.184036 -282.151016 
L 399.83267 -282.703042 
L 407.884357 -287.722827 
L 415.416206 -287.808762 
L 422.491291 -288.308834 
L 429.161859 -288.308834 
L 435.471674 -303.748552 
L 441.457764 -303.769547 
L 447.15173 -303.770076 
L 452.580763 -303.816679 
L 457.768425 -304.385384 
L 462.735266 -304.629484 
L 467.499322 -317.772148 
L 472.076503 -318.550317 
L 476.480919 -318.550317 
L 480.725138 -318.565897 
L 484.820406 -318.5662 
L 488.776824 -318.567922 
L 492.6035 -318.567922 
L 496.308674 -318.934846 
L 499.899824 -318.940233 
L 503.383759 -318.941136 
L 506.766696 -319.054076 
L 510.054326 -319.054131 
L 513.251873 -319.421932 
L 516.364142 -319.799043 
L 519.395564 -319.801344 
L 522.350232 -319.801639 
L 525.231938 -320.154785 
L 528.044198 -320.172117 
L 530.790282 -320.172117 
L 533.473231 -320.180772 
L 536.095884 -320.483743 
L 538.660892 -321.611376 
L 541.170735 -321.611376 
L 543.627734 -321.614672 
L 546.03407 -321.615495 
L 548.39179 -325.200369 
L 548.39179 -326.747385 
L 548.39179 -326.747385 
L 546.03407 -323.211017 
L 543.627734 -323.21005 
L 541.170735 -323.20251 
L 538.660892 -323.20251 
L 536.095884 -322.119638 
L 533.473231 -321.819865 
L 530.790282 -321.804232 
L 528.044198 -321.804232 
L 525.231938 -321.791118 
L 522.350232 -321.440165 
L 519.395564 -321.438782 
L 516.364142 -321.433916 
L 513.251873 -321.086612 
L 510.054326 -320.774516 
L 506.766696 -320.774384 
L 503.383759 -320.664074 
L 499.899824 -320.662928 
L 496.308674 -320.656223 
L 492.6035 -320.311014 
L 488.776824 -320.311014 
L 484.820406 -320.309 
L 480.725138 -320.307558 
L 476.480919 -320.295646 
L 472.076503 -320.295646 
L 467.499322 -319.595293 
L 462.735266 -306.395452 
L 457.768425 -306.191256 
L 452.580763 -305.7004 
L 447.15173 -305.669812 
L 441.457764 -305.667492 
L 435.471674 -305.650751 
L 429.161859 -290.123945 
L 422.491291 -290.123945 
L 415.416206 -289.576909 
L 407.884357 -289.503606 
L 399.83267 -284.716578 
L 391.184036 -284.164594 
L 381.842799 -284.163795 
L 371.688296 -284.159307 
L 360.565296 -284.15067 
L 348.269391 -283.385162 
L 334.523738 -281.496863 
L 318.940203 -281.444757 
L 300.950331 -254.758946 
L 279.672829 -223.027162 
L 253.631271 -219.21357 
L 220.057863 -210.877821 
L 172.738803 -201.931303 
L 91.846335 -201.677566 
z
" style="stroke: #f0027f; stroke-opacity: 0.05"/>
    </defs>
    <g clip-path="url(#pa4137e728b)">
     <use xlink:href="#m8fceddc682" x="0" y="392.803069" style="fill: #f0027f; fill-opacity: 0.05; stroke: #f0027f; stroke-opacity: 0.05"/>
    </g>
   </g>
   <g id="PolyCollection_3">
    <defs>
     <path id="m199a4dfa04" d="M 91.846335 -201.677566 
L 91.846335 -199.447533 
L 172.738803 -199.729214 
L 220.057863 -209.048933 
L 253.631271 -217.28433 
L 279.672829 -221.097847 
L 300.950331 -252.537194 
L 318.940203 -265.839335 
L 334.523738 -282.690319 
L 348.269391 -296.292242 
L 360.565296 -304.611018 
L 371.688296 -310.769812 
L 381.842799 -314.8141 
L 391.184036 -319.19182 
L 399.83267 -323.359528 
L 407.884357 -326.442214 
L 415.416206 -329.735256 
L 422.491291 -332.128643 
L 429.161859 -333.575123 
L 435.471674 -335.291892 
L 441.457764 -337.220821 
L 447.15173 -338.86431 
L 452.580763 -341.21034 
L 457.768425 -342.726844 
L 462.735266 -343.933817 
L 467.499322 -345.930396 
L 472.076503 -347.312713 
L 476.480919 -348.538185 
L 480.725138 -349.35891 
L 484.820406 -349.788369 
L 488.776824 -350.258911 
L 492.6035 -350.600318 
L 496.308674 -351.071553 
L 499.899824 -351.630296 
L 503.383759 -352.643617 
L 506.766696 -353.016515 
L 510.054326 -353.347899 
L 513.251873 -353.624123 
L 516.364142 -353.825723 
L 519.395564 -354.008065 
L 522.350232 -354.211894 
L 525.231938 -354.494519 
L 528.044198 -354.673404 
L 530.790282 -354.969171 
L 533.473231 -355.131096 
L 536.095884 -355.388429 
L 538.660892 -355.512364 
L 541.170735 -355.616843 
L 543.627734 -355.716072 
L 546.03407 -355.792682 
L 548.39179 -355.878297 
L 548.39179 -357.442302 
L 548.39179 -357.442302 
L 546.03407 -357.380904 
L 543.627734 -357.299439 
L 541.170735 -357.22175 
L 538.660892 -357.159334 
L 536.095884 -357.094721 
L 533.473231 -357.104686 
L 530.790282 -357.054325 
L 528.044198 -357.097058 
L 525.231938 -357.04099 
L 522.350232 -357.048913 
L 519.395564 -356.974074 
L 516.364142 -356.878287 
L 513.251873 -356.765608 
L 510.054326 -356.702016 
L 506.766696 -356.6793 
L 503.383759 -356.667682 
L 499.899824 -357.126638 
L 496.308674 -357.214173 
L 492.6035 -357.192947 
L 488.776824 -357.019932 
L 484.820406 -356.933308 
L 480.725138 -356.779961 
L 476.480919 -356.788096 
L 472.076503 -357.078246 
L 467.499322 -357.39633 
L 462.735266 -358.027 
L 457.768425 -357.999159 
L 452.580763 -358.115387 
L 447.15173 -358.611922 
L 441.457764 -358.55489 
L 435.471674 -358.483515 
L 429.161859 -358.049729 
L 422.491291 -357.156585 
L 415.416206 -356.455717 
L 407.884357 -355.370761 
L 399.83267 -353.993967 
L 391.184036 -352.68005 
L 381.842799 -350.642454 
L 371.688296 -348.114804 
L 360.565296 -343.823706 
L 348.269391 -337.566661 
L 334.523738 -327.722764 
L 318.940203 -304.245756 
L 300.950331 -254.758946 
L 279.672829 -223.027162 
L 253.631271 -219.21357 
L 220.057863 -210.877821 
L 172.738803 -201.931303 
L 91.846335 -201.677566 
z
" style="stroke: #386cb0; stroke-opacity: 0.05"/>
    </defs>
    <g clip-path="url(#pa4137e728b)">
     <use xlink:href="#m199a4dfa04" x="0" y="392.803069" style="fill: #386cb0; fill-opacity: 0.05; stroke: #386cb0; stroke-opacity: 0.05"/>
    </g>
   </g>
   <g id="PolyCollection_4">
    <defs>
     <path id="m0a9f8adc70" d="M 91.846335 -265.418461 
L 91.846335 -262.842453 
L 172.738803 -262.842453 
L 220.057863 -262.842453 
L 253.631271 -262.842453 
L 279.672829 -262.842453 
L 300.950331 -262.842453 
L 318.940203 -262.842453 
L 334.523738 -262.842453 
L 348.269391 -262.842453 
L 360.565296 -262.842453 
L 371.688296 -262.842453 
L 381.842799 -262.842453 
L 391.184036 -262.842453 
L 399.83267 -262.842453 
L 407.884357 -262.842453 
L 415.416206 -262.842453 
L 422.491291 -262.842453 
L 429.161859 -262.842453 
L 435.471674 -262.842453 
L 441.457764 -262.842453 
L 447.15173 -262.842453 
L 452.580763 -262.842453 
L 457.768425 -262.842453 
L 462.735266 -262.842453 
L 467.499322 -262.842453 
L 472.076503 -262.842453 
L 476.480919 -262.842453 
L 480.725138 -262.842453 
L 484.820406 -262.842453 
L 488.776824 -262.842453 
L 492.6035 -262.842453 
L 496.308674 -262.842453 
L 499.899824 -262.842453 
L 503.383759 -262.842453 
L 506.766696 -262.842453 
L 510.054326 -262.842453 
L 513.251873 -262.842453 
L 516.364142 -262.842453 
L 519.395564 -262.842453 
L 522.350232 -262.842453 
L 525.231938 -262.842453 
L 528.044198 -262.842453 
L 530.790282 -262.842453 
L 533.473231 -262.842453 
L 536.095884 -262.842453 
L 538.660892 -262.842453 
L 541.170735 -262.842453 
L 543.627734 -262.842453 
L 546.03407 -262.842453 
L 548.39179 -262.842453 
L 548.39179 -265.418461 
L 548.39179 -265.418461 
L 546.03407 -265.418461 
L 543.627734 -265.418461 
L 541.170735 -265.418461 
L 538.660892 -265.418461 
L 536.095884 -265.418461 
L 533.473231 -265.418461 
L 530.790282 -265.418461 
L 528.044198 -265.418461 
L 525.231938 -265.418461 
L 522.350232 -265.418461 
L 519.395564 -265.418461 
L 516.364142 -265.418461 
L 513.251873 -265.418461 
L 510.054326 -265.418461 
L 506.766696 -265.418461 
L 503.383759 -265.418461 
L 499.899824 -265.418461 
L 496.308674 -265.418461 
L 492.6035 -265.418461 
L 488.776824 -265.418461 
L 484.820406 -265.418461 
L 480.725138 -265.418461 
L 476.480919 -265.418461 
L 472.076503 -265.418461 
L 467.499322 -265.418461 
L 462.735266 -265.418461 
L 457.768425 -265.418461 
L 452.580763 -265.418461 
L 447.15173 -265.418461 
L 441.457764 -265.418461 
L 435.471674 -265.418461 
L 429.161859 -265.418461 
L 422.491291 -265.418461 
L 415.416206 -265.418461 
L 407.884357 -265.418461 
L 399.83267 -265.418461 
L 391.184036 -265.418461 
L 381.842799 -265.418461 
L 371.688296 -265.418461 
L 360.565296 -265.418461 
L 348.269391 -265.418461 
L 334.523738 -265.418461 
L 318.940203 -265.418461 
L 300.950331 -265.418461 
L 279.672829 -265.418461 
L 253.631271 -265.418461 
L 220.057863 -265.418461 
L 172.738803 -265.418461 
L 91.846335 -265.418461 
z
" style="stroke: #fdc086; stroke-opacity: 0.05"/>
    </defs>
    <g clip-path="url(#pa4137e728b)">
     <use xlink:href="#m0a9f8adc70" x="0" y="392.803069" style="fill: #fdc086; fill-opacity: 0.05; stroke: #fdc086; stroke-opacity: 0.05"/>
    </g>
   </g>
   <g id="PolyCollection_5">
    <defs>
     <path id="mf7336cef0f" d="M 91.846335 -320.863664 
L 91.846335 -318.459994 
L 172.738803 -330.041654 
L 220.057863 -336.385006 
L 253.631271 -340.699636 
L 279.672829 -342.698053 
L 300.950331 -344.338829 
L 318.940203 -345.767104 
L 334.523738 -347.090898 
L 348.269391 -348.243913 
L 360.565296 -349.282607 
L 371.688296 -349.86161 
L 381.842799 -350.390321 
L 391.184036 -350.884823 
L 399.83267 -351.344479 
L 407.884357 -351.774565 
L 415.416206 -352.150961 
L 422.491291 -352.527237 
L 429.161859 -352.886837 
L 435.471674 -353.230438 
L 441.457764 -353.545245 
L 447.15173 -353.715812 
L 452.580763 -353.897389 
L 457.768425 -354.059945 
L 462.735266 -354.221492 
L 467.499322 -354.382136 
L 472.076503 -354.539564 
L 476.480919 -354.690156 
L 480.725138 -354.83157 
L 484.820406 -354.980617 
L 488.776824 -355.109239 
L 492.6035 -355.252011 
L 496.308674 -355.373352 
L 499.899824 -355.494414 
L 503.383759 -355.60864 
L 506.766696 -355.723696 
L 510.054326 -355.792104 
L 513.251873 -355.853371 
L 516.364142 -355.914282 
L 519.395564 -355.973979 
L 522.350232 -356.034382 
L 525.231938 -356.078988 
L 528.044198 -356.141593 
L 530.790282 -356.196424 
L 533.473231 -356.240807 
L 536.095884 -356.292254 
L 538.660892 -356.340099 
L 541.170735 -356.392208 
L 543.627734 -356.44005 
L 546.03407 -356.49797 
L 548.39179 -356.546686 
L 548.39179 -357.836138 
L 548.39179 -357.836138 
L 546.03407 -357.786296 
L 543.627734 -357.744586 
L 541.170735 -357.692213 
L 538.660892 -357.643528 
L 536.095884 -357.590275 
L 533.473231 -357.537168 
L 530.790282 -357.475098 
L 528.044198 -357.422869 
L 525.231938 -357.372386 
L 522.350232 -357.303672 
L 519.395564 -357.249776 
L 516.364142 -357.192147 
L 513.251873 -357.132299 
L 510.054326 -357.070948 
L 506.766696 -357.011927 
L 503.383759 -356.904564 
L 499.899824 -356.78957 
L 496.308674 -356.670494 
L 492.6035 -356.54742 
L 488.776824 -356.435938 
L 484.820406 -356.304738 
L 480.725138 -356.179949 
L 476.480919 -356.041078 
L 472.076503 -355.902826 
L 467.499322 -355.764438 
L 462.735266 -355.61795 
L 457.768425 -355.463986 
L 452.580763 -355.3053 
L 447.15173 -355.152321 
L 441.457764 -354.971417 
L 435.471674 -354.688737 
L 429.161859 -354.362411 
L 422.491291 -354.007939 
L 415.416206 -353.634458 
L 407.884357 -353.22442 
L 399.83267 -352.816019 
L 391.184036 -352.381669 
L 381.842799 -351.917496 
L 371.688296 -351.436236 
L 360.565296 -350.936233 
L 348.269391 -349.949608 
L 334.523738 -348.805121 
L 318.940203 -347.563589 
L 300.950331 -346.113062 
L 279.672829 -344.426559 
L 253.631271 -342.474828 
L 220.057863 -338.317048 
L 172.738803 -332.009412 
L 91.846335 -320.863664 
z
" style="stroke: #666666; stroke-opacity: 0.05"/>
    </defs>
    <g clip-path="url(#pa4137e728b)">
     <use xlink:href="#mf7336cef0f" x="0" y="392.803069" style="fill: #666666; fill-opacity: 0.05; stroke: #666666; stroke-opacity: 0.05"/>
    </g>
   </g>
   <g id="PolyCollection_6">
    <defs>
     <path id="m71dfae7875" d="M 91.846335 -201.677566 
L 91.846335 -199.447533 
L 172.738803 -197.559734 
L 220.057863 -188.353088 
L 253.631271 -235.545831 
L 279.672829 -246.96626 
L 300.950331 -258.808188 
L 318.940203 -270.475408 
L 334.523738 -277.511214 
L 348.269391 -283.72675 
L 360.565296 -287.86346 
L 371.688296 -291.816648 
L 381.842799 -296.974671 
L 391.184036 -300.105332 
L 399.83267 -303.022857 
L 407.884357 -309.03834 
L 415.416206 -311.752949 
L 422.491291 -313.254286 
L 429.161859 -314.765472 
L 435.471674 -316.477264 
L 441.457764 -318.217981 
L 447.15173 -320.505849 
L 452.580763 -321.753059 
L 457.768425 -323.508853 
L 462.735266 -326.35759 
L 467.499322 -329.533915 
L 472.076503 -331.706026 
L 476.480919 -333.021341 
L 480.725138 -334.141861 
L 484.820406 -335.077338 
L 488.776824 -340.218693 
L 492.6035 -340.945545 
L 496.308674 -341.843409 
L 499.899824 -342.370905 
L 503.383759 -344.733441 
L 506.766696 -345.608331 
L 510.054326 -345.89634 
L 513.251873 -346.147371 
L 516.364142 -346.350139 
L 519.395564 -346.68856 
L 522.350232 -346.888558 
L 525.231938 -347.324715 
L 528.044198 -348.156433 
L 530.790282 -348.685571 
L 533.473231 -348.899917 
L 536.095884 -349.049099 
L 538.660892 -349.164178 
L 541.170735 -349.263931 
L 543.627734 -349.35279 
L 546.03407 -349.443365 
L 548.39179 -349.507727 
L 548.39179 -362.48435 
L 548.39179 -362.48435 
L 546.03407 -362.422941 
L 543.627734 -362.332706 
L 541.170735 -362.246606 
L 538.660892 -362.159791 
L 536.095884 -362.061087 
L 533.473231 -361.993475 
L 530.790282 -361.931738 
L 528.044198 -362.019987 
L 525.231938 -362.32669 
L 522.350232 -362.403686 
L 519.395564 -362.322228 
L 516.364142 -362.312635 
L 513.251873 -362.158826 
L 510.054326 -362.035965 
L 506.766696 -361.916771 
L 503.383759 -362.03564 
L 499.899824 -363.139033 
L 496.308674 -362.98849 
L 492.6035 -363.00758 
L 488.776824 -363.035438 
L 484.820406 -366.238543 
L 480.725138 -366.09144 
L 476.480919 -366.014957 
L 472.076503 -365.949147 
L 467.499322 -366.347987 
L 462.735266 -366.954875 
L 457.768425 -367.642258 
L 452.580763 -367.657813 
L 447.15173 -367.463345 
L 441.457764 -367.606214 
L 435.471674 -367.465225 
L 429.161859 -367.076525 
L 422.491291 -366.509305 
L 415.416206 -365.798668 
L 407.884357 -365.204365 
L 399.83267 -365.418579 
L 391.184036 -364.638635 
L 381.842799 -363.511706 
L 371.688296 -362.697688 
L 360.565296 -361.780795 
L 348.269391 -359.855572 
L 334.523738 -356.750359 
L 318.940203 -353.074971 
L 300.950331 -347.323464 
L 279.672829 -339.760946 
L 253.631271 -318.864957 
L 220.057863 -234.951263 
L 172.738803 -209.123151 
L 91.846335 -201.677566 
z
" style="stroke: #bf5b17; stroke-opacity: 0.05"/>
    </defs>
    <g clip-path="url(#pa4137e728b)">
     <use xlink:href="#m71dfae7875" x="0" y="392.803069" style="fill: #bf5b17; fill-opacity: 0.05; stroke: #bf5b17; stroke-opacity: 0.05"/>
    </g>
   </g>
   <g id="matplotlib.axis_1">
    <g id="xtick_1">
     <g id="line2d_1">
      <path d="M 91.846335 342.665257 
L 91.846335 10.025257 
" clip-path="url(#pa4137e728b)" style="fill: none; stroke-dasharray: 1.85,0.8; stroke-dashoffset: 0; stroke: #b0b0b0; stroke-width: 0.5"/>
     </g>
     <g id="line2d_2">
      <defs>
       <path id="m99a2066698" d="M 0 0 
L 0 3.5 
" style="stroke: #000000; stroke-width: 0.8"/>
      </defs>
      <g>
       <use xlink:href="#m99a2066698" x="91.846335" y="342.665257" style="stroke: #000000; stroke-width: 0.8"/>
      </g>
     </g>
     <g id="text_1">
      <!-- $\mathdefault{10^{0}}$ -->
      <g transform="translate(78.646335 361.062913) scale(0.15 -0.15)">
       <defs>
        <path id="DejaVuSans-31" d="M 794 531 
L 1825 531 
L 1825 4091 
L 703 3866 
L 703 4441 
L 1819 4666 
L 2450 4666 
L 2450 531 
L 3481 531 
L 3481 0 
L 794 0 
L 794 531 
z
" transform="scale(0.015625)"/>
        <path id="DejaVuSans-30" d="M 2034 4250 
Q 1547 4250 1301 3770 
Q 1056 3291 1056 2328 
Q 1056 1369 1301 889 
Q 1547 409 2034 409 
Q 2525 409 2770 889 
Q 3016 1369 3016 2328 
Q 3016 3291 2770 3770 
Q 2525 4250 2034 4250 
z
M 2034 4750 
Q 2819 4750 3233 4129 
Q 3647 3509 3647 2328 
Q 3647 1150 3233 529 
Q 2819 -91 2034 -91 
Q 1250 -91 836 529 
Q 422 1150 422 2328 
Q 422 3509 836 4129 
Q 1250 4750 2034 4750 
z
" transform="scale(0.015625)"/>
       </defs>
       <use xlink:href="#DejaVuSans-31" transform="translate(0 0.765625)"/>
       <use xlink:href="#DejaVuSans-30" transform="translate(63.623047 0.765625)"/>
       <use xlink:href="#DejaVuSans-30" transform="translate(128.203125 39.046875) scale(0.7)"/>
      </g>
     </g>
    </g>
    <g id="xtick_2">
     <g id="line2d_3">
      <path d="M 360.565296 342.665257 
L 360.565296 10.025257 
" clip-path="url(#pa4137e728b)" style="fill: none; stroke-dasharray: 1.85,0.8; stroke-dashoffset: 0; stroke: #b0b0b0; stroke-width: 0.5"/>
     </g>
     <g id="line2d_4">
      <g>
       <use xlink:href="#m99a2066698" x="360.565296" y="342.665257" style="stroke: #000000; stroke-width: 0.8"/>
      </g>
     </g>
     <g id="text_2">
      <!-- $\mathdefault{10^{1}}$ -->
      <g transform="translate(347.365296 361.062913) scale(0.15 -0.15)">
       <use xlink:href="#DejaVuSans-31" transform="translate(0 0.684375)"/>
       <use xlink:href="#DejaVuSans-30" transform="translate(63.623047 0.684375)"/>
       <use xlink:href="#DejaVuSans-31" transform="translate(128.203125 38.965625) scale(0.7)"/>
      </g>
     </g>
    </g>
    <g id="xtick_3">
     <g id="line2d_5">
      <defs>
       <path id="m0617d9379d" d="M 0 0 
L 0 2 
" style="stroke: #000000; stroke-width: 0.6"/>
      </defs>
      <g>
       <use xlink:href="#m0617d9379d" x="79.55043" y="342.665257" style="stroke: #000000; stroke-width: 0.6"/>
      </g>
     </g>
    </g>
    <g id="xtick_4">
     <g id="line2d_6">
      <g>
       <use xlink:href="#m0617d9379d" x="172.738803" y="342.665257" style="stroke: #000000; stroke-width: 0.6"/>
      </g>
     </g>
    </g>
    <g id="xtick_5">
     <g id="line2d_7">
      <g>
       <use xlink:href="#m0617d9379d" x="220.057863" y="342.665257" style="stroke: #000000; stroke-width: 0.6"/>
      </g>
     </g>
    </g>
    <g id="xtick_6">
     <g id="line2d_8">
      <g>
       <use xlink:href="#m0617d9379d" x="253.631271" y="342.665257" style="stroke: #000000; stroke-width: 0.6"/>
      </g>
     </g>
    </g>
    <g id="xtick_7">
     <g id="line2d_9">
      <g>
       <use xlink:href="#m0617d9379d" x="279.672829" y="342.665257" style="stroke: #000000; stroke-width: 0.6"/>
      </g>
     </g>
    </g>
    <g id="xtick_8">
     <g id="line2d_10">
      <g>
       <use xlink:href="#m0617d9379d" x="300.950331" y="342.665257" style="stroke: #000000; stroke-width: 0.6"/>
      </g>
     </g>
    </g>
    <g id="xtick_9">
     <g id="line2d_11">
      <g>
       <use xlink:href="#m0617d9379d" x="318.940203" y="342.665257" style="stroke: #000000; stroke-width: 0.6"/>
      </g>
     </g>
    </g>
    <g id="xtick_10">
     <g id="line2d_12">
      <g>
       <use xlink:href="#m0617d9379d" x="334.523738" y="342.665257" style="stroke: #000000; stroke-width: 0.6"/>
      </g>
     </g>
    </g>
    <g id="xtick_11">
     <g id="line2d_13">
      <g>
       <use xlink:href="#m0617d9379d" x="348.269391" y="342.665257" style="stroke: #000000; stroke-width: 0.6"/>
      </g>
     </g>
    </g>
    <g id="xtick_12">
     <g id="line2d_14">
      <g>
       <use xlink:href="#m0617d9379d" x="441.457764" y="342.665257" style="stroke: #000000; stroke-width: 0.6"/>
      </g>
     </g>
    </g>
    <g id="xtick_13">
     <g id="line2d_15">
      <g>
       <use xlink:href="#m0617d9379d" x="488.776824" y="342.665257" style="stroke: #000000; stroke-width: 0.6"/>
      </g>
     </g>
    </g>
    <g id="xtick_14">
     <g id="line2d_16">
      <g>
       <use xlink:href="#m0617d9379d" x="522.350232" y="342.665257" style="stroke: #000000; stroke-width: 0.6"/>
      </g>
     </g>
    </g>
    <g id="xtick_15">
     <g id="line2d_17">
      <g>
       <use xlink:href="#m0617d9379d" x="548.39179" y="342.665257" style="stroke: #000000; stroke-width: 0.6"/>
      </g>
     </g>
    </g>
    <g id="xtick_16">
     <g id="line2d_18">
      <g>
       <use xlink:href="#m0617d9379d" x="569.669292" y="342.665257" style="stroke: #000000; stroke-width: 0.6"/>
      </g>
     </g>
    </g>
    <g id="text_3">
     <!-- Decision Round -->
     <g transform="translate(250.466094 381.859632) scale(0.18 -0.18)">
      <defs>
       <path id="DejaVuSans-44" d="M 1259 4147 
L 1259 519 
L 2022 519 
Q 2988 519 3436 956 
Q 3884 1394 3884 2338 
Q 3884 3275 3436 3711 
Q 2988 4147 2022 4147 
L 1259 4147 
z
M 628 4666 
L 1925 4666 
Q 3281 4666 3915 4102 
Q 4550 3538 4550 2338 
Q 4550 1131 3912 565 
Q 3275 0 1925 0 
L 628 0 
L 628 4666 
z
" transform="scale(0.015625)"/>
       <path id="DejaVuSans-65" d="M 3597 1894 
L 3597 1613 
L 953 1613 
Q 991 1019 1311 708 
Q 1631 397 2203 397 
Q 2534 397 2845 478 
Q 3156 559 3463 722 
L 3463 178 
Q 3153 47 2828 -22 
Q 2503 -91 2169 -91 
Q 1331 -91 842 396 
Q 353 884 353 1716 
Q 353 2575 817 3079 
Q 1281 3584 2069 3584 
Q 2775 3584 3186 3129 
Q 3597 2675 3597 1894 
z
M 3022 2063 
Q 3016 2534 2758 2815 
Q 2500 3097 2075 3097 
Q 1594 3097 1305 2825 
Q 1016 2553 972 2059 
L 3022 2063 
z
" transform="scale(0.015625)"/>
       <path id="DejaVuSans-63" d="M 3122 3366 
L 3122 2828 
Q 2878 2963 2633 3030 
Q 2388 3097 2138 3097 
Q 1578 3097 1268 2742 
Q 959 2388 959 1747 
Q 959 1106 1268 751 
Q 1578 397 2138 397 
Q 2388 397 2633 464 
Q 2878 531 3122 666 
L 3122 134 
Q 2881 22 2623 -34 
Q 2366 -91 2075 -91 
Q 1284 -91 818 406 
Q 353 903 353 1747 
Q 353 2603 823 3093 
Q 1294 3584 2113 3584 
Q 2378 3584 2631 3529 
Q 2884 3475 3122 3366 
z
" transform="scale(0.015625)"/>
       <path id="DejaVuSans-69" d="M 603 3500 
L 1178 3500 
L 1178 0 
L 603 0 
L 603 3500 
z
M 603 4863 
L 1178 4863 
L 1178 4134 
L 603 4134 
L 603 4863 
z
" transform="scale(0.015625)"/>
       <path id="DejaVuSans-73" d="M 2834 3397 
L 2834 2853 
Q 2591 2978 2328 3040 
Q 2066 3103 1784 3103 
Q 1356 3103 1142 2972 
Q 928 2841 928 2578 
Q 928 2378 1081 2264 
Q 1234 2150 1697 2047 
L 1894 2003 
Q 2506 1872 2764 1633 
Q 3022 1394 3022 966 
Q 3022 478 2636 193 
Q 2250 -91 1575 -91 
Q 1294 -91 989 -36 
Q 684 19 347 128 
L 347 722 
Q 666 556 975 473 
Q 1284 391 1588 391 
Q 1994 391 2212 530 
Q 2431 669 2431 922 
Q 2431 1156 2273 1281 
Q 2116 1406 1581 1522 
L 1381 1569 
Q 847 1681 609 1914 
Q 372 2147 372 2553 
Q 372 3047 722 3315 
Q 1072 3584 1716 3584 
Q 2034 3584 2315 3537 
Q 2597 3491 2834 3397 
z
" transform="scale(0.015625)"/>
       <path id="DejaVuSans-6f" d="M 1959 3097 
Q 1497 3097 1228 2736 
Q 959 2375 959 1747 
Q 959 1119 1226 758 
Q 1494 397 1959 397 
Q 2419 397 2687 759 
Q 2956 1122 2956 1747 
Q 2956 2369 2687 2733 
Q 2419 3097 1959 3097 
z
M 1959 3584 
Q 2709 3584 3137 3096 
Q 3566 2609 3566 1747 
Q 3566 888 3137 398 
Q 2709 -91 1959 -91 
Q 1206 -91 779 398 
Q 353 888 353 1747 
Q 353 2609 779 3096 
Q 1206 3584 1959 3584 
z
" transform="scale(0.015625)"/>
       <path id="DejaVuSans-6e" d="M 3513 2113 
L 3513 0 
L 2938 0 
L 2938 2094 
Q 2938 2591 2744 2837 
Q 2550 3084 2163 3084 
Q 1697 3084 1428 2787 
Q 1159 2491 1159 1978 
L 1159 0 
L 581 0 
L 581 3500 
L 1159 3500 
L 1159 2956 
Q 1366 3272 1645 3428 
Q 1925 3584 2291 3584 
Q 2894 3584 3203 3211 
Q 3513 2838 3513 2113 
z
" transform="scale(0.015625)"/>
       <path id="DejaVuSans-20" transform="scale(0.015625)"/>
       <path id="DejaVuSans-52" d="M 2841 2188 
Q 3044 2119 3236 1894 
Q 3428 1669 3622 1275 
L 4263 0 
L 3584 0 
L 2988 1197 
Q 2756 1666 2539 1819 
Q 2322 1972 1947 1972 
L 1259 1972 
L 1259 0 
L 628 0 
L 628 4666 
L 2053 4666 
Q 2853 4666 3247 4331 
Q 3641 3997 3641 3322 
Q 3641 2881 3436 2590 
Q 3231 2300 2841 2188 
z
M 1259 4147 
L 1259 2491 
L 2053 2491 
Q 2509 2491 2742 2702 
Q 2975 2913 2975 3322 
Q 2975 3731 2742 3939 
Q 2509 4147 2053 4147 
L 1259 4147 
z
" transform="scale(0.015625)"/>
       <path id="DejaVuSans-75" d="M 544 1381 
L 544 3500 
L 1119 3500 
L 1119 1403 
Q 1119 906 1312 657 
Q 1506 409 1894 409 
Q 2359 409 2629 706 
Q 2900 1003 2900 1516 
L 2900 3500 
L 3475 3500 
L 3475 0 
L 2900 0 
L 2900 538 
Q 2691 219 2414 64 
Q 2138 -91 1772 -91 
Q 1169 -91 856 284 
Q 544 659 544 1381 
z
M 1991 3584 
L 1991 3584 
z
" transform="scale(0.015625)"/>
       <path id="DejaVuSans-64" d="M 2906 2969 
L 2906 4863 
L 3481 4863 
L 3481 0 
L 2906 0 
L 2906 525 
Q 2725 213 2448 61 
Q 2172 -91 1784 -91 
Q 1150 -91 751 415 
Q 353 922 353 1747 
Q 353 2572 751 3078 
Q 1150 3584 1784 3584 
Q 2172 3584 2448 3432 
Q 2725 3281 2906 2969 
z
M 947 1747 
Q 947 1113 1208 752 
Q 1469 391 1925 391 
Q 2381 391 2643 752 
Q 2906 1113 2906 1747 
Q 2906 2381 2643 2742 
Q 2381 3103 1925 3103 
Q 1469 3103 1208 2742 
Q 947 2381 947 1747 
z
" transform="scale(0.015625)"/>
      </defs>
      <use xlink:href="#DejaVuSans-44"/>
      <use xlink:href="#DejaVuSans-65" x="77.001953"/>
      <use xlink:href="#DejaVuSans-63" x="138.525391"/>
      <use xlink:href="#DejaVuSans-69" x="193.505859"/>
      <use xlink:href="#DejaVuSans-73" x="221.289062"/>
      <use xlink:href="#DejaVuSans-69" x="273.388672"/>
      <use xlink:href="#DejaVuSans-6f" x="301.171875"/>
      <use xlink:href="#DejaVuSans-6e" x="362.353516"/>
      <use xlink:href="#DejaVuSans-20" x="425.732422"/>
      <use xlink:href="#DejaVuSans-52" x="457.519531"/>
      <use xlink:href="#DejaVuSans-6f" x="522.501953"/>
      <use xlink:href="#DejaVuSans-75" x="583.683594"/>
      <use xlink:href="#DejaVuSans-6e" x="647.0625"/>
      <use xlink:href="#DejaVuSans-64" x="710.441406"/>
     </g>
    </g>
   </g>
   <g id="matplotlib.axis_2">
    <g id="ytick_1">
     <g id="line2d_19">
      <path d="M 69.019063 339.345686 
L 571.219063 339.345686 
" clip-path="url(#pa4137e728b)" style="fill: none; stroke-dasharray: 1.85,0.8; stroke-dashoffset: 0; stroke: #b0b0b0; stroke-width: 0.5"/>
     </g>
     <g id="line2d_20">
      <defs>
       <path id="m4cd4ef15e9" d="M 0 0 
L -3.5 0 
" style="stroke: #000000; stroke-width: 0.8"/>
      </defs>
      <g>
       <use xlink:href="#m4cd4ef15e9" x="69.019063" y="339.345686" style="stroke: #000000; stroke-width: 0.8"/>
      </g>
     </g>
     <g id="text_4">
      <!-- 0.45 -->
      <g transform="translate(28.620625 345.044514) scale(0.15 -0.15)">
       <defs>
        <path id="DejaVuSans-2e" d="M 684 794 
L 1344 794 
L 1344 0 
L 684 0 
L 684 794 
z
" transform="scale(0.015625)"/>
        <path id="DejaVuSans-34" d="M 2419 4116 
L 825 1625 
L 2419 1625 
L 2419 4116 
z
M 2253 4666 
L 3047 4666 
L 3047 1625 
L 3713 1625 
L 3713 1100 
L 3047 1100 
L 3047 0 
L 2419 0 
L 2419 1100 
L 313 1100 
L 313 1709 
L 2253 4666 
z
" transform="scale(0.015625)"/>
        <path id="DejaVuSans-35" d="M 691 4666 
L 3169 4666 
L 3169 4134 
L 1269 4134 
L 1269 2991 
Q 1406 3038 1543 3061 
Q 1681 3084 1819 3084 
Q 2600 3084 3056 2656 
Q 3513 2228 3513 1497 
Q 3513 744 3044 326 
Q 2575 -91 1722 -91 
Q 1428 -91 1123 -41 
Q 819 9 494 109 
L 494 744 
Q 775 591 1075 516 
Q 1375 441 1709 441 
Q 2250 441 2565 725 
Q 2881 1009 2881 1497 
Q 2881 1984 2565 2268 
Q 2250 2553 1709 2553 
Q 1456 2553 1204 2497 
Q 953 2441 691 2322 
L 691 4666 
z
" transform="scale(0.015625)"/>
       </defs>
       <use xlink:href="#DejaVuSans-30"/>
       <use xlink:href="#DejaVuSans-2e" x="63.623047"/>
       <use xlink:href="#DejaVuSans-34" x="95.410156"/>
       <use xlink:href="#DejaVuSans-35" x="159.033203"/>
      </g>
     </g>
    </g>
    <g id="ytick_2">
     <g id="line2d_21">
      <path d="M 69.019063 292.71042 
L 571.219063 292.71042 
" clip-path="url(#pa4137e728b)" style="fill: none; stroke-dasharray: 1.85,0.8; stroke-dashoffset: 0; stroke: #b0b0b0; stroke-width: 0.5"/>
     </g>
     <g id="line2d_22">
      <g>
       <use xlink:href="#m4cd4ef15e9" x="69.019063" y="292.71042" style="stroke: #000000; stroke-width: 0.8"/>
      </g>
     </g>
     <g id="text_5">
      <!-- 0.50 -->
      <g transform="translate(28.620625 298.409248) scale(0.15 -0.15)">
       <use xlink:href="#DejaVuSans-30"/>
       <use xlink:href="#DejaVuSans-2e" x="63.623047"/>
       <use xlink:href="#DejaVuSans-35" x="95.410156"/>
       <use xlink:href="#DejaVuSans-30" x="159.033203"/>
      </g>
     </g>
    </g>
    <g id="ytick_3">
     <g id="line2d_23">
      <path d="M 69.019063 246.075155 
L 571.219063 246.075155 
" clip-path="url(#pa4137e728b)" style="fill: none; stroke-dasharray: 1.85,0.8; stroke-dashoffset: 0; stroke: #b0b0b0; stroke-width: 0.5"/>
     </g>
     <g id="line2d_24">
      <g>
       <use xlink:href="#m4cd4ef15e9" x="69.019063" y="246.075155" style="stroke: #000000; stroke-width: 0.8"/>
      </g>
     </g>
     <g id="text_6">
      <!-- 0.55 -->
      <g transform="translate(28.620625 251.773983) scale(0.15 -0.15)">
       <use xlink:href="#DejaVuSans-30"/>
       <use xlink:href="#DejaVuSans-2e" x="63.623047"/>
       <use xlink:href="#DejaVuSans-35" x="95.410156"/>
       <use xlink:href="#DejaVuSans-35" x="159.033203"/>
      </g>
     </g>
    </g>
    <g id="ytick_4">
     <g id="line2d_25">
      <path d="M 69.019063 199.43989 
L 571.219063 199.43989 
" clip-path="url(#pa4137e728b)" style="fill: none; stroke-dasharray: 1.85,0.8; stroke-dashoffset: 0; stroke: #b0b0b0; stroke-width: 0.5"/>
     </g>
     <g id="line2d_26">
      <g>
       <use xlink:href="#m4cd4ef15e9" x="69.019063" y="199.43989" style="stroke: #000000; stroke-width: 0.8"/>
      </g>
     </g>
     <g id="text_7">
      <!-- 0.60 -->
      <g transform="translate(28.620625 205.138718) scale(0.15 -0.15)">
       <defs>
        <path id="DejaVuSans-36" d="M 2113 2584 
Q 1688 2584 1439 2293 
Q 1191 2003 1191 1497 
Q 1191 994 1439 701 
Q 1688 409 2113 409 
Q 2538 409 2786 701 
Q 3034 994 3034 1497 
Q 3034 2003 2786 2293 
Q 2538 2584 2113 2584 
z
M 3366 4563 
L 3366 3988 
Q 3128 4100 2886 4159 
Q 2644 4219 2406 4219 
Q 1781 4219 1451 3797 
Q 1122 3375 1075 2522 
Q 1259 2794 1537 2939 
Q 1816 3084 2150 3084 
Q 2853 3084 3261 2657 
Q 3669 2231 3669 1497 
Q 3669 778 3244 343 
Q 2819 -91 2113 -91 
Q 1303 -91 875 529 
Q 447 1150 447 2328 
Q 447 3434 972 4092 
Q 1497 4750 2381 4750 
Q 2619 4750 2861 4703 
Q 3103 4656 3366 4563 
z
" transform="scale(0.015625)"/>
       </defs>
       <use xlink:href="#DejaVuSans-30"/>
       <use xlink:href="#DejaVuSans-2e" x="63.623047"/>
       <use xlink:href="#DejaVuSans-36" x="95.410156"/>
       <use xlink:href="#DejaVuSans-30" x="159.033203"/>
      </g>
     </g>
    </g>
    <g id="ytick_5">
     <g id="line2d_27">
      <path d="M 69.019063 152.804624 
L 571.219063 152.804624 
" clip-path="url(#pa4137e728b)" style="fill: none; stroke-dasharray: 1.85,0.8; stroke-dashoffset: 0; stroke: #b0b0b0; stroke-width: 0.5"/>
     </g>
     <g id="line2d_28">
      <g>
       <use xlink:href="#m4cd4ef15e9" x="69.019063" y="152.804624" style="stroke: #000000; stroke-width: 0.8"/>
      </g>
     </g>
     <g id="text_8">
      <!-- 0.65 -->
      <g transform="translate(28.620625 158.503452) scale(0.15 -0.15)">
       <use xlink:href="#DejaVuSans-30"/>
       <use xlink:href="#DejaVuSans-2e" x="63.623047"/>
       <use xlink:href="#DejaVuSans-36" x="95.410156"/>
       <use xlink:href="#DejaVuSans-35" x="159.033203"/>
      </g>
     </g>
    </g>
    <g id="ytick_6">
     <g id="line2d_29">
      <path d="M 69.019063 106.169359 
L 571.219063 106.169359 
" clip-path="url(#pa4137e728b)" style="fill: none; stroke-dasharray: 1.85,0.8; stroke-dashoffset: 0; stroke: #b0b0b0; stroke-width: 0.5"/>
     </g>
     <g id="line2d_30">
      <g>
       <use xlink:href="#m4cd4ef15e9" x="69.019063" y="106.169359" style="stroke: #000000; stroke-width: 0.8"/>
      </g>
     </g>
     <g id="text_9">
      <!-- 0.70 -->
      <g transform="translate(28.620625 111.868187) scale(0.15 -0.15)">
       <defs>
        <path id="DejaVuSans-37" d="M 525 4666 
L 3525 4666 
L 3525 4397 
L 1831 0 
L 1172 0 
L 2766 4134 
L 525 4134 
L 525 4666 
z
" transform="scale(0.015625)"/>
       </defs>
       <use xlink:href="#DejaVuSans-30"/>
       <use xlink:href="#DejaVuSans-2e" x="63.623047"/>
       <use xlink:href="#DejaVuSans-37" x="95.410156"/>
       <use xlink:href="#DejaVuSans-30" x="159.033203"/>
      </g>
     </g>
    </g>
    <g id="ytick_7">
     <g id="line2d_31">
      <path d="M 69.019063 59.534093 
L 571.219063 59.534093 
" clip-path="url(#pa4137e728b)" style="fill: none; stroke-dasharray: 1.85,0.8; stroke-dashoffset: 0; stroke: #b0b0b0; stroke-width: 0.5"/>
     </g>
     <g id="line2d_32">
      <g>
       <use xlink:href="#m4cd4ef15e9" x="69.019063" y="59.534093" style="stroke: #000000; stroke-width: 0.8"/>
      </g>
     </g>
     <g id="text_10">
      <!-- 0.75 -->
      <g transform="translate(28.620625 65.232922) scale(0.15 -0.15)">
       <use xlink:href="#DejaVuSans-30"/>
       <use xlink:href="#DejaVuSans-2e" x="63.623047"/>
       <use xlink:href="#DejaVuSans-37" x="95.410156"/>
       <use xlink:href="#DejaVuSans-35" x="159.033203"/>
      </g>
     </g>
    </g>
    <g id="ytick_8">
     <g id="line2d_33">
      <path d="M 69.019063 12.898828 
L 571.219063 12.898828 
" clip-path="url(#pa4137e728b)" style="fill: none; stroke-dasharray: 1.85,0.8; stroke-dashoffset: 0; stroke: #b0b0b0; stroke-width: 0.5"/>
     </g>
     <g id="line2d_34">
      <g>
       <use xlink:href="#m4cd4ef15e9" x="69.019063" y="12.898828" style="stroke: #000000; stroke-width: 0.8"/>
      </g>
     </g>
     <g id="text_11">
      <!-- 0.80 -->
      <g transform="translate(28.620625 18.597656) scale(0.15 -0.15)">
       <defs>
        <path id="DejaVuSans-38" d="M 2034 2216 
Q 1584 2216 1326 1975 
Q 1069 1734 1069 1313 
Q 1069 891 1326 650 
Q 1584 409 2034 409 
Q 2484 409 2743 651 
Q 3003 894 3003 1313 
Q 3003 1734 2745 1975 
Q 2488 2216 2034 2216 
z
M 1403 2484 
Q 997 2584 770 2862 
Q 544 3141 544 3541 
Q 544 4100 942 4425 
Q 1341 4750 2034 4750 
Q 2731 4750 3128 4425 
Q 3525 4100 3525 3541 
Q 3525 3141 3298 2862 
Q 3072 2584 2669 2484 
Q 3125 2378 3379 2068 
Q 3634 1759 3634 1313 
Q 3634 634 3220 271 
Q 2806 -91 2034 -91 
Q 1263 -91 848 271 
Q 434 634 434 1313 
Q 434 1759 690 2068 
Q 947 2378 1403 2484 
z
M 1172 3481 
Q 1172 3119 1398 2916 
Q 1625 2713 2034 2713 
Q 2441 2713 2670 2916 
Q 2900 3119 2900 3481 
Q 2900 3844 2670 4047 
Q 2441 4250 2034 4250 
Q 1625 4250 1398 4047 
Q 1172 3844 1172 3481 
z
" transform="scale(0.015625)"/>
       </defs>
       <use xlink:href="#DejaVuSans-30"/>
       <use xlink:href="#DejaVuSans-2e" x="63.623047"/>
       <use xlink:href="#DejaVuSans-38" x="95.410156"/>
       <use xlink:href="#DejaVuSans-30" x="159.033203"/>
      </g>
     </g>
    </g>
    <g id="text_12">
     <!-- Normalized Performance -->
     <g transform="translate(20.877187 287.273069) rotate(-90) scale(0.18 -0.18)">
      <defs>
       <path id="DejaVuSans-4e" d="M 628 4666 
L 1478 4666 
L 3547 763 
L 3547 4666 
L 4159 4666 
L 4159 0 
L 3309 0 
L 1241 3903 
L 1241 0 
L 628 0 
L 628 4666 
z
" transform="scale(0.015625)"/>
       <path id="DejaVuSans-72" d="M 2631 2963 
Q 2534 3019 2420 3045 
Q 2306 3072 2169 3072 
Q 1681 3072 1420 2755 
Q 1159 2438 1159 1844 
L 1159 0 
L 581 0 
L 581 3500 
L 1159 3500 
L 1159 2956 
Q 1341 3275 1631 3429 
Q 1922 3584 2338 3584 
Q 2397 3584 2469 3576 
Q 2541 3569 2628 3553 
L 2631 2963 
z
" transform="scale(0.015625)"/>
       <path id="DejaVuSans-6d" d="M 3328 2828 
Q 3544 3216 3844 3400 
Q 4144 3584 4550 3584 
Q 5097 3584 5394 3201 
Q 5691 2819 5691 2113 
L 5691 0 
L 5113 0 
L 5113 2094 
Q 5113 2597 4934 2840 
Q 4756 3084 4391 3084 
Q 3944 3084 3684 2787 
Q 3425 2491 3425 1978 
L 3425 0 
L 2847 0 
L 2847 2094 
Q 2847 2600 2669 2842 
Q 2491 3084 2119 3084 
Q 1678 3084 1418 2786 
Q 1159 2488 1159 1978 
L 1159 0 
L 581 0 
L 581 3500 
L 1159 3500 
L 1159 2956 
Q 1356 3278 1631 3431 
Q 1906 3584 2284 3584 
Q 2666 3584 2933 3390 
Q 3200 3197 3328 2828 
z
" transform="scale(0.015625)"/>
       <path id="DejaVuSans-61" d="M 2194 1759 
Q 1497 1759 1228 1600 
Q 959 1441 959 1056 
Q 959 750 1161 570 
Q 1363 391 1709 391 
Q 2188 391 2477 730 
Q 2766 1069 2766 1631 
L 2766 1759 
L 2194 1759 
z
M 3341 1997 
L 3341 0 
L 2766 0 
L 2766 531 
Q 2569 213 2275 61 
Q 1981 -91 1556 -91 
Q 1019 -91 701 211 
Q 384 513 384 1019 
Q 384 1609 779 1909 
Q 1175 2209 1959 2209 
L 2766 2209 
L 2766 2266 
Q 2766 2663 2505 2880 
Q 2244 3097 1772 3097 
Q 1472 3097 1187 3025 
Q 903 2953 641 2809 
L 641 3341 
Q 956 3463 1253 3523 
Q 1550 3584 1831 3584 
Q 2591 3584 2966 3190 
Q 3341 2797 3341 1997 
z
" transform="scale(0.015625)"/>
       <path id="DejaVuSans-6c" d="M 603 4863 
L 1178 4863 
L 1178 0 
L 603 0 
L 603 4863 
z
" transform="scale(0.015625)"/>
       <path id="DejaVuSans-7a" d="M 353 3500 
L 3084 3500 
L 3084 2975 
L 922 459 
L 3084 459 
L 3084 0 
L 275 0 
L 275 525 
L 2438 3041 
L 353 3041 
L 353 3500 
z
" transform="scale(0.015625)"/>
       <path id="DejaVuSans-50" d="M 1259 4147 
L 1259 2394 
L 2053 2394 
Q 2494 2394 2734 2622 
Q 2975 2850 2975 3272 
Q 2975 3691 2734 3919 
Q 2494 4147 2053 4147 
L 1259 4147 
z
M 628 4666 
L 2053 4666 
Q 2838 4666 3239 4311 
Q 3641 3956 3641 3272 
Q 3641 2581 3239 2228 
Q 2838 1875 2053 1875 
L 1259 1875 
L 1259 0 
L 628 0 
L 628 4666 
z
" transform="scale(0.015625)"/>
       <path id="DejaVuSans-66" d="M 2375 4863 
L 2375 4384 
L 1825 4384 
Q 1516 4384 1395 4259 
Q 1275 4134 1275 3809 
L 1275 3500 
L 2222 3500 
L 2222 3053 
L 1275 3053 
L 1275 0 
L 697 0 
L 697 3053 
L 147 3053 
L 147 3500 
L 697 3500 
L 697 3744 
Q 697 4328 969 4595 
Q 1241 4863 1831 4863 
L 2375 4863 
z
" transform="scale(0.015625)"/>
      </defs>
      <use xlink:href="#DejaVuSans-4e"/>
      <use xlink:href="#DejaVuSans-6f" x="74.804688"/>
      <use xlink:href="#DejaVuSans-72" x="135.986328"/>
      <use xlink:href="#DejaVuSans-6d" x="175.349609"/>
      <use xlink:href="#DejaVuSans-61" x="272.761719"/>
      <use xlink:href="#DejaVuSans-6c" x="334.041016"/>
      <use xlink:href="#DejaVuSans-69" x="361.824219"/>
      <use xlink:href="#DejaVuSans-7a" x="389.607422"/>
      <use xlink:href="#DejaVuSans-65" x="442.097656"/>
      <use xlink:href="#DejaVuSans-64" x="503.621094"/>
      <use xlink:href="#DejaVuSans-20" x="567.097656"/>
      <use xlink:href="#DejaVuSans-50" x="598.884766"/>
      <use xlink:href="#DejaVuSans-65" x="655.5625"/>
      <use xlink:href="#DejaVuSans-72" x="717.085938"/>
      <use xlink:href="#DejaVuSans-66" x="758.199219"/>
      <use xlink:href="#DejaVuSans-6f" x="793.404297"/>
      <use xlink:href="#DejaVuSans-72" x="854.585938"/>
      <use xlink:href="#DejaVuSans-6d" x="893.949219"/>
      <use xlink:href="#DejaVuSans-61" x="991.361328"/>
      <use xlink:href="#DejaVuSans-6e" x="1052.640625"/>
      <use xlink:href="#DejaVuSans-63" x="1116.019531"/>
      <use xlink:href="#DejaVuSans-65" x="1171"/>
     </g>
    </g>
   </g>
   <g id="line2d_35">
    <path d="M 91.846335 249.943961 
L 172.738803 198.660155 
L 220.057863 177.893495 
L 253.631271 154.895652 
L 279.672829 139.963708 
L 300.950331 131.731217 
L 318.940203 126.907257 
L 334.523738 119.477902 
L 348.269391 115.639787 
L 360.565296 111.966942 
L 371.688296 108.078505 
L 381.842799 105.248544 
L 391.184036 102.498138 
L 399.83267 100.920801 
L 407.884357 98.052777 
L 415.416206 96.425518 
L 422.491291 94.288724 
L 429.161859 92.61808 
L 435.471674 90.904551 
L 441.457764 89.331905 
L 447.15173 87.64425 
L 452.580763 86.46755 
L 457.768425 85.16959 
L 462.735266 84.235531 
L 467.499322 83.721501 
L 472.076503 82.747223 
L 476.480919 81.922082 
L 480.725138 81.059029 
L 484.820406 80.245591 
L 488.776824 79.140636 
L 492.6035 78.640213 
L 496.308674 77.895812 
L 499.899824 77.502841 
L 503.383759 76.659929 
L 506.766696 76.277137 
L 510.054326 75.702785 
L 513.251873 75.552953 
L 516.364142 75.188604 
L 519.395564 74.368174 
L 522.350232 73.659924 
L 525.231938 72.80257 
L 528.044198 72.214098 
L 530.790282 71.619168 
L 533.473231 71.286181 
L 536.095884 70.734366 
L 538.660892 70.329229 
L 541.170735 69.796868 
L 543.627734 69.397851 
L 546.03407 68.957386 
L 548.39179 68.74917 
" clip-path="url(#pa4137e728b)" style="fill: none; stroke: #7fc97f; stroke-width: 3; stroke-linecap: square"/>
   </g>
   <g id="line2d_36">
    <path d="M 91.846335 192.24052 
L 172.738803 191.972811 
L 220.057863 182.839692 
L 253.631271 174.554119 
L 279.672829 170.740565 
L 300.950331 139.154999 
L 318.940203 112.335214 
L 334.523738 112.277227 
L 348.269391 110.426731 
L 360.565296 109.66217 
L 371.688296 109.651919 
L 381.842799 109.646224 
L 391.184036 109.645265 
L 399.83267 109.09326 
L 407.884357 104.189853 
L 415.416206 104.110234 
L 422.491291 103.58668 
L 429.161859 103.58668 
L 435.471674 88.103418 
L 441.457764 88.08455 
L 447.15173 88.083125 
L 452.580763 88.04453 
L 457.768425 87.514749 
L 462.735266 87.290601 
L 467.499322 74.119349 
L 472.076503 73.380088 
L 476.480919 73.380088 
L 480.725138 73.366342 
L 484.820406 73.365469 
L 488.776824 73.363602 
L 492.6035 73.363602 
L 496.308674 73.007535 
L 499.899824 73.001488 
L 503.383759 73.000464 
L 506.766696 72.888839 
L 510.054326 72.888746 
L 513.251873 72.548797 
L 516.364142 72.18659 
L 519.395564 72.183007 
L 522.350232 72.182167 
L 525.231938 71.830118 
L 528.044198 71.814895 
L 530.790282 71.814895 
L 533.473231 71.802751 
L 536.095884 71.501379 
L 538.660892 70.396127 
L 541.170735 70.396127 
L 543.627734 70.390708 
L 546.03407 70.389813 
L 548.39179 66.829192 
" clip-path="url(#pa4137e728b)" style="fill: none; stroke: #f0027f; stroke-width: 3; stroke-linecap: square"/>
   </g>
   <g id="line2d_37">
    <path d="M 91.846335 192.24052 
L 172.738803 191.972811 
L 220.057863 182.839692 
L 253.631271 174.554119 
L 279.672829 170.740565 
L 300.950331 139.154999 
L 318.940203 107.760524 
L 334.523738 87.596528 
L 348.269391 75.873618 
L 360.565296 68.585707 
L 371.688296 63.360761 
L 381.842799 60.074792 
L 391.184036 56.867134 
L 399.83267 54.126322 
L 407.884357 51.896582 
L 415.416206 49.707583 
L 422.491291 48.160455 
L 429.161859 46.990643 
L 435.471674 45.915366 
L 441.457764 44.915214 
L 447.15173 44.064953 
L 452.580763 43.140206 
L 457.768425 42.440068 
L 462.735266 41.822661 
L 467.499322 41.139706 
L 472.076503 40.60759 
L 476.480919 40.139928 
L 480.725138 39.733634 
L 484.820406 39.442231 
L 488.776824 39.163648 
L 492.6035 38.906437 
L 496.308674 38.660206 
L 499.899824 38.424602 
L 503.383759 38.147419 
L 506.766696 37.955162 
L 510.054326 37.778112 
L 513.251873 37.608204 
L 516.364142 37.451064 
L 519.395564 37.312 
L 522.350232 37.172666 
L 525.231938 37.035315 
L 528.044198 36.917838 
L 530.790282 36.791321 
L 533.473231 36.685178 
L 536.095884 36.561494 
L 538.660892 36.46722 
L 541.170735 36.383773 
L 543.627734 36.295314 
L 546.03407 36.216276 
L 548.39179 36.142769 
" clip-path="url(#pa4137e728b)" style="fill: none; stroke: #386cb0; stroke-width: 3; stroke-linecap: square"/>
   </g>
   <g id="line2d_38">
    <path d="M 91.846335 128.672612 
L 172.738803 128.672612 
L 220.057863 128.672612 
L 253.631271 128.672612 
L 279.672829 128.672612 
L 300.950331 128.672612 
L 318.940203 128.672612 
L 334.523738 128.672612 
L 348.269391 128.672612 
L 360.565296 128.672612 
L 371.688296 128.672612 
L 381.842799 128.672612 
L 391.184036 128.672612 
L 399.83267 128.672612 
L 407.884357 128.672612 
L 415.416206 128.672612 
L 422.491291 128.672612 
L 429.161859 128.672612 
L 435.471674 128.672612 
L 441.457764 128.672612 
L 447.15173 128.672612 
L 452.580763 128.672612 
L 457.768425 128.672612 
L 462.735266 128.672612 
L 467.499322 128.672612 
L 472.076503 128.672612 
L 476.480919 128.672612 
L 480.725138 128.672612 
L 484.820406 128.672612 
L 488.776824 128.672612 
L 492.6035 128.672612 
L 496.308674 128.672612 
L 499.899824 128.672612 
L 503.383759 128.672612 
L 506.766696 128.672612 
L 510.054326 128.672612 
L 513.251873 128.672612 
L 516.364142 128.672612 
L 519.395564 128.672612 
L 522.350232 128.672612 
L 525.231938 128.672612 
L 528.044198 128.672612 
L 530.790282 128.672612 
L 533.473231 128.672612 
L 536.095884 128.672612 
L 538.660892 128.672612 
L 541.170735 128.672612 
L 543.627734 128.672612 
L 546.03407 128.672612 
L 548.39179 128.672612 
" clip-path="url(#pa4137e728b)" style="fill: none; stroke-dasharray: 11.1,4.8; stroke-dashoffset: 0; stroke: #fdc086; stroke-width: 3"/>
   </g>
   <g id="line2d_39">
    <path d="M 91.846335 73.141241 
L 172.738803 61.777536 
L 220.057863 55.452042 
L 253.631271 51.215838 
L 279.672829 49.240763 
L 300.950331 47.577124 
L 318.940203 46.137723 
L 334.523738 44.855059 
L 348.269391 43.706309 
L 360.565296 42.693649 
L 371.688296 42.154147 
L 381.842799 41.649161 
L 391.184036 41.169823 
L 399.83267 40.72282 
L 407.884357 40.303577 
L 415.416206 39.91036 
L 422.491291 39.535482 
L 429.161859 39.178445 
L 435.471674 38.843482 
L 441.457764 38.544738 
L 447.15173 38.369003 
L 452.580763 38.201725 
L 457.768425 38.041104 
L 462.735266 37.883348 
L 467.499322 37.729782 
L 472.076503 37.581875 
L 476.480919 37.437453 
L 480.725138 37.29731 
L 484.820406 37.160392 
L 488.776824 37.030481 
L 492.6035 36.903354 
L 496.308674 36.781146 
L 499.899824 36.661077 
L 503.383759 36.546468 
L 506.766696 36.435258 
L 510.054326 36.371543 
L 513.251873 36.310234 
L 516.364142 36.249855 
L 519.395564 36.191192 
L 522.350232 36.134042 
L 525.231938 36.077382 
L 528.044198 36.020838 
L 530.790282 35.967308 
L 533.473231 35.914082 
L 536.095884 35.861805 
L 538.660892 35.811256 
L 541.170735 35.760859 
L 543.627734 35.710751 
L 546.03407 35.660937 
L 548.39179 35.611657 
" clip-path="url(#pa4137e728b)" style="fill: none; stroke-dasharray: 11.1,4.8; stroke-dashoffset: 0; stroke: #666666; stroke-width: 3"/>
   </g>
   <g id="line2d_40">
    <path d="M 91.846335 192.24052 
L 172.738803 189.461627 
L 220.057863 181.150894 
L 253.631271 115.597675 
L 279.672829 99.439467 
L 300.950331 89.737243 
L 318.940203 81.02788 
L 334.523738 75.672283 
L 348.269391 71.011909 
L 360.565296 67.980942 
L 371.688296 65.545901 
L 381.842799 62.559881 
L 391.184036 60.431086 
L 399.83267 58.582351 
L 407.884357 55.681717 
L 415.416206 54.027261 
L 422.491291 52.921274 
L 429.161859 51.882071 
L 435.471674 50.831825 
L 441.457764 49.890972 
L 447.15173 48.818472 
L 452.580763 48.097634 
L 457.768425 47.227514 
L 462.735266 46.146837 
L 467.499322 44.862118 
L 472.076503 43.975483 
L 476.480919 43.28492 
L 480.725138 42.686419 
L 484.820406 42.145129 
L 488.776824 41.176004 
L 492.6035 40.826507 
L 496.308674 40.38712 
L 499.899824 40.0481 
L 503.383759 39.418529 
L 506.766696 39.040518 
L 510.054326 38.836917 
L 513.251873 38.649971 
L 516.364142 38.471682 
L 519.395564 38.297676 
L 522.350232 38.156947 
L 525.231938 37.977367 
L 528.044198 37.714859 
L 530.790282 37.494415 
L 533.473231 37.356374 
L 536.095884 37.247976 
L 538.660892 37.141085 
L 541.170735 37.047801 
L 543.627734 36.960321 
L 546.03407 36.869916 
L 548.39179 36.807031 
" clip-path="url(#pa4137e728b)" style="fill: none; stroke: #bf5b17; stroke-width: 3; stroke-linecap: square"/>
   </g>
   <g id="patch_3">
    <path d="M 69.019063 342.665257 
L 69.019063 10.025257 
" style="fill: none; stroke: #000000; stroke-width: 0.8; stroke-linejoin: miter; stroke-linecap: square"/>
   </g>
   <g id="patch_4">
    <path d="M 571.219063 342.665257 
L 571.219063 10.025257 
" style="fill: none; stroke: #000000; stroke-width: 0.8; stroke-linejoin: miter; stroke-linecap: square"/>
   </g>
   <g id="patch_5">
    <path d="M 69.019063 342.665257 
L 571.219063 342.665257 
" style="fill: none; stroke: #000000; stroke-width: 0.8; stroke-linejoin: miter; stroke-linecap: square"/>
   </g>
   <g id="patch_6">
    <path d="M 69.019063 10.025257 
L 571.219063 10.025257 
" style="fill: none; stroke: #000000; stroke-width: 0.8; stroke-linejoin: miter; stroke-linecap: square"/>
   </g>
  </g>
 </g>
 <defs>
  <clipPath id="pa4137e728b">
   <rect x="69.019063" y="10.025257" width="502.2" height="332.64"/>
  </clipPath>
 </defs>
</svg>
