<?xml version="1.0" encoding="utf-8" standalone="no"?>
<!DOCTYPE svg PUBLIC "-//W3C//DTD SVG 1.1//EN"
  "http://www.w3.org/Graphics/SVG/1.1/DTD/svg11.dtd">
<svg xmlns:xlink="http://www.w3.org/1999/xlink" width="741.04625pt" height="559.20125pt" viewBox="0 0 741.04625 559.20125" xmlns="http://www.w3.org/2000/svg" version="1.1">
 <metadata>
  <rdf:RDF xmlns:dc="http://purl.org/dc/elements/1.1/" xmlns:cc="http://creativecommons.org/ns#" xmlns:rdf="http://www.w3.org/1999/02/22-rdf-syntax-ns#">
   <cc:Work>
    <dc:type rdf:resource="http://purl.org/dc/dcmitype/StillImage"/>
    <dc:date>2025-02-26T21:52:05.151418</dc:date>
    <dc:format>image/svg+xml</dc:format>
    <dc:creator>
     <cc:Agent>
      <dc:title>Matplotlib v3.9.4, https://matplotlib.org/</dc:title>
     </cc:Agent>
    </dc:creator>
   </cc:Work>
  </rdf:RDF>
 </metadata>
 <defs>
  <style type="text/css">*{stroke-linejoin: round; stroke-linecap: butt}</style>
 </defs>
 <g id="figure_1">
  <g id="patch_1">
   <path d="M 0 559.20125 
L 741.04625 559.20125 
L 741.04625 0 
L 0 0 
z
" style="fill: #ffffff"/>
  </g>
  <g id="axes_1">
   <g id="patch_2">
    <path d="M 64.24625 506.16 
L 733.84625 506.16 
L 733.84625 7.2 
L 64.24625 7.2 
z
" style="fill: #ffffff"/>
   </g>
   <g id="PolyCollection_1">
    <defs>
     <path id="m3ff29c9a8b" d="M 94.682614 -174.862723 
L 94.682614 -168.47582 
L 192.410177 -168.47582 
L 249.577137 -168.47582 
L 290.13774 -168.47582 
L 321.598988 -168.47582 
L 347.3047 -168.47582 
L 369.038569 -168.47582 
L 387.865303 -168.47582 
L 404.47166 -168.47582 
L 419.326552 -168.47582 
L 432.764436 -168.47582 
L 445.032263 -168.47582 
L 456.31757 -168.47582 
L 466.766133 -168.47582 
L 476.493512 -168.47582 
L 485.592867 -168.47582 
L 494.140397 -168.47582 
L 502.199223 -168.47582 
L 509.822219 -168.47582 
L 517.054115 -168.47582 
L 523.933093 -168.47582 
L 530.491999 -168.47582 
L 536.759301 -168.47582 
L 542.759827 -168.47582 
L 548.515363 -168.47582 
L 554.045134 -168.47582 
L 559.366183 -168.47582 
L 564.493696 -168.47582 
L 569.441259 -168.47582 
L 574.221075 -168.47582 
L 578.844147 -168.47582 
L 583.32043 -168.47582 
L 587.658959 -168.47582 
L 591.86796 -168.47582 
L 595.954944 -168.47582 
L 599.926786 -168.47582 
L 603.789797 -168.47582 
L 607.549782 -168.47582 
L 611.212093 -168.47582 
L 614.781678 -168.47582 
L 618.263116 -168.47582 
L 621.660656 -168.47582 
L 624.978246 -168.47582 
L 628.219563 -168.47582 
L 631.388035 -168.47582 
L 634.486864 -168.47582 
L 637.519047 -168.47582 
L 640.48739 -168.47582 
L 643.394525 -168.47582 
L 646.242927 -168.47582 
L 649.03492 -168.47582 
L 651.772697 -168.47582 
L 654.458322 -168.47582 
L 657.093746 -168.47582 
L 659.680811 -168.47582 
L 662.221259 -168.47582 
L 664.716742 -168.47582 
L 667.168822 -168.47582 
L 669.578984 -168.47582 
L 671.948638 -168.47582 
L 674.279122 -168.47582 
L 676.57171 -168.47582 
L 678.827616 -168.47582 
L 681.047993 -168.47582 
L 683.233945 -168.47582 
L 685.386522 -168.47582 
L 687.506729 -168.47582 
L 689.595524 -168.47582 
L 691.653824 -168.47582 
L 693.682508 -168.47582 
L 695.682414 -168.47582 
L 697.65435 -168.47582 
L 699.599085 -168.47582 
L 701.51736 -168.47582 
L 703.409886 -168.47582 
L 703.409886 -174.862723 
L 703.409886 -174.862723 
L 701.51736 -174.862723 
L 699.599085 -174.862723 
L 697.65435 -174.862723 
L 695.682414 -174.862723 
L 693.682508 -174.862723 
L 691.653824 -174.862723 
L 689.595524 -174.862723 
L 687.506729 -174.862723 
L 685.386522 -174.862723 
L 683.233945 -174.862723 
L 681.047993 -174.862723 
L 678.827616 -174.862723 
L 676.57171 -174.862723 
L 674.279122 -174.862723 
L 671.948638 -174.862723 
L 669.578984 -174.862723 
L 667.168822 -174.862723 
L 664.716742 -174.862723 
L 662.221259 -174.862723 
L 659.680811 -174.862723 
L 657.093746 -174.862723 
L 654.458322 -174.862723 
L 651.772697 -174.862723 
L 649.03492 -174.862723 
L 646.242927 -174.862723 
L 643.394525 -174.862723 
L 640.48739 -174.862723 
L 637.519047 -174.862723 
L 634.486864 -174.862723 
L 631.388035 -174.862723 
L 628.219563 -174.862723 
L 624.978246 -174.862723 
L 621.660656 -174.862723 
L 618.263116 -174.862723 
L 614.781678 -174.862723 
L 611.212093 -174.862723 
L 607.549782 -174.862723 
L 603.789797 -174.862723 
L 599.926786 -174.862723 
L 595.954944 -174.862723 
L 591.86796 -174.862723 
L 587.658959 -174.862723 
L 583.32043 -174.862723 
L 578.844147 -174.862723 
L 574.221075 -174.862723 
L 569.441259 -174.862723 
L 564.493696 -174.862723 
L 559.366183 -174.862723 
L 554.045134 -174.862723 
L 548.515363 -174.862723 
L 542.759827 -174.862723 
L 536.759301 -174.862723 
L 530.491999 -174.862723 
L 523.933093 -174.862723 
L 517.054115 -174.862723 
L 509.822219 -174.862723 
L 502.199223 -174.862723 
L 494.140397 -174.862723 
L 485.592867 -174.862723 
L 476.493512 -174.862723 
L 466.766133 -174.862723 
L 456.31757 -174.862723 
L 445.032263 -174.862723 
L 432.764436 -174.862723 
L 419.326552 -174.862723 
L 404.47166 -174.862723 
L 387.865303 -174.862723 
L 369.038569 -174.862723 
L 347.3047 -174.862723 
L 321.598988 -174.862723 
L 290.13774 -174.862723 
L 249.577137 -174.862723 
L 192.410177 -174.862723 
L 94.682614 -174.862723 
z
" style="stroke: #fdc086; stroke-opacity: 0.1"/>
    </defs>
    <g clip-path="url(#pab9a195920)">
     <use xlink:href="#m3ff29c9a8b" x="0" y="559.20125" style="fill: #fdc086; fill-opacity: 0.1; stroke: #fdc086; stroke-opacity: 0.1"/>
    </g>
   </g>
   <g id="PolyCollection_2">
    <defs>
     <path id="mcb4a5040e8" d="M 94.682614 -382.262585 
L 94.682614 -241.681743 
L 192.410177 -241.681743 
L 249.577137 -241.681743 
L 290.13774 -241.681743 
L 321.598988 -241.681743 
L 347.3047 -241.681743 
L 369.038569 -241.681743 
L 387.865303 -241.681743 
L 404.47166 -241.681743 
L 419.326552 -241.681743 
L 432.764436 -241.681743 
L 445.032263 -241.681743 
L 456.31757 -241.681743 
L 466.766133 -241.681743 
L 476.493512 -241.681743 
L 485.592867 -241.681743 
L 494.140397 -241.681743 
L 502.199223 -241.681743 
L 509.822219 -241.681743 
L 517.054115 -241.681743 
L 523.933093 -241.681743 
L 530.491999 -241.681743 
L 536.759301 -241.681743 
L 542.759827 -241.681743 
L 548.515363 -241.681743 
L 554.045134 -241.681743 
L 559.366183 -241.681743 
L 564.493696 -241.681743 
L 569.441259 -241.681743 
L 574.221075 -241.681743 
L 578.844147 -241.681743 
L 583.32043 -241.681743 
L 587.658959 -241.681743 
L 591.86796 -241.681743 
L 595.954944 -241.681743 
L 599.926786 -241.681743 
L 603.789797 -241.681743 
L 607.549782 -241.681743 
L 611.212093 -241.681743 
L 614.781678 -241.681743 
L 618.263116 -241.681743 
L 621.660656 -241.681743 
L 624.978246 -241.681743 
L 628.219563 -241.681743 
L 631.388035 -241.681743 
L 634.486864 -241.681743 
L 637.519047 -241.681743 
L 640.48739 -241.681743 
L 643.394525 -241.681743 
L 646.242927 -241.681743 
L 649.03492 -241.681743 
L 651.772697 -241.681743 
L 654.458322 -241.681743 
L 657.093746 -241.681743 
L 659.680811 -241.681743 
L 662.221259 -241.681743 
L 664.716742 -241.681743 
L 667.168822 -241.681743 
L 669.578984 -241.681743 
L 671.948638 -241.681743 
L 674.279122 -241.681743 
L 676.57171 -241.681743 
L 678.827616 -241.681743 
L 681.047993 -241.681743 
L 683.233945 -241.681743 
L 685.386522 -241.681743 
L 687.506729 -241.681743 
L 689.595524 -241.681743 
L 691.653824 -241.681743 
L 693.682508 -241.681743 
L 695.682414 -241.681743 
L 697.65435 -241.681743 
L 699.599085 -241.681743 
L 701.51736 -241.681743 
L 703.409886 -241.681743 
L 703.409886 -382.262585 
L 703.409886 -382.262585 
L 701.51736 -382.262585 
L 699.599085 -382.262585 
L 697.65435 -382.262585 
L 695.682414 -382.262585 
L 693.682508 -382.262585 
L 691.653824 -382.262585 
L 689.595524 -382.262585 
L 687.506729 -382.262585 
L 685.386522 -382.262585 
L 683.233945 -382.262585 
L 681.047993 -382.262585 
L 678.827616 -382.262585 
L 676.57171 -382.262585 
L 674.279122 -382.262585 
L 671.948638 -382.262585 
L 669.578984 -382.262585 
L 667.168822 -382.262585 
L 664.716742 -382.262585 
L 662.221259 -382.262585 
L 659.680811 -382.262585 
L 657.093746 -382.262585 
L 654.458322 -382.262585 
L 651.772697 -382.262585 
L 649.03492 -382.262585 
L 646.242927 -382.262585 
L 643.394525 -382.262585 
L 640.48739 -382.262585 
L 637.519047 -382.262585 
L 634.486864 -382.262585 
L 631.388035 -382.262585 
L 628.219563 -382.262585 
L 624.978246 -382.262585 
L 621.660656 -382.262585 
L 618.263116 -382.262585 
L 614.781678 -382.262585 
L 611.212093 -382.262585 
L 607.549782 -382.262585 
L 603.789797 -382.262585 
L 599.926786 -382.262585 
L 595.954944 -382.262585 
L 591.86796 -382.262585 
L 587.658959 -382.262585 
L 583.32043 -382.262585 
L 578.844147 -382.262585 
L 574.221075 -382.262585 
L 569.441259 -382.262585 
L 564.493696 -382.262585 
L 559.366183 -382.262585 
L 554.045134 -382.262585 
L 548.515363 -382.262585 
L 542.759827 -382.262585 
L 536.759301 -382.262585 
L 530.491999 -382.262585 
L 523.933093 -382.262585 
L 517.054115 -382.262585 
L 509.822219 -382.262585 
L 502.199223 -382.262585 
L 494.140397 -382.262585 
L 485.592867 -382.262585 
L 476.493512 -382.262585 
L 466.766133 -382.262585 
L 456.31757 -382.262585 
L 445.032263 -382.262585 
L 432.764436 -382.262585 
L 419.326552 -382.262585 
L 404.47166 -382.262585 
L 387.865303 -382.262585 
L 369.038569 -382.262585 
L 347.3047 -382.262585 
L 321.598988 -382.262585 
L 290.13774 -382.262585 
L 249.577137 -382.262585 
L 192.410177 -382.262585 
L 94.682614 -382.262585 
z
" style="stroke: #beaed4; stroke-opacity: 0.1"/>
    </defs>
    <g clip-path="url(#pab9a195920)">
     <use xlink:href="#mcb4a5040e8" x="0" y="559.20125" style="fill: #beaed4; fill-opacity: 0.1; stroke: #beaed4; stroke-opacity: 0.1"/>
    </g>
   </g>
   <g id="PolyCollection_3">
    <defs>
     <path id="mf9787edb7e" d="M 94.682614 -272.689655 
L 94.682614 -75.72125 
L 192.410177 -123.683349 
L 249.577137 -165.08862 
L 290.13774 -192.928936 
L 321.598988 -212.707051 
L 347.3047 -235.580504 
L 369.038569 -243.097837 
L 387.865303 -253.916372 
L 404.47166 -261.062985 
L 419.326552 -267.175658 
L 432.764436 -276.315937 
L 445.032263 -284.017819 
L 456.31757 -293.269322 
L 466.766133 -295.427512 
L 476.493512 -301.062262 
L 485.592867 -308.216725 
L 494.140397 -311.784955 
L 502.199223 -317.814833 
L 509.822219 -320.387265 
L 517.054115 -322.288216 
L 523.933093 -324.481427 
L 530.491999 -328.848175 
L 536.759301 -332.920959 
L 542.759827 -335.436212 
L 548.515363 -338.492968 
L 554.045134 -340.400327 
L 559.366183 -343.133988 
L 564.493696 -346.041949 
L 569.441259 -348.766647 
L 574.221075 -353.921427 
L 578.844147 -355.238456 
L 583.32043 -356.797062 
L 587.658959 -359.333156 
L 591.86796 -361.408287 
L 595.954944 -364.167558 
L 599.926786 -368.478706 
L 603.789797 -370.532278 
L 607.549782 -370.99305 
L 611.212093 -372.248685 
L 614.781678 -373.444901 
L 618.263116 -375.378507 
L 621.660656 -378.41723 
L 624.978246 -379.922028 
L 628.219563 -380.651989 
L 631.388035 -382.473063 
L 634.486864 -384.434417 
L 637.519047 -385.134517 
L 640.48739 -385.574802 
L 643.394525 -386.544355 
L 646.242927 -388.699822 
L 649.03492 -390.284607 
L 651.772697 -391.421093 
L 654.458322 -393.2541 
L 657.093746 -394.507603 
L 659.680811 -395.918968 
L 662.221259 -396.369583 
L 664.716742 -396.44714 
L 667.168822 -396.501227 
L 669.578984 -397.456045 
L 671.948638 -398.911812 
L 674.279122 -400.064387 
L 676.57171 -400.890414 
L 678.827616 -402.155487 
L 681.047993 -404.393516 
L 683.233945 -404.792651 
L 685.386522 -406.889257 
L 687.506729 -406.945045 
L 689.595524 -409.057145 
L 691.653824 -409.35225 
L 693.682508 -411.935354 
L 695.682414 -412.037544 
L 697.65435 -412.390959 
L 699.599085 -413.684093 
L 701.51736 -415.160935 
L 703.409886 -415.355256 
L 703.409886 -498.40015 
L 703.409886 -498.40015 
L 701.51736 -498.331636 
L 699.599085 -495.371589 
L 697.65435 -494.68542 
L 695.682414 -494.554724 
L 693.682508 -494.273774 
L 691.653824 -494.776805 
L 689.595524 -494.314784 
L 687.506729 -493.19695 
L 685.386522 -493.20251 
L 683.233945 -490.496665 
L 681.047993 -490.445014 
L 678.827616 -490.307331 
L 676.57171 -489.491964 
L 674.279122 -486.382491 
L 671.948638 -485.404314 
L 669.578984 -485.061494 
L 667.168822 -484.323421 
L 664.716742 -484.222175 
L 662.221259 -484.162393 
L 659.680811 -483.781744 
L 657.093746 -483.200691 
L 654.458322 -481.36908 
L 651.772697 -481.123632 
L 649.03492 -479.812071 
L 646.242927 -478.408097 
L 643.394525 -478.437786 
L 640.48739 -477.806743 
L 637.519047 -477.509598 
L 634.486864 -472.853254 
L 631.388035 -472.503003 
L 628.219563 -471.7058 
L 624.978246 -471.539058 
L 621.660656 -470.549814 
L 618.263116 -469.409406 
L 614.781678 -465.907596 
L 611.212093 -464.415136 
L 607.549782 -463.856919 
L 603.789797 -463.798472 
L 599.926786 -459.329717 
L 595.954944 -458.366733 
L 591.86796 -457.224101 
L 587.658959 -455.975257 
L 583.32043 -454.62362 
L 578.844147 -453.364388 
L 574.221075 -452.980771 
L 569.441259 -450.464012 
L 564.493696 -449.230086 
L 559.366183 -448.822468 
L 554.045134 -446.443104 
L 548.515363 -444.775438 
L 542.759827 -443.062603 
L 536.759301 -442.011749 
L 530.491999 -439.913589 
L 523.933093 -435.476357 
L 517.054115 -433.443183 
L 509.822219 -432.146741 
L 502.199223 -430.076328 
L 494.140397 -428.01625 
L 485.592867 -426.569854 
L 476.493512 -422.204754 
L 466.766133 -416.854499 
L 456.31757 -413.691862 
L 445.032263 -403.603926 
L 432.764436 -399.162831 
L 419.326552 -388.557324 
L 404.47166 -386.600415 
L 387.865303 -379.961873 
L 369.038569 -375.449766 
L 347.3047 -371.473286 
L 321.598988 -365.595504 
L 290.13774 -353.704068 
L 249.577137 -336.962258 
L 192.410177 -319.79786 
L 94.682614 -272.689655 
z
" style="stroke: #7fc97f; stroke-opacity: 0.1"/>
    </defs>
    <g clip-path="url(#pab9a195920)">
     <use xlink:href="#mf9787edb7e" x="0" y="559.20125" style="fill: #7fc97f; fill-opacity: 0.1; stroke: #7fc97f; stroke-opacity: 0.1"/>
    </g>
   </g>
   <g id="PolyCollection_4">
    <defs>
     <path id="m626446703d" d="M 94.682614 -266.270176 
L 94.682614 -168.114882 
L 192.410177 -167.703867 
L 249.577137 -167.77379 
L 290.13774 -202.280114 
L 321.598988 -229.672296 
L 347.3047 -244.440403 
L 369.038569 -253.564092 
L 387.865303 -257.10231 
L 404.47166 -259.800545 
L 419.326552 -266.171862 
L 432.764436 -273.335693 
L 445.032263 -280.347179 
L 456.31757 -285.192801 
L 466.766133 -290.726024 
L 476.493512 -293.498651 
L 485.592867 -298.22824 
L 494.140397 -302.443924 
L 502.199223 -306.806568 
L 509.822219 -312.376954 
L 517.054115 -320.31772 
L 523.933093 -325.813149 
L 530.491999 -331.671936 
L 536.759301 -338.447514 
L 542.759827 -347.735023 
L 548.515363 -351.755221 
L 554.045134 -353.626152 
L 559.366183 -356.395807 
L 564.493696 -365.798337 
L 569.441259 -371.122502 
L 574.221075 -376.919439 
L 578.844147 -384.667684 
L 583.32043 -391.185861 
L 587.658959 -393.85061 
L 591.86796 -399.349479 
L 595.954944 -406.050508 
L 599.926786 -407.237942 
L 603.789797 -409.803564 
L 607.549782 -412.780041 
L 611.212093 -415.114888 
L 614.781678 -420.263387 
L 618.263116 -423.887016 
L 621.660656 -425.832391 
L 624.978246 -427.595197 
L 628.219563 -428.738542 
L 631.388035 -430.161876 
L 634.486864 -434.944241 
L 637.519047 -435.391019 
L 640.48739 -436.949636 
L 643.394525 -438.170751 
L 646.242927 -438.756943 
L 649.03492 -439.560649 
L 651.772697 -442.325579 
L 654.458322 -443.016495 
L 657.093746 -443.741629 
L 659.680811 -444.36637 
L 662.221259 -445.26972 
L 664.716742 -446.581265 
L 667.168822 -447.451174 
L 669.578984 -447.613169 
L 671.948638 -447.492067 
L 674.279122 -447.91032 
L 676.57171 -448.758145 
L 678.827616 -449.722111 
L 681.047993 -450.027484 
L 683.233945 -450.683097 
L 685.386522 -450.841736 
L 687.506729 -451.98616 
L 689.595524 -453.109867 
L 691.653824 -453.142192 
L 693.682508 -453.21211 
L 695.682414 -453.602264 
L 697.65435 -453.967639 
L 699.599085 -453.989566 
L 701.51736 -454.484838 
L 703.409886 -455.035172 
L 703.409886 -529.32125 
L 703.409886 -529.32125 
L 701.51736 -528.006505 
L 699.599085 -527.59099 
L 697.65435 -527.589685 
L 695.682414 -527.496141 
L 693.682508 -527.541065 
L 691.653824 -527.469375 
L 689.595524 -527.442803 
L 687.506729 -526.452306 
L 685.386522 -524.427393 
L 683.233945 -524.340379 
L 681.047993 -521.843645 
L 678.827616 -521.474283 
L 676.57171 -519.91309 
L 674.279122 -520.091517 
L 671.948638 -519.482194 
L 669.578984 -517.612309 
L 667.168822 -517.410965 
L 664.716742 -517.114822 
L 662.221259 -517.059731 
L 659.680811 -516.818366 
L 657.093746 -516.426022 
L 654.458322 -516.026849 
L 651.772697 -515.948998 
L 649.03492 -515.778869 
L 646.242927 -515.486928 
L 643.394525 -515.47239 
L 640.48739 -514.984491 
L 637.519047 -514.445175 
L 634.486864 -514.233296 
L 631.388035 -514.662662 
L 628.219563 -513.964122 
L 624.978246 -513.265156 
L 621.660656 -512.206438 
L 618.263116 -509.977425 
L 614.781678 -509.054894 
L 611.212093 -509.563015 
L 607.549782 -509.601075 
L 603.789797 -509.095313 
L 599.926786 -507.832349 
L 595.954944 -507.457016 
L 591.86796 -503.417637 
L 587.658959 -499.075668 
L 583.32043 -498.972983 
L 578.844147 -498.028449 
L 574.221075 -494.664642 
L 569.441259 -491.326357 
L 564.493696 -490.072614 
L 559.366183 -486.450325 
L 554.045134 -483.529061 
L 548.515363 -482.668479 
L 542.759827 -478.517506 
L 536.759301 -473.958392 
L 530.491999 -469.832551 
L 523.933093 -464.06047 
L 517.054115 -457.914955 
L 509.822219 -447.948516 
L 502.199223 -438.322638 
L 494.140397 -433.384022 
L 485.592867 -428.198864 
L 476.493512 -417.758916 
L 466.766133 -414.629886 
L 456.31757 -410.547254 
L 445.032263 -398.555456 
L 432.764436 -389.006196 
L 419.326552 -378.064887 
L 404.47166 -375.037151 
L 387.865303 -362.978616 
L 369.038569 -357.575726 
L 347.3047 -345.733979 
L 321.598988 -339.526497 
L 290.13774 -332.717028 
L 249.577137 -273.948108 
L 192.410177 -273.948934 
L 94.682614 -266.270176 
z
" style="stroke: #bf5b17; stroke-opacity: 0.1"/>
    </defs>
    <g clip-path="url(#pab9a195920)">
     <use xlink:href="#m626446703d" x="0" y="559.20125" style="fill: #bf5b17; fill-opacity: 0.1; stroke: #bf5b17; stroke-opacity: 0.1"/>
    </g>
   </g>
   <g id="PolyCollection_5">
    <defs>
     <path id="mbc54c55e52" d="M 94.682614 -266.270176 
L 94.682614 -168.114882 
L 192.410177 -194.031926 
L 249.577137 -236.194973 
L 290.13774 -237.00224 
L 321.598988 -237.018241 
L 347.3047 -237.035013 
L 369.038569 -237.03842 
L 387.865303 -252.303569 
L 404.47166 -260.365791 
L 419.326552 -260.365957 
L 432.764436 -270.823375 
L 445.032263 -274.748098 
L 456.31757 -274.748098 
L 466.766133 -274.749715 
L 476.493512 -281.579616 
L 485.592867 -308.709126 
L 494.140397 -309.520402 
L 502.199223 -309.520402 
L 509.822219 -309.520402 
L 517.054115 -309.520402 
L 523.933093 -310.388852 
L 530.491999 -310.388852 
L 536.759301 -310.388852 
L 542.759827 -350.307724 
L 548.515363 -350.307724 
L 554.045134 -350.616884 
L 559.366183 -350.755899 
L 564.493696 -352.459569 
L 569.441259 -352.459569 
L 574.221075 -355.037928 
L 578.844147 -355.037928 
L 583.32043 -355.585488 
L 587.658959 -355.585488 
L 591.86796 -357.172734 
L 595.954944 -358.265433 
L 599.926786 -360.830333 
L 603.789797 -360.830333 
L 607.549782 -360.830333 
L 611.212093 -360.830333 
L 614.781678 -360.87924 
L 618.263116 -361.049644 
L 621.660656 -361.151438 
L 624.978246 -361.151438 
L 628.219563 -361.151438 
L 631.388035 -361.151438 
L 634.486864 -361.151438 
L 637.519047 -361.151438 
L 640.48739 -372.601763 
L 643.394525 -372.601763 
L 646.242927 -372.601763 
L 649.03492 -372.619836 
L 651.772697 -372.619836 
L 654.458322 -372.619836 
L 657.093746 -372.619836 
L 659.680811 -372.635584 
L 662.221259 -374.460566 
L 664.716742 -374.464146 
L 667.168822 -374.464146 
L 669.578984 -375.001069 
L 671.948638 -376.10116 
L 674.279122 -376.10116 
L 676.57171 -376.10116 
L 678.827616 -376.193456 
L 681.047993 -376.911877 
L 683.233945 -376.911877 
L 685.386522 -377.052115 
L 687.506729 -377.052115 
L 689.595524 -377.730622 
L 691.653824 -377.734068 
L 693.682508 -377.734068 
L 695.682414 -377.734068 
L 697.65435 -377.734068 
L 699.599085 -377.957 
L 701.51736 -378.000863 
L 703.409886 -378.000863 
L 703.409886 -428.143911 
L 703.409886 -428.143911 
L 701.51736 -428.143911 
L 699.599085 -428.115064 
L 697.65435 -428.0607 
L 695.682414 -428.0607 
L 693.682508 -428.0607 
L 691.653824 -428.0607 
L 689.595524 -428.056244 
L 687.506729 -427.988674 
L 685.386522 -427.988674 
L 683.233945 -427.849599 
L 681.047993 -427.849599 
L 678.827616 -427.636348 
L 676.57171 -427.515269 
L 674.279122 -427.515269 
L 671.948638 -427.515269 
L 669.578984 -427.527638 
L 667.168822 -427.486156 
L 664.716742 -427.486156 
L 662.221259 -427.482638 
L 659.680811 -426.721513 
L 657.093746 -426.715192 
L 654.458322 -426.715192 
L 651.772697 -426.715192 
L 649.03492 -426.715192 
L 646.242927 -426.705111 
L 643.394525 -426.705111 
L 640.48739 -426.705111 
L 637.519047 -415.108343 
L 634.486864 -415.108343 
L 631.388035 -415.108343 
L 628.219563 -415.108343 
L 624.978246 -415.108343 
L 621.660656 -415.108343 
L 618.263116 -415.071034 
L 614.781678 -415.041063 
L 611.212093 -414.993363 
L 607.549782 -414.993363 
L 603.789797 -414.993363 
L 599.926786 -414.993363 
L 595.954944 -414.174237 
L 591.86796 -413.302377 
L 587.658959 -412.977892 
L 583.32043 -412.977892 
L 578.844147 -412.855158 
L 574.221075 -412.855158 
L 569.441259 -412.335166 
L 564.493696 -412.335166 
L 559.366183 -411.675328 
L 554.045134 -411.621955 
L 548.515363 -411.299341 
L 542.759827 -411.299341 
L 536.759301 -341.067549 
L 530.491999 -341.067549 
L 523.933093 -341.067549 
L 517.054115 -340.41566 
L 509.822219 -340.41566 
L 502.199223 -340.41566 
L 494.140397 -340.41566 
L 485.592867 -340.143485 
L 476.493512 -319.227555 
L 466.766133 -318.801378 
L 456.31757 -318.801972 
L 445.032263 -318.801972 
L 432.764436 -317.686652 
L 419.326552 -315.005846 
L 404.47166 -315.005678 
L 387.865303 -312.147413 
L 369.038569 -299.467712 
L 347.3047 -299.467641 
L 321.598988 -299.46535 
L 290.13774 -299.469862 
L 249.577137 -299.706516 
L 192.410177 -274.935918 
L 94.682614 -266.270176 
z
" style="stroke: #f0027f; stroke-opacity: 0.1"/>
    </defs>
    <g clip-path="url(#pab9a195920)">
     <use xlink:href="#mbc54c55e52" x="0" y="559.20125" style="fill: #f0027f; fill-opacity: 0.1; stroke: #f0027f; stroke-opacity: 0.1"/>
    </g>
   </g>
   <g id="PolyCollection_6">
    <defs>
     <path id="m9d29e8f172" d="M 94.682614 -266.270176 
L 94.682614 -168.114882 
L 192.410177 -194.031926 
L 249.577137 -236.194973 
L 290.13774 -237.00224 
L 321.598988 -237.018241 
L 347.3047 -237.035013 
L 369.038569 -237.082614 
L 387.865303 -246.595741 
L 404.47166 -256.063792 
L 419.326552 -259.89576 
L 432.764436 -266.338911 
L 445.032263 -265.197813 
L 456.31757 -269.459833 
L 466.766133 -272.024894 
L 476.493512 -276.688129 
L 485.592867 -276.910254 
L 494.140397 -282.37796 
L 502.199223 -289.128671 
L 509.822219 -292.855321 
L 517.054115 -296.921845 
L 523.933093 -303.214079 
L 530.491999 -309.2798 
L 536.759301 -315.686179 
L 542.759827 -323.683158 
L 548.515363 -329.194386 
L 554.045134 -338.374859 
L 559.366183 -343.781849 
L 564.493696 -353.81448 
L 569.441259 -360.154478 
L 574.221075 -367.973387 
L 578.844147 -375.022359 
L 583.32043 -380.201321 
L 587.658959 -383.399622 
L 591.86796 -390.056598 
L 595.954944 -392.970211 
L 599.926786 -399.589607 
L 603.789797 -402.497192 
L 607.549782 -406.488749 
L 611.212093 -408.89775 
L 614.781678 -410.804536 
L 618.263116 -414.83629 
L 621.660656 -418.685364 
L 624.978246 -420.211916 
L 628.219563 -424.893064 
L 631.388035 -427.680086 
L 634.486864 -428.306733 
L 637.519047 -430.048482 
L 640.48739 -431.845598 
L 643.394525 -434.165306 
L 646.242927 -434.719316 
L 649.03492 -436.875845 
L 651.772697 -438.756006 
L 654.458322 -438.10967 
L 657.093746 -438.801974 
L 659.680811 -439.297326 
L 662.221259 -439.517422 
L 664.716742 -439.755683 
L 667.168822 -440.530632 
L 669.578984 -440.710679 
L 671.948638 -443.231507 
L 674.279122 -444.160197 
L 676.57171 -445.059137 
L 678.827616 -445.310952 
L 681.047993 -447.792127 
L 683.233945 -447.839823 
L 685.386522 -448.240009 
L 687.506729 -448.410877 
L 689.595524 -448.544056 
L 691.653824 -449.032174 
L 693.682508 -449.251845 
L 695.682414 -449.98056 
L 697.65435 -450.663259 
L 699.599085 -450.680332 
L 701.51736 -452.140929 
L 703.409886 -453.329065 
L 703.409886 -507.008293 
L 703.409886 -507.008293 
L 701.51736 -506.255687 
L 699.599085 -504.407677 
L 697.65435 -503.56458 
L 695.682414 -502.393395 
L 693.682508 -500.57399 
L 691.653824 -499.449444 
L 689.595524 -498.352846 
L 687.506729 -498.247841 
L 685.386522 -498.196715 
L 683.233945 -498.093759 
L 681.047993 -498.067223 
L 678.827616 -497.871322 
L 676.57171 -497.808766 
L 674.279122 -496.748861 
L 671.948638 -496.237437 
L 669.578984 -495.816855 
L 667.168822 -495.653008 
L 664.716742 -495.55067 
L 662.221259 -495.397089 
L 659.680811 -495.353014 
L 657.093746 -494.774126 
L 654.458322 -495.07551 
L 651.772697 -492.607657 
L 649.03492 -491.985414 
L 646.242927 -491.757922 
L 643.394525 -491.120053 
L 640.48739 -491.16134 
L 637.519047 -490.577111 
L 634.486864 -490.778771 
L 631.388035 -490.093529 
L 628.219563 -488.302972 
L 624.978246 -487.449525 
L 621.660656 -487.560311 
L 618.263116 -486.720439 
L 614.781678 -487.356038 
L 611.212093 -486.515425 
L 607.549782 -485.792941 
L 603.789797 -485.496711 
L 599.926786 -483.986442 
L 595.954944 -481.819685 
L 591.86796 -480.466976 
L 587.658959 -478.366265 
L 583.32043 -476.968851 
L 578.844147 -475.405934 
L 574.221075 -472.919781 
L 569.441259 -470.657872 
L 564.493696 -465.62446 
L 559.366183 -461.717814 
L 554.045134 -458.167632 
L 548.515363 -453.734927 
L 542.759827 -449.72977 
L 536.759301 -440.583817 
L 530.491999 -434.641187 
L 523.933093 -425.918496 
L 517.054115 -420.068669 
L 509.822219 -416.936052 
L 502.199223 -406.108289 
L 494.140397 -398.64234 
L 485.592867 -389.537531 
L 476.493512 -371.007999 
L 466.766133 -364.798225 
L 456.31757 -353.008646 
L 445.032263 -348.470361 
L 432.764436 -330.236964 
L 419.326552 -318.453 
L 404.47166 -311.922915 
L 387.865303 -306.440613 
L 369.038569 -299.452522 
L 347.3047 -299.467641 
L 321.598988 -299.46535 
L 290.13774 -299.469862 
L 249.577137 -299.706516 
L 192.410177 -274.935918 
L 94.682614 -266.270176 
z
" style="stroke: #386cb0; stroke-opacity: 0.1"/>
    </defs>
    <g clip-path="url(#pab9a195920)">
     <use xlink:href="#m9d29e8f172" x="0" y="559.20125" style="fill: #386cb0; fill-opacity: 0.1; stroke: #386cb0; stroke-opacity: 0.1"/>
    </g>
   </g>
   <g id="PolyCollection_7">
    <defs>
     <path id="m00c18461a7" d="M 94.682614 -266.270176 
L 94.682614 -168.114882 
L 192.410177 -194.031926 
L 249.577137 -236.194973 
L 290.13774 -237.00224 
L 321.598988 -237.018241 
L 347.3047 -237.035013 
L 369.038569 -237.035308 
L 387.865303 -251.997425 
L 404.47166 -260.958054 
L 419.326552 -262.895422 
L 432.764436 -266.613097 
L 445.032263 -272.460373 
L 456.31757 -278.245654 
L 466.766133 -278.818187 
L 476.493512 -282.365282 
L 485.592867 -292.047304 
L 494.140397 -300.112215 
L 502.199223 -299.309004 
L 509.822219 -302.178297 
L 517.054115 -305.632628 
L 523.933093 -308.008334 
L 530.491999 -310.534072 
L 536.759301 -313.523106 
L 542.759827 -318.068588 
L 548.515363 -323.770123 
L 554.045134 -329.083508 
L 559.366183 -334.660703 
L 564.493696 -339.072025 
L 569.441259 -343.023268 
L 574.221075 -348.394625 
L 578.844147 -352.851736 
L 583.32043 -355.707614 
L 587.658959 -360.388979 
L 591.86796 -367.137098 
L 595.954944 -372.821001 
L 599.926786 -379.303021 
L 603.789797 -380.973925 
L 607.549782 -384.813836 
L 611.212093 -388.135837 
L 614.781678 -389.998653 
L 618.263116 -392.618005 
L 621.660656 -396.241969 
L 624.978246 -400.349412 
L 628.219563 -401.69223 
L 631.388035 -405.369908 
L 634.486864 -410.986556 
L 637.519047 -411.889689 
L 640.48739 -413.078012 
L 643.394525 -414.291706 
L 646.242927 -415.617574 
L 649.03492 -417.488929 
L 651.772697 -419.738557 
L 654.458322 -421.015259 
L 657.093746 -425.694362 
L 659.680811 -427.506782 
L 662.221259 -429.074317 
L 664.716742 -429.924909 
L 667.168822 -430.746634 
L 669.578984 -431.824379 
L 671.948638 -432.481126 
L 674.279122 -434.528034 
L 676.57171 -436.575682 
L 678.827616 -436.589319 
L 681.047993 -437.506322 
L 683.233945 -437.682053 
L 685.386522 -437.769451 
L 687.506729 -438.69126 
L 689.595524 -439.138199 
L 691.653824 -440.478831 
L 693.682508 -441.80084 
L 695.682414 -441.523436 
L 697.65435 -441.689216 
L 699.599085 -443.885913 
L 701.51736 -444.310138 
L 703.409886 -444.184613 
L 703.409886 -507.446129 
L 703.409886 -507.446129 
L 701.51736 -504.696822 
L 699.599085 -504.494544 
L 697.65435 -504.841323 
L 695.682414 -504.629544 
L 693.682508 -501.678086 
L 691.653824 -501.351885 
L 689.595524 -500.755105 
L 687.506729 -499.428734 
L 685.386522 -499.110239 
L 683.233945 -499.036253 
L 681.047993 -498.849529 
L 678.827616 -498.870434 
L 676.57171 -496.06724 
L 674.279122 -495.147243 
L 671.948638 -495.590531 
L 669.578984 -495.171167 
L 667.168822 -494.435775 
L 664.716742 -494.408136 
L 662.221259 -493.700027 
L 659.680811 -492.655668 
L 657.093746 -492.891335 
L 654.458322 -493.600101 
L 651.772697 -493.526045 
L 649.03492 -491.544936 
L 646.242927 -490.710414 
L 643.394525 -490.132105 
L 640.48739 -489.364553 
L 637.519047 -489.168325 
L 634.486864 -488.855789 
L 631.388035 -488.291508 
L 628.219563 -487.452825 
L 624.978246 -485.894159 
L 621.660656 -484.332763 
L 618.263116 -483.073299 
L 614.781678 -481.578849 
L 611.212093 -480.835524 
L 607.549782 -479.997193 
L 603.789797 -479.95682 
L 599.926786 -476.895865 
L 595.954944 -474.420892 
L 591.86796 -470.552831 
L 587.658959 -467.325895 
L 583.32043 -464.008369 
L 578.844147 -459.403861 
L 574.221075 -450.649003 
L 569.441259 -442.316474 
L 564.493696 -439.141625 
L 559.366183 -435.562152 
L 554.045134 -429.952813 
L 548.515363 -418.529781 
L 542.759827 -413.352356 
L 536.759301 -407.185068 
L 530.491999 -402.197679 
L 523.933093 -398.214953 
L 517.054115 -387.826147 
L 509.822219 -380.331169 
L 502.199223 -374.119447 
L 494.140397 -358.522872 
L 485.592867 -354.341058 
L 476.493512 -336.701341 
L 466.766133 -326.784532 
L 456.31757 -323.062838 
L 445.032263 -319.773904 
L 432.764436 -316.500886 
L 419.326552 -313.881549 
L 404.47166 -313.14604 
L 387.865303 -308.462841 
L 369.038569 -299.468149 
L 347.3047 -299.467641 
L 321.598988 -299.46535 
L 290.13774 -299.469862 
L 249.577137 -299.706516 
L 192.410177 -274.935918 
L 94.682614 -266.270176 
z
" style="stroke: #ffff99; stroke-opacity: 0.1"/>
    </defs>
    <g clip-path="url(#pab9a195920)">
     <use xlink:href="#m00c18461a7" x="0" y="559.20125" style="fill: #ffff99; fill-opacity: 0.1; stroke: #ffff99; stroke-opacity: 0.1"/>
    </g>
   </g>
   <g id="PolyCollection_8">
    <defs>
     <path id="m5940de5b52" d="M 94.682614 -470.244442 
L 94.682614 -345.978195 
L 192.410177 -381.631584 
L 249.577137 -418.593503 
L 290.13774 -438.765603 
L 321.598988 -455.316495 
L 347.3047 -459.411063 
L 369.038569 -463.879528 
L 387.865303 -465.766319 
L 404.47166 -467.075658 
L 419.326552 -467.429657 
L 432.764436 -467.532625 
L 445.032263 -467.532625 
L 456.31757 -467.532625 
L 466.766133 -468.327143 
L 476.493512 -468.327143 
L 485.592867 -468.32738 
L 494.140397 -468.331195 
L 502.199223 -468.331195 
L 509.822219 -468.331195 
L 517.054115 -468.331195 
L 523.933093 -468.338564 
L 530.491999 -468.338564 
L 536.759301 -468.500924 
L 542.759827 -468.500924 
L 548.515363 -468.500924 
L 554.045134 -468.510826 
L 559.366183 -468.593111 
L 564.493696 -468.596621 
L 569.441259 -468.596621 
L 574.221075 -468.596621 
L 578.844147 -468.596621 
L 583.32043 -468.596621 
L 587.658959 -468.596621 
L 591.86796 -468.597981 
L 595.954944 -468.704903 
L 599.926786 -468.704903 
L 603.789797 -468.704903 
L 607.549782 -468.704903 
L 611.212093 -468.733156 
L 614.781678 -468.733001 
L 618.263116 -468.733001 
L 621.660656 -468.733001 
L 624.978246 -468.733001 
L 628.219563 -468.733001 
L 631.388035 -468.876683 
L 634.486864 -468.876683 
L 637.519047 -468.876683 
L 640.48739 -468.876683 
L 643.394525 -468.876683 
L 646.242927 -468.88969 
L 649.03492 -468.88969 
L 651.772697 -468.88969 
L 654.458322 -468.88969 
L 657.093746 -468.930495 
L 659.680811 -468.930495 
L 662.221259 -468.961358 
L 664.716742 -468.966414 
L 667.168822 -468.991264 
L 669.578984 -468.991264 
L 671.948638 -468.991264 
L 674.279122 -468.991264 
L 676.57171 -468.991395 
L 678.827616 -468.991875 
L 681.047993 -468.991875 
L 683.233945 -468.991875 
L 685.386522 -469.007679 
L 687.506729 -469.007679 
L 689.595524 -469.007679 
L 691.653824 -469.008593 
L 693.682508 -469.008593 
L 695.682414 -469.008593 
L 697.65435 -469.01393 
L 699.599085 -469.01393 
L 701.51736 -469.01393 
L 703.409886 -469.01393 
L 703.409886 -508.568663 
L 703.409886 -508.568663 
L 701.51736 -508.568663 
L 699.599085 -508.568663 
L 697.65435 -508.568663 
L 695.682414 -508.569649 
L 693.682508 -508.569649 
L 691.653824 -508.569649 
L 689.595524 -508.567007 
L 687.506729 -508.567007 
L 685.386522 -508.567007 
L 683.233945 -508.568443 
L 681.047993 -508.568443 
L 678.827616 -508.568443 
L 676.57171 -508.568056 
L 674.279122 -508.567919 
L 671.948638 -508.567919 
L 669.578984 -508.567919 
L 667.168822 -508.567919 
L 664.716742 -508.553198 
L 662.221259 -508.548098 
L 659.680811 -508.529745 
L 657.093746 -508.529745 
L 654.458322 -508.550494 
L 651.772697 -508.550494 
L 649.03492 -508.550494 
L 646.242927 -508.550494 
L 643.394525 -508.558802 
L 640.48739 -508.558802 
L 637.519047 -508.558802 
L 634.486864 -508.558802 
L 631.388035 -508.558802 
L 628.219563 -508.570788 
L 624.978246 -508.570788 
L 621.660656 -508.570788 
L 618.263116 -508.570788 
L 614.781678 -508.570788 
L 611.212093 -508.569169 
L 607.549782 -508.557877 
L 603.789797 -508.557877 
L 599.926786 -508.557877 
L 595.954944 -508.557877 
L 591.86796 -508.489225 
L 587.658959 -508.486402 
L 583.32043 -508.486402 
L 578.844147 -508.486402 
L 574.221075 -508.486402 
L 569.441259 -508.486402 
L 564.493696 -508.486402 
L 559.366183 -508.485295 
L 554.045134 -508.432421 
L 548.515363 -508.419039 
L 542.759827 -508.419039 
L 536.759301 -508.419039 
L 530.491999 -508.314459 
L 523.933093 -508.314459 
L 517.054115 -508.304452 
L 509.822219 -508.304452 
L 502.199223 -508.304452 
L 494.140397 -508.304452 
L 485.592867 -508.300796 
L 476.493512 -508.300879 
L 466.766133 -508.300879 
L 456.31757 -508.479282 
L 445.032263 -508.479282 
L 432.764436 -508.479282 
L 419.326552 -508.524182 
L 404.47166 -508.683771 
L 387.865303 -508.260317 
L 369.038569 -508.278044 
L 347.3047 -504.48552 
L 321.598988 -500.977203 
L 290.13774 -501.675977 
L 249.577137 -501.108936 
L 192.410177 -485.561373 
L 94.682614 -470.244442 
z
" style="stroke: #666666; stroke-opacity: 0.1"/>
    </defs>
    <g clip-path="url(#pab9a195920)">
     <use xlink:href="#m5940de5b52" x="0" y="559.20125" style="fill: #666666; fill-opacity: 0.1; stroke: #666666; stroke-opacity: 0.1"/>
    </g>
   </g>
   <g id="matplotlib.axis_1">
    <g id="xtick_1">
     <g id="line2d_1">
      <path d="M 94.682614 506.16 
L 94.682614 7.2 
" clip-path="url(#pab9a195920)" style="fill: none; stroke-dasharray: 1.85,0.8; stroke-dashoffset: 0; stroke: #b0b0b0; stroke-width: 0.5"/>
     </g>
     <g id="line2d_2">
      <defs>
       <path id="mde21ea8058" d="M 0 0 
L 0 3.5 
" style="stroke: #000000; stroke-width: 0.8"/>
      </defs>
      <g>
       <use xlink:href="#mde21ea8058" x="94.682614" y="506.16" style="stroke: #000000; stroke-width: 0.8"/>
      </g>
     </g>
     <g id="text_1">
      <!-- $\mathdefault{10^{0}}$ -->
      <g transform="translate(78.842614 526.837188) scale(0.18 -0.18)">
       <defs>
        <path id="DejaVuSans-31" d="M 794 531 
L 1825 531 
L 1825 4091 
L 703 3866 
L 703 4441 
L 1819 4666 
L 2450 4666 
L 2450 531 
L 3481 531 
L 3481 0 
L 794 0 
L 794 531 
z
" transform="scale(0.015625)"/>
        <path id="DejaVuSans-30" d="M 2034 4250 
Q 1547 4250 1301 3770 
Q 1056 3291 1056 2328 
Q 1056 1369 1301 889 
Q 1547 409 2034 409 
Q 2525 409 2770 889 
Q 3016 1369 3016 2328 
Q 3016 3291 2770 3770 
Q 2525 4250 2034 4250 
z
M 2034 4750 
Q 2819 4750 3233 4129 
Q 3647 3509 3647 2328 
Q 3647 1150 3233 529 
Q 2819 -91 2034 -91 
Q 1250 -91 836 529 
Q 422 1150 422 2328 
Q 422 3509 836 4129 
Q 1250 4750 2034 4750 
z
" transform="scale(0.015625)"/>
       </defs>
       <use xlink:href="#DejaVuSans-31" transform="translate(0 0.765625)"/>
       <use xlink:href="#DejaVuSans-30" transform="translate(63.623047 0.765625)"/>
       <use xlink:href="#DejaVuSans-30" transform="translate(128.203125 39.046875) scale(0.7)"/>
      </g>
     </g>
    </g>
    <g id="xtick_2">
     <g id="line2d_3">
      <path d="M 419.326552 506.16 
L 419.326552 7.2 
" clip-path="url(#pab9a195920)" style="fill: none; stroke-dasharray: 1.85,0.8; stroke-dashoffset: 0; stroke: #b0b0b0; stroke-width: 0.5"/>
     </g>
     <g id="line2d_4">
      <g>
       <use xlink:href="#mde21ea8058" x="419.326552" y="506.16" style="stroke: #000000; stroke-width: 0.8"/>
      </g>
     </g>
     <g id="text_2">
      <!-- $\mathdefault{10^{1}}$ -->
      <g transform="translate(403.486552 526.837188) scale(0.18 -0.18)">
       <use xlink:href="#DejaVuSans-31" transform="translate(0 0.684375)"/>
       <use xlink:href="#DejaVuSans-30" transform="translate(63.623047 0.684375)"/>
       <use xlink:href="#DejaVuSans-31" transform="translate(128.203125 38.965625) scale(0.7)"/>
      </g>
     </g>
    </g>
    <g id="xtick_3">
     <g id="line2d_5">
      <defs>
       <path id="mdc0ee2ce63" d="M 0 0 
L 0 2 
" style="stroke: #000000; stroke-width: 0.6"/>
      </defs>
      <g>
       <use xlink:href="#mdc0ee2ce63" x="79.827722" y="506.16" style="stroke: #000000; stroke-width: 0.6"/>
      </g>
     </g>
    </g>
    <g id="xtick_4">
     <g id="line2d_6">
      <g>
       <use xlink:href="#mdc0ee2ce63" x="192.410177" y="506.16" style="stroke: #000000; stroke-width: 0.6"/>
      </g>
     </g>
    </g>
    <g id="xtick_5">
     <g id="line2d_7">
      <g>
       <use xlink:href="#mdc0ee2ce63" x="249.577137" y="506.16" style="stroke: #000000; stroke-width: 0.6"/>
      </g>
     </g>
    </g>
    <g id="xtick_6">
     <g id="line2d_8">
      <g>
       <use xlink:href="#mdc0ee2ce63" x="290.13774" y="506.16" style="stroke: #000000; stroke-width: 0.6"/>
      </g>
     </g>
    </g>
    <g id="xtick_7">
     <g id="line2d_9">
      <g>
       <use xlink:href="#mdc0ee2ce63" x="321.598988" y="506.16" style="stroke: #000000; stroke-width: 0.6"/>
      </g>
     </g>
    </g>
    <g id="xtick_8">
     <g id="line2d_10">
      <g>
       <use xlink:href="#mdc0ee2ce63" x="347.3047" y="506.16" style="stroke: #000000; stroke-width: 0.6"/>
      </g>
     </g>
    </g>
    <g id="xtick_9">
     <g id="line2d_11">
      <g>
       <use xlink:href="#mdc0ee2ce63" x="369.038569" y="506.16" style="stroke: #000000; stroke-width: 0.6"/>
      </g>
     </g>
    </g>
    <g id="xtick_10">
     <g id="line2d_12">
      <g>
       <use xlink:href="#mdc0ee2ce63" x="387.865303" y="506.16" style="stroke: #000000; stroke-width: 0.6"/>
      </g>
     </g>
    </g>
    <g id="xtick_11">
     <g id="line2d_13">
      <g>
       <use xlink:href="#mdc0ee2ce63" x="404.47166" y="506.16" style="stroke: #000000; stroke-width: 0.6"/>
      </g>
     </g>
    </g>
    <g id="xtick_12">
     <g id="line2d_14">
      <g>
       <use xlink:href="#mdc0ee2ce63" x="517.054115" y="506.16" style="stroke: #000000; stroke-width: 0.6"/>
      </g>
     </g>
    </g>
    <g id="xtick_13">
     <g id="line2d_15">
      <g>
       <use xlink:href="#mdc0ee2ce63" x="574.221075" y="506.16" style="stroke: #000000; stroke-width: 0.6"/>
      </g>
     </g>
    </g>
    <g id="xtick_14">
     <g id="line2d_16">
      <g>
       <use xlink:href="#mdc0ee2ce63" x="614.781678" y="506.16" style="stroke: #000000; stroke-width: 0.6"/>
      </g>
     </g>
    </g>
    <g id="xtick_15">
     <g id="line2d_17">
      <g>
       <use xlink:href="#mdc0ee2ce63" x="646.242927" y="506.16" style="stroke: #000000; stroke-width: 0.6"/>
      </g>
     </g>
    </g>
    <g id="xtick_16">
     <g id="line2d_18">
      <g>
       <use xlink:href="#mdc0ee2ce63" x="671.948638" y="506.16" style="stroke: #000000; stroke-width: 0.6"/>
      </g>
     </g>
    </g>
    <g id="xtick_17">
     <g id="line2d_19">
      <g>
       <use xlink:href="#mdc0ee2ce63" x="693.682508" y="506.16" style="stroke: #000000; stroke-width: 0.6"/>
      </g>
     </g>
    </g>
    <g id="xtick_18">
     <g id="line2d_20">
      <g>
       <use xlink:href="#mdc0ee2ce63" x="712.509242" y="506.16" style="stroke: #000000; stroke-width: 0.6"/>
      </g>
     </g>
    </g>
    <g id="xtick_19">
     <g id="line2d_21">
      <g>
       <use xlink:href="#mdc0ee2ce63" x="729.115598" y="506.16" style="stroke: #000000; stroke-width: 0.6"/>
      </g>
     </g>
    </g>
    <g id="text_3">
     <!-- Decision Round -->
     <g transform="translate(329.393281 548.257813) scale(0.18 -0.18)">
      <defs>
       <path id="DejaVuSans-44" d="M 1259 4147 
L 1259 519 
L 2022 519 
Q 2988 519 3436 956 
Q 3884 1394 3884 2338 
Q 3884 3275 3436 3711 
Q 2988 4147 2022 4147 
L 1259 4147 
z
M 628 4666 
L 1925 4666 
Q 3281 4666 3915 4102 
Q 4550 3538 4550 2338 
Q 4550 1131 3912 565 
Q 3275 0 1925 0 
L 628 0 
L 628 4666 
z
" transform="scale(0.015625)"/>
       <path id="DejaVuSans-65" d="M 3597 1894 
L 3597 1613 
L 953 1613 
Q 991 1019 1311 708 
Q 1631 397 2203 397 
Q 2534 397 2845 478 
Q 3156 559 3463 722 
L 3463 178 
Q 3153 47 2828 -22 
Q 2503 -91 2169 -91 
Q 1331 -91 842 396 
Q 353 884 353 1716 
Q 353 2575 817 3079 
Q 1281 3584 2069 3584 
Q 2775 3584 3186 3129 
Q 3597 2675 3597 1894 
z
M 3022 2063 
Q 3016 2534 2758 2815 
Q 2500 3097 2075 3097 
Q 1594 3097 1305 2825 
Q 1016 2553 972 2059 
L 3022 2063 
z
" transform="scale(0.015625)"/>
       <path id="DejaVuSans-63" d="M 3122 3366 
L 3122 2828 
Q 2878 2963 2633 3030 
Q 2388 3097 2138 3097 
Q 1578 3097 1268 2742 
Q 959 2388 959 1747 
Q 959 1106 1268 751 
Q 1578 397 2138 397 
Q 2388 397 2633 464 
Q 2878 531 3122 666 
L 3122 134 
Q 2881 22 2623 -34 
Q 2366 -91 2075 -91 
Q 1284 -91 818 406 
Q 353 903 353 1747 
Q 353 2603 823 3093 
Q 1294 3584 2113 3584 
Q 2378 3584 2631 3529 
Q 2884 3475 3122 3366 
z
" transform="scale(0.015625)"/>
       <path id="DejaVuSans-69" d="M 603 3500 
L 1178 3500 
L 1178 0 
L 603 0 
L 603 3500 
z
M 603 4863 
L 1178 4863 
L 1178 4134 
L 603 4134 
L 603 4863 
z
" transform="scale(0.015625)"/>
       <path id="DejaVuSans-73" d="M 2834 3397 
L 2834 2853 
Q 2591 2978 2328 3040 
Q 2066 3103 1784 3103 
Q 1356 3103 1142 2972 
Q 928 2841 928 2578 
Q 928 2378 1081 2264 
Q 1234 2150 1697 2047 
L 1894 2003 
Q 2506 1872 2764 1633 
Q 3022 1394 3022 966 
Q 3022 478 2636 193 
Q 2250 -91 1575 -91 
Q 1294 -91 989 -36 
Q 684 19 347 128 
L 347 722 
Q 666 556 975 473 
Q 1284 391 1588 391 
Q 1994 391 2212 530 
Q 2431 669 2431 922 
Q 2431 1156 2273 1281 
Q 2116 1406 1581 1522 
L 1381 1569 
Q 847 1681 609 1914 
Q 372 2147 372 2553 
Q 372 3047 722 3315 
Q 1072 3584 1716 3584 
Q 2034 3584 2315 3537 
Q 2597 3491 2834 3397 
z
" transform="scale(0.015625)"/>
       <path id="DejaVuSans-6f" d="M 1959 3097 
Q 1497 3097 1228 2736 
Q 959 2375 959 1747 
Q 959 1119 1226 758 
Q 1494 397 1959 397 
Q 2419 397 2687 759 
Q 2956 1122 2956 1747 
Q 2956 2369 2687 2733 
Q 2419 3097 1959 3097 
z
M 1959 3584 
Q 2709 3584 3137 3096 
Q 3566 2609 3566 1747 
Q 3566 888 3137 398 
Q 2709 -91 1959 -91 
Q 1206 -91 779 398 
Q 353 888 353 1747 
Q 353 2609 779 3096 
Q 1206 3584 1959 3584 
z
" transform="scale(0.015625)"/>
       <path id="DejaVuSans-6e" d="M 3513 2113 
L 3513 0 
L 2938 0 
L 2938 2094 
Q 2938 2591 2744 2837 
Q 2550 3084 2163 3084 
Q 1697 3084 1428 2787 
Q 1159 2491 1159 1978 
L 1159 0 
L 581 0 
L 581 3500 
L 1159 3500 
L 1159 2956 
Q 1366 3272 1645 3428 
Q 1925 3584 2291 3584 
Q 2894 3584 3203 3211 
Q 3513 2838 3513 2113 
z
" transform="scale(0.015625)"/>
       <path id="DejaVuSans-20" transform="scale(0.015625)"/>
       <path id="DejaVuSans-52" d="M 2841 2188 
Q 3044 2119 3236 1894 
Q 3428 1669 3622 1275 
L 4263 0 
L 3584 0 
L 2988 1197 
Q 2756 1666 2539 1819 
Q 2322 1972 1947 1972 
L 1259 1972 
L 1259 0 
L 628 0 
L 628 4666 
L 2053 4666 
Q 2853 4666 3247 4331 
Q 3641 3997 3641 3322 
Q 3641 2881 3436 2590 
Q 3231 2300 2841 2188 
z
M 1259 4147 
L 1259 2491 
L 2053 2491 
Q 2509 2491 2742 2702 
Q 2975 2913 2975 3322 
Q 2975 3731 2742 3939 
Q 2509 4147 2053 4147 
L 1259 4147 
z
" transform="scale(0.015625)"/>
       <path id="DejaVuSans-75" d="M 544 1381 
L 544 3500 
L 1119 3500 
L 1119 1403 
Q 1119 906 1312 657 
Q 1506 409 1894 409 
Q 2359 409 2629 706 
Q 2900 1003 2900 1516 
L 2900 3500 
L 3475 3500 
L 3475 0 
L 2900 0 
L 2900 538 
Q 2691 219 2414 64 
Q 2138 -91 1772 -91 
Q 1169 -91 856 284 
Q 544 659 544 1381 
z
M 1991 3584 
L 1991 3584 
z
" transform="scale(0.015625)"/>
       <path id="DejaVuSans-64" d="M 2906 2969 
L 2906 4863 
L 3481 4863 
L 3481 0 
L 2906 0 
L 2906 525 
Q 2725 213 2448 61 
Q 2172 -91 1784 -91 
Q 1150 -91 751 415 
Q 353 922 353 1747 
Q 353 2572 751 3078 
Q 1150 3584 1784 3584 
Q 2172 3584 2448 3432 
Q 2725 3281 2906 2969 
z
M 947 1747 
Q 947 1113 1208 752 
Q 1469 391 1925 391 
Q 2381 391 2643 752 
Q 2906 1113 2906 1747 
Q 2906 2381 2643 2742 
Q 2381 3103 1925 3103 
Q 1469 3103 1208 2742 
Q 947 2381 947 1747 
z
" transform="scale(0.015625)"/>
      </defs>
      <use xlink:href="#DejaVuSans-44"/>
      <use xlink:href="#DejaVuSans-65" x="77.001953"/>
      <use xlink:href="#DejaVuSans-63" x="138.525391"/>
      <use xlink:href="#DejaVuSans-69" x="193.505859"/>
      <use xlink:href="#DejaVuSans-73" x="221.289062"/>
      <use xlink:href="#DejaVuSans-69" x="273.388672"/>
      <use xlink:href="#DejaVuSans-6f" x="301.171875"/>
      <use xlink:href="#DejaVuSans-6e" x="362.353516"/>
      <use xlink:href="#DejaVuSans-20" x="425.732422"/>
      <use xlink:href="#DejaVuSans-52" x="457.519531"/>
      <use xlink:href="#DejaVuSans-6f" x="522.501953"/>
      <use xlink:href="#DejaVuSans-75" x="583.683594"/>
      <use xlink:href="#DejaVuSans-6e" x="647.0625"/>
      <use xlink:href="#DejaVuSans-64" x="710.441406"/>
     </g>
    </g>
   </g>
   <g id="matplotlib.axis_2">
    <g id="ytick_1">
     <g id="line2d_22">
      <path d="M 64.24625 471.628786 
L 733.84625 471.628786 
" clip-path="url(#pab9a195920)" style="fill: none; stroke-dasharray: 1.85,0.8; stroke-dashoffset: 0; stroke: #b0b0b0; stroke-width: 0.5"/>
     </g>
     <g id="line2d_23">
      <defs>
       <path id="m4c99cd1ba8" d="M 0 0 
L -3.5 0 
" style="stroke: #000000; stroke-width: 0.8"/>
      </defs>
      <g>
       <use xlink:href="#m4c99cd1ba8" x="64.24625" y="471.628786" style="stroke: #000000; stroke-width: 0.8"/>
      </g>
     </g>
     <g id="text_4">
      <!-- 0.1 -->
      <g transform="translate(28.620625 478.467379) scale(0.18 -0.18)">
       <defs>
        <path id="DejaVuSans-2e" d="M 684 794 
L 1344 794 
L 1344 0 
L 684 0 
L 684 794 
z
" transform="scale(0.015625)"/>
       </defs>
       <use xlink:href="#DejaVuSans-30"/>
       <use xlink:href="#DejaVuSans-2e" x="63.623047"/>
       <use xlink:href="#DejaVuSans-31" x="95.410156"/>
      </g>
     </g>
    </g>
    <g id="ytick_2">
     <g id="line2d_24">
      <path d="M 64.24625 391.147333 
L 733.84625 391.147333 
" clip-path="url(#pab9a195920)" style="fill: none; stroke-dasharray: 1.85,0.8; stroke-dashoffset: 0; stroke: #b0b0b0; stroke-width: 0.5"/>
     </g>
     <g id="line2d_25">
      <g>
       <use xlink:href="#m4c99cd1ba8" x="64.24625" y="391.147333" style="stroke: #000000; stroke-width: 0.8"/>
      </g>
     </g>
     <g id="text_5">
      <!-- 0.2 -->
      <g transform="translate(28.620625 397.985927) scale(0.18 -0.18)">
       <defs>
        <path id="DejaVuSans-32" d="M 1228 531 
L 3431 531 
L 3431 0 
L 469 0 
L 469 531 
Q 828 903 1448 1529 
Q 2069 2156 2228 2338 
Q 2531 2678 2651 2914 
Q 2772 3150 2772 3378 
Q 2772 3750 2511 3984 
Q 2250 4219 1831 4219 
Q 1534 4219 1204 4116 
Q 875 4013 500 3803 
L 500 4441 
Q 881 4594 1212 4672 
Q 1544 4750 1819 4750 
Q 2544 4750 2975 4387 
Q 3406 4025 3406 3419 
Q 3406 3131 3298 2873 
Q 3191 2616 2906 2266 
Q 2828 2175 2409 1742 
Q 1991 1309 1228 531 
z
" transform="scale(0.015625)"/>
       </defs>
       <use xlink:href="#DejaVuSans-30"/>
       <use xlink:href="#DejaVuSans-2e" x="63.623047"/>
       <use xlink:href="#DejaVuSans-32" x="95.410156"/>
      </g>
     </g>
    </g>
    <g id="ytick_3">
     <g id="line2d_26">
      <path d="M 64.24625 310.665881 
L 733.84625 310.665881 
" clip-path="url(#pab9a195920)" style="fill: none; stroke-dasharray: 1.85,0.8; stroke-dashoffset: 0; stroke: #b0b0b0; stroke-width: 0.5"/>
     </g>
     <g id="line2d_27">
      <g>
       <use xlink:href="#m4c99cd1ba8" x="64.24625" y="310.665881" style="stroke: #000000; stroke-width: 0.8"/>
      </g>
     </g>
     <g id="text_6">
      <!-- 0.3 -->
      <g transform="translate(28.620625 317.504475) scale(0.18 -0.18)">
       <defs>
        <path id="DejaVuSans-33" d="M 2597 2516 
Q 3050 2419 3304 2112 
Q 3559 1806 3559 1356 
Q 3559 666 3084 287 
Q 2609 -91 1734 -91 
Q 1441 -91 1130 -33 
Q 819 25 488 141 
L 488 750 
Q 750 597 1062 519 
Q 1375 441 1716 441 
Q 2309 441 2620 675 
Q 2931 909 2931 1356 
Q 2931 1769 2642 2001 
Q 2353 2234 1838 2234 
L 1294 2234 
L 1294 2753 
L 1863 2753 
Q 2328 2753 2575 2939 
Q 2822 3125 2822 3475 
Q 2822 3834 2567 4026 
Q 2313 4219 1838 4219 
Q 1578 4219 1281 4162 
Q 984 4106 628 3988 
L 628 4550 
Q 988 4650 1302 4700 
Q 1616 4750 1894 4750 
Q 2613 4750 3031 4423 
Q 3450 4097 3450 3541 
Q 3450 3153 3228 2886 
Q 3006 2619 2597 2516 
z
" transform="scale(0.015625)"/>
       </defs>
       <use xlink:href="#DejaVuSans-30"/>
       <use xlink:href="#DejaVuSans-2e" x="63.623047"/>
       <use xlink:href="#DejaVuSans-33" x="95.410156"/>
      </g>
     </g>
    </g>
    <g id="ytick_4">
     <g id="line2d_28">
      <path d="M 64.24625 230.184429 
L 733.84625 230.184429 
" clip-path="url(#pab9a195920)" style="fill: none; stroke-dasharray: 1.85,0.8; stroke-dashoffset: 0; stroke: #b0b0b0; stroke-width: 0.5"/>
     </g>
     <g id="line2d_29">
      <g>
       <use xlink:href="#m4c99cd1ba8" x="64.24625" y="230.184429" style="stroke: #000000; stroke-width: 0.8"/>
      </g>
     </g>
     <g id="text_7">
      <!-- 0.4 -->
      <g transform="translate(28.620625 237.023022) scale(0.18 -0.18)">
       <defs>
        <path id="DejaVuSans-34" d="M 2419 4116 
L 825 1625 
L 2419 1625 
L 2419 4116 
z
M 2253 4666 
L 3047 4666 
L 3047 1625 
L 3713 1625 
L 3713 1100 
L 3047 1100 
L 3047 0 
L 2419 0 
L 2419 1100 
L 313 1100 
L 313 1709 
L 2253 4666 
z
" transform="scale(0.015625)"/>
       </defs>
       <use xlink:href="#DejaVuSans-30"/>
       <use xlink:href="#DejaVuSans-2e" x="63.623047"/>
       <use xlink:href="#DejaVuSans-34" x="95.410156"/>
      </g>
     </g>
    </g>
    <g id="ytick_5">
     <g id="line2d_30">
      <path d="M 64.24625 149.702976 
L 733.84625 149.702976 
" clip-path="url(#pab9a195920)" style="fill: none; stroke-dasharray: 1.85,0.8; stroke-dashoffset: 0; stroke: #b0b0b0; stroke-width: 0.5"/>
     </g>
     <g id="line2d_31">
      <g>
       <use xlink:href="#m4c99cd1ba8" x="64.24625" y="149.702976" style="stroke: #000000; stroke-width: 0.8"/>
      </g>
     </g>
     <g id="text_8">
      <!-- 0.5 -->
      <g transform="translate(28.620625 156.54157) scale(0.18 -0.18)">
       <defs>
        <path id="DejaVuSans-35" d="M 691 4666 
L 3169 4666 
L 3169 4134 
L 1269 4134 
L 1269 2991 
Q 1406 3038 1543 3061 
Q 1681 3084 1819 3084 
Q 2600 3084 3056 2656 
Q 3513 2228 3513 1497 
Q 3513 744 3044 326 
Q 2575 -91 1722 -91 
Q 1428 -91 1123 -41 
Q 819 9 494 109 
L 494 744 
Q 775 591 1075 516 
Q 1375 441 1709 441 
Q 2250 441 2565 725 
Q 2881 1009 2881 1497 
Q 2881 1984 2565 2268 
Q 2250 2553 1709 2553 
Q 1456 2553 1204 2497 
Q 953 2441 691 2322 
L 691 4666 
z
" transform="scale(0.015625)"/>
       </defs>
       <use xlink:href="#DejaVuSans-30"/>
       <use xlink:href="#DejaVuSans-2e" x="63.623047"/>
       <use xlink:href="#DejaVuSans-35" x="95.410156"/>
      </g>
     </g>
    </g>
    <g id="ytick_6">
     <g id="line2d_32">
      <path d="M 64.24625 69.221524 
L 733.84625 69.221524 
" clip-path="url(#pab9a195920)" style="fill: none; stroke-dasharray: 1.85,0.8; stroke-dashoffset: 0; stroke: #b0b0b0; stroke-width: 0.5"/>
     </g>
     <g id="line2d_33">
      <g>
       <use xlink:href="#m4c99cd1ba8" x="64.24625" y="69.221524" style="stroke: #000000; stroke-width: 0.8"/>
      </g>
     </g>
     <g id="text_9">
      <!-- 0.6 -->
      <g transform="translate(28.620625 76.060118) scale(0.18 -0.18)">
       <defs>
        <path id="DejaVuSans-36" d="M 2113 2584 
Q 1688 2584 1439 2293 
Q 1191 2003 1191 1497 
Q 1191 994 1439 701 
Q 1688 409 2113 409 
Q 2538 409 2786 701 
Q 3034 994 3034 1497 
Q 3034 2003 2786 2293 
Q 2538 2584 2113 2584 
z
M 3366 4563 
L 3366 3988 
Q 3128 4100 2886 4159 
Q 2644 4219 2406 4219 
Q 1781 4219 1451 3797 
Q 1122 3375 1075 2522 
Q 1259 2794 1537 2939 
Q 1816 3084 2150 3084 
Q 2853 3084 3261 2657 
Q 3669 2231 3669 1497 
Q 3669 778 3244 343 
Q 2819 -91 2113 -91 
Q 1303 -91 875 529 
Q 447 1150 447 2328 
Q 447 3434 972 4092 
Q 1497 4750 2381 4750 
Q 2619 4750 2861 4703 
Q 3103 4656 3366 4563 
z
" transform="scale(0.015625)"/>
       </defs>
       <use xlink:href="#DejaVuSans-30"/>
       <use xlink:href="#DejaVuSans-2e" x="63.623047"/>
       <use xlink:href="#DejaVuSans-36" x="95.410156"/>
      </g>
     </g>
    </g>
    <g id="text_10">
     <!-- Normalized Performance -->
     <g transform="translate(20.877187 367.607813) rotate(-90) scale(0.18 -0.18)">
      <defs>
       <path id="DejaVuSans-4e" d="M 628 4666 
L 1478 4666 
L 3547 763 
L 3547 4666 
L 4159 4666 
L 4159 0 
L 3309 0 
L 1241 3903 
L 1241 0 
L 628 0 
L 628 4666 
z
" transform="scale(0.015625)"/>
       <path id="DejaVuSans-72" d="M 2631 2963 
Q 2534 3019 2420 3045 
Q 2306 3072 2169 3072 
Q 1681 3072 1420 2755 
Q 1159 2438 1159 1844 
L 1159 0 
L 581 0 
L 581 3500 
L 1159 3500 
L 1159 2956 
Q 1341 3275 1631 3429 
Q 1922 3584 2338 3584 
Q 2397 3584 2469 3576 
Q 2541 3569 2628 3553 
L 2631 2963 
z
" transform="scale(0.015625)"/>
       <path id="DejaVuSans-6d" d="M 3328 2828 
Q 3544 3216 3844 3400 
Q 4144 3584 4550 3584 
Q 5097 3584 5394 3201 
Q 5691 2819 5691 2113 
L 5691 0 
L 5113 0 
L 5113 2094 
Q 5113 2597 4934 2840 
Q 4756 3084 4391 3084 
Q 3944 3084 3684 2787 
Q 3425 2491 3425 1978 
L 3425 0 
L 2847 0 
L 2847 2094 
Q 2847 2600 2669 2842 
Q 2491 3084 2119 3084 
Q 1678 3084 1418 2786 
Q 1159 2488 1159 1978 
L 1159 0 
L 581 0 
L 581 3500 
L 1159 3500 
L 1159 2956 
Q 1356 3278 1631 3431 
Q 1906 3584 2284 3584 
Q 2666 3584 2933 3390 
Q 3200 3197 3328 2828 
z
" transform="scale(0.015625)"/>
       <path id="DejaVuSans-61" d="M 2194 1759 
Q 1497 1759 1228 1600 
Q 959 1441 959 1056 
Q 959 750 1161 570 
Q 1363 391 1709 391 
Q 2188 391 2477 730 
Q 2766 1069 2766 1631 
L 2766 1759 
L 2194 1759 
z
M 3341 1997 
L 3341 0 
L 2766 0 
L 2766 531 
Q 2569 213 2275 61 
Q 1981 -91 1556 -91 
Q 1019 -91 701 211 
Q 384 513 384 1019 
Q 384 1609 779 1909 
Q 1175 2209 1959 2209 
L 2766 2209 
L 2766 2266 
Q 2766 2663 2505 2880 
Q 2244 3097 1772 3097 
Q 1472 3097 1187 3025 
Q 903 2953 641 2809 
L 641 3341 
Q 956 3463 1253 3523 
Q 1550 3584 1831 3584 
Q 2591 3584 2966 3190 
Q 3341 2797 3341 1997 
z
" transform="scale(0.015625)"/>
       <path id="DejaVuSans-6c" d="M 603 4863 
L 1178 4863 
L 1178 0 
L 603 0 
L 603 4863 
z
" transform="scale(0.015625)"/>
       <path id="DejaVuSans-7a" d="M 353 3500 
L 3084 3500 
L 3084 2975 
L 922 459 
L 3084 459 
L 3084 0 
L 275 0 
L 275 525 
L 2438 3041 
L 353 3041 
L 353 3500 
z
" transform="scale(0.015625)"/>
       <path id="DejaVuSans-50" d="M 1259 4147 
L 1259 2394 
L 2053 2394 
Q 2494 2394 2734 2622 
Q 2975 2850 2975 3272 
Q 2975 3691 2734 3919 
Q 2494 4147 2053 4147 
L 1259 4147 
z
M 628 4666 
L 2053 4666 
Q 2838 4666 3239 4311 
Q 3641 3956 3641 3272 
Q 3641 2581 3239 2228 
Q 2838 1875 2053 1875 
L 1259 1875 
L 1259 0 
L 628 0 
L 628 4666 
z
" transform="scale(0.015625)"/>
       <path id="DejaVuSans-66" d="M 2375 4863 
L 2375 4384 
L 1825 4384 
Q 1516 4384 1395 4259 
Q 1275 4134 1275 3809 
L 1275 3500 
L 2222 3500 
L 2222 3053 
L 1275 3053 
L 1275 0 
L 697 0 
L 697 3053 
L 147 3053 
L 147 3500 
L 697 3500 
L 697 3744 
Q 697 4328 969 4595 
Q 1241 4863 1831 4863 
L 2375 4863 
z
" transform="scale(0.015625)"/>
      </defs>
      <use xlink:href="#DejaVuSans-4e"/>
      <use xlink:href="#DejaVuSans-6f" x="74.804688"/>
      <use xlink:href="#DejaVuSans-72" x="135.986328"/>
      <use xlink:href="#DejaVuSans-6d" x="175.349609"/>
      <use xlink:href="#DejaVuSans-61" x="272.761719"/>
      <use xlink:href="#DejaVuSans-6c" x="334.041016"/>
      <use xlink:href="#DejaVuSans-69" x="361.824219"/>
      <use xlink:href="#DejaVuSans-7a" x="389.607422"/>
      <use xlink:href="#DejaVuSans-65" x="442.097656"/>
      <use xlink:href="#DejaVuSans-64" x="503.621094"/>
      <use xlink:href="#DejaVuSans-20" x="567.097656"/>
      <use xlink:href="#DejaVuSans-50" x="598.884766"/>
      <use xlink:href="#DejaVuSans-65" x="655.5625"/>
      <use xlink:href="#DejaVuSans-72" x="717.085938"/>
      <use xlink:href="#DejaVuSans-66" x="758.199219"/>
      <use xlink:href="#DejaVuSans-6f" x="793.404297"/>
      <use xlink:href="#DejaVuSans-72" x="854.585938"/>
      <use xlink:href="#DejaVuSans-6d" x="893.949219"/>
      <use xlink:href="#DejaVuSans-61" x="991.361328"/>
      <use xlink:href="#DejaVuSans-6e" x="1052.640625"/>
      <use xlink:href="#DejaVuSans-63" x="1116.019531"/>
      <use xlink:href="#DejaVuSans-65" x="1171"/>
     </g>
    </g>
   </g>
   <g id="line2d_34">
    <path d="M 94.682614 387.531979 
L 192.410177 387.531979 
L 249.577137 387.531979 
L 290.13774 387.531979 
L 321.598988 387.531979 
L 347.3047 387.531979 
L 369.038569 387.531979 
L 387.865303 387.531979 
L 404.47166 387.531979 
L 419.326552 387.531979 
L 432.764436 387.531979 
L 445.032263 387.531979 
L 456.31757 387.531979 
L 466.766133 387.531979 
L 476.493512 387.531979 
L 485.592867 387.531979 
L 494.140397 387.531979 
L 502.199223 387.531979 
L 509.822219 387.531979 
L 517.054115 387.531979 
L 523.933093 387.531979 
L 530.491999 387.531979 
L 536.759301 387.531979 
L 542.759827 387.531979 
L 548.515363 387.531979 
L 554.045134 387.531979 
L 559.366183 387.531979 
L 564.493696 387.531979 
L 569.441259 387.531979 
L 574.221075 387.531979 
L 578.844147 387.531979 
L 583.32043 387.531979 
L 587.658959 387.531979 
L 591.86796 387.531979 
L 595.954944 387.531979 
L 599.926786 387.531979 
L 603.789797 387.531979 
L 607.549782 387.531979 
L 611.212093 387.531979 
L 614.781678 387.531979 
L 618.263116 387.531979 
L 621.660656 387.531979 
L 624.978246 387.531979 
L 628.219563 387.531979 
L 631.388035 387.531979 
L 634.486864 387.531979 
L 637.519047 387.531979 
L 640.48739 387.531979 
L 643.394525 387.531979 
L 646.242927 387.531979 
L 649.03492 387.531979 
L 651.772697 387.531979 
L 654.458322 387.531979 
L 657.093746 387.531979 
L 659.680811 387.531979 
L 662.221259 387.531979 
L 664.716742 387.531979 
L 667.168822 387.531979 
L 669.578984 387.531979 
L 671.948638 387.531979 
L 674.279122 387.531979 
L 676.57171 387.531979 
L 678.827616 387.531979 
L 681.047993 387.531979 
L 683.233945 387.531979 
L 685.386522 387.531979 
L 687.506729 387.531979 
L 689.595524 387.531979 
L 691.653824 387.531979 
L 693.682508 387.531979 
L 695.682414 387.531979 
L 697.65435 387.531979 
L 699.599085 387.531979 
L 701.51736 387.531979 
L 703.409886 387.531979 
" clip-path="url(#pab9a195920)" style="fill: none; stroke-dasharray: 5.55,2.4; stroke-dashoffset: 0; stroke: #fdc086; stroke-width: 1.5"/>
   </g>
   <g id="line2d_35">
    <path d="M 94.682614 247.229086 
L 192.410177 247.229086 
L 249.577137 247.229086 
L 290.13774 247.229086 
L 321.598988 247.229086 
L 347.3047 247.229086 
L 369.038569 247.229086 
L 387.865303 247.229086 
L 404.47166 247.229086 
L 419.326552 247.229086 
L 432.764436 247.229086 
L 445.032263 247.229086 
L 456.31757 247.229086 
L 466.766133 247.229086 
L 476.493512 247.229086 
L 485.592867 247.229086 
L 494.140397 247.229086 
L 502.199223 247.229086 
L 509.822219 247.229086 
L 517.054115 247.229086 
L 523.933093 247.229086 
L 530.491999 247.229086 
L 536.759301 247.229086 
L 542.759827 247.229086 
L 548.515363 247.229086 
L 554.045134 247.229086 
L 559.366183 247.229086 
L 564.493696 247.229086 
L 569.441259 247.229086 
L 574.221075 247.229086 
L 578.844147 247.229086 
L 583.32043 247.229086 
L 587.658959 247.229086 
L 591.86796 247.229086 
L 595.954944 247.229086 
L 599.926786 247.229086 
L 603.789797 247.229086 
L 607.549782 247.229086 
L 611.212093 247.229086 
L 614.781678 247.229086 
L 618.263116 247.229086 
L 621.660656 247.229086 
L 624.978246 247.229086 
L 628.219563 247.229086 
L 631.388035 247.229086 
L 634.486864 247.229086 
L 637.519047 247.229086 
L 640.48739 247.229086 
L 643.394525 247.229086 
L 646.242927 247.229086 
L 649.03492 247.229086 
L 651.772697 247.229086 
L 654.458322 247.229086 
L 657.093746 247.229086 
L 659.680811 247.229086 
L 662.221259 247.229086 
L 664.716742 247.229086 
L 667.168822 247.229086 
L 669.578984 247.229086 
L 671.948638 247.229086 
L 674.279122 247.229086 
L 676.57171 247.229086 
L 678.827616 247.229086 
L 681.047993 247.229086 
L 683.233945 247.229086 
L 685.386522 247.229086 
L 687.506729 247.229086 
L 689.595524 247.229086 
L 691.653824 247.229086 
L 693.682508 247.229086 
L 695.682414 247.229086 
L 697.65435 247.229086 
L 699.599085 247.229086 
L 701.51736 247.229086 
L 703.409886 247.229086 
" clip-path="url(#pab9a195920)" style="fill: none; stroke-dasharray: 5.55,2.4; stroke-dashoffset: 0; stroke: #beaed4; stroke-width: 1.5"/>
   </g>
   <g id="line2d_36">
    <path d="M 94.682614 384.995797 
L 192.410177 337.460646 
L 249.577137 308.175811 
L 290.13774 285.884748 
L 321.598988 270.049972 
L 347.3047 255.674355 
L 369.038569 249.927449 
L 387.865303 242.262128 
L 404.47166 235.36955 
L 419.326552 231.334759 
L 432.764436 221.461866 
L 445.032263 215.390378 
L 456.31757 205.720658 
L 466.766133 203.060244 
L 476.493512 197.567742 
L 485.592867 191.807961 
L 494.140397 189.300647 
L 502.199223 185.25567 
L 509.822219 182.934247 
L 517.054115 181.33555 
L 523.933093 179.222358 
L 530.491999 174.820368 
L 536.759301 171.734896 
L 542.759827 169.951843 
L 548.515363 167.567047 
L 554.045134 165.779534 
L 559.366183 163.223022 
L 564.493696 161.565233 
L 569.441259 159.585921 
L 574.221075 155.750151 
L 578.844147 154.899828 
L 583.32043 153.490909 
L 587.658959 151.547043 
L 591.86796 149.885056 
L 595.954944 147.934105 
L 599.926786 145.297039 
L 603.789797 142.035875 
L 607.549782 141.776266 
L 611.212093 140.86934 
L 614.781678 139.525001 
L 618.263116 136.807294 
L 621.660656 134.717728 
L 624.978246 133.470707 
L 628.219563 133.022355 
L 631.388035 131.713217 
L 634.486864 130.557414 
L 637.519047 127.879193 
L 640.48739 127.510477 
L 643.394525 126.71018 
L 646.242927 125.64729 
L 649.03492 124.152911 
L 651.772697 122.928888 
L 654.458322 121.88966 
L 657.093746 120.347103 
L 659.680811 119.350894 
L 662.221259 118.935262 
L 664.716742 118.866593 
L 667.168822 118.788926 
L 669.578984 117.942481 
L 671.948638 117.043187 
L 674.279122 115.977811 
L 676.57171 114.010061 
L 678.827616 112.969841 
L 681.047993 111.781985 
L 683.233945 111.556592 
L 685.386522 109.155366 
L 687.506729 109.130252 
L 689.595524 107.515286 
L 691.653824 107.136722 
L 693.682508 106.096686 
L 695.682414 105.905116 
L 697.65435 105.663061 
L 699.599085 104.673409 
L 701.51736 102.454965 
L 703.409886 102.323547 
" clip-path="url(#pab9a195920)" style="fill: none; stroke: #7fc97f; stroke-width: 1.5; stroke-linecap: square"/>
   </g>
   <g id="line2d_37">
    <path d="M 94.682614 342.008721 
L 192.410177 338.37485 
L 249.577137 338.340301 
L 290.13774 291.702679 
L 321.598988 274.601854 
L 347.3047 264.114059 
L 369.038569 253.631341 
L 387.865303 249.160787 
L 404.47166 241.782402 
L 419.326552 237.082875 
L 432.764436 228.030306 
L 445.032263 219.749932 
L 456.31757 211.331223 
L 466.766133 206.523295 
L 476.493512 203.572467 
L 485.592867 195.987698 
L 494.140397 191.287277 
L 502.199223 186.636647 
L 509.822219 179.038515 
L 517.054115 170.084912 
L 523.933093 164.26444 
L 530.491999 158.449006 
L 536.759301 152.998297 
L 542.759827 146.074985 
L 548.515363 141.9894 
L 554.045134 140.623643 
L 559.366183 137.778184 
L 564.493696 131.265775 
L 569.441259 127.97682 
L 574.221075 123.409209 
L 578.844147 117.853184 
L 583.32043 114.121828 
L 587.658959 112.738111 
L 591.86796 107.817692 
L 595.954944 102.447488 
L 599.926786 101.666104 
L 603.789797 99.751812 
L 607.549782 98.010692 
L 611.212093 96.862298 
L 614.781678 94.54211 
L 618.263116 92.269029 
L 621.660656 90.181835 
L 624.978246 88.771074 
L 628.219563 87.849918 
L 631.388035 86.788981 
L 634.486864 84.612482 
L 637.519047 84.283153 
L 640.48739 83.234187 
L 643.394525 82.37968 
L 646.242927 82.079314 
L 649.03492 81.531491 
L 651.772697 80.063962 
L 654.458322 79.679578 
L 657.093746 79.117425 
L 659.680811 78.608882 
L 662.221259 78.036525 
L 664.716742 77.353207 
L 667.168822 76.77018 
L 669.578984 76.588511 
L 671.948638 75.714119 
L 674.279122 75.200332 
L 676.57171 74.865633 
L 678.827616 73.603053 
L 681.047993 73.265685 
L 683.233945 71.689512 
L 685.386522 71.566685 
L 687.506729 69.982017 
L 689.595524 68.924915 
L 691.653824 68.895467 
L 693.682508 68.824663 
L 695.682414 68.652048 
L 697.65435 68.422588 
L 699.599085 68.410972 
L 701.51736 67.955578 
L 703.409886 67.023039 
" clip-path="url(#pab9a195920)" style="fill: none; stroke: #bf5b17; stroke-width: 1.5; stroke-linecap: square"/>
   </g>
   <g id="line2d_38">
    <path d="M 94.682614 342.008721 
L 192.410177 324.717328 
L 249.577137 291.250505 
L 290.13774 290.965199 
L 321.598988 290.959454 
L 347.3047 290.949923 
L 369.038569 290.948184 
L 387.865303 276.975759 
L 404.47166 271.515515 
L 419.326552 271.515348 
L 432.764436 264.946237 
L 445.032263 262.426215 
L 456.31757 262.426215 
L 466.766133 262.425704 
L 476.493512 258.797664 
L 485.592867 234.774944 
L 494.140397 234.233219 
L 502.199223 234.233219 
L 509.822219 234.233219 
L 517.054115 234.233219 
L 523.933093 233.47305 
L 530.491999 233.47305 
L 536.759301 233.47305 
L 542.759827 178.397717 
L 548.515363 178.397717 
L 554.045134 178.08183 
L 559.366183 177.985637 
L 564.493696 176.803883 
L 569.441259 176.803883 
L 574.221075 175.254707 
L 578.844147 175.254707 
L 583.32043 174.91956 
L 587.658959 174.91956 
L 591.86796 173.963695 
L 595.954944 172.981415 
L 599.926786 171.289402 
L 603.789797 171.289402 
L 607.549782 171.289402 
L 611.212093 171.289402 
L 614.781678 171.241099 
L 618.263116 171.140911 
L 621.660656 171.07136 
L 624.978246 171.07136 
L 628.219563 171.07136 
L 631.388035 171.07136 
L 634.486864 171.07136 
L 637.519047 171.07136 
L 640.48739 159.547813 
L 643.394525 159.547813 
L 646.242927 159.547813 
L 649.03492 159.533736 
L 651.772697 159.533736 
L 654.458322 159.533736 
L 657.093746 159.533736 
L 659.680811 159.522701 
L 662.221259 158.229648 
L 664.716742 158.226099 
L 667.168822 158.226099 
L 669.578984 157.936896 
L 671.948638 157.393035 
L 674.279122 157.393035 
L 676.57171 157.393035 
L 678.827616 157.286348 
L 681.047993 156.820512 
L 683.233945 156.820512 
L 685.386522 156.680856 
L 687.506729 156.680856 
L 689.595524 156.307817 
L 691.653824 156.303866 
L 693.682508 156.303866 
L 695.682414 156.303866 
L 697.65435 156.303866 
L 699.599085 156.165218 
L 701.51736 156.128863 
L 703.409886 156.128863 
" clip-path="url(#pab9a195920)" style="fill: none; stroke: #f0027f; stroke-width: 1.5; stroke-linecap: square"/>
   </g>
   <g id="line2d_39">
    <path d="M 94.682614 342.008721 
L 192.410177 324.717328 
L 249.577137 291.250505 
L 290.13774 290.965199 
L 321.598988 290.959454 
L 347.3047 290.949923 
L 369.038569 290.933682 
L 387.865303 282.683073 
L 404.47166 275.207896 
L 419.326552 270.02687 
L 432.764436 260.913313 
L 445.032263 252.367163 
L 456.31757 247.96701 
L 466.766133 240.78969 
L 476.493512 235.353186 
L 485.592867 225.977357 
L 494.140397 218.6911 
L 502.199223 211.58277 
L 509.822219 204.305563 
L 517.054115 200.705993 
L 523.933093 194.634962 
L 530.491999 187.240757 
L 536.759301 181.066252 
L 542.759827 172.494786 
L 548.515363 167.736594 
L 554.045134 160.930004 
L 559.366183 156.451418 
L 564.493696 149.48178 
L 569.441259 143.795075 
L 574.221075 138.754666 
L 578.844147 133.987104 
L 583.32043 130.616164 
L 587.658959 128.318307 
L 591.86796 123.939463 
L 595.954944 121.806302 
L 599.926786 117.413225 
L 603.789797 115.204298 
L 607.549782 113.060405 
L 611.212093 111.494663 
L 614.781678 110.120963 
L 618.263116 108.422886 
L 621.660656 106.078413 
L 624.978246 105.37053 
L 628.219563 102.603232 
L 631.388035 100.314443 
L 634.486864 99.658498 
L 637.519047 98.888454 
L 640.48739 97.697781 
L 643.394525 96.558571 
L 646.242927 95.962631 
L 649.03492 94.77062 
L 651.772697 93.519418 
L 654.458322 92.60866 
L 657.093746 92.4132 
L 659.680811 91.87608 
L 662.221259 91.743995 
L 664.716742 91.548073 
L 667.168822 91.10943 
L 669.578984 90.937483 
L 671.948638 89.466778 
L 674.279122 88.746721 
L 676.57171 87.767298 
L 678.827616 87.610113 
L 681.047993 86.271575 
L 683.233945 86.234459 
L 685.386522 85.982888 
L 687.506729 85.871891 
L 689.595524 85.752799 
L 691.653824 84.960441 
L 693.682508 84.288332 
L 695.682414 83.014272 
L 697.65435 82.087331 
L 699.599085 81.657245 
L 701.51736 80.002942 
L 703.409886 79.032571 
" clip-path="url(#pab9a195920)" style="fill: none; stroke: #386cb0; stroke-width: 1.5; stroke-linecap: square"/>
   </g>
   <g id="line2d_40">
    <path d="M 94.682614 342.008721 
L 192.410177 324.717328 
L 249.577137 291.250505 
L 290.13774 290.965199 
L 321.598988 290.959454 
L 347.3047 290.949923 
L 369.038569 290.949521 
L 387.865303 278.971117 
L 404.47166 272.149203 
L 419.326552 270.812764 
L 432.764436 267.644258 
L 445.032263 263.084112 
L 456.31757 258.547004 
L 466.766133 256.399891 
L 476.493512 249.667938 
L 485.592867 236.007069 
L 494.140397 229.883706 
L 502.199223 222.487025 
L 509.822219 217.946517 
L 517.054115 212.471863 
L 523.933093 206.089607 
L 530.491999 202.835374 
L 536.759301 198.847163 
L 542.759827 193.490778 
L 548.515363 188.051298 
L 554.045134 179.68309 
L 559.366183 174.089822 
L 564.493696 170.094425 
L 569.441259 166.531379 
L 574.221075 159.679436 
L 578.844147 153.073451 
L 583.32043 149.343258 
L 587.658959 145.343813 
L 591.86796 140.356286 
L 595.954944 135.580304 
L 599.926786 131.101807 
L 603.789797 128.735878 
L 607.549782 126.795735 
L 611.212093 124.71557 
L 614.781678 123.412499 
L 618.263116 121.355598 
L 621.660656 118.913884 
L 624.978246 116.079464 
L 628.219563 114.628723 
L 631.388035 112.370542 
L 634.486864 109.280077 
L 637.519047 108.672243 
L 640.48739 107.979967 
L 643.394525 106.989344 
L 646.242927 106.037256 
L 649.03492 104.684317 
L 651.772697 102.568949 
L 654.458322 101.89357 
L 657.093746 99.908402 
L 659.680811 99.120025 
L 662.221259 97.814078 
L 664.716742 97.034727 
L 667.168822 96.610045 
L 669.578984 95.703477 
L 671.948638 95.165421 
L 674.279122 94.363611 
L 676.57171 92.879789 
L 678.827616 91.471373 
L 681.047993 91.023325 
L 683.233945 90.842097 
L 685.386522 90.761405 
L 687.506729 90.141253 
L 689.595524 89.254598 
L 691.653824 88.285892 
L 693.682508 87.461787 
L 695.682414 86.12476 
L 697.65435 85.935981 
L 699.599085 85.011021 
L 701.51736 84.69777 
L 703.409886 83.385879 
" clip-path="url(#pab9a195920)" style="fill: none; stroke: #ffff99; stroke-width: 1.5; stroke-linecap: square"/>
   </g>
   <g id="line2d_41">
    <path d="M 94.682614 151.089931 
L 192.410177 125.604772 
L 249.577137 99.350031 
L 290.13774 88.98046 
L 321.598988 81.054401 
L 347.3047 77.252958 
L 369.038569 73.122464 
L 387.865303 72.187932 
L 404.47166 71.321535 
L 419.326552 71.224331 
L 432.764436 71.195297 
L 445.032263 71.195297 
L 456.31757 71.195297 
L 466.766133 70.887239 
L 476.493512 70.887239 
L 485.592867 70.887162 
L 494.140397 70.883427 
L 502.199223 70.883427 
L 509.822219 70.883427 
L 517.054115 70.883427 
L 523.933093 70.874739 
L 530.491999 70.874739 
L 536.759301 70.741269 
L 542.759827 70.741269 
L 548.515363 70.741269 
L 554.045134 70.729627 
L 559.366183 70.662047 
L 564.493696 70.659739 
L 569.441259 70.659739 
L 574.221075 70.659739 
L 578.844147 70.659739 
L 583.32043 70.659739 
L 587.658959 70.659739 
L 591.86796 70.657647 
L 595.954944 70.56986 
L 599.926786 70.56986 
L 603.789797 70.56986 
L 607.549782 70.56986 
L 611.212093 70.550087 
L 614.781678 70.549356 
L 618.263116 70.549356 
L 621.660656 70.549356 
L 624.978246 70.549356 
L 628.219563 70.549356 
L 631.388035 70.483508 
L 634.486864 70.483508 
L 637.519047 70.483508 
L 640.48739 70.483508 
L 643.394525 70.483508 
L 646.242927 70.481158 
L 649.03492 70.481158 
L 651.772697 70.481158 
L 654.458322 70.481158 
L 657.093746 70.47113 
L 659.680811 70.47113 
L 662.221259 70.446522 
L 664.716742 70.441444 
L 667.168822 70.421658 
L 669.578984 70.421658 
L 671.948638 70.421658 
L 674.279122 70.421658 
L 676.57171 70.421525 
L 678.827616 70.421091 
L 681.047993 70.421091 
L 683.233945 70.421091 
L 685.386522 70.413907 
L 687.506729 70.413907 
L 689.595524 70.413907 
L 691.653824 70.412129 
L 693.682508 70.412129 
L 695.682414 70.412129 
L 697.65435 70.409953 
L 699.599085 70.409953 
L 701.51736 70.409953 
L 703.409886 70.409953 
" clip-path="url(#pab9a195920)" style="fill: none; stroke-dasharray: 5.55,2.4; stroke-dashoffset: 0; stroke: #666666; stroke-width: 1.5"/>
   </g>
   <g id="patch_3">
    <path d="M 64.24625 506.16 
L 64.24625 7.2 
" style="fill: none; stroke: #000000; stroke-width: 0.8; stroke-linejoin: miter; stroke-linecap: square"/>
   </g>
   <g id="patch_4">
    <path d="M 733.84625 506.16 
L 733.84625 7.2 
" style="fill: none; stroke: #000000; stroke-width: 0.8; stroke-linejoin: miter; stroke-linecap: square"/>
   </g>
   <g id="patch_5">
    <path d="M 64.24625 506.16 
L 733.84625 506.16 
" style="fill: none; stroke: #000000; stroke-width: 0.8; stroke-linejoin: miter; stroke-linecap: square"/>
   </g>
   <g id="patch_6">
    <path d="M 64.24625 7.2 
L 733.84625 7.2 
" style="fill: none; stroke: #000000; stroke-width: 0.8; stroke-linejoin: miter; stroke-linecap: square"/>
   </g>
   <g id="legend_1">
    <g id="patch_7">
     <path d="M 443.300938 497.16 
L 721.24625 497.16 
Q 724.84625 497.16 724.84625 493.56 
L 724.84625 283.995 
Q 724.84625 280.395 721.24625 280.395 
L 443.300938 280.395 
Q 439.700938 280.395 439.700938 283.995 
L 439.700938 493.56 
Q 439.700938 497.16 443.300938 497.16 
z
" style="fill: #ffffff; opacity: 0.8; stroke: #cccccc; stroke-linejoin: miter"/>
    </g>
    <g id="line2d_42">
     <path d="M 446.900937 294.972188 
L 464.900937 294.972188 
L 482.900937 294.972188 
" style="fill: none; stroke-dasharray: 5.55,2.4; stroke-dashoffset: 0; stroke: #fdc086; stroke-width: 1.5"/>
    </g>
    <g id="text_11">
     <!-- Independent Training -->
     <g transform="translate(497.300937 301.272188) scale(0.18 -0.18)">
      <defs>
       <path id="DejaVuSans-49" d="M 628 4666 
L 1259 4666 
L 1259 0 
L 628 0 
L 628 4666 
z
" transform="scale(0.015625)"/>
       <path id="DejaVuSans-70" d="M 1159 525 
L 1159 -1331 
L 581 -1331 
L 581 3500 
L 1159 3500 
L 1159 2969 
Q 1341 3281 1617 3432 
Q 1894 3584 2278 3584 
Q 2916 3584 3314 3078 
Q 3713 2572 3713 1747 
Q 3713 922 3314 415 
Q 2916 -91 2278 -91 
Q 1894 -91 1617 61 
Q 1341 213 1159 525 
z
M 3116 1747 
Q 3116 2381 2855 2742 
Q 2594 3103 2138 3103 
Q 1681 3103 1420 2742 
Q 1159 2381 1159 1747 
Q 1159 1113 1420 752 
Q 1681 391 2138 391 
Q 2594 391 2855 752 
Q 3116 1113 3116 1747 
z
" transform="scale(0.015625)"/>
       <path id="DejaVuSans-74" d="M 1172 4494 
L 1172 3500 
L 2356 3500 
L 2356 3053 
L 1172 3053 
L 1172 1153 
Q 1172 725 1289 603 
Q 1406 481 1766 481 
L 2356 481 
L 2356 0 
L 1766 0 
Q 1100 0 847 248 
Q 594 497 594 1153 
L 594 3053 
L 172 3053 
L 172 3500 
L 594 3500 
L 594 4494 
L 1172 4494 
z
" transform="scale(0.015625)"/>
       <path id="DejaVuSans-54" d="M -19 4666 
L 3928 4666 
L 3928 4134 
L 2272 4134 
L 2272 0 
L 1638 0 
L 1638 4134 
L -19 4134 
L -19 4666 
z
" transform="scale(0.015625)"/>
       <path id="DejaVuSans-67" d="M 2906 1791 
Q 2906 2416 2648 2759 
Q 2391 3103 1925 3103 
Q 1463 3103 1205 2759 
Q 947 2416 947 1791 
Q 947 1169 1205 825 
Q 1463 481 1925 481 
Q 2391 481 2648 825 
Q 2906 1169 2906 1791 
z
M 3481 434 
Q 3481 -459 3084 -895 
Q 2688 -1331 1869 -1331 
Q 1566 -1331 1297 -1286 
Q 1028 -1241 775 -1147 
L 775 -588 
Q 1028 -725 1275 -790 
Q 1522 -856 1778 -856 
Q 2344 -856 2625 -561 
Q 2906 -266 2906 331 
L 2906 616 
Q 2728 306 2450 153 
Q 2172 0 1784 0 
Q 1141 0 747 490 
Q 353 981 353 1791 
Q 353 2603 747 3093 
Q 1141 3584 1784 3584 
Q 2172 3584 2450 3431 
Q 2728 3278 2906 2969 
L 2906 3500 
L 3481 3500 
L 3481 434 
z
" transform="scale(0.015625)"/>
      </defs>
      <use xlink:href="#DejaVuSans-49"/>
      <use xlink:href="#DejaVuSans-6e" x="29.492188"/>
      <use xlink:href="#DejaVuSans-64" x="92.871094"/>
      <use xlink:href="#DejaVuSans-65" x="156.347656"/>
      <use xlink:href="#DejaVuSans-70" x="217.871094"/>
      <use xlink:href="#DejaVuSans-65" x="281.347656"/>
      <use xlink:href="#DejaVuSans-6e" x="342.871094"/>
      <use xlink:href="#DejaVuSans-64" x="406.25"/>
      <use xlink:href="#DejaVuSans-65" x="469.726562"/>
      <use xlink:href="#DejaVuSans-6e" x="531.25"/>
      <use xlink:href="#DejaVuSans-74" x="594.628906"/>
      <use xlink:href="#DejaVuSans-20" x="633.837891"/>
      <use xlink:href="#DejaVuSans-54" x="665.625"/>
      <use xlink:href="#DejaVuSans-72" x="711.958984"/>
      <use xlink:href="#DejaVuSans-61" x="753.072266"/>
      <use xlink:href="#DejaVuSans-69" x="814.351562"/>
      <use xlink:href="#DejaVuSans-6e" x="842.134766"/>
      <use xlink:href="#DejaVuSans-69" x="905.513672"/>
      <use xlink:href="#DejaVuSans-6e" x="933.296875"/>
      <use xlink:href="#DejaVuSans-67" x="996.675781"/>
     </g>
    </g>
    <g id="line2d_43">
     <path d="M 446.900937 321.392813 
L 464.900937 321.392813 
L 482.900937 321.392813 
" style="fill: none; stroke-dasharray: 5.55,2.4; stroke-dashoffset: 0; stroke: #beaed4; stroke-width: 1.5"/>
    </g>
    <g id="text_12">
     <!-- Multi-task Training -->
     <g transform="translate(497.300937 327.692813) scale(0.18 -0.18)">
      <defs>
       <path id="DejaVuSans-4d" d="M 628 4666 
L 1569 4666 
L 2759 1491 
L 3956 4666 
L 4897 4666 
L 4897 0 
L 4281 0 
L 4281 4097 
L 3078 897 
L 2444 897 
L 1241 4097 
L 1241 0 
L 628 0 
L 628 4666 
z
" transform="scale(0.015625)"/>
       <path id="DejaVuSans-2d" d="M 313 2009 
L 1997 2009 
L 1997 1497 
L 313 1497 
L 313 2009 
z
" transform="scale(0.015625)"/>
       <path id="DejaVuSans-6b" d="M 581 4863 
L 1159 4863 
L 1159 1991 
L 2875 3500 
L 3609 3500 
L 1753 1863 
L 3688 0 
L 2938 0 
L 1159 1709 
L 1159 0 
L 581 0 
L 581 4863 
z
" transform="scale(0.015625)"/>
      </defs>
      <use xlink:href="#DejaVuSans-4d"/>
      <use xlink:href="#DejaVuSans-75" x="86.279297"/>
      <use xlink:href="#DejaVuSans-6c" x="149.658203"/>
      <use xlink:href="#DejaVuSans-74" x="177.441406"/>
      <use xlink:href="#DejaVuSans-69" x="216.650391"/>
      <use xlink:href="#DejaVuSans-2d" x="244.433594"/>
      <use xlink:href="#DejaVuSans-74" x="280.517578"/>
      <use xlink:href="#DejaVuSans-61" x="319.726562"/>
      <use xlink:href="#DejaVuSans-73" x="381.005859"/>
      <use xlink:href="#DejaVuSans-6b" x="433.105469"/>
      <use xlink:href="#DejaVuSans-20" x="491.015625"/>
      <use xlink:href="#DejaVuSans-54" x="522.802734"/>
      <use xlink:href="#DejaVuSans-72" x="569.136719"/>
      <use xlink:href="#DejaVuSans-61" x="610.25"/>
      <use xlink:href="#DejaVuSans-69" x="671.529297"/>
      <use xlink:href="#DejaVuSans-6e" x="699.3125"/>
      <use xlink:href="#DejaVuSans-69" x="762.691406"/>
      <use xlink:href="#DejaVuSans-6e" x="790.474609"/>
      <use xlink:href="#DejaVuSans-67" x="853.853516"/>
     </g>
    </g>
    <g id="line2d_44">
     <path d="M 446.900937 347.813438 
L 464.900937 347.813438 
L 482.900937 347.813438 
" style="fill: none; stroke: #7fc97f; stroke-width: 1.5; stroke-linecap: square"/>
    </g>
    <g id="text_13">
     <!-- Random -->
     <g transform="translate(497.300937 354.113438) scale(0.18 -0.18)">
      <use xlink:href="#DejaVuSans-52"/>
      <use xlink:href="#DejaVuSans-61" x="67.232422"/>
      <use xlink:href="#DejaVuSans-6e" x="128.511719"/>
      <use xlink:href="#DejaVuSans-64" x="191.890625"/>
      <use xlink:href="#DejaVuSans-6f" x="255.367188"/>
      <use xlink:href="#DejaVuSans-6d" x="316.548828"/>
     </g>
    </g>
    <g id="line2d_45">
     <path d="M 446.900937 374.234063 
L 464.900937 374.234063 
L 482.900937 374.234063 
" style="fill: none; stroke: #bf5b17; stroke-width: 1.5; stroke-linecap: square"/>
    </g>
    <g id="text_14">
     <!-- GP-MBTL -->
     <g transform="translate(497.300937 380.534063) scale(0.18 -0.18)">
      <defs>
       <path id="DejaVuSans-47" d="M 3809 666 
L 3809 1919 
L 2778 1919 
L 2778 2438 
L 4434 2438 
L 4434 434 
Q 4069 175 3628 42 
Q 3188 -91 2688 -91 
Q 1594 -91 976 548 
Q 359 1188 359 2328 
Q 359 3472 976 4111 
Q 1594 4750 2688 4750 
Q 3144 4750 3555 4637 
Q 3966 4525 4313 4306 
L 4313 3634 
Q 3963 3931 3569 4081 
Q 3175 4231 2741 4231 
Q 1884 4231 1454 3753 
Q 1025 3275 1025 2328 
Q 1025 1384 1454 906 
Q 1884 428 2741 428 
Q 3075 428 3337 486 
Q 3600 544 3809 666 
z
" transform="scale(0.015625)"/>
       <path id="DejaVuSans-42" d="M 1259 2228 
L 1259 519 
L 2272 519 
Q 2781 519 3026 730 
Q 3272 941 3272 1375 
Q 3272 1813 3026 2020 
Q 2781 2228 2272 2228 
L 1259 2228 
z
M 1259 4147 
L 1259 2741 
L 2194 2741 
Q 2656 2741 2882 2914 
Q 3109 3088 3109 3444 
Q 3109 3797 2882 3972 
Q 2656 4147 2194 4147 
L 1259 4147 
z
M 628 4666 
L 2241 4666 
Q 2963 4666 3353 4366 
Q 3744 4066 3744 3513 
Q 3744 3084 3544 2831 
Q 3344 2578 2956 2516 
Q 3422 2416 3680 2098 
Q 3938 1781 3938 1306 
Q 3938 681 3513 340 
Q 3088 0 2303 0 
L 628 0 
L 628 4666 
z
" transform="scale(0.015625)"/>
       <path id="DejaVuSans-4c" d="M 628 4666 
L 1259 4666 
L 1259 531 
L 3531 531 
L 3531 0 
L 628 0 
L 628 4666 
z
" transform="scale(0.015625)"/>
      </defs>
      <use xlink:href="#DejaVuSans-47"/>
      <use xlink:href="#DejaVuSans-50" x="77.490234"/>
      <use xlink:href="#DejaVuSans-2d" x="135.542969"/>
      <use xlink:href="#DejaVuSans-4d" x="171.626953"/>
      <use xlink:href="#DejaVuSans-42" x="257.90625"/>
      <use xlink:href="#DejaVuSans-54" x="326.509766"/>
      <use xlink:href="#DejaVuSans-4c" x="387.59375"/>
     </g>
    </g>
    <g id="line2d_46">
     <path d="M 446.900937 400.654688 
L 464.900937 400.654688 
L 482.900937 400.654688 
" style="fill: none; stroke: #f0027f; stroke-width: 1.5; stroke-linecap: square"/>
    </g>
    <g id="text_15">
     <!-- SC-MBTL -->
     <g transform="translate(497.300937 406.954688) scale(0.18 -0.18)">
      <defs>
       <path id="DejaVuSans-53" d="M 3425 4513 
L 3425 3897 
Q 3066 4069 2747 4153 
Q 2428 4238 2131 4238 
Q 1616 4238 1336 4038 
Q 1056 3838 1056 3469 
Q 1056 3159 1242 3001 
Q 1428 2844 1947 2747 
L 2328 2669 
Q 3034 2534 3370 2195 
Q 3706 1856 3706 1288 
Q 3706 609 3251 259 
Q 2797 -91 1919 -91 
Q 1588 -91 1214 -16 
Q 841 59 441 206 
L 441 856 
Q 825 641 1194 531 
Q 1563 422 1919 422 
Q 2459 422 2753 634 
Q 3047 847 3047 1241 
Q 3047 1584 2836 1778 
Q 2625 1972 2144 2069 
L 1759 2144 
Q 1053 2284 737 2584 
Q 422 2884 422 3419 
Q 422 4038 858 4394 
Q 1294 4750 2059 4750 
Q 2388 4750 2728 4690 
Q 3069 4631 3425 4513 
z
" transform="scale(0.015625)"/>
       <path id="DejaVuSans-43" d="M 4122 4306 
L 4122 3641 
Q 3803 3938 3442 4084 
Q 3081 4231 2675 4231 
Q 1875 4231 1450 3742 
Q 1025 3253 1025 2328 
Q 1025 1406 1450 917 
Q 1875 428 2675 428 
Q 3081 428 3442 575 
Q 3803 722 4122 1019 
L 4122 359 
Q 3791 134 3420 21 
Q 3050 -91 2638 -91 
Q 1578 -91 968 557 
Q 359 1206 359 2328 
Q 359 3453 968 4101 
Q 1578 4750 2638 4750 
Q 3056 4750 3426 4639 
Q 3797 4528 4122 4306 
z
" transform="scale(0.015625)"/>
      </defs>
      <use xlink:href="#DejaVuSans-53"/>
      <use xlink:href="#DejaVuSans-43" x="63.476562"/>
      <use xlink:href="#DejaVuSans-2d" x="133.300781"/>
      <use xlink:href="#DejaVuSans-4d" x="169.384766"/>
      <use xlink:href="#DejaVuSans-42" x="255.664062"/>
      <use xlink:href="#DejaVuSans-54" x="324.267578"/>
      <use xlink:href="#DejaVuSans-4c" x="385.351562"/>
     </g>
    </g>
    <g id="line2d_47">
     <path d="M 446.900937 427.075313 
L 464.900937 427.075313 
L 482.900937 427.075313 
" style="fill: none; stroke: #386cb0; stroke-width: 1.5; stroke-linecap: square"/>
    </g>
    <g id="text_16">
     <!-- Hybrid-MBTL (Ours) -->
     <g transform="translate(497.300937 433.375313) scale(0.18 -0.18)">
      <defs>
       <path id="DejaVuSans-48" d="M 628 4666 
L 1259 4666 
L 1259 2753 
L 3553 2753 
L 3553 4666 
L 4184 4666 
L 4184 0 
L 3553 0 
L 3553 2222 
L 1259 2222 
L 1259 0 
L 628 0 
L 628 4666 
z
" transform="scale(0.015625)"/>
       <path id="DejaVuSans-79" d="M 2059 -325 
Q 1816 -950 1584 -1140 
Q 1353 -1331 966 -1331 
L 506 -1331 
L 506 -850 
L 844 -850 
Q 1081 -850 1212 -737 
Q 1344 -625 1503 -206 
L 1606 56 
L 191 3500 
L 800 3500 
L 1894 763 
L 2988 3500 
L 3597 3500 
L 2059 -325 
z
" transform="scale(0.015625)"/>
       <path id="DejaVuSans-62" d="M 3116 1747 
Q 3116 2381 2855 2742 
Q 2594 3103 2138 3103 
Q 1681 3103 1420 2742 
Q 1159 2381 1159 1747 
Q 1159 1113 1420 752 
Q 1681 391 2138 391 
Q 2594 391 2855 752 
Q 3116 1113 3116 1747 
z
M 1159 2969 
Q 1341 3281 1617 3432 
Q 1894 3584 2278 3584 
Q 2916 3584 3314 3078 
Q 3713 2572 3713 1747 
Q 3713 922 3314 415 
Q 2916 -91 2278 -91 
Q 1894 -91 1617 61 
Q 1341 213 1159 525 
L 1159 0 
L 581 0 
L 581 4863 
L 1159 4863 
L 1159 2969 
z
" transform="scale(0.015625)"/>
       <path id="DejaVuSans-28" d="M 1984 4856 
Q 1566 4138 1362 3434 
Q 1159 2731 1159 2009 
Q 1159 1288 1364 580 
Q 1569 -128 1984 -844 
L 1484 -844 
Q 1016 -109 783 600 
Q 550 1309 550 2009 
Q 550 2706 781 3412 
Q 1013 4119 1484 4856 
L 1984 4856 
z
" transform="scale(0.015625)"/>
       <path id="DejaVuSans-4f" d="M 2522 4238 
Q 1834 4238 1429 3725 
Q 1025 3213 1025 2328 
Q 1025 1447 1429 934 
Q 1834 422 2522 422 
Q 3209 422 3611 934 
Q 4013 1447 4013 2328 
Q 4013 3213 3611 3725 
Q 3209 4238 2522 4238 
z
M 2522 4750 
Q 3503 4750 4090 4092 
Q 4678 3434 4678 2328 
Q 4678 1225 4090 567 
Q 3503 -91 2522 -91 
Q 1538 -91 948 565 
Q 359 1222 359 2328 
Q 359 3434 948 4092 
Q 1538 4750 2522 4750 
z
" transform="scale(0.015625)"/>
       <path id="DejaVuSans-29" d="M 513 4856 
L 1013 4856 
Q 1481 4119 1714 3412 
Q 1947 2706 1947 2009 
Q 1947 1309 1714 600 
Q 1481 -109 1013 -844 
L 513 -844 
Q 928 -128 1133 580 
Q 1338 1288 1338 2009 
Q 1338 2731 1133 3434 
Q 928 4138 513 4856 
z
" transform="scale(0.015625)"/>
      </defs>
      <use xlink:href="#DejaVuSans-48"/>
      <use xlink:href="#DejaVuSans-79" x="75.195312"/>
      <use xlink:href="#DejaVuSans-62" x="134.375"/>
      <use xlink:href="#DejaVuSans-72" x="197.851562"/>
      <use xlink:href="#DejaVuSans-69" x="238.964844"/>
      <use xlink:href="#DejaVuSans-64" x="266.748047"/>
      <use xlink:href="#DejaVuSans-2d" x="330.224609"/>
      <use xlink:href="#DejaVuSans-4d" x="366.308594"/>
      <use xlink:href="#DejaVuSans-42" x="452.587891"/>
      <use xlink:href="#DejaVuSans-54" x="521.191406"/>
      <use xlink:href="#DejaVuSans-4c" x="582.275391"/>
      <use xlink:href="#DejaVuSans-20" x="637.988281"/>
      <use xlink:href="#DejaVuSans-28" x="669.775391"/>
      <use xlink:href="#DejaVuSans-4f" x="708.789062"/>
      <use xlink:href="#DejaVuSans-75" x="787.5"/>
      <use xlink:href="#DejaVuSans-72" x="850.878906"/>
      <use xlink:href="#DejaVuSans-73" x="891.992188"/>
      <use xlink:href="#DejaVuSans-29" x="944.091797"/>
     </g>
    </g>
    <g id="line2d_48">
     <path d="M 446.900937 453.495938 
L 464.900937 453.495938 
L 482.900937 453.495938 
" style="fill: none; stroke: #ffff99; stroke-width: 1.5; stroke-linecap: square"/>
    </g>
    <g id="text_17">
     <!-- Hybrid-MBTL-new (Ours) -->
     <g transform="translate(497.300937 459.795938) scale(0.18 -0.18)">
      <defs>
       <path id="DejaVuSans-77" d="M 269 3500 
L 844 3500 
L 1563 769 
L 2278 3500 
L 2956 3500 
L 3675 769 
L 4391 3500 
L 4966 3500 
L 4050 0 
L 3372 0 
L 2619 2869 
L 1863 0 
L 1184 0 
L 269 3500 
z
" transform="scale(0.015625)"/>
      </defs>
      <use xlink:href="#DejaVuSans-48"/>
      <use xlink:href="#DejaVuSans-79" x="75.195312"/>
      <use xlink:href="#DejaVuSans-62" x="134.375"/>
      <use xlink:href="#DejaVuSans-72" x="197.851562"/>
      <use xlink:href="#DejaVuSans-69" x="238.964844"/>
      <use xlink:href="#DejaVuSans-64" x="266.748047"/>
      <use xlink:href="#DejaVuSans-2d" x="330.224609"/>
      <use xlink:href="#DejaVuSans-4d" x="366.308594"/>
      <use xlink:href="#DejaVuSans-42" x="452.587891"/>
      <use xlink:href="#DejaVuSans-54" x="521.191406"/>
      <use xlink:href="#DejaVuSans-4c" x="582.275391"/>
      <use xlink:href="#DejaVuSans-2d" x="636.238281"/>
      <use xlink:href="#DejaVuSans-6e" x="672.322266"/>
      <use xlink:href="#DejaVuSans-65" x="735.701172"/>
      <use xlink:href="#DejaVuSans-77" x="797.224609"/>
      <use xlink:href="#DejaVuSans-20" x="879.011719"/>
      <use xlink:href="#DejaVuSans-28" x="910.798828"/>
      <use xlink:href="#DejaVuSans-4f" x="949.8125"/>
      <use xlink:href="#DejaVuSans-75" x="1028.523438"/>
      <use xlink:href="#DejaVuSans-72" x="1091.902344"/>
      <use xlink:href="#DejaVuSans-73" x="1133.015625"/>
      <use xlink:href="#DejaVuSans-29" x="1185.115234"/>
     </g>
    </g>
    <g id="line2d_49">
     <path d="M 446.900937 479.916563 
L 464.900937 479.916563 
L 482.900937 479.916563 
" style="fill: none; stroke-dasharray: 5.55,2.4; stroke-dashoffset: 0; stroke: #666666; stroke-width: 1.5"/>
    </g>
    <g id="text_18">
     <!-- Stochastic Oracle -->
     <g transform="translate(497.300937 486.216563) scale(0.18 -0.18)">
      <defs>
       <path id="DejaVuSans-68" d="M 3513 2113 
L 3513 0 
L 2938 0 
L 2938 2094 
Q 2938 2591 2744 2837 
Q 2550 3084 2163 3084 
Q 1697 3084 1428 2787 
Q 1159 2491 1159 1978 
L 1159 0 
L 581 0 
L 581 4863 
L 1159 4863 
L 1159 2956 
Q 1366 3272 1645 3428 
Q 1925 3584 2291 3584 
Q 2894 3584 3203 3211 
Q 3513 2838 3513 2113 
z
" transform="scale(0.015625)"/>
      </defs>
      <use xlink:href="#DejaVuSans-53"/>
      <use xlink:href="#DejaVuSans-74" x="63.476562"/>
      <use xlink:href="#DejaVuSans-6f" x="102.685547"/>
      <use xlink:href="#DejaVuSans-63" x="163.867188"/>
      <use xlink:href="#DejaVuSans-68" x="218.847656"/>
      <use xlink:href="#DejaVuSans-61" x="282.226562"/>
      <use xlink:href="#DejaVuSans-73" x="343.505859"/>
      <use xlink:href="#DejaVuSans-74" x="395.605469"/>
      <use xlink:href="#DejaVuSans-69" x="434.814453"/>
      <use xlink:href="#DejaVuSans-63" x="462.597656"/>
      <use xlink:href="#DejaVuSans-20" x="517.578125"/>
      <use xlink:href="#DejaVuSans-4f" x="549.365234"/>
      <use xlink:href="#DejaVuSans-72" x="628.076172"/>
      <use xlink:href="#DejaVuSans-61" x="669.189453"/>
      <use xlink:href="#DejaVuSans-63" x="730.46875"/>
      <use xlink:href="#DejaVuSans-6c" x="785.449219"/>
      <use xlink:href="#DejaVuSans-65" x="813.232422"/>
     </g>
    </g>
   </g>
  </g>
 </g>
 <defs>
  <clipPath id="pab9a195920">
   <rect x="64.24625" y="7.2" width="669.6" height="498.96"/>
  </clipPath>
 </defs>
</svg>
