<?xml version="1.0" encoding="utf-8" standalone="no"?>
<!DOCTYPE svg PUBLIC "-//W3C//DTD SVG 1.1//EN"
  "http://www.w3.org/Graphics/SVG/1.1/DTD/svg11.dtd">
<svg xmlns:xlink="http://www.w3.org/1999/xlink" width="754.720625pt" height="559.20125pt" viewBox="0 0 754.720625 559.20125" xmlns="http://www.w3.org/2000/svg" version="1.1">
 <metadata>
  <rdf:RDF xmlns:dc="http://purl.org/dc/elements/1.1/" xmlns:cc="http://creativecommons.org/ns#" xmlns:rdf="http://www.w3.org/1999/02/22-rdf-syntax-ns#">
   <cc:Work>
    <dc:type rdf:resource="http://purl.org/dc/dcmitype/StillImage"/>
    <dc:date>2025-02-26T21:52:37.581209</dc:date>
    <dc:format>image/svg+xml</dc:format>
    <dc:creator>
     <cc:Agent>
      <dc:title>Matplotlib v3.9.4, https://matplotlib.org/</dc:title>
     </cc:Agent>
    </dc:creator>
   </cc:Work>
  </rdf:RDF>
 </metadata>
 <defs>
  <style type="text/css">*{stroke-linejoin: round; stroke-linecap: butt}</style>
 </defs>
 <g id="figure_1">
  <g id="patch_1">
   <path d="M 0 559.20125 
L 754.720625 559.20125 
L 754.720625 0 
L 0 0 
z
" style="fill: #ffffff"/>
  </g>
  <g id="axes_1">
   <g id="patch_2">
    <path d="M 77.920625 506.16 
L 747.520625 506.16 
L 747.520625 7.2 
L 77.920625 7.2 
z
" style="fill: #ffffff"/>
   </g>
   <g id="PolyCollection_1">
    <path d="M 108.356989 315.608145 
L 108.356989 97088.418256 
L 120.779994 209.360987 
L 133.203 180.558061 
L 145.626005 158.336003 
L 158.049011 140.43492 
L 170.472016 135.733972 
L 182.895022 128.642089 
L 195.318028 122.279675 
L 207.741033 116.425588 
L 220.164039 113.108404 
L 232.587044 111.004001 
L 245.01005 107.594278 
L 257.433055 104.620545 
L 269.856061 101.793907 
L 282.279067 99.450693 
L 294.702072 97.834653 
L 307.125078 95.760328 
L 319.548083 94.658525 
L 331.971089 92.628688 
L 344.394094 91.230844 
L 356.8171 89.437015 
L 369.240106 87.207754 
L 381.663111 84.830271 
L 394.086117 82.911802 
L 406.509122 80.700112 
L 418.932128 78.434592 
L 431.355133 76.673926 
L 443.778139 74.816083 
L 456.201144 73.162874 
L 468.62415 71.697208 
L 481.047156 70.23721 
L 493.470161 68.566595 
L 505.893167 66.558053 
L 518.316172 64.831816 
L 530.739178 63.129489 
L 543.162183 61.51646 
L 555.585189 59.835407 
L 568.008195 58.446499 
L 580.4312 57.039577 
L 592.854206 55.610186 
L 605.277211 54.340253 
L 617.700217 52.716608 
L 630.123222 51.149594 
L 642.546228 49.689241 
L 654.969234 48.128069 
L 667.392239 46.85887 
L 679.815245 45.435555 
L 692.23825 44.108997 
L 704.661256 42.790868 
L 717.084261 41.479617 
L 717.084261 32.653247 
L 717.084261 32.653247 
L 704.661256 33.838289 
L 692.23825 35.081968 
L 679.815245 36.327745 
L 667.392239 37.65291 
L 654.969234 39.008868 
L 642.546228 40.3317 
L 630.123222 41.67055 
L 617.700217 43.135607 
L 605.277211 44.556827 
L 592.854206 45.861102 
L 580.4312 47.057212 
L 568.008195 48.428087 
L 555.585189 49.769196 
L 543.162183 51.199121 
L 530.739178 52.734812 
L 518.316172 54.130872 
L 505.893167 55.706072 
L 493.470161 57.367517 
L 481.047156 59.073226 
L 468.62415 60.405313 
L 456.201144 61.712319 
L 443.778139 63.197522 
L 431.355133 64.991569 
L 418.932128 66.586607 
L 406.509122 68.144684 
L 394.086117 69.82197 
L 381.663111 71.615427 
L 369.240106 73.603798 
L 356.8171 75.438841 
L 344.394094 77.393497 
L 331.971089 79.436745 
L 319.548083 81.036048 
L 307.125078 83.033332 
L 294.702072 84.789524 
L 282.279067 86.691786 
L 269.856061 88.776754 
L 257.433055 91.932434 
L 245.01005 94.479628 
L 232.587044 97.581502 
L 220.164039 101.501484 
L 207.741033 104.445671 
L 195.318028 109.484342 
L 182.895022 114.328076 
L 170.472016 118.906347 
L 158.049011 136.507352 
L 145.626005 154.286452 
L 133.203 176.191299 
L 120.779994 203.442095 
L 108.356989 315.608145 
z
" clip-path="url(#p938f279ee0)" style="fill: #ffff99; fill-opacity: 0.1; stroke: #ffff99; stroke-opacity: 0.1"/>
   </g>
   <g id="PolyCollection_2">
    <path d="M 108.356989 368.876988 
L 108.356989 97088.418256 
L 120.779994 212.097923 
L 133.203 181.355122 
L 145.626005 158.261152 
L 158.049011 139.969868 
L 170.472016 134.776237 
L 182.895022 127.664737 
L 195.318028 121.402322 
L 207.741033 115.541763 
L 220.164039 112.504927 
L 232.587044 110.371063 
L 245.01005 106.770356 
L 257.433055 103.670872 
L 269.856061 99.270281 
L 282.279067 97.037617 
L 294.702072 94.61814 
L 307.125078 91.716335 
L 319.548083 89.863353 
L 331.971089 87.900992 
L 344.394094 86.22259 
L 356.8171 84.017424 
L 369.240106 81.738592 
L 381.663111 79.828139 
L 394.086117 77.742972 
L 406.509122 75.672064 
L 418.932128 73.806529 
L 431.355133 72.062577 
L 443.778139 70.329002 
L 456.201144 68.810915 
L 468.62415 67.346202 
L 481.047156 65.855233 
L 493.470161 64.10212 
L 505.893167 62.427841 
L 518.316172 60.777123 
L 530.739178 59.120746 
L 543.162183 57.646787 
L 555.585189 56.037304 
L 568.008195 54.483696 
L 580.4312 53.101926 
L 592.854206 51.744153 
L 605.277211 50.421507 
L 617.700217 48.964177 
L 630.123222 47.467385 
L 642.546228 45.945429 
L 654.969234 44.555732 
L 667.392239 43.261762 
L 679.815245 41.858541 
L 692.23825 40.605128 
L 704.661256 39.308769 
L 717.084261 38.070202 
L 717.084261 31.194687 
L 717.084261 31.194687 
L 704.661256 32.392834 
L 692.23825 33.651842 
L 679.815245 34.841987 
L 667.392239 36.152437 
L 654.969234 37.502066 
L 642.546228 38.814176 
L 630.123222 40.130823 
L 617.700217 41.533941 
L 605.277211 42.992333 
L 592.854206 44.282607 
L 580.4312 45.448466 
L 568.008195 46.790196 
L 555.585189 48.045152 
L 543.162183 49.495569 
L 530.739178 50.926638 
L 518.316172 52.359323 
L 505.893167 53.965869 
L 493.470161 55.432127 
L 481.047156 57.078201 
L 468.62415 58.361216 
L 456.201144 59.724125 
L 443.778139 61.047302 
L 431.355133 62.513324 
L 418.932128 63.989034 
L 406.509122 65.502648 
L 394.086117 67.097489 
L 381.663111 68.702879 
L 369.240106 70.366703 
L 356.8171 72.086136 
L 344.394094 74.036342 
L 331.971089 75.524424 
L 319.548083 77.056708 
L 307.125078 78.663532 
L 294.702072 80.378669 
L 282.279067 82.096631 
L 269.856061 85.421651 
L 257.433055 87.976812 
L 245.01005 90.488602 
L 232.587044 95.472747 
L 220.164039 100.689344 
L 207.741033 103.547525 
L 195.318028 108.378167 
L 182.895022 113.155741 
L 170.472016 117.460929 
L 158.049011 133.779956 
L 145.626005 149.741338 
L 133.203 168.114675 
L 120.779994 188.472743 
L 108.356989 368.876988 
z
" clip-path="url(#p938f279ee0)" style="fill: #386cb0; fill-opacity: 0.1; stroke: #386cb0; stroke-opacity: 0.1"/>
   </g>
   <g id="PolyCollection_3">
    <defs>
     <path id="m5afb8ad619" d="M 108.356989 -197.126427 
L 108.356989 -75.72125 
L 120.779994 -378.277705 
L 133.203 -395.443222 
L 145.626005 -411.643742 
L 158.049011 -426.184141 
L 170.472016 -432.018324 
L 182.895022 -438.592223 
L 195.318028 -443.323456 
L 207.741033 -447.84657 
L 220.164039 -450.389355 
L 232.587044 -452.761059 
L 245.01005 -454.791817 
L 257.433055 -457.191006 
L 269.856061 -460.051953 
L 282.279067 -462.166881 
L 294.702072 -463.683046 
L 307.125078 -465.526102 
L 319.548083 -466.729811 
L 331.971089 -467.773809 
L 344.394094 -469.295875 
L 356.8171 -471.149273 
L 369.240106 -472.153585 
L 381.663111 -473.372393 
L 394.086117 -474.812506 
L 406.509122 -475.90143 
L 418.932128 -476.686671 
L 431.355133 -477.806569 
L 443.778139 -478.851639 
L 456.201144 -479.944648 
L 468.62415 -480.752099 
L 481.047156 -481.698752 
L 493.470161 -482.566751 
L 505.893167 -483.237045 
L 518.316172 -483.814475 
L 530.739178 -484.448502 
L 543.162183 -485.084991 
L 555.585189 -485.911043 
L 568.008195 -486.723936 
L 580.4312 -487.387568 
L 592.854206 -488.392996 
L 605.277211 -488.812366 
L 617.700217 -489.408651 
L 630.123222 -490.133534 
L 642.546228 -490.670457 
L 654.969234 -491.100013 
L 667.392239 -491.584828 
L 679.815245 -492.096455 
L 692.23825 -492.588192 
L 704.661256 -492.970866 
L 717.084261 -493.546171 
L 717.084261 -496.695057 
L 717.084261 -496.695057 
L 704.661256 -496.131379 
L 692.23825 -495.756686 
L 679.815245 -495.274348 
L 667.392239 -494.770604 
L 654.969234 -494.293508 
L 642.546228 -493.868743 
L 630.123222 -493.338621 
L 617.700217 -492.622123 
L 605.277211 -492.030054 
L 592.854206 -491.614322 
L 580.4312 -490.620931 
L 568.008195 -489.963302 
L 555.585189 -489.158137 
L 543.162183 -488.335244 
L 530.739178 -487.699906 
L 518.316172 -487.063953 
L 505.893167 -486.484397 
L 493.470161 -485.813431 
L 481.047156 -484.9408 
L 468.62415 -483.992858 
L 456.201144 -483.182086 
L 443.778139 -482.083726 
L 431.355133 -481.030246 
L 418.932128 -479.908586 
L 406.509122 -479.122939 
L 394.086117 -478.03223 
L 381.663111 -476.588696 
L 369.240106 -475.373024 
L 356.8171 -474.365979 
L 344.394094 -472.508337 
L 331.971089 -470.980598 
L 319.548083 -469.937986 
L 307.125078 -468.73742 
L 294.702072 -466.886898 
L 282.279067 -465.364684 
L 269.856061 -463.23358 
L 257.433055 -460.347019 
L 245.01005 -457.919636 
L 232.587044 -455.868386 
L 220.164039 -453.47753 
L 207.741033 -450.899897 
L 195.318028 -446.338535 
L 182.895022 -441.588317 
L 170.472016 -434.979904 
L 158.049011 -429.109941 
L 145.626005 -414.455457 
L 133.203 -398.239956 
L 120.779994 -381.415316 
L 108.356989 -197.126427 
z
" style="stroke: #f0027f; stroke-opacity: 0.1"/>
    </defs>
    <g clip-path="url(#p938f279ee0)">
     <use xlink:href="#m5afb8ad619" x="0" y="559.20125" style="fill: #f0027f; fill-opacity: 0.1; stroke: #f0027f; stroke-opacity: 0.1"/>
    </g>
   </g>
   <g id="PolyCollection_4">
    <defs>
     <path id="m90e4dac598" d="M 108.356989 -388.416964 
L 108.356989 -377.371448 
L 120.779994 -408.721482 
L 133.203 -426.964772 
L 145.626005 -439.736793 
L 158.049011 -445.234468 
L 170.472016 -448.576501 
L 182.895022 -451.393143 
L 195.318028 -454.066604 
L 207.741033 -456.924648 
L 220.164039 -459.412055 
L 232.587044 -461.695395 
L 245.01005 -463.900282 
L 257.433055 -465.964749 
L 269.856061 -467.96519 
L 282.279067 -469.879629 
L 294.702072 -471.688357 
L 307.125078 -473.433957 
L 319.548083 -474.96068 
L 331.971089 -476.595774 
L 344.394094 -478.126212 
L 356.8171 -479.61456 
L 369.240106 -481.69439 
L 381.663111 -483.560204 
L 394.086117 -485.356888 
L 406.509122 -487.093988 
L 418.932128 -488.843784 
L 431.355133 -490.321279 
L 443.778139 -491.888743 
L 456.201144 -493.376248 
L 468.62415 -494.729841 
L 481.047156 -496.024342 
L 493.470161 -497.274854 
L 505.893167 -498.915362 
L 518.316172 -500.480513 
L 530.739178 -501.964751 
L 543.162183 -503.422137 
L 555.585189 -505.052326 
L 568.008195 -506.434101 
L 580.4312 -507.815894 
L 592.854206 -509.120071 
L 605.277211 -510.429274 
L 617.700217 -511.631661 
L 630.123222 -513.170425 
L 642.546228 -514.610079 
L 654.969234 -515.950254 
L 667.392239 -517.266213 
L 679.815245 -518.5573 
L 692.23825 -519.763213 
L 704.661256 -520.967361 
L 717.084261 -522.12601 
L 717.084261 -529.32125 
L 717.084261 -529.32125 
L 704.661256 -528.125413 
L 692.23825 -526.949779 
L 679.815245 -525.747618 
L 667.392239 -524.486313 
L 654.969234 -523.205609 
L 642.546228 -521.905743 
L 630.123222 -520.604526 
L 617.700217 -519.221929 
L 605.277211 -518.014399 
L 592.854206 -516.773524 
L 580.4312 -515.552611 
L 568.008195 -514.279164 
L 555.585189 -512.969288 
L 543.162183 -511.603753 
L 530.739178 -510.242329 
L 518.316172 -508.855186 
L 505.893167 -507.455509 
L 493.470161 -505.975512 
L 481.047156 -504.739131 
L 468.62415 -503.549585 
L 456.201144 -502.318683 
L 443.778139 -500.994636 
L 431.355133 -499.632756 
L 418.932128 -498.273175 
L 406.509122 -496.917749 
L 394.086117 -495.446684 
L 381.663111 -493.909318 
L 369.240106 -492.257212 
L 356.8171 -490.490442 
L 344.394094 -489.212522 
L 331.971089 -487.847689 
L 319.548083 -486.543192 
L 307.125078 -485.02654 
L 294.702072 -483.505824 
L 282.279067 -481.998647 
L 269.856061 -480.430068 
L 257.433055 -478.939067 
L 245.01005 -477.315831 
L 232.587044 -475.359205 
L 220.164039 -473.324692 
L 207.741033 -471.44872 
L 195.318028 -469.500128 
L 182.895022 -467.379002 
L 170.472016 -464.446685 
L 158.049011 -461.227001 
L 145.626005 -458.777086 
L 133.203 -452.733501 
L 120.779994 -441.611448 
L 108.356989 -388.416964 
z
" style="stroke: #bf5b17; stroke-opacity: 0.1"/>
    </defs>
    <g clip-path="url(#p938f279ee0)">
     <use xlink:href="#m90e4dac598" x="0" y="559.20125" style="fill: #bf5b17; fill-opacity: 0.1; stroke: #bf5b17; stroke-opacity: 0.1"/>
    </g>
   </g>
   <g id="matplotlib.axis_1">
    <g id="xtick_1">
     <g id="line2d_1">
      <path d="M 95.933983 506.16 
L 95.933983 7.2 
" clip-path="url(#p938f279ee0)" style="fill: none; stroke-dasharray: 1.85,0.8; stroke-dashoffset: 0; stroke: #b0b0b0; stroke-width: 0.5"/>
     </g>
     <g id="line2d_2">
      <defs>
       <path id="m5425011dab" d="M 0 0 
L 0 3.5 
" style="stroke: #000000; stroke-width: 0.8"/>
      </defs>
      <g>
       <use xlink:href="#m5425011dab" x="95.933983" y="506.16" style="stroke: #000000; stroke-width: 0.8"/>
      </g>
     </g>
     <g id="text_1">
      <!-- 0 -->
      <g transform="translate(90.207733 526.837188) scale(0.18 -0.18)">
       <defs>
        <path id="DejaVuSans-30" d="M 2034 4250 
Q 1547 4250 1301 3770 
Q 1056 3291 1056 2328 
Q 1056 1369 1301 889 
Q 1547 409 2034 409 
Q 2525 409 2770 889 
Q 3016 1369 3016 2328 
Q 3016 3291 2770 3770 
Q 2525 4250 2034 4250 
z
M 2034 4750 
Q 2819 4750 3233 4129 
Q 3647 3509 3647 2328 
Q 3647 1150 3233 529 
Q 2819 -91 2034 -91 
Q 1250 -91 836 529 
Q 422 1150 422 2328 
Q 422 3509 836 4129 
Q 1250 4750 2034 4750 
z
" transform="scale(0.015625)"/>
       </defs>
       <use xlink:href="#DejaVuSans-30"/>
      </g>
     </g>
    </g>
    <g id="xtick_2">
     <g id="line2d_3">
      <path d="M 220.164039 506.16 
L 220.164039 7.2 
" clip-path="url(#p938f279ee0)" style="fill: none; stroke-dasharray: 1.85,0.8; stroke-dashoffset: 0; stroke: #b0b0b0; stroke-width: 0.5"/>
     </g>
     <g id="line2d_4">
      <g>
       <use xlink:href="#m5425011dab" x="220.164039" y="506.16" style="stroke: #000000; stroke-width: 0.8"/>
      </g>
     </g>
     <g id="text_2">
      <!-- 10 -->
      <g transform="translate(208.711539 526.837188) scale(0.18 -0.18)">
       <defs>
        <path id="DejaVuSans-31" d="M 794 531 
L 1825 531 
L 1825 4091 
L 703 3866 
L 703 4441 
L 1819 4666 
L 2450 4666 
L 2450 531 
L 3481 531 
L 3481 0 
L 794 0 
L 794 531 
z
" transform="scale(0.015625)"/>
       </defs>
       <use xlink:href="#DejaVuSans-31"/>
       <use xlink:href="#DejaVuSans-30" x="63.623047"/>
      </g>
     </g>
    </g>
    <g id="xtick_3">
     <g id="line2d_5">
      <path d="M 344.394094 506.16 
L 344.394094 7.2 
" clip-path="url(#p938f279ee0)" style="fill: none; stroke-dasharray: 1.85,0.8; stroke-dashoffset: 0; stroke: #b0b0b0; stroke-width: 0.5"/>
     </g>
     <g id="line2d_6">
      <g>
       <use xlink:href="#m5425011dab" x="344.394094" y="506.16" style="stroke: #000000; stroke-width: 0.8"/>
      </g>
     </g>
     <g id="text_3">
      <!-- 20 -->
      <g transform="translate(332.941594 526.837188) scale(0.18 -0.18)">
       <defs>
        <path id="DejaVuSans-32" d="M 1228 531 
L 3431 531 
L 3431 0 
L 469 0 
L 469 531 
Q 828 903 1448 1529 
Q 2069 2156 2228 2338 
Q 2531 2678 2651 2914 
Q 2772 3150 2772 3378 
Q 2772 3750 2511 3984 
Q 2250 4219 1831 4219 
Q 1534 4219 1204 4116 
Q 875 4013 500 3803 
L 500 4441 
Q 881 4594 1212 4672 
Q 1544 4750 1819 4750 
Q 2544 4750 2975 4387 
Q 3406 4025 3406 3419 
Q 3406 3131 3298 2873 
Q 3191 2616 2906 2266 
Q 2828 2175 2409 1742 
Q 1991 1309 1228 531 
z
" transform="scale(0.015625)"/>
       </defs>
       <use xlink:href="#DejaVuSans-32"/>
       <use xlink:href="#DejaVuSans-30" x="63.623047"/>
      </g>
     </g>
    </g>
    <g id="xtick_4">
     <g id="line2d_7">
      <path d="M 468.62415 506.16 
L 468.62415 7.2 
" clip-path="url(#p938f279ee0)" style="fill: none; stroke-dasharray: 1.85,0.8; stroke-dashoffset: 0; stroke: #b0b0b0; stroke-width: 0.5"/>
     </g>
     <g id="line2d_8">
      <g>
       <use xlink:href="#m5425011dab" x="468.62415" y="506.16" style="stroke: #000000; stroke-width: 0.8"/>
      </g>
     </g>
     <g id="text_4">
      <!-- 30 -->
      <g transform="translate(457.17165 526.837188) scale(0.18 -0.18)">
       <defs>
        <path id="DejaVuSans-33" d="M 2597 2516 
Q 3050 2419 3304 2112 
Q 3559 1806 3559 1356 
Q 3559 666 3084 287 
Q 2609 -91 1734 -91 
Q 1441 -91 1130 -33 
Q 819 25 488 141 
L 488 750 
Q 750 597 1062 519 
Q 1375 441 1716 441 
Q 2309 441 2620 675 
Q 2931 909 2931 1356 
Q 2931 1769 2642 2001 
Q 2353 2234 1838 2234 
L 1294 2234 
L 1294 2753 
L 1863 2753 
Q 2328 2753 2575 2939 
Q 2822 3125 2822 3475 
Q 2822 3834 2567 4026 
Q 2313 4219 1838 4219 
Q 1578 4219 1281 4162 
Q 984 4106 628 3988 
L 628 4550 
Q 988 4650 1302 4700 
Q 1616 4750 1894 4750 
Q 2613 4750 3031 4423 
Q 3450 4097 3450 3541 
Q 3450 3153 3228 2886 
Q 3006 2619 2597 2516 
z
" transform="scale(0.015625)"/>
       </defs>
       <use xlink:href="#DejaVuSans-33"/>
       <use xlink:href="#DejaVuSans-30" x="63.623047"/>
      </g>
     </g>
    </g>
    <g id="xtick_5">
     <g id="line2d_9">
      <path d="M 592.854206 506.16 
L 592.854206 7.2 
" clip-path="url(#p938f279ee0)" style="fill: none; stroke-dasharray: 1.85,0.8; stroke-dashoffset: 0; stroke: #b0b0b0; stroke-width: 0.5"/>
     </g>
     <g id="line2d_10">
      <g>
       <use xlink:href="#m5425011dab" x="592.854206" y="506.16" style="stroke: #000000; stroke-width: 0.8"/>
      </g>
     </g>
     <g id="text_5">
      <!-- 40 -->
      <g transform="translate(581.401706 526.837188) scale(0.18 -0.18)">
       <defs>
        <path id="DejaVuSans-34" d="M 2419 4116 
L 825 1625 
L 2419 1625 
L 2419 4116 
z
M 2253 4666 
L 3047 4666 
L 3047 1625 
L 3713 1625 
L 3713 1100 
L 3047 1100 
L 3047 0 
L 2419 0 
L 2419 1100 
L 313 1100 
L 313 1709 
L 2253 4666 
z
" transform="scale(0.015625)"/>
       </defs>
       <use xlink:href="#DejaVuSans-34"/>
       <use xlink:href="#DejaVuSans-30" x="63.623047"/>
      </g>
     </g>
    </g>
    <g id="xtick_6">
     <g id="line2d_11">
      <path d="M 717.084261 506.16 
L 717.084261 7.2 
" clip-path="url(#p938f279ee0)" style="fill: none; stroke-dasharray: 1.85,0.8; stroke-dashoffset: 0; stroke: #b0b0b0; stroke-width: 0.5"/>
     </g>
     <g id="line2d_12">
      <g>
       <use xlink:href="#m5425011dab" x="717.084261" y="506.16" style="stroke: #000000; stroke-width: 0.8"/>
      </g>
     </g>
     <g id="text_6">
      <!-- 50 -->
      <g transform="translate(705.631761 526.837188) scale(0.18 -0.18)">
       <defs>
        <path id="DejaVuSans-35" d="M 691 4666 
L 3169 4666 
L 3169 4134 
L 1269 4134 
L 1269 2991 
Q 1406 3038 1543 3061 
Q 1681 3084 1819 3084 
Q 2600 3084 3056 2656 
Q 3513 2228 3513 1497 
Q 3513 744 3044 326 
Q 2575 -91 1722 -91 
Q 1428 -91 1123 -41 
Q 819 9 494 109 
L 494 744 
Q 775 591 1075 516 
Q 1375 441 1709 441 
Q 2250 441 2565 725 
Q 2881 1009 2881 1497 
Q 2881 1984 2565 2268 
Q 2250 2553 1709 2553 
Q 1456 2553 1204 2497 
Q 953 2441 691 2322 
L 691 4666 
z
" transform="scale(0.015625)"/>
       </defs>
       <use xlink:href="#DejaVuSans-35"/>
       <use xlink:href="#DejaVuSans-30" x="63.623047"/>
      </g>
     </g>
    </g>
    <g id="text_7">
     <!-- Decision Round -->
     <g transform="translate(343.067656 548.257813) scale(0.18 -0.18)">
      <defs>
       <path id="DejaVuSans-44" d="M 1259 4147 
L 1259 519 
L 2022 519 
Q 2988 519 3436 956 
Q 3884 1394 3884 2338 
Q 3884 3275 3436 3711 
Q 2988 4147 2022 4147 
L 1259 4147 
z
M 628 4666 
L 1925 4666 
Q 3281 4666 3915 4102 
Q 4550 3538 4550 2338 
Q 4550 1131 3912 565 
Q 3275 0 1925 0 
L 628 0 
L 628 4666 
z
" transform="scale(0.015625)"/>
       <path id="DejaVuSans-65" d="M 3597 1894 
L 3597 1613 
L 953 1613 
Q 991 1019 1311 708 
Q 1631 397 2203 397 
Q 2534 397 2845 478 
Q 3156 559 3463 722 
L 3463 178 
Q 3153 47 2828 -22 
Q 2503 -91 2169 -91 
Q 1331 -91 842 396 
Q 353 884 353 1716 
Q 353 2575 817 3079 
Q 1281 3584 2069 3584 
Q 2775 3584 3186 3129 
Q 3597 2675 3597 1894 
z
M 3022 2063 
Q 3016 2534 2758 2815 
Q 2500 3097 2075 3097 
Q 1594 3097 1305 2825 
Q 1016 2553 972 2059 
L 3022 2063 
z
" transform="scale(0.015625)"/>
       <path id="DejaVuSans-63" d="M 3122 3366 
L 3122 2828 
Q 2878 2963 2633 3030 
Q 2388 3097 2138 3097 
Q 1578 3097 1268 2742 
Q 959 2388 959 1747 
Q 959 1106 1268 751 
Q 1578 397 2138 397 
Q 2388 397 2633 464 
Q 2878 531 3122 666 
L 3122 134 
Q 2881 22 2623 -34 
Q 2366 -91 2075 -91 
Q 1284 -91 818 406 
Q 353 903 353 1747 
Q 353 2603 823 3093 
Q 1294 3584 2113 3584 
Q 2378 3584 2631 3529 
Q 2884 3475 3122 3366 
z
" transform="scale(0.015625)"/>
       <path id="DejaVuSans-69" d="M 603 3500 
L 1178 3500 
L 1178 0 
L 603 0 
L 603 3500 
z
M 603 4863 
L 1178 4863 
L 1178 4134 
L 603 4134 
L 603 4863 
z
" transform="scale(0.015625)"/>
       <path id="DejaVuSans-73" d="M 2834 3397 
L 2834 2853 
Q 2591 2978 2328 3040 
Q 2066 3103 1784 3103 
Q 1356 3103 1142 2972 
Q 928 2841 928 2578 
Q 928 2378 1081 2264 
Q 1234 2150 1697 2047 
L 1894 2003 
Q 2506 1872 2764 1633 
Q 3022 1394 3022 966 
Q 3022 478 2636 193 
Q 2250 -91 1575 -91 
Q 1294 -91 989 -36 
Q 684 19 347 128 
L 347 722 
Q 666 556 975 473 
Q 1284 391 1588 391 
Q 1994 391 2212 530 
Q 2431 669 2431 922 
Q 2431 1156 2273 1281 
Q 2116 1406 1581 1522 
L 1381 1569 
Q 847 1681 609 1914 
Q 372 2147 372 2553 
Q 372 3047 722 3315 
Q 1072 3584 1716 3584 
Q 2034 3584 2315 3537 
Q 2597 3491 2834 3397 
z
" transform="scale(0.015625)"/>
       <path id="DejaVuSans-6f" d="M 1959 3097 
Q 1497 3097 1228 2736 
Q 959 2375 959 1747 
Q 959 1119 1226 758 
Q 1494 397 1959 397 
Q 2419 397 2687 759 
Q 2956 1122 2956 1747 
Q 2956 2369 2687 2733 
Q 2419 3097 1959 3097 
z
M 1959 3584 
Q 2709 3584 3137 3096 
Q 3566 2609 3566 1747 
Q 3566 888 3137 398 
Q 2709 -91 1959 -91 
Q 1206 -91 779 398 
Q 353 888 353 1747 
Q 353 2609 779 3096 
Q 1206 3584 1959 3584 
z
" transform="scale(0.015625)"/>
       <path id="DejaVuSans-6e" d="M 3513 2113 
L 3513 0 
L 2938 0 
L 2938 2094 
Q 2938 2591 2744 2837 
Q 2550 3084 2163 3084 
Q 1697 3084 1428 2787 
Q 1159 2491 1159 1978 
L 1159 0 
L 581 0 
L 581 3500 
L 1159 3500 
L 1159 2956 
Q 1366 3272 1645 3428 
Q 1925 3584 2291 3584 
Q 2894 3584 3203 3211 
Q 3513 2838 3513 2113 
z
" transform="scale(0.015625)"/>
       <path id="DejaVuSans-20" transform="scale(0.015625)"/>
       <path id="DejaVuSans-52" d="M 2841 2188 
Q 3044 2119 3236 1894 
Q 3428 1669 3622 1275 
L 4263 0 
L 3584 0 
L 2988 1197 
Q 2756 1666 2539 1819 
Q 2322 1972 1947 1972 
L 1259 1972 
L 1259 0 
L 628 0 
L 628 4666 
L 2053 4666 
Q 2853 4666 3247 4331 
Q 3641 3997 3641 3322 
Q 3641 2881 3436 2590 
Q 3231 2300 2841 2188 
z
M 1259 4147 
L 1259 2491 
L 2053 2491 
Q 2509 2491 2742 2702 
Q 2975 2913 2975 3322 
Q 2975 3731 2742 3939 
Q 2509 4147 2053 4147 
L 1259 4147 
z
" transform="scale(0.015625)"/>
       <path id="DejaVuSans-75" d="M 544 1381 
L 544 3500 
L 1119 3500 
L 1119 1403 
Q 1119 906 1312 657 
Q 1506 409 1894 409 
Q 2359 409 2629 706 
Q 2900 1003 2900 1516 
L 2900 3500 
L 3475 3500 
L 3475 0 
L 2900 0 
L 2900 538 
Q 2691 219 2414 64 
Q 2138 -91 1772 -91 
Q 1169 -91 856 284 
Q 544 659 544 1381 
z
M 1991 3584 
L 1991 3584 
z
" transform="scale(0.015625)"/>
       <path id="DejaVuSans-64" d="M 2906 2969 
L 2906 4863 
L 3481 4863 
L 3481 0 
L 2906 0 
L 2906 525 
Q 2725 213 2448 61 
Q 2172 -91 1784 -91 
Q 1150 -91 751 415 
Q 353 922 353 1747 
Q 353 2572 751 3078 
Q 1150 3584 1784 3584 
Q 2172 3584 2448 3432 
Q 2725 3281 2906 2969 
z
M 947 1747 
Q 947 1113 1208 752 
Q 1469 391 1925 391 
Q 2381 391 2643 752 
Q 2906 1113 2906 1747 
Q 2906 2381 2643 2742 
Q 2381 3103 1925 3103 
Q 1469 3103 1208 2742 
Q 947 2381 947 1747 
z
" transform="scale(0.015625)"/>
      </defs>
      <use xlink:href="#DejaVuSans-44"/>
      <use xlink:href="#DejaVuSans-65" x="77.001953"/>
      <use xlink:href="#DejaVuSans-63" x="138.525391"/>
      <use xlink:href="#DejaVuSans-69" x="193.505859"/>
      <use xlink:href="#DejaVuSans-73" x="221.289062"/>
      <use xlink:href="#DejaVuSans-69" x="273.388672"/>
      <use xlink:href="#DejaVuSans-6f" x="301.171875"/>
      <use xlink:href="#DejaVuSans-6e" x="362.353516"/>
      <use xlink:href="#DejaVuSans-20" x="425.732422"/>
      <use xlink:href="#DejaVuSans-52" x="457.519531"/>
      <use xlink:href="#DejaVuSans-6f" x="522.501953"/>
      <use xlink:href="#DejaVuSans-75" x="583.683594"/>
      <use xlink:href="#DejaVuSans-6e" x="647.0625"/>
      <use xlink:href="#DejaVuSans-64" x="710.441406"/>
     </g>
    </g>
   </g>
   <g id="matplotlib.axis_2">
    <g id="ytick_1">
     <g id="line2d_13">
      <path d="M 77.920625 455.896455 
L 747.520625 455.896455 
" clip-path="url(#p938f279ee0)" style="fill: none; stroke-dasharray: 1.85,0.8; stroke-dashoffset: 0; stroke: #b0b0b0; stroke-width: 0.5"/>
     </g>
     <g id="line2d_14">
      <defs>
       <path id="m2203220fb7" d="M 0 0 
L -3.5 0 
" style="stroke: #000000; stroke-width: 0.8"/>
      </defs>
      <g>
       <use xlink:href="#m2203220fb7" x="77.920625" y="455.896455" style="stroke: #000000; stroke-width: 0.8"/>
      </g>
     </g>
     <g id="text_8">
      <!-- $\mathdefault{10^{-3}}$ -->
      <g transform="translate(28.620625 462.735049) scale(0.18 -0.18)">
       <defs>
        <path id="DejaVuSans-2212" d="M 678 2272 
L 4684 2272 
L 4684 1741 
L 678 1741 
L 678 2272 
z
" transform="scale(0.015625)"/>
       </defs>
       <use xlink:href="#DejaVuSans-31" transform="translate(0 0.765625)"/>
       <use xlink:href="#DejaVuSans-30" transform="translate(63.623047 0.765625)"/>
       <use xlink:href="#DejaVuSans-2212" transform="translate(128.203125 39.046875) scale(0.7)"/>
       <use xlink:href="#DejaVuSans-33" transform="translate(186.855469 39.046875) scale(0.7)"/>
      </g>
     </g>
    </g>
    <g id="ytick_2">
     <g id="line2d_15">
      <path d="M 77.920625 358.973163 
L 747.520625 358.973163 
" clip-path="url(#p938f279ee0)" style="fill: none; stroke-dasharray: 1.85,0.8; stroke-dashoffset: 0; stroke: #b0b0b0; stroke-width: 0.5"/>
     </g>
     <g id="line2d_16">
      <g>
       <use xlink:href="#m2203220fb7" x="77.920625" y="358.973163" style="stroke: #000000; stroke-width: 0.8"/>
      </g>
     </g>
     <g id="text_9">
      <!-- $\mathdefault{10^{-2}}$ -->
      <g transform="translate(28.620625 365.811757) scale(0.18 -0.18)">
       <use xlink:href="#DejaVuSans-31" transform="translate(0 0.765625)"/>
       <use xlink:href="#DejaVuSans-30" transform="translate(63.623047 0.765625)"/>
       <use xlink:href="#DejaVuSans-2212" transform="translate(128.203125 39.046875) scale(0.7)"/>
       <use xlink:href="#DejaVuSans-32" transform="translate(186.855469 39.046875) scale(0.7)"/>
      </g>
     </g>
    </g>
    <g id="ytick_3">
     <g id="line2d_17">
      <path d="M 77.920625 262.049872 
L 747.520625 262.049872 
" clip-path="url(#p938f279ee0)" style="fill: none; stroke-dasharray: 1.85,0.8; stroke-dashoffset: 0; stroke: #b0b0b0; stroke-width: 0.5"/>
     </g>
     <g id="line2d_18">
      <g>
       <use xlink:href="#m2203220fb7" x="77.920625" y="262.049872" style="stroke: #000000; stroke-width: 0.8"/>
      </g>
     </g>
     <g id="text_10">
      <!-- $\mathdefault{10^{-1}}$ -->
      <g transform="translate(28.620625 268.888465) scale(0.18 -0.18)">
       <use xlink:href="#DejaVuSans-31" transform="translate(0 0.684375)"/>
       <use xlink:href="#DejaVuSans-30" transform="translate(63.623047 0.684375)"/>
       <use xlink:href="#DejaVuSans-2212" transform="translate(128.203125 38.965625) scale(0.7)"/>
       <use xlink:href="#DejaVuSans-31" transform="translate(186.855469 38.965625) scale(0.7)"/>
      </g>
     </g>
    </g>
    <g id="ytick_4">
     <g id="line2d_19">
      <path d="M 77.920625 165.12658 
L 747.520625 165.12658 
" clip-path="url(#p938f279ee0)" style="fill: none; stroke-dasharray: 1.85,0.8; stroke-dashoffset: 0; stroke: #b0b0b0; stroke-width: 0.5"/>
     </g>
     <g id="line2d_20">
      <g>
       <use xlink:href="#m2203220fb7" x="77.920625" y="165.12658" style="stroke: #000000; stroke-width: 0.8"/>
      </g>
     </g>
     <g id="text_11">
      <!-- $\mathdefault{10^{0}}$ -->
      <g transform="translate(39.240625 171.965174) scale(0.18 -0.18)">
       <use xlink:href="#DejaVuSans-31" transform="translate(0 0.765625)"/>
       <use xlink:href="#DejaVuSans-30" transform="translate(63.623047 0.765625)"/>
       <use xlink:href="#DejaVuSans-30" transform="translate(128.203125 39.046875) scale(0.7)"/>
      </g>
     </g>
    </g>
    <g id="ytick_5">
     <g id="line2d_21">
      <path d="M 77.920625 68.203288 
L 747.520625 68.203288 
" clip-path="url(#p938f279ee0)" style="fill: none; stroke-dasharray: 1.85,0.8; stroke-dashoffset: 0; stroke: #b0b0b0; stroke-width: 0.5"/>
     </g>
     <g id="line2d_22">
      <g>
       <use xlink:href="#m2203220fb7" x="77.920625" y="68.203288" style="stroke: #000000; stroke-width: 0.8"/>
      </g>
     </g>
     <g id="text_12">
      <!-- $\mathdefault{10^{1}}$ -->
      <g transform="translate(39.240625 75.041882) scale(0.18 -0.18)">
       <use xlink:href="#DejaVuSans-31" transform="translate(0 0.684375)"/>
       <use xlink:href="#DejaVuSans-30" transform="translate(63.623047 0.684375)"/>
       <use xlink:href="#DejaVuSans-31" transform="translate(128.203125 38.965625) scale(0.7)"/>
      </g>
     </g>
    </g>
    <g id="ytick_6">
     <g id="line2d_23">
      <defs>
       <path id="m90441cd358" d="M 0 0 
L -2 0 
" style="stroke: #000000; stroke-width: 0.6"/>
      </defs>
      <g>
       <use xlink:href="#m90441cd358" x="77.920625" y="494.46611" style="stroke: #000000; stroke-width: 0.6"/>
      </g>
     </g>
    </g>
    <g id="ytick_7">
     <g id="line2d_24">
      <g>
       <use xlink:href="#m90441cd358" x="77.920625" y="485.073273" style="stroke: #000000; stroke-width: 0.6"/>
      </g>
     </g>
    </g>
    <g id="ytick_8">
     <g id="line2d_25">
      <g>
       <use xlink:href="#m90441cd358" x="77.920625" y="477.398766" style="stroke: #000000; stroke-width: 0.6"/>
      </g>
     </g>
    </g>
    <g id="ytick_9">
     <g id="line2d_26">
      <g>
       <use xlink:href="#m90441cd358" x="77.920625" y="470.910063" style="stroke: #000000; stroke-width: 0.6"/>
      </g>
     </g>
    </g>
    <g id="ytick_10">
     <g id="line2d_27">
      <g>
       <use xlink:href="#m90441cd358" x="77.920625" y="465.289292" style="stroke: #000000; stroke-width: 0.6"/>
      </g>
     </g>
    </g>
    <g id="ytick_11">
     <g id="line2d_28">
      <g>
       <use xlink:href="#m90441cd358" x="77.920625" y="460.331421" style="stroke: #000000; stroke-width: 0.6"/>
      </g>
     </g>
    </g>
    <g id="ytick_12">
     <g id="line2d_29">
      <g>
       <use xlink:href="#m90441cd358" x="77.920625" y="426.719637" style="stroke: #000000; stroke-width: 0.6"/>
      </g>
     </g>
    </g>
    <g id="ytick_13">
     <g id="line2d_30">
      <g>
       <use xlink:href="#m90441cd358" x="77.920625" y="409.652292" style="stroke: #000000; stroke-width: 0.6"/>
      </g>
     </g>
    </g>
    <g id="ytick_14">
     <g id="line2d_31">
      <g>
       <use xlink:href="#m90441cd358" x="77.920625" y="397.542819" style="stroke: #000000; stroke-width: 0.6"/>
      </g>
     </g>
    </g>
    <g id="ytick_15">
     <g id="line2d_32">
      <g>
       <use xlink:href="#m90441cd358" x="77.920625" y="388.149981" style="stroke: #000000; stroke-width: 0.6"/>
      </g>
     </g>
    </g>
    <g id="ytick_16">
     <g id="line2d_33">
      <g>
       <use xlink:href="#m90441cd358" x="77.920625" y="380.475474" style="stroke: #000000; stroke-width: 0.6"/>
      </g>
     </g>
    </g>
    <g id="ytick_17">
     <g id="line2d_34">
      <g>
       <use xlink:href="#m90441cd358" x="77.920625" y="373.986771" style="stroke: #000000; stroke-width: 0.6"/>
      </g>
     </g>
    </g>
    <g id="ytick_18">
     <g id="line2d_35">
      <g>
       <use xlink:href="#m90441cd358" x="77.920625" y="368.366001" style="stroke: #000000; stroke-width: 0.6"/>
      </g>
     </g>
    </g>
    <g id="ytick_19">
     <g id="line2d_36">
      <g>
       <use xlink:href="#m90441cd358" x="77.920625" y="363.40813" style="stroke: #000000; stroke-width: 0.6"/>
      </g>
     </g>
    </g>
    <g id="ytick_20">
     <g id="line2d_37">
      <g>
       <use xlink:href="#m90441cd358" x="77.920625" y="329.796345" style="stroke: #000000; stroke-width: 0.6"/>
      </g>
     </g>
    </g>
    <g id="ytick_21">
     <g id="line2d_38">
      <g>
       <use xlink:href="#m90441cd358" x="77.920625" y="312.729001" style="stroke: #000000; stroke-width: 0.6"/>
      </g>
     </g>
    </g>
    <g id="ytick_22">
     <g id="line2d_39">
      <g>
       <use xlink:href="#m90441cd358" x="77.920625" y="300.619527" style="stroke: #000000; stroke-width: 0.6"/>
      </g>
     </g>
    </g>
    <g id="ytick_23">
     <g id="line2d_40">
      <g>
       <use xlink:href="#m90441cd358" x="77.920625" y="291.22669" style="stroke: #000000; stroke-width: 0.6"/>
      </g>
     </g>
    </g>
    <g id="ytick_24">
     <g id="line2d_41">
      <g>
       <use xlink:href="#m90441cd358" x="77.920625" y="283.552183" style="stroke: #000000; stroke-width: 0.6"/>
      </g>
     </g>
    </g>
    <g id="ytick_25">
     <g id="line2d_42">
      <g>
       <use xlink:href="#m90441cd358" x="77.920625" y="277.063479" style="stroke: #000000; stroke-width: 0.6"/>
      </g>
     </g>
    </g>
    <g id="ytick_26">
     <g id="line2d_43">
      <g>
       <use xlink:href="#m90441cd358" x="77.920625" y="271.442709" style="stroke: #000000; stroke-width: 0.6"/>
      </g>
     </g>
    </g>
    <g id="ytick_27">
     <g id="line2d_44">
      <g>
       <use xlink:href="#m90441cd358" x="77.920625" y="266.484838" style="stroke: #000000; stroke-width: 0.6"/>
      </g>
     </g>
    </g>
    <g id="ytick_28">
     <g id="line2d_45">
      <g>
       <use xlink:href="#m90441cd358" x="77.920625" y="232.873053" style="stroke: #000000; stroke-width: 0.6"/>
      </g>
     </g>
    </g>
    <g id="ytick_29">
     <g id="line2d_46">
      <g>
       <use xlink:href="#m90441cd358" x="77.920625" y="215.805709" style="stroke: #000000; stroke-width: 0.6"/>
      </g>
     </g>
    </g>
    <g id="ytick_30">
     <g id="line2d_47">
      <g>
       <use xlink:href="#m90441cd358" x="77.920625" y="203.696235" style="stroke: #000000; stroke-width: 0.6"/>
      </g>
     </g>
    </g>
    <g id="ytick_31">
     <g id="line2d_48">
      <g>
       <use xlink:href="#m90441cd358" x="77.920625" y="194.303398" style="stroke: #000000; stroke-width: 0.6"/>
      </g>
     </g>
    </g>
    <g id="ytick_32">
     <g id="line2d_49">
      <g>
       <use xlink:href="#m90441cd358" x="77.920625" y="186.628891" style="stroke: #000000; stroke-width: 0.6"/>
      </g>
     </g>
    </g>
    <g id="ytick_33">
     <g id="line2d_50">
      <g>
       <use xlink:href="#m90441cd358" x="77.920625" y="180.140188" style="stroke: #000000; stroke-width: 0.6"/>
      </g>
     </g>
    </g>
    <g id="ytick_34">
     <g id="line2d_51">
      <g>
       <use xlink:href="#m90441cd358" x="77.920625" y="174.519417" style="stroke: #000000; stroke-width: 0.6"/>
      </g>
     </g>
    </g>
    <g id="ytick_35">
     <g id="line2d_52">
      <g>
       <use xlink:href="#m90441cd358" x="77.920625" y="169.561546" style="stroke: #000000; stroke-width: 0.6"/>
      </g>
     </g>
    </g>
    <g id="ytick_36">
     <g id="line2d_53">
      <g>
       <use xlink:href="#m90441cd358" x="77.920625" y="135.949762" style="stroke: #000000; stroke-width: 0.6"/>
      </g>
     </g>
    </g>
    <g id="ytick_37">
     <g id="line2d_54">
      <g>
       <use xlink:href="#m90441cd358" x="77.920625" y="118.882417" style="stroke: #000000; stroke-width: 0.6"/>
      </g>
     </g>
    </g>
    <g id="ytick_38">
     <g id="line2d_55">
      <g>
       <use xlink:href="#m90441cd358" x="77.920625" y="106.772944" style="stroke: #000000; stroke-width: 0.6"/>
      </g>
     </g>
    </g>
    <g id="ytick_39">
     <g id="line2d_56">
      <g>
       <use xlink:href="#m90441cd358" x="77.920625" y="97.380106" style="stroke: #000000; stroke-width: 0.6"/>
      </g>
     </g>
    </g>
    <g id="ytick_40">
     <g id="line2d_57">
      <g>
       <use xlink:href="#m90441cd358" x="77.920625" y="89.705599" style="stroke: #000000; stroke-width: 0.6"/>
      </g>
     </g>
    </g>
    <g id="ytick_41">
     <g id="line2d_58">
      <g>
       <use xlink:href="#m90441cd358" x="77.920625" y="83.216896" style="stroke: #000000; stroke-width: 0.6"/>
      </g>
     </g>
    </g>
    <g id="ytick_42">
     <g id="line2d_59">
      <g>
       <use xlink:href="#m90441cd358" x="77.920625" y="77.596126" style="stroke: #000000; stroke-width: 0.6"/>
      </g>
     </g>
    </g>
    <g id="ytick_43">
     <g id="line2d_60">
      <g>
       <use xlink:href="#m90441cd358" x="77.920625" y="72.638255" style="stroke: #000000; stroke-width: 0.6"/>
      </g>
     </g>
    </g>
    <g id="ytick_44">
     <g id="line2d_61">
      <g>
       <use xlink:href="#m90441cd358" x="77.920625" y="39.02647" style="stroke: #000000; stroke-width: 0.6"/>
      </g>
     </g>
    </g>
    <g id="ytick_45">
     <g id="line2d_62">
      <g>
       <use xlink:href="#m90441cd358" x="77.920625" y="21.959126" style="stroke: #000000; stroke-width: 0.6"/>
      </g>
     </g>
    </g>
    <g id="ytick_46">
     <g id="line2d_63">
      <g>
       <use xlink:href="#m90441cd358" x="77.920625" y="9.849652" style="stroke: #000000; stroke-width: 0.6"/>
      </g>
     </g>
    </g>
    <g id="text_13">
     <!-- Runtime -->
     <g transform="translate(20.877188 294.269063) rotate(-90) scale(0.18 -0.18)">
      <defs>
       <path id="DejaVuSans-74" d="M 1172 4494 
L 1172 3500 
L 2356 3500 
L 2356 3053 
L 1172 3053 
L 1172 1153 
Q 1172 725 1289 603 
Q 1406 481 1766 481 
L 2356 481 
L 2356 0 
L 1766 0 
Q 1100 0 847 248 
Q 594 497 594 1153 
L 594 3053 
L 172 3053 
L 172 3500 
L 594 3500 
L 594 4494 
L 1172 4494 
z
" transform="scale(0.015625)"/>
       <path id="DejaVuSans-6d" d="M 3328 2828 
Q 3544 3216 3844 3400 
Q 4144 3584 4550 3584 
Q 5097 3584 5394 3201 
Q 5691 2819 5691 2113 
L 5691 0 
L 5113 0 
L 5113 2094 
Q 5113 2597 4934 2840 
Q 4756 3084 4391 3084 
Q 3944 3084 3684 2787 
Q 3425 2491 3425 1978 
L 3425 0 
L 2847 0 
L 2847 2094 
Q 2847 2600 2669 2842 
Q 2491 3084 2119 3084 
Q 1678 3084 1418 2786 
Q 1159 2488 1159 1978 
L 1159 0 
L 581 0 
L 581 3500 
L 1159 3500 
L 1159 2956 
Q 1356 3278 1631 3431 
Q 1906 3584 2284 3584 
Q 2666 3584 2933 3390 
Q 3200 3197 3328 2828 
z
" transform="scale(0.015625)"/>
      </defs>
      <use xlink:href="#DejaVuSans-52"/>
      <use xlink:href="#DejaVuSans-75" x="64.982422"/>
      <use xlink:href="#DejaVuSans-6e" x="128.361328"/>
      <use xlink:href="#DejaVuSans-74" x="191.740234"/>
      <use xlink:href="#DejaVuSans-69" x="230.949219"/>
      <use xlink:href="#DejaVuSans-6d" x="258.732422"/>
      <use xlink:href="#DejaVuSans-65" x="356.144531"/>
     </g>
    </g>
   </g>
   <g id="line2d_64">
    <path d="M 108.356989 391.416166 
L 120.779994 206.297592 
L 133.203 178.318079 
L 145.626005 156.262548 
L 158.049011 138.425344 
L 170.472016 126.484802 
L 182.895022 120.879548 
L 195.318028 115.397685 
L 207.741033 110.010869 
L 220.164039 106.906139 
L 232.587044 103.75999 
L 245.01005 100.528252 
L 257.433055 97.800218 
L 269.856061 94.784136 
L 282.279067 92.589659 
L 294.702072 90.808745 
L 307.125078 88.917646 
L 319.548083 87.298601 
L 331.971089 85.518027 
L 344.394094 83.746117 
L 356.8171 81.858701 
L 369.240106 79.858575 
L 381.663111 77.706378 
L 394.086117 75.860101 
L 406.509122 73.955999 
L 418.932128 72.095112 
L 431.355133 70.428758 
L 443.778139 68.6072 
L 456.201144 67.049432 
L 468.62415 65.673746 
L 481.047156 64.286183 
L 493.470161 62.595705 
L 505.893167 60.783311 
L 518.316172 59.142207 
L 530.739178 57.612099 
L 543.162183 56.042472 
L 555.585189 54.502111 
L 568.008195 53.139939 
L 580.4312 51.753172 
L 592.854206 50.454028 
L 605.277211 49.164941 
L 617.700217 47.654098 
L 630.123222 46.143809 
L 642.546228 44.750976 
L 654.969234 43.321999 
L 667.392239 42.004717 
L 679.815245 40.635794 
L 692.23825 39.35396 
L 704.661256 38.077017 
L 717.084261 36.835509 
" clip-path="url(#p938f279ee0)" style="fill: none; stroke: #ffff99; stroke-width: 1.5; stroke-linecap: square"/>
   </g>
   <g id="line2d_65">
    <path d="M 108.356989 398.756367 
L 120.779994 198.649164 
L 133.203 174.216432 
L 145.626005 153.786057 
L 158.049011 136.761234 
L 170.472016 125.234446 
L 182.895022 119.788176 
L 195.318028 114.388512 
L 207.741033 109.11887 
L 220.164039 106.18391 
L 232.587044 102.266186 
L 245.01005 97.847112 
L 257.433055 95.096617 
L 269.856061 91.778994 
L 282.279067 88.907663 
L 294.702072 86.89913 
L 307.125078 84.686001 
L 319.548083 82.974853 
L 331.971089 81.259456 
L 344.394094 79.689999 
L 356.8171 77.630449 
L 369.240106 75.669782 
L 381.663111 73.899023 
L 394.086117 72.08459 
L 406.509122 70.280993 
L 418.932128 68.612208 
L 431.355133 67.017737 
L 443.778139 65.432838 
L 456.201144 64.022796 
L 468.62415 62.614427 
L 481.047156 61.238364 
L 493.470161 59.544296 
L 505.893167 57.984574 
L 518.316172 56.358149 
L 530.739178 54.824617 
L 543.162183 53.374179 
L 555.585189 51.851831 
L 568.008195 50.46142 
L 580.4312 49.101489 
L 592.854206 47.848265 
L 605.277211 46.543232 
L 617.700217 45.085325 
L 630.123222 43.639467 
L 642.546228 42.228965 
L 654.969234 40.881322 
L 667.392239 39.557187 
L 679.815245 38.204234 
L 692.23825 36.985073 
L 704.661256 35.708925 
L 717.084261 34.49222 
" clip-path="url(#p938f279ee0)" style="fill: none; stroke: #386cb0; stroke-width: 1.5; stroke-linecap: square"/>
   </g>
   <g id="line2d_66">
    <path d="M 108.356989 388.962054 
L 120.779994 179.325512 
L 133.203 162.336438 
L 145.626005 146.128178 
L 158.049011 131.528793 
L 170.472016 125.676095 
L 182.895022 119.084329 
L 195.318028 114.343265 
L 207.741033 109.800338 
L 220.164039 107.239493 
L 232.587044 104.857861 
L 245.01005 102.816478 
L 257.433055 100.402666 
L 269.856061 97.52843 
L 282.279067 95.405108 
L 294.702072 93.885804 
L 307.125078 92.038872 
L 319.548083 90.836795 
L 331.971089 89.793516 
L 344.394094 88.268505 
L 356.8171 86.412904 
L 369.240106 85.407174 
L 381.663111 84.189994 
L 394.086117 82.748105 
L 406.509122 81.658254 
L 418.932128 80.872803 
L 431.355133 79.75199 
L 443.778139 78.702554 
L 456.201144 77.606766 
L 468.62415 76.797591 
L 481.047156 75.850269 
L 493.470161 74.979864 
L 505.893167 74.309221 
L 518.316172 73.730688 
L 530.739178 73.09566 
L 543.162183 72.459769 
L 555.585189 71.635358 
L 568.008195 70.826477 
L 580.4312 70.165962 
L 592.854206 69.166783 
L 605.277211 68.749302 
L 617.700217 68.155205 
L 630.123222 67.434674 
L 642.546228 66.901281 
L 654.969234 66.474212 
L 667.392239 65.993402 
L 679.815245 65.485865 
L 692.23825 64.999006 
L 704.661256 64.620472 
L 717.084261 64.051198 
" clip-path="url(#p938f279ee0)" style="fill: none; stroke: #f0027f; stroke-width: 1.5; stroke-linecap: square"/>
   </g>
   <g id="line2d_67">
    <path d="M 108.356989 175.945778 
L 120.779994 130.900962 
L 133.203 117.410263 
L 145.626005 108.876789 
L 158.049011 105.215533 
L 170.472016 101.946114 
L 182.895022 99.060821 
L 195.318028 96.714472 
L 207.741033 94.391217 
L 220.164039 92.260675 
L 232.587044 90.121944 
L 245.01005 88.060981 
L 257.433055 86.251427 
L 269.856061 84.543902 
L 282.279067 82.827464 
L 294.702072 81.190803 
L 307.125078 79.573179 
L 319.548083 78.052179 
L 331.971089 76.604665 
L 344.394094 75.167951 
L 356.8171 73.798464 
L 369.240106 71.894987 
L 381.663111 70.149231 
L 394.086117 68.497868 
L 406.509122 66.909445 
L 418.932128 65.379284 
L 431.355133 63.967281 
L 443.778139 62.513808 
L 456.201144 61.11676 
L 468.62415 59.83096 
L 481.047156 58.594382 
L 493.470161 57.351664 
L 505.893167 55.7996 
L 518.316172 54.32547 
L 530.739178 52.894565 
L 543.162183 51.489836 
L 555.585189 50.004587 
L 568.008195 48.662117 
L 580.4312 47.339497 
L 592.854206 46.080746 
L 605.277211 44.808791 
L 617.700217 43.603602 
L 630.123222 42.14987 
L 642.546228 40.785475 
L 654.969234 39.467191 
L 667.392239 38.170372 
L 679.815245 36.895447 
L 692.23825 35.69157 
L 704.661256 34.502891 
L 717.084261 33.324066 
" clip-path="url(#p938f279ee0)" style="fill: none; stroke: #bf5b17; stroke-width: 1.5; stroke-linecap: square"/>
   </g>
   <g id="patch_3">
    <path d="M 77.920625 506.16 
L 77.920625 7.2 
" style="fill: none; stroke: #000000; stroke-width: 0.8; stroke-linejoin: miter; stroke-linecap: square"/>
   </g>
   <g id="patch_4">
    <path d="M 747.520625 506.16 
L 747.520625 7.2 
" style="fill: none; stroke: #000000; stroke-width: 0.8; stroke-linejoin: miter; stroke-linecap: square"/>
   </g>
   <g id="patch_5">
    <path d="M 77.920625 506.16 
L 747.520625 506.16 
" style="fill: none; stroke: #000000; stroke-width: 0.8; stroke-linejoin: miter; stroke-linecap: square"/>
   </g>
   <g id="patch_6">
    <path d="M 77.920625 7.2 
L 747.520625 7.2 
" style="fill: none; stroke: #000000; stroke-width: 0.8; stroke-linejoin: miter; stroke-linecap: square"/>
   </g>
   <g id="legend_1">
    <g id="patch_7">
     <path d="M 456.975313 497.16 
L 734.920625 497.16 
Q 738.520625 497.16 738.520625 493.56 
L 738.520625 389.6775 
Q 738.520625 386.0775 734.920625 386.0775 
L 456.975313 386.0775 
Q 453.375313 386.0775 453.375313 389.6775 
L 453.375313 493.56 
Q 453.375313 497.16 456.975313 497.16 
z
" style="fill: #ffffff; opacity: 0.8; stroke: #cccccc; stroke-linejoin: miter"/>
    </g>
    <g id="line2d_68">
     <path d="M 460.575313 400.654688 
L 478.575313 400.654688 
L 496.575313 400.654688 
" style="fill: none; stroke: #ffff99; stroke-width: 1.5; stroke-linecap: square"/>
    </g>
    <g id="text_14">
     <!-- Hybrid-MBTL-new (Ours) -->
     <g transform="translate(510.975313 406.954688) scale(0.18 -0.18)">
      <defs>
       <path id="DejaVuSans-48" d="M 628 4666 
L 1259 4666 
L 1259 2753 
L 3553 2753 
L 3553 4666 
L 4184 4666 
L 4184 0 
L 3553 0 
L 3553 2222 
L 1259 2222 
L 1259 0 
L 628 0 
L 628 4666 
z
" transform="scale(0.015625)"/>
       <path id="DejaVuSans-79" d="M 2059 -325 
Q 1816 -950 1584 -1140 
Q 1353 -1331 966 -1331 
L 506 -1331 
L 506 -850 
L 844 -850 
Q 1081 -850 1212 -737 
Q 1344 -625 1503 -206 
L 1606 56 
L 191 3500 
L 800 3500 
L 1894 763 
L 2988 3500 
L 3597 3500 
L 2059 -325 
z
" transform="scale(0.015625)"/>
       <path id="DejaVuSans-62" d="M 3116 1747 
Q 3116 2381 2855 2742 
Q 2594 3103 2138 3103 
Q 1681 3103 1420 2742 
Q 1159 2381 1159 1747 
Q 1159 1113 1420 752 
Q 1681 391 2138 391 
Q 2594 391 2855 752 
Q 3116 1113 3116 1747 
z
M 1159 2969 
Q 1341 3281 1617 3432 
Q 1894 3584 2278 3584 
Q 2916 3584 3314 3078 
Q 3713 2572 3713 1747 
Q 3713 922 3314 415 
Q 2916 -91 2278 -91 
Q 1894 -91 1617 61 
Q 1341 213 1159 525 
L 1159 0 
L 581 0 
L 581 4863 
L 1159 4863 
L 1159 2969 
z
" transform="scale(0.015625)"/>
       <path id="DejaVuSans-72" d="M 2631 2963 
Q 2534 3019 2420 3045 
Q 2306 3072 2169 3072 
Q 1681 3072 1420 2755 
Q 1159 2438 1159 1844 
L 1159 0 
L 581 0 
L 581 3500 
L 1159 3500 
L 1159 2956 
Q 1341 3275 1631 3429 
Q 1922 3584 2338 3584 
Q 2397 3584 2469 3576 
Q 2541 3569 2628 3553 
L 2631 2963 
z
" transform="scale(0.015625)"/>
       <path id="DejaVuSans-2d" d="M 313 2009 
L 1997 2009 
L 1997 1497 
L 313 1497 
L 313 2009 
z
" transform="scale(0.015625)"/>
       <path id="DejaVuSans-4d" d="M 628 4666 
L 1569 4666 
L 2759 1491 
L 3956 4666 
L 4897 4666 
L 4897 0 
L 4281 0 
L 4281 4097 
L 3078 897 
L 2444 897 
L 1241 4097 
L 1241 0 
L 628 0 
L 628 4666 
z
" transform="scale(0.015625)"/>
       <path id="DejaVuSans-42" d="M 1259 2228 
L 1259 519 
L 2272 519 
Q 2781 519 3026 730 
Q 3272 941 3272 1375 
Q 3272 1813 3026 2020 
Q 2781 2228 2272 2228 
L 1259 2228 
z
M 1259 4147 
L 1259 2741 
L 2194 2741 
Q 2656 2741 2882 2914 
Q 3109 3088 3109 3444 
Q 3109 3797 2882 3972 
Q 2656 4147 2194 4147 
L 1259 4147 
z
M 628 4666 
L 2241 4666 
Q 2963 4666 3353 4366 
Q 3744 4066 3744 3513 
Q 3744 3084 3544 2831 
Q 3344 2578 2956 2516 
Q 3422 2416 3680 2098 
Q 3938 1781 3938 1306 
Q 3938 681 3513 340 
Q 3088 0 2303 0 
L 628 0 
L 628 4666 
z
" transform="scale(0.015625)"/>
       <path id="DejaVuSans-54" d="M -19 4666 
L 3928 4666 
L 3928 4134 
L 2272 4134 
L 2272 0 
L 1638 0 
L 1638 4134 
L -19 4134 
L -19 4666 
z
" transform="scale(0.015625)"/>
       <path id="DejaVuSans-4c" d="M 628 4666 
L 1259 4666 
L 1259 531 
L 3531 531 
L 3531 0 
L 628 0 
L 628 4666 
z
" transform="scale(0.015625)"/>
       <path id="DejaVuSans-77" d="M 269 3500 
L 844 3500 
L 1563 769 
L 2278 3500 
L 2956 3500 
L 3675 769 
L 4391 3500 
L 4966 3500 
L 4050 0 
L 3372 0 
L 2619 2869 
L 1863 0 
L 1184 0 
L 269 3500 
z
" transform="scale(0.015625)"/>
       <path id="DejaVuSans-28" d="M 1984 4856 
Q 1566 4138 1362 3434 
Q 1159 2731 1159 2009 
Q 1159 1288 1364 580 
Q 1569 -128 1984 -844 
L 1484 -844 
Q 1016 -109 783 600 
Q 550 1309 550 2009 
Q 550 2706 781 3412 
Q 1013 4119 1484 4856 
L 1984 4856 
z
" transform="scale(0.015625)"/>
       <path id="DejaVuSans-4f" d="M 2522 4238 
Q 1834 4238 1429 3725 
Q 1025 3213 1025 2328 
Q 1025 1447 1429 934 
Q 1834 422 2522 422 
Q 3209 422 3611 934 
Q 4013 1447 4013 2328 
Q 4013 3213 3611 3725 
Q 3209 4238 2522 4238 
z
M 2522 4750 
Q 3503 4750 4090 4092 
Q 4678 3434 4678 2328 
Q 4678 1225 4090 567 
Q 3503 -91 2522 -91 
Q 1538 -91 948 565 
Q 359 1222 359 2328 
Q 359 3434 948 4092 
Q 1538 4750 2522 4750 
z
" transform="scale(0.015625)"/>
       <path id="DejaVuSans-29" d="M 513 4856 
L 1013 4856 
Q 1481 4119 1714 3412 
Q 1947 2706 1947 2009 
Q 1947 1309 1714 600 
Q 1481 -109 1013 -844 
L 513 -844 
Q 928 -128 1133 580 
Q 1338 1288 1338 2009 
Q 1338 2731 1133 3434 
Q 928 4138 513 4856 
z
" transform="scale(0.015625)"/>
      </defs>
      <use xlink:href="#DejaVuSans-48"/>
      <use xlink:href="#DejaVuSans-79" x="75.195312"/>
      <use xlink:href="#DejaVuSans-62" x="134.375"/>
      <use xlink:href="#DejaVuSans-72" x="197.851562"/>
      <use xlink:href="#DejaVuSans-69" x="238.964844"/>
      <use xlink:href="#DejaVuSans-64" x="266.748047"/>
      <use xlink:href="#DejaVuSans-2d" x="330.224609"/>
      <use xlink:href="#DejaVuSans-4d" x="366.308594"/>
      <use xlink:href="#DejaVuSans-42" x="452.587891"/>
      <use xlink:href="#DejaVuSans-54" x="521.191406"/>
      <use xlink:href="#DejaVuSans-4c" x="582.275391"/>
      <use xlink:href="#DejaVuSans-2d" x="636.238281"/>
      <use xlink:href="#DejaVuSans-6e" x="672.322266"/>
      <use xlink:href="#DejaVuSans-65" x="735.701172"/>
      <use xlink:href="#DejaVuSans-77" x="797.224609"/>
      <use xlink:href="#DejaVuSans-20" x="879.011719"/>
      <use xlink:href="#DejaVuSans-28" x="910.798828"/>
      <use xlink:href="#DejaVuSans-4f" x="949.8125"/>
      <use xlink:href="#DejaVuSans-75" x="1028.523438"/>
      <use xlink:href="#DejaVuSans-72" x="1091.902344"/>
      <use xlink:href="#DejaVuSans-73" x="1133.015625"/>
      <use xlink:href="#DejaVuSans-29" x="1185.115234"/>
     </g>
    </g>
    <g id="line2d_69">
     <path d="M 460.575313 427.075313 
L 478.575313 427.075313 
L 496.575313 427.075313 
" style="fill: none; stroke: #386cb0; stroke-width: 1.5; stroke-linecap: square"/>
    </g>
    <g id="text_15">
     <!-- Hybrid-MBTL (Ours) -->
     <g transform="translate(510.975313 433.375313) scale(0.18 -0.18)">
      <use xlink:href="#DejaVuSans-48"/>
      <use xlink:href="#DejaVuSans-79" x="75.195312"/>
      <use xlink:href="#DejaVuSans-62" x="134.375"/>
      <use xlink:href="#DejaVuSans-72" x="197.851562"/>
      <use xlink:href="#DejaVuSans-69" x="238.964844"/>
      <use xlink:href="#DejaVuSans-64" x="266.748047"/>
      <use xlink:href="#DejaVuSans-2d" x="330.224609"/>
      <use xlink:href="#DejaVuSans-4d" x="366.308594"/>
      <use xlink:href="#DejaVuSans-42" x="452.587891"/>
      <use xlink:href="#DejaVuSans-54" x="521.191406"/>
      <use xlink:href="#DejaVuSans-4c" x="582.275391"/>
      <use xlink:href="#DejaVuSans-20" x="637.988281"/>
      <use xlink:href="#DejaVuSans-28" x="669.775391"/>
      <use xlink:href="#DejaVuSans-4f" x="708.789062"/>
      <use xlink:href="#DejaVuSans-75" x="787.5"/>
      <use xlink:href="#DejaVuSans-72" x="850.878906"/>
      <use xlink:href="#DejaVuSans-73" x="891.992188"/>
      <use xlink:href="#DejaVuSans-29" x="944.091797"/>
     </g>
    </g>
    <g id="line2d_70">
     <path d="M 460.575313 453.495938 
L 478.575313 453.495938 
L 496.575313 453.495938 
" style="fill: none; stroke: #f0027f; stroke-width: 1.5; stroke-linecap: square"/>
    </g>
    <g id="text_16">
     <!-- SC-MBTL (Ours) -->
     <g transform="translate(510.975313 459.795938) scale(0.18 -0.18)">
      <defs>
       <path id="DejaVuSans-53" d="M 3425 4513 
L 3425 3897 
Q 3066 4069 2747 4153 
Q 2428 4238 2131 4238 
Q 1616 4238 1336 4038 
Q 1056 3838 1056 3469 
Q 1056 3159 1242 3001 
Q 1428 2844 1947 2747 
L 2328 2669 
Q 3034 2534 3370 2195 
Q 3706 1856 3706 1288 
Q 3706 609 3251 259 
Q 2797 -91 1919 -91 
Q 1588 -91 1214 -16 
Q 841 59 441 206 
L 441 856 
Q 825 641 1194 531 
Q 1563 422 1919 422 
Q 2459 422 2753 634 
Q 3047 847 3047 1241 
Q 3047 1584 2836 1778 
Q 2625 1972 2144 2069 
L 1759 2144 
Q 1053 2284 737 2584 
Q 422 2884 422 3419 
Q 422 4038 858 4394 
Q 1294 4750 2059 4750 
Q 2388 4750 2728 4690 
Q 3069 4631 3425 4513 
z
" transform="scale(0.015625)"/>
       <path id="DejaVuSans-43" d="M 4122 4306 
L 4122 3641 
Q 3803 3938 3442 4084 
Q 3081 4231 2675 4231 
Q 1875 4231 1450 3742 
Q 1025 3253 1025 2328 
Q 1025 1406 1450 917 
Q 1875 428 2675 428 
Q 3081 428 3442 575 
Q 3803 722 4122 1019 
L 4122 359 
Q 3791 134 3420 21 
Q 3050 -91 2638 -91 
Q 1578 -91 968 557 
Q 359 1206 359 2328 
Q 359 3453 968 4101 
Q 1578 4750 2638 4750 
Q 3056 4750 3426 4639 
Q 3797 4528 4122 4306 
z
" transform="scale(0.015625)"/>
      </defs>
      <use xlink:href="#DejaVuSans-53"/>
      <use xlink:href="#DejaVuSans-43" x="63.476562"/>
      <use xlink:href="#DejaVuSans-2d" x="133.300781"/>
      <use xlink:href="#DejaVuSans-4d" x="169.384766"/>
      <use xlink:href="#DejaVuSans-42" x="255.664062"/>
      <use xlink:href="#DejaVuSans-54" x="324.267578"/>
      <use xlink:href="#DejaVuSans-4c" x="385.351562"/>
      <use xlink:href="#DejaVuSans-20" x="441.064453"/>
      <use xlink:href="#DejaVuSans-28" x="472.851562"/>
      <use xlink:href="#DejaVuSans-4f" x="511.865234"/>
      <use xlink:href="#DejaVuSans-75" x="590.576172"/>
      <use xlink:href="#DejaVuSans-72" x="653.955078"/>
      <use xlink:href="#DejaVuSans-73" x="695.068359"/>
      <use xlink:href="#DejaVuSans-29" x="747.167969"/>
     </g>
    </g>
    <g id="line2d_71">
     <path d="M 460.575313 479.916563 
L 478.575313 479.916563 
L 496.575313 479.916563 
" style="fill: none; stroke: #bf5b17; stroke-width: 1.5; stroke-linecap: square"/>
    </g>
    <g id="text_17">
     <!-- GP-MBTL -->
     <g transform="translate(510.975313 486.216563) scale(0.18 -0.18)">
      <defs>
       <path id="DejaVuSans-47" d="M 3809 666 
L 3809 1919 
L 2778 1919 
L 2778 2438 
L 4434 2438 
L 4434 434 
Q 4069 175 3628 42 
Q 3188 -91 2688 -91 
Q 1594 -91 976 548 
Q 359 1188 359 2328 
Q 359 3472 976 4111 
Q 1594 4750 2688 4750 
Q 3144 4750 3555 4637 
Q 3966 4525 4313 4306 
L 4313 3634 
Q 3963 3931 3569 4081 
Q 3175 4231 2741 4231 
Q 1884 4231 1454 3753 
Q 1025 3275 1025 2328 
Q 1025 1384 1454 906 
Q 1884 428 2741 428 
Q 3075 428 3337 486 
Q 3600 544 3809 666 
z
" transform="scale(0.015625)"/>
       <path id="DejaVuSans-50" d="M 1259 4147 
L 1259 2394 
L 2053 2394 
Q 2494 2394 2734 2622 
Q 2975 2850 2975 3272 
Q 2975 3691 2734 3919 
Q 2494 4147 2053 4147 
L 1259 4147 
z
M 628 4666 
L 2053 4666 
Q 2838 4666 3239 4311 
Q 3641 3956 3641 3272 
Q 3641 2581 3239 2228 
Q 2838 1875 2053 1875 
L 1259 1875 
L 1259 0 
L 628 0 
L 628 4666 
z
" transform="scale(0.015625)"/>
      </defs>
      <use xlink:href="#DejaVuSans-47"/>
      <use xlink:href="#DejaVuSans-50" x="77.490234"/>
      <use xlink:href="#DejaVuSans-2d" x="135.542969"/>
      <use xlink:href="#DejaVuSans-4d" x="171.626953"/>
      <use xlink:href="#DejaVuSans-42" x="257.90625"/>
      <use xlink:href="#DejaVuSans-54" x="326.509766"/>
      <use xlink:href="#DejaVuSans-4c" x="387.59375"/>
     </g>
    </g>
   </g>
  </g>
 </g>
 <defs>
  <clipPath id="p938f279ee0">
   <rect x="77.920625" y="7.2" width="669.6" height="498.96"/>
  </clipPath>
 </defs>
</svg>
