<?xml version="1.0" encoding="utf-8" standalone="no"?>
<!DOCTYPE svg PUBLIC "-//W3C//DTD SVG 1.1//EN"
  "http://www.w3.org/Graphics/SVG/1.1/DTD/svg11.dtd">
<svg xmlns:xlink="http://www.w3.org/1999/xlink" width="580.270625pt" height="389.977813pt" viewBox="0 0 580.270625 389.977813" xmlns="http://www.w3.org/2000/svg" version="1.1">
 <metadata>
  <rdf:RDF xmlns:dc="http://purl.org/dc/elements/1.1/" xmlns:cc="http://creativecommons.org/ns#" xmlns:rdf="http://www.w3.org/1999/02/22-rdf-syntax-ns#">
   <cc:Work>
    <dc:type rdf:resource="http://purl.org/dc/dcmitype/StillImage"/>
    <dc:date>2025-05-09T11:54:11.891811</dc:date>
    <dc:format>image/svg+xml</dc:format>
    <dc:creator>
     <cc:Agent>
      <dc:title>Matplotlib v3.9.4, https://matplotlib.org/</dc:title>
     </cc:Agent>
    </dc:creator>
   </cc:Work>
  </rdf:RDF>
 </metadata>
 <defs>
  <style type="text/css">*{stroke-linejoin: round; stroke-linecap: butt}</style>
 </defs>
 <g id="figure_1">
  <g id="patch_1">
   <path d="M -0 389.977813 
L 580.270625 389.977813 
L 580.270625 0 
L -0 0 
z
" style="fill: #ffffff"/>
  </g>
  <g id="axes_1">
   <g id="patch_2">
    <path d="M 70.870625 339.84 
L 573.070625 339.84 
L 573.070625 7.2 
L 70.870625 7.2 
z
" style="fill: #ffffff"/>
   </g>
   <g id="PolyCollection_1">
    <path d="M 93.697898 238.468642 
L 93.697898 67525.406061 
L 98.309468 203.402719 
L 102.921038 175.109569 
L 107.532608 161.148151 
L 112.144179 152.150406 
L 116.755749 138.470997 
L 121.367319 131.625993 
L 125.978889 121.476904 
L 130.59046 115.125887 
L 135.20203 110.59901 
L 139.8136 105.817431 
L 144.42517 101.814898 
L 149.036741 98.585214 
L 153.648311 95.831021 
L 158.259881 92.787931 
L 162.871451 90.368076 
L 167.483022 88.542951 
L 172.094592 86.743669 
L 176.706162 85.188402 
L 181.317732 83.71428 
L 185.929303 82.362987 
L 190.540873 81.069289 
L 195.152443 79.865272 
L 199.764013 78.786585 
L 204.375584 77.688463 
L 208.987154 76.702427 
L 213.598724 75.796441 
L 218.210294 74.870553 
L 222.821865 73.968305 
L 227.433435 73.022866 
L 232.045005 72.258281 
L 236.656575 71.490116 
L 241.268146 70.703194 
L 245.879716 70.017242 
L 250.491286 69.336747 
L 255.102856 68.638851 
L 259.714427 67.931581 
L 264.325997 67.218143 
L 268.937567 66.601778 
L 273.549137 66.005747 
L 278.160708 65.373689 
L 282.772278 64.749344 
L 287.383848 64.145905 
L 291.995418 63.506514 
L 296.606989 62.909617 
L 301.218559 62.300842 
L 305.830129 61.660179 
L 310.441699 61.043207 
L 315.05327 60.450568 
L 319.66484 59.727482 
L 324.27641 58.978088 
L 328.88798 58.218386 
L 333.499551 57.483208 
L 338.111121 56.802802 
L 342.722691 56.154365 
L 347.334261 55.527751 
L 351.945832 54.887752 
L 356.557402 54.278719 
L 361.168972 53.674531 
L 365.780542 53.085625 
L 370.392113 52.497802 
L 375.003683 51.889661 
L 379.615253 51.267211 
L 384.226823 50.691758 
L 388.838394 50.147882 
L 393.449964 49.611684 
L 398.061534 49.060531 
L 402.673104 48.533785 
L 407.284675 48.035545 
L 411.896245 47.539345 
L 416.507815 47.010192 
L 421.119385 46.540287 
L 425.730956 46.026735 
L 430.342526 45.555689 
L 434.954096 44.992453 
L 439.565666 44.426024 
L 444.177237 43.893316 
L 448.788807 43.39821 
L 453.400377 42.873079 
L 458.011947 42.366976 
L 462.623518 41.880479 
L 467.235088 41.38529 
L 471.846658 40.907889 
L 476.458228 40.457709 
L 481.069799 39.992453 
L 485.681369 39.556117 
L 490.292939 39.094767 
L 494.904509 38.631441 
L 499.51608 38.182782 
L 504.12765 37.73892 
L 508.73922 37.310343 
L 513.35079 36.883912 
L 517.962361 36.453726 
L 522.573931 36.003971 
L 527.185501 35.590331 
L 531.797071 35.181661 
L 536.408642 34.788741 
L 541.020212 34.406469 
L 545.631782 34.008965 
L 550.243352 33.597579 
L 550.243352 25.412503 
L 550.243352 25.412503 
L 545.631782 25.847955 
L 541.020212 26.253352 
L 536.408642 26.665577 
L 531.797071 27.06937 
L 527.185501 27.484658 
L 522.573931 27.919662 
L 517.962361 28.33467 
L 513.35079 28.756628 
L 508.73922 29.197179 
L 504.12765 29.620475 
L 499.51608 30.05743 
L 494.904509 30.51939 
L 490.292939 30.971072 
L 485.681369 31.418563 
L 481.069799 31.876868 
L 476.458228 32.328715 
L 471.846658 32.800774 
L 467.235088 33.269079 
L 462.623518 33.750913 
L 458.011947 34.256746 
L 453.400377 34.743661 
L 448.788807 35.247777 
L 444.177237 35.774814 
L 439.565666 36.303665 
L 434.954096 36.83189 
L 430.342526 37.380207 
L 425.730956 37.90107 
L 421.119385 38.414236 
L 416.507815 38.925128 
L 411.896245 39.457446 
L 407.284675 39.986492 
L 402.673104 40.522013 
L 398.061534 41.082772 
L 393.449964 41.626842 
L 388.838394 42.197302 
L 384.226823 42.782893 
L 379.615253 43.325833 
L 375.003683 43.911834 
L 370.392113 44.509765 
L 365.780542 45.14261 
L 361.168972 45.802409 
L 356.557402 46.431124 
L 351.945832 47.091124 
L 347.334261 47.750924 
L 342.722691 48.418718 
L 338.111121 49.088259 
L 333.499551 49.776487 
L 328.88798 50.464664 
L 324.27641 51.155371 
L 319.66484 51.891389 
L 315.05327 52.57646 
L 310.441699 53.169174 
L 305.830129 53.785398 
L 301.218559 54.409316 
L 296.606989 55.052857 
L 291.995418 55.639404 
L 287.383848 56.261342 
L 282.772278 56.866032 
L 278.160708 57.465289 
L 273.549137 58.120789 
L 268.937567 58.76584 
L 264.325997 59.380031 
L 259.714427 60.132135 
L 255.102856 60.860408 
L 250.491286 61.464591 
L 245.879716 62.105859 
L 241.268146 62.777026 
L 236.656575 63.474636 
L 232.045005 64.18418 
L 227.433435 64.970132 
L 222.821865 65.862243 
L 218.210294 66.695427 
L 213.598724 67.586504 
L 208.987154 68.458984 
L 204.375584 69.385727 
L 199.764013 70.394897 
L 195.152443 71.531464 
L 190.540873 72.656167 
L 185.929303 73.861252 
L 181.317732 75.153875 
L 176.706162 76.555239 
L 172.094592 78.087276 
L 167.483022 79.708614 
L 162.871451 81.36136 
L 158.259881 83.184356 
L 153.648311 84.999066 
L 149.036741 87.138568 
L 144.42517 89.5251 
L 139.8136 92.012324 
L 135.20203 94.828943 
L 130.59046 98.473132 
L 125.978889 102.62041 
L 121.367319 110.969227 
L 116.755749 120.614069 
L 112.144179 149.694973 
L 107.532608 157.869376 
L 102.921038 170.032725 
L 98.309468 191.567811 
L 93.697898 238.468642 
z
" clip-path="url(#p12d10c401e)" style="fill: #386cb0; fill-opacity: 0.1; stroke: #386cb0; stroke-opacity: 0.1"/>
   </g>
   <g id="PolyCollection_2">
    <defs>
     <path id="mf5c0ac5b8f" d="M 93.697898 -109.46303 
L 93.697898 -65.257812 
L 98.309468 -215.696036 
L 102.921038 -229.517541 
L 107.532608 -238.76625 
L 112.144179 -245.470957 
L 116.755749 -251.051657 
L 121.367319 -256.418771 
L 125.978889 -259.314943 
L 130.59046 -261.885675 
L 135.20203 -263.760682 
L 139.8136 -265.905437 
L 144.42517 -267.522802 
L 149.036741 -269.259873 
L 153.648311 -270.740201 
L 158.259881 -272.109273 
L 162.871451 -273.988654 
L 167.483022 -275.174091 
L 172.094592 -275.966304 
L 176.706162 -277.053032 
L 181.317732 -277.912968 
L 185.929303 -278.865515 
L 190.540873 -279.93294 
L 195.152443 -280.560071 
L 199.764013 -281.116257 
L 204.375584 -281.712649 
L 208.987154 -282.162373 
L 213.598724 -282.739499 
L 218.210294 -283.48931 
L 222.821865 -284.372306 
L 227.433435 -284.901961 
L 232.045005 -285.415927 
L 236.656575 -286.337337 
L 241.268146 -286.939447 
L 245.879716 -287.630735 
L 250.491286 -288.156293 
L 255.102856 -288.525074 
L 259.714427 -288.897086 
L 264.325997 -289.483566 
L 268.937567 -289.985766 
L 273.549137 -290.361505 
L 278.160708 -290.885822 
L 282.772278 -291.451808 
L 287.383848 -291.713782 
L 291.995418 -292.208242 
L 296.606989 -292.499056 
L 301.218559 -292.817361 
L 305.830129 -293.171555 
L 310.441699 -293.688589 
L 315.05327 -294.084069 
L 319.66484 -294.289537 
L 324.27641 -294.737023 
L 328.88798 -295.143838 
L 333.499551 -295.416549 
L 338.111121 -295.713339 
L 342.722691 -295.932068 
L 347.334261 -296.379636 
L 351.945832 -296.720943 
L 356.557402 -297.004976 
L 361.168972 -297.093454 
L 365.780542 -297.19925 
L 370.392113 -297.306327 
L 375.003683 -297.428902 
L 379.615253 -297.562411 
L 384.226823 -297.768997 
L 388.838394 -297.893138 
L 393.449964 -298.019086 
L 398.061534 -298.178891 
L 402.673104 -298.370797 
L 407.284675 -298.541691 
L 411.896245 -298.665392 
L 416.507815 -298.840866 
L 421.119385 -298.964488 
L 425.730956 -299.091278 
L 430.342526 -299.198473 
L 434.954096 -299.323708 
L 439.565666 -299.4717 
L 444.177237 -299.599942 
L 448.788807 -299.764472 
L 453.400377 -299.875871 
L 458.011947 -300.077164 
L 462.623518 -300.280422 
L 467.235088 -300.461509 
L 471.846658 -300.646081 
L 476.458228 -300.849497 
L 481.069799 -301.094225 
L 485.681369 -301.263489 
L 490.292939 -301.42963 
L 494.904509 -301.523067 
L 499.51608 -301.654343 
L 504.12765 -301.806097 
L 508.73922 -301.956023 
L 513.35079 -302.104476 
L 517.962361 -302.256717 
L 522.573931 -302.429304 
L 527.185501 -302.584089 
L 531.797071 -302.738483 
L 536.408642 -302.871966 
L 541.020212 -303.009072 
L 545.631782 -303.182247 
L 550.243352 -303.336805 
L 550.243352 -303.560418 
L 550.243352 -303.560418 
L 545.631782 -303.406509 
L 541.020212 -303.234126 
L 536.408642 -303.097577 
L 531.797071 -302.964665 
L 527.185501 -302.810872 
L 522.573931 -302.656794 
L 517.962361 -302.485015 
L 513.35079 -302.333395 
L 508.73922 -302.185688 
L 504.12765 -302.036051 
L 499.51608 -301.885424 
L 494.904509 -301.755005 
L 490.292939 -301.662063 
L 485.681369 -301.496547 
L 481.069799 -301.327553 
L 476.458228 -301.084376 
L 471.846658 -300.882075 
L 467.235088 -300.698534 
L 462.623518 -300.51866 
L 458.011947 -300.31701 
L 453.400377 -300.116124 
L 448.788807 -300.005146 
L 444.177237 -299.842176 
L 439.565666 -299.714823 
L 434.954096 -299.567757 
L 430.342526 -299.443321 
L 425.730956 -299.336417 
L 421.119385 -299.210303 
L 416.507815 -299.087271 
L 411.896245 -298.912194 
L 407.284675 -298.789195 
L 402.673104 -298.619336 
L 398.061534 -298.428655 
L 393.449964 -298.269471 
L 388.838394 -298.144211 
L 384.226823 -298.020646 
L 379.615253 -297.815879 
L 375.003683 -297.68321 
L 370.392113 -297.561145 
L 365.780542 -297.454723 
L 361.168972 -297.349802 
L 356.557402 -297.262052 
L 351.945832 -296.9801 
L 347.334261 -296.641234 
L 342.722691 -296.196574 
L 338.111121 -295.979358 
L 333.499551 -295.684404 
L 328.88798 -295.412841 
L 324.27641 -295.008734 
L 319.66484 -294.564778 
L 315.05327 -294.360566 
L 310.441699 -293.967837 
L 305.830129 -293.456092 
L 301.218559 -293.105474 
L 296.606989 -292.790066 
L 291.995418 -292.50197 
L 287.383848 -292.011387 
L 282.772278 -291.751984 
L 278.160708 -291.190814 
L 273.549137 -290.671053 
L 268.937567 -290.29733 
L 264.325997 -289.800577 
L 259.714427 -289.22201 
L 255.102856 -288.853295 
L 250.491286 -288.488954 
L 245.879716 -287.968864 
L 241.268146 -287.284981 
L 236.656575 -286.690226 
L 232.045005 -285.778566 
L 227.433435 -285.269183 
L 222.821865 -284.74547 
L 218.210294 -283.87133 
L 213.598724 -283.130869 
L 208.987154 -282.560253 
L 204.375584 -282.115572 
L 199.764013 -281.525039 
L 195.152443 -280.97471 
L 190.540873 -280.355469 
L 185.929303 -279.30276 
L 181.317732 -278.364374 
L 176.706162 -277.516419 
L 172.094592 -276.444224 
L 167.483022 -275.663602 
L 162.871451 -274.496344 
L 158.259881 -272.644056 
L 153.648311 -271.2952 
L 149.036741 -269.8412 
L 144.42517 -268.13429 
L 139.8136 -266.54816 
L 135.20203 -264.452094 
L 130.59046 -262.620191 
L 125.978889 -260.103895 
L 121.367319 -257.278513 
L 116.755749 -252.07767 
L 112.144179 -246.69599 
L 107.532608 -240.284782 
L 102.921038 -231.543711 
L 98.309468 -218.859442 
L 93.697898 -109.46303 
z
" style="stroke: #f0027f; stroke-opacity: 0.1"/>
    </defs>
    <g clip-path="url(#p12d10c401e)">
     <use xlink:href="#mf5c0ac5b8f" x="0" y="389.977813" style="fill: #f0027f; fill-opacity: 0.1; stroke: #f0027f; stroke-opacity: 0.1"/>
    </g>
   </g>
   <g id="PolyCollection_3">
    <defs>
     <path id="me0d55e4b1d" d="M 93.697898 -252.942705 
L 93.697898 -247.934014 
L 98.309468 -261.657377 
L 102.921038 -274.314045 
L 107.532608 -279.639957 
L 112.144179 -283.670651 
L 116.755749 -287.050619 
L 121.367319 -289.884173 
L 125.978889 -292.821118 
L 130.59046 -295.234841 
L 135.20203 -297.561267 
L 139.8136 -299.606738 
L 144.42517 -301.581255 
L 149.036741 -303.429775 
L 153.648311 -305.169582 
L 158.259881 -306.76796 
L 162.871451 -308.251181 
L 167.483022 -309.627411 
L 172.094592 -310.972313 
L 176.706162 -312.300864 
L 181.317732 -313.566187 
L 185.929303 -314.706842 
L 190.540873 -315.763945 
L 195.152443 -316.799514 
L 199.764013 -317.75511 
L 204.375584 -318.680381 
L 208.987154 -319.572286 
L 213.598724 -320.415617 
L 218.210294 -321.272576 
L 222.821865 -322.083391 
L 227.433435 -322.904206 
L 232.045005 -323.651512 
L 236.656575 -324.349078 
L 241.268146 -325.008907 
L 245.879716 -325.67806 
L 250.491286 -326.347725 
L 255.102856 -326.977901 
L 259.714427 -327.626679 
L 264.325997 -328.214903 
L 268.937567 -328.831664 
L 273.549137 -329.413 
L 278.160708 -329.994164 
L 282.772278 -330.533351 
L 287.383848 -331.083168 
L 291.995418 -331.64182 
L 296.606989 -332.16992 
L 301.218559 -332.737795 
L 305.830129 -333.309893 
L 310.441699 -333.841625 
L 315.05327 -334.345864 
L 319.66484 -334.834165 
L 324.27641 -335.515542 
L 328.88798 -336.182925 
L 333.499551 -336.810591 
L 338.111121 -337.404187 
L 342.722691 -338.019072 
L 347.334261 -338.61509 
L 351.945832 -339.174632 
L 356.557402 -339.747242 
L 361.168972 -340.362188 
L 365.780542 -340.976547 
L 370.392113 -341.541301 
L 375.003683 -342.069731 
L 379.615253 -342.642523 
L 384.226823 -343.161123 
L 388.838394 -343.705174 
L 393.449964 -344.221864 
L 398.061534 -344.723695 
L 402.673104 -345.204449 
L 407.284675 -345.699581 
L 411.896245 -346.174606 
L 416.507815 -346.64354 
L 421.119385 -347.093455 
L 425.730956 -347.570375 
L 430.342526 -348.032738 
L 434.954096 -348.506637 
L 439.565666 -349.000714 
L 444.177237 -349.483396 
L 448.788807 -349.954963 
L 453.400377 -350.415407 
L 458.011947 -350.877974 
L 462.623518 -351.339915 
L 467.235088 -351.78923 
L 471.846658 -352.230205 
L 476.458228 -352.636492 
L 481.069799 -353.068456 
L 485.681369 -353.475373 
L 490.292939 -353.920108 
L 494.904509 -354.335903 
L 499.51608 -354.768829 
L 504.12765 -355.190361 
L 508.73922 -355.608211 
L 513.35079 -356.014372 
L 517.962361 -356.41175 
L 522.573931 -356.811857 
L 527.185501 -357.180786 
L 531.797071 -357.553378 
L 536.408642 -357.936941 
L 541.020212 -358.309157 
L 545.631782 -358.669551 
L 550.243352 -359.026933 
L 550.243352 -367.657813 
L 550.243352 -367.657813 
L 545.631782 -367.272338 
L 541.020212 -366.875932 
L 536.408642 -366.479473 
L 531.797071 -366.080018 
L 527.185501 -365.660837 
L 522.573931 -365.231453 
L 517.962361 -364.805131 
L 513.35079 -364.378315 
L 508.73922 -363.945342 
L 504.12765 -363.500357 
L 499.51608 -363.049491 
L 494.904509 -362.609732 
L 490.292939 -362.167993 
L 485.681369 -361.709445 
L 481.069799 -361.256125 
L 476.458228 -360.785879 
L 471.846658 -360.319633 
L 467.235088 -359.838838 
L 462.623518 -359.369077 
L 458.011947 -358.886354 
L 453.400377 -358.402385 
L 448.788807 -357.901777 
L 444.177237 -357.375163 
L 439.565666 -356.845856 
L 434.954096 -356.328043 
L 430.342526 -355.839737 
L 425.730956 -355.328775 
L 421.119385 -354.823099 
L 416.507815 -354.315421 
L 411.896245 -353.841379 
L 407.284675 -353.328157 
L 402.673104 -352.781801 
L 398.061534 -352.247229 
L 393.449964 -351.719414 
L 388.838394 -351.166617 
L 384.226823 -350.624869 
L 379.615253 -350.070159 
L 375.003683 -349.462671 
L 370.392113 -348.864123 
L 365.780542 -348.281996 
L 361.168972 -347.676587 
L 356.557402 -347.090499 
L 351.945832 -346.473122 
L 347.334261 -345.873519 
L 342.722691 -345.229174 
L 338.111121 -344.59258 
L 333.499551 -343.938363 
L 328.88798 -343.277203 
L 324.27641 -342.597293 
L 319.66484 -341.905971 
L 315.05327 -341.348473 
L 310.441699 -340.79199 
L 305.830129 -340.193662 
L 301.218559 -339.539451 
L 296.606989 -338.905105 
L 291.995418 -338.304 
L 287.383848 -337.722849 
L 282.772278 -337.127136 
L 278.160708 -336.539471 
L 273.549137 -335.937212 
L 268.937567 -335.319184 
L 264.325997 -334.662626 
L 259.714427 -334.032856 
L 255.102856 -333.392193 
L 250.491286 -332.765882 
L 245.879716 -332.145983 
L 241.268146 -331.515861 
L 236.656575 -330.890166 
L 232.045005 -330.230738 
L 227.433435 -329.572683 
L 222.821865 -328.866155 
L 218.210294 -328.162182 
L 213.598724 -327.363666 
L 208.987154 -326.548906 
L 204.375584 -325.731035 
L 199.764013 -324.87565 
L 195.152443 -324.022532 
L 190.540873 -323.069324 
L 185.929303 -322.149861 
L 181.317732 -321.189709 
L 176.706162 -320.1458 
L 172.094592 -319.009696 
L 167.483022 -317.790029 
L 162.871451 -316.65269 
L 158.259881 -315.368831 
L 153.648311 -314.022628 
L 149.036741 -312.665372 
L 144.42517 -311.255475 
L 139.8136 -309.742225 
L 135.20203 -308.20454 
L 130.59046 -306.488738 
L 125.978889 -304.71393 
L 121.367319 -302.811004 
L 116.755749 -300.877906 
L 112.144179 -298.770858 
L 107.532608 -294.281452 
L 102.921038 -288.774197 
L 98.309468 -277.973801 
L 93.697898 -252.942705 
z
" style="stroke: #bf5b17; stroke-opacity: 0.1"/>
    </defs>
    <g clip-path="url(#p12d10c401e)">
     <use xlink:href="#me0d55e4b1d" x="0" y="389.977813" style="fill: #bf5b17; fill-opacity: 0.1; stroke: #bf5b17; stroke-opacity: 0.1"/>
    </g>
   </g>
   <g id="matplotlib.axis_1">
    <g id="xtick_1">
     <g id="line2d_1">
      <path d="M 89.086327 339.84 
L 89.086327 7.2 
" clip-path="url(#p12d10c401e)" style="fill: none; stroke-dasharray: 1.85,0.8; stroke-dashoffset: 0; stroke: #b0b0b0; stroke-width: 0.5"/>
     </g>
     <g id="line2d_2">
      <defs>
       <path id="m9eeacd5cc1" d="M 0 0 
L 0 3.5 
" style="stroke: #000000; stroke-width: 0.8"/>
      </defs>
      <g>
       <use xlink:href="#m9eeacd5cc1" x="89.086327" y="339.84" style="stroke: #000000; stroke-width: 0.8"/>
      </g>
     </g>
     <g id="text_1">
      <!-- 0 -->
      <g transform="translate(84.314452 358.237656) scale(0.15 -0.15)">
       <defs>
        <path id="DejaVuSans-30" d="M 2034 4250 
Q 1547 4250 1301 3770 
Q 1056 3291 1056 2328 
Q 1056 1369 1301 889 
Q 1547 409 2034 409 
Q 2525 409 2770 889 
Q 3016 1369 3016 2328 
Q 3016 3291 2770 3770 
Q 2525 4250 2034 4250 
z
M 2034 4750 
Q 2819 4750 3233 4129 
Q 3647 3509 3647 2328 
Q 3647 1150 3233 529 
Q 2819 -91 2034 -91 
Q 1250 -91 836 529 
Q 422 1150 422 2328 
Q 422 3509 836 4129 
Q 1250 4750 2034 4750 
z
" transform="scale(0.015625)"/>
       </defs>
       <use xlink:href="#DejaVuSans-30"/>
      </g>
     </g>
    </g>
    <g id="xtick_2">
     <g id="line2d_3">
      <path d="M 181.317732 339.84 
L 181.317732 7.2 
" clip-path="url(#p12d10c401e)" style="fill: none; stroke-dasharray: 1.85,0.8; stroke-dashoffset: 0; stroke: #b0b0b0; stroke-width: 0.5"/>
     </g>
     <g id="line2d_4">
      <g>
       <use xlink:href="#m9eeacd5cc1" x="181.317732" y="339.84" style="stroke: #000000; stroke-width: 0.8"/>
      </g>
     </g>
     <g id="text_2">
      <!-- 20 -->
      <g transform="translate(171.773982 358.237656) scale(0.15 -0.15)">
       <defs>
        <path id="DejaVuSans-32" d="M 1228 531 
L 3431 531 
L 3431 0 
L 469 0 
L 469 531 
Q 828 903 1448 1529 
Q 2069 2156 2228 2338 
Q 2531 2678 2651 2914 
Q 2772 3150 2772 3378 
Q 2772 3750 2511 3984 
Q 2250 4219 1831 4219 
Q 1534 4219 1204 4116 
Q 875 4013 500 3803 
L 500 4441 
Q 881 4594 1212 4672 
Q 1544 4750 1819 4750 
Q 2544 4750 2975 4387 
Q 3406 4025 3406 3419 
Q 3406 3131 3298 2873 
Q 3191 2616 2906 2266 
Q 2828 2175 2409 1742 
Q 1991 1309 1228 531 
z
" transform="scale(0.015625)"/>
       </defs>
       <use xlink:href="#DejaVuSans-32"/>
       <use xlink:href="#DejaVuSans-30" x="63.623047"/>
      </g>
     </g>
    </g>
    <g id="xtick_3">
     <g id="line2d_5">
      <path d="M 273.549137 339.84 
L 273.549137 7.2 
" clip-path="url(#p12d10c401e)" style="fill: none; stroke-dasharray: 1.85,0.8; stroke-dashoffset: 0; stroke: #b0b0b0; stroke-width: 0.5"/>
     </g>
     <g id="line2d_6">
      <g>
       <use xlink:href="#m9eeacd5cc1" x="273.549137" y="339.84" style="stroke: #000000; stroke-width: 0.8"/>
      </g>
     </g>
     <g id="text_3">
      <!-- 40 -->
      <g transform="translate(264.005387 358.237656) scale(0.15 -0.15)">
       <defs>
        <path id="DejaVuSans-34" d="M 2419 4116 
L 825 1625 
L 2419 1625 
L 2419 4116 
z
M 2253 4666 
L 3047 4666 
L 3047 1625 
L 3713 1625 
L 3713 1100 
L 3047 1100 
L 3047 0 
L 2419 0 
L 2419 1100 
L 313 1100 
L 313 1709 
L 2253 4666 
z
" transform="scale(0.015625)"/>
       </defs>
       <use xlink:href="#DejaVuSans-34"/>
       <use xlink:href="#DejaVuSans-30" x="63.623047"/>
      </g>
     </g>
    </g>
    <g id="xtick_4">
     <g id="line2d_7">
      <path d="M 365.780542 339.84 
L 365.780542 7.2 
" clip-path="url(#p12d10c401e)" style="fill: none; stroke-dasharray: 1.85,0.8; stroke-dashoffset: 0; stroke: #b0b0b0; stroke-width: 0.5"/>
     </g>
     <g id="line2d_8">
      <g>
       <use xlink:href="#m9eeacd5cc1" x="365.780542" y="339.84" style="stroke: #000000; stroke-width: 0.8"/>
      </g>
     </g>
     <g id="text_4">
      <!-- 60 -->
      <g transform="translate(356.236792 358.237656) scale(0.15 -0.15)">
       <defs>
        <path id="DejaVuSans-36" d="M 2113 2584 
Q 1688 2584 1439 2293 
Q 1191 2003 1191 1497 
Q 1191 994 1439 701 
Q 1688 409 2113 409 
Q 2538 409 2786 701 
Q 3034 994 3034 1497 
Q 3034 2003 2786 2293 
Q 2538 2584 2113 2584 
z
M 3366 4563 
L 3366 3988 
Q 3128 4100 2886 4159 
Q 2644 4219 2406 4219 
Q 1781 4219 1451 3797 
Q 1122 3375 1075 2522 
Q 1259 2794 1537 2939 
Q 1816 3084 2150 3084 
Q 2853 3084 3261 2657 
Q 3669 2231 3669 1497 
Q 3669 778 3244 343 
Q 2819 -91 2113 -91 
Q 1303 -91 875 529 
Q 447 1150 447 2328 
Q 447 3434 972 4092 
Q 1497 4750 2381 4750 
Q 2619 4750 2861 4703 
Q 3103 4656 3366 4563 
z
" transform="scale(0.015625)"/>
       </defs>
       <use xlink:href="#DejaVuSans-36"/>
       <use xlink:href="#DejaVuSans-30" x="63.623047"/>
      </g>
     </g>
    </g>
    <g id="xtick_5">
     <g id="line2d_9">
      <path d="M 458.011947 339.84 
L 458.011947 7.2 
" clip-path="url(#p12d10c401e)" style="fill: none; stroke-dasharray: 1.85,0.8; stroke-dashoffset: 0; stroke: #b0b0b0; stroke-width: 0.5"/>
     </g>
     <g id="line2d_10">
      <g>
       <use xlink:href="#m9eeacd5cc1" x="458.011947" y="339.84" style="stroke: #000000; stroke-width: 0.8"/>
      </g>
     </g>
     <g id="text_5">
      <!-- 80 -->
      <g transform="translate(448.468197 358.237656) scale(0.15 -0.15)">
       <defs>
        <path id="DejaVuSans-38" d="M 2034 2216 
Q 1584 2216 1326 1975 
Q 1069 1734 1069 1313 
Q 1069 891 1326 650 
Q 1584 409 2034 409 
Q 2484 409 2743 651 
Q 3003 894 3003 1313 
Q 3003 1734 2745 1975 
Q 2488 2216 2034 2216 
z
M 1403 2484 
Q 997 2584 770 2862 
Q 544 3141 544 3541 
Q 544 4100 942 4425 
Q 1341 4750 2034 4750 
Q 2731 4750 3128 4425 
Q 3525 4100 3525 3541 
Q 3525 3141 3298 2862 
Q 3072 2584 2669 2484 
Q 3125 2378 3379 2068 
Q 3634 1759 3634 1313 
Q 3634 634 3220 271 
Q 2806 -91 2034 -91 
Q 1263 -91 848 271 
Q 434 634 434 1313 
Q 434 1759 690 2068 
Q 947 2378 1403 2484 
z
M 1172 3481 
Q 1172 3119 1398 2916 
Q 1625 2713 2034 2713 
Q 2441 2713 2670 2916 
Q 2900 3119 2900 3481 
Q 2900 3844 2670 4047 
Q 2441 4250 2034 4250 
Q 1625 4250 1398 4047 
Q 1172 3844 1172 3481 
z
" transform="scale(0.015625)"/>
       </defs>
       <use xlink:href="#DejaVuSans-38"/>
       <use xlink:href="#DejaVuSans-30" x="63.623047"/>
      </g>
     </g>
    </g>
    <g id="xtick_6">
     <g id="line2d_11">
      <path d="M 550.243352 339.84 
L 550.243352 7.2 
" clip-path="url(#p12d10c401e)" style="fill: none; stroke-dasharray: 1.85,0.8; stroke-dashoffset: 0; stroke: #b0b0b0; stroke-width: 0.5"/>
     </g>
     <g id="line2d_12">
      <g>
       <use xlink:href="#m9eeacd5cc1" x="550.243352" y="339.84" style="stroke: #000000; stroke-width: 0.8"/>
      </g>
     </g>
     <g id="text_6">
      <!-- 100 -->
      <g transform="translate(535.927727 358.237656) scale(0.15 -0.15)">
       <defs>
        <path id="DejaVuSans-31" d="M 794 531 
L 1825 531 
L 1825 4091 
L 703 3866 
L 703 4441 
L 1819 4666 
L 2450 4666 
L 2450 531 
L 3481 531 
L 3481 0 
L 794 0 
L 794 531 
z
" transform="scale(0.015625)"/>
       </defs>
       <use xlink:href="#DejaVuSans-31"/>
       <use xlink:href="#DejaVuSans-30" x="63.623047"/>
       <use xlink:href="#DejaVuSans-30" x="127.246094"/>
      </g>
     </g>
    </g>
    <g id="text_7">
     <!-- Decision Round -->
     <g transform="translate(252.317656 379.034375) scale(0.18 -0.18)">
      <defs>
       <path id="DejaVuSans-44" d="M 1259 4147 
L 1259 519 
L 2022 519 
Q 2988 519 3436 956 
Q 3884 1394 3884 2338 
Q 3884 3275 3436 3711 
Q 2988 4147 2022 4147 
L 1259 4147 
z
M 628 4666 
L 1925 4666 
Q 3281 4666 3915 4102 
Q 4550 3538 4550 2338 
Q 4550 1131 3912 565 
Q 3275 0 1925 0 
L 628 0 
L 628 4666 
z
" transform="scale(0.015625)"/>
       <path id="DejaVuSans-65" d="M 3597 1894 
L 3597 1613 
L 953 1613 
Q 991 1019 1311 708 
Q 1631 397 2203 397 
Q 2534 397 2845 478 
Q 3156 559 3463 722 
L 3463 178 
Q 3153 47 2828 -22 
Q 2503 -91 2169 -91 
Q 1331 -91 842 396 
Q 353 884 353 1716 
Q 353 2575 817 3079 
Q 1281 3584 2069 3584 
Q 2775 3584 3186 3129 
Q 3597 2675 3597 1894 
z
M 3022 2063 
Q 3016 2534 2758 2815 
Q 2500 3097 2075 3097 
Q 1594 3097 1305 2825 
Q 1016 2553 972 2059 
L 3022 2063 
z
" transform="scale(0.015625)"/>
       <path id="DejaVuSans-63" d="M 3122 3366 
L 3122 2828 
Q 2878 2963 2633 3030 
Q 2388 3097 2138 3097 
Q 1578 3097 1268 2742 
Q 959 2388 959 1747 
Q 959 1106 1268 751 
Q 1578 397 2138 397 
Q 2388 397 2633 464 
Q 2878 531 3122 666 
L 3122 134 
Q 2881 22 2623 -34 
Q 2366 -91 2075 -91 
Q 1284 -91 818 406 
Q 353 903 353 1747 
Q 353 2603 823 3093 
Q 1294 3584 2113 3584 
Q 2378 3584 2631 3529 
Q 2884 3475 3122 3366 
z
" transform="scale(0.015625)"/>
       <path id="DejaVuSans-69" d="M 603 3500 
L 1178 3500 
L 1178 0 
L 603 0 
L 603 3500 
z
M 603 4863 
L 1178 4863 
L 1178 4134 
L 603 4134 
L 603 4863 
z
" transform="scale(0.015625)"/>
       <path id="DejaVuSans-73" d="M 2834 3397 
L 2834 2853 
Q 2591 2978 2328 3040 
Q 2066 3103 1784 3103 
Q 1356 3103 1142 2972 
Q 928 2841 928 2578 
Q 928 2378 1081 2264 
Q 1234 2150 1697 2047 
L 1894 2003 
Q 2506 1872 2764 1633 
Q 3022 1394 3022 966 
Q 3022 478 2636 193 
Q 2250 -91 1575 -91 
Q 1294 -91 989 -36 
Q 684 19 347 128 
L 347 722 
Q 666 556 975 473 
Q 1284 391 1588 391 
Q 1994 391 2212 530 
Q 2431 669 2431 922 
Q 2431 1156 2273 1281 
Q 2116 1406 1581 1522 
L 1381 1569 
Q 847 1681 609 1914 
Q 372 2147 372 2553 
Q 372 3047 722 3315 
Q 1072 3584 1716 3584 
Q 2034 3584 2315 3537 
Q 2597 3491 2834 3397 
z
" transform="scale(0.015625)"/>
       <path id="DejaVuSans-6f" d="M 1959 3097 
Q 1497 3097 1228 2736 
Q 959 2375 959 1747 
Q 959 1119 1226 758 
Q 1494 397 1959 397 
Q 2419 397 2687 759 
Q 2956 1122 2956 1747 
Q 2956 2369 2687 2733 
Q 2419 3097 1959 3097 
z
M 1959 3584 
Q 2709 3584 3137 3096 
Q 3566 2609 3566 1747 
Q 3566 888 3137 398 
Q 2709 -91 1959 -91 
Q 1206 -91 779 398 
Q 353 888 353 1747 
Q 353 2609 779 3096 
Q 1206 3584 1959 3584 
z
" transform="scale(0.015625)"/>
       <path id="DejaVuSans-6e" d="M 3513 2113 
L 3513 0 
L 2938 0 
L 2938 2094 
Q 2938 2591 2744 2837 
Q 2550 3084 2163 3084 
Q 1697 3084 1428 2787 
Q 1159 2491 1159 1978 
L 1159 0 
L 581 0 
L 581 3500 
L 1159 3500 
L 1159 2956 
Q 1366 3272 1645 3428 
Q 1925 3584 2291 3584 
Q 2894 3584 3203 3211 
Q 3513 2838 3513 2113 
z
" transform="scale(0.015625)"/>
       <path id="DejaVuSans-20" transform="scale(0.015625)"/>
       <path id="DejaVuSans-52" d="M 2841 2188 
Q 3044 2119 3236 1894 
Q 3428 1669 3622 1275 
L 4263 0 
L 3584 0 
L 2988 1197 
Q 2756 1666 2539 1819 
Q 2322 1972 1947 1972 
L 1259 1972 
L 1259 0 
L 628 0 
L 628 4666 
L 2053 4666 
Q 2853 4666 3247 4331 
Q 3641 3997 3641 3322 
Q 3641 2881 3436 2590 
Q 3231 2300 2841 2188 
z
M 1259 4147 
L 1259 2491 
L 2053 2491 
Q 2509 2491 2742 2702 
Q 2975 2913 2975 3322 
Q 2975 3731 2742 3939 
Q 2509 4147 2053 4147 
L 1259 4147 
z
" transform="scale(0.015625)"/>
       <path id="DejaVuSans-75" d="M 544 1381 
L 544 3500 
L 1119 3500 
L 1119 1403 
Q 1119 906 1312 657 
Q 1506 409 1894 409 
Q 2359 409 2629 706 
Q 2900 1003 2900 1516 
L 2900 3500 
L 3475 3500 
L 3475 0 
L 2900 0 
L 2900 538 
Q 2691 219 2414 64 
Q 2138 -91 1772 -91 
Q 1169 -91 856 284 
Q 544 659 544 1381 
z
M 1991 3584 
L 1991 3584 
z
" transform="scale(0.015625)"/>
       <path id="DejaVuSans-64" d="M 2906 2969 
L 2906 4863 
L 3481 4863 
L 3481 0 
L 2906 0 
L 2906 525 
Q 2725 213 2448 61 
Q 2172 -91 1784 -91 
Q 1150 -91 751 415 
Q 353 922 353 1747 
Q 353 2572 751 3078 
Q 1150 3584 1784 3584 
Q 2172 3584 2448 3432 
Q 2725 3281 2906 2969 
z
M 947 1747 
Q 947 1113 1208 752 
Q 1469 391 1925 391 
Q 2381 391 2643 752 
Q 2906 1113 2906 1747 
Q 2906 2381 2643 2742 
Q 2381 3103 1925 3103 
Q 1469 3103 1208 2742 
Q 947 2381 947 1747 
z
" transform="scale(0.015625)"/>
      </defs>
      <use xlink:href="#DejaVuSans-44"/>
      <use xlink:href="#DejaVuSans-65" x="77.001953"/>
      <use xlink:href="#DejaVuSans-63" x="138.525391"/>
      <use xlink:href="#DejaVuSans-69" x="193.505859"/>
      <use xlink:href="#DejaVuSans-73" x="221.289062"/>
      <use xlink:href="#DejaVuSans-69" x="273.388672"/>
      <use xlink:href="#DejaVuSans-6f" x="301.171875"/>
      <use xlink:href="#DejaVuSans-6e" x="362.353516"/>
      <use xlink:href="#DejaVuSans-20" x="425.732422"/>
      <use xlink:href="#DejaVuSans-52" x="457.519531"/>
      <use xlink:href="#DejaVuSans-6f" x="522.501953"/>
      <use xlink:href="#DejaVuSans-75" x="583.683594"/>
      <use xlink:href="#DejaVuSans-6e" x="647.0625"/>
      <use xlink:href="#DejaVuSans-64" x="710.441406"/>
     </g>
    </g>
   </g>
   <g id="matplotlib.axis_2">
    <g id="ytick_1">
     <g id="line2d_13">
      <path d="M 70.870625 290.109228 
L 573.070625 290.109228 
" clip-path="url(#p12d10c401e)" style="fill: none; stroke-dasharray: 1.85,0.8; stroke-dashoffset: 0; stroke: #b0b0b0; stroke-width: 0.5"/>
     </g>
     <g id="line2d_14">
      <defs>
       <path id="m539c5aba50" d="M 0 0 
L -3.5 0 
" style="stroke: #000000; stroke-width: 0.8"/>
      </defs>
      <g>
       <use xlink:href="#m539c5aba50" x="70.870625" y="290.109228" style="stroke: #000000; stroke-width: 0.8"/>
      </g>
     </g>
     <g id="text_8">
      <!-- $\mathdefault{10^{-2}}$ -->
      <g transform="translate(28.620625 295.808056) scale(0.15 -0.15)">
       <defs>
        <path id="DejaVuSans-2212" d="M 678 2272 
L 4684 2272 
L 4684 1741 
L 678 1741 
L 678 2272 
z
" transform="scale(0.015625)"/>
       </defs>
       <use xlink:href="#DejaVuSans-31" transform="translate(0 0.765625)"/>
       <use xlink:href="#DejaVuSans-30" transform="translate(63.623047 0.765625)"/>
       <use xlink:href="#DejaVuSans-2212" transform="translate(128.203125 39.046875) scale(0.7)"/>
       <use xlink:href="#DejaVuSans-32" transform="translate(186.855469 39.046875) scale(0.7)"/>
      </g>
     </g>
    </g>
    <g id="ytick_2">
     <g id="line2d_15">
      <path d="M 70.870625 222.739191 
L 573.070625 222.739191 
" clip-path="url(#p12d10c401e)" style="fill: none; stroke-dasharray: 1.85,0.8; stroke-dashoffset: 0; stroke: #b0b0b0; stroke-width: 0.5"/>
     </g>
     <g id="line2d_16">
      <g>
       <use xlink:href="#m539c5aba50" x="70.870625" y="222.739191" style="stroke: #000000; stroke-width: 0.8"/>
      </g>
     </g>
     <g id="text_9">
      <!-- $\mathdefault{10^{-1}}$ -->
      <g transform="translate(28.620625 228.43802) scale(0.15 -0.15)">
       <use xlink:href="#DejaVuSans-31" transform="translate(0 0.684375)"/>
       <use xlink:href="#DejaVuSans-30" transform="translate(63.623047 0.684375)"/>
       <use xlink:href="#DejaVuSans-2212" transform="translate(128.203125 38.965625) scale(0.7)"/>
       <use xlink:href="#DejaVuSans-31" transform="translate(186.855469 38.965625) scale(0.7)"/>
      </g>
     </g>
    </g>
    <g id="ytick_3">
     <g id="line2d_17">
      <path d="M 70.870625 155.369155 
L 573.070625 155.369155 
" clip-path="url(#p12d10c401e)" style="fill: none; stroke-dasharray: 1.85,0.8; stroke-dashoffset: 0; stroke: #b0b0b0; stroke-width: 0.5"/>
     </g>
     <g id="line2d_18">
      <g>
       <use xlink:href="#m539c5aba50" x="70.870625" y="155.369155" style="stroke: #000000; stroke-width: 0.8"/>
      </g>
     </g>
     <g id="text_10">
      <!-- $\mathdefault{10^{0}}$ -->
      <g transform="translate(37.470625 161.067983) scale(0.15 -0.15)">
       <use xlink:href="#DejaVuSans-31" transform="translate(0 0.765625)"/>
       <use xlink:href="#DejaVuSans-30" transform="translate(63.623047 0.765625)"/>
       <use xlink:href="#DejaVuSans-30" transform="translate(128.203125 39.046875) scale(0.7)"/>
      </g>
     </g>
    </g>
    <g id="ytick_4">
     <g id="line2d_19">
      <path d="M 70.870625 87.999118 
L 573.070625 87.999118 
" clip-path="url(#p12d10c401e)" style="fill: none; stroke-dasharray: 1.85,0.8; stroke-dashoffset: 0; stroke: #b0b0b0; stroke-width: 0.5"/>
     </g>
     <g id="line2d_20">
      <g>
       <use xlink:href="#m539c5aba50" x="70.870625" y="87.999118" style="stroke: #000000; stroke-width: 0.8"/>
      </g>
     </g>
     <g id="text_11">
      <!-- $\mathdefault{10^{1}}$ -->
      <g transform="translate(37.470625 93.697946) scale(0.15 -0.15)">
       <use xlink:href="#DejaVuSans-31" transform="translate(0 0.684375)"/>
       <use xlink:href="#DejaVuSans-30" transform="translate(63.623047 0.684375)"/>
       <use xlink:href="#DejaVuSans-31" transform="translate(128.203125 38.965625) scale(0.7)"/>
      </g>
     </g>
    </g>
    <g id="ytick_5">
     <g id="line2d_21">
      <path d="M 70.870625 20.629081 
L 573.070625 20.629081 
" clip-path="url(#p12d10c401e)" style="fill: none; stroke-dasharray: 1.85,0.8; stroke-dashoffset: 0; stroke: #b0b0b0; stroke-width: 0.5"/>
     </g>
     <g id="line2d_22">
      <g>
       <use xlink:href="#m539c5aba50" x="70.870625" y="20.629081" style="stroke: #000000; stroke-width: 0.8"/>
      </g>
     </g>
     <g id="text_12">
      <!-- $\mathdefault{10^{2}}$ -->
      <g transform="translate(37.470625 26.327909) scale(0.15 -0.15)">
       <use xlink:href="#DejaVuSans-31" transform="translate(0 0.765625)"/>
       <use xlink:href="#DejaVuSans-30" transform="translate(63.623047 0.765625)"/>
       <use xlink:href="#DejaVuSans-32" transform="translate(128.203125 39.046875) scale(0.7)"/>
      </g>
     </g>
    </g>
    <g id="ytick_6">
     <g id="line2d_23">
      <defs>
       <path id="m37051b58e6" d="M 0 0 
L -2 0 
" style="stroke: #000000; stroke-width: 0.6"/>
      </defs>
      <g>
       <use xlink:href="#m37051b58e6" x="70.870625" y="337.198863" style="stroke: #000000; stroke-width: 0.6"/>
      </g>
     </g>
    </g>
    <g id="ytick_7">
     <g id="line2d_24">
      <g>
       <use xlink:href="#m37051b58e6" x="70.870625" y="325.335589" style="stroke: #000000; stroke-width: 0.6"/>
      </g>
     </g>
    </g>
    <g id="ytick_8">
     <g id="line2d_25">
      <g>
       <use xlink:href="#m37051b58e6" x="70.870625" y="316.918461" style="stroke: #000000; stroke-width: 0.6"/>
      </g>
     </g>
    </g>
    <g id="ytick_9">
     <g id="line2d_26">
      <g>
       <use xlink:href="#m37051b58e6" x="70.870625" y="310.38963" style="stroke: #000000; stroke-width: 0.6"/>
      </g>
     </g>
    </g>
    <g id="ytick_10">
     <g id="line2d_27">
      <g>
       <use xlink:href="#m37051b58e6" x="70.870625" y="305.055187" style="stroke: #000000; stroke-width: 0.6"/>
      </g>
     </g>
    </g>
    <g id="ytick_11">
     <g id="line2d_28">
      <g>
       <use xlink:href="#m37051b58e6" x="70.870625" y="300.544979" style="stroke: #000000; stroke-width: 0.6"/>
      </g>
     </g>
    </g>
    <g id="ytick_12">
     <g id="line2d_29">
      <g>
       <use xlink:href="#m37051b58e6" x="70.870625" y="296.63806" style="stroke: #000000; stroke-width: 0.6"/>
      </g>
     </g>
    </g>
    <g id="ytick_13">
     <g id="line2d_30">
      <g>
       <use xlink:href="#m37051b58e6" x="70.870625" y="293.191912" style="stroke: #000000; stroke-width: 0.6"/>
      </g>
     </g>
    </g>
    <g id="ytick_14">
     <g id="line2d_31">
      <g>
       <use xlink:href="#m37051b58e6" x="70.870625" y="269.828826" style="stroke: #000000; stroke-width: 0.6"/>
      </g>
     </g>
    </g>
    <g id="ytick_15">
     <g id="line2d_32">
      <g>
       <use xlink:href="#m37051b58e6" x="70.870625" y="257.965552" style="stroke: #000000; stroke-width: 0.6"/>
      </g>
     </g>
    </g>
    <g id="ytick_16">
     <g id="line2d_33">
      <g>
       <use xlink:href="#m37051b58e6" x="70.870625" y="249.548425" style="stroke: #000000; stroke-width: 0.6"/>
      </g>
     </g>
    </g>
    <g id="ytick_17">
     <g id="line2d_34">
      <g>
       <use xlink:href="#m37051b58e6" x="70.870625" y="243.019593" style="stroke: #000000; stroke-width: 0.6"/>
      </g>
     </g>
    </g>
    <g id="ytick_18">
     <g id="line2d_35">
      <g>
       <use xlink:href="#m37051b58e6" x="70.870625" y="237.68515" style="stroke: #000000; stroke-width: 0.6"/>
      </g>
     </g>
    </g>
    <g id="ytick_19">
     <g id="line2d_36">
      <g>
       <use xlink:href="#m37051b58e6" x="70.870625" y="233.174942" style="stroke: #000000; stroke-width: 0.6"/>
      </g>
     </g>
    </g>
    <g id="ytick_20">
     <g id="line2d_37">
      <g>
       <use xlink:href="#m37051b58e6" x="70.870625" y="229.268023" style="stroke: #000000; stroke-width: 0.6"/>
      </g>
     </g>
    </g>
    <g id="ytick_21">
     <g id="line2d_38">
      <g>
       <use xlink:href="#m37051b58e6" x="70.870625" y="225.821875" style="stroke: #000000; stroke-width: 0.6"/>
      </g>
     </g>
    </g>
    <g id="ytick_22">
     <g id="line2d_39">
      <g>
       <use xlink:href="#m37051b58e6" x="70.870625" y="202.45879" style="stroke: #000000; stroke-width: 0.6"/>
      </g>
     </g>
    </g>
    <g id="ytick_23">
     <g id="line2d_40">
      <g>
       <use xlink:href="#m37051b58e6" x="70.870625" y="190.595515" style="stroke: #000000; stroke-width: 0.6"/>
      </g>
     </g>
    </g>
    <g id="ytick_24">
     <g id="line2d_41">
      <g>
       <use xlink:href="#m37051b58e6" x="70.870625" y="182.178388" style="stroke: #000000; stroke-width: 0.6"/>
      </g>
     </g>
    </g>
    <g id="ytick_25">
     <g id="line2d_42">
      <g>
       <use xlink:href="#m37051b58e6" x="70.870625" y="175.649556" style="stroke: #000000; stroke-width: 0.6"/>
      </g>
     </g>
    </g>
    <g id="ytick_26">
     <g id="line2d_43">
      <g>
       <use xlink:href="#m37051b58e6" x="70.870625" y="170.315113" style="stroke: #000000; stroke-width: 0.6"/>
      </g>
     </g>
    </g>
    <g id="ytick_27">
     <g id="line2d_44">
      <g>
       <use xlink:href="#m37051b58e6" x="70.870625" y="165.804905" style="stroke: #000000; stroke-width: 0.6"/>
      </g>
     </g>
    </g>
    <g id="ytick_28">
     <g id="line2d_45">
      <g>
       <use xlink:href="#m37051b58e6" x="70.870625" y="161.897986" style="stroke: #000000; stroke-width: 0.6"/>
      </g>
     </g>
    </g>
    <g id="ytick_29">
     <g id="line2d_46">
      <g>
       <use xlink:href="#m37051b58e6" x="70.870625" y="158.451838" style="stroke: #000000; stroke-width: 0.6"/>
      </g>
     </g>
    </g>
    <g id="ytick_30">
     <g id="line2d_47">
      <g>
       <use xlink:href="#m37051b58e6" x="70.870625" y="135.088753" style="stroke: #000000; stroke-width: 0.6"/>
      </g>
     </g>
    </g>
    <g id="ytick_31">
     <g id="line2d_48">
      <g>
       <use xlink:href="#m37051b58e6" x="70.870625" y="123.225478" style="stroke: #000000; stroke-width: 0.6"/>
      </g>
     </g>
    </g>
    <g id="ytick_32">
     <g id="line2d_49">
      <g>
       <use xlink:href="#m37051b58e6" x="70.870625" y="114.808351" style="stroke: #000000; stroke-width: 0.6"/>
      </g>
     </g>
    </g>
    <g id="ytick_33">
     <g id="line2d_50">
      <g>
       <use xlink:href="#m37051b58e6" x="70.870625" y="108.27952" style="stroke: #000000; stroke-width: 0.6"/>
      </g>
     </g>
    </g>
    <g id="ytick_34">
     <g id="line2d_51">
      <g>
       <use xlink:href="#m37051b58e6" x="70.870625" y="102.945076" style="stroke: #000000; stroke-width: 0.6"/>
      </g>
     </g>
    </g>
    <g id="ytick_35">
     <g id="line2d_52">
      <g>
       <use xlink:href="#m37051b58e6" x="70.870625" y="98.434868" style="stroke: #000000; stroke-width: 0.6"/>
      </g>
     </g>
    </g>
    <g id="ytick_36">
     <g id="line2d_53">
      <g>
       <use xlink:href="#m37051b58e6" x="70.870625" y="94.527949" style="stroke: #000000; stroke-width: 0.6"/>
      </g>
     </g>
    </g>
    <g id="ytick_37">
     <g id="line2d_54">
      <g>
       <use xlink:href="#m37051b58e6" x="70.870625" y="91.081801" style="stroke: #000000; stroke-width: 0.6"/>
      </g>
     </g>
    </g>
    <g id="ytick_38">
     <g id="line2d_55">
      <g>
       <use xlink:href="#m37051b58e6" x="70.870625" y="67.718716" style="stroke: #000000; stroke-width: 0.6"/>
      </g>
     </g>
    </g>
    <g id="ytick_39">
     <g id="line2d_56">
      <g>
       <use xlink:href="#m37051b58e6" x="70.870625" y="55.855441" style="stroke: #000000; stroke-width: 0.6"/>
      </g>
     </g>
    </g>
    <g id="ytick_40">
     <g id="line2d_57">
      <g>
       <use xlink:href="#m37051b58e6" x="70.870625" y="47.438314" style="stroke: #000000; stroke-width: 0.6"/>
      </g>
     </g>
    </g>
    <g id="ytick_41">
     <g id="line2d_58">
      <g>
       <use xlink:href="#m37051b58e6" x="70.870625" y="40.909483" style="stroke: #000000; stroke-width: 0.6"/>
      </g>
     </g>
    </g>
    <g id="ytick_42">
     <g id="line2d_59">
      <g>
       <use xlink:href="#m37051b58e6" x="70.870625" y="35.575039" style="stroke: #000000; stroke-width: 0.6"/>
      </g>
     </g>
    </g>
    <g id="ytick_43">
     <g id="line2d_60">
      <g>
       <use xlink:href="#m37051b58e6" x="70.870625" y="31.064832" style="stroke: #000000; stroke-width: 0.6"/>
      </g>
     </g>
    </g>
    <g id="ytick_44">
     <g id="line2d_61">
      <g>
       <use xlink:href="#m37051b58e6" x="70.870625" y="27.157912" style="stroke: #000000; stroke-width: 0.6"/>
      </g>
     </g>
    </g>
    <g id="ytick_45">
     <g id="line2d_62">
      <g>
       <use xlink:href="#m37051b58e6" x="70.870625" y="23.711765" style="stroke: #000000; stroke-width: 0.6"/>
      </g>
     </g>
    </g>
    <g id="text_13">
     <!-- Runtime -->
     <g transform="translate(20.877188 211.109063) rotate(-90) scale(0.18 -0.18)">
      <defs>
       <path id="DejaVuSans-74" d="M 1172 4494 
L 1172 3500 
L 2356 3500 
L 2356 3053 
L 1172 3053 
L 1172 1153 
Q 1172 725 1289 603 
Q 1406 481 1766 481 
L 2356 481 
L 2356 0 
L 1766 0 
Q 1100 0 847 248 
Q 594 497 594 1153 
L 594 3053 
L 172 3053 
L 172 3500 
L 594 3500 
L 594 4494 
L 1172 4494 
z
" transform="scale(0.015625)"/>
       <path id="DejaVuSans-6d" d="M 3328 2828 
Q 3544 3216 3844 3400 
Q 4144 3584 4550 3584 
Q 5097 3584 5394 3201 
Q 5691 2819 5691 2113 
L 5691 0 
L 5113 0 
L 5113 2094 
Q 5113 2597 4934 2840 
Q 4756 3084 4391 3084 
Q 3944 3084 3684 2787 
Q 3425 2491 3425 1978 
L 3425 0 
L 2847 0 
L 2847 2094 
Q 2847 2600 2669 2842 
Q 2491 3084 2119 3084 
Q 1678 3084 1418 2786 
Q 1159 2488 1159 1978 
L 1159 0 
L 581 0 
L 581 3500 
L 1159 3500 
L 1159 2956 
Q 1356 3278 1631 3431 
Q 1906 3584 2284 3584 
Q 2666 3584 2933 3390 
Q 3200 3197 3328 2828 
z
" transform="scale(0.015625)"/>
      </defs>
      <use xlink:href="#DejaVuSans-52"/>
      <use xlink:href="#DejaVuSans-75" x="64.982422"/>
      <use xlink:href="#DejaVuSans-6e" x="128.361328"/>
      <use xlink:href="#DejaVuSans-74" x="191.740234"/>
      <use xlink:href="#DejaVuSans-69" x="230.949219"/>
      <use xlink:href="#DejaVuSans-6d" x="258.732422"/>
      <use xlink:href="#DejaVuSans-65" x="356.144531"/>
     </g>
    </g>
   </g>
   <g id="line2d_63">
    <path d="M 93.697898 288.910963 
L 98.309468 196.890905 
L 102.921038 172.46117 
L 107.532608 159.462859 
L 112.144179 150.896939 
L 116.755749 128.200867 
L 121.367319 119.511271 
L 125.978889 110.55516 
L 130.59046 105.630402 
L 135.20203 101.664101 
L 139.8136 98.108106 
L 144.42517 95.029407 
L 149.036741 92.305648 
L 153.648311 89.916609 
L 158.259881 87.593873 
L 162.871451 85.519507 
L 167.483022 83.79361 
L 172.094592 82.096499 
L 176.706162 80.55455 
L 181.317732 79.122114 
L 185.929303 77.804402 
L 190.540873 76.56137 
L 195.152443 75.402646 
L 199.764013 74.290911 
L 204.375584 73.243567 
L 208.987154 72.291341 
L 213.598724 71.404448 
L 218.210294 70.498386 
L 222.821865 69.635444 
L 227.433435 68.720327 
L 232.045005 67.943595 
L 236.656575 67.208745 
L 241.268146 66.472525 
L 245.879716 65.79496 
L 250.491286 65.136707 
L 255.102856 64.491897 
L 259.714427 63.772736 
L 264.325997 63.037397 
L 268.937567 62.422264 
L 273.549137 61.79845 
L 278.160708 61.153099 
L 282.772278 60.54298 
L 287.383848 59.938832 
L 291.995418 59.309335 
L 296.606989 58.718304 
L 301.218559 58.089821 
L 305.830129 57.458652 
L 310.441699 56.842103 
L 315.05327 56.249422 
L 319.66484 55.54788 
L 324.27641 54.806063 
L 328.88798 54.085423 
L 333.499551 53.376833 
L 338.111121 52.692003 
L 342.722691 52.031629 
L 347.334261 51.381711 
L 351.945832 50.730502 
L 356.557402 50.0926 
L 361.168972 49.474511 
L 365.780542 48.845397 
L 370.392113 48.232018 
L 375.003683 47.629674 
L 379.615253 47.027912 
L 384.226823 46.470904 
L 388.838394 45.903361 
L 393.449964 45.347714 
L 398.061534 44.800583 
L 402.673104 44.254521 
L 407.284675 43.735099 
L 411.896245 43.220226 
L 416.507815 42.689273 
L 421.119385 42.196054 
L 425.730956 41.682721 
L 430.342526 41.18332 
L 434.954096 40.628578 
L 439.565666 40.083891 
L 444.177237 39.553378 
L 448.788807 39.040102 
L 453.400377 38.52693 
L 458.011947 38.031743 
L 462.623518 37.534246 
L 467.235088 37.046655 
L 471.846658 36.574429 
L 476.458228 36.111802 
L 481.069799 35.654174 
L 485.681369 35.205339 
L 490.292939 34.751874 
L 494.904509 34.295173 
L 499.51608 33.838947 
L 504.12765 33.399015 
L 508.73922 32.973442 
L 513.35079 32.538977 
L 517.962361 32.113472 
L 522.573931 31.683482 
L 527.185501 31.257691 
L 531.797071 30.845256 
L 536.408642 30.446151 
L 541.020212 30.046832 
L 545.631782 29.644836 
L 550.243352 29.219747 
" clip-path="url(#p12d10c401e)" style="fill: none; stroke: #386cb0; stroke-width: 3; stroke-linecap: square"/>
   </g>
   <g id="line2d_64">
    <path d="M 93.697898 294.959822 
L 98.309468 172.657341 
L 102.921038 159.429651 
L 107.532608 150.442446 
L 112.144179 143.887928 
L 116.755749 138.408652 
L 121.367319 133.126013 
L 125.978889 130.265734 
L 130.59046 127.722575 
L 135.20203 125.869382 
L 139.8136 123.749249 
L 144.42517 122.147669 
L 149.036741 120.425832 
L 153.648311 118.958796 
L 158.259881 117.599926 
L 162.871451 115.734213 
L 167.483022 114.557943 
L 172.094592 113.771573 
L 176.706162 112.692169 
L 181.317732 111.838271 
L 185.929303 110.892858 
L 190.540873 109.832845 
L 195.152443 109.209687 
L 199.764013 108.656451 
L 204.375584 108.063008 
L 208.987154 107.615824 
L 213.598724 107.041974 
L 218.210294 106.296869 
L 222.821865 105.41833 
L 227.433435 104.891665 
L 232.045005 104.380004 
L 236.656575 103.463499 
L 241.268146 102.865088 
L 245.879716 102.177525 
L 250.491286 101.654716 
L 255.102856 101.288168 
L 259.714427 100.917813 
L 264.325997 100.335312 
L 268.937567 99.83585 
L 273.549137 99.461124 
L 278.160708 98.939097 
L 282.772278 98.375532 
L 287.383848 98.11485 
L 291.995418 97.622338 
L 296.606989 97.33289 
L 301.218559 97.01604 
L 305.830129 96.663643 
L 310.441699 96.149267 
L 315.05327 95.755168 
L 319.66484 95.550331 
L 324.27641 95.104619 
L 328.88798 94.699164 
L 333.499551 94.42703 
L 338.111121 94.131161 
L 342.722691 93.913192 
L 347.334261 93.467085 
L 351.945832 93.127004 
L 356.557402 92.844016 
L 361.168972 92.755904 
L 365.780542 92.650547 
L 370.392113 92.543799 
L 375.003683 92.42148 
L 379.615253 92.288393 
L 384.226823 92.082721 
L 388.838394 91.958869 
L 393.449964 91.833266 
L 398.061534 91.673773 
L 402.673104 91.482482 
L 407.284675 91.312108 
L 411.896245 91.18876 
L 416.507815 91.013485 
L 421.119385 90.890159 
L 425.730956 90.763708 
L 430.342526 90.65666 
L 434.954096 90.531825 
L 439.565666 90.384299 
L 444.177237 90.256503 
L 448.788807 90.092756 
L 453.400377 89.981569 
L 458.011947 89.78048 
L 462.623518 89.578029 
L 467.235088 89.397551 
L 471.846658 89.213496 
L 476.458228 89.01064 
L 481.069799 88.766691 
L 485.681369 88.597563 
L 490.292939 88.431735 
L 494.904509 88.338547 
L 499.51608 88.207701 
L 504.12765 88.056513 
L 508.73922 87.906732 
L 513.35079 87.758653 
L 517.962361 87.606724 
L 522.573931 87.434542 
L 527.185501 87.280112 
L 531.797071 87.12602 
L 536.408642 86.992824 
L 541.020212 86.855997 
L 545.631782 86.68322 
L 550.243352 86.528987 
" clip-path="url(#p12d10c401e)" style="fill: none; stroke: #f0027f; stroke-width: 3; stroke-linecap: square"/>
   </g>
   <g id="line2d_65">
    <path d="M 93.697898 139.432405 
L 98.309468 119.039275 
L 102.921038 107.549323 
L 107.532608 102.110646 
L 112.144179 97.793534 
L 116.755749 95.204208 
L 121.367319 92.922047 
L 125.978889 90.610137 
L 130.59046 88.578242 
L 135.20203 86.613594 
L 139.8136 84.866626 
L 144.42517 83.161411 
L 149.036741 81.567333 
L 153.648311 80.048132 
L 158.259881 78.594508 
L 162.871451 77.225347 
L 167.483022 75.985357 
L 172.094592 74.711684 
L 176.706162 73.492335 
L 181.317732 72.352267 
L 185.929303 71.313419 
L 190.540873 70.333763 
L 195.152443 69.34446 
L 199.764013 68.446352 
L 204.375584 67.560235 
L 208.987154 66.709762 
L 213.598724 65.882408 
L 218.210294 65.058109 
L 222.821865 64.306928 
L 227.433435 63.549796 
L 232.045005 62.852146 
L 236.656575 62.175777 
L 241.268146 61.53491 
L 245.879716 60.887428 
L 250.491286 60.245374 
L 255.102856 59.617342 
L 259.714427 58.973064 
L 264.325997 58.361794 
L 268.937567 57.722945 
L 273.549137 57.121231 
L 278.160708 56.528347 
L 282.772278 55.962211 
L 287.383848 55.386862 
L 291.995418 54.815687 
L 296.606989 54.246924 
L 301.218559 53.641987 
L 305.830129 53.024053 
L 310.441699 52.455105 
L 315.05327 51.921645 
L 319.66484 51.394605 
L 324.27641 50.707656 
L 328.88798 50.033255 
L 333.499551 49.386817 
L 338.111121 48.759221 
L 342.722691 48.132153 
L 347.334261 47.508999 
L 351.945832 46.926948 
L 356.557402 46.329169 
L 361.168972 45.730449 
L 365.780542 45.121121 
L 370.392113 44.546601 
L 375.003683 43.978726 
L 379.615253 43.386401 
L 384.226823 42.847462 
L 388.838394 42.304708 
L 393.449964 41.76767 
L 398.061534 41.251188 
L 402.673104 40.740072 
L 407.284675 40.216019 
L 411.896245 39.719413 
L 416.507815 39.247593 
L 421.119385 38.765017 
L 425.730956 38.271828 
L 430.342526 37.781952 
L 434.954096 37.299893 
L 439.565666 36.792369 
L 444.177237 36.283258 
L 448.788807 35.780466 
L 453.400377 35.297223 
L 458.011947 34.822501 
L 462.623518 34.348754 
L 467.235088 33.88782 
L 471.846658 33.424207 
L 476.458228 32.983807 
L 481.069799 32.530047 
L 485.681369 32.096695 
L 490.292939 31.644087 
L 494.904509 31.2135 
L 499.51608 30.776678 
L 504.12765 30.338414 
L 508.73922 29.905079 
L 513.35079 29.483612 
L 517.962361 29.069422 
L 522.573931 28.654337 
L 527.185501 28.250846 
L 531.797071 27.851598 
L 536.408642 27.458938 
L 541.020212 27.072841 
L 545.631782 26.691818 
L 550.243352 26.318336 
" clip-path="url(#p12d10c401e)" style="fill: none; stroke: #bf5b17; stroke-width: 3; stroke-linecap: square"/>
   </g>
   <g id="patch_3">
    <path d="M 70.870625 339.84 
L 70.870625 7.2 
" style="fill: none; stroke: #000000; stroke-width: 0.8; stroke-linejoin: miter; stroke-linecap: square"/>
   </g>
   <g id="patch_4">
    <path d="M 573.070625 339.84 
L 573.070625 7.2 
" style="fill: none; stroke: #000000; stroke-width: 0.8; stroke-linejoin: miter; stroke-linecap: square"/>
   </g>
   <g id="patch_5">
    <path d="M 70.870625 339.84 
L 573.070625 339.84 
" style="fill: none; stroke: #000000; stroke-width: 0.8; stroke-linejoin: miter; stroke-linecap: square"/>
   </g>
   <g id="patch_6">
    <path d="M 70.870625 7.2 
L 573.070625 7.2 
" style="fill: none; stroke: #000000; stroke-width: 0.8; stroke-linejoin: miter; stroke-linecap: square"/>
   </g>
   <g id="legend_1">
    <g id="patch_7">
     <path d="M 365.330625 331.84 
L 561.870625 331.84 
Q 565.070625 331.84 565.070625 328.64 
L 565.070625 259.785 
Q 565.070625 256.585 561.870625 256.585 
L 365.330625 256.585 
Q 362.130625 256.585 362.130625 259.785 
L 362.130625 328.64 
Q 362.130625 331.84 365.330625 331.84 
z
" style="fill: #ffffff; opacity: 0.8; stroke: #cccccc; stroke-linejoin: miter"/>
    </g>
    <g id="line2d_66">
     <path d="M 368.530625 269.5425 
L 384.530625 269.5425 
L 400.530625 269.5425 
" style="fill: none; stroke: #386cb0; stroke-width: 3; stroke-linecap: square"/>
    </g>
    <g id="text_14">
     <!-- M/GP-MBTL (Ours) -->
     <g transform="translate(413.330625 275.1425) scale(0.16 -0.16)">
      <defs>
       <path id="DejaVuSans-4d" d="M 628 4666 
L 1569 4666 
L 2759 1491 
L 3956 4666 
L 4897 4666 
L 4897 0 
L 4281 0 
L 4281 4097 
L 3078 897 
L 2444 897 
L 1241 4097 
L 1241 0 
L 628 0 
L 628 4666 
z
" transform="scale(0.015625)"/>
       <path id="DejaVuSans-2f" d="M 1625 4666 
L 2156 4666 
L 531 -594 
L 0 -594 
L 1625 4666 
z
" transform="scale(0.015625)"/>
       <path id="DejaVuSans-47" d="M 3809 666 
L 3809 1919 
L 2778 1919 
L 2778 2438 
L 4434 2438 
L 4434 434 
Q 4069 175 3628 42 
Q 3188 -91 2688 -91 
Q 1594 -91 976 548 
Q 359 1188 359 2328 
Q 359 3472 976 4111 
Q 1594 4750 2688 4750 
Q 3144 4750 3555 4637 
Q 3966 4525 4313 4306 
L 4313 3634 
Q 3963 3931 3569 4081 
Q 3175 4231 2741 4231 
Q 1884 4231 1454 3753 
Q 1025 3275 1025 2328 
Q 1025 1384 1454 906 
Q 1884 428 2741 428 
Q 3075 428 3337 486 
Q 3600 544 3809 666 
z
" transform="scale(0.015625)"/>
       <path id="DejaVuSans-50" d="M 1259 4147 
L 1259 2394 
L 2053 2394 
Q 2494 2394 2734 2622 
Q 2975 2850 2975 3272 
Q 2975 3691 2734 3919 
Q 2494 4147 2053 4147 
L 1259 4147 
z
M 628 4666 
L 2053 4666 
Q 2838 4666 3239 4311 
Q 3641 3956 3641 3272 
Q 3641 2581 3239 2228 
Q 2838 1875 2053 1875 
L 1259 1875 
L 1259 0 
L 628 0 
L 628 4666 
z
" transform="scale(0.015625)"/>
       <path id="DejaVuSans-2d" d="M 313 2009 
L 1997 2009 
L 1997 1497 
L 313 1497 
L 313 2009 
z
" transform="scale(0.015625)"/>
       <path id="DejaVuSans-42" d="M 1259 2228 
L 1259 519 
L 2272 519 
Q 2781 519 3026 730 
Q 3272 941 3272 1375 
Q 3272 1813 3026 2020 
Q 2781 2228 2272 2228 
L 1259 2228 
z
M 1259 4147 
L 1259 2741 
L 2194 2741 
Q 2656 2741 2882 2914 
Q 3109 3088 3109 3444 
Q 3109 3797 2882 3972 
Q 2656 4147 2194 4147 
L 1259 4147 
z
M 628 4666 
L 2241 4666 
Q 2963 4666 3353 4366 
Q 3744 4066 3744 3513 
Q 3744 3084 3544 2831 
Q 3344 2578 2956 2516 
Q 3422 2416 3680 2098 
Q 3938 1781 3938 1306 
Q 3938 681 3513 340 
Q 3088 0 2303 0 
L 628 0 
L 628 4666 
z
" transform="scale(0.015625)"/>
       <path id="DejaVuSans-54" d="M -19 4666 
L 3928 4666 
L 3928 4134 
L 2272 4134 
L 2272 0 
L 1638 0 
L 1638 4134 
L -19 4134 
L -19 4666 
z
" transform="scale(0.015625)"/>
       <path id="DejaVuSans-4c" d="M 628 4666 
L 1259 4666 
L 1259 531 
L 3531 531 
L 3531 0 
L 628 0 
L 628 4666 
z
" transform="scale(0.015625)"/>
       <path id="DejaVuSans-28" d="M 1984 4856 
Q 1566 4138 1362 3434 
Q 1159 2731 1159 2009 
Q 1159 1288 1364 580 
Q 1569 -128 1984 -844 
L 1484 -844 
Q 1016 -109 783 600 
Q 550 1309 550 2009 
Q 550 2706 781 3412 
Q 1013 4119 1484 4856 
L 1984 4856 
z
" transform="scale(0.015625)"/>
       <path id="DejaVuSans-4f" d="M 2522 4238 
Q 1834 4238 1429 3725 
Q 1025 3213 1025 2328 
Q 1025 1447 1429 934 
Q 1834 422 2522 422 
Q 3209 422 3611 934 
Q 4013 1447 4013 2328 
Q 4013 3213 3611 3725 
Q 3209 4238 2522 4238 
z
M 2522 4750 
Q 3503 4750 4090 4092 
Q 4678 3434 4678 2328 
Q 4678 1225 4090 567 
Q 3503 -91 2522 -91 
Q 1538 -91 948 565 
Q 359 1222 359 2328 
Q 359 3434 948 4092 
Q 1538 4750 2522 4750 
z
" transform="scale(0.015625)"/>
       <path id="DejaVuSans-72" d="M 2631 2963 
Q 2534 3019 2420 3045 
Q 2306 3072 2169 3072 
Q 1681 3072 1420 2755 
Q 1159 2438 1159 1844 
L 1159 0 
L 581 0 
L 581 3500 
L 1159 3500 
L 1159 2956 
Q 1341 3275 1631 3429 
Q 1922 3584 2338 3584 
Q 2397 3584 2469 3576 
Q 2541 3569 2628 3553 
L 2631 2963 
z
" transform="scale(0.015625)"/>
       <path id="DejaVuSans-29" d="M 513 4856 
L 1013 4856 
Q 1481 4119 1714 3412 
Q 1947 2706 1947 2009 
Q 1947 1309 1714 600 
Q 1481 -109 1013 -844 
L 513 -844 
Q 928 -128 1133 580 
Q 1338 1288 1338 2009 
Q 1338 2731 1133 3434 
Q 928 4138 513 4856 
z
" transform="scale(0.015625)"/>
      </defs>
      <use xlink:href="#DejaVuSans-4d"/>
      <use xlink:href="#DejaVuSans-2f" x="86.279297"/>
      <use xlink:href="#DejaVuSans-47" x="119.970703"/>
      <use xlink:href="#DejaVuSans-50" x="197.460938"/>
      <use xlink:href="#DejaVuSans-2d" x="255.513672"/>
      <use xlink:href="#DejaVuSans-4d" x="291.597656"/>
      <use xlink:href="#DejaVuSans-42" x="377.876953"/>
      <use xlink:href="#DejaVuSans-54" x="446.480469"/>
      <use xlink:href="#DejaVuSans-4c" x="507.564453"/>
      <use xlink:href="#DejaVuSans-20" x="563.277344"/>
      <use xlink:href="#DejaVuSans-28" x="595.064453"/>
      <use xlink:href="#DejaVuSans-4f" x="634.078125"/>
      <use xlink:href="#DejaVuSans-75" x="712.789062"/>
      <use xlink:href="#DejaVuSans-72" x="776.167969"/>
      <use xlink:href="#DejaVuSans-73" x="817.28125"/>
      <use xlink:href="#DejaVuSans-29" x="869.380859"/>
     </g>
    </g>
    <g id="line2d_67">
     <path d="M 368.530625 293.0275 
L 384.530625 293.0275 
L 400.530625 293.0275 
" style="fill: none; stroke: #f0027f; stroke-width: 3; stroke-linecap: square"/>
    </g>
    <g id="text_15">
     <!-- M-MBTL -->
     <g transform="translate(413.330625 298.6275) scale(0.16 -0.16)">
      <use xlink:href="#DejaVuSans-4d"/>
      <use xlink:href="#DejaVuSans-2d" x="86.279297"/>
      <use xlink:href="#DejaVuSans-4d" x="122.363281"/>
      <use xlink:href="#DejaVuSans-42" x="208.642578"/>
      <use xlink:href="#DejaVuSans-54" x="277.246094"/>
      <use xlink:href="#DejaVuSans-4c" x="338.330078"/>
     </g>
    </g>
    <g id="line2d_68">
     <path d="M 368.530625 316.5125 
L 384.530625 316.5125 
L 400.530625 316.5125 
" style="fill: none; stroke: #bf5b17; stroke-width: 3; stroke-linecap: square"/>
    </g>
    <g id="text_16">
     <!-- GP-MBTL -->
     <g transform="translate(413.330625 322.1125) scale(0.16 -0.16)">
      <use xlink:href="#DejaVuSans-47"/>
      <use xlink:href="#DejaVuSans-50" x="77.490234"/>
      <use xlink:href="#DejaVuSans-2d" x="135.542969"/>
      <use xlink:href="#DejaVuSans-4d" x="171.626953"/>
      <use xlink:href="#DejaVuSans-42" x="257.90625"/>
      <use xlink:href="#DejaVuSans-54" x="326.509766"/>
      <use xlink:href="#DejaVuSans-4c" x="387.59375"/>
     </g>
    </g>
   </g>
  </g>
 </g>
 <defs>
  <clipPath id="p12d10c401e">
   <rect x="70.870625" y="7.2" width="502.2" height="332.64"/>
  </clipPath>
 </defs>
</svg>
