<?xml version="1.0" encoding="utf-8" standalone="no"?>
<!DOCTYPE svg PUBLIC "-//W3C//DTD SVG 1.1//EN"
  "http://www.w3.org/Graphics/SVG/1.1/DTD/svg11.dtd">
<svg xmlns:xlink="http://www.w3.org/1999/xlink" width="578.419062pt" height="391.9244pt" viewBox="0 0 578.419062 391.9244" xmlns="http://www.w3.org/2000/svg" version="1.1">
 <metadata>
  <rdf:RDF xmlns:dc="http://purl.org/dc/elements/1.1/" xmlns:cc="http://creativecommons.org/ns#" xmlns:rdf="http://www.w3.org/1999/02/22-rdf-syntax-ns#">
   <cc:Work>
    <dc:type rdf:resource="http://purl.org/dc/dcmitype/StillImage"/>
    <dc:date>2025-05-16T02:37:25.462569</dc:date>
    <dc:format>image/svg+xml</dc:format>
    <dc:creator>
     <cc:Agent>
      <dc:title>Matplotlib v3.9.4, https://matplotlib.org/</dc:title>
     </cc:Agent>
    </dc:creator>
   </cc:Work>
  </rdf:RDF>
 </metadata>
 <defs>
  <style type="text/css">*{stroke-linejoin: round; stroke-linecap: butt}</style>
 </defs>
 <g id="figure_1">
  <g id="patch_1">
   <path d="M 0 391.9244 
L 578.419062 391.9244 
L 578.419062 0 
L 0 0 
z
" style="fill: #ffffff"/>
  </g>
  <g id="axes_1">
   <g id="patch_2">
    <path d="M 69.019063 341.786587 
L 571.219063 341.786587 
L 571.219063 9.146587 
L 69.019063 9.146587 
z
" style="fill: #ffffff"/>
   </g>
   <g id="PolyCollection_1">
    <defs>
     <path id="m6521b06e44" d="M 91.846335 -248.472354 
L 91.846335 -244.011693 
L 172.738803 -244.011693 
L 220.057863 -244.011693 
L 253.631271 -244.011693 
L 279.672829 -244.011693 
L 300.950331 -244.011693 
L 318.940203 -244.011693 
L 334.523738 -244.011693 
L 348.269391 -244.011693 
L 360.565296 -244.011693 
L 371.688296 -244.011693 
L 381.842799 -244.011693 
L 391.184036 -244.011693 
L 399.83267 -244.011693 
L 407.884357 -244.011693 
L 415.416206 -244.011693 
L 422.491291 -244.011693 
L 429.161859 -244.011693 
L 435.471674 -244.011693 
L 441.457764 -244.011693 
L 447.15173 -244.011693 
L 452.580763 -244.011693 
L 457.768425 -244.011693 
L 462.735266 -244.011693 
L 467.499322 -244.011693 
L 472.076503 -244.011693 
L 476.480919 -244.011693 
L 480.725138 -244.011693 
L 484.820406 -244.011693 
L 488.776824 -244.011693 
L 492.6035 -244.011693 
L 496.308674 -244.011693 
L 499.899824 -244.011693 
L 503.383759 -244.011693 
L 506.766696 -244.011693 
L 510.054326 -244.011693 
L 513.251873 -244.011693 
L 516.364142 -244.011693 
L 519.395564 -244.011693 
L 522.350232 -244.011693 
L 525.231938 -244.011693 
L 528.044198 -244.011693 
L 530.790282 -244.011693 
L 533.473231 -244.011693 
L 536.095884 -244.011693 
L 538.660892 -244.011693 
L 541.170735 -244.011693 
L 543.627734 -244.011693 
L 546.03407 -244.011693 
L 548.39179 -244.011693 
L 548.39179 -248.472354 
L 548.39179 -248.472354 
L 546.03407 -248.472354 
L 543.627734 -248.472354 
L 541.170735 -248.472354 
L 538.660892 -248.472354 
L 536.095884 -248.472354 
L 533.473231 -248.472354 
L 530.790282 -248.472354 
L 528.044198 -248.472354 
L 525.231938 -248.472354 
L 522.350232 -248.472354 
L 519.395564 -248.472354 
L 516.364142 -248.472354 
L 513.251873 -248.472354 
L 510.054326 -248.472354 
L 506.766696 -248.472354 
L 503.383759 -248.472354 
L 499.899824 -248.472354 
L 496.308674 -248.472354 
L 492.6035 -248.472354 
L 488.776824 -248.472354 
L 484.820406 -248.472354 
L 480.725138 -248.472354 
L 476.480919 -248.472354 
L 472.076503 -248.472354 
L 467.499322 -248.472354 
L 462.735266 -248.472354 
L 457.768425 -248.472354 
L 452.580763 -248.472354 
L 447.15173 -248.472354 
L 441.457764 -248.472354 
L 435.471674 -248.472354 
L 429.161859 -248.472354 
L 422.491291 -248.472354 
L 415.416206 -248.472354 
L 407.884357 -248.472354 
L 399.83267 -248.472354 
L 391.184036 -248.472354 
L 381.842799 -248.472354 
L 371.688296 -248.472354 
L 360.565296 -248.472354 
L 348.269391 -248.472354 
L 334.523738 -248.472354 
L 318.940203 -248.472354 
L 300.950331 -248.472354 
L 279.672829 -248.472354 
L 253.631271 -248.472354 
L 220.057863 -248.472354 
L 172.738803 -248.472354 
L 91.846335 -248.472354 
z
" style="stroke: #fdc086; stroke-opacity: 0.05"/>
    </defs>
    <g clip-path="url(#p3d91a8d227)">
     <use xlink:href="#m6521b06e44" x="0" y="391.9244" style="fill: #fdc086; fill-opacity: 0.05; stroke: #fdc086; stroke-opacity: 0.05"/>
    </g>
   </g>
   <g id="PolyCollection_2">
    <defs>
     <path id="m2dc707df77" d="M 91.846335 -184.239973 
L 91.846335 -65.257812 
L 172.738803 -132.449826 
L 220.057863 -169.751965 
L 253.631271 -189.094147 
L 279.672829 -201.448758 
L 300.950331 -212.704791 
L 318.940203 -221.954932 
L 334.523738 -230.465848 
L 348.269391 -237.316349 
L 360.565296 -243.05718 
L 371.688296 -247.798052 
L 381.842799 -253.578483 
L 391.184036 -257.499149 
L 399.83267 -261.144709 
L 407.884357 -265.034474 
L 415.416206 -267.883166 
L 422.491291 -270.468042 
L 429.161859 -273.195793 
L 435.471674 -275.186663 
L 441.457764 -276.551416 
L 447.15173 -278.664172 
L 452.580763 -280.352396 
L 457.768425 -281.604503 
L 462.735266 -283.397191 
L 467.499322 -285.175731 
L 472.076503 -286.047646 
L 476.480919 -288.203466 
L 480.725138 -289.428859 
L 484.820406 -291.631236 
L 488.776824 -292.928176 
L 492.6035 -294.277163 
L 496.308674 -295.592363 
L 499.899824 -296.564988 
L 503.383759 -297.73706 
L 506.766696 -298.668092 
L 510.054326 -299.960557 
L 513.251873 -301.570266 
L 516.364142 -302.570588 
L 519.395564 -302.960206 
L 522.350232 -304.460882 
L 525.231938 -305.23361 
L 528.044198 -305.936747 
L 530.790282 -306.424304 
L 533.473231 -307.311355 
L 536.095884 -308.130806 
L 538.660892 -309.202965 
L 541.170735 -310.164199 
L 543.627734 -311.304457 
L 546.03407 -312.173561 
L 548.39179 -312.515445 
L 548.39179 -326.593643 
L 548.39179 -326.593643 
L 546.03407 -326.157363 
L 543.627734 -325.864129 
L 541.170735 -325.53583 
L 538.660892 -325.062708 
L 536.095884 -324.758651 
L 533.473231 -324.131716 
L 530.790282 -323.450849 
L 528.044198 -322.934122 
L 525.231938 -322.532876 
L 522.350232 -321.930668 
L 519.395564 -321.436674 
L 516.364142 -321.167447 
L 513.251873 -320.288335 
L 510.054326 -319.486154 
L 506.766696 -318.70001 
L 503.383759 -317.852052 
L 499.899824 -317.084601 
L 496.308674 -316.302711 
L 492.6035 -315.648297 
L 488.776824 -314.737984 
L 484.820406 -313.89245 
L 480.725138 -313.352383 
L 476.480919 -312.554229 
L 472.076503 -311.861645 
L 467.499322 -310.968675 
L 462.735266 -309.274726 
L 457.768425 -307.811237 
L 452.580763 -306.446035 
L 447.15173 -306.062594 
L 441.457764 -305.278407 
L 435.471674 -303.940276 
L 429.161859 -302.279995 
L 422.491291 -300.159743 
L 415.416206 -298.922995 
L 407.884357 -297.311998 
L 399.83267 -295.123686 
L 391.184036 -292.480468 
L 381.842799 -289.096393 
L 371.688296 -286.837608 
L 360.565296 -284.229668 
L 348.269391 -279.997389 
L 334.523738 -277.295726 
L 318.940203 -272.020648 
L 300.950331 -266.481928 
L 279.672829 -260.750179 
L 253.631271 -252.745854 
L 220.057863 -238.567213 
L 172.738803 -218.318047 
L 91.846335 -184.239973 
z
" style="stroke: #7fc97f; stroke-opacity: 0.05"/>
    </defs>
    <g clip-path="url(#p3d91a8d227)">
     <use xlink:href="#m2dc707df77" x="0" y="391.9244" style="fill: #7fc97f; fill-opacity: 0.05; stroke: #7fc97f; stroke-opacity: 0.05"/>
    </g>
   </g>
   <g id="PolyCollection_3">
    <defs>
     <path id="m369fbe2ff1" d="M 91.846335 -138.097504 
L 91.846335 -134.23594 
L 172.738803 -209.909638 
L 220.057863 -254.766022 
L 253.631271 -289.295219 
L 279.672829 -302.501475 
L 300.950331 -311.808538 
L 318.940203 -318.060295 
L 334.523738 -323.65665 
L 348.269391 -328.344248 
L 360.565296 -331.953017 
L 371.688296 -334.814582 
L 381.842799 -337.387459 
L 391.184036 -339.576808 
L 399.83267 -341.219733 
L 407.884357 -342.826816 
L 415.416206 -344.375857 
L 422.491291 -345.777087 
L 429.161859 -347.067496 
L 435.471674 -348.239821 
L 441.457764 -349.283294 
L 447.15173 -350.226976 
L 452.580763 -351.122806 
L 457.768425 -352.065975 
L 462.735266 -353.012606 
L 467.499322 -353.745237 
L 472.076503 -354.592638 
L 476.480919 -355.201171 
L 480.725138 -355.80794 
L 484.820406 -356.362601 
L 488.776824 -356.894885 
L 492.6035 -357.449907 
L 496.308674 -357.925473 
L 499.899824 -358.407708 
L 503.383759 -358.804527 
L 506.766696 -359.213682 
L 510.054326 -359.6721 
L 513.251873 -360.097686 
L 516.364142 -360.416137 
L 519.395564 -360.844643 
L 522.350232 -361.183732 
L 525.231938 -361.596411 
L 528.044198 -361.973502 
L 530.790282 -362.317175 
L 533.473231 -362.648248 
L 536.095884 -363.012435 
L 538.660892 -363.317355 
L 541.170735 -363.608656 
L 543.627734 -363.889794 
L 546.03407 -364.179716 
L 548.39179 -364.431534 
L 548.39179 -367.401459 
L 548.39179 -367.401459 
L 546.03407 -367.195387 
L 543.627734 -366.956739 
L 541.170735 -366.684373 
L 538.660892 -366.406699 
L 536.095884 -366.142338 
L 533.473231 -365.85452 
L 530.790282 -365.623409 
L 528.044198 -365.320812 
L 525.231938 -364.988644 
L 522.350232 -364.74894 
L 519.395564 -364.429687 
L 516.364142 -364.130027 
L 513.251873 -363.774067 
L 510.054326 -363.436932 
L 506.766696 -363.097646 
L 503.383759 -362.665886 
L 499.899824 -362.265212 
L 496.308674 -361.827648 
L 492.6035 -361.391228 
L 488.776824 -360.972017 
L 484.820406 -360.545155 
L 480.725138 -360.093468 
L 476.480919 -359.590252 
L 472.076503 -358.980947 
L 467.499322 -358.276176 
L 462.735266 -357.457672 
L 457.768425 -356.633317 
L 452.580763 -355.706148 
L 447.15173 -354.76854 
L 441.457764 -353.687447 
L 435.471674 -352.5659 
L 429.161859 -351.492596 
L 422.491291 -350.290953 
L 415.416206 -349.03019 
L 407.884357 -347.605064 
L 399.83267 -346.151031 
L 391.184036 -344.38287 
L 381.842799 -342.626346 
L 371.688296 -340.752556 
L 360.565296 -338.244625 
L 348.269391 -335.153891 
L 334.523738 -331.044648 
L 318.940203 -325.972436 
L 300.950331 -319.36777 
L 279.672829 -310.78266 
L 253.631271 -299.605389 
L 220.057863 -277.34543 
L 172.738803 -240.699342 
L 91.846335 -138.097504 
z
" style="stroke: #bf5b17; stroke-opacity: 0.05"/>
    </defs>
    <g clip-path="url(#p3d91a8d227)">
     <use xlink:href="#m369fbe2ff1" x="0" y="391.9244" style="fill: #bf5b17; fill-opacity: 0.05; stroke: #bf5b17; stroke-opacity: 0.05"/>
    </g>
   </g>
   <g id="PolyCollection_4">
    <defs>
     <path id="mb4bc36d56d" d="M 91.846335 -138.097504 
L 91.846335 -134.23594 
L 172.738803 -208.122087 
L 220.057863 -233.482074 
L 253.631271 -234.884227 
L 279.672829 -236.792055 
L 300.950331 -238.06274 
L 318.940203 -238.299756 
L 334.523738 -246.65327 
L 348.269391 -248.784975 
L 360.565296 -249.070871 
L 371.688296 -253.420825 
L 381.842799 -270.062813 
L 391.184036 -277.20916 
L 399.83267 -278.542945 
L 407.884357 -278.56069 
L 415.416206 -279.792424 
L 422.491291 -280.010247 
L 429.161859 -291.988152 
L 435.471674 -292.058125 
L 441.457764 -292.257889 
L 447.15173 -292.680505 
L 452.580763 -297.363913 
L 457.768425 -297.40078 
L 462.735266 -297.407861 
L 467.499322 -297.408677 
L 472.076503 -297.481208 
L 476.480919 -302.803074 
L 480.725138 -304.637376 
L 484.820406 -304.774964 
L 488.776824 -305.126907 
L 492.6035 -306.470069 
L 496.308674 -306.494227 
L 499.899824 -307.839222 
L 503.383759 -307.932547 
L 506.766696 -308.222317 
L 510.054326 -311.759481 
L 513.251873 -311.988827 
L 516.364142 -312.048094 
L 519.395564 -312.322033 
L 522.350232 -317.044662 
L 525.231938 -317.044771 
L 528.044198 -317.175627 
L 530.790282 -319.566656 
L 533.473231 -319.637683 
L 536.095884 -319.747559 
L 538.660892 -319.753757 
L 541.170735 -320.45263 
L 543.627734 -320.490057 
L 546.03407 -321.335583 
L 548.39179 -321.337789 
L 548.39179 -323.899832 
L 548.39179 -323.899832 
L 546.03407 -323.899515 
L 543.627734 -323.086786 
L 541.170735 -323.057788 
L 538.660892 -322.2788 
L 536.095884 -322.271231 
L 533.473231 -322.165649 
L 530.790282 -322.094945 
L 528.044198 -319.640903 
L 525.231938 -319.530467 
L 522.350232 -319.530418 
L 519.395564 -315.024519 
L 516.364142 -314.709731 
L 513.251873 -314.650104 
L 510.054326 -314.449 
L 506.766696 -310.973647 
L 503.383759 -310.595264 
L 499.899824 -310.508571 
L 496.308674 -309.168207 
L 492.6035 -309.140743 
L 488.776824 -307.743171 
L 484.820406 -307.366244 
L 480.725138 -307.219784 
L 476.480919 -305.392029 
L 472.076503 -300.024736 
L 467.499322 -299.935784 
L 462.735266 -299.933845 
L 457.768425 -299.924696 
L 452.580763 -299.891311 
L 447.15173 -295.288035 
L 441.457764 -294.841526 
L 435.471674 -294.684768 
L 429.161859 -294.627654 
L 422.491291 -282.759253 
L 415.416206 -282.583665 
L 407.884357 -281.504626 
L 399.83267 -281.491061 
L 391.184036 -280.161931 
L 381.842799 -273.286109 
L 371.688296 -256.461837 
L 360.565296 -252.23378 
L 348.269391 -251.959389 
L 334.523738 -249.901342 
L 318.940203 -241.756623 
L 300.950331 -241.530418 
L 279.672829 -240.275582 
L 253.631271 -238.48801 
L 220.057863 -237.196956 
L 172.738803 -212.125828 
L 91.846335 -138.097504 
z
" style="stroke: #f0027f; stroke-opacity: 0.05"/>
    </defs>
    <g clip-path="url(#p3d91a8d227)">
     <use xlink:href="#mb4bc36d56d" x="0" y="391.9244" style="fill: #f0027f; fill-opacity: 0.05; stroke: #f0027f; stroke-opacity: 0.05"/>
    </g>
   </g>
   <g id="PolyCollection_5">
    <defs>
     <path id="mac9fe76cbc" d="M 91.846335 -138.097504 
L 91.846335 -134.23594 
L 172.738803 -208.122087 
L 220.057863 -233.482074 
L 253.631271 -234.884227 
L 279.672829 -236.792055 
L 300.950331 -238.06274 
L 318.940203 -232.829252 
L 334.523738 -243.449085 
L 348.269391 -247.294811 
L 360.565296 -249.641278 
L 371.688296 -255.644916 
L 381.842799 -272.503349 
L 391.184036 -280.987551 
L 399.83267 -283.730519 
L 407.884357 -285.060326 
L 415.416206 -289.267903 
L 422.491291 -291.638198 
L 429.161859 -302.011271 
L 435.471674 -309.297222 
L 441.457764 -317.210562 
L 447.15173 -323.209519 
L 452.580763 -328.13303 
L 457.768425 -332.258431 
L 462.735266 -335.554383 
L 467.499322 -338.692529 
L 472.076503 -341.103151 
L 476.480919 -343.011593 
L 480.725138 -344.523819 
L 484.820406 -345.944594 
L 488.776824 -347.280461 
L 492.6035 -348.422536 
L 496.308674 -349.457132 
L 499.899824 -350.45184 
L 503.383759 -351.507602 
L 506.766696 -352.365499 
L 510.054326 -353.241218 
L 513.251873 -354.102807 
L 516.364142 -354.98119 
L 519.395564 -355.737894 
L 522.350232 -356.394021 
L 525.231938 -357.021083 
L 528.044198 -357.615309 
L 530.790282 -358.166075 
L 533.473231 -358.615669 
L 536.095884 -358.999433 
L 538.660892 -359.364352 
L 541.170735 -359.736686 
L 543.627734 -360.067955 
L 546.03407 -360.368942 
L 548.39179 -360.60659 
L 548.39179 -364.221011 
L 548.39179 -364.221011 
L 546.03407 -363.965107 
L 543.627734 -363.687544 
L 541.170735 -363.427799 
L 538.660892 -363.160396 
L 536.095884 -362.926344 
L 533.473231 -362.587217 
L 530.790282 -362.264951 
L 528.044198 -361.968258 
L 525.231938 -361.655446 
L 522.350232 -361.354226 
L 519.395564 -360.948142 
L 516.364142 -360.52357 
L 513.251873 -360.217762 
L 510.054326 -359.78209 
L 506.766696 -359.321355 
L 503.383759 -358.863888 
L 499.899824 -358.37566 
L 496.308674 -357.80143 
L 492.6035 -357.123734 
L 488.776824 -356.425874 
L 484.820406 -355.61077 
L 480.725138 -354.84999 
L 476.480919 -353.92299 
L 472.076503 -353.042616 
L 467.499322 -352.149664 
L 462.735266 -351.283034 
L 457.768425 -350.260729 
L 452.580763 -349.244804 
L 447.15173 -348.241462 
L 441.457764 -347.237158 
L 435.471674 -346.184551 
L 429.161859 -344.498514 
L 422.491291 -343.012459 
L 415.416206 -339.583826 
L 407.884357 -336.464726 
L 399.83267 -332.12882 
L 391.184036 -327.337163 
L 381.842799 -321.779531 
L 371.688296 -314.687455 
L 360.565296 -305.464855 
L 348.269391 -294.926515 
L 334.523738 -281.635127 
L 318.940203 -262.691642 
L 300.950331 -241.530418 
L 279.672829 -240.275582 
L 253.631271 -238.48801 
L 220.057863 -237.196956 
L 172.738803 -212.125828 
L 91.846335 -138.097504 
z
" style="stroke: #386cb0; stroke-opacity: 0.05"/>
    </defs>
    <g clip-path="url(#p3d91a8d227)">
     <use xlink:href="#mac9fe76cbc" x="0" y="391.9244" style="fill: #386cb0; fill-opacity: 0.05; stroke: #386cb0; stroke-opacity: 0.05"/>
    </g>
   </g>
   <g id="PolyCollection_6">
    <defs>
     <path id="ma21194fd31" d="M 91.846335 -257.64451 
L 91.846335 -253.639542 
L 172.738803 -284.367702 
L 220.057863 -301.851769 
L 253.631271 -312.856591 
L 279.672829 -320.138689 
L 300.950331 -325.330709 
L 318.940203 -330.025671 
L 334.523738 -334.33129 
L 348.269391 -336.668728 
L 360.565296 -338.945302 
L 371.688296 -340.883055 
L 381.842799 -342.607905 
L 391.184036 -344.200704 
L 399.83267 -345.754016 
L 407.884357 -347.041208 
L 415.416206 -348.288002 
L 422.491291 -349.419632 
L 429.161859 -350.570402 
L 435.471674 -351.615765 
L 441.457764 -352.616739 
L 447.15173 -353.560695 
L 452.580763 -354.445011 
L 457.768425 -355.272496 
L 462.735266 -356.110071 
L 467.499322 -356.672697 
L 472.076503 -357.18501 
L 476.480919 -357.66705 
L 480.725138 -358.094755 
L 484.820406 -358.552222 
L 488.776824 -358.979528 
L 492.6035 -359.37453 
L 496.308674 -359.813449 
L 499.899824 -360.202189 
L 503.383759 -360.613816 
L 506.766696 -360.986158 
L 510.054326 -361.388944 
L 513.251873 -361.761873 
L 516.364142 -362.087566 
L 519.395564 -362.440516 
L 522.350232 -362.781106 
L 525.231938 -363.092276 
L 528.044198 -363.407213 
L 530.790282 -363.711305 
L 533.473231 -364.031329 
L 536.095884 -364.307423 
L 538.660892 -364.595273 
L 541.170735 -364.859029 
L 543.627734 -365.093903 
L 546.03407 -365.265226 
L 548.39179 -365.440835 
L 548.39179 -367.657812 
L 548.39179 -367.657812 
L 546.03407 -367.485791 
L 543.627734 -367.299984 
L 541.170735 -367.032806 
L 538.660892 -366.747496 
L 536.095884 -366.469856 
L 533.473231 -366.178537 
L 530.790282 -365.918309 
L 528.044198 -365.612861 
L 525.231938 -365.317066 
L 522.350232 -364.995259 
L 519.395564 -364.680813 
L 516.364142 -364.364939 
L 513.251873 -363.996767 
L 510.054326 -363.667373 
L 506.766696 -363.342753 
L 503.383759 -362.982105 
L 499.899824 -362.627815 
L 496.308674 -362.214444 
L 492.6035 -361.844338 
L 488.776824 -361.407554 
L 484.820406 -360.994537 
L 480.725138 -360.568661 
L 476.480919 -360.105892 
L 472.076503 -359.644023 
L 467.499322 -359.14343 
L 462.735266 -358.658899 
L 457.768425 -357.857973 
L 452.580763 -357.016152 
L 447.15173 -356.157321 
L 441.457764 -355.256222 
L 435.471674 -354.300604 
L 429.161859 -353.234952 
L 422.491291 -352.067416 
L 415.416206 -350.855509 
L 407.884357 -349.578928 
L 399.83267 -348.238337 
L 391.184036 -346.711702 
L 381.842799 -345.109734 
L 371.688296 -343.424333 
L 360.565296 -341.430263 
L 348.269391 -339.243126 
L 334.523738 -337.073096 
L 318.940203 -333.001169 
L 300.950331 -328.242607 
L 279.672829 -323.092259 
L 253.631271 -316.127653 
L 220.057863 -305.009678 
L 172.738803 -287.603792 
L 91.846335 -257.64451 
z
" style="stroke: #666666; stroke-opacity: 0.05"/>
    </defs>
    <g clip-path="url(#p3d91a8d227)">
     <use xlink:href="#ma21194fd31" x="0" y="391.9244" style="fill: #666666; fill-opacity: 0.05; stroke: #666666; stroke-opacity: 0.05"/>
    </g>
   </g>
   <g id="matplotlib.axis_1">
    <g id="xtick_1">
     <g id="line2d_1">
      <path d="M 91.846335 341.786587 
L 91.846335 9.146587 
" clip-path="url(#p3d91a8d227)" style="fill: none; stroke-dasharray: 1.85,0.8; stroke-dashoffset: 0; stroke: #b0b0b0; stroke-width: 0.5"/>
     </g>
     <g id="line2d_2">
      <defs>
       <path id="m85e7b5ffb2" d="M 0 0 
L 0 3.5 
" style="stroke: #000000; stroke-width: 0.8"/>
      </defs>
      <g>
       <use xlink:href="#m85e7b5ffb2" x="91.846335" y="341.786587" style="stroke: #000000; stroke-width: 0.8"/>
      </g>
     </g>
     <g id="text_1">
      <!-- $\mathdefault{10^{0}}$ -->
      <g transform="translate(78.646335 360.184244) scale(0.15 -0.15)">
       <defs>
        <path id="DejaVuSans-31" d="M 794 531 
L 1825 531 
L 1825 4091 
L 703 3866 
L 703 4441 
L 1819 4666 
L 2450 4666 
L 2450 531 
L 3481 531 
L 3481 0 
L 794 0 
L 794 531 
z
" transform="scale(0.015625)"/>
        <path id="DejaVuSans-30" d="M 2034 4250 
Q 1547 4250 1301 3770 
Q 1056 3291 1056 2328 
Q 1056 1369 1301 889 
Q 1547 409 2034 409 
Q 2525 409 2770 889 
Q 3016 1369 3016 2328 
Q 3016 3291 2770 3770 
Q 2525 4250 2034 4250 
z
M 2034 4750 
Q 2819 4750 3233 4129 
Q 3647 3509 3647 2328 
Q 3647 1150 3233 529 
Q 2819 -91 2034 -91 
Q 1250 -91 836 529 
Q 422 1150 422 2328 
Q 422 3509 836 4129 
Q 1250 4750 2034 4750 
z
" transform="scale(0.015625)"/>
       </defs>
       <use xlink:href="#DejaVuSans-31" transform="translate(0 0.765625)"/>
       <use xlink:href="#DejaVuSans-30" transform="translate(63.623047 0.765625)"/>
       <use xlink:href="#DejaVuSans-30" transform="translate(128.203125 39.046875) scale(0.7)"/>
      </g>
     </g>
    </g>
    <g id="xtick_2">
     <g id="line2d_3">
      <path d="M 360.565296 341.786587 
L 360.565296 9.146587 
" clip-path="url(#p3d91a8d227)" style="fill: none; stroke-dasharray: 1.85,0.8; stroke-dashoffset: 0; stroke: #b0b0b0; stroke-width: 0.5"/>
     </g>
     <g id="line2d_4">
      <g>
       <use xlink:href="#m85e7b5ffb2" x="360.565296" y="341.786587" style="stroke: #000000; stroke-width: 0.8"/>
      </g>
     </g>
     <g id="text_2">
      <!-- $\mathdefault{10^{1}}$ -->
      <g transform="translate(347.365296 360.184244) scale(0.15 -0.15)">
       <use xlink:href="#DejaVuSans-31" transform="translate(0 0.684375)"/>
       <use xlink:href="#DejaVuSans-30" transform="translate(63.623047 0.684375)"/>
       <use xlink:href="#DejaVuSans-31" transform="translate(128.203125 38.965625) scale(0.7)"/>
      </g>
     </g>
    </g>
    <g id="xtick_3">
     <g id="line2d_5">
      <defs>
       <path id="m74013dea16" d="M 0 0 
L 0 2 
" style="stroke: #000000; stroke-width: 0.6"/>
      </defs>
      <g>
       <use xlink:href="#m74013dea16" x="79.55043" y="341.786587" style="stroke: #000000; stroke-width: 0.6"/>
      </g>
     </g>
    </g>
    <g id="xtick_4">
     <g id="line2d_6">
      <g>
       <use xlink:href="#m74013dea16" x="172.738803" y="341.786587" style="stroke: #000000; stroke-width: 0.6"/>
      </g>
     </g>
    </g>
    <g id="xtick_5">
     <g id="line2d_7">
      <g>
       <use xlink:href="#m74013dea16" x="220.057863" y="341.786587" style="stroke: #000000; stroke-width: 0.6"/>
      </g>
     </g>
    </g>
    <g id="xtick_6">
     <g id="line2d_8">
      <g>
       <use xlink:href="#m74013dea16" x="253.631271" y="341.786587" style="stroke: #000000; stroke-width: 0.6"/>
      </g>
     </g>
    </g>
    <g id="xtick_7">
     <g id="line2d_9">
      <g>
       <use xlink:href="#m74013dea16" x="279.672829" y="341.786587" style="stroke: #000000; stroke-width: 0.6"/>
      </g>
     </g>
    </g>
    <g id="xtick_8">
     <g id="line2d_10">
      <g>
       <use xlink:href="#m74013dea16" x="300.950331" y="341.786587" style="stroke: #000000; stroke-width: 0.6"/>
      </g>
     </g>
    </g>
    <g id="xtick_9">
     <g id="line2d_11">
      <g>
       <use xlink:href="#m74013dea16" x="318.940203" y="341.786587" style="stroke: #000000; stroke-width: 0.6"/>
      </g>
     </g>
    </g>
    <g id="xtick_10">
     <g id="line2d_12">
      <g>
       <use xlink:href="#m74013dea16" x="334.523738" y="341.786587" style="stroke: #000000; stroke-width: 0.6"/>
      </g>
     </g>
    </g>
    <g id="xtick_11">
     <g id="line2d_13">
      <g>
       <use xlink:href="#m74013dea16" x="348.269391" y="341.786587" style="stroke: #000000; stroke-width: 0.6"/>
      </g>
     </g>
    </g>
    <g id="xtick_12">
     <g id="line2d_14">
      <g>
       <use xlink:href="#m74013dea16" x="441.457764" y="341.786587" style="stroke: #000000; stroke-width: 0.6"/>
      </g>
     </g>
    </g>
    <g id="xtick_13">
     <g id="line2d_15">
      <g>
       <use xlink:href="#m74013dea16" x="488.776824" y="341.786587" style="stroke: #000000; stroke-width: 0.6"/>
      </g>
     </g>
    </g>
    <g id="xtick_14">
     <g id="line2d_16">
      <g>
       <use xlink:href="#m74013dea16" x="522.350232" y="341.786587" style="stroke: #000000; stroke-width: 0.6"/>
      </g>
     </g>
    </g>
    <g id="xtick_15">
     <g id="line2d_17">
      <g>
       <use xlink:href="#m74013dea16" x="548.39179" y="341.786587" style="stroke: #000000; stroke-width: 0.6"/>
      </g>
     </g>
    </g>
    <g id="xtick_16">
     <g id="line2d_18">
      <g>
       <use xlink:href="#m74013dea16" x="569.669292" y="341.786587" style="stroke: #000000; stroke-width: 0.6"/>
      </g>
     </g>
    </g>
    <g id="text_3">
     <!-- Decision Round -->
     <g transform="translate(250.466094 380.980962) scale(0.18 -0.18)">
      <defs>
       <path id="DejaVuSans-44" d="M 1259 4147 
L 1259 519 
L 2022 519 
Q 2988 519 3436 956 
Q 3884 1394 3884 2338 
Q 3884 3275 3436 3711 
Q 2988 4147 2022 4147 
L 1259 4147 
z
M 628 4666 
L 1925 4666 
Q 3281 4666 3915 4102 
Q 4550 3538 4550 2338 
Q 4550 1131 3912 565 
Q 3275 0 1925 0 
L 628 0 
L 628 4666 
z
" transform="scale(0.015625)"/>
       <path id="DejaVuSans-65" d="M 3597 1894 
L 3597 1613 
L 953 1613 
Q 991 1019 1311 708 
Q 1631 397 2203 397 
Q 2534 397 2845 478 
Q 3156 559 3463 722 
L 3463 178 
Q 3153 47 2828 -22 
Q 2503 -91 2169 -91 
Q 1331 -91 842 396 
Q 353 884 353 1716 
Q 353 2575 817 3079 
Q 1281 3584 2069 3584 
Q 2775 3584 3186 3129 
Q 3597 2675 3597 1894 
z
M 3022 2063 
Q 3016 2534 2758 2815 
Q 2500 3097 2075 3097 
Q 1594 3097 1305 2825 
Q 1016 2553 972 2059 
L 3022 2063 
z
" transform="scale(0.015625)"/>
       <path id="DejaVuSans-63" d="M 3122 3366 
L 3122 2828 
Q 2878 2963 2633 3030 
Q 2388 3097 2138 3097 
Q 1578 3097 1268 2742 
Q 959 2388 959 1747 
Q 959 1106 1268 751 
Q 1578 397 2138 397 
Q 2388 397 2633 464 
Q 2878 531 3122 666 
L 3122 134 
Q 2881 22 2623 -34 
Q 2366 -91 2075 -91 
Q 1284 -91 818 406 
Q 353 903 353 1747 
Q 353 2603 823 3093 
Q 1294 3584 2113 3584 
Q 2378 3584 2631 3529 
Q 2884 3475 3122 3366 
z
" transform="scale(0.015625)"/>
       <path id="DejaVuSans-69" d="M 603 3500 
L 1178 3500 
L 1178 0 
L 603 0 
L 603 3500 
z
M 603 4863 
L 1178 4863 
L 1178 4134 
L 603 4134 
L 603 4863 
z
" transform="scale(0.015625)"/>
       <path id="DejaVuSans-73" d="M 2834 3397 
L 2834 2853 
Q 2591 2978 2328 3040 
Q 2066 3103 1784 3103 
Q 1356 3103 1142 2972 
Q 928 2841 928 2578 
Q 928 2378 1081 2264 
Q 1234 2150 1697 2047 
L 1894 2003 
Q 2506 1872 2764 1633 
Q 3022 1394 3022 966 
Q 3022 478 2636 193 
Q 2250 -91 1575 -91 
Q 1294 -91 989 -36 
Q 684 19 347 128 
L 347 722 
Q 666 556 975 473 
Q 1284 391 1588 391 
Q 1994 391 2212 530 
Q 2431 669 2431 922 
Q 2431 1156 2273 1281 
Q 2116 1406 1581 1522 
L 1381 1569 
Q 847 1681 609 1914 
Q 372 2147 372 2553 
Q 372 3047 722 3315 
Q 1072 3584 1716 3584 
Q 2034 3584 2315 3537 
Q 2597 3491 2834 3397 
z
" transform="scale(0.015625)"/>
       <path id="DejaVuSans-6f" d="M 1959 3097 
Q 1497 3097 1228 2736 
Q 959 2375 959 1747 
Q 959 1119 1226 758 
Q 1494 397 1959 397 
Q 2419 397 2687 759 
Q 2956 1122 2956 1747 
Q 2956 2369 2687 2733 
Q 2419 3097 1959 3097 
z
M 1959 3584 
Q 2709 3584 3137 3096 
Q 3566 2609 3566 1747 
Q 3566 888 3137 398 
Q 2709 -91 1959 -91 
Q 1206 -91 779 398 
Q 353 888 353 1747 
Q 353 2609 779 3096 
Q 1206 3584 1959 3584 
z
" transform="scale(0.015625)"/>
       <path id="DejaVuSans-6e" d="M 3513 2113 
L 3513 0 
L 2938 0 
L 2938 2094 
Q 2938 2591 2744 2837 
Q 2550 3084 2163 3084 
Q 1697 3084 1428 2787 
Q 1159 2491 1159 1978 
L 1159 0 
L 581 0 
L 581 3500 
L 1159 3500 
L 1159 2956 
Q 1366 3272 1645 3428 
Q 1925 3584 2291 3584 
Q 2894 3584 3203 3211 
Q 3513 2838 3513 2113 
z
" transform="scale(0.015625)"/>
       <path id="DejaVuSans-20" transform="scale(0.015625)"/>
       <path id="DejaVuSans-52" d="M 2841 2188 
Q 3044 2119 3236 1894 
Q 3428 1669 3622 1275 
L 4263 0 
L 3584 0 
L 2988 1197 
Q 2756 1666 2539 1819 
Q 2322 1972 1947 1972 
L 1259 1972 
L 1259 0 
L 628 0 
L 628 4666 
L 2053 4666 
Q 2853 4666 3247 4331 
Q 3641 3997 3641 3322 
Q 3641 2881 3436 2590 
Q 3231 2300 2841 2188 
z
M 1259 4147 
L 1259 2491 
L 2053 2491 
Q 2509 2491 2742 2702 
Q 2975 2913 2975 3322 
Q 2975 3731 2742 3939 
Q 2509 4147 2053 4147 
L 1259 4147 
z
" transform="scale(0.015625)"/>
       <path id="DejaVuSans-75" d="M 544 1381 
L 544 3500 
L 1119 3500 
L 1119 1403 
Q 1119 906 1312 657 
Q 1506 409 1894 409 
Q 2359 409 2629 706 
Q 2900 1003 2900 1516 
L 2900 3500 
L 3475 3500 
L 3475 0 
L 2900 0 
L 2900 538 
Q 2691 219 2414 64 
Q 2138 -91 1772 -91 
Q 1169 -91 856 284 
Q 544 659 544 1381 
z
M 1991 3584 
L 1991 3584 
z
" transform="scale(0.015625)"/>
       <path id="DejaVuSans-64" d="M 2906 2969 
L 2906 4863 
L 3481 4863 
L 3481 0 
L 2906 0 
L 2906 525 
Q 2725 213 2448 61 
Q 2172 -91 1784 -91 
Q 1150 -91 751 415 
Q 353 922 353 1747 
Q 353 2572 751 3078 
Q 1150 3584 1784 3584 
Q 2172 3584 2448 3432 
Q 2725 3281 2906 2969 
z
M 947 1747 
Q 947 1113 1208 752 
Q 1469 391 1925 391 
Q 2381 391 2643 752 
Q 2906 1113 2906 1747 
Q 2906 2381 2643 2742 
Q 2381 3103 1925 3103 
Q 1469 3103 1208 2742 
Q 947 2381 947 1747 
z
" transform="scale(0.015625)"/>
      </defs>
      <use xlink:href="#DejaVuSans-44"/>
      <use xlink:href="#DejaVuSans-65" x="77.001953"/>
      <use xlink:href="#DejaVuSans-63" x="138.525391"/>
      <use xlink:href="#DejaVuSans-69" x="193.505859"/>
      <use xlink:href="#DejaVuSans-73" x="221.289062"/>
      <use xlink:href="#DejaVuSans-69" x="273.388672"/>
      <use xlink:href="#DejaVuSans-6f" x="301.171875"/>
      <use xlink:href="#DejaVuSans-6e" x="362.353516"/>
      <use xlink:href="#DejaVuSans-20" x="425.732422"/>
      <use xlink:href="#DejaVuSans-52" x="457.519531"/>
      <use xlink:href="#DejaVuSans-6f" x="522.501953"/>
      <use xlink:href="#DejaVuSans-75" x="583.683594"/>
      <use xlink:href="#DejaVuSans-6e" x="647.0625"/>
      <use xlink:href="#DejaVuSans-64" x="710.441406"/>
     </g>
    </g>
   </g>
   <g id="matplotlib.axis_2">
    <g id="ytick_1">
     <g id="line2d_19">
      <path d="M 69.019063 313.08057 
L 571.219063 313.08057 
" clip-path="url(#p3d91a8d227)" style="fill: none; stroke-dasharray: 1.85,0.8; stroke-dashoffset: 0; stroke: #b0b0b0; stroke-width: 0.5"/>
     </g>
     <g id="line2d_20">
      <defs>
       <path id="md9debf16ce" d="M 0 0 
L -3.5 0 
" style="stroke: #000000; stroke-width: 0.8"/>
      </defs>
      <g>
       <use xlink:href="#md9debf16ce" x="69.019063" y="313.08057" style="stroke: #000000; stroke-width: 0.8"/>
      </g>
     </g>
     <g id="text_4">
      <!-- 0.55 -->
      <g transform="translate(28.620625 318.779399) scale(0.15 -0.15)">
       <defs>
        <path id="DejaVuSans-2e" d="M 684 794 
L 1344 794 
L 1344 0 
L 684 0 
L 684 794 
z
" transform="scale(0.015625)"/>
        <path id="DejaVuSans-35" d="M 691 4666 
L 3169 4666 
L 3169 4134 
L 1269 4134 
L 1269 2991 
Q 1406 3038 1543 3061 
Q 1681 3084 1819 3084 
Q 2600 3084 3056 2656 
Q 3513 2228 3513 1497 
Q 3513 744 3044 326 
Q 2575 -91 1722 -91 
Q 1428 -91 1123 -41 
Q 819 9 494 109 
L 494 744 
Q 775 591 1075 516 
Q 1375 441 1709 441 
Q 2250 441 2565 725 
Q 2881 1009 2881 1497 
Q 2881 1984 2565 2268 
Q 2250 2553 1709 2553 
Q 1456 2553 1204 2497 
Q 953 2441 691 2322 
L 691 4666 
z
" transform="scale(0.015625)"/>
       </defs>
       <use xlink:href="#DejaVuSans-30"/>
       <use xlink:href="#DejaVuSans-2e" x="63.623047"/>
       <use xlink:href="#DejaVuSans-35" x="95.410156"/>
       <use xlink:href="#DejaVuSans-35" x="159.033203"/>
      </g>
     </g>
    </g>
    <g id="ytick_2">
     <g id="line2d_21">
      <path d="M 69.019063 263.05028 
L 571.219063 263.05028 
" clip-path="url(#p3d91a8d227)" style="fill: none; stroke-dasharray: 1.85,0.8; stroke-dashoffset: 0; stroke: #b0b0b0; stroke-width: 0.5"/>
     </g>
     <g id="line2d_22">
      <g>
       <use xlink:href="#md9debf16ce" x="69.019063" y="263.05028" style="stroke: #000000; stroke-width: 0.8"/>
      </g>
     </g>
     <g id="text_5">
      <!-- 0.60 -->
      <g transform="translate(28.620625 268.749108) scale(0.15 -0.15)">
       <defs>
        <path id="DejaVuSans-36" d="M 2113 2584 
Q 1688 2584 1439 2293 
Q 1191 2003 1191 1497 
Q 1191 994 1439 701 
Q 1688 409 2113 409 
Q 2538 409 2786 701 
Q 3034 994 3034 1497 
Q 3034 2003 2786 2293 
Q 2538 2584 2113 2584 
z
M 3366 4563 
L 3366 3988 
Q 3128 4100 2886 4159 
Q 2644 4219 2406 4219 
Q 1781 4219 1451 3797 
Q 1122 3375 1075 2522 
Q 1259 2794 1537 2939 
Q 1816 3084 2150 3084 
Q 2853 3084 3261 2657 
Q 3669 2231 3669 1497 
Q 3669 778 3244 343 
Q 2819 -91 2113 -91 
Q 1303 -91 875 529 
Q 447 1150 447 2328 
Q 447 3434 972 4092 
Q 1497 4750 2381 4750 
Q 2619 4750 2861 4703 
Q 3103 4656 3366 4563 
z
" transform="scale(0.015625)"/>
       </defs>
       <use xlink:href="#DejaVuSans-30"/>
       <use xlink:href="#DejaVuSans-2e" x="63.623047"/>
       <use xlink:href="#DejaVuSans-36" x="95.410156"/>
       <use xlink:href="#DejaVuSans-30" x="159.033203"/>
      </g>
     </g>
    </g>
    <g id="ytick_3">
     <g id="line2d_23">
      <path d="M 69.019063 213.01999 
L 571.219063 213.01999 
" clip-path="url(#p3d91a8d227)" style="fill: none; stroke-dasharray: 1.85,0.8; stroke-dashoffset: 0; stroke: #b0b0b0; stroke-width: 0.5"/>
     </g>
     <g id="line2d_24">
      <g>
       <use xlink:href="#md9debf16ce" x="69.019063" y="213.01999" style="stroke: #000000; stroke-width: 0.8"/>
      </g>
     </g>
     <g id="text_6">
      <!-- 0.65 -->
      <g transform="translate(28.620625 218.718818) scale(0.15 -0.15)">
       <use xlink:href="#DejaVuSans-30"/>
       <use xlink:href="#DejaVuSans-2e" x="63.623047"/>
       <use xlink:href="#DejaVuSans-36" x="95.410156"/>
       <use xlink:href="#DejaVuSans-35" x="159.033203"/>
      </g>
     </g>
    </g>
    <g id="ytick_4">
     <g id="line2d_25">
      <path d="M 69.019063 162.989699 
L 571.219063 162.989699 
" clip-path="url(#p3d91a8d227)" style="fill: none; stroke-dasharray: 1.85,0.8; stroke-dashoffset: 0; stroke: #b0b0b0; stroke-width: 0.5"/>
     </g>
     <g id="line2d_26">
      <g>
       <use xlink:href="#md9debf16ce" x="69.019063" y="162.989699" style="stroke: #000000; stroke-width: 0.8"/>
      </g>
     </g>
     <g id="text_7">
      <!-- 0.70 -->
      <g transform="translate(28.620625 168.688527) scale(0.15 -0.15)">
       <defs>
        <path id="DejaVuSans-37" d="M 525 4666 
L 3525 4666 
L 3525 4397 
L 1831 0 
L 1172 0 
L 2766 4134 
L 525 4134 
L 525 4666 
z
" transform="scale(0.015625)"/>
       </defs>
       <use xlink:href="#DejaVuSans-30"/>
       <use xlink:href="#DejaVuSans-2e" x="63.623047"/>
       <use xlink:href="#DejaVuSans-37" x="95.410156"/>
       <use xlink:href="#DejaVuSans-30" x="159.033203"/>
      </g>
     </g>
    </g>
    <g id="ytick_5">
     <g id="line2d_27">
      <path d="M 69.019063 112.959409 
L 571.219063 112.959409 
" clip-path="url(#p3d91a8d227)" style="fill: none; stroke-dasharray: 1.85,0.8; stroke-dashoffset: 0; stroke: #b0b0b0; stroke-width: 0.5"/>
     </g>
     <g id="line2d_28">
      <g>
       <use xlink:href="#md9debf16ce" x="69.019063" y="112.959409" style="stroke: #000000; stroke-width: 0.8"/>
      </g>
     </g>
     <g id="text_8">
      <!-- 0.75 -->
      <g transform="translate(28.620625 118.658237) scale(0.15 -0.15)">
       <use xlink:href="#DejaVuSans-30"/>
       <use xlink:href="#DejaVuSans-2e" x="63.623047"/>
       <use xlink:href="#DejaVuSans-37" x="95.410156"/>
       <use xlink:href="#DejaVuSans-35" x="159.033203"/>
      </g>
     </g>
    </g>
    <g id="ytick_6">
     <g id="line2d_29">
      <path d="M 69.019063 62.929119 
L 571.219063 62.929119 
" clip-path="url(#p3d91a8d227)" style="fill: none; stroke-dasharray: 1.85,0.8; stroke-dashoffset: 0; stroke: #b0b0b0; stroke-width: 0.5"/>
     </g>
     <g id="line2d_30">
      <g>
       <use xlink:href="#md9debf16ce" x="69.019063" y="62.929119" style="stroke: #000000; stroke-width: 0.8"/>
      </g>
     </g>
     <g id="text_9">
      <!-- 0.80 -->
      <g transform="translate(28.620625 68.627947) scale(0.15 -0.15)">
       <defs>
        <path id="DejaVuSans-38" d="M 2034 2216 
Q 1584 2216 1326 1975 
Q 1069 1734 1069 1313 
Q 1069 891 1326 650 
Q 1584 409 2034 409 
Q 2484 409 2743 651 
Q 3003 894 3003 1313 
Q 3003 1734 2745 1975 
Q 2488 2216 2034 2216 
z
M 1403 2484 
Q 997 2584 770 2862 
Q 544 3141 544 3541 
Q 544 4100 942 4425 
Q 1341 4750 2034 4750 
Q 2731 4750 3128 4425 
Q 3525 4100 3525 3541 
Q 3525 3141 3298 2862 
Q 3072 2584 2669 2484 
Q 3125 2378 3379 2068 
Q 3634 1759 3634 1313 
Q 3634 634 3220 271 
Q 2806 -91 2034 -91 
Q 1263 -91 848 271 
Q 434 634 434 1313 
Q 434 1759 690 2068 
Q 947 2378 1403 2484 
z
M 1172 3481 
Q 1172 3119 1398 2916 
Q 1625 2713 2034 2713 
Q 2441 2713 2670 2916 
Q 2900 3119 2900 3481 
Q 2900 3844 2670 4047 
Q 2441 4250 2034 4250 
Q 1625 4250 1398 4047 
Q 1172 3844 1172 3481 
z
" transform="scale(0.015625)"/>
       </defs>
       <use xlink:href="#DejaVuSans-30"/>
       <use xlink:href="#DejaVuSans-2e" x="63.623047"/>
       <use xlink:href="#DejaVuSans-38" x="95.410156"/>
       <use xlink:href="#DejaVuSans-30" x="159.033203"/>
      </g>
     </g>
    </g>
    <g id="ytick_7">
     <g id="line2d_31">
      <path d="M 69.019063 12.898828 
L 571.219063 12.898828 
" clip-path="url(#p3d91a8d227)" style="fill: none; stroke-dasharray: 1.85,0.8; stroke-dashoffset: 0; stroke: #b0b0b0; stroke-width: 0.5"/>
     </g>
     <g id="line2d_32">
      <g>
       <use xlink:href="#md9debf16ce" x="69.019063" y="12.898828" style="stroke: #000000; stroke-width: 0.8"/>
      </g>
     </g>
     <g id="text_10">
      <!-- 0.85 -->
      <g transform="translate(28.620625 18.597656) scale(0.15 -0.15)">
       <use xlink:href="#DejaVuSans-30"/>
       <use xlink:href="#DejaVuSans-2e" x="63.623047"/>
       <use xlink:href="#DejaVuSans-38" x="95.410156"/>
       <use xlink:href="#DejaVuSans-35" x="159.033203"/>
      </g>
     </g>
    </g>
    <g id="text_11">
     <!-- Normalized Performance -->
     <g transform="translate(20.877187 286.3944) rotate(-90) scale(0.18 -0.18)">
      <defs>
       <path id="DejaVuSans-4e" d="M 628 4666 
L 1478 4666 
L 3547 763 
L 3547 4666 
L 4159 4666 
L 4159 0 
L 3309 0 
L 1241 3903 
L 1241 0 
L 628 0 
L 628 4666 
z
" transform="scale(0.015625)"/>
       <path id="DejaVuSans-72" d="M 2631 2963 
Q 2534 3019 2420 3045 
Q 2306 3072 2169 3072 
Q 1681 3072 1420 2755 
Q 1159 2438 1159 1844 
L 1159 0 
L 581 0 
L 581 3500 
L 1159 3500 
L 1159 2956 
Q 1341 3275 1631 3429 
Q 1922 3584 2338 3584 
Q 2397 3584 2469 3576 
Q 2541 3569 2628 3553 
L 2631 2963 
z
" transform="scale(0.015625)"/>
       <path id="DejaVuSans-6d" d="M 3328 2828 
Q 3544 3216 3844 3400 
Q 4144 3584 4550 3584 
Q 5097 3584 5394 3201 
Q 5691 2819 5691 2113 
L 5691 0 
L 5113 0 
L 5113 2094 
Q 5113 2597 4934 2840 
Q 4756 3084 4391 3084 
Q 3944 3084 3684 2787 
Q 3425 2491 3425 1978 
L 3425 0 
L 2847 0 
L 2847 2094 
Q 2847 2600 2669 2842 
Q 2491 3084 2119 3084 
Q 1678 3084 1418 2786 
Q 1159 2488 1159 1978 
L 1159 0 
L 581 0 
L 581 3500 
L 1159 3500 
L 1159 2956 
Q 1356 3278 1631 3431 
Q 1906 3584 2284 3584 
Q 2666 3584 2933 3390 
Q 3200 3197 3328 2828 
z
" transform="scale(0.015625)"/>
       <path id="DejaVuSans-61" d="M 2194 1759 
Q 1497 1759 1228 1600 
Q 959 1441 959 1056 
Q 959 750 1161 570 
Q 1363 391 1709 391 
Q 2188 391 2477 730 
Q 2766 1069 2766 1631 
L 2766 1759 
L 2194 1759 
z
M 3341 1997 
L 3341 0 
L 2766 0 
L 2766 531 
Q 2569 213 2275 61 
Q 1981 -91 1556 -91 
Q 1019 -91 701 211 
Q 384 513 384 1019 
Q 384 1609 779 1909 
Q 1175 2209 1959 2209 
L 2766 2209 
L 2766 2266 
Q 2766 2663 2505 2880 
Q 2244 3097 1772 3097 
Q 1472 3097 1187 3025 
Q 903 2953 641 2809 
L 641 3341 
Q 956 3463 1253 3523 
Q 1550 3584 1831 3584 
Q 2591 3584 2966 3190 
Q 3341 2797 3341 1997 
z
" transform="scale(0.015625)"/>
       <path id="DejaVuSans-6c" d="M 603 4863 
L 1178 4863 
L 1178 0 
L 603 0 
L 603 4863 
z
" transform="scale(0.015625)"/>
       <path id="DejaVuSans-7a" d="M 353 3500 
L 3084 3500 
L 3084 2975 
L 922 459 
L 3084 459 
L 3084 0 
L 275 0 
L 275 525 
L 2438 3041 
L 353 3041 
L 353 3500 
z
" transform="scale(0.015625)"/>
       <path id="DejaVuSans-50" d="M 1259 4147 
L 1259 2394 
L 2053 2394 
Q 2494 2394 2734 2622 
Q 2975 2850 2975 3272 
Q 2975 3691 2734 3919 
Q 2494 4147 2053 4147 
L 1259 4147 
z
M 628 4666 
L 2053 4666 
Q 2838 4666 3239 4311 
Q 3641 3956 3641 3272 
Q 3641 2581 3239 2228 
Q 2838 1875 2053 1875 
L 1259 1875 
L 1259 0 
L 628 0 
L 628 4666 
z
" transform="scale(0.015625)"/>
       <path id="DejaVuSans-66" d="M 2375 4863 
L 2375 4384 
L 1825 4384 
Q 1516 4384 1395 4259 
Q 1275 4134 1275 3809 
L 1275 3500 
L 2222 3500 
L 2222 3053 
L 1275 3053 
L 1275 0 
L 697 0 
L 697 3053 
L 147 3053 
L 147 3500 
L 697 3500 
L 697 3744 
Q 697 4328 969 4595 
Q 1241 4863 1831 4863 
L 2375 4863 
z
" transform="scale(0.015625)"/>
      </defs>
      <use xlink:href="#DejaVuSans-4e"/>
      <use xlink:href="#DejaVuSans-6f" x="74.804688"/>
      <use xlink:href="#DejaVuSans-72" x="135.986328"/>
      <use xlink:href="#DejaVuSans-6d" x="175.349609"/>
      <use xlink:href="#DejaVuSans-61" x="272.761719"/>
      <use xlink:href="#DejaVuSans-6c" x="334.041016"/>
      <use xlink:href="#DejaVuSans-69" x="361.824219"/>
      <use xlink:href="#DejaVuSans-7a" x="389.607422"/>
      <use xlink:href="#DejaVuSans-65" x="442.097656"/>
      <use xlink:href="#DejaVuSans-64" x="503.621094"/>
      <use xlink:href="#DejaVuSans-20" x="567.097656"/>
      <use xlink:href="#DejaVuSans-50" x="598.884766"/>
      <use xlink:href="#DejaVuSans-65" x="655.5625"/>
      <use xlink:href="#DejaVuSans-72" x="717.085938"/>
      <use xlink:href="#DejaVuSans-66" x="758.199219"/>
      <use xlink:href="#DejaVuSans-6f" x="793.404297"/>
      <use xlink:href="#DejaVuSans-72" x="854.585938"/>
      <use xlink:href="#DejaVuSans-6d" x="893.949219"/>
      <use xlink:href="#DejaVuSans-61" x="991.361328"/>
      <use xlink:href="#DejaVuSans-6e" x="1052.640625"/>
      <use xlink:href="#DejaVuSans-63" x="1116.019531"/>
      <use xlink:href="#DejaVuSans-65" x="1171"/>
     </g>
    </g>
   </g>
   <g id="line2d_33">
    <path d="M 91.846335 145.682376 
L 172.738803 145.682376 
L 220.057863 145.682376 
L 253.631271 145.682376 
L 279.672829 145.682376 
L 300.950331 145.682376 
L 318.940203 145.682376 
L 334.523738 145.682376 
L 348.269391 145.682376 
L 360.565296 145.682376 
L 371.688296 145.682376 
L 381.842799 145.682376 
L 391.184036 145.682376 
L 399.83267 145.682376 
L 407.884357 145.682376 
L 415.416206 145.682376 
L 422.491291 145.682376 
L 429.161859 145.682376 
L 435.471674 145.682376 
L 441.457764 145.682376 
L 447.15173 145.682376 
L 452.580763 145.682376 
L 457.768425 145.682376 
L 462.735266 145.682376 
L 467.499322 145.682376 
L 472.076503 145.682376 
L 476.480919 145.682376 
L 480.725138 145.682376 
L 484.820406 145.682376 
L 488.776824 145.682376 
L 492.6035 145.682376 
L 496.308674 145.682376 
L 499.899824 145.682376 
L 503.383759 145.682376 
L 506.766696 145.682376 
L 510.054326 145.682376 
L 513.251873 145.682376 
L 516.364142 145.682376 
L 519.395564 145.682376 
L 522.350232 145.682376 
L 525.231938 145.682376 
L 528.044198 145.682376 
L 530.790282 145.682376 
L 533.473231 145.682376 
L 536.095884 145.682376 
L 538.660892 145.682376 
L 541.170735 145.682376 
L 543.627734 145.682376 
L 546.03407 145.682376 
L 548.39179 145.682376 
" clip-path="url(#p3d91a8d227)" style="fill: none; stroke-dasharray: 11.1,4.8; stroke-dashoffset: 0; stroke: #fdc086; stroke-width: 3"/>
   </g>
   <g id="line2d_34">
    <path d="M 91.846335 267.175507 
L 172.738803 216.540464 
L 220.057863 187.76481 
L 253.631271 171.004399 
L 279.672829 160.824931 
L 300.950331 152.33104 
L 318.940203 144.93661 
L 334.523738 138.043613 
L 348.269391 133.26753 
L 360.565296 128.280976 
L 371.688296 124.60657 
L 381.842799 120.586962 
L 391.184036 116.934591 
L 399.83267 113.790202 
L 407.884357 110.751164 
L 415.416206 108.52132 
L 422.491291 106.610507 
L 429.161859 104.186506 
L 435.471674 102.36093 
L 441.457764 101.009488 
L 447.15173 99.561017 
L 452.580763 98.525184 
L 457.768425 97.21653 
L 462.735266 95.588441 
L 467.499322 93.852197 
L 472.076503 92.969754 
L 476.480919 91.545552 
L 480.725138 90.533779 
L 484.820406 89.162557 
L 488.776824 88.09132 
L 492.6035 86.96167 
L 496.308674 85.976863 
L 499.899824 85.099605 
L 503.383759 84.129844 
L 506.766696 83.240349 
L 510.054326 82.201044 
L 513.251873 80.995099 
L 516.364142 80.055382 
L 519.395564 79.72596 
L 522.350232 78.728624 
L 525.231938 78.041157 
L 528.044198 77.488965 
L 530.790282 76.986823 
L 533.473231 76.202864 
L 536.095884 75.479672 
L 538.660892 74.791563 
L 541.170735 74.074385 
L 543.627734 73.340106 
L 546.03407 72.758938 
L 548.39179 72.369855 
" clip-path="url(#p3d91a8d227)" style="fill: none; stroke: #7fc97f; stroke-width: 3; stroke-linecap: square"/>
   </g>
   <g id="line2d_35">
    <path d="M 91.846335 255.757678 
L 172.738803 166.61991 
L 220.057863 125.868674 
L 253.631271 97.474096 
L 279.672829 85.282332 
L 300.950331 76.336246 
L 318.940203 69.908035 
L 334.523738 64.573751 
L 348.269391 60.17533 
L 360.565296 56.825579 
L 371.688296 54.140831 
L 381.842799 51.917497 
L 391.184036 49.944561 
L 399.83267 48.239018 
L 407.884357 46.708459 
L 415.416206 45.221377 
L 422.491291 43.89038 
L 429.161859 42.644354 
L 435.471674 41.521539 
L 441.457764 40.439029 
L 447.15173 39.426642 
L 452.580763 38.509922 
L 457.768425 37.574754 
L 462.735266 36.689261 
L 467.499322 35.913693 
L 472.076503 35.137607 
L 476.480919 34.528688 
L 480.725138 33.973696 
L 484.820406 33.470522 
L 488.776824 32.990949 
L 492.6035 32.503832 
L 496.308674 32.047839 
L 499.899824 31.58794 
L 503.383759 31.189193 
L 506.766696 30.768736 
L 510.054326 30.369884 
L 513.251873 29.988523 
L 516.364142 29.651318 
L 519.395564 29.287235 
L 522.350232 28.958064 
L 525.231938 28.631872 
L 528.044198 28.277243 
L 530.790282 27.954108 
L 533.473231 27.673016 
L 536.095884 27.347013 
L 538.660892 27.062373 
L 541.170735 26.777885 
L 543.627734 26.501133 
L 546.03407 26.236848 
L 548.39179 26.007903 
" clip-path="url(#p3d91a8d227)" style="fill: none; stroke: #bf5b17; stroke-width: 3; stroke-linecap: square"/>
   </g>
   <g id="line2d_36">
    <path d="M 91.846335 255.757678 
L 172.738803 181.800442 
L 220.057863 156.584885 
L 253.631271 155.238282 
L 279.672829 153.390581 
L 300.950331 152.127821 
L 318.940203 151.89621 
L 334.523738 143.647094 
L 348.269391 141.552218 
L 360.565296 141.272074 
L 371.688296 136.983069 
L 381.842799 120.249938 
L 391.184036 113.238854 
L 399.83267 111.907397 
L 407.884357 111.891742 
L 415.416206 110.736356 
L 422.491291 110.53965 
L 429.161859 98.616497 
L 435.471674 98.552953 
L 441.457764 98.374692 
L 447.15173 97.94013 
L 452.580763 93.296788 
L 457.768425 93.261662 
L 462.735266 93.253547 
L 467.499322 93.252169 
L 472.076503 93.171428 
L 476.480919 87.826848 
L 480.725138 85.99582 
L 484.820406 85.853796 
L 488.776824 85.489361 
L 492.6035 84.118994 
L 496.308674 84.093183 
L 499.899824 82.750504 
L 503.383759 82.660495 
L 506.766696 82.326417 
L 510.054326 78.820159 
L 513.251873 78.604934 
L 516.364142 78.545487 
L 519.395564 78.251124 
L 522.350232 73.63686 
L 525.231938 73.636781 
L 528.044198 73.516135 
L 530.790282 71.093599 
L 533.473231 71.022734 
L 536.095884 70.915005 
L 538.660892 70.908121 
L 541.170735 70.169191 
L 543.627734 70.135978 
L 546.03407 69.306851 
L 548.39179 69.305589 
" clip-path="url(#p3d91a8d227)" style="fill: none; stroke: #f0027f; stroke-width: 3; stroke-linecap: square"/>
   </g>
   <g id="line2d_37">
    <path d="M 91.846335 255.757678 
L 172.738803 181.800442 
L 220.057863 156.584885 
L 253.631271 155.238282 
L 279.672829 153.390581 
L 300.950331 152.127821 
L 318.940203 144.163952 
L 334.523738 129.382294 
L 348.269391 120.813737 
L 360.565296 114.371333 
L 371.688296 106.758214 
L 381.842799 94.78296 
L 391.184036 87.762043 
L 399.83267 83.99473 
L 407.884357 81.161874 
L 415.416206 77.498535 
L 422.491291 74.599071 
L 429.161859 68.669507 
L 435.471674 64.183513 
L 441.457764 59.70054 
L 447.15173 56.198909 
L 452.580763 53.235483 
L 457.768425 50.66482 
L 462.735266 48.505691 
L 467.499322 46.503303 
L 472.076503 44.851516 
L 476.480919 43.457108 
L 480.725138 42.237495 
L 484.820406 41.146717 
L 488.776824 40.071233 
L 492.6035 39.151265 
L 496.308674 38.295119 
L 499.899824 37.51065 
L 503.383759 36.738655 
L 506.766696 36.080973 
L 510.054326 35.412746 
L 513.251873 34.764115 
L 516.364142 34.17202 
L 519.395564 33.581382 
L 522.350232 33.050276 
L 525.231938 32.586135 
L 528.044198 32.132616 
L 530.790282 31.708887 
L 533.473231 31.322957 
L 536.095884 30.961511 
L 538.660892 30.662026 
L 541.170735 30.342157 
L 543.627734 30.04665 
L 546.03407 29.757375 
L 548.39179 29.510599 
" clip-path="url(#p3d91a8d227)" style="fill: none; stroke: #386cb0; stroke-width: 3; stroke-linecap: square"/>
   </g>
   <g id="line2d_38">
    <path d="M 91.846335 136.282374 
L 172.738803 105.938653 
L 220.057863 88.493676 
L 253.631271 77.432278 
L 279.672829 70.308926 
L 300.950331 65.137742 
L 318.940203 60.41098 
L 334.523738 56.222207 
L 348.269391 53.968473 
L 360.565296 51.736617 
L 371.688296 49.770706 
L 381.842799 48.06558 
L 391.184036 46.468197 
L 399.83267 44.928223 
L 407.884357 43.614332 
L 415.416206 42.352644 
L 422.491291 41.180876 
L 429.161859 40.021723 
L 435.471674 38.966215 
L 441.457764 37.987919 
L 447.15173 37.065391 
L 452.580763 36.193818 
L 457.768425 35.359165 
L 462.735266 34.539915 
L 467.499322 34.016336 
L 472.076503 33.509883 
L 476.480919 33.037929 
L 480.725138 32.592692 
L 484.820406 32.15102 
L 488.776824 31.730859 
L 492.6035 31.314966 
L 496.308674 30.910453 
L 499.899824 30.509398 
L 503.383759 30.12644 
L 506.766696 29.759944 
L 510.054326 29.396241 
L 513.251873 29.04508 
L 516.364142 28.698147 
L 519.395564 28.363735 
L 522.350232 28.036217 
L 525.231938 27.719729 
L 528.044198 27.414363 
L 530.790282 27.109593 
L 533.473231 26.819467 
L 536.095884 26.53576 
L 538.660892 26.253015 
L 541.170735 25.978483 
L 543.627734 25.727456 
L 546.03407 25.548891 
L 548.39179 25.375076 
" clip-path="url(#p3d91a8d227)" style="fill: none; stroke-dasharray: 11.1,4.8; stroke-dashoffset: 0; stroke: #666666; stroke-width: 3"/>
   </g>
   <g id="patch_3">
    <path d="M 69.019063 341.786587 
L 69.019063 9.146587 
" style="fill: none; stroke: #000000; stroke-width: 0.8; stroke-linejoin: miter; stroke-linecap: square"/>
   </g>
   <g id="patch_4">
    <path d="M 571.219063 341.786587 
L 571.219063 9.146587 
" style="fill: none; stroke: #000000; stroke-width: 0.8; stroke-linejoin: miter; stroke-linecap: square"/>
   </g>
   <g id="patch_5">
    <path d="M 69.019063 341.786587 
L 571.219063 341.786587 
" style="fill: none; stroke: #000000; stroke-width: 0.8; stroke-linejoin: miter; stroke-linecap: square"/>
   </g>
   <g id="patch_6">
    <path d="M 69.019063 9.146587 
L 571.219063 9.146587 
" style="fill: none; stroke: #000000; stroke-width: 0.8; stroke-linejoin: miter; stroke-linecap: square"/>
   </g>
  </g>
 </g>
 <defs>
  <clipPath id="p3d91a8d227">
   <rect x="69.019063" y="9.146587" width="502.2" height="332.64"/>
  </clipPath>
 </defs>
</svg>
