<?xml version="1.0" encoding="utf-8" standalone="no"?>
<!DOCTYPE svg PUBLIC "-//W3C//DTD SVG 1.1//EN"
  "http://www.w3.org/Graphics/SVG/1.1/DTD/svg11.dtd">
<svg xmlns:xlink="http://www.w3.org/1999/xlink" width="578.419062pt" height="389.977813pt" viewBox="0 0 578.419062 389.977813" xmlns="http://www.w3.org/2000/svg" version="1.1">
 <metadata>
  <rdf:RDF xmlns:dc="http://purl.org/dc/elements/1.1/" xmlns:cc="http://creativecommons.org/ns#" xmlns:rdf="http://www.w3.org/1999/02/22-rdf-syntax-ns#">
   <cc:Work>
    <dc:type rdf:resource="http://purl.org/dc/dcmitype/StillImage"/>
    <dc:date>2025-11-18T14:57:08.103166</dc:date>
    <dc:format>image/svg+xml</dc:format>
    <dc:creator>
     <cc:Agent>
      <dc:title>Matplotlib v3.9.4, https://matplotlib.org/</dc:title>
     </cc:Agent>
    </dc:creator>
   </cc:Work>
  </rdf:RDF>
 </metadata>
 <defs>
  <style type="text/css">*{stroke-linejoin: round; stroke-linecap: butt}</style>
 </defs>
 <g id="figure_1">
  <g id="patch_1">
   <path d="M 0 389.977813 
L 578.419062 389.977813 
L 578.419062 0 
L 0 0 
z
" style="fill: #ffffff"/>
  </g>
  <g id="axes_1">
   <g id="patch_2">
    <path d="M 69.019063 339.84 
L 571.219063 339.84 
L 571.219063 7.2 
L 69.019063 7.2 
z
" style="fill: #ffffff"/>
   </g>
   <g id="PolyCollection_1">
    <defs>
     <path id="m0142045fab" d="M 91.846335 -224.563368 
L 91.846335 -65.257812 
L 172.738803 -134.9875 
L 220.057863 -161.986891 
L 253.631271 -196.961426 
L 279.672829 -217.541368 
L 300.950331 -228.263215 
L 318.940203 -235.240071 
L 334.523738 -246.576204 
L 348.269391 -252.968899 
L 360.565296 -258.772567 
L 371.688296 -265.033806 
L 381.842799 -269.423289 
L 391.184036 -272.779543 
L 399.83267 -275.12991 
L 407.884357 -279.898251 
L 415.416206 -282.23142 
L 422.491291 -285.215541 
L 429.161859 -287.490694 
L 435.471674 -289.097038 
L 441.457764 -291.384592 
L 447.15173 -294.086654 
L 452.580763 -295.849361 
L 457.768425 -298.160545 
L 462.735266 -299.451315 
L 467.499322 -300.164941 
L 472.076503 -301.824142 
L 476.480919 -302.839703 
L 480.725138 -304.131979 
L 484.820406 -304.634197 
L 488.776824 -306.691932 
L 492.6035 -307.246835 
L 496.308674 -308.038099 
L 499.899824 -308.538886 
L 503.383759 -309.875926 
L 506.766696 -310.446112 
L 510.054326 -311.270319 
L 513.251873 -311.510499 
L 516.364142 -312.04381 
L 519.395564 -312.860172 
L 522.350232 -314.017152 
L 525.231938 -315.005804 
L 528.044198 -315.939658 
L 530.790282 -316.820438 
L 533.473231 -317.32819 
L 536.095884 -317.904412 
L 538.660892 -318.397663 
L 541.170735 -319.291194 
L 543.627734 -319.911265 
L 546.03407 -320.398796 
L 548.39179 -320.699159 
L 548.39179 -341.091803 
L 548.39179 -341.091803 
L 546.03407 -340.964726 
L 543.627734 -340.548039 
L 541.170735 -340.348978 
L 538.660892 -340.149641 
L 536.095884 -339.811197 
L 533.473231 -339.254614 
L 530.790282 -339.078786 
L 528.044198 -338.738251 
L 525.231938 -338.464046 
L 522.350232 -337.69266 
L 519.395564 -337.395693 
L 516.364142 -336.527818 
L 513.251873 -336.313165 
L 510.054326 -336.245761 
L 506.766696 -335.890896 
L 503.383759 -335.675258 
L 499.899824 -335.281908 
L 496.308674 -334.975975 
L 492.6035 -334.23908 
L 488.776824 -333.766677 
L 484.820406 -333.556081 
L 480.725138 -332.388415 
L 476.480919 -331.908952 
L 472.076503 -331.230605 
L 467.499322 -330.889738 
L 462.735266 -330.548126 
L 457.768425 -329.921391 
L 452.580763 -329.568029 
L 447.15173 -328.915121 
L 441.457764 -328.152642 
L 435.471674 -327.211756 
L 429.161859 -325.300443 
L 422.491291 -324.145978 
L 415.416206 -322.743534 
L 407.884357 -321.736146 
L 399.83267 -320.616799 
L 391.184036 -319.729095 
L 381.842799 -317.439118 
L 371.688296 -316.019053 
L 360.565296 -314.297824 
L 348.269391 -312.561611 
L 334.523738 -311.075148 
L 318.940203 -307.159762 
L 300.950331 -304.233643 
L 279.672829 -298.055237 
L 253.631271 -287.981803 
L 220.057863 -275.744701 
L 172.738803 -260.11279 
L 91.846335 -224.563368 
z
" style="stroke: #7fc97f; stroke-opacity: 0.05"/>
    </defs>
    <g clip-path="url(#p41c26fd274)">
     <use xlink:href="#m0142045fab" x="0" y="389.977813" style="fill: #7fc97f; fill-opacity: 0.05; stroke: #7fc97f; stroke-opacity: 0.05"/>
    </g>
   </g>
   <g id="PolyCollection_2">
    <defs>
     <path id="m2f626305e1" d="M 91.846335 -205.283984 
L 91.846335 -202.994997 
L 172.738803 -203.284125 
L 220.057863 -212.850222 
L 253.631271 -221.303332 
L 279.672829 -225.217664 
L 300.950331 -257.488147 
L 318.940203 -285.154462 
L 334.523738 -285.220018 
L 348.269391 -287.080632 
L 360.565296 -287.864432 
L 371.688296 -287.876611 
L 381.842799 -287.883695 
L 391.184036 -287.884845 
L 399.83267 -288.451465 
L 407.884357 -293.603954 
L 415.416206 -293.692161 
L 422.491291 -294.205453 
L 429.161859 -294.205453 
L 435.471674 -310.053338 
L 441.457764 -310.074888 
L 447.15173 -310.075432 
L 452.580763 -310.123266 
L 457.768425 -310.707006 
L 462.735266 -310.957559 
L 467.499322 -324.447665 
L 472.076503 -325.246405 
L 476.480919 -325.246405 
L 480.725138 -325.262397 
L 484.820406 -325.262709 
L 488.776824 -325.264475 
L 492.6035 -325.264475 
L 496.308674 -325.6411 
L 499.899824 -325.64663 
L 503.383759 -325.647556 
L 506.766696 -325.763482 
L 510.054326 -325.763539 
L 513.251873 -326.141062 
L 516.364142 -326.528143 
L 519.395564 -326.530505 
L 522.350232 -326.530808 
L 525.231938 -326.89329 
L 528.044198 -326.91108 
L 530.790282 -326.91108 
L 533.473231 -326.919964 
L 536.095884 -327.230944 
L 538.660892 -328.388387 
L 541.170735 -328.388387 
L 543.627734 -328.391771 
L 546.03407 -328.392615 
L 548.39179 -332.07226 
L 548.39179 -333.660172 
L 548.39179 -333.660172 
L 546.03407 -330.030317 
L 543.627734 -330.029324 
L 541.170735 -330.021585 
L 538.660892 -330.021585 
L 536.095884 -328.910086 
L 533.473231 -328.602388 
L 530.790282 -328.586341 
L 528.044198 -328.586341 
L 525.231938 -328.572881 
L 522.350232 -328.21265 
L 519.395564 -328.21123 
L 516.364142 -328.206236 
L 513.251873 -327.849751 
L 510.054326 -327.529404 
L 506.766696 -327.529269 
L 503.383759 -327.416042 
L 499.899824 -327.414866 
L 496.308674 -327.407983 
L 492.6035 -327.053648 
L 488.776824 -327.053648 
L 484.820406 -327.051582 
L 480.725138 -327.050101 
L 476.480919 -327.037875 
L 472.076503 -327.037875 
L 467.499322 -326.319007 
L 462.735266 -312.770212 
L 457.768425 -312.560618 
L 452.580763 -312.056785 
L 447.15173 -312.025389 
L 441.457764 -312.023008 
L 435.471674 -312.005824 
L 429.161859 -296.068548 
L 422.491291 -296.068548 
L 415.416206 -295.507051 
L 407.884357 -295.43181 
L 399.83267 -290.518231 
L 391.184036 -289.951655 
L 381.842799 -289.950835 
L 371.688296 -289.946228 
L 360.565296 -289.937363 
L 348.269391 -289.151618 
L 334.523738 -287.213399 
L 318.940203 -287.159915 
L 300.950331 -259.768634 
L 279.672829 -227.197982 
L 253.631271 -223.283574 
L 220.057863 -214.727459 
L 172.738803 -205.544429 
L 91.846335 -205.283984 
z
" style="stroke: #f0027f; stroke-opacity: 0.05"/>
    </defs>
    <g clip-path="url(#p41c26fd274)">
     <use xlink:href="#m2f626305e1" x="0" y="389.977813" style="fill: #f0027f; fill-opacity: 0.05; stroke: #f0027f; stroke-opacity: 0.05"/>
    </g>
   </g>
   <g id="PolyCollection_3">
    <defs>
     <path id="m7ee8562468" d="M 91.846335 -205.283984 
L 91.846335 -202.994997 
L 172.738803 -203.284125 
L 220.057863 -212.850222 
L 253.631271 -221.303332 
L 279.672829 -225.217664 
L 300.950331 -257.488147 
L 318.940203 -266.3009 
L 334.523738 -293.421825 
L 348.269391 -309.205978 
L 360.565296 -317.980758 
L 371.688296 -324.968434 
L 381.842799 -330.662316 
L 391.184036 -333.980201 
L 399.83267 -337.616961 
L 407.884357 -341.252724 
L 415.416206 -343.656947 
L 422.491291 -345.338417 
L 429.161859 -346.614459 
L 435.471674 -348.561366 
L 441.457764 -351.050291 
L 447.15173 -352.335419 
L 452.580763 -352.992972 
L 457.768425 -353.510026 
L 462.735266 -353.951041 
L 467.499322 -354.404133 
L 472.076503 -354.954482 
L 476.480919 -355.238177 
L 480.725138 -355.528177 
L 484.820406 -355.90649 
L 488.776824 -356.169539 
L 492.6035 -356.354866 
L 496.308674 -356.562704 
L 499.899824 -356.843434 
L 503.383759 -357.158997 
L 506.766696 -357.712441 
L 510.054326 -357.963464 
L 513.251873 -358.257015 
L 516.364142 -358.670991 
L 519.395564 -359.42219 
L 522.350232 -360.665102 
L 525.231938 -361.836569 
L 528.044198 -362.263127 
L 530.790282 -362.703861 
L 533.473231 -362.900323 
L 536.095884 -363.066287 
L 538.660892 -363.224592 
L 541.170735 -363.343308 
L 543.627734 -363.494135 
L 546.03407 -363.590044 
L 548.39179 -363.676606 
L 548.39179 -365.301434 
L 548.39179 -365.301434 
L 546.03407 -365.253218 
L 543.627734 -365.20686 
L 541.170735 -365.206821 
L 538.660892 -365.19294 
L 536.095884 -365.177064 
L 533.473231 -365.150202 
L 530.790282 -365.177485 
L 528.044198 -365.356472 
L 525.231938 -365.530492 
L 522.350232 -366.275214 
L 519.395564 -367.081043 
L 516.364142 -367.48088 
L 513.251873 -367.565531 
L 510.054326 -367.544966 
L 506.766696 -367.478027 
L 503.383759 -367.657813 
L 499.899824 -367.657232 
L 496.308674 -367.591093 
L 492.6035 -367.4252 
L 488.776824 -367.256359 
L 484.820406 -367.12062 
L 480.725138 -366.981826 
L 476.480919 -366.74404 
L 472.076503 -366.491685 
L 467.499322 -366.352828 
L 462.735266 -366.079504 
L 457.768425 -365.700577 
L 452.580763 -365.286148 
L 447.15173 -364.954012 
L 441.457764 -364.845909 
L 435.471674 -365.49274 
L 429.161859 -365.567503 
L 422.491291 -365.024203 
L 415.416206 -364.400258 
L 407.884357 -363.537319 
L 399.83267 -363.181788 
L 391.184036 -362.63495 
L 381.842799 -361.101007 
L 371.688296 -359.091317 
L 360.565296 -356.384123 
L 348.269391 -351.792664 
L 334.523738 -342.465543 
L 318.940203 -322.043634 
L 300.950331 -259.768634 
L 279.672829 -227.197982 
L 253.631271 -223.283574 
L 220.057863 -214.727459 
L 172.738803 -205.544429 
L 91.846335 -205.283984 
z
" style="stroke: #386cb0; stroke-opacity: 0.05"/>
    </defs>
    <g clip-path="url(#p41c26fd274)">
     <use xlink:href="#m7ee8562468" x="0" y="389.977813" style="fill: #386cb0; fill-opacity: 0.05; stroke: #386cb0; stroke-opacity: 0.05"/>
    </g>
   </g>
   <g id="PolyCollection_4">
    <defs>
     <path id="m6a8295feb3" d="M 91.846335 -270.709946 
L 91.846335 -268.065838 
L 172.738803 -268.065838 
L 220.057863 -268.065838 
L 253.631271 -268.065838 
L 279.672829 -268.065838 
L 300.950331 -268.065838 
L 318.940203 -268.065838 
L 334.523738 -268.065838 
L 348.269391 -268.065838 
L 360.565296 -268.065838 
L 371.688296 -268.065838 
L 381.842799 -268.065838 
L 391.184036 -268.065838 
L 399.83267 -268.065838 
L 407.884357 -268.065838 
L 415.416206 -268.065838 
L 422.491291 -268.065838 
L 429.161859 -268.065838 
L 435.471674 -268.065838 
L 441.457764 -268.065838 
L 447.15173 -268.065838 
L 452.580763 -268.065838 
L 457.768425 -268.065838 
L 462.735266 -268.065838 
L 467.499322 -268.065838 
L 472.076503 -268.065838 
L 476.480919 -268.065838 
L 480.725138 -268.065838 
L 484.820406 -268.065838 
L 488.776824 -268.065838 
L 492.6035 -268.065838 
L 496.308674 -268.065838 
L 499.899824 -268.065838 
L 503.383759 -268.065838 
L 506.766696 -268.065838 
L 510.054326 -268.065838 
L 513.251873 -268.065838 
L 516.364142 -268.065838 
L 519.395564 -268.065838 
L 522.350232 -268.065838 
L 525.231938 -268.065838 
L 528.044198 -268.065838 
L 530.790282 -268.065838 
L 533.473231 -268.065838 
L 536.095884 -268.065838 
L 538.660892 -268.065838 
L 541.170735 -268.065838 
L 543.627734 -268.065838 
L 546.03407 -268.065838 
L 548.39179 -268.065838 
L 548.39179 -270.709946 
L 548.39179 -270.709946 
L 546.03407 -270.709946 
L 543.627734 -270.709946 
L 541.170735 -270.709946 
L 538.660892 -270.709946 
L 536.095884 -270.709946 
L 533.473231 -270.709946 
L 530.790282 -270.709946 
L 528.044198 -270.709946 
L 525.231938 -270.709946 
L 522.350232 -270.709946 
L 519.395564 -270.709946 
L 516.364142 -270.709946 
L 513.251873 -270.709946 
L 510.054326 -270.709946 
L 506.766696 -270.709946 
L 503.383759 -270.709946 
L 499.899824 -270.709946 
L 496.308674 -270.709946 
L 492.6035 -270.709946 
L 488.776824 -270.709946 
L 484.820406 -270.709946 
L 480.725138 -270.709946 
L 476.480919 -270.709946 
L 472.076503 -270.709946 
L 467.499322 -270.709946 
L 462.735266 -270.709946 
L 457.768425 -270.709946 
L 452.580763 -270.709946 
L 447.15173 -270.709946 
L 441.457764 -270.709946 
L 435.471674 -270.709946 
L 429.161859 -270.709946 
L 422.491291 -270.709946 
L 415.416206 -270.709946 
L 407.884357 -270.709946 
L 399.83267 -270.709946 
L 391.184036 -270.709946 
L 381.842799 -270.709946 
L 371.688296 -270.709946 
L 360.565296 -270.709946 
L 348.269391 -270.709946 
L 334.523738 -270.709946 
L 318.940203 -270.709946 
L 300.950331 -270.709946 
L 279.672829 -270.709946 
L 253.631271 -270.709946 
L 220.057863 -270.709946 
L 172.738803 -270.709946 
L 91.846335 -270.709946 
z
" style="stroke: #fdc086; stroke-opacity: 0.05"/>
    </defs>
    <g clip-path="url(#p41c26fd274)">
     <use xlink:href="#m6a8295feb3" x="0" y="389.977813" style="fill: #fdc086; fill-opacity: 0.05; stroke: #fdc086; stroke-opacity: 0.05"/>
    </g>
   </g>
   <g id="PolyCollection_5">
    <defs>
     <path id="m95e4669430" d="M 91.846335 -327.620908 
L 91.846335 -325.153694 
L 172.738803 -337.04153 
L 220.057863 -343.552576 
L 253.631271 -347.981268 
L 279.672829 -350.032515 
L 300.950331 -351.716668 
L 318.940203 -353.182701 
L 334.523738 -354.541491 
L 348.269391 -355.724987 
L 360.565296 -356.791141 
L 371.688296 -357.38545 
L 381.842799 -357.928138 
L 391.184036 -358.435713 
L 399.83267 -358.90752 
L 407.884357 -359.348976 
L 415.416206 -359.735322 
L 422.491291 -360.121546 
L 429.161859 -360.490652 
L 435.471674 -360.843337 
L 441.457764 -361.166466 
L 447.15173 -361.341542 
L 452.580763 -361.527919 
L 457.768425 -361.694773 
L 462.735266 -361.86059 
L 467.499322 -362.025481 
L 472.076503 -362.187071 
L 476.480919 -362.341644 
L 480.725138 -362.486797 
L 484.820406 -362.639784 
L 488.776824 -362.771806 
L 492.6035 -362.918352 
L 496.308674 -363.042901 
L 499.899824 -363.167163 
L 503.383759 -363.284409 
L 506.766696 -363.402507 
L 510.054326 -363.472724 
L 513.251873 -363.53561 
L 516.364142 -363.598131 
L 519.395564 -363.659407 
L 522.350232 -363.721407 
L 525.231938 -363.767191 
L 528.044198 -363.831452 
L 530.790282 -363.887732 
L 533.473231 -363.933288 
L 536.095884 -363.986096 
L 538.660892 -364.035205 
L 541.170735 -364.088692 
L 543.627734 -364.137799 
L 546.03407 -364.19725 
L 548.39179 -364.247254 
L 548.39179 -365.570794 
L 548.39179 -365.570794 
L 546.03407 -365.519634 
L 543.627734 -365.476822 
L 541.170735 -365.423064 
L 538.660892 -365.373092 
L 536.095884 -365.318432 
L 533.473231 -365.26392 
L 530.790282 -365.200209 
L 528.044198 -365.1466 
L 525.231938 -365.094782 
L 522.350232 -365.024252 
L 519.395564 -364.96893 
L 516.364142 -364.909778 
L 513.251873 -364.848348 
L 510.054326 -364.785375 
L 506.766696 -364.724794 
L 503.383759 -364.614593 
L 499.899824 -364.496559 
L 496.308674 -364.374335 
L 492.6035 -364.248007 
L 488.776824 -364.133578 
L 484.820406 -363.99891 
L 480.725138 -363.870822 
L 476.480919 -363.728279 
L 472.076503 -363.586372 
L 467.499322 -363.444326 
L 462.735266 -363.293965 
L 457.768425 -363.135931 
L 452.580763 -362.97305 
L 447.15173 -362.816027 
L 441.457764 -362.630341 
L 435.471674 -362.340188 
L 429.161859 -362.005235 
L 422.491291 -361.641392 
L 415.416206 -361.258037 
L 407.884357 -360.83716 
L 399.83267 -360.417962 
L 391.184036 -359.972129 
L 381.842799 -359.495685 
L 371.688296 -359.001703 
L 360.565296 -358.488482 
L 348.269391 -357.475774 
L 334.523738 -356.301032 
L 318.940203 -355.026678 
L 300.950331 -353.537805 
L 279.672829 -351.806717 
L 253.631271 -349.803389 
L 220.057863 -345.535694 
L 172.738803 -339.061308 
L 91.846335 -327.620908 
z
" style="stroke: #666666; stroke-opacity: 0.05"/>
    </defs>
    <g clip-path="url(#p41c26fd274)">
     <use xlink:href="#m95e4669430" x="0" y="389.977813" style="fill: #666666; fill-opacity: 0.05; stroke: #666666; stroke-opacity: 0.05"/>
    </g>
   </g>
   <g id="PolyCollection_6">
    <defs>
     <path id="m6caee57949" d="M 91.846335 -205.283984 
L 91.846335 -202.994997 
L 172.738803 -202.999285 
L 220.057863 -203.011693 
L 253.631271 -294.982127 
L 279.672829 -321.416385 
L 300.950331 -332.929274 
L 318.940203 -338.37636 
L 334.523738 -341.942202 
L 348.269391 -345.632071 
L 360.565296 -348.159856 
L 371.688296 -349.685633 
L 381.842799 -350.771762 
L 391.184036 -351.797583 
L 399.83267 -352.931164 
L 407.884357 -354.808173 
L 415.416206 -355.577772 
L 422.491291 -356.247812 
L 429.161859 -356.841314 
L 435.471674 -357.282853 
L 441.457764 -357.637744 
L 447.15173 -358.070858 
L 452.580763 -358.369374 
L 457.768425 -358.643062 
L 462.735266 -358.906462 
L 467.499322 -359.232366 
L 472.076503 -359.488214 
L 476.480919 -359.694021 
L 480.725138 -359.92989 
L 484.820406 -360.117618 
L 488.776824 -360.402476 
L 492.6035 -360.627248 
L 496.308674 -360.877909 
L 499.899824 -361.194013 
L 503.383759 -361.494286 
L 506.766696 -361.728786 
L 510.054326 -362.0396 
L 513.251873 -362.36415 
L 516.364142 -362.826961 
L 519.395564 -363.051279 
L 522.350232 -363.207058 
L 525.231938 -363.343803 
L 528.044198 -363.44325 
L 530.790282 -363.527757 
L 533.473231 -363.61788 
L 536.095884 -363.690413 
L 538.660892 -363.744999 
L 541.170735 -363.803216 
L 543.627734 -363.872084 
L 546.03407 -363.92669 
L 548.39179 -363.980368 
L 548.39179 -365.332099 
L 548.39179 -365.332099 
L 546.03407 -365.275716 
L 543.627734 -365.227276 
L 541.170735 -365.169117 
L 538.660892 -365.098854 
L 536.095884 -365.030619 
L 533.473231 -364.957203 
L 530.790282 -364.901757 
L 528.044198 -364.829694 
L 525.231938 -364.772253 
L 522.350232 -364.708379 
L 519.395564 -364.667469 
L 516.364142 -364.667569 
L 513.251873 -364.838403 
L 510.054326 -364.894052 
L 506.766696 -364.962507 
L 503.383759 -364.929754 
L 499.899824 -364.916822 
L 496.308674 -364.924527 
L 492.6035 -364.876971 
L 488.776824 -364.748942 
L 484.820406 -364.696259 
L 480.725138 -364.512486 
L 476.480919 -364.35797 
L 472.076503 -364.173378 
L 467.499322 -364.007375 
L 462.735266 -363.851091 
L 457.768425 -363.607114 
L 452.580763 -363.320031 
L 447.15173 -363.019325 
L 441.457764 -362.795518 
L 435.471674 -362.434445 
L 429.161859 -362.041149 
L 422.491291 -361.631536 
L 415.416206 -361.127205 
L 407.884357 -360.726671 
L 399.83267 -360.848847 
L 391.184036 -360.231226 
L 381.842799 -359.306013 
L 371.688296 -358.104525 
L 360.565296 -356.941149 
L 348.269391 -355.634228 
L 334.523738 -353.690648 
L 318.940203 -350.415389 
L 300.950331 -347.074629 
L 279.672829 -343.158541 
L 253.631271 -324.108705 
L 220.057863 -205.296782 
L 172.738803 -205.288231 
L 91.846335 -205.283984 
z
" style="stroke: #bf5b17; stroke-opacity: 0.05"/>
    </defs>
    <g clip-path="url(#p41c26fd274)">
     <use xlink:href="#m6caee57949" x="0" y="389.977813" style="fill: #bf5b17; fill-opacity: 0.05; stroke: #bf5b17; stroke-opacity: 0.05"/>
    </g>
   </g>
   <g id="matplotlib.axis_1">
    <g id="xtick_1">
     <g id="line2d_1">
      <path d="M 91.846335 339.84 
L 91.846335 7.2 
" clip-path="url(#p41c26fd274)" style="fill: none; stroke-dasharray: 1.85,0.8; stroke-dashoffset: 0; stroke: #b0b0b0; stroke-width: 0.5"/>
     </g>
     <g id="line2d_2">
      <defs>
       <path id="m46e9ab103c" d="M 0 0 
L 0 3.5 
" style="stroke: #000000; stroke-width: 0.8"/>
      </defs>
      <g>
       <use xlink:href="#m46e9ab103c" x="91.846335" y="339.84" style="stroke: #000000; stroke-width: 0.8"/>
      </g>
     </g>
     <g id="text_1">
      <!-- $\mathdefault{10^{0}}$ -->
      <g transform="translate(78.646335 358.237656) scale(0.15 -0.15)">
       <defs>
        <path id="DejaVuSans-31" d="M 794 531 
L 1825 531 
L 1825 4091 
L 703 3866 
L 703 4441 
L 1819 4666 
L 2450 4666 
L 2450 531 
L 3481 531 
L 3481 0 
L 794 0 
L 794 531 
z
" transform="scale(0.015625)"/>
        <path id="DejaVuSans-30" d="M 2034 4250 
Q 1547 4250 1301 3770 
Q 1056 3291 1056 2328 
Q 1056 1369 1301 889 
Q 1547 409 2034 409 
Q 2525 409 2770 889 
Q 3016 1369 3016 2328 
Q 3016 3291 2770 3770 
Q 2525 4250 2034 4250 
z
M 2034 4750 
Q 2819 4750 3233 4129 
Q 3647 3509 3647 2328 
Q 3647 1150 3233 529 
Q 2819 -91 2034 -91 
Q 1250 -91 836 529 
Q 422 1150 422 2328 
Q 422 3509 836 4129 
Q 1250 4750 2034 4750 
z
" transform="scale(0.015625)"/>
       </defs>
       <use xlink:href="#DejaVuSans-31" transform="translate(0 0.765625)"/>
       <use xlink:href="#DejaVuSans-30" transform="translate(63.623047 0.765625)"/>
       <use xlink:href="#DejaVuSans-30" transform="translate(128.203125 39.046875) scale(0.7)"/>
      </g>
     </g>
    </g>
    <g id="xtick_2">
     <g id="line2d_3">
      <path d="M 360.565296 339.84 
L 360.565296 7.2 
" clip-path="url(#p41c26fd274)" style="fill: none; stroke-dasharray: 1.85,0.8; stroke-dashoffset: 0; stroke: #b0b0b0; stroke-width: 0.5"/>
     </g>
     <g id="line2d_4">
      <g>
       <use xlink:href="#m46e9ab103c" x="360.565296" y="339.84" style="stroke: #000000; stroke-width: 0.8"/>
      </g>
     </g>
     <g id="text_2">
      <!-- $\mathdefault{10^{1}}$ -->
      <g transform="translate(347.365296 358.237656) scale(0.15 -0.15)">
       <use xlink:href="#DejaVuSans-31" transform="translate(0 0.684375)"/>
       <use xlink:href="#DejaVuSans-30" transform="translate(63.623047 0.684375)"/>
       <use xlink:href="#DejaVuSans-31" transform="translate(128.203125 38.965625) scale(0.7)"/>
      </g>
     </g>
    </g>
    <g id="xtick_3">
     <g id="line2d_5">
      <defs>
       <path id="m1074afca58" d="M 0 0 
L 0 2 
" style="stroke: #000000; stroke-width: 0.6"/>
      </defs>
      <g>
       <use xlink:href="#m1074afca58" x="79.55043" y="339.84" style="stroke: #000000; stroke-width: 0.6"/>
      </g>
     </g>
    </g>
    <g id="xtick_4">
     <g id="line2d_6">
      <g>
       <use xlink:href="#m1074afca58" x="172.738803" y="339.84" style="stroke: #000000; stroke-width: 0.6"/>
      </g>
     </g>
    </g>
    <g id="xtick_5">
     <g id="line2d_7">
      <g>
       <use xlink:href="#m1074afca58" x="220.057863" y="339.84" style="stroke: #000000; stroke-width: 0.6"/>
      </g>
     </g>
    </g>
    <g id="xtick_6">
     <g id="line2d_8">
      <g>
       <use xlink:href="#m1074afca58" x="253.631271" y="339.84" style="stroke: #000000; stroke-width: 0.6"/>
      </g>
     </g>
    </g>
    <g id="xtick_7">
     <g id="line2d_9">
      <g>
       <use xlink:href="#m1074afca58" x="279.672829" y="339.84" style="stroke: #000000; stroke-width: 0.6"/>
      </g>
     </g>
    </g>
    <g id="xtick_8">
     <g id="line2d_10">
      <g>
       <use xlink:href="#m1074afca58" x="300.950331" y="339.84" style="stroke: #000000; stroke-width: 0.6"/>
      </g>
     </g>
    </g>
    <g id="xtick_9">
     <g id="line2d_11">
      <g>
       <use xlink:href="#m1074afca58" x="318.940203" y="339.84" style="stroke: #000000; stroke-width: 0.6"/>
      </g>
     </g>
    </g>
    <g id="xtick_10">
     <g id="line2d_12">
      <g>
       <use xlink:href="#m1074afca58" x="334.523738" y="339.84" style="stroke: #000000; stroke-width: 0.6"/>
      </g>
     </g>
    </g>
    <g id="xtick_11">
     <g id="line2d_13">
      <g>
       <use xlink:href="#m1074afca58" x="348.269391" y="339.84" style="stroke: #000000; stroke-width: 0.6"/>
      </g>
     </g>
    </g>
    <g id="xtick_12">
     <g id="line2d_14">
      <g>
       <use xlink:href="#m1074afca58" x="441.457764" y="339.84" style="stroke: #000000; stroke-width: 0.6"/>
      </g>
     </g>
    </g>
    <g id="xtick_13">
     <g id="line2d_15">
      <g>
       <use xlink:href="#m1074afca58" x="488.776824" y="339.84" style="stroke: #000000; stroke-width: 0.6"/>
      </g>
     </g>
    </g>
    <g id="xtick_14">
     <g id="line2d_16">
      <g>
       <use xlink:href="#m1074afca58" x="522.350232" y="339.84" style="stroke: #000000; stroke-width: 0.6"/>
      </g>
     </g>
    </g>
    <g id="xtick_15">
     <g id="line2d_17">
      <g>
       <use xlink:href="#m1074afca58" x="548.39179" y="339.84" style="stroke: #000000; stroke-width: 0.6"/>
      </g>
     </g>
    </g>
    <g id="xtick_16">
     <g id="line2d_18">
      <g>
       <use xlink:href="#m1074afca58" x="569.669292" y="339.84" style="stroke: #000000; stroke-width: 0.6"/>
      </g>
     </g>
    </g>
    <g id="text_3">
     <!-- Decision Round -->
     <g transform="translate(250.466094 379.034375) scale(0.18 -0.18)">
      <defs>
       <path id="DejaVuSans-44" d="M 1259 4147 
L 1259 519 
L 2022 519 
Q 2988 519 3436 956 
Q 3884 1394 3884 2338 
Q 3884 3275 3436 3711 
Q 2988 4147 2022 4147 
L 1259 4147 
z
M 628 4666 
L 1925 4666 
Q 3281 4666 3915 4102 
Q 4550 3538 4550 2338 
Q 4550 1131 3912 565 
Q 3275 0 1925 0 
L 628 0 
L 628 4666 
z
" transform="scale(0.015625)"/>
       <path id="DejaVuSans-65" d="M 3597 1894 
L 3597 1613 
L 953 1613 
Q 991 1019 1311 708 
Q 1631 397 2203 397 
Q 2534 397 2845 478 
Q 3156 559 3463 722 
L 3463 178 
Q 3153 47 2828 -22 
Q 2503 -91 2169 -91 
Q 1331 -91 842 396 
Q 353 884 353 1716 
Q 353 2575 817 3079 
Q 1281 3584 2069 3584 
Q 2775 3584 3186 3129 
Q 3597 2675 3597 1894 
z
M 3022 2063 
Q 3016 2534 2758 2815 
Q 2500 3097 2075 3097 
Q 1594 3097 1305 2825 
Q 1016 2553 972 2059 
L 3022 2063 
z
" transform="scale(0.015625)"/>
       <path id="DejaVuSans-63" d="M 3122 3366 
L 3122 2828 
Q 2878 2963 2633 3030 
Q 2388 3097 2138 3097 
Q 1578 3097 1268 2742 
Q 959 2388 959 1747 
Q 959 1106 1268 751 
Q 1578 397 2138 397 
Q 2388 397 2633 464 
Q 2878 531 3122 666 
L 3122 134 
Q 2881 22 2623 -34 
Q 2366 -91 2075 -91 
Q 1284 -91 818 406 
Q 353 903 353 1747 
Q 353 2603 823 3093 
Q 1294 3584 2113 3584 
Q 2378 3584 2631 3529 
Q 2884 3475 3122 3366 
z
" transform="scale(0.015625)"/>
       <path id="DejaVuSans-69" d="M 603 3500 
L 1178 3500 
L 1178 0 
L 603 0 
L 603 3500 
z
M 603 4863 
L 1178 4863 
L 1178 4134 
L 603 4134 
L 603 4863 
z
" transform="scale(0.015625)"/>
       <path id="DejaVuSans-73" d="M 2834 3397 
L 2834 2853 
Q 2591 2978 2328 3040 
Q 2066 3103 1784 3103 
Q 1356 3103 1142 2972 
Q 928 2841 928 2578 
Q 928 2378 1081 2264 
Q 1234 2150 1697 2047 
L 1894 2003 
Q 2506 1872 2764 1633 
Q 3022 1394 3022 966 
Q 3022 478 2636 193 
Q 2250 -91 1575 -91 
Q 1294 -91 989 -36 
Q 684 19 347 128 
L 347 722 
Q 666 556 975 473 
Q 1284 391 1588 391 
Q 1994 391 2212 530 
Q 2431 669 2431 922 
Q 2431 1156 2273 1281 
Q 2116 1406 1581 1522 
L 1381 1569 
Q 847 1681 609 1914 
Q 372 2147 372 2553 
Q 372 3047 722 3315 
Q 1072 3584 1716 3584 
Q 2034 3584 2315 3537 
Q 2597 3491 2834 3397 
z
" transform="scale(0.015625)"/>
       <path id="DejaVuSans-6f" d="M 1959 3097 
Q 1497 3097 1228 2736 
Q 959 2375 959 1747 
Q 959 1119 1226 758 
Q 1494 397 1959 397 
Q 2419 397 2687 759 
Q 2956 1122 2956 1747 
Q 2956 2369 2687 2733 
Q 2419 3097 1959 3097 
z
M 1959 3584 
Q 2709 3584 3137 3096 
Q 3566 2609 3566 1747 
Q 3566 888 3137 398 
Q 2709 -91 1959 -91 
Q 1206 -91 779 398 
Q 353 888 353 1747 
Q 353 2609 779 3096 
Q 1206 3584 1959 3584 
z
" transform="scale(0.015625)"/>
       <path id="DejaVuSans-6e" d="M 3513 2113 
L 3513 0 
L 2938 0 
L 2938 2094 
Q 2938 2591 2744 2837 
Q 2550 3084 2163 3084 
Q 1697 3084 1428 2787 
Q 1159 2491 1159 1978 
L 1159 0 
L 581 0 
L 581 3500 
L 1159 3500 
L 1159 2956 
Q 1366 3272 1645 3428 
Q 1925 3584 2291 3584 
Q 2894 3584 3203 3211 
Q 3513 2838 3513 2113 
z
" transform="scale(0.015625)"/>
       <path id="DejaVuSans-20" transform="scale(0.015625)"/>
       <path id="DejaVuSans-52" d="M 2841 2188 
Q 3044 2119 3236 1894 
Q 3428 1669 3622 1275 
L 4263 0 
L 3584 0 
L 2988 1197 
Q 2756 1666 2539 1819 
Q 2322 1972 1947 1972 
L 1259 1972 
L 1259 0 
L 628 0 
L 628 4666 
L 2053 4666 
Q 2853 4666 3247 4331 
Q 3641 3997 3641 3322 
Q 3641 2881 3436 2590 
Q 3231 2300 2841 2188 
z
M 1259 4147 
L 1259 2491 
L 2053 2491 
Q 2509 2491 2742 2702 
Q 2975 2913 2975 3322 
Q 2975 3731 2742 3939 
Q 2509 4147 2053 4147 
L 1259 4147 
z
" transform="scale(0.015625)"/>
       <path id="DejaVuSans-75" d="M 544 1381 
L 544 3500 
L 1119 3500 
L 1119 1403 
Q 1119 906 1312 657 
Q 1506 409 1894 409 
Q 2359 409 2629 706 
Q 2900 1003 2900 1516 
L 2900 3500 
L 3475 3500 
L 3475 0 
L 2900 0 
L 2900 538 
Q 2691 219 2414 64 
Q 2138 -91 1772 -91 
Q 1169 -91 856 284 
Q 544 659 544 1381 
z
M 1991 3584 
L 1991 3584 
z
" transform="scale(0.015625)"/>
       <path id="DejaVuSans-64" d="M 2906 2969 
L 2906 4863 
L 3481 4863 
L 3481 0 
L 2906 0 
L 2906 525 
Q 2725 213 2448 61 
Q 2172 -91 1784 -91 
Q 1150 -91 751 415 
Q 353 922 353 1747 
Q 353 2572 751 3078 
Q 1150 3584 1784 3584 
Q 2172 3584 2448 3432 
Q 2725 3281 2906 2969 
z
M 947 1747 
Q 947 1113 1208 752 
Q 1469 391 1925 391 
Q 2381 391 2643 752 
Q 2906 1113 2906 1747 
Q 2906 2381 2643 2742 
Q 2381 3103 1925 3103 
Q 1469 3103 1208 2742 
Q 947 2381 947 1747 
z
" transform="scale(0.015625)"/>
      </defs>
      <use xlink:href="#DejaVuSans-44"/>
      <use xlink:href="#DejaVuSans-65" x="77.001953"/>
      <use xlink:href="#DejaVuSans-63" x="138.525391"/>
      <use xlink:href="#DejaVuSans-69" x="193.505859"/>
      <use xlink:href="#DejaVuSans-73" x="221.289062"/>
      <use xlink:href="#DejaVuSans-69" x="273.388672"/>
      <use xlink:href="#DejaVuSans-6f" x="301.171875"/>
      <use xlink:href="#DejaVuSans-6e" x="362.353516"/>
      <use xlink:href="#DejaVuSans-20" x="425.732422"/>
      <use xlink:href="#DejaVuSans-52" x="457.519531"/>
      <use xlink:href="#DejaVuSans-6f" x="522.501953"/>
      <use xlink:href="#DejaVuSans-75" x="583.683594"/>
      <use xlink:href="#DejaVuSans-6e" x="647.0625"/>
      <use xlink:href="#DejaVuSans-64" x="710.441406"/>
     </g>
    </g>
   </g>
   <g id="matplotlib.axis_2">
    <g id="ytick_1">
     <g id="line2d_19">
      <path d="M 69.019063 296.567571 
L 571.219063 296.567571 
" clip-path="url(#p41c26fd274)" style="fill: none; stroke-dasharray: 1.85,0.8; stroke-dashoffset: 0; stroke: #b0b0b0; stroke-width: 0.5"/>
     </g>
     <g id="line2d_20">
      <defs>
       <path id="mff32a96987" d="M 0 0 
L -3.5 0 
" style="stroke: #000000; stroke-width: 0.8"/>
      </defs>
      <g>
       <use xlink:href="#mff32a96987" x="69.019063" y="296.567571" style="stroke: #000000; stroke-width: 0.8"/>
      </g>
     </g>
     <g id="text_4">
      <!-- 0.35 -->
      <g transform="translate(28.620625 302.266399) scale(0.15 -0.15)">
       <defs>
        <path id="DejaVuSans-2e" d="M 684 794 
L 1344 794 
L 1344 0 
L 684 0 
L 684 794 
z
" transform="scale(0.015625)"/>
        <path id="DejaVuSans-33" d="M 2597 2516 
Q 3050 2419 3304 2112 
Q 3559 1806 3559 1356 
Q 3559 666 3084 287 
Q 2609 -91 1734 -91 
Q 1441 -91 1130 -33 
Q 819 25 488 141 
L 488 750 
Q 750 597 1062 519 
Q 1375 441 1716 441 
Q 2309 441 2620 675 
Q 2931 909 2931 1356 
Q 2931 1769 2642 2001 
Q 2353 2234 1838 2234 
L 1294 2234 
L 1294 2753 
L 1863 2753 
Q 2328 2753 2575 2939 
Q 2822 3125 2822 3475 
Q 2822 3834 2567 4026 
Q 2313 4219 1838 4219 
Q 1578 4219 1281 4162 
Q 984 4106 628 3988 
L 628 4550 
Q 988 4650 1302 4700 
Q 1616 4750 1894 4750 
Q 2613 4750 3031 4423 
Q 3450 4097 3450 3541 
Q 3450 3153 3228 2886 
Q 3006 2619 2597 2516 
z
" transform="scale(0.015625)"/>
        <path id="DejaVuSans-35" d="M 691 4666 
L 3169 4666 
L 3169 4134 
L 1269 4134 
L 1269 2991 
Q 1406 3038 1543 3061 
Q 1681 3084 1819 3084 
Q 2600 3084 3056 2656 
Q 3513 2228 3513 1497 
Q 3513 744 3044 326 
Q 2575 -91 1722 -91 
Q 1428 -91 1123 -41 
Q 819 9 494 109 
L 494 744 
Q 775 591 1075 516 
Q 1375 441 1709 441 
Q 2250 441 2565 725 
Q 2881 1009 2881 1497 
Q 2881 1984 2565 2268 
Q 2250 2553 1709 2553 
Q 1456 2553 1204 2497 
Q 953 2441 691 2322 
L 691 4666 
z
" transform="scale(0.015625)"/>
       </defs>
       <use xlink:href="#DejaVuSans-30"/>
       <use xlink:href="#DejaVuSans-2e" x="63.623047"/>
       <use xlink:href="#DejaVuSans-33" x="95.410156"/>
       <use xlink:href="#DejaVuSans-35" x="159.033203"/>
      </g>
     </g>
    </g>
    <g id="ytick_2">
     <g id="line2d_21">
      <path d="M 69.019063 246.671221 
L 571.219063 246.671221 
" clip-path="url(#p41c26fd274)" style="fill: none; stroke-dasharray: 1.85,0.8; stroke-dashoffset: 0; stroke: #b0b0b0; stroke-width: 0.5"/>
     </g>
     <g id="line2d_22">
      <g>
       <use xlink:href="#mff32a96987" x="69.019063" y="246.671221" style="stroke: #000000; stroke-width: 0.8"/>
      </g>
     </g>
     <g id="text_5">
      <!-- 0.40 -->
      <g transform="translate(28.620625 252.370049) scale(0.15 -0.15)">
       <defs>
        <path id="DejaVuSans-34" d="M 2419 4116 
L 825 1625 
L 2419 1625 
L 2419 4116 
z
M 2253 4666 
L 3047 4666 
L 3047 1625 
L 3713 1625 
L 3713 1100 
L 3047 1100 
L 3047 0 
L 2419 0 
L 2419 1100 
L 313 1100 
L 313 1709 
L 2253 4666 
z
" transform="scale(0.015625)"/>
       </defs>
       <use xlink:href="#DejaVuSans-30"/>
       <use xlink:href="#DejaVuSans-2e" x="63.623047"/>
       <use xlink:href="#DejaVuSans-34" x="95.410156"/>
       <use xlink:href="#DejaVuSans-30" x="159.033203"/>
      </g>
     </g>
    </g>
    <g id="ytick_3">
     <g id="line2d_23">
      <path d="M 69.019063 196.774871 
L 571.219063 196.774871 
" clip-path="url(#p41c26fd274)" style="fill: none; stroke-dasharray: 1.85,0.8; stroke-dashoffset: 0; stroke: #b0b0b0; stroke-width: 0.5"/>
     </g>
     <g id="line2d_24">
      <g>
       <use xlink:href="#mff32a96987" x="69.019063" y="196.774871" style="stroke: #000000; stroke-width: 0.8"/>
      </g>
     </g>
     <g id="text_6">
      <!-- 0.45 -->
      <g transform="translate(28.620625 202.473699) scale(0.15 -0.15)">
       <use xlink:href="#DejaVuSans-30"/>
       <use xlink:href="#DejaVuSans-2e" x="63.623047"/>
       <use xlink:href="#DejaVuSans-34" x="95.410156"/>
       <use xlink:href="#DejaVuSans-35" x="159.033203"/>
      </g>
     </g>
    </g>
    <g id="ytick_4">
     <g id="line2d_25">
      <path d="M 69.019063 146.878521 
L 571.219063 146.878521 
" clip-path="url(#p41c26fd274)" style="fill: none; stroke-dasharray: 1.85,0.8; stroke-dashoffset: 0; stroke: #b0b0b0; stroke-width: 0.5"/>
     </g>
     <g id="line2d_26">
      <g>
       <use xlink:href="#mff32a96987" x="69.019063" y="146.878521" style="stroke: #000000; stroke-width: 0.8"/>
      </g>
     </g>
     <g id="text_7">
      <!-- 0.50 -->
      <g transform="translate(28.620625 152.577349) scale(0.15 -0.15)">
       <use xlink:href="#DejaVuSans-30"/>
       <use xlink:href="#DejaVuSans-2e" x="63.623047"/>
       <use xlink:href="#DejaVuSans-35" x="95.410156"/>
       <use xlink:href="#DejaVuSans-30" x="159.033203"/>
      </g>
     </g>
    </g>
    <g id="ytick_5">
     <g id="line2d_27">
      <path d="M 69.019063 96.982171 
L 571.219063 96.982171 
" clip-path="url(#p41c26fd274)" style="fill: none; stroke-dasharray: 1.85,0.8; stroke-dashoffset: 0; stroke: #b0b0b0; stroke-width: 0.5"/>
     </g>
     <g id="line2d_28">
      <g>
       <use xlink:href="#mff32a96987" x="69.019063" y="96.982171" style="stroke: #000000; stroke-width: 0.8"/>
      </g>
     </g>
     <g id="text_8">
      <!-- 0.55 -->
      <g transform="translate(28.620625 102.680999) scale(0.15 -0.15)">
       <use xlink:href="#DejaVuSans-30"/>
       <use xlink:href="#DejaVuSans-2e" x="63.623047"/>
       <use xlink:href="#DejaVuSans-35" x="95.410156"/>
       <use xlink:href="#DejaVuSans-35" x="159.033203"/>
      </g>
     </g>
    </g>
    <g id="ytick_6">
     <g id="line2d_29">
      <path d="M 69.019063 47.085821 
L 571.219063 47.085821 
" clip-path="url(#p41c26fd274)" style="fill: none; stroke-dasharray: 1.85,0.8; stroke-dashoffset: 0; stroke: #b0b0b0; stroke-width: 0.5"/>
     </g>
     <g id="line2d_30">
      <g>
       <use xlink:href="#mff32a96987" x="69.019063" y="47.085821" style="stroke: #000000; stroke-width: 0.8"/>
      </g>
     </g>
     <g id="text_9">
      <!-- 0.60 -->
      <g transform="translate(28.620625 52.784649) scale(0.15 -0.15)">
       <defs>
        <path id="DejaVuSans-36" d="M 2113 2584 
Q 1688 2584 1439 2293 
Q 1191 2003 1191 1497 
Q 1191 994 1439 701 
Q 1688 409 2113 409 
Q 2538 409 2786 701 
Q 3034 994 3034 1497 
Q 3034 2003 2786 2293 
Q 2538 2584 2113 2584 
z
M 3366 4563 
L 3366 3988 
Q 3128 4100 2886 4159 
Q 2644 4219 2406 4219 
Q 1781 4219 1451 3797 
Q 1122 3375 1075 2522 
Q 1259 2794 1537 2939 
Q 1816 3084 2150 3084 
Q 2853 3084 3261 2657 
Q 3669 2231 3669 1497 
Q 3669 778 3244 343 
Q 2819 -91 2113 -91 
Q 1303 -91 875 529 
Q 447 1150 447 2328 
Q 447 3434 972 4092 
Q 1497 4750 2381 4750 
Q 2619 4750 2861 4703 
Q 3103 4656 3366 4563 
z
" transform="scale(0.015625)"/>
       </defs>
       <use xlink:href="#DejaVuSans-30"/>
       <use xlink:href="#DejaVuSans-2e" x="63.623047"/>
       <use xlink:href="#DejaVuSans-36" x="95.410156"/>
       <use xlink:href="#DejaVuSans-30" x="159.033203"/>
      </g>
     </g>
    </g>
    <g id="text_10">
     <!-- Normalized Performance -->
     <g transform="translate(20.877187 284.447812) rotate(-90) scale(0.18 -0.18)">
      <defs>
       <path id="DejaVuSans-4e" d="M 628 4666 
L 1478 4666 
L 3547 763 
L 3547 4666 
L 4159 4666 
L 4159 0 
L 3309 0 
L 1241 3903 
L 1241 0 
L 628 0 
L 628 4666 
z
" transform="scale(0.015625)"/>
       <path id="DejaVuSans-72" d="M 2631 2963 
Q 2534 3019 2420 3045 
Q 2306 3072 2169 3072 
Q 1681 3072 1420 2755 
Q 1159 2438 1159 1844 
L 1159 0 
L 581 0 
L 581 3500 
L 1159 3500 
L 1159 2956 
Q 1341 3275 1631 3429 
Q 1922 3584 2338 3584 
Q 2397 3584 2469 3576 
Q 2541 3569 2628 3553 
L 2631 2963 
z
" transform="scale(0.015625)"/>
       <path id="DejaVuSans-6d" d="M 3328 2828 
Q 3544 3216 3844 3400 
Q 4144 3584 4550 3584 
Q 5097 3584 5394 3201 
Q 5691 2819 5691 2113 
L 5691 0 
L 5113 0 
L 5113 2094 
Q 5113 2597 4934 2840 
Q 4756 3084 4391 3084 
Q 3944 3084 3684 2787 
Q 3425 2491 3425 1978 
L 3425 0 
L 2847 0 
L 2847 2094 
Q 2847 2600 2669 2842 
Q 2491 3084 2119 3084 
Q 1678 3084 1418 2786 
Q 1159 2488 1159 1978 
L 1159 0 
L 581 0 
L 581 3500 
L 1159 3500 
L 1159 2956 
Q 1356 3278 1631 3431 
Q 1906 3584 2284 3584 
Q 2666 3584 2933 3390 
Q 3200 3197 3328 2828 
z
" transform="scale(0.015625)"/>
       <path id="DejaVuSans-61" d="M 2194 1759 
Q 1497 1759 1228 1600 
Q 959 1441 959 1056 
Q 959 750 1161 570 
Q 1363 391 1709 391 
Q 2188 391 2477 730 
Q 2766 1069 2766 1631 
L 2766 1759 
L 2194 1759 
z
M 3341 1997 
L 3341 0 
L 2766 0 
L 2766 531 
Q 2569 213 2275 61 
Q 1981 -91 1556 -91 
Q 1019 -91 701 211 
Q 384 513 384 1019 
Q 384 1609 779 1909 
Q 1175 2209 1959 2209 
L 2766 2209 
L 2766 2266 
Q 2766 2663 2505 2880 
Q 2244 3097 1772 3097 
Q 1472 3097 1187 3025 
Q 903 2953 641 2809 
L 641 3341 
Q 956 3463 1253 3523 
Q 1550 3584 1831 3584 
Q 2591 3584 2966 3190 
Q 3341 2797 3341 1997 
z
" transform="scale(0.015625)"/>
       <path id="DejaVuSans-6c" d="M 603 4863 
L 1178 4863 
L 1178 0 
L 603 0 
L 603 4863 
z
" transform="scale(0.015625)"/>
       <path id="DejaVuSans-7a" d="M 353 3500 
L 3084 3500 
L 3084 2975 
L 922 459 
L 3084 459 
L 3084 0 
L 275 0 
L 275 525 
L 2438 3041 
L 353 3041 
L 353 3500 
z
" transform="scale(0.015625)"/>
       <path id="DejaVuSans-50" d="M 1259 4147 
L 1259 2394 
L 2053 2394 
Q 2494 2394 2734 2622 
Q 2975 2850 2975 3272 
Q 2975 3691 2734 3919 
Q 2494 4147 2053 4147 
L 1259 4147 
z
M 628 4666 
L 2053 4666 
Q 2838 4666 3239 4311 
Q 3641 3956 3641 3272 
Q 3641 2581 3239 2228 
Q 2838 1875 2053 1875 
L 1259 1875 
L 1259 0 
L 628 0 
L 628 4666 
z
" transform="scale(0.015625)"/>
       <path id="DejaVuSans-66" d="M 2375 4863 
L 2375 4384 
L 1825 4384 
Q 1516 4384 1395 4259 
Q 1275 4134 1275 3809 
L 1275 3500 
L 2222 3500 
L 2222 3053 
L 1275 3053 
L 1275 0 
L 697 0 
L 697 3053 
L 147 3053 
L 147 3500 
L 697 3500 
L 697 3744 
Q 697 4328 969 4595 
Q 1241 4863 1831 4863 
L 2375 4863 
z
" transform="scale(0.015625)"/>
      </defs>
      <use xlink:href="#DejaVuSans-4e"/>
      <use xlink:href="#DejaVuSans-6f" x="74.804688"/>
      <use xlink:href="#DejaVuSans-72" x="135.986328"/>
      <use xlink:href="#DejaVuSans-6d" x="175.349609"/>
      <use xlink:href="#DejaVuSans-61" x="272.761719"/>
      <use xlink:href="#DejaVuSans-6c" x="334.041016"/>
      <use xlink:href="#DejaVuSans-69" x="361.824219"/>
      <use xlink:href="#DejaVuSans-7a" x="389.607422"/>
      <use xlink:href="#DejaVuSans-65" x="442.097656"/>
      <use xlink:href="#DejaVuSans-64" x="503.621094"/>
      <use xlink:href="#DejaVuSans-20" x="567.097656"/>
      <use xlink:href="#DejaVuSans-50" x="598.884766"/>
      <use xlink:href="#DejaVuSans-65" x="655.5625"/>
      <use xlink:href="#DejaVuSans-72" x="717.085938"/>
      <use xlink:href="#DejaVuSans-66" x="758.199219"/>
      <use xlink:href="#DejaVuSans-6f" x="793.404297"/>
      <use xlink:href="#DejaVuSans-72" x="854.585938"/>
      <use xlink:href="#DejaVuSans-6d" x="893.949219"/>
      <use xlink:href="#DejaVuSans-61" x="991.361328"/>
      <use xlink:href="#DejaVuSans-6e" x="1052.640625"/>
      <use xlink:href="#DejaVuSans-63" x="1116.019531"/>
      <use xlink:href="#DejaVuSans-65" x="1171"/>
     </g>
    </g>
   </g>
   <g id="line2d_31">
    <path d="M 91.846335 245.067222 
L 172.738803 192.427667 
L 220.057863 171.112016 
L 253.631271 147.506198 
L 279.672829 132.17951 
L 300.950331 123.729383 
L 318.940203 118.777896 
L 334.523738 111.152137 
L 348.269391 107.212558 
L 360.565296 103.442617 
L 371.688296 99.451383 
L 381.842799 96.546609 
L 391.184036 93.723494 
L 399.83267 92.104458 
L 407.884357 89.160614 
L 415.416206 87.490336 
L 422.491291 85.297053 
L 429.161859 83.582244 
L 435.471674 81.823416 
L 441.457764 80.209195 
L 447.15173 78.476925 
L 452.580763 77.269117 
L 457.768425 75.936844 
L 462.735266 74.978092 
L 467.499322 74.450473 
L 472.076503 73.450439 
L 476.480919 72.603485 
L 480.725138 71.717615 
L 484.820406 70.882674 
L 488.776824 69.748508 
L 492.6035 69.234855 
L 496.308674 68.470776 
L 499.899824 68.067415 
L 503.383759 67.20222 
L 506.766696 66.809308 
L 510.054326 66.219773 
L 513.251873 66.065981 
L 516.364142 65.691999 
L 519.395564 64.84988 
L 522.350232 64.122907 
L 525.231938 63.242888 
L 528.044198 62.638858 
L 530.790282 62.028201 
L 533.473231 61.686411 
L 536.095884 61.120008 
L 538.660892 60.704161 
L 541.170735 60.157726 
L 543.627734 59.74816 
L 546.03407 59.296052 
L 548.39179 59.082331 
" clip-path="url(#p41c26fd274)" style="fill: none; stroke: #7fc97f; stroke-width: 3; stroke-linecap: square"/>
   </g>
   <g id="line2d_32">
    <path d="M 91.846335 185.838322 
L 172.738803 185.563535 
L 220.057863 176.188972 
L 253.631271 167.68436 
L 279.672829 163.769989 
L 300.950331 131.349422 
L 318.940203 103.820624 
L 334.523738 103.761104 
L 348.269391 101.861688 
L 360.565296 101.076915 
L 371.688296 101.066393 
L 381.842799 101.060547 
L 391.184036 101.059563 
L 399.83267 100.492965 
L 407.884357 95.459931 
L 415.416206 95.378207 
L 422.491291 94.840812 
L 429.161859 94.840812 
L 435.471674 78.948231 
L 441.457764 78.928865 
L 447.15173 78.927402 
L 452.580763 78.887787 
L 457.768425 78.344 
L 462.735266 78.113927 
L 467.499322 64.594477 
L 472.076503 63.835673 
L 476.480919 63.835673 
L 480.725138 63.821563 
L 484.820406 63.820667 
L 488.776824 63.818751 
L 492.6035 63.818751 
L 496.308674 63.453271 
L 499.899824 63.447064 
L 503.383759 63.446013 
L 506.766696 63.331437 
L 510.054326 63.331341 
L 513.251873 62.982406 
L 516.364142 62.610623 
L 519.395564 62.606945 
L 522.350232 62.606084 
L 525.231938 62.244727 
L 528.044198 62.229102 
L 530.790282 62.229102 
L 533.473231 62.216637 
L 536.095884 61.907298 
L 538.660892 60.772827 
L 541.170735 60.772827 
L 543.627734 60.767265 
L 546.03407 60.766347 
L 548.39179 57.111596 
" clip-path="url(#p41c26fd274)" style="fill: none; stroke: #f0027f; stroke-width: 3; stroke-linecap: square"/>
   </g>
   <g id="line2d_33">
    <path d="M 91.846335 185.838322 
L 172.738803 185.563535 
L 220.057863 176.188972 
L 253.631271 167.68436 
L 279.672829 163.769989 
L 300.950331 131.349422 
L 318.940203 95.805546 
L 334.523738 72.034129 
L 348.269391 59.478492 
L 360.565296 52.795372 
L 371.688296 47.947937 
L 381.842799 44.096151 
L 391.184036 41.670237 
L 399.83267 39.578438 
L 407.884357 37.582791 
L 415.416206 35.94921 
L 422.491291 34.796503 
L 429.161859 33.886832 
L 435.471674 32.95076 
L 441.457764 32.029712 
L 447.15173 31.333097 
L 452.580763 30.838253 
L 457.768425 30.372511 
L 462.735266 29.96254 
L 467.499322 29.599332 
L 472.076503 29.254729 
L 476.480919 28.986704 
L 480.725138 28.722811 
L 484.820406 28.464257 
L 488.776824 28.264863 
L 492.6035 28.087779 
L 496.308674 27.900914 
L 499.899824 27.727479 
L 503.383759 27.569408 
L 506.766696 27.382578 
L 510.054326 27.223597 
L 513.251873 27.066539 
L 516.364142 26.901877 
L 519.395564 26.726196 
L 522.350232 26.507655 
L 525.231938 26.294282 
L 528.044198 26.168013 
L 530.790282 26.037139 
L 533.473231 25.95255 
L 536.095884 25.856137 
L 538.660892 25.769046 
L 541.170735 25.702748 
L 543.627734 25.627315 
L 546.03407 25.556182 
L 548.39179 25.488792 
" clip-path="url(#p41c26fd274)" style="fill: none; stroke: #386cb0; stroke-width: 3; stroke-linecap: square"/>
   </g>
   <g id="line2d_34">
    <path d="M 91.846335 120.589921 
L 172.738803 120.589921 
L 220.057863 120.589921 
L 253.631271 120.589921 
L 279.672829 120.589921 
L 300.950331 120.589921 
L 318.940203 120.589921 
L 334.523738 120.589921 
L 348.269391 120.589921 
L 360.565296 120.589921 
L 371.688296 120.589921 
L 381.842799 120.589921 
L 391.184036 120.589921 
L 399.83267 120.589921 
L 407.884357 120.589921 
L 415.416206 120.589921 
L 422.491291 120.589921 
L 429.161859 120.589921 
L 435.471674 120.589921 
L 441.457764 120.589921 
L 447.15173 120.589921 
L 452.580763 120.589921 
L 457.768425 120.589921 
L 462.735266 120.589921 
L 467.499322 120.589921 
L 472.076503 120.589921 
L 476.480919 120.589921 
L 480.725138 120.589921 
L 484.820406 120.589921 
L 488.776824 120.589921 
L 492.6035 120.589921 
L 496.308674 120.589921 
L 499.899824 120.589921 
L 503.383759 120.589921 
L 506.766696 120.589921 
L 510.054326 120.589921 
L 513.251873 120.589921 
L 516.364142 120.589921 
L 519.395564 120.589921 
L 522.350232 120.589921 
L 525.231938 120.589921 
L 528.044198 120.589921 
L 530.790282 120.589921 
L 533.473231 120.589921 
L 536.095884 120.589921 
L 538.660892 120.589921 
L 541.170735 120.589921 
L 543.627734 120.589921 
L 546.03407 120.589921 
L 548.39179 120.589921 
" clip-path="url(#p41c26fd274)" style="fill: none; stroke-dasharray: 11.1,4.8; stroke-dashoffset: 0; stroke: #fdc086; stroke-width: 3"/>
   </g>
   <g id="line2d_35">
    <path d="M 91.846335 63.590511 
L 172.738803 51.926394 
L 220.057863 45.433678 
L 253.631271 41.085484 
L 279.672829 39.058196 
L 300.950331 37.350576 
L 318.940203 35.873123 
L 334.523738 34.556551 
L 348.269391 33.377432 
L 360.565296 32.338001 
L 371.688296 31.784236 
L 381.842799 31.265901 
L 391.184036 30.773891 
L 399.83267 30.315071 
L 407.884357 29.884745 
L 415.416206 29.481133 
L 422.491291 29.096344 
L 429.161859 28.729869 
L 435.471674 28.38605 
L 441.457764 28.079409 
L 447.15173 27.899028 
L 452.580763 27.727328 
L 457.768425 27.562461 
L 462.735266 27.400535 
L 467.499322 27.242909 
L 472.076503 27.091091 
L 476.480919 26.942851 
L 480.725138 26.799003 
L 484.820406 26.658466 
L 488.776824 26.525121 
L 492.6035 26.394633 
L 496.308674 26.269194 
L 499.899824 26.145952 
L 503.383759 26.028312 
L 506.766696 25.914162 
L 510.054326 25.848763 
L 513.251873 25.785833 
L 516.364142 25.723858 
L 519.395564 25.663644 
L 522.350232 25.604983 
L 525.231938 25.546826 
L 528.044198 25.488786 
L 530.790282 25.433842 
L 533.473231 25.379208 
L 536.095884 25.325549 
L 538.660892 25.273664 
L 541.170735 25.221935 
L 543.627734 25.170502 
L 546.03407 25.119371 
L 548.39179 25.068789 
" clip-path="url(#p41c26fd274)" style="fill: none; stroke-dasharray: 11.1,4.8; stroke-dashoffset: 0; stroke: #666666; stroke-width: 3"/>
   </g>
   <g id="line2d_36">
    <path d="M 91.846335 185.838322 
L 172.738803 185.834054 
L 220.057863 185.823575 
L 253.631271 80.432397 
L 279.672829 57.69035 
L 300.950331 49.975861 
L 318.940203 45.581938 
L 334.523738 42.161387 
L 348.269391 39.344663 
L 360.565296 37.42731 
L 371.688296 36.082734 
L 381.842799 34.938925 
L 391.184036 33.963408 
L 399.83267 33.087807 
L 407.884357 32.21039 
L 415.416206 31.625324 
L 422.491291 31.038139 
L 429.161859 30.536581 
L 435.471674 30.119164 
L 441.457764 29.761182 
L 447.15173 29.432721 
L 452.580763 29.13311 
L 457.768425 28.852724 
L 462.735266 28.599036 
L 467.499322 28.357942 
L 472.076503 28.147016 
L 476.480919 27.951817 
L 480.725138 27.756625 
L 484.820406 27.570874 
L 488.776824 27.402104 
L 492.6035 27.225703 
L 496.308674 27.076594 
L 499.899824 26.922395 
L 503.383759 26.765793 
L 506.766696 26.632166 
L 510.054326 26.510986 
L 513.251873 26.376536 
L 516.364142 26.230548 
L 519.395564 26.118439 
L 522.350232 26.020094 
L 525.231938 25.919785 
L 528.044198 25.84134 
L 530.790282 25.763055 
L 533.473231 25.690271 
L 536.095884 25.617297 
L 538.660892 25.555886 
L 541.170735 25.491646 
L 543.627734 25.428133 
L 546.03407 25.37661 
L 548.39179 25.321579 
" clip-path="url(#p41c26fd274)" style="fill: none; stroke: #bf5b17; stroke-width: 3; stroke-linecap: square"/>
   </g>
   <g id="patch_3">
    <path d="M 69.019063 339.84 
L 69.019063 7.2 
" style="fill: none; stroke: #000000; stroke-width: 0.8; stroke-linejoin: miter; stroke-linecap: square"/>
   </g>
   <g id="patch_4">
    <path d="M 571.219063 339.84 
L 571.219063 7.2 
" style="fill: none; stroke: #000000; stroke-width: 0.8; stroke-linejoin: miter; stroke-linecap: square"/>
   </g>
   <g id="patch_5">
    <path d="M 69.019063 339.84 
L 571.219063 339.84 
" style="fill: none; stroke: #000000; stroke-width: 0.8; stroke-linejoin: miter; stroke-linecap: square"/>
   </g>
   <g id="patch_6">
    <path d="M 69.019063 7.2 
L 571.219063 7.2 
" style="fill: none; stroke: #000000; stroke-width: 0.8; stroke-linejoin: miter; stroke-linecap: square"/>
   </g>
   <g id="legend_1">
    <g id="patch_7">
     <path d="M 339.191563 331.84 
L 560.019063 331.84 
Q 563.219063 331.84 563.219063 328.64 
L 563.219063 189.33 
Q 563.219063 186.13 560.019063 186.13 
L 339.191563 186.13 
Q 335.991563 186.13 335.991563 189.33 
L 335.991563 328.64 
Q 335.991563 331.84 339.191563 331.84 
z
" style="fill: #ffffff; opacity: 0.8; stroke: #cccccc; stroke-linejoin: miter"/>
    </g>
    <g id="line2d_37">
     <path d="M 342.391563 199.0875 
L 358.391563 199.0875 
L 374.391563 199.0875 
" style="fill: none; stroke: #7fc97f; stroke-width: 3; stroke-linecap: square"/>
    </g>
    <g id="text_11">
     <!-- Random -->
     <g transform="translate(387.191563 204.6875) scale(0.16 -0.16)">
      <use xlink:href="#DejaVuSans-52"/>
      <use xlink:href="#DejaVuSans-61" x="67.232422"/>
      <use xlink:href="#DejaVuSans-6e" x="128.511719"/>
      <use xlink:href="#DejaVuSans-64" x="191.890625"/>
      <use xlink:href="#DejaVuSans-6f" x="255.367188"/>
      <use xlink:href="#DejaVuSans-6d" x="316.548828"/>
     </g>
    </g>
    <g id="line2d_38">
     <path d="M 342.391563 222.5725 
L 358.391563 222.5725 
L 374.391563 222.5725 
" style="fill: none; stroke: #f0027f; stroke-width: 3; stroke-linecap: square"/>
    </g>
    <g id="text_12">
     <!-- M-MBTL (Ours) -->
     <g transform="translate(387.191563 228.1725) scale(0.16 -0.16)">
      <defs>
       <path id="DejaVuSans-4d" d="M 628 4666 
L 1569 4666 
L 2759 1491 
L 3956 4666 
L 4897 4666 
L 4897 0 
L 4281 0 
L 4281 4097 
L 3078 897 
L 2444 897 
L 1241 4097 
L 1241 0 
L 628 0 
L 628 4666 
z
" transform="scale(0.015625)"/>
       <path id="DejaVuSans-2d" d="M 313 2009 
L 1997 2009 
L 1997 1497 
L 313 1497 
L 313 2009 
z
" transform="scale(0.015625)"/>
       <path id="DejaVuSans-42" d="M 1259 2228 
L 1259 519 
L 2272 519 
Q 2781 519 3026 730 
Q 3272 941 3272 1375 
Q 3272 1813 3026 2020 
Q 2781 2228 2272 2228 
L 1259 2228 
z
M 1259 4147 
L 1259 2741 
L 2194 2741 
Q 2656 2741 2882 2914 
Q 3109 3088 3109 3444 
Q 3109 3797 2882 3972 
Q 2656 4147 2194 4147 
L 1259 4147 
z
M 628 4666 
L 2241 4666 
Q 2963 4666 3353 4366 
Q 3744 4066 3744 3513 
Q 3744 3084 3544 2831 
Q 3344 2578 2956 2516 
Q 3422 2416 3680 2098 
Q 3938 1781 3938 1306 
Q 3938 681 3513 340 
Q 3088 0 2303 0 
L 628 0 
L 628 4666 
z
" transform="scale(0.015625)"/>
       <path id="DejaVuSans-54" d="M -19 4666 
L 3928 4666 
L 3928 4134 
L 2272 4134 
L 2272 0 
L 1638 0 
L 1638 4134 
L -19 4134 
L -19 4666 
z
" transform="scale(0.015625)"/>
       <path id="DejaVuSans-4c" d="M 628 4666 
L 1259 4666 
L 1259 531 
L 3531 531 
L 3531 0 
L 628 0 
L 628 4666 
z
" transform="scale(0.015625)"/>
       <path id="DejaVuSans-28" d="M 1984 4856 
Q 1566 4138 1362 3434 
Q 1159 2731 1159 2009 
Q 1159 1288 1364 580 
Q 1569 -128 1984 -844 
L 1484 -844 
Q 1016 -109 783 600 
Q 550 1309 550 2009 
Q 550 2706 781 3412 
Q 1013 4119 1484 4856 
L 1984 4856 
z
" transform="scale(0.015625)"/>
       <path id="DejaVuSans-4f" d="M 2522 4238 
Q 1834 4238 1429 3725 
Q 1025 3213 1025 2328 
Q 1025 1447 1429 934 
Q 1834 422 2522 422 
Q 3209 422 3611 934 
Q 4013 1447 4013 2328 
Q 4013 3213 3611 3725 
Q 3209 4238 2522 4238 
z
M 2522 4750 
Q 3503 4750 4090 4092 
Q 4678 3434 4678 2328 
Q 4678 1225 4090 567 
Q 3503 -91 2522 -91 
Q 1538 -91 948 565 
Q 359 1222 359 2328 
Q 359 3434 948 4092 
Q 1538 4750 2522 4750 
z
" transform="scale(0.015625)"/>
       <path id="DejaVuSans-29" d="M 513 4856 
L 1013 4856 
Q 1481 4119 1714 3412 
Q 1947 2706 1947 2009 
Q 1947 1309 1714 600 
Q 1481 -109 1013 -844 
L 513 -844 
Q 928 -128 1133 580 
Q 1338 1288 1338 2009 
Q 1338 2731 1133 3434 
Q 928 4138 513 4856 
z
" transform="scale(0.015625)"/>
      </defs>
      <use xlink:href="#DejaVuSans-4d"/>
      <use xlink:href="#DejaVuSans-2d" x="86.279297"/>
      <use xlink:href="#DejaVuSans-4d" x="122.363281"/>
      <use xlink:href="#DejaVuSans-42" x="208.642578"/>
      <use xlink:href="#DejaVuSans-54" x="277.246094"/>
      <use xlink:href="#DejaVuSans-4c" x="338.330078"/>
      <use xlink:href="#DejaVuSans-20" x="394.042969"/>
      <use xlink:href="#DejaVuSans-28" x="425.830078"/>
      <use xlink:href="#DejaVuSans-4f" x="464.84375"/>
      <use xlink:href="#DejaVuSans-75" x="543.554688"/>
      <use xlink:href="#DejaVuSans-72" x="606.933594"/>
      <use xlink:href="#DejaVuSans-73" x="648.046875"/>
      <use xlink:href="#DejaVuSans-29" x="700.146484"/>
     </g>
    </g>
    <g id="line2d_39">
     <path d="M 342.391563 246.0575 
L 358.391563 246.0575 
L 374.391563 246.0575 
" style="fill: none; stroke: #386cb0; stroke-width: 3; stroke-linecap: square"/>
    </g>
    <g id="text_13">
     <!-- M/GP-MBTL (Ours) -->
     <g transform="translate(387.191563 251.6575) scale(0.16 -0.16)">
      <defs>
       <path id="DejaVuSans-2f" d="M 1625 4666 
L 2156 4666 
L 531 -594 
L 0 -594 
L 1625 4666 
z
" transform="scale(0.015625)"/>
       <path id="DejaVuSans-47" d="M 3809 666 
L 3809 1919 
L 2778 1919 
L 2778 2438 
L 4434 2438 
L 4434 434 
Q 4069 175 3628 42 
Q 3188 -91 2688 -91 
Q 1594 -91 976 548 
Q 359 1188 359 2328 
Q 359 3472 976 4111 
Q 1594 4750 2688 4750 
Q 3144 4750 3555 4637 
Q 3966 4525 4313 4306 
L 4313 3634 
Q 3963 3931 3569 4081 
Q 3175 4231 2741 4231 
Q 1884 4231 1454 3753 
Q 1025 3275 1025 2328 
Q 1025 1384 1454 906 
Q 1884 428 2741 428 
Q 3075 428 3337 486 
Q 3600 544 3809 666 
z
" transform="scale(0.015625)"/>
      </defs>
      <use xlink:href="#DejaVuSans-4d"/>
      <use xlink:href="#DejaVuSans-2f" x="86.279297"/>
      <use xlink:href="#DejaVuSans-47" x="119.970703"/>
      <use xlink:href="#DejaVuSans-50" x="197.460938"/>
      <use xlink:href="#DejaVuSans-2d" x="255.513672"/>
      <use xlink:href="#DejaVuSans-4d" x="291.597656"/>
      <use xlink:href="#DejaVuSans-42" x="377.876953"/>
      <use xlink:href="#DejaVuSans-54" x="446.480469"/>
      <use xlink:href="#DejaVuSans-4c" x="507.564453"/>
      <use xlink:href="#DejaVuSans-20" x="563.277344"/>
      <use xlink:href="#DejaVuSans-28" x="595.064453"/>
      <use xlink:href="#DejaVuSans-4f" x="634.078125"/>
      <use xlink:href="#DejaVuSans-75" x="712.789062"/>
      <use xlink:href="#DejaVuSans-72" x="776.167969"/>
      <use xlink:href="#DejaVuSans-73" x="817.28125"/>
      <use xlink:href="#DejaVuSans-29" x="869.380859"/>
     </g>
    </g>
    <g id="line2d_40">
     <path d="M 342.391563 269.5425 
L 358.391563 269.5425 
L 374.391563 269.5425 
" style="fill: none; stroke-dasharray: 11.1,4.8; stroke-dashoffset: 0; stroke: #fdc086; stroke-width: 3"/>
    </g>
    <g id="text_14">
     <!-- Independent Training -->
     <g transform="translate(387.191563 275.1425) scale(0.16 -0.16)">
      <defs>
       <path id="DejaVuSans-49" d="M 628 4666 
L 1259 4666 
L 1259 0 
L 628 0 
L 628 4666 
z
" transform="scale(0.015625)"/>
       <path id="DejaVuSans-70" d="M 1159 525 
L 1159 -1331 
L 581 -1331 
L 581 3500 
L 1159 3500 
L 1159 2969 
Q 1341 3281 1617 3432 
Q 1894 3584 2278 3584 
Q 2916 3584 3314 3078 
Q 3713 2572 3713 1747 
Q 3713 922 3314 415 
Q 2916 -91 2278 -91 
Q 1894 -91 1617 61 
Q 1341 213 1159 525 
z
M 3116 1747 
Q 3116 2381 2855 2742 
Q 2594 3103 2138 3103 
Q 1681 3103 1420 2742 
Q 1159 2381 1159 1747 
Q 1159 1113 1420 752 
Q 1681 391 2138 391 
Q 2594 391 2855 752 
Q 3116 1113 3116 1747 
z
" transform="scale(0.015625)"/>
       <path id="DejaVuSans-74" d="M 1172 4494 
L 1172 3500 
L 2356 3500 
L 2356 3053 
L 1172 3053 
L 1172 1153 
Q 1172 725 1289 603 
Q 1406 481 1766 481 
L 2356 481 
L 2356 0 
L 1766 0 
Q 1100 0 847 248 
Q 594 497 594 1153 
L 594 3053 
L 172 3053 
L 172 3500 
L 594 3500 
L 594 4494 
L 1172 4494 
z
" transform="scale(0.015625)"/>
       <path id="DejaVuSans-67" d="M 2906 1791 
Q 2906 2416 2648 2759 
Q 2391 3103 1925 3103 
Q 1463 3103 1205 2759 
Q 947 2416 947 1791 
Q 947 1169 1205 825 
Q 1463 481 1925 481 
Q 2391 481 2648 825 
Q 2906 1169 2906 1791 
z
M 3481 434 
Q 3481 -459 3084 -895 
Q 2688 -1331 1869 -1331 
Q 1566 -1331 1297 -1286 
Q 1028 -1241 775 -1147 
L 775 -588 
Q 1028 -725 1275 -790 
Q 1522 -856 1778 -856 
Q 2344 -856 2625 -561 
Q 2906 -266 2906 331 
L 2906 616 
Q 2728 306 2450 153 
Q 2172 0 1784 0 
Q 1141 0 747 490 
Q 353 981 353 1791 
Q 353 2603 747 3093 
Q 1141 3584 1784 3584 
Q 2172 3584 2450 3431 
Q 2728 3278 2906 2969 
L 2906 3500 
L 3481 3500 
L 3481 434 
z
" transform="scale(0.015625)"/>
      </defs>
      <use xlink:href="#DejaVuSans-49"/>
      <use xlink:href="#DejaVuSans-6e" x="29.492188"/>
      <use xlink:href="#DejaVuSans-64" x="92.871094"/>
      <use xlink:href="#DejaVuSans-65" x="156.347656"/>
      <use xlink:href="#DejaVuSans-70" x="217.871094"/>
      <use xlink:href="#DejaVuSans-65" x="281.347656"/>
      <use xlink:href="#DejaVuSans-6e" x="342.871094"/>
      <use xlink:href="#DejaVuSans-64" x="406.25"/>
      <use xlink:href="#DejaVuSans-65" x="469.726562"/>
      <use xlink:href="#DejaVuSans-6e" x="531.25"/>
      <use xlink:href="#DejaVuSans-74" x="594.628906"/>
      <use xlink:href="#DejaVuSans-20" x="633.837891"/>
      <use xlink:href="#DejaVuSans-54" x="665.625"/>
      <use xlink:href="#DejaVuSans-72" x="711.958984"/>
      <use xlink:href="#DejaVuSans-61" x="753.072266"/>
      <use xlink:href="#DejaVuSans-69" x="814.351562"/>
      <use xlink:href="#DejaVuSans-6e" x="842.134766"/>
      <use xlink:href="#DejaVuSans-69" x="905.513672"/>
      <use xlink:href="#DejaVuSans-6e" x="933.296875"/>
      <use xlink:href="#DejaVuSans-67" x="996.675781"/>
     </g>
    </g>
    <g id="line2d_41">
     <path d="M 342.391563 293.0275 
L 358.391563 293.0275 
L 374.391563 293.0275 
" style="fill: none; stroke-dasharray: 11.1,4.8; stroke-dashoffset: 0; stroke: #666666; stroke-width: 3"/>
    </g>
    <g id="text_15">
     <!-- Myopic Oracle -->
     <g transform="translate(387.191563 298.6275) scale(0.16 -0.16)">
      <defs>
       <path id="DejaVuSans-79" d="M 2059 -325 
Q 1816 -950 1584 -1140 
Q 1353 -1331 966 -1331 
L 506 -1331 
L 506 -850 
L 844 -850 
Q 1081 -850 1212 -737 
Q 1344 -625 1503 -206 
L 1606 56 
L 191 3500 
L 800 3500 
L 1894 763 
L 2988 3500 
L 3597 3500 
L 2059 -325 
z
" transform="scale(0.015625)"/>
      </defs>
      <use xlink:href="#DejaVuSans-4d"/>
      <use xlink:href="#DejaVuSans-79" x="86.279297"/>
      <use xlink:href="#DejaVuSans-6f" x="145.458984"/>
      <use xlink:href="#DejaVuSans-70" x="206.640625"/>
      <use xlink:href="#DejaVuSans-69" x="270.117188"/>
      <use xlink:href="#DejaVuSans-63" x="297.900391"/>
      <use xlink:href="#DejaVuSans-20" x="352.880859"/>
      <use xlink:href="#DejaVuSans-4f" x="384.667969"/>
      <use xlink:href="#DejaVuSans-72" x="463.378906"/>
      <use xlink:href="#DejaVuSans-61" x="504.492188"/>
      <use xlink:href="#DejaVuSans-63" x="565.771484"/>
      <use xlink:href="#DejaVuSans-6c" x="620.751953"/>
      <use xlink:href="#DejaVuSans-65" x="648.535156"/>
     </g>
    </g>
    <g id="line2d_42">
     <path d="M 342.391563 316.5125 
L 358.391563 316.5125 
L 374.391563 316.5125 
" style="fill: none; stroke: #bf5b17; stroke-width: 3; stroke-linecap: square"/>
    </g>
    <g id="text_16">
     <!-- GP-MBTL -->
     <g transform="translate(387.191563 322.1125) scale(0.16 -0.16)">
      <use xlink:href="#DejaVuSans-47"/>
      <use xlink:href="#DejaVuSans-50" x="77.490234"/>
      <use xlink:href="#DejaVuSans-2d" x="135.542969"/>
      <use xlink:href="#DejaVuSans-4d" x="171.626953"/>
      <use xlink:href="#DejaVuSans-42" x="257.90625"/>
      <use xlink:href="#DejaVuSans-54" x="326.509766"/>
      <use xlink:href="#DejaVuSans-4c" x="387.59375"/>
     </g>
    </g>
   </g>
  </g>
 </g>
 <defs>
  <clipPath id="p41c26fd274">
   <rect x="69.019063" y="7.2" width="502.2" height="332.64"/>
  </clipPath>
 </defs>
</svg>
